<?xml version="1.0" encoding="UTF-8" standalone="no"?>
<!DOCTYPE svg PUBLIC "-//W3C//DTD SVG 1.1//EN"
 "http://www.w3.org/Graphics/SVG/1.1/DTD/svg11.dtd">
<!-- Generated by graphviz version 2.38.0 (20140413.2041)
 -->
<!-- Title: AccountFromValue Pages: 1 -->
<svg width="264pt" height="370pt"
 viewBox="0.00 0.00 264.00 370.00" xmlns="http://www.w3.org/2000/svg" xmlns:xlink="http://www.w3.org/1999/xlink">
<g id="graph0" class="graph" transform="scale(1 1) rotate(0) translate(4 366)">
<title>AccountFromValue</title>
<polygon fill="white" stroke="none" points="-4,4 -4,-366 260,-366 260,4 -4,4"/>
<!-- Node124 -->
<g id="node1" class="node"><title>Node124</title>
<polygon fill="#bfbfbf" stroke="black" points="0,-171.5 0,-190.5 100,-190.5 100,-171.5 0,-171.5"/>
<text text-anchor="middle" x="50" y="-178.5" font-family="Helvetica,sans-Serif" font-size="10.00">AccountFromValue</text>
</g>
<!-- Node125 -->
<g id="node2" class="node"><title>Node125</title>
<g id="a_node2"><a xlink:href="../../df/d1d/rpcwallet_8cpp.html#a82120a4244c802d5bb54865d5ff40eac" target="_top" xlink:title="addmultisigaddress">
<polygon fill="white" stroke="black" points="145.5,-342.5 145.5,-361.5 246.5,-361.5 246.5,-342.5 145.5,-342.5"/>
<text text-anchor="middle" x="196" y="-349.5" font-family="Helvetica,sans-Serif" font-size="10.00">addmultisigaddress</text>
</a>
</g>
</g>
<!-- Node124&#45;&gt;Node125 -->
<g id="edge1" class="edge"><title>Node124&#45;&gt;Node125</title>
<path fill="none" stroke="midnightblue" d="M56.6842,-200.432C67.0999,-232.67 92.2883,-297.2 136,-333 140.745,-336.887 146.303,-339.984 152.075,-342.452"/>
<polygon fill="midnightblue" stroke="midnightblue" points="60.0115,-199.344 53.7129,-190.825 53.3241,-201.412 60.0115,-199.344"/>
</g>
<!-- Node126 -->
<g id="node3" class="node"><title>Node126</title>
<g id="a_node3"><a xlink:href="../../df/d1d/rpcwallet_8cpp.html#ac99e9d92aca9d4b8e87ffac94120d957" target="_top" xlink:title="getaccountaddress">
<polygon fill="white" stroke="black" points="146.5,-304.5 146.5,-323.5 245.5,-323.5 245.5,-304.5 146.5,-304.5"/>
<text text-anchor="middle" x="196" y="-311.5" font-family="Helvetica,sans-Serif" font-size="10.00">getaccountaddress</text>
</a>
</g>
</g>
<!-- Node124&#45;&gt;Node126 -->
<g id="edge2" class="edge"><title>Node124&#45;&gt;Node126</title>
<path fill="none" stroke="midnightblue" d="M60.2102,-199.752C73.5335,-224.987 100.525,-269.63 136,-295 141.427,-298.881 147.686,-301.997 154.055,-304.49"/>
<polygon fill="midnightblue" stroke="midnightblue" points="63.1633,-197.839 55.4953,-190.528 56.9304,-201.025 63.1633,-197.839"/>
</g>
<!-- Node127 -->
<g id="node4" class="node"><title>Node127</title>
<g id="a_node4"><a xlink:href="../../df/d1d/rpcwallet_8cpp.html#a5395604d02b7ed6eed6bdb31cfc4982f" target="_top" xlink:title="getaddressesbyaccount">
<polygon fill="white" stroke="black" points="136,-266.5 136,-285.5 256,-285.5 256,-266.5 136,-266.5"/>
<text text-anchor="middle" x="196" y="-273.5" font-family="Helvetica,sans-Serif" font-size="10.00">getaddressesbyaccount</text>
</a>
</g>
</g>
<!-- Node124&#45;&gt;Node127 -->
<g id="edge3" class="edge"><title>Node124&#45;&gt;Node127</title>
<path fill="none" stroke="midnightblue" d="M66.0936,-198.176C81.9573,-215.271 108.402,-241.178 136,-257 142.535,-260.746 149.908,-263.865 157.171,-266.418"/>
<polygon fill="midnightblue" stroke="midnightblue" points="68.5087,-195.629 59.1972,-190.575 63.3243,-200.333 68.5087,-195.629"/>
</g>
<!-- Node128 -->
<g id="node5" class="node"><title>Node128</title>
<g id="a_node5"><a xlink:href="../../df/d1d/rpcwallet_8cpp.html#a8eed767200a352857cb9f5121d7e8c83" target="_top" xlink:title="getbalance">
<polygon fill="white" stroke="black" points="164,-228.5 164,-247.5 228,-247.5 228,-228.5 164,-228.5"/>
<text text-anchor="middle" x="196" y="-235.5" font-family="Helvetica,sans-Serif" font-size="10.00">getbalance</text>
</a>
</g>
</g>
<!-- Node124&#45;&gt;Node128 -->
<g id="edge4" class="edge"><title>Node124&#45;&gt;Node128</title>
<path fill="none" stroke="midnightblue" d="M80.1539,-194.979C96.4092,-202.533 117.125,-211.766 136,-219 144.943,-222.427 154.799,-225.768 163.852,-228.668"/>
<polygon fill="midnightblue" stroke="midnightblue" points="81.2051,-191.606 70.6655,-190.526 78.2309,-197.943 81.2051,-191.606"/>
</g>
<!-- Node129 -->
<g id="node6" class="node"><title>Node129</title>
<g id="a_node6"><a xlink:href="../../df/d1d/rpcwallet_8cpp.html#a271b9e4c68747b1c497a42e2379c590b" target="_top" xlink:title="getnewaddress">
<polygon fill="white" stroke="black" points="154.5,-190.5 154.5,-209.5 237.5,-209.5 237.5,-190.5 154.5,-190.5"/>
<text text-anchor="middle" x="196" y="-197.5" font-family="Helvetica,sans-Serif" font-size="10.00">getnewaddress</text>
</a>
</g>
</g>
<!-- Node124&#45;&gt;Node129 -->
<g id="edge5" class="edge"><title>Node124&#45;&gt;Node129</title>
<path fill="none" stroke="midnightblue" d="M110.236,-188.816C125.015,-190.766 140.536,-192.814 154.199,-194.616"/>
<polygon fill="midnightblue" stroke="midnightblue" points="110.526,-185.324 100.154,-187.486 109.61,-192.264 110.526,-185.324"/>
</g>
<!-- Node130 -->
<g id="node7" class="node"><title>Node130</title>
<g id="a_node7"><a xlink:href="../../df/d1d/rpcwallet_8cpp.html#a86f8db9f5fe23719f67a95ef66181a54" target="_top" xlink:title="getreceivedbyaccount">
<polygon fill="white" stroke="black" points="140,-152.5 140,-171.5 252,-171.5 252,-152.5 140,-152.5"/>
<text text-anchor="middle" x="196" y="-159.5" font-family="Helvetica,sans-Serif" font-size="10.00">getreceivedbyaccount</text>
</a>
</g>
</g>
<!-- Node124&#45;&gt;Node130 -->
<g id="edge6" class="edge"><title>Node124&#45;&gt;Node130</title>
<path fill="none" stroke="midnightblue" d="M110.164,-173.194C119.913,-171.907 129.987,-170.578 139.638,-169.305"/>
<polygon fill="midnightblue" stroke="midnightblue" points="109.61,-169.736 100.154,-174.514 110.526,-176.676 109.61,-169.736"/>
</g>
<!-- Node131 -->
<g id="node8" class="node"><title>Node131</title>
<g id="a_node8"><a xlink:href="../../df/d1d/rpcwallet_8cpp.html#a64a4f35df567d7ff5b5d7ce92c56950c" target="_top" xlink:title="movecmd">
<polygon fill="white" stroke="black" points="166.5,-114.5 166.5,-133.5 225.5,-133.5 225.5,-114.5 166.5,-114.5"/>
<text text-anchor="middle" x="196" y="-121.5" font-family="Helvetica,sans-Serif" font-size="10.00">movecmd</text>
</a>
</g>
</g>
<!-- Node124&#45;&gt;Node131 -->
<g id="edge7" class="edge"><title>Node124&#45;&gt;Node131</title>
<path fill="none" stroke="midnightblue" d="M80.1539,-167.021C96.4092,-159.467 117.125,-150.234 136,-143 145.747,-139.265 156.578,-135.632 166.273,-132.561"/>
<polygon fill="midnightblue" stroke="midnightblue" points="78.2309,-164.057 70.6655,-171.474 81.2051,-170.394 78.2309,-164.057"/>
</g>
<!-- Node132 -->
<g id="node9" class="node"><title>Node132</title>
<g id="a_node9"><a xlink:href="../../df/d1d/rpcwallet_8cpp.html#a887e8b6785b39cba59fe24ea952a4f10" target="_top" xlink:title="sendfrom">
<polygon fill="white" stroke="black" points="167.5,-76.5 167.5,-95.5 224.5,-95.5 224.5,-76.5 167.5,-76.5"/>
<text text-anchor="middle" x="196" y="-83.5" font-family="Helvetica,sans-Serif" font-size="10.00">sendfrom</text>
</a>
</g>
</g>
<!-- Node124&#45;&gt;Node132 -->
<g id="edge8" class="edge"><title>Node124&#45;&gt;Node132</title>
<path fill="none" stroke="midnightblue" d="M66.0936,-163.824C81.9573,-146.729 108.402,-120.822 136,-105 145.616,-99.4873 157.045,-95.3349 167.271,-92.3405"/>
<polygon fill="midnightblue" stroke="midnightblue" points="63.3243,-161.667 59.1972,-171.425 68.5087,-166.371 63.3243,-161.667"/>
</g>
<!-- Node133 -->
<g id="node10" class="node"><title>Node133</title>
<g id="a_node10"><a xlink:href="../../df/d1d/rpcwallet_8cpp.html#a02c1a7b5244896e62bc5ae698f7a76c9" target="_top" xlink:title="sendmany">
<polygon fill="white" stroke="black" points="165,-38.5 165,-57.5 227,-57.5 227,-38.5 165,-38.5"/>
<text text-anchor="middle" x="196" y="-45.5" font-family="Helvetica,sans-Serif" font-size="10.00">sendmany</text>
</a>
</g>
</g>
<!-- Node124&#45;&gt;Node133 -->
<g id="edge9" class="edge"><title>Node124&#45;&gt;Node133</title>
<path fill="none" stroke="midnightblue" d="M60.2102,-162.248C73.5335,-137.013 100.525,-92.3701 136,-67 144.49,-60.928 155.017,-56.7296 164.818,-53.8567"/>
<polygon fill="midnightblue" stroke="midnightblue" points="56.9304,-160.975 55.4953,-171.472 63.1633,-164.161 56.9304,-160.975"/>
</g>
<!-- Node134 -->
<g id="node11" class="node"><title>Node134</title>
<g id="a_node11"><a xlink:href="../../df/d1d/rpcwallet_8cpp.html#a98d0e31e436c642d77ded283a8e3810a" target="_top" xlink:title="setaccount">
<polygon fill="white" stroke="black" points="163.5,-0.5 163.5,-19.5 228.5,-19.5 228.5,-0.5 163.5,-0.5"/>
<text text-anchor="middle" x="196" y="-7.5" font-family="Helvetica,sans-Serif" font-size="10.00">setaccount</text>
</a>
</g>
</g>
<!-- Node124&#45;&gt;Node134 -->
<g id="edge10" class="edge"><title>Node124&#45;&gt;Node134</title>
<path fill="none" stroke="midnightblue" d="M56.6842,-161.568C67.0999,-129.33 92.2883,-64.8005 136,-29 143.826,-22.5906 153.859,-18.3264 163.424,-15.4962"/>
<polygon fill="midnightblue" stroke="midnightblue" points="53.3241,-160.588 53.7129,-171.175 60.0115,-162.656 53.3241,-160.588"/>
</g>
</g>
</svg>
