<?xml version="1.0" encoding="UTF-8" standalone="no"?>
<!DOCTYPE svg PUBLIC "-//W3C//DTD SVG 1.1//EN"
 "http://www.w3.org/Graphics/SVG/1.1/DTD/svg11.dtd">
<!-- Generated by graphviz version 2.38.0 (20140413.2041)
 -->
<!-- Title: init_big Pages: 1 -->
<svg width="243pt" height="28pt"
 viewBox="0.00 0.00 243.00 28.00" xmlns="http://www.w3.org/2000/svg" xmlns:xlink="http://www.w3.org/1999/xlink">
<g id="graph0" class="graph" transform="scale(1 1) rotate(0) translate(4 24)">
<title>init_big</title>
<polygon fill="white" stroke="none" points="-4,4 -4,-24 239,-24 239,4 -4,4"/>
<!-- Node441 -->
<g id="node1" class="node"><title>Node441</title>
<polygon fill="#bfbfbf" stroke="black" points="0,-0.5 0,-19.5 47,-19.5 47,-0.5 0,-0.5"/>
<text text-anchor="middle" x="23.5" y="-7.5" font-family="Helvetica,sans-Serif" font-size="10.00">init_big</text>
</g>
<!-- Node442 -->
<g id="node2" class="node"><title>Node442</title>
<g id="a_node2"><a xlink:href="../../d5/d9f/glibc__compat_8cpp.html#a0f46826ab0466591e136db24394923cf" target="_top" xlink:title="memcpy">
<polygon fill="white" stroke="black" points="83,-0.5 83,-19.5 137,-19.5 137,-0.5 83,-0.5"/>
<text text-anchor="middle" x="110" y="-7.5" font-family="Helvetica,sans-Serif" font-size="10.00">memcpy</text>
</a>
</g>
</g>
<!-- Node441&#45;&gt;Node442 -->
<g id="edge1" class="edge"><title>Node441&#45;&gt;Node442</title>
<path fill="none" stroke="midnightblue" d="M47.1444,-10C54.9296,-10 63.856,-10 72.4604,-10"/>
<polygon fill="midnightblue" stroke="midnightblue" points="72.698,-13.5001 82.698,-10 72.6979,-6.5001 72.698,-13.5001"/>
</g>
<!-- Node443 -->
<g id="node3" class="node"><title>Node443</title>
<g id="a_node3"><a xlink:href="../../d5/d9f/glibc__compat_8cpp.html#a9778d49e9029dd75bc53ecbbf9f5e9a1" target="_top" xlink:title="memmove">
<polygon fill="white" stroke="black" points="173,-0.5 173,-19.5 235,-19.5 235,-0.5 173,-0.5"/>
<text text-anchor="middle" x="204" y="-7.5" font-family="Helvetica,sans-Serif" font-size="10.00">memmove</text>
</a>
</g>
</g>
<!-- Node442&#45;&gt;Node443 -->
<g id="edge2" class="edge"><title>Node442&#45;&gt;Node443</title>
<path fill="none" stroke="midnightblue" d="M137.117,-10C145.136,-10 154.152,-10 162.881,-10"/>
<polygon fill="midnightblue" stroke="midnightblue" points="162.92,-13.5001 172.92,-10 162.919,-6.5001 162.92,-13.5001"/>
</g>
</g>
</svg>
