<?xml version="1.0" encoding="UTF-8" standalone="no"?>
<!DOCTYPE svg PUBLIC "-//W3C//DTD SVG 1.1//EN"
 "http://www.w3.org/Graphics/SVG/1.1/DTD/svg11.dtd">
<!-- Generated by graphviz version 2.38.0 (20140413.2041)
 -->
<!-- Title: finalize_big Pages: 1 -->
<svg width="460pt" height="142pt"
 viewBox="0.00 0.00 460.00 142.00" xmlns="http://www.w3.org/2000/svg" xmlns:xlink="http://www.w3.org/1999/xlink">
<g id="graph0" class="graph" transform="scale(1 1) rotate(0) translate(4 138)">
<title>finalize_big</title>
<polygon fill="white" stroke="none" points="-4,4 -4,-138 456,-138 456,4 -4,4"/>
<!-- Node292 -->
<g id="node1" class="node"><title>Node292</title>
<polygon fill="#bfbfbf" stroke="black" points="0,-38.5 0,-57.5 65,-57.5 65,-38.5 0,-38.5"/>
<text text-anchor="middle" x="32.5" y="-45.5" font-family="Helvetica,sans-Serif" font-size="10.00">finalize_big</text>
</g>
<!-- Node293 -->
<g id="node2" class="node"><title>Node293</title>
<g id="a_node2"><a xlink:href="../../d5/db3/simd_8c.html#a99e61f96a32c56a36a88309ff3eb4a93" target="_top" xlink:title="compress_big">
<polygon fill="white" stroke="black" points="110,-76.5 110,-95.5 187,-95.5 187,-76.5 110,-76.5"/>
<text text-anchor="middle" x="148.5" y="-83.5" font-family="Helvetica,sans-Serif" font-size="10.00">compress_big</text>
</a>
</g>
</g>
<!-- Node292&#45;&gt;Node293 -->
<g id="edge1" class="edge"><title>Node292&#45;&gt;Node293</title>
<path fill="none" stroke="midnightblue" d="M62.267,-57.589C76.4433,-62.3144 93.7366,-68.0789 109.032,-73.1774"/>
<polygon fill="midnightblue" stroke="midnightblue" points="108.149,-76.5721 118.742,-76.4141 110.362,-69.9313 108.149,-76.5721"/>
</g>
<!-- Node299 -->
<g id="node8" class="node"><title>Node299</title>
<g id="a_node8"><a xlink:href="../../d5/db3/simd_8c.html#af90212b0a3613d006112ab77cc0bb72b" target="_top" xlink:title="encode_count_big">
<polygon fill="white" stroke="black" points="101,-38.5 101,-57.5 196,-57.5 196,-38.5 101,-38.5"/>
<text text-anchor="middle" x="148.5" y="-45.5" font-family="Helvetica,sans-Serif" font-size="10.00">encode_count_big</text>
</a>
</g>
</g>
<!-- Node292&#45;&gt;Node299 -->
<g id="edge7" class="edge"><title>Node292&#45;&gt;Node299</title>
<path fill="none" stroke="midnightblue" d="M65.2554,-48C73.2106,-48 81.988,-48 90.7573,-48"/>
<polygon fill="midnightblue" stroke="midnightblue" points="90.9983,-51.5001 100.998,-48 90.9982,-44.5001 90.9983,-51.5001"/>
</g>
<!-- Node300 -->
<g id="node9" class="node"><title>Node300</title>
<g id="a_node9"><a xlink:href="../../d9/d00/sph__types_8h.html#ac2371b8cc05f7846094fb25d2ef48364" target="_top" xlink:title="Encode a 32&#45;bit value into the provided buffer (little endian convention). ">
<polygon fill="white" stroke="black" points="250,-0.5 250,-19.5 321,-19.5 321,-0.5 250,-0.5"/>
<text text-anchor="middle" x="285.5" y="-7.5" font-family="Helvetica,sans-Serif" font-size="10.00">sph_enc32le</text>
</a>
</g>
</g>
<!-- Node292&#45;&gt;Node300 -->
<g id="edge10" class="edge"><title>Node292&#45;&gt;Node300</title>
<path fill="none" stroke="midnightblue" d="M63.1437,-38.4708C74.8327,-35.0262 88.4442,-31.3988 101,-29 147.871,-20.0451 202.34,-15.0779 239.687,-12.49"/>
<polygon fill="midnightblue" stroke="midnightblue" points="240,-15.977 249.746,-11.8219 239.536,-8.99243 240,-15.977"/>
</g>
<!-- Node294 -->
<g id="node3" class="node"><title>Node294</title>
<g id="a_node3"><a xlink:href="../../d8/d3c/util_8h.html#aad133bb6103b53cebf03fd01e2f11ba1" target="_top" xlink:title="Translation function: Call Translate signal on UI interface, which returns a boost::optional result...">
<polygon fill="white" stroke="black" points="271,-114.5 271,-133.5 300,-133.5 300,-114.5 271,-114.5"/>
<text text-anchor="middle" x="285.5" y="-121.5" font-family="Helvetica,sans-Serif" font-size="10.00">_</text>
</a>
</g>
</g>
<!-- Node293&#45;&gt;Node294 -->
<g id="edge2" class="edge"><title>Node293&#45;&gt;Node294</title>
<path fill="none" stroke="midnightblue" d="M183.566,-95.589C207.755,-102.398 239.608,-111.364 261.005,-117.387"/>
<polygon fill="midnightblue" stroke="midnightblue" points="260.293,-120.822 270.867,-120.163 262.19,-114.084 260.293,-120.822"/>
</g>
<!-- Node295 -->
<g id="node4" class="node"><title>Node295</title>
<g id="a_node4"><a xlink:href="../../d5/d9f/glibc__compat_8cpp.html#a0f46826ab0466591e136db24394923cf" target="_top" xlink:title="memcpy">
<polygon fill="white" stroke="black" points="258.5,-76.5 258.5,-95.5 312.5,-95.5 312.5,-76.5 258.5,-76.5"/>
<text text-anchor="middle" x="285.5" y="-83.5" font-family="Helvetica,sans-Serif" font-size="10.00">memcpy</text>
</a>
</g>
</g>
<!-- Node293&#45;&gt;Node295 -->
<g id="edge3" class="edge"><title>Node293&#45;&gt;Node295</title>
<path fill="none" stroke="midnightblue" d="M187.105,-86C206.195,-86 229.283,-86 248.188,-86"/>
<polygon fill="midnightblue" stroke="midnightblue" points="248.208,-89.5001 258.208,-86 248.208,-82.5001 248.208,-89.5001"/>
</g>
<!-- Node297 -->
<g id="node6" class="node"><title>Node297</title>
<g id="a_node6"><a xlink:href="../../d9/d00/sph__types_8h.html#aa552d4f0546f0147dc7aa114dfdc534f" target="_top" xlink:title="Decode a 32&#45;bit value from the provided buffer (little endian convention). ">
<polygon fill="white" stroke="black" points="232,-38.5 232,-57.5 339,-57.5 339,-38.5 232,-38.5"/>
<text text-anchor="middle" x="285.5" y="-45.5" font-family="Helvetica,sans-Serif" font-size="10.00">sph_dec32le_aligned</text>
</a>
</g>
</g>
<!-- Node293&#45;&gt;Node297 -->
<g id="edge5" class="edge"><title>Node293&#45;&gt;Node297</title>
<path fill="none" stroke="midnightblue" d="M183.566,-76.411C200.913,-71.5281 222.202,-65.5357 240.749,-60.315"/>
<polygon fill="midnightblue" stroke="midnightblue" points="241.767,-63.6646 250.445,-57.5859 239.87,-56.9265 241.767,-63.6646"/>
</g>
<!-- Node296 -->
<g id="node5" class="node"><title>Node296</title>
<g id="a_node5"><a xlink:href="../../d5/d9f/glibc__compat_8cpp.html#a9778d49e9029dd75bc53ecbbf9f5e9a1" target="_top" xlink:title="memmove">
<polygon fill="white" stroke="black" points="382.5,-76.5 382.5,-95.5 444.5,-95.5 444.5,-76.5 382.5,-76.5"/>
<text text-anchor="middle" x="413.5" y="-83.5" font-family="Helvetica,sans-Serif" font-size="10.00">memmove</text>
</a>
</g>
</g>
<!-- Node295&#45;&gt;Node296 -->
<g id="edge4" class="edge"><title>Node295&#45;&gt;Node296</title>
<path fill="none" stroke="midnightblue" d="M312.607,-86C329.838,-86 352.753,-86 372.289,-86"/>
<polygon fill="midnightblue" stroke="midnightblue" points="372.442,-89.5001 382.442,-86 372.442,-82.5001 372.442,-89.5001"/>
</g>
<!-- Node298 -->
<g id="node7" class="node"><title>Node298</title>
<g id="a_node7"><a xlink:href="../../d9/d00/sph__types_8h.html#aa1be76f04a226cd4e9bc3ac49b65b49b" target="_top" xlink:title="sph_bswap32">
<polygon fill="white" stroke="black" points="375,-19.5 375,-38.5 452,-38.5 452,-19.5 375,-19.5"/>
<text text-anchor="middle" x="413.5" y="-26.5" font-family="Helvetica,sans-Serif" font-size="10.00">sph_bswap32</text>
</a>
</g>
</g>
<!-- Node297&#45;&gt;Node298 -->
<g id="edge6" class="edge"><title>Node297&#45;&gt;Node298</title>
<path fill="none" stroke="midnightblue" d="M339.205,-40.0524C347.739,-38.7655 356.532,-37.4396 364.934,-36.1726"/>
<polygon fill="midnightblue" stroke="midnightblue" points="365.58,-39.6149 374.946,-34.6628 364.536,-32.6931 365.58,-39.6149"/>
</g>
<!-- Node299&#45;&gt;Node300 -->
<g id="edge8" class="edge"><title>Node299&#45;&gt;Node300</title>
<path fill="none" stroke="midnightblue" d="M183.566,-38.411C200.913,-33.5281 222.202,-27.5357 240.749,-22.315"/>
<polygon fill="midnightblue" stroke="midnightblue" points="241.767,-25.6646 250.445,-19.5859 239.87,-18.9265 241.767,-25.6646"/>
</g>
<!-- Node300&#45;&gt;Node298 -->
<g id="edge9" class="edge"><title>Node300&#45;&gt;Node298</title>
<path fill="none" stroke="midnightblue" d="M321.264,-15.2421C334.628,-17.2574 350.13,-19.5949 364.521,-21.765"/>
<polygon fill="midnightblue" stroke="midnightblue" points="364.347,-25.2783 374.757,-23.3086 365.391,-18.3566 364.347,-25.2783"/>
</g>
</g>
</svg>
