<?xml version="1.0" encoding="UTF-8" standalone="no"?>
<!DOCTYPE svg PUBLIC "-//W3C//DTD SVG 1.1//EN"
 "http://www.w3.org/Graphics/SVG/1.1/DTD/svg11.dtd">
<!-- Generated by graphviz version 2.38.0 (20140413.2041)
 -->
<!-- Title: finalize_small Pages: 1 -->
<svg width="482pt" height="142pt"
 viewBox="0.00 0.00 482.00 142.00" xmlns="http://www.w3.org/2000/svg" xmlns:xlink="http://www.w3.org/1999/xlink">
<g id="graph0" class="graph" transform="scale(1 1) rotate(0) translate(4 138)">
<title>finalize_small</title>
<polygon fill="white" stroke="none" points="-4,4 -4,-138 478,-138 478,4 -4,4"/>
<!-- Node427 -->
<g id="node1" class="node"><title>Node427</title>
<polygon fill="#bfbfbf" stroke="black" points="0,-38.5 0,-57.5 76,-57.5 76,-38.5 0,-38.5"/>
<text text-anchor="middle" x="38" y="-45.5" font-family="Helvetica,sans-Serif" font-size="10.00">finalize_small</text>
</g>
<!-- Node428 -->
<g id="node2" class="node"><title>Node428</title>
<g id="a_node2"><a xlink:href="../../d5/db3/simd_8c.html#ac486e0927e3e32dcc847013051e965e9" target="_top" xlink:title="compress_small">
<polygon fill="white" stroke="black" points="121,-76.5 121,-95.5 209,-95.5 209,-76.5 121,-76.5"/>
<text text-anchor="middle" x="165" y="-83.5" font-family="Helvetica,sans-Serif" font-size="10.00">compress_small</text>
</a>
</g>
</g>
<!-- Node427&#45;&gt;Node428 -->
<g id="edge1" class="edge"><title>Node427&#45;&gt;Node428</title>
<path fill="none" stroke="midnightblue" d="M70.5428,-57.589C86.383,-62.4044 105.773,-68.2988 122.776,-73.468"/>
<polygon fill="midnightblue" stroke="midnightblue" points="121.882,-76.8541 132.467,-76.4141 123.918,-70.1567 121.882,-76.8541"/>
</g>
<!-- Node434 -->
<g id="node8" class="node"><title>Node434</title>
<g id="a_node8"><a xlink:href="../../d5/db3/simd_8c.html#a9984794dc879e50c6ec797ea9bd55a7d" target="_top" xlink:title="encode_count_small">
<polygon fill="white" stroke="black" points="112,-38.5 112,-57.5 218,-57.5 218,-38.5 112,-38.5"/>
<text text-anchor="middle" x="165" y="-45.5" font-family="Helvetica,sans-Serif" font-size="10.00">encode_count_small</text>
</a>
</g>
</g>
<!-- Node427&#45;&gt;Node434 -->
<g id="edge7" class="edge"><title>Node427&#45;&gt;Node434</title>
<path fill="none" stroke="midnightblue" d="M76.1657,-48C84.2349,-48 92.9822,-48 101.724,-48"/>
<polygon fill="midnightblue" stroke="midnightblue" points="101.942,-51.5001 111.942,-48 101.942,-44.5001 101.942,-51.5001"/>
</g>
<!-- Node435 -->
<g id="node9" class="node"><title>Node435</title>
<g id="a_node9"><a xlink:href="../../d9/d00/sph__types_8h.html#ac2371b8cc05f7846094fb25d2ef48364" target="_top" xlink:title="Encode a 32&#45;bit value into the provided buffer (little endian convention). ">
<polygon fill="white" stroke="black" points="272,-0.5 272,-19.5 343,-19.5 343,-0.5 272,-0.5"/>
<text text-anchor="middle" x="307.5" y="-7.5" font-family="Helvetica,sans-Serif" font-size="10.00">sph_enc32le</text>
</a>
</g>
</g>
<!-- Node427&#45;&gt;Node435 -->
<g id="edge10" class="edge"><title>Node427&#45;&gt;Node435</title>
<path fill="none" stroke="midnightblue" d="M71.1015,-38.48C83.7485,-35.0366 98.4618,-31.4077 112,-29 162.902,-19.9475 222.12,-14.9399 261.719,-12.3693"/>
<polygon fill="midnightblue" stroke="midnightblue" points="262.082,-15.8535 271.845,-11.7373 261.646,-8.86707 262.082,-15.8535"/>
</g>
<!-- Node429 -->
<g id="node3" class="node"><title>Node429</title>
<g id="a_node3"><a xlink:href="../../d8/d3c/util_8h.html#aad133bb6103b53cebf03fd01e2f11ba1" target="_top" xlink:title="Translation function: Call Translate signal on UI interface, which returns a boost::optional result...">
<polygon fill="white" stroke="black" points="293,-114.5 293,-133.5 322,-133.5 322,-114.5 293,-114.5"/>
<text text-anchor="middle" x="307.5" y="-121.5" font-family="Helvetica,sans-Serif" font-size="10.00">_</text>
</a>
</g>
</g>
<!-- Node428&#45;&gt;Node429 -->
<g id="edge2" class="edge"><title>Node428&#45;&gt;Node429</title>
<path fill="none" stroke="midnightblue" d="M201.454,-95.589C226.884,-102.467 260.451,-111.545 282.72,-117.569"/>
<polygon fill="midnightblue" stroke="midnightblue" points="282.093,-121.024 292.66,-120.257 283.921,-114.267 282.093,-121.024"/>
</g>
<!-- Node430 -->
<g id="node4" class="node"><title>Node430</title>
<g id="a_node4"><a xlink:href="../../d5/d9f/glibc__compat_8cpp.html#a0f46826ab0466591e136db24394923cf" target="_top" xlink:title="memcpy">
<polygon fill="white" stroke="black" points="280.5,-76.5 280.5,-95.5 334.5,-95.5 334.5,-76.5 280.5,-76.5"/>
<text text-anchor="middle" x="307.5" y="-83.5" font-family="Helvetica,sans-Serif" font-size="10.00">memcpy</text>
</a>
</g>
</g>
<!-- Node428&#45;&gt;Node430 -->
<g id="edge3" class="edge"><title>Node428&#45;&gt;Node430</title>
<path fill="none" stroke="midnightblue" d="M209.301,-86C228.803,-86 251.572,-86 270.168,-86"/>
<polygon fill="midnightblue" stroke="midnightblue" points="270.3,-89.5001 280.3,-86 270.3,-82.5001 270.3,-89.5001"/>
</g>
<!-- Node432 -->
<g id="node6" class="node"><title>Node432</title>
<g id="a_node6"><a xlink:href="../../d9/d00/sph__types_8h.html#aa552d4f0546f0147dc7aa114dfdc534f" target="_top" xlink:title="Decode a 32&#45;bit value from the provided buffer (little endian convention). ">
<polygon fill="white" stroke="black" points="254,-38.5 254,-57.5 361,-57.5 361,-38.5 254,-38.5"/>
<text text-anchor="middle" x="307.5" y="-45.5" font-family="Helvetica,sans-Serif" font-size="10.00">sph_dec32le_aligned</text>
</a>
</g>
</g>
<!-- Node428&#45;&gt;Node432 -->
<g id="edge5" class="edge"><title>Node428&#45;&gt;Node432</title>
<path fill="none" stroke="midnightblue" d="M201.454,-76.411C219.591,-71.5056 241.868,-65.4804 261.233,-60.2429"/>
<polygon fill="midnightblue" stroke="midnightblue" points="262.318,-63.5754 271.057,-57.5859 260.49,-56.8182 262.318,-63.5754"/>
</g>
<!-- Node431 -->
<g id="node5" class="node"><title>Node431</title>
<g id="a_node5"><a xlink:href="../../d5/d9f/glibc__compat_8cpp.html#a9778d49e9029dd75bc53ecbbf9f5e9a1" target="_top" xlink:title="memmove">
<polygon fill="white" stroke="black" points="404.5,-76.5 404.5,-95.5 466.5,-95.5 466.5,-76.5 404.5,-76.5"/>
<text text-anchor="middle" x="435.5" y="-83.5" font-family="Helvetica,sans-Serif" font-size="10.00">memmove</text>
</a>
</g>
</g>
<!-- Node430&#45;&gt;Node431 -->
<g id="edge4" class="edge"><title>Node430&#45;&gt;Node431</title>
<path fill="none" stroke="midnightblue" d="M334.607,-86C351.838,-86 374.753,-86 394.289,-86"/>
<polygon fill="midnightblue" stroke="midnightblue" points="394.442,-89.5001 404.442,-86 394.442,-82.5001 394.442,-89.5001"/>
</g>
<!-- Node433 -->
<g id="node7" class="node"><title>Node433</title>
<g id="a_node7"><a xlink:href="../../d9/d00/sph__types_8h.html#aa1be76f04a226cd4e9bc3ac49b65b49b" target="_top" xlink:title="sph_bswap32">
<polygon fill="white" stroke="black" points="397,-19.5 397,-38.5 474,-38.5 474,-19.5 397,-19.5"/>
<text text-anchor="middle" x="435.5" y="-26.5" font-family="Helvetica,sans-Serif" font-size="10.00">sph_bswap32</text>
</a>
</g>
</g>
<!-- Node432&#45;&gt;Node433 -->
<g id="edge6" class="edge"><title>Node432&#45;&gt;Node433</title>
<path fill="none" stroke="midnightblue" d="M361.205,-40.0524C369.739,-38.7655 378.532,-37.4396 386.934,-36.1726"/>
<polygon fill="midnightblue" stroke="midnightblue" points="387.58,-39.6149 396.946,-34.6628 386.536,-32.6931 387.58,-39.6149"/>
</g>
<!-- Node434&#45;&gt;Node435 -->
<g id="edge8" class="edge"><title>Node434&#45;&gt;Node435</title>
<path fill="none" stroke="midnightblue" d="M201.454,-38.411C219.73,-33.4681 242.209,-27.3884 261.676,-22.1231"/>
<polygon fill="midnightblue" stroke="midnightblue" points="262.805,-25.4438 271.544,-19.4543 260.977,-18.6866 262.805,-25.4438"/>
</g>
<!-- Node435&#45;&gt;Node433 -->
<g id="edge9" class="edge"><title>Node435&#45;&gt;Node433</title>
<path fill="none" stroke="midnightblue" d="M343.264,-15.2421C356.628,-17.2574 372.13,-19.5949 386.521,-21.765"/>
<polygon fill="midnightblue" stroke="midnightblue" points="386.347,-25.2783 396.757,-23.3086 387.391,-18.3566 386.347,-25.2783"/>
</g>
</g>
</svg>
