<?xml version="1.0" encoding="UTF-8" standalone="no"?>
<!DOCTYPE svg PUBLIC "-//W3C//DTD SVG 1.1//EN"
 "http://www.w3.org/Graphics/SVG/1.1/DTD/svg11.dtd">
<!-- Generated by graphviz version 2.38.0 (20140413.2041)
 -->
<!-- Title: AskPassphraseDialog::setModel Pages: 1 -->
<!--zoomable 142 -->
<svg id="main" version="1.1" xmlns="http://www.w3.org/2000/svg" xmlns:xlink="http://www.w3.org/1999/xlink" xml:space="preserve" onload="init(evt)">
<style type="text/css"><![CDATA[
.edge:hover path { stroke: red; }
.edge:hover polygon { stroke: red; fill: red; }
]]></style>
<script type="text/javascript"><![CDATA[
var edges = document.getElementsByTagName('g');
if (edges && edges.length) {
  for (var i=0;i<edges.length;i++) {
    if (edges[i].id.substr(0,4)=='edge') {
      edges[i].setAttribute('class','edge');
    }
  }
}
]]></script>
        <defs>
                <circle id="rim" cx="0" cy="0" r="7"/>
                <circle id="rim2" cx="0" cy="0" r="3.5"/>
                <g id="zoomPlus">
                        <use xlink:href="#rim" fill="#404040">
                                <set attributeName="fill" to="#808080" begin="zoomplus.mouseover" end="zoomplus.mouseout"/>
                        </use>
                        <path d="M-4,0h8M0,-4v8" fill="none" stroke="white" stroke-width="1.5" pointer-events="none"/>
                </g>
                <g id="zoomMin">
                        <use xlink:href="#rim" fill="#404040">
                                <set attributeName="fill" to="#808080" begin="zoomminus.mouseover" end="zoomminus.mouseout"/>
                        </use>
                        <path d="M-4,0h8" fill="none" stroke="white" stroke-width="1.5" pointer-events="none"/>
                </g>
                <g id="dirArrow">
                        <path fill="none" stroke="white" stroke-width="1.5" d="M0,-3.0v7 M-2.5,-0.5L0,-3.0L2.5,-0.5"/>
                </g>
               <g id="resetDef">
                       <use xlink:href="#rim2" fill="#404040">
                               <set attributeName="fill" to="#808080" begin="reset.mouseover" end="reset.mouseout"/>
                       </use>
               </g>
        </defs>

<script type="text/javascript">
var viewWidth = 667;
var viewHeight = 142;
var sectionId = 'dynsection-9';
</script>
<script xlink:href="../../svgpan.js"/>
<svg id="graph" class="graph">
<g id="viewport">
<title>AskPassphraseDialog::setModel</title>
<polygon fill="white" stroke="none" points="-4,4 -4,-138 663,-138 663,4 -4,4"/>
<!-- Node208 -->
<g id="node1" class="node"><title>Node208</title>
<polygon fill="#bfbfbf" stroke="black" points="0,-71 0,-101 113,-101 113,-71 0,-71"/>
<text text-anchor="start" x="8" y="-89" font-family="Helvetica,sans-Serif" font-size="10.00">AskPassphraseDialog</text>
<text text-anchor="middle" x="56.5" y="-78" font-family="Helvetica,sans-Serif" font-size="10.00">::setModel</text>
</g>
<!-- Node209 -->
<g id="node2" class="node"><title>Node209</title>
<g id="a_node2"><a xlink:href="../../de/d44/class_wallet_view.html#a36699c31e256becb2afd92f834830ba0" target="_top" xlink:title="Change encrypted wallet passphrase. ">
<polygon fill="white" stroke="black" points="149,-114.5 149,-133.5 304,-133.5 304,-114.5 149,-114.5"/>
<text text-anchor="middle" x="226.5" y="-121.5" font-family="Helvetica,sans-Serif" font-size="10.00">WalletView::changePassphrase</text>
</a>
</g>
</g>
<!-- Node208&#45;&gt;Node209 -->
<g id="edge1" class="edge"><title>Node208&#45;&gt;Node209</title>
<path fill="none" stroke="midnightblue" d="M123.229,-100.867C143.454,-105.442 165.164,-110.353 183.356,-114.467"/>
<polygon fill="midnightblue" stroke="midnightblue" points="123.967,-97.4459 113.442,-98.6534 122.423,-104.273 123.967,-97.4459"/>
</g>
<!-- Node211 -->
<g id="node4" class="node"><title>Node211</title>
<g id="a_node4"><a xlink:href="../../de/d44/class_wallet_view.html#a164c3de8fc69ef6f39fb7c15e4bda553" target="_top" xlink:title="Encrypt the wallet. ">
<polygon fill="white" stroke="black" points="160.5,-76.5 160.5,-95.5 292.5,-95.5 292.5,-76.5 160.5,-76.5"/>
<text text-anchor="middle" x="226.5" y="-83.5" font-family="Helvetica,sans-Serif" font-size="10.00">WalletView::encryptWallet</text>
</a>
</g>
</g>
<!-- Node208&#45;&gt;Node211 -->
<g id="edge3" class="edge"><title>Node208&#45;&gt;Node211</title>
<path fill="none" stroke="midnightblue" d="M123.511,-86C135.674,-86 148.365,-86 160.498,-86"/>
<polygon fill="midnightblue" stroke="midnightblue" points="123.442,-82.5001 113.442,-86 123.442,-89.5001 123.442,-82.5001"/>
</g>
<!-- Node213 -->
<g id="node6" class="node"><title>Node213</title>
<g id="a_node6"><a xlink:href="../../de/d44/class_wallet_view.html#a748cbe57f4c373baa073b186e3624dee" target="_top" xlink:title="Ask for passphrase to unlock wallet temporarily. ">
<polygon fill="white" stroke="black" points="162.5,-38.5 162.5,-57.5 290.5,-57.5 290.5,-38.5 162.5,-38.5"/>
<text text-anchor="middle" x="226.5" y="-45.5" font-family="Helvetica,sans-Serif" font-size="10.00">WalletView::unlockWallet</text>
</a>
</g>
</g>
<!-- Node208&#45;&gt;Node213 -->
<g id="edge5" class="edge"><title>Node208&#45;&gt;Node213</title>
<path fill="none" stroke="midnightblue" d="M123.229,-71.1327C143.454,-66.5581 165.164,-61.6475 183.356,-57.5327"/>
<polygon fill="midnightblue" stroke="midnightblue" points="122.423,-67.7265 113.442,-73.3466 123.967,-74.5541 122.423,-67.7265"/>
</g>
<!-- Node210 -->
<g id="node3" class="node"><title>Node210</title>
<g id="a_node3"><a xlink:href="../../d9/dff/class_wallet_frame.html#a0a4026a734acdc0f5fbd5f775c167443" target="_top" xlink:title="Change encrypted wallet passphrase. ">
<polygon fill="white" stroke="black" points="340,-114.5 340,-133.5 501,-133.5 501,-114.5 340,-114.5"/>
<text text-anchor="middle" x="420.5" y="-121.5" font-family="Helvetica,sans-Serif" font-size="10.00">WalletFrame::changePassphrase</text>
</a>
</g>
</g>
<!-- Node209&#45;&gt;Node210 -->
<g id="edge2" class="edge"><title>Node209&#45;&gt;Node210</title>
<path fill="none" stroke="midnightblue" d="M314.438,-124C322.876,-124 331.407,-124 339.769,-124"/>
<polygon fill="midnightblue" stroke="midnightblue" points="314.211,-120.5 304.211,-124 314.211,-127.5 314.211,-120.5"/>
</g>
<!-- Node212 -->
<g id="node5" class="node"><title>Node212</title>
<g id="a_node5"><a xlink:href="../../d9/dff/class_wallet_frame.html#a8a9a419ba3e249f29fe321f2d789b761" target="_top" xlink:title="Encrypt the wallet. ">
<polygon fill="white" stroke="black" points="351.5,-76.5 351.5,-95.5 489.5,-95.5 489.5,-76.5 351.5,-76.5"/>
<text text-anchor="middle" x="420.5" y="-83.5" font-family="Helvetica,sans-Serif" font-size="10.00">WalletFrame::encryptWallet</text>
</a>
</g>
</g>
<!-- Node211&#45;&gt;Node212 -->
<g id="edge4" class="edge"><title>Node211&#45;&gt;Node212</title>
<path fill="none" stroke="midnightblue" d="M302.861,-86C318.83,-86 335.599,-86 351.284,-86"/>
<polygon fill="midnightblue" stroke="midnightblue" points="302.502,-82.5001 292.502,-86 302.502,-89.5001 302.502,-82.5001"/>
</g>
<!-- Node214 -->
<g id="node7" class="node"><title>Node214</title>
<g id="a_node7"><a xlink:href="../../d9/dff/class_wallet_frame.html#a31b6e87c87b383ef53225b6c2b37f057" target="_top" xlink:title="Ask for passphrase to unlock wallet temporarily. ">
<polygon fill="white" stroke="black" points="353.5,-38.5 353.5,-57.5 487.5,-57.5 487.5,-38.5 353.5,-38.5"/>
<text text-anchor="middle" x="420.5" y="-45.5" font-family="Helvetica,sans-Serif" font-size="10.00">WalletFrame::unlockWallet</text>
</a>
</g>
</g>
<!-- Node213&#45;&gt;Node214 -->
<g id="edge6" class="edge"><title>Node213&#45;&gt;Node214</title>
<path fill="none" stroke="midnightblue" d="M300.691,-48C318.008,-48 336.377,-48 353.362,-48"/>
<polygon fill="midnightblue" stroke="midnightblue" points="300.634,-44.5001 290.634,-48 300.634,-51.5001 300.634,-44.5001"/>
</g>
<!-- Node215 -->
<g id="node8" class="node"><title>Node215</title>
<g id="a_node8"><a xlink:href="../../de/d44/class_wallet_view.html#a0a37ff693a4f9c1e5ddc23f9cd3913be" target="_top" xlink:title="Set the wallet model. ">
<polygon fill="white" stroke="black" points="350.5,-0.5 350.5,-19.5 490.5,-19.5 490.5,-0.5 350.5,-0.5"/>
<text text-anchor="middle" x="420.5" y="-7.5" font-family="Helvetica,sans-Serif" font-size="10.00">WalletView::setWalletModel</text>
</a>
</g>
</g>
<!-- Node213&#45;&gt;Node215 -->
<g id="edge7" class="edge"><title>Node213&#45;&gt;Node215</title>
<path fill="none" stroke="midnightblue" d="M285.798,-36.4619C313.183,-31.042 345.433,-24.659 371.399,-19.5201"/>
<polygon fill="midnightblue" stroke="midnightblue" points="285.08,-33.036 275.95,-38.411 286.439,-39.9028 285.08,-33.036"/>
</g>
<!-- Node216 -->
<g id="node9" class="node"><title>Node216</title>
<g id="a_node9"><a xlink:href="../../d9/dff/class_wallet_frame.html#aa199c3f27654199d84c365cf86167d86" target="_top" xlink:title="WalletFrame::addWallet">
<polygon fill="white" stroke="black" points="537,-0.5 537,-19.5 659,-19.5 659,-0.5 537,-0.5"/>
<text text-anchor="middle" x="598" y="-7.5" font-family="Helvetica,sans-Serif" font-size="10.00">WalletFrame::addWallet</text>
</a>
</g>
</g>
<!-- Node215&#45;&gt;Node216 -->
<g id="edge8" class="edge"><title>Node215&#45;&gt;Node216</title>
<path fill="none" stroke="midnightblue" d="M500.712,-10C512.823,-10 525.153,-10 536.767,-10"/>
<polygon fill="midnightblue" stroke="midnightblue" points="500.61,-6.5001 490.61,-10 500.61,-13.5001 500.61,-6.5001"/>
</g>
</g>
</svg>
        <g id="navigator" transform="translate(0 0)" fill="#404254">
                <rect fill="#f2f5e9" fill-opacity="0.5" stroke="#606060" stroke-width=".5" x="0" y="0" width="60" height="60"/>
                <use id="zoomplus" xlink:href="#zoomPlus" x="17" y="9" onmousedown="handleZoom(evt,'in')"/>
                <use id="zoomminus" xlink:href="#zoomMin" x="42" y="9" onmousedown="handleZoom(evt,'out')"/>
                <use id="reset" xlink:href="#resetDef" x="30" y="36" onmousedown="handleReset()"/>
                <g id="arrowUp" xlink:href="#dirArrow" transform="translate(30 24)" onmousedown="handlePan(0,-1)">
                  <use xlink:href="#rim" fill="#404040">
                        <set attributeName="fill" to="#808080" begin="arrowUp.mouseover" end="arrowUp.mouseout"/>
                  </use>
                  <path fill="none" stroke="white" stroke-width="1.5" d="M0,-3.0v7 M-2.5,-0.5L0,-3.0L2.5,-0.5"/>
                </g>
                <g id="arrowRight" xlink:href="#dirArrow" transform="rotate(90) translate(36 -43)" onmousedown="handlePan(1,0)">
                  <use xlink:href="#rim" fill="#404040">
                        <set attributeName="fill" to="#808080" begin="arrowRight.mouseover" end="arrowRight.mouseout"/>
                  </use>
                  <path fill="none" stroke="white" stroke-width="1.5" d="M0,-3.0v7 M-2.5,-0.5L0,-3.0L2.5,-0.5"/>
                </g>
                <g id="arrowDown" xlink:href="#dirArrow" transform="rotate(180) translate(-30 -48)" onmousedown="handlePan(0,1)">
                  <use xlink:href="#rim" fill="#404040">
                        <set attributeName="fill" to="#808080" begin="arrowDown.mouseover" end="arrowDown.mouseout"/>
                  </use>
                  <path fill="none" stroke="white" stroke-width="1.5" d="M0,-3.0v7 M-2.5,-0.5L0,-3.0L2.5,-0.5"/>
                </g>
                <g id="arrowLeft" xlink:href="#dirArrow" transform="rotate(270) translate(-36 17)" onmousedown="handlePan(-1,0)">
                  <use xlink:href="#rim" fill="#404040">
                        <set attributeName="fill" to="#808080" begin="arrowLeft.mouseover" end="arrowLeft.mouseout"/>
                  </use>
                  <path fill="none" stroke="white" stroke-width="1.5" d="M0,-3.0v7 M-2.5,-0.5L0,-3.0L2.5,-0.5"/>
                </g>
        </g>
        <svg viewBox="0 0 15 15" width="100%" height="30px" preserveAspectRatio="xMaxYMin meet">
         <g id="arrow_out" transform="scale(0.3 0.3)">
          <a xlink:href="class_ask_passphrase_dialog_a35b83e1ef98813b6b88155aab0803ed3_icgraph_org.svg" target="_base">
           <rect id="button" ry="5" rx="5" y="6" x="6" height="38" width="38"
                fill="#f2f5e9" fill-opacity="0.5" stroke="#606060" stroke-width="1.0"/>
           <path id="arrow"
             d="M 11.500037,31.436501 C 11.940474,20.09759 22.043105,11.32322 32.158766,21.979434 L 37.068811,17.246167 C 37.068811,17.246167 37.088388,32 37.088388,32 L 22.160133,31.978069 C 22.160133,31.978069 26.997745,27.140456 26.997745,27.140456 C 18.528582,18.264221 13.291696,25.230495 11.500037,31.436501 z"
             style="fill:#404040;"/>
          </a>
         </g>
        </svg>
</svg>
