<?xml version="1.0" encoding="UTF-8" standalone="no"?>
<!DOCTYPE svg PUBLIC "-//W3C//DTD SVG 1.1//EN"
 "http://www.w3.org/Graphics/SVG/1.1/DTD/svg11.dtd">
<!-- Generated by graphviz version 2.38.0 (20140413.2041)
 -->
<!-- Title: Repeat Pages: 1 -->
<svg width="396pt" height="28pt"
 viewBox="0.00 0.00 396.00 28.00" xmlns="http://www.w3.org/2000/svg" xmlns:xlink="http://www.w3.org/1999/xlink">
<g id="graph0" class="graph" transform="scale(1 1) rotate(0) translate(4 24)">
<title>Repeat</title>
<polygon fill="white" stroke="none" points="-4,4 -4,-24 392,-24 392,4 -4,4"/>
<!-- Node0 -->
<g id="node1" class="node"><title>Node0</title>
<polygon fill="#bfbfbf" stroke="black" points="0,-0.5 0,-19.5 48,-19.5 48,-0.5 0,-0.5"/>
<text text-anchor="middle" x="24" y="-7.5" font-family="Helvetica,sans-Serif" font-size="10.00">Repeat</text>
</g>
<!-- Node1 -->
<g id="node2" class="node"><title>Node1</title>
<g id="a_node2"><a xlink:href="../../da/d08/class_c_scheduler.html#ad5faa192176dc51e3c68356589934b7a" target="_top" xlink:title="CScheduler::scheduleFromNow">
<polygon fill="white" stroke="black" points="84,-0.5 84,-19.5 239,-19.5 239,-0.5 84,-0.5"/>
<text text-anchor="middle" x="161.5" y="-7.5" font-family="Helvetica,sans-Serif" font-size="10.00">CScheduler::scheduleFromNow</text>
</a>
</g>
</g>
<!-- Node0&#45;&gt;Node1 -->
<g id="edge1" class="edge"><title>Node0&#45;&gt;Node1</title>
<path fill="none" stroke="midnightblue" d="M48.2933,-10C55.7394,-10 64.4682,-10 73.7116,-10"/>
<polygon fill="midnightblue" stroke="midnightblue" points="73.9073,-13.5001 83.9073,-10 73.9072,-6.5001 73.9073,-13.5001"/>
</g>
<!-- Node2 -->
<g id="node3" class="node"><title>Node2</title>
<g id="a_node3"><a xlink:href="../../da/d08/class_c_scheduler.html#a14747dc42599cc0a17f45f1767932d6e" target="_top" xlink:title="CScheduler::schedule">
<polygon fill="white" stroke="black" points="275,-0.5 275,-19.5 388,-19.5 388,-0.5 275,-0.5"/>
<text text-anchor="middle" x="331.5" y="-7.5" font-family="Helvetica,sans-Serif" font-size="10.00">CScheduler::schedule</text>
</a>
</g>
</g>
<!-- Node1&#45;&gt;Node2 -->
<g id="edge2" class="edge"><title>Node1&#45;&gt;Node2</title>
<path fill="none" stroke="midnightblue" d="M239.126,-10C247.616,-10 256.208,-10 264.55,-10"/>
<polygon fill="midnightblue" stroke="midnightblue" points="264.579,-13.5001 274.578,-10 264.578,-6.5001 264.579,-13.5001"/>
</g>
</g>
</svg>
