<?xml version="1.0" encoding="UTF-8" standalone="no"?>
<!DOCTYPE svg PUBLIC "-//W3C//DTD SVG 1.1//EN"
 "http://www.w3.org/Graphics/SVG/1.1/DTD/svg11.dtd">
<!-- Generated by graphviz version 2.38.0 (20140413.2041)
 -->
<!-- Title: SendCoinsDialog::updateFeeSectionControls Pages: 1 -->
<svg width="660pt" height="39pt"
 viewBox="0.00 0.00 660.00 39.00" xmlns="http://www.w3.org/2000/svg" xmlns:xlink="http://www.w3.org/1999/xlink">
<g id="graph0" class="graph" transform="scale(1 1) rotate(0) translate(4 35)">
<title>SendCoinsDialog::updateFeeSectionControls</title>
<polygon fill="white" stroke="none" points="-4,4 -4,-35 656,-35 656,4 -4,4"/>
<!-- Node3716 -->
<g id="node1" class="node"><title>Node3716</title>
<polygon fill="#bfbfbf" stroke="black" points="0,-0.5 0,-30.5 144,-30.5 144,-0.5 0,-0.5"/>
<text text-anchor="start" x="8" y="-18.5" font-family="Helvetica,sans-Serif" font-size="10.00">SendCoinsDialog::updateFee</text>
<text text-anchor="middle" x="72" y="-7.5" font-family="Helvetica,sans-Serif" font-size="10.00">SectionControls</text>
</g>
<!-- Node3717 -->
<g id="node2" class="node"><title>Node3717</title>
<g id="a_node2"><a xlink:href="../../d6/de6/class_send_coins_dialog.html#a73a6c1b1850a334ee652ac167713a2aa" target="_top" xlink:title="SendCoinsDialog::setModel">
<polygon fill="white" stroke="black" points="180,-6 180,-25 318,-25 318,-6 180,-6"/>
<text text-anchor="middle" x="249" y="-13" font-family="Helvetica,sans-Serif" font-size="10.00">SendCoinsDialog::setModel</text>
</a>
</g>
</g>
<!-- Node3716&#45;&gt;Node3717 -->
<g id="edge1" class="edge"><title>Node3716&#45;&gt;Node3717</title>
<path fill="none" stroke="midnightblue" d="M154.237,-15.5C162.854,-15.5 171.553,-15.5 179.996,-15.5"/>
<polygon fill="midnightblue" stroke="midnightblue" points="154.179,-12.0001 144.179,-15.5 154.179,-19.0001 154.179,-12.0001"/>
</g>
<!-- Node3718 -->
<g id="node3" class="node"><title>Node3718</title>
<g id="a_node3"><a xlink:href="../../de/d44/class_wallet_view.html#a0a37ff693a4f9c1e5ddc23f9cd3913be" target="_top" xlink:title="Set the wallet model. ">
<polygon fill="white" stroke="black" points="354,-6 354,-25 494,-25 494,-6 354,-6"/>
<text text-anchor="middle" x="424" y="-13" font-family="Helvetica,sans-Serif" font-size="10.00">WalletView::setWalletModel</text>
</a>
</g>
</g>
<!-- Node3717&#45;&gt;Node3718 -->
<g id="edge2" class="edge"><title>Node3717&#45;&gt;Node3718</title>
<path fill="none" stroke="midnightblue" d="M328.624,-15.5C337.087,-15.5 345.651,-15.5 353.989,-15.5"/>
<polygon fill="midnightblue" stroke="midnightblue" points="328.374,-12.0001 318.374,-15.5 328.374,-19.0001 328.374,-12.0001"/>
</g>
<!-- Node3719 -->
<g id="node4" class="node"><title>Node3719</title>
<g id="a_node4"><a xlink:href="../../d9/dff/class_wallet_frame.html#aa199c3f27654199d84c365cf86167d86" target="_top" xlink:title="WalletFrame::addWallet">
<polygon fill="white" stroke="black" points="530,-6 530,-25 652,-25 652,-6 530,-6"/>
<text text-anchor="middle" x="591" y="-13" font-family="Helvetica,sans-Serif" font-size="10.00">WalletFrame::addWallet</text>
</a>
</g>
</g>
<!-- Node3718&#45;&gt;Node3719 -->
<g id="edge3" class="edge"><title>Node3718&#45;&gt;Node3719</title>
<path fill="none" stroke="midnightblue" d="M504.146,-15.5C512.813,-15.5 521.528,-15.5 529.91,-15.5"/>
<polygon fill="midnightblue" stroke="midnightblue" points="504.019,-12.0001 494.019,-15.5 504.019,-19.0001 504.019,-12.0001"/>
</g>
</g>
</svg>
