<?xml version="1.0" encoding="UTF-8" standalone="no"?>
<!DOCTYPE svg PUBLIC "-//W3C//DTD SVG 1.1//EN"
 "http://www.w3.org/Graphics/SVG/1.1/DTD/svg11.dtd">
<!-- Generated by graphviz version 2.38.0 (20140413.2041)
 -->
<!-- Title: SendCoinsDialog::setBalance Pages: 1 -->
<svg width="632pt" height="175pt"
 viewBox="0.00 0.00 632.00 175.00" xmlns="http://www.w3.org/2000/svg" xmlns:xlink="http://www.w3.org/1999/xlink">
<g id="graph0" class="graph" transform="scale(1 1) rotate(0) translate(4 171)">
<title>SendCoinsDialog::setBalance</title>
<polygon fill="white" stroke="none" points="-4,4 -4,-171 628,-171 628,4 -4,4"/>
<!-- Node3226 -->
<g id="node1" class="node"><title>Node3226</title>
<polygon fill="#bfbfbf" stroke="black" points="0,-38.5 0,-57.5 147,-57.5 147,-38.5 0,-38.5"/>
<text text-anchor="middle" x="73.5" y="-45.5" font-family="Helvetica,sans-Serif" font-size="10.00">SendCoinsDialog::setBalance</text>
</g>
<!-- Node3227 -->
<g id="node2" class="node"><title>Node3227</title>
<g id="a_node2"><a xlink:href="../../d3/dd0/class_bitcoin_units.html#aef9fb7509257bc84ee459d7f0c663020" target="_top" xlink:title="Format as string (with unit) ">
<polygon fill="white" stroke="black" points="187,-76.5 187,-95.5 329,-95.5 329,-76.5 187,-76.5"/>
<text text-anchor="middle" x="258" y="-83.5" font-family="Helvetica,sans-Serif" font-size="10.00">BitcoinUnits::formatWithUnit</text>
</a>
</g>
</g>
<!-- Node3226&#45;&gt;Node3227 -->
<g id="edge1" class="edge"><title>Node3226&#45;&gt;Node3227</title>
<path fill="none" stroke="midnightblue" d="M120.552,-57.589C145.069,-62.6939 175.41,-69.0113 201.25,-74.3918"/>
<polygon fill="midnightblue" stroke="midnightblue" points="200.775,-77.8679 211.279,-76.4799 202.202,-71.0149 200.775,-77.8679"/>
</g>
<!-- Node3234 -->
<g id="node9" class="node"><title>Node3234</title>
<g id="a_node9"><a xlink:href="../../da/d1f/class_options_model.html#a3b6e4d4ef42be3aaba315b8cd14f468e" target="_top" xlink:title="OptionsModel::getDisplayUnit">
<polygon fill="white" stroke="black" points="184.5,-38.5 184.5,-57.5 331.5,-57.5 331.5,-38.5 184.5,-38.5"/>
<text text-anchor="middle" x="258" y="-45.5" font-family="Helvetica,sans-Serif" font-size="10.00">OptionsModel::getDisplayUnit</text>
</a>
</g>
</g>
<!-- Node3226&#45;&gt;Node3234 -->
<g id="edge8" class="edge"><title>Node3226&#45;&gt;Node3234</title>
<path fill="none" stroke="midnightblue" d="M147.153,-48C156.036,-48 165.165,-48 174.183,-48"/>
<polygon fill="midnightblue" stroke="midnightblue" points="174.299,-51.5001 184.299,-48 174.299,-44.5001 174.299,-51.5001"/>
</g>
<!-- Node3235 -->
<g id="node10" class="node"><title>Node3235</title>
<g id="a_node10"><a xlink:href="../../d4/d27/class_wallet_model.html#a96d53e56b3f8f07537ea2523f7a7d300" target="_top" xlink:title="WalletModel::getOptionsModel">
<polygon fill="white" stroke="black" points="183,-0.5 183,-19.5 333,-19.5 333,-0.5 183,-0.5"/>
<text text-anchor="middle" x="258" y="-7.5" font-family="Helvetica,sans-Serif" font-size="10.00">WalletModel::getOptionsModel</text>
</a>
</g>
</g>
<!-- Node3226&#45;&gt;Node3235 -->
<g id="edge9" class="edge"><title>Node3226&#45;&gt;Node3235</title>
<path fill="none" stroke="midnightblue" d="M120.552,-38.411C145.069,-33.3061 175.41,-26.9887 201.25,-21.6082"/>
<polygon fill="midnightblue" stroke="midnightblue" points="202.202,-24.9851 211.279,-19.5201 200.775,-18.1321 202.202,-24.9851"/>
</g>
<!-- Node3228 -->
<g id="node3" class="node"><title>Node3228</title>
<g id="a_node3"><a xlink:href="../../d3/dd0/class_bitcoin_units.html#ab07437e5a788c80a82d75e3714bd3925" target="_top" xlink:title="Format as string. ">
<polygon fill="white" stroke="black" points="369,-99.5 369,-118.5 473,-118.5 473,-99.5 369,-99.5"/>
<text text-anchor="middle" x="421" y="-106.5" font-family="Helvetica,sans-Serif" font-size="10.00">BitcoinUnits::format</text>
</a>
</g>
</g>
<!-- Node3227&#45;&gt;Node3228 -->
<g id="edge2" class="edge"><title>Node3227&#45;&gt;Node3228</title>
<path fill="none" stroke="midnightblue" d="M325.88,-95.5543C336.748,-97.1069 347.958,-98.7082 358.684,-100.241"/>
<polygon fill="midnightblue" stroke="midnightblue" points="358.4,-103.735 368.794,-101.685 359.39,-96.8058 358.4,-103.735"/>
</g>
<!-- Node3232 -->
<g id="node7" class="node"><title>Node3232</title>
<g id="a_node7"><a xlink:href="../../d3/dd0/class_bitcoin_units.html#a4cf46136434ed30728608e67e90a9cbe" target="_top" xlink:title="Short name. ">
<polygon fill="white" stroke="black" points="371,-52.5 371,-71.5 471,-71.5 471,-52.5 371,-52.5"/>
<text text-anchor="middle" x="421" y="-59.5" font-family="Helvetica,sans-Serif" font-size="10.00">BitcoinUnits::name</text>
</a>
</g>
</g>
<!-- Node3227&#45;&gt;Node3232 -->
<g id="edge6" class="edge"><title>Node3227&#45;&gt;Node3232</title>
<path fill="none" stroke="midnightblue" d="M323.094,-76.4456C335.426,-74.6074 348.294,-72.6892 360.473,-70.8736"/>
<polygon fill="midnightblue" stroke="midnightblue" points="361.14,-74.3129 370.515,-69.3767 360.108,-67.3894 361.14,-74.3129"/>
</g>
<!-- Node3229 -->
<g id="node4" class="node"><title>Node3229</title>
<g id="a_node4"><a xlink:href="../../d3/dd0/class_bitcoin_units.html#a3f0fc21634520ea06c684ba0d7e25f2f" target="_top" xlink:title="Number of decimals left. ">
<polygon fill="white" stroke="black" points="509,-147.5 509,-166.5 624,-166.5 624,-147.5 509,-147.5"/>
<text text-anchor="middle" x="566.5" y="-154.5" font-family="Helvetica,sans-Serif" font-size="10.00">BitcoinUnits::decimals</text>
</a>
</g>
</g>
<!-- Node3228&#45;&gt;Node3229 -->
<g id="edge3" class="edge"><title>Node3228&#45;&gt;Node3229</title>
<path fill="none" stroke="midnightblue" d="M450.694,-118.598C472.692,-125.956 503.257,-136.18 527.319,-144.229"/>
<polygon fill="midnightblue" stroke="midnightblue" points="526.261,-147.565 536.855,-147.418 528.482,-140.927 526.261,-147.565"/>
</g>
<!-- Node3230 -->
<g id="node5" class="node"><title>Node3230</title>
<g id="a_node5"><a xlink:href="../../d3/dd0/class_bitcoin_units.html#ae967b9e6ecbb8f041bfe398d27533b09" target="_top" xlink:title="Number of Satoshis (1e&#45;8) per unit. ">
<polygon fill="white" stroke="black" points="516,-109.5 516,-128.5 617,-128.5 617,-109.5 516,-109.5"/>
<text text-anchor="middle" x="566.5" y="-116.5" font-family="Helvetica,sans-Serif" font-size="10.00">BitcoinUnits::factor</text>
</a>
</g>
</g>
<!-- Node3228&#45;&gt;Node3230 -->
<g id="edge4" class="edge"><title>Node3228&#45;&gt;Node3230</title>
<path fill="none" stroke="midnightblue" d="M473.401,-112.582C483.884,-113.312 494.998,-114.087 505.743,-114.836"/>
<polygon fill="midnightblue" stroke="midnightblue" points="505.68,-118.34 515.899,-115.543 506.166,-111.357 505.68,-118.34"/>
</g>
<!-- Node3231 -->
<g id="node6" class="node"><title>Node3231</title>
<g id="a_node6"><a xlink:href="../../d3/dd0/class_bitcoin_units.html#a81cbc41480adfb600dad79711d336e5f" target="_top" xlink:title="Is unit ID valid? ">
<polygon fill="white" stroke="black" points="518.5,-71.5 518.5,-90.5 614.5,-90.5 614.5,-71.5 518.5,-71.5"/>
<text text-anchor="middle" x="566.5" y="-78.5" font-family="Helvetica,sans-Serif" font-size="10.00">BitcoinUnits::valid</text>
</a>
</g>
</g>
<!-- Node3228&#45;&gt;Node3231 -->
<g id="edge5" class="edge"><title>Node3228&#45;&gt;Node3231</title>
<path fill="none" stroke="midnightblue" d="M470.983,-99.4423C482.908,-97.1154 495.77,-94.6059 508.049,-92.21"/>
<polygon fill="midnightblue" stroke="midnightblue" points="509.048,-95.5811 518.193,-90.2307 507.708,-88.7106 509.048,-95.5811"/>
</g>
<!-- Node3233 -->
<g id="node8" class="node"><title>Node3233</title>
<g id="a_node8"><a xlink:href="../../df/dbf/chainparams_8cpp.html#ace5c5b706d71a324a417dd2db394fd4a" target="_top" xlink:title="Return the currently selected parameters. ">
<polygon fill="white" stroke="black" points="541.5,-33.5 541.5,-52.5 591.5,-52.5 591.5,-33.5 541.5,-33.5"/>
<text text-anchor="middle" x="566.5" y="-40.5" font-family="Helvetica,sans-Serif" font-size="10.00">Params</text>
</a>
</g>
</g>
<!-- Node3232&#45;&gt;Node3233 -->
<g id="edge7" class="edge"><title>Node3232&#45;&gt;Node3233</title>
<path fill="none" stroke="midnightblue" d="M471.385,-55.4613C491.174,-52.8411 513.486,-49.8869 531.417,-47.5128"/>
<polygon fill="midnightblue" stroke="midnightblue" points="531.962,-50.9713 541.416,-46.1889 531.043,-44.0318 531.962,-50.9713"/>
</g>
</g>
</svg>
