<?xml version="1.0" encoding="UTF-8" standalone="no"?>
<!DOCTYPE svg PUBLIC "-//W3C//DTD SVG 1.1//EN"
 "http://www.w3.org/Graphics/SVG/1.1/DTD/svg11.dtd">
<!-- Generated by graphviz version 2.38.0 (20140413.2041)
 -->
<!-- Title: secp256k1_scalar_mul_512 Pages: 1 -->
<svg width="297pt" height="78pt"
 viewBox="0.00 0.00 297.00 77.50" xmlns="http://www.w3.org/2000/svg" xmlns:xlink="http://www.w3.org/1999/xlink">
<g id="graph0" class="graph" transform="scale(1 1) rotate(0) translate(4 73.5)">
<title>secp256k1_scalar_mul_512</title>
<polygon fill="white" stroke="none" points="-4,4 -4,-73.5 293,-73.5 293,4 -4,4"/>
<!-- Node49 -->
<g id="node1" class="node"><title>Node49</title>
<polygon fill="#bfbfbf" stroke="black" points="0,-28 0,-47 137,-47 137,-28 0,-28"/>
<text text-anchor="middle" x="68.5" y="-35" font-family="Helvetica,sans-Serif" font-size="10.00">secp256k1_scalar_mul_512</text>
</g>
<!-- Node50 -->
<g id="node2" class="node"><title>Node50</title>
<g id="a_node2"><a xlink:href="../../db/d1f/scalar__4x64__impl_8h.html#a89db15f705c8eafcd10c08181523acd0" target="_top" xlink:title="secp256k1_scalar_mul">
<polygon fill="white" stroke="black" points="173,-50 173,-69 289,-69 289,-50 173,-50"/>
<text text-anchor="middle" x="231" y="-57" font-family="Helvetica,sans-Serif" font-size="10.00">secp256k1_scalar_mul</text>
</a>
</g>
</g>
<!-- Node49&#45;&gt;Node50 -->
<g id="edge1" class="edge"><title>Node49&#45;&gt;Node50</title>
<path fill="none" stroke="midnightblue" d="M147.215,-48.1525C155.867,-49.3384 164.558,-50.5297 172.885,-51.6711"/>
<polygon fill="midnightblue" stroke="midnightblue" points="147.484,-44.6567 137.101,-46.7662 146.533,-51.5919 147.484,-44.6567"/>
</g>
<!-- Node51 -->
<g id="node3" class="node"><title>Node51</title>
<g id="a_node3"><a xlink:href="../../db/d1f/scalar__4x64__impl_8h.html#a1867b2a6504ecb951d95f14e032bfa38" target="_top" xlink:title="secp256k1_scalar_mul\l_shift_var">
<polygon fill="white" stroke="black" points="173,-0.5 173,-30.5 289,-30.5 289,-0.5 173,-0.5"/>
<text text-anchor="start" x="181" y="-18.5" font-family="Helvetica,sans-Serif" font-size="10.00">secp256k1_scalar_mul</text>
<text text-anchor="middle" x="231" y="-7.5" font-family="Helvetica,sans-Serif" font-size="10.00">_shift_var</text>
</a>
</g>
</g>
<!-- Node49&#45;&gt;Node51 -->
<g id="edge2" class="edge"><title>Node49&#45;&gt;Node51</title>
<path fill="none" stroke="midnightblue" d="M147.215,-26.8475C155.867,-25.6616 164.558,-24.4703 172.885,-23.3289"/>
<polygon fill="midnightblue" stroke="midnightblue" points="146.533,-23.4081 137.101,-28.2338 147.484,-30.3433 146.533,-23.4081"/>
</g>
</g>
</svg>
