<?xml version="1.0" encoding="UTF-8" standalone="no"?>
<!DOCTYPE svg PUBLIC "-//W3C//DTD SVG 1.1//EN"
 "http://www.w3.org/Graphics/SVG/1.1/DTD/svg11.dtd">
<!-- Generated by graphviz version 2.38.0 (20140413.2041)
 -->
<!-- Title: prevector::prevector Pages: 1 -->
<svg width="568pt" height="208pt"
 viewBox="0.00 0.00 568.00 207.64" xmlns="http://www.w3.org/2000/svg" xmlns:xlink="http://www.w3.org/1999/xlink">
<g id="graph0" class="graph" transform="scale(1 1) rotate(0) translate(4 203.64)">
<title>prevector::prevector</title>
<polygon fill="white" stroke="none" points="-4,4 -4,-203.64 564,-203.64 564,4 -4,4"/>
<!-- Node16 -->
<g id="node1" class="node"><title>Node16</title>
<polygon fill="#bfbfbf" stroke="black" points="0,-104.14 0,-123.14 104,-123.14 104,-104.14 0,-104.14"/>
<text text-anchor="middle" x="52" y="-111.14" font-family="Helvetica,sans-Serif" font-size="10.00">prevector::prevector</text>
</g>
<!-- Node17 -->
<g id="node2" class="node"><title>Node17</title>
<g id="a_node2"><a xlink:href="../../de/d38/classprevector.html#a0e673654d3b7d8d6f79534e17f68741a" target="_top" xlink:title="prevector::change_capacity">
<polygon fill="white" stroke="black" points="140,-104.14 140,-123.14 277,-123.14 277,-104.14 140,-104.14"/>
<text text-anchor="middle" x="208.5" y="-111.14" font-family="Helvetica,sans-Serif" font-size="10.00">prevector::change_capacity</text>
</a>
</g>
</g>
<!-- Node16&#45;&gt;Node17 -->
<g id="edge1" class="edge"><title>Node16&#45;&gt;Node17</title>
<path fill="none" stroke="midnightblue" d="M104.017,-113.64C112.23,-113.64 120.892,-113.64 129.565,-113.64"/>
<polygon fill="midnightblue" stroke="midnightblue" points="129.725,-117.14 139.725,-113.64 129.725,-110.14 129.725,-117.14"/>
</g>
<!-- Node23 -->
<g id="node8" class="node"><title>Node23</title>
<g id="a_node8"><a xlink:href="../../de/d38/classprevector.html#a626f7d206dbc24e5610631809762758b" target="_top" xlink:title="prevector::size">
<polygon fill="white" stroke="black" points="328,-180.14 328,-199.14 409,-199.14 409,-180.14 328,-180.14"/>
<text text-anchor="middle" x="368.5" y="-187.14" font-family="Helvetica,sans-Serif" font-size="10.00">prevector::size</text>
</a>
</g>
</g>
<!-- Node16&#45;&gt;Node23 -->
<g id="edge13" class="edge"><title>Node16&#45;&gt;Node23</title>
<path fill="none" stroke="midnightblue" d="M92.5132,-123.189C149.711,-137.011 255.535,-162.583 317.905,-177.655"/>
<polygon fill="midnightblue" stroke="midnightblue" points="317.359,-181.124 327.901,-180.071 319.003,-174.32 317.359,-181.124"/>
</g>
<!-- Node24 -->
<g id="node9" class="node"><title>Node24</title>
<g id="a_node9"><a xlink:href="../../de/d38/classprevector.html#a59f1d7bcbc751cfa0faddd7ffa184846" target="_top" xlink:title="prevector::item_ptr">
<polygon fill="white" stroke="black" points="159.5,-47.1401 159.5,-66.1401 257.5,-66.1401 257.5,-47.1401 159.5,-47.1401"/>
<text text-anchor="middle" x="208.5" y="-54.1401" font-family="Helvetica,sans-Serif" font-size="10.00">prevector::item_ptr</text>
</a>
</g>
</g>
<!-- Node16&#45;&gt;Node24 -->
<g id="edge9" class="edge"><title>Node16&#45;&gt;Node24</title>
<path fill="none" stroke="midnightblue" d="M78.8598,-104.1C104.372,-94.6875 143.569,-80.2263 171.992,-69.7403"/>
<polygon fill="midnightblue" stroke="midnightblue" points="173.385,-72.9568 181.556,-66.2118 170.962,-66.3895 173.385,-72.9568"/>
</g>
<!-- Node18 -->
<g id="node3" class="node"><title>Node18</title>
<g id="a_node3"><a xlink:href="../../de/d38/classprevector.html#a933e204a7e29c6bbc85479d023c00ff8" target="_top" xlink:title="prevector::is_direct">
<polygon fill="white" stroke="black" points="460,-142.14 460,-161.14 560,-161.14 560,-142.14 460,-142.14"/>
<text text-anchor="middle" x="510" y="-149.14" font-family="Helvetica,sans-Serif" font-size="10.00">prevector::is_direct</text>
</a>
</g>
</g>
<!-- Node17&#45;&gt;Node18 -->
<g id="edge2" class="edge"><title>Node17&#45;&gt;Node18</title>
<path fill="none" stroke="midnightblue" d="M256.507,-123.141C274.168,-126.481 294.455,-130.044 313,-132.64 358.687,-139.036 410.668,-143.969 449.614,-147.203"/>
<polygon fill="midnightblue" stroke="midnightblue" points="449.477,-150.703 459.728,-148.029 450.047,-143.727 449.477,-150.703"/>
</g>
<!-- Node19 -->
<g id="node4" class="node"><title>Node19</title>
<g id="a_node4"><a xlink:href="../../de/d38/classprevector.html#ae3343cc65be9fd678b4a6f8305624de6" target="_top" xlink:title="prevector::indirect_ptr">
<polygon fill="white" stroke="black" points="313,-66.1401 313,-85.1401 424,-85.1401 424,-66.1401 313,-66.1401"/>
<text text-anchor="middle" x="368.5" y="-73.1401" font-family="Helvetica,sans-Serif" font-size="10.00">prevector::indirect_ptr</text>
</a>
</g>
</g>
<!-- Node17&#45;&gt;Node19 -->
<g id="edge3" class="edge"><title>Node17&#45;&gt;Node19</title>
<path fill="none" stroke="midnightblue" d="M249.37,-104.051C270.22,-99.0366 295.935,-92.8521 318.043,-87.5349"/>
<polygon fill="midnightblue" stroke="midnightblue" points="319.012,-90.9016 327.917,-85.1602 317.375,-84.0957 319.012,-90.9016"/>
</g>
<!-- Node20 -->
<g id="node5" class="node"><title>Node20</title>
<g id="a_node5"><a xlink:href="../../de/d38/classprevector.html#a20150a43dd87c33f0e855a55bd3418e8" target="_top" xlink:title="prevector::direct_ptr">
<polygon fill="white" stroke="black" points="316.5,-28.1401 316.5,-47.1401 420.5,-47.1401 420.5,-28.1401 316.5,-28.1401"/>
<text text-anchor="middle" x="368.5" y="-35.1401" font-family="Helvetica,sans-Serif" font-size="10.00">prevector::direct_ptr</text>
</a>
</g>
</g>
<!-- Node17&#45;&gt;Node20 -->
<g id="edge4" class="edge"><title>Node17&#45;&gt;Node20</title>
<path fill="none" stroke="midnightblue" d="M226.529,-104.057C253.599,-88.8544 304.288,-60.5247 313,-56.6401 317.685,-54.5514 322.675,-52.5383 327.661,-50.6541"/>
<polygon fill="midnightblue" stroke="midnightblue" points="328.958,-53.9066 337.163,-47.2037 326.569,-47.3269 328.958,-53.9066"/>
</g>
<!-- Node21 -->
<g id="node6" class="node"><title>Node21</title>
<g id="a_node6"><a xlink:href="../../d5/d9f/glibc__compat_8cpp.html#a0f46826ab0466591e136db24394923cf" target="_top" xlink:title="memcpy">
<polygon fill="white" stroke="black" points="341.5,-104.14 341.5,-123.14 395.5,-123.14 395.5,-104.14 341.5,-104.14"/>
<text text-anchor="middle" x="368.5" y="-111.14" font-family="Helvetica,sans-Serif" font-size="10.00">memcpy</text>
</a>
</g>
</g>
<!-- Node17&#45;&gt;Node21 -->
<g id="edge5" class="edge"><title>Node17&#45;&gt;Node21</title>
<path fill="none" stroke="midnightblue" d="M277.423,-113.64C295.772,-113.64 314.933,-113.64 330.843,-113.64"/>
<polygon fill="midnightblue" stroke="midnightblue" points="331.288,-117.14 341.288,-113.64 331.288,-110.14 331.288,-117.14"/>
</g>
<!-- Node17&#45;&gt;Node23 -->
<g id="edge7" class="edge"><title>Node17&#45;&gt;Node23</title>
<path fill="none" stroke="midnightblue" d="M228.058,-123.321C248.664,-133.987 282.983,-151.502 313,-165.64 320.365,-169.109 328.357,-172.715 335.892,-176.046"/>
<polygon fill="midnightblue" stroke="midnightblue" points="334.547,-179.277 345.111,-180.085 337.356,-172.866 334.547,-179.277"/>
</g>
<!-- Node22 -->
<g id="node7" class="node"><title>Node22</title>
<g id="a_node7"><a xlink:href="../../d5/d9f/glibc__compat_8cpp.html#a9778d49e9029dd75bc53ecbbf9f5e9a1" target="_top" xlink:title="memmove">
<polygon fill="white" stroke="black" points="479,-104.14 479,-123.14 541,-123.14 541,-104.14 479,-104.14"/>
<text text-anchor="middle" x="510" y="-111.14" font-family="Helvetica,sans-Serif" font-size="10.00">memmove</text>
</a>
</g>
</g>
<!-- Node21&#45;&gt;Node22 -->
<g id="edge6" class="edge"><title>Node21&#45;&gt;Node22</title>
<path fill="none" stroke="midnightblue" d="M395.739,-113.64C416.227,-113.64 445.054,-113.64 468.498,-113.64"/>
<polygon fill="midnightblue" stroke="midnightblue" points="468.507,-117.14 478.507,-113.64 468.507,-110.14 468.507,-117.14"/>
</g>
<!-- Node23&#45;&gt;Node18 -->
<g id="edge8" class="edge"><title>Node23&#45;&gt;Node18</title>
<path fill="none" stroke="midnightblue" d="M404.702,-180.051C422.71,-175.146 444.828,-169.121 464.056,-163.883"/>
<polygon fill="midnightblue" stroke="midnightblue" points="465.081,-167.231 473.81,-161.226 463.241,-160.477 465.081,-167.231"/>
</g>
<!-- Node24&#45;&gt;Node18 -->
<g id="edge10" class="edge"><title>Node24&#45;&gt;Node18</title>
<path fill="none" stroke="midnightblue" d="M224.476,-47.0946C262.023,-24.4944 361.619,27.0783 424,-18.6401 466.856,-50.0486 423.651,-93.8861 460,-132.64 461.358,-134.088 462.838,-135.426 464.411,-136.664"/>
<polygon fill="midnightblue" stroke="midnightblue" points="462.584,-139.65 472.903,-142.051 466.334,-133.739 462.584,-139.65"/>
</g>
<!-- Node24&#45;&gt;Node19 -->
<g id="edge12" class="edge"><title>Node24&#45;&gt;Node19</title>
<path fill="none" stroke="midnightblue" d="M257.764,-62.444C271.921,-64.1465 287.639,-66.0365 302.651,-67.8419"/>
<polygon fill="midnightblue" stroke="midnightblue" points="302.558,-71.3558 312.904,-69.0748 303.394,-64.4058 302.558,-71.3558"/>
</g>
<!-- Node24&#45;&gt;Node20 -->
<g id="edge11" class="edge"><title>Node24&#45;&gt;Node20</title>
<path fill="none" stroke="midnightblue" d="M257.764,-50.8363C272.95,-49.01 289.933,-46.9679 305.914,-45.046"/>
<polygon fill="midnightblue" stroke="midnightblue" points="306.732,-48.473 316.243,-43.804 305.896,-41.523 306.732,-48.473"/>
</g>
</g>
</svg>
