<?xml version="1.0" encoding="UTF-8" standalone="no"?>
<!DOCTYPE svg PUBLIC "-//W3C//DTD SVG 1.1//EN"
 "http://www.w3.org/Graphics/SVG/1.1/DTD/svg11.dtd">
<!-- Generated by graphviz version 2.38.0 (20140413.2041)
 -->
<!-- Title: prevector::push_back Pages: 1 -->
<svg width="552pt" height="241pt"
 viewBox="0.00 0.00 552.00 240.50" xmlns="http://www.w3.org/2000/svg" xmlns:xlink="http://www.w3.org/1999/xlink">
<g id="graph0" class="graph" transform="scale(1 1) rotate(0) translate(4 236.5)">
<title>prevector::push_back</title>
<polygon fill="white" stroke="none" points="-4,4 -4,-236.5 548,-236.5 548,4 -4,4"/>
<!-- Node2764 -->
<g id="node1" class="node"><title>Node2764</title>
<polygon fill="#bfbfbf" stroke="black" points="0,-114.5 0,-133.5 110,-133.5 110,-114.5 0,-114.5"/>
<text text-anchor="middle" x="55" y="-121.5" font-family="Helvetica,sans-Serif" font-size="10.00">prevector::push_back</text>
</g>
<!-- Node2765 -->
<g id="node2" class="node"><title>Node2765</title>
<g id="a_node2"><a xlink:href="../../dd/dab/class_c_private_send_client.html#a1318eb1f8e5a845036cfe99f0b3f8b36" target="_top" xlink:title="CPrivateSendClient\l::CreateDenominated">
<polygon fill="white" stroke="black" points="154.5,-202 154.5,-232 264.5,-232 264.5,-202 154.5,-202"/>
<text text-anchor="start" x="162.5" y="-220" font-family="Helvetica,sans-Serif" font-size="10.00">CPrivateSendClient</text>
<text text-anchor="middle" x="209.5" y="-209" font-family="Helvetica,sans-Serif" font-size="10.00">::CreateDenominated</text>
</a>
</g>
</g>
<!-- Node2764&#45;&gt;Node2765 -->
<g id="edge1" class="edge"><title>Node2764&#45;&gt;Node2765</title>
<path fill="none" stroke="midnightblue" d="M74.0657,-140.374C91.4983,-155.54 119.13,-177.957 146,-193 151.781,-196.236 158.086,-199.221 164.395,-201.906"/>
<polygon fill="midnightblue" stroke="midnightblue" points="76.1855,-137.576 66.3751,-133.575 71.5493,-142.821 76.1855,-137.576"/>
</g>
<!-- Node2766 -->
<g id="node3" class="node"><title>Node2766</title>
<g id="a_node3"><a xlink:href="../../dd/dab/class_c_private_send_client.html#ad603beaa1644f6e6cfb8ca7d1400d46e" target="_top" xlink:title="CPrivateSendClient\l::MakeCollateralAmounts">
<polygon fill="white" stroke="black" points="146,-153 146,-183 273,-183 273,-153 146,-153"/>
<text text-anchor="start" x="154" y="-171" font-family="Helvetica,sans-Serif" font-size="10.00">CPrivateSendClient</text>
<text text-anchor="middle" x="209.5" y="-160" font-family="Helvetica,sans-Serif" font-size="10.00">::MakeCollateralAmounts</text>
</a>
</g>
</g>
<!-- Node2764&#45;&gt;Node2766 -->
<g id="edge2" class="edge"><title>Node2764&#45;&gt;Node2766</title>
<path fill="none" stroke="midnightblue" d="M99.1688,-136.455C116.935,-141.581 137.674,-147.565 156.285,-152.935"/>
<polygon fill="midnightblue" stroke="midnightblue" points="99.6686,-132.957 89.0902,-133.547 97.728,-139.682 99.6686,-132.957"/>
</g>
<!-- Node2767 -->
<g id="node4" class="node"><title>Node2767</title>
<g id="a_node4"><a xlink:href="../../d9/d4b/class_c_script.html#ad802105f1515b4953ecbe6aeab2ee1ca" target="_top" xlink:title="CScript::push_int64">
<polygon fill="white" stroke="black" points="158,-114.5 158,-133.5 261,-133.5 261,-114.5 158,-114.5"/>
<text text-anchor="middle" x="209.5" y="-121.5" font-family="Helvetica,sans-Serif" font-size="10.00">CScript::push_int64</text>
</a>
</g>
</g>
<!-- Node2764&#45;&gt;Node2767 -->
<g id="edge3" class="edge"><title>Node2764&#45;&gt;Node2767</title>
<path fill="none" stroke="midnightblue" d="M120.525,-124C132.978,-124 145.858,-124 157.794,-124"/>
<polygon fill="midnightblue" stroke="midnightblue" points="120.195,-120.5 110.195,-124 120.195,-127.5 120.195,-120.5"/>
</g>
<!-- Node2770 -->
<g id="node7" class="node"><title>Node2770</title>
<g id="a_node7"><a xlink:href="../../df/d1d/rpcwallet_8cpp.html#a02c1a7b5244896e62bc5ae698f7a76c9" target="_top" xlink:title="sendmany">
<polygon fill="white" stroke="black" points="178.5,-76.5 178.5,-95.5 240.5,-95.5 240.5,-76.5 178.5,-76.5"/>
<text text-anchor="middle" x="209.5" y="-83.5" font-family="Helvetica,sans-Serif" font-size="10.00">sendmany</text>
</a>
</g>
</g>
<!-- Node2764&#45;&gt;Node2770 -->
<g id="edge6" class="edge"><title>Node2764&#45;&gt;Node2770</title>
<path fill="none" stroke="midnightblue" d="M104.218,-111.985C128.454,-105.946 157.078,-98.8134 178.2,-93.5502"/>
<polygon fill="midnightblue" stroke="midnightblue" points="103.339,-108.597 94.4822,-114.411 105.032,-115.389 103.339,-108.597"/>
</g>
<!-- Node2771 -->
<g id="node8" class="node"><title>Node2771</title>
<g id="a_node8"><a xlink:href="../../df/d1d/rpcwallet_8cpp.html#a1ce48c3b465b38c532d3a3bc9664ba16" target="_top" xlink:title="SendMoney">
<polygon fill="white" stroke="black" points="175.5,-38.5 175.5,-57.5 243.5,-57.5 243.5,-38.5 175.5,-38.5"/>
<text text-anchor="middle" x="209.5" y="-45.5" font-family="Helvetica,sans-Serif" font-size="10.00">SendMoney</text>
</a>
</g>
</g>
<!-- Node2764&#45;&gt;Node2771 -->
<g id="edge7" class="edge"><title>Node2764&#45;&gt;Node2771</title>
<path fill="none" stroke="midnightblue" d="M77.1917,-108.26C94.8639,-95.7158 121.088,-78.4203 146,-67 155.278,-62.7465 165.758,-59.1354 175.447,-56.2407"/>
<polygon fill="midnightblue" stroke="midnightblue" points="74.842,-105.639 68.7821,-114.33 78.939,-111.315 74.842,-105.639"/>
</g>
<!-- Node2768 -->
<g id="node5" class="node"><title>Node2768</title>
<g id="a_node5"><a xlink:href="../../d9/d4b/class_c_script.html#aafde904eee737599e8b4f98c4a9d1043" target="_top" xlink:title="CScript::operator\&lt;\&lt;">
<polygon fill="white" stroke="black" points="312.5,-114.5 312.5,-133.5 415.5,-133.5 415.5,-114.5 312.5,-114.5"/>
<text text-anchor="middle" x="364" y="-121.5" font-family="Helvetica,sans-Serif" font-size="10.00">CScript::operator&lt;&lt;</text>
</a>
</g>
</g>
<!-- Node2767&#45;&gt;Node2768 -->
<g id="edge4" class="edge"><title>Node2767&#45;&gt;Node2768</title>
<path fill="none" stroke="midnightblue" d="M271.504,-124C285.083,-124 299.336,-124 312.441,-124"/>
<polygon fill="midnightblue" stroke="midnightblue" points="271.28,-120.5 261.28,-124 271.28,-127.5 271.28,-120.5"/>
</g>
<!-- Node2769 -->
<g id="node6" class="node"><title>Node2769</title>
<g id="a_node6"><a xlink:href="../../d9/d4b/class_c_script.html#a48cc35ec0c9119def402a7118e81cf00" target="_top" xlink:title="CScript::CScript">
<polygon fill="white" stroke="black" points="455,-114.5 455,-133.5 544,-133.5 544,-114.5 455,-114.5"/>
<text text-anchor="middle" x="499.5" y="-121.5" font-family="Helvetica,sans-Serif" font-size="10.00">CScript::CScript</text>
</a>
</g>
</g>
<!-- Node2768&#45;&gt;Node2769 -->
<g id="edge5" class="edge"><title>Node2768&#45;&gt;Node2769</title>
<path fill="none" stroke="midnightblue" d="M425.899,-124C435.631,-124 445.532,-124 454.763,-124"/>
<polygon fill="midnightblue" stroke="midnightblue" points="425.851,-120.5 415.851,-124 425.851,-127.5 425.851,-120.5"/>
</g>
<!-- Node2772 -->
<g id="node9" class="node"><title>Node2772</title>
<g id="a_node9"><a xlink:href="../../df/d1d/rpcwallet_8cpp.html#a13ae0f230ba6d349466070da38ee85f4" target="_top" xlink:title="instantsendtoaddress">
<polygon fill="white" stroke="black" points="309,-76.5 309,-95.5 419,-95.5 419,-76.5 309,-76.5"/>
<text text-anchor="middle" x="364" y="-83.5" font-family="Helvetica,sans-Serif" font-size="10.00">instantsendtoaddress</text>
</a>
</g>
</g>
<!-- Node2771&#45;&gt;Node2772 -->
<g id="edge8" class="edge"><title>Node2771&#45;&gt;Node2772</title>
<path fill="none" stroke="midnightblue" d="M253.529,-58.7219C275.971,-64.3141 303.186,-71.0956 324.867,-76.4979"/>
<polygon fill="midnightblue" stroke="midnightblue" points="254.14,-55.2672 243.59,-56.2454 252.447,-62.0595 254.14,-55.2672"/>
</g>
<!-- Node2773 -->
<g id="node10" class="node"><title>Node2773</title>
<g id="a_node10"><a xlink:href="../../df/d1d/rpcwallet_8cpp.html#a887e8b6785b39cba59fe24ea952a4f10" target="_top" xlink:title="sendfrom">
<polygon fill="white" stroke="black" points="335.5,-38.5 335.5,-57.5 392.5,-57.5 392.5,-38.5 335.5,-38.5"/>
<text text-anchor="middle" x="364" y="-45.5" font-family="Helvetica,sans-Serif" font-size="10.00">sendfrom</text>
</a>
</g>
</g>
<!-- Node2771&#45;&gt;Node2773 -->
<g id="edge9" class="edge"><title>Node2771&#45;&gt;Node2773</title>
<path fill="none" stroke="midnightblue" d="M253.615,-48C279.74,-48 312.308,-48 335.085,-48"/>
<polygon fill="midnightblue" stroke="midnightblue" points="253.59,-44.5001 243.59,-48 253.59,-51.5001 253.59,-44.5001"/>
</g>
<!-- Node2774 -->
<g id="node11" class="node"><title>Node2774</title>
<g id="a_node11"><a xlink:href="../../df/d1d/rpcwallet_8cpp.html#a36f0a0b6cd58a61c125bbe7a39ed1368" target="_top" xlink:title="sendtoaddress">
<polygon fill="white" stroke="black" points="324,-0.5 324,-19.5 404,-19.5 404,-0.5 324,-0.5"/>
<text text-anchor="middle" x="364" y="-7.5" font-family="Helvetica,sans-Serif" font-size="10.00">sendtoaddress</text>
</a>
</g>
</g>
<!-- Node2771&#45;&gt;Node2774 -->
<g id="edge10" class="edge"><title>Node2771&#45;&gt;Node2774</title>
<path fill="none" stroke="midnightblue" d="M253.529,-37.2781C275.971,-31.6859 303.186,-24.9044 324.867,-19.5021"/>
<polygon fill="midnightblue" stroke="midnightblue" points="252.447,-33.9405 243.59,-39.7546 254.14,-40.7328 252.447,-33.9405"/>
</g>
</g>
</svg>
