<?xml version="1.0" encoding="UTF-8" standalone="no"?>
<!DOCTYPE svg PUBLIC "-//W3C//DTD SVG 1.1//EN"
 "http://www.w3.org/Graphics/SVG/1.1/DTD/svg11.dtd">
<!-- Generated by graphviz version 2.38.0 (20140413.2041)
 -->
<!-- Title: GetScriptForMultisig Pages: 1 -->
<svg width="433pt" height="66pt"
 viewBox="0.00 0.00 433.00 66.00" xmlns="http://www.w3.org/2000/svg" xmlns:xlink="http://www.w3.org/1999/xlink">
<g id="graph0" class="graph" transform="scale(1 1) rotate(0) translate(4 62)">
<title>GetScriptForMultisig</title>
<polygon fill="white" stroke="none" points="-4,4 -4,-62 429,-62 429,4 -4,4"/>
<!-- Node345 -->
<g id="node1" class="node"><title>Node345</title>
<polygon fill="#bfbfbf" stroke="black" points="0,-19.5 0,-38.5 106,-38.5 106,-19.5 0,-19.5"/>
<text text-anchor="middle" x="53" y="-26.5" font-family="Helvetica,sans-Serif" font-size="10.00">GetScriptForMultisig</text>
</g>
<!-- Node346 -->
<g id="node2" class="node"><title>Node346</title>
<g id="a_node2"><a xlink:href="../../df/d1d/rpcwallet_8cpp.html#aaaa83aae4b9dc51b4ac76d4be0dd237d" target="_top" xlink:title="Used by addmultisigaddress / createmultisig: ">
<polygon fill="white" stroke="black" points="142,-19.5 142,-38.5 288,-38.5 288,-19.5 142,-19.5"/>
<text text-anchor="middle" x="215" y="-26.5" font-family="Helvetica,sans-Serif" font-size="10.00">_createmultisig_redeemScript</text>
</a>
</g>
</g>
<!-- Node345&#45;&gt;Node346 -->
<g id="edge1" class="edge"><title>Node345&#45;&gt;Node346</title>
<path fill="none" stroke="midnightblue" d="M116.649,-29C124.878,-29 133.365,-29 141.738,-29"/>
<polygon fill="midnightblue" stroke="midnightblue" points="116.39,-25.5001 106.39,-29 116.39,-32.5001 116.39,-25.5001"/>
</g>
<!-- Node347 -->
<g id="node3" class="node"><title>Node347</title>
<g id="a_node3"><a xlink:href="../../d8/dc3/server_8h.html#a2dcabb86c419e41b27a03228566ce2c9" target="_top" xlink:title="createmultisig">
<polygon fill="white" stroke="black" points="336,-38.5 336,-57.5 413,-57.5 413,-38.5 336,-38.5"/>
<text text-anchor="middle" x="374.5" y="-45.5" font-family="Helvetica,sans-Serif" font-size="10.00">createmultisig</text>
</a>
</g>
</g>
<!-- Node346&#45;&gt;Node347 -->
<g id="edge2" class="edge"><title>Node346&#45;&gt;Node347</title>
<path fill="none" stroke="midnightblue" d="M298.273,-38.925C311.318,-40.4986 324.233,-42.0567 335.584,-43.426"/>
<polygon fill="midnightblue" stroke="midnightblue" points="298.644,-35.4444 288.296,-37.7215 297.805,-42.394 298.644,-35.4444"/>
</g>
<!-- Node348 -->
<g id="node4" class="node"><title>Node348</title>
<g id="a_node4"><a xlink:href="../../df/d1d/rpcwallet_8cpp.html#a82120a4244c802d5bb54865d5ff40eac" target="_top" xlink:title="addmultisigaddress">
<polygon fill="white" stroke="black" points="324,-0.5 324,-19.5 425,-19.5 425,-0.5 324,-0.5"/>
<text text-anchor="middle" x="374.5" y="-7.5" font-family="Helvetica,sans-Serif" font-size="10.00">addmultisigaddress</text>
</a>
</g>
</g>
<!-- Node346&#45;&gt;Node348 -->
<g id="edge3" class="edge"><title>Node346&#45;&gt;Node348</title>
<path fill="none" stroke="midnightblue" d="M298.417,-19.0576C307.037,-18.0177 315.598,-16.985 323.686,-16.0093"/>
<polygon fill="midnightblue" stroke="midnightblue" points="297.805,-15.606 288.296,-20.2785 298.644,-22.5556 297.805,-15.606"/>
</g>
</g>
</svg>
