<?xml version="1.0" encoding="UTF-8" standalone="no"?>
<!DOCTYPE svg PUBLIC "-//W3C//DTD SVG 1.1//EN"
 "http://www.w3.org/Graphics/SVG/1.1/DTD/svg11.dtd">
<!-- Generated by graphviz version 2.38.0 (20140413.2041)
 -->
<!-- Title: SetNameProxy Pages: 1 -->
<!--zoomable 66 -->
<svg id="main" version="1.1" xmlns="http://www.w3.org/2000/svg" xmlns:xlink="http://www.w3.org/1999/xlink" xml:space="preserve" onload="init(evt)">
<style type="text/css"><![CDATA[
.edge:hover path { stroke: red; }
.edge:hover polygon { stroke: red; fill: red; }
]]></style>
<script type="text/javascript"><![CDATA[
var edges = document.getElementsByTagName('g');
if (edges && edges.length) {
  for (var i=0;i<edges.length;i++) {
    if (edges[i].id.substr(0,4)=='edge') {
      edges[i].setAttribute('class','edge');
    }
  }
}
]]></script>
        <defs>
                <circle id="rim" cx="0" cy="0" r="7"/>
                <circle id="rim2" cx="0" cy="0" r="3.5"/>
                <g id="zoomPlus">
                        <use xlink:href="#rim" fill="#404040">
                                <set attributeName="fill" to="#808080" begin="zoomplus.mouseover" end="zoomplus.mouseout"/>
                        </use>
                        <path d="M-4,0h8M0,-4v8" fill="none" stroke="white" stroke-width="1.5" pointer-events="none"/>
                </g>
                <g id="zoomMin">
                        <use xlink:href="#rim" fill="#404040">
                                <set attributeName="fill" to="#808080" begin="zoomminus.mouseover" end="zoomminus.mouseout"/>
                        </use>
                        <path d="M-4,0h8" fill="none" stroke="white" stroke-width="1.5" pointer-events="none"/>
                </g>
                <g id="dirArrow">
                        <path fill="none" stroke="white" stroke-width="1.5" d="M0,-3.0v7 M-2.5,-0.5L0,-3.0L2.5,-0.5"/>
                </g>
               <g id="resetDef">
                       <use xlink:href="#rim2" fill="#404040">
                               <set attributeName="fill" to="#808080" begin="reset.mouseover" end="reset.mouseout"/>
                       </use>
               </g>
        </defs>

<script type="text/javascript">
var viewWidth = 647;
var viewHeight = 66;
var sectionId = 'dynsection-26';
</script>
<script xlink:href="../../svgpan.js"/>
<svg id="graph" class="graph">
<g id="viewport">
<title>SetNameProxy</title>
<polygon fill="white" stroke="none" points="-4,4 -4,-62 643,-62 643,4 -4,4"/>
<!-- Node713 -->
<g id="node1" class="node"><title>Node713</title>
<polygon fill="#bfbfbf" stroke="black" points="0,-19.5 0,-38.5 83,-38.5 83,-19.5 0,-19.5"/>
<text text-anchor="middle" x="41.5" y="-26.5" font-family="Helvetica,sans-Serif" font-size="10.00">SetNameProxy</text>
</g>
<!-- Node714 -->
<g id="node2" class="node"><title>Node714</title>
<g id="a_node2"><a xlink:href="../../db/d9d/classproxy_type.html#a3f3c9c016b103c8ff5e61d115c188b36" target="_top" xlink:title="proxyType::IsValid">
<polygon fill="white" stroke="black" points="119,-19.5 119,-38.5 217,-38.5 217,-19.5 119,-19.5"/>
<text text-anchor="middle" x="168" y="-26.5" font-family="Helvetica,sans-Serif" font-size="10.00">proxyType::IsValid</text>
</a>
</g>
</g>
<!-- Node713&#45;&gt;Node714 -->
<g id="edge1" class="edge"><title>Node713&#45;&gt;Node714</title>
<path fill="none" stroke="midnightblue" d="M83.266,-29C91.4214,-29 100.138,-29 108.751,-29"/>
<polygon fill="midnightblue" stroke="midnightblue" points="108.776,-32.5001 118.776,-29 108.776,-25.5001 108.776,-32.5001"/>
</g>
<!-- Node715 -->
<g id="node3" class="node"><title>Node715</title>
<g id="a_node3"><a xlink:href="../../d3/dc3/class_c_net_addr.html#a6fe20b8da9701ca5dc2af078e2e8ac25" target="_top" xlink:title="CNetAddr::IsValid">
<polygon fill="white" stroke="black" points="253,-19.5 253,-38.5 349,-38.5 349,-19.5 253,-19.5"/>
<text text-anchor="middle" x="301" y="-26.5" font-family="Helvetica,sans-Serif" font-size="10.00">CNetAddr::IsValid</text>
</a>
</g>
</g>
<!-- Node714&#45;&gt;Node715 -->
<g id="edge2" class="edge"><title>Node714&#45;&gt;Node715</title>
<path fill="none" stroke="midnightblue" d="M217.036,-29C225.342,-29 234.052,-29 242.578,-29"/>
<polygon fill="midnightblue" stroke="midnightblue" points="242.845,-32.5001 252.845,-29 242.845,-25.5001 242.845,-32.5001"/>
</g>
<!-- Node716 -->
<g id="node4" class="node"><title>Node716</title>
<g id="a_node4"><a xlink:href="../../d3/dc3/class_c_net_addr.html#a7bf8bc283323c0cd9be42f921469c90f" target="_top" xlink:title="CNetAddr::IsRFC3849">
<polygon fill="white" stroke="black" points="385,-38.5 385,-57.5 501,-57.5 501,-38.5 385,-38.5"/>
<text text-anchor="middle" x="443" y="-45.5" font-family="Helvetica,sans-Serif" font-size="10.00">CNetAddr::IsRFC3849</text>
</a>
</g>
</g>
<!-- Node715&#45;&gt;Node716 -->
<g id="edge3" class="edge"><title>Node715&#45;&gt;Node716</title>
<path fill="none" stroke="midnightblue" d="M349.007,-35.3796C357.229,-36.4954 365.927,-37.6758 374.572,-38.8491"/>
<polygon fill="midnightblue" stroke="midnightblue" points="374.285,-42.3422 384.665,-40.2189 375.227,-35.4058 374.285,-42.3422"/>
</g>
<!-- Node718 -->
<g id="node6" class="node"><title>Node718</title>
<g id="a_node6"><a xlink:href="../../d3/dc3/class_c_net_addr.html#a7021b79e9a33c342b68db09dbb6c2293" target="_top" xlink:title="CNetAddr::IsIPv4">
<polygon fill="white" stroke="black" points="395.5,-0.5 395.5,-19.5 490.5,-19.5 490.5,-0.5 395.5,-0.5"/>
<text text-anchor="middle" x="443" y="-7.5" font-family="Helvetica,sans-Serif" font-size="10.00">CNetAddr::IsIPv4</text>
</a>
</g>
</g>
<!-- Node715&#45;&gt;Node718 -->
<g id="edge5" class="edge"><title>Node715&#45;&gt;Node718</title>
<path fill="none" stroke="midnightblue" d="M349.007,-22.6204C360.675,-21.037 373.301,-19.3235 385.375,-17.6848"/>
<polygon fill="midnightblue" stroke="midnightblue" points="385.916,-21.1435 395.355,-16.3304 384.975,-14.2071 385.916,-21.1435"/>
</g>
<!-- Node717 -->
<g id="node5" class="node"><title>Node717</title>
<g id="a_node5"><a xlink:href="../../d3/dc3/class_c_net_addr.html#acfd51ebf2030b01fa5ac133176512475" target="_top" xlink:title="CNetAddr::GetByte">
<polygon fill="white" stroke="black" points="537,-38.5 537,-57.5 639,-57.5 639,-38.5 537,-38.5"/>
<text text-anchor="middle" x="588" y="-45.5" font-family="Helvetica,sans-Serif" font-size="10.00">CNetAddr::GetByte</text>
</a>
</g>
</g>
<!-- Node716&#45;&gt;Node717 -->
<g id="edge4" class="edge"><title>Node716&#45;&gt;Node717</title>
<path fill="none" stroke="midnightblue" d="M501.34,-48C509.626,-48 518.176,-48 526.522,-48"/>
<polygon fill="midnightblue" stroke="midnightblue" points="526.568,-51.5001 536.568,-48 526.568,-44.5001 526.568,-51.5001"/>
</g>
</g>
</svg>
        <g id="navigator" transform="translate(0 0)" fill="#404254">
                <rect fill="#f2f5e9" fill-opacity="0.5" stroke="#606060" stroke-width=".5" x="0" y="0" width="60" height="60"/>
                <use id="zoomplus" xlink:href="#zoomPlus" x="17" y="9" onmousedown="handleZoom(evt,'in')"/>
                <use id="zoomminus" xlink:href="#zoomMin" x="42" y="9" onmousedown="handleZoom(evt,'out')"/>
                <use id="reset" xlink:href="#resetDef" x="30" y="36" onmousedown="handleReset()"/>
                <g id="arrowUp" xlink:href="#dirArrow" transform="translate(30 24)" onmousedown="handlePan(0,-1)">
                  <use xlink:href="#rim" fill="#404040">
                        <set attributeName="fill" to="#808080" begin="arrowUp.mouseover" end="arrowUp.mouseout"/>
                  </use>
                  <path fill="none" stroke="white" stroke-width="1.5" d="M0,-3.0v7 M-2.5,-0.5L0,-3.0L2.5,-0.5"/>
                </g>
                <g id="arrowRight" xlink:href="#dirArrow" transform="rotate(90) translate(36 -43)" onmousedown="handlePan(1,0)">
                  <use xlink:href="#rim" fill="#404040">
                        <set attributeName="fill" to="#808080" begin="arrowRight.mouseover" end="arrowRight.mouseout"/>
                  </use>
                  <path fill="none" stroke="white" stroke-width="1.5" d="M0,-3.0v7 M-2.5,-0.5L0,-3.0L2.5,-0.5"/>
                </g>
                <g id="arrowDown" xlink:href="#dirArrow" transform="rotate(180) translate(-30 -48)" onmousedown="handlePan(0,1)">
                  <use xlink:href="#rim" fill="#404040">
                        <set attributeName="fill" to="#808080" begin="arrowDown.mouseover" end="arrowDown.mouseout"/>
                  </use>
                  <path fill="none" stroke="white" stroke-width="1.5" d="M0,-3.0v7 M-2.5,-0.5L0,-3.0L2.5,-0.5"/>
                </g>
                <g id="arrowLeft" xlink:href="#dirArrow" transform="rotate(270) translate(-36 17)" onmousedown="handlePan(-1,0)">
                  <use xlink:href="#rim" fill="#404040">
                        <set attributeName="fill" to="#808080" begin="arrowLeft.mouseover" end="arrowLeft.mouseout"/>
                  </use>
                  <path fill="none" stroke="white" stroke-width="1.5" d="M0,-3.0v7 M-2.5,-0.5L0,-3.0L2.5,-0.5"/>
                </g>
        </g>
        <svg viewBox="0 0 15 15" width="100%" height="30px" preserveAspectRatio="xMaxYMin meet">
         <g id="arrow_out" transform="scale(0.3 0.3)">
          <a xlink:href="netbase_8h_acf4f8d5df07397cbef864275baf1fed4_cgraph_org.svg" target="_base">
           <rect id="button" ry="5" rx="5" y="6" x="6" height="38" width="38"
                fill="#f2f5e9" fill-opacity="0.5" stroke="#606060" stroke-width="1.0"/>
           <path id="arrow"
             d="M 11.500037,31.436501 C 11.940474,20.09759 22.043105,11.32322 32.158766,21.979434 L 37.068811,17.246167 C 37.068811,17.246167 37.088388,32 37.088388,32 L 22.160133,31.978069 C 22.160133,31.978069 26.997745,27.140456 26.997745,27.140456 C 18.528582,18.264221 13.291696,25.230495 11.500037,31.436501 z"
             style="fill:#404040;"/>
          </a>
         </g>
        </svg>
</svg>
