<?xml version="1.0" encoding="UTF-8" standalone="no"?>
<!DOCTYPE svg PUBLIC "-//W3C//DTD SVG 1.1//EN"
 "http://www.w3.org/Graphics/SVG/1.1/DTD/svg11.dtd">
<!-- Generated by graphviz version 2.38.0 (20140413.2041)
 -->
<!-- Title: CWallet::ChangeWalletPassphrase Pages: 1 -->
<svg width="524pt" height="72pt"
 viewBox="0.00 0.00 524.00 71.50" xmlns="http://www.w3.org/2000/svg" xmlns:xlink="http://www.w3.org/1999/xlink">
<g id="graph0" class="graph" transform="scale(1 1) rotate(0) translate(4 67.5)">
<title>CWallet::ChangeWalletPassphrase</title>
<polygon fill="white" stroke="none" points="-4,4 -4,-67.5 520,-67.5 520,4 -4,4"/>
<!-- Node574 -->
<g id="node1" class="node"><title>Node574</title>
<polygon fill="#bfbfbf" stroke="black" points="0,-19.5 0,-38.5 171,-38.5 171,-19.5 0,-19.5"/>
<text text-anchor="middle" x="85.5" y="-26.5" font-family="Helvetica,sans-Serif" font-size="10.00">CWallet::ChangeWalletPassphrase</text>
</g>
<!-- Node575 -->
<g id="node2" class="node"><title>Node575</title>
<g id="a_node2"><a xlink:href="../../d4/d27/class_wallet_model.html#a67ebff3f267b5c9973c0465184c085a4" target="_top" xlink:title="WalletModel::changePassphrase">
<polygon fill="white" stroke="black" points="207,-38.5 207,-57.5 367,-57.5 367,-38.5 207,-38.5"/>
<text text-anchor="middle" x="287" y="-45.5" font-family="Helvetica,sans-Serif" font-size="10.00">WalletModel::changePassphrase</text>
</a>
</g>
</g>
<!-- Node574&#45;&gt;Node575 -->
<g id="edge1" class="edge"><title>Node574&#45;&gt;Node575</title>
<path fill="none" stroke="midnightblue" d="M181.196,-38.0187C189.824,-38.8404 198.503,-39.667 206.973,-40.4736"/>
<polygon fill="midnightblue" stroke="midnightblue" points="181.393,-34.5217 171.106,-37.0577 180.729,-41.4901 181.393,-34.5217"/>
</g>
<!-- Node577 -->
<g id="node4" class="node"><title>Node577</title>
<g id="a_node4"><a xlink:href="../../df/d1d/rpcwallet_8cpp.html#a63c3c88d86ea99e2c171b68a874fe8fe" target="_top" xlink:title="walletpassphrasechange">
<polygon fill="white" stroke="black" points="225,-0.5 225,-19.5 349,-19.5 349,-0.5 225,-0.5"/>
<text text-anchor="middle" x="287" y="-7.5" font-family="Helvetica,sans-Serif" font-size="10.00">walletpassphrasechange</text>
</a>
</g>
</g>
<!-- Node574&#45;&gt;Node577 -->
<g id="edge3" class="edge"><title>Node574&#45;&gt;Node577</title>
<path fill="none" stroke="midnightblue" d="M181.317,-19.9698C196.122,-18.5598 211.073,-17.1359 224.86,-15.8229"/>
<polygon fill="midnightblue" stroke="midnightblue" points="180.729,-16.5099 171.106,-20.9423 181.393,-23.4783 180.729,-16.5099"/>
</g>
<!-- Node576 -->
<g id="node3" class="node"><title>Node576</title>
<g id="a_node3"><a xlink:href="../../d8/d70/class_ask_passphrase_dialog.html#ac2f176af3693b73870d26ef0bfc6cbb9" target="_top" xlink:title="AskPassphraseDialog\l::accept">
<polygon fill="white" stroke="black" points="403,-33 403,-63 516,-63 516,-33 403,-33"/>
<text text-anchor="start" x="411" y="-51" font-family="Helvetica,sans-Serif" font-size="10.00">AskPassphraseDialog</text>
<text text-anchor="middle" x="459.5" y="-40" font-family="Helvetica,sans-Serif" font-size="10.00">::accept</text>
</a>
</g>
</g>
<!-- Node575&#45;&gt;Node576 -->
<g id="edge2" class="edge"><title>Node575&#45;&gt;Node576</title>
<path fill="none" stroke="midnightblue" d="M377.402,-48C386.038,-48 394.616,-48 402.783,-48"/>
<polygon fill="midnightblue" stroke="midnightblue" points="377.26,-44.5001 367.26,-48 377.26,-51.5001 377.26,-44.5001"/>
</g>
</g>
</svg>
