<?xml version="1.0" encoding="UTF-8" standalone="no"?>
<!DOCTYPE svg PUBLIC "-//W3C//DTD SVG 1.1//EN"
 "http://www.w3.org/Graphics/SVG/1.1/DTD/svg11.dtd">
<!-- Generated by graphviz version 2.38.0 (20140413.2041)
 -->
<!-- Title: BitcoinApplication::splashFinished Pages: 1 -->
<svg width="588pt" height="132pt"
 viewBox="0.00 0.00 588.00 132.00" xmlns="http://www.w3.org/2000/svg" xmlns:xlink="http://www.w3.org/1999/xlink">
<g id="graph0" class="graph" transform="scale(1 1) rotate(0) translate(4 128)">
<title>BitcoinApplication::splashFinished</title>
<polygon fill="white" stroke="none" points="-4,4 -4,-128 584,-128 584,4 -4,4"/>
<!-- Node538 -->
<g id="node1" class="node"><title>Node538</title>
<polygon fill="#bfbfbf" stroke="black" points="0,-68.5 0,-98.5 95,-98.5 95,-68.5 0,-68.5"/>
<text text-anchor="start" x="8" y="-86.5" font-family="Helvetica,sans-Serif" font-size="10.00">BitcoinApplication</text>
<text text-anchor="middle" x="47.5" y="-75.5" font-family="Helvetica,sans-Serif" font-size="10.00">::splashFinished</text>
</g>
<!-- Node539 -->
<g id="node2" class="node"><title>Node539</title>
<g id="a_node2"><a xlink:href="../../d2/d2a/class_bitcoin_application.html#a30f9832445d8d59374d185eb1400ab59" target="_top" xlink:title="Create splash screen. ">
<polygon fill="white" stroke="black" points="262,-93.5 262,-123.5 372,-123.5 372,-93.5 262,-93.5"/>
<text text-anchor="start" x="270" y="-111.5" font-family="Helvetica,sans-Serif" font-size="10.00">BitcoinApplication</text>
<text text-anchor="middle" x="317" y="-100.5" font-family="Helvetica,sans-Serif" font-size="10.00">::createSplashScreen</text>
</a>
</g>
</g>
<!-- Node538&#45;&gt;Node539 -->
<g id="edge1" class="edge"><title>Node538&#45;&gt;Node539</title>
<path fill="none" stroke="midnightblue" d="M105.235,-88.8023C151.4,-93.1168 216.134,-99.1668 261.646,-103.42"/>
<polygon fill="midnightblue" stroke="midnightblue" points="105.377,-85.3005 95.0949,-87.8547 104.726,-92.2701 105.377,-85.3005"/>
</g>
<!-- Node541 -->
<g id="node4" class="node"><title>Node541</title>
<g id="a_node4"><a xlink:href="../../d2/d2a/class_bitcoin_application.html#aceb08b4063e4fb264cf11cf7f9edd969" target="_top" xlink:title="BitcoinApplication\l::initializeResult">
<polygon fill="white" stroke="black" points="131,-46.5 131,-76.5 226,-76.5 226,-46.5 131,-46.5"/>
<text text-anchor="start" x="139" y="-64.5" font-family="Helvetica,sans-Serif" font-size="10.00">BitcoinApplication</text>
<text text-anchor="middle" x="178.5" y="-53.5" font-family="Helvetica,sans-Serif" font-size="10.00">::initializeResult</text>
</a>
</g>
</g>
<!-- Node538&#45;&gt;Node541 -->
<g id="edge3" class="edge"><title>Node538&#45;&gt;Node541</title>
<path fill="none" stroke="midnightblue" d="M105.101,-73.8471C113.752,-72.3717 122.596,-70.8635 130.996,-69.4308"/>
<polygon fill="midnightblue" stroke="midnightblue" points="104.341,-70.4261 95.072,-75.5575 105.518,-77.3264 104.341,-70.4261"/>
</g>
<!-- Node540 -->
<g id="node3" class="node"><title>Node540</title>
<g id="a_node3"><a xlink:href="../../de/d02/dash_8cpp.html#a0ddf1224851353fc92bfbff6f499fa97" target="_top" xlink:title="main">
<polygon fill="white" stroke="black" points="542,-55 542,-74 580,-74 580,-55 542,-55"/>
<text text-anchor="middle" x="561" y="-62" font-family="Helvetica,sans-Serif" font-size="10.00">main</text>
</a>
</g>
</g>
<!-- Node539&#45;&gt;Node540 -->
<g id="edge2" class="edge"><title>Node539&#45;&gt;Node540</title>
<path fill="none" stroke="midnightblue" d="M382.384,-106.614C419.115,-104.312 465.721,-99.3059 506,-88.5 518.485,-85.1505 531.762,-79.2842 542.026,-74.19"/>
<polygon fill="midnightblue" stroke="midnightblue" points="382.082,-103.125 372.3,-107.194 382.484,-110.114 382.082,-103.125"/>
</g>
<!-- Node542 -->
<g id="node5" class="node"><title>Node542</title>
<g id="a_node5"><a xlink:href="../../d2/d2a/class_bitcoin_application.html#a61afce9356e452c53ad4c83f5ca19df8" target="_top" xlink:title="BitcoinApplication\l::startThread">
<polygon fill="white" stroke="black" points="269.5,-44.5 269.5,-74.5 364.5,-74.5 364.5,-44.5 269.5,-44.5"/>
<text text-anchor="start" x="277.5" y="-62.5" font-family="Helvetica,sans-Serif" font-size="10.00">BitcoinApplication</text>
<text text-anchor="middle" x="317" y="-51.5" font-family="Helvetica,sans-Serif" font-size="10.00">::startThread</text>
</a>
</g>
</g>
<!-- Node541&#45;&gt;Node542 -->
<g id="edge4" class="edge"><title>Node541&#45;&gt;Node542</title>
<path fill="none" stroke="midnightblue" d="M236.392,-60.6664C247.3,-60.5066 258.606,-60.3409 269.153,-60.1864"/>
<polygon fill="midnightblue" stroke="midnightblue" points="236.041,-57.1711 226.094,-60.8173 236.144,-64.1703 236.041,-57.1711"/>
</g>
<!-- Node543 -->
<g id="node6" class="node"><title>Node543</title>
<g id="a_node6"><a xlink:href="../../d2/d2a/class_bitcoin_application.html#ade19c44b87b00b6b19b433caf4c22ba6" target="_top" xlink:title="Request core initialization. ">
<polygon fill="white" stroke="black" points="409.5,-49.5 409.5,-79.5 504.5,-79.5 504.5,-49.5 409.5,-49.5"/>
<text text-anchor="start" x="417.5" y="-67.5" font-family="Helvetica,sans-Serif" font-size="10.00">BitcoinApplication</text>
<text text-anchor="middle" x="457" y="-56.5" font-family="Helvetica,sans-Serif" font-size="10.00">::requestInitialize</text>
</a>
</g>
</g>
<!-- Node542&#45;&gt;Node543 -->
<g id="edge5" class="edge"><title>Node542&#45;&gt;Node543</title>
<path fill="none" stroke="midnightblue" d="M375.038,-61.5666C386.451,-61.9801 398.315,-62.41 409.328,-62.809"/>
<polygon fill="midnightblue" stroke="midnightblue" points="374.841,-58.0572 364.721,-61.1928 374.587,-65.0527 374.841,-58.0572"/>
</g>
<!-- Node544 -->
<g id="node7" class="node"><title>Node544</title>
<g id="a_node7"><a xlink:href="../../d2/d2a/class_bitcoin_application.html#a37c560d4c04d14a6da151b82caf8888f" target="_top" xlink:title="Request core shutdown. ">
<polygon fill="white" stroke="black" points="408,-0.5 408,-30.5 506,-30.5 506,-0.5 408,-0.5"/>
<text text-anchor="start" x="416" y="-18.5" font-family="Helvetica,sans-Serif" font-size="10.00">BitcoinApplication</text>
<text text-anchor="middle" x="457" y="-7.5" font-family="Helvetica,sans-Serif" font-size="10.00">::requestShutdown</text>
</a>
</g>
</g>
<!-- Node542&#45;&gt;Node544 -->
<g id="edge7" class="edge"><title>Node542&#45;&gt;Node544</title>
<path fill="none" stroke="midnightblue" d="M374.579,-41.4604C385.971,-37.8282 397.83,-34.047 408.858,-30.5308"/>
<polygon fill="midnightblue" stroke="midnightblue" points="373.185,-38.2312 364.721,-44.6036 375.311,-44.9004 373.185,-38.2312"/>
</g>
<!-- Node543&#45;&gt;Node540 -->
<g id="edge6" class="edge"><title>Node543&#45;&gt;Node540</title>
<path fill="none" stroke="midnightblue" d="M514.783,-64.5C524.587,-64.5 534.102,-64.5 541.854,-64.5"/>
<polygon fill="midnightblue" stroke="midnightblue" points="514.523,-61.0001 504.523,-64.5 514.523,-68.0001 514.523,-61.0001"/>
</g>
<!-- Node544&#45;&gt;Node540 -->
<g id="edge8" class="edge"><title>Node544&#45;&gt;Node540</title>
<path fill="none" stroke="midnightblue" d="M498.57,-34.9897C513.582,-42.2011 529.853,-50.0175 541.876,-55.7932"/>
<polygon fill="midnightblue" stroke="midnightblue" points="499.965,-31.7768 489.436,-30.6014 496.934,-38.0865 499.965,-31.7768"/>
</g>
</g>
</svg>
