<?xml version="1.0" encoding="UTF-8" standalone="no"?>
<!DOCTYPE svg PUBLIC "-//W3C//DTD SVG 1.1//EN"
 "http://www.w3.org/Graphics/SVG/1.1/DTD/svg11.dtd">
<!-- Generated by graphviz version 2.38.0 (20140413.2041)
 -->
<!-- Title: CZMQPublishHashTransactionNotifier::NotifyTransaction Pages: 1 -->
<svg width="1261pt" height="427pt"
 viewBox="0.00 0.00 1261.00 427.00" xmlns="http://www.w3.org/2000/svg" xmlns:xlink="http://www.w3.org/1999/xlink">
<g id="graph0" class="graph" transform="scale(1 1) rotate(0) translate(4 423)">
<title>CZMQPublishHashTransactionNotifier::NotifyTransaction</title>
<polygon fill="white" stroke="none" points="-4,4 -4,-423 1257,-423 1257,4 -4,4"/>
<!-- Node0 -->
<g id="node1" class="node"><title>Node0</title>
<polygon fill="#bfbfbf" stroke="black" points="0,-318 0,-348 152,-348 152,-318 0,-318"/>
<text text-anchor="start" x="8" y="-336" font-family="Helvetica,sans-Serif" font-size="10.00">CZMQPublishHashTransaction</text>
<text text-anchor="middle" x="76" y="-325" font-family="Helvetica,sans-Serif" font-size="10.00">Notifier::NotifyTransaction</text>
</g>
<!-- Node1 -->
<g id="node2" class="node"><title>Node1</title>
<g id="a_node2"><a xlink:href="../../db/d50/classbase__blob.html#aeee68e00ceeacf49086e98b661e017ff" target="_top" xlink:title="base_blob::begin">
<polygon fill="white" stroke="black" points="216,-399.5 216,-418.5 306,-418.5 306,-399.5 216,-399.5"/>
<text text-anchor="middle" x="261" y="-406.5" font-family="Helvetica,sans-Serif" font-size="10.00">base_blob::begin</text>
</a>
</g>
</g>
<!-- Node0&#45;&gt;Node1 -->
<g id="edge1" class="edge"><title>Node0&#45;&gt;Node1</title>
<path fill="none" stroke="midnightblue" d="M102.727,-348.24C124.766,-360.795 157.66,-378.365 188,-390 194.326,-392.426 201.079,-394.655 207.819,-396.666"/>
<polygon fill="midnightblue" stroke="midnightblue" points="207.059,-400.088 217.635,-399.454 208.971,-393.355 207.059,-400.088"/>
</g>
<!-- Node2 -->
<g id="node3" class="node"><title>Node2</title>
<g id="a_node3"><a xlink:href="../../df/d43/class_c_transaction.html#a7efd1379de830341417c0bfa23a149aa" target="_top" xlink:title="CTransaction::GetHash">
<polygon fill="white" stroke="black" points="201,-361.5 201,-380.5 321,-380.5 321,-361.5 201,-361.5"/>
<text text-anchor="middle" x="261" y="-368.5" font-family="Helvetica,sans-Serif" font-size="10.00">CTransaction::GetHash</text>
</a>
</g>
</g>
<!-- Node0&#45;&gt;Node2 -->
<g id="edge2" class="edge"><title>Node0&#45;&gt;Node2</title>
<path fill="none" stroke="midnightblue" d="M149.326,-348.019C167.616,-351.816 186.976,-355.837 204.302,-359.434"/>
<polygon fill="midnightblue" stroke="midnightblue" points="203.743,-362.893 214.246,-361.499 205.166,-356.039 203.743,-362.893"/>
</g>
<!-- Node3 -->
<g id="node4" class="node"><title>Node3</title>
<g id="a_node4"><a xlink:href="../../db/d50/classbase__blob.html#ad7263503f949fb3c6c520ebb1f28e378" target="_top" xlink:title="base_blob::GetHex">
<polygon fill="white" stroke="black" points="210.5,-323.5 210.5,-342.5 311.5,-342.5 311.5,-323.5 210.5,-323.5"/>
<text text-anchor="middle" x="261" y="-330.5" font-family="Helvetica,sans-Serif" font-size="10.00">base_blob::GetHex</text>
</a>
</g>
</g>
<!-- Node0&#45;&gt;Node3 -->
<g id="edge3" class="edge"><title>Node0&#45;&gt;Node3</title>
<path fill="none" stroke="midnightblue" d="M152.225,-333C168.165,-333 184.785,-333 200.067,-333"/>
<polygon fill="midnightblue" stroke="midnightblue" points="200.407,-336.5 210.407,-333 200.407,-329.5 200.407,-336.5"/>
</g>
<!-- Node4 -->
<g id="node5" class="node"><title>Node4</title>
<g id="a_node5"><a xlink:href="../../d8/d3c/util_8h.html#aab1f837a2366f424bdc996fdf6352171" target="_top" xlink:title="Zero&#45;arg versions of logging and error, these are not covered by TINYFORMAT_FOREACH_ARGNUM. ">
<polygon fill="white" stroke="black" points="606.5,-247.5 606.5,-266.5 659.5,-266.5 659.5,-247.5 606.5,-247.5"/>
<text text-anchor="middle" x="633" y="-254.5" font-family="Helvetica,sans-Serif" font-size="10.00">LogPrint</text>
</a>
</g>
</g>
<!-- Node0&#45;&gt;Node4 -->
<g id="edge4" class="edge"><title>Node0&#45;&gt;Node4</title>
<path fill="none" stroke="midnightblue" d="M152.124,-319.415C164.103,-317.459 176.376,-315.577 188,-314 355.314,-291.298 400.2,-307.929 566,-276 575.993,-274.076 586.66,-271.322 596.439,-268.507"/>
<polygon fill="midnightblue" stroke="midnightblue" points="597.662,-271.795 606.244,-265.582 595.661,-265.087 597.662,-271.795"/>
</g>
<!-- Node22 -->
<g id="node23" class="node"><title>Node22</title>
<g id="a_node23"><a xlink:href="../../db/d7c/class_c_z_m_q_abstract_publish_notifier.html#a1bec52cf2e0ef829bbd067cac11acfdd" target="_top" xlink:title="CZMQAbstractPublishNotifier\l::SendMessage">
<polygon fill="white" stroke="black" points="188,-236 188,-266 334,-266 334,-236 188,-236"/>
<text text-anchor="start" x="196" y="-254" font-family="Helvetica,sans-Serif" font-size="10.00">CZMQAbstractPublishNotifier</text>
<text text-anchor="middle" x="261" y="-243" font-family="Helvetica,sans-Serif" font-size="10.00">::SendMessage</text>
</a>
</g>
</g>
<!-- Node0&#45;&gt;Node22 -->
<g id="edge23" class="edge"><title>Node0&#45;&gt;Node22</title>
<path fill="none" stroke="midnightblue" d="M108.412,-317.841C130.548,-307.268 160.948,-292.966 188,-281 196.188,-277.378 204.949,-273.626 213.442,-270.053"/>
<polygon fill="midnightblue" stroke="midnightblue" points="214.994,-273.197 222.87,-266.11 212.294,-266.739 214.994,-273.197"/>
</g>
<!-- Node5 -->
<g id="node6" class="node"><title>Node5</title>
<g id="a_node6"><a xlink:href="../../d8/d1a/namespacetinyformat_1_1detail.html#aa4b0590b3e34562c2d252a2086cec7ba" target="_top" xlink:title="tinyformat::detail\l::format">
<polygon fill="white" stroke="black" points="707,-286 707,-316 796,-316 796,-286 707,-286"/>
<text text-anchor="start" x="715" y="-304" font-family="Helvetica,sans-Serif" font-size="10.00">tinyformat::detail</text>
<text text-anchor="middle" x="751.5" y="-293" font-family="Helvetica,sans-Serif" font-size="10.00">::format</text>
</a>
</g>
</g>
<!-- Node4&#45;&gt;Node5 -->
<g id="edge5" class="edge"><title>Node4&#45;&gt;Node5</title>
<path fill="none" stroke="midnightblue" d="M659.279,-266.547C671.458,-271.147 686.506,-276.83 700.843,-282.245"/>
<polygon fill="midnightblue" stroke="midnightblue" points="700.019,-285.676 710.611,-285.935 702.493,-279.127 700.019,-285.676"/>
</g>
<!-- Node8 -->
<g id="node9" class="node"><title>Node8</title>
<g id="a_node9"><a xlink:href="../../d8/d3c/util_8h.html#a343d2a13efe00125f78d25dafb0a8d98" target="_top" xlink:title="Return true if log accepts specified category. ">
<polygon fill="white" stroke="black" points="700,-247.5 700,-266.5 803,-266.5 803,-247.5 700,-247.5"/>
<text text-anchor="middle" x="751.5" y="-254.5" font-family="Helvetica,sans-Serif" font-size="10.00">LogAcceptCategory</text>
</a>
</g>
</g>
<!-- Node4&#45;&gt;Node8 -->
<g id="edge8" class="edge"><title>Node4&#45;&gt;Node8</title>
<path fill="none" stroke="midnightblue" d="M659.566,-257C668.5,-257 678.95,-257 689.52,-257"/>
<polygon fill="midnightblue" stroke="midnightblue" points="689.645,-260.5 699.645,-257 689.645,-253.5 689.645,-260.5"/>
</g>
<!-- Node10 -->
<g id="node11" class="node"><title>Node10</title>
<g id="a_node11"><a xlink:href="../../d8/d3c/util_8h.html#afd4c3002b2797c0560adddb6af3ca1da" target="_top" xlink:title="Send a string to the log output. ">
<polygon fill="white" stroke="black" points="719,-152.5 719,-171.5 784,-171.5 784,-152.5 719,-152.5"/>
<text text-anchor="middle" x="751.5" y="-159.5" font-family="Helvetica,sans-Serif" font-size="10.00">LogPrintStr</text>
</a>
</g>
</g>
<!-- Node4&#45;&gt;Node10 -->
<g id="edge10" class="edge"><title>Node4&#45;&gt;Node10</title>
<path fill="none" stroke="midnightblue" d="M646.029,-247.191C666.102,-230.822 706.615,-197.786 730.869,-178.008"/>
<polygon fill="midnightblue" stroke="midnightblue" points="733.172,-180.646 738.71,-171.614 728.748,-175.221 733.172,-180.646"/>
</g>
<!-- Node6 -->
<g id="node7" class="node"><title>Node6</title>
<g id="a_node7"><a xlink:href="../../d8/d42/classtinyformat_1_1detail_1_1_format_iterator.html#a46377a804f72dbad1e508d2fbaa18ce9" target="_top" xlink:title="tinyformat::detail\l::FormatIterator::finish">
<polygon fill="white" stroke="black" points="839,-286 839,-316 952,-316 952,-286 839,-286"/>
<text text-anchor="start" x="847" y="-304" font-family="Helvetica,sans-Serif" font-size="10.00">tinyformat::detail</text>
<text text-anchor="middle" x="895.5" y="-293" font-family="Helvetica,sans-Serif" font-size="10.00">::FormatIterator::finish</text>
</a>
</g>
</g>
<!-- Node5&#45;&gt;Node6 -->
<g id="edge6" class="edge"><title>Node5&#45;&gt;Node6</title>
<path fill="none" stroke="midnightblue" d="M796.263,-301C806.558,-301 817.753,-301 828.777,-301"/>
<polygon fill="midnightblue" stroke="midnightblue" points="828.823,-304.5 838.823,-301 828.823,-297.5 828.823,-304.5"/>
</g>
<!-- Node7 -->
<g id="node8" class="node"><title>Node7</title>
<g id="a_node8"><a xlink:href="../../d8/d42/classtinyformat_1_1detail_1_1_format_iterator.html#af3bbb8259ac0593ec2268ef5863311d5" target="_top" xlink:title="tinyformat::detail\l::FormatIterator::printFormat\lStringLiteral">
<polygon fill="white" stroke="black" points="991,-280.5 991,-321.5 1131,-321.5 1131,-280.5 991,-280.5"/>
<text text-anchor="start" x="999" y="-309.5" font-family="Helvetica,sans-Serif" font-size="10.00">tinyformat::detail</text>
<text text-anchor="start" x="999" y="-298.5" font-family="Helvetica,sans-Serif" font-size="10.00">::FormatIterator::printFormat</text>
<text text-anchor="middle" x="1061" y="-287.5" font-family="Helvetica,sans-Serif" font-size="10.00">StringLiteral</text>
</a>
</g>
</g>
<!-- Node6&#45;&gt;Node7 -->
<g id="edge7" class="edge"><title>Node6&#45;&gt;Node7</title>
<path fill="none" stroke="midnightblue" d="M952.31,-301C961.51,-301 971.2,-301 980.841,-301"/>
<polygon fill="midnightblue" stroke="midnightblue" points="980.848,-304.5 990.848,-301 980.848,-297.5 980.848,-304.5"/>
</g>
<!-- Node9 -->
<g id="node10" class="node"><title>Node9</title>
<g id="a_node10"><a xlink:href="../../df/d2d/util_8cpp.html#a1db3aa900bfa259ae1fe04068f2accfc" target="_top" xlink:title="GetThreadName">
<polygon fill="white" stroke="black" points="1016.5,-206.5 1016.5,-225.5 1105.5,-225.5 1105.5,-206.5 1016.5,-206.5"/>
<text text-anchor="middle" x="1061" y="-213.5" font-family="Helvetica,sans-Serif" font-size="10.00">GetThreadName</text>
</a>
</g>
</g>
<!-- Node8&#45;&gt;Node9 -->
<g id="edge9" class="edge"><title>Node8&#45;&gt;Node9</title>
<path fill="none" stroke="midnightblue" d="M803.105,-253.669C843.539,-250.65 901.586,-245.514 952,-238 970.431,-235.253 990.469,-231.412 1008.22,-227.707"/>
<polygon fill="midnightblue" stroke="midnightblue" points="1009.33,-231.051 1018.38,-225.551 1007.87,-224.203 1009.33,-231.051"/>
</g>
<!-- Node11 -->
<g id="node12" class="node"><title>Node11</title>
<g id="a_node12"><a xlink:href="../../df/d2d/util_8cpp.html#a751ff5f21d880737811136b5e0bcea12" target="_top" xlink:title="DebugPrintInit">
<polygon fill="white" stroke="black" points="856,-209.5 856,-228.5 935,-228.5 935,-209.5 856,-209.5"/>
<text text-anchor="middle" x="895.5" y="-216.5" font-family="Helvetica,sans-Serif" font-size="10.00">DebugPrintInit</text>
</a>
</g>
</g>
<!-- Node10&#45;&gt;Node11 -->
<g id="edge11" class="edge"><title>Node10&#45;&gt;Node11</title>
<path fill="none" stroke="midnightblue" d="M772.92,-171.551C790.32,-179.55 816.078,-191.06 839,-200 844.278,-202.059 849.882,-204.119 855.423,-206.085"/>
<polygon fill="midnightblue" stroke="midnightblue" points="854.646,-209.52 865.241,-209.497 856.944,-202.908 854.646,-209.52"/>
</g>
<!-- Node12 -->
<g id="node13" class="node"><title>Node12</title>
<g id="a_node13"><a xlink:href="../../df/d2d/util_8cpp.html#a7c125ce70fa6b09e1de0c4a404fc2b6f" target="_top" xlink:title="FileWriteStr">
<polygon fill="white" stroke="black" points="861.5,-171.5 861.5,-190.5 929.5,-190.5 929.5,-171.5 861.5,-171.5"/>
<text text-anchor="middle" x="895.5" y="-178.5" font-family="Helvetica,sans-Serif" font-size="10.00">FileWriteStr</text>
</a>
</g>
</g>
<!-- Node10&#45;&gt;Node12 -->
<g id="edge12" class="edge"><title>Node10&#45;&gt;Node12</title>
<path fill="none" stroke="midnightblue" d="M784.014,-166.217C803.765,-168.859 829.492,-172.302 851.151,-175.2"/>
<polygon fill="midnightblue" stroke="midnightblue" points="850.719,-178.673 861.095,-176.53 851.648,-171.735 850.719,-178.673"/>
</g>
<!-- Node13 -->
<g id="node14" class="node"><title>Node13</title>
<g id="a_node14"><a xlink:href="../../df/d2d/util_8cpp.html#ab83866a054745d4b30a3948a1b44beba" target="_top" xlink:title="GetDataDir">
<polygon fill="white" stroke="black" points="862.5,-95.5 862.5,-114.5 928.5,-114.5 928.5,-95.5 862.5,-95.5"/>
<text text-anchor="middle" x="895.5" y="-102.5" font-family="Helvetica,sans-Serif" font-size="10.00">GetDataDir</text>
</a>
</g>
</g>
<!-- Node10&#45;&gt;Node13 -->
<g id="edge13" class="edge"><title>Node10&#45;&gt;Node13</title>
<path fill="none" stroke="midnightblue" d="M772.92,-152.449C790.32,-144.45 816.078,-132.94 839,-124 844.278,-121.941 849.882,-119.881 855.423,-117.915"/>
<polygon fill="midnightblue" stroke="midnightblue" points="856.944,-121.092 865.241,-114.503 854.646,-114.48 856.944,-121.092"/>
</g>
<!-- Node17 -->
<g id="node18" class="node"><title>Node17</title>
<g id="a_node18"><a xlink:href="../../df/d2d/util_8cpp.html#af0c31e37a5891e021f9b339696398a28" target="_top" xlink:title="fStartedNewLine is a state variable held by the calling context that will suppress printing of the th...">
<polygon fill="white" stroke="black" points="845,-133.5 845,-152.5 946,-152.5 946,-133.5 845,-133.5"/>
<text text-anchor="middle" x="895.5" y="-140.5" font-family="Helvetica,sans-Serif" font-size="10.00">LogThreadNameStr</text>
</a>
</g>
</g>
<!-- Node10&#45;&gt;Node17 -->
<g id="edge17" class="edge"><title>Node10&#45;&gt;Node17</title>
<path fill="none" stroke="midnightblue" d="M784.014,-157.783C798.973,-155.782 817.359,-153.322 834.811,-150.987"/>
<polygon fill="midnightblue" stroke="midnightblue" points="835.497,-154.426 844.944,-149.631 834.568,-147.488 835.497,-154.426"/>
</g>
<!-- Node18 -->
<g id="node19" class="node"><title>Node18</title>
<g id="a_node19"><a xlink:href="../../df/d2d/util_8cpp.html#a8e80ae045580407e9f2028dc5f7b954c" target="_top" xlink:title="fStartedNewLine is a state variable held by the calling context that will suppress printing of the ti...">
<polygon fill="white" stroke="black" points="848.5,-38.5 848.5,-57.5 942.5,-57.5 942.5,-38.5 848.5,-38.5"/>
<text text-anchor="middle" x="895.5" y="-45.5" font-family="Helvetica,sans-Serif" font-size="10.00">LogTimestampStr</text>
</a>
</g>
</g>
<!-- Node10&#45;&gt;Node18 -->
<g id="edge19" class="edge"><title>Node10&#45;&gt;Node18</title>
<path fill="none" stroke="midnightblue" d="M762.543,-152.461C778.324,-137.638 810.114,-108.447 839,-86 849.166,-78.1001 860.869,-69.9567 870.9,-63.2447"/>
<polygon fill="midnightblue" stroke="midnightblue" points="873.135,-65.9631 879.55,-57.5311 869.277,-60.1222 873.135,-65.9631"/>
</g>
<!-- Node14 -->
<g id="node15" class="node"><title>Node14</title>
<g id="a_node15"><a xlink:href="../../d9/d44/chainparamsbase_8cpp.html#a06ef5bfd0efb53d13bbf4276726e84ab" target="_top" xlink:title="Return the currently selected parameters. ">
<polygon fill="white" stroke="black" points="1024.5,-152.5 1024.5,-171.5 1097.5,-171.5 1097.5,-152.5 1024.5,-152.5"/>
<text text-anchor="middle" x="1061" y="-159.5" font-family="Helvetica,sans-Serif" font-size="10.00">BaseParams</text>
</a>
</g>
</g>
<!-- Node13&#45;&gt;Node14 -->
<g id="edge14" class="edge"><title>Node13&#45;&gt;Node14</title>
<path fill="none" stroke="midnightblue" d="M927.07,-114.512C935.265,-117.32 944.053,-120.567 952,-124 968.609,-131.174 971.145,-136.427 988,-143 996.401,-146.276 1005.57,-149.177 1014.46,-151.665"/>
<polygon fill="midnightblue" stroke="midnightblue" points="1013.77,-155.102 1024.33,-154.296 1015.57,-148.338 1013.77,-155.102"/>
</g>
<!-- Node15 -->
<g id="node16" class="node"><title>Node15</title>
<g id="a_node16"><a xlink:href="../../d2/dfc/class_c_base_chain_params.html#a4b142e94ae27f860522dd5efef41fb67" target="_top" xlink:title="CBaseChainParams::DataDir">
<polygon fill="white" stroke="black" points="988,-114.5 988,-133.5 1134,-133.5 1134,-114.5 988,-114.5"/>
<text text-anchor="middle" x="1061" y="-121.5" font-family="Helvetica,sans-Serif" font-size="10.00">CBaseChainParams::DataDir</text>
</a>
</g>
</g>
<!-- Node13&#45;&gt;Node15 -->
<g id="edge15" class="edge"><title>Node13&#45;&gt;Node15</title>
<path fill="none" stroke="midnightblue" d="M928.802,-108.754C942.961,-110.399 960.29,-112.413 977.654,-114.431"/>
<polygon fill="midnightblue" stroke="midnightblue" points="977.522,-117.939 987.859,-115.617 978.33,-110.986 977.522,-117.939"/>
</g>
<!-- Node16 -->
<g id="node17" class="node"><title>Node16</title>
<g id="a_node17"><a xlink:href="../../df/d2d/util_8cpp.html#ab272995de020a3bcbf743be630e485c6" target="_top" xlink:title="GetDefaultDataDir">
<polygon fill="white" stroke="black" points="1012,-76.5 1012,-95.5 1110,-95.5 1110,-76.5 1012,-76.5"/>
<text text-anchor="middle" x="1061" y="-83.5" font-family="Helvetica,sans-Serif" font-size="10.00">GetDefaultDataDir</text>
</a>
</g>
</g>
<!-- Node13&#45;&gt;Node16 -->
<g id="edge16" class="edge"><title>Node13&#45;&gt;Node16</title>
<path fill="none" stroke="midnightblue" d="M928.802,-101.246C949.66,-98.8224 977.397,-95.5992 1001.99,-92.7409"/>
<polygon fill="midnightblue" stroke="midnightblue" points="1002.43,-96.2143 1011.95,-91.5832 1001.62,-89.261 1002.43,-96.2143"/>
</g>
<!-- Node17&#45;&gt;Node9 -->
<g id="edge18" class="edge"><title>Node17&#45;&gt;Node9</title>
<path fill="none" stroke="midnightblue" d="M927.07,-152.512C935.265,-155.32 944.053,-158.567 952,-162 968.609,-169.174 971.862,-172.822 988,-181 1001.97,-188.078 1017.58,-195.704 1030.69,-202.026"/>
<polygon fill="midnightblue" stroke="midnightblue" points="1029.21,-205.195 1039.74,-206.372 1032.24,-198.886 1029.21,-205.195"/>
</g>
<!-- Node19 -->
<g id="node20" class="node"><title>Node19</title>
<g id="a_node20"><a xlink:href="../../d6/d3c/utiltime_8cpp.html#a749bc6776c8ec72d7c5e4dea56aee415" target="_top" xlink:title="DateTimeStrFormat">
<polygon fill="white" stroke="black" points="1009.5,-38.5 1009.5,-57.5 1112.5,-57.5 1112.5,-38.5 1009.5,-38.5"/>
<text text-anchor="middle" x="1061" y="-45.5" font-family="Helvetica,sans-Serif" font-size="10.00">DateTimeStrFormat</text>
</a>
</g>
</g>
<!-- Node18&#45;&gt;Node19 -->
<g id="edge20" class="edge"><title>Node18&#45;&gt;Node19</title>
<path fill="none" stroke="midnightblue" d="M942.915,-48C960.44,-48 980.647,-48 999.289,-48"/>
<polygon fill="midnightblue" stroke="midnightblue" points="999.457,-51.5001 1009.46,-48 999.457,-44.5001 999.457,-51.5001"/>
</g>
<!-- Node20 -->
<g id="node21" class="node"><title>Node20</title>
<g id="a_node21"><a xlink:href="../../d6/d3c/utiltime_8cpp.html#a474bed4c01c8a1d18330dceccf865e1e" target="_top" xlink:title="Return a time useful for the debug log. ">
<polygon fill="white" stroke="black" points="1011.5,-0.5 1011.5,-19.5 1110.5,-19.5 1110.5,-0.5 1011.5,-0.5"/>
<text text-anchor="middle" x="1061" y="-7.5" font-family="Helvetica,sans-Serif" font-size="10.00">GetLogTimeMicros</text>
</a>
</g>
</g>
<!-- Node18&#45;&gt;Node20 -->
<g id="edge21" class="edge"><title>Node18&#45;&gt;Node20</title>
<path fill="none" stroke="midnightblue" d="M937.758,-38.411C959.431,-33.3739 986.183,-27.1562 1009.13,-21.8229"/>
<polygon fill="midnightblue" stroke="midnightblue" points="1010.09,-25.1931 1019.04,-19.5201 1008.51,-18.3748 1010.09,-25.1931"/>
</g>
<!-- Node21 -->
<g id="node22" class="node"><title>Node21</title>
<g id="a_node22"><a xlink:href="../../d6/d3c/utiltime_8cpp.html#a0c5a06b50cd805b1923552114494c029" target="_top" xlink:title="GetTimeMicros">
<polygon fill="white" stroke="black" points="1170,-0.5 1170,-19.5 1253,-19.5 1253,-0.5 1170,-0.5"/>
<text text-anchor="middle" x="1211.5" y="-7.5" font-family="Helvetica,sans-Serif" font-size="10.00">GetTimeMicros</text>
</a>
</g>
</g>
<!-- Node20&#45;&gt;Node21 -->
<g id="edge22" class="edge"><title>Node20&#45;&gt;Node21</title>
<path fill="none" stroke="midnightblue" d="M1110.62,-10C1126.31,-10 1143.73,-10 1159.57,-10"/>
<polygon fill="midnightblue" stroke="midnightblue" points="1159.72,-13.5001 1169.72,-10 1159.72,-6.5001 1159.72,-13.5001"/>
</g>
<!-- Node23 -->
<g id="node24" class="node"><title>Node23</title>
<g id="a_node24"><a xlink:href="../../dc/d54/common_8h.html#ab23d5d245f265908700af234252b751f" target="_top" xlink:title="WriteLE32">
<polygon fill="white" stroke="black" points="391,-247.5 391,-266.5 453,-266.5 453,-247.5 391,-247.5"/>
<text text-anchor="middle" x="422" y="-254.5" font-family="Helvetica,sans-Serif" font-size="10.00">WriteLE32</text>
</a>
</g>
</g>
<!-- Node22&#45;&gt;Node23 -->
<g id="edge24" class="edge"><title>Node22&#45;&gt;Node23</title>
<path fill="none" stroke="midnightblue" d="M334.057,-253.719C350.033,-254.322 366.414,-254.94 380.588,-255.475"/>
<polygon fill="midnightblue" stroke="midnightblue" points="380.828,-258.986 390.953,-255.866 381.092,-251.991 380.828,-258.986"/>
</g>
<!-- Node25 -->
<g id="node26" class="node"><title>Node25</title>
<g id="a_node26"><a xlink:href="../../d9/d4c/zmqpublishnotifier_8cpp.html#aca291c0d70711eeb6e943cdb95ca4605" target="_top" xlink:title="zmq_send_multipart">
<polygon fill="white" stroke="black" points="370,-209.5 370,-228.5 474,-228.5 474,-209.5 370,-209.5"/>
<text text-anchor="middle" x="422" y="-216.5" font-family="Helvetica,sans-Serif" font-size="10.00">zmq_send_multipart</text>
</a>
</g>
</g>
<!-- Node22&#45;&gt;Node25 -->
<g id="edge26" class="edge"><title>Node22&#45;&gt;Node25</title>
<path fill="none" stroke="midnightblue" d="M334.057,-236.498C344.058,-234.485 354.218,-232.44 363.895,-230.493"/>
<polygon fill="midnightblue" stroke="midnightblue" points="364.666,-233.908 373.779,-228.504 363.285,-227.045 364.666,-233.908"/>
</g>
<!-- Node24 -->
<g id="node25" class="node"><title>Node24</title>
<g id="a_node25"><a xlink:href="../../d1/d84/endian_8h.html#abab10181b2a9a38233ca246e1a653b5e" target="_top" xlink:title="htole32">
<polygon fill="white" stroke="black" points="514,-247.5 514,-266.5 562,-266.5 562,-247.5 514,-247.5"/>
<text text-anchor="middle" x="538" y="-254.5" font-family="Helvetica,sans-Serif" font-size="10.00">htole32</text>
</a>
</g>
</g>
<!-- Node23&#45;&gt;Node24 -->
<g id="edge25" class="edge"><title>Node23&#45;&gt;Node24</title>
<path fill="none" stroke="midnightblue" d="M453.251,-257C468.686,-257 487.506,-257 503.392,-257"/>
<polygon fill="midnightblue" stroke="midnightblue" points="503.845,-260.5 513.845,-257 503.845,-253.5 503.845,-260.5"/>
</g>
<!-- Node26 -->
<g id="node27" class="node"><title>Node26</title>
<g id="a_node27"><a xlink:href="../../d5/d9f/glibc__compat_8cpp.html#a0f46826ab0466591e136db24394923cf" target="_top" xlink:title="memcpy">
<polygon fill="white" stroke="black" points="511,-171.5 511,-190.5 565,-190.5 565,-171.5 511,-171.5"/>
<text text-anchor="middle" x="538" y="-178.5" font-family="Helvetica,sans-Serif" font-size="10.00">memcpy</text>
</a>
</g>
</g>
<!-- Node25&#45;&gt;Node26 -->
<g id="edge27" class="edge"><title>Node25&#45;&gt;Node26</title>
<path fill="none" stroke="midnightblue" d="M451.767,-209.411C466.843,-204.386 485.444,-198.185 501.419,-192.86"/>
<polygon fill="midnightblue" stroke="midnightblue" points="502.591,-196.159 510.971,-189.676 500.377,-189.518 502.591,-196.159"/>
</g>
<!-- Node28 -->
<g id="node29" class="node"><title>Node28</title>
<g id="a_node29"><a xlink:href="../../d8/dbb/zmqconfig_8h.html#a9c02cc6f228cd34521a310534ec2d5ba" target="_top" xlink:title="zmqError">
<polygon fill="white" stroke="black" points="510,-209.5 510,-228.5 566,-228.5 566,-209.5 510,-209.5"/>
<text text-anchor="middle" x="538" y="-216.5" font-family="Helvetica,sans-Serif" font-size="10.00">zmqError</text>
</a>
</g>
</g>
<!-- Node25&#45;&gt;Node28 -->
<g id="edge29" class="edge"><title>Node25&#45;&gt;Node28</title>
<path fill="none" stroke="midnightblue" d="M474.331,-219C482.878,-219 491.597,-219 499.708,-219"/>
<polygon fill="midnightblue" stroke="midnightblue" points="499.957,-222.5 509.956,-219 499.956,-215.5 499.957,-222.5"/>
</g>
<!-- Node27 -->
<g id="node28" class="node"><title>Node27</title>
<g id="a_node28"><a xlink:href="../../d5/d9f/glibc__compat_8cpp.html#a9778d49e9029dd75bc53ecbbf9f5e9a1" target="_top" xlink:title="memmove">
<polygon fill="white" stroke="black" points="602,-171.5 602,-190.5 664,-190.5 664,-171.5 602,-171.5"/>
<text text-anchor="middle" x="633" y="-178.5" font-family="Helvetica,sans-Serif" font-size="10.00">memmove</text>
</a>
</g>
</g>
<!-- Node26&#45;&gt;Node27 -->
<g id="edge28" class="edge"><title>Node26&#45;&gt;Node27</title>
<path fill="none" stroke="midnightblue" d="M565.401,-181C573.584,-181 582.795,-181 591.697,-181"/>
<polygon fill="midnightblue" stroke="midnightblue" points="591.926,-184.5 601.926,-181 591.926,-177.5 591.926,-184.5"/>
</g>
<!-- Node28&#45;&gt;Node4 -->
<g id="edge30" class="edge"><title>Node28&#45;&gt;Node4</title>
<path fill="none" stroke="midnightblue" d="M562.468,-228.589C573.592,-233.134 587.069,-238.641 599.185,-243.592"/>
<polygon fill="midnightblue" stroke="midnightblue" points="597.959,-246.872 608.54,-247.414 600.606,-240.392 597.959,-246.872"/>
</g>
</g>
</svg>
