<?xml version="1.0" encoding="UTF-8" standalone="no"?>
<!DOCTYPE svg PUBLIC "-//W3C//DTD SVG 1.1//EN"
 "http://www.w3.org/Graphics/SVG/1.1/DTD/svg11.dtd">
<!-- Generated by graphviz version 2.38.0 (20140413.2041)
 -->
<!-- Title: src/qt/paymentserver.cpp Pages: 1 -->
<svg width="3501pt" height="364pt"
 viewBox="0.00 0.00 3500.50 364.00" xmlns="http://www.w3.org/2000/svg" xmlns:xlink="http://www.w3.org/1999/xlink">
<g id="graph0" class="graph" transform="scale(1 1) rotate(0) translate(4 360)">
<title>src/qt/paymentserver.cpp</title>
<polygon fill="white" stroke="none" points="-4,4 -4,-360 3496.5,-360 3496.5,4 -4,4"/>
<!-- Node0 -->
<g id="node1" class="node"><title>Node0</title>
<polygon fill="#bfbfbf" stroke="black" points="1918,-336.5 1918,-355.5 2046,-355.5 2046,-336.5 1918,-336.5"/>
<text text-anchor="middle" x="1982" y="-343.5" font-family="Helvetica,sans-Serif" font-size="10.00">src/qt/paymentserver.cpp</text>
</g>
<!-- Node1 -->
<g id="node2" class="node"><title>Node1</title>
<g id="a_node2"><a xlink:href="../../d6/da5/paymentserver_8h.html" target="_top" xlink:title="paymentserver.h">
<polygon fill="white" stroke="black" points="144.5,-280.5 144.5,-299.5 233.5,-299.5 233.5,-280.5 144.5,-280.5"/>
<text text-anchor="middle" x="189" y="-287.5" font-family="Helvetica,sans-Serif" font-size="10.00">paymentserver.h</text>
</a>
</g>
</g>
<!-- Node0&#45;&gt;Node1 -->
<g id="edge1" class="edge"><title>Node0&#45;&gt;Node1</title>
<path fill="none" stroke="midnightblue" d="M1917.92,-343.07C1635.83,-334.574 506.939,-300.575 243.954,-292.655"/>
<polygon fill="midnightblue" stroke="midnightblue" points="243.983,-289.154 233.882,-292.352 243.772,-296.151 243.983,-289.154"/>
</g>
<!-- Node4 -->
<g id="node4" class="node"><title>Node4</title>
<g id="a_node4"><a xlink:href="../../d8/d53/base58_8h.html" target="_top" xlink:title="base58.h">
<polygon fill="white" stroke="red" points="145,-112.5 145,-131.5 201,-131.5 201,-112.5 145,-112.5"/>
<text text-anchor="middle" x="173" y="-119.5" font-family="Helvetica,sans-Serif" font-size="10.00">base58.h</text>
</a>
</g>
</g>
<!-- Node0&#45;&gt;Node4 -->
<g id="edge35" class="edge"><title>Node0&#45;&gt;Node4</title>
<path fill="none" stroke="midnightblue" d="M1917.91,-344.484C1596.13,-341.766 170.772,-328.15 135,-300 88.0108,-263.023 81.4421,-221.065 109,-168 116.153,-154.226 129.671,-143.783 142.447,-136.441"/>
<polygon fill="midnightblue" stroke="midnightblue" points="144.317,-139.412 151.517,-131.64 141.042,-133.225 144.317,-139.412"/>
</g>
<!-- Node5 -->
<g id="node5" class="node"><title>Node5</title>
<g id="a_node5"><a xlink:href="../../d7/ddb/chainparams_8h.html" target="_top" xlink:title="chainparams.h">
<polygon fill="white" stroke="red" points="0,-56.5 0,-75.5 80,-75.5 80,-56.5 0,-56.5"/>
<text text-anchor="middle" x="40" y="-63.5" font-family="Helvetica,sans-Serif" font-size="10.00">chainparams.h</text>
</a>
</g>
</g>
<!-- Node0&#45;&gt;Node5 -->
<g id="edge36" class="edge"><title>Node0&#45;&gt;Node5</title>
<path fill="none" stroke="midnightblue" d="M1917.76,-344.415C1599.02,-341.393 199.156,-326.643 111,-300 59.1837,-284.34 8,-289.131 8,-235 8,-235 8,-235 8,-177 8,-143.329 21.9948,-106.085 31.4745,-84.7194"/>
<polygon fill="midnightblue" stroke="midnightblue" points="34.6744,-86.1383 35.6843,-75.5917 28.3179,-83.2065 34.6744,-86.1383"/>
</g>
<!-- Node82 -->
<g id="node9" class="node"><title>Node82</title>
<polygon fill="white" stroke="#bfbfbf" points="1042,-112.5 1042,-131.5 1110,-131.5 1110,-112.5 1042,-112.5"/>
<text text-anchor="middle" x="1076" y="-119.5" font-family="Helvetica,sans-Serif" font-size="10.00">QByteArray</text>
</g>
<!-- Node0&#45;&gt;Node82 -->
<g id="edge48" class="edge"><title>Node0&#45;&gt;Node82</title>
<path fill="none" stroke="midnightblue" d="M1917.55,-342.395C1787.83,-336.716 1504.34,-321.95 1466,-300 1430.04,-279.411 1445.66,-248.161 1412,-224 1321.39,-158.969 1188.51,-135.295 1120.18,-127.086"/>
<polygon fill="midnightblue" stroke="midnightblue" points="1120.51,-123.601 1110.18,-125.94 1119.72,-130.556 1120.51,-123.601"/>
</g>
<!-- Node83 -->
<g id="node10" class="node"><title>Node83</title>
<polygon fill="white" stroke="#bfbfbf" points="1312,-112.5 1312,-131.5 1352,-131.5 1352,-112.5 1312,-112.5"/>
<text text-anchor="middle" x="1332" y="-119.5" font-family="Helvetica,sans-Serif" font-size="10.00">QList</text>
</g>
<!-- Node0&#45;&gt;Node83 -->
<g id="edge55" class="edge"><title>Node0&#45;&gt;Node83</title>
<path fill="none" stroke="midnightblue" d="M1917.64,-343.073C1791.22,-338.727 1519.88,-326.411 1487,-300 1439,-261.447 1486.96,-213.049 1445,-168 1423.12,-144.506 1387.36,-133.045 1361.94,-127.612"/>
<polygon fill="midnightblue" stroke="midnightblue" points="1362.56,-124.168 1352.08,-125.694 1361.23,-131.04 1362.56,-124.168"/>
</g>
<!-- Node88 -->
<g id="node14" class="node"><title>Node88</title>
<g id="a_node14"><a xlink:href="../../de/d15/bitcoinunits_8h.html" target="_top" xlink:title="bitcoinunits.h">
<polygon fill="white" stroke="black" points="1051,-280.5 1051,-299.5 1125,-299.5 1125,-280.5 1051,-280.5"/>
<text text-anchor="middle" x="1088" y="-287.5" font-family="Helvetica,sans-Serif" font-size="10.00">bitcoinunits.h</text>
</a>
</g>
</g>
<!-- Node0&#45;&gt;Node88 -->
<g id="edge17" class="edge"><title>Node0&#45;&gt;Node88</title>
<path fill="none" stroke="midnightblue" d="M1917.99,-344.567C1777.94,-342.979 1433.74,-335.581 1135.28,-299.822"/>
<polygon fill="midnightblue" stroke="midnightblue" points="1135.48,-296.321 1125.13,-298.593 1134.63,-303.27 1135.48,-296.321"/>
</g>
<!-- Node90 -->
<g id="node17" class="node"><title>Node90</title>
<g id="a_node17"><a xlink:href="../../d6/d23/guiutil_8h.html" target="_top" xlink:title="guiutil.h">
<polygon fill="white" stroke="black" points="691,-280.5 691,-299.5 741,-299.5 741,-280.5 691,-280.5"/>
<text text-anchor="middle" x="716" y="-287.5" font-family="Helvetica,sans-Serif" font-size="10.00">guiutil.h</text>
</a>
</g>
</g>
<!-- Node0&#45;&gt;Node90 -->
<g id="edge21" class="edge"><title>Node0&#45;&gt;Node90</title>
<path fill="none" stroke="midnightblue" d="M1917.92,-342.267C1690.21,-332.554 924.515,-299.894 751.114,-292.498"/>
<polygon fill="midnightblue" stroke="midnightblue" points="751.152,-288.996 741.012,-292.067 750.853,-295.99 751.152,-288.996"/>
</g>
<!-- Node98 -->
<g id="node25" class="node"><title>Node98</title>
<g id="a_node25"><a xlink:href="../../d4/dd7/optionsmodel_8h.html" target="_top" xlink:title="optionsmodel.h">
<polygon fill="white" stroke="black" points="1144.5,-280.5 1144.5,-299.5 1227.5,-299.5 1227.5,-280.5 1144.5,-280.5"/>
<text text-anchor="middle" x="1186" y="-287.5" font-family="Helvetica,sans-Serif" font-size="10.00">optionsmodel.h</text>
</a>
</g>
</g>
<!-- Node0&#45;&gt;Node98 -->
<g id="edge32" class="edge"><title>Node0&#45;&gt;Node98</title>
<path fill="none" stroke="midnightblue" d="M1917.5,-343.585C1789.78,-340.243 1495.5,-329.862 1237.99,-299.966"/>
<polygon fill="midnightblue" stroke="midnightblue" points="1238.03,-296.447 1227.69,-298.757 1237.22,-303.399 1238.03,-296.447"/>
</g>
<!-- Node99 -->
<g id="node26" class="node"><title>Node99</title>
<polygon fill="white" stroke="#bfbfbf" points="1496,-280.5 1496,-299.5 1562,-299.5 1562,-280.5 1496,-280.5"/>
<text text-anchor="middle" x="1529" y="-287.5" font-family="Helvetica,sans-Serif" font-size="10.00">validation.h</text>
</g>
<!-- Node0&#45;&gt;Node99 -->
<g id="edge37" class="edge"><title>Node0&#45;&gt;Node99</title>
<path fill="none" stroke="midnightblue" d="M1917.83,-339.897C1838.96,-333.192 1700.87,-320.047 1572.3,-299.887"/>
<polygon fill="midnightblue" stroke="midnightblue" points="1572.7,-296.407 1562.28,-298.297 1571.6,-303.32 1572.7,-296.407"/>
</g>
<!-- Node100 -->
<g id="node27" class="node"><title>Node100</title>
<g id="a_node27"><a xlink:href="../../d9/d6d/ui__interface_8h.html" target="_top" xlink:title="ui_interface.h">
<polygon fill="white" stroke="red" points="1271.5,-224.5 1271.5,-243.5 1346.5,-243.5 1346.5,-224.5 1271.5,-224.5"/>
<text text-anchor="middle" x="1309" y="-231.5" font-family="Helvetica,sans-Serif" font-size="10.00">ui_interface.h</text>
</a>
</g>
</g>
<!-- Node0&#45;&gt;Node100 -->
<g id="edge38" class="edge"><title>Node0&#45;&gt;Node100</title>
<path fill="none" stroke="midnightblue" d="M1917.96,-344.56C1786.39,-342.931 1490.09,-335.325 1396,-300 1367.74,-289.391 1340.8,-266.63 1324.58,-251.066"/>
<polygon fill="midnightblue" stroke="midnightblue" points="1326.7,-248.234 1317.13,-243.685 1321.77,-253.208 1326.7,-248.234"/>
</g>
<!-- Node103 -->
<g id="node28" class="node"><title>Node103</title>
<polygon fill="white" stroke="#bfbfbf" points="1365,-224.5 1365,-243.5 1403,-243.5 1403,-224.5 1365,-224.5"/>
<text text-anchor="middle" x="1384" y="-231.5" font-family="Helvetica,sans-Serif" font-size="10.00">util.h</text>
</g>
<!-- Node0&#45;&gt;Node103 -->
<g id="edge39" class="edge"><title>Node0&#45;&gt;Node103</title>
<path fill="none" stroke="midnightblue" d="M1917.93,-343.441C1778.49,-339.546 1456.73,-327.645 1416,-300 1400.26,-289.314 1391.94,-268.558 1387.78,-253.366"/>
<polygon fill="midnightblue" stroke="midnightblue" points="1391.15,-252.428 1385.43,-243.511 1384.34,-254.05 1391.15,-252.428"/>
</g>
<!-- Node104 -->
<g id="node29" class="node"><title>Node104</title>
<g id="a_node29"><a xlink:href="../../d0/df4/wallet_8h.html" target="_top" xlink:title="wallet/wallet.h">
<polygon fill="white" stroke="red" points="1246.5,-280.5 1246.5,-299.5 1325.5,-299.5 1325.5,-280.5 1246.5,-280.5"/>
<text text-anchor="middle" x="1286" y="-287.5" font-family="Helvetica,sans-Serif" font-size="10.00">wallet/wallet.h</text>
</a>
</g>
</g>
<!-- Node0&#45;&gt;Node104 -->
<g id="edge40" class="edge"><title>Node0&#45;&gt;Node104</title>
<path fill="none" stroke="midnightblue" d="M1917.57,-342.515C1801.69,-337.594 1550.55,-324.867 1340,-300 1338.7,-299.846 1337.38,-299.683 1336.05,-299.512"/>
<polygon fill="midnightblue" stroke="midnightblue" points="1336.14,-295.99 1325.75,-298.066 1335.17,-302.922 1336.14,-295.99"/>
</g>
<!-- Node133 -->
<g id="node30" class="node"><title>Node133</title>
<polygon fill="white" stroke="#bfbfbf" points="1580.5,-280.5 1580.5,-299.5 1625.5,-299.5 1625.5,-280.5 1580.5,-280.5"/>
<text text-anchor="middle" x="1603" y="-287.5" font-family="Helvetica,sans-Serif" font-size="10.00">cstdlib</text>
</g>
<!-- Node0&#45;&gt;Node133 -->
<g id="edge45" class="edge"><title>Node0&#45;&gt;Node133</title>
<path fill="none" stroke="midnightblue" d="M1917.9,-339.5C1850.1,-333.051 1739.91,-320.774 1635.69,-299.854"/>
<polygon fill="midnightblue" stroke="midnightblue" points="1636.12,-296.37 1625.63,-297.802 1634.73,-303.229 1636.12,-296.37"/>
</g>
<!-- Node134 -->
<g id="node31" class="node"><title>Node134</title>
<polygon fill="white" stroke="#bfbfbf" points="1643.5,-280.5 1643.5,-299.5 1744.5,-299.5 1744.5,-280.5 1643.5,-280.5"/>
<text text-anchor="middle" x="1694" y="-287.5" font-family="Helvetica,sans-Serif" font-size="10.00">openssl/x509_vfy.h</text>
</g>
<!-- Node0&#45;&gt;Node134 -->
<g id="edge46" class="edge"><title>Node0&#45;&gt;Node134</title>
<path fill="none" stroke="midnightblue" d="M1936.37,-336.444C1885.7,-326.944 1803.93,-311.611 1749.57,-301.42"/>
<polygon fill="midnightblue" stroke="midnightblue" points="1749.89,-297.919 1739.42,-299.516 1748.6,-304.799 1749.89,-297.919"/>
</g>
<!-- Node135 -->
<g id="node32" class="node"><title>Node135</title>
<polygon fill="white" stroke="#bfbfbf" points="1763,-280.5 1763,-299.5 1835,-299.5 1835,-280.5 1763,-280.5"/>
<text text-anchor="middle" x="1799" y="-287.5" font-family="Helvetica,sans-Serif" font-size="10.00">QApplication</text>
</g>
<!-- Node0&#45;&gt;Node135 -->
<g id="edge47" class="edge"><title>Node0&#45;&gt;Node135</title>
<path fill="none" stroke="midnightblue" d="M1953,-336.444C1921.82,-327.241 1872.07,-312.562 1837.59,-302.388"/>
<polygon fill="midnightblue" stroke="midnightblue" points="1838.44,-298.99 1827.86,-299.516 1836.46,-305.704 1838.44,-298.99"/>
</g>
<!-- Node136 -->
<g id="node33" class="node"><title>Node136</title>
<polygon fill="white" stroke="#bfbfbf" points="1853.5,-280.5 1853.5,-299.5 1930.5,-299.5 1930.5,-280.5 1853.5,-280.5"/>
<text text-anchor="middle" x="1892" y="-287.5" font-family="Helvetica,sans-Serif" font-size="10.00">QDataStream</text>
</g>
<!-- Node0&#45;&gt;Node136 -->
<g id="edge49" class="edge"><title>Node0&#45;&gt;Node136</title>
<path fill="none" stroke="midnightblue" d="M1967.54,-336.324C1953.5,-327.9 1931.95,-314.971 1915.46,-305.074"/>
<polygon fill="midnightblue" stroke="midnightblue" points="1916.8,-301.798 1906.42,-299.655 1913.2,-307.801 1916.8,-301.798"/>
</g>
<!-- Node137 -->
<g id="node34" class="node"><title>Node137</title>
<polygon fill="white" stroke="#bfbfbf" points="1948.5,-280.5 1948.5,-299.5 2015.5,-299.5 2015.5,-280.5 1948.5,-280.5"/>
<text text-anchor="middle" x="1982" y="-287.5" font-family="Helvetica,sans-Serif" font-size="10.00">QDateTime</text>
</g>
<!-- Node0&#45;&gt;Node137 -->
<g id="edge50" class="edge"><title>Node0&#45;&gt;Node137</title>
<path fill="none" stroke="midnightblue" d="M1982,-336.083C1982,-329.006 1982,-318.861 1982,-309.986"/>
<polygon fill="midnightblue" stroke="midnightblue" points="1985.5,-309.751 1982,-299.751 1978.5,-309.751 1985.5,-309.751"/>
</g>
<!-- Node138 -->
<g id="node35" class="node"><title>Node138</title>
<polygon fill="white" stroke="#bfbfbf" points="2033.5,-280.5 2033.5,-299.5 2086.5,-299.5 2086.5,-280.5 2033.5,-280.5"/>
<text text-anchor="middle" x="2060" y="-287.5" font-family="Helvetica,sans-Serif" font-size="10.00">QDebug</text>
</g>
<!-- Node0&#45;&gt;Node138 -->
<g id="edge51" class="edge"><title>Node0&#45;&gt;Node138</title>
<path fill="none" stroke="midnightblue" d="M1994.53,-336.324C2006.59,-327.979 2025.03,-315.212 2039.27,-305.352"/>
<polygon fill="midnightblue" stroke="midnightblue" points="2041.27,-308.224 2047.5,-299.655 2037.28,-302.469 2041.27,-308.224"/>
</g>
<!-- Node139 -->
<g id="node36" class="node"><title>Node139</title>
<polygon fill="white" stroke="#bfbfbf" points="2105,-280.5 2105,-299.5 2145,-299.5 2145,-280.5 2105,-280.5"/>
<text text-anchor="middle" x="2125" y="-287.5" font-family="Helvetica,sans-Serif" font-size="10.00">QFile</text>
</g>
<!-- Node0&#45;&gt;Node139 -->
<g id="edge52" class="edge"><title>Node0&#45;&gt;Node139</title>
<path fill="none" stroke="midnightblue" d="M2004.66,-336.444C2029.1,-327.214 2068.13,-312.476 2095.08,-302.299"/>
<polygon fill="midnightblue" stroke="midnightblue" points="2096.64,-305.45 2104.76,-298.643 2094.17,-298.902 2096.64,-305.45"/>
</g>
<!-- Node140 -->
<g id="node37" class="node"><title>Node140</title>
<polygon fill="white" stroke="#bfbfbf" points="2163.5,-280.5 2163.5,-299.5 2252.5,-299.5 2252.5,-280.5 2163.5,-280.5"/>
<text text-anchor="middle" x="2208" y="-287.5" font-family="Helvetica,sans-Serif" font-size="10.00">QFileOpenEvent</text>
</g>
<!-- Node0&#45;&gt;Node140 -->
<g id="edge53" class="edge"><title>Node0&#45;&gt;Node140</title>
<path fill="none" stroke="midnightblue" d="M2017.81,-336.444C2056.99,-327.083 2119.88,-312.056 2162.52,-301.868"/>
<polygon fill="midnightblue" stroke="midnightblue" points="2163.44,-305.245 2172.36,-299.516 2161.82,-298.436 2163.44,-305.245"/>
</g>
<!-- Node141 -->
<g id="node38" class="node"><title>Node141</title>
<polygon fill="white" stroke="#bfbfbf" points="2270.5,-280.5 2270.5,-299.5 2317.5,-299.5 2317.5,-280.5 2270.5,-280.5"/>
<text text-anchor="middle" x="2294" y="-287.5" font-family="Helvetica,sans-Serif" font-size="10.00">QHash</text>
</g>
<!-- Node0&#45;&gt;Node141 -->
<g id="edge54" class="edge"><title>Node0&#45;&gt;Node141</title>
<path fill="none" stroke="midnightblue" d="M2046.06,-336.838C2100.73,-329.387 2181.59,-317.223 2260.23,-300.2"/>
<polygon fill="midnightblue" stroke="midnightblue" points="2261.29,-303.551 2270.31,-297.99 2259.79,-296.714 2261.29,-303.551"/>
</g>
<!-- Node142 -->
<g id="node39" class="node"><title>Node142</title>
<polygon fill="white" stroke="#bfbfbf" points="2336,-280.5 2336,-299.5 2412,-299.5 2412,-280.5 2336,-280.5"/>
<text text-anchor="middle" x="2374" y="-287.5" font-family="Helvetica,sans-Serif" font-size="10.00">QLocalServer</text>
</g>
<!-- Node0&#45;&gt;Node142 -->
<g id="edge56" class="edge"><title>Node0&#45;&gt;Node142</title>
<path fill="none" stroke="midnightblue" d="M2046.07,-337.799C2113.29,-329.982 2222.27,-316.575 2325.81,-300.112"/>
<polygon fill="midnightblue" stroke="midnightblue" points="2326.49,-303.547 2335.81,-298.509 2325.39,-296.636 2326.49,-303.547"/>
</g>
<!-- Node143 -->
<g id="node40" class="node"><title>Node143</title>
<polygon fill="white" stroke="#bfbfbf" points="2430,-280.5 2430,-299.5 2508,-299.5 2508,-280.5 2430,-280.5"/>
<text text-anchor="middle" x="2469" y="-287.5" font-family="Helvetica,sans-Serif" font-size="10.00">QLocalSocket</text>
</g>
<!-- Node0&#45;&gt;Node143 -->
<g id="edge57" class="edge"><title>Node0&#45;&gt;Node143</title>
<path fill="none" stroke="midnightblue" d="M2046.18,-340.104C2129.88,-333.345 2281.01,-319.858 2419.78,-300.07"/>
<polygon fill="midnightblue" stroke="midnightblue" points="2420.35,-303.524 2429.75,-298.634 2419.35,-296.595 2420.35,-303.524"/>
</g>
<!-- Node144 -->
<g id="node41" class="node"><title>Node144</title>
<polygon fill="white" stroke="#bfbfbf" points="2526.5,-280.5 2526.5,-299.5 2657.5,-299.5 2657.5,-280.5 2526.5,-280.5"/>
<text text-anchor="middle" x="2592" y="-287.5" font-family="Helvetica,sans-Serif" font-size="10.00">QNetworkAccessManager</text>
</g>
<!-- Node0&#45;&gt;Node144 -->
<g id="edge58" class="edge"><title>Node0&#45;&gt;Node144</title>
<path fill="none" stroke="midnightblue" d="M2046.3,-340.333C2144.97,-333.007 2339.9,-317.887 2516.19,-300.049"/>
<polygon fill="midnightblue" stroke="midnightblue" points="2516.57,-303.528 2526.16,-299.034 2515.86,-296.564 2516.57,-303.528"/>
</g>
<!-- Node145 -->
<g id="node42" class="node"><title>Node145</title>
<polygon fill="white" stroke="#bfbfbf" points="2676,-280.5 2676,-299.5 2762,-299.5 2762,-280.5 2676,-280.5"/>
<text text-anchor="middle" x="2719" y="-287.5" font-family="Helvetica,sans-Serif" font-size="10.00">QNetworkProxy</text>
</g>
<!-- Node0&#45;&gt;Node145 -->
<g id="edge59" class="edge"><title>Node0&#45;&gt;Node145</title>
<path fill="none" stroke="midnightblue" d="M2046.43,-343.041C2166.35,-338.897 2432.11,-327.382 2665.87,-300.007"/>
<polygon fill="midnightblue" stroke="midnightblue" points="2666.4,-303.468 2675.92,-298.817 2665.58,-296.517 2666.4,-303.468"/>
</g>
<!-- Node146 -->
<g id="node43" class="node"><title>Node146</title>
<polygon fill="white" stroke="#bfbfbf" points="2780,-280.5 2780,-299.5 2866,-299.5 2866,-280.5 2780,-280.5"/>
<text text-anchor="middle" x="2823" y="-287.5" font-family="Helvetica,sans-Serif" font-size="10.00">QNetworkReply</text>
</g>
<!-- Node0&#45;&gt;Node146 -->
<g id="edge60" class="edge"><title>Node0&#45;&gt;Node146</title>
<path fill="none" stroke="midnightblue" d="M2046.13,-343.826C2179.17,-340.853 2494.98,-330.999 2769.76,-300.005"/>
<polygon fill="midnightblue" stroke="midnightblue" points="2770.39,-303.456 2779.92,-298.846 2769.59,-296.501 2770.39,-303.456"/>
</g>
<!-- Node147 -->
<g id="node44" class="node"><title>Node147</title>
<polygon fill="white" stroke="#bfbfbf" points="2884,-280.5 2884,-299.5 2982,-299.5 2982,-280.5 2884,-280.5"/>
<text text-anchor="middle" x="2933" y="-287.5" font-family="Helvetica,sans-Serif" font-size="10.00">QNetworkRequest</text>
</g>
<!-- Node0&#45;&gt;Node147 -->
<g id="edge61" class="edge"><title>Node0&#45;&gt;Node147</title>
<path fill="none" stroke="midnightblue" d="M2046.06,-344.047C2191.4,-341.393 2557.41,-331.943 2873.71,-300.017"/>
<polygon fill="midnightblue" stroke="midnightblue" points="2874.4,-303.465 2884,-298.969 2873.7,-296.501 2874.4,-303.465"/>
</g>
<!-- Node148 -->
<g id="node45" class="node"><title>Node148</title>
<polygon fill="white" stroke="#bfbfbf" points="3000.5,-280.5 3000.5,-299.5 3083.5,-299.5 3083.5,-280.5 3000.5,-280.5"/>
<text text-anchor="middle" x="3042" y="-287.5" font-family="Helvetica,sans-Serif" font-size="10.00">QSslCertificate</text>
</g>
<!-- Node0&#45;&gt;Node148 -->
<g id="edge62" class="edge"><title>Node0&#45;&gt;Node148</title>
<path fill="none" stroke="midnightblue" d="M2046.26,-345.027C2204.87,-344.472 2627.71,-339.209 2990.15,-299.924"/>
<polygon fill="midnightblue" stroke="midnightblue" points="2990.76,-303.379 3000.32,-298.811 2989.99,-296.42 2990.76,-303.379"/>
</g>
<!-- Node149 -->
<g id="node46" class="node"><title>Node149</title>
<polygon fill="white" stroke="#bfbfbf" points="3101.5,-280.5 3101.5,-299.5 3160.5,-299.5 3160.5,-280.5 3101.5,-280.5"/>
<text text-anchor="middle" x="3131" y="-287.5" font-family="Helvetica,sans-Serif" font-size="10.00">QSslError</text>
</g>
<!-- Node0&#45;&gt;Node149 -->
<g id="edge63" class="edge"><title>Node0&#45;&gt;Node149</title>
<path fill="none" stroke="midnightblue" d="M2046.09,-344.022C2247.89,-340.691 2869.4,-328.456 3091.29,-299.947"/>
<polygon fill="midnightblue" stroke="midnightblue" points="3091.78,-303.412 3101.23,-298.621 3090.86,-296.474 3091.78,-303.412"/>
</g>
<!-- Node150 -->
<g id="node47" class="node"><title>Node150</title>
<polygon fill="white" stroke="#bfbfbf" points="3178.5,-280.5 3178.5,-299.5 3247.5,-299.5 3247.5,-280.5 3178.5,-280.5"/>
<text text-anchor="middle" x="3213" y="-287.5" font-family="Helvetica,sans-Serif" font-size="10.00">QSslSocket</text>
</g>
<!-- Node0&#45;&gt;Node150 -->
<g id="edge64" class="edge"><title>Node0&#45;&gt;Node150</title>
<path fill="none" stroke="midnightblue" d="M2046.34,-343.993C2257.68,-340.462 2930.23,-327.415 3168.36,-299.967"/>
<polygon fill="midnightblue" stroke="midnightblue" points="3168.83,-303.435 3178.35,-298.775 3168.01,-296.484 3168.83,-303.435"/>
</g>
<!-- Node151 -->
<g id="node48" class="node"><title>Node151</title>
<polygon fill="white" stroke="#bfbfbf" points="3265.5,-280.5 3265.5,-299.5 3330.5,-299.5 3330.5,-280.5 3265.5,-280.5"/>
<text text-anchor="middle" x="3298" y="-287.5" font-family="Helvetica,sans-Serif" font-size="10.00">QStringList</text>
</g>
<!-- Node0&#45;&gt;Node151 -->
<g id="edge65" class="edge"><title>Node0&#45;&gt;Node151</title>
<path fill="none" stroke="midnightblue" d="M2046.32,-344.268C2267.87,-341.509 2999.35,-330.371 3255.41,-299.939"/>
<polygon fill="midnightblue" stroke="midnightblue" points="3255.92,-303.403 3265.42,-298.709 3255.07,-296.455 3255.92,-303.403"/>
</g>
<!-- Node152 -->
<g id="node49" class="node"><title>Node152</title>
<polygon fill="white" stroke="#bfbfbf" points="3348.5,-280.5 3348.5,-299.5 3437.5,-299.5 3437.5,-280.5 3348.5,-280.5"/>
<text text-anchor="middle" x="3393" y="-287.5" font-family="Helvetica,sans-Serif" font-size="10.00">QTextDocument</text>
</g>
<!-- Node0&#45;&gt;Node152 -->
<g id="edge66" class="edge"><title>Node0&#45;&gt;Node152</title>
<path fill="none" stroke="midnightblue" d="M2046.37,-344.021C2277.24,-340.334 3064,-326.191 3337.93,-300.052"/>
<polygon fill="midnightblue" stroke="midnightblue" points="3338.63,-303.5 3348.24,-299.038 3337.94,-296.534 3338.63,-303.5"/>
</g>
<!-- Node153 -->
<g id="node50" class="node"><title>Node153</title>
<polygon fill="white" stroke="#bfbfbf" points="3455.5,-280.5 3455.5,-299.5 3492.5,-299.5 3492.5,-280.5 3455.5,-280.5"/>
<text text-anchor="middle" x="3474" y="-287.5" font-family="Helvetica,sans-Serif" font-size="10.00">QUrl</text>
</g>
<!-- Node0&#45;&gt;Node153 -->
<g id="edge67" class="edge"><title>Node0&#45;&gt;Node153</title>
<path fill="none" stroke="midnightblue" d="M2046.19,-344.127C2305.19,-340.459 3267.51,-325.368 3445.18,-299.638"/>
<polygon fill="midnightblue" stroke="midnightblue" points="3445.98,-303.055 3455.3,-298.008 3444.87,-296.144 3445.98,-303.055"/>
</g>
<!-- Node2 -->
<g id="node3" class="node"><title>Node2</title>
<g id="a_node3"><a xlink:href="../../dc/d09/paymentrequestplus_8h.html" target="_top" xlink:title="paymentrequestplus.h">
<polygon fill="white" stroke="red" points="132.5,-168.5 132.5,-187.5 245.5,-187.5 245.5,-168.5 132.5,-168.5"/>
<text text-anchor="middle" x="189" y="-175.5" font-family="Helvetica,sans-Serif" font-size="10.00">paymentrequestplus.h</text>
</a>
</g>
</g>
<!-- Node1&#45;&gt;Node2 -->
<g id="edge2" class="edge"><title>Node1&#45;&gt;Node2</title>
<path fill="none" stroke="midnightblue" d="M174.694,-280.361C157.255,-268.629 131.241,-246.526 141,-224 146.268,-211.84 156.62,-201.459 166.365,-193.743"/>
<polygon fill="midnightblue" stroke="midnightblue" points="168.644,-196.412 174.63,-187.67 164.499,-190.771 168.644,-196.412"/>
</g>
<!-- Node84 -->
<g id="node11" class="node"><title>Node84</title>
<polygon fill="white" stroke="#bfbfbf" points="606,-112.5 606,-131.5 656,-131.5 656,-112.5 606,-112.5"/>
<text text-anchor="middle" x="631" y="-119.5" font-family="Helvetica,sans-Serif" font-size="10.00">QString</text>
</g>
<!-- Node1&#45;&gt;Node84 -->
<g id="edge16" class="edge"><title>Node1&#45;&gt;Node84</title>
<path fill="none" stroke="midnightblue" d="M173.762,-280.302C161.38,-272.424 144.467,-259.667 135,-244 117.314,-214.733 99.911,-193.225 123,-168 154.856,-133.197 485.842,-125.153 595.747,-123.435"/>
<polygon fill="midnightblue" stroke="midnightblue" points="596.025,-126.931 605.972,-123.284 595.921,-119.932 596.025,-126.931"/>
</g>
<!-- Node85 -->
<g id="node12" class="node"><title>Node85</title>
<g id="a_node12"><a xlink:href="../../d6/d2d/walletmodel_8h.html" target="_top" xlink:title="walletmodel.h">
<polygon fill="white" stroke="red" points="150.5,-224.5 150.5,-243.5 227.5,-243.5 227.5,-224.5 150.5,-224.5"/>
<text text-anchor="middle" x="189" y="-231.5" font-family="Helvetica,sans-Serif" font-size="10.00">walletmodel.h</text>
</a>
</g>
</g>
<!-- Node1&#45;&gt;Node85 -->
<g id="edge12" class="edge"><title>Node1&#45;&gt;Node85</title>
<path fill="none" stroke="midnightblue" d="M189,-280.083C189,-273.006 189,-262.861 189,-253.986"/>
<polygon fill="midnightblue" stroke="midnightblue" points="192.5,-253.751 189,-243.751 185.5,-253.751 192.5,-253.751"/>
</g>
<!-- Node87 -->
<g id="node13" class="node"><title>Node87</title>
<polygon fill="white" stroke="#bfbfbf" points="263.5,-168.5 263.5,-187.5 316.5,-187.5 316.5,-168.5 263.5,-168.5"/>
<text text-anchor="middle" x="290" y="-175.5" font-family="Helvetica,sans-Serif" font-size="10.00">QObject</text>
</g>
<!-- Node1&#45;&gt;Node87 -->
<g id="edge15" class="edge"><title>Node1&#45;&gt;Node87</title>
<path fill="none" stroke="midnightblue" d="M198.672,-280.34C208.399,-271.495 223.677,-257.223 236,-244 250.769,-228.152 266.465,-208.962 277.106,-195.557"/>
<polygon fill="midnightblue" stroke="midnightblue" points="279.874,-197.7 283.308,-187.677 274.373,-193.37 279.874,-197.7"/>
</g>
<!-- Node2&#45;&gt;Node4 -->
<g id="edge3" class="edge"><title>Node2&#45;&gt;Node4</title>
<path fill="none" stroke="midnightblue" d="M186.358,-168.083C184.214,-160.849 181.121,-150.409 178.451,-141.397"/>
<polygon fill="midnightblue" stroke="midnightblue" points="181.79,-140.345 175.593,-131.751 175.078,-142.333 181.79,-140.345"/>
</g>
<!-- Node2&#45;&gt;Node82 -->
<g id="edge9" class="edge"><title>Node2&#45;&gt;Node82</title>
<path fill="none" stroke="midnightblue" d="M245.688,-168.869C248.496,-168.555 251.278,-168.262 254,-168 550.164,-139.439 908.24,-127.571 1031.68,-124.134"/>
<polygon fill="midnightblue" stroke="midnightblue" points="1031.96,-127.628 1041.86,-123.855 1031.77,-120.63 1031.96,-127.628"/>
</g>
<!-- Node2&#45;&gt;Node83 -->
<g id="edge10" class="edge"><title>Node2&#45;&gt;Node83</title>
<path fill="none" stroke="midnightblue" d="M245.684,-168.825C248.493,-168.522 251.277,-168.245 254,-168 637.234,-133.574 734.561,-148.122 1119,-132 1184.01,-129.274 1260.17,-126.048 1301.52,-124.294"/>
<polygon fill="midnightblue" stroke="midnightblue" points="1301.89,-127.781 1311.74,-123.861 1301.6,-120.788 1301.89,-127.781"/>
</g>
<!-- Node2&#45;&gt;Node84 -->
<g id="edge11" class="edge"><title>Node2&#45;&gt;Node84</title>
<path fill="none" stroke="midnightblue" d="M245.712,-169.084C248.514,-168.713 251.288,-168.35 254,-168 379.662,-151.802 529.16,-134.559 595.855,-126.972"/>
<polygon fill="midnightblue" stroke="midnightblue" points="596.291,-130.445 605.832,-125.839 595.501,-123.49 596.291,-130.445"/>
</g>
<!-- Node4&#45;&gt;Node5 -->
<g id="edge4" class="edge"><title>Node4&#45;&gt;Node5</title>
<path fill="none" stroke="midnightblue" d="M151.926,-112.444C129.94,-103.517 95.2657,-89.4387 70.3359,-79.3168"/>
<polygon fill="midnightblue" stroke="midnightblue" points="71.5578,-76.0355 60.9756,-75.5164 68.9244,-82.5213 71.5578,-76.0355"/>
</g>
<!-- Node52 -->
<g id="node6" class="node"><title>Node52</title>
<g id="a_node6"><a xlink:href="../../de/de5/key_8h.html" target="_top" xlink:title="key.h">
<polygon fill="white" stroke="red" points="152.5,-56.5 152.5,-75.5 193.5,-75.5 193.5,-56.5 152.5,-56.5"/>
<text text-anchor="middle" x="173" y="-63.5" font-family="Helvetica,sans-Serif" font-size="10.00">key.h</text>
</a>
</g>
</g>
<!-- Node4&#45;&gt;Node52 -->
<g id="edge5" class="edge"><title>Node4&#45;&gt;Node52</title>
<path fill="none" stroke="midnightblue" d="M173,-112.083C173,-105.006 173,-94.8611 173,-85.9865"/>
<polygon fill="midnightblue" stroke="midnightblue" points="176.5,-85.751 173,-75.7511 169.5,-85.7511 176.5,-85.751"/>
</g>
<!-- Node53 -->
<g id="node7" class="node"><title>Node53</title>
<g id="a_node7"><a xlink:href="../../d4/daf/pubkey_8h.html" target="_top" xlink:title="pubkey.h">
<polygon fill="white" stroke="red" points="120,-0.5 120,-19.5 176,-19.5 176,-0.5 120,-0.5"/>
<text text-anchor="middle" x="148" y="-7.5" font-family="Helvetica,sans-Serif" font-size="10.00">pubkey.h</text>
</a>
</g>
</g>
<!-- Node4&#45;&gt;Node53 -->
<g id="edge7" class="edge"><title>Node4&#45;&gt;Node53</title>
<path fill="none" stroke="midnightblue" d="M164.786,-112.182C157.456,-103.663 147.245,-90.0191 143,-76 138.388,-60.7669 140.351,-42.6557 143.058,-29.425"/>
<polygon fill="midnightblue" stroke="midnightblue" points="146.479,-30.1669 145.379,-19.6294 139.668,-28.5533 146.479,-30.1669"/>
</g>
<!-- Node33 -->
<g id="node8" class="node"><title>Node33</title>
<g id="a_node8"><a xlink:href="../../de/d7f/script_8h.html" target="_top" xlink:title="script/script.h">
<polygon fill="white" stroke="red" points="212,-56.5 212,-75.5 288,-75.5 288,-56.5 212,-56.5"/>
<text text-anchor="middle" x="250" y="-63.5" font-family="Helvetica,sans-Serif" font-size="10.00">script/script.h</text>
</a>
</g>
</g>
<!-- Node4&#45;&gt;Node33 -->
<g id="edge8" class="edge"><title>Node4&#45;&gt;Node33</title>
<path fill="none" stroke="midnightblue" d="M185.371,-112.324C197.158,-104.058 215.132,-91.4527 229.136,-81.6322"/>
<polygon fill="midnightblue" stroke="midnightblue" points="231.482,-84.2619 237.659,-75.6545 227.462,-78.5307 231.482,-84.2619"/>
</g>
<!-- Node52&#45;&gt;Node53 -->
<g id="edge6" class="edge"><title>Node52&#45;&gt;Node53</title>
<path fill="none" stroke="midnightblue" d="M168.872,-56.083C165.486,-48.77 160.584,-38.1814 156.381,-29.1034"/>
<polygon fill="midnightblue" stroke="midnightblue" points="159.429,-27.3553 152.051,-19.7511 153.077,-30.2962 159.429,-27.3553"/>
</g>
<!-- Node85&#45;&gt;Node2 -->
<g id="edge13" class="edge"><title>Node85&#45;&gt;Node2</title>
<path fill="none" stroke="midnightblue" d="M189,-224.083C189,-217.006 189,-206.861 189,-197.986"/>
<polygon fill="midnightblue" stroke="midnightblue" points="192.5,-197.751 189,-187.751 185.5,-197.751 192.5,-197.751"/>
</g>
<!-- Node85&#45;&gt;Node87 -->
<g id="edge14" class="edge"><title>Node85&#45;&gt;Node87</title>
<path fill="none" stroke="midnightblue" d="M205.227,-224.324C221.351,-215.703 246.3,-202.364 264.964,-192.386"/>
<polygon fill="midnightblue" stroke="midnightblue" points="266.644,-195.456 273.813,-187.655 263.344,-189.283 266.644,-195.456"/>
</g>
<!-- Node88&#45;&gt;Node84 -->
<g id="edge20" class="edge"><title>Node88&#45;&gt;Node84</title>
<path fill="none" stroke="midnightblue" d="M1076.6,-280.353C1046.46,-257.947 961.448,-197.688 881,-168 807.572,-140.902 715.799,-129.749 666.408,-125.456"/>
<polygon fill="midnightblue" stroke="midnightblue" points="666.498,-121.951 656.245,-124.618 665.923,-128.928 666.498,-121.951"/>
</g>
<!-- Node21 -->
<g id="node15" class="node"><title>Node21</title>
<g id="a_node15"><a xlink:href="../../dd/d2f/amount_8h.html" target="_top" xlink:title="amount.h">
<polygon fill="white" stroke="red" points="1157.5,-224.5 1157.5,-243.5 1214.5,-243.5 1214.5,-224.5 1157.5,-224.5"/>
<text text-anchor="middle" x="1186" y="-231.5" font-family="Helvetica,sans-Serif" font-size="10.00">amount.h</text>
</a>
</g>
</g>
<!-- Node88&#45;&gt;Node21 -->
<g id="edge18" class="edge"><title>Node88&#45;&gt;Node21</title>
<path fill="none" stroke="midnightblue" d="M1103.75,-280.324C1119.32,-271.743 1143.38,-258.486 1161.46,-248.522"/>
<polygon fill="midnightblue" stroke="midnightblue" points="1163.22,-251.546 1170.29,-243.655 1159.85,-245.415 1163.22,-251.546"/>
</g>
<!-- Node89 -->
<g id="node16" class="node"><title>Node89</title>
<polygon fill="white" stroke="#bfbfbf" points="1036.5,-224.5 1036.5,-243.5 1139.5,-243.5 1139.5,-224.5 1036.5,-224.5"/>
<text text-anchor="middle" x="1088" y="-231.5" font-family="Helvetica,sans-Serif" font-size="10.00">QAbstractListModel</text>
</g>
<!-- Node88&#45;&gt;Node89 -->
<g id="edge19" class="edge"><title>Node88&#45;&gt;Node89</title>
<path fill="none" stroke="midnightblue" d="M1088,-280.083C1088,-273.006 1088,-262.861 1088,-253.986"/>
<polygon fill="midnightblue" stroke="midnightblue" points="1091.5,-253.751 1088,-243.751 1084.5,-253.751 1091.5,-253.751"/>
</g>
<!-- Node90&#45;&gt;Node84 -->
<g id="edge28" class="edge"><title>Node90&#45;&gt;Node84</title>
<path fill="none" stroke="midnightblue" d="M741.323,-288.041C796.291,-285.372 923.72,-275.816 950,-244 955.661,-237.147 955.252,-231.172 950,-224 915.827,-177.335 741.799,-142.156 666.17,-128.829"/>
<polygon fill="midnightblue" stroke="midnightblue" points="666.627,-125.356 656.176,-127.095 665.43,-132.253 666.627,-125.356"/>
</g>
<!-- Node90&#45;&gt;Node87 -->
<g id="edge26" class="edge"><title>Node90&#45;&gt;Node87</title>
<path fill="none" stroke="midnightblue" d="M708.375,-280.494C694.933,-266.123 665.454,-237.305 634,-224 579.165,-200.805 403.863,-186.598 326.864,-181.33"/>
<polygon fill="midnightblue" stroke="midnightblue" points="326.886,-177.823 316.674,-180.646 326.417,-184.808 326.886,-177.823"/>
</g>
<!-- Node90&#45;&gt;Node21 -->
<g id="edge22" class="edge"><title>Node90&#45;&gt;Node21</title>
<path fill="none" stroke="midnightblue" d="M741.475,-287.496C807.075,-283.381 987.26,-270.542 1147.41,-243.872"/>
<polygon fill="midnightblue" stroke="midnightblue" points="1148.17,-247.295 1157.45,-242.179 1147,-240.392 1148.17,-247.295"/>
</g>
<!-- Node91 -->
<g id="node18" class="node"><title>Node91</title>
<polygon fill="white" stroke="#bfbfbf" points="284,-224.5 284,-243.5 334,-243.5 334,-224.5 284,-224.5"/>
<text text-anchor="middle" x="309" y="-231.5" font-family="Helvetica,sans-Serif" font-size="10.00">QEvent</text>
</g>
<!-- Node90&#45;&gt;Node91 -->
<g id="edge23" class="edge"><title>Node90&#45;&gt;Node91</title>
<path fill="none" stroke="midnightblue" d="M690.934,-287.184C632.08,-282.665 480.372,-269.532 344.343,-244.016"/>
<polygon fill="midnightblue" stroke="midnightblue" points="344.64,-240.509 334.162,-242.077 343.33,-247.386 344.64,-240.509"/>
</g>
<!-- Node92 -->
<g id="node19" class="node"><title>Node92</title>
<polygon fill="white" stroke="#bfbfbf" points="352.5,-224.5 352.5,-243.5 429.5,-243.5 429.5,-224.5 352.5,-224.5"/>
<text text-anchor="middle" x="391" y="-231.5" font-family="Helvetica,sans-Serif" font-size="10.00">QHeaderView</text>
</g>
<!-- Node90&#45;&gt;Node92 -->
<g id="edge24" class="edge"><title>Node90&#45;&gt;Node92</title>
<path fill="none" stroke="midnightblue" d="M690.661,-285.148C643.368,-277.904 538.214,-261.548 439.823,-244.286"/>
<polygon fill="midnightblue" stroke="midnightblue" points="440.168,-240.793 429.712,-242.504 438.953,-247.686 440.168,-240.793"/>
</g>
<!-- Node93 -->
<g id="node20" class="node"><title>Node93</title>
<polygon fill="white" stroke="#bfbfbf" points="447.5,-224.5 447.5,-243.5 528.5,-243.5 528.5,-224.5 447.5,-224.5"/>
<text text-anchor="middle" x="488" y="-231.5" font-family="Helvetica,sans-Serif" font-size="10.00">QMessageBox</text>
</g>
<!-- Node90&#45;&gt;Node93 -->
<g id="edge25" class="edge"><title>Node90&#45;&gt;Node93</title>
<path fill="none" stroke="midnightblue" d="M690.729,-283.015C653.031,-274.086 581.456,-257.134 534.234,-245.95"/>
<polygon fill="midnightblue" stroke="midnightblue" points="534.793,-242.486 524.255,-243.587 533.179,-249.297 534.793,-242.486"/>
</g>
<!-- Node94 -->
<g id="node21" class="node"><title>Node94</title>
<polygon fill="white" stroke="#bfbfbf" points="547,-224.5 547,-243.5 625,-243.5 625,-224.5 547,-224.5"/>
<text text-anchor="middle" x="586" y="-231.5" font-family="Helvetica,sans-Serif" font-size="10.00">QProgressBar</text>
</g>
<!-- Node90&#45;&gt;Node94 -->
<g id="edge27" class="edge"><title>Node90&#45;&gt;Node94</title>
<path fill="none" stroke="midnightblue" d="M695.401,-280.444C674.007,-271.557 640.319,-257.563 615.976,-247.451"/>
<polygon fill="midnightblue" stroke="midnightblue" points="617.08,-244.12 606.503,-243.516 614.395,-250.585 617.08,-244.12"/>
</g>
<!-- Node95 -->
<g id="node22" class="node"><title>Node95</title>
<polygon fill="white" stroke="#bfbfbf" points="681,-224.5 681,-243.5 751,-243.5 751,-224.5 681,-224.5"/>
<text text-anchor="middle" x="716" y="-231.5" font-family="Helvetica,sans-Serif" font-size="10.00">QTableView</text>
</g>
<!-- Node90&#45;&gt;Node95 -->
<g id="edge29" class="edge"><title>Node90&#45;&gt;Node95</title>
<path fill="none" stroke="midnightblue" d="M716,-280.083C716,-273.006 716,-262.861 716,-253.986"/>
<polygon fill="midnightblue" stroke="midnightblue" points="719.5,-253.751 716,-243.751 712.5,-253.751 719.5,-253.751"/>
</g>
<!-- Node96 -->
<g id="node23" class="node"><title>Node96</title>
<polygon fill="white" stroke="#bfbfbf" points="769.5,-224.5 769.5,-243.5 816.5,-243.5 816.5,-224.5 769.5,-224.5"/>
<text text-anchor="middle" x="793" y="-231.5" font-family="Helvetica,sans-Serif" font-size="10.00">QLabel</text>
</g>
<!-- Node90&#45;&gt;Node96 -->
<g id="edge30" class="edge"><title>Node90&#45;&gt;Node96</title>
<path fill="none" stroke="midnightblue" d="M728.371,-280.324C740.158,-272.058 758.132,-259.453 772.136,-249.632"/>
<polygon fill="midnightblue" stroke="midnightblue" points="774.482,-252.262 780.659,-243.655 770.462,-246.531 774.482,-252.262"/>
</g>
<!-- Node97 -->
<g id="node24" class="node"><title>Node97</title>
<polygon fill="white" stroke="#bfbfbf" points="834.5,-224.5 834.5,-243.5 941.5,-243.5 941.5,-224.5 834.5,-224.5"/>
<text text-anchor="middle" x="888" y="-231.5" font-family="Helvetica,sans-Serif" font-size="10.00">boost/filesystem.hpp</text>
</g>
<!-- Node90&#45;&gt;Node97 -->
<g id="edge31" class="edge"><title>Node90&#45;&gt;Node97</title>
<path fill="none" stroke="midnightblue" d="M741.01,-281.148C769.888,-272.082 817.667,-257.081 850.882,-246.653"/>
<polygon fill="midnightblue" stroke="midnightblue" points="852.193,-249.91 860.685,-243.576 850.096,-243.232 852.193,-249.91"/>
</g>
<!-- Node98&#45;&gt;Node21 -->
<g id="edge33" class="edge"><title>Node98&#45;&gt;Node21</title>
<path fill="none" stroke="midnightblue" d="M1186,-280.083C1186,-273.006 1186,-262.861 1186,-253.986"/>
<polygon fill="midnightblue" stroke="midnightblue" points="1189.5,-253.751 1186,-243.751 1182.5,-253.751 1189.5,-253.751"/>
</g>
<!-- Node98&#45;&gt;Node89 -->
<g id="edge34" class="edge"><title>Node98&#45;&gt;Node89</title>
<path fill="none" stroke="midnightblue" d="M1170.25,-280.324C1154.68,-271.743 1130.62,-258.486 1112.54,-248.522"/>
<polygon fill="midnightblue" stroke="midnightblue" points="1114.15,-245.415 1103.71,-243.655 1110.78,-251.546 1114.15,-245.415"/>
</g>
<!-- Node104&#45;&gt;Node4 -->
<g id="edge42" class="edge"><title>Node104&#45;&gt;Node4</title>
<path fill="none" stroke="midnightblue" d="M1280.66,-280.389C1271.12,-265.86 1249.62,-236.81 1223,-224 1038.91,-135.426 378.216,-124.526 211.444,-123.187"/>
<polygon fill="midnightblue" stroke="midnightblue" points="211.209,-119.685 201.184,-123.112 211.158,-126.685 211.209,-119.685"/>
</g>
<!-- Node104&#45;&gt;Node21 -->
<g id="edge41" class="edge"><title>Node104&#45;&gt;Node21</title>
<path fill="none" stroke="midnightblue" d="M1269.93,-280.324C1254.04,-271.743 1229.49,-258.486 1211.04,-248.522"/>
<polygon fill="midnightblue" stroke="midnightblue" points="1212.49,-245.326 1202.03,-243.655 1209.16,-251.486 1212.49,-245.326"/>
</g>
<!-- Node104&#45;&gt;Node100 -->
<g id="edge43" class="edge"><title>Node104&#45;&gt;Node100</title>
<path fill="none" stroke="midnightblue" d="M1289.8,-280.083C1292.91,-272.77 1297.42,-262.181 1301.29,-253.103"/>
<polygon fill="midnightblue" stroke="midnightblue" points="1304.57,-254.323 1305.27,-243.751 1298.13,-251.58 1304.57,-254.323"/>
</g>
<!-- Node104&#45;&gt;Node103 -->
<g id="edge44" class="edge"><title>Node104&#45;&gt;Node103</title>
<path fill="none" stroke="midnightblue" d="M1301.75,-280.324C1317.32,-271.743 1341.38,-258.486 1359.46,-248.522"/>
<polygon fill="midnightblue" stroke="midnightblue" points="1361.22,-251.546 1368.29,-243.655 1357.85,-245.415 1361.22,-251.546"/>
</g>
</g>
</svg>
