<?xml version="1.0" encoding="UTF-8" standalone="no"?>
<!DOCTYPE svg PUBLIC "-//W3C//DTD SVG 1.1//EN"
 "http://www.w3.org/Graphics/SVG/1.1/DTD/svg11.dtd">
<!-- Generated by graphviz version 2.38.0 (20140413.2041)
 -->
<!-- Title: TransactionTableModel::subscribeToCoreSignals Pages: 1 -->
<svg width="1903pt" height="513pt"
 viewBox="0.00 0.00 1903.00 512.50" xmlns="http://www.w3.org/2000/svg" xmlns:xlink="http://www.w3.org/1999/xlink">
<g id="graph0" class="graph" transform="scale(1 1) rotate(0) translate(4 508.5)">
<title>TransactionTableModel::subscribeToCoreSignals</title>
<polygon fill="white" stroke="none" points="-4,4 -4,-508.5 1899,-508.5 1899,4 -4,4"/>
<!-- Node702 -->
<g id="node1" class="node"><title>Node702</title>
<polygon fill="#bfbfbf" stroke="black" points="0,-431 0,-461 129,-461 129,-431 0,-431"/>
<text text-anchor="start" x="8" y="-449" font-family="Helvetica,sans-Serif" font-size="10.00">TransactionTableModel</text>
<text text-anchor="middle" x="64.5" y="-438" font-family="Helvetica,sans-Serif" font-size="10.00">::subscribeToCoreSignals</text>
</g>
<!-- Node703 -->
<g id="node2" class="node"><title>Node703</title>
<g id="a_node2"><a xlink:href="../../d7/d6a/transactiontablemodel_8cpp.html#a07e9dfe08b758569cb80c2558979c164" target="_top" xlink:title="NotifyTransactionChanged">
<polygon fill="white" stroke="black" points="165,-455.5 165,-474.5 298,-474.5 298,-455.5 165,-455.5"/>
<text text-anchor="middle" x="231.5" y="-462.5" font-family="Helvetica,sans-Serif" font-size="10.00">NotifyTransactionChanged</text>
</a>
</g>
</g>
<!-- Node702&#45;&gt;Node703 -->
<g id="edge1" class="edge"><title>Node702&#45;&gt;Node703</title>
<path fill="none" stroke="midnightblue" d="M129.293,-453.346C137.702,-454.314 146.383,-455.314 154.964,-456.302"/>
<polygon fill="midnightblue" stroke="midnightblue" points="154.633,-459.787 164.968,-457.454 155.434,-452.833 154.633,-459.787"/>
</g>
<!-- Node737 -->
<g id="node36" class="node"><title>Node737</title>
<g id="a_node36"><a xlink:href="../../d7/d6a/transactiontablemodel_8cpp.html#a42ed02a3b43c57f1b365eb2986378f54" target="_top" xlink:title="ShowProgress">
<polygon fill="white" stroke="black" points="191.5,-417.5 191.5,-436.5 271.5,-436.5 271.5,-417.5 191.5,-417.5"/>
<text text-anchor="middle" x="231.5" y="-424.5" font-family="Helvetica,sans-Serif" font-size="10.00">ShowProgress</text>
</a>
</g>
</g>
<!-- Node702&#45;&gt;Node737 -->
<g id="edge36" class="edge"><title>Node702&#45;&gt;Node737</title>
<path fill="none" stroke="midnightblue" d="M129.293,-438.654C146.403,-436.684 164.646,-434.583 180.864,-432.716"/>
<polygon fill="midnightblue" stroke="midnightblue" points="181.662,-436.147 191.196,-431.526 180.861,-429.193 181.662,-436.147"/>
</g>
<!-- Node704 -->
<g id="node3" class="node"><title>Node704</title>
<g id="a_node3"><a xlink:href="../../d6/d80/struct_transaction_notification.html#a6351a5b93f908a2df2e854e08178edb3" target="_top" xlink:title="TransactionNotification\l::invoke">
<polygon fill="white" stroke="black" points="334,-474 334,-504 451,-504 451,-474 334,-474"/>
<text text-anchor="start" x="342" y="-492" font-family="Helvetica,sans-Serif" font-size="10.00">TransactionNotification</text>
<text text-anchor="middle" x="392.5" y="-481" font-family="Helvetica,sans-Serif" font-size="10.00">::invoke</text>
</a>
</g>
</g>
<!-- Node703&#45;&gt;Node704 -->
<g id="edge2" class="edge"><title>Node703&#45;&gt;Node704</title>
<path fill="none" stroke="midnightblue" d="M295.798,-474.554C305.02,-475.946 314.545,-477.384 323.849,-478.789"/>
<polygon fill="midnightblue" stroke="midnightblue" points="323.423,-482.264 333.833,-480.296 324.467,-475.342 323.423,-482.264"/>
</g>
<!-- Node706 -->
<g id="node5" class="node"><title>Node706</title>
<g id="a_node5"><a xlink:href="../../d1/da7/class_transaction_record.html#a5ad1d1af4bec5b15a624b7a451e8cdbf" target="_top" xlink:title="Decompose CWallet transaction to model transaction records. ">
<polygon fill="white" stroke="black" points="340,-425 340,-455 445,-455 445,-425 340,-425"/>
<text text-anchor="start" x="348" y="-443" font-family="Helvetica,sans-Serif" font-size="10.00">TransactionRecord::</text>
<text text-anchor="middle" x="392.5" y="-432" font-family="Helvetica,sans-Serif" font-size="10.00">showTransaction</text>
</a>
</g>
</g>
<!-- Node703&#45;&gt;Node706 -->
<g id="edge4" class="edge"><title>Node703&#45;&gt;Node706</title>
<path fill="none" stroke="midnightblue" d="M293.065,-455.477C305.132,-453.58 317.817,-451.585 329.918,-449.683"/>
<polygon fill="midnightblue" stroke="midnightblue" points="330.583,-453.121 339.918,-448.11 329.496,-446.206 330.583,-453.121"/>
</g>
<!-- Node705 -->
<g id="node4" class="node"><title>Node705</title>
<g id="a_node4"><a xlink:href="../../db/d50/classbase__blob.html#ad7263503f949fb3c6c520ebb1f28e378" target="_top" xlink:title="base_blob::GetHex">
<polygon fill="white" stroke="black" points="503.5,-479.5 503.5,-498.5 604.5,-498.5 604.5,-479.5 503.5,-479.5"/>
<text text-anchor="middle" x="554" y="-486.5" font-family="Helvetica,sans-Serif" font-size="10.00">base_blob::GetHex</text>
</a>
</g>
</g>
<!-- Node704&#45;&gt;Node705 -->
<g id="edge3" class="edge"><title>Node704&#45;&gt;Node705</title>
<path fill="none" stroke="midnightblue" d="M451.083,-489C464.736,-489 479.33,-489 493.083,-489"/>
<polygon fill="midnightblue" stroke="midnightblue" points="493.408,-492.5 503.408,-489 493.407,-485.5 493.408,-492.5"/>
</g>
<!-- Node707 -->
<g id="node6" class="node"><title>Node707</title>
<g id="a_node6"><a xlink:href="../../df/d43/class_c_transaction.html#a96256e8ac1bf79ad9c057e48c41132dd" target="_top" xlink:title="CTransaction::IsCoinBase">
<polygon fill="white" stroke="black" points="488,-436.5 488,-455.5 620,-455.5 620,-436.5 488,-436.5"/>
<text text-anchor="middle" x="554" y="-443.5" font-family="Helvetica,sans-Serif" font-size="10.00">CTransaction::IsCoinBase</text>
</a>
</g>
</g>
<!-- Node706&#45;&gt;Node707 -->
<g id="edge5" class="edge"><title>Node706&#45;&gt;Node707</title>
<path fill="none" stroke="midnightblue" d="M445.285,-441.948C455.662,-442.338 466.762,-442.756 477.748,-443.169"/>
<polygon fill="midnightblue" stroke="midnightblue" points="477.656,-446.668 487.781,-443.547 477.92,-439.673 477.656,-446.668"/>
</g>
<!-- Node708 -->
<g id="node7" class="node"><title>Node708</title>
<g id="a_node7"><a xlink:href="../../d1/dff/class_c_merkle_tx.html#ad4b3623fabf1924dba2a7694e3418e1e" target="_top" xlink:title="CMerkleTx::IsInMainChain">
<polygon fill="white" stroke="black" points="487,-398.5 487,-417.5 621,-417.5 621,-398.5 487,-398.5"/>
<text text-anchor="middle" x="554" y="-405.5" font-family="Helvetica,sans-Serif" font-size="10.00">CMerkleTx::IsInMainChain</text>
</a>
</g>
</g>
<!-- Node706&#45;&gt;Node708 -->
<g id="edge6" class="edge"><title>Node706&#45;&gt;Node708</title>
<path fill="none" stroke="midnightblue" d="M445.285,-429.611C461.33,-426.391 479.104,-422.825 495.512,-419.534"/>
<polygon fill="midnightblue" stroke="midnightblue" points="496.407,-422.924 505.524,-417.525 495.03,-416.061 496.407,-422.924"/>
</g>
<!-- Node709 -->
<g id="node8" class="node"><title>Node709</title>
<g id="a_node8"><a xlink:href="../../d1/dff/class_c_merkle_tx.html#a5bf3a355593ecce5799de92d013149b1" target="_top" xlink:title="Return depth of transaction in blockchain: &lt;0 : conflicts with a transaction this deep in the blockch...">
<polygon fill="white" stroke="black" points="657,-393 657,-423 799,-423 799,-393 657,-393"/>
<text text-anchor="start" x="665" y="-411" font-family="Helvetica,sans-Serif" font-size="10.00">CMerkleTx::GetDepthInMain</text>
<text text-anchor="middle" x="728" y="-400" font-family="Helvetica,sans-Serif" font-size="10.00">Chain</text>
</a>
</g>
</g>
<!-- Node708&#45;&gt;Node709 -->
<g id="edge7" class="edge"><title>Node708&#45;&gt;Node709</title>
<path fill="none" stroke="midnightblue" d="M621.008,-408C629.451,-408 638.167,-408 646.804,-408"/>
<polygon fill="midnightblue" stroke="midnightblue" points="646.886,-411.5 656.886,-408 646.886,-404.5 646.886,-411.5"/>
</g>
<!-- Node710 -->
<g id="node9" class="node"><title>Node710</title>
<g id="a_node9"><a xlink:href="../../d5/dc1/class_c_chain.html#af1786dc229c215dea7f727c11df2c8dc" target="_top" xlink:title="Efficiently check whether a block is present in this chain. ">
<polygon fill="white" stroke="black" points="863.5,-455.5 863.5,-474.5 958.5,-474.5 958.5,-455.5 863.5,-455.5"/>
<text text-anchor="middle" x="911" y="-462.5" font-family="Helvetica,sans-Serif" font-size="10.00">CChain::Contains</text>
</a>
</g>
</g>
<!-- Node709&#45;&gt;Node710 -->
<g id="edge8" class="edge"><title>Node709&#45;&gt;Node710</title>
<path fill="none" stroke="midnightblue" d="M768.213,-423.074C788.074,-430.449 812.655,-439.182 835,-446 842.855,-448.397 851.236,-450.733 859.444,-452.9"/>
<polygon fill="midnightblue" stroke="midnightblue" points="858.764,-456.339 869.322,-455.452 860.516,-449.562 858.764,-456.339"/>
</g>
<!-- Node711 -->
<g id="node10" class="node"><title>Node711</title>
<g id="a_node10"><a xlink:href="../../db/d98/class_c_tx_mem_pool.html#a8b7a13b5289ab839d4460f41a7da9789" target="_top" xlink:title="CTxMemPool::exists">
<polygon fill="white" stroke="black" points="856.5,-417.5 856.5,-436.5 965.5,-436.5 965.5,-417.5 856.5,-417.5"/>
<text text-anchor="middle" x="911" y="-424.5" font-family="Helvetica,sans-Serif" font-size="10.00">CTxMemPool::exists</text>
</a>
</g>
</g>
<!-- Node709&#45;&gt;Node711 -->
<g id="edge9" class="edge"><title>Node709&#45;&gt;Node711</title>
<path fill="none" stroke="midnightblue" d="M799.238,-415.373C814.659,-416.992 830.908,-418.698 846.066,-420.289"/>
<polygon fill="midnightblue" stroke="midnightblue" points="846.051,-423.806 856.361,-421.369 846.781,-416.844 846.051,-423.806"/>
</g>
<!-- Node712 -->
<g id="node11" class="node"><title>Node712</title>
<g id="a_node11"><a xlink:href="../../d5/dc1/class_c_chain.html#ad4758bc8872ce065a9579f77c3171d40" target="_top" xlink:title="Return the maximal height in the chain. ">
<polygon fill="white" stroke="black" points="869,-379.5 869,-398.5 953,-398.5 953,-379.5 869,-379.5"/>
<text text-anchor="middle" x="911" y="-386.5" font-family="Helvetica,sans-Serif" font-size="10.00">CChain::Height</text>
</a>
</g>
</g>
<!-- Node709&#45;&gt;Node712 -->
<g id="edge10" class="edge"><title>Node709&#45;&gt;Node712</title>
<path fill="none" stroke="midnightblue" d="M799.238,-400.627C819.109,-398.541 840.354,-396.311 858.869,-394.367"/>
<polygon fill="midnightblue" stroke="midnightblue" points="859.267,-397.845 868.847,-393.32 858.537,-390.883 859.267,-397.845"/>
</g>
<!-- Node713 -->
<g id="node12" class="node"><title>Node713</title>
<g id="a_node12"><a xlink:href="../../dc/d16/class_c_instant_send.html#a2b5bebbef6c466ee34706eeb9f53d4a7" target="_top" xlink:title="CInstantSend::IsLockedInstant\lSendTransaction">
<polygon fill="white" stroke="black" points="835,-330 835,-360 987,-360 987,-330 835,-330"/>
<text text-anchor="start" x="843" y="-348" font-family="Helvetica,sans-Serif" font-size="10.00">CInstantSend::IsLockedInstant</text>
<text text-anchor="middle" x="911" y="-337" font-family="Helvetica,sans-Serif" font-size="10.00">SendTransaction</text>
</a>
</g>
</g>
<!-- Node709&#45;&gt;Node713 -->
<g id="edge11" class="edge"><title>Node709&#45;&gt;Node713</title>
<path fill="none" stroke="midnightblue" d="M770.202,-392.987C789.795,-385.91 813.568,-377.412 835,-370 841.362,-367.8 848.039,-365.525 854.677,-363.285"/>
<polygon fill="midnightblue" stroke="midnightblue" points="855.969,-366.543 864.334,-360.04 853.74,-359.907 855.969,-366.543"/>
</g>
<!-- Node714 -->
<g id="node13" class="node"><title>Node714</title>
<g id="a_node13"><a xlink:href="../../dc/d16/class_c_instant_send.html#a944921efd152fb5772182269409902e3" target="_top" xlink:title="CInstantSend::GetLockedOut\lPointTxHash">
<polygon fill="white" stroke="black" points="1027.5,-352 1027.5,-382 1173.5,-382 1173.5,-352 1027.5,-352"/>
<text text-anchor="start" x="1035.5" y="-370" font-family="Helvetica,sans-Serif" font-size="10.00">CInstantSend::GetLockedOut</text>
<text text-anchor="middle" x="1100.5" y="-359" font-family="Helvetica,sans-Serif" font-size="10.00">PointTxHash</text>
</a>
</g>
</g>
<!-- Node713&#45;&gt;Node714 -->
<g id="edge12" class="edge"><title>Node713&#45;&gt;Node714</title>
<path fill="none" stroke="midnightblue" d="M987.183,-353.821C997.117,-354.987 1007.34,-356.187 1017.38,-357.365"/>
<polygon fill="midnightblue" stroke="midnightblue" points="1017.01,-360.845 1027.35,-358.534 1017.82,-353.892 1017.01,-360.845"/>
</g>
<!-- Node715 -->
<g id="node14" class="node"><title>Node715</title>
<g id="a_node14"><a xlink:href="../../d2/d5e/class_c_spork_manager.html#a97d20d530b500c013e8bc8649ee13daf" target="_top" xlink:title="CSporkManager::IsSporkActive">
<polygon fill="white" stroke="black" points="1023,-313.5 1023,-332.5 1178,-332.5 1178,-313.5 1023,-313.5"/>
<text text-anchor="middle" x="1100.5" y="-320.5" font-family="Helvetica,sans-Serif" font-size="10.00">CSporkManager::IsSporkActive</text>
</a>
</g>
</g>
<!-- Node713&#45;&gt;Node715 -->
<g id="edge13" class="edge"><title>Node713&#45;&gt;Node715</title>
<path fill="none" stroke="midnightblue" d="M987.183,-336.179C995.604,-335.19 1004.23,-334.178 1012.78,-333.175"/>
<polygon fill="midnightblue" stroke="midnightblue" points="1013.25,-336.645 1022.77,-332.003 1012.43,-329.692 1013.25,-336.645"/>
</g>
<!-- Node716 -->
<g id="node15" class="node"><title>Node716</title>
<g id="a_node15"><a xlink:href="../../dd/dbd/timedata_8cpp.html#a09f81b9c7650f898cf3cf305b87547e6" target="_top" xlink:title="GetAdjustedTime">
<polygon fill="white" stroke="black" points="1214,-335.5 1214,-354.5 1306,-354.5 1306,-335.5 1214,-335.5"/>
<text text-anchor="middle" x="1260" y="-342.5" font-family="Helvetica,sans-Serif" font-size="10.00">GetAdjustedTime</text>
</a>
</g>
</g>
<!-- Node715&#45;&gt;Node716 -->
<g id="edge14" class="edge"><title>Node715&#45;&gt;Node716</title>
<path fill="none" stroke="midnightblue" d="M1169.67,-332.522C1181.12,-334.122 1192.88,-335.765 1203.96,-337.311"/>
<polygon fill="midnightblue" stroke="midnightblue" points="1203.51,-340.784 1213.9,-338.701 1204.48,-333.851 1203.51,-340.784"/>
</g>
<!-- Node719 -->
<g id="node18" class="node"><title>Node719</title>
<g id="a_node18"><a xlink:href="../../d8/d3c/util_8h.html#aab1f837a2366f424bdc996fdf6352171" target="_top" xlink:title="Zero&#45;arg versions of logging and error, these are not covered by TINYFORMAT_FOREACH_ARGNUM. ">
<polygon fill="white" stroke="black" points="1233.5,-269.5 1233.5,-288.5 1286.5,-288.5 1286.5,-269.5 1233.5,-269.5"/>
<text text-anchor="middle" x="1260" y="-276.5" font-family="Helvetica,sans-Serif" font-size="10.00">LogPrint</text>
</a>
</g>
</g>
<!-- Node715&#45;&gt;Node719 -->
<g id="edge17" class="edge"><title>Node715&#45;&gt;Node719</title>
<path fill="none" stroke="midnightblue" d="M1135.68,-313.453C1161.55,-306.223 1197.01,-296.319 1223.26,-288.984"/>
<polygon fill="midnightblue" stroke="midnightblue" points="1224.5,-292.273 1233.18,-286.212 1222.61,-285.532 1224.5,-292.273"/>
</g>
<!-- Node717 -->
<g id="node16" class="node"><title>Node717</title>
<g id="a_node16"><a xlink:href="../../d6/d3c/utiltime_8cpp.html#a46fac5fba8ba905b5f9acb364f5d8c6f" target="_top" xlink:title="For unit testing. ">
<polygon fill="white" stroke="black" points="1366.5,-373.5 1366.5,-392.5 1420.5,-392.5 1420.5,-373.5 1366.5,-373.5"/>
<text text-anchor="middle" x="1393.5" y="-380.5" font-family="Helvetica,sans-Serif" font-size="10.00">GetTime</text>
</a>
</g>
</g>
<!-- Node716&#45;&gt;Node717 -->
<g id="edge15" class="edge"><title>Node716&#45;&gt;Node717</title>
<path fill="none" stroke="midnightblue" d="M1294.18,-354.589C1313.23,-360.094 1337.16,-367.008 1356.64,-372.637"/>
<polygon fill="midnightblue" stroke="midnightblue" points="1355.79,-376.036 1366.37,-375.45 1357.74,-369.311 1355.79,-376.036"/>
</g>
<!-- Node718 -->
<g id="node17" class="node"><title>Node718</title>
<g id="a_node17"><a xlink:href="../../dd/dbd/timedata_8cpp.html#a50ca5344c75631267633f15cfe5e983e" target="_top" xlink:title="&quot;Never go to sea with two chronometers; take one or three.&quot; Our three time sources are: ...">
<polygon fill="white" stroke="black" points="1353,-335.5 1353,-354.5 1434,-354.5 1434,-335.5 1353,-335.5"/>
<text text-anchor="middle" x="1393.5" y="-342.5" font-family="Helvetica,sans-Serif" font-size="10.00">GetTimeOffset</text>
</a>
</g>
</g>
<!-- Node716&#45;&gt;Node718 -->
<g id="edge16" class="edge"><title>Node716&#45;&gt;Node718</title>
<path fill="none" stroke="midnightblue" d="M1306.25,-345C1317.98,-345 1330.66,-345 1342.61,-345"/>
<polygon fill="midnightblue" stroke="midnightblue" points="1342.87,-348.5 1352.87,-345 1342.87,-341.5 1342.87,-348.5"/>
</g>
<!-- Node720 -->
<g id="node19" class="node"><title>Node720</title>
<g id="a_node19"><a xlink:href="../../d8/d1a/namespacetinyformat_1_1detail.html#aa4b0590b3e34562c2d252a2086cec7ba" target="_top" xlink:title="tinyformat::detail\l::format">
<polygon fill="white" stroke="black" points="1349,-286 1349,-316 1438,-316 1438,-286 1349,-286"/>
<text text-anchor="start" x="1357" y="-304" font-family="Helvetica,sans-Serif" font-size="10.00">tinyformat::detail</text>
<text text-anchor="middle" x="1393.5" y="-293" font-family="Helvetica,sans-Serif" font-size="10.00">::format</text>
</a>
</g>
</g>
<!-- Node719&#45;&gt;Node720 -->
<g id="edge18" class="edge"><title>Node719&#45;&gt;Node720</title>
<path fill="none" stroke="midnightblue" d="M1286.67,-283.294C1301.48,-285.773 1320.69,-288.985 1338.66,-291.993"/>
<polygon fill="midnightblue" stroke="midnightblue" points="1338.33,-295.486 1348.77,-293.684 1339.49,-288.582 1338.33,-295.486"/>
</g>
<!-- Node723 -->
<g id="node22" class="node"><title>Node723</title>
<g id="a_node22"><a xlink:href="../../d8/d3c/util_8h.html#a343d2a13efe00125f78d25dafb0a8d98" target="_top" xlink:title="Return true if log accepts specified category. ">
<polygon fill="white" stroke="black" points="1342,-247.5 1342,-266.5 1445,-266.5 1445,-247.5 1342,-247.5"/>
<text text-anchor="middle" x="1393.5" y="-254.5" font-family="Helvetica,sans-Serif" font-size="10.00">LogAcceptCategory</text>
</a>
</g>
</g>
<!-- Node719&#45;&gt;Node723 -->
<g id="edge21" class="edge"><title>Node719&#45;&gt;Node723</title>
<path fill="none" stroke="midnightblue" d="M1286.67,-274.706C1299.54,-272.552 1315.73,-269.843 1331.55,-267.196"/>
<polygon fill="midnightblue" stroke="midnightblue" points="1332.57,-270.575 1341.86,-265.473 1331.42,-263.671 1332.57,-270.575"/>
</g>
<!-- Node725 -->
<g id="node24" class="node"><title>Node725</title>
<g id="a_node24"><a xlink:href="../../d8/d3c/util_8h.html#afd4c3002b2797c0560adddb6af3ca1da" target="_top" xlink:title="Send a string to the log output. ">
<polygon fill="white" stroke="black" points="1361,-152.5 1361,-171.5 1426,-171.5 1426,-152.5 1361,-152.5"/>
<text text-anchor="middle" x="1393.5" y="-159.5" font-family="Helvetica,sans-Serif" font-size="10.00">LogPrintStr</text>
</a>
</g>
</g>
<!-- Node719&#45;&gt;Node725 -->
<g id="edge23" class="edge"><title>Node719&#45;&gt;Node725</title>
<path fill="none" stroke="midnightblue" d="M1271.76,-269.425C1294.2,-249.457 1346.23,-203.169 1374.1,-178.375"/>
<polygon fill="midnightblue" stroke="midnightblue" points="1376.45,-180.969 1381.59,-171.707 1371.79,-175.739 1376.45,-180.969"/>
</g>
<!-- Node721 -->
<g id="node20" class="node"><title>Node721</title>
<g id="a_node20"><a xlink:href="../../d8/d42/classtinyformat_1_1detail_1_1_format_iterator.html#a46377a804f72dbad1e508d2fbaa18ce9" target="_top" xlink:title="tinyformat::detail\l::FormatIterator::finish">
<polygon fill="white" stroke="black" points="1481,-286 1481,-316 1594,-316 1594,-286 1481,-286"/>
<text text-anchor="start" x="1489" y="-304" font-family="Helvetica,sans-Serif" font-size="10.00">tinyformat::detail</text>
<text text-anchor="middle" x="1537.5" y="-293" font-family="Helvetica,sans-Serif" font-size="10.00">::FormatIterator::finish</text>
</a>
</g>
</g>
<!-- Node720&#45;&gt;Node721 -->
<g id="edge19" class="edge"><title>Node720&#45;&gt;Node721</title>
<path fill="none" stroke="midnightblue" d="M1438.26,-301C1448.56,-301 1459.75,-301 1470.78,-301"/>
<polygon fill="midnightblue" stroke="midnightblue" points="1470.82,-304.5 1480.82,-301 1470.82,-297.5 1470.82,-304.5"/>
</g>
<!-- Node722 -->
<g id="node21" class="node"><title>Node722</title>
<g id="a_node21"><a xlink:href="../../d8/d42/classtinyformat_1_1detail_1_1_format_iterator.html#af3bbb8259ac0593ec2268ef5863311d5" target="_top" xlink:title="tinyformat::detail\l::FormatIterator::printFormat\lStringLiteral">
<polygon fill="white" stroke="black" points="1633,-280.5 1633,-321.5 1773,-321.5 1773,-280.5 1633,-280.5"/>
<text text-anchor="start" x="1641" y="-309.5" font-family="Helvetica,sans-Serif" font-size="10.00">tinyformat::detail</text>
<text text-anchor="start" x="1641" y="-298.5" font-family="Helvetica,sans-Serif" font-size="10.00">::FormatIterator::printFormat</text>
<text text-anchor="middle" x="1703" y="-287.5" font-family="Helvetica,sans-Serif" font-size="10.00">StringLiteral</text>
</a>
</g>
</g>
<!-- Node721&#45;&gt;Node722 -->
<g id="edge20" class="edge"><title>Node721&#45;&gt;Node722</title>
<path fill="none" stroke="midnightblue" d="M1594.31,-301C1603.51,-301 1613.2,-301 1622.84,-301"/>
<polygon fill="midnightblue" stroke="midnightblue" points="1622.85,-304.5 1632.85,-301 1622.85,-297.5 1622.85,-304.5"/>
</g>
<!-- Node724 -->
<g id="node23" class="node"><title>Node724</title>
<g id="a_node23"><a xlink:href="../../df/d2d/util_8cpp.html#a1db3aa900bfa259ae1fe04068f2accfc" target="_top" xlink:title="GetThreadName">
<polygon fill="white" stroke="black" points="1658.5,-226.5 1658.5,-245.5 1747.5,-245.5 1747.5,-226.5 1658.5,-226.5"/>
<text text-anchor="middle" x="1703" y="-233.5" font-family="Helvetica,sans-Serif" font-size="10.00">GetThreadName</text>
</a>
</g>
</g>
<!-- Node723&#45;&gt;Node724 -->
<g id="edge22" class="edge"><title>Node723&#45;&gt;Node724</title>
<path fill="none" stroke="midnightblue" d="M1445.28,-253.532C1501.16,-249.716 1590.64,-243.605 1647.84,-239.699"/>
<polygon fill="midnightblue" stroke="midnightblue" points="1648.39,-243.17 1658.13,-238.996 1647.91,-236.186 1648.39,-243.17"/>
</g>
<!-- Node726 -->
<g id="node25" class="node"><title>Node726</title>
<g id="a_node25"><a xlink:href="../../df/d2d/util_8cpp.html#a751ff5f21d880737811136b5e0bcea12" target="_top" xlink:title="DebugPrintInit">
<polygon fill="white" stroke="black" points="1498,-209.5 1498,-228.5 1577,-228.5 1577,-209.5 1498,-209.5"/>
<text text-anchor="middle" x="1537.5" y="-216.5" font-family="Helvetica,sans-Serif" font-size="10.00">DebugPrintInit</text>
</a>
</g>
</g>
<!-- Node725&#45;&gt;Node726 -->
<g id="edge24" class="edge"><title>Node725&#45;&gt;Node726</title>
<path fill="none" stroke="midnightblue" d="M1414.92,-171.551C1432.32,-179.55 1458.08,-191.06 1481,-200 1486.28,-202.059 1491.88,-204.119 1497.42,-206.085"/>
<polygon fill="midnightblue" stroke="midnightblue" points="1496.65,-209.52 1507.24,-209.497 1498.94,-202.908 1496.65,-209.52"/>
</g>
<!-- Node727 -->
<g id="node26" class="node"><title>Node727</title>
<g id="a_node26"><a xlink:href="../../df/d2d/util_8cpp.html#a7c125ce70fa6b09e1de0c4a404fc2b6f" target="_top" xlink:title="FileWriteStr">
<polygon fill="white" stroke="black" points="1503.5,-171.5 1503.5,-190.5 1571.5,-190.5 1571.5,-171.5 1503.5,-171.5"/>
<text text-anchor="middle" x="1537.5" y="-178.5" font-family="Helvetica,sans-Serif" font-size="10.00">FileWriteStr</text>
</a>
</g>
</g>
<!-- Node725&#45;&gt;Node727 -->
<g id="edge25" class="edge"><title>Node725&#45;&gt;Node727</title>
<path fill="none" stroke="midnightblue" d="M1426.01,-166.217C1445.76,-168.859 1471.49,-172.302 1493.15,-175.2"/>
<polygon fill="midnightblue" stroke="midnightblue" points="1492.72,-178.673 1503.1,-176.53 1493.65,-171.735 1492.72,-178.673"/>
</g>
<!-- Node728 -->
<g id="node27" class="node"><title>Node728</title>
<g id="a_node27"><a xlink:href="../../df/d2d/util_8cpp.html#ab83866a054745d4b30a3948a1b44beba" target="_top" xlink:title="GetDataDir">
<polygon fill="white" stroke="black" points="1504.5,-95.5 1504.5,-114.5 1570.5,-114.5 1570.5,-95.5 1504.5,-95.5"/>
<text text-anchor="middle" x="1537.5" y="-102.5" font-family="Helvetica,sans-Serif" font-size="10.00">GetDataDir</text>
</a>
</g>
</g>
<!-- Node725&#45;&gt;Node728 -->
<g id="edge26" class="edge"><title>Node725&#45;&gt;Node728</title>
<path fill="none" stroke="midnightblue" d="M1414.92,-152.449C1432.32,-144.45 1458.08,-132.94 1481,-124 1486.28,-121.941 1491.88,-119.881 1497.42,-117.915"/>
<polygon fill="midnightblue" stroke="midnightblue" points="1498.94,-121.092 1507.24,-114.503 1496.65,-114.48 1498.94,-121.092"/>
</g>
<!-- Node732 -->
<g id="node31" class="node"><title>Node732</title>
<g id="a_node31"><a xlink:href="../../df/d2d/util_8cpp.html#af0c31e37a5891e021f9b339696398a28" target="_top" xlink:title="fStartedNewLine is a state variable held by the calling context that will suppress printing of the th...">
<polygon fill="white" stroke="black" points="1487,-133.5 1487,-152.5 1588,-152.5 1588,-133.5 1487,-133.5"/>
<text text-anchor="middle" x="1537.5" y="-140.5" font-family="Helvetica,sans-Serif" font-size="10.00">LogThreadNameStr</text>
</a>
</g>
</g>
<!-- Node725&#45;&gt;Node732 -->
<g id="edge30" class="edge"><title>Node725&#45;&gt;Node732</title>
<path fill="none" stroke="midnightblue" d="M1426.01,-157.783C1440.97,-155.782 1459.36,-153.322 1476.81,-150.987"/>
<polygon fill="midnightblue" stroke="midnightblue" points="1477.5,-154.426 1486.94,-149.631 1476.57,-147.488 1477.5,-154.426"/>
</g>
<!-- Node733 -->
<g id="node32" class="node"><title>Node733</title>
<g id="a_node32"><a xlink:href="../../df/d2d/util_8cpp.html#a8e80ae045580407e9f2028dc5f7b954c" target="_top" xlink:title="fStartedNewLine is a state variable held by the calling context that will suppress printing of the ti...">
<polygon fill="white" stroke="black" points="1490.5,-38.5 1490.5,-57.5 1584.5,-57.5 1584.5,-38.5 1490.5,-38.5"/>
<text text-anchor="middle" x="1537.5" y="-45.5" font-family="Helvetica,sans-Serif" font-size="10.00">LogTimestampStr</text>
</a>
</g>
</g>
<!-- Node725&#45;&gt;Node733 -->
<g id="edge32" class="edge"><title>Node725&#45;&gt;Node733</title>
<path fill="none" stroke="midnightblue" d="M1404.54,-152.461C1420.32,-137.638 1452.11,-108.447 1481,-86 1491.17,-78.1001 1502.87,-69.9567 1512.9,-63.2447"/>
<polygon fill="midnightblue" stroke="midnightblue" points="1515.14,-65.9631 1521.55,-57.5311 1511.28,-60.1222 1515.14,-65.9631"/>
</g>
<!-- Node729 -->
<g id="node28" class="node"><title>Node729</title>
<g id="a_node28"><a xlink:href="../../d9/d44/chainparamsbase_8cpp.html#a06ef5bfd0efb53d13bbf4276726e84ab" target="_top" xlink:title="Return the currently selected parameters. ">
<polygon fill="white" stroke="black" points="1666.5,-152.5 1666.5,-171.5 1739.5,-171.5 1739.5,-152.5 1666.5,-152.5"/>
<text text-anchor="middle" x="1703" y="-159.5" font-family="Helvetica,sans-Serif" font-size="10.00">BaseParams</text>
</a>
</g>
</g>
<!-- Node728&#45;&gt;Node729 -->
<g id="edge27" class="edge"><title>Node728&#45;&gt;Node729</title>
<path fill="none" stroke="midnightblue" d="M1569.07,-114.512C1577.26,-117.32 1586.05,-120.567 1594,-124 1610.61,-131.174 1613.14,-136.427 1630,-143 1638.4,-146.276 1647.57,-149.177 1656.46,-151.665"/>
<polygon fill="midnightblue" stroke="midnightblue" points="1655.77,-155.102 1666.33,-154.296 1657.57,-148.338 1655.77,-155.102"/>
</g>
<!-- Node730 -->
<g id="node29" class="node"><title>Node730</title>
<g id="a_node29"><a xlink:href="../../d2/dfc/class_c_base_chain_params.html#a4b142e94ae27f860522dd5efef41fb67" target="_top" xlink:title="CBaseChainParams::DataDir">
<polygon fill="white" stroke="black" points="1630,-114.5 1630,-133.5 1776,-133.5 1776,-114.5 1630,-114.5"/>
<text text-anchor="middle" x="1703" y="-121.5" font-family="Helvetica,sans-Serif" font-size="10.00">CBaseChainParams::DataDir</text>
</a>
</g>
</g>
<!-- Node728&#45;&gt;Node730 -->
<g id="edge28" class="edge"><title>Node728&#45;&gt;Node730</title>
<path fill="none" stroke="midnightblue" d="M1570.8,-108.754C1584.96,-110.399 1602.29,-112.413 1619.65,-114.431"/>
<polygon fill="midnightblue" stroke="midnightblue" points="1619.52,-117.939 1629.86,-115.617 1620.33,-110.986 1619.52,-117.939"/>
</g>
<!-- Node731 -->
<g id="node30" class="node"><title>Node731</title>
<g id="a_node30"><a xlink:href="../../df/d2d/util_8cpp.html#ab272995de020a3bcbf743be630e485c6" target="_top" xlink:title="GetDefaultDataDir">
<polygon fill="white" stroke="black" points="1654,-76.5 1654,-95.5 1752,-95.5 1752,-76.5 1654,-76.5"/>
<text text-anchor="middle" x="1703" y="-83.5" font-family="Helvetica,sans-Serif" font-size="10.00">GetDefaultDataDir</text>
</a>
</g>
</g>
<!-- Node728&#45;&gt;Node731 -->
<g id="edge29" class="edge"><title>Node728&#45;&gt;Node731</title>
<path fill="none" stroke="midnightblue" d="M1570.8,-101.246C1591.66,-98.8224 1619.4,-95.5992 1643.99,-92.7409"/>
<polygon fill="midnightblue" stroke="midnightblue" points="1644.43,-96.2143 1653.95,-91.5832 1643.62,-89.261 1644.43,-96.2143"/>
</g>
<!-- Node732&#45;&gt;Node724 -->
<g id="edge31" class="edge"><title>Node732&#45;&gt;Node724</title>
<path fill="none" stroke="midnightblue" d="M1571.09,-152.512C1578.77,-155.199 1586.81,-158.39 1594,-162 1626.88,-178.508 1661.36,-203.727 1682.27,-220.04"/>
<polygon fill="midnightblue" stroke="midnightblue" points="1680.34,-222.977 1690.36,-226.435 1684.69,-217.486 1680.34,-222.977"/>
</g>
<!-- Node734 -->
<g id="node33" class="node"><title>Node734</title>
<g id="a_node33"><a xlink:href="../../d6/d3c/utiltime_8cpp.html#a749bc6776c8ec72d7c5e4dea56aee415" target="_top" xlink:title="DateTimeStrFormat">
<polygon fill="white" stroke="black" points="1651.5,-38.5 1651.5,-57.5 1754.5,-57.5 1754.5,-38.5 1651.5,-38.5"/>
<text text-anchor="middle" x="1703" y="-45.5" font-family="Helvetica,sans-Serif" font-size="10.00">DateTimeStrFormat</text>
</a>
</g>
</g>
<!-- Node733&#45;&gt;Node734 -->
<g id="edge33" class="edge"><title>Node733&#45;&gt;Node734</title>
<path fill="none" stroke="midnightblue" d="M1584.92,-48C1602.44,-48 1622.65,-48 1641.29,-48"/>
<polygon fill="midnightblue" stroke="midnightblue" points="1641.46,-51.5001 1651.46,-48 1641.46,-44.5001 1641.46,-51.5001"/>
</g>
<!-- Node735 -->
<g id="node34" class="node"><title>Node735</title>
<g id="a_node34"><a xlink:href="../../d6/d3c/utiltime_8cpp.html#a474bed4c01c8a1d18330dceccf865e1e" target="_top" xlink:title="Return a time useful for the debug log. ">
<polygon fill="white" stroke="black" points="1653.5,-0.5 1653.5,-19.5 1752.5,-19.5 1752.5,-0.5 1653.5,-0.5"/>
<text text-anchor="middle" x="1703" y="-7.5" font-family="Helvetica,sans-Serif" font-size="10.00">GetLogTimeMicros</text>
</a>
</g>
</g>
<!-- Node733&#45;&gt;Node735 -->
<g id="edge34" class="edge"><title>Node733&#45;&gt;Node735</title>
<path fill="none" stroke="midnightblue" d="M1579.76,-38.411C1601.43,-33.3739 1628.18,-27.1562 1651.13,-21.8229"/>
<polygon fill="midnightblue" stroke="midnightblue" points="1652.09,-25.1931 1661.04,-19.5201 1650.51,-18.3748 1652.09,-25.1931"/>
</g>
<!-- Node736 -->
<g id="node35" class="node"><title>Node736</title>
<g id="a_node35"><a xlink:href="../../d6/d3c/utiltime_8cpp.html#a0c5a06b50cd805b1923552114494c029" target="_top" xlink:title="GetTimeMicros">
<polygon fill="white" stroke="black" points="1812,-0.5 1812,-19.5 1895,-19.5 1895,-0.5 1812,-0.5"/>
<text text-anchor="middle" x="1853.5" y="-7.5" font-family="Helvetica,sans-Serif" font-size="10.00">GetTimeMicros</text>
</a>
</g>
</g>
<!-- Node735&#45;&gt;Node736 -->
<g id="edge35" class="edge"><title>Node735&#45;&gt;Node736</title>
<path fill="none" stroke="midnightblue" d="M1752.62,-10C1768.31,-10 1785.73,-10 1801.57,-10"/>
<polygon fill="midnightblue" stroke="midnightblue" points="1801.72,-13.5001 1811.72,-10 1801.72,-6.5001 1801.72,-13.5001"/>
</g>
</g>
</svg>
