<?xml version="1.0" encoding="UTF-8" standalone="no"?>
<!DOCTYPE svg PUBLIC "-//W3C//DTD SVG 1.1//EN"
 "http://www.w3.org/Graphics/SVG/1.1/DTD/svg11.dtd">
<!-- Generated by graphviz version 2.38.0 (20140413.2041)
 -->
<!-- Title: CMasternodeSync::BumpAssetLastTime Pages: 1 -->
<!--zoomable 389 -->
<svg id="main" version="1.1" xmlns="http://www.w3.org/2000/svg" xmlns:xlink="http://www.w3.org/1999/xlink" xml:space="preserve" onload="init(evt)">
<style type="text/css"><![CDATA[
.edge:hover path { stroke: red; }
.edge:hover polygon { stroke: red; fill: red; }
]]></style>
<script type="text/javascript"><![CDATA[
var edges = document.getElementsByTagName('g');
if (edges && edges.length) {
  for (var i=0;i<edges.length;i++) {
    if (edges[i].id.substr(0,4)=='edge') {
      edges[i].setAttribute('class','edge');
    }
  }
}
]]></script>
        <defs>
                <circle id="rim" cx="0" cy="0" r="7"/>
                <circle id="rim2" cx="0" cy="0" r="3.5"/>
                <g id="zoomPlus">
                        <use xlink:href="#rim" fill="#404040">
                                <set attributeName="fill" to="#808080" begin="zoomplus.mouseover" end="zoomplus.mouseout"/>
                        </use>
                        <path d="M-4,0h8M0,-4v8" fill="none" stroke="white" stroke-width="1.5" pointer-events="none"/>
                </g>
                <g id="zoomMin">
                        <use xlink:href="#rim" fill="#404040">
                                <set attributeName="fill" to="#808080" begin="zoomminus.mouseover" end="zoomminus.mouseout"/>
                        </use>
                        <path d="M-4,0h8" fill="none" stroke="white" stroke-width="1.5" pointer-events="none"/>
                </g>
                <g id="dirArrow">
                        <path fill="none" stroke="white" stroke-width="1.5" d="M0,-3.0v7 M-2.5,-0.5L0,-3.0L2.5,-0.5"/>
                </g>
               <g id="resetDef">
                       <use xlink:href="#rim2" fill="#404040">
                               <set attributeName="fill" to="#808080" begin="reset.mouseover" end="reset.mouseout"/>
                       </use>
               </g>
        </defs>

<script type="text/javascript">
var viewWidth = 933;
var viewHeight = 389;
var sectionId = 'dynsection-3';
</script>
<script xlink:href="../../svgpan.js"/>
<svg id="graph" class="graph">
<g id="viewport">
<title>CMasternodeSync::BumpAssetLastTime</title>
<polygon fill="white" stroke="none" points="-4,4 -4,-385 929,-385 929,4 -4,4"/>
<!-- Node30 -->
<g id="node1" class="node"><title>Node30</title>
<polygon fill="#bfbfbf" stroke="black" points="0,-299 0,-329 155,-329 155,-299 0,-299"/>
<text text-anchor="start" x="8" y="-317" font-family="Helvetica,sans-Serif" font-size="10.00">CMasternodeSync::BumpAsset</text>
<text text-anchor="middle" x="77.5" y="-306" font-family="Helvetica,sans-Serif" font-size="10.00">LastTime</text>
</g>
<!-- Node31 -->
<g id="node2" class="node"><title>Node31</title>
<g id="a_node2"><a xlink:href="../../d6/d3c/utiltime_8cpp.html#a46fac5fba8ba905b5f9acb364f5d8c6f" target="_top" xlink:title="For unit testing. ">
<polygon fill="white" stroke="black" points="236.5,-361.5 236.5,-380.5 290.5,-380.5 290.5,-361.5 236.5,-361.5"/>
<text text-anchor="middle" x="263.5" y="-368.5" font-family="Helvetica,sans-Serif" font-size="10.00">GetTime</text>
</a>
</g>
</g>
<!-- Node30&#45;&gt;Node31 -->
<g id="edge1" class="edge"><title>Node30&#45;&gt;Node31</title>
<path fill="none" stroke="midnightblue" d="M120.758,-329.01C141.769,-336.285 167.61,-344.95 191,-352 202.393,-355.434 214.903,-358.87 226.23,-361.858"/>
<polygon fill="midnightblue" stroke="midnightblue" points="225.675,-365.33 236.234,-364.463 227.439,-358.556 225.675,-365.33"/>
</g>
<!-- Node32 -->
<g id="node3" class="node"><title>Node32</title>
<g id="a_node3"><a xlink:href="../../db/dcd/class_c_masternode_sync.html#ac3d7c48a45ff1f330f2333c5a2744c18" target="_top" xlink:title="CMasternodeSync::IsFailed">
<polygon fill="white" stroke="black" points="194.5,-323.5 194.5,-342.5 332.5,-342.5 332.5,-323.5 194.5,-323.5"/>
<text text-anchor="middle" x="263.5" y="-330.5" font-family="Helvetica,sans-Serif" font-size="10.00">CMasternodeSync::IsFailed</text>
</a>
</g>
</g>
<!-- Node30&#45;&gt;Node32 -->
<g id="edge2" class="edge"><title>Node30&#45;&gt;Node32</title>
<path fill="none" stroke="midnightblue" d="M155.2,-321.92C164.861,-322.918 174.753,-323.939 184.434,-324.939"/>
<polygon fill="midnightblue" stroke="midnightblue" points="184.122,-328.425 194.428,-325.971 184.841,-321.462 184.122,-328.425"/>
</g>
<!-- Node33 -->
<g id="node4" class="node"><title>Node33</title>
<g id="a_node4"><a xlink:href="../../db/dcd/class_c_masternode_sync.html#ab1f58bda356a30a15ae1733e238f188f" target="_top" xlink:title="CMasternodeSync::IsSynced">
<polygon fill="white" stroke="black" points="191,-285.5 191,-304.5 336,-304.5 336,-285.5 191,-285.5"/>
<text text-anchor="middle" x="263.5" y="-292.5" font-family="Helvetica,sans-Serif" font-size="10.00">CMasternodeSync::IsSynced</text>
</a>
</g>
</g>
<!-- Node30&#45;&gt;Node33 -->
<g id="edge3" class="edge"><title>Node30&#45;&gt;Node33</title>
<path fill="none" stroke="midnightblue" d="M155.2,-306.08C163.705,-305.202 172.39,-304.305 180.952,-303.421"/>
<polygon fill="midnightblue" stroke="midnightblue" points="181.341,-306.899 190.929,-302.391 180.622,-299.936 181.341,-306.899"/>
</g>
<!-- Node34 -->
<g id="node5" class="node"><title>Node34</title>
<g id="a_node5"><a xlink:href="../../d8/d3c/util_8h.html#aab1f837a2366f424bdc996fdf6352171" target="_top" xlink:title="Zero&#45;arg versions of logging and error, these are not covered by TINYFORMAT_FOREACH_ARGNUM. ">
<polygon fill="white" stroke="black" points="237,-247.5 237,-266.5 290,-266.5 290,-247.5 237,-247.5"/>
<text text-anchor="middle" x="263.5" y="-254.5" font-family="Helvetica,sans-Serif" font-size="10.00">LogPrint</text>
</a>
</g>
</g>
<!-- Node30&#45;&gt;Node34 -->
<g id="edge4" class="edge"><title>Node30&#45;&gt;Node34</title>
<path fill="none" stroke="midnightblue" d="M120.758,-298.99C141.769,-291.715 167.61,-283.05 191,-276 202.699,-272.474 215.577,-268.945 227.142,-265.902"/>
<polygon fill="midnightblue" stroke="midnightblue" points="228.106,-269.267 236.904,-263.365 226.346,-262.492 228.106,-269.267"/>
</g>
<!-- Node35 -->
<g id="node6" class="node"><title>Node35</title>
<g id="a_node6"><a xlink:href="../../d8/d1a/namespacetinyformat_1_1detail.html#aa4b0590b3e34562c2d252a2086cec7ba" target="_top" xlink:title="tinyformat::detail\l::format">
<polygon fill="white" stroke="black" points="379,-286 379,-316 468,-316 468,-286 379,-286"/>
<text text-anchor="start" x="387" y="-304" font-family="Helvetica,sans-Serif" font-size="10.00">tinyformat::detail</text>
<text text-anchor="middle" x="423.5" y="-293" font-family="Helvetica,sans-Serif" font-size="10.00">::format</text>
</a>
</g>
</g>
<!-- Node34&#45;&gt;Node35 -->
<g id="edge5" class="edge"><title>Node34&#45;&gt;Node35</title>
<path fill="none" stroke="midnightblue" d="M290.017,-263.638C303.676,-267.227 320.777,-271.778 336,-276 346.726,-278.975 358.177,-282.229 369.119,-285.376"/>
<polygon fill="midnightblue" stroke="midnightblue" points="368.413,-288.815 378.991,-288.226 370.354,-282.09 368.413,-288.815"/>
</g>
<!-- Node38 -->
<g id="node9" class="node"><title>Node38</title>
<g id="a_node9"><a xlink:href="../../d8/d3c/util_8h.html#a343d2a13efe00125f78d25dafb0a8d98" target="_top" xlink:title="Return true if log accepts specified category. ">
<polygon fill="white" stroke="black" points="372,-247.5 372,-266.5 475,-266.5 475,-247.5 372,-247.5"/>
<text text-anchor="middle" x="423.5" y="-254.5" font-family="Helvetica,sans-Serif" font-size="10.00">LogAcceptCategory</text>
</a>
</g>
</g>
<!-- Node34&#45;&gt;Node38 -->
<g id="edge8" class="edge"><title>Node34&#45;&gt;Node38</title>
<path fill="none" stroke="midnightblue" d="M290.237,-257C309.604,-257 336.966,-257 361.782,-257"/>
<polygon fill="midnightblue" stroke="midnightblue" points="361.866,-260.5 371.866,-257 361.866,-253.5 361.866,-260.5"/>
</g>
<!-- Node40 -->
<g id="node11" class="node"><title>Node40</title>
<g id="a_node11"><a xlink:href="../../d8/d3c/util_8h.html#afd4c3002b2797c0560adddb6af3ca1da" target="_top" xlink:title="Send a string to the log output. ">
<polygon fill="white" stroke="black" points="391,-152.5 391,-171.5 456,-171.5 456,-152.5 391,-152.5"/>
<text text-anchor="middle" x="423.5" y="-159.5" font-family="Helvetica,sans-Serif" font-size="10.00">LogPrintStr</text>
</a>
</g>
</g>
<!-- Node34&#45;&gt;Node40 -->
<g id="edge10" class="edge"><title>Node34&#45;&gt;Node40</title>
<path fill="none" stroke="midnightblue" d="M280.519,-247.368C308.082,-230.796 364.668,-196.772 397.47,-177.049"/>
<polygon fill="midnightblue" stroke="midnightblue" points="399.672,-179.81 406.438,-171.657 396.065,-173.811 399.672,-179.81"/>
</g>
<!-- Node36 -->
<g id="node7" class="node"><title>Node36</title>
<g id="a_node7"><a xlink:href="../../d8/d42/classtinyformat_1_1detail_1_1_format_iterator.html#a46377a804f72dbad1e508d2fbaa18ce9" target="_top" xlink:title="tinyformat::detail\l::FormatIterator::finish">
<polygon fill="white" stroke="black" points="511,-286 511,-316 624,-316 624,-286 511,-286"/>
<text text-anchor="start" x="519" y="-304" font-family="Helvetica,sans-Serif" font-size="10.00">tinyformat::detail</text>
<text text-anchor="middle" x="567.5" y="-293" font-family="Helvetica,sans-Serif" font-size="10.00">::FormatIterator::finish</text>
</a>
</g>
</g>
<!-- Node35&#45;&gt;Node36 -->
<g id="edge6" class="edge"><title>Node35&#45;&gt;Node36</title>
<path fill="none" stroke="midnightblue" d="M468.263,-301C478.558,-301 489.753,-301 500.777,-301"/>
<polygon fill="midnightblue" stroke="midnightblue" points="500.823,-304.5 510.823,-301 500.823,-297.5 500.823,-304.5"/>
</g>
<!-- Node37 -->
<g id="node8" class="node"><title>Node37</title>
<g id="a_node8"><a xlink:href="../../d8/d42/classtinyformat_1_1detail_1_1_format_iterator.html#af3bbb8259ac0593ec2268ef5863311d5" target="_top" xlink:title="tinyformat::detail\l::FormatIterator::printFormat\lStringLiteral">
<polygon fill="white" stroke="black" points="663,-280.5 663,-321.5 803,-321.5 803,-280.5 663,-280.5"/>
<text text-anchor="start" x="671" y="-309.5" font-family="Helvetica,sans-Serif" font-size="10.00">tinyformat::detail</text>
<text text-anchor="start" x="671" y="-298.5" font-family="Helvetica,sans-Serif" font-size="10.00">::FormatIterator::printFormat</text>
<text text-anchor="middle" x="733" y="-287.5" font-family="Helvetica,sans-Serif" font-size="10.00">StringLiteral</text>
</a>
</g>
</g>
<!-- Node36&#45;&gt;Node37 -->
<g id="edge7" class="edge"><title>Node36&#45;&gt;Node37</title>
<path fill="none" stroke="midnightblue" d="M624.31,-301C633.51,-301 643.2,-301 652.841,-301"/>
<polygon fill="midnightblue" stroke="midnightblue" points="652.848,-304.5 662.848,-301 652.848,-297.5 652.848,-304.5"/>
</g>
<!-- Node39 -->
<g id="node10" class="node"><title>Node39</title>
<g id="a_node10"><a xlink:href="../../df/d2d/util_8cpp.html#a1db3aa900bfa259ae1fe04068f2accfc" target="_top" xlink:title="GetThreadName">
<polygon fill="white" stroke="black" points="688.5,-226.5 688.5,-245.5 777.5,-245.5 777.5,-226.5 688.5,-226.5"/>
<text text-anchor="middle" x="733" y="-233.5" font-family="Helvetica,sans-Serif" font-size="10.00">GetThreadName</text>
</a>
</g>
</g>
<!-- Node38&#45;&gt;Node39 -->
<g id="edge9" class="edge"><title>Node38&#45;&gt;Node39</title>
<path fill="none" stroke="midnightblue" d="M475.277,-253.532C531.162,-249.716 620.638,-243.605 677.837,-239.699"/>
<polygon fill="midnightblue" stroke="midnightblue" points="678.388,-243.17 688.127,-238.996 677.911,-236.186 678.388,-243.17"/>
</g>
<!-- Node41 -->
<g id="node12" class="node"><title>Node41</title>
<g id="a_node12"><a xlink:href="../../df/d2d/util_8cpp.html#a751ff5f21d880737811136b5e0bcea12" target="_top" xlink:title="DebugPrintInit">
<polygon fill="white" stroke="black" points="528,-209.5 528,-228.5 607,-228.5 607,-209.5 528,-209.5"/>
<text text-anchor="middle" x="567.5" y="-216.5" font-family="Helvetica,sans-Serif" font-size="10.00">DebugPrintInit</text>
</a>
</g>
</g>
<!-- Node40&#45;&gt;Node41 -->
<g id="edge11" class="edge"><title>Node40&#45;&gt;Node41</title>
<path fill="none" stroke="midnightblue" d="M444.92,-171.551C462.32,-179.55 488.078,-191.06 511,-200 516.278,-202.059 521.882,-204.119 527.423,-206.085"/>
<polygon fill="midnightblue" stroke="midnightblue" points="526.646,-209.52 537.241,-209.497 528.944,-202.908 526.646,-209.52"/>
</g>
<!-- Node42 -->
<g id="node13" class="node"><title>Node42</title>
<g id="a_node13"><a xlink:href="../../df/d2d/util_8cpp.html#a7c125ce70fa6b09e1de0c4a404fc2b6f" target="_top" xlink:title="FileWriteStr">
<polygon fill="white" stroke="black" points="533.5,-171.5 533.5,-190.5 601.5,-190.5 601.5,-171.5 533.5,-171.5"/>
<text text-anchor="middle" x="567.5" y="-178.5" font-family="Helvetica,sans-Serif" font-size="10.00">FileWriteStr</text>
</a>
</g>
</g>
<!-- Node40&#45;&gt;Node42 -->
<g id="edge12" class="edge"><title>Node40&#45;&gt;Node42</title>
<path fill="none" stroke="midnightblue" d="M456.014,-166.217C475.765,-168.859 501.492,-172.302 523.151,-175.2"/>
<polygon fill="midnightblue" stroke="midnightblue" points="522.719,-178.673 533.095,-176.53 523.648,-171.735 522.719,-178.673"/>
</g>
<!-- Node43 -->
<g id="node14" class="node"><title>Node43</title>
<g id="a_node14"><a xlink:href="../../df/d2d/util_8cpp.html#ab83866a054745d4b30a3948a1b44beba" target="_top" xlink:title="GetDataDir">
<polygon fill="white" stroke="black" points="534.5,-95.5 534.5,-114.5 600.5,-114.5 600.5,-95.5 534.5,-95.5"/>
<text text-anchor="middle" x="567.5" y="-102.5" font-family="Helvetica,sans-Serif" font-size="10.00">GetDataDir</text>
</a>
</g>
</g>
<!-- Node40&#45;&gt;Node43 -->
<g id="edge13" class="edge"><title>Node40&#45;&gt;Node43</title>
<path fill="none" stroke="midnightblue" d="M444.92,-152.449C462.32,-144.45 488.078,-132.94 511,-124 516.278,-121.941 521.882,-119.881 527.423,-117.915"/>
<polygon fill="midnightblue" stroke="midnightblue" points="528.944,-121.092 537.241,-114.503 526.646,-114.48 528.944,-121.092"/>
</g>
<!-- Node47 -->
<g id="node18" class="node"><title>Node47</title>
<g id="a_node18"><a xlink:href="../../df/d2d/util_8cpp.html#af0c31e37a5891e021f9b339696398a28" target="_top" xlink:title="fStartedNewLine is a state variable held by the calling context that will suppress printing of the th...">
<polygon fill="white" stroke="black" points="517,-133.5 517,-152.5 618,-152.5 618,-133.5 517,-133.5"/>
<text text-anchor="middle" x="567.5" y="-140.5" font-family="Helvetica,sans-Serif" font-size="10.00">LogThreadNameStr</text>
</a>
</g>
</g>
<!-- Node40&#45;&gt;Node47 -->
<g id="edge17" class="edge"><title>Node40&#45;&gt;Node47</title>
<path fill="none" stroke="midnightblue" d="M456.014,-157.783C470.973,-155.782 489.359,-153.322 506.811,-150.987"/>
<polygon fill="midnightblue" stroke="midnightblue" points="507.497,-154.426 516.944,-149.631 506.568,-147.488 507.497,-154.426"/>
</g>
<!-- Node48 -->
<g id="node19" class="node"><title>Node48</title>
<g id="a_node19"><a xlink:href="../../df/d2d/util_8cpp.html#a8e80ae045580407e9f2028dc5f7b954c" target="_top" xlink:title="fStartedNewLine is a state variable held by the calling context that will suppress printing of the ti...">
<polygon fill="white" stroke="black" points="520.5,-38.5 520.5,-57.5 614.5,-57.5 614.5,-38.5 520.5,-38.5"/>
<text text-anchor="middle" x="567.5" y="-45.5" font-family="Helvetica,sans-Serif" font-size="10.00">LogTimestampStr</text>
</a>
</g>
</g>
<!-- Node40&#45;&gt;Node48 -->
<g id="edge19" class="edge"><title>Node40&#45;&gt;Node48</title>
<path fill="none" stroke="midnightblue" d="M434.543,-152.461C450.324,-137.638 482.114,-108.447 511,-86 521.166,-78.1001 532.869,-69.9567 542.9,-63.2447"/>
<polygon fill="midnightblue" stroke="midnightblue" points="545.135,-65.9631 551.55,-57.5311 541.277,-60.1222 545.135,-65.9631"/>
</g>
<!-- Node44 -->
<g id="node15" class="node"><title>Node44</title>
<g id="a_node15"><a xlink:href="../../d9/d44/chainparamsbase_8cpp.html#a06ef5bfd0efb53d13bbf4276726e84ab" target="_top" xlink:title="Return the currently selected parameters. ">
<polygon fill="white" stroke="black" points="696.5,-152.5 696.5,-171.5 769.5,-171.5 769.5,-152.5 696.5,-152.5"/>
<text text-anchor="middle" x="733" y="-159.5" font-family="Helvetica,sans-Serif" font-size="10.00">BaseParams</text>
</a>
</g>
</g>
<!-- Node43&#45;&gt;Node44 -->
<g id="edge14" class="edge"><title>Node43&#45;&gt;Node44</title>
<path fill="none" stroke="midnightblue" d="M599.07,-114.512C607.265,-117.32 616.053,-120.567 624,-124 640.609,-131.174 643.145,-136.427 660,-143 668.401,-146.276 677.569,-149.177 686.463,-151.665"/>
<polygon fill="midnightblue" stroke="midnightblue" points="685.767,-155.102 696.331,-154.296 687.57,-148.338 685.767,-155.102"/>
</g>
<!-- Node45 -->
<g id="node16" class="node"><title>Node45</title>
<g id="a_node16"><a xlink:href="../../d2/dfc/class_c_base_chain_params.html#a4b142e94ae27f860522dd5efef41fb67" target="_top" xlink:title="CBaseChainParams::DataDir">
<polygon fill="white" stroke="black" points="660,-114.5 660,-133.5 806,-133.5 806,-114.5 660,-114.5"/>
<text text-anchor="middle" x="733" y="-121.5" font-family="Helvetica,sans-Serif" font-size="10.00">CBaseChainParams::DataDir</text>
</a>
</g>
</g>
<!-- Node43&#45;&gt;Node45 -->
<g id="edge15" class="edge"><title>Node43&#45;&gt;Node45</title>
<path fill="none" stroke="midnightblue" d="M600.802,-108.754C614.961,-110.399 632.29,-112.413 649.654,-114.431"/>
<polygon fill="midnightblue" stroke="midnightblue" points="649.522,-117.939 659.859,-115.617 650.33,-110.986 649.522,-117.939"/>
</g>
<!-- Node46 -->
<g id="node17" class="node"><title>Node46</title>
<g id="a_node17"><a xlink:href="../../df/d2d/util_8cpp.html#ab272995de020a3bcbf743be630e485c6" target="_top" xlink:title="GetDefaultDataDir">
<polygon fill="white" stroke="black" points="684,-76.5 684,-95.5 782,-95.5 782,-76.5 684,-76.5"/>
<text text-anchor="middle" x="733" y="-83.5" font-family="Helvetica,sans-Serif" font-size="10.00">GetDefaultDataDir</text>
</a>
</g>
</g>
<!-- Node43&#45;&gt;Node46 -->
<g id="edge16" class="edge"><title>Node43&#45;&gt;Node46</title>
<path fill="none" stroke="midnightblue" d="M600.802,-101.246C621.66,-98.8224 649.397,-95.5992 673.993,-92.7409"/>
<polygon fill="midnightblue" stroke="midnightblue" points="674.426,-96.2143 683.955,-91.5832 673.617,-89.261 674.426,-96.2143"/>
</g>
<!-- Node47&#45;&gt;Node39 -->
<g id="edge18" class="edge"><title>Node47&#45;&gt;Node39</title>
<path fill="none" stroke="midnightblue" d="M601.094,-152.512C608.772,-155.199 616.81,-158.39 624,-162 656.882,-178.508 691.362,-203.727 712.271,-220.04"/>
<polygon fill="midnightblue" stroke="midnightblue" points="710.343,-222.977 720.358,-226.435 714.685,-217.486 710.343,-222.977"/>
</g>
<!-- Node49 -->
<g id="node20" class="node"><title>Node49</title>
<g id="a_node20"><a xlink:href="../../d6/d3c/utiltime_8cpp.html#a749bc6776c8ec72d7c5e4dea56aee415" target="_top" xlink:title="DateTimeStrFormat">
<polygon fill="white" stroke="black" points="681.5,-38.5 681.5,-57.5 784.5,-57.5 784.5,-38.5 681.5,-38.5"/>
<text text-anchor="middle" x="733" y="-45.5" font-family="Helvetica,sans-Serif" font-size="10.00">DateTimeStrFormat</text>
</a>
</g>
</g>
<!-- Node48&#45;&gt;Node49 -->
<g id="edge20" class="edge"><title>Node48&#45;&gt;Node49</title>
<path fill="none" stroke="midnightblue" d="M614.915,-48C632.44,-48 652.647,-48 671.289,-48"/>
<polygon fill="midnightblue" stroke="midnightblue" points="671.457,-51.5001 681.457,-48 671.457,-44.5001 671.457,-51.5001"/>
</g>
<!-- Node50 -->
<g id="node21" class="node"><title>Node50</title>
<g id="a_node21"><a xlink:href="../../d6/d3c/utiltime_8cpp.html#a474bed4c01c8a1d18330dceccf865e1e" target="_top" xlink:title="Return a time useful for the debug log. ">
<polygon fill="white" stroke="black" points="683.5,-0.5 683.5,-19.5 782.5,-19.5 782.5,-0.5 683.5,-0.5"/>
<text text-anchor="middle" x="733" y="-7.5" font-family="Helvetica,sans-Serif" font-size="10.00">GetLogTimeMicros</text>
</a>
</g>
</g>
<!-- Node48&#45;&gt;Node50 -->
<g id="edge21" class="edge"><title>Node48&#45;&gt;Node50</title>
<path fill="none" stroke="midnightblue" d="M609.758,-38.411C631.431,-33.3739 658.183,-27.1562 681.13,-21.8229"/>
<polygon fill="midnightblue" stroke="midnightblue" points="682.091,-25.1931 691.039,-19.5201 680.506,-18.3748 682.091,-25.1931"/>
</g>
<!-- Node51 -->
<g id="node22" class="node"><title>Node51</title>
<g id="a_node22"><a xlink:href="../../d6/d3c/utiltime_8cpp.html#a0c5a06b50cd805b1923552114494c029" target="_top" xlink:title="GetTimeMicros">
<polygon fill="white" stroke="black" points="842,-0.5 842,-19.5 925,-19.5 925,-0.5 842,-0.5"/>
<text text-anchor="middle" x="883.5" y="-7.5" font-family="Helvetica,sans-Serif" font-size="10.00">GetTimeMicros</text>
</a>
</g>
</g>
<!-- Node50&#45;&gt;Node51 -->
<g id="edge22" class="edge"><title>Node50&#45;&gt;Node51</title>
<path fill="none" stroke="midnightblue" d="M782.624,-10C798.306,-10 815.726,-10 831.57,-10"/>
<polygon fill="midnightblue" stroke="midnightblue" points="831.719,-13.5001 841.719,-10 831.719,-6.5001 831.719,-13.5001"/>
</g>
</g>
</svg>
        <g id="navigator" transform="translate(0 0)" fill="#404254">
                <rect fill="#f2f5e9" fill-opacity="0.5" stroke="#606060" stroke-width=".5" x="0" y="0" width="60" height="60"/>
                <use id="zoomplus" xlink:href="#zoomPlus" x="17" y="9" onmousedown="handleZoom(evt,'in')"/>
                <use id="zoomminus" xlink:href="#zoomMin" x="42" y="9" onmousedown="handleZoom(evt,'out')"/>
                <use id="reset" xlink:href="#resetDef" x="30" y="36" onmousedown="handleReset()"/>
                <g id="arrowUp" xlink:href="#dirArrow" transform="translate(30 24)" onmousedown="handlePan(0,-1)">
                  <use xlink:href="#rim" fill="#404040">
                        <set attributeName="fill" to="#808080" begin="arrowUp.mouseover" end="arrowUp.mouseout"/>
                  </use>
                  <path fill="none" stroke="white" stroke-width="1.5" d="M0,-3.0v7 M-2.5,-0.5L0,-3.0L2.5,-0.5"/>
                </g>
                <g id="arrowRight" xlink:href="#dirArrow" transform="rotate(90) translate(36 -43)" onmousedown="handlePan(1,0)">
                  <use xlink:href="#rim" fill="#404040">
                        <set attributeName="fill" to="#808080" begin="arrowRight.mouseover" end="arrowRight.mouseout"/>
                  </use>
                  <path fill="none" stroke="white" stroke-width="1.5" d="M0,-3.0v7 M-2.5,-0.5L0,-3.0L2.5,-0.5"/>
                </g>
                <g id="arrowDown" xlink:href="#dirArrow" transform="rotate(180) translate(-30 -48)" onmousedown="handlePan(0,1)">
                  <use xlink:href="#rim" fill="#404040">
                        <set attributeName="fill" to="#808080" begin="arrowDown.mouseover" end="arrowDown.mouseout"/>
                  </use>
                  <path fill="none" stroke="white" stroke-width="1.5" d="M0,-3.0v7 M-2.5,-0.5L0,-3.0L2.5,-0.5"/>
                </g>
                <g id="arrowLeft" xlink:href="#dirArrow" transform="rotate(270) translate(-36 17)" onmousedown="handlePan(-1,0)">
                  <use xlink:href="#rim" fill="#404040">
                        <set attributeName="fill" to="#808080" begin="arrowLeft.mouseover" end="arrowLeft.mouseout"/>
                  </use>
                  <path fill="none" stroke="white" stroke-width="1.5" d="M0,-3.0v7 M-2.5,-0.5L0,-3.0L2.5,-0.5"/>
                </g>
        </g>
        <svg viewBox="0 0 15 15" width="100%" height="30px" preserveAspectRatio="xMaxYMin meet">
         <g id="arrow_out" transform="scale(0.3 0.3)">
          <a xlink:href="class_c_masternode_sync_a54098205519fc66ae4948145587635aa_cgraph_org.svg" target="_base">
           <rect id="button" ry="5" rx="5" y="6" x="6" height="38" width="38"
                fill="#f2f5e9" fill-opacity="0.5" stroke="#606060" stroke-width="1.0"/>
           <path id="arrow"
             d="M 11.500037,31.436501 C 11.940474,20.09759 22.043105,11.32322 32.158766,21.979434 L 37.068811,17.246167 C 37.068811,17.246167 37.088388,32 37.088388,32 L 22.160133,31.978069 C 22.160133,31.978069 26.997745,27.140456 26.997745,27.140456 C 18.528582,18.264221 13.291696,25.230495 11.500037,31.436501 z"
             style="fill:#404040;"/>
          </a>
         </g>
        </svg>
</svg>
