<?xml version="1.0" encoding="UTF-8" standalone="no"?>
<!DOCTYPE svg PUBLIC "-//W3C//DTD SVG 1.1//EN"
 "http://www.w3.org/Graphics/SVG/1.1/DTD/svg11.dtd">
<!-- Generated by graphviz version 2.38.0 (20140413.2041)
 -->
<!-- Title: StartHTTPServer Pages: 1 -->
<svg width="966pt" height="278pt"
 viewBox="0.00 0.00 966.00 278.00" xmlns="http://www.w3.org/2000/svg" xmlns:xlink="http://www.w3.org/1999/xlink">
<g id="graph0" class="graph" transform="scale(1 1) rotate(0) translate(4 274)">
<title>StartHTTPServer</title>
<polygon fill="white" stroke="none" points="-4,4 -4,-274 962,-274 962,4 -4,4"/>
<!-- Node123 -->
<g id="node1" class="node"><title>Node123</title>
<polygon fill="#bfbfbf" stroke="black" points="0,-193.5 0,-212.5 92,-212.5 92,-193.5 0,-193.5"/>
<text text-anchor="middle" x="46" y="-200.5" font-family="Helvetica,sans-Serif" font-size="10.00">StartHTTPServer</text>
</g>
<!-- Node124 -->
<g id="node2" class="node"><title>Node124</title>
<g id="a_node2"><a xlink:href="../../df/d2d/util_8cpp.html#a24f685720bf40370e5bd2a192ad50cd8" target="_top" xlink:title="Return string argument or default value. ">
<polygon fill="white" stroke="black" points="161,-250.5 161,-269.5 208,-269.5 208,-250.5 161,-250.5"/>
<text text-anchor="middle" x="184.5" y="-257.5" font-family="Helvetica,sans-Serif" font-size="10.00">GetArg</text>
</a>
</g>
</g>
<!-- Node123&#45;&gt;Node124 -->
<g id="edge1" class="edge"><title>Node123&#45;&gt;Node124</title>
<path fill="none" stroke="midnightblue" d="M66.0512,-212.657C82.3028,-220.721 106.399,-232.266 128,-241 135.418,-244 143.511,-246.948 151.165,-249.593"/>
<polygon fill="midnightblue" stroke="midnightblue" points="150.287,-252.991 160.882,-252.876 152.528,-246.359 150.287,-252.991"/>
</g>
<!-- Node125 -->
<g id="node3" class="node"><title>Node125</title>
<g id="a_node3"><a xlink:href="../../d7/d31/httpserver_8cpp.html#a3326ebcf9203a92612664e59a82e2f0a" target="_top" xlink:title="Simple wrapper to set thread name and run work queue. ">
<polygon fill="white" stroke="black" points="128,-212.5 128,-231.5 241,-231.5 241,-212.5 128,-212.5"/>
<text text-anchor="middle" x="184.5" y="-219.5" font-family="Helvetica,sans-Serif" font-size="10.00">HTTPWorkQueueRun</text>
</a>
</g>
</g>
<!-- Node123&#45;&gt;Node125 -->
<g id="edge2" class="edge"><title>Node123&#45;&gt;Node125</title>
<path fill="none" stroke="midnightblue" d="M92.0735,-209.274C100.222,-210.408 108.872,-211.612 117.474,-212.81"/>
<polygon fill="midnightblue" stroke="midnightblue" points="117.13,-216.295 127.517,-214.208 118.095,-209.362 117.13,-216.295"/>
</g>
<!-- Node128 -->
<g id="node6" class="node"><title>Node128</title>
<g id="a_node6"><a xlink:href="../../d8/d3c/util_8h.html#aab1f837a2366f424bdc996fdf6352171" target="_top" xlink:title="Zero&#45;arg versions of logging and error, these are not covered by TINYFORMAT_FOREACH_ARGNUM. ">
<polygon fill="white" stroke="black" points="296.5,-136.5 296.5,-155.5 349.5,-155.5 349.5,-136.5 296.5,-136.5"/>
<text text-anchor="middle" x="323" y="-143.5" font-family="Helvetica,sans-Serif" font-size="10.00">LogPrint</text>
</a>
</g>
</g>
<!-- Node123&#45;&gt;Node128 -->
<g id="edge5" class="edge"><title>Node123&#45;&gt;Node128</title>
<path fill="none" stroke="midnightblue" d="M63.1183,-193.416C79.0267,-184.453 104.335,-171.502 128,-165 181.805,-150.217 246.779,-146.595 286.214,-145.889"/>
<polygon fill="midnightblue" stroke="midnightblue" points="286.433,-149.387 296.388,-145.762 286.345,-142.387 286.433,-149.387"/>
</g>
<!-- Node146 -->
<g id="node24" class="node"><title>Node146</title>
<g id="a_node24"><a xlink:href="../../d7/d31/httpserver_8cpp.html#a33c0888317562ee0e8f639bd2d45d57c" target="_top" xlink:title="Event dispatcher thread. ">
<polygon fill="white" stroke="black" points="148,-174.5 148,-193.5 221,-193.5 221,-174.5 148,-174.5"/>
<text text-anchor="middle" x="184.5" y="-181.5" font-family="Helvetica,sans-Serif" font-size="10.00">ThreadHTTP</text>
</a>
</g>
</g>
<!-- Node123&#45;&gt;Node146 -->
<g id="edge24" class="edge"><title>Node123&#45;&gt;Node146</title>
<path fill="none" stroke="midnightblue" d="M92.0735,-196.726C106.838,-194.671 123.244,-192.387 138.037,-190.328"/>
<polygon fill="midnightblue" stroke="midnightblue" points="138.558,-193.789 147.98,-188.944 137.593,-186.856 138.558,-193.789"/>
</g>
<!-- Node126 -->
<g id="node4" class="node"><title>Node126</title>
<g id="a_node4"><a xlink:href="../../df/d2d/util_8cpp.html#a85fc1244e0bd3c91ee7a1c05ed10ebbb" target="_top" xlink:title="RenameThread">
<polygon fill="white" stroke="black" points="281.5,-174.5 281.5,-193.5 364.5,-193.5 364.5,-174.5 281.5,-174.5"/>
<text text-anchor="middle" x="323" y="-181.5" font-family="Helvetica,sans-Serif" font-size="10.00">RenameThread</text>
</a>
</g>
</g>
<!-- Node125&#45;&gt;Node126 -->
<g id="edge3" class="edge"><title>Node125&#45;&gt;Node126</title>
<path fill="none" stroke="midnightblue" d="M219.945,-212.411C237.485,-207.528 259.01,-201.536 277.763,-196.315"/>
<polygon fill="midnightblue" stroke="midnightblue" points="278.871,-199.64 287.566,-193.586 276.994,-192.896 278.871,-199.64"/>
</g>
<!-- Node127 -->
<g id="node5" class="node"><title>Node127</title>
<g id="a_node5"><a xlink:href="../../dd/d77/class_work_queue.html#a762b775b6ec11e2f8351ad79fd6782ba" target="_top" xlink:title="Thread function. ">
<polygon fill="white" stroke="black" points="277,-212.5 277,-231.5 369,-231.5 369,-212.5 277,-212.5"/>
<text text-anchor="middle" x="323" y="-219.5" font-family="Helvetica,sans-Serif" font-size="10.00">WorkQueue::Run</text>
</a>
</g>
</g>
<!-- Node125&#45;&gt;Node127 -->
<g id="edge4" class="edge"><title>Node125&#45;&gt;Node127</title>
<path fill="none" stroke="midnightblue" d="M241.02,-222C249.521,-222 258.295,-222 266.789,-222"/>
<polygon fill="midnightblue" stroke="midnightblue" points="266.974,-225.5 276.974,-222 266.974,-218.5 266.974,-225.5"/>
</g>
<!-- Node129 -->
<g id="node7" class="node"><title>Node129</title>
<g id="a_node7"><a xlink:href="../../d8/d3c/util_8h.html#a343d2a13efe00125f78d25dafb0a8d98" target="_top" xlink:title="Return true if log accepts specified category. ">
<polygon fill="white" stroke="black" points="405,-212.5 405,-231.5 508,-231.5 508,-212.5 405,-212.5"/>
<text text-anchor="middle" x="456.5" y="-219.5" font-family="Helvetica,sans-Serif" font-size="10.00">LogAcceptCategory</text>
</a>
</g>
</g>
<!-- Node128&#45;&gt;Node129 -->
<g id="edge6" class="edge"><title>Node128&#45;&gt;Node129</title>
<path fill="none" stroke="midnightblue" d="M349.138,-155.656C355.714,-158.44 362.718,-161.641 369,-165 392.229,-177.422 417.193,-194.289 434.303,-206.448"/>
<polygon fill="midnightblue" stroke="midnightblue" points="432.32,-209.333 442.483,-212.328 436.406,-203.649 432.32,-209.333"/>
</g>
<!-- Node131 -->
<g id="node9" class="node"><title>Node131</title>
<g id="a_node9"><a xlink:href="../../d8/d3c/util_8h.html#afd4c3002b2797c0560adddb6af3ca1da" target="_top" xlink:title="Send a string to the log output. ">
<polygon fill="white" stroke="black" points="424,-136.5 424,-155.5 489,-155.5 489,-136.5 424,-136.5"/>
<text text-anchor="middle" x="456.5" y="-143.5" font-family="Helvetica,sans-Serif" font-size="10.00">LogPrintStr</text>
</a>
</g>
</g>
<!-- Node128&#45;&gt;Node131 -->
<g id="edge8" class="edge"><title>Node128&#45;&gt;Node131</title>
<path fill="none" stroke="midnightblue" d="M349.667,-146C367.826,-146 392.582,-146 413.585,-146"/>
<polygon fill="midnightblue" stroke="midnightblue" points="413.859,-149.5 423.859,-146 413.859,-142.5 413.859,-149.5"/>
</g>
<!-- Node143 -->
<g id="node21" class="node"><title>Node143</title>
<g id="a_node21"><a xlink:href="../../d8/d1a/namespacetinyformat_1_1detail.html#aa4b0590b3e34562c2d252a2086cec7ba" target="_top" xlink:title="tinyformat::detail\l::format">
<polygon fill="white" stroke="black" points="412,-47 412,-77 501,-77 501,-47 412,-47"/>
<text text-anchor="start" x="420" y="-65" font-family="Helvetica,sans-Serif" font-size="10.00">tinyformat::detail</text>
<text text-anchor="middle" x="456.5" y="-54" font-family="Helvetica,sans-Serif" font-size="10.00">::format</text>
</a>
</g>
</g>
<!-- Node128&#45;&gt;Node143 -->
<g id="edge21" class="edge"><title>Node128&#45;&gt;Node143</title>
<path fill="none" stroke="midnightblue" d="M339.085,-136.364C359.45,-123.355 396.27,-99.8353 423.061,-82.7213"/>
<polygon fill="midnightblue" stroke="midnightblue" points="425.181,-85.5203 431.724,-77.1874 421.413,-79.6212 425.181,-85.5203"/>
</g>
<!-- Node130 -->
<g id="node8" class="node"><title>Node130</title>
<g id="a_node8"><a xlink:href="../../df/d2d/util_8cpp.html#a1db3aa900bfa259ae1fe04068f2accfc" target="_top" xlink:title="GetThreadName">
<polygon fill="white" stroke="black" points="721.5,-250.5 721.5,-269.5 810.5,-269.5 810.5,-250.5 721.5,-250.5"/>
<text text-anchor="middle" x="766" y="-257.5" font-family="Helvetica,sans-Serif" font-size="10.00">GetThreadName</text>
</a>
</g>
</g>
<!-- Node129&#45;&gt;Node130 -->
<g id="edge7" class="edge"><title>Node129&#45;&gt;Node130</title>
<path fill="none" stroke="midnightblue" d="M496.052,-231.597C510.952,-235.008 528.192,-238.595 544,-241 600.689,-249.625 666.199,-254.645 711.09,-257.335"/>
<polygon fill="midnightblue" stroke="midnightblue" points="711.005,-260.836 721.191,-257.922 711.411,-253.848 711.005,-260.836"/>
</g>
<!-- Node132 -->
<g id="node10" class="node"><title>Node132</title>
<g id="a_node10"><a xlink:href="../../df/d2d/util_8cpp.html#af0c31e37a5891e021f9b339696398a28" target="_top" xlink:title="fStartedNewLine is a state variable held by the calling context that will suppress printing of the th...">
<polygon fill="white" stroke="black" points="550,-212.5 550,-231.5 651,-231.5 651,-212.5 550,-212.5"/>
<text text-anchor="middle" x="600.5" y="-219.5" font-family="Helvetica,sans-Serif" font-size="10.00">LogThreadNameStr</text>
</a>
</g>
</g>
<!-- Node131&#45;&gt;Node132 -->
<g id="edge9" class="edge"><title>Node131&#45;&gt;Node132</title>
<path fill="none" stroke="midnightblue" d="M469.792,-155.554C486.042,-167.835 515.908,-189.213 544,-203 548.343,-205.131 552.985,-207.126 557.665,-208.961"/>
<polygon fill="midnightblue" stroke="midnightblue" points="556.65,-212.317 567.244,-212.497 559.074,-205.75 556.65,-212.317"/>
</g>
<!-- Node133 -->
<g id="node11" class="node"><title>Node133</title>
<g id="a_node11"><a xlink:href="../../df/d2d/util_8cpp.html#a8e80ae045580407e9f2028dc5f7b954c" target="_top" xlink:title="fStartedNewLine is a state variable held by the calling context that will suppress printing of the ti...">
<polygon fill="white" stroke="black" points="553.5,-174.5 553.5,-193.5 647.5,-193.5 647.5,-174.5 553.5,-174.5"/>
<text text-anchor="middle" x="600.5" y="-181.5" font-family="Helvetica,sans-Serif" font-size="10.00">LogTimestampStr</text>
</a>
</g>
</g>
<!-- Node131&#45;&gt;Node133 -->
<g id="edge11" class="edge"><title>Node131&#45;&gt;Node133</title>
<path fill="none" stroke="midnightblue" d="M489.014,-154.433C508.13,-159.549 532.844,-166.163 554.05,-171.837"/>
<polygon fill="midnightblue" stroke="midnightblue" points="553.26,-175.249 563.825,-174.453 555.07,-168.487 553.26,-175.249"/>
</g>
<!-- Node137 -->
<g id="node15" class="node"><title>Node137</title>
<g id="a_node15"><a xlink:href="../../df/d2d/util_8cpp.html#a751ff5f21d880737811136b5e0bcea12" target="_top" xlink:title="DebugPrintInit">
<polygon fill="white" stroke="black" points="561,-136.5 561,-155.5 640,-155.5 640,-136.5 561,-136.5"/>
<text text-anchor="middle" x="600.5" y="-143.5" font-family="Helvetica,sans-Serif" font-size="10.00">DebugPrintInit</text>
</a>
</g>
</g>
<!-- Node131&#45;&gt;Node137 -->
<g id="edge15" class="edge"><title>Node131&#45;&gt;Node137</title>
<path fill="none" stroke="midnightblue" d="M489.014,-146C507.188,-146 530.422,-146 550.891,-146"/>
<polygon fill="midnightblue" stroke="midnightblue" points="550.991,-149.5 560.991,-146 550.991,-142.5 550.991,-149.5"/>
</g>
<!-- Node138 -->
<g id="node16" class="node"><title>Node138</title>
<g id="a_node16"><a xlink:href="../../df/d2d/util_8cpp.html#ab83866a054745d4b30a3948a1b44beba" target="_top" xlink:title="GetDataDir">
<polygon fill="white" stroke="black" points="567.5,-98.5 567.5,-117.5 633.5,-117.5 633.5,-98.5 567.5,-98.5"/>
<text text-anchor="middle" x="600.5" y="-105.5" font-family="Helvetica,sans-Serif" font-size="10.00">GetDataDir</text>
</a>
</g>
</g>
<!-- Node131&#45;&gt;Node138 -->
<g id="edge16" class="edge"><title>Node131&#45;&gt;Node138</title>
<path fill="none" stroke="midnightblue" d="M489.014,-137.567C509.137,-132.182 535.465,-125.136 557.373,-119.273"/>
<polygon fill="midnightblue" stroke="midnightblue" points="558.334,-122.64 567.089,-116.673 556.524,-115.877 558.334,-122.64"/>
</g>
<!-- Node142 -->
<g id="node20" class="node"><title>Node142</title>
<g id="a_node20"><a xlink:href="../../df/d2d/util_8cpp.html#a7c125ce70fa6b09e1de0c4a404fc2b6f" target="_top" xlink:title="FileWriteStr">
<polygon fill="white" stroke="black" points="566.5,-60.5 566.5,-79.5 634.5,-79.5 634.5,-60.5 566.5,-60.5"/>
<text text-anchor="middle" x="600.5" y="-67.5" font-family="Helvetica,sans-Serif" font-size="10.00">FileWriteStr</text>
</a>
</g>
</g>
<!-- Node131&#45;&gt;Node142 -->
<g id="edge20" class="edge"><title>Node131&#45;&gt;Node142</title>
<path fill="none" stroke="midnightblue" d="M469.792,-136.446C486.042,-124.165 515.908,-102.787 544,-89 548.343,-86.8687 552.985,-84.8741 557.665,-83.039"/>
<polygon fill="midnightblue" stroke="midnightblue" points="559.074,-86.2498 567.244,-79.5033 556.65,-79.6829 559.074,-86.2498"/>
</g>
<!-- Node132&#45;&gt;Node130 -->
<g id="edge10" class="edge"><title>Node132&#45;&gt;Node130</title>
<path fill="none" stroke="midnightblue" d="M642.758,-231.589C664.431,-236.626 691.183,-242.844 714.13,-248.177"/>
<polygon fill="midnightblue" stroke="midnightblue" points="713.506,-251.625 724.039,-250.48 715.091,-244.807 713.506,-251.625"/>
</g>
<!-- Node134 -->
<g id="node12" class="node"><title>Node134</title>
<g id="a_node12"><a xlink:href="../../d6/d3c/utiltime_8cpp.html#a474bed4c01c8a1d18330dceccf865e1e" target="_top" xlink:title="Return a time useful for the debug log. ">
<polygon fill="white" stroke="black" points="716.5,-212.5 716.5,-231.5 815.5,-231.5 815.5,-212.5 716.5,-212.5"/>
<text text-anchor="middle" x="766" y="-219.5" font-family="Helvetica,sans-Serif" font-size="10.00">GetLogTimeMicros</text>
</a>
</g>
</g>
<!-- Node133&#45;&gt;Node134 -->
<g id="edge12" class="edge"><title>Node133&#45;&gt;Node134</title>
<path fill="none" stroke="midnightblue" d="M642.758,-193.589C664.431,-198.626 691.183,-204.844 714.13,-210.177"/>
<polygon fill="midnightblue" stroke="midnightblue" points="713.506,-213.625 724.039,-212.48 715.091,-206.807 713.506,-213.625"/>
</g>
<!-- Node136 -->
<g id="node14" class="node"><title>Node136</title>
<g id="a_node14"><a xlink:href="../../d6/d3c/utiltime_8cpp.html#a749bc6776c8ec72d7c5e4dea56aee415" target="_top" xlink:title="DateTimeStrFormat">
<polygon fill="white" stroke="black" points="714.5,-174.5 714.5,-193.5 817.5,-193.5 817.5,-174.5 714.5,-174.5"/>
<text text-anchor="middle" x="766" y="-181.5" font-family="Helvetica,sans-Serif" font-size="10.00">DateTimeStrFormat</text>
</a>
</g>
</g>
<!-- Node133&#45;&gt;Node136 -->
<g id="edge14" class="edge"><title>Node133&#45;&gt;Node136</title>
<path fill="none" stroke="midnightblue" d="M647.915,-184C665.44,-184 685.647,-184 704.289,-184"/>
<polygon fill="midnightblue" stroke="midnightblue" points="704.457,-187.5 714.457,-184 704.457,-180.5 704.457,-187.5"/>
</g>
<!-- Node135 -->
<g id="node13" class="node"><title>Node135</title>
<g id="a_node13"><a xlink:href="../../d6/d3c/utiltime_8cpp.html#a0c5a06b50cd805b1923552114494c029" target="_top" xlink:title="GetTimeMicros">
<polygon fill="white" stroke="black" points="875,-212.5 875,-231.5 958,-231.5 958,-212.5 875,-212.5"/>
<text text-anchor="middle" x="916.5" y="-219.5" font-family="Helvetica,sans-Serif" font-size="10.00">GetTimeMicros</text>
</a>
</g>
</g>
<!-- Node134&#45;&gt;Node135 -->
<g id="edge13" class="edge"><title>Node134&#45;&gt;Node135</title>
<path fill="none" stroke="midnightblue" d="M815.624,-222C831.306,-222 848.726,-222 864.57,-222"/>
<polygon fill="midnightblue" stroke="midnightblue" points="864.719,-225.5 874.719,-222 864.719,-218.5 864.719,-225.5"/>
</g>
<!-- Node139 -->
<g id="node17" class="node"><title>Node139</title>
<g id="a_node17"><a xlink:href="../../df/d2d/util_8cpp.html#ab272995de020a3bcbf743be630e485c6" target="_top" xlink:title="GetDefaultDataDir">
<polygon fill="white" stroke="black" points="717,-136.5 717,-155.5 815,-155.5 815,-136.5 717,-136.5"/>
<text text-anchor="middle" x="766" y="-143.5" font-family="Helvetica,sans-Serif" font-size="10.00">GetDefaultDataDir</text>
</a>
</g>
</g>
<!-- Node138&#45;&gt;Node139 -->
<g id="edge17" class="edge"><title>Node138&#45;&gt;Node139</title>
<path fill="none" stroke="midnightblue" d="M633.802,-115.508C656.743,-120.839 688.006,-128.105 714.26,-134.207"/>
<polygon fill="midnightblue" stroke="midnightblue" points="713.516,-137.627 724.049,-136.482 715.101,-130.809 713.516,-137.627"/>
</g>
<!-- Node140 -->
<g id="node18" class="node"><title>Node140</title>
<g id="a_node18"><a xlink:href="../../d9/d44/chainparamsbase_8cpp.html#a06ef5bfd0efb53d13bbf4276726e84ab" target="_top" xlink:title="Return the currently selected parameters. ">
<polygon fill="white" stroke="black" points="729.5,-98.5 729.5,-117.5 802.5,-117.5 802.5,-98.5 729.5,-98.5"/>
<text text-anchor="middle" x="766" y="-105.5" font-family="Helvetica,sans-Serif" font-size="10.00">BaseParams</text>
</a>
</g>
</g>
<!-- Node138&#45;&gt;Node140 -->
<g id="edge18" class="edge"><title>Node138&#45;&gt;Node140</title>
<path fill="none" stroke="midnightblue" d="M633.802,-108C658.229,-108 692.09,-108 719.293,-108"/>
<polygon fill="midnightblue" stroke="midnightblue" points="719.359,-111.5 729.359,-108 719.359,-104.5 719.359,-111.5"/>
</g>
<!-- Node141 -->
<g id="node19" class="node"><title>Node141</title>
<g id="a_node19"><a xlink:href="../../d2/dfc/class_c_base_chain_params.html#a4b142e94ae27f860522dd5efef41fb67" target="_top" xlink:title="CBaseChainParams::DataDir">
<polygon fill="white" stroke="black" points="693,-60.5 693,-79.5 839,-79.5 839,-60.5 693,-60.5"/>
<text text-anchor="middle" x="766" y="-67.5" font-family="Helvetica,sans-Serif" font-size="10.00">CBaseChainParams::DataDir</text>
</a>
</g>
</g>
<!-- Node138&#45;&gt;Node141 -->
<g id="edge19" class="edge"><title>Node138&#45;&gt;Node141</title>
<path fill="none" stroke="midnightblue" d="M633.802,-100.492C656.743,-95.1606 688.006,-87.8946 714.26,-81.7928"/>
<polygon fill="midnightblue" stroke="midnightblue" points="715.101,-85.1908 724.049,-79.5178 713.516,-78.3725 715.101,-85.1908"/>
</g>
<!-- Node144 -->
<g id="node22" class="node"><title>Node144</title>
<g id="a_node22"><a xlink:href="../../d8/d42/classtinyformat_1_1detail_1_1_format_iterator.html#a46377a804f72dbad1e508d2fbaa18ce9" target="_top" xlink:title="tinyformat::detail\l::FormatIterator::finish">
<polygon fill="white" stroke="black" points="544,-8 544,-38 657,-38 657,-8 544,-8"/>
<text text-anchor="start" x="552" y="-26" font-family="Helvetica,sans-Serif" font-size="10.00">tinyformat::detail</text>
<text text-anchor="middle" x="600.5" y="-15" font-family="Helvetica,sans-Serif" font-size="10.00">::FormatIterator::finish</text>
</a>
</g>
</g>
<!-- Node143&#45;&gt;Node144 -->
<g id="edge22" class="edge"><title>Node143&#45;&gt;Node144</title>
<path fill="none" stroke="midnightblue" d="M501.263,-49.9805C511.915,-47.055 523.531,-43.8648 534.924,-40.7357"/>
<polygon fill="midnightblue" stroke="midnightblue" points="536.133,-44.0333 544.849,-38.0098 534.279,-37.2832 536.133,-44.0333"/>
</g>
<!-- Node145 -->
<g id="node23" class="node"><title>Node145</title>
<g id="a_node23"><a xlink:href="../../d8/d42/classtinyformat_1_1detail_1_1_format_iterator.html#af3bbb8259ac0593ec2268ef5863311d5" target="_top" xlink:title="tinyformat::detail\l::FormatIterator::printFormat\lStringLiteral">
<polygon fill="white" stroke="black" points="696,-0.5 696,-41.5 836,-41.5 836,-0.5 696,-0.5"/>
<text text-anchor="start" x="704" y="-29.5" font-family="Helvetica,sans-Serif" font-size="10.00">tinyformat::detail</text>
<text text-anchor="start" x="704" y="-18.5" font-family="Helvetica,sans-Serif" font-size="10.00">::FormatIterator::printFormat</text>
<text text-anchor="middle" x="766" y="-7.5" font-family="Helvetica,sans-Serif" font-size="10.00">StringLiteral</text>
</a>
</g>
</g>
<!-- Node144&#45;&gt;Node145 -->
<g id="edge23" class="edge"><title>Node144&#45;&gt;Node145</title>
<path fill="none" stroke="midnightblue" d="M657.31,-22.3173C666.51,-22.2048 676.2,-22.0862 685.841,-21.9683"/>
<polygon fill="midnightblue" stroke="midnightblue" points="685.892,-25.468 695.848,-21.8459 685.806,-18.4686 685.892,-25.468"/>
</g>
<!-- Node146&#45;&gt;Node126 -->
<g id="edge26" class="edge"><title>Node146&#45;&gt;Node126</title>
<path fill="none" stroke="midnightblue" d="M221.007,-184C236.315,-184 254.502,-184 271.196,-184"/>
<polygon fill="midnightblue" stroke="midnightblue" points="271.359,-187.5 281.359,-184 271.359,-180.5 271.359,-187.5"/>
</g>
<!-- Node146&#45;&gt;Node128 -->
<g id="edge25" class="edge"><title>Node146&#45;&gt;Node128</title>
<path fill="none" stroke="midnightblue" d="M219.945,-174.411C240.214,-168.768 265.805,-161.644 286.29,-155.941"/>
<polygon fill="midnightblue" stroke="midnightblue" points="287.49,-159.24 296.185,-153.187 285.613,-152.497 287.49,-159.24"/>
</g>
</g>
</svg>
