<?xml version="1.0" encoding="UTF-8" standalone="no"?>
<!DOCTYPE svg PUBLIC "-//W3C//DTD SVG 1.1//EN"
 "http://www.w3.org/Graphics/SVG/1.1/DTD/svg11.dtd">
<!-- Generated by graphviz version 2.38.0 (20140413.2041)
 -->
<!-- Title: CTxMemPool::RemoveStaged Pages: 1 -->
<!--zoomable 379 -->
<svg id="main" version="1.1" xmlns="http://www.w3.org/2000/svg" xmlns:xlink="http://www.w3.org/1999/xlink" xml:space="preserve" onload="init(evt)">
<style type="text/css"><![CDATA[
.edge:hover path { stroke: red; }
.edge:hover polygon { stroke: red; fill: red; }
]]></style>
<script type="text/javascript"><![CDATA[
var edges = document.getElementsByTagName('g');
if (edges && edges.length) {
  for (var i=0;i<edges.length;i++) {
    if (edges[i].id.substr(0,4)=='edge') {
      edges[i].setAttribute('class','edge');
    }
  }
}
]]></script>
        <defs>
                <circle id="rim" cx="0" cy="0" r="7"/>
                <circle id="rim2" cx="0" cy="0" r="3.5"/>
                <g id="zoomPlus">
                        <use xlink:href="#rim" fill="#404040">
                                <set attributeName="fill" to="#808080" begin="zoomplus.mouseover" end="zoomplus.mouseout"/>
                        </use>
                        <path d="M-4,0h8M0,-4v8" fill="none" stroke="white" stroke-width="1.5" pointer-events="none"/>
                </g>
                <g id="zoomMin">
                        <use xlink:href="#rim" fill="#404040">
                                <set attributeName="fill" to="#808080" begin="zoomminus.mouseover" end="zoomminus.mouseout"/>
                        </use>
                        <path d="M-4,0h8" fill="none" stroke="white" stroke-width="1.5" pointer-events="none"/>
                </g>
                <g id="dirArrow">
                        <path fill="none" stroke="white" stroke-width="1.5" d="M0,-3.0v7 M-2.5,-0.5L0,-3.0L2.5,-0.5"/>
                </g>
               <g id="resetDef">
                       <use xlink:href="#rim2" fill="#404040">
                               <set attributeName="fill" to="#808080" begin="reset.mouseover" end="reset.mouseout"/>
                       </use>
               </g>
        </defs>

<script type="text/javascript">
var viewWidth = 1587;
var viewHeight = 379;
var sectionId = 'dynsection-62';
</script>
<script xlink:href="../../svgpan.js"/>
<svg id="graph" class="graph">
<g id="viewport">
<title>CTxMemPool::RemoveStaged</title>
<polygon fill="white" stroke="none" points="-4,4 -4,-375 1583,-375 1583,4 -4,4"/>
<!-- Node2386 -->
<g id="node1" class="node"><title>Node2386</title>
<polygon fill="#bfbfbf" stroke="black" points="0,-184.5 0,-203.5 150,-203.5 150,-184.5 0,-184.5"/>
<text text-anchor="middle" x="75" y="-191.5" font-family="Helvetica,sans-Serif" font-size="10.00">CTxMemPool::RemoveStaged</text>
</g>
<!-- Node2387 -->
<g id="node2" class="node"><title>Node2387</title>
<g id="a_node2"><a xlink:href="../../db/d98/class_c_tx_mem_pool.html#ab88e4013df24a814545aa2a142d907a8" target="_top" xlink:title="Before calling removeUnchecked for a given transaction, UpdateForRemoveFromMempool must be called on ...">
<polygon fill="white" stroke="black" points="186.5,-228.5 186.5,-247.5 350.5,-247.5 350.5,-228.5 186.5,-228.5"/>
<text text-anchor="middle" x="268.5" y="-235.5" font-family="Helvetica,sans-Serif" font-size="10.00">CTxMemPool::removeUnchecked</text>
</a>
</g>
</g>
<!-- Node2386&#45;&gt;Node2387 -->
<g id="edge1" class="edge"><title>Node2386&#45;&gt;Node2387</title>
<path fill="none" stroke="midnightblue" d="M117.553,-203.547C146.411,-210.178 185.064,-219.059 215.897,-226.143"/>
<polygon fill="midnightblue" stroke="midnightblue" points="215.499,-229.643 226.028,-228.471 217.066,-222.821 215.499,-229.643"/>
</g>
<!-- Node2412 -->
<g id="node27" class="node"><title>Node2412</title>
<g id="a_node27"><a xlink:href="../../db/d98/class_c_tx_mem_pool.html#a198883c2a8c25d20aea8c2d197cccf53" target="_top" xlink:title="For each transaction being removed, update ancestors and any direct children. ">
<polygon fill="white" stroke="black" points="186,-113 186,-143 351,-143 351,-113 186,-113"/>
<text text-anchor="start" x="194" y="-131" font-family="Helvetica,sans-Serif" font-size="10.00">CTxMemPool::UpdateForRemove</text>
<text text-anchor="middle" x="268.5" y="-120" font-family="Helvetica,sans-Serif" font-size="10.00">FromMempool</text>
</a>
</g>
</g>
<!-- Node2386&#45;&gt;Node2412 -->
<g id="edge28" class="edge"><title>Node2386&#45;&gt;Node2412</title>
<path fill="none" stroke="midnightblue" d="M103.846,-184.403C132.576,-174.501 178.111,-158.808 213.864,-146.486"/>
<polygon fill="midnightblue" stroke="midnightblue" points="215.353,-149.675 223.666,-143.107 213.072,-143.057 215.353,-149.675"/>
</g>
<!-- Node2388 -->
<g id="node3" class="node"><title>Node2388</title>
<g id="a_node3"><a xlink:href="../../d4/df9/namespacememusage.html#a24d4e7ba4b087b7c854e819c37e20ea0" target="_top" xlink:title="Dynamic memory usage for built&#45;in types is zero. ">
<polygon fill="white" stroke="black" points="402.5,-321.5 402.5,-340.5 540.5,-340.5 540.5,-321.5 402.5,-321.5"/>
<text text-anchor="middle" x="471.5" y="-328.5" font-family="Helvetica,sans-Serif" font-size="10.00">memusage::DynamicUsage</text>
</a>
</g>
</g>
<!-- Node2387&#45;&gt;Node2388 -->
<g id="edge2" class="edge"><title>Node2387&#45;&gt;Node2388</title>
<path fill="none" stroke="midnightblue" d="M281.76,-247.722C302.319,-263.548 345.576,-294.833 387,-312 393.183,-314.562 399.773,-316.811 406.436,-318.777"/>
<polygon fill="midnightblue" stroke="midnightblue" points="405.642,-322.188 416.212,-321.459 407.494,-315.438 405.642,-322.188"/>
</g>
<!-- Node2389 -->
<g id="node4" class="node"><title>Node2389</title>
<g id="a_node4"><a xlink:href="../../d7/d86/class_c_block_policy_estimator.html#a52cc7162762f37f5a246dc7a16838aa9" target="_top" xlink:title="Remove a transaction from the mempool tracking stats. ">
<polygon fill="white" stroke="black" points="412.5,-272 412.5,-302 530.5,-302 530.5,-272 412.5,-272"/>
<text text-anchor="start" x="420.5" y="-290" font-family="Helvetica,sans-Serif" font-size="10.00">CBlockPolicyEstimator</text>
<text text-anchor="middle" x="471.5" y="-279" font-family="Helvetica,sans-Serif" font-size="10.00">::removeTx</text>
</a>
</g>
</g>
<!-- Node2387&#45;&gt;Node2389 -->
<g id="edge3" class="edge"><title>Node2387&#45;&gt;Node2389</title>
<path fill="none" stroke="midnightblue" d="M308.732,-247.564C335.329,-254.048 371.185,-262.789 402.38,-270.394"/>
<polygon fill="midnightblue" stroke="midnightblue" points="401.782,-273.85 412.327,-272.818 403.44,-267.049 401.782,-273.85"/>
</g>
<!-- Node2410 -->
<g id="node25" class="node"><title>Node2410</title>
<g id="a_node25"><a xlink:href="../../db/d98/class_c_tx_mem_pool.html#a347e70ba792d5738158536b513f56aa5" target="_top" xlink:title="CTxMemPool::removeAddress\lIndex">
<polygon fill="white" stroke="black" points="396,-223 396,-253 547,-253 547,-223 396,-223"/>
<text text-anchor="start" x="404" y="-241" font-family="Helvetica,sans-Serif" font-size="10.00">CTxMemPool::removeAddress</text>
<text text-anchor="middle" x="471.5" y="-230" font-family="Helvetica,sans-Serif" font-size="10.00">Index</text>
</a>
</g>
</g>
<!-- Node2387&#45;&gt;Node2410 -->
<g id="edge26" class="edge"><title>Node2387&#45;&gt;Node2410</title>
<path fill="none" stroke="midnightblue" d="M350.675,-238C362.22,-238 374.119,-238 385.73,-238"/>
<polygon fill="midnightblue" stroke="midnightblue" points="385.844,-241.5 395.844,-238 385.844,-234.5 385.844,-241.5"/>
</g>
<!-- Node2411 -->
<g id="node26" class="node"><title>Node2411</title>
<g id="a_node26"><a xlink:href="../../db/d98/class_c_tx_mem_pool.html#af9da5a96517cbc52516da1552f834685" target="_top" xlink:title="CTxMemPool::removeSpentIndex">
<polygon fill="white" stroke="black" points="389.5,-184.5 389.5,-203.5 553.5,-203.5 553.5,-184.5 389.5,-184.5"/>
<text text-anchor="middle" x="471.5" y="-191.5" font-family="Helvetica,sans-Serif" font-size="10.00">CTxMemPool::removeSpentIndex</text>
</a>
</g>
</g>
<!-- Node2387&#45;&gt;Node2411 -->
<g id="edge27" class="edge"><title>Node2387&#45;&gt;Node2411</title>
<path fill="none" stroke="midnightblue" d="M313.114,-228.453C343.668,-221.764 384.681,-212.786 417.18,-205.672"/>
<polygon fill="midnightblue" stroke="midnightblue" points="417.951,-209.086 426.971,-203.529 416.454,-202.248 417.951,-209.086"/>
</g>
<!-- Node2390 -->
<g id="node5" class="node"><title>Node2390</title>
<g id="a_node5"><a xlink:href="../../d8/d3c/util_8h.html#aab1f837a2366f424bdc996fdf6352171" target="_top" xlink:title="Zero&#45;arg versions of logging and error, these are not covered by TINYFORMAT_FOREACH_ARGNUM. ">
<polygon fill="white" stroke="black" points="858,-296.5 858,-315.5 911,-315.5 911,-296.5 858,-296.5"/>
<text text-anchor="middle" x="884.5" y="-303.5" font-family="Helvetica,sans-Serif" font-size="10.00">LogPrint</text>
</a>
</g>
</g>
<!-- Node2389&#45;&gt;Node2390 -->
<g id="edge4" class="edge"><title>Node2389&#45;&gt;Node2390</title>
<path fill="none" stroke="midnightblue" d="M530.63,-298.127C550.065,-301.343 571.896,-304.412 592,-306 683.757,-313.249 792.268,-310.198 847.414,-307.823"/>
<polygon fill="midnightblue" stroke="midnightblue" points="847.878,-311.306 857.71,-307.361 847.563,-304.313 847.878,-311.306"/>
</g>
<!-- Node2408 -->
<g id="node23" class="node"><title>Node2408</title>
<g id="a_node23"><a xlink:href="../../d1/d03/class_tx_confirm_stats.html#a421aa07c38b5f51dae2f2bdd725ba169" target="_top" xlink:title="Remove a transaction from mempool tracking stats. ">
<polygon fill="white" stroke="black" points="612.5,-277.5 612.5,-296.5 747.5,-296.5 747.5,-277.5 612.5,-277.5"/>
<text text-anchor="middle" x="680" y="-284.5" font-family="Helvetica,sans-Serif" font-size="10.00">TxConfirmStats::removeTx</text>
</a>
</g>
</g>
<!-- Node2389&#45;&gt;Node2408 -->
<g id="edge23" class="edge"><title>Node2389&#45;&gt;Node2408</title>
<path fill="none" stroke="midnightblue" d="M530.571,-287C552.804,-287 578.519,-287 602.234,-287"/>
<polygon fill="midnightblue" stroke="midnightblue" points="602.26,-290.5 612.259,-287 602.259,-283.5 602.26,-290.5"/>
</g>
<!-- Node2409 -->
<g id="node24" class="node"><title>Node2409</title>
<g id="a_node24"><a xlink:href="../../db/d50/classbase__blob.html#a7a0d25782830d8b087c4da839f3ccdeb" target="_top" xlink:title="base_blob::ToString">
<polygon fill="white" stroke="black" points="628,-239.5 628,-258.5 732,-258.5 732,-239.5 628,-239.5"/>
<text text-anchor="middle" x="680" y="-246.5" font-family="Helvetica,sans-Serif" font-size="10.00">base_blob::ToString</text>
</a>
</g>
</g>
<!-- Node2389&#45;&gt;Node2409 -->
<g id="edge25" class="edge"><title>Node2389&#45;&gt;Node2409</title>
<path fill="none" stroke="midnightblue" d="M530.571,-276.314C557.77,-271.309 590.179,-265.345 617.764,-260.269"/>
<polygon fill="midnightblue" stroke="midnightblue" points="618.488,-263.694 627.69,-258.442 617.221,-256.81 618.488,-263.694"/>
</g>
<!-- Node2391 -->
<g id="node6" class="node"><title>Node2391</title>
<g id="a_node6"><a xlink:href="../../d8/d1a/namespacetinyformat_1_1detail.html#aa4b0590b3e34562c2d252a2086cec7ba" target="_top" xlink:title="tinyformat::detail\l::format">
<polygon fill="white" stroke="black" points="1020.5,-335 1020.5,-365 1109.5,-365 1109.5,-335 1020.5,-335"/>
<text text-anchor="start" x="1028.5" y="-353" font-family="Helvetica,sans-Serif" font-size="10.00">tinyformat::detail</text>
<text text-anchor="middle" x="1065" y="-342" font-family="Helvetica,sans-Serif" font-size="10.00">::format</text>
</a>
</g>
</g>
<!-- Node2390&#45;&gt;Node2391 -->
<g id="edge5" class="edge"><title>Node2390&#45;&gt;Node2391</title>
<path fill="none" stroke="midnightblue" d="M911.075,-312.304C936.847,-318.657 977.399,-328.653 1010.27,-336.756"/>
<polygon fill="midnightblue" stroke="midnightblue" points="1009.65,-340.208 1020.2,-339.203 1011.33,-333.412 1009.65,-340.208"/>
</g>
<!-- Node2394 -->
<g id="node9" class="node"><title>Node2394</title>
<g id="a_node9"><a xlink:href="../../d8/d3c/util_8h.html#a343d2a13efe00125f78d25dafb0a8d98" target="_top" xlink:title="Return true if log accepts specified category. ">
<polygon fill="white" stroke="black" points="1013.5,-296.5 1013.5,-315.5 1116.5,-315.5 1116.5,-296.5 1013.5,-296.5"/>
<text text-anchor="middle" x="1065" y="-303.5" font-family="Helvetica,sans-Serif" font-size="10.00">LogAcceptCategory</text>
</a>
</g>
</g>
<!-- Node2390&#45;&gt;Node2394 -->
<g id="edge8" class="edge"><title>Node2390&#45;&gt;Node2394</title>
<path fill="none" stroke="midnightblue" d="M911.075,-306C935.083,-306 971.918,-306 1003.42,-306"/>
<polygon fill="midnightblue" stroke="midnightblue" points="1003.44,-309.5 1013.44,-306 1003.44,-302.5 1003.44,-309.5"/>
</g>
<!-- Node2396 -->
<g id="node11" class="node"><title>Node2396</title>
<g id="a_node11"><a xlink:href="../../d8/d3c/util_8h.html#afd4c3002b2797c0560adddb6af3ca1da" target="_top" xlink:title="Send a string to the log output. ">
<polygon fill="white" stroke="black" points="1032.5,-201.5 1032.5,-220.5 1097.5,-220.5 1097.5,-201.5 1032.5,-201.5"/>
<text text-anchor="middle" x="1065" y="-208.5" font-family="Helvetica,sans-Serif" font-size="10.00">LogPrintStr</text>
</a>
</g>
</g>
<!-- Node2390&#45;&gt;Node2396 -->
<g id="edge10" class="edge"><title>Node2390&#45;&gt;Node2396</title>
<path fill="none" stroke="midnightblue" d="M903.598,-296.368C935.085,-279.61 1000.1,-245.008 1036.96,-225.392"/>
<polygon fill="midnightblue" stroke="midnightblue" points="1038.94,-228.304 1046.12,-220.516 1035.65,-222.125 1038.94,-228.304"/>
</g>
<!-- Node2392 -->
<g id="node7" class="node"><title>Node2392</title>
<g id="a_node7"><a xlink:href="../../d8/d42/classtinyformat_1_1detail_1_1_format_iterator.html#a46377a804f72dbad1e508d2fbaa18ce9" target="_top" xlink:title="tinyformat::detail\l::FormatIterator::finish">
<polygon fill="white" stroke="black" points="1165,-335 1165,-365 1278,-365 1278,-335 1165,-335"/>
<text text-anchor="start" x="1173" y="-353" font-family="Helvetica,sans-Serif" font-size="10.00">tinyformat::detail</text>
<text text-anchor="middle" x="1221.5" y="-342" font-family="Helvetica,sans-Serif" font-size="10.00">::FormatIterator::finish</text>
</a>
</g>
</g>
<!-- Node2391&#45;&gt;Node2392 -->
<g id="edge6" class="edge"><title>Node2391&#45;&gt;Node2392</title>
<path fill="none" stroke="midnightblue" d="M1109.86,-350C1123.78,-350 1139.49,-350 1154.6,-350"/>
<polygon fill="midnightblue" stroke="midnightblue" points="1154.94,-353.5 1164.94,-350 1154.94,-346.5 1154.94,-353.5"/>
</g>
<!-- Node2393 -->
<g id="node8" class="node"><title>Node2393</title>
<g id="a_node8"><a xlink:href="../../d8/d42/classtinyformat_1_1detail_1_1_format_iterator.html#af3bbb8259ac0593ec2268ef5863311d5" target="_top" xlink:title="tinyformat::detail\l::FormatIterator::printFormat\lStringLiteral">
<polygon fill="white" stroke="black" points="1317,-329.5 1317,-370.5 1457,-370.5 1457,-329.5 1317,-329.5"/>
<text text-anchor="start" x="1325" y="-358.5" font-family="Helvetica,sans-Serif" font-size="10.00">tinyformat::detail</text>
<text text-anchor="start" x="1325" y="-347.5" font-family="Helvetica,sans-Serif" font-size="10.00">::FormatIterator::printFormat</text>
<text text-anchor="middle" x="1387" y="-336.5" font-family="Helvetica,sans-Serif" font-size="10.00">StringLiteral</text>
</a>
</g>
</g>
<!-- Node2392&#45;&gt;Node2393 -->
<g id="edge7" class="edge"><title>Node2392&#45;&gt;Node2393</title>
<path fill="none" stroke="midnightblue" d="M1278.31,-350C1287.51,-350 1297.2,-350 1306.84,-350"/>
<polygon fill="midnightblue" stroke="midnightblue" points="1306.85,-353.5 1316.85,-350 1306.85,-346.5 1306.85,-353.5"/>
</g>
<!-- Node2395 -->
<g id="node10" class="node"><title>Node2395</title>
<g id="a_node10"><a xlink:href="../../df/d2d/util_8cpp.html#a1db3aa900bfa259ae1fe04068f2accfc" target="_top" xlink:title="GetThreadName">
<polygon fill="white" stroke="black" points="1342.5,-255.5 1342.5,-274.5 1431.5,-274.5 1431.5,-255.5 1342.5,-255.5"/>
<text text-anchor="middle" x="1387" y="-262.5" font-family="Helvetica,sans-Serif" font-size="10.00">GetThreadName</text>
</a>
</g>
</g>
<!-- Node2394&#45;&gt;Node2395 -->
<g id="edge9" class="edge"><title>Node2394&#45;&gt;Node2395</title>
<path fill="none" stroke="midnightblue" d="M1116.73,-303.049C1159.8,-300.163 1223.15,-295.018 1278,-287 1296.52,-284.293 1316.65,-280.443 1334.46,-276.719"/>
<polygon fill="midnightblue" stroke="midnightblue" points="1335.6,-280.055 1344.65,-274.55 1334.14,-273.209 1335.6,-280.055"/>
</g>
<!-- Node2397 -->
<g id="node12" class="node"><title>Node2397</title>
<g id="a_node12"><a xlink:href="../../df/d2d/util_8cpp.html#a751ff5f21d880737811136b5e0bcea12" target="_top" xlink:title="DebugPrintInit">
<polygon fill="white" stroke="black" points="1182,-258.5 1182,-277.5 1261,-277.5 1261,-258.5 1182,-258.5"/>
<text text-anchor="middle" x="1221.5" y="-265.5" font-family="Helvetica,sans-Serif" font-size="10.00">DebugPrintInit</text>
</a>
</g>
</g>
<!-- Node2396&#45;&gt;Node2397 -->
<g id="edge11" class="edge"><title>Node2396&#45;&gt;Node2397</title>
<path fill="none" stroke="midnightblue" d="M1090.32,-220.62C1110.3,-228.456 1139.39,-239.704 1165,-249 1170.58,-251.026 1176.5,-253.114 1182.31,-255.131"/>
<polygon fill="midnightblue" stroke="midnightblue" points="1181.32,-258.491 1191.91,-258.436 1183.59,-251.872 1181.32,-258.491"/>
</g>
<!-- Node2398 -->
<g id="node13" class="node"><title>Node2398</title>
<g id="a_node13"><a xlink:href="../../df/d2d/util_8cpp.html#a7c125ce70fa6b09e1de0c4a404fc2b6f" target="_top" xlink:title="FileWriteStr">
<polygon fill="white" stroke="black" points="1187.5,-220.5 1187.5,-239.5 1255.5,-239.5 1255.5,-220.5 1187.5,-220.5"/>
<text text-anchor="middle" x="1221.5" y="-227.5" font-family="Helvetica,sans-Serif" font-size="10.00">FileWriteStr</text>
</a>
</g>
</g>
<!-- Node2396&#45;&gt;Node2398 -->
<g id="edge12" class="edge"><title>Node2396&#45;&gt;Node2398</title>
<path fill="none" stroke="midnightblue" d="M1097.64,-214.891C1120.61,-217.715 1151.95,-221.57 1177.24,-224.679"/>
<polygon fill="midnightblue" stroke="midnightblue" points="1176.95,-228.171 1187.3,-225.917 1177.8,-221.223 1176.95,-228.171"/>
</g>
<!-- Node2399 -->
<g id="node14" class="node"><title>Node2399</title>
<g id="a_node14"><a xlink:href="../../df/d2d/util_8cpp.html#ab83866a054745d4b30a3948a1b44beba" target="_top" xlink:title="GetDataDir">
<polygon fill="white" stroke="black" points="1188.5,-144.5 1188.5,-163.5 1254.5,-163.5 1254.5,-144.5 1188.5,-144.5"/>
<text text-anchor="middle" x="1221.5" y="-151.5" font-family="Helvetica,sans-Serif" font-size="10.00">GetDataDir</text>
</a>
</g>
</g>
<!-- Node2396&#45;&gt;Node2399 -->
<g id="edge13" class="edge"><title>Node2396&#45;&gt;Node2399</title>
<path fill="none" stroke="midnightblue" d="M1090.32,-201.38C1110.3,-193.544 1139.39,-182.296 1165,-173 1170.58,-170.974 1176.5,-168.886 1182.31,-166.869"/>
<polygon fill="midnightblue" stroke="midnightblue" points="1183.59,-170.128 1191.91,-163.564 1181.32,-163.509 1183.59,-170.128"/>
</g>
<!-- Node2403 -->
<g id="node18" class="node"><title>Node2403</title>
<g id="a_node18"><a xlink:href="../../df/d2d/util_8cpp.html#af0c31e37a5891e021f9b339696398a28" target="_top" xlink:title="fStartedNewLine is a state variable held by the calling context that will suppress printing of the th...">
<polygon fill="white" stroke="black" points="1171,-182.5 1171,-201.5 1272,-201.5 1272,-182.5 1171,-182.5"/>
<text text-anchor="middle" x="1221.5" y="-189.5" font-family="Helvetica,sans-Serif" font-size="10.00">LogThreadNameStr</text>
</a>
</g>
</g>
<!-- Node2396&#45;&gt;Node2403 -->
<g id="edge17" class="edge"><title>Node2396&#45;&gt;Node2403</title>
<path fill="none" stroke="midnightblue" d="M1097.64,-207.109C1115.85,-204.869 1139.34,-201.981 1160.89,-199.331"/>
<polygon fill="midnightblue" stroke="midnightblue" points="1161.46,-202.787 1170.96,-198.093 1160.6,-195.84 1161.46,-202.787"/>
</g>
<!-- Node2404 -->
<g id="node19" class="node"><title>Node2404</title>
<g id="a_node19"><a xlink:href="../../df/d2d/util_8cpp.html#a8e80ae045580407e9f2028dc5f7b954c" target="_top" xlink:title="fStartedNewLine is a state variable held by the calling context that will suppress printing of the ti...">
<polygon fill="white" stroke="black" points="1174.5,-87.5 1174.5,-106.5 1268.5,-106.5 1268.5,-87.5 1174.5,-87.5"/>
<text text-anchor="middle" x="1221.5" y="-94.5" font-family="Helvetica,sans-Serif" font-size="10.00">LogTimestampStr</text>
</a>
</g>
</g>
<!-- Node2396&#45;&gt;Node2404 -->
<g id="edge19" class="edge"><title>Node2396&#45;&gt;Node2404</title>
<path fill="none" stroke="midnightblue" d="M1078.03,-201.425C1096.51,-186.799 1133.08,-158.155 1165,-135 1175.42,-127.441 1187.16,-119.344 1197.15,-112.576"/>
<polygon fill="midnightblue" stroke="midnightblue" points="1199.4,-115.277 1205.74,-106.787 1195.49,-109.471 1199.4,-115.277"/>
</g>
<!-- Node2400 -->
<g id="node15" class="node"><title>Node2400</title>
<g id="a_node15"><a xlink:href="../../d9/d44/chainparamsbase_8cpp.html#a06ef5bfd0efb53d13bbf4276726e84ab" target="_top" xlink:title="Return the currently selected parameters. ">
<polygon fill="white" stroke="black" points="1350.5,-201.5 1350.5,-220.5 1423.5,-220.5 1423.5,-201.5 1350.5,-201.5"/>
<text text-anchor="middle" x="1387" y="-208.5" font-family="Helvetica,sans-Serif" font-size="10.00">BaseParams</text>
</a>
</g>
</g>
<!-- Node2399&#45;&gt;Node2400 -->
<g id="edge14" class="edge"><title>Node2399&#45;&gt;Node2400</title>
<path fill="none" stroke="midnightblue" d="M1253.07,-163.512C1261.26,-166.32 1270.05,-169.567 1278,-173 1294.61,-180.174 1297.14,-185.427 1314,-192 1322.4,-195.276 1331.57,-198.177 1340.46,-200.665"/>
<polygon fill="midnightblue" stroke="midnightblue" points="1339.77,-204.102 1350.33,-203.296 1341.57,-197.338 1339.77,-204.102"/>
</g>
<!-- Node2401 -->
<g id="node16" class="node"><title>Node2401</title>
<g id="a_node16"><a xlink:href="../../d2/dfc/class_c_base_chain_params.html#a4b142e94ae27f860522dd5efef41fb67" target="_top" xlink:title="CBaseChainParams::DataDir">
<polygon fill="white" stroke="black" points="1314,-163.5 1314,-182.5 1460,-182.5 1460,-163.5 1314,-163.5"/>
<text text-anchor="middle" x="1387" y="-170.5" font-family="Helvetica,sans-Serif" font-size="10.00">CBaseChainParams::DataDir</text>
</a>
</g>
</g>
<!-- Node2399&#45;&gt;Node2401 -->
<g id="edge15" class="edge"><title>Node2399&#45;&gt;Node2401</title>
<path fill="none" stroke="midnightblue" d="M1254.8,-157.754C1268.96,-159.399 1286.29,-161.413 1303.65,-163.431"/>
<polygon fill="midnightblue" stroke="midnightblue" points="1303.52,-166.939 1313.86,-164.617 1304.33,-159.986 1303.52,-166.939"/>
</g>
<!-- Node2402 -->
<g id="node17" class="node"><title>Node2402</title>
<g id="a_node17"><a xlink:href="../../df/d2d/util_8cpp.html#ab272995de020a3bcbf743be630e485c6" target="_top" xlink:title="GetDefaultDataDir">
<polygon fill="white" stroke="black" points="1338,-125.5 1338,-144.5 1436,-144.5 1436,-125.5 1338,-125.5"/>
<text text-anchor="middle" x="1387" y="-132.5" font-family="Helvetica,sans-Serif" font-size="10.00">GetDefaultDataDir</text>
</a>
</g>
</g>
<!-- Node2399&#45;&gt;Node2402 -->
<g id="edge16" class="edge"><title>Node2399&#45;&gt;Node2402</title>
<path fill="none" stroke="midnightblue" d="M1254.8,-150.246C1275.66,-147.822 1303.4,-144.599 1327.99,-141.741"/>
<polygon fill="midnightblue" stroke="midnightblue" points="1328.43,-145.214 1337.95,-140.583 1327.62,-138.261 1328.43,-145.214"/>
</g>
<!-- Node2403&#45;&gt;Node2395 -->
<g id="edge18" class="edge"><title>Node2403&#45;&gt;Node2395</title>
<path fill="none" stroke="midnightblue" d="M1253.07,-201.512C1261.26,-204.32 1270.05,-207.567 1278,-211 1294.61,-218.174 1297.86,-221.822 1314,-230 1327.97,-237.078 1343.58,-244.704 1356.69,-251.026"/>
<polygon fill="midnightblue" stroke="midnightblue" points="1355.21,-254.195 1365.74,-255.372 1358.24,-247.886 1355.21,-254.195"/>
</g>
<!-- Node2405 -->
<g id="node20" class="node"><title>Node2405</title>
<g id="a_node20"><a xlink:href="../../d6/d3c/utiltime_8cpp.html#a749bc6776c8ec72d7c5e4dea56aee415" target="_top" xlink:title="DateTimeStrFormat">
<polygon fill="white" stroke="black" points="1335.5,-87.5 1335.5,-106.5 1438.5,-106.5 1438.5,-87.5 1335.5,-87.5"/>
<text text-anchor="middle" x="1387" y="-94.5" font-family="Helvetica,sans-Serif" font-size="10.00">DateTimeStrFormat</text>
</a>
</g>
</g>
<!-- Node2404&#45;&gt;Node2405 -->
<g id="edge20" class="edge"><title>Node2404&#45;&gt;Node2405</title>
<path fill="none" stroke="midnightblue" d="M1268.92,-97C1286.44,-97 1306.65,-97 1325.29,-97"/>
<polygon fill="midnightblue" stroke="midnightblue" points="1325.46,-100.5 1335.46,-97 1325.46,-93.5001 1325.46,-100.5"/>
</g>
<!-- Node2406 -->
<g id="node21" class="node"><title>Node2406</title>
<g id="a_node21"><a xlink:href="../../d6/d3c/utiltime_8cpp.html#a474bed4c01c8a1d18330dceccf865e1e" target="_top" xlink:title="Return a time useful for the debug log. ">
<polygon fill="white" stroke="black" points="1337.5,-49.5 1337.5,-68.5 1436.5,-68.5 1436.5,-49.5 1337.5,-49.5"/>
<text text-anchor="middle" x="1387" y="-56.5" font-family="Helvetica,sans-Serif" font-size="10.00">GetLogTimeMicros</text>
</a>
</g>
</g>
<!-- Node2404&#45;&gt;Node2406 -->
<g id="edge21" class="edge"><title>Node2404&#45;&gt;Node2406</title>
<path fill="none" stroke="midnightblue" d="M1263.76,-87.411C1285.43,-82.3739 1312.18,-76.1562 1335.13,-70.8229"/>
<polygon fill="midnightblue" stroke="midnightblue" points="1336.09,-74.1931 1345.04,-68.5201 1334.51,-67.3748 1336.09,-74.1931"/>
</g>
<!-- Node2407 -->
<g id="node22" class="node"><title>Node2407</title>
<g id="a_node22"><a xlink:href="../../d6/d3c/utiltime_8cpp.html#a0c5a06b50cd805b1923552114494c029" target="_top" xlink:title="GetTimeMicros">
<polygon fill="white" stroke="black" points="1496,-49.5 1496,-68.5 1579,-68.5 1579,-49.5 1496,-49.5"/>
<text text-anchor="middle" x="1537.5" y="-56.5" font-family="Helvetica,sans-Serif" font-size="10.00">GetTimeMicros</text>
</a>
</g>
</g>
<!-- Node2406&#45;&gt;Node2407 -->
<g id="edge22" class="edge"><title>Node2406&#45;&gt;Node2407</title>
<path fill="none" stroke="midnightblue" d="M1436.62,-59C1452.31,-59 1469.73,-59 1485.57,-59"/>
<polygon fill="midnightblue" stroke="midnightblue" points="1485.72,-62.5001 1495.72,-59 1485.72,-55.5001 1485.72,-62.5001"/>
</g>
<!-- Node2408&#45;&gt;Node2390 -->
<g id="edge24" class="edge"><title>Node2408&#45;&gt;Node2390</title>
<path fill="none" stroke="midnightblue" d="M747.587,-293.248C781.011,-296.384 820.168,-300.058 847.844,-302.655"/>
<polygon fill="midnightblue" stroke="midnightblue" points="847.57,-306.144 857.854,-303.594 848.224,-299.175 847.57,-306.144"/>
</g>
<!-- Node2413 -->
<g id="node28" class="node"><title>Node2413</title>
<g id="a_node28"><a xlink:href="../../db/d98/class_c_tx_mem_pool.html#ae755bb5ccada190327c26d09388b4139" target="_top" xlink:title="Try to calculate all in&#45;mempool ancestors of entry. ">
<polygon fill="white" stroke="black" points="398.5,-135 398.5,-165 544.5,-165 544.5,-135 398.5,-135"/>
<text text-anchor="start" x="406.5" y="-153" font-family="Helvetica,sans-Serif" font-size="10.00">CTxMemPool::CalculateMem</text>
<text text-anchor="middle" x="471.5" y="-142" font-family="Helvetica,sans-Serif" font-size="10.00">PoolAncestors</text>
</a>
</g>
</g>
<!-- Node2412&#45;&gt;Node2413 -->
<g id="edge29" class="edge"><title>Node2412&#45;&gt;Node2413</title>
<path fill="none" stroke="midnightblue" d="M351.254,-136.948C363.397,-138.277 375.918,-139.648 388.074,-140.978"/>
<polygon fill="midnightblue" stroke="midnightblue" points="387.861,-144.476 398.183,-142.085 388.623,-137.517 387.861,-144.476"/>
</g>
<!-- Node2417 -->
<g id="node32" class="node"><title>Node2417</title>
<g id="a_node32"><a xlink:href="../../db/d98/class_c_tx_mem_pool.html#a1e5540275b4a83746d491a5741ec85be" target="_top" xlink:title="Update ancestors of hash to add/remove it as a descendant transaction. ">
<polygon fill="white" stroke="black" points="387,-96.5 387,-115.5 556,-115.5 556,-96.5 387,-96.5"/>
<text text-anchor="middle" x="471.5" y="-103.5" font-family="Helvetica,sans-Serif" font-size="10.00">CTxMemPool::UpdateAncestorsOf</text>
</a>
</g>
</g>
<!-- Node2412&#45;&gt;Node2417 -->
<g id="edge33" class="edge"><title>Node2412&#45;&gt;Node2417</title>
<path fill="none" stroke="midnightblue" d="M351.254,-119.052C359.691,-118.128 368.311,-117.185 376.864,-116.249"/>
<polygon fill="midnightblue" stroke="midnightblue" points="377.299,-119.722 386.859,-115.155 376.537,-112.764 377.299,-119.722"/>
</g>
<!-- Node2421 -->
<g id="node36" class="node"><title>Node2421</title>
<g id="a_node36"><a xlink:href="../../db/d98/class_c_tx_mem_pool.html#a87623d672631b33a26e38810fa2d0006" target="_top" xlink:title="Sever link between specified transaction and direct children. ">
<polygon fill="white" stroke="black" points="396.5,-33 396.5,-63 546.5,-63 546.5,-33 396.5,-33"/>
<text text-anchor="start" x="404.5" y="-51" font-family="Helvetica,sans-Serif" font-size="10.00">CTxMemPool::UpdateChildren</text>
<text text-anchor="middle" x="471.5" y="-40" font-family="Helvetica,sans-Serif" font-size="10.00">ForRemoval</text>
</a>
</g>
</g>
<!-- Node2412&#45;&gt;Node2421 -->
<g id="edge38" class="edge"><title>Node2412&#45;&gt;Node2421</title>
<path fill="none" stroke="midnightblue" d="M307.307,-112.953C340.05,-99.9204 387.576,-81.0045 422.904,-66.9438"/>
<polygon fill="midnightblue" stroke="midnightblue" points="424.525,-70.0656 432.522,-63.1157 421.936,-63.5618 424.525,-70.0656"/>
</g>
<!-- Node2414 -->
<g id="node29" class="node"><title>Node2414</title>
<g id="a_node29"><a xlink:href="../../db/d98/class_c_tx_mem_pool.html#ac3336a567bb5cd890057482170e5553d" target="_top" xlink:title="CTxMemPool::GetMemPoolParents">
<polygon fill="white" stroke="black" points="593.5,-114.5 593.5,-133.5 766.5,-133.5 766.5,-114.5 593.5,-114.5"/>
<text text-anchor="middle" x="680" y="-121.5" font-family="Helvetica,sans-Serif" font-size="10.00">CTxMemPool::GetMemPoolParents</text>
</a>
</g>
</g>
<!-- Node2413&#45;&gt;Node2414 -->
<g id="edge30" class="edge"><title>Node2413&#45;&gt;Node2414</title>
<path fill="none" stroke="midnightblue" d="M544.724,-140.906C560.423,-138.93 577.178,-136.82 593.34,-134.785"/>
<polygon fill="midnightblue" stroke="midnightblue" points="593.827,-138.252 603.312,-133.53 592.953,-131.306 593.827,-138.252"/>
</g>
<!-- Node2415 -->
<g id="node30" class="node"><title>Node2415</title>
<g id="a_node30"><a xlink:href="../../d3/df0/class_c_tx_mem_pool_entry.html#a2deed4202061edf8b040a3f554417c20" target="_top" xlink:title="CTxMemPoolEntry::GetTx">
<polygon fill="white" stroke="black" points="613.5,-190.5 613.5,-209.5 746.5,-209.5 746.5,-190.5 613.5,-190.5"/>
<text text-anchor="middle" x="680" y="-197.5" font-family="Helvetica,sans-Serif" font-size="10.00">CTxMemPoolEntry::GetTx</text>
</a>
</g>
</g>
<!-- Node2413&#45;&gt;Node2415 -->
<g id="edge31" class="edge"><title>Node2413&#45;&gt;Node2415</title>
<path fill="none" stroke="midnightblue" d="M528.62,-165.037C548.586,-170.26 571.257,-176.046 592,-181 602.256,-183.449 613.222,-185.942 623.793,-188.281"/>
<polygon fill="midnightblue" stroke="midnightblue" points="623.252,-191.746 633.769,-190.471 624.752,-184.908 623.252,-191.746"/>
</g>
<!-- Node2416 -->
<g id="node31" class="node"><title>Node2416</title>
<g id="a_node31"><a xlink:href="../../d3/df0/class_c_tx_mem_pool_entry.html#a89325fcaa8efbd1d6fe68c39d7d676b0" target="_top" xlink:title="CTxMemPoolEntry::GetTxSize">
<polygon fill="white" stroke="black" points="604,-152.5 604,-171.5 756,-171.5 756,-152.5 604,-152.5"/>
<text text-anchor="middle" x="680" y="-159.5" font-family="Helvetica,sans-Serif" font-size="10.00">CTxMemPoolEntry::GetTxSize</text>
</a>
</g>
</g>
<!-- Node2413&#45;&gt;Node2416 -->
<g id="edge32" class="edge"><title>Node2413&#45;&gt;Node2416</title>
<path fill="none" stroke="midnightblue" d="M544.724,-154.197C560.519,-155.115 577.383,-156.095 593.637,-157.039"/>
<polygon fill="midnightblue" stroke="midnightblue" points="593.477,-160.536 603.664,-157.622 593.884,-153.548 593.477,-160.536"/>
</g>
<!-- Node2417&#45;&gt;Node2414 -->
<g id="edge34" class="edge"><title>Node2417&#45;&gt;Node2414</title>
<path fill="none" stroke="midnightblue" d="M556.194,-113.295C565.048,-114.067 574.101,-114.856 583.08,-115.639"/>
<polygon fill="midnightblue" stroke="midnightblue" points="582.905,-119.137 593.171,-116.519 583.513,-112.163 582.905,-119.137"/>
</g>
<!-- Node2418 -->
<g id="node33" class="node"><title>Node2418</title>
<g id="a_node33"><a xlink:href="../../db/d98/class_c_tx_mem_pool.html#a93ee11ea2adc6021d5bf0842516222b4" target="_top" xlink:title="CTxMemPool::UpdateChild">
<polygon fill="white" stroke="black" points="611.5,-76.5 611.5,-95.5 748.5,-95.5 748.5,-76.5 611.5,-76.5"/>
<text text-anchor="middle" x="680" y="-83.5" font-family="Helvetica,sans-Serif" font-size="10.00">CTxMemPool::UpdateChild</text>
</a>
</g>
</g>
<!-- Node2417&#45;&gt;Node2418 -->
<g id="edge35" class="edge"><title>Node2417&#45;&gt;Node2418</title>
<path fill="none" stroke="midnightblue" d="M556.194,-97.8941C571.091,-96.4512 586.552,-94.9538 601.274,-93.5279"/>
<polygon fill="midnightblue" stroke="midnightblue" points="601.717,-97.0015 611.333,-92.5537 601.042,-90.0341 601.717,-97.0015"/>
</g>
<!-- Node2419 -->
<g id="node34" class="node"><title>Node2419</title>
<g id="a_node34"><a xlink:href="../../d4/df9/namespacememusage.html#adb94a858deacb691d493a604f572a9a9" target="_top" xlink:title="memusage::IncrementalDynamic\lUsage">
<polygon fill="white" stroke="black" points="804,-33 804,-63 965,-63 965,-33 804,-33"/>
<text text-anchor="start" x="812" y="-51" font-family="Helvetica,sans-Serif" font-size="10.00">memusage::IncrementalDynamic</text>
<text text-anchor="middle" x="884.5" y="-40" font-family="Helvetica,sans-Serif" font-size="10.00">Usage</text>
</a>
</g>
</g>
<!-- Node2418&#45;&gt;Node2419 -->
<g id="edge36" class="edge"><title>Node2418&#45;&gt;Node2419</title>
<path fill="none" stroke="midnightblue" d="M731.838,-76.46C750.65,-72.9299 772.579,-68.8148 793.82,-64.8289"/>
<polygon fill="midnightblue" stroke="midnightblue" points="794.662,-68.232 803.845,-62.9477 793.371,-61.3521 794.662,-68.232"/>
</g>
<!-- Node2420 -->
<g id="node35" class="node"><title>Node2420</title>
<g id="a_node35"><a xlink:href="../../d4/df9/namespacememusage.html#ae8ade104f83bf4c608c282adc365bf90" target="_top" xlink:title="Compute the total memory used by allocating alloc bytes. ">
<polygon fill="white" stroke="black" points="1001,-38.5 1001,-57.5 1129,-57.5 1129,-38.5 1001,-38.5"/>
<text text-anchor="middle" x="1065" y="-45.5" font-family="Helvetica,sans-Serif" font-size="10.00">memusage::MallocUsage</text>
</a>
</g>
</g>
<!-- Node2419&#45;&gt;Node2420 -->
<g id="edge37" class="edge"><title>Node2419&#45;&gt;Node2420</title>
<path fill="none" stroke="midnightblue" d="M965.092,-48C973.619,-48 982.264,-48 990.712,-48"/>
<polygon fill="midnightblue" stroke="midnightblue" points="990.897,-51.5001 1000.9,-48 990.897,-44.5001 990.897,-51.5001"/>
</g>
<!-- Node2422 -->
<g id="node37" class="node"><title>Node2422</title>
<g id="a_node37"><a xlink:href="../../db/d98/class_c_tx_mem_pool.html#a0f163f91b8590b86acd43b26438d7ee1" target="_top" xlink:title="CTxMemPool::GetMemPoolChildren">
<polygon fill="white" stroke="black" points="592,-38.5 592,-57.5 768,-57.5 768,-38.5 592,-38.5"/>
<text text-anchor="middle" x="680" y="-45.5" font-family="Helvetica,sans-Serif" font-size="10.00">CTxMemPool::GetMemPoolChildren</text>
</a>
</g>
</g>
<!-- Node2421&#45;&gt;Node2422 -->
<g id="edge39" class="edge"><title>Node2421&#45;&gt;Node2422</title>
<path fill="none" stroke="midnightblue" d="M546.759,-48C558.028,-48 569.797,-48 581.469,-48"/>
<polygon fill="midnightblue" stroke="midnightblue" points="581.686,-51.5001 591.686,-48 581.686,-44.5001 581.686,-51.5001"/>
</g>
<!-- Node2423 -->
<g id="node38" class="node"><title>Node2423</title>
<g id="a_node38"><a xlink:href="../../db/d98/class_c_tx_mem_pool.html#ae6cc140209f782be93c522048595b797" target="_top" xlink:title="CTxMemPool::UpdateParent">
<polygon fill="white" stroke="black" points="608.5,-0.5 608.5,-19.5 751.5,-19.5 751.5,-0.5 608.5,-0.5"/>
<text text-anchor="middle" x="680" y="-7.5" font-family="Helvetica,sans-Serif" font-size="10.00">CTxMemPool::UpdateParent</text>
</a>
</g>
</g>
<!-- Node2421&#45;&gt;Node2423 -->
<g id="edge40" class="edge"><title>Node2421&#45;&gt;Node2423</title>
<path fill="none" stroke="midnightblue" d="M546.759,-34.3348C569.922,-30.0724 595.203,-25.4203 617.399,-21.3358"/>
<polygon fill="midnightblue" stroke="midnightblue" points="618.16,-24.7546 627.361,-19.5025 616.893,-17.8702 618.16,-24.7546"/>
</g>
<!-- Node2423&#45;&gt;Node2419 -->
<g id="edge41" class="edge"><title>Node2423&#45;&gt;Node2419</title>
<path fill="none" stroke="midnightblue" d="M731.838,-19.54C750.65,-23.0701 772.579,-27.1852 793.82,-31.1711"/>
<polygon fill="midnightblue" stroke="midnightblue" points="793.371,-34.6479 803.845,-33.0523 794.662,-27.768 793.371,-34.6479"/>
</g>
</g>
</svg>
        <g id="navigator" transform="translate(0 0)" fill="#404254">
                <rect fill="#f2f5e9" fill-opacity="0.5" stroke="#606060" stroke-width=".5" x="0" y="0" width="60" height="60"/>
                <use id="zoomplus" xlink:href="#zoomPlus" x="17" y="9" onmousedown="handleZoom(evt,'in')"/>
                <use id="zoomminus" xlink:href="#zoomMin" x="42" y="9" onmousedown="handleZoom(evt,'out')"/>
                <use id="reset" xlink:href="#resetDef" x="30" y="36" onmousedown="handleReset()"/>
                <g id="arrowUp" xlink:href="#dirArrow" transform="translate(30 24)" onmousedown="handlePan(0,-1)">
                  <use xlink:href="#rim" fill="#404040">
                        <set attributeName="fill" to="#808080" begin="arrowUp.mouseover" end="arrowUp.mouseout"/>
                  </use>
                  <path fill="none" stroke="white" stroke-width="1.5" d="M0,-3.0v7 M-2.5,-0.5L0,-3.0L2.5,-0.5"/>
                </g>
                <g id="arrowRight" xlink:href="#dirArrow" transform="rotate(90) translate(36 -43)" onmousedown="handlePan(1,0)">
                  <use xlink:href="#rim" fill="#404040">
                        <set attributeName="fill" to="#808080" begin="arrowRight.mouseover" end="arrowRight.mouseout"/>
                  </use>
                  <path fill="none" stroke="white" stroke-width="1.5" d="M0,-3.0v7 M-2.5,-0.5L0,-3.0L2.5,-0.5"/>
                </g>
                <g id="arrowDown" xlink:href="#dirArrow" transform="rotate(180) translate(-30 -48)" onmousedown="handlePan(0,1)">
                  <use xlink:href="#rim" fill="#404040">
                        <set attributeName="fill" to="#808080" begin="arrowDown.mouseover" end="arrowDown.mouseout"/>
                  </use>
                  <path fill="none" stroke="white" stroke-width="1.5" d="M0,-3.0v7 M-2.5,-0.5L0,-3.0L2.5,-0.5"/>
                </g>
                <g id="arrowLeft" xlink:href="#dirArrow" transform="rotate(270) translate(-36 17)" onmousedown="handlePan(-1,0)">
                  <use xlink:href="#rim" fill="#404040">
                        <set attributeName="fill" to="#808080" begin="arrowLeft.mouseover" end="arrowLeft.mouseout"/>
                  </use>
                  <path fill="none" stroke="white" stroke-width="1.5" d="M0,-3.0v7 M-2.5,-0.5L0,-3.0L2.5,-0.5"/>
                </g>
        </g>
        <svg viewBox="0 0 15 15" width="100%" height="30px" preserveAspectRatio="xMaxYMin meet">
         <g id="arrow_out" transform="scale(0.3 0.3)">
          <a xlink:href="class_c_tx_mem_pool_abed0125e15673d8ad9daec4309f8d513_cgraph_org.svg" target="_base">
           <rect id="button" ry="5" rx="5" y="6" x="6" height="38" width="38"
                fill="#f2f5e9" fill-opacity="0.5" stroke="#606060" stroke-width="1.0"/>
           <path id="arrow"
             d="M 11.500037,31.436501 C 11.940474,20.09759 22.043105,11.32322 32.158766,21.979434 L 37.068811,17.246167 C 37.068811,17.246167 37.088388,32 37.088388,32 L 22.160133,31.978069 C 22.160133,31.978069 26.997745,27.140456 26.997745,27.140456 C 18.528582,18.264221 13.291696,25.230495 11.500037,31.436501 z"
             style="fill:#404040;"/>
          </a>
         </g>
        </svg>
</svg>
