<?xml version="1.0" encoding="UTF-8" standalone="no"?>
<!DOCTYPE svg PUBLIC "-//W3C//DTD SVG 1.1//EN"
 "http://www.w3.org/Graphics/SVG/1.1/DTD/svg11.dtd">
<!-- Generated by graphviz version 2.38.0 (20140413.2041)
 -->
<!-- Title: CConnman::DumpData Pages: 1 -->
<svg width="420pt" height="66pt"
 viewBox="0.00 0.00 420.00 66.00" xmlns="http://www.w3.org/2000/svg" xmlns:xlink="http://www.w3.org/1999/xlink">
<g id="graph0" class="graph" transform="scale(1 1) rotate(0) translate(4 62)">
<title>CConnman::DumpData</title>
<polygon fill="white" stroke="none" points="-4,4 -4,-62 416,-62 416,4 -4,4"/>
<!-- Node1034 -->
<g id="node1" class="node"><title>Node1034</title>
<polygon fill="#bfbfbf" stroke="black" points="0,-19.5 0,-38.5 119,-38.5 119,-19.5 0,-19.5"/>
<text text-anchor="middle" x="59.5" y="-26.5" font-family="Helvetica,sans-Serif" font-size="10.00">CConnman::DumpData</text>
</g>
<!-- Node1035 -->
<g id="node2" class="node"><title>Node1035</title>
<g id="a_node2"><a xlink:href="../../d1/d42/class_c_connman.html#a80caf4db74fcf515068f169e085ff84e" target="_top" xlink:title="CConnman::Start">
<polygon fill="white" stroke="black" points="155,-38.5 155,-57.5 248,-57.5 248,-38.5 155,-38.5"/>
<text text-anchor="middle" x="201.5" y="-45.5" font-family="Helvetica,sans-Serif" font-size="10.00">CConnman::Start</text>
</a>
</g>
</g>
<!-- Node1034&#45;&gt;Node1035 -->
<g id="edge1" class="edge"><title>Node1034&#45;&gt;Node1035</title>
<path fill="none" stroke="midnightblue" d="M129.254,-38.3308C137.973,-39.5143 146.719,-40.7012 154.949,-41.8181"/>
<polygon fill="midnightblue" stroke="midnightblue" points="129.441,-34.8243 119.061,-36.9476 128.5,-41.7607 129.441,-34.8243"/>
</g>
<!-- Node1036 -->
<g id="node3" class="node"><title>Node1036</title>
<g id="a_node3"><a xlink:href="../../d1/d42/class_c_connman.html#a289dca0ee65310fcfc5b552249fc0401" target="_top" xlink:title="CConnman::Stop">
<polygon fill="white" stroke="black" points="155.5,-0.5 155.5,-19.5 247.5,-19.5 247.5,-0.5 155.5,-0.5"/>
<text text-anchor="middle" x="201.5" y="-7.5" font-family="Helvetica,sans-Serif" font-size="10.00">CConnman::Stop</text>
</a>
</g>
</g>
<!-- Node1034&#45;&gt;Node1036 -->
<g id="edge2" class="edge"><title>Node1034&#45;&gt;Node1036</title>
<path fill="none" stroke="midnightblue" d="M129.094,-19.6909C138.018,-18.4797 146.973,-17.2643 155.378,-16.1237"/>
<polygon fill="midnightblue" stroke="midnightblue" points="128.5,-16.2393 119.061,-21.0524 129.441,-23.1757 128.5,-16.2393"/>
</g>
<!-- Node1037 -->
<g id="node4" class="node"><title>Node1037</title>
<g id="a_node4"><a xlink:href="../../d1/d42/class_c_connman.html#ab4bc83003310d960423d963148d5c9ec" target="_top" xlink:title="CConnman::~CConnman">
<polygon fill="white" stroke="black" points="284,-0.5 284,-19.5 412,-19.5 412,-0.5 284,-0.5"/>
<text text-anchor="middle" x="348" y="-7.5" font-family="Helvetica,sans-Serif" font-size="10.00">CConnman::~CConnman</text>
</a>
</g>
</g>
<!-- Node1036&#45;&gt;Node1037 -->
<g id="edge3" class="edge"><title>Node1036&#45;&gt;Node1037</title>
<path fill="none" stroke="midnightblue" d="M257.958,-10C266.426,-10 275.22,-10 283.839,-10"/>
<polygon fill="midnightblue" stroke="midnightblue" points="257.824,-6.5001 247.824,-10 257.824,-13.5001 257.824,-6.5001"/>
</g>
</g>
</svg>
