<?xml version="1.0" encoding="UTF-8" standalone="no"?>
<!DOCTYPE svg PUBLIC "-//W3C//DTD SVG 1.1//EN"
 "http://www.w3.org/Graphics/SVG/1.1/DTD/svg11.dtd">
<!-- Generated by graphviz version 2.38.0 (20140413.2041)
 -->
<!-- Title: CPrivateSendServer::AddScriptSig Pages: 1 -->
<svg width="1172pt" height="117pt"
 viewBox="0.00 0.00 1172.00 116.97" xmlns="http://www.w3.org/2000/svg" xmlns:xlink="http://www.w3.org/1999/xlink">
<g id="graph0" class="graph" transform="scale(1 1) rotate(0) translate(4 112.97)">
<title>CPrivateSendServer::AddScriptSig</title>
<polygon fill="white" stroke="none" points="-4,4 -4,-112.97 1168,-112.97 1168,4 -4,4"/>
<!-- Node358 -->
<g id="node1" class="node"><title>Node358</title>
<polygon fill="#bfbfbf" stroke="black" points="0,-52 0,-82 106,-82 106,-52 0,-52"/>
<text text-anchor="start" x="8" y="-70" font-family="Helvetica,sans-Serif" font-size="10.00">CPrivateSendServer</text>
<text text-anchor="middle" x="53" y="-59" font-family="Helvetica,sans-Serif" font-size="10.00">::AddScriptSig</text>
</g>
<!-- Node359 -->
<g id="node2" class="node"><title>Node359</title>
<g id="a_node2"><a xlink:href="../../d8/d67/class_c_private_send_server.html#ad51576edb65312fa566ba6f0351a7b6d" target="_top" xlink:title="CPrivateSendServer\l::ProcessMessage">
<polygon fill="white" stroke="black" points="142,-52 142,-82 248,-82 248,-52 142,-52"/>
<text text-anchor="start" x="150" y="-70" font-family="Helvetica,sans-Serif" font-size="10.00">CPrivateSendServer</text>
<text text-anchor="middle" x="195" y="-59" font-family="Helvetica,sans-Serif" font-size="10.00">::ProcessMessage</text>
</a>
</g>
</g>
<!-- Node358&#45;&gt;Node359 -->
<g id="edge1" class="edge"><title>Node358&#45;&gt;Node359</title>
<path fill="none" stroke="midnightblue" d="M116.387,-67C124.885,-67 133.534,-67 141.826,-67"/>
<polygon fill="midnightblue" stroke="midnightblue" points="116.131,-63.5001 106.131,-67 116.131,-70.5001 116.131,-63.5001"/>
</g>
<!-- Node360 -->
<g id="node3" class="node"><title>Node360</title>
<g id="a_node3"><a xlink:href="../../d2/d83/net__processing_8cpp.html#a193d0ece6e2f2f7ee37352ac9720bb83" target="_top" xlink:title="ProcessMessage">
<polygon fill="white" stroke="black" points="284,-57.5 284,-76.5 376,-76.5 376,-57.5 284,-57.5"/>
<text text-anchor="middle" x="330" y="-64.5" font-family="Helvetica,sans-Serif" font-size="10.00">ProcessMessage</text>
</a>
</g>
</g>
<!-- Node359&#45;&gt;Node360 -->
<g id="edge2" class="edge"><title>Node359&#45;&gt;Node360</title>
<path fill="none" stroke="midnightblue" d="M258.245,-67C266.884,-67 275.619,-67 283.864,-67"/>
<polygon fill="midnightblue" stroke="midnightblue" points="258.183,-63.5001 248.183,-67 258.183,-70.5001 258.183,-63.5001"/>
</g>
<!-- Node361 -->
<g id="node4" class="node"><title>Node361</title>
<g id="a_node4"><a xlink:href="../../d0/dd8/net__processing_8h.html#a7fa42e7ffd6e6ba5b7537af248e30fc8" target="_top" xlink:title="Process protocol messages received from a given node. ">
<polygon fill="white" stroke="black" points="412,-57.5 412,-76.5 510,-76.5 510,-57.5 412,-57.5"/>
<text text-anchor="middle" x="461" y="-64.5" font-family="Helvetica,sans-Serif" font-size="10.00">ProcessMessages</text>
</a>
</g>
</g>
<!-- Node360&#45;&gt;Node361 -->
<g id="edge3" class="edge"><title>Node360&#45;&gt;Node361</title>
<path fill="none" stroke="midnightblue" d="M386.259,-67C394.694,-67 403.344,-67 411.615,-67"/>
<polygon fill="midnightblue" stroke="midnightblue" points="386.118,-63.5001 376.118,-67 386.118,-70.5001 386.118,-63.5001"/>
</g>
<!-- Node362 -->
<g id="node5" class="node"><title>Node362</title>
<g id="a_node5"><a xlink:href="../../d0/dd8/net__processing_8h.html#ab02615ff65f91d69f8d786ec900baa8a" target="_top" xlink:title="Register with a network node to receive its signals. ">
<polygon fill="white" stroke="black" points="550,-76.5 550,-95.5 659,-95.5 659,-76.5 550,-76.5"/>
<text text-anchor="middle" x="604.5" y="-83.5" font-family="Helvetica,sans-Serif" font-size="10.00">RegisterNodeSignals</text>
</a>
</g>
</g>
<!-- Node361&#45;&gt;Node362 -->
<g id="edge4" class="edge"><title>Node361&#45;&gt;Node362</title>
<path fill="none" stroke="midnightblue" d="M520.265,-74.8236C529.971,-76.1268 540,-77.4734 549.59,-78.7612"/>
<polygon fill="midnightblue" stroke="midnightblue" points="520.677,-71.3476 510.301,-73.4856 519.746,-78.2853 520.677,-71.3476"/>
</g>
<!-- Node367 -->
<g id="node10" class="node"><title>Node367</title>
<g id="a_node10"><a xlink:href="../../d0/dd8/net__processing_8h.html#a3ef0cc6e9d9d6435ee2a5569244d6ebd" target="_top" xlink:title="Unregister a network node. ">
<polygon fill="white" stroke="black" points="546,-38.5 546,-57.5 663,-57.5 663,-38.5 546,-38.5"/>
<text text-anchor="middle" x="604.5" y="-45.5" font-family="Helvetica,sans-Serif" font-size="10.00">UnregisterNodeSignals</text>
</a>
</g>
</g>
<!-- Node361&#45;&gt;Node367 -->
<g id="edge9" class="edge"><title>Node361&#45;&gt;Node367</title>
<path fill="none" stroke="midnightblue" d="M520.343,-59.166C528.7,-58.0439 537.295,-56.8898 545.642,-55.7689"/>
<polygon fill="midnightblue" stroke="midnightblue" points="519.746,-55.7147 510.301,-60.5144 520.677,-62.6524 519.746,-55.7147"/>
</g>
<!-- Node363 -->
<g id="node6" class="node"><title>Node363</title>
<g id="a_node6"><a xlink:href="../../d8/dc0/init_8h.html#a6f0784aa332573f949b0975205572b28" target="_top" xlink:title="Initialize Dash Core. ">
<polygon fill="white" stroke="black" points="719.5,-76.5 719.5,-95.5 772.5,-95.5 772.5,-76.5 719.5,-76.5"/>
<text text-anchor="middle" x="746" y="-83.5" font-family="Helvetica,sans-Serif" font-size="10.00">AppInit2</text>
</a>
</g>
</g>
<!-- Node362&#45;&gt;Node363 -->
<g id="edge5" class="edge"><title>Node362&#45;&gt;Node363</title>
<path fill="none" stroke="midnightblue" d="M669.375,-86C687.095,-86 705.324,-86 719.444,-86"/>
<polygon fill="midnightblue" stroke="midnightblue" points="669.035,-82.5001 659.035,-86 669.035,-89.5001 669.035,-82.5001"/>
</g>
<!-- Node364 -->
<g id="node7" class="node"><title>Node364</title>
<g id="a_node7"><a xlink:href="../../dd/de1/dashd_8cpp.html#ac59316b767e6984e1285f0531275286b" target="_top" xlink:title="AppInit">
<polygon fill="white" stroke="black" points="1008.5,-76.5 1008.5,-95.5 1055.5,-95.5 1055.5,-76.5 1008.5,-76.5"/>
<text text-anchor="middle" x="1032" y="-83.5" font-family="Helvetica,sans-Serif" font-size="10.00">AppInit</text>
</a>
</g>
</g>
<!-- Node363&#45;&gt;Node364 -->
<g id="edge6" class="edge"><title>Node363&#45;&gt;Node364</title>
<path fill="none" stroke="midnightblue" d="M782.527,-96.0906C796.837,-99.6657 813.578,-103.237 829,-105 877.131,-110.503 889.801,-109.873 938,-105 962.266,-102.547 989.557,-96.5796 1008.27,-91.9816"/>
<polygon fill="midnightblue" stroke="midnightblue" points="783.148,-92.636 772.59,-93.5125 781.39,-99.4117 783.148,-92.636"/>
</g>
<!-- Node366 -->
<g id="node9" class="node"><title>Node366</title>
<g id="a_node9"><a xlink:href="../../d2/d76/class_bitcoin_core.html#af34ca069cda1d4362dcc109b4397fb62" target="_top" xlink:title="BitcoinCore::initialize">
<polygon fill="white" stroke="black" points="829,-76.5 829,-95.5 938,-95.5 938,-76.5 829,-76.5"/>
<text text-anchor="middle" x="883.5" y="-83.5" font-family="Helvetica,sans-Serif" font-size="10.00">BitcoinCore::initialize</text>
</a>
</g>
</g>
<!-- Node363&#45;&gt;Node366 -->
<g id="edge8" class="edge"><title>Node363&#45;&gt;Node366</title>
<path fill="none" stroke="midnightblue" d="M783.012,-86C797.027,-86 813.384,-86 828.739,-86"/>
<polygon fill="midnightblue" stroke="midnightblue" points="782.805,-82.5001 772.805,-86 782.805,-89.5001 782.805,-82.5001"/>
</g>
<!-- Node365 -->
<g id="node8" class="node"><title>Node365</title>
<g id="a_node8"><a xlink:href="../../dd/de1/dashd_8cpp.html#a0ddf1224851353fc92bfbff6f499fa97" target="_top" xlink:title="main">
<polygon fill="white" stroke="black" points="1126,-76.5 1126,-95.5 1164,-95.5 1164,-76.5 1126,-76.5"/>
<text text-anchor="middle" x="1145" y="-83.5" font-family="Helvetica,sans-Serif" font-size="10.00">main</text>
</a>
</g>
</g>
<!-- Node364&#45;&gt;Node365 -->
<g id="edge7" class="edge"><title>Node364&#45;&gt;Node365</title>
<path fill="none" stroke="midnightblue" d="M1065.77,-86C1085.33,-86 1109.46,-86 1125.7,-86"/>
<polygon fill="midnightblue" stroke="midnightblue" points="1065.73,-82.5001 1055.73,-86 1065.73,-89.5001 1065.73,-82.5001"/>
</g>
<!-- Node368 -->
<g id="node11" class="node"><title>Node368</title>
<g id="a_node11"><a xlink:href="../../d8/dc0/init_8h.html#a5cb3db83cb0ba2e421f651a1ee1f2cfe" target="_top" xlink:title="Preparing steps before shutting down or restarting the wallet. ">
<polygon fill="white" stroke="black" points="699,-38.5 699,-57.5 793,-57.5 793,-38.5 699,-38.5"/>
<text text-anchor="middle" x="746" y="-45.5" font-family="Helvetica,sans-Serif" font-size="10.00">PrepareShutdown</text>
</a>
</g>
</g>
<!-- Node367&#45;&gt;Node368 -->
<g id="edge10" class="edge"><title>Node367&#45;&gt;Node368</title>
<path fill="none" stroke="midnightblue" d="M673.134,-48C681.773,-48 690.454,-48 698.648,-48"/>
<polygon fill="midnightblue" stroke="midnightblue" points="673.045,-44.5001 663.045,-48 673.045,-51.5001 673.045,-44.5001"/>
</g>
<!-- Node369 -->
<g id="node12" class="node"><title>Node369</title>
<g id="a_node12"><a xlink:href="../../d2/d76/class_bitcoin_core.html#ac2271844c89ebc4c611e7617ce6202e3" target="_top" xlink:title="BitcoinCore::restart">
<polygon fill="white" stroke="black" points="833,-38.5 833,-57.5 934,-57.5 934,-38.5 833,-38.5"/>
<text text-anchor="middle" x="883.5" y="-45.5" font-family="Helvetica,sans-Serif" font-size="10.00">BitcoinCore::restart</text>
</a>
</g>
</g>
<!-- Node368&#45;&gt;Node369 -->
<g id="edge11" class="edge"><title>Node368&#45;&gt;Node369</title>
<path fill="none" stroke="midnightblue" d="M803.285,-48C813.061,-48 823.164,-48 832.75,-48"/>
<polygon fill="midnightblue" stroke="midnightblue" points="803.252,-44.5001 793.252,-48 803.252,-51.5001 803.252,-44.5001"/>
</g>
<!-- Node370 -->
<g id="node13" class="node"><title>Node370</title>
<g id="a_node13"><a xlink:href="../../d8/dc0/init_8h.html#ac5f038c2b480cf9ef5e19e3eba8dbaf9" target="_top" xlink:title="Shutdown is split into 2 parts: Part 1: shut down everything but the main wallet instance (done in Pr...">
<polygon fill="white" stroke="black" points="853.5,-0.5 853.5,-19.5 913.5,-19.5 913.5,-0.5 853.5,-0.5"/>
<text text-anchor="middle" x="883.5" y="-7.5" font-family="Helvetica,sans-Serif" font-size="10.00">Shutdown</text>
</a>
</g>
</g>
<!-- Node368&#45;&gt;Node370 -->
<g id="edge12" class="edge"><title>Node368&#45;&gt;Node370</title>
<path fill="none" stroke="midnightblue" d="M790.93,-35.68C811.39,-29.9422 835.171,-23.2731 853.369,-18.1695"/>
<polygon fill="midnightblue" stroke="midnightblue" points="789.876,-32.3407 781.192,-38.411 791.766,-39.0807 789.876,-32.3407"/>
</g>
<!-- Node370&#45;&gt;Node364 -->
<g id="edge13" class="edge"><title>Node370&#45;&gt;Node364</title>
<path fill="none" stroke="midnightblue" d="M923.173,-22.6455C928.228,-24.614 933.285,-26.748 938,-29 967.563,-43.1186 999.641,-64.1858 1017.33,-76.3625"/>
<polygon fill="midnightblue" stroke="midnightblue" points="924.139,-19.2709 913.546,-19.0768 921.706,-25.8344 924.139,-19.2709"/>
</g>
<!-- Node371 -->
<g id="node14" class="node"><title>Node371</title>
<g id="a_node14"><a xlink:href="../../d2/d76/class_bitcoin_core.html#a94f3f4622ba698e321f3a2e0e686129f" target="_top" xlink:title="BitcoinCore::shutdown">
<polygon fill="white" stroke="black" points="974,-0.5 974,-19.5 1090,-19.5 1090,-0.5 974,-0.5"/>
<text text-anchor="middle" x="1032" y="-7.5" font-family="Helvetica,sans-Serif" font-size="10.00">BitcoinCore::shutdown</text>
</a>
</g>
</g>
<!-- Node370&#45;&gt;Node371 -->
<g id="edge14" class="edge"><title>Node370&#45;&gt;Node371</title>
<path fill="none" stroke="midnightblue" d="M923.966,-10C939.308,-10 957.182,-10 973.879,-10"/>
<polygon fill="midnightblue" stroke="midnightblue" points="923.794,-6.5001 913.794,-10 923.794,-13.5001 923.794,-6.5001"/>
</g>
</g>
</svg>
