<?xml version="1.0" encoding="UTF-8" standalone="no"?>
<!DOCTYPE svg PUBLIC "-//W3C//DTD SVG 1.1//EN"
 "http://www.w3.org/Graphics/SVG/1.1/DTD/svg11.dtd">
<!-- Generated by graphviz version 2.38.0 (20140413.2041)
 -->
<!-- Title: CTxLockCandidate::IsTimedOut Pages: 1 -->
<svg width="1863pt" height="369pt"
 viewBox="0.00 0.00 1863.00 368.64" xmlns="http://www.w3.org/2000/svg" xmlns:xlink="http://www.w3.org/1999/xlink">
<g id="graph0" class="graph" transform="scale(1 1) rotate(0) translate(4 364.636)">
<title>CTxLockCandidate::IsTimedOut</title>
<polygon fill="white" stroke="none" points="-4,4 -4,-364.636 1859,-364.636 1859,4 -4,4"/>
<!-- Node196 -->
<g id="node1" class="node"><title>Node196</title>
<polygon fill="#bfbfbf" stroke="black" points="0,-158.5 0,-177.5 158,-177.5 158,-158.5 0,-158.5"/>
<text text-anchor="middle" x="79" y="-165.5" font-family="Helvetica,sans-Serif" font-size="10.00">CTxLockCandidate::IsTimedOut</text>
</g>
<!-- Node197 -->
<g id="node2" class="node"><title>Node197</title>
<g id="a_node2"><a xlink:href="../../dc/d16/class_c_instant_send.html#aa854169c73e7dac0b460dadf46f54920" target="_top" xlink:title="CInstantSend::ProcessTxLockVote">
<polygon fill="white" stroke="black" points="194,-158.5 194,-177.5 365,-177.5 365,-158.5 194,-158.5"/>
<text text-anchor="middle" x="279.5" y="-165.5" font-family="Helvetica,sans-Serif" font-size="10.00">CInstantSend::ProcessTxLockVote</text>
</a>
</g>
</g>
<!-- Node196&#45;&gt;Node197 -->
<g id="edge1" class="edge"><title>Node196&#45;&gt;Node197</title>
<path fill="none" stroke="midnightblue" d="M168.415,-168C176.872,-168 185.436,-168 193.857,-168"/>
<polygon fill="midnightblue" stroke="midnightblue" points="168.168,-164.5 158.168,-168 168.167,-171.5 168.168,-164.5"/>
</g>
<!-- Node198 -->
<g id="node3" class="node"><title>Node198</title>
<g id="a_node3"><a xlink:href="../../dc/d16/class_c_instant_send.html#a8b573977400f4666751735d616b8755b" target="_top" xlink:title="CInstantSend::ProcessMessage">
<polygon fill="white" stroke="black" points="587,-202.5 587,-221.5 745,-221.5 745,-202.5 587,-202.5"/>
<text text-anchor="middle" x="666" y="-209.5" font-family="Helvetica,sans-Serif" font-size="10.00">CInstantSend::ProcessMessage</text>
</a>
</g>
</g>
<!-- Node197&#45;&gt;Node198 -->
<g id="edge2" class="edge"><title>Node197&#45;&gt;Node198</title>
<path fill="none" stroke="midnightblue" d="M331.668,-179.613C353.004,-184.084 378.103,-188.864 401,-192 463.162,-200.513 534.09,-205.634 586.764,-208.56"/>
<polygon fill="midnightblue" stroke="midnightblue" points="332.348,-176.179 321.838,-177.52 330.89,-183.026 332.348,-176.179"/>
</g>
<!-- Node211 -->
<g id="node16" class="node"><title>Node211</title>
<g id="a_node16"><a xlink:href="../../dc/d16/class_c_instant_send.html#af7952d257a0e598764fba5d7af351df3" target="_top" xlink:title="CInstantSend::ProcessOrphan\lTxLockVotes">
<polygon fill="white" stroke="black" points="401,-153 401,-183 551,-183 551,-153 401,-153"/>
<text text-anchor="start" x="409" y="-171" font-family="Helvetica,sans-Serif" font-size="10.00">CInstantSend::ProcessOrphan</text>
<text text-anchor="middle" x="476" y="-160" font-family="Helvetica,sans-Serif" font-size="10.00">TxLockVotes</text>
</a>
</g>
</g>
<!-- Node197&#45;&gt;Node211 -->
<g id="edge16" class="edge"><title>Node197&#45;&gt;Node211</title>
<path fill="none" stroke="midnightblue" d="M375.308,-168C383.904,-168 392.526,-168 400.904,-168"/>
<polygon fill="midnightblue" stroke="midnightblue" points="375.245,-164.5 365.245,-168 375.245,-171.5 375.245,-164.5"/>
</g>
<!-- Node199 -->
<g id="node4" class="node"><title>Node199</title>
<g id="a_node4"><a xlink:href="../../d2/d83/net__processing_8cpp.html#a193d0ece6e2f2f7ee37352ac9720bb83" target="_top" xlink:title="ProcessMessage">
<polygon fill="white" stroke="black" points="821.5,-202.5 821.5,-221.5 913.5,-221.5 913.5,-202.5 821.5,-202.5"/>
<text text-anchor="middle" x="867.5" y="-209.5" font-family="Helvetica,sans-Serif" font-size="10.00">ProcessMessage</text>
</a>
</g>
</g>
<!-- Node198&#45;&gt;Node199 -->
<g id="edge3" class="edge"><title>Node198&#45;&gt;Node199</title>
<path fill="none" stroke="midnightblue" d="M755.322,-212C778.108,-212 801.7,-212 821.258,-212"/>
<polygon fill="midnightblue" stroke="midnightblue" points="755.275,-208.5 745.275,-212 755.275,-215.5 755.275,-208.5"/>
</g>
<!-- Node200 -->
<g id="node5" class="node"><title>Node200</title>
<g id="a_node5"><a xlink:href="../../d0/dd8/net__processing_8h.html#a7fa42e7ffd6e6ba5b7537af248e30fc8" target="_top" xlink:title="Process protocol messages received from a given node. ">
<polygon fill="white" stroke="black" points="1029,-290.5 1029,-309.5 1127,-309.5 1127,-290.5 1029,-290.5"/>
<text text-anchor="middle" x="1078" y="-297.5" font-family="Helvetica,sans-Serif" font-size="10.00">ProcessMessages</text>
</a>
</g>
</g>
<!-- Node199&#45;&gt;Node200 -->
<g id="edge4" class="edge"><title>Node199&#45;&gt;Node200</title>
<path fill="none" stroke="midnightblue" d="M900.543,-225.524C943.077,-243.476 1017.13,-274.73 1054.32,-290.427"/>
<polygon fill="midnightblue" stroke="midnightblue" points="901.784,-222.249 891.21,-221.585 899.062,-228.698 901.784,-222.249"/>
</g>
<!-- Node201 -->
<g id="node6" class="node"><title>Node201</title>
<g id="a_node6"><a xlink:href="../../d0/dd8/net__processing_8h.html#ab02615ff65f91d69f8d786ec900baa8a" target="_top" xlink:title="Register with a network node to receive its signals. ">
<polygon fill="white" stroke="black" points="1211,-328.5 1211,-347.5 1320,-347.5 1320,-328.5 1211,-328.5"/>
<text text-anchor="middle" x="1265.5" y="-335.5" font-family="Helvetica,sans-Serif" font-size="10.00">RegisterNodeSignals</text>
</a>
</g>
</g>
<!-- Node200&#45;&gt;Node201 -->
<g id="edge5" class="edge"><title>Node200&#45;&gt;Node201</title>
<path fill="none" stroke="midnightblue" d="M1135.67,-311.61C1162.06,-317.014 1193.05,-323.364 1218.03,-328.48"/>
<polygon fill="midnightblue" stroke="midnightblue" points="1136.31,-308.167 1125.81,-309.589 1134.9,-315.025 1136.31,-308.167"/>
</g>
<!-- Node206 -->
<g id="node11" class="node"><title>Node206</title>
<g id="a_node11"><a xlink:href="../../d0/dd8/net__processing_8h.html#a3ef0cc6e9d9d6435ee2a5569244d6ebd" target="_top" xlink:title="Unregister a network node. ">
<polygon fill="white" stroke="black" points="1207,-290.5 1207,-309.5 1324,-309.5 1324,-290.5 1207,-290.5"/>
<text text-anchor="middle" x="1265.5" y="-297.5" font-family="Helvetica,sans-Serif" font-size="10.00">UnregisterNodeSignals</text>
</a>
</g>
</g>
<!-- Node200&#45;&gt;Node206 -->
<g id="edge10" class="edge"><title>Node200&#45;&gt;Node206</title>
<path fill="none" stroke="midnightblue" d="M1137.53,-300C1159.68,-300 1184.85,-300 1206.92,-300"/>
<polygon fill="midnightblue" stroke="midnightblue" points="1137.25,-296.5 1127.25,-300 1137.25,-303.5 1137.25,-296.5"/>
</g>
<!-- Node202 -->
<g id="node7" class="node"><title>Node202</title>
<g id="a_node7"><a xlink:href="../../d8/dc0/init_8h.html#a6f0784aa332573f949b0975205572b28" target="_top" xlink:title="Initialize Dash Core. ">
<polygon fill="white" stroke="black" points="1398,-328.5 1398,-347.5 1451,-347.5 1451,-328.5 1398,-328.5"/>
<text text-anchor="middle" x="1424.5" y="-335.5" font-family="Helvetica,sans-Serif" font-size="10.00">AppInit2</text>
</a>
</g>
</g>
<!-- Node201&#45;&gt;Node202 -->
<g id="edge6" class="edge"><title>Node201&#45;&gt;Node202</title>
<path fill="none" stroke="midnightblue" d="M1330.12,-338C1353.85,-338 1379.47,-338 1397.85,-338"/>
<polygon fill="midnightblue" stroke="midnightblue" points="1330.09,-334.5 1320.09,-338 1330.09,-341.5 1330.09,-334.5"/>
</g>
<!-- Node203 -->
<g id="node8" class="node"><title>Node203</title>
<g id="a_node8"><a xlink:href="../../dd/de1/dashd_8cpp.html#ac59316b767e6984e1285f0531275286b" target="_top" xlink:title="AppInit">
<polygon fill="white" stroke="black" points="1699.5,-328.5 1699.5,-347.5 1746.5,-347.5 1746.5,-328.5 1699.5,-328.5"/>
<text text-anchor="middle" x="1723" y="-335.5" font-family="Helvetica,sans-Serif" font-size="10.00">AppInit</text>
</a>
</g>
</g>
<!-- Node202&#45;&gt;Node203 -->
<g id="edge7" class="edge"><title>Node202&#45;&gt;Node203</title>
<path fill="none" stroke="midnightblue" d="M1461.21,-346.919C1478.79,-350.864 1500.37,-355.046 1520,-357 1568.21,-361.798 1580.8,-361.873 1629,-357 1653.27,-354.547 1680.56,-348.58 1699.27,-343.982"/>
<polygon fill="midnightblue" stroke="midnightblue" points="1461.89,-343.486 1451.36,-344.643 1460.32,-350.306 1461.89,-343.486"/>
</g>
<!-- Node205 -->
<g id="node10" class="node"><title>Node205</title>
<g id="a_node10"><a xlink:href="../../d2/d76/class_bitcoin_core.html#af34ca069cda1d4362dcc109b4397fb62" target="_top" xlink:title="BitcoinCore::initialize">
<polygon fill="white" stroke="black" points="1520,-328.5 1520,-347.5 1629,-347.5 1629,-328.5 1520,-328.5"/>
<text text-anchor="middle" x="1574.5" y="-335.5" font-family="Helvetica,sans-Serif" font-size="10.00">BitcoinCore::initialize</text>
</a>
</g>
</g>
<!-- Node202&#45;&gt;Node205 -->
<g id="edge9" class="edge"><title>Node202&#45;&gt;Node205</title>
<path fill="none" stroke="midnightblue" d="M1461.62,-338C1479.12,-338 1500.48,-338 1519.83,-338"/>
<polygon fill="midnightblue" stroke="midnightblue" points="1461.28,-334.5 1451.28,-338 1461.28,-341.5 1461.28,-334.5"/>
</g>
<!-- Node204 -->
<g id="node9" class="node"><title>Node204</title>
<g id="a_node9"><a xlink:href="../../dd/de1/dashd_8cpp.html#a0ddf1224851353fc92bfbff6f499fa97" target="_top" xlink:title="main">
<polygon fill="white" stroke="black" points="1817,-328.5 1817,-347.5 1855,-347.5 1855,-328.5 1817,-328.5"/>
<text text-anchor="middle" x="1836" y="-335.5" font-family="Helvetica,sans-Serif" font-size="10.00">main</text>
</a>
</g>
</g>
<!-- Node203&#45;&gt;Node204 -->
<g id="edge8" class="edge"><title>Node203&#45;&gt;Node204</title>
<path fill="none" stroke="midnightblue" d="M1756.77,-338C1776.33,-338 1800.46,-338 1816.7,-338"/>
<polygon fill="midnightblue" stroke="midnightblue" points="1756.73,-334.5 1746.73,-338 1756.73,-341.5 1756.73,-334.5"/>
</g>
<!-- Node207 -->
<g id="node12" class="node"><title>Node207</title>
<g id="a_node12"><a xlink:href="../../d8/dc0/init_8h.html#a5cb3db83cb0ba2e421f651a1ee1f2cfe" target="_top" xlink:title="Preparing steps before shutting down or restarting the wallet. ">
<polygon fill="white" stroke="black" points="1377.5,-290.5 1377.5,-309.5 1471.5,-309.5 1471.5,-290.5 1377.5,-290.5"/>
<text text-anchor="middle" x="1424.5" y="-297.5" font-family="Helvetica,sans-Serif" font-size="10.00">PrepareShutdown</text>
</a>
</g>
</g>
<!-- Node206&#45;&gt;Node207 -->
<g id="edge11" class="edge"><title>Node206&#45;&gt;Node207</title>
<path fill="none" stroke="midnightblue" d="M1334.47,-300C1348.91,-300 1363.83,-300 1377.23,-300"/>
<polygon fill="midnightblue" stroke="midnightblue" points="1334.07,-296.5 1324.07,-300 1334.07,-303.5 1334.07,-296.5"/>
</g>
<!-- Node208 -->
<g id="node13" class="node"><title>Node208</title>
<g id="a_node13"><a xlink:href="../../d2/d76/class_bitcoin_core.html#ac2271844c89ebc4c611e7617ce6202e3" target="_top" xlink:title="BitcoinCore::restart">
<polygon fill="white" stroke="black" points="1524,-290.5 1524,-309.5 1625,-309.5 1625,-290.5 1524,-290.5"/>
<text text-anchor="middle" x="1574.5" y="-297.5" font-family="Helvetica,sans-Serif" font-size="10.00">BitcoinCore::restart</text>
</a>
</g>
</g>
<!-- Node207&#45;&gt;Node208 -->
<g id="edge12" class="edge"><title>Node207&#45;&gt;Node208</title>
<path fill="none" stroke="midnightblue" d="M1481.89,-300C1495.72,-300 1510.43,-300 1523.92,-300"/>
<polygon fill="midnightblue" stroke="midnightblue" points="1481.52,-296.5 1471.52,-300 1481.52,-303.5 1481.52,-296.5"/>
</g>
<!-- Node209 -->
<g id="node14" class="node"><title>Node209</title>
<g id="a_node14"><a xlink:href="../../d8/dc0/init_8h.html#ac5f038c2b480cf9ef5e19e3eba8dbaf9" target="_top" xlink:title="Shutdown is split into 2 parts: Part 1: shut down everything but the main wallet instance (done in Pr...">
<polygon fill="white" stroke="black" points="1544.5,-252.5 1544.5,-271.5 1604.5,-271.5 1604.5,-252.5 1544.5,-252.5"/>
<text text-anchor="middle" x="1574.5" y="-259.5" font-family="Helvetica,sans-Serif" font-size="10.00">Shutdown</text>
</a>
</g>
</g>
<!-- Node207&#45;&gt;Node209 -->
<g id="edge13" class="edge"><title>Node207&#45;&gt;Node209</title>
<path fill="none" stroke="midnightblue" d="M1472.61,-287.904C1496.06,-281.883 1523.69,-274.79 1544.09,-269.55"/>
<polygon fill="midnightblue" stroke="midnightblue" points="1471.66,-284.534 1462.85,-290.411 1473.4,-291.314 1471.66,-284.534"/>
</g>
<!-- Node209&#45;&gt;Node203 -->
<g id="edge14" class="edge"><title>Node209&#45;&gt;Node203</title>
<path fill="none" stroke="midnightblue" d="M1614.17,-274.646C1619.23,-276.614 1624.28,-278.748 1629,-281 1658.56,-295.119 1690.64,-316.186 1708.33,-328.362"/>
<polygon fill="midnightblue" stroke="midnightblue" points="1615.14,-271.271 1604.55,-271.077 1612.71,-277.834 1615.14,-271.271"/>
</g>
<!-- Node210 -->
<g id="node15" class="node"><title>Node210</title>
<g id="a_node15"><a xlink:href="../../d2/d76/class_bitcoin_core.html#a94f3f4622ba698e321f3a2e0e686129f" target="_top" xlink:title="BitcoinCore::shutdown">
<polygon fill="white" stroke="black" points="1665,-252.5 1665,-271.5 1781,-271.5 1781,-252.5 1665,-252.5"/>
<text text-anchor="middle" x="1723" y="-259.5" font-family="Helvetica,sans-Serif" font-size="10.00">BitcoinCore::shutdown</text>
</a>
</g>
</g>
<!-- Node209&#45;&gt;Node210 -->
<g id="edge15" class="edge"><title>Node209&#45;&gt;Node210</title>
<path fill="none" stroke="midnightblue" d="M1614.97,-262C1630.31,-262 1648.18,-262 1664.88,-262"/>
<polygon fill="midnightblue" stroke="midnightblue" points="1614.79,-258.5 1604.79,-262 1614.79,-265.5 1614.79,-258.5"/>
</g>
<!-- Node212 -->
<g id="node17" class="node"><title>Node212</title>
<g id="a_node17"><a xlink:href="../../dc/d16/class_c_instant_send.html#a418ce98b1e4d61b38bd11d02ff36a47d" target="_top" xlink:title="CInstantSend::ProcessTxLock\lRequest">
<polygon fill="white" stroke="black" points="590.5,-131 590.5,-161 741.5,-161 741.5,-131 590.5,-131"/>
<text text-anchor="start" x="598.5" y="-149" font-family="Helvetica,sans-Serif" font-size="10.00">CInstantSend::ProcessTxLock</text>
<text text-anchor="middle" x="666" y="-138" font-family="Helvetica,sans-Serif" font-size="10.00">Request</text>
</a>
</g>
</g>
<!-- Node211&#45;&gt;Node212 -->
<g id="edge17" class="edge"><title>Node211&#45;&gt;Node212</title>
<path fill="none" stroke="midnightblue" d="M561.134,-158.155C570.894,-157.012 580.798,-155.853 590.418,-154.728"/>
<polygon fill="midnightblue" stroke="midnightblue" points="560.558,-154.698 551.033,-159.337 561.372,-161.651 560.558,-154.698"/>
</g>
<!-- Node212&#45;&gt;Node197 -->
<g id="edge19" class="edge"><title>Node212&#45;&gt;Node197</title>
<path fill="none" stroke="midnightblue" d="M580.103,-140.156C528.236,-137.795 460.632,-136.879 401,-143 372.307,-145.945 340.366,-152.736 316.582,-158.498"/>
<polygon fill="midnightblue" stroke="midnightblue" points="580.103,-143.66 590.26,-140.645 580.44,-136.668 580.103,-143.66"/>
</g>
<!-- Node212&#45;&gt;Node199 -->
<g id="edge18" class="edge"><title>Node212&#45;&gt;Node199</title>
<path fill="none" stroke="midnightblue" d="M722.514,-164.365C759.863,-176.722 807.588,-192.51 837.609,-202.442"/>
<polygon fill="midnightblue" stroke="midnightblue" points="723.363,-160.96 712.769,-161.142 721.164,-167.606 723.363,-160.96"/>
</g>
<!-- Node213 -->
<g id="node18" class="node"><title>Node213</title>
<g id="a_node18"><a xlink:href="../../de/db0/group__map_wallet.html#ga8467a8a31cc4dded33cc6cdb0cdabb38" target="_top" xlink:title="CWalletTx::RelayWalletTransaction">
<polygon fill="white" stroke="black" points="781,-136.5 781,-155.5 954,-155.5 954,-136.5 781,-136.5"/>
<text text-anchor="middle" x="867.5" y="-143.5" font-family="Helvetica,sans-Serif" font-size="10.00">CWalletTx::RelayWalletTransaction</text>
</a>
</g>
</g>
<!-- Node212&#45;&gt;Node213 -->
<g id="edge20" class="edge"><title>Node212&#45;&gt;Node213</title>
<path fill="none" stroke="midnightblue" d="M751.602,-146C761.313,-146 771.219,-146 780.942,-146"/>
<polygon fill="midnightblue" stroke="midnightblue" points="751.57,-142.5 741.57,-146 751.57,-149.5 751.57,-142.5"/>
</g>
<!-- Node228 -->
<g id="node33" class="node"><title>Node228</title>
<g id="a_node33"><a xlink:href="../../d8/dc3/server_8h.html#a962b2890c7be4b92841eb288e5a2aca5" target="_top" xlink:title="sendrawtransaction">
<polygon fill="white" stroke="black" points="817,-98.5 817,-117.5 918,-117.5 918,-98.5 817,-98.5"/>
<text text-anchor="middle" x="867.5" y="-105.5" font-family="Helvetica,sans-Serif" font-size="10.00">sendrawtransaction</text>
</a>
</g>
</g>
<!-- Node212&#45;&gt;Node228 -->
<g id="edge35" class="edge"><title>Node212&#45;&gt;Node228</title>
<path fill="none" stroke="midnightblue" d="M751.684,-129.87C773.89,-125.64 797.114,-121.216 816.819,-117.463"/>
<polygon fill="midnightblue" stroke="midnightblue" points="750.739,-126.487 741.57,-131.796 752.048,-133.363 750.739,-126.487"/>
</g>
<!-- Node214 -->
<g id="node19" class="node"><title>Node214</title>
<g id="a_node19"><a xlink:href="../../dd/d3e/group___actions.html#gad95b72403a23ad9f9079a08b0ed1646a" target="_top" xlink:title="Call after CreateTransaction unless you want to abort. ">
<polygon fill="white" stroke="black" points="1006.5,-136.5 1006.5,-155.5 1149.5,-155.5 1149.5,-136.5 1006.5,-136.5"/>
<text text-anchor="middle" x="1078" y="-143.5" font-family="Helvetica,sans-Serif" font-size="10.00">CWallet::CommitTransaction</text>
</a>
</g>
</g>
<!-- Node213&#45;&gt;Node214 -->
<g id="edge21" class="edge"><title>Node213&#45;&gt;Node214</title>
<path fill="none" stroke="midnightblue" d="M964.408,-146C978.487,-146 992.77,-146 1006.22,-146"/>
<polygon fill="midnightblue" stroke="midnightblue" points="964.208,-142.5 954.208,-146 964.208,-149.5 964.208,-142.5"/>
</g>
<!-- Node226 -->
<g id="node31" class="node"><title>Node226</title>
<g id="a_node31"><a xlink:href="../../de/db0/group__map_wallet.html#ga5660023a09ecf8107cb2b3df8d3d0e40" target="_top" xlink:title="CWallet::ResendWalletTransactions\lBefore">
<polygon fill="white" stroke="black" points="990,-52 990,-82 1166,-82 1166,-52 990,-52"/>
<text text-anchor="start" x="998" y="-70" font-family="Helvetica,sans-Serif" font-size="10.00">CWallet::ResendWalletTransactions</text>
<text text-anchor="middle" x="1078" y="-59" font-family="Helvetica,sans-Serif" font-size="10.00">Before</text>
</a>
</g>
</g>
<!-- Node213&#45;&gt;Node226 -->
<g id="edge33" class="edge"><title>Node213&#45;&gt;Node226</title>
<path fill="none" stroke="midnightblue" d="M930.351,-134.076C938.39,-131.997 946.448,-129.64 954,-127 988.54,-114.927 1026.04,-95.6668 1050.43,-82.2353"/>
<polygon fill="midnightblue" stroke="midnightblue" points="929.467,-130.689 920.591,-136.475 931.138,-137.487 929.467,-130.689"/>
</g>
<!-- Node215 -->
<g id="node20" class="node"><title>Node215</title>
<g id="a_node20"><a xlink:href="../../dd/dab/class_c_private_send_client.html#a1318eb1f8e5a845036cfe99f0b3f8b36" target="_top" xlink:title="CPrivateSendClient\l::CreateDenominated">
<polygon fill="white" stroke="black" points="1210.5,-241 1210.5,-271 1320.5,-271 1320.5,-241 1210.5,-241"/>
<text text-anchor="start" x="1218.5" y="-259" font-family="Helvetica,sans-Serif" font-size="10.00">CPrivateSendClient</text>
<text text-anchor="middle" x="1265.5" y="-248" font-family="Helvetica,sans-Serif" font-size="10.00">::CreateDenominated</text>
</a>
</g>
</g>
<!-- Node214&#45;&gt;Node215 -->
<g id="edge22" class="edge"><title>Node214&#45;&gt;Node215</title>
<path fill="none" stroke="midnightblue" d="M1099.16,-162.05C1122.81,-180.362 1163.67,-210.427 1202,-231 1208.59,-234.537 1215.79,-237.868 1222.89,-240.875"/>
<polygon fill="midnightblue" stroke="midnightblue" points="1101.02,-159.056 1090.98,-155.652 1096.7,-164.57 1101.02,-159.056"/>
</g>
<!-- Node216 -->
<g id="node21" class="node"><title>Node216</title>
<g id="a_node21"><a xlink:href="../../d8/dc3/server_8h.html#a0fa637689f8c63fc6adebeb9458430db" target="_top" xlink:title="gobject">
<polygon fill="white" stroke="black" points="1241.5,-202.5 1241.5,-221.5 1289.5,-221.5 1289.5,-202.5 1241.5,-202.5"/>
<text text-anchor="middle" x="1265.5" y="-209.5" font-family="Helvetica,sans-Serif" font-size="10.00">gobject</text>
</a>
</g>
</g>
<!-- Node214&#45;&gt;Node216 -->
<g id="edge23" class="edge"><title>Node214&#45;&gt;Node216</title>
<path fill="none" stroke="midnightblue" d="M1112.97,-159.208C1137.58,-168.652 1171.71,-181.496 1202,-192 1214.92,-196.479 1229.46,-201.154 1241.26,-204.856"/>
<polygon fill="midnightblue" stroke="midnightblue" points="1113.97,-155.84 1103.38,-155.513 1111.45,-162.373 1113.97,-155.84"/>
</g>
<!-- Node217 -->
<g id="node22" class="node"><title>Node217</title>
<g id="a_node22"><a xlink:href="../../dd/dab/class_c_private_send_client.html#ad603beaa1644f6e6cfb8ca7d1400d46e" target="_top" xlink:title="CPrivateSendClient\l::MakeCollateralAmounts">
<polygon fill="white" stroke="black" points="1202,-153 1202,-183 1329,-183 1329,-153 1202,-153"/>
<text text-anchor="start" x="1210" y="-171" font-family="Helvetica,sans-Serif" font-size="10.00">CPrivateSendClient</text>
<text text-anchor="middle" x="1265.5" y="-160" font-family="Helvetica,sans-Serif" font-size="10.00">::MakeCollateralAmounts</text>
</a>
</g>
</g>
<!-- Node214&#45;&gt;Node217 -->
<g id="edge24" class="edge"><title>Node214&#45;&gt;Node217</title>
<path fill="none" stroke="midnightblue" d="M1159.84,-155.588C1173.94,-157.26 1188.42,-158.977 1201.93,-160.58"/>
<polygon fill="midnightblue" stroke="midnightblue" points="1160,-152.082 1149.66,-154.38 1159.18,-159.033 1160,-152.082"/>
</g>
<!-- Node218 -->
<g id="node23" class="node"><title>Node218</title>
<g id="a_node23"><a xlink:href="../../d4/d27/class_wallet_model.html#a53443aca544c824550f21e5f87e4ec39" target="_top" xlink:title="WalletModel::sendCoins">
<polygon fill="white" stroke="black" points="1204,-114.5 1204,-133.5 1327,-133.5 1327,-114.5 1204,-114.5"/>
<text text-anchor="middle" x="1265.5" y="-121.5" font-family="Helvetica,sans-Serif" font-size="10.00">WalletModel::sendCoins</text>
</a>
</g>
</g>
<!-- Node214&#45;&gt;Node218 -->
<g id="edge25" class="edge"><title>Node214&#45;&gt;Node218</title>
<path fill="none" stroke="midnightblue" d="M1159.78,-136.419C1174.53,-134.67 1189.68,-132.873 1203.73,-131.208"/>
<polygon fill="midnightblue" stroke="midnightblue" points="1159.18,-132.967 1149.66,-137.62 1160,-139.918 1159.18,-132.967"/>
</g>
<!-- Node221 -->
<g id="node26" class="node"><title>Node221</title>
<g id="a_node26"><a xlink:href="../../df/d1d/rpcwallet_8cpp.html#a02c1a7b5244896e62bc5ae698f7a76c9" target="_top" xlink:title="sendmany">
<polygon fill="white" stroke="black" points="1234.5,-76.5 1234.5,-95.5 1296.5,-95.5 1296.5,-76.5 1234.5,-76.5"/>
<text text-anchor="middle" x="1265.5" y="-83.5" font-family="Helvetica,sans-Serif" font-size="10.00">sendmany</text>
</a>
</g>
</g>
<!-- Node214&#45;&gt;Node221 -->
<g id="edge28" class="edge"><title>Node214&#45;&gt;Node221</title>
<path fill="none" stroke="midnightblue" d="M1116.82,-133.104C1141.1,-124.895 1173.35,-114.129 1202,-105 1212.48,-101.661 1223.99,-98.1239 1234.25,-95.019"/>
<polygon fill="midnightblue" stroke="midnightblue" points="1115.61,-129.817 1107.27,-136.341 1117.86,-136.447 1115.61,-129.817"/>
</g>
<!-- Node222 -->
<g id="node27" class="node"><title>Node222</title>
<g id="a_node27"><a xlink:href="../../df/d1d/rpcwallet_8cpp.html#a1ce48c3b465b38c532d3a3bc9664ba16" target="_top" xlink:title="SendMoney">
<polygon fill="white" stroke="black" points="1231.5,-38.5 1231.5,-57.5 1299.5,-57.5 1299.5,-38.5 1231.5,-38.5"/>
<text text-anchor="middle" x="1265.5" y="-45.5" font-family="Helvetica,sans-Serif" font-size="10.00">SendMoney</text>
</a>
</g>
</g>
<!-- Node214&#45;&gt;Node222 -->
<g id="edge29" class="edge"><title>Node214&#45;&gt;Node222</title>
<path fill="none" stroke="midnightblue" d="M1102.97,-131.065C1120.5,-120.09 1144.81,-104.756 1166,-91 1182.13,-80.5281 1184.61,-75.2178 1202,-67 1211.23,-62.6381 1221.69,-58.9948 1231.38,-56.104"/>
<polygon fill="midnightblue" stroke="midnightblue" points="1101.1,-128.107 1094.47,-136.376 1104.81,-134.043 1101.1,-128.107"/>
</g>
<!-- Node219 -->
<g id="node24" class="node"><title>Node219</title>
<g id="a_node24"><a xlink:href="../../d6/de6/class_send_coins_dialog.html#aab03626a859f22a68760b235a1df6bc9" target="_top" xlink:title="SendCoinsDialog::send">
<polygon fill="white" stroke="black" points="1365,-114.5 1365,-133.5 1484,-133.5 1484,-114.5 1365,-114.5"/>
<text text-anchor="middle" x="1424.5" y="-121.5" font-family="Helvetica,sans-Serif" font-size="10.00">SendCoinsDialog::send</text>
</a>
</g>
</g>
<!-- Node218&#45;&gt;Node219 -->
<g id="edge26" class="edge"><title>Node218&#45;&gt;Node219</title>
<path fill="none" stroke="midnightblue" d="M1337.43,-124C1346.57,-124 1355.85,-124 1364.77,-124"/>
<polygon fill="midnightblue" stroke="midnightblue" points="1337.2,-120.5 1327.2,-124 1337.2,-127.5 1337.2,-120.5"/>
</g>
<!-- Node220 -->
<g id="node25" class="node"><title>Node220</title>
<g id="a_node25"><a xlink:href="../../d6/de6/class_send_coins_dialog.html#a2cab7cf9ea5040b9e2189297f7d3c764" target="_top" xlink:title="SendCoinsDialog::on\l_sendButton_clicked">
<polygon fill="white" stroke="black" points="1520,-109 1520,-139 1629,-139 1629,-109 1520,-109"/>
<text text-anchor="start" x="1528" y="-127" font-family="Helvetica,sans-Serif" font-size="10.00">SendCoinsDialog::on</text>
<text text-anchor="middle" x="1574.5" y="-116" font-family="Helvetica,sans-Serif" font-size="10.00">_sendButton_clicked</text>
</a>
</g>
</g>
<!-- Node219&#45;&gt;Node220 -->
<g id="edge27" class="edge"><title>Node219&#45;&gt;Node220</title>
<path fill="none" stroke="midnightblue" d="M1494.59,-124C1502.98,-124 1511.46,-124 1519.58,-124"/>
<polygon fill="midnightblue" stroke="midnightblue" points="1494.42,-120.5 1484.42,-124 1494.42,-127.5 1494.42,-120.5"/>
</g>
<!-- Node223 -->
<g id="node28" class="node"><title>Node223</title>
<g id="a_node28"><a xlink:href="../../df/d1d/rpcwallet_8cpp.html#a13ae0f230ba6d349466070da38ee85f4" target="_top" xlink:title="instantsendtoaddress">
<polygon fill="white" stroke="black" points="1369.5,-76.5 1369.5,-95.5 1479.5,-95.5 1479.5,-76.5 1369.5,-76.5"/>
<text text-anchor="middle" x="1424.5" y="-83.5" font-family="Helvetica,sans-Serif" font-size="10.00">instantsendtoaddress</text>
</a>
</g>
</g>
<!-- Node222&#45;&gt;Node223 -->
<g id="edge30" class="edge"><title>Node222&#45;&gt;Node223</title>
<path fill="none" stroke="midnightblue" d="M1309.75,-58.4676C1333.02,-64.0998 1361.5,-70.9945 1384.15,-76.4754"/>
<polygon fill="midnightblue" stroke="midnightblue" points="1310.34,-55.0096 1299.8,-56.0588 1308.69,-61.8131 1310.34,-55.0096"/>
</g>
<!-- Node224 -->
<g id="node29" class="node"><title>Node224</title>
<g id="a_node29"><a xlink:href="../../df/d1d/rpcwallet_8cpp.html#a887e8b6785b39cba59fe24ea952a4f10" target="_top" xlink:title="sendfrom">
<polygon fill="white" stroke="black" points="1396,-38.5 1396,-57.5 1453,-57.5 1453,-38.5 1396,-38.5"/>
<text text-anchor="middle" x="1424.5" y="-45.5" font-family="Helvetica,sans-Serif" font-size="10.00">sendfrom</text>
</a>
</g>
</g>
<!-- Node222&#45;&gt;Node224 -->
<g id="edge31" class="edge"><title>Node222&#45;&gt;Node224</title>
<path fill="none" stroke="midnightblue" d="M1309.92,-48C1337.36,-48 1371.99,-48 1395.75,-48"/>
<polygon fill="midnightblue" stroke="midnightblue" points="1309.8,-44.5001 1299.8,-48 1309.8,-51.5001 1309.8,-44.5001"/>
</g>
<!-- Node225 -->
<g id="node30" class="node"><title>Node225</title>
<g id="a_node30"><a xlink:href="../../df/d1d/rpcwallet_8cpp.html#a36f0a0b6cd58a61c125bbe7a39ed1368" target="_top" xlink:title="sendtoaddress">
<polygon fill="white" stroke="black" points="1384.5,-0.5 1384.5,-19.5 1464.5,-19.5 1464.5,-0.5 1384.5,-0.5"/>
<text text-anchor="middle" x="1424.5" y="-7.5" font-family="Helvetica,sans-Serif" font-size="10.00">sendtoaddress</text>
</a>
</g>
</g>
<!-- Node222&#45;&gt;Node225 -->
<g id="edge32" class="edge"><title>Node222&#45;&gt;Node225</title>
<path fill="none" stroke="midnightblue" d="M1309.79,-37.5233C1333.15,-31.8691 1361.75,-24.9447 1384.43,-19.4558"/>
<polygon fill="midnightblue" stroke="midnightblue" points="1308.69,-34.1869 1299.8,-39.9412 1310.34,-40.9904 1308.69,-34.1869"/>
</g>
<!-- Node227 -->
<g id="node32" class="node"><title>Node227</title>
<g id="a_node32"><a xlink:href="../../df/d1d/rpcwallet_8cpp.html#abaf4c034b4a8144638b5a38784f8f834" target="_top" xlink:title="resendwallettransactions">
<polygon fill="white" stroke="black" points="1203,-0.5 1203,-19.5 1328,-19.5 1328,-0.5 1203,-0.5"/>
<text text-anchor="middle" x="1265.5" y="-7.5" font-family="Helvetica,sans-Serif" font-size="10.00">resendwallettransactions</text>
</a>
</g>
</g>
<!-- Node226&#45;&gt;Node227 -->
<g id="edge34" class="edge"><title>Node226&#45;&gt;Node227</title>
<path fill="none" stroke="midnightblue" d="M1137.28,-48.936C1157.74,-42.6105 1180.88,-35.4722 1202,-29 1212.08,-25.9095 1223.09,-22.5569 1233.02,-19.5406"/>
<polygon fill="midnightblue" stroke="midnightblue" points="1135.99,-45.6706 1127.47,-51.9695 1138.06,-52.358 1135.99,-45.6706"/>
</g>
</g>
</svg>
