<?xml version="1.0" encoding="UTF-8" standalone="no"?>
<!DOCTYPE svg PUBLIC "-//W3C//DTD SVG 1.1//EN"
 "http://www.w3.org/Graphics/SVG/1.1/DTD/svg11.dtd">
<!-- Generated by graphviz version 2.38.0 (20140413.2041)
 -->
<!-- Title: CKey::Set Pages: 1 -->
<!--zoomable 110 -->
<svg id="main" version="1.1" xmlns="http://www.w3.org/2000/svg" xmlns:xlink="http://www.w3.org/1999/xlink" xml:space="preserve" onload="init(evt)">
<style type="text/css"><![CDATA[
.edge:hover path { stroke: red; }
.edge:hover polygon { stroke: red; fill: red; }
]]></style>
<script type="text/javascript"><![CDATA[
var edges = document.getElementsByTagName('g');
if (edges && edges.length) {
  for (var i=0;i<edges.length;i++) {
    if (edges[i].id.substr(0,4)=='edge') {
      edges[i].setAttribute('class','edge');
    }
  }
}
]]></script>
        <defs>
                <circle id="rim" cx="0" cy="0" r="7"/>
                <circle id="rim2" cx="0" cy="0" r="3.5"/>
                <g id="zoomPlus">
                        <use xlink:href="#rim" fill="#404040">
                                <set attributeName="fill" to="#808080" begin="zoomplus.mouseover" end="zoomplus.mouseout"/>
                        </use>
                        <path d="M-4,0h8M0,-4v8" fill="none" stroke="white" stroke-width="1.5" pointer-events="none"/>
                </g>
                <g id="zoomMin">
                        <use xlink:href="#rim" fill="#404040">
                                <set attributeName="fill" to="#808080" begin="zoomminus.mouseover" end="zoomminus.mouseout"/>
                        </use>
                        <path d="M-4,0h8" fill="none" stroke="white" stroke-width="1.5" pointer-events="none"/>
                </g>
                <g id="dirArrow">
                        <path fill="none" stroke="white" stroke-width="1.5" d="M0,-3.0v7 M-2.5,-0.5L0,-3.0L2.5,-0.5"/>
                </g>
               <g id="resetDef">
                       <use xlink:href="#rim2" fill="#404040">
                               <set attributeName="fill" to="#808080" begin="reset.mouseover" end="reset.mouseout"/>
                       </use>
               </g>
        </defs>

<script type="text/javascript">
var viewWidth = 505;
var viewHeight = 110;
var sectionId = 'dynsection-20';
</script>
<script xlink:href="../../svgpan.js"/>
<svg id="graph" class="graph">
<g id="viewport">
<title>CKey::Set</title>
<polygon fill="white" stroke="none" points="-4,4 -4,-106 501,-106 501,4 -4,4"/>
<!-- Node603 -->
<g id="node1" class="node"><title>Node603</title>
<polygon fill="#bfbfbf" stroke="black" points="0,-22.5 0,-41.5 62,-41.5 62,-22.5 0,-22.5"/>
<text text-anchor="middle" x="31" y="-29.5" font-family="Helvetica,sans-Serif" font-size="10.00">CKey::Set</text>
</g>
<!-- Node604 -->
<g id="node2" class="node"><title>Node604</title>
<g id="a_node2"><a xlink:href="../../d2/d63/class_c_key.html#acec869bc75fa8f4d619ab025d367a97c" target="_top" xlink:title="Check whether the 32&#45;byte array pointed to be vch is valid keydata. ">
<polygon fill="white" stroke="black" points="98,-42.5 98,-61.5 174,-61.5 174,-42.5 98,-42.5"/>
<text text-anchor="middle" x="136" y="-49.5" font-family="Helvetica,sans-Serif" font-size="10.00">CKey::Check</text>
</a>
</g>
</g>
<!-- Node603&#45;&gt;Node604 -->
<g id="edge1" class="edge"><title>Node603&#45;&gt;Node604</title>
<path fill="none" stroke="midnightblue" d="M62.0688,-37.8386C70.0923,-39.3966 78.9605,-41.1185 87.6688,-42.8095"/>
<polygon fill="midnightblue" stroke="midnightblue" points="87.2739,-46.2981 97.7578,-44.7685 88.6083,-39.4264 87.2739,-46.2981"/>
</g>
<!-- Node609 -->
<g id="node7" class="node"><title>Node609</title>
<g id="a_node7"><a xlink:href="../../d5/d9f/glibc__compat_8cpp.html#a0f46826ab0466591e136db24394923cf" target="_top" xlink:title="memcpy">
<polygon fill="white" stroke="black" points="109,-3.5 109,-22.5 163,-22.5 163,-3.5 109,-3.5"/>
<text text-anchor="middle" x="136" y="-10.5" font-family="Helvetica,sans-Serif" font-size="10.00">memcpy</text>
</a>
</g>
</g>
<!-- Node603&#45;&gt;Node609 -->
<g id="edge6" class="edge"><title>Node603&#45;&gt;Node609</title>
<path fill="none" stroke="midnightblue" d="M62.0688,-26.4533C73.5502,-24.3354 86.7613,-21.8984 98.7581,-19.6854"/>
<polygon fill="midnightblue" stroke="midnightblue" points="99.715,-23.068 108.914,-17.812 98.4451,-16.1842 99.715,-23.068"/>
</g>
<!-- Node605 -->
<g id="node3" class="node"><title>Node605</title>
<g id="a_node3"><a xlink:href="../../d7/dd3/secp256k1_8h.html#a366f922fc0c787351e82ff8e3a95f652" target="_top" xlink:title="Verify an ECDSA secret key. ">
<polygon fill="white" stroke="black" points="210,-39 210,-69 326,-69 326,-39 210,-39"/>
<text text-anchor="start" x="218" y="-57" font-family="Helvetica,sans-Serif" font-size="10.00">secp256k1_ec_seckey</text>
<text text-anchor="middle" x="268" y="-46" font-family="Helvetica,sans-Serif" font-size="10.00">_verify</text>
</a>
</g>
</g>
<!-- Node604&#45;&gt;Node605 -->
<g id="edge2" class="edge"><title>Node604&#45;&gt;Node605</title>
<path fill="none" stroke="midnightblue" d="M174.253,-52.5731C182.234,-52.6959 190.902,-52.8293 199.628,-52.9635"/>
<polygon fill="midnightblue" stroke="midnightblue" points="199.806,-56.4666 209.859,-53.1209 199.914,-49.4674 199.806,-56.4666"/>
</g>
<!-- Node606 -->
<g id="node4" class="node"><title>Node606</title>
<g id="a_node4"><a xlink:href="../../db/d94/scalar_8h.html#ad8fb9bc2a828903963bf37806d8edd11" target="_top" xlink:title="Clear a scalar to prevent the leak of sensitive data. ">
<polygon fill="white" stroke="black" points="368.5,-82.5 368.5,-101.5 490.5,-101.5 490.5,-82.5 368.5,-82.5"/>
<text text-anchor="middle" x="429.5" y="-89.5" font-family="Helvetica,sans-Serif" font-size="10.00">secp256k1_scalar_clear</text>
</a>
</g>
</g>
<!-- Node605&#45;&gt;Node606 -->
<g id="edge3" class="edge"><title>Node605&#45;&gt;Node606</title>
<path fill="none" stroke="midnightblue" d="M326.133,-67.6115C343.158,-71.6678 361.683,-76.0813 378.236,-80.0248"/>
<polygon fill="midnightblue" stroke="midnightblue" points="377.717,-83.4992 388.256,-82.4121 379.34,-76.6898 377.717,-83.4992"/>
</g>
<!-- Node607 -->
<g id="node5" class="node"><title>Node607</title>
<g id="a_node5"><a xlink:href="../../db/d94/scalar_8h.html#a3f0ac84fe49a1c1f51212582a2c149d4" target="_top" xlink:title="Check whether a scalar equals zero. ">
<polygon fill="white" stroke="black" points="363.5,-44.5 363.5,-63.5 495.5,-63.5 495.5,-44.5 363.5,-44.5"/>
<text text-anchor="middle" x="429.5" y="-51.5" font-family="Helvetica,sans-Serif" font-size="10.00">secp256k1_scalar_is_zero</text>
</a>
</g>
</g>
<!-- Node605&#45;&gt;Node607 -->
<g id="edge4" class="edge"><title>Node605&#45;&gt;Node607</title>
<path fill="none" stroke="midnightblue" d="M326.133,-54C334.9,-54 344.066,-54 353.155,-54"/>
<polygon fill="midnightblue" stroke="midnightblue" points="353.358,-57.5001 363.358,-54 353.358,-50.5001 353.358,-57.5001"/>
</g>
<!-- Node608 -->
<g id="node6" class="node"><title>Node608</title>
<g id="a_node6"><a xlink:href="../../db/d94/scalar_8h.html#a25cc2d45ae1d1765d07c3313cdf46fa0" target="_top" xlink:title="Set a scalar from a big endian byte array. ">
<polygon fill="white" stroke="black" points="362,-6.5 362,-25.5 497,-25.5 497,-6.5 362,-6.5"/>
<text text-anchor="middle" x="429.5" y="-13.5" font-family="Helvetica,sans-Serif" font-size="10.00">secp256k1_scalar_set_b32</text>
</a>
</g>
</g>
<!-- Node605&#45;&gt;Node608 -->
<g id="edge5" class="edge"><title>Node605&#45;&gt;Node608</title>
<path fill="none" stroke="midnightblue" d="M326.133,-40.3885C343.158,-36.3322 361.683,-31.9187 378.236,-27.9752"/>
<polygon fill="midnightblue" stroke="midnightblue" points="379.34,-31.3102 388.256,-25.5879 377.717,-24.5008 379.34,-31.3102"/>
</g>
<!-- Node610 -->
<g id="node8" class="node"><title>Node610</title>
<g id="a_node8"><a xlink:href="../../d5/d9f/glibc__compat_8cpp.html#a9778d49e9029dd75bc53ecbbf9f5e9a1" target="_top" xlink:title="memmove">
<polygon fill="white" stroke="black" points="237,-0.5 237,-19.5 299,-19.5 299,-0.5 237,-0.5"/>
<text text-anchor="middle" x="268" y="-7.5" font-family="Helvetica,sans-Serif" font-size="10.00">memmove</text>
</a>
</g>
</g>
<!-- Node609&#45;&gt;Node610 -->
<g id="edge7" class="edge"><title>Node609&#45;&gt;Node610</title>
<path fill="none" stroke="midnightblue" d="M163.307,-12.3929C181.46,-11.974 205.942,-11.409 226.559,-10.9333"/>
<polygon fill="midnightblue" stroke="midnightblue" points="226.712,-14.4308 236.628,-10.7009 226.55,-7.43262 226.712,-14.4308"/>
</g>
</g>
</svg>
        <g id="navigator" transform="translate(0 0)" fill="#404254">
                <rect fill="#f2f5e9" fill-opacity="0.5" stroke="#606060" stroke-width=".5" x="0" y="0" width="60" height="60"/>
                <use id="zoomplus" xlink:href="#zoomPlus" x="17" y="9" onmousedown="handleZoom(evt,'in')"/>
                <use id="zoomminus" xlink:href="#zoomMin" x="42" y="9" onmousedown="handleZoom(evt,'out')"/>
                <use id="reset" xlink:href="#resetDef" x="30" y="36" onmousedown="handleReset()"/>
                <g id="arrowUp" xlink:href="#dirArrow" transform="translate(30 24)" onmousedown="handlePan(0,-1)">
                  <use xlink:href="#rim" fill="#404040">
                        <set attributeName="fill" to="#808080" begin="arrowUp.mouseover" end="arrowUp.mouseout"/>
                  </use>
                  <path fill="none" stroke="white" stroke-width="1.5" d="M0,-3.0v7 M-2.5,-0.5L0,-3.0L2.5,-0.5"/>
                </g>
                <g id="arrowRight" xlink:href="#dirArrow" transform="rotate(90) translate(36 -43)" onmousedown="handlePan(1,0)">
                  <use xlink:href="#rim" fill="#404040">
                        <set attributeName="fill" to="#808080" begin="arrowRight.mouseover" end="arrowRight.mouseout"/>
                  </use>
                  <path fill="none" stroke="white" stroke-width="1.5" d="M0,-3.0v7 M-2.5,-0.5L0,-3.0L2.5,-0.5"/>
                </g>
                <g id="arrowDown" xlink:href="#dirArrow" transform="rotate(180) translate(-30 -48)" onmousedown="handlePan(0,1)">
                  <use xlink:href="#rim" fill="#404040">
                        <set attributeName="fill" to="#808080" begin="arrowDown.mouseover" end="arrowDown.mouseout"/>
                  </use>
                  <path fill="none" stroke="white" stroke-width="1.5" d="M0,-3.0v7 M-2.5,-0.5L0,-3.0L2.5,-0.5"/>
                </g>
                <g id="arrowLeft" xlink:href="#dirArrow" transform="rotate(270) translate(-36 17)" onmousedown="handlePan(-1,0)">
                  <use xlink:href="#rim" fill="#404040">
                        <set attributeName="fill" to="#808080" begin="arrowLeft.mouseover" end="arrowLeft.mouseout"/>
                  </use>
                  <path fill="none" stroke="white" stroke-width="1.5" d="M0,-3.0v7 M-2.5,-0.5L0,-3.0L2.5,-0.5"/>
                </g>
        </g>
        <svg viewBox="0 0 15 15" width="100%" height="30px" preserveAspectRatio="xMaxYMin meet">
         <g id="arrow_out" transform="scale(0.3 0.3)">
          <a xlink:href="class_c_key_aaa13d5f08456bba094210c5eeabf64c8_cgraph_org.svg" target="_base">
           <rect id="button" ry="5" rx="5" y="6" x="6" height="38" width="38"
                fill="#f2f5e9" fill-opacity="0.5" stroke="#606060" stroke-width="1.0"/>
           <path id="arrow"
             d="M 11.500037,31.436501 C 11.940474,20.09759 22.043105,11.32322 32.158766,21.979434 L 37.068811,17.246167 C 37.068811,17.246167 37.088388,32 37.088388,32 L 22.160133,31.978069 C 22.160133,31.978069 26.997745,27.140456 26.997745,27.140456 C 18.528582,18.264221 13.291696,25.230495 11.500037,31.436501 z"
             style="fill:#404040;"/>
          </a>
         </g>
        </svg>
</svg>
