<?xml version="1.0" encoding="UTF-8" standalone="no"?>
<!DOCTYPE svg PUBLIC "-//W3C//DTD SVG 1.1//EN"
 "http://www.w3.org/Graphics/SVG/1.1/DTD/svg11.dtd">
<!-- Generated by graphviz version 2.38.0 (20140413.2041)
 -->
<!-- Title: TransactionRecord::updateStatus Pages: 1 -->
<!--zoomable 552 -->
<svg id="main" version="1.1" xmlns="http://www.w3.org/2000/svg" xmlns:xlink="http://www.w3.org/1999/xlink" xml:space="preserve" onload="init(evt)">
<style type="text/css"><![CDATA[
.edge:hover path { stroke: red; }
.edge:hover polygon { stroke: red; fill: red; }
]]></style>
<script type="text/javascript"><![CDATA[
var edges = document.getElementsByTagName('g');
if (edges && edges.length) {
  for (var i=0;i<edges.length;i++) {
    if (edges[i].id.substr(0,4)=='edge') {
      edges[i].setAttribute('class','edge');
    }
  }
}
]]></script>
        <defs>
                <circle id="rim" cx="0" cy="0" r="7"/>
                <circle id="rim2" cx="0" cy="0" r="3.5"/>
                <g id="zoomPlus">
                        <use xlink:href="#rim" fill="#404040">
                                <set attributeName="fill" to="#808080" begin="zoomplus.mouseover" end="zoomplus.mouseout"/>
                        </use>
                        <path d="M-4,0h8M0,-4v8" fill="none" stroke="white" stroke-width="1.5" pointer-events="none"/>
                </g>
                <g id="zoomMin">
                        <use xlink:href="#rim" fill="#404040">
                                <set attributeName="fill" to="#808080" begin="zoomminus.mouseover" end="zoomminus.mouseout"/>
                        </use>
                        <path d="M-4,0h8" fill="none" stroke="white" stroke-width="1.5" pointer-events="none"/>
                </g>
                <g id="dirArrow">
                        <path fill="none" stroke="white" stroke-width="1.5" d="M0,-3.0v7 M-2.5,-0.5L0,-3.0L2.5,-0.5"/>
                </g>
               <g id="resetDef">
                       <use xlink:href="#rim2" fill="#404040">
                               <set attributeName="fill" to="#808080" begin="reset.mouseover" end="reset.mouseout"/>
                       </use>
               </g>
        </defs>

<script type="text/javascript">
var viewWidth = 1602;
var viewHeight = 552;
var sectionId = 'dynsection-12';
</script>
<script xlink:href="../../svgpan.js"/>
<svg id="graph" class="graph">
<g id="viewport">
<title>TransactionRecord::updateStatus</title>
<polygon fill="white" stroke="none" points="-4,4 -4,-548.459 1598,-548.459 1598,4 -4,4"/>
<!-- Node222 -->
<g id="node1" class="node"><title>Node222</title>
<polygon fill="#bfbfbf" stroke="black" points="0,-343 0,-373 105,-373 105,-343 0,-343"/>
<text text-anchor="start" x="8" y="-361" font-family="Helvetica,sans-Serif" font-size="10.00">TransactionRecord::</text>
<text text-anchor="middle" x="52.5" y="-350" font-family="Helvetica,sans-Serif" font-size="10.00">updateStatus</text>
</g>
<!-- Node223 -->
<g id="node2" class="node"><title>Node223</title>
<g id="a_node2"><a xlink:href="../../dd/d7d/validation_8cpp.html#a7e254ea66e047c3d3ed0bedc5997fc4f" target="_top" xlink:title="Check if transaction will be final in the next block to be created. ">
<polygon fill="white" stroke="black" points="372.5,-443.5 372.5,-462.5 449.5,-462.5 449.5,-443.5 372.5,-443.5"/>
<text text-anchor="middle" x="411" y="-450.5" font-family="Helvetica,sans-Serif" font-size="10.00">CheckFinalTx</text>
</a>
</g>
</g>
<!-- Node222&#45;&gt;Node223 -->
<g id="edge1" class="edge"><title>Node222&#45;&gt;Node223</title>
<path fill="none" stroke="midnightblue" d="M65.5207,-373.216C80.8511,-391.343 109.214,-420.828 141,-434 213.529,-464.055 306.463,-462.888 361.948,-458.506"/>
<polygon fill="midnightblue" stroke="midnightblue" points="362.53,-461.969 372.193,-457.626 361.931,-454.995 362.53,-461.969"/>
</g>
<!-- Node224 -->
<g id="node3" class="node"><title>Node224</title>
<g id="a_node3"><a xlink:href="../../dd/dbd/timedata_8cpp.html#a09f81b9c7650f898cf3cf305b87547e6" target="_top" xlink:title="GetAdjustedTime">
<polygon fill="white" stroke="black" points="913,-367.5 913,-386.5 1005,-386.5 1005,-367.5 913,-367.5"/>
<text text-anchor="middle" x="959" y="-374.5" font-family="Helvetica,sans-Serif" font-size="10.00">GetAdjustedTime</text>
</a>
</g>
</g>
<!-- Node222&#45;&gt;Node224 -->
<g id="edge10" class="edge"><title>Node222&#45;&gt;Node224</title>
<path fill="none" stroke="midnightblue" d="M57.1997,-373.426C65.7511,-405.314 90.1617,-478.163 141,-510 242.579,-573.613 290.147,-529 410,-529 410,-529 410,-529 603,-529 725.07,-529 772.71,-573.44 877,-510 919.583,-484.097 942.842,-426.526 952.525,-396.332"/>
<polygon fill="midnightblue" stroke="midnightblue" points="955.936,-397.141 955.488,-386.556 949.238,-395.11 955.936,-397.141"/>
</g>
<!-- Node229 -->
<g id="node8" class="node"><title>Node229</title>
<g id="a_node8"><a xlink:href="../../d5/dc1/class_c_chain.html#ad4758bc8872ce065a9579f77c3171d40" target="_top" xlink:title="Return the maximal height in the chain. ">
<polygon fill="white" stroke="black" points="560,-329.5 560,-348.5 644,-348.5 644,-329.5 560,-329.5"/>
<text text-anchor="middle" x="602" y="-336.5" font-family="Helvetica,sans-Serif" font-size="10.00">CChain::Height</text>
</a>
</g>
</g>
<!-- Node222&#45;&gt;Node229 -->
<g id="edge40" class="edge"><title>Node222&#45;&gt;Node229</title>
<path fill="none" stroke="midnightblue" d="M105.33,-358.965C155.997,-359.68 235.322,-360.195 304,-358 390.228,-355.245 490.323,-348.001 549.513,-343.295"/>
<polygon fill="midnightblue" stroke="midnightblue" points="550.032,-346.765 559.72,-342.477 549.472,-339.788 550.032,-346.765"/>
</g>
<!-- Node232 -->
<g id="node11" class="node"><title>Node232</title>
<g id="a_node11"><a xlink:href="../../d1/dff/class_c_merkle_tx.html#a69ebd437f7b44169659c3527fe73b6ab" target="_top" xlink:title="CMerkleTx::GetBlocksToMaturity">
<polygon fill="white" stroke="black" points="141,-405.5 141,-424.5 304,-424.5 304,-405.5 141,-405.5"/>
<text text-anchor="middle" x="222.5" y="-412.5" font-family="Helvetica,sans-Serif" font-size="10.00">CMerkleTx::GetBlocksToMaturity</text>
</a>
</g>
</g>
<!-- Node222&#45;&gt;Node232 -->
<g id="edge11" class="edge"><title>Node222&#45;&gt;Node232</title>
<path fill="none" stroke="midnightblue" d="M91.622,-373.049C106.888,-378.899 124.692,-385.502 141,-391 152.876,-395.004 165.85,-399.025 177.847,-402.599"/>
<polygon fill="midnightblue" stroke="midnightblue" points="177.067,-406.018 187.649,-405.487 179.045,-399.303 177.067,-406.018"/>
</g>
<!-- Node233 -->
<g id="node12" class="node"><title>Node233</title>
<g id="a_node12"><a xlink:href="../../d1/dff/class_c_merkle_tx.html#a5bf3a355593ecce5799de92d013149b1" target="_top" xlink:title="Return depth of transaction in blockchain: &lt;0 : conflicts with a transaction this deep in the blockch...">
<polygon fill="white" stroke="black" points="340,-219 340,-249 482,-249 482,-219 340,-219"/>
<text text-anchor="start" x="348" y="-237" font-family="Helvetica,sans-Serif" font-size="10.00">CMerkleTx::GetDepthInMain</text>
<text text-anchor="middle" x="411" y="-226" font-family="Helvetica,sans-Serif" font-size="10.00">Chain</text>
</a>
</g>
</g>
<!-- Node222&#45;&gt;Node233 -->
<g id="edge12" class="edge"><title>Node222&#45;&gt;Node233</title>
<path fill="none" stroke="midnightblue" d="M56.9019,-342.776C65.0072,-310.601 88.8074,-236.178 141,-206 212.132,-164.872 311.711,-193.055 367.609,-215.009"/>
<polygon fill="midnightblue" stroke="midnightblue" points="366.606,-218.379 377.189,-218.88 369.228,-211.888 366.606,-218.379"/>
</g>
<!-- Node257 -->
<g id="node36" class="node"><title>Node257</title>
<g id="a_node36"><a xlink:href="../../de/db0/group__map_wallet.html#gafd3ca5b54d33038a06189f3f27a97910" target="_top" xlink:title="CWalletTx::GetRequestCount">
<polygon fill="white" stroke="black" points="148.5,-329.5 148.5,-348.5 296.5,-348.5 296.5,-329.5 148.5,-329.5"/>
<text text-anchor="middle" x="222.5" y="-336.5" font-family="Helvetica,sans-Serif" font-size="10.00">CWalletTx::GetRequestCount</text>
</a>
</g>
</g>
<!-- Node222&#45;&gt;Node257 -->
<g id="edge39" class="edge"><title>Node222&#45;&gt;Node257</title>
<path fill="none" stroke="midnightblue" d="M105.276,-352.144C115.684,-350.967 126.87,-349.702 138.043,-348.439"/>
<polygon fill="midnightblue" stroke="midnightblue" points="138.734,-351.883 148.278,-347.281 137.948,-344.927 138.734,-351.883"/>
</g>
<!-- Node258 -->
<g id="node37" class="node"><title>Node258</title>
<g id="a_node37"><a xlink:href="../../d1/dff/class_c_merkle_tx.html#a0a2c5cd56d31bbe9b5b870ef6ebb441d" target="_top" xlink:title="CMerkleTx::isAbandoned">
<polygon fill="white" stroke="black" points="159,-291.5 159,-310.5 286,-310.5 286,-291.5 159,-291.5"/>
<text text-anchor="middle" x="222.5" y="-298.5" font-family="Helvetica,sans-Serif" font-size="10.00">CMerkleTx::isAbandoned</text>
</a>
</g>
</g>
<!-- Node222&#45;&gt;Node258 -->
<g id="edge41" class="edge"><title>Node222&#45;&gt;Node258</title>
<path fill="none" stroke="midnightblue" d="M84.563,-342.901C101.054,-335.299 121.825,-326.37 141,-320 148.654,-317.457 156.824,-315.116 164.915,-313.01"/>
<polygon fill="midnightblue" stroke="midnightblue" points="165.855,-316.382 174.706,-310.559 164.155,-309.592 165.855,-316.382"/>
</g>
<!-- Node259 -->
<g id="node38" class="node"><title>Node259</title>
<g id="a_node38"><a xlink:href="../../df/d43/class_c_transaction.html#a96256e8ac1bf79ad9c057e48c41132dd" target="_top" xlink:title="CTransaction::IsCoinBase">
<polygon fill="white" stroke="black" points="156.5,-253.5 156.5,-272.5 288.5,-272.5 288.5,-253.5 156.5,-253.5"/>
<text text-anchor="middle" x="222.5" y="-260.5" font-family="Helvetica,sans-Serif" font-size="10.00">CTransaction::IsCoinBase</text>
</a>
</g>
</g>
<!-- Node222&#45;&gt;Node259 -->
<g id="edge42" class="edge"><title>Node222&#45;&gt;Node259</title>
<path fill="none" stroke="midnightblue" d="M66.745,-342.697C82.6337,-325.328 110.915,-297.414 141,-282 145.595,-279.646 150.487,-277.578 155.502,-275.763"/>
<polygon fill="midnightblue" stroke="midnightblue" points="156.835,-279.009 165.252,-272.574 154.659,-272.356 156.835,-279.009"/>
</g>
<!-- Node260 -->
<g id="node39" class="node"><title>Node260</title>
<g id="a_node39"><a xlink:href="../../d1/dff/class_c_merkle_tx.html#ad4b3623fabf1924dba2a7694e3418e1e" target="_top" xlink:title="CMerkleTx::IsInMainChain">
<polygon fill="white" stroke="black" points="155.5,-215.5 155.5,-234.5 289.5,-234.5 289.5,-215.5 155.5,-215.5"/>
<text text-anchor="middle" x="222.5" y="-222.5" font-family="Helvetica,sans-Serif" font-size="10.00">CMerkleTx::IsInMainChain</text>
</a>
</g>
</g>
<!-- Node222&#45;&gt;Node260 -->
<g id="edge43" class="edge"><title>Node222&#45;&gt;Node260</title>
<path fill="none" stroke="midnightblue" d="M60.8078,-342.742C73.4979,-317.96 102.031,-269.197 141,-244 144.297,-241.868 147.809,-239.975 151.451,-238.293"/>
<polygon fill="midnightblue" stroke="midnightblue" points="152.771,-241.535 160.725,-234.536 150.143,-235.047 152.771,-241.535"/>
</g>
<!-- Node261 -->
<g id="node40" class="node"><title>Node261</title>
<g id="a_node40"><a xlink:href="../../de/db0/group__map_wallet.html#ga71efb0d5b5def8ae00a1d74b8741bfcb" target="_top" xlink:title="CWalletTx::IsTrusted">
<polygon fill="white" stroke="black" points="167.5,-481.5 167.5,-500.5 277.5,-500.5 277.5,-481.5 167.5,-481.5"/>
<text text-anchor="middle" x="222.5" y="-488.5" font-family="Helvetica,sans-Serif" font-size="10.00">CWalletTx::IsTrusted</text>
</a>
</g>
</g>
<!-- Node222&#45;&gt;Node261 -->
<g id="edge45" class="edge"><title>Node222&#45;&gt;Node261</title>
<path fill="none" stroke="midnightblue" d="M61.5786,-373.103C74.9564,-396.674 103.949,-442.082 141,-467 147.552,-471.406 154.933,-475.022 162.499,-477.985"/>
<polygon fill="midnightblue" stroke="midnightblue" points="161.539,-481.358 172.134,-481.399 163.877,-474.76 161.539,-481.358"/>
</g>
<!-- Node223&#45;&gt;Node224 -->
<g id="edge2" class="edge"><title>Node223&#45;&gt;Node224</title>
<path fill="none" stroke="midnightblue" d="M425.212,-443.323C444.481,-429.831 481.936,-405.914 518,-396 652.292,-359.084 818.241,-365.083 902.807,-371.615"/>
<polygon fill="midnightblue" stroke="midnightblue" points="902.707,-375.118 912.956,-372.432 903.269,-368.141 902.707,-375.118"/>
</g>
<!-- Node227 -->
<g id="node6" class="node"><title>Node227</title>
<g id="a_node6"><a xlink:href="../../d3/dbd/class_c_block_index.html#aa9bd0ab02cf8b9c866618cee3a5a0583" target="_top" xlink:title="CBlockIndex::GetMedianTimePast">
<polygon fill="white" stroke="black" points="518,-481.5 518,-500.5 686,-500.5 686,-481.5 518,-481.5"/>
<text text-anchor="middle" x="602" y="-488.5" font-family="Helvetica,sans-Serif" font-size="10.00">CBlockIndex::GetMedianTimePast</text>
</a>
</g>
</g>
<!-- Node223&#45;&gt;Node227 -->
<g id="edge5" class="edge"><title>Node223&#45;&gt;Node227</title>
<path fill="none" stroke="midnightblue" d="M449.793,-460.599C476.602,-465.989 513.073,-473.322 543.48,-479.435"/>
<polygon fill="midnightblue" stroke="midnightblue" points="543.043,-482.917 553.537,-481.457 544.423,-476.055 543.043,-482.917"/>
</g>
<!-- Node223&#45;&gt;Node229 -->
<g id="edge7" class="edge"><title>Node223&#45;&gt;Node229</title>
<path fill="none" stroke="midnightblue" d="M422.726,-443.446C447.471,-421.469 507.259,-368.767 518,-363 527.916,-357.676 539.149,-353.412 550.076,-350.042"/>
<polygon fill="midnightblue" stroke="midnightblue" points="551.334,-353.323 559.978,-347.195 549.4,-346.595 551.334,-353.323"/>
</g>
<!-- Node230 -->
<g id="node9" class="node"><title>Node230</title>
<g id="a_node9"><a xlink:href="../../dd/d7d/validation_8cpp.html#adc332cd7ac94e639bb4239618341be19" target="_top" xlink:title="Check if transaction is final and can be included in a block with the specified height and time...">
<polygon fill="white" stroke="black" points="573.5,-443.5 573.5,-462.5 630.5,-462.5 630.5,-443.5 573.5,-443.5"/>
<text text-anchor="middle" x="602" y="-450.5" font-family="Helvetica,sans-Serif" font-size="10.00">IsFinalTx</text>
</a>
</g>
</g>
<!-- Node223&#45;&gt;Node230 -->
<g id="edge8" class="edge"><title>Node223&#45;&gt;Node230</title>
<path fill="none" stroke="midnightblue" d="M449.793,-453C482.745,-453 530.296,-453 563.239,-453"/>
<polygon fill="midnightblue" stroke="midnightblue" points="563.384,-456.5 573.384,-453 563.384,-449.5 563.384,-456.5"/>
</g>
<!-- Node231 -->
<g id="node10" class="node"><title>Node231</title>
<g id="a_node10"><a xlink:href="../../d5/dc1/class_c_chain.html#a578545bde95163bee37b1be28e7b2755" target="_top" xlink:title="Returns the index entry for the tip of this chain, or NULL if none. ">
<polygon fill="white" stroke="black" points="567.5,-405.5 567.5,-424.5 636.5,-424.5 636.5,-405.5 567.5,-405.5"/>
<text text-anchor="middle" x="602" y="-412.5" font-family="Helvetica,sans-Serif" font-size="10.00">CChain::Tip</text>
</a>
</g>
</g>
<!-- Node223&#45;&gt;Node231 -->
<g id="edge9" class="edge"><title>Node223&#45;&gt;Node231</title>
<path fill="none" stroke="midnightblue" d="M449.793,-445.401C480.801,-439.167 524.736,-430.334 557.262,-423.794"/>
<polygon fill="midnightblue" stroke="midnightblue" points="558.276,-427.16 567.39,-421.758 556.896,-420.297 558.276,-427.16"/>
</g>
<!-- Node225 -->
<g id="node4" class="node"><title>Node225</title>
<g id="a_node4"><a xlink:href="../../d6/d3c/utiltime_8cpp.html#a46fac5fba8ba905b5f9acb364f5d8c6f" target="_top" xlink:title="For unit testing. ">
<polygon fill="white" stroke="black" points="1065.5,-386.5 1065.5,-405.5 1119.5,-405.5 1119.5,-386.5 1065.5,-386.5"/>
<text text-anchor="middle" x="1092.5" y="-393.5" font-family="Helvetica,sans-Serif" font-size="10.00">GetTime</text>
</a>
</g>
</g>
<!-- Node224&#45;&gt;Node225 -->
<g id="edge3" class="edge"><title>Node224&#45;&gt;Node225</title>
<path fill="none" stroke="midnightblue" d="M1005.25,-383.539C1021.55,-385.894 1039.72,-388.518 1055.16,-390.749"/>
<polygon fill="midnightblue" stroke="midnightblue" points="1054.96,-394.256 1065.36,-392.222 1055.96,-387.328 1054.96,-394.256"/>
</g>
<!-- Node226 -->
<g id="node5" class="node"><title>Node226</title>
<g id="a_node5"><a xlink:href="../../dd/dbd/timedata_8cpp.html#a50ca5344c75631267633f15cfe5e983e" target="_top" xlink:title="&quot;Never go to sea with two chronometers; take one or three.&quot; Our three time sources are: ...">
<polygon fill="white" stroke="black" points="1052,-348.5 1052,-367.5 1133,-367.5 1133,-348.5 1052,-348.5"/>
<text text-anchor="middle" x="1092.5" y="-355.5" font-family="Helvetica,sans-Serif" font-size="10.00">GetTimeOffset</text>
</a>
</g>
</g>
<!-- Node224&#45;&gt;Node226 -->
<g id="edge4" class="edge"><title>Node224&#45;&gt;Node226</title>
<path fill="none" stroke="midnightblue" d="M1005.25,-370.461C1017.1,-368.75 1029.92,-366.897 1041.97,-365.156"/>
<polygon fill="midnightblue" stroke="midnightblue" points="1042.48,-368.62 1051.87,-363.726 1041.48,-361.692 1042.48,-368.62"/>
</g>
<!-- Node228 -->
<g id="node7" class="node"><title>Node228</title>
<g id="a_node7"><a xlink:href="../../d3/dbd/class_c_block_index.html#a9fe0d4463c07c466f66252e8eec25f5c" target="_top" xlink:title="CBlockIndex::GetBlockTime">
<polygon fill="white" stroke="black" points="729,-481.5 729,-500.5 870,-500.5 870,-481.5 729,-481.5"/>
<text text-anchor="middle" x="799.5" y="-488.5" font-family="Helvetica,sans-Serif" font-size="10.00">CBlockIndex::GetBlockTime</text>
</a>
</g>
</g>
<!-- Node227&#45;&gt;Node228 -->
<g id="edge6" class="edge"><title>Node227&#45;&gt;Node228</title>
<path fill="none" stroke="midnightblue" d="M686.193,-491C696.983,-491 708.014,-491 718.746,-491"/>
<polygon fill="midnightblue" stroke="midnightblue" points="718.926,-494.5 728.926,-491 718.926,-487.5 718.926,-494.5"/>
</g>
<!-- Node233&#45;&gt;Node229 -->
<g id="edge15" class="edge"><title>Node233&#45;&gt;Node229</title>
<path fill="none" stroke="midnightblue" d="M433.813,-249.005C454.888,-263.207 487.947,-284.718 518,-301 534.386,-309.878 553.232,-318.617 568.819,-325.473"/>
<polygon fill="midnightblue" stroke="midnightblue" points="567.486,-328.71 578.053,-329.482 570.274,-322.289 567.486,-328.71"/>
</g>
<!-- Node234 -->
<g id="node13" class="node"><title>Node234</title>
<g id="a_node13"><a xlink:href="../../d5/dc1/class_c_chain.html#af1786dc229c215dea7f727c11df2c8dc" target="_top" xlink:title="Efficiently check whether a block is present in this chain. ">
<polygon fill="white" stroke="black" points="554.5,-272.5 554.5,-291.5 649.5,-291.5 649.5,-272.5 554.5,-272.5"/>
<text text-anchor="middle" x="602" y="-279.5" font-family="Helvetica,sans-Serif" font-size="10.00">CChain::Contains</text>
</a>
</g>
</g>
<!-- Node233&#45;&gt;Node234 -->
<g id="edge13" class="edge"><title>Node233&#45;&gt;Node234</title>
<path fill="none" stroke="midnightblue" d="M465.266,-249.043C482.096,-253.669 500.791,-258.678 518,-263 527.678,-265.43 538.022,-267.9 548.009,-270.219"/>
<polygon fill="midnightblue" stroke="midnightblue" points="547.309,-273.65 557.839,-272.481 548.879,-266.828 547.309,-273.65"/>
</g>
<!-- Node235 -->
<g id="node14" class="node"><title>Node235</title>
<g id="a_node14"><a xlink:href="../../db/d98/class_c_tx_mem_pool.html#a8b7a13b5289ab839d4460f41a7da9789" target="_top" xlink:title="CTxMemPool::exists">
<polygon fill="white" stroke="black" points="547.5,-234.5 547.5,-253.5 656.5,-253.5 656.5,-234.5 547.5,-234.5"/>
<text text-anchor="middle" x="602" y="-241.5" font-family="Helvetica,sans-Serif" font-size="10.00">CTxMemPool::exists</text>
</a>
</g>
</g>
<!-- Node233&#45;&gt;Node235 -->
<g id="edge14" class="edge"><title>Node233&#45;&gt;Node235</title>
<path fill="none" stroke="midnightblue" d="M482.108,-237.709C500.111,-238.662 519.381,-239.682 537.054,-240.617"/>
<polygon fill="midnightblue" stroke="midnightblue" points="537.083,-244.123 547.254,-241.156 537.452,-237.133 537.083,-244.123"/>
</g>
<!-- Node236 -->
<g id="node15" class="node"><title>Node236</title>
<g id="a_node15"><a xlink:href="../../dc/d16/class_c_instant_send.html#a2b5bebbef6c466ee34706eeb9f53d4a7" target="_top" xlink:title="CInstantSend::IsLockedInstant\lSendTransaction">
<polygon fill="white" stroke="black" points="526,-185 526,-215 678,-215 678,-185 526,-185"/>
<text text-anchor="start" x="534" y="-203" font-family="Helvetica,sans-Serif" font-size="10.00">CInstantSend::IsLockedInstant</text>
<text text-anchor="middle" x="602" y="-192" font-family="Helvetica,sans-Serif" font-size="10.00">SendTransaction</text>
</a>
</g>
</g>
<!-- Node233&#45;&gt;Node236 -->
<g id="edge16" class="edge"><title>Node233&#45;&gt;Node236</title>
<path fill="none" stroke="midnightblue" d="M482.108,-221.388C493.158,-219.4 504.686,-217.326 516.029,-215.286"/>
<polygon fill="midnightblue" stroke="midnightblue" points="516.711,-218.719 525.933,-213.504 515.471,-211.83 516.711,-218.719"/>
</g>
<!-- Node237 -->
<g id="node16" class="node"><title>Node237</title>
<g id="a_node16"><a xlink:href="../../dc/d16/class_c_instant_send.html#a944921efd152fb5772182269409902e3" target="_top" xlink:title="CInstantSend::GetLockedOut\lPointTxHash">
<polygon fill="white" stroke="black" points="726.5,-229 726.5,-259 872.5,-259 872.5,-229 726.5,-229"/>
<text text-anchor="start" x="734.5" y="-247" font-family="Helvetica,sans-Serif" font-size="10.00">CInstantSend::GetLockedOut</text>
<text text-anchor="middle" x="799.5" y="-236" font-family="Helvetica,sans-Serif" font-size="10.00">PointTxHash</text>
</a>
</g>
</g>
<!-- Node236&#45;&gt;Node237 -->
<g id="edge17" class="edge"><title>Node236&#45;&gt;Node237</title>
<path fill="none" stroke="midnightblue" d="M669.733,-215.019C686.47,-218.786 704.56,-222.857 721.741,-226.724"/>
<polygon fill="midnightblue" stroke="midnightblue" points="721.211,-230.193 731.736,-228.974 722.748,-223.363 721.211,-230.193"/>
</g>
<!-- Node238 -->
<g id="node17" class="node"><title>Node238</title>
<g id="a_node17"><a xlink:href="../../d2/d5e/class_c_spork_manager.html#a97d20d530b500c013e8bc8649ee13daf" target="_top" xlink:title="CSporkManager::IsSporkActive">
<polygon fill="white" stroke="black" points="722,-190.5 722,-209.5 877,-209.5 877,-190.5 722,-190.5"/>
<text text-anchor="middle" x="799.5" y="-197.5" font-family="Helvetica,sans-Serif" font-size="10.00">CSporkManager::IsSporkActive</text>
</a>
</g>
</g>
<!-- Node236&#45;&gt;Node238 -->
<g id="edge18" class="edge"><title>Node236&#45;&gt;Node238</title>
<path fill="none" stroke="midnightblue" d="M678.026,-200C688.991,-200 700.36,-200 711.538,-200"/>
<polygon fill="midnightblue" stroke="midnightblue" points="711.733,-203.5 721.733,-200 711.733,-196.5 711.733,-203.5"/>
</g>
<!-- Node238&#45;&gt;Node224 -->
<g id="edge19" class="edge"><title>Node238&#45;&gt;Node224</title>
<path fill="none" stroke="midnightblue" d="M860.904,-209.649C866.681,-212.107 872.174,-215.175 877,-219 922.577,-255.127 944.97,-323.824 953.596,-357.459"/>
<polygon fill="midnightblue" stroke="midnightblue" points="950.254,-358.528 956.008,-367.424 957.058,-356.881 950.254,-358.528"/>
</g>
<!-- Node239 -->
<g id="node18" class="node"><title>Node239</title>
<g id="a_node18"><a xlink:href="../../d8/d3c/util_8h.html#aab1f837a2366f424bdc996fdf6352171" target="_top" xlink:title="Zero&#45;arg versions of logging and error, these are not covered by TINYFORMAT_FOREACH_ARGNUM. ">
<polygon fill="white" stroke="black" points="932.5,-190.5 932.5,-209.5 985.5,-209.5 985.5,-190.5 932.5,-190.5"/>
<text text-anchor="middle" x="959" y="-197.5" font-family="Helvetica,sans-Serif" font-size="10.00">LogPrint</text>
</a>
</g>
</g>
<!-- Node238&#45;&gt;Node239 -->
<g id="edge20" class="edge"><title>Node238&#45;&gt;Node239</title>
<path fill="none" stroke="midnightblue" d="M877.404,-200C893.055,-200 908.802,-200 922.173,-200"/>
<polygon fill="midnightblue" stroke="midnightblue" points="922.339,-203.5 932.339,-200 922.339,-196.5 922.339,-203.5"/>
</g>
<!-- Node240 -->
<g id="node19" class="node"><title>Node240</title>
<g id="a_node19"><a xlink:href="../../d8/d1a/namespacetinyformat_1_1detail.html#aa4b0590b3e34562c2d252a2086cec7ba" target="_top" xlink:title="tinyformat::detail\l::format">
<polygon fill="white" stroke="black" points="1048,-231 1048,-261 1137,-261 1137,-231 1048,-231"/>
<text text-anchor="start" x="1056" y="-249" font-family="Helvetica,sans-Serif" font-size="10.00">tinyformat::detail</text>
<text text-anchor="middle" x="1092.5" y="-238" font-family="Helvetica,sans-Serif" font-size="10.00">::format</text>
</a>
</g>
</g>
<!-- Node239&#45;&gt;Node240 -->
<g id="edge21" class="edge"><title>Node239&#45;&gt;Node240</title>
<path fill="none" stroke="midnightblue" d="M985.667,-208.978C1000.88,-214.3 1020.72,-221.24 1039.11,-227.672"/>
<polygon fill="midnightblue" stroke="midnightblue" points="1037.96,-230.98 1048.56,-230.978 1040.27,-224.372 1037.96,-230.98"/>
</g>
<!-- Node243 -->
<g id="node22" class="node"><title>Node243</title>
<g id="a_node22"><a xlink:href="../../d8/d3c/util_8h.html#a343d2a13efe00125f78d25dafb0a8d98" target="_top" xlink:title="Return true if log accepts specified category. ">
<polygon fill="white" stroke="black" points="1041,-190.5 1041,-209.5 1144,-209.5 1144,-190.5 1041,-190.5"/>
<text text-anchor="middle" x="1092.5" y="-197.5" font-family="Helvetica,sans-Serif" font-size="10.00">LogAcceptCategory</text>
</a>
</g>
</g>
<!-- Node239&#45;&gt;Node243 -->
<g id="edge24" class="edge"><title>Node239&#45;&gt;Node243</title>
<path fill="none" stroke="midnightblue" d="M985.667,-200C998.543,-200 1014.73,-200 1030.55,-200"/>
<polygon fill="midnightblue" stroke="midnightblue" points="1030.86,-203.5 1040.86,-200 1030.86,-196.5 1030.86,-203.5"/>
</g>
<!-- Node245 -->
<g id="node24" class="node"><title>Node245</title>
<g id="a_node24"><a xlink:href="../../d8/d3c/util_8h.html#afd4c3002b2797c0560adddb6af3ca1da" target="_top" xlink:title="Send a string to the log output. ">
<polygon fill="white" stroke="black" points="1060,-95.5 1060,-114.5 1125,-114.5 1125,-95.5 1060,-95.5"/>
<text text-anchor="middle" x="1092.5" y="-102.5" font-family="Helvetica,sans-Serif" font-size="10.00">LogPrintStr</text>
</a>
</g>
</g>
<!-- Node239&#45;&gt;Node245 -->
<g id="edge26" class="edge"><title>Node239&#45;&gt;Node245</title>
<path fill="none" stroke="midnightblue" d="M973.578,-190.191C996.434,-173.679 1042.77,-140.208 1070.05,-120.493"/>
<polygon fill="midnightblue" stroke="midnightblue" points="1072.14,-123.307 1078.19,-114.614 1068.04,-117.633 1072.14,-123.307"/>
</g>
<!-- Node241 -->
<g id="node20" class="node"><title>Node241</title>
<g id="a_node20"><a xlink:href="../../d8/d42/classtinyformat_1_1detail_1_1_format_iterator.html#a46377a804f72dbad1e508d2fbaa18ce9" target="_top" xlink:title="tinyformat::detail\l::FormatIterator::finish">
<polygon fill="white" stroke="black" points="1180,-231 1180,-261 1293,-261 1293,-231 1180,-231"/>
<text text-anchor="start" x="1188" y="-249" font-family="Helvetica,sans-Serif" font-size="10.00">tinyformat::detail</text>
<text text-anchor="middle" x="1236.5" y="-238" font-family="Helvetica,sans-Serif" font-size="10.00">::FormatIterator::finish</text>
</a>
</g>
</g>
<!-- Node240&#45;&gt;Node241 -->
<g id="edge22" class="edge"><title>Node240&#45;&gt;Node241</title>
<path fill="none" stroke="midnightblue" d="M1137.26,-246C1147.56,-246 1158.75,-246 1169.78,-246"/>
<polygon fill="midnightblue" stroke="midnightblue" points="1169.82,-249.5 1179.82,-246 1169.82,-242.5 1169.82,-249.5"/>
</g>
<!-- Node242 -->
<g id="node21" class="node"><title>Node242</title>
<g id="a_node21"><a xlink:href="../../d8/d42/classtinyformat_1_1detail_1_1_format_iterator.html#af3bbb8259ac0593ec2268ef5863311d5" target="_top" xlink:title="tinyformat::detail\l::FormatIterator::printFormat\lStringLiteral">
<polygon fill="white" stroke="black" points="1332,-228.5 1332,-269.5 1472,-269.5 1472,-228.5 1332,-228.5"/>
<text text-anchor="start" x="1340" y="-257.5" font-family="Helvetica,sans-Serif" font-size="10.00">tinyformat::detail</text>
<text text-anchor="start" x="1340" y="-246.5" font-family="Helvetica,sans-Serif" font-size="10.00">::FormatIterator::printFormat</text>
<text text-anchor="middle" x="1402" y="-235.5" font-family="Helvetica,sans-Serif" font-size="10.00">StringLiteral</text>
</a>
</g>
</g>
<!-- Node241&#45;&gt;Node242 -->
<g id="edge23" class="edge"><title>Node241&#45;&gt;Node242</title>
<path fill="none" stroke="midnightblue" d="M1293.31,-247.024C1302.51,-247.193 1312.2,-247.371 1321.84,-247.548"/>
<polygon fill="midnightblue" stroke="midnightblue" points="1321.79,-251.047 1331.85,-247.731 1321.91,-244.048 1321.79,-251.047"/>
</g>
<!-- Node244 -->
<g id="node23" class="node"><title>Node244</title>
<g id="a_node23"><a xlink:href="../../df/d2d/util_8cpp.html#a1db3aa900bfa259ae1fe04068f2accfc" target="_top" xlink:title="GetThreadName">
<polygon fill="white" stroke="black" points="1357.5,-190.5 1357.5,-209.5 1446.5,-209.5 1446.5,-190.5 1357.5,-190.5"/>
<text text-anchor="middle" x="1402" y="-197.5" font-family="Helvetica,sans-Serif" font-size="10.00">GetThreadName</text>
</a>
</g>
</g>
<!-- Node243&#45;&gt;Node244 -->
<g id="edge25" class="edge"><title>Node243&#45;&gt;Node244</title>
<path fill="none" stroke="midnightblue" d="M1144.28,-200C1200.16,-200 1289.64,-200 1346.84,-200"/>
<polygon fill="midnightblue" stroke="midnightblue" points="1347.13,-203.5 1357.13,-200 1347.13,-196.5 1347.13,-203.5"/>
</g>
<!-- Node246 -->
<g id="node25" class="node"><title>Node246</title>
<g id="a_node25"><a xlink:href="../../df/d2d/util_8cpp.html#a751ff5f21d880737811136b5e0bcea12" target="_top" xlink:title="DebugPrintInit">
<polygon fill="white" stroke="black" points="1197,-38.5 1197,-57.5 1276,-57.5 1276,-38.5 1197,-38.5"/>
<text text-anchor="middle" x="1236.5" y="-45.5" font-family="Helvetica,sans-Serif" font-size="10.00">DebugPrintInit</text>
</a>
</g>
</g>
<!-- Node245&#45;&gt;Node246 -->
<g id="edge27" class="edge"><title>Node245&#45;&gt;Node246</title>
<path fill="none" stroke="midnightblue" d="M1113.92,-95.4486C1131.32,-87.4499 1157.08,-75.9403 1180,-67 1185.28,-64.9415 1190.88,-62.8805 1196.42,-60.9153"/>
<polygon fill="midnightblue" stroke="midnightblue" points="1197.94,-64.0919 1206.24,-57.5026 1195.65,-57.4799 1197.94,-64.0919"/>
</g>
<!-- Node247 -->
<g id="node26" class="node"><title>Node247</title>
<g id="a_node26"><a xlink:href="../../df/d2d/util_8cpp.html#a7c125ce70fa6b09e1de0c4a404fc2b6f" target="_top" xlink:title="FileWriteStr">
<polygon fill="white" stroke="black" points="1202.5,-0.5 1202.5,-19.5 1270.5,-19.5 1270.5,-0.5 1202.5,-0.5"/>
<text text-anchor="middle" x="1236.5" y="-7.5" font-family="Helvetica,sans-Serif" font-size="10.00">FileWriteStr</text>
</a>
</g>
</g>
<!-- Node245&#45;&gt;Node247 -->
<g id="edge28" class="edge"><title>Node245&#45;&gt;Node247</title>
<path fill="none" stroke="midnightblue" d="M1101.92,-95.4986C1116.41,-79.6587 1147.66,-47.7478 1180,-29 1183.97,-26.6968 1188.27,-24.6154 1192.65,-22.7492"/>
<polygon fill="midnightblue" stroke="midnightblue" points="1194.23,-25.8895 1202.29,-19.005 1191.7,-19.3648 1194.23,-25.8895"/>
</g>
<!-- Node248 -->
<g id="node27" class="node"><title>Node248</title>
<g id="a_node27"><a xlink:href="../../df/d2d/util_8cpp.html#ab83866a054745d4b30a3948a1b44beba" target="_top" xlink:title="GetDataDir">
<polygon fill="white" stroke="black" points="1203.5,-114.5 1203.5,-133.5 1269.5,-133.5 1269.5,-114.5 1203.5,-114.5"/>
<text text-anchor="middle" x="1236.5" y="-121.5" font-family="Helvetica,sans-Serif" font-size="10.00">GetDataDir</text>
</a>
</g>
</g>
<!-- Node245&#45;&gt;Node248 -->
<g id="edge29" class="edge"><title>Node245&#45;&gt;Node248</title>
<path fill="none" stroke="midnightblue" d="M1125.01,-109.217C1145.05,-111.897 1171.23,-115.4 1193.08,-118.324"/>
<polygon fill="midnightblue" stroke="midnightblue" points="1192.71,-121.806 1203.09,-119.663 1193.64,-114.868 1192.71,-121.806"/>
</g>
<!-- Node252 -->
<g id="node31" class="node"><title>Node252</title>
<g id="a_node31"><a xlink:href="../../df/d2d/util_8cpp.html#af0c31e37a5891e021f9b339696398a28" target="_top" xlink:title="fStartedNewLine is a state variable held by the calling context that will suppress printing of the th...">
<polygon fill="white" stroke="black" points="1186,-152.5 1186,-171.5 1287,-171.5 1287,-152.5 1186,-152.5"/>
<text text-anchor="middle" x="1236.5" y="-159.5" font-family="Helvetica,sans-Serif" font-size="10.00">LogThreadNameStr</text>
</a>
</g>
</g>
<!-- Node245&#45;&gt;Node252 -->
<g id="edge33" class="edge"><title>Node245&#45;&gt;Node252</title>
<path fill="none" stroke="midnightblue" d="M1113.92,-114.551C1131.32,-122.55 1157.08,-134.06 1180,-143 1185.28,-145.059 1190.88,-147.119 1196.42,-149.085"/>
<polygon fill="midnightblue" stroke="midnightblue" points="1195.65,-152.52 1206.24,-152.497 1197.94,-145.908 1195.65,-152.52"/>
</g>
<!-- Node253 -->
<g id="node32" class="node"><title>Node253</title>
<g id="a_node32"><a xlink:href="../../df/d2d/util_8cpp.html#a8e80ae045580407e9f2028dc5f7b954c" target="_top" xlink:title="fStartedNewLine is a state variable held by the calling context that will suppress printing of the ti...">
<polygon fill="white" stroke="black" points="1189.5,-76.5 1189.5,-95.5 1283.5,-95.5 1283.5,-76.5 1189.5,-76.5"/>
<text text-anchor="middle" x="1236.5" y="-83.5" font-family="Helvetica,sans-Serif" font-size="10.00">LogTimestampStr</text>
</a>
</g>
</g>
<!-- Node245&#45;&gt;Node253 -->
<g id="edge35" class="edge"><title>Node245&#45;&gt;Node253</title>
<path fill="none" stroke="midnightblue" d="M1125.01,-100.783C1140.94,-98.6524 1160.75,-96.0016 1179.18,-93.5355"/>
<polygon fill="midnightblue" stroke="midnightblue" points="1179.8,-96.9842 1189.25,-92.1889 1178.87,-90.0461 1179.8,-96.9842"/>
</g>
<!-- Node249 -->
<g id="node28" class="node"><title>Node249</title>
<g id="a_node28"><a xlink:href="../../d9/d44/chainparamsbase_8cpp.html#a06ef5bfd0efb53d13bbf4276726e84ab" target="_top" xlink:title="Return the currently selected parameters. ">
<polygon fill="white" stroke="black" points="1365.5,-76.5 1365.5,-95.5 1438.5,-95.5 1438.5,-76.5 1365.5,-76.5"/>
<text text-anchor="middle" x="1402" y="-83.5" font-family="Helvetica,sans-Serif" font-size="10.00">BaseParams</text>
</a>
</g>
</g>
<!-- Node248&#45;&gt;Node249 -->
<g id="edge30" class="edge"><title>Node248&#45;&gt;Node249</title>
<path fill="none" stroke="midnightblue" d="M1269.8,-116.492C1294.23,-110.815 1328.09,-102.946 1355.29,-96.6231"/>
<polygon fill="midnightblue" stroke="midnightblue" points="1356.41,-99.9565 1365.36,-94.2835 1354.83,-93.1383 1356.41,-99.9565"/>
</g>
<!-- Node250 -->
<g id="node29" class="node"><title>Node250</title>
<g id="a_node29"><a xlink:href="../../d2/dfc/class_c_base_chain_params.html#a4b142e94ae27f860522dd5efef41fb67" target="_top" xlink:title="CBaseChainParams::DataDir">
<polygon fill="white" stroke="black" points="1329,-152.5 1329,-171.5 1475,-171.5 1475,-152.5 1329,-152.5"/>
<text text-anchor="middle" x="1402" y="-159.5" font-family="Helvetica,sans-Serif" font-size="10.00">CBaseChainParams::DataDir</text>
</a>
</g>
</g>
<!-- Node248&#45;&gt;Node250 -->
<g id="edge31" class="edge"><title>Node248&#45;&gt;Node250</title>
<path fill="none" stroke="midnightblue" d="M1269.8,-131.508C1292.74,-136.839 1324.01,-144.105 1350.26,-150.207"/>
<polygon fill="midnightblue" stroke="midnightblue" points="1349.52,-153.627 1360.05,-152.482 1351.1,-146.809 1349.52,-153.627"/>
</g>
<!-- Node251 -->
<g id="node30" class="node"><title>Node251</title>
<g id="a_node30"><a xlink:href="../../df/d2d/util_8cpp.html#ab272995de020a3bcbf743be630e485c6" target="_top" xlink:title="GetDefaultDataDir">
<polygon fill="white" stroke="black" points="1353,-114.5 1353,-133.5 1451,-133.5 1451,-114.5 1353,-114.5"/>
<text text-anchor="middle" x="1402" y="-121.5" font-family="Helvetica,sans-Serif" font-size="10.00">GetDefaultDataDir</text>
</a>
</g>
</g>
<!-- Node248&#45;&gt;Node251 -->
<g id="edge32" class="edge"><title>Node248&#45;&gt;Node251</title>
<path fill="none" stroke="midnightblue" d="M1269.8,-124C1290.57,-124 1318.15,-124 1342.66,-124"/>
<polygon fill="midnightblue" stroke="midnightblue" points="1342.95,-127.5 1352.95,-124 1342.95,-120.5 1342.95,-127.5"/>
</g>
<!-- Node252&#45;&gt;Node244 -->
<g id="edge34" class="edge"><title>Node252&#45;&gt;Node244</title>
<path fill="none" stroke="midnightblue" d="M1278.76,-171.589C1300.43,-176.626 1327.18,-182.844 1350.13,-188.177"/>
<polygon fill="midnightblue" stroke="midnightblue" points="1349.51,-191.625 1360.04,-190.48 1351.09,-184.807 1349.51,-191.625"/>
</g>
<!-- Node254 -->
<g id="node33" class="node"><title>Node254</title>
<g id="a_node33"><a xlink:href="../../d6/d3c/utiltime_8cpp.html#a749bc6776c8ec72d7c5e4dea56aee415" target="_top" xlink:title="DateTimeStrFormat">
<polygon fill="white" stroke="black" points="1350.5,-38.5 1350.5,-57.5 1453.5,-57.5 1453.5,-38.5 1350.5,-38.5"/>
<text text-anchor="middle" x="1402" y="-45.5" font-family="Helvetica,sans-Serif" font-size="10.00">DateTimeStrFormat</text>
</a>
</g>
</g>
<!-- Node253&#45;&gt;Node254 -->
<g id="edge36" class="edge"><title>Node253&#45;&gt;Node254</title>
<path fill="none" stroke="midnightblue" d="M1278.76,-76.411C1300.43,-71.3739 1327.18,-65.1562 1350.13,-59.8229"/>
<polygon fill="midnightblue" stroke="midnightblue" points="1351.09,-63.1931 1360.04,-57.5201 1349.51,-56.3748 1351.09,-63.1931"/>
</g>
<!-- Node255 -->
<g id="node34" class="node"><title>Node255</title>
<g id="a_node34"><a xlink:href="../../d6/d3c/utiltime_8cpp.html#a474bed4c01c8a1d18330dceccf865e1e" target="_top" xlink:title="Return a time useful for the debug log. ">
<polygon fill="white" stroke="black" points="1352.5,-0.5 1352.5,-19.5 1451.5,-19.5 1451.5,-0.5 1352.5,-0.5"/>
<text text-anchor="middle" x="1402" y="-7.5" font-family="Helvetica,sans-Serif" font-size="10.00">GetLogTimeMicros</text>
</a>
</g>
</g>
<!-- Node253&#45;&gt;Node255 -->
<g id="edge37" class="edge"><title>Node253&#45;&gt;Node255</title>
<path fill="none" stroke="midnightblue" d="M1273.61,-76.4778C1280.33,-73.9301 1287.09,-70.7988 1293,-67 1312.57,-54.4237 1308.99,-40.8654 1329,-29 1333.23,-26.4945 1337.78,-24.3141 1342.48,-22.4176"/>
<polygon fill="midnightblue" stroke="midnightblue" points="1344.03,-25.581 1352.26,-18.9102 1341.67,-18.992 1344.03,-25.581"/>
</g>
<!-- Node256 -->
<g id="node35" class="node"><title>Node256</title>
<g id="a_node35"><a xlink:href="../../d6/d3c/utiltime_8cpp.html#a0c5a06b50cd805b1923552114494c029" target="_top" xlink:title="GetTimeMicros">
<polygon fill="white" stroke="black" points="1511,-0.5 1511,-19.5 1594,-19.5 1594,-0.5 1511,-0.5"/>
<text text-anchor="middle" x="1552.5" y="-7.5" font-family="Helvetica,sans-Serif" font-size="10.00">GetTimeMicros</text>
</a>
</g>
</g>
<!-- Node255&#45;&gt;Node256 -->
<g id="edge38" class="edge"><title>Node255&#45;&gt;Node256</title>
<path fill="none" stroke="midnightblue" d="M1451.62,-10C1467.31,-10 1484.73,-10 1500.57,-10"/>
<polygon fill="midnightblue" stroke="midnightblue" points="1500.72,-13.5001 1510.72,-10 1500.72,-6.5001 1500.72,-13.5001"/>
</g>
<!-- Node260&#45;&gt;Node233 -->
<g id="edge44" class="edge"><title>Node260&#45;&gt;Node233</title>
<path fill="none" stroke="midnightblue" d="M289.515,-228.186C302.542,-228.814 316.345,-229.48 329.78,-230.129"/>
<polygon fill="midnightblue" stroke="midnightblue" points="329.806,-233.634 339.964,-230.62 330.144,-226.642 329.806,-233.634"/>
</g>
<!-- Node261&#45;&gt;Node223 -->
<g id="edge46" class="edge"><title>Node261&#45;&gt;Node223</title>
<path fill="none" stroke="midnightblue" d="M270.562,-481.411C298.625,-475.693 334.154,-468.454 362.325,-462.714"/>
<polygon fill="midnightblue" stroke="midnightblue" points="363.243,-466.099 372.343,-460.673 361.846,-459.24 363.243,-466.099"/>
</g>
</g>
</svg>
        <g id="navigator" transform="translate(0 0)" fill="#404254">
                <rect fill="#f2f5e9" fill-opacity="0.5" stroke="#606060" stroke-width=".5" x="0" y="0" width="60" height="60"/>
                <use id="zoomplus" xlink:href="#zoomPlus" x="17" y="9" onmousedown="handleZoom(evt,'in')"/>
                <use id="zoomminus" xlink:href="#zoomMin" x="42" y="9" onmousedown="handleZoom(evt,'out')"/>
                <use id="reset" xlink:href="#resetDef" x="30" y="36" onmousedown="handleReset()"/>
                <g id="arrowUp" xlink:href="#dirArrow" transform="translate(30 24)" onmousedown="handlePan(0,-1)">
                  <use xlink:href="#rim" fill="#404040">
                        <set attributeName="fill" to="#808080" begin="arrowUp.mouseover" end="arrowUp.mouseout"/>
                  </use>
                  <path fill="none" stroke="white" stroke-width="1.5" d="M0,-3.0v7 M-2.5,-0.5L0,-3.0L2.5,-0.5"/>
                </g>
                <g id="arrowRight" xlink:href="#dirArrow" transform="rotate(90) translate(36 -43)" onmousedown="handlePan(1,0)">
                  <use xlink:href="#rim" fill="#404040">
                        <set attributeName="fill" to="#808080" begin="arrowRight.mouseover" end="arrowRight.mouseout"/>
                  </use>
                  <path fill="none" stroke="white" stroke-width="1.5" d="M0,-3.0v7 M-2.5,-0.5L0,-3.0L2.5,-0.5"/>
                </g>
                <g id="arrowDown" xlink:href="#dirArrow" transform="rotate(180) translate(-30 -48)" onmousedown="handlePan(0,1)">
                  <use xlink:href="#rim" fill="#404040">
                        <set attributeName="fill" to="#808080" begin="arrowDown.mouseover" end="arrowDown.mouseout"/>
                  </use>
                  <path fill="none" stroke="white" stroke-width="1.5" d="M0,-3.0v7 M-2.5,-0.5L0,-3.0L2.5,-0.5"/>
                </g>
                <g id="arrowLeft" xlink:href="#dirArrow" transform="rotate(270) translate(-36 17)" onmousedown="handlePan(-1,0)">
                  <use xlink:href="#rim" fill="#404040">
                        <set attributeName="fill" to="#808080" begin="arrowLeft.mouseover" end="arrowLeft.mouseout"/>
                  </use>
                  <path fill="none" stroke="white" stroke-width="1.5" d="M0,-3.0v7 M-2.5,-0.5L0,-3.0L2.5,-0.5"/>
                </g>
        </g>
        <svg viewBox="0 0 15 15" width="100%" height="30px" preserveAspectRatio="xMaxYMin meet">
         <g id="arrow_out" transform="scale(0.3 0.3)">
          <a xlink:href="class_transaction_record_a9b643dd885a790ae511705a1446556be_cgraph_org.svg" target="_base">
           <rect id="button" ry="5" rx="5" y="6" x="6" height="38" width="38"
                fill="#f2f5e9" fill-opacity="0.5" stroke="#606060" stroke-width="1.0"/>
           <path id="arrow"
             d="M 11.500037,31.436501 C 11.940474,20.09759 22.043105,11.32322 32.158766,21.979434 L 37.068811,17.246167 C 37.068811,17.246167 37.088388,32 37.088388,32 L 22.160133,31.978069 C 22.160133,31.978069 26.997745,27.140456 26.997745,27.140456 C 18.528582,18.264221 13.291696,25.230495 11.500037,31.436501 z"
             style="fill:#404040;"/>
          </a>
         </g>
        </svg>
</svg>
