<?xml version="1.0" encoding="UTF-8" standalone="no"?>
<!DOCTYPE svg PUBLIC "-//W3C//DTD SVG 1.1//EN"
 "http://www.w3.org/Graphics/SVG/1.1/DTD/svg11.dtd">
<!-- Generated by graphviz version 2.38.0 (20140413.2041)
 -->
<!-- Title: VersionBitsMask Pages: 1 -->
<!--zoomable 408 -->
<svg id="main" version="1.1" xmlns="http://www.w3.org/2000/svg" xmlns:xlink="http://www.w3.org/1999/xlink" xml:space="preserve" onload="init(evt)">
<style type="text/css"><![CDATA[
.edge:hover path { stroke: red; }
.edge:hover polygon { stroke: red; fill: red; }
]]></style>
<script type="text/javascript"><![CDATA[
var edges = document.getElementsByTagName('g');
if (edges && edges.length) {
  for (var i=0;i<edges.length;i++) {
    if (edges[i].id.substr(0,4)=='edge') {
      edges[i].setAttribute('class','edge');
    }
  }
}
]]></script>
        <defs>
                <circle id="rim" cx="0" cy="0" r="7"/>
                <circle id="rim2" cx="0" cy="0" r="3.5"/>
                <g id="zoomPlus">
                        <use xlink:href="#rim" fill="#404040">
                                <set attributeName="fill" to="#808080" begin="zoomplus.mouseover" end="zoomplus.mouseout"/>
                        </use>
                        <path d="M-4,0h8M0,-4v8" fill="none" stroke="white" stroke-width="1.5" pointer-events="none"/>
                </g>
                <g id="zoomMin">
                        <use xlink:href="#rim" fill="#404040">
                                <set attributeName="fill" to="#808080" begin="zoomminus.mouseover" end="zoomminus.mouseout"/>
                        </use>
                        <path d="M-4,0h8" fill="none" stroke="white" stroke-width="1.5" pointer-events="none"/>
                </g>
                <g id="dirArrow">
                        <path fill="none" stroke="white" stroke-width="1.5" d="M0,-3.0v7 M-2.5,-0.5L0,-3.0L2.5,-0.5"/>
                </g>
               <g id="resetDef">
                       <use xlink:href="#rim2" fill="#404040">
                               <set attributeName="fill" to="#808080" begin="reset.mouseover" end="reset.mouseout"/>
                       </use>
               </g>
        </defs>

<script type="text/javascript">
var viewWidth = 2455;
var viewHeight = 408;
var sectionId = 'dynsection-1';
</script>
<script xlink:href="../../svgpan.js"/>
<svg id="graph" class="graph">
<g id="viewport">
<title>VersionBitsMask</title>
<polygon fill="white" stroke="none" points="-4,4 -4,-404 2451,-404 2451,4 -4,4"/>
<!-- Node1 -->
<g id="node1" class="node"><title>Node1</title>
<polygon fill="#bfbfbf" stroke="black" points="0,-33.5 0,-52.5 91,-52.5 91,-33.5 0,-33.5"/>
<text text-anchor="middle" x="45.5" y="-40.5" font-family="Helvetica,sans-Serif" font-size="10.00">VersionBitsMask</text>
</g>
<!-- Node2 -->
<g id="node2" class="node"><title>Node2</title>
<g id="a_node2"><a xlink:href="../../db/d38/validation_8h.html#a224ac64ffe61dd0bc66e2ad70eaf2812" target="_top" xlink:title="Determine what nVersion a new block should use. ">
<polygon fill="white" stroke="black" points="127,-62.5 127,-81.5 241,-81.5 241,-62.5 127,-62.5"/>
<text text-anchor="middle" x="184" y="-69.5" font-family="Helvetica,sans-Serif" font-size="10.00">ComputeBlockVersion</text>
</a>
</g>
</g>
<!-- Node1&#45;&gt;Node2 -->
<g id="edge1" class="edge"><title>Node1&#45;&gt;Node2</title>
<path fill="none" stroke="midnightblue" d="M101.309,-54.6443C113.56,-57.2473 126.414,-59.9781 138.204,-62.483"/>
<polygon fill="midnightblue" stroke="midnightblue" points="101.704,-51.1503 91.1952,-52.4957 100.25,-57.9975 101.704,-51.1503"/>
</g>
<!-- Node17 -->
<g id="node17" class="node"><title>Node17</title>
<g id="a_node17"><a xlink:href="../../d8/dc3/server_8h.html#a054ca23f5d86a8ca30138464ba10008c" target="_top" xlink:title="getblocktemplate">
<polygon fill="white" stroke="black" points="461,-0.5 461,-19.5 552,-19.5 552,-0.5 461,-0.5"/>
<text text-anchor="middle" x="506.5" y="-7.5" font-family="Helvetica,sans-Serif" font-size="10.00">getblocktemplate</text>
</a>
</g>
</g>
<!-- Node1&#45;&gt;Node17 -->
<g id="edge58" class="edge"><title>Node1&#45;&gt;Node17</title>
<path fill="none" stroke="midnightblue" d="M101.555,-39.0418C193.452,-32.4348 376.329,-19.2868 460.81,-13.213"/>
<polygon fill="midnightblue" stroke="midnightblue" points="101.07,-35.5676 91.3466,-39.7757 101.572,-42.5495 101.07,-35.5676"/>
</g>
<!-- Node3 -->
<g id="node3" class="node"><title>Node3</title>
<g id="a_node3"><a xlink:href="../../de/d01/class_warning_bits_condition_checker.html#aae2fc419d193b147e8fad8121fb5e579" target="_top" xlink:title="WarningBitsConditionChecker\l::Condition">
<polygon fill="white" stroke="black" points="277,-148 277,-178 425,-178 425,-148 277,-148"/>
<text text-anchor="start" x="285" y="-166" font-family="Helvetica,sans-Serif" font-size="10.00">WarningBitsConditionChecker</text>
<text text-anchor="middle" x="351" y="-155" font-family="Helvetica,sans-Serif" font-size="10.00">::Condition</text>
</a>
</g>
</g>
<!-- Node2&#45;&gt;Node3 -->
<g id="edge2" class="edge"><title>Node2&#45;&gt;Node3</title>
<path fill="none" stroke="midnightblue" d="M204.124,-88.2807C222.019,-102.871 249.975,-124.063 277,-138 284.144,-141.684 291.949,-145.014 299.713,-147.955"/>
<polygon fill="midnightblue" stroke="midnightblue" points="206.129,-85.396 196.196,-81.709 201.661,-90.7853 206.129,-85.396"/>
</g>
<!-- Node4 -->
<g id="node4" class="node"><title>Node4</title>
<g id="a_node4"><a xlink:href="../../de/d13/miner_8h.html#ac8f34678ed590db1325b261c708f2626" target="_top" xlink:title="Generate a new block, without valid proof&#45;of&#45;work. ">
<polygon fill="white" stroke="black" points="305.5,-52.5 305.5,-71.5 396.5,-71.5 396.5,-52.5 305.5,-52.5"/>
<text text-anchor="middle" x="351" y="-59.5" font-family="Helvetica,sans-Serif" font-size="10.00">CreateNewBlock</text>
</a>
</g>
</g>
<!-- Node2&#45;&gt;Node4 -->
<g id="edge3" class="edge"><title>Node2&#45;&gt;Node4</title>
<path fill="none" stroke="midnightblue" d="M251.537,-67.9675C269.64,-66.8703 288.809,-65.7085 305.376,-64.7045"/>
<polygon fill="midnightblue" stroke="midnightblue" points="251.092,-64.4879 241.322,-68.5865 251.516,-71.4751 251.092,-64.4879"/>
</g>
<!-- Node18 -->
<g id="node18" class="node"><title>Node18</title>
<g id="a_node18"><a xlink:href="../../dd/d7d/validation_8cpp.html#acb563f9a7437d6d83ce59392907c6b0c" target="_top" xlink:title="Update chainActive and related internal data structures. ">
<polygon fill="white" stroke="black" points="320,-109.5 320,-128.5 382,-128.5 382,-109.5 320,-109.5"/>
<text text-anchor="middle" x="351" y="-116.5" font-family="Helvetica,sans-Serif" font-size="10.00">UpdateTip</text>
</a>
</g>
</g>
<!-- Node2&#45;&gt;Node18 -->
<g id="edge18" class="edge"><title>Node2&#45;&gt;Node18</title>
<path fill="none" stroke="midnightblue" d="M228.22,-84.3111C257.09,-92.5346 294.331,-103.143 319.988,-110.451"/>
<polygon fill="midnightblue" stroke="midnightblue" points="228.967,-80.8846 218.39,-81.5112 227.049,-87.6168 228.967,-80.8846"/>
</g>
<!-- Node5 -->
<g id="node5" class="node"><title>Node5</title>
<g id="a_node5"><a xlink:href="../../d6/de3/miner_8cpp.html#a17c61f964b27cc5060cd7f9b0efb3607" target="_top" xlink:title="BitcoinMiner">
<polygon fill="white" stroke="black" points="1218,-114.5 1218,-133.5 1289,-133.5 1289,-114.5 1218,-114.5"/>
<text text-anchor="middle" x="1253.5" y="-121.5" font-family="Helvetica,sans-Serif" font-size="10.00">BitcoinMiner</text>
</a>
</g>
</g>
<!-- Node4&#45;&gt;Node5 -->
<g id="edge4" class="edge"><title>Node4&#45;&gt;Node5</title>
<path fill="none" stroke="midnightblue" d="M407.108,-57.8148C466.248,-53.6898 562.964,-48 646.5,-48 646.5,-48 646.5,-48 935,-48 1045.1,-48 1079.68,-26.3306 1182,-67 1208.04,-77.3487 1231.95,-100.863 1244.1,-114.232"/>
<polygon fill="midnightblue" stroke="midnightblue" points="406.6,-54.3419 396.873,-58.5393 407.095,-61.3244 406.6,-54.3419"/>
</g>
<!-- Node16 -->
<g id="node16" class="node"><title>Node16</title>
<g id="a_node16"><a xlink:href="../../d8/dc3/server_8h.html#afc5f2c0cbe40a2f876b46df2929cf359" target="_top" xlink:title="generate">
<polygon fill="white" stroke="black" points="1077.5,-76.5 1077.5,-95.5 1131.5,-95.5 1131.5,-76.5 1077.5,-76.5"/>
<text text-anchor="middle" x="1104.5" y="-83.5" font-family="Helvetica,sans-Serif" font-size="10.00">generate</text>
</a>
</g>
</g>
<!-- Node4&#45;&gt;Node16 -->
<g id="edge16" class="edge"><title>Node4&#45;&gt;Node16</title>
<path fill="none" stroke="midnightblue" d="M407.036,-69.1746C466.116,-76.2461 562.781,-86 646.5,-86 646.5,-86 646.5,-86 793,-86 898.387,-86 1023.89,-86 1077.33,-86"/>
<polygon fill="midnightblue" stroke="midnightblue" points="407.161,-65.6641 396.812,-67.9326 406.316,-72.6131 407.161,-65.6641"/>
</g>
<!-- Node4&#45;&gt;Node17 -->
<g id="edge17" class="edge"><title>Node4&#45;&gt;Node17</title>
<path fill="none" stroke="midnightblue" d="M389.688,-49.2327C416.751,-40.0647 452.65,-27.9036 477.265,-19.565"/>
<polygon fill="midnightblue" stroke="midnightblue" points="388.503,-45.9389 380.154,-52.4624 390.749,-52.5688 388.503,-45.9389"/>
</g>
<!-- Node6 -->
<g id="node6" class="node"><title>Node6</title>
<g id="a_node6"><a xlink:href="../../de/d13/miner_8h.html#a5dd1df3c97c260735ad08a808db2115c" target="_top" xlink:title="Run the miner threads. ">
<polygon fill="white" stroke="black" points="1841.5,-114.5 1841.5,-133.5 1933.5,-133.5 1933.5,-114.5 1841.5,-114.5"/>
<text text-anchor="middle" x="1887.5" y="-121.5" font-family="Helvetica,sans-Serif" font-size="10.00">GenerateBitcoins</text>
</a>
</g>
</g>
<!-- Node5&#45;&gt;Node6 -->
<g id="edge5" class="edge"><title>Node5&#45;&gt;Node6</title>
<path fill="none" stroke="midnightblue" d="M1299.71,-124C1416.13,-124 1725.22,-124 1841.46,-124"/>
<polygon fill="midnightblue" stroke="midnightblue" points="1299.38,-120.5 1289.38,-124 1299.38,-127.5 1299.38,-120.5"/>
</g>
<!-- Node7 -->
<g id="node7" class="node"><title>Node7</title>
<g id="a_node7"><a xlink:href="../../d8/dc0/init_8h.html#a6f0784aa332573f949b0975205572b28" target="_top" xlink:title="Initialize Dash Core. ">
<polygon fill="white" stroke="black" points="2002.5,-228.5 2002.5,-247.5 2055.5,-247.5 2055.5,-228.5 2002.5,-228.5"/>
<text text-anchor="middle" x="2029" y="-235.5" font-family="Helvetica,sans-Serif" font-size="10.00">AppInit2</text>
</a>
</g>
</g>
<!-- Node6&#45;&gt;Node7 -->
<g id="edge6" class="edge"><title>Node6&#45;&gt;Node7</title>
<path fill="none" stroke="midnightblue" d="M1936.66,-137.673C1939.92,-139.272 1943.07,-141.043 1946,-143 1955.19,-149.142 2001.37,-205.279 2020.09,-228.26"/>
<polygon fill="midnightblue" stroke="midnightblue" points="1937.84,-134.369 1927.27,-133.608 1935.06,-140.793 1937.84,-134.369"/>
</g>
<!-- Node11 -->
<g id="node11" class="node"><title>Node11</title>
<g id="a_node11"><a xlink:href="../../d8/dc0/init_8h.html#a5cb3db83cb0ba2e421f651a1ee1f2cfe" target="_top" xlink:title="Preparing steps before shutting down or restarting the wallet. ">
<polygon fill="white" stroke="black" points="1982,-152.5 1982,-171.5 2076,-171.5 2076,-152.5 1982,-152.5"/>
<text text-anchor="middle" x="2029" y="-159.5" font-family="Helvetica,sans-Serif" font-size="10.00">PrepareShutdown</text>
</a>
</g>
</g>
<!-- Node6&#45;&gt;Node11 -->
<g id="edge10" class="edge"><title>Node6&#45;&gt;Node11</title>
<path fill="none" stroke="midnightblue" d="M1933.46,-136.246C1952.68,-141.484 1974.8,-147.509 1992.81,-152.414"/>
<polygon fill="midnightblue" stroke="midnightblue" points="1934.27,-132.84 1923.7,-133.589 1932.43,-139.594 1934.27,-132.84"/>
</g>
<!-- Node15 -->
<g id="node15" class="node"><title>Node15</title>
<g id="a_node15"><a xlink:href="../../d8/dc3/server_8h.html#ae13fce5b0e4a07b7d116242b3a0e39b8" target="_top" xlink:title="setgenerate">
<polygon fill="white" stroke="black" points="1995,-114.5 1995,-133.5 2063,-133.5 2063,-114.5 1995,-114.5"/>
<text text-anchor="middle" x="2029" y="-121.5" font-family="Helvetica,sans-Serif" font-size="10.00">setgenerate</text>
</a>
</g>
</g>
<!-- Node6&#45;&gt;Node15 -->
<g id="edge15" class="edge"><title>Node6&#45;&gt;Node15</title>
<path fill="none" stroke="midnightblue" d="M1943.79,-124C1961.08,-124 1979.6,-124 1994.86,-124"/>
<polygon fill="midnightblue" stroke="midnightblue" points="1943.79,-120.5 1933.79,-124 1943.79,-127.5 1943.79,-120.5"/>
</g>
<!-- Node8 -->
<g id="node8" class="node"><title>Node8</title>
<g id="a_node8"><a xlink:href="../../dd/de1/dashd_8cpp.html#ac59316b767e6984e1285f0531275286b" target="_top" xlink:title="AppInit">
<polygon fill="white" stroke="black" points="2291.5,-228.5 2291.5,-247.5 2338.5,-247.5 2338.5,-228.5 2291.5,-228.5"/>
<text text-anchor="middle" x="2315" y="-235.5" font-family="Helvetica,sans-Serif" font-size="10.00">AppInit</text>
</a>
</g>
</g>
<!-- Node7&#45;&gt;Node8 -->
<g id="edge7" class="edge"><title>Node7&#45;&gt;Node8</title>
<path fill="none" stroke="midnightblue" d="M2065.53,-248.091C2079.84,-251.666 2096.58,-255.237 2112,-257 2160.13,-262.503 2172.8,-261.873 2221,-257 2245.27,-254.547 2272.56,-248.58 2291.27,-243.982"/>
<polygon fill="midnightblue" stroke="midnightblue" points="2066.15,-244.636 2055.59,-245.512 2064.39,-251.412 2066.15,-244.636"/>
</g>
<!-- Node10 -->
<g id="node10" class="node"><title>Node10</title>
<g id="a_node10"><a xlink:href="../../d2/d76/class_bitcoin_core.html#af34ca069cda1d4362dcc109b4397fb62" target="_top" xlink:title="BitcoinCore::initialize">
<polygon fill="white" stroke="black" points="2112,-228.5 2112,-247.5 2221,-247.5 2221,-228.5 2112,-228.5"/>
<text text-anchor="middle" x="2166.5" y="-235.5" font-family="Helvetica,sans-Serif" font-size="10.00">BitcoinCore::initialize</text>
</a>
</g>
</g>
<!-- Node7&#45;&gt;Node10 -->
<g id="edge9" class="edge"><title>Node7&#45;&gt;Node10</title>
<path fill="none" stroke="midnightblue" d="M2066.01,-238C2080.03,-238 2096.38,-238 2111.74,-238"/>
<polygon fill="midnightblue" stroke="midnightblue" points="2065.81,-234.5 2055.81,-238 2065.81,-241.5 2065.81,-234.5"/>
</g>
<!-- Node9 -->
<g id="node9" class="node"><title>Node9</title>
<g id="a_node9"><a xlink:href="../../dd/de1/dashd_8cpp.html#a0ddf1224851353fc92bfbff6f499fa97" target="_top" xlink:title="main">
<polygon fill="white" stroke="black" points="2409,-228.5 2409,-247.5 2447,-247.5 2447,-228.5 2409,-228.5"/>
<text text-anchor="middle" x="2428" y="-235.5" font-family="Helvetica,sans-Serif" font-size="10.00">main</text>
</a>
</g>
</g>
<!-- Node8&#45;&gt;Node9 -->
<g id="edge8" class="edge"><title>Node8&#45;&gt;Node9</title>
<path fill="none" stroke="midnightblue" d="M2348.77,-238C2368.33,-238 2392.46,-238 2408.7,-238"/>
<polygon fill="midnightblue" stroke="midnightblue" points="2348.73,-234.5 2338.73,-238 2348.73,-241.5 2348.73,-234.5"/>
</g>
<!-- Node12 -->
<g id="node12" class="node"><title>Node12</title>
<g id="a_node12"><a xlink:href="../../d2/d76/class_bitcoin_core.html#ac2271844c89ebc4c611e7617ce6202e3" target="_top" xlink:title="BitcoinCore::restart">
<polygon fill="white" stroke="black" points="2116,-190.5 2116,-209.5 2217,-209.5 2217,-190.5 2116,-190.5"/>
<text text-anchor="middle" x="2166.5" y="-197.5" font-family="Helvetica,sans-Serif" font-size="10.00">BitcoinCore::restart</text>
</a>
</g>
</g>
<!-- Node11&#45;&gt;Node12 -->
<g id="edge11" class="edge"><title>Node11&#45;&gt;Node12</title>
<path fill="none" stroke="midnightblue" d="M2073.92,-174.318C2092.54,-179.539 2113.91,-185.532 2131.32,-190.414"/>
<polygon fill="midnightblue" stroke="midnightblue" points="2074.77,-170.919 2064.19,-171.589 2072.88,-177.659 2074.77,-170.919"/>
</g>
<!-- Node13 -->
<g id="node13" class="node"><title>Node13</title>
<g id="a_node13"><a xlink:href="../../d8/dc0/init_8h.html#ac5f038c2b480cf9ef5e19e3eba8dbaf9" target="_top" xlink:title="Shutdown is split into 2 parts: Part 1: shut down everything but the main wallet instance (done in Pr...">
<polygon fill="white" stroke="black" points="2136.5,-152.5 2136.5,-171.5 2196.5,-171.5 2196.5,-152.5 2136.5,-152.5"/>
<text text-anchor="middle" x="2166.5" y="-159.5" font-family="Helvetica,sans-Serif" font-size="10.00">Shutdown</text>
</a>
</g>
</g>
<!-- Node11&#45;&gt;Node13 -->
<g id="edge12" class="edge"><title>Node11&#45;&gt;Node13</title>
<path fill="none" stroke="midnightblue" d="M2086.74,-162C2103.84,-162 2121.9,-162 2136.41,-162"/>
<polygon fill="midnightblue" stroke="midnightblue" points="2086.25,-158.5 2076.25,-162 2086.25,-165.5 2086.25,-158.5"/>
</g>
<!-- Node13&#45;&gt;Node8 -->
<g id="edge13" class="edge"><title>Node13&#45;&gt;Node8</title>
<path fill="none" stroke="midnightblue" d="M2206.17,-174.646C2211.23,-176.614 2216.28,-178.748 2221,-181 2250.56,-195.119 2282.64,-216.186 2300.33,-228.362"/>
<polygon fill="midnightblue" stroke="midnightblue" points="2207.14,-171.271 2196.55,-171.077 2204.71,-177.834 2207.14,-171.271"/>
</g>
<!-- Node14 -->
<g id="node14" class="node"><title>Node14</title>
<g id="a_node14"><a xlink:href="../../d2/d76/class_bitcoin_core.html#a94f3f4622ba698e321f3a2e0e686129f" target="_top" xlink:title="BitcoinCore::shutdown">
<polygon fill="white" stroke="black" points="2257,-152.5 2257,-171.5 2373,-171.5 2373,-152.5 2257,-152.5"/>
<text text-anchor="middle" x="2315" y="-159.5" font-family="Helvetica,sans-Serif" font-size="10.00">BitcoinCore::shutdown</text>
</a>
</g>
</g>
<!-- Node13&#45;&gt;Node14 -->
<g id="edge14" class="edge"><title>Node13&#45;&gt;Node14</title>
<path fill="none" stroke="midnightblue" d="M2206.97,-162C2222.31,-162 2240.18,-162 2256.88,-162"/>
<polygon fill="midnightblue" stroke="midnightblue" points="2206.79,-158.5 2196.79,-162 2206.79,-165.5 2206.79,-158.5"/>
</g>
<!-- Node19 -->
<g id="node19" class="node"><title>Node19</title>
<g id="a_node19"><a xlink:href="../../dd/d7d/validation_8cpp.html#a9258465a729a68271780a9968e65819a" target="_top" xlink:title="Connect a new block to chainActive. ">
<polygon fill="white" stroke="black" points="473,-190.5 473,-209.5 540,-209.5 540,-190.5 473,-190.5"/>
<text text-anchor="middle" x="506.5" y="-197.5" font-family="Helvetica,sans-Serif" font-size="10.00">ConnectTip</text>
</a>
</g>
</g>
<!-- Node18&#45;&gt;Node19 -->
<g id="edge19" class="edge"><title>Node18&#45;&gt;Node19</title>
<path fill="none" stroke="midnightblue" d="M391.953,-126.329C402.984,-129.164 414.735,-132.972 425,-138 453.199,-151.812 481.102,-176.391 495.488,-190.087"/>
<polygon fill="midnightblue" stroke="midnightblue" points="392.627,-122.891 382.089,-123.991 391.012,-129.703 392.627,-122.891"/>
</g>
<!-- Node40 -->
<g id="node40" class="node"><title>Node40</title>
<g id="a_node40"><a xlink:href="../../dd/d7d/validation_8cpp.html#a6ceb71a20037d3bc1c6208b99b004c12" target="_top" xlink:title="Disconnect chainActive&#39;s tip. ">
<polygon fill="white" stroke="black" points="466.5,-294.5 466.5,-313.5 546.5,-313.5 546.5,-294.5 466.5,-294.5"/>
<text text-anchor="middle" x="506.5" y="-301.5" font-family="Helvetica,sans-Serif" font-size="10.00">DisconnectTip</text>
</a>
</g>
</g>
<!-- Node18&#45;&gt;Node40 -->
<g id="edge52" class="edge"><title>Node18&#45;&gt;Node40</title>
<path fill="none" stroke="midnightblue" d="M392.167,-122.802C403.791,-125.555 415.809,-130.202 425,-138 455.04,-163.487 443.855,-183.531 461,-219 474.338,-246.594 491.492,-278.433 500.085,-294.159"/>
<polygon fill="midnightblue" stroke="midnightblue" points="392.62,-119.324 382.134,-120.838 391.275,-126.194 392.62,-119.324"/>
</g>
<!-- Node20 -->
<g id="node20" class="node"><title>Node20</title>
<g id="a_node20"><a xlink:href="../../dd/d7d/validation_8cpp.html#a345d6616250288efacae87d05528fe8a" target="_top" xlink:title="Try to make some progress towards making pindexMostWork the active block. ">
<polygon fill="white" stroke="black" points="588,-266.5 588,-285.5 707,-285.5 707,-266.5 588,-266.5"/>
<text text-anchor="middle" x="647.5" y="-273.5" font-family="Helvetica,sans-Serif" font-size="10.00">ActivateBestChainStep</text>
</a>
</g>
</g>
<!-- Node19&#45;&gt;Node20 -->
<g id="edge20" class="edge"><title>Node19&#45;&gt;Node20</title>
<path fill="none" stroke="midnightblue" d="M533.938,-214.455C561.862,-229.723 605.093,-253.36 629.038,-266.453"/>
<polygon fill="midnightblue" stroke="midnightblue" points="535.558,-211.352 525.104,-209.625 532.199,-217.494 535.558,-211.352"/>
</g>
<!-- Node21 -->
<g id="node21" class="node"><title>Node21</title>
<g id="a_node21"><a xlink:href="../../db/d38/validation_8h.html#ab7be3f1b4119e8df383a4332ddbd344a" target="_top" xlink:title="Find the best known block, and make it the tip of the block chain. ">
<polygon fill="white" stroke="black" points="743,-266.5 743,-285.5 841,-285.5 841,-266.5 743,-266.5"/>
<text text-anchor="middle" x="792" y="-273.5" font-family="Helvetica,sans-Serif" font-size="10.00">ActivateBestChain</text>
</a>
</g>
</g>
<!-- Node20&#45;&gt;Node21 -->
<g id="edge21" class="edge"><title>Node20&#45;&gt;Node21</title>
<path fill="none" stroke="midnightblue" d="M717.327,-276C725.926,-276 734.573,-276 742.765,-276"/>
<polygon fill="midnightblue" stroke="midnightblue" points="717.283,-272.5 707.283,-276 717.283,-279.5 717.283,-272.5"/>
</g>
<!-- Node22 -->
<g id="node22" class="node"><title>Node22</title>
<g id="a_node22"><a xlink:href="../../db/d38/validation_8h.html#aaf2e19311fff6b9cd421a9a9d59f7ff1" target="_top" xlink:title="Initialize a new block tree database + block data on disk. ">
<polygon fill="white" stroke="black" points="894.5,-190.5 894.5,-209.5 973.5,-209.5 973.5,-190.5 894.5,-190.5"/>
<text text-anchor="middle" x="934" y="-197.5" font-family="Helvetica,sans-Serif" font-size="10.00">InitBlockIndex</text>
</a>
</g>
</g>
<!-- Node21&#45;&gt;Node22 -->
<g id="edge22" class="edge"><title>Node21&#45;&gt;Node22</title>
<path fill="none" stroke="midnightblue" d="M813.165,-260.027C829.613,-247.578 853.834,-230.525 877,-219 884.262,-215.387 892.374,-212.195 900.121,-209.508"/>
<polygon fill="midnightblue" stroke="midnightblue" points="810.67,-257.531 804.883,-266.406 814.941,-263.077 810.67,-257.531"/>
</g>
<!-- Node23 -->
<g id="node23" class="node"><title>Node23</title>
<g id="a_node23"><a xlink:href="../../d0/dc9/init_8cpp.html#a0189c34248cd89bbbe20d4d6045bd7c9" target="_top" xlink:title="ThreadImport">
<polygon fill="white" stroke="black" points="1067.5,-266.5 1067.5,-285.5 1141.5,-285.5 1141.5,-266.5 1067.5,-266.5"/>
<text text-anchor="middle" x="1104.5" y="-273.5" font-family="Helvetica,sans-Serif" font-size="10.00">ThreadImport</text>
</a>
</g>
</g>
<!-- Node21&#45;&gt;Node23 -->
<g id="edge51" class="edge"><title>Node21&#45;&gt;Node23</title>
<path fill="none" stroke="midnightblue" d="M851.427,-276C914.902,-276 1014.32,-276 1067.34,-276"/>
<polygon fill="midnightblue" stroke="midnightblue" points="851.175,-272.5 841.175,-276 851.175,-279.5 851.175,-272.5"/>
</g>
<!-- Node24 -->
<g id="node24" class="node"><title>Node24</title>
<g id="a_node24"><a xlink:href="../../d8/dc3/server_8h.html#a7e43030fb221e28db98accef3fc80232" target="_top" xlink:title="invalidateblock">
<polygon fill="white" stroke="black" points="893.5,-380.5 893.5,-399.5 974.5,-399.5 974.5,-380.5 893.5,-380.5"/>
<text text-anchor="middle" x="934" y="-387.5" font-family="Helvetica,sans-Serif" font-size="10.00">invalidateblock</text>
</a>
</g>
</g>
<!-- Node21&#45;&gt;Node24 -->
<g id="edge26" class="edge"><title>Node21&#45;&gt;Node24</title>
<path fill="none" stroke="midnightblue" d="M804.554,-293.994C819.063,-315.237 845.862,-350.289 877,-371 882.727,-374.809 889.293,-377.926 895.865,-380.452"/>
<polygon fill="midnightblue" stroke="midnightblue" points="807.398,-291.95 798.946,-285.561 801.57,-295.826 807.398,-291.95"/>
</g>
<!-- Node25 -->
<g id="node25" class="node"><title>Node25</title>
<g id="a_node25"><a xlink:href="../../db/d38/validation_8h.html#a2233339a13d09038cf2e46f4d0144be4" target="_top" xlink:title="Import blocks from an external file. ">
<polygon fill="white" stroke="black" points="877,-228.5 877,-247.5 991,-247.5 991,-228.5 877,-228.5"/>
<text text-anchor="middle" x="934" y="-235.5" font-family="Helvetica,sans-Serif" font-size="10.00">LoadExternalBlockFile</text>
</a>
</g>
</g>
<!-- Node21&#45;&gt;Node25 -->
<g id="edge27" class="edge"><title>Node21&#45;&gt;Node25</title>
<path fill="none" stroke="midnightblue" d="M838.118,-263.754C857.415,-258.516 879.612,-252.491 897.683,-247.586"/>
<polygon fill="midnightblue" stroke="midnightblue" points="837.062,-260.414 828.328,-266.411 838.896,-267.169 837.062,-260.414"/>
</g>
<!-- Node26 -->
<g id="node26" class="node"><title>Node26</title>
<g id="a_node26"><a xlink:href="../../db/d38/validation_8h.html#ac880446d7f8833dd498df914ccc816a9" target="_top" xlink:title="Process an incoming block. ">
<polygon fill="white" stroke="black" points="885,-152.5 885,-171.5 983,-171.5 983,-152.5 885,-152.5"/>
<text text-anchor="middle" x="934" y="-159.5" font-family="Helvetica,sans-Serif" font-size="10.00">ProcessNewBlock</text>
</a>
</g>
</g>
<!-- Node21&#45;&gt;Node26 -->
<g id="edge29" class="edge"><title>Node21&#45;&gt;Node26</title>
<path fill="none" stroke="midnightblue" d="M804.554,-258.006C819.063,-236.763 845.862,-201.711 877,-181 882.727,-177.191 889.293,-174.074 895.865,-171.548"/>
<polygon fill="midnightblue" stroke="midnightblue" points="801.57,-256.174 798.946,-266.439 807.398,-260.05 801.57,-256.174"/>
</g>
<!-- Node33 -->
<g id="node33" class="node"><title>Node33</title>
<g id="a_node33"><a xlink:href="../../d8/dc3/server_8h.html#a29263a4d92c9f0c07c1dfb0a5fad681b" target="_top" xlink:title="reconsiderblock">
<polygon fill="white" stroke="black" points="891.5,-304.5 891.5,-323.5 976.5,-323.5 976.5,-304.5 891.5,-304.5"/>
<text text-anchor="middle" x="934" y="-311.5" font-family="Helvetica,sans-Serif" font-size="10.00">reconsiderblock</text>
</a>
</g>
</g>
<!-- Node21&#45;&gt;Node33 -->
<g id="edge40" class="edge"><title>Node21&#45;&gt;Node33</title>
<path fill="none" stroke="midnightblue" d="M838.118,-288.246C857.415,-293.484 879.612,-299.509 897.683,-304.414"/>
<polygon fill="midnightblue" stroke="midnightblue" points="838.896,-284.831 828.328,-285.589 837.062,-291.586 838.896,-284.831"/>
</g>
<!-- Node34 -->
<g id="node34" class="node"><title>Node34</title>
<g id="a_node34"><a xlink:href="../../db/d38/validation_8h.html#a6b20cdba297d137a4d7a91691cc4457b" target="_top" xlink:title="ReprocessBlocks">
<polygon fill="white" stroke="black" points="887,-342.5 887,-361.5 981,-361.5 981,-342.5 887,-342.5"/>
<text text-anchor="middle" x="934" y="-349.5" font-family="Helvetica,sans-Serif" font-size="10.00">ReprocessBlocks</text>
</a>
</g>
</g>
<!-- Node21&#45;&gt;Node34 -->
<g id="edge41" class="edge"><title>Node21&#45;&gt;Node34</title>
<path fill="none" stroke="midnightblue" d="M813.165,-291.973C829.613,-304.422 853.834,-321.475 877,-333 884.262,-336.613 892.374,-339.805 900.121,-342.492"/>
<polygon fill="midnightblue" stroke="midnightblue" points="814.941,-288.923 804.883,-285.594 810.67,-294.469 814.941,-288.923"/>
</g>
<!-- Node22&#45;&gt;Node7 -->
<g id="edge23" class="edge"><title>Node22&#45;&gt;Node7</title>
<path fill="none" stroke="midnightblue" d="M983.842,-200C1092.27,-200 1361.28,-200 1586.5,-200 1586.5,-200 1586.5,-200 1745,-200 1834.73,-200 1857.43,-204.618 1946,-219 1965.04,-222.092 1986.25,-227.047 2002.32,-231.121"/>
<polygon fill="midnightblue" stroke="midnightblue" points="983.552,-196.5 973.552,-200 983.552,-203.5 983.552,-196.5"/>
</g>
<!-- Node22&#45;&gt;Node23 -->
<g id="edge24" class="edge"><title>Node22&#45;&gt;Node23</title>
<path fill="none" stroke="midnightblue" d="M979.632,-213.221C983.575,-214.958 987.422,-216.882 991,-219 1009.68,-230.057 1008.2,-241.159 1027,-252 1039.42,-259.161 1054.23,-264.445 1067.5,-268.202"/>
<polygon fill="midnightblue" stroke="midnightblue" points="980.929,-209.97 970.345,-209.501 978.326,-216.468 980.929,-209.97"/>
</g>
<!-- Node23&#45;&gt;Node7 -->
<g id="edge25" class="edge"><title>Node23&#45;&gt;Node7</title>
<path fill="none" stroke="midnightblue" d="M1151.96,-276C1210.25,-276 1313.27,-276 1401.5,-276 1401.5,-276 1401.5,-276 1745,-276 1834.73,-276 1857.43,-271.382 1946,-257 1965.04,-253.908 1986.25,-248.953 2002.32,-244.879"/>
<polygon fill="midnightblue" stroke="midnightblue" points="1151.96,-272.5 1141.96,-276 1151.96,-279.5 1151.96,-272.5"/>
</g>
<!-- Node25&#45;&gt;Node23 -->
<g id="edge28" class="edge"><title>Node25&#45;&gt;Node23</title>
<path fill="none" stroke="midnightblue" d="M987.557,-249.853C1013.45,-255.693 1044.03,-262.588 1067.27,-267.831"/>
<polygon fill="midnightblue" stroke="midnightblue" points="988.045,-246.375 977.52,-247.589 986.505,-253.203 988.045,-246.375"/>
</g>
<!-- Node26&#45;&gt;Node16 -->
<g id="edge30" class="edge"><title>Node26&#45;&gt;Node16</title>
<path fill="none" stroke="midnightblue" d="M956.253,-146.158C974.261,-133.408 1001.2,-115.88 1027,-105 1043.14,-98.1939 1062.27,-93.4439 1077.36,-90.3954"/>
<polygon fill="midnightblue" stroke="midnightblue" points="953.763,-143.638 947.703,-152.329 957.86,-149.314 953.763,-143.638"/>
</g>
<!-- Node27 -->
<g id="node27" class="node"><title>Node27</title>
<g id="a_node27"><a xlink:href="../../d6/de3/miner_8cpp.html#abfbc96f613381f93c13c00ebc2f25139" target="_top" xlink:title="ProcessBlockFound">
<polygon fill="white" stroke="black" points="1052.5,-114.5 1052.5,-133.5 1156.5,-133.5 1156.5,-114.5 1052.5,-114.5"/>
<text text-anchor="middle" x="1104.5" y="-121.5" font-family="Helvetica,sans-Serif" font-size="10.00">ProcessBlockFound</text>
</a>
</g>
</g>
<!-- Node26&#45;&gt;Node27 -->
<g id="edge31" class="edge"><title>Node26&#45;&gt;Node27</title>
<path fill="none" stroke="midnightblue" d="M987.431,-150.176C1011.19,-144.818 1038.9,-138.569 1061.29,-133.52"/>
<polygon fill="midnightblue" stroke="midnightblue" points="986.505,-146.797 977.52,-152.411 988.045,-153.625 986.505,-146.797"/>
</g>
<!-- Node28 -->
<g id="node28" class="node"><title>Node28</title>
<g id="a_node28"><a xlink:href="../../d2/d83/net__processing_8cpp.html#a193d0ece6e2f2f7ee37352ac9720bb83" target="_top" xlink:title="ProcessMessage">
<polygon fill="white" stroke="black" points="1541.5,-228.5 1541.5,-247.5 1633.5,-247.5 1633.5,-228.5 1541.5,-228.5"/>
<text text-anchor="middle" x="1587.5" y="-235.5" font-family="Helvetica,sans-Serif" font-size="10.00">ProcessMessage</text>
</a>
</g>
</g>
<!-- Node26&#45;&gt;Node28 -->
<g id="edge33" class="edge"><title>Node26&#45;&gt;Node28</title>
<path fill="none" stroke="midnightblue" d="M986.372,-173.576C999.565,-176.282 1013.77,-178.965 1027,-181 1217.11,-210.237 1445.95,-228.231 1541.34,-234.972"/>
<polygon fill="midnightblue" stroke="midnightblue" points="987.018,-170.135 976.513,-171.512 985.584,-176.987 987.018,-170.135"/>
</g>
<!-- Node32 -->
<g id="node32" class="node"><title>Node32</title>
<g id="a_node32"><a xlink:href="../../d8/dc3/server_8h.html#a220fade8a685be34364aad455f99f6d6" target="_top" xlink:title="submitblock">
<polygon fill="white" stroke="black" points="1070,-152.5 1070,-171.5 1139,-171.5 1139,-152.5 1070,-152.5"/>
<text text-anchor="middle" x="1104.5" y="-159.5" font-family="Helvetica,sans-Serif" font-size="10.00">submitblock</text>
</a>
</g>
</g>
<!-- Node26&#45;&gt;Node32 -->
<g id="edge39" class="edge"><title>Node26&#45;&gt;Node32</title>
<path fill="none" stroke="midnightblue" d="M993.607,-162C1019.13,-162 1048.11,-162 1069.91,-162"/>
<polygon fill="midnightblue" stroke="midnightblue" points="993.285,-158.5 983.285,-162 993.285,-165.5 993.285,-158.5"/>
</g>
<!-- Node27&#45;&gt;Node5 -->
<g id="edge32" class="edge"><title>Node27&#45;&gt;Node5</title>
<path fill="none" stroke="midnightblue" d="M1166.63,-124C1184.08,-124 1202.48,-124 1217.76,-124"/>
<polygon fill="midnightblue" stroke="midnightblue" points="1166.5,-120.5 1156.5,-124 1166.5,-127.5 1166.5,-120.5"/>
</g>
<!-- Node29 -->
<g id="node29" class="node"><title>Node29</title>
<g id="a_node29"><a xlink:href="../../d0/dd8/net__processing_8h.html#a7fa42e7ffd6e6ba5b7537af248e30fc8" target="_top" xlink:title="Process protocol messages received from a given node. ">
<polygon fill="white" stroke="black" points="1695,-228.5 1695,-247.5 1793,-247.5 1793,-228.5 1695,-228.5"/>
<text text-anchor="middle" x="1744" y="-235.5" font-family="Helvetica,sans-Serif" font-size="10.00">ProcessMessages</text>
</a>
</g>
</g>
<!-- Node28&#45;&gt;Node29 -->
<g id="edge34" class="edge"><title>Node28&#45;&gt;Node29</title>
<path fill="none" stroke="midnightblue" d="M1643.78,-238C1660.48,-238 1678.68,-238 1694.88,-238"/>
<polygon fill="midnightblue" stroke="midnightblue" points="1643.6,-234.5 1633.6,-238 1643.6,-241.5 1643.6,-234.5"/>
</g>
<!-- Node30 -->
<g id="node30" class="node"><title>Node30</title>
<g id="a_node30"><a xlink:href="../../d0/dd8/net__processing_8h.html#ab02615ff65f91d69f8d786ec900baa8a" target="_top" xlink:title="Register with a network node to receive its signals. ">
<polygon fill="white" stroke="black" points="1833,-228.5 1833,-247.5 1942,-247.5 1942,-228.5 1833,-228.5"/>
<text text-anchor="middle" x="1887.5" y="-235.5" font-family="Helvetica,sans-Serif" font-size="10.00">RegisterNodeSignals</text>
</a>
</g>
</g>
<!-- Node29&#45;&gt;Node30 -->
<g id="edge35" class="edge"><title>Node29&#45;&gt;Node30</title>
<path fill="none" stroke="midnightblue" d="M1803.57,-238C1813.18,-238 1823.1,-238 1832.59,-238"/>
<polygon fill="midnightblue" stroke="midnightblue" points="1803.3,-234.5 1793.3,-238 1803.3,-241.5 1803.3,-234.5"/>
</g>
<!-- Node31 -->
<g id="node31" class="node"><title>Node31</title>
<g id="a_node31"><a xlink:href="../../d0/dd8/net__processing_8h.html#a3ef0cc6e9d9d6435ee2a5569244d6ebd" target="_top" xlink:title="Unregister a network node. ">
<polygon fill="white" stroke="black" points="1829,-152.5 1829,-171.5 1946,-171.5 1946,-152.5 1829,-152.5"/>
<text text-anchor="middle" x="1887.5" y="-159.5" font-family="Helvetica,sans-Serif" font-size="10.00">UnregisterNodeSignals</text>
</a>
</g>
</g>
<!-- Node29&#45;&gt;Node31 -->
<g id="edge37" class="edge"><title>Node29&#45;&gt;Node31</title>
<path fill="none" stroke="midnightblue" d="M1771.91,-223.545C1800.34,-208.277 1844.35,-184.64 1868.72,-171.547"/>
<polygon fill="midnightblue" stroke="midnightblue" points="1770.07,-220.559 1762.92,-228.375 1773.39,-226.726 1770.07,-220.559"/>
</g>
<!-- Node30&#45;&gt;Node7 -->
<g id="edge36" class="edge"><title>Node30&#45;&gt;Node7</title>
<path fill="none" stroke="midnightblue" d="M1952.37,-238C1970.09,-238 1988.32,-238 2002.44,-238"/>
<polygon fill="midnightblue" stroke="midnightblue" points="1952.04,-234.5 1942.04,-238 1952.04,-241.5 1952.04,-234.5"/>
</g>
<!-- Node31&#45;&gt;Node11 -->
<g id="edge38" class="edge"><title>Node31&#45;&gt;Node11</title>
<path fill="none" stroke="midnightblue" d="M1956.13,-162C1964.77,-162 1973.45,-162 1981.65,-162"/>
<polygon fill="midnightblue" stroke="midnightblue" points="1956.05,-158.5 1946.05,-162 1956.05,-165.5 1956.05,-158.5"/>
</g>
<!-- Node35 -->
<g id="node35" class="node"><title>Node35</title>
<g id="a_node35"><a xlink:href="../../d2/d5e/class_c_spork_manager.html#ade3cee4d73664c03ceaa900efeedc395" target="_top" xlink:title="CSporkManager::ExecuteSpork">
<polygon fill="white" stroke="black" points="1027,-342.5 1027,-361.5 1182,-361.5 1182,-342.5 1027,-342.5"/>
<text text-anchor="middle" x="1104.5" y="-349.5" font-family="Helvetica,sans-Serif" font-size="10.00">CSporkManager::ExecuteSpork</text>
</a>
</g>
</g>
<!-- Node34&#45;&gt;Node35 -->
<g id="edge42" class="edge"><title>Node34&#45;&gt;Node35</title>
<path fill="none" stroke="midnightblue" d="M991.25,-352C1002.63,-352 1014.78,-352 1026.72,-352"/>
<polygon fill="midnightblue" stroke="midnightblue" points="991.043,-348.5 981.043,-352 991.043,-355.5 991.043,-348.5"/>
</g>
<!-- Node36 -->
<g id="node36" class="node"><title>Node36</title>
<g id="a_node36"><a xlink:href="../../d8/dc3/server_8h.html#a8f5eff6dda04d2f984da8bafd567f140" target="_top" xlink:title="spork">
<polygon fill="white" stroke="black" points="1233,-342.5 1233,-361.5 1274,-361.5 1274,-342.5 1233,-342.5"/>
<text text-anchor="middle" x="1253.5" y="-349.5" font-family="Helvetica,sans-Serif" font-size="10.00">spork</text>
</a>
</g>
</g>
<!-- Node35&#45;&gt;Node36 -->
<g id="edge43" class="edge"><title>Node35&#45;&gt;Node36</title>
<path fill="none" stroke="midnightblue" d="M1192.11,-352C1207.36,-352 1221.82,-352 1232.77,-352"/>
<polygon fill="midnightblue" stroke="midnightblue" points="1192.01,-348.5 1182.01,-352 1192.01,-355.5 1192.01,-348.5"/>
</g>
<!-- Node37 -->
<g id="node37" class="node"><title>Node37</title>
<g id="a_node37"><a xlink:href="../../d2/d5e/class_c_spork_manager.html#a73b217ee4057d273648c54fee3a702c5" target="_top" xlink:title="CSporkManager::ProcessSpork">
<polygon fill="white" stroke="black" points="1325,-304.5 1325,-323.5 1480,-323.5 1480,-304.5 1325,-304.5"/>
<text text-anchor="middle" x="1402.5" y="-311.5" font-family="Helvetica,sans-Serif" font-size="10.00">CSporkManager::ProcessSpork</text>
</a>
</g>
</g>
<!-- Node35&#45;&gt;Node37 -->
<g id="edge50" class="edge"><title>Node35&#45;&gt;Node37</title>
<path fill="none" stroke="midnightblue" d="M1167.74,-340.756C1184.06,-338.008 1201.67,-335.223 1218,-333 1252.91,-328.25 1291.7,-324.074 1324.59,-320.856"/>
<polygon fill="midnightblue" stroke="midnightblue" points="1167.03,-337.326 1157.77,-342.457 1168.21,-344.226 1167.03,-337.326"/>
</g>
<!-- Node36&#45;&gt;Node37 -->
<g id="edge44" class="edge"><title>Node36&#45;&gt;Node37</title>
<path fill="none" stroke="midnightblue" d="M1283.97,-344.381C1307.19,-338.379 1339.69,-329.978 1364.63,-323.531"/>
<polygon fill="midnightblue" stroke="midnightblue" points="1282.83,-341.062 1274.02,-346.954 1284.58,-347.84 1282.83,-341.062"/>
</g>
<!-- Node38 -->
<g id="node38" class="node"><title>Node38</title>
<g id="a_node38"><a xlink:href="../../d2/d5e/class_c_spork_manager.html#a599d088218de9d242e4dc5cb17dd310b" target="_top" xlink:title="CSporkManager::SetPrivKey">
<polygon fill="white" stroke="black" points="1516,-332.5 1516,-351.5 1659,-351.5 1659,-332.5 1516,-332.5"/>
<text text-anchor="middle" x="1587.5" y="-339.5" font-family="Helvetica,sans-Serif" font-size="10.00">CSporkManager::SetPrivKey</text>
</a>
</g>
</g>
<!-- Node36&#45;&gt;Node38 -->
<g id="edge46" class="edge"><title>Node36&#45;&gt;Node38</title>
<path fill="none" stroke="midnightblue" d="M1284.45,-351.098C1336.26,-349.537 1443.96,-346.293 1515.74,-344.131"/>
<polygon fill="midnightblue" stroke="midnightblue" points="1284.16,-347.605 1274.27,-351.404 1284.37,-354.602 1284.16,-347.605"/>
</g>
<!-- Node39 -->
<g id="node39" class="node"><title>Node39</title>
<g id="a_node39"><a xlink:href="../../d2/d5e/class_c_spork_manager.html#a1277aeae7d50a0473c85a5a062d364cb" target="_top" xlink:title="CSporkManager::UpdateSpork">
<polygon fill="white" stroke="black" points="1327.5,-380.5 1327.5,-399.5 1477.5,-399.5 1477.5,-380.5 1327.5,-380.5"/>
<text text-anchor="middle" x="1402.5" y="-387.5" font-family="Helvetica,sans-Serif" font-size="10.00">CSporkManager::UpdateSpork</text>
</a>
</g>
</g>
<!-- Node36&#45;&gt;Node39 -->
<g id="edge48" class="edge"><title>Node36&#45;&gt;Node39</title>
<path fill="none" stroke="midnightblue" d="M1284.15,-354.121C1313.63,-359.883 1357.94,-371.627 1382.83,-380.495"/>
<polygon fill="midnightblue" stroke="midnightblue" points="1284.48,-350.626 1274.02,-352.286 1283.24,-357.514 1284.48,-350.626"/>
</g>
<!-- Node37&#45;&gt;Node28 -->
<g id="edge45" class="edge"><title>Node37&#45;&gt;Node28</title>
<path fill="none" stroke="midnightblue" d="M1435.94,-300.529C1472.58,-285.309 1531.3,-260.924 1563.51,-247.547"/>
<polygon fill="midnightblue" stroke="midnightblue" points="1434.57,-297.307 1426.68,-304.375 1437.25,-303.771 1434.57,-297.307"/>
</g>
<!-- Node38&#45;&gt;Node7 -->
<g id="edge47" class="edge"><title>Node38&#45;&gt;Node7</title>
<path fill="none" stroke="midnightblue" d="M1669.36,-339.853C1743.41,-335.668 1855,-323.712 1946,-290 1973.35,-279.869 2001.18,-259.683 2016.35,-247.659"/>
<polygon fill="midnightblue" stroke="midnightblue" points="1668.97,-336.368 1659.17,-340.393 1669.34,-343.359 1668.97,-336.368"/>
</g>
<!-- Node39&#45;&gt;Node36 -->
<g id="edge49" class="edge"><title>Node39&#45;&gt;Node36</title>
<path fill="none" stroke="midnightblue" d="M1328.97,-378C1308.41,-372.706 1287.74,-366.682 1273.42,-361.592"/>
<polygon fill="midnightblue" stroke="midnightblue" points="1328.15,-381.403 1338.7,-380.453 1329.86,-374.616 1328.15,-381.403"/>
</g>
<!-- Node40&#45;&gt;Node20 -->
<g id="edge53" class="edge"><title>Node40&#45;&gt;Node20</title>
<path fill="none" stroke="midnightblue" d="M556.473,-294.135C570.388,-291.332 585.51,-288.286 599.317,-285.505"/>
<polygon fill="midnightblue" stroke="midnightblue" points="555.701,-290.72 546.589,-296.126 557.083,-297.582 555.701,-290.72"/>
</g>
<!-- Node41 -->
<g id="node41" class="node"><title>Node41</title>
<g id="a_node41"><a xlink:href="../../db/d38/validation_8h.html#a0c1aac3f96687018cb6a1faa3c3933ac" target="_top" xlink:title="Functions for validating blocks and updating the block tree. ">
<polygon fill="white" stroke="black" points="599.5,-313.5 599.5,-332.5 695.5,-332.5 695.5,-313.5 599.5,-313.5"/>
<text text-anchor="middle" x="647.5" y="-320.5" font-family="Helvetica,sans-Serif" font-size="10.00">DisconnectBlocks</text>
</a>
</g>
</g>
<!-- Node40&#45;&gt;Node41 -->
<g id="edge54" class="edge"><title>Node40&#45;&gt;Node41</title>
<path fill="none" stroke="midnightblue" d="M556.878,-310.75C570.682,-312.636 585.644,-314.682 599.317,-316.55"/>
<polygon fill="midnightblue" stroke="midnightblue" points="556.971,-307.23 546.589,-309.343 556.023,-314.165 556.971,-307.23"/>
</g>
<!-- Node42 -->
<g id="node42" class="node"><title>Node42</title>
<g id="a_node42"><a xlink:href="../../db/d38/validation_8h.html#a7656efe9edf075c4c629335139ea7e1a" target="_top" xlink:title="Mark a block as invalid. ">
<polygon fill="white" stroke="black" points="750.5,-375.5 750.5,-394.5 833.5,-394.5 833.5,-375.5 750.5,-375.5"/>
<text text-anchor="middle" x="792" y="-382.5" font-family="Helvetica,sans-Serif" font-size="10.00">InvalidateBlock</text>
</a>
</g>
</g>
<!-- Node40&#45;&gt;Node42 -->
<g id="edge56" class="edge"><title>Node40&#45;&gt;Node42</title>
<path fill="none" stroke="midnightblue" d="M533.56,-318.198C549.015,-326.132 569.2,-335.668 588,-342 642.795,-360.456 708.676,-372.672 750.203,-379.218"/>
<polygon fill="midnightblue" stroke="midnightblue" points="535.085,-315.046 524.603,-313.507 531.838,-321.247 535.085,-315.046"/>
</g>
<!-- Node41&#45;&gt;Node34 -->
<g id="edge55" class="edge"><title>Node41&#45;&gt;Node34</title>
<path fill="none" stroke="midnightblue" d="M705.754,-328.836C758.93,-334.256 837.127,-342.227 886.534,-347.264"/>
<polygon fill="midnightblue" stroke="midnightblue" points="706.102,-325.354 695.799,-327.821 705.392,-332.317 706.102,-325.354"/>
</g>
<!-- Node42&#45;&gt;Node24 -->
<g id="edge57" class="edge"><title>Node42&#45;&gt;Node24</title>
<path fill="none" stroke="midnightblue" d="M844.252,-386.83C860.426,-387.408 878.042,-388.037 893.285,-388.582"/>
<polygon fill="midnightblue" stroke="midnightblue" points="843.989,-383.319 833.87,-386.46 843.739,-390.314 843.989,-383.319"/>
</g>
</g>
</svg>
        <g id="navigator" transform="translate(0 0)" fill="#404254">
                <rect fill="#f2f5e9" fill-opacity="0.5" stroke="#606060" stroke-width=".5" x="0" y="0" width="60" height="60"/>
                <use id="zoomplus" xlink:href="#zoomPlus" x="17" y="9" onmousedown="handleZoom(evt,'in')"/>
                <use id="zoomminus" xlink:href="#zoomMin" x="42" y="9" onmousedown="handleZoom(evt,'out')"/>
                <use id="reset" xlink:href="#resetDef" x="30" y="36" onmousedown="handleReset()"/>
                <g id="arrowUp" xlink:href="#dirArrow" transform="translate(30 24)" onmousedown="handlePan(0,-1)">
                  <use xlink:href="#rim" fill="#404040">
                        <set attributeName="fill" to="#808080" begin="arrowUp.mouseover" end="arrowUp.mouseout"/>
                  </use>
                  <path fill="none" stroke="white" stroke-width="1.5" d="M0,-3.0v7 M-2.5,-0.5L0,-3.0L2.5,-0.5"/>
                </g>
                <g id="arrowRight" xlink:href="#dirArrow" transform="rotate(90) translate(36 -43)" onmousedown="handlePan(1,0)">
                  <use xlink:href="#rim" fill="#404040">
                        <set attributeName="fill" to="#808080" begin="arrowRight.mouseover" end="arrowRight.mouseout"/>
                  </use>
                  <path fill="none" stroke="white" stroke-width="1.5" d="M0,-3.0v7 M-2.5,-0.5L0,-3.0L2.5,-0.5"/>
                </g>
                <g id="arrowDown" xlink:href="#dirArrow" transform="rotate(180) translate(-30 -48)" onmousedown="handlePan(0,1)">
                  <use xlink:href="#rim" fill="#404040">
                        <set attributeName="fill" to="#808080" begin="arrowDown.mouseover" end="arrowDown.mouseout"/>
                  </use>
                  <path fill="none" stroke="white" stroke-width="1.5" d="M0,-3.0v7 M-2.5,-0.5L0,-3.0L2.5,-0.5"/>
                </g>
                <g id="arrowLeft" xlink:href="#dirArrow" transform="rotate(270) translate(-36 17)" onmousedown="handlePan(-1,0)">
                  <use xlink:href="#rim" fill="#404040">
                        <set attributeName="fill" to="#808080" begin="arrowLeft.mouseover" end="arrowLeft.mouseout"/>
                  </use>
                  <path fill="none" stroke="white" stroke-width="1.5" d="M0,-3.0v7 M-2.5,-0.5L0,-3.0L2.5,-0.5"/>
                </g>
        </g>
        <svg viewBox="0 0 15 15" width="100%" height="30px" preserveAspectRatio="xMaxYMin meet">
         <g id="arrow_out" transform="scale(0.3 0.3)">
          <a xlink:href="versionbits_8cpp_a279d99fe39f8851b35236ef9850007f3_icgraph_org.svg" target="_base">
           <rect id="button" ry="5" rx="5" y="6" x="6" height="38" width="38"
                fill="#f2f5e9" fill-opacity="0.5" stroke="#606060" stroke-width="1.0"/>
           <path id="arrow"
             d="M 11.500037,31.436501 C 11.940474,20.09759 22.043105,11.32322 32.158766,21.979434 L 37.068811,17.246167 C 37.068811,17.246167 37.088388,32 37.088388,32 L 22.160133,31.978069 C 22.160133,31.978069 26.997745,27.140456 26.997745,27.140456 C 18.528582,18.264221 13.291696,25.230495 11.500037,31.436501 z"
             style="fill:#404040;"/>
          </a>
         </g>
        </svg>
</svg>
