<?xml version="1.0" encoding="UTF-8" standalone="no"?>
<!DOCTYPE svg PUBLIC "-//W3C//DTD SVG 1.1//EN"
 "http://www.w3.org/Graphics/SVG/1.1/DTD/svg11.dtd">
<!-- Generated by graphviz version 2.38.0 (20140413.2041)
 -->
<!-- Title: ModalOverlay::toggleVisibility Pages: 1 -->
<svg width="499pt" height="28pt"
 viewBox="0.00 0.00 499.00 28.00" xmlns="http://www.w3.org/2000/svg" xmlns:xlink="http://www.w3.org/1999/xlink">
<g id="graph0" class="graph" transform="scale(1 1) rotate(0) translate(4 24)">
<title>ModalOverlay::toggleVisibility</title>
<polygon fill="white" stroke="none" points="-4,4 -4,-24 495,-24 495,4 -4,4"/>
<!-- Node64 -->
<g id="node1" class="node"><title>Node64</title>
<polygon fill="#bfbfbf" stroke="black" points="0,-0.5 0,-19.5 146,-19.5 146,-0.5 0,-0.5"/>
<text text-anchor="middle" x="73" y="-7.5" font-family="Helvetica,sans-Serif" font-size="10.00">ModalOverlay::toggleVisibility</text>
</g>
<!-- Node65 -->
<g id="node2" class="node"><title>Node65</title>
<g id="a_node2"><a xlink:href="../../df/d5a/class_bitcoin_g_u_i.html#af5d948da1312b28fcf6dcfb89f34ba85" target="_top" xlink:title="BitcoinGUI::showModalOverlay">
<polygon fill="white" stroke="black" points="182,-0.5 182,-19.5 336,-19.5 336,-0.5 182,-0.5"/>
<text text-anchor="middle" x="259" y="-7.5" font-family="Helvetica,sans-Serif" font-size="10.00">BitcoinGUI::showModalOverlay</text>
</a>
</g>
</g>
<!-- Node64&#45;&gt;Node65 -->
<g id="edge1" class="edge"><title>Node64&#45;&gt;Node65</title>
<path fill="none" stroke="midnightblue" d="M156.414,-10C164.853,-10 173.401,-10 181.77,-10"/>
<polygon fill="midnightblue" stroke="midnightblue" points="156.194,-6.5001 146.194,-10 156.194,-13.5001 156.194,-6.5001"/>
</g>
<!-- Node66 -->
<g id="node3" class="node"><title>Node66</title>
<g id="a_node3"><a xlink:href="../../df/d5a/class_bitcoin_g_u_i.html#a66562921703374d7de64cb26949d054f" target="_top" xlink:title="BitcoinGUI::BitcoinGUI">
<polygon fill="white" stroke="black" points="372,-0.5 372,-19.5 491,-19.5 491,-0.5 372,-0.5"/>
<text text-anchor="middle" x="431.5" y="-7.5" font-family="Helvetica,sans-Serif" font-size="10.00">BitcoinGUI::BitcoinGUI</text>
</a>
</g>
</g>
<!-- Node65&#45;&gt;Node66 -->
<g id="edge2" class="edge"><title>Node65&#45;&gt;Node66</title>
<path fill="none" stroke="midnightblue" d="M346.408,-10C355.054,-10 363.683,-10 371.941,-10"/>
<polygon fill="midnightblue" stroke="midnightblue" points="346.274,-6.5001 336.274,-10 346.274,-13.5001 346.274,-6.5001"/>
</g>
</g>
</svg>
