<?xml version="1.0" encoding="UTF-8" standalone="no"?>
<!DOCTYPE svg PUBLIC "-//W3C//DTD SVG 1.1//EN"
 "http://www.w3.org/Graphics/SVG/1.1/DTD/svg11.dtd">
<!-- Generated by graphviz version 2.38.0 (20140413.2041)
 -->
<!-- Title: CGovernanceObject::SerializationOp Pages: 1 -->
<!--zoomable 374 -->
<svg id="main" version="1.1" xmlns="http://www.w3.org/2000/svg" xmlns:xlink="http://www.w3.org/1999/xlink" xml:space="preserve" onload="init(evt)">
<style type="text/css"><![CDATA[
.edge:hover path { stroke: red; }
.edge:hover polygon { stroke: red; fill: red; }
]]></style>
<script type="text/javascript"><![CDATA[
var edges = document.getElementsByTagName('g');
if (edges && edges.length) {
  for (var i=0;i<edges.length;i++) {
    if (edges[i].id.substr(0,4)=='edge') {
      edges[i].setAttribute('class','edge');
    }
  }
}
]]></script>
        <defs>
                <circle id="rim" cx="0" cy="0" r="7"/>
                <circle id="rim2" cx="0" cy="0" r="3.5"/>
                <g id="zoomPlus">
                        <use xlink:href="#rim" fill="#404040">
                                <set attributeName="fill" to="#808080" begin="zoomplus.mouseover" end="zoomplus.mouseout"/>
                        </use>
                        <path d="M-4,0h8M0,-4v8" fill="none" stroke="white" stroke-width="1.5" pointer-events="none"/>
                </g>
                <g id="zoomMin">
                        <use xlink:href="#rim" fill="#404040">
                                <set attributeName="fill" to="#808080" begin="zoomminus.mouseover" end="zoomminus.mouseout"/>
                        </use>
                        <path d="M-4,0h8" fill="none" stroke="white" stroke-width="1.5" pointer-events="none"/>
                </g>
                <g id="dirArrow">
                        <path fill="none" stroke="white" stroke-width="1.5" d="M0,-3.0v7 M-2.5,-0.5L0,-3.0L2.5,-0.5"/>
                </g>
               <g id="resetDef">
                       <use xlink:href="#rim2" fill="#404040">
                               <set attributeName="fill" to="#808080" begin="reset.mouseover" end="reset.mouseout"/>
                       </use>
               </g>
        </defs>

<script type="text/javascript">
var viewWidth = 885;
var viewHeight = 374;
var sectionId = 'dynsection-55';
</script>
<script xlink:href="../../svgpan.js"/>
<svg id="graph" class="graph">
<g id="viewport">
<title>CGovernanceObject::SerializationOp</title>
<polygon fill="white" stroke="none" points="-4,4 -4,-369.5 881,-369.5 881,4 -4,4"/>
<!-- Node1830 -->
<g id="node1" class="node"><title>Node1830</title>
<polygon fill="#bfbfbf" stroke="black" points="0,-286 0,-316 111,-316 111,-286 0,-286"/>
<text text-anchor="start" x="8" y="-304" font-family="Helvetica,sans-Serif" font-size="10.00">CGovernanceObject::</text>
<text text-anchor="middle" x="55.5" y="-293" font-family="Helvetica,sans-Serif" font-size="10.00">SerializationOp</text>
</g>
<!-- Node1831 -->
<g id="node2" class="node"><title>Node1831</title>
<g id="a_node2"><a xlink:href="../../d7/d9b/class_c_governance_object.html#a2099d6d1f8483372e0527f99eb87d21f" target="_top" xlink:title="CGovernanceObject::\lGetHash">
<polygon fill="white" stroke="black" points="162,-335 162,-365 273,-365 273,-335 162,-335"/>
<text text-anchor="start" x="170" y="-353" font-family="Helvetica,sans-Serif" font-size="10.00">CGovernanceObject::</text>
<text text-anchor="middle" x="217.5" y="-342" font-family="Helvetica,sans-Serif" font-size="10.00">GetHash</text>
</a>
</g>
</g>
<!-- Node1830&#45;&gt;Node1831 -->
<g id="edge1" class="edge"><title>Node1830&#45;&gt;Node1831</title>
<path fill="none" stroke="midnightblue" d="M105.811,-316.101C122.16,-321.108 140.524,-326.732 157.525,-331.939"/>
<polygon fill="midnightblue" stroke="midnightblue" points="156.765,-335.367 167.352,-334.948 158.815,-328.674 156.765,-335.367"/>
</g>
<!-- Node1832 -->
<g id="node3" class="node"><title>Node1832</title>
<g id="a_node3"><a xlink:href="../../d0/d86/class_c_governance_object_vote_file.html#a7f6fa564e61933f632a3db38077180ab" target="_top" xlink:title="CGovernanceObjectVoteFile\l::GetVoteCount">
<polygon fill="white" stroke="black" points="147,-286 147,-316 288,-316 288,-286 147,-286"/>
<text text-anchor="start" x="155" y="-304" font-family="Helvetica,sans-Serif" font-size="10.00">CGovernanceObjectVoteFile</text>
<text text-anchor="middle" x="217.5" y="-293" font-family="Helvetica,sans-Serif" font-size="10.00">::GetVoteCount</text>
</a>
</g>
</g>
<!-- Node1830&#45;&gt;Node1832 -->
<g id="edge2" class="edge"><title>Node1830&#45;&gt;Node1832</title>
<path fill="none" stroke="midnightblue" d="M111.115,-301C119.379,-301 128.046,-301 136.709,-301"/>
<polygon fill="midnightblue" stroke="midnightblue" points="136.853,-304.5 146.853,-301 136.853,-297.5 136.853,-304.5"/>
</g>
<!-- Node1833 -->
<g id="node4" class="node"><title>Node1833</title>
<g id="a_node4"><a xlink:href="../../d8/d3c/util_8h.html#aab1f837a2366f424bdc996fdf6352171" target="_top" xlink:title="Zero&#45;arg versions of logging and error, these are not covered by TINYFORMAT_FOREACH_ARGNUM. ">
<polygon fill="white" stroke="black" points="191,-247.5 191,-266.5 244,-266.5 244,-247.5 191,-247.5"/>
<text text-anchor="middle" x="217.5" y="-254.5" font-family="Helvetica,sans-Serif" font-size="10.00">LogPrint</text>
</a>
</g>
</g>
<!-- Node1830&#45;&gt;Node1833 -->
<g id="edge3" class="edge"><title>Node1830&#45;&gt;Node1833</title>
<path fill="none" stroke="midnightblue" d="M111.115,-285.981C134.194,-279.634 160.417,-272.423 180.931,-266.781"/>
<polygon fill="midnightblue" stroke="midnightblue" points="182.083,-270.095 190.797,-264.068 180.227,-263.345 182.083,-270.095"/>
</g>
<!-- Node1834 -->
<g id="node5" class="node"><title>Node1834</title>
<g id="a_node5"><a xlink:href="../../d8/d1a/namespacetinyformat_1_1detail.html#aa4b0590b3e34562c2d252a2086cec7ba" target="_top" xlink:title="tinyformat::detail\l::format">
<polygon fill="white" stroke="black" points="331,-286 331,-316 420,-316 420,-286 331,-286"/>
<text text-anchor="start" x="339" y="-304" font-family="Helvetica,sans-Serif" font-size="10.00">tinyformat::detail</text>
<text text-anchor="middle" x="375.5" y="-293" font-family="Helvetica,sans-Serif" font-size="10.00">::format</text>
</a>
</g>
</g>
<!-- Node1833&#45;&gt;Node1834 -->
<g id="edge4" class="edge"><title>Node1833&#45;&gt;Node1834</title>
<path fill="none" stroke="midnightblue" d="M244.26,-264.266C265.133,-270.153 295.241,-278.645 321.253,-285.982"/>
<polygon fill="midnightblue" stroke="midnightblue" points="320.419,-289.383 330.993,-288.729 322.319,-282.646 320.419,-289.383"/>
</g>
<!-- Node1837 -->
<g id="node8" class="node"><title>Node1837</title>
<g id="a_node8"><a xlink:href="../../d8/d3c/util_8h.html#a343d2a13efe00125f78d25dafb0a8d98" target="_top" xlink:title="Return true if log accepts specified category. ">
<polygon fill="white" stroke="black" points="324,-247.5 324,-266.5 427,-266.5 427,-247.5 324,-247.5"/>
<text text-anchor="middle" x="375.5" y="-254.5" font-family="Helvetica,sans-Serif" font-size="10.00">LogAcceptCategory</text>
</a>
</g>
</g>
<!-- Node1833&#45;&gt;Node1837 -->
<g id="edge7" class="edge"><title>Node1833&#45;&gt;Node1837</title>
<path fill="none" stroke="midnightblue" d="M244.26,-257C263.115,-257 289.507,-257 313.607,-257"/>
<polygon fill="midnightblue" stroke="midnightblue" points="313.767,-260.5 323.767,-257 313.767,-253.5 313.767,-260.5"/>
</g>
<!-- Node1839 -->
<g id="node10" class="node"><title>Node1839</title>
<g id="a_node10"><a xlink:href="../../d8/d3c/util_8h.html#afd4c3002b2797c0560adddb6af3ca1da" target="_top" xlink:title="Send a string to the log output. ">
<polygon fill="white" stroke="black" points="343,-152.5 343,-171.5 408,-171.5 408,-152.5 343,-152.5"/>
<text text-anchor="middle" x="375.5" y="-159.5" font-family="Helvetica,sans-Serif" font-size="10.00">LogPrintStr</text>
</a>
</g>
</g>
<!-- Node1833&#45;&gt;Node1839 -->
<g id="edge9" class="edge"><title>Node1833&#45;&gt;Node1839</title>
<path fill="none" stroke="midnightblue" d="M234.317,-247.368C261.53,-230.796 317.4,-196.772 349.787,-177.049"/>
<polygon fill="midnightblue" stroke="midnightblue" points="351.921,-179.848 358.642,-171.657 348.28,-173.869 351.921,-179.848"/>
</g>
<!-- Node1835 -->
<g id="node6" class="node"><title>Node1835</title>
<g id="a_node6"><a xlink:href="../../d8/d42/classtinyformat_1_1detail_1_1_format_iterator.html#a46377a804f72dbad1e508d2fbaa18ce9" target="_top" xlink:title="tinyformat::detail\l::FormatIterator::finish">
<polygon fill="white" stroke="black" points="463,-286 463,-316 576,-316 576,-286 463,-286"/>
<text text-anchor="start" x="471" y="-304" font-family="Helvetica,sans-Serif" font-size="10.00">tinyformat::detail</text>
<text text-anchor="middle" x="519.5" y="-293" font-family="Helvetica,sans-Serif" font-size="10.00">::FormatIterator::finish</text>
</a>
</g>
</g>
<!-- Node1834&#45;&gt;Node1835 -->
<g id="edge5" class="edge"><title>Node1834&#45;&gt;Node1835</title>
<path fill="none" stroke="midnightblue" d="M420.263,-301C430.558,-301 441.753,-301 452.777,-301"/>
<polygon fill="midnightblue" stroke="midnightblue" points="452.823,-304.5 462.823,-301 452.823,-297.5 452.823,-304.5"/>
</g>
<!-- Node1836 -->
<g id="node7" class="node"><title>Node1836</title>
<g id="a_node7"><a xlink:href="../../d8/d42/classtinyformat_1_1detail_1_1_format_iterator.html#af3bbb8259ac0593ec2268ef5863311d5" target="_top" xlink:title="tinyformat::detail\l::FormatIterator::printFormat\lStringLiteral">
<polygon fill="white" stroke="black" points="615,-280.5 615,-321.5 755,-321.5 755,-280.5 615,-280.5"/>
<text text-anchor="start" x="623" y="-309.5" font-family="Helvetica,sans-Serif" font-size="10.00">tinyformat::detail</text>
<text text-anchor="start" x="623" y="-298.5" font-family="Helvetica,sans-Serif" font-size="10.00">::FormatIterator::printFormat</text>
<text text-anchor="middle" x="685" y="-287.5" font-family="Helvetica,sans-Serif" font-size="10.00">StringLiteral</text>
</a>
</g>
</g>
<!-- Node1835&#45;&gt;Node1836 -->
<g id="edge6" class="edge"><title>Node1835&#45;&gt;Node1836</title>
<path fill="none" stroke="midnightblue" d="M576.31,-301C585.51,-301 595.2,-301 604.841,-301"/>
<polygon fill="midnightblue" stroke="midnightblue" points="604.848,-304.5 614.848,-301 604.848,-297.5 604.848,-304.5"/>
</g>
<!-- Node1838 -->
<g id="node9" class="node"><title>Node1838</title>
<g id="a_node9"><a xlink:href="../../df/d2d/util_8cpp.html#a1db3aa900bfa259ae1fe04068f2accfc" target="_top" xlink:title="GetThreadName">
<polygon fill="white" stroke="black" points="640.5,-226.5 640.5,-245.5 729.5,-245.5 729.5,-226.5 640.5,-226.5"/>
<text text-anchor="middle" x="685" y="-233.5" font-family="Helvetica,sans-Serif" font-size="10.00">GetThreadName</text>
</a>
</g>
</g>
<!-- Node1837&#45;&gt;Node1838 -->
<g id="edge8" class="edge"><title>Node1837&#45;&gt;Node1838</title>
<path fill="none" stroke="midnightblue" d="M427.277,-253.532C483.162,-249.716 572.638,-243.605 629.837,-239.699"/>
<polygon fill="midnightblue" stroke="midnightblue" points="630.388,-243.17 640.127,-238.996 629.911,-236.186 630.388,-243.17"/>
</g>
<!-- Node1840 -->
<g id="node11" class="node"><title>Node1840</title>
<g id="a_node11"><a xlink:href="../../df/d2d/util_8cpp.html#a751ff5f21d880737811136b5e0bcea12" target="_top" xlink:title="DebugPrintInit">
<polygon fill="white" stroke="black" points="480,-209.5 480,-228.5 559,-228.5 559,-209.5 480,-209.5"/>
<text text-anchor="middle" x="519.5" y="-216.5" font-family="Helvetica,sans-Serif" font-size="10.00">DebugPrintInit</text>
</a>
</g>
</g>
<!-- Node1839&#45;&gt;Node1840 -->
<g id="edge10" class="edge"><title>Node1839&#45;&gt;Node1840</title>
<path fill="none" stroke="midnightblue" d="M396.92,-171.551C414.32,-179.55 440.078,-191.06 463,-200 468.278,-202.059 473.882,-204.119 479.423,-206.085"/>
<polygon fill="midnightblue" stroke="midnightblue" points="478.646,-209.52 489.241,-209.497 480.944,-202.908 478.646,-209.52"/>
</g>
<!-- Node1841 -->
<g id="node12" class="node"><title>Node1841</title>
<g id="a_node12"><a xlink:href="../../df/d2d/util_8cpp.html#a7c125ce70fa6b09e1de0c4a404fc2b6f" target="_top" xlink:title="FileWriteStr">
<polygon fill="white" stroke="black" points="485.5,-171.5 485.5,-190.5 553.5,-190.5 553.5,-171.5 485.5,-171.5"/>
<text text-anchor="middle" x="519.5" y="-178.5" font-family="Helvetica,sans-Serif" font-size="10.00">FileWriteStr</text>
</a>
</g>
</g>
<!-- Node1839&#45;&gt;Node1841 -->
<g id="edge11" class="edge"><title>Node1839&#45;&gt;Node1841</title>
<path fill="none" stroke="midnightblue" d="M408.014,-166.217C427.765,-168.859 453.492,-172.302 475.151,-175.2"/>
<polygon fill="midnightblue" stroke="midnightblue" points="474.719,-178.673 485.095,-176.53 475.648,-171.735 474.719,-178.673"/>
</g>
<!-- Node1842 -->
<g id="node13" class="node"><title>Node1842</title>
<g id="a_node13"><a xlink:href="../../df/d2d/util_8cpp.html#ab83866a054745d4b30a3948a1b44beba" target="_top" xlink:title="GetDataDir">
<polygon fill="white" stroke="black" points="486.5,-95.5 486.5,-114.5 552.5,-114.5 552.5,-95.5 486.5,-95.5"/>
<text text-anchor="middle" x="519.5" y="-102.5" font-family="Helvetica,sans-Serif" font-size="10.00">GetDataDir</text>
</a>
</g>
</g>
<!-- Node1839&#45;&gt;Node1842 -->
<g id="edge12" class="edge"><title>Node1839&#45;&gt;Node1842</title>
<path fill="none" stroke="midnightblue" d="M396.92,-152.449C414.32,-144.45 440.078,-132.94 463,-124 468.278,-121.941 473.882,-119.881 479.423,-117.915"/>
<polygon fill="midnightblue" stroke="midnightblue" points="480.944,-121.092 489.241,-114.503 478.646,-114.48 480.944,-121.092"/>
</g>
<!-- Node1846 -->
<g id="node17" class="node"><title>Node1846</title>
<g id="a_node17"><a xlink:href="../../df/d2d/util_8cpp.html#af0c31e37a5891e021f9b339696398a28" target="_top" xlink:title="fStartedNewLine is a state variable held by the calling context that will suppress printing of the th...">
<polygon fill="white" stroke="black" points="469,-133.5 469,-152.5 570,-152.5 570,-133.5 469,-133.5"/>
<text text-anchor="middle" x="519.5" y="-140.5" font-family="Helvetica,sans-Serif" font-size="10.00">LogThreadNameStr</text>
</a>
</g>
</g>
<!-- Node1839&#45;&gt;Node1846 -->
<g id="edge16" class="edge"><title>Node1839&#45;&gt;Node1846</title>
<path fill="none" stroke="midnightblue" d="M408.014,-157.783C422.973,-155.782 441.359,-153.322 458.811,-150.987"/>
<polygon fill="midnightblue" stroke="midnightblue" points="459.497,-154.426 468.944,-149.631 458.568,-147.488 459.497,-154.426"/>
</g>
<!-- Node1847 -->
<g id="node18" class="node"><title>Node1847</title>
<g id="a_node18"><a xlink:href="../../df/d2d/util_8cpp.html#a8e80ae045580407e9f2028dc5f7b954c" target="_top" xlink:title="fStartedNewLine is a state variable held by the calling context that will suppress printing of the ti...">
<polygon fill="white" stroke="black" points="472.5,-38.5 472.5,-57.5 566.5,-57.5 566.5,-38.5 472.5,-38.5"/>
<text text-anchor="middle" x="519.5" y="-45.5" font-family="Helvetica,sans-Serif" font-size="10.00">LogTimestampStr</text>
</a>
</g>
</g>
<!-- Node1839&#45;&gt;Node1847 -->
<g id="edge18" class="edge"><title>Node1839&#45;&gt;Node1847</title>
<path fill="none" stroke="midnightblue" d="M386.543,-152.461C402.324,-137.638 434.114,-108.447 463,-86 473.166,-78.1001 484.869,-69.9567 494.9,-63.2447"/>
<polygon fill="midnightblue" stroke="midnightblue" points="497.135,-65.9631 503.55,-57.5311 493.277,-60.1222 497.135,-65.9631"/>
</g>
<!-- Node1843 -->
<g id="node14" class="node"><title>Node1843</title>
<g id="a_node14"><a xlink:href="../../d9/d44/chainparamsbase_8cpp.html#a06ef5bfd0efb53d13bbf4276726e84ab" target="_top" xlink:title="Return the currently selected parameters. ">
<polygon fill="white" stroke="black" points="648.5,-152.5 648.5,-171.5 721.5,-171.5 721.5,-152.5 648.5,-152.5"/>
<text text-anchor="middle" x="685" y="-159.5" font-family="Helvetica,sans-Serif" font-size="10.00">BaseParams</text>
</a>
</g>
</g>
<!-- Node1842&#45;&gt;Node1843 -->
<g id="edge13" class="edge"><title>Node1842&#45;&gt;Node1843</title>
<path fill="none" stroke="midnightblue" d="M551.07,-114.512C559.265,-117.32 568.053,-120.567 576,-124 592.609,-131.174 595.145,-136.427 612,-143 620.401,-146.276 629.569,-149.177 638.463,-151.665"/>
<polygon fill="midnightblue" stroke="midnightblue" points="637.767,-155.102 648.331,-154.296 639.57,-148.338 637.767,-155.102"/>
</g>
<!-- Node1844 -->
<g id="node15" class="node"><title>Node1844</title>
<g id="a_node15"><a xlink:href="../../d2/dfc/class_c_base_chain_params.html#a4b142e94ae27f860522dd5efef41fb67" target="_top" xlink:title="CBaseChainParams::DataDir">
<polygon fill="white" stroke="black" points="612,-114.5 612,-133.5 758,-133.5 758,-114.5 612,-114.5"/>
<text text-anchor="middle" x="685" y="-121.5" font-family="Helvetica,sans-Serif" font-size="10.00">CBaseChainParams::DataDir</text>
</a>
</g>
</g>
<!-- Node1842&#45;&gt;Node1844 -->
<g id="edge14" class="edge"><title>Node1842&#45;&gt;Node1844</title>
<path fill="none" stroke="midnightblue" d="M552.802,-108.754C566.961,-110.399 584.29,-112.413 601.654,-114.431"/>
<polygon fill="midnightblue" stroke="midnightblue" points="601.522,-117.939 611.859,-115.617 602.33,-110.986 601.522,-117.939"/>
</g>
<!-- Node1845 -->
<g id="node16" class="node"><title>Node1845</title>
<g id="a_node16"><a xlink:href="../../df/d2d/util_8cpp.html#ab272995de020a3bcbf743be630e485c6" target="_top" xlink:title="GetDefaultDataDir">
<polygon fill="white" stroke="black" points="636,-76.5 636,-95.5 734,-95.5 734,-76.5 636,-76.5"/>
<text text-anchor="middle" x="685" y="-83.5" font-family="Helvetica,sans-Serif" font-size="10.00">GetDefaultDataDir</text>
</a>
</g>
</g>
<!-- Node1842&#45;&gt;Node1845 -->
<g id="edge15" class="edge"><title>Node1842&#45;&gt;Node1845</title>
<path fill="none" stroke="midnightblue" d="M552.802,-101.246C573.66,-98.8224 601.397,-95.5992 625.993,-92.7409"/>
<polygon fill="midnightblue" stroke="midnightblue" points="626.426,-96.2143 635.955,-91.5832 625.617,-89.261 626.426,-96.2143"/>
</g>
<!-- Node1846&#45;&gt;Node1838 -->
<g id="edge17" class="edge"><title>Node1846&#45;&gt;Node1838</title>
<path fill="none" stroke="midnightblue" d="M553.094,-152.512C560.772,-155.199 568.81,-158.39 576,-162 608.882,-178.508 643.362,-203.727 664.271,-220.04"/>
<polygon fill="midnightblue" stroke="midnightblue" points="662.343,-222.977 672.358,-226.435 666.685,-217.486 662.343,-222.977"/>
</g>
<!-- Node1848 -->
<g id="node19" class="node"><title>Node1848</title>
<g id="a_node19"><a xlink:href="../../d6/d3c/utiltime_8cpp.html#a749bc6776c8ec72d7c5e4dea56aee415" target="_top" xlink:title="DateTimeStrFormat">
<polygon fill="white" stroke="black" points="633.5,-38.5 633.5,-57.5 736.5,-57.5 736.5,-38.5 633.5,-38.5"/>
<text text-anchor="middle" x="685" y="-45.5" font-family="Helvetica,sans-Serif" font-size="10.00">DateTimeStrFormat</text>
</a>
</g>
</g>
<!-- Node1847&#45;&gt;Node1848 -->
<g id="edge19" class="edge"><title>Node1847&#45;&gt;Node1848</title>
<path fill="none" stroke="midnightblue" d="M566.915,-48C584.44,-48 604.647,-48 623.289,-48"/>
<polygon fill="midnightblue" stroke="midnightblue" points="623.457,-51.5001 633.457,-48 623.457,-44.5001 623.457,-51.5001"/>
</g>
<!-- Node1849 -->
<g id="node20" class="node"><title>Node1849</title>
<g id="a_node20"><a xlink:href="../../d6/d3c/utiltime_8cpp.html#a474bed4c01c8a1d18330dceccf865e1e" target="_top" xlink:title="Return a time useful for the debug log. ">
<polygon fill="white" stroke="black" points="635.5,-0.5 635.5,-19.5 734.5,-19.5 734.5,-0.5 635.5,-0.5"/>
<text text-anchor="middle" x="685" y="-7.5" font-family="Helvetica,sans-Serif" font-size="10.00">GetLogTimeMicros</text>
</a>
</g>
</g>
<!-- Node1847&#45;&gt;Node1849 -->
<g id="edge20" class="edge"><title>Node1847&#45;&gt;Node1849</title>
<path fill="none" stroke="midnightblue" d="M561.758,-38.411C583.431,-33.3739 610.183,-27.1562 633.13,-21.8229"/>
<polygon fill="midnightblue" stroke="midnightblue" points="634.091,-25.1931 643.039,-19.5201 632.506,-18.3748 634.091,-25.1931"/>
</g>
<!-- Node1850 -->
<g id="node21" class="node"><title>Node1850</title>
<g id="a_node21"><a xlink:href="../../d6/d3c/utiltime_8cpp.html#a0c5a06b50cd805b1923552114494c029" target="_top" xlink:title="GetTimeMicros">
<polygon fill="white" stroke="black" points="794,-0.5 794,-19.5 877,-19.5 877,-0.5 794,-0.5"/>
<text text-anchor="middle" x="835.5" y="-7.5" font-family="Helvetica,sans-Serif" font-size="10.00">GetTimeMicros</text>
</a>
</g>
</g>
<!-- Node1849&#45;&gt;Node1850 -->
<g id="edge21" class="edge"><title>Node1849&#45;&gt;Node1850</title>
<path fill="none" stroke="midnightblue" d="M734.624,-10C750.306,-10 767.726,-10 783.57,-10"/>
<polygon fill="midnightblue" stroke="midnightblue" points="783.719,-13.5001 793.719,-10 783.719,-6.5001 783.719,-13.5001"/>
</g>
</g>
</svg>
        <g id="navigator" transform="translate(0 0)" fill="#404254">
                <rect fill="#f2f5e9" fill-opacity="0.5" stroke="#606060" stroke-width=".5" x="0" y="0" width="60" height="60"/>
                <use id="zoomplus" xlink:href="#zoomPlus" x="17" y="9" onmousedown="handleZoom(evt,'in')"/>
                <use id="zoomminus" xlink:href="#zoomMin" x="42" y="9" onmousedown="handleZoom(evt,'out')"/>
                <use id="reset" xlink:href="#resetDef" x="30" y="36" onmousedown="handleReset()"/>
                <g id="arrowUp" xlink:href="#dirArrow" transform="translate(30 24)" onmousedown="handlePan(0,-1)">
                  <use xlink:href="#rim" fill="#404040">
                        <set attributeName="fill" to="#808080" begin="arrowUp.mouseover" end="arrowUp.mouseout"/>
                  </use>
                  <path fill="none" stroke="white" stroke-width="1.5" d="M0,-3.0v7 M-2.5,-0.5L0,-3.0L2.5,-0.5"/>
                </g>
                <g id="arrowRight" xlink:href="#dirArrow" transform="rotate(90) translate(36 -43)" onmousedown="handlePan(1,0)">
                  <use xlink:href="#rim" fill="#404040">
                        <set attributeName="fill" to="#808080" begin="arrowRight.mouseover" end="arrowRight.mouseout"/>
                  </use>
                  <path fill="none" stroke="white" stroke-width="1.5" d="M0,-3.0v7 M-2.5,-0.5L0,-3.0L2.5,-0.5"/>
                </g>
                <g id="arrowDown" xlink:href="#dirArrow" transform="rotate(180) translate(-30 -48)" onmousedown="handlePan(0,1)">
                  <use xlink:href="#rim" fill="#404040">
                        <set attributeName="fill" to="#808080" begin="arrowDown.mouseover" end="arrowDown.mouseout"/>
                  </use>
                  <path fill="none" stroke="white" stroke-width="1.5" d="M0,-3.0v7 M-2.5,-0.5L0,-3.0L2.5,-0.5"/>
                </g>
                <g id="arrowLeft" xlink:href="#dirArrow" transform="rotate(270) translate(-36 17)" onmousedown="handlePan(-1,0)">
                  <use xlink:href="#rim" fill="#404040">
                        <set attributeName="fill" to="#808080" begin="arrowLeft.mouseover" end="arrowLeft.mouseout"/>
                  </use>
                  <path fill="none" stroke="white" stroke-width="1.5" d="M0,-3.0v7 M-2.5,-0.5L0,-3.0L2.5,-0.5"/>
                </g>
        </g>
        <svg viewBox="0 0 15 15" width="100%" height="30px" preserveAspectRatio="xMaxYMin meet">
         <g id="arrow_out" transform="scale(0.3 0.3)">
          <a xlink:href="class_c_governance_object_a25f82d3f16edb2c16141492b7160c425_cgraph_org.svg" target="_base">
           <rect id="button" ry="5" rx="5" y="6" x="6" height="38" width="38"
                fill="#f2f5e9" fill-opacity="0.5" stroke="#606060" stroke-width="1.0"/>
           <path id="arrow"
             d="M 11.500037,31.436501 C 11.940474,20.09759 22.043105,11.32322 32.158766,21.979434 L 37.068811,17.246167 C 37.068811,17.246167 37.088388,32 37.088388,32 L 22.160133,31.978069 C 22.160133,31.978069 26.997745,27.140456 26.997745,27.140456 C 18.528582,18.264221 13.291696,25.230495 11.500037,31.436501 z"
             style="fill:#404040;"/>
          </a>
         </g>
        </svg>
</svg>
