<?xml version="1.0" encoding="UTF-8" standalone="no"?>
<!DOCTYPE svg PUBLIC "-//W3C//DTD SVG 1.1//EN"
 "http://www.w3.org/Graphics/SVG/1.1/DTD/svg11.dtd">
<!-- Generated by graphviz version 2.38.0 (20140413.2041)
 -->
<!-- Title: CGovernanceObject::IsSetExpired Pages: 1 -->
<!--zoomable 387 -->
<svg id="main" version="1.1" xmlns="http://www.w3.org/2000/svg" xmlns:xlink="http://www.w3.org/1999/xlink" xml:space="preserve" onload="init(evt)">
<style type="text/css"><![CDATA[
.edge:hover path { stroke: red; }
.edge:hover polygon { stroke: red; fill: red; }
]]></style>
<script type="text/javascript"><![CDATA[
var edges = document.getElementsByTagName('g');
if (edges && edges.length) {
  for (var i=0;i<edges.length;i++) {
    if (edges[i].id.substr(0,4)=='edge') {
      edges[i].setAttribute('class','edge');
    }
  }
}
]]></script>
        <defs>
                <circle id="rim" cx="0" cy="0" r="7"/>
                <circle id="rim2" cx="0" cy="0" r="3.5"/>
                <g id="zoomPlus">
                        <use xlink:href="#rim" fill="#404040">
                                <set attributeName="fill" to="#808080" begin="zoomplus.mouseover" end="zoomplus.mouseout"/>
                        </use>
                        <path d="M-4,0h8M0,-4v8" fill="none" stroke="white" stroke-width="1.5" pointer-events="none"/>
                </g>
                <g id="zoomMin">
                        <use xlink:href="#rim" fill="#404040">
                                <set attributeName="fill" to="#808080" begin="zoomminus.mouseover" end="zoomminus.mouseout"/>
                        </use>
                        <path d="M-4,0h8" fill="none" stroke="white" stroke-width="1.5" pointer-events="none"/>
                </g>
                <g id="dirArrow">
                        <path fill="none" stroke="white" stroke-width="1.5" d="M0,-3.0v7 M-2.5,-0.5L0,-3.0L2.5,-0.5"/>
                </g>
               <g id="resetDef">
                       <use xlink:href="#rim2" fill="#404040">
                               <set attributeName="fill" to="#808080" begin="reset.mouseover" end="reset.mouseout"/>
                       </use>
               </g>
        </defs>

<script type="text/javascript">
var viewWidth = 1721;
var viewHeight = 387;
var sectionId = 'dynsection-45';
</script>
<script xlink:href="../../svgpan.js"/>
<svg id="graph" class="graph">
<g id="viewport">
<title>CGovernanceObject::IsSetExpired</title>
<polygon fill="white" stroke="none" points="-4,4 -4,-383 1717,-383 1717,4 -4,4"/>
<!-- Node1313 -->
<g id="node1" class="node"><title>Node1313</title>
<polygon fill="#bfbfbf" stroke="black" points="0,-88 0,-118 111,-118 111,-88 0,-88"/>
<text text-anchor="start" x="8" y="-106" font-family="Helvetica,sans-Serif" font-size="10.00">CGovernanceObject::</text>
<text text-anchor="middle" x="55.5" y="-95" font-family="Helvetica,sans-Serif" font-size="10.00">IsSetExpired</text>
</g>
<!-- Node1314 -->
<g id="node2" class="node"><title>Node1314</title>
<g id="a_node2"><a xlink:href="../../de/d48/class_c_governance_manager.html#a7af57e90ea7d01041410d26172ecae01" target="_top" xlink:title="CGovernanceManager\l::ProcessVote">
<polygon fill="white" stroke="black" points="155.5,-39 155.5,-69 269.5,-69 269.5,-39 155.5,-39"/>
<text text-anchor="start" x="163.5" y="-57" font-family="Helvetica,sans-Serif" font-size="10.00">CGovernanceManager</text>
<text text-anchor="middle" x="212.5" y="-46" font-family="Helvetica,sans-Serif" font-size="10.00">::ProcessVote</text>
</a>
</g>
</g>
<!-- Node1313&#45;&gt;Node1314 -->
<g id="edge1" class="edge"><title>Node1313&#45;&gt;Node1314</title>
<path fill="none" stroke="midnightblue" d="M114.258,-84.7409C130.607,-79.5727 148.211,-74.0076 163.888,-69.0516"/>
<polygon fill="midnightblue" stroke="midnightblue" points="112.75,-81.547 104.27,-87.8986 114.86,-88.2215 112.75,-81.547"/>
</g>
<!-- Node1331 -->
<g id="node19" class="node"><title>Node1331</title>
<g id="a_node19"><a xlink:href="../../de/d48/class_c_governance_manager.html#ac1dff91913046fccc08eb27857d43bf2" target="_top" xlink:title="CGovernanceManager\l::Sync">
<polygon fill="white" stroke="black" points="155.5,-88 155.5,-118 269.5,-118 269.5,-88 155.5,-88"/>
<text text-anchor="start" x="163.5" y="-106" font-family="Helvetica,sans-Serif" font-size="10.00">CGovernanceManager</text>
<text text-anchor="middle" x="212.5" y="-95" font-family="Helvetica,sans-Serif" font-size="10.00">::Sync</text>
</a>
</g>
</g>
<!-- Node1313&#45;&gt;Node1331 -->
<g id="edge19" class="edge"><title>Node1313&#45;&gt;Node1331</title>
<path fill="none" stroke="midnightblue" d="M121.357,-103C132.617,-103 144.244,-103 155.25,-103"/>
<polygon fill="midnightblue" stroke="midnightblue" points="121.147,-99.5001 111.147,-103 121.147,-106.5 121.147,-99.5001"/>
</g>
<!-- Node1332 -->
<g id="node20" class="node"><title>Node1332</title>
<g id="a_node20"><a xlink:href="../../de/d48/class_c_governance_manager.html#a224574b8ed01bd82aab435d672a7be83" target="_top" xlink:title="CGovernanceManager\l::UpdateCachesAndClean">
<polygon fill="white" stroke="black" points="147,-161 147,-191 278,-191 278,-161 147,-161"/>
<text text-anchor="start" x="155" y="-179" font-family="Helvetica,sans-Serif" font-size="10.00">CGovernanceManager</text>
<text text-anchor="middle" x="212.5" y="-168" font-family="Helvetica,sans-Serif" font-size="10.00">::UpdateCachesAndClean</text>
</a>
</g>
</g>
<!-- Node1313&#45;&gt;Node1332 -->
<g id="edge21" class="edge"><title>Node1313&#45;&gt;Node1332</title>
<path fill="none" stroke="midnightblue" d="M97.7113,-122.409C123.315,-134.468 155.743,-149.74 179.425,-160.894"/>
<polygon fill="midnightblue" stroke="midnightblue" points="99.1543,-119.22 88.6161,-118.126 96.1717,-125.553 99.1543,-119.22"/>
</g>
<!-- Node1315 -->
<g id="node3" class="node"><title>Node1315</title>
<g id="a_node3"><a xlink:href="../../de/d48/class_c_governance_manager.html#a442507518db0686a860dea18979c7cd6" target="_top" xlink:title="CGovernanceManager\l::ProcessMessage">
<polygon fill="white" stroke="black" points="345.5,-76 345.5,-106 459.5,-106 459.5,-76 345.5,-76"/>
<text text-anchor="start" x="353.5" y="-94" font-family="Helvetica,sans-Serif" font-size="10.00">CGovernanceManager</text>
<text text-anchor="middle" x="402.5" y="-83" font-family="Helvetica,sans-Serif" font-size="10.00">::ProcessMessage</text>
</a>
</g>
</g>
<!-- Node1314&#45;&gt;Node1315 -->
<g id="edge2" class="edge"><title>Node1314&#45;&gt;Node1315</title>
<path fill="none" stroke="midnightblue" d="M279.659,-67.0207C301.101,-71.2406 324.667,-75.8787 345.313,-79.942"/>
<polygon fill="midnightblue" stroke="midnightblue" points="280.139,-63.5481 269.652,-65.0511 278.787,-70.4163 280.139,-63.5481"/>
</g>
<!-- Node1328 -->
<g id="node16" class="node"><title>Node1328</title>
<g id="a_node16"><a xlink:href="../../de/d48/class_c_governance_manager.html#a78ea36701695fecce0db0f8d517552c4" target="_top" xlink:title="CGovernanceManager\l::ProcessVoteAndRelay">
<polygon fill="white" stroke="black" points="341.5,-27 341.5,-57 463.5,-57 463.5,-27 341.5,-27"/>
<text text-anchor="start" x="349.5" y="-45" font-family="Helvetica,sans-Serif" font-size="10.00">CGovernanceManager</text>
<text text-anchor="middle" x="402.5" y="-34" font-family="Helvetica,sans-Serif" font-size="10.00">::ProcessVoteAndRelay</text>
</a>
</g>
</g>
<!-- Node1314&#45;&gt;Node1328 -->
<g id="edge16" class="edge"><title>Node1314&#45;&gt;Node1328</title>
<path fill="none" stroke="midnightblue" d="M279.656,-49.7773C299.75,-48.4947 321.71,-47.093 341.384,-45.8372"/>
<polygon fill="midnightblue" stroke="midnightblue" points="279.408,-46.2859 269.652,-50.4159 279.854,-53.2717 279.408,-46.2859"/>
</g>
<!-- Node1316 -->
<g id="node4" class="node"><title>Node1316</title>
<g id="a_node4"><a xlink:href="../../d2/d83/net__processing_8cpp.html#a193d0ece6e2f2f7ee37352ac9720bb83" target="_top" xlink:title="ProcessMessage">
<polygon fill="white" stroke="black" points="757,-92.5 757,-111.5 849,-111.5 849,-92.5 757,-92.5"/>
<text text-anchor="middle" x="803" y="-99.5" font-family="Helvetica,sans-Serif" font-size="10.00">ProcessMessage</text>
</a>
</g>
</g>
<!-- Node1315&#45;&gt;Node1316 -->
<g id="edge3" class="edge"><title>Node1315&#45;&gt;Node1316</title>
<path fill="none" stroke="midnightblue" d="M469.874,-92.8321C551.165,-95.0761 686.68,-98.8168 756.833,-100.753"/>
<polygon fill="midnightblue" stroke="midnightblue" points="469.843,-89.3301 459.75,-92.5527 469.65,-96.3274 469.843,-89.3301"/>
</g>
<!-- Node1317 -->
<g id="node5" class="node"><title>Node1317</title>
<g id="a_node5"><a xlink:href="../../d0/dd8/net__processing_8h.html#a7fa42e7ffd6e6ba5b7537af248e30fc8" target="_top" xlink:title="Process protocol messages received from a given node. ">
<polygon fill="white" stroke="black" points="932,-92.5 932,-111.5 1030,-111.5 1030,-92.5 932,-92.5"/>
<text text-anchor="middle" x="981" y="-99.5" font-family="Helvetica,sans-Serif" font-size="10.00">ProcessMessages</text>
</a>
</g>
</g>
<!-- Node1316&#45;&gt;Node1317 -->
<g id="edge4" class="edge"><title>Node1316&#45;&gt;Node1317</title>
<path fill="none" stroke="midnightblue" d="M859.375,-102C882.596,-102 909.347,-102 931.747,-102"/>
<polygon fill="midnightblue" stroke="midnightblue" points="859.324,-98.5001 849.324,-102 859.324,-105.5 859.324,-98.5001"/>
</g>
<!-- Node1318 -->
<g id="node6" class="node"><title>Node1318</title>
<g id="a_node6"><a xlink:href="../../d0/dd8/net__processing_8h.html#ab02615ff65f91d69f8d786ec900baa8a" target="_top" xlink:title="Register with a network node to receive its signals. ">
<polygon fill="white" stroke="black" points="1099,-98.5 1099,-117.5 1208,-117.5 1208,-98.5 1099,-98.5"/>
<text text-anchor="middle" x="1153.5" y="-105.5" font-family="Helvetica,sans-Serif" font-size="10.00">RegisterNodeSignals</text>
</a>
</g>
</g>
<!-- Node1317&#45;&gt;Node1318 -->
<g id="edge5" class="edge"><title>Node1317&#45;&gt;Node1318</title>
<path fill="none" stroke="midnightblue" d="M1040.41,-104.055C1059.37,-104.723 1080.29,-105.459 1098.89,-106.113"/>
<polygon fill="midnightblue" stroke="midnightblue" points="1040.52,-100.557 1030.4,-103.703 1040.27,-107.553 1040.52,-100.557"/>
</g>
<!-- Node1323 -->
<g id="node11" class="node"><title>Node1323</title>
<g id="a_node11"><a xlink:href="../../d0/dd8/net__processing_8h.html#a3ef0cc6e9d9d6435ee2a5569244d6ebd" target="_top" xlink:title="Unregister a network node. ">
<polygon fill="white" stroke="black" points="1095,-60.5 1095,-79.5 1212,-79.5 1212,-60.5 1095,-60.5"/>
<text text-anchor="middle" x="1153.5" y="-67.5" font-family="Helvetica,sans-Serif" font-size="10.00">UnregisterNodeSignals</text>
</a>
</g>
</g>
<!-- Node1317&#45;&gt;Node1323 -->
<g id="edge10" class="edge"><title>Node1317&#45;&gt;Node1323</title>
<path fill="none" stroke="midnightblue" d="M1040.29,-91.0608C1060.2,-87.3227 1082.31,-83.1738 1101.6,-79.5536"/>
<polygon fill="midnightblue" stroke="midnightblue" points="1039.59,-87.631 1030.4,-92.9157 1040.88,-94.5109 1039.59,-87.631"/>
</g>
<!-- Node1319 -->
<g id="node7" class="node"><title>Node1319</title>
<g id="a_node7"><a xlink:href="../../d8/dc0/init_8h.html#a6f0784aa332573f949b0975205572b28" target="_top" xlink:title="Initialize Dash Core. ">
<polygon fill="white" stroke="black" points="1268.5,-126.5 1268.5,-145.5 1321.5,-145.5 1321.5,-126.5 1268.5,-126.5"/>
<text text-anchor="middle" x="1295" y="-133.5" font-family="Helvetica,sans-Serif" font-size="10.00">AppInit2</text>
</a>
</g>
</g>
<!-- Node1318&#45;&gt;Node1319 -->
<g id="edge6" class="edge"><title>Node1318&#45;&gt;Node1319</title>
<path fill="none" stroke="midnightblue" d="M1212.14,-119.57C1231.61,-123.477 1252.37,-127.644 1268.11,-130.804"/>
<polygon fill="midnightblue" stroke="midnightblue" points="1212.61,-116.094 1202.12,-117.558 1211.23,-122.957 1212.61,-116.094"/>
</g>
<!-- Node1320 -->
<g id="node8" class="node"><title>Node1320</title>
<g id="a_node8"><a xlink:href="../../dd/de1/dashd_8cpp.html#ac59316b767e6984e1285f0531275286b" target="_top" xlink:title="AppInit">
<polygon fill="white" stroke="black" points="1557.5,-136.5 1557.5,-155.5 1604.5,-155.5 1604.5,-136.5 1557.5,-136.5"/>
<text text-anchor="middle" x="1581" y="-143.5" font-family="Helvetica,sans-Serif" font-size="10.00">AppInit</text>
</a>
</g>
</g>
<!-- Node1319&#45;&gt;Node1320 -->
<g id="edge7" class="edge"><title>Node1319&#45;&gt;Node1320</title>
<path fill="none" stroke="midnightblue" d="M1331.75,-141.315C1346.09,-143.198 1362.79,-145.076 1378,-146 1442.93,-149.945 1519.83,-148.173 1557.25,-146.898"/>
<polygon fill="midnightblue" stroke="midnightblue" points="1332.16,-137.839 1321.78,-139.958 1331.21,-144.775 1332.16,-137.839"/>
</g>
<!-- Node1322 -->
<g id="node10" class="node"><title>Node1322</title>
<g id="a_node10"><a xlink:href="../../d2/d76/class_bitcoin_core.html#af34ca069cda1d4362dcc109b4397fb62" target="_top" xlink:title="BitcoinCore::initialize">
<polygon fill="white" stroke="black" points="1378,-117.5 1378,-136.5 1487,-136.5 1487,-117.5 1378,-117.5"/>
<text text-anchor="middle" x="1432.5" y="-124.5" font-family="Helvetica,sans-Serif" font-size="10.00">BitcoinCore::initialize</text>
</a>
</g>
</g>
<!-- Node1319&#45;&gt;Node1322 -->
<g id="edge9" class="edge"><title>Node1319&#45;&gt;Node1322</title>
<path fill="none" stroke="midnightblue" d="M1332.01,-133.608C1346.03,-132.677 1362.38,-131.591 1377.74,-130.571"/>
<polygon fill="midnightblue" stroke="midnightblue" points="1331.55,-130.131 1321.81,-134.286 1332.02,-137.115 1331.55,-130.131"/>
</g>
<!-- Node1321 -->
<g id="node9" class="node"><title>Node1321</title>
<g id="a_node9"><a xlink:href="../../dd/de1/dashd_8cpp.html#a0ddf1224851353fc92bfbff6f499fa97" target="_top" xlink:title="main">
<polygon fill="white" stroke="black" points="1675,-136.5 1675,-155.5 1713,-155.5 1713,-136.5 1675,-136.5"/>
<text text-anchor="middle" x="1694" y="-143.5" font-family="Helvetica,sans-Serif" font-size="10.00">main</text>
</a>
</g>
</g>
<!-- Node1320&#45;&gt;Node1321 -->
<g id="edge8" class="edge"><title>Node1320&#45;&gt;Node1321</title>
<path fill="none" stroke="midnightblue" d="M1614.77,-146C1634.33,-146 1658.46,-146 1674.7,-146"/>
<polygon fill="midnightblue" stroke="midnightblue" points="1614.73,-142.5 1604.73,-146 1614.73,-149.5 1614.73,-142.5"/>
</g>
<!-- Node1324 -->
<g id="node12" class="node"><title>Node1324</title>
<g id="a_node12"><a xlink:href="../../d8/dc0/init_8h.html#a5cb3db83cb0ba2e421f651a1ee1f2cfe" target="_top" xlink:title="Preparing steps before shutting down or restarting the wallet. ">
<polygon fill="white" stroke="black" points="1248,-60.5 1248,-79.5 1342,-79.5 1342,-60.5 1248,-60.5"/>
<text text-anchor="middle" x="1295" y="-67.5" font-family="Helvetica,sans-Serif" font-size="10.00">PrepareShutdown</text>
</a>
</g>
</g>
<!-- Node1323&#45;&gt;Node1324 -->
<g id="edge11" class="edge"><title>Node1323&#45;&gt;Node1324</title>
<path fill="none" stroke="midnightblue" d="M1222.13,-70C1230.77,-70 1239.45,-70 1247.65,-70"/>
<polygon fill="midnightblue" stroke="midnightblue" points="1222.05,-66.5001 1212.05,-70 1222.05,-73.5001 1222.05,-66.5001"/>
</g>
<!-- Node1325 -->
<g id="node13" class="node"><title>Node1325</title>
<g id="a_node13"><a xlink:href="../../d2/d76/class_bitcoin_core.html#ac2271844c89ebc4c611e7617ce6202e3" target="_top" xlink:title="BitcoinCore::restart">
<polygon fill="white" stroke="black" points="1382,-41.5 1382,-60.5 1483,-60.5 1483,-41.5 1382,-41.5"/>
<text text-anchor="middle" x="1432.5" y="-48.5" font-family="Helvetica,sans-Serif" font-size="10.00">BitcoinCore::restart</text>
</a>
</g>
</g>
<!-- Node1324&#45;&gt;Node1325 -->
<g id="edge12" class="edge"><title>Node1324&#45;&gt;Node1325</title>
<path fill="none" stroke="midnightblue" d="M1352.29,-62.1076C1362.06,-60.7368 1372.16,-59.3201 1381.75,-57.9761"/>
<polygon fill="midnightblue" stroke="midnightblue" points="1351.67,-58.6596 1342.25,-63.5144 1352.64,-65.5918 1351.67,-58.6596"/>
</g>
<!-- Node1326 -->
<g id="node14" class="node"><title>Node1326</title>
<g id="a_node14"><a xlink:href="../../d8/dc0/init_8h.html#ac5f038c2b480cf9ef5e19e3eba8dbaf9" target="_top" xlink:title="Shutdown is split into 2 parts: Part 1: shut down everything but the main wallet instance (done in Pr...">
<polygon fill="white" stroke="black" points="1402.5,-79.5 1402.5,-98.5 1462.5,-98.5 1462.5,-79.5 1402.5,-79.5"/>
<text text-anchor="middle" x="1432.5" y="-86.5" font-family="Helvetica,sans-Serif" font-size="10.00">Shutdown</text>
</a>
</g>
</g>
<!-- Node1324&#45;&gt;Node1326 -->
<g id="edge13" class="edge"><title>Node1324&#45;&gt;Node1326</title>
<path fill="none" stroke="midnightblue" d="M1352.25,-77.8877C1369.5,-80.3057 1387.76,-82.8672 1402.41,-84.9207"/>
<polygon fill="midnightblue" stroke="midnightblue" points="1352.64,-74.4082 1342.25,-76.4856 1351.67,-81.3404 1352.64,-74.4082"/>
</g>
<!-- Node1326&#45;&gt;Node1320 -->
<g id="edge14" class="edge"><title>Node1326&#45;&gt;Node1320</title>
<path fill="none" stroke="midnightblue" d="M1470.74,-101.975C1476.21,-103.953 1481.76,-106.001 1487,-108 1511.28,-117.266 1538.8,-128.619 1557.57,-136.49"/>
<polygon fill="midnightblue" stroke="midnightblue" points="1471.68,-98.5914 1461.08,-98.5188 1469.32,-105.182 1471.68,-98.5914"/>
</g>
<!-- Node1327 -->
<g id="node15" class="node"><title>Node1327</title>
<g id="a_node15"><a xlink:href="../../d2/d76/class_bitcoin_core.html#a94f3f4622ba698e321f3a2e0e686129f" target="_top" xlink:title="BitcoinCore::shutdown">
<polygon fill="white" stroke="black" points="1523,-79.5 1523,-98.5 1639,-98.5 1639,-79.5 1523,-79.5"/>
<text text-anchor="middle" x="1581" y="-86.5" font-family="Helvetica,sans-Serif" font-size="10.00">BitcoinCore::shutdown</text>
</a>
</g>
</g>
<!-- Node1326&#45;&gt;Node1327 -->
<g id="edge15" class="edge"><title>Node1326&#45;&gt;Node1327</title>
<path fill="none" stroke="midnightblue" d="M1472.97,-89C1488.31,-89 1506.18,-89 1522.88,-89"/>
<polygon fill="midnightblue" stroke="midnightblue" points="1472.79,-85.5001 1462.79,-89 1472.79,-92.5001 1472.79,-85.5001"/>
</g>
<!-- Node1329 -->
<g id="node17" class="node"><title>Node1329</title>
<g id="a_node17"><a xlink:href="../../d8/dc3/server_8h.html#a0fa637689f8c63fc6adebeb9458430db" target="_top" xlink:title="gobject">
<polygon fill="white" stroke="black" points="591,-38.5 591,-57.5 639,-57.5 639,-38.5 591,-38.5"/>
<text text-anchor="middle" x="615" y="-45.5" font-family="Helvetica,sans-Serif" font-size="10.00">gobject</text>
</a>
</g>
</g>
<!-- Node1328&#45;&gt;Node1329 -->
<g id="edge17" class="edge"><title>Node1328&#45;&gt;Node1329</title>
<path fill="none" stroke="midnightblue" d="M473.683,-44.0005C514.318,-45.1587 562.827,-46.5414 590.856,-47.3403"/>
<polygon fill="midnightblue" stroke="midnightblue" points="473.635,-40.4978 463.539,-43.7113 473.435,-47.4949 473.635,-40.4978"/>
</g>
<!-- Node1330 -->
<g id="node18" class="node"><title>Node1330</title>
<g id="a_node18"><a xlink:href="../../d8/dc3/server_8h.html#a8b0acfa41f2702303b7abbd69587d7fc" target="_top" xlink:title="voteraw">
<polygon fill="white" stroke="black" points="589.5,-0.5 589.5,-19.5 640.5,-19.5 640.5,-0.5 589.5,-0.5"/>
<text text-anchor="middle" x="615" y="-7.5" font-family="Helvetica,sans-Serif" font-size="10.00">voteraw</text>
</a>
</g>
</g>
<!-- Node1328&#45;&gt;Node1330 -->
<g id="edge18" class="edge"><title>Node1328&#45;&gt;Node1330</title>
<path fill="none" stroke="midnightblue" d="M473.506,-31.3578C513.42,-25.2901 560.979,-18.0602 589.267,-13.7599"/>
<polygon fill="midnightblue" stroke="midnightblue" points="472.9,-27.9097 463.539,-32.8729 473.952,-34.8301 472.9,-27.9097"/>
</g>
<!-- Node1331&#45;&gt;Node1315 -->
<g id="edge20" class="edge"><title>Node1331&#45;&gt;Node1315</title>
<path fill="none" stroke="midnightblue" d="M279.659,-98.7771C301.101,-97.4084 324.667,-95.9042 345.313,-94.5864"/>
<polygon fill="midnightblue" stroke="midnightblue" points="279.408,-95.2859 269.652,-99.4159 279.854,-102.272 279.408,-95.2859"/>
</g>
<!-- Node1333 -->
<g id="node21" class="node"><title>Node1333</title>
<g id="a_node21"><a xlink:href="../../de/d48/class_c_governance_manager.html#a05ac7c9debda08aa30c7e4fccc81d5e8" target="_top" xlink:title="CGovernanceManager\l::CheckAndRemove">
<polygon fill="white" stroke="black" points="345.5,-125 345.5,-155 459.5,-155 459.5,-125 345.5,-125"/>
<text text-anchor="start" x="353.5" y="-143" font-family="Helvetica,sans-Serif" font-size="10.00">CGovernanceManager</text>
<text text-anchor="middle" x="402.5" y="-132" font-family="Helvetica,sans-Serif" font-size="10.00">::CheckAndRemove</text>
</a>
</g>
</g>
<!-- Node1332&#45;&gt;Node1333 -->
<g id="edge22" class="edge"><title>Node1332&#45;&gt;Node1333</title>
<path fill="none" stroke="midnightblue" d="M288.08,-161.719C307.205,-158.056 327.452,-154.179 345.464,-150.73"/>
<polygon fill="midnightblue" stroke="midnightblue" points="287.362,-158.292 278.199,-163.611 288.679,-165.168 287.362,-158.292"/>
</g>
<!-- Node1334 -->
<g id="node22" class="node"><title>Node1334</title>
<g id="a_node22"><a xlink:href="../../de/d48/class_c_governance_manager.html#a23de4bbbdff3df077cbc3ea2c1c415d2" target="_top" xlink:title="CGovernanceManager\l::DoMaintenance">
<polygon fill="white" stroke="black" points="345.5,-174 345.5,-204 459.5,-204 459.5,-174 345.5,-174"/>
<text text-anchor="start" x="353.5" y="-192" font-family="Helvetica,sans-Serif" font-size="10.00">CGovernanceManager</text>
<text text-anchor="middle" x="402.5" y="-181" font-family="Helvetica,sans-Serif" font-size="10.00">::DoMaintenance</text>
</a>
</g>
</g>
<!-- Node1332&#45;&gt;Node1334 -->
<g id="edge23" class="edge"><title>Node1332&#45;&gt;Node1334</title>
<path fill="none" stroke="midnightblue" d="M288.343,-181.175C307.391,-182.492 327.535,-183.885 345.464,-185.125"/>
<polygon fill="midnightblue" stroke="midnightblue" points="288.417,-177.672 278.199,-180.474 287.934,-184.655 288.417,-177.672"/>
</g>
<!-- Node1336 -->
<g id="node24" class="node"><title>Node1336</title>
<g id="a_node24"><a xlink:href="../../dc/d6b/class_c_masternode_man.html#a5e27707730f73d111df8bc0fcd819b68" target="_top" xlink:title="Called to notify CGovernanceManager that the masternode index has been updated. ">
<polygon fill="white" stroke="black" points="314,-240 314,-270 491,-270 491,-240 314,-240"/>
<text text-anchor="start" x="322" y="-258" font-family="Helvetica,sans-Serif" font-size="10.00">CMasternodeMan::NotifyMasternode</text>
<text text-anchor="middle" x="402.5" y="-247" font-family="Helvetica,sans-Serif" font-size="10.00">Updates</text>
</a>
</g>
</g>
<!-- Node1332&#45;&gt;Node1336 -->
<g id="edge26" class="edge"><title>Node1332&#45;&gt;Node1336</title>
<path fill="none" stroke="midnightblue" d="M258.658,-194.976C291.406,-208.737 335.105,-227.1 365.51,-239.876"/>
<polygon fill="midnightblue" stroke="midnightblue" points="259.879,-191.693 249.304,-191.045 257.167,-198.146 259.879,-191.693"/>
</g>
<!-- Node1335 -->
<g id="node23" class="node"><title>Node1335</title>
<g id="a_node23"><a xlink:href="../../df/d7f/privatesend_8h.html#a8ca12ada145ba86ddcba18018b77db14" target="_top" xlink:title="ThreadCheckPrivateSend">
<polygon fill="white" stroke="black" points="739,-136.5 739,-155.5 867,-155.5 867,-136.5 739,-136.5"/>
<text text-anchor="middle" x="803" y="-143.5" font-family="Helvetica,sans-Serif" font-size="10.00">ThreadCheckPrivateSend</text>
</a>
</g>
</g>
<!-- Node1334&#45;&gt;Node1335 -->
<g id="edge24" class="edge"><title>Node1334&#45;&gt;Node1335</title>
<path fill="none" stroke="midnightblue" d="M469.72,-171.147C476.948,-168.883 484.16,-166.484 491,-164 507.458,-158.025 509.886,-151.697 527,-148 598.402,-132.576 682.684,-134.874 738.947,-139.22"/>
<polygon fill="midnightblue" stroke="midnightblue" points="468.43,-167.882 459.887,-174.148 470.473,-174.577 468.43,-167.882"/>
</g>
<!-- Node1335&#45;&gt;Node1319 -->
<g id="edge25" class="edge"><title>Node1335&#45;&gt;Node1319</title>
<path fill="none" stroke="midnightblue" d="M877.221,-144.506C988.822,-142.228 1196.14,-137.997 1268.38,-136.523"/>
<polygon fill="midnightblue" stroke="midnightblue" points="876.982,-141.01 867.056,-144.713 877.125,-148.008 876.982,-141.01"/>
</g>
<!-- Node1337 -->
<g id="node25" class="node"><title>Node1337</title>
<g id="a_node25"><a xlink:href="../../d8/dc3/server_8h.html#adc51a168fd3ea207996ae4f8d9d6c6ea" target="_top" xlink:title="masternode">
<polygon fill="white" stroke="black" points="581,-359.5 581,-378.5 649,-378.5 649,-359.5 581,-359.5"/>
<text text-anchor="middle" x="615" y="-366.5" font-family="Helvetica,sans-Serif" font-size="10.00">masternode</text>
</a>
</g>
</g>
<!-- Node1336&#45;&gt;Node1337 -->
<g id="edge27" class="edge"><title>Node1336&#45;&gt;Node1337</title>
<path fill="none" stroke="midnightblue" d="M425.663,-277.023C448.931,-298.867 487.555,-331.653 527,-350 543.822,-357.824 563.989,-362.488 580.67,-365.235"/>
<polygon fill="midnightblue" stroke="midnightblue" points="428.032,-274.445 418.382,-270.071 423.198,-279.508 428.032,-274.445"/>
</g>
<!-- Node1338 -->
<g id="node26" class="node"><title>Node1338</title>
<g id="a_node26"><a xlink:href="../../d8/dc3/server_8h.html#a7ae813efd78b542bd5e3cddb01174777" target="_top" xlink:title="masternodebroadcast">
<polygon fill="white" stroke="black" points="560,-321.5 560,-340.5 670,-340.5 670,-321.5 560,-321.5"/>
<text text-anchor="middle" x="615" y="-328.5" font-family="Helvetica,sans-Serif" font-size="10.00">masternodebroadcast</text>
</a>
</g>
</g>
<!-- Node1336&#45;&gt;Node1338 -->
<g id="edge28" class="edge"><title>Node1336&#45;&gt;Node1338</title>
<path fill="none" stroke="midnightblue" d="M440.847,-274.829C464.906,-286.946 497.156,-301.987 527,-312 537.993,-315.688 550.012,-318.846 561.512,-321.468"/>
<polygon fill="midnightblue" stroke="midnightblue" points="442.223,-271.602 431.724,-270.177 439.043,-277.838 442.223,-271.602"/>
</g>
<!-- Node1339 -->
<g id="node27" class="node"><title>Node1339</title>
<g id="a_node27"><a xlink:href="../../dc/d6b/class_c_masternode_man.html#a09302023fe1dca8be33e34d1ece9d27f" target="_top" xlink:title="Check all Masternodes and remove inactive. ">
<polygon fill="white" stroke="black" points="542,-196 542,-226 688,-226 688,-196 542,-196"/>
<text text-anchor="start" x="550" y="-214" font-family="Helvetica,sans-Serif" font-size="10.00">CMasternodeMan::CheckAnd</text>
<text text-anchor="middle" x="615" y="-203" font-family="Helvetica,sans-Serif" font-size="10.00">Remove</text>
</a>
</g>
</g>
<!-- Node1336&#45;&gt;Node1339 -->
<g id="edge29" class="edge"><title>Node1336&#45;&gt;Node1339</title>
<path fill="none" stroke="midnightblue" d="M485.336,-237.894C504.066,-233.979 523.838,-229.846 542.113,-226.026"/>
<polygon fill="midnightblue" stroke="midnightblue" points="484.426,-234.509 475.353,-239.981 485.858,-241.361 484.426,-234.509"/>
</g>
<!-- Node1340 -->
<g id="node28" class="node"><title>Node1340</title>
<g id="a_node28"><a xlink:href="../../dc/d6b/class_c_masternode_man.html#ae8534b13438b5a2166854a6d35d99bac" target="_top" xlink:title="CMasternodeMan::ProcessMessage">
<polygon fill="white" stroke="black" points="527,-157.5 527,-176.5 703,-176.5 703,-157.5 527,-157.5"/>
<text text-anchor="middle" x="615" y="-164.5" font-family="Helvetica,sans-Serif" font-size="10.00">CMasternodeMan::ProcessMessage</text>
</a>
</g>
</g>
<!-- Node1336&#45;&gt;Node1340 -->
<g id="edge31" class="edge"><title>Node1336&#45;&gt;Node1340</title>
<path fill="none" stroke="midnightblue" d="M448.257,-235.583C462.25,-228.97 477.541,-221.169 491,-213 508.097,-202.623 508.815,-194.324 527,-186 535.435,-182.139 544.694,-179.045 553.929,-176.569"/>
<polygon fill="midnightblue" stroke="midnightblue" points="446.416,-232.579 438.816,-239.962 449.361,-238.93 446.416,-232.579"/>
</g>
<!-- Node1341 -->
<g id="node29" class="node"><title>Node1341</title>
<g id="a_node29"><a xlink:href="../../d0/d4c/class_masternode_list.html#ab3a42d1c66f3b28e9843335d8ce0178d" target="_top" xlink:title="MasternodeList::StartAlias">
<polygon fill="white" stroke="black" points="549,-283.5 549,-302.5 681,-302.5 681,-283.5 549,-283.5"/>
<text text-anchor="middle" x="615" y="-290.5" font-family="Helvetica,sans-Serif" font-size="10.00">MasternodeList::StartAlias</text>
</a>
</g>
</g>
<!-- Node1336&#45;&gt;Node1341 -->
<g id="edge33" class="edge"><title>Node1336&#45;&gt;Node1341</title>
<path fill="none" stroke="midnightblue" d="M496.802,-271.843C518.939,-275.839 541.79,-279.964 561.37,-283.499"/>
<polygon fill="midnightblue" stroke="midnightblue" points="497.158,-268.351 486.695,-270.019 495.914,-275.24 497.158,-268.351"/>
</g>
<!-- Node1344 -->
<g id="node32" class="node"><title>Node1344</title>
<g id="a_node32"><a xlink:href="../../d0/d4c/class_masternode_list.html#a0ebd5301adf7567e6a82550ba6d02ccc" target="_top" xlink:title="MasternodeList::StartAll">
<polygon fill="white" stroke="black" points="554,-245.5 554,-264.5 676,-264.5 676,-245.5 554,-245.5"/>
<text text-anchor="middle" x="615" y="-252.5" font-family="Helvetica,sans-Serif" font-size="10.00">MasternodeList::StartAll</text>
</a>
</g>
</g>
<!-- Node1336&#45;&gt;Node1344 -->
<g id="edge36" class="edge"><title>Node1336&#45;&gt;Node1344</title>
<path fill="none" stroke="midnightblue" d="M501.692,-255C519.512,-255 537.603,-255 553.91,-255"/>
<polygon fill="midnightblue" stroke="midnightblue" points="501.247,-251.5 491.247,-255 501.247,-258.5 501.247,-251.5"/>
</g>
<!-- Node1339&#45;&gt;Node1335 -->
<g id="edge30" class="edge"><title>Node1339&#45;&gt;Node1335</title>
<path fill="none" stroke="midnightblue" d="M681.782,-192.97C688.98,-190.739 696.169,-188.396 703,-186 719.357,-180.264 722.944,-177.53 739,-171 751.753,-165.813 766.008,-160.145 777.729,-155.52"/>
<polygon fill="midnightblue" stroke="midnightblue" points="680.548,-189.687 671.995,-195.939 682.58,-196.386 680.548,-189.687"/>
</g>
<!-- Node1340&#45;&gt;Node1316 -->
<g id="edge32" class="edge"><title>Node1340&#45;&gt;Node1316</title>
<path fill="none" stroke="midnightblue" d="M653.072,-154.045C688.983,-141.495 742.593,-122.76 774.745,-111.524"/>
<polygon fill="midnightblue" stroke="midnightblue" points="651.73,-150.806 643.445,-157.409 654.04,-157.414 651.73,-150.806"/>
</g>
<!-- Node1342 -->
<g id="node30" class="node"><title>Node1342</title>
<g id="a_node30"><a xlink:href="../../d0/d4c/class_masternode_list.html#a4370755b1dcdbf4a9396108c2b7ae76a" target="_top" xlink:title="MasternodeList::on\l_startButton_clicked">
<polygon fill="white" stroke="black" points="750,-289 750,-319 856,-319 856,-289 750,-289"/>
<text text-anchor="start" x="758" y="-307" font-family="Helvetica,sans-Serif" font-size="10.00">MasternodeList::on</text>
<text text-anchor="middle" x="803" y="-296" font-family="Helvetica,sans-Serif" font-size="10.00">_startButton_clicked</text>
</a>
</g>
</g>
<!-- Node1341&#45;&gt;Node1342 -->
<g id="edge34" class="edge"><title>Node1341&#45;&gt;Node1342</title>
<path fill="none" stroke="midnightblue" d="M691.223,-297.449C710.9,-298.612 731.68,-299.841 749.86,-300.916"/>
<polygon fill="midnightblue" stroke="midnightblue" points="691.243,-293.944 681.054,-296.847 690.83,-300.932 691.243,-293.944"/>
</g>
<!-- Node1343 -->
<g id="node31" class="node"><title>Node1343</title>
<g id="a_node31"><a xlink:href="../../d0/d4c/class_masternode_list.html#a257b85a08e7d691d1ecb35472043cf90" target="_top" xlink:title="MasternodeList::MasternodeList">
<polygon fill="white" stroke="black" points="903,-294.5 903,-313.5 1059,-313.5 1059,-294.5 903,-294.5"/>
<text text-anchor="middle" x="981" y="-301.5" font-family="Helvetica,sans-Serif" font-size="10.00">MasternodeList::MasternodeList</text>
</a>
</g>
</g>
<!-- Node1342&#45;&gt;Node1343 -->
<g id="edge35" class="edge"><title>Node1342&#45;&gt;Node1343</title>
<path fill="none" stroke="midnightblue" d="M866.466,-304C878.222,-304 890.644,-304 902.788,-304"/>
<polygon fill="midnightblue" stroke="midnightblue" points="866.329,-300.5 856.329,-304 866.329,-307.5 866.329,-300.5"/>
</g>
<!-- Node1345 -->
<g id="node33" class="node"><title>Node1345</title>
<g id="a_node33"><a xlink:href="../../d0/d4c/class_masternode_list.html#a12e7d7a66cc6ce787fb5de9babfd7358" target="_top" xlink:title="MasternodeList::on\l_startAllButton_clicked">
<polygon fill="white" stroke="black" points="744.5,-240 744.5,-270 861.5,-270 861.5,-240 744.5,-240"/>
<text text-anchor="start" x="752.5" y="-258" font-family="Helvetica,sans-Serif" font-size="10.00">MasternodeList::on</text>
<text text-anchor="middle" x="803" y="-247" font-family="Helvetica,sans-Serif" font-size="10.00">_startAllButton_clicked</text>
</a>
</g>
</g>
<!-- Node1344&#45;&gt;Node1345 -->
<g id="edge37" class="edge"><title>Node1344&#45;&gt;Node1345</title>
<path fill="none" stroke="midnightblue" d="M686.298,-255C705.436,-255 725.941,-255 744.292,-255"/>
<polygon fill="midnightblue" stroke="midnightblue" points="686.132,-251.5 676.132,-255 686.132,-258.5 686.132,-251.5"/>
</g>
<!-- Node1346 -->
<g id="node34" class="node"><title>Node1346</title>
<g id="a_node34"><a xlink:href="../../d0/d4c/class_masternode_list.html#a559cf1011eede788d0416c7390e25145" target="_top" xlink:title="MasternodeList::on\l_startMissingButton\l_clicked">
<polygon fill="white" stroke="black" points="751,-180.5 751,-221.5 855,-221.5 855,-180.5 751,-180.5"/>
<text text-anchor="start" x="759" y="-209.5" font-family="Helvetica,sans-Serif" font-size="10.00">MasternodeList::on</text>
<text text-anchor="start" x="759" y="-198.5" font-family="Helvetica,sans-Serif" font-size="10.00">_startMissingButton</text>
<text text-anchor="middle" x="803" y="-187.5" font-family="Helvetica,sans-Serif" font-size="10.00">_clicked</text>
</a>
</g>
</g>
<!-- Node1344&#45;&gt;Node1346 -->
<g id="edge38" class="edge"><title>Node1344&#45;&gt;Node1346</title>
<path fill="none" stroke="midnightblue" d="M671.709,-243.108C682.156,-240.62 692.95,-237.872 703,-235 718.726,-230.505 735.631,-224.969 750.941,-219.678"/>
<polygon fill="midnightblue" stroke="midnightblue" points="670.778,-239.731 661.834,-245.41 672.368,-246.548 670.778,-239.731"/>
</g>
</g>
</svg>
        <g id="navigator" transform="translate(0 0)" fill="#404254">
                <rect fill="#f2f5e9" fill-opacity="0.5" stroke="#606060" stroke-width=".5" x="0" y="0" width="60" height="60"/>
                <use id="zoomplus" xlink:href="#zoomPlus" x="17" y="9" onmousedown="handleZoom(evt,'in')"/>
                <use id="zoomminus" xlink:href="#zoomMin" x="42" y="9" onmousedown="handleZoom(evt,'out')"/>
                <use id="reset" xlink:href="#resetDef" x="30" y="36" onmousedown="handleReset()"/>
                <g id="arrowUp" xlink:href="#dirArrow" transform="translate(30 24)" onmousedown="handlePan(0,-1)">
                  <use xlink:href="#rim" fill="#404040">
                        <set attributeName="fill" to="#808080" begin="arrowUp.mouseover" end="arrowUp.mouseout"/>
                  </use>
                  <path fill="none" stroke="white" stroke-width="1.5" d="M0,-3.0v7 M-2.5,-0.5L0,-3.0L2.5,-0.5"/>
                </g>
                <g id="arrowRight" xlink:href="#dirArrow" transform="rotate(90) translate(36 -43)" onmousedown="handlePan(1,0)">
                  <use xlink:href="#rim" fill="#404040">
                        <set attributeName="fill" to="#808080" begin="arrowRight.mouseover" end="arrowRight.mouseout"/>
                  </use>
                  <path fill="none" stroke="white" stroke-width="1.5" d="M0,-3.0v7 M-2.5,-0.5L0,-3.0L2.5,-0.5"/>
                </g>
                <g id="arrowDown" xlink:href="#dirArrow" transform="rotate(180) translate(-30 -48)" onmousedown="handlePan(0,1)">
                  <use xlink:href="#rim" fill="#404040">
                        <set attributeName="fill" to="#808080" begin="arrowDown.mouseover" end="arrowDown.mouseout"/>
                  </use>
                  <path fill="none" stroke="white" stroke-width="1.5" d="M0,-3.0v7 M-2.5,-0.5L0,-3.0L2.5,-0.5"/>
                </g>
                <g id="arrowLeft" xlink:href="#dirArrow" transform="rotate(270) translate(-36 17)" onmousedown="handlePan(-1,0)">
                  <use xlink:href="#rim" fill="#404040">
                        <set attributeName="fill" to="#808080" begin="arrowLeft.mouseover" end="arrowLeft.mouseout"/>
                  </use>
                  <path fill="none" stroke="white" stroke-width="1.5" d="M0,-3.0v7 M-2.5,-0.5L0,-3.0L2.5,-0.5"/>
                </g>
        </g>
        <svg viewBox="0 0 15 15" width="100%" height="30px" preserveAspectRatio="xMaxYMin meet">
         <g id="arrow_out" transform="scale(0.3 0.3)">
          <a xlink:href="class_c_governance_object_a36bb99a8209801ebd23b7b90f4faea93_icgraph_org.svg" target="_base">
           <rect id="button" ry="5" rx="5" y="6" x="6" height="38" width="38"
                fill="#f2f5e9" fill-opacity="0.5" stroke="#606060" stroke-width="1.0"/>
           <path id="arrow"
             d="M 11.500037,31.436501 C 11.940474,20.09759 22.043105,11.32322 32.158766,21.979434 L 37.068811,17.246167 C 37.068811,17.246167 37.088388,32 37.088388,32 L 22.160133,31.978069 C 22.160133,31.978069 26.997745,27.140456 26.997745,27.140456 C 18.528582,18.264221 13.291696,25.230495 11.500037,31.436501 z"
             style="fill:#404040;"/>
          </a>
         </g>
        </svg>
</svg>
