<?xml version="1.0" encoding="UTF-8" standalone="no"?>
<!DOCTYPE svg PUBLIC "-//W3C//DTD SVG 1.1//EN"
 "http://www.w3.org/Graphics/SVG/1.1/DTD/svg11.dtd">
<!-- Generated by graphviz version 2.38.0 (20140413.2041)
 -->
<!-- Title: estimatefee Pages: 1 -->
<svg width="1361pt" height="490pt"
 viewBox="0.00 0.00 1361.00 490.00" xmlns="http://www.w3.org/2000/svg" xmlns:xlink="http://www.w3.org/1999/xlink">
<g id="graph0" class="graph" transform="scale(1 1) rotate(0) translate(4 486)">
<title>estimatefee</title>
<polygon fill="white" stroke="none" points="-4,4 -4,-486 1357,-486 1357,4 -4,4"/>
<!-- Node1162 -->
<g id="node1" class="node"><title>Node1162</title>
<polygon fill="#bfbfbf" stroke="black" points="0,-114.5 0,-133.5 68,-133.5 68,-114.5 0,-114.5"/>
<text text-anchor="middle" x="34" y="-121.5" font-family="Helvetica,sans-Serif" font-size="10.00">estimatefee</text>
</g>
<!-- Node1163 -->
<g id="node2" class="node"><title>Node1163</title>
<g id="a_node2"><a xlink:href="../../db/d98/class_c_tx_mem_pool.html#a32dd66c128330aed86865c8a61857c6c" target="_top" xlink:title="Estimate fee rate needed to get into the next nBlocks. ">
<polygon fill="white" stroke="black" points="104,-288.5 104,-307.5 241,-307.5 241,-288.5 104,-288.5"/>
<text text-anchor="middle" x="172.5" y="-295.5" font-family="Helvetica,sans-Serif" font-size="10.00">CTxMemPool::estimateFee</text>
</a>
</g>
</g>
<!-- Node1162&#45;&gt;Node1163 -->
<g id="edge1" class="edge"><title>Node1162&#45;&gt;Node1163</title>
<path fill="none" stroke="midnightblue" d="M39.6593,-133.793C49.6995,-154.346 74.8417,-202.973 104,-238 117.79,-254.565 136.234,-270.641 150.357,-281.977"/>
<polygon fill="midnightblue" stroke="midnightblue" points="148.486,-284.958 158.512,-288.384 152.811,-279.454 148.486,-284.958"/>
</g>
<!-- Node1185 -->
<g id="node24" class="node"><title>Node1185</title>
<g id="a_node24"><a xlink:href="../../dc/d76/class_uni_value.html#af45edc6e67eaa6d1f271ce18e435a376" target="_top" xlink:title="UniValue::get_int">
<polygon fill="white" stroke="black" points="126.5,-114.5 126.5,-133.5 218.5,-133.5 218.5,-114.5 126.5,-114.5"/>
<text text-anchor="middle" x="172.5" y="-121.5" font-family="Helvetica,sans-Serif" font-size="10.00">UniValue::get_int</text>
</a>
</g>
</g>
<!-- Node1162&#45;&gt;Node1185 -->
<g id="edge25" class="edge"><title>Node1162&#45;&gt;Node1185</title>
<path fill="none" stroke="midnightblue" d="M68.0428,-124C82.5484,-124 99.9758,-124 116.356,-124"/>
<polygon fill="midnightblue" stroke="midnightblue" points="116.385,-127.5 126.385,-124 116.385,-120.5 116.385,-127.5"/>
</g>
<!-- Node1188 -->
<g id="node27" class="node"><title>Node1188</title>
<g id="a_node27"><a xlink:href="../../d3/dd1/class_c_fee_rate.html#ac772be79983433d442d6b871d2fb6e11" target="_top" xlink:title="CFeeRate::GetFeePerK">
<polygon fill="white" stroke="black" points="111.5,-76.5 111.5,-95.5 233.5,-95.5 233.5,-76.5 111.5,-76.5"/>
<text text-anchor="middle" x="172.5" y="-83.5" font-family="Helvetica,sans-Serif" font-size="10.00">CFeeRate::GetFeePerK</text>
</a>
</g>
</g>
<!-- Node1162&#45;&gt;Node1188 -->
<g id="edge28" class="edge"><title>Node1162&#45;&gt;Node1188</title>
<path fill="none" stroke="midnightblue" d="M68.0428,-114.801C85.9153,-109.826 108.223,-103.615 127.544,-98.2368"/>
<polygon fill="midnightblue" stroke="midnightblue" points="128.641,-101.565 137.336,-95.5109 126.764,-94.8211 128.641,-101.565"/>
</g>
<!-- Node1190 -->
<g id="node29" class="node"><title>Node1190</title>
<g id="a_node29"><a xlink:href="../../df/dd7/server_8cpp.html#a26bafe3d526ee8cbc84b3c0b0dc3a43b" target="_top" xlink:title="HelpExampleCli">
<polygon fill="white" stroke="black" points="129,-38.5 129,-57.5 216,-57.5 216,-38.5 129,-38.5"/>
<text text-anchor="middle" x="172.5" y="-45.5" font-family="Helvetica,sans-Serif" font-size="10.00">HelpExampleCli</text>
</a>
</g>
</g>
<!-- Node1162&#45;&gt;Node1190 -->
<g id="edge30" class="edge"><title>Node1162&#45;&gt;Node1190</title>
<path fill="none" stroke="midnightblue" d="M43.906,-114.497C56.2455,-101.871 79.7741,-79.6867 104,-67 108.786,-64.4938 113.941,-62.2855 119.193,-60.3472"/>
<polygon fill="midnightblue" stroke="midnightblue" points="120.335,-63.6556 128.693,-57.1439 118.099,-57.0226 120.335,-63.6556"/>
</g>
<!-- Node1191 -->
<g id="node30" class="node"><title>Node1191</title>
<g id="a_node30"><a xlink:href="../../df/dd7/server_8cpp.html#ac5b4e8e5154ac022c7be81730a527fd1" target="_top" xlink:title="RPCTypeCheck">
<polygon fill="white" stroke="black" points="128,-209.5 128,-228.5 217,-228.5 217,-209.5 128,-209.5"/>
<text text-anchor="middle" x="172.5" y="-216.5" font-family="Helvetica,sans-Serif" font-size="10.00">RPCTypeCheck</text>
</a>
</g>
</g>
<!-- Node1162&#45;&gt;Node1191 -->
<g id="edge31" class="edge"><title>Node1162&#45;&gt;Node1191</title>
<path fill="none" stroke="midnightblue" d="M47.4978,-133.888C61.1547,-144.581 83.7876,-161.978 104,-176 117.964,-185.687 133.993,-195.933 146.926,-203.993"/>
<polygon fill="midnightblue" stroke="midnightblue" points="145.377,-207.151 155.723,-209.436 149.061,-201.198 145.377,-207.151"/>
</g>
<!-- Node1196 -->
<g id="node35" class="node"><title>Node1196</title>
<g id="a_node35"><a xlink:href="../../dc/d76/class_uni_value.html#a5a7394aeb8d5584db7a90c2c041726b1" target="_top" xlink:title="UniValue::size">
<polygon fill="white" stroke="black" points="296,-152.5 296,-171.5 376,-171.5 376,-152.5 296,-152.5"/>
<text text-anchor="middle" x="336" y="-159.5" font-family="Helvetica,sans-Serif" font-size="10.00">UniValue::size</text>
</a>
</g>
</g>
<!-- Node1162&#45;&gt;Node1196 -->
<g id="edge42" class="edge"><title>Node1162&#45;&gt;Node1196</title>
<path fill="none" stroke="midnightblue" d="M64.9498,-133.558C76.9727,-137.049 91.0315,-140.702 104,-143 166.069,-153.999 238.673,-158.651 285.677,-160.606"/>
<polygon fill="midnightblue" stroke="midnightblue" points="285.758,-164.112 295.887,-161.005 286.031,-157.117 285.758,-164.112"/>
</g>
<!-- Node1200 -->
<g id="node39" class="node"><title>Node1200</title>
<g id="a_node39"><a xlink:href="../../df/dd7/server_8cpp.html#a513e384f1d458abddd1bf9be05125947" target="_top" xlink:title="ValueFromAmount">
<polygon fill="white" stroke="black" points="123.5,-0.5 123.5,-19.5 221.5,-19.5 221.5,-0.5 123.5,-0.5"/>
<text text-anchor="middle" x="172.5" y="-7.5" font-family="Helvetica,sans-Serif" font-size="10.00">ValueFromAmount</text>
</a>
</g>
</g>
<!-- Node1162&#45;&gt;Node1200 -->
<g id="edge43" class="edge"><title>Node1162&#45;&gt;Node1200</title>
<path fill="none" stroke="midnightblue" d="M39.3306,-114.259C48.4222,-94.9491 71.3854,-51.7224 104,-29 107.078,-26.8557 110.393,-24.9523 113.843,-23.2629"/>
<polygon fill="midnightblue" stroke="midnightblue" points="115.39,-26.4082 123.222,-19.2724 112.65,-19.967 115.39,-26.4082"/>
</g>
<!-- Node1164 -->
<g id="node3" class="node"><title>Node1164</title>
<g id="a_node3"><a xlink:href="../../d7/d86/class_c_block_policy_estimator.html#a55418a0d0c84ff184d67b1bd366ca525" target="_top" xlink:title="Return a fee estimate. ">
<polygon fill="white" stroke="black" points="277,-343 277,-373 395,-373 395,-343 277,-343"/>
<text text-anchor="start" x="285" y="-361" font-family="Helvetica,sans-Serif" font-size="10.00">CBlockPolicyEstimator</text>
<text text-anchor="middle" x="336" y="-350" font-family="Helvetica,sans-Serif" font-size="10.00">::estimateFee</text>
</a>
</g>
</g>
<!-- Node1163&#45;&gt;Node1164 -->
<g id="edge2" class="edge"><title>Node1163&#45;&gt;Node1164</title>
<path fill="none" stroke="midnightblue" d="M199.09,-307.507C222.104,-316.057 256.568,-328.861 285.032,-339.436"/>
<polygon fill="midnightblue" stroke="midnightblue" points="283.836,-342.725 294.429,-342.927 286.274,-336.164 283.836,-342.725"/>
</g>
<!-- Node1165 -->
<g id="node4" class="node"><title>Node1165</title>
<g id="a_node4"><a xlink:href="../../d1/d03/class_tx_confirm_stats.html#ab2b42aa0beab3ed825ccc8486dfc0a84" target="_top" xlink:title="Return the max number of confirms we&#39;re tracking. ">
<polygon fill="white" stroke="black" points="598,-389.5 598,-408.5 764,-408.5 764,-389.5 598,-389.5"/>
<text text-anchor="middle" x="681" y="-396.5" font-family="Helvetica,sans-Serif" font-size="10.00">TxConfirmStats::GetMaxConfirms</text>
</a>
</g>
</g>
<!-- Node1164&#45;&gt;Node1165 -->
<g id="edge3" class="edge"><title>Node1164&#45;&gt;Node1165</title>
<path fill="none" stroke="midnightblue" d="M386.366,-373.071C400.644,-376.899 416.334,-380.602 431,-383 482.478,-391.416 540.619,-395.455 587.766,-397.372"/>
<polygon fill="midnightblue" stroke="midnightblue" points="587.834,-400.877 597.96,-397.761 588.1,-393.882 587.834,-400.877"/>
</g>
<!-- Node1166 -->
<g id="node5" class="node"><title>Node1166</title>
<g id="a_node5"><a xlink:href="../../d1/d03/class_tx_confirm_stats.html#a7ac4f70e6029ecf06e8d1528ab9c33f1" target="_top" xlink:title="Calculate a fee or priority estimate. ">
<polygon fill="white" stroke="black" points="431,-343 431,-373 562,-373 562,-343 431,-343"/>
<text text-anchor="start" x="439" y="-361" font-family="Helvetica,sans-Serif" font-size="10.00">TxConfirmStats::Estimate</text>
<text text-anchor="middle" x="496.5" y="-350" font-family="Helvetica,sans-Serif" font-size="10.00">MedianVal</text>
</a>
</g>
</g>
<!-- Node1164&#45;&gt;Node1166 -->
<g id="edge4" class="edge"><title>Node1164&#45;&gt;Node1166</title>
<path fill="none" stroke="midnightblue" d="M395.12,-358C403.502,-358 412.224,-358 420.873,-358"/>
<polygon fill="midnightblue" stroke="midnightblue" points="420.968,-361.5 430.968,-358 420.968,-354.5 420.968,-361.5"/>
</g>
<!-- Node1166&#45;&gt;Node1165 -->
<g id="edge5" class="edge"><title>Node1166&#45;&gt;Node1165</title>
<path fill="none" stroke="midnightblue" d="M562.1,-372.513C583.6,-377.343 607.265,-382.66 627.715,-387.254"/>
<polygon fill="midnightblue" stroke="midnightblue" points="626.949,-390.669 637.473,-389.446 628.483,-383.839 626.949,-390.669"/>
</g>
<!-- Node1167 -->
<g id="node6" class="node"><title>Node1167</title>
<g id="a_node6"><a xlink:href="../../d8/d3c/util_8h.html#aab1f837a2366f424bdc996fdf6352171" target="_top" xlink:title="Zero&#45;arg versions of logging and error, these are not covered by TINYFORMAT_FOREACH_ARGNUM. ">
<polygon fill="white" stroke="black" points="654.5,-348.5 654.5,-367.5 707.5,-367.5 707.5,-348.5 654.5,-348.5"/>
<text text-anchor="middle" x="681" y="-355.5" font-family="Helvetica,sans-Serif" font-size="10.00">LogPrint</text>
</a>
</g>
</g>
<!-- Node1166&#45;&gt;Node1167 -->
<g id="edge6" class="edge"><title>Node1166&#45;&gt;Node1167</title>
<path fill="none" stroke="midnightblue" d="M562.1,-358C589.665,-358 620.786,-358 644.131,-358"/>
<polygon fill="midnightblue" stroke="midnightblue" points="644.269,-361.5 654.269,-358 644.269,-354.5 644.269,-361.5"/>
</g>
<!-- Node1168 -->
<g id="node7" class="node"><title>Node1168</title>
<g id="a_node7"><a xlink:href="../../d8/d3c/util_8h.html#a343d2a13efe00125f78d25dafb0a8d98" target="_top" xlink:title="Return true if log accepts specified category. ">
<polygon fill="white" stroke="black" points="800,-424.5 800,-443.5 903,-443.5 903,-424.5 800,-424.5"/>
<text text-anchor="middle" x="851.5" y="-431.5" font-family="Helvetica,sans-Serif" font-size="10.00">LogAcceptCategory</text>
</a>
</g>
</g>
<!-- Node1167&#45;&gt;Node1168 -->
<g id="edge7" class="edge"><title>Node1167&#45;&gt;Node1168</title>
<path fill="none" stroke="midnightblue" d="M707.778,-362.862C724.269,-366.467 745.887,-372.125 764,-380 787.562,-390.243 812.208,-406.227 829.137,-418.151"/>
<polygon fill="midnightblue" stroke="midnightblue" points="827.528,-421.304 837.692,-424.295 831.612,-415.619 827.528,-421.304"/>
</g>
<!-- Node1170 -->
<g id="node9" class="node"><title>Node1170</title>
<g id="a_node9"><a xlink:href="../../d8/d3c/util_8h.html#afd4c3002b2797c0560adddb6af3ca1da" target="_top" xlink:title="Send a string to the log output. ">
<polygon fill="white" stroke="black" points="819,-348.5 819,-367.5 884,-367.5 884,-348.5 819,-348.5"/>
<text text-anchor="middle" x="851.5" y="-355.5" font-family="Helvetica,sans-Serif" font-size="10.00">LogPrintStr</text>
</a>
</g>
</g>
<!-- Node1167&#45;&gt;Node1170 -->
<g id="edge9" class="edge"><title>Node1167&#45;&gt;Node1170</title>
<path fill="none" stroke="midnightblue" d="M707.592,-358C734.391,-358 776.911,-358 808.613,-358"/>
<polygon fill="midnightblue" stroke="midnightblue" points="808.912,-361.5 818.912,-358 808.911,-354.5 808.912,-361.5"/>
</g>
<!-- Node1182 -->
<g id="node21" class="node"><title>Node1182</title>
<g id="a_node21"><a xlink:href="../../d8/d1a/namespacetinyformat_1_1detail.html#aa4b0590b3e34562c2d252a2086cec7ba" target="_top" xlink:title="tinyformat::detail\l::format">
<polygon fill="white" stroke="black" points="807,-299 807,-329 896,-329 896,-299 807,-299"/>
<text text-anchor="start" x="815" y="-317" font-family="Helvetica,sans-Serif" font-size="10.00">tinyformat::detail</text>
<text text-anchor="middle" x="851.5" y="-306" font-family="Helvetica,sans-Serif" font-size="10.00">::format</text>
</a>
</g>
</g>
<!-- Node1167&#45;&gt;Node1182 -->
<g id="edge22" class="edge"><title>Node1167&#45;&gt;Node1182</title>
<path fill="none" stroke="midnightblue" d="M707.592,-351.317C731.248,-345.14 767.154,-335.764 797.055,-327.956"/>
<polygon fill="midnightblue" stroke="midnightblue" points="798.148,-331.288 806.939,-325.375 796.379,-324.515 798.148,-331.288"/>
</g>
<!-- Node1169 -->
<g id="node8" class="node"><title>Node1169</title>
<g id="a_node8"><a xlink:href="../../df/d2d/util_8cpp.html#a1db3aa900bfa259ae1fe04068f2accfc" target="_top" xlink:title="GetThreadName">
<polygon fill="white" stroke="black" points="1116.5,-462.5 1116.5,-481.5 1205.5,-481.5 1205.5,-462.5 1116.5,-462.5"/>
<text text-anchor="middle" x="1161" y="-469.5" font-family="Helvetica,sans-Serif" font-size="10.00">GetThreadName</text>
</a>
</g>
</g>
<!-- Node1168&#45;&gt;Node1169 -->
<g id="edge8" class="edge"><title>Node1168&#45;&gt;Node1169</title>
<path fill="none" stroke="midnightblue" d="M891.052,-443.597C905.952,-447.008 923.192,-450.595 939,-453 995.689,-461.625 1061.2,-466.645 1106.09,-469.335"/>
<polygon fill="midnightblue" stroke="midnightblue" points="1106.01,-472.836 1116.19,-469.922 1106.41,-465.848 1106.01,-472.836"/>
</g>
<!-- Node1171 -->
<g id="node10" class="node"><title>Node1171</title>
<g id="a_node10"><a xlink:href="../../df/d2d/util_8cpp.html#af0c31e37a5891e021f9b339696398a28" target="_top" xlink:title="fStartedNewLine is a state variable held by the calling context that will suppress printing of the th...">
<polygon fill="white" stroke="black" points="945,-424.5 945,-443.5 1046,-443.5 1046,-424.5 945,-424.5"/>
<text text-anchor="middle" x="995.5" y="-431.5" font-family="Helvetica,sans-Serif" font-size="10.00">LogThreadNameStr</text>
</a>
</g>
</g>
<!-- Node1170&#45;&gt;Node1171 -->
<g id="edge10" class="edge"><title>Node1170&#45;&gt;Node1171</title>
<path fill="none" stroke="midnightblue" d="M864.792,-367.554C881.042,-379.835 910.908,-401.213 939,-415 943.343,-417.131 947.985,-419.126 952.665,-420.961"/>
<polygon fill="midnightblue" stroke="midnightblue" points="951.65,-424.317 962.244,-424.497 954.074,-417.75 951.65,-424.317"/>
</g>
<!-- Node1172 -->
<g id="node11" class="node"><title>Node1172</title>
<g id="a_node11"><a xlink:href="../../df/d2d/util_8cpp.html#a8e80ae045580407e9f2028dc5f7b954c" target="_top" xlink:title="fStartedNewLine is a state variable held by the calling context that will suppress printing of the ti...">
<polygon fill="white" stroke="black" points="948.5,-386.5 948.5,-405.5 1042.5,-405.5 1042.5,-386.5 948.5,-386.5"/>
<text text-anchor="middle" x="995.5" y="-393.5" font-family="Helvetica,sans-Serif" font-size="10.00">LogTimestampStr</text>
</a>
</g>
</g>
<!-- Node1170&#45;&gt;Node1172 -->
<g id="edge12" class="edge"><title>Node1170&#45;&gt;Node1172</title>
<path fill="none" stroke="midnightblue" d="M884.014,-366.433C903.13,-371.549 927.844,-378.163 949.05,-383.837"/>
<polygon fill="midnightblue" stroke="midnightblue" points="948.26,-387.249 958.825,-386.453 950.07,-380.487 948.26,-387.249"/>
</g>
<!-- Node1176 -->
<g id="node15" class="node"><title>Node1176</title>
<g id="a_node15"><a xlink:href="../../df/d2d/util_8cpp.html#a751ff5f21d880737811136b5e0bcea12" target="_top" xlink:title="DebugPrintInit">
<polygon fill="white" stroke="black" points="956,-348.5 956,-367.5 1035,-367.5 1035,-348.5 956,-348.5"/>
<text text-anchor="middle" x="995.5" y="-355.5" font-family="Helvetica,sans-Serif" font-size="10.00">DebugPrintInit</text>
</a>
</g>
</g>
<!-- Node1170&#45;&gt;Node1176 -->
<g id="edge16" class="edge"><title>Node1170&#45;&gt;Node1176</title>
<path fill="none" stroke="midnightblue" d="M884.014,-358C902.188,-358 925.422,-358 945.891,-358"/>
<polygon fill="midnightblue" stroke="midnightblue" points="945.991,-361.5 955.991,-358 945.991,-354.5 945.991,-361.5"/>
</g>
<!-- Node1177 -->
<g id="node16" class="node"><title>Node1177</title>
<g id="a_node16"><a xlink:href="../../df/d2d/util_8cpp.html#ab83866a054745d4b30a3948a1b44beba" target="_top" xlink:title="GetDataDir">
<polygon fill="white" stroke="black" points="962.5,-310.5 962.5,-329.5 1028.5,-329.5 1028.5,-310.5 962.5,-310.5"/>
<text text-anchor="middle" x="995.5" y="-317.5" font-family="Helvetica,sans-Serif" font-size="10.00">GetDataDir</text>
</a>
</g>
</g>
<!-- Node1170&#45;&gt;Node1177 -->
<g id="edge17" class="edge"><title>Node1170&#45;&gt;Node1177</title>
<path fill="none" stroke="midnightblue" d="M884.014,-349.567C904.137,-344.182 930.465,-337.136 952.373,-331.273"/>
<polygon fill="midnightblue" stroke="midnightblue" points="953.334,-334.64 962.089,-328.673 951.524,-327.877 953.334,-334.64"/>
</g>
<!-- Node1181 -->
<g id="node20" class="node"><title>Node1181</title>
<g id="a_node20"><a xlink:href="../../df/d2d/util_8cpp.html#a7c125ce70fa6b09e1de0c4a404fc2b6f" target="_top" xlink:title="FileWriteStr">
<polygon fill="white" stroke="black" points="961.5,-272.5 961.5,-291.5 1029.5,-291.5 1029.5,-272.5 961.5,-272.5"/>
<text text-anchor="middle" x="995.5" y="-279.5" font-family="Helvetica,sans-Serif" font-size="10.00">FileWriteStr</text>
</a>
</g>
</g>
<!-- Node1170&#45;&gt;Node1181 -->
<g id="edge21" class="edge"><title>Node1170&#45;&gt;Node1181</title>
<path fill="none" stroke="midnightblue" d="M884.024,-348.659C890.569,-346.04 897.225,-342.834 903,-339 922.381,-326.131 919.428,-313.576 939,-301 943.019,-298.418 947.428,-296.144 951.95,-294.152"/>
<polygon fill="midnightblue" stroke="midnightblue" points="953.291,-297.385 961.301,-290.451 950.715,-290.877 953.291,-297.385"/>
</g>
<!-- Node1171&#45;&gt;Node1169 -->
<g id="edge11" class="edge"><title>Node1171&#45;&gt;Node1169</title>
<path fill="none" stroke="midnightblue" d="M1037.76,-443.589C1059.43,-448.626 1086.18,-454.844 1109.13,-460.177"/>
<polygon fill="midnightblue" stroke="midnightblue" points="1108.51,-463.625 1119.04,-462.48 1110.09,-456.807 1108.51,-463.625"/>
</g>
<!-- Node1173 -->
<g id="node12" class="node"><title>Node1173</title>
<g id="a_node12"><a xlink:href="../../d6/d3c/utiltime_8cpp.html#a474bed4c01c8a1d18330dceccf865e1e" target="_top" xlink:title="Return a time useful for the debug log. ">
<polygon fill="white" stroke="black" points="1111.5,-424.5 1111.5,-443.5 1210.5,-443.5 1210.5,-424.5 1111.5,-424.5"/>
<text text-anchor="middle" x="1161" y="-431.5" font-family="Helvetica,sans-Serif" font-size="10.00">GetLogTimeMicros</text>
</a>
</g>
</g>
<!-- Node1172&#45;&gt;Node1173 -->
<g id="edge13" class="edge"><title>Node1172&#45;&gt;Node1173</title>
<path fill="none" stroke="midnightblue" d="M1037.76,-405.589C1059.43,-410.626 1086.18,-416.844 1109.13,-422.177"/>
<polygon fill="midnightblue" stroke="midnightblue" points="1108.51,-425.625 1119.04,-424.48 1110.09,-418.807 1108.51,-425.625"/>
</g>
<!-- Node1175 -->
<g id="node14" class="node"><title>Node1175</title>
<g id="a_node14"><a xlink:href="../../d6/d3c/utiltime_8cpp.html#a749bc6776c8ec72d7c5e4dea56aee415" target="_top" xlink:title="DateTimeStrFormat">
<polygon fill="white" stroke="black" points="1109.5,-386.5 1109.5,-405.5 1212.5,-405.5 1212.5,-386.5 1109.5,-386.5"/>
<text text-anchor="middle" x="1161" y="-393.5" font-family="Helvetica,sans-Serif" font-size="10.00">DateTimeStrFormat</text>
</a>
</g>
</g>
<!-- Node1172&#45;&gt;Node1175 -->
<g id="edge15" class="edge"><title>Node1172&#45;&gt;Node1175</title>
<path fill="none" stroke="midnightblue" d="M1042.92,-396C1060.44,-396 1080.65,-396 1099.29,-396"/>
<polygon fill="midnightblue" stroke="midnightblue" points="1099.46,-399.5 1109.46,-396 1099.46,-392.5 1099.46,-399.5"/>
</g>
<!-- Node1174 -->
<g id="node13" class="node"><title>Node1174</title>
<g id="a_node13"><a xlink:href="../../d6/d3c/utiltime_8cpp.html#a0c5a06b50cd805b1923552114494c029" target="_top" xlink:title="GetTimeMicros">
<polygon fill="white" stroke="black" points="1270,-424.5 1270,-443.5 1353,-443.5 1353,-424.5 1270,-424.5"/>
<text text-anchor="middle" x="1311.5" y="-431.5" font-family="Helvetica,sans-Serif" font-size="10.00">GetTimeMicros</text>
</a>
</g>
</g>
<!-- Node1173&#45;&gt;Node1174 -->
<g id="edge14" class="edge"><title>Node1173&#45;&gt;Node1174</title>
<path fill="none" stroke="midnightblue" d="M1210.62,-434C1226.31,-434 1243.73,-434 1259.57,-434"/>
<polygon fill="midnightblue" stroke="midnightblue" points="1259.72,-437.5 1269.72,-434 1259.72,-430.5 1259.72,-437.5"/>
</g>
<!-- Node1178 -->
<g id="node17" class="node"><title>Node1178</title>
<g id="a_node17"><a xlink:href="../../df/d2d/util_8cpp.html#ab272995de020a3bcbf743be630e485c6" target="_top" xlink:title="GetDefaultDataDir">
<polygon fill="white" stroke="black" points="1112,-348.5 1112,-367.5 1210,-367.5 1210,-348.5 1112,-348.5"/>
<text text-anchor="middle" x="1161" y="-355.5" font-family="Helvetica,sans-Serif" font-size="10.00">GetDefaultDataDir</text>
</a>
</g>
</g>
<!-- Node1177&#45;&gt;Node1178 -->
<g id="edge18" class="edge"><title>Node1177&#45;&gt;Node1178</title>
<path fill="none" stroke="midnightblue" d="M1028.8,-327.508C1051.74,-332.839 1083.01,-340.105 1109.26,-346.207"/>
<polygon fill="midnightblue" stroke="midnightblue" points="1108.52,-349.627 1119.05,-348.482 1110.1,-342.809 1108.52,-349.627"/>
</g>
<!-- Node1179 -->
<g id="node18" class="node"><title>Node1179</title>
<g id="a_node18"><a xlink:href="../../d9/d44/chainparamsbase_8cpp.html#a06ef5bfd0efb53d13bbf4276726e84ab" target="_top" xlink:title="Return the currently selected parameters. ">
<polygon fill="white" stroke="black" points="1124.5,-310.5 1124.5,-329.5 1197.5,-329.5 1197.5,-310.5 1124.5,-310.5"/>
<text text-anchor="middle" x="1161" y="-317.5" font-family="Helvetica,sans-Serif" font-size="10.00">BaseParams</text>
</a>
</g>
</g>
<!-- Node1177&#45;&gt;Node1179 -->
<g id="edge19" class="edge"><title>Node1177&#45;&gt;Node1179</title>
<path fill="none" stroke="midnightblue" d="M1028.8,-320C1053.23,-320 1087.09,-320 1114.29,-320"/>
<polygon fill="midnightblue" stroke="midnightblue" points="1114.36,-323.5 1124.36,-320 1114.36,-316.5 1114.36,-323.5"/>
</g>
<!-- Node1180 -->
<g id="node19" class="node"><title>Node1180</title>
<g id="a_node19"><a xlink:href="../../d2/dfc/class_c_base_chain_params.html#a4b142e94ae27f860522dd5efef41fb67" target="_top" xlink:title="CBaseChainParams::DataDir">
<polygon fill="white" stroke="black" points="1088,-272.5 1088,-291.5 1234,-291.5 1234,-272.5 1088,-272.5"/>
<text text-anchor="middle" x="1161" y="-279.5" font-family="Helvetica,sans-Serif" font-size="10.00">CBaseChainParams::DataDir</text>
</a>
</g>
</g>
<!-- Node1177&#45;&gt;Node1180 -->
<g id="edge20" class="edge"><title>Node1177&#45;&gt;Node1180</title>
<path fill="none" stroke="midnightblue" d="M1028.8,-312.492C1051.74,-307.161 1083.01,-299.895 1109.26,-293.793"/>
<polygon fill="midnightblue" stroke="midnightblue" points="1110.1,-297.191 1119.05,-291.518 1108.52,-290.373 1110.1,-297.191"/>
</g>
<!-- Node1183 -->
<g id="node22" class="node"><title>Node1183</title>
<g id="a_node22"><a xlink:href="../../d8/d42/classtinyformat_1_1detail_1_1_format_iterator.html#a46377a804f72dbad1e508d2fbaa18ce9" target="_top" xlink:title="tinyformat::detail\l::FormatIterator::finish">
<polygon fill="white" stroke="black" points="939,-220 939,-250 1052,-250 1052,-220 939,-220"/>
<text text-anchor="start" x="947" y="-238" font-family="Helvetica,sans-Serif" font-size="10.00">tinyformat::detail</text>
<text text-anchor="middle" x="995.5" y="-227" font-family="Helvetica,sans-Serif" font-size="10.00">::FormatIterator::finish</text>
</a>
</g>
</g>
<!-- Node1182&#45;&gt;Node1183 -->
<g id="edge23" class="edge"><title>Node1182&#45;&gt;Node1183</title>
<path fill="none" stroke="midnightblue" d="M877.235,-298.834C894.401,-288.453 917.887,-274.534 939,-263 944.097,-260.216 949.503,-257.365 954.863,-254.598"/>
<polygon fill="midnightblue" stroke="midnightblue" points="956.463,-257.712 963.779,-250.049 953.281,-251.477 956.463,-257.712"/>
</g>
<!-- Node1184 -->
<g id="node23" class="node"><title>Node1184</title>
<g id="a_node23"><a xlink:href="../../d8/d42/classtinyformat_1_1detail_1_1_format_iterator.html#af3bbb8259ac0593ec2268ef5863311d5" target="_top" xlink:title="tinyformat::detail\l::FormatIterator::printFormat\lStringLiteral">
<polygon fill="white" stroke="black" points="1091,-212.5 1091,-253.5 1231,-253.5 1231,-212.5 1091,-212.5"/>
<text text-anchor="start" x="1099" y="-241.5" font-family="Helvetica,sans-Serif" font-size="10.00">tinyformat::detail</text>
<text text-anchor="start" x="1099" y="-230.5" font-family="Helvetica,sans-Serif" font-size="10.00">::FormatIterator::printFormat</text>
<text text-anchor="middle" x="1161" y="-219.5" font-family="Helvetica,sans-Serif" font-size="10.00">StringLiteral</text>
</a>
</g>
</g>
<!-- Node1183&#45;&gt;Node1184 -->
<g id="edge24" class="edge"><title>Node1183&#45;&gt;Node1184</title>
<path fill="none" stroke="midnightblue" d="M1052.31,-234.317C1061.51,-234.205 1071.2,-234.086 1080.84,-233.968"/>
<polygon fill="midnightblue" stroke="midnightblue" points="1080.89,-237.468 1090.85,-233.846 1080.81,-230.469 1080.89,-237.468"/>
</g>
<!-- Node1186 -->
<g id="node25" class="node"><title>Node1186</title>
<g id="a_node25"><a xlink:href="../../da/dd6/utilstrencodings_8cpp.html#a880a215d9e931432b095084c756a49bb" target="_top" xlink:title="Convert string to signed 32&#45;bit integer with strict parse error feedback. ">
<polygon fill="white" stroke="black" points="304,-114.5 304,-133.5 368,-133.5 368,-114.5 304,-114.5"/>
<text text-anchor="middle" x="336" y="-121.5" font-family="Helvetica,sans-Serif" font-size="10.00">ParseInt32</text>
</a>
</g>
</g>
<!-- Node1185&#45;&gt;Node1186 -->
<g id="edge26" class="edge"><title>Node1185&#45;&gt;Node1186</title>
<path fill="none" stroke="midnightblue" d="M218.917,-124C242.379,-124 270.799,-124 293.646,-124"/>
<polygon fill="midnightblue" stroke="midnightblue" points="293.713,-127.5 303.713,-124 293.713,-120.5 293.713,-127.5"/>
</g>
<!-- Node1187 -->
<g id="node26" class="node"><title>Node1187</title>
<g id="a_node26"><a xlink:href="../../da/dd6/utilstrencodings_8cpp.html#a2dc3da13203c8219cee0c696d11c6490" target="_top" xlink:title="ParsePrechecks">
<polygon fill="white" stroke="black" points="452,-114.5 452,-133.5 541,-133.5 541,-114.5 452,-114.5"/>
<text text-anchor="middle" x="496.5" y="-121.5" font-family="Helvetica,sans-Serif" font-size="10.00">ParsePrechecks</text>
</a>
</g>
</g>
<!-- Node1186&#45;&gt;Node1187 -->
<g id="edge27" class="edge"><title>Node1186&#45;&gt;Node1187</title>
<path fill="none" stroke="midnightblue" d="M368.314,-124C389.234,-124 417.291,-124 441.731,-124"/>
<polygon fill="midnightblue" stroke="midnightblue" points="441.952,-127.5 451.952,-124 441.952,-120.5 441.952,-127.5"/>
</g>
<!-- Node1189 -->
<g id="node28" class="node"><title>Node1189</title>
<g id="a_node28"><a xlink:href="../../d3/dd1/class_c_fee_rate.html#a6a3aef64120ef51ac921318282404b0e" target="_top" xlink:title="CFeeRate::GetFee">
<polygon fill="white" stroke="black" points="286,-76.5 286,-95.5 386,-95.5 386,-76.5 286,-76.5"/>
<text text-anchor="middle" x="336" y="-83.5" font-family="Helvetica,sans-Serif" font-size="10.00">CFeeRate::GetFee</text>
</a>
</g>
</g>
<!-- Node1188&#45;&gt;Node1189 -->
<g id="edge29" class="edge"><title>Node1188&#45;&gt;Node1189</title>
<path fill="none" stroke="midnightblue" d="M233.637,-86C247.358,-86 261.93,-86 275.619,-86"/>
<polygon fill="midnightblue" stroke="midnightblue" points="275.887,-89.5001 285.887,-86 275.887,-82.5001 275.887,-89.5001"/>
</g>
<!-- Node1192 -->
<g id="node31" class="node"><title>Node1192</title>
<g id="a_node31"><a xlink:href="../../dc/d76/class_uni_value.html#a3661be0f5580daceb23e5338e3a0df22" target="_top" xlink:title="UniValue::isNull">
<polygon fill="white" stroke="black" points="292.5,-266.5 292.5,-285.5 379.5,-285.5 379.5,-266.5 292.5,-266.5"/>
<text text-anchor="middle" x="336" y="-273.5" font-family="Helvetica,sans-Serif" font-size="10.00">UniValue::isNull</text>
</a>
</g>
</g>
<!-- Node1191&#45;&gt;Node1192 -->
<g id="edge32" class="edge"><title>Node1191&#45;&gt;Node1192</title>
<path fill="none" stroke="midnightblue" d="M198.931,-228.621C219.827,-236.458 250.238,-247.707 277,-257 282.978,-259.076 289.323,-261.217 295.538,-263.28"/>
<polygon fill="midnightblue" stroke="midnightblue" points="294.535,-266.635 305.128,-266.438 296.724,-259.986 294.535,-266.635"/>
</g>
<!-- Node1193 -->
<g id="node32" class="node"><title>Node1193</title>
<g id="a_node32"><a xlink:href="../../d7/d6d/rpc_2protocol_8cpp.html#a41a2234c99900304357a44796b2259d5" target="_top" xlink:title="JSONRPCError">
<polygon fill="white" stroke="black" points="453.5,-304.5 453.5,-323.5 539.5,-323.5 539.5,-304.5 453.5,-304.5"/>
<text text-anchor="middle" x="496.5" y="-311.5" font-family="Helvetica,sans-Serif" font-size="10.00">JSONRPCError</text>
</a>
</g>
</g>
<!-- Node1191&#45;&gt;Node1193 -->
<g id="edge33" class="edge"><title>Node1191&#45;&gt;Node1193</title>
<path fill="none" stroke="midnightblue" d="M182.687,-228.574C199.548,-245.441 237.36,-280.077 277,-295 331.054,-315.349 397.762,-318.255 443.152,-317.243"/>
<polygon fill="midnightblue" stroke="midnightblue" points="443.463,-320.736 453.355,-316.942 443.256,-313.739 443.463,-320.736"/>
</g>
<!-- Node1191&#45;&gt;Node1196 -->
<g id="edge38" class="edge"><title>Node1191&#45;&gt;Node1196</title>
<path fill="none" stroke="midnightblue" d="M198.931,-209.379C219.827,-201.542 250.238,-190.293 277,-181 282.978,-178.924 289.323,-176.783 295.538,-174.72"/>
<polygon fill="midnightblue" stroke="midnightblue" points="296.724,-178.014 305.128,-171.562 294.535,-171.365 296.724,-178.014"/>
</g>
<!-- Node1197 -->
<g id="node36" class="node"><title>Node1197</title>
<g id="a_node36"><a xlink:href="../../dc/d76/class_uni_value.html#a5b33bfd4be1574e610eee5a7cdae77d1" target="_top" xlink:title="UniValue::type">
<polygon fill="white" stroke="black" points="295.5,-228.5 295.5,-247.5 376.5,-247.5 376.5,-228.5 295.5,-228.5"/>
<text text-anchor="middle" x="336" y="-235.5" font-family="Helvetica,sans-Serif" font-size="10.00">UniValue::type</text>
</a>
</g>
</g>
<!-- Node1191&#45;&gt;Node1197 -->
<g id="edge39" class="edge"><title>Node1191&#45;&gt;Node1197</title>
<path fill="none" stroke="midnightblue" d="M217.204,-224.142C238.252,-226.618 263.588,-229.599 285.361,-232.16"/>
<polygon fill="midnightblue" stroke="midnightblue" points="285.066,-235.649 295.406,-233.342 285.884,-228.697 285.066,-235.649"/>
</g>
<!-- Node1199 -->
<g id="node38" class="node"><title>Node1199</title>
<g id="a_node38"><a xlink:href="../../df/da8/univalue_8h.html#aa037153cdbc98dd3683ff1918dc70932" target="_top" xlink:title="uvTypeName">
<polygon fill="white" stroke="black" points="298.5,-190.5 298.5,-209.5 373.5,-209.5 373.5,-190.5 298.5,-190.5"/>
<text text-anchor="middle" x="336" y="-197.5" font-family="Helvetica,sans-Serif" font-size="10.00">uvTypeName</text>
</a>
</g>
</g>
<!-- Node1191&#45;&gt;Node1199 -->
<g id="edge41" class="edge"><title>Node1191&#45;&gt;Node1199</title>
<path fill="none" stroke="midnightblue" d="M217.204,-213.858C239.239,-211.266 265.972,-208.121 288.397,-205.483"/>
<polygon fill="midnightblue" stroke="midnightblue" points="288.843,-208.954 298.366,-204.31 288.025,-202.002 288.843,-208.954"/>
</g>
<!-- Node1194 -->
<g id="node33" class="node"><title>Node1194</title>
<g id="a_node33"><a xlink:href="../../d8/d3c/util_8h.html#af8985880cf4ef26df0a5aa2ffcb76662" target="_top" xlink:title="error">
<polygon fill="white" stroke="black" points="663,-307.5 663,-326.5 699,-326.5 699,-307.5 663,-307.5"/>
<text text-anchor="middle" x="681" y="-314.5" font-family="Helvetica,sans-Serif" font-size="10.00">error</text>
</a>
</g>
</g>
<!-- Node1193&#45;&gt;Node1194 -->
<g id="edge34" class="edge"><title>Node1193&#45;&gt;Node1194</title>
<path fill="none" stroke="midnightblue" d="M539.828,-314.696C574.527,-315.266 622.625,-316.057 652.501,-316.548"/>
<polygon fill="midnightblue" stroke="midnightblue" points="652.569,-320.049 662.625,-316.714 652.684,-313.05 652.569,-320.049"/>
</g>
<!-- Node1195 -->
<g id="node34" class="node"><title>Node1195</title>
<g id="a_node34"><a xlink:href="../../df/da8/univalue_8h.html#a884f0e316157c5d85f6cff80c442bf1a" target="_top" xlink:title="Pair">
<polygon fill="white" stroke="black" points="664,-269.5 664,-288.5 698,-288.5 698,-269.5 664,-269.5"/>
<text text-anchor="middle" x="681" y="-276.5" font-family="Helvetica,sans-Serif" font-size="10.00">Pair</text>
</a>
</g>
</g>
<!-- Node1193&#45;&gt;Node1195 -->
<g id="edge37" class="edge"><title>Node1193&#45;&gt;Node1195</title>
<path fill="none" stroke="midnightblue" d="M539.828,-305.882C575.089,-299.12 624.189,-289.704 653.94,-283.998"/>
<polygon fill="midnightblue" stroke="midnightblue" points="654.803,-287.396 663.964,-282.075 653.484,-280.522 654.803,-287.396"/>
</g>
<!-- Node1194&#45;&gt;Node1170 -->
<g id="edge35" class="edge"><title>Node1194&#45;&gt;Node1170</title>
<path fill="none" stroke="midnightblue" d="M699.084,-321.157C724.594,-327.364 773.419,-339.244 808.743,-347.839"/>
<polygon fill="midnightblue" stroke="midnightblue" points="808.229,-351.317 818.773,-350.28 809.884,-344.515 808.229,-351.317"/>
</g>
<!-- Node1194&#45;&gt;Node1182 -->
<g id="edge36" class="edge"><title>Node1194&#45;&gt;Node1182</title>
<path fill="none" stroke="midnightblue" d="M699.084,-316.696C721.755,-316.292 762.84,-315.561 796.498,-314.961"/>
<polygon fill="midnightblue" stroke="midnightblue" points="796.74,-318.458 806.676,-314.78 796.615,-311.459 796.74,-318.458"/>
</g>
<!-- Node1198 -->
<g id="node37" class="node"><title>Node1198</title>
<g id="a_node37"><a xlink:href="../../dc/d76/class_uni_value.html#a2dbc9c5aa9d209338b0bef650f3d1987" target="_top" xlink:title="UniValue::getType">
<polygon fill="white" stroke="black" points="447.5,-228.5 447.5,-247.5 545.5,-247.5 545.5,-228.5 447.5,-228.5"/>
<text text-anchor="middle" x="496.5" y="-235.5" font-family="Helvetica,sans-Serif" font-size="10.00">UniValue::getType</text>
</a>
</g>
</g>
<!-- Node1197&#45;&gt;Node1198 -->
<g id="edge40" class="edge"><title>Node1197&#45;&gt;Node1198</title>
<path fill="none" stroke="midnightblue" d="M376.587,-238C394.942,-238 417.122,-238 437.33,-238"/>
<polygon fill="midnightblue" stroke="midnightblue" points="437.375,-241.5 447.375,-238 437.375,-234.5 437.375,-241.5"/>
</g>
</g>
</svg>
