<?xml version="1.0" encoding="UTF-8" standalone="no"?>
<!DOCTYPE svg PUBLIC "-//W3C//DTD SVG 1.1//EN"
 "http://www.w3.org/Graphics/SVG/1.1/DTD/svg11.dtd">
<!-- Generated by graphviz version 2.38.0 (20140413.2041)
 -->
<!-- Title: BitcoinCore Pages: 1 -->
<svg width="148pt" height="95pt"
 viewBox="0.00 0.00 147.50 95.00" xmlns="http://www.w3.org/2000/svg" xmlns:xlink="http://www.w3.org/1999/xlink">
<g id="graph0" class="graph" transform="scale(1 1) rotate(0) translate(4 91)">
<title>BitcoinCore</title>
<polygon fill="white" stroke="none" points="-4,4 -4,-91 143.5,-91 143.5,4 -4,4"/>
<!-- Node2 -->
<g id="node1" class="node"><title>Node2</title>
<polygon fill="#bfbfbf" stroke="black" points="31.5,-0.5 31.5,-19.5 99.5,-19.5 99.5,-0.5 31.5,-0.5"/>
<text text-anchor="middle" x="65.5" y="-7.5" font-family="Helvetica,sans-Serif" font-size="10.00">BitcoinCore</text>
</g>
<!-- Node3 -->
<g id="node2" class="node"><title>Node3</title>
<polygon fill="white" stroke="#bfbfbf" points="0,-67.5 0,-86.5 53,-86.5 53,-67.5 0,-67.5"/>
<text text-anchor="middle" x="26.5" y="-74.5" font-family="Helvetica,sans-Serif" font-size="10.00">QObject</text>
</g>
<!-- Node3&#45;&gt;Node2 -->
<g id="edge1" class="edge"><title>Node3&#45;&gt;Node2</title>
<path fill="none" stroke="midnightblue" d="M36.9792,-58.5347C44.5301,-45.9499 54.3957,-29.5072 60.3236,-19.6273"/>
<polygon fill="midnightblue" stroke="midnightblue" points="33.9035,-56.8581 31.7597,-67.2338 39.9059,-60.4596 33.9035,-56.8581"/>
</g>
<!-- Node4 -->
<g id="node3" class="node"><title>Node4</title>
<g id="a_node3"><a xlink:href="../../da/d08/class_c_scheduler.html" target="_top" xlink:title="CScheduler">
<polygon fill="white" stroke="black" points="71.5,-67.5 71.5,-86.5 139.5,-86.5 139.5,-67.5 71.5,-67.5"/>
<text text-anchor="middle" x="105.5" y="-74.5" font-family="Helvetica,sans-Serif" font-size="10.00">CScheduler</text>
</a>
</g>
</g>
<!-- Node4&#45;&gt;Node2 -->
<g id="edge2" class="edge"><title>Node4&#45;&gt;Node2</title>
<path fill="none" stroke="#9a32cd" stroke-dasharray="5,2" d="M94.7521,-58.5347C87.0076,-45.9499 76.8891,-29.5072 70.8091,-19.6273"/>
<polygon fill="#9a32cd" stroke="#9a32cd" points="91.8836,-60.5516 100.105,-67.2338 97.8452,-56.8829 91.8836,-60.5516"/>
<text text-anchor="middle" x="111.5" y="-41" font-family="Helvetica,sans-Serif" font-size="10.00"> scheduler</text>
</g>
</g>
</svg>
