<?xml version="1.0" encoding="UTF-8" standalone="no"?>
<!DOCTYPE svg PUBLIC "-//W3C//DTD SVG 1.1//EN"
 "http://www.w3.org/Graphics/SVG/1.1/DTD/svg11.dtd">
<!-- Generated by graphviz version 2.38.0 (20140413.2041)
 -->
<!-- Title: secp256k1_scalar_set_int Pages: 1 -->
<!--zoomable 484 -->
<svg id="main" version="1.1" xmlns="http://www.w3.org/2000/svg" xmlns:xlink="http://www.w3.org/1999/xlink" xml:space="preserve" onload="init(evt)">
<style type="text/css"><![CDATA[
.edge:hover path { stroke: red; }
.edge:hover polygon { stroke: red; fill: red; }
]]></style>
<script type="text/javascript"><![CDATA[
var edges = document.getElementsByTagName('g');
if (edges && edges.length) {
  for (var i=0;i<edges.length;i++) {
    if (edges[i].id.substr(0,4)=='edge') {
      edges[i].setAttribute('class','edge');
    }
  }
}
]]></script>
        <defs>
                <circle id="rim" cx="0" cy="0" r="7"/>
                <circle id="rim2" cx="0" cy="0" r="3.5"/>
                <g id="zoomPlus">
                        <use xlink:href="#rim" fill="#404040">
                                <set attributeName="fill" to="#808080" begin="zoomplus.mouseover" end="zoomplus.mouseout"/>
                        </use>
                        <path d="M-4,0h8M0,-4v8" fill="none" stroke="white" stroke-width="1.5" pointer-events="none"/>
                </g>
                <g id="zoomMin">
                        <use xlink:href="#rim" fill="#404040">
                                <set attributeName="fill" to="#808080" begin="zoomminus.mouseover" end="zoomminus.mouseout"/>
                        </use>
                        <path d="M-4,0h8" fill="none" stroke="white" stroke-width="1.5" pointer-events="none"/>
                </g>
                <g id="dirArrow">
                        <path fill="none" stroke="white" stroke-width="1.5" d="M0,-3.0v7 M-2.5,-0.5L0,-3.0L2.5,-0.5"/>
                </g>
               <g id="resetDef">
                       <use xlink:href="#rim2" fill="#404040">
                               <set attributeName="fill" to="#808080" begin="reset.mouseover" end="reset.mouseout"/>
                       </use>
               </g>
        </defs>

<script type="text/javascript">
var viewWidth = 535;
var viewHeight = 484;
var sectionId = 'dynsection-22';
</script>
<script xlink:href="../../svgpan.js"/>
<svg id="graph" class="graph">
<g id="viewport">
<title>secp256k1_scalar_set_int</title>
<polygon fill="white" stroke="none" points="-4,4 -4,-480.43 531,-480.43 531,4 -4,4"/>
<!-- Node1899 -->
<g id="node1" class="node"><title>Node1899</title>
<polygon fill="#bfbfbf" stroke="black" points="0,-224.5 0,-243.5 130,-243.5 130,-224.5 0,-224.5"/>
<text text-anchor="middle" x="65" y="-231.5" font-family="Helvetica,sans-Serif" font-size="10.00">secp256k1_scalar_set_int</text>
</g>
<!-- Node1900 -->
<g id="node2" class="node"><title>Node1900</title>
<g id="a_node2"><a xlink:href="../../d5/d7f/tests_8c.html#afc29a3cda8faeba097ce967f24fcb9d1" target="_top" xlink:title="run_scalar_tests">
<polygon fill="white" stroke="black" points="349,-427.5 349,-446.5 438,-446.5 438,-427.5 349,-427.5"/>
<text text-anchor="middle" x="393.5" y="-434.5" font-family="Helvetica,sans-Serif" font-size="10.00">run_scalar_tests</text>
</a>
</g>
</g>
<!-- Node1899&#45;&gt;Node1900 -->
<g id="edge1" class="edge"><title>Node1899&#45;&gt;Node1900</title>
<path fill="none" stroke="midnightblue" d="M67.9854,-253.973C73.6976,-299.361 94.6526,-409.887 166,-456 230.957,-497.983 329.219,-464.542 371.711,-446.56"/>
<polygon fill="midnightblue" stroke="midnightblue" points="71.4492,-253.456 66.8402,-243.916 64.4942,-254.248 71.4492,-253.456"/>
</g>
<!-- Node1902 -->
<g id="node4" class="node"><title>Node1902</title>
<g id="a_node4"><a xlink:href="../../d5/d7f/tests_8c.html#af3c34e47a9088ad0f5f0df779303a85a" target="_top" xlink:title="run_wnaf">
<polygon fill="white" stroke="black" points="365.5,-183.5 365.5,-202.5 421.5,-202.5 421.5,-183.5 365.5,-183.5"/>
<text text-anchor="middle" x="393.5" y="-190.5" font-family="Helvetica,sans-Serif" font-size="10.00">run_wnaf</text>
</a>
</g>
</g>
<!-- Node1899&#45;&gt;Node1902 -->
<g id="edge3" class="edge"><title>Node1899&#45;&gt;Node1902</title>
<path fill="none" stroke="midnightblue" d="M78.0214,-252.11C94.6196,-275.283 126.973,-314.299 166,-330 220.427,-351.897 246.058,-357.272 298,-330 351.212,-302.062 380.339,-229.082 389.391,-202.696"/>
<polygon fill="midnightblue" stroke="midnightblue" points="80.8408,-250.034 72.2656,-243.812 75.0888,-254.023 80.8408,-250.034"/>
</g>
<!-- Node1903 -->
<g id="node5" class="node"><title>Node1903</title>
<g id="a_node5"><a xlink:href="../../d5/d7f/tests_8c.html#a0ac2e9ed5b8ba27e48fba5150cebfa82" target="_top" xlink:title="scalar_test">
<polygon fill="white" stroke="black" points="199.5,-427.5 199.5,-446.5 264.5,-446.5 264.5,-427.5 199.5,-427.5"/>
<text text-anchor="middle" x="232" y="-434.5" font-family="Helvetica,sans-Serif" font-size="10.00">scalar_test</text>
</a>
</g>
</g>
<!-- Node1899&#45;&gt;Node1903 -->
<g id="edge5" class="edge"><title>Node1899&#45;&gt;Node1903</title>
<path fill="none" stroke="midnightblue" d="M71.1174,-253.438C82.0193,-291.002 111.135,-373.753 166,-418 175.426,-425.602 187.789,-430.163 199.2,-432.898"/>
<polygon fill="midnightblue" stroke="midnightblue" points="74.465,-252.412 68.4141,-243.715 67.7208,-254.287 74.465,-252.412"/>
</g>
<!-- Node1904 -->
<g id="node6" class="node"><title>Node1904</title>
<g id="a_node6"><a xlink:href="../../d5/d27/ecdsa__impl_8h.html#a701c7cf2fd0fa52c2e3301f719f3fe4a" target="_top" xlink:title="secp256k1_der_parse\l_integer">
<polygon fill="white" stroke="black" points="176,-378 176,-408 288,-408 288,-378 176,-378"/>
<text text-anchor="start" x="184" y="-396" font-family="Helvetica,sans-Serif" font-size="10.00">secp256k1_der_parse</text>
<text text-anchor="middle" x="232" y="-385" font-family="Helvetica,sans-Serif" font-size="10.00">_integer</text>
</a>
</g>
</g>
<!-- Node1899&#45;&gt;Node1904 -->
<g id="edge7" class="edge"><title>Node1899&#45;&gt;Node1904</title>
<path fill="none" stroke="midnightblue" d="M76.4381,-252.6C92.5649,-279.922 125.903,-331.11 166,-363 173.295,-368.802 181.895,-373.78 190.409,-377.918"/>
<polygon fill="midnightblue" stroke="midnightblue" points="79.3267,-250.603 71.2948,-243.694 73.2649,-254.104 79.3267,-250.603"/>
</g>
<!-- Node1906 -->
<g id="node8" class="node"><title>Node1906</title>
<g id="a_node8"><a xlink:href="../../de/dd9/eckey__impl_8h.html#a62b92feda0e18c392cb4efdc4036772f" target="_top" xlink:title="secp256k1_eckey_pubkey\l_tweak_add">
<polygon fill="white" stroke="black" points="166,-290 166,-320 298,-320 298,-290 166,-290"/>
<text text-anchor="start" x="174" y="-308" font-family="Helvetica,sans-Serif" font-size="10.00">secp256k1_eckey_pubkey</text>
<text text-anchor="middle" x="232" y="-297" font-family="Helvetica,sans-Serif" font-size="10.00">_tweak_add</text>
</a>
</g>
</g>
<!-- Node1899&#45;&gt;Node1906 -->
<g id="edge9" class="edge"><title>Node1899&#45;&gt;Node1906</title>
<path fill="none" stroke="midnightblue" d="M94.0645,-247.979C113.951,-257.689 141.366,-270.685 166,-281 173.212,-284.02 180.953,-287.054 188.488,-289.899"/>
<polygon fill="midnightblue" stroke="midnightblue" points="95.4708,-244.77 84.9522,-243.502 92.3841,-251.053 95.4708,-244.77"/>
</g>
<!-- Node1907 -->
<g id="node9" class="node"><title>Node1907</title>
<g id="a_node9"><a xlink:href="../../de/dd9/eckey__impl_8h.html#a00b21d4a9893fc7446668279a9f94ceb" target="_top" xlink:title="secp256k1_eckey_pubkey\l_tweak_mul">
<polygon fill="white" stroke="black" points="166,-241 166,-271 298,-271 298,-241 166,-241"/>
<text text-anchor="start" x="174" y="-259" font-family="Helvetica,sans-Serif" font-size="10.00">secp256k1_eckey_pubkey</text>
<text text-anchor="middle" x="232" y="-248" font-family="Helvetica,sans-Serif" font-size="10.00">_tweak_mul</text>
</a>
</g>
</g>
<!-- Node1899&#45;&gt;Node1907 -->
<g id="edge10" class="edge"><title>Node1899&#45;&gt;Node1907</title>
<path fill="none" stroke="midnightblue" d="M140.214,-243.895C148.754,-245.034 157.414,-246.189 165.823,-247.31"/>
<polygon fill="midnightblue" stroke="midnightblue" points="140.641,-240.421 130.266,-242.569 139.715,-247.36 140.641,-240.421"/>
</g>
<!-- Node1908 -->
<g id="node10" class="node"><title>Node1908</title>
<g id="a_node10"><a xlink:href="../../d9/d00/ecmult__gen__impl_8h.html#a7e41f045cb4901a4eba781966fa35abd" target="_top" xlink:title="secp256k1_ecmult_gen\l_blind">
<polygon fill="white" stroke="black" points="172.5,-115 172.5,-145 291.5,-145 291.5,-115 172.5,-115"/>
<text text-anchor="start" x="180.5" y="-133" font-family="Helvetica,sans-Serif" font-size="10.00">secp256k1_ecmult_gen</text>
<text text-anchor="middle" x="232" y="-122" font-family="Helvetica,sans-Serif" font-size="10.00">_blind</text>
</a>
</g>
</g>
<!-- Node1899&#45;&gt;Node1908 -->
<g id="edge11" class="edge"><title>Node1899&#45;&gt;Node1908</title>
<path fill="none" stroke="midnightblue" d="M83.6344,-217.332C102.734,-199.964 134.686,-172.842 166,-155 172.408,-151.349 179.453,-148.018 186.467,-145.063"/>
<polygon fill="midnightblue" stroke="midnightblue" points="81.0168,-214.985 76.0434,-224.34 85.7652,-220.129 81.0168,-214.985"/>
</g>
<!-- Node1910 -->
<g id="node12" class="node"><title>Node1910</title>
<g id="a_node12"><a xlink:href="../../d5/d7f/tests_8c.html#ab1b83b06f2b16b37ec472a91775d1a94" target="_top" xlink:title="test_constant_wnaf">
<polygon fill="white" stroke="black" points="181,-202.5 181,-221.5 283,-221.5 283,-202.5 181,-202.5"/>
<text text-anchor="middle" x="232" y="-209.5" font-family="Helvetica,sans-Serif" font-size="10.00">test_constant_wnaf</text>
</a>
</g>
</g>
<!-- Node1899&#45;&gt;Node1910 -->
<g id="edge13" class="edge"><title>Node1899&#45;&gt;Node1910</title>
<path fill="none" stroke="midnightblue" d="M140.227,-224.103C154.013,-222.265 168.111,-220.385 180.959,-218.672"/>
<polygon fill="midnightblue" stroke="midnightblue" points="139.715,-220.64 130.266,-225.431 140.641,-227.579 139.715,-220.64"/>
</g>
<!-- Node1911 -->
<g id="node13" class="node"><title>Node1911</title>
<g id="a_node13"><a xlink:href="../../d5/d7f/tests_8c.html#abbcb27d1eb13654db9b2e281ffce021e" target="_top" xlink:title="test_ecdsa_edge_cases">
<polygon fill="white" stroke="black" points="171,-76.5 171,-95.5 293,-95.5 293,-76.5 171,-76.5"/>
<text text-anchor="middle" x="232" y="-83.5" font-family="Helvetica,sans-Serif" font-size="10.00">test_ecdsa_edge_cases</text>
</a>
</g>
</g>
<!-- Node1899&#45;&gt;Node1911 -->
<g id="edge15" class="edge"><title>Node1899&#45;&gt;Node1911</title>
<path fill="none" stroke="midnightblue" d="M75.6299,-215.026C90.9249,-186.802 123.446,-133.98 166,-105 171.733,-101.095 178.276,-97.9815 184.952,-95.5011"/>
<polygon fill="midnightblue" stroke="midnightblue" points="72.35,-213.743 70.7876,-224.222 78.5438,-217.005 72.35,-213.743"/>
</g>
<!-- Node1913 -->
<g id="node15" class="node"><title>Node1913</title>
<g id="a_node15"><a xlink:href="../../d5/d7f/tests_8c.html#a9f741d7d63a637666b9884c5241abd00" target="_top" xlink:title="test_ecdsa_sign_verify">
<polygon fill="white" stroke="black" points="173.5,-38.5 173.5,-57.5 290.5,-57.5 290.5,-38.5 173.5,-38.5"/>
<text text-anchor="middle" x="232" y="-45.5" font-family="Helvetica,sans-Serif" font-size="10.00">test_ecdsa_sign_verify</text>
</a>
</g>
</g>
<!-- Node1899&#45;&gt;Node1913 -->
<g id="edge18" class="edge"><title>Node1899&#45;&gt;Node1913</title>
<path fill="none" stroke="midnightblue" d="M72.3049,-214.469C84.5908,-179.535 115.085,-106.338 166,-67 171.024,-63.1184 176.821,-60.029 182.84,-57.5702"/>
<polygon fill="midnightblue" stroke="midnightblue" points="68.8429,-213.781 68.953,-224.375 75.4736,-216.024 68.8429,-213.781"/>
</g>
<!-- Node1915 -->
<g id="node17" class="node"><title>Node1915</title>
<g id="a_node17"><a xlink:href="../../d5/d7f/tests_8c.html#ab02e05e21c96c34d9497e2bdd44d2e3a" target="_top" xlink:title="test_ecmult_constants">
<polygon fill="white" stroke="black" points="174,-0.5 174,-19.5 290,-19.5 290,-0.5 174,-0.5"/>
<text text-anchor="middle" x="232" y="-7.5" font-family="Helvetica,sans-Serif" font-size="10.00">test_ecmult_constants</text>
</a>
</g>
</g>
<!-- Node1899&#45;&gt;Node1915 -->
<g id="edge21" class="edge"><title>Node1899&#45;&gt;Node1915</title>
<path fill="none" stroke="midnightblue" d="M69.9923,-214.332C79.3113,-173.525 106.385,-79.2808 166,-29 170.583,-25.1342 175.92,-22.0546 181.529,-19.6013"/>
<polygon fill="midnightblue" stroke="midnightblue" points="66.5658,-213.619 67.8655,-224.133 73.4066,-215.103 66.5658,-213.619"/>
</g>
<!-- Node1917 -->
<g id="node19" class="node"><title>Node1917</title>
<g id="a_node19"><a xlink:href="../../d5/d7f/tests_8c.html#a7ca78a9b379dc40e8b025b145dd5648a" target="_top" xlink:title="test_wnaf">
<polygon fill="white" stroke="black" points="202.5,-164.5 202.5,-183.5 261.5,-183.5 261.5,-164.5 202.5,-164.5"/>
<text text-anchor="middle" x="232" y="-171.5" font-family="Helvetica,sans-Serif" font-size="10.00">test_wnaf</text>
</a>
</g>
</g>
<!-- Node1899&#45;&gt;Node1917 -->
<g id="edge24" class="edge"><title>Node1899&#45;&gt;Node1917</title>
<path fill="none" stroke="midnightblue" d="M96.9376,-220.335C116.532,-211.925 142.517,-201.221 166,-193 177.762,-188.882 190.928,-184.917 202.319,-181.684"/>
<polygon fill="midnightblue" stroke="midnightblue" points="95.3833,-217.194 87.596,-224.377 98.1636,-223.618 95.3833,-217.194"/>
</g>
<!-- Node1901 -->
<g id="node3" class="node"><title>Node1901</title>
<g id="a_node3"><a xlink:href="../../d5/d7f/tests_8c.html#a3c04138a5bfe5d72780bb7e82a18e627" target="_top" xlink:title="main">
<polygon fill="white" stroke="black" points="489,-76.5 489,-95.5 527,-95.5 527,-76.5 489,-76.5"/>
<text text-anchor="middle" x="508" y="-83.5" font-family="Helvetica,sans-Serif" font-size="10.00">main</text>
</a>
</g>
</g>
<!-- Node1900&#45;&gt;Node1901 -->
<g id="edge2" class="edge"><title>Node1900&#45;&gt;Node1901</title>
<path fill="none" stroke="midnightblue" d="M447.094,-423.531C449.247,-421.892 451.236,-420.057 453,-418 496.248,-367.582 505.275,-144.581 506.749,-95.5536"/>
<polygon fill="midnightblue" stroke="midnightblue" points="444.888,-420.773 438.115,-428.92 448.491,-426.774 444.888,-420.773"/>
</g>
<!-- Node1902&#45;&gt;Node1901 -->
<g id="edge4" class="edge"><title>Node1902&#45;&gt;Node1901</title>
<path fill="none" stroke="midnightblue" d="M420.74,-177.969C431.309,-171.305 443.274,-162.949 453,-154 472.968,-135.626 491.553,-109.473 500.828,-95.563"/>
<polygon fill="midnightblue" stroke="midnightblue" points="418.616,-175.165 411.903,-183.362 422.262,-181.14 418.616,-175.165"/>
</g>
<!-- Node1903&#45;&gt;Node1900 -->
<g id="edge6" class="edge"><title>Node1903&#45;&gt;Node1900</title>
<path fill="none" stroke="midnightblue" d="M274.596,-437C297.466,-437 325.812,-437 348.979,-437"/>
<polygon fill="midnightblue" stroke="midnightblue" points="274.512,-433.5 264.512,-437 274.512,-440.5 274.512,-433.5"/>
</g>
<!-- Node1905 -->
<g id="node7" class="node"><title>Node1905</title>
<g id="a_node7"><a xlink:href="../../d5/d27/ecdsa__impl_8h.html#af5f863608f65607ecc117a594448baf1" target="_top" xlink:title="secp256k1_ecdsa_sig\l_parse">
<polygon fill="white" stroke="black" points="337,-378 337,-408 450,-408 450,-378 337,-378"/>
<text text-anchor="start" x="345" y="-396" font-family="Helvetica,sans-Serif" font-size="10.00">secp256k1_ecdsa_sig</text>
<text text-anchor="middle" x="393.5" y="-385" font-family="Helvetica,sans-Serif" font-size="10.00">_parse</text>
</a>
</g>
</g>
<!-- Node1904&#45;&gt;Node1905 -->
<g id="edge8" class="edge"><title>Node1904&#45;&gt;Node1905</title>
<path fill="none" stroke="midnightblue" d="M298.463,-393C311.257,-393 324.558,-393 336.99,-393"/>
<polygon fill="midnightblue" stroke="midnightblue" points="298.338,-389.5 288.338,-393 298.338,-396.5 298.338,-389.5"/>
</g>
<!-- Node1909 -->
<g id="node11" class="node"><title>Node1909</title>
<g id="a_node11"><a xlink:href="../../d9/d00/ecmult__gen__impl_8h.html#afaf90b2a6554053187cdc89df0dafd21" target="_top" xlink:title="secp256k1_ecmult_gen\l_context_build">
<polygon fill="white" stroke="black" points="334,-115 334,-145 453,-145 453,-115 334,-115"/>
<text text-anchor="start" x="342" y="-133" font-family="Helvetica,sans-Serif" font-size="10.00">secp256k1_ecmult_gen</text>
<text text-anchor="middle" x="393.5" y="-122" font-family="Helvetica,sans-Serif" font-size="10.00">_context_build</text>
</a>
</g>
</g>
<!-- Node1908&#45;&gt;Node1909 -->
<g id="edge12" class="edge"><title>Node1908&#45;&gt;Node1909</title>
<path fill="none" stroke="midnightblue" d="M301.997,-130C312.597,-130 323.455,-130 333.804,-130"/>
<polygon fill="midnightblue" stroke="midnightblue" points="301.939,-126.5 291.939,-130 301.939,-133.5 301.939,-126.5"/>
</g>
<!-- Node1910&#45;&gt;Node1902 -->
<g id="edge14" class="edge"><title>Node1910&#45;&gt;Node1902</title>
<path fill="none" stroke="midnightblue" d="M293.129,-204.837C318.006,-201.874 345.598,-198.587 365.382,-196.23"/>
<polygon fill="midnightblue" stroke="midnightblue" points="292.545,-201.382 283.029,-206.04 293.373,-208.333 292.545,-201.382"/>
</g>
<!-- Node1912 -->
<g id="node14" class="node"><title>Node1912</title>
<g id="a_node14"><a xlink:href="../../d5/d7f/tests_8c.html#ad6c8109b62ea1d0ed1b382678a2a08b1" target="_top" xlink:title="run_ecdsa_edge_cases">
<polygon fill="white" stroke="black" points="334,-76.5 334,-95.5 453,-95.5 453,-76.5 334,-76.5"/>
<text text-anchor="middle" x="393.5" y="-83.5" font-family="Helvetica,sans-Serif" font-size="10.00">run_ecdsa_edge_cases</text>
</a>
</g>
</g>
<!-- Node1911&#45;&gt;Node1912 -->
<g id="edge16" class="edge"><title>Node1911&#45;&gt;Node1912</title>
<path fill="none" stroke="midnightblue" d="M303.41,-86C313.614,-86 324.025,-86 333.963,-86"/>
<polygon fill="midnightblue" stroke="midnightblue" points="303.3,-82.5001 293.3,-86 303.3,-89.5001 303.3,-82.5001"/>
</g>
<!-- Node1912&#45;&gt;Node1901 -->
<g id="edge17" class="edge"><title>Node1912&#45;&gt;Node1901</title>
<path fill="none" stroke="midnightblue" d="M463.35,-86C472.707,-86 481.574,-86 488.841,-86"/>
<polygon fill="midnightblue" stroke="midnightblue" points="463.057,-82.5001 453.057,-86 463.057,-89.5001 463.057,-82.5001"/>
</g>
<!-- Node1914 -->
<g id="node16" class="node"><title>Node1914</title>
<g id="a_node16"><a xlink:href="../../d5/d7f/tests_8c.html#a8b33b5c265c09b165c29d92c05c641d8" target="_top" xlink:title="run_ecdsa_sign_verify">
<polygon fill="white" stroke="black" points="336.5,-38.5 336.5,-57.5 450.5,-57.5 450.5,-38.5 336.5,-38.5"/>
<text text-anchor="middle" x="393.5" y="-45.5" font-family="Helvetica,sans-Serif" font-size="10.00">run_ecdsa_sign_verify</text>
</a>
</g>
</g>
<!-- Node1913&#45;&gt;Node1914 -->
<g id="edge19" class="edge"><title>Node1913&#45;&gt;Node1914</title>
<path fill="none" stroke="midnightblue" d="M300.857,-48C312.684,-48 324.868,-48 336.336,-48"/>
<polygon fill="midnightblue" stroke="midnightblue" points="300.583,-44.5001 290.583,-48 300.583,-51.5001 300.583,-44.5001"/>
</g>
<!-- Node1914&#45;&gt;Node1901 -->
<g id="edge20" class="edge"><title>Node1914&#45;&gt;Node1901</title>
<path fill="none" stroke="midnightblue" d="M434.075,-60.7091C440.412,-62.7859 446.893,-64.9342 453,-67 464.862,-71.0125 478.129,-75.6779 488.544,-79.3815"/>
<polygon fill="midnightblue" stroke="midnightblue" points="434.899,-57.2967 424.307,-57.5264 432.73,-63.9523 434.899,-57.2967"/>
</g>
<!-- Node1916 -->
<g id="node18" class="node"><title>Node1916</title>
<g id="a_node18"><a xlink:href="../../d5/d7f/tests_8c.html#a93c275726298d7a59a4f027996a958b4" target="_top" xlink:title="run_ecmult_constants">
<polygon fill="white" stroke="black" points="337,-0.5 337,-19.5 450,-19.5 450,-0.5 337,-0.5"/>
<text text-anchor="middle" x="393.5" y="-7.5" font-family="Helvetica,sans-Serif" font-size="10.00">run_ecmult_constants</text>
</a>
</g>
</g>
<!-- Node1915&#45;&gt;Node1916 -->
<g id="edge22" class="edge"><title>Node1915&#45;&gt;Node1916</title>
<path fill="none" stroke="midnightblue" d="M300.251,-10C312.438,-10 325.026,-10 336.835,-10"/>
<polygon fill="midnightblue" stroke="midnightblue" points="300.133,-6.5001 290.133,-10 300.133,-13.5001 300.133,-6.5001"/>
</g>
<!-- Node1916&#45;&gt;Node1901 -->
<g id="edge23" class="edge"><title>Node1916&#45;&gt;Node1901</title>
<path fill="none" stroke="midnightblue" d="M442.461,-23.3422C446.132,-25.0307 449.692,-26.911 453,-29 473.055,-41.6639 490.794,-63.4454 500.101,-76.0999"/>
<polygon fill="midnightblue" stroke="midnightblue" points="443.764,-20.0939 433.184,-19.5306 441.104,-26.5686 443.764,-20.0939"/>
</g>
<!-- Node1917&#45;&gt;Node1902 -->
<g id="edge25" class="edge"><title>Node1917&#45;&gt;Node1902</title>
<path fill="none" stroke="midnightblue" d="M271.694,-178.609C300.658,-182.06 339.557,-186.693 365.296,-189.759"/>
<polygon fill="midnightblue" stroke="midnightblue" points="271.859,-175.104 261.515,-177.397 271.031,-182.055 271.859,-175.104"/>
</g>
</g>
</svg>
        <g id="navigator" transform="translate(0 0)" fill="#404254">
                <rect fill="#f2f5e9" fill-opacity="0.5" stroke="#606060" stroke-width=".5" x="0" y="0" width="60" height="60"/>
                <use id="zoomplus" xlink:href="#zoomPlus" x="17" y="9" onmousedown="handleZoom(evt,'in')"/>
                <use id="zoomminus" xlink:href="#zoomMin" x="42" y="9" onmousedown="handleZoom(evt,'out')"/>
                <use id="reset" xlink:href="#resetDef" x="30" y="36" onmousedown="handleReset()"/>
                <g id="arrowUp" xlink:href="#dirArrow" transform="translate(30 24)" onmousedown="handlePan(0,-1)">
                  <use xlink:href="#rim" fill="#404040">
                        <set attributeName="fill" to="#808080" begin="arrowUp.mouseover" end="arrowUp.mouseout"/>
                  </use>
                  <path fill="none" stroke="white" stroke-width="1.5" d="M0,-3.0v7 M-2.5,-0.5L0,-3.0L2.5,-0.5"/>
                </g>
                <g id="arrowRight" xlink:href="#dirArrow" transform="rotate(90) translate(36 -43)" onmousedown="handlePan(1,0)">
                  <use xlink:href="#rim" fill="#404040">
                        <set attributeName="fill" to="#808080" begin="arrowRight.mouseover" end="arrowRight.mouseout"/>
                  </use>
                  <path fill="none" stroke="white" stroke-width="1.5" d="M0,-3.0v7 M-2.5,-0.5L0,-3.0L2.5,-0.5"/>
                </g>
                <g id="arrowDown" xlink:href="#dirArrow" transform="rotate(180) translate(-30 -48)" onmousedown="handlePan(0,1)">
                  <use xlink:href="#rim" fill="#404040">
                        <set attributeName="fill" to="#808080" begin="arrowDown.mouseover" end="arrowDown.mouseout"/>
                  </use>
                  <path fill="none" stroke="white" stroke-width="1.5" d="M0,-3.0v7 M-2.5,-0.5L0,-3.0L2.5,-0.5"/>
                </g>
                <g id="arrowLeft" xlink:href="#dirArrow" transform="rotate(270) translate(-36 17)" onmousedown="handlePan(-1,0)">
                  <use xlink:href="#rim" fill="#404040">
                        <set attributeName="fill" to="#808080" begin="arrowLeft.mouseover" end="arrowLeft.mouseout"/>
                  </use>
                  <path fill="none" stroke="white" stroke-width="1.5" d="M0,-3.0v7 M-2.5,-0.5L0,-3.0L2.5,-0.5"/>
                </g>
        </g>
        <svg viewBox="0 0 15 15" width="100%" height="30px" preserveAspectRatio="xMaxYMin meet">
         <g id="arrow_out" transform="scale(0.3 0.3)">
          <a xlink:href="scalar_8h_a41cb11650e4dea0fe7ac5b59b9fce9dc_icgraph_org.svg" target="_base">
           <rect id="button" ry="5" rx="5" y="6" x="6" height="38" width="38"
                fill="#f2f5e9" fill-opacity="0.5" stroke="#606060" stroke-width="1.0"/>
           <path id="arrow"
             d="M 11.500037,31.436501 C 11.940474,20.09759 22.043105,11.32322 32.158766,21.979434 L 37.068811,17.246167 C 37.068811,17.246167 37.088388,32 37.088388,32 L 22.160133,31.978069 C 22.160133,31.978069 26.997745,27.140456 26.997745,27.140456 C 18.528582,18.264221 13.291696,25.230495 11.500037,31.436501 z"
             style="fill:#404040;"/>
          </a>
         </g>
        </svg>
</svg>
