<?xml version="1.0" encoding="UTF-8" standalone="no"?>
<!DOCTYPE svg PUBLIC "-//W3C//DTD SVG 1.1//EN"
 "http://www.w3.org/Graphics/SVG/1.1/DTD/svg11.dtd">
<!-- Generated by graphviz version 2.38.0 (20140413.2041)
 -->
<!-- Title: src/policy/policy.h Pages: 1 -->
<svg width="1282pt" height="84pt"
 viewBox="0.00 0.00 1282.00 84.00" xmlns="http://www.w3.org/2000/svg" xmlns:xlink="http://www.w3.org/1999/xlink">
<g id="graph0" class="graph" transform="scale(1 1) rotate(0) translate(4 80)">
<title>src/policy/policy.h</title>
<polygon fill="white" stroke="none" points="-4,4 -4,-80 1278,-80 1278,4 -4,4"/>
<!-- Node32 -->
<g id="node1" class="node"><title>Node32</title>
<polygon fill="#bfbfbf" stroke="black" points="539.5,-56.5 539.5,-75.5 634.5,-75.5 634.5,-56.5 539.5,-56.5"/>
<text text-anchor="middle" x="587" y="-63.5" font-family="Helvetica,sans-Serif" font-size="10.00">src/policy/policy.h</text>
</g>
<!-- Node33 -->
<g id="node2" class="node"><title>Node33</title>
<g id="a_node2"><a xlink:href="../../d6/da1/dash-tx_8cpp.html" target="_top" xlink:title="src/dash&#45;tx.cpp">
<polygon fill="white" stroke="black" points="0,-0.5 0,-19.5 84,-19.5 84,-0.5 0,-0.5"/>
<text text-anchor="middle" x="42" y="-7.5" font-family="Helvetica,sans-Serif" font-size="10.00">src/dash&#45;tx.cpp</text>
</a>
</g>
</g>
<!-- Node32&#45;&gt;Node33 -->
<g id="edge1" class="edge"><title>Node32&#45;&gt;Node33</title>
<path fill="none" stroke="midnightblue" d="M529.173,-61.311C436.75,-55.0605 250.149,-40.9861 93,-20 90.1482,-19.6192 87.2125,-19.1929 84.2584,-18.7385"/>
<polygon fill="midnightblue" stroke="midnightblue" points="528.951,-64.804 539.163,-61.9809 529.42,-57.8196 528.951,-64.804"/>
</g>
<!-- Node34 -->
<g id="node3" class="node"><title>Node34</title>
<g id="a_node3"><a xlink:href="../../d0/dc9/init_8cpp.html" target="_top" xlink:title="src/init.cpp">
<polygon fill="white" stroke="black" points="102.5,-0.5 102.5,-19.5 167.5,-19.5 167.5,-0.5 102.5,-0.5"/>
<text text-anchor="middle" x="135" y="-7.5" font-family="Helvetica,sans-Serif" font-size="10.00">src/init.cpp</text>
</a>
</g>
</g>
<!-- Node32&#45;&gt;Node34 -->
<g id="edge2" class="edge"><title>Node32&#45;&gt;Node34</title>
<path fill="none" stroke="midnightblue" d="M529.134,-60.5173C449.506,-53.9241 301.821,-40.1699 177,-20 174.055,-19.5242 171.005,-18.9773 167.955,-18.3932"/>
<polygon fill="midnightblue" stroke="midnightblue" points="529.187,-64.0333 539.439,-61.362 529.759,-57.0567 529.187,-64.0333"/>
</g>
<!-- Node35 -->
<g id="node4" class="node"><title>Node35</title>
<g id="a_node4"><a xlink:href="../../d6/de3/miner_8cpp.html" target="_top" xlink:title="src/miner.cpp">
<polygon fill="white" stroke="black" points="186,-0.5 186,-19.5 262,-19.5 262,-0.5 186,-0.5"/>
<text text-anchor="middle" x="224" y="-7.5" font-family="Helvetica,sans-Serif" font-size="10.00">src/miner.cpp</text>
</a>
</g>
</g>
<!-- Node32&#45;&gt;Node35 -->
<g id="edge3" class="edge"><title>Node32&#45;&gt;Node35</title>
<path fill="none" stroke="midnightblue" d="M529.037,-57.5901C465.563,-49.279 360.832,-34.9885 271,-20 268.132,-19.5215 265.169,-19.0055 262.192,-18.4714"/>
<polygon fill="midnightblue" stroke="midnightblue" points="528.876,-61.0986 539.244,-58.9216 529.781,-54.1574 528.876,-61.0986"/>
</g>
<!-- Node36 -->
<g id="node5" class="node"><title>Node36</title>
<g id="a_node5"><a xlink:href="../../d2/d83/net__processing_8cpp.html" target="_top" xlink:title="src/net_processing.cpp">
<polygon fill="white" stroke="black" points="280,-0.5 280,-19.5 398,-19.5 398,-0.5 280,-0.5"/>
<text text-anchor="middle" x="339" y="-7.5" font-family="Helvetica,sans-Serif" font-size="10.00">src/net_processing.cpp</text>
</a>
</g>
</g>
<!-- Node32&#45;&gt;Node36 -->
<g id="edge4" class="edge"><title>Node32&#45;&gt;Node36</title>
<path fill="none" stroke="midnightblue" d="M537.774,-54.2815C490.909,-44.0769 421.301,-28.9203 378.112,-19.5164"/>
<polygon fill="midnightblue" stroke="midnightblue" points="537.188,-57.7358 547.704,-56.4435 538.677,-50.896 537.188,-57.7358"/>
</g>
<!-- Node37 -->
<g id="node6" class="node"><title>Node37</title>
<g id="a_node6"><a xlink:href="../../d0/d85/fees_8cpp.html" target="_top" xlink:title="src/policy/fees.cpp">
<polygon fill="white" stroke="black" points="416.5,-0.5 416.5,-19.5 515.5,-19.5 515.5,-0.5 416.5,-0.5"/>
<text text-anchor="middle" x="466" y="-7.5" font-family="Helvetica,sans-Serif" font-size="10.00">src/policy/fees.cpp</text>
</a>
</g>
</g>
<!-- Node32&#45;&gt;Node37 -->
<g id="edge5" class="edge"><title>Node32&#45;&gt;Node37</title>
<path fill="none" stroke="midnightblue" d="M558.694,-52.3678C536.035,-42.2553 504.874,-28.3486 485.083,-19.5164"/>
<polygon fill="midnightblue" stroke="midnightblue" points="557.269,-55.5643 567.827,-56.4435 560.122,-49.1719 557.269,-55.5643"/>
</g>
<!-- Node38 -->
<g id="node7" class="node"><title>Node38</title>
<g id="a_node7"><a xlink:href="../../d3/dbb/policy_8cpp.html" target="_top" xlink:title="src/policy/policy.cpp">
<polygon fill="white" stroke="black" points="534,-0.5 534,-19.5 640,-19.5 640,-0.5 534,-0.5"/>
<text text-anchor="middle" x="587" y="-7.5" font-family="Helvetica,sans-Serif" font-size="10.00">src/policy/policy.cpp</text>
</a>
</g>
</g>
<!-- Node32&#45;&gt;Node38 -->
<g id="edge6" class="edge"><title>Node32&#45;&gt;Node38</title>
<path fill="none" stroke="midnightblue" d="M587,-45.8045C587,-36.9102 587,-26.7798 587,-19.7511"/>
<polygon fill="midnightblue" stroke="midnightblue" points="583.5,-46.083 587,-56.083 590.5,-46.083 583.5,-46.083"/>
</g>
<!-- Node39 -->
<g id="node8" class="node"><title>Node39</title>
<g id="a_node8"><a xlink:href="../../d1/d76/blockchain_8cpp.html" target="_top" xlink:title="src/rpc/blockchain.cpp">
<polygon fill="white" stroke="black" points="658.5,-0.5 658.5,-19.5 773.5,-19.5 773.5,-0.5 658.5,-0.5"/>
<text text-anchor="middle" x="716" y="-7.5" font-family="Helvetica,sans-Serif" font-size="10.00">src/rpc/blockchain.cpp</text>
</a>
</g>
</g>
<!-- Node32&#45;&gt;Node39 -->
<g id="edge7" class="edge"><title>Node32&#45;&gt;Node39</title>
<path fill="none" stroke="midnightblue" d="M616.854,-52.503C641.038,-42.3795 674.462,-28.388 695.655,-19.5164"/>
<polygon fill="midnightblue" stroke="midnightblue" points="615.313,-49.3536 607.44,-56.4435 618.016,-55.8106 615.313,-49.3536"/>
</g>
<!-- Node40 -->
<g id="node9" class="node"><title>Node40</title>
<g id="a_node9"><a xlink:href="../../d4/d0c/rawtransaction_8cpp.html" target="_top" xlink:title="src/rpc/rawtransaction.cpp">
<polygon fill="white" stroke="black" points="792,-0.5 792,-19.5 924,-19.5 924,-0.5 792,-0.5"/>
<text text-anchor="middle" x="858" y="-7.5" font-family="Helvetica,sans-Serif" font-size="10.00">src/rpc/rawtransaction.cpp</text>
</a>
</g>
</g>
<!-- Node32&#45;&gt;Node40 -->
<g id="edge8" class="edge"><title>Node32&#45;&gt;Node40</title>
<path fill="none" stroke="midnightblue" d="M639.828,-54.4734C691.045,-44.2678 767.77,-28.9794 815.26,-19.5164"/>
<polygon fill="midnightblue" stroke="midnightblue" points="639.064,-51.0567 629.941,-56.4435 640.432,-57.9218 639.064,-51.0567"/>
</g>
<!-- Node41 -->
<g id="node10" class="node"><title>Node41</title>
<g id="a_node10"><a xlink:href="../../d3/d32/sign_8cpp.html" target="_top" xlink:title="src/script/sign.cpp">
<polygon fill="white" stroke="black" points="942.5,-0.5 942.5,-19.5 1039.5,-19.5 1039.5,-0.5 942.5,-0.5"/>
<text text-anchor="middle" x="991" y="-7.5" font-family="Helvetica,sans-Serif" font-size="10.00">src/script/sign.cpp</text>
</a>
</g>
</g>
<!-- Node32&#45;&gt;Node41 -->
<g id="edge9" class="edge"><title>Node32&#45;&gt;Node41</title>
<path fill="none" stroke="midnightblue" d="M644.811,-57.9227C713.56,-49.4041 831.753,-34.4371 933,-20 936.026,-19.5685 939.14,-19.1145 942.279,-18.6492"/>
<polygon fill="midnightblue" stroke="midnightblue" points="644.117,-54.4817 634.623,-59.1827 644.977,-61.4288 644.117,-54.4817"/>
</g>
<!-- Node42 -->
<g id="node11" class="node"><title>Node42</title>
<g id="a_node11"><a xlink:href="../../dd/d7d/validation_8cpp.html" target="_top" xlink:title="src/validation.cpp">
<polygon fill="white" stroke="black" points="1057.5,-0.5 1057.5,-19.5 1150.5,-19.5 1150.5,-0.5 1057.5,-0.5"/>
<text text-anchor="middle" x="1104" y="-7.5" font-family="Helvetica,sans-Serif" font-size="10.00">src/validation.cpp</text>
</a>
</g>
</g>
<!-- Node32&#45;&gt;Node42 -->
<g id="edge10" class="edge"><title>Node32&#45;&gt;Node42</title>
<path fill="none" stroke="midnightblue" d="M644.669,-60.5965C732.238,-53.6358 903.912,-38.9165 1049,-20 1051.69,-19.6497 1054.44,-19.2684 1057.22,-18.8671"/>
<polygon fill="midnightblue" stroke="midnightblue" points="644.362,-57.1097 634.669,-61.3866 644.914,-64.088 644.362,-57.1097"/>
</g>
<!-- Node43 -->
<g id="node12" class="node"><title>Node43</title>
<g id="a_node12"><a xlink:href="../../d7/de1/wallet_8cpp.html" target="_top" xlink:title="src/wallet/wallet.cpp">
<polygon fill="white" stroke="black" points="1168,-0.5 1168,-19.5 1274,-19.5 1274,-0.5 1168,-0.5"/>
<text text-anchor="middle" x="1221" y="-7.5" font-family="Helvetica,sans-Serif" font-size="10.00">src/wallet/wallet.cpp</text>
</a>
</g>
</g>
<!-- Node32&#45;&gt;Node43 -->
<g id="edge11" class="edge"><title>Node32&#45;&gt;Node43</title>
<path fill="none" stroke="midnightblue" d="M644.883,-61.7619C748.425,-55.6782 972.108,-41.2139 1160,-20 1162.55,-19.7118 1165.16,-19.3985 1167.8,-19.0673"/>
<polygon fill="midnightblue" stroke="midnightblue" points="644.425,-58.2825 634.646,-62.3589 644.833,-65.2706 644.425,-58.2825"/>
</g>
</g>
</svg>
