<?xml version="1.0" encoding="UTF-8" standalone="no"?>
<!DOCTYPE svg PUBLIC "-//W3C//DTD SVG 1.1//EN"
 "http://www.w3.org/Graphics/SVG/1.1/DTD/svg11.dtd">
<!-- Generated by graphviz version 2.38.0 (20140413.2041)
 -->
<!-- Title: RPCAuthorized Pages: 1 -->
<svg width="383pt" height="104pt"
 viewBox="0.00 0.00 383.00 104.00" xmlns="http://www.w3.org/2000/svg" xmlns:xlink="http://www.w3.org/1999/xlink">
<g id="graph0" class="graph" transform="scale(1 1) rotate(0) translate(4 100)">
<title>RPCAuthorized</title>
<polygon fill="white" stroke="none" points="-4,4 -4,-100 379,-100 379,4 -4,4"/>
<!-- Node190 -->
<g id="node1" class="node"><title>Node190</title>
<polygon fill="#bfbfbf" stroke="black" points="0,-38.5 0,-57.5 85,-57.5 85,-38.5 0,-38.5"/>
<text text-anchor="middle" x="42.5" y="-45.5" font-family="Helvetica,sans-Serif" font-size="10.00">RPCAuthorized</text>
</g>
<!-- Node191 -->
<g id="node2" class="node"><title>Node191</title>
<g id="a_node2"><a xlink:href="../../da/dd6/utilstrencodings_8cpp.html#a224a1ec4dc69c9463abf0e8ae767af0d" target="_top" xlink:title="DecodeBase64">
<polygon fill="white" stroke="black" points="132,-76.5 132,-95.5 215,-95.5 215,-76.5 132,-76.5"/>
<text text-anchor="middle" x="173.5" y="-83.5" font-family="Helvetica,sans-Serif" font-size="10.00">DecodeBase64</text>
</a>
</g>
</g>
<!-- Node190&#45;&gt;Node191 -->
<g id="edge1" class="edge"><title>Node190&#45;&gt;Node191</title>
<path fill="none" stroke="midnightblue" d="M76.0521,-57.589C92.3993,-62.4044 112.409,-68.2988 129.957,-73.468"/>
<polygon fill="midnightblue" stroke="midnightblue" points="129.377,-76.9457 139.958,-76.4141 131.355,-70.2309 129.377,-76.9457"/>
</g>
<!-- Node192 -->
<g id="node3" class="node"><title>Node192</title>
<g id="a_node3"><a xlink:href="../../de/dc5/httprpc_8cpp.html#a7631a88c4609d9d786f494a870db107c" target="_top" xlink:title="multiUserAuthorized">
<polygon fill="white" stroke="black" points="121,-38.5 121,-57.5 226,-57.5 226,-38.5 121,-38.5"/>
<text text-anchor="middle" x="173.5" y="-45.5" font-family="Helvetica,sans-Serif" font-size="10.00">multiUserAuthorized</text>
</a>
</g>
</g>
<!-- Node190&#45;&gt;Node192 -->
<g id="edge2" class="edge"><title>Node190&#45;&gt;Node192</title>
<path fill="none" stroke="midnightblue" d="M85.0265,-48C93.1791,-48 101.895,-48 110.549,-48"/>
<polygon fill="midnightblue" stroke="midnightblue" points="110.644,-51.5001 120.644,-48 110.643,-44.5001 110.644,-51.5001"/>
</g>
<!-- Node194 -->
<g id="node5" class="node"><title>Node194</title>
<g id="a_node5"><a xlink:href="../../d8/db2/utilstrencodings_8h.html#a7ddc80f6840eae3277e324aec17c2568" target="_top" xlink:title="Timing&#45;attack&#45;resistant comparison. ">
<polygon fill="white" stroke="black" points="262,-0.5 262,-19.5 375,-19.5 375,-0.5 262,-0.5"/>
<text text-anchor="middle" x="318.5" y="-7.5" font-family="Helvetica,sans-Serif" font-size="10.00">TimingResistantEqual</text>
</a>
</g>
</g>
<!-- Node190&#45;&gt;Node194 -->
<g id="edge5" class="edge"><title>Node190&#45;&gt;Node194</title>
<path fill="none" stroke="midnightblue" d="M77.9987,-38.4134C91.3427,-35.0034 106.796,-31.4148 121,-29 164.269,-21.6436 213.418,-16.8926 251.738,-13.9813"/>
<polygon fill="midnightblue" stroke="midnightblue" points="252.024,-17.4698 261.74,-13.2443 251.51,-10.4887 252.024,-17.4698"/>
</g>
<!-- Node193 -->
<g id="node4" class="node"><title>Node193</title>
<g id="a_node4"><a xlink:href="../../d8/db2/utilstrencodings_8h.html#ace13a819ca4e98c22847d26b3b357e75" target="_top" xlink:title="HexStr">
<polygon fill="white" stroke="black" points="295,-38.5 295,-57.5 342,-57.5 342,-38.5 295,-38.5"/>
<text text-anchor="middle" x="318.5" y="-45.5" font-family="Helvetica,sans-Serif" font-size="10.00">HexStr</text>
</a>
</g>
</g>
<!-- Node192&#45;&gt;Node193 -->
<g id="edge3" class="edge"><title>Node192&#45;&gt;Node193</title>
<path fill="none" stroke="midnightblue" d="M226.126,-48C245.604,-48 267.219,-48 284.535,-48"/>
<polygon fill="midnightblue" stroke="midnightblue" points="284.703,-51.5001 294.703,-48 284.703,-44.5001 284.703,-51.5001"/>
</g>
<!-- Node192&#45;&gt;Node194 -->
<g id="edge4" class="edge"><title>Node192&#45;&gt;Node194</title>
<path fill="none" stroke="midnightblue" d="M210.585,-38.411C229.13,-33.4831 251.926,-27.4251 271.699,-22.1709"/>
<polygon fill="midnightblue" stroke="midnightblue" points="272.661,-25.5368 281.427,-19.5859 270.863,-18.7716 272.661,-25.5368"/>
</g>
</g>
</svg>
