<?xml version="1.0" encoding="UTF-8" standalone="no"?>
<!DOCTYPE svg PUBLIC "-//W3C//DTD SVG 1.1//EN"
 "http://www.w3.org/Graphics/SVG/1.1/DTD/svg11.dtd">
<!-- Generated by graphviz version 2.38.0 (20140413.2041)
 -->
<!-- Title: src/secp256k1/src/field_impl.h Pages: 1 -->
<svg width="389pt" height="173pt"
 viewBox="0.00 0.00 389.00 173.00" xmlns="http://www.w3.org/2000/svg" xmlns:xlink="http://www.w3.org/1999/xlink">
<g id="graph0" class="graph" transform="scale(1 1) rotate(0) translate(4 169)">
<title>src/secp256k1/src/field_impl.h</title>
<polygon fill="white" stroke="none" points="-4,4 -4,-169 385,-169 385,4 -4,4"/>
<!-- Node5 -->
<g id="node1" class="node"><title>Node5</title>
<polygon fill="#bfbfbf" stroke="black" points="110,-134.5 110,-164.5 228,-164.5 228,-134.5 110,-134.5"/>
<text text-anchor="start" x="118" y="-152.5" font-family="Helvetica,sans-Serif" font-size="10.00">src/secp256k1/src/field</text>
<text text-anchor="middle" x="169" y="-141.5" font-family="Helvetica,sans-Serif" font-size="10.00">_impl.h</text>
</g>
<!-- Node6 -->
<g id="node2" class="node"><title>Node6</title>
<g id="a_node2"><a xlink:href="../../d9/d5e/bench__internal_8c.html" target="_top" xlink:title="src/secp256k1/src/bench\l_internal.c">
<polygon fill="white" stroke="black" points="0,-0.5 0,-30.5 126,-30.5 126,-0.5 0,-0.5"/>
<text text-anchor="start" x="8" y="-18.5" font-family="Helvetica,sans-Serif" font-size="10.00">src/secp256k1/src/bench</text>
<text text-anchor="middle" x="63" y="-7.5" font-family="Helvetica,sans-Serif" font-size="10.00">_internal.c</text>
</a>
</g>
</g>
<!-- Node5&#45;&gt;Node6 -->
<g id="edge1" class="edge"><title>Node5&#45;&gt;Node6</title>
<path fill="none" stroke="midnightblue" d="M121.241,-129.789C106.718,-121.963 91.9779,-111.487 82,-98 67.1376,-77.9107 63.6696,-48.026 62.994,-30.5771"/>
<polygon fill="midnightblue" stroke="midnightblue" points="119.707,-132.935 130.211,-134.322 122.865,-126.688 119.707,-132.935"/>
</g>
<!-- Node7 -->
<g id="node3" class="node"><title>Node7</title>
<g id="a_node3"><a xlink:href="../../d1/d8c/secp256k1_8c.html" target="_top" xlink:title="src/secp256k1/src/secp256k1.c">
<polygon fill="white" stroke="black" points="91.5,-73 91.5,-92 246.5,-92 246.5,-73 91.5,-73"/>
<text text-anchor="middle" x="169" y="-80" font-family="Helvetica,sans-Serif" font-size="10.00">src/secp256k1/src/secp256k1.c</text>
</a>
</g>
</g>
<!-- Node5&#45;&gt;Node7 -->
<g id="edge2" class="edge"><title>Node5&#45;&gt;Node7</title>
<path fill="none" stroke="midnightblue" d="M169,-124.25C169,-113.017 169,-100.377 169,-92.1945"/>
<polygon fill="midnightblue" stroke="midnightblue" points="165.5,-124.396 169,-134.396 172.5,-124.396 165.5,-124.396"/>
</g>
<!-- Node9 -->
<g id="node5" class="node"><title>Node9</title>
<g id="a_node5"><a xlink:href="../../d0/dde/gen__context_8c.html" target="_top" xlink:title="src/secp256k1/src/gen\l_context.c">
<polygon fill="white" stroke="black" points="265,-67.5 265,-97.5 381,-97.5 381,-67.5 265,-67.5"/>
<text text-anchor="start" x="273" y="-85.5" font-family="Helvetica,sans-Serif" font-size="10.00">src/secp256k1/src/gen</text>
<text text-anchor="middle" x="323" y="-74.5" font-family="Helvetica,sans-Serif" font-size="10.00">_context.c</text>
</a>
</g>
</g>
<!-- Node5&#45;&gt;Node9 -->
<g id="edge5" class="edge"><title>Node5&#45;&gt;Node9</title>
<path fill="none" stroke="midnightblue" d="M211.867,-130.407C236.453,-120.029 266.86,-107.195 289.65,-97.5765"/>
<polygon fill="midnightblue" stroke="midnightblue" points="210.268,-127.283 202.416,-134.396 212.99,-133.732 210.268,-127.283"/>
</g>
<!-- Node7&#45;&gt;Node6 -->
<g id="edge3" class="edge"><title>Node7&#45;&gt;Node6</title>
<path fill="none" stroke="midnightblue" d="M146.094,-67.4538C128.313,-56.5506 103.774,-41.503 85.9759,-30.589"/>
<polygon fill="midnightblue" stroke="midnightblue" points="144.35,-70.49 154.704,-72.7338 148.009,-64.5226 144.35,-70.49"/>
</g>
<!-- Node8 -->
<g id="node4" class="node"><title>Node8</title>
<g id="a_node4"><a xlink:href="../../d5/d7f/tests_8c.html" target="_top" xlink:title="src/secp256k1/src/tests.c">
<polygon fill="white" stroke="black" points="144,-6 144,-25 274,-25 274,-6 144,-6"/>
<text text-anchor="middle" x="209" y="-13" font-family="Helvetica,sans-Serif" font-size="10.00">src/secp256k1/src/tests.c</text>
</a>
</g>
</g>
<!-- Node7&#45;&gt;Node8 -->
<g id="edge4" class="edge"><title>Node7&#45;&gt;Node8</title>
<path fill="none" stroke="midnightblue" d="M179.748,-64.0347C187.492,-51.4499 197.611,-35.0072 203.691,-25.1273"/>
<polygon fill="midnightblue" stroke="midnightblue" points="176.655,-62.3829 174.395,-72.7338 182.616,-66.0516 176.655,-62.3829"/>
</g>
</g>
</svg>
