<?xml version="1.0" encoding="UTF-8" standalone="no"?>
<!DOCTYPE svg PUBLIC "-//W3C//DTD SVG 1.1//EN"
 "http://www.w3.org/Graphics/SVG/1.1/DTD/svg11.dtd">
<!-- Generated by graphviz version 2.38.0 (20140413.2041)
 -->
<!-- Title: TorController::connected_cb Pages: 1 -->
<svg width="654pt" height="47pt"
 viewBox="0.00 0.00 654.00 47.00" xmlns="http://www.w3.org/2000/svg" xmlns:xlink="http://www.w3.org/1999/xlink">
<g id="graph0" class="graph" transform="scale(1 1) rotate(0) translate(4 43)">
<title>TorController::connected_cb</title>
<polygon fill="white" stroke="none" points="-4,4 -4,-43 650,-43 650,4 -4,4"/>
<!-- Node411 -->
<g id="node1" class="node"><title>Node411</title>
<polygon fill="#bfbfbf" stroke="black" points="0,-0.5 0,-19.5 140,-19.5 140,-0.5 0,-0.5"/>
<text text-anchor="middle" x="70" y="-7.5" font-family="Helvetica,sans-Serif" font-size="10.00">TorController::connected_cb</text>
</g>
<!-- Node412 -->
<g id="node2" class="node"><title>Node412</title>
<g id="a_node2"><a xlink:href="../../da/dd9/class_tor_controller.html#ae5d4304836fce79574ec540c5ada8269" target="_top" xlink:title="Reconnect, after getting disconnected. ">
<polygon fill="white" stroke="black" points="176,-19.5 176,-38.5 302,-38.5 302,-19.5 176,-19.5"/>
<text text-anchor="middle" x="239" y="-26.5" font-family="Helvetica,sans-Serif" font-size="10.00">TorController::Reconnect</text>
</a>
</g>
</g>
<!-- Node411&#45;&gt;Node412 -->
<g id="edge1" class="edge"><title>Node411&#45;&gt;Node412</title>
<path fill="none" stroke="midnightblue" d="M150.347,-19.0275C158.885,-19.9989 167.481,-20.9769 175.777,-21.9208"/>
<polygon fill="midnightblue" stroke="midnightblue" points="150.704,-15.5456 140.372,-17.8926 149.912,-22.5007 150.704,-15.5456"/>
</g>
<!-- Node414 -->
<g id="node4" class="node"><title>Node414</title>
<g id="a_node4"><a xlink:href="../../da/dd9/class_tor_controller.html#ab38d90df15a9e3f2c6e1f4f24073a64e" target="_top" xlink:title="TorController::TorController">
<polygon fill="white" stroke="black" points="511,-0.5 511,-19.5 646,-19.5 646,-0.5 511,-0.5"/>
<text text-anchor="middle" x="578.5" y="-7.5" font-family="Helvetica,sans-Serif" font-size="10.00">TorController::TorController</text>
</a>
</g>
</g>
<!-- Node411&#45;&gt;Node414 -->
<g id="edge4" class="edge"><title>Node411&#45;&gt;Node414</title>
<path fill="none" stroke="midnightblue" d="M150.379,-10C249.696,-10 417.987,-10 510.907,-10"/>
<polygon fill="midnightblue" stroke="midnightblue" points="150.1,-6.5001 140.1,-10 150.1,-13.5001 150.1,-6.5001"/>
</g>
<!-- Node413 -->
<g id="node3" class="node"><title>Node413</title>
<g id="a_node3"><a xlink:href="../../da/dd9/class_tor_controller.html#a2fa9614b4fa0e24c57f443b3c56f835c" target="_top" xlink:title="Callback for reconnect timer. ">
<polygon fill="white" stroke="black" points="338,-19.5 338,-38.5 475,-38.5 475,-19.5 338,-19.5"/>
<text text-anchor="middle" x="406.5" y="-26.5" font-family="Helvetica,sans-Serif" font-size="10.00">TorController::reconnect_cb</text>
</a>
</g>
</g>
<!-- Node412&#45;&gt;Node413 -->
<g id="edge2" class="edge"><title>Node412&#45;&gt;Node413</title>
<path fill="none" stroke="midnightblue" d="M312.32,-29C320.782,-29 329.391,-29 337.787,-29"/>
<polygon fill="midnightblue" stroke="midnightblue" points="312.097,-25.5001 302.097,-29 312.097,-32.5001 312.097,-25.5001"/>
</g>
<!-- Node413&#45;&gt;Node414 -->
<g id="edge3" class="edge"><title>Node413&#45;&gt;Node414</title>
<path fill="none" stroke="midnightblue" d="M485.187,-20.3173C493.772,-19.3578 502.457,-18.3872 510.888,-17.4449"/>
<polygon fill="midnightblue" stroke="midnightblue" points="484.726,-16.8469 475.177,-21.4361 485.504,-23.8036 484.726,-16.8469"/>
</g>
</g>
</svg>
