<?xml version="1.0" encoding="UTF-8" standalone="no"?>
<!DOCTYPE svg PUBLIC "-//W3C//DTD SVG 1.1//EN"
 "http://www.w3.org/Graphics/SVG/1.1/DTD/svg11.dtd">
<!-- Generated by graphviz version 2.38.0 (20140413.2041)
 -->
<!-- Title: GUIUtil::checkPoint Pages: 1 -->
<!--zoomable 113 -->
<svg id="main" version="1.1" xmlns="http://www.w3.org/2000/svg" xmlns:xlink="http://www.w3.org/1999/xlink" xml:space="preserve" onload="init(evt)">
<style type="text/css"><![CDATA[
.edge:hover path { stroke: red; }
.edge:hover polygon { stroke: red; fill: red; }
]]></style>
<script type="text/javascript"><![CDATA[
var edges = document.getElementsByTagName('g');
if (edges && edges.length) {
  for (var i=0;i<edges.length;i++) {
    if (edges[i].id.substr(0,4)=='edge') {
      edges[i].setAttribute('class','edge');
    }
  }
}
]]></script>
        <defs>
                <circle id="rim" cx="0" cy="0" r="7"/>
                <circle id="rim2" cx="0" cy="0" r="3.5"/>
                <g id="zoomPlus">
                        <use xlink:href="#rim" fill="#404040">
                                <set attributeName="fill" to="#808080" begin="zoomplus.mouseover" end="zoomplus.mouseout"/>
                        </use>
                        <path d="M-4,0h8M0,-4v8" fill="none" stroke="white" stroke-width="1.5" pointer-events="none"/>
                </g>
                <g id="zoomMin">
                        <use xlink:href="#rim" fill="#404040">
                                <set attributeName="fill" to="#808080" begin="zoomminus.mouseover" end="zoomminus.mouseout"/>
                        </use>
                        <path d="M-4,0h8" fill="none" stroke="white" stroke-width="1.5" pointer-events="none"/>
                </g>
                <g id="dirArrow">
                        <path fill="none" stroke="white" stroke-width="1.5" d="M0,-3.0v7 M-2.5,-0.5L0,-3.0L2.5,-0.5"/>
                </g>
               <g id="resetDef">
                       <use xlink:href="#rim2" fill="#404040">
                               <set attributeName="fill" to="#808080" begin="reset.mouseover" end="reset.mouseout"/>
                       </use>
               </g>
        </defs>

<script type="text/javascript">
var viewWidth = 1409;
var viewHeight = 113;
var sectionId = 'dynsection-2';
</script>
<script xlink:href="../../svgpan.js"/>
<svg id="graph" class="graph">
<g id="viewport">
<title>GUIUtil::checkPoint</title>
<polygon fill="white" stroke="none" points="-4,4 -4,-108.5 1405,-108.5 1405,4 -4,4"/>
<!-- Node25 -->
<g id="node1" class="node"><title>Node25</title>
<polygon fill="#bfbfbf" stroke="black" points="0,-47 0,-66 104,-66 104,-47 0,-47"/>
<text text-anchor="middle" x="52" y="-54" font-family="Helvetica,sans-Serif" font-size="10.00">GUIUtil::checkPoint</text>
</g>
<!-- Node26 -->
<g id="node2" class="node"><title>Node26</title>
<g id="a_node2"><a xlink:href="../../d1/d87/namespace_g_u_i_util.html#a0b7266e2b8e7de5f5fd1c7ddb9e5b637" target="_top" xlink:title="GUIUtil::isObscured">
<polygon fill="white" stroke="black" points="140,-47 140,-66 245,-66 245,-47 140,-47"/>
<text text-anchor="middle" x="192.5" y="-54" font-family="Helvetica,sans-Serif" font-size="10.00">GUIUtil::isObscured</text>
</a>
</g>
</g>
<!-- Node25&#45;&gt;Node26 -->
<g id="edge1" class="edge"><title>Node25&#45;&gt;Node26</title>
<path fill="none" stroke="midnightblue" d="M114.349,-56.5C122.779,-56.5 131.368,-56.5 139.606,-56.5"/>
<polygon fill="midnightblue" stroke="midnightblue" points="114.179,-53.0001 104.179,-56.5 114.179,-60.0001 114.179,-53.0001"/>
</g>
<!-- Node27 -->
<g id="node3" class="node"><title>Node27</title>
<g id="a_node3"><a xlink:href="../../df/d5a/class_bitcoin_g_u_i.html#a0aed98ed2a278a2effdd9a4b34ba8620" target="_top" xlink:title="Show window if hidden, unminimize when minimized, rise when obscured or show if hidden and fToggleHid...">
<polygon fill="white" stroke="black" points="281,-41.5 281,-71.5 412,-71.5 412,-41.5 281,-41.5"/>
<text text-anchor="start" x="289" y="-59.5" font-family="Helvetica,sans-Serif" font-size="10.00">BitcoinGUI::showNormalIf</text>
<text text-anchor="middle" x="346.5" y="-48.5" font-family="Helvetica,sans-Serif" font-size="10.00">Minimized</text>
</a>
</g>
</g>
<!-- Node26&#45;&gt;Node27 -->
<g id="edge2" class="edge"><title>Node26&#45;&gt;Node27</title>
<path fill="none" stroke="midnightblue" d="M255.479,-56.5C263.874,-56.5 272.506,-56.5 280.944,-56.5"/>
<polygon fill="midnightblue" stroke="midnightblue" points="255.385,-53.0001 245.385,-56.5 255.385,-60.0001 255.385,-53.0001"/>
</g>
<!-- Node28 -->
<g id="node4" class="node"><title>Node28</title>
<g id="a_node4"><a xlink:href="../../df/d5a/class_bitcoin_g_u_i.html#a7340679e1356b1bb3cfaeb64a3e93218" target="_top" xlink:title="Create the main UI actions. ">
<polygon fill="white" stroke="black" points="620,-85 620,-104 751,-104 751,-85 620,-85"/>
<text text-anchor="middle" x="685.5" y="-92" font-family="Helvetica,sans-Serif" font-size="10.00">BitcoinGUI::createActions</text>
</a>
</g>
</g>
<!-- Node27&#45;&gt;Node28 -->
<g id="edge3" class="edge"><title>Node27&#45;&gt;Node28</title>
<path fill="none" stroke="midnightblue" d="M422.303,-71.5519C430.946,-73.0206 439.651,-74.3787 448,-75.5 505.869,-83.2722 572.163,-88.2626 619.809,-91.1689"/>
<polygon fill="midnightblue" stroke="midnightblue" points="422.664,-68.0619 412.21,-69.7846 421.456,-74.957 422.664,-68.0619"/>
</g>
<!-- Node30 -->
<g id="node6" class="node"><title>Node30</title>
<g id="a_node6"><a xlink:href="../../df/d5a/class_bitcoin_g_u_i.html#abf1d036341d1fb122398b2b78d2734ea" target="_top" xlink:title="Notify the user of an event from the core network or transaction handling code. ">
<polygon fill="white" stroke="black" points="457,-9 457,-28 567,-28 567,-9 457,-9"/>
<text text-anchor="middle" x="512" y="-16" font-family="Helvetica,sans-Serif" font-size="10.00">BitcoinGUI::message</text>
</a>
</g>
</g>
<!-- Node27&#45;&gt;Node30 -->
<g id="edge5" class="edge"><title>Node27&#45;&gt;Node30</title>
<path fill="none" stroke="midnightblue" d="M422.249,-39.1271C438.635,-35.3188 455.398,-31.4227 469.881,-28.0568"/>
<polygon fill="midnightblue" stroke="midnightblue" points="421.068,-35.8084 412.12,-41.4814 422.652,-42.6266 421.068,-35.8084"/>
</g>
<!-- Node37 -->
<g id="node13" class="node"><title>Node37</title>
<g id="a_node13"><a xlink:href="../../df/d5a/class_bitcoin_g_u_i.html#a6ca9ded69ab510195ff04fe7f5754ff5" target="_top" xlink:title="Simply calls showNormalIfMinimized(true) for use in SLOT() macro. ">
<polygon fill="white" stroke="black" points="448,-47 448,-66 576,-66 576,-47 448,-47"/>
<text text-anchor="middle" x="512" y="-54" font-family="Helvetica,sans-Serif" font-size="10.00">BitcoinGUI::toggleHidden</text>
</a>
</g>
</g>
<!-- Node27&#45;&gt;Node37 -->
<g id="edge14" class="edge"><title>Node27&#45;&gt;Node37</title>
<path fill="none" stroke="midnightblue" d="M422.156,-56.5C430.766,-56.5 439.482,-56.5 447.918,-56.5"/>
<polygon fill="midnightblue" stroke="midnightblue" points="422.12,-53.0001 412.12,-56.5 422.119,-60.0001 422.12,-53.0001"/>
</g>
<!-- Node29 -->
<g id="node5" class="node"><title>Node29</title>
<g id="a_node5"><a xlink:href="../../df/d5a/class_bitcoin_g_u_i.html#a66562921703374d7de64cb26949d054f" target="_top" xlink:title="BitcoinGUI::BitcoinGUI">
<polygon fill="white" stroke="black" points="803.5,-85 803.5,-104 922.5,-104 922.5,-85 803.5,-85"/>
<text text-anchor="middle" x="863" y="-92" font-family="Helvetica,sans-Serif" font-size="10.00">BitcoinGUI::BitcoinGUI</text>
</a>
</g>
</g>
<!-- Node28&#45;&gt;Node29 -->
<g id="edge4" class="edge"><title>Node28&#45;&gt;Node29</title>
<path fill="none" stroke="midnightblue" d="M761.426,-94.5C775.399,-94.5 789.815,-94.5 803.216,-94.5"/>
<polygon fill="midnightblue" stroke="midnightblue" points="761.351,-91.0001 751.351,-94.5 761.351,-98.0001 761.351,-91.0001"/>
</g>
<!-- Node31 -->
<g id="node7" class="node"><title>Node31</title>
<g id="a_node7"><a xlink:href="../../df/d5a/class_bitcoin_g_u_i.html#a99d71e1f8478ab937ce2522c8d3815e3" target="_top" xlink:title="Set the client model. ">
<polygon fill="white" stroke="black" points="795,-28 795,-47 931,-47 931,-28 795,-28"/>
<text text-anchor="middle" x="863" y="-35" font-family="Helvetica,sans-Serif" font-size="10.00">BitcoinGUI::setClientModel</text>
</a>
</g>
</g>
<!-- Node30&#45;&gt;Node31 -->
<g id="edge6" class="edge"><title>Node30&#45;&gt;Node31</title>
<path fill="none" stroke="midnightblue" d="M577.168,-21.9934C638.972,-25.3581 732.082,-30.4271 794.865,-33.8451"/>
<polygon fill="midnightblue" stroke="midnightblue" points="577.324,-18.4968 567.148,-21.4479 576.943,-25.4864 577.324,-18.4968"/>
</g>
<!-- Node32 -->
<g id="node8" class="node"><title>Node32</title>
<g id="a_node8"><a xlink:href="../../d2/d2a/class_bitcoin_application.html#aceb08b4063e4fb264cf11cf7f9edd969" target="_top" xlink:title="BitcoinApplication\l::initializeResult">
<polygon fill="white" stroke="black" points="967,-44.5 967,-74.5 1062,-74.5 1062,-44.5 967,-44.5"/>
<text text-anchor="start" x="975" y="-62.5" font-family="Helvetica,sans-Serif" font-size="10.00">BitcoinApplication</text>
<text text-anchor="middle" x="1014.5" y="-51.5" font-family="Helvetica,sans-Serif" font-size="10.00">::initializeResult</text>
</a>
</g>
</g>
<!-- Node31&#45;&gt;Node32 -->
<g id="edge7" class="edge"><title>Node31&#45;&gt;Node32</title>
<path fill="none" stroke="midnightblue" d="M938.644,-48.4845C948.21,-49.8921 957.778,-51.3 966.721,-52.6161"/>
<polygon fill="midnightblue" stroke="midnightblue" points="939.106,-45.0148 928.703,-47.0216 938.087,-51.9403 939.106,-45.0148"/>
</g>
<!-- Node36 -->
<g id="node12" class="node"><title>Node36</title>
<g id="a_node12"><a xlink:href="../../d2/d2a/class_bitcoin_application.html#a37c560d4c04d14a6da151b82caf8888f" target="_top" xlink:title="Request core shutdown. ">
<polygon fill="white" stroke="black" points="1229,-0.5 1229,-30.5 1327,-30.5 1327,-0.5 1229,-0.5"/>
<text text-anchor="start" x="1237" y="-18.5" font-family="Helvetica,sans-Serif" font-size="10.00">BitcoinApplication</text>
<text text-anchor="middle" x="1278" y="-7.5" font-family="Helvetica,sans-Serif" font-size="10.00">::requestShutdown</text>
</a>
</g>
</g>
<!-- Node31&#45;&gt;Node36 -->
<g id="edge13" class="edge"><title>Node31&#45;&gt;Node36</title>
<path fill="none" stroke="midnightblue" d="M941.318,-33.3814C1025.69,-28.8871 1158.14,-21.8315 1228.8,-18.0675"/>
<polygon fill="midnightblue" stroke="midnightblue" points="941.074,-29.8893 931.275,-33.9164 941.447,-36.8794 941.074,-29.8893"/>
</g>
<!-- Node33 -->
<g id="node9" class="node"><title>Node33</title>
<g id="a_node9"><a xlink:href="../../d2/d2a/class_bitcoin_application.html#a61afce9356e452c53ad4c83f5ca19df8" target="_top" xlink:title="BitcoinApplication\l::startThread">
<polygon fill="white" stroke="black" points="1098,-44.5 1098,-74.5 1193,-74.5 1193,-44.5 1098,-44.5"/>
<text text-anchor="start" x="1106" y="-62.5" font-family="Helvetica,sans-Serif" font-size="10.00">BitcoinApplication</text>
<text text-anchor="middle" x="1145.5" y="-51.5" font-family="Helvetica,sans-Serif" font-size="10.00">::startThread</text>
</a>
</g>
</g>
<!-- Node32&#45;&gt;Node33 -->
<g id="edge8" class="edge"><title>Node32&#45;&gt;Node33</title>
<path fill="none" stroke="midnightblue" d="M1072.1,-59.5C1080.75,-59.5 1089.6,-59.5 1098,-59.5"/>
<polygon fill="midnightblue" stroke="midnightblue" points="1072.07,-56.0001 1062.07,-59.5 1072.07,-63.0001 1072.07,-56.0001"/>
</g>
<!-- Node34 -->
<g id="node10" class="node"><title>Node34</title>
<g id="a_node10"><a xlink:href="../../d2/d2a/class_bitcoin_application.html#ade19c44b87b00b6b19b433caf4c22ba6" target="_top" xlink:title="Request core initialization. ">
<polygon fill="white" stroke="black" points="1230.5,-49.5 1230.5,-79.5 1325.5,-79.5 1325.5,-49.5 1230.5,-49.5"/>
<text text-anchor="start" x="1238.5" y="-67.5" font-family="Helvetica,sans-Serif" font-size="10.00">BitcoinApplication</text>
<text text-anchor="middle" x="1278" y="-56.5" font-family="Helvetica,sans-Serif" font-size="10.00">::requestInitialize</text>
</a>
</g>
</g>
<!-- Node33&#45;&gt;Node34 -->
<g id="edge9" class="edge"><title>Node33&#45;&gt;Node34</title>
<path fill="none" stroke="midnightblue" d="M1203.25,-61.6744C1212.23,-62.0183 1221.42,-62.3707 1230.14,-62.7047"/>
<polygon fill="midnightblue" stroke="midnightblue" points="1203.37,-58.1765 1193.24,-61.291 1203.1,-65.1714 1203.37,-58.1765"/>
</g>
<!-- Node33&#45;&gt;Node36 -->
<g id="edge11" class="edge"><title>Node33&#45;&gt;Node36</title>
<path fill="none" stroke="midnightblue" d="M1200.57,-41.2699C1211.1,-37.7204 1222.02,-34.0358 1232.21,-30.6009"/>
<polygon fill="midnightblue" stroke="midnightblue" points="1199.4,-37.9692 1191.05,-44.4808 1201.64,-44.6023 1199.4,-37.9692"/>
</g>
<!-- Node35 -->
<g id="node11" class="node"><title>Node35</title>
<g id="a_node11"><a xlink:href="../../de/d02/dash_8cpp.html#a0ddf1224851353fc92bfbff6f499fa97" target="_top" xlink:title="main">
<polygon fill="white" stroke="black" points="1363,-30 1363,-49 1401,-49 1401,-30 1363,-30"/>
<text text-anchor="middle" x="1382" y="-37" font-family="Helvetica,sans-Serif" font-size="10.00">main</text>
</a>
</g>
</g>
<!-- Node34&#45;&gt;Node35 -->
<g id="edge10" class="edge"><title>Node34&#45;&gt;Node35</title>
<path fill="none" stroke="midnightblue" d="M1335.47,-50.6586C1345.39,-48.2289 1355.02,-45.8675 1362.85,-43.9474"/>
<polygon fill="midnightblue" stroke="midnightblue" points="1334.4,-47.3174 1325.52,-53.0974 1336.07,-54.1162 1334.4,-47.3174"/>
</g>
<!-- Node36&#45;&gt;Node35 -->
<g id="edge12" class="edge"><title>Node36&#45;&gt;Node35</title>
<path fill="none" stroke="midnightblue" d="M1336.92,-29.128C1346.37,-31.3508 1355.49,-33.4977 1362.96,-35.2559"/>
<polygon fill="midnightblue" stroke="midnightblue" points="1337.55,-25.6807 1327.01,-26.7972 1335.95,-32.4947 1337.55,-25.6807"/>
</g>
<!-- Node37&#45;&gt;Node28 -->
<g id="edge15" class="edge"><title>Node37&#45;&gt;Node28</title>
<path fill="none" stroke="midnightblue" d="M566.041,-68.2526C590.291,-73.6258 618.647,-79.9086 641.535,-84.9799"/>
<polygon fill="midnightblue" stroke="midnightblue" points="566.797,-64.8352 556.277,-66.089 565.283,-71.6695 566.797,-64.8352"/>
</g>
<!-- Node38 -->
<g id="node14" class="node"><title>Node38</title>
<g id="a_node14"><a xlink:href="../../df/d5a/class_bitcoin_g_u_i.html#ae753f1d521f7c17804419f6a9054738b" target="_top" xlink:title="Handle tray icon clicked. ">
<polygon fill="white" stroke="black" points="612,-47 612,-66 759,-66 759,-47 612,-47"/>
<text text-anchor="middle" x="685.5" y="-54" font-family="Helvetica,sans-Serif" font-size="10.00">BitcoinGUI::trayIconActivated</text>
</a>
</g>
</g>
<!-- Node37&#45;&gt;Node38 -->
<g id="edge16" class="edge"><title>Node37&#45;&gt;Node38</title>
<path fill="none" stroke="midnightblue" d="M586.509,-56.5C594.902,-56.5 603.454,-56.5 611.836,-56.5"/>
<polygon fill="midnightblue" stroke="midnightblue" points="586.373,-53.0001 576.373,-56.5 586.373,-60.0001 586.373,-53.0001"/>
</g>
<!-- Node38&#45;&gt;Node31 -->
<g id="edge17" class="edge"><title>Node38&#45;&gt;Node31</title>
<path fill="none" stroke="midnightblue" d="M769.164,-47.5506C777.738,-46.6224 786.376,-45.6872 794.75,-44.7806"/>
<polygon fill="midnightblue" stroke="midnightblue" points="768.715,-44.0787 759.149,-48.6348 769.468,-51.0381 768.715,-44.0787"/>
</g>
</g>
</svg>
        <g id="navigator" transform="translate(0 0)" fill="#404254">
                <rect fill="#f2f5e9" fill-opacity="0.5" stroke="#606060" stroke-width=".5" x="0" y="0" width="60" height="60"/>
                <use id="zoomplus" xlink:href="#zoomPlus" x="17" y="9" onmousedown="handleZoom(evt,'in')"/>
                <use id="zoomminus" xlink:href="#zoomMin" x="42" y="9" onmousedown="handleZoom(evt,'out')"/>
                <use id="reset" xlink:href="#resetDef" x="30" y="36" onmousedown="handleReset()"/>
                <g id="arrowUp" xlink:href="#dirArrow" transform="translate(30 24)" onmousedown="handlePan(0,-1)">
                  <use xlink:href="#rim" fill="#404040">
                        <set attributeName="fill" to="#808080" begin="arrowUp.mouseover" end="arrowUp.mouseout"/>
                  </use>
                  <path fill="none" stroke="white" stroke-width="1.5" d="M0,-3.0v7 M-2.5,-0.5L0,-3.0L2.5,-0.5"/>
                </g>
                <g id="arrowRight" xlink:href="#dirArrow" transform="rotate(90) translate(36 -43)" onmousedown="handlePan(1,0)">
                  <use xlink:href="#rim" fill="#404040">
                        <set attributeName="fill" to="#808080" begin="arrowRight.mouseover" end="arrowRight.mouseout"/>
                  </use>
                  <path fill="none" stroke="white" stroke-width="1.5" d="M0,-3.0v7 M-2.5,-0.5L0,-3.0L2.5,-0.5"/>
                </g>
                <g id="arrowDown" xlink:href="#dirArrow" transform="rotate(180) translate(-30 -48)" onmousedown="handlePan(0,1)">
                  <use xlink:href="#rim" fill="#404040">
                        <set attributeName="fill" to="#808080" begin="arrowDown.mouseover" end="arrowDown.mouseout"/>
                  </use>
                  <path fill="none" stroke="white" stroke-width="1.5" d="M0,-3.0v7 M-2.5,-0.5L0,-3.0L2.5,-0.5"/>
                </g>
                <g id="arrowLeft" xlink:href="#dirArrow" transform="rotate(270) translate(-36 17)" onmousedown="handlePan(-1,0)">
                  <use xlink:href="#rim" fill="#404040">
                        <set attributeName="fill" to="#808080" begin="arrowLeft.mouseover" end="arrowLeft.mouseout"/>
                  </use>
                  <path fill="none" stroke="white" stroke-width="1.5" d="M0,-3.0v7 M-2.5,-0.5L0,-3.0L2.5,-0.5"/>
                </g>
        </g>
        <svg viewBox="0 0 15 15" width="100%" height="30px" preserveAspectRatio="xMaxYMin meet">
         <g id="arrow_out" transform="scale(0.3 0.3)">
          <a xlink:href="namespace_g_u_i_util_ab2e7ef0aa9a1ad3f86d67a3f596b6fc4_icgraph_org.svg" target="_base">
           <rect id="button" ry="5" rx="5" y="6" x="6" height="38" width="38"
                fill="#f2f5e9" fill-opacity="0.5" stroke="#606060" stroke-width="1.0"/>
           <path id="arrow"
             d="M 11.500037,31.436501 C 11.940474,20.09759 22.043105,11.32322 32.158766,21.979434 L 37.068811,17.246167 C 37.068811,17.246167 37.088388,32 37.088388,32 L 22.160133,31.978069 C 22.160133,31.978069 26.997745,27.140456 26.997745,27.140456 C 18.528582,18.264221 13.291696,25.230495 11.500037,31.436501 z"
             style="fill:#404040;"/>
          </a>
         </g>
        </svg>
</svg>
