<?xml version="1.0" encoding="UTF-8" standalone="no"?>
<!DOCTYPE svg PUBLIC "-//W3C//DTD SVG 1.1//EN"
 "http://www.w3.org/Graphics/SVG/1.1/DTD/svg11.dtd">
<!-- Generated by graphviz version 2.38.0 (20140413.2041)
 -->
<!-- Title: Bind Pages: 1 -->
<svg width="352pt" height="66pt"
 viewBox="0.00 0.00 352.00 66.00" xmlns="http://www.w3.org/2000/svg" xmlns:xlink="http://www.w3.org/1999/xlink">
<g id="graph0" class="graph" transform="scale(1 1) rotate(0) translate(4 62)">
<title>Bind</title>
<polygon fill="white" stroke="none" points="-4,4 -4,-62 348,-62 348,4 -4,4"/>
<!-- Node1687 -->
<g id="node1" class="node"><title>Node1687</title>
<polygon fill="#bfbfbf" stroke="black" points="0,-19.5 0,-38.5 36,-38.5 36,-19.5 0,-19.5"/>
<text text-anchor="middle" x="18" y="-26.5" font-family="Helvetica,sans-Serif" font-size="10.00">Bind</text>
</g>
<!-- Node1688 -->
<g id="node2" class="node"><title>Node1688</title>
<g id="a_node2"><a xlink:href="../../d8/dc0/init_8h.html#a6f0784aa332573f949b0975205572b28" target="_top" xlink:title="Initialize Dash Core. ">
<polygon fill="white" stroke="black" points="72,-19.5 72,-38.5 125,-38.5 125,-19.5 72,-19.5"/>
<text text-anchor="middle" x="98.5" y="-26.5" font-family="Helvetica,sans-Serif" font-size="10.00">AppInit2</text>
</a>
</g>
</g>
<!-- Node1687&#45;&gt;Node1688 -->
<g id="edge1" class="edge"><title>Node1687&#45;&gt;Node1688</title>
<path fill="none" stroke="midnightblue" d="M46.0501,-29C54.4072,-29 63.5837,-29 71.8437,-29"/>
<polygon fill="midnightblue" stroke="midnightblue" points="46.0334,-25.5001 36.0333,-29 46.0333,-32.5001 46.0334,-25.5001"/>
</g>
<!-- Node1689 -->
<g id="node3" class="node"><title>Node1689</title>
<g id="a_node3"><a xlink:href="../../dd/de1/dashd_8cpp.html#ac59316b767e6984e1285f0531275286b" target="_top" xlink:title="AppInit">
<polygon fill="white" stroke="black" points="192,-38.5 192,-57.5 239,-57.5 239,-38.5 192,-38.5"/>
<text text-anchor="middle" x="215.5" y="-45.5" font-family="Helvetica,sans-Serif" font-size="10.00">AppInit</text>
</a>
</g>
</g>
<!-- Node1688&#45;&gt;Node1689 -->
<g id="edge2" class="edge"><title>Node1688&#45;&gt;Node1689</title>
<path fill="none" stroke="midnightblue" d="M135.14,-34.8884C153.614,-37.9406 175.626,-41.5773 191.775,-44.2455"/>
<polygon fill="midnightblue" stroke="midnightblue" points="135.459,-31.3937 125.022,-33.2167 134.318,-38.3001 135.459,-31.3937"/>
</g>
<!-- Node1691 -->
<g id="node5" class="node"><title>Node1691</title>
<g id="a_node5"><a xlink:href="../../d2/d76/class_bitcoin_core.html#af34ca069cda1d4362dcc109b4397fb62" target="_top" xlink:title="BitcoinCore::initialize">
<polygon fill="white" stroke="black" points="161,-0.5 161,-19.5 270,-19.5 270,-0.5 161,-0.5"/>
<text text-anchor="middle" x="215.5" y="-7.5" font-family="Helvetica,sans-Serif" font-size="10.00">BitcoinCore::initialize</text>
</a>
</g>
</g>
<!-- Node1688&#45;&gt;Node1691 -->
<g id="edge4" class="edge"><title>Node1688&#45;&gt;Node1691</title>
<path fill="none" stroke="midnightblue" d="M134.951,-23.1429C143.134,-21.7909 152.02,-20.3228 160.788,-18.8742"/>
<polygon fill="midnightblue" stroke="midnightblue" points="134.318,-19.6999 125.022,-24.7833 135.459,-26.6063 134.318,-19.6999"/>
</g>
<!-- Node1690 -->
<g id="node4" class="node"><title>Node1690</title>
<g id="a_node4"><a xlink:href="../../dd/de1/dashd_8cpp.html#a0ddf1224851353fc92bfbff6f499fa97" target="_top" xlink:title="main">
<polygon fill="white" stroke="black" points="306,-38.5 306,-57.5 344,-57.5 344,-38.5 306,-38.5"/>
<text text-anchor="middle" x="325" y="-45.5" font-family="Helvetica,sans-Serif" font-size="10.00">main</text>
</a>
</g>
</g>
<!-- Node1689&#45;&gt;Node1690 -->
<g id="edge3" class="edge"><title>Node1689&#45;&gt;Node1690</title>
<path fill="none" stroke="midnightblue" d="M249.151,-48C267.729,-48 290.304,-48 305.773,-48"/>
<polygon fill="midnightblue" stroke="midnightblue" points="249.036,-44.5001 239.036,-48 249.035,-51.5001 249.036,-44.5001"/>
</g>
</g>
</svg>
