<?xml version="1.0" encoding="UTF-8" standalone="no"?>
<!DOCTYPE svg PUBLIC "-//W3C//DTD SVG 1.1//EN"
 "http://www.w3.org/Graphics/SVG/1.1/DTD/svg11.dtd">
<!-- Generated by graphviz version 2.38.0 (20140413.2041)
 -->
<!-- Title: src/init.h Pages: 1 -->
<!--zoomable 84 -->
<svg id="main" version="1.1" xmlns="http://www.w3.org/2000/svg" xmlns:xlink="http://www.w3.org/1999/xlink" xml:space="preserve" onload="init(evt)">
<style type="text/css"><![CDATA[
.edge:hover path { stroke: red; }
.edge:hover polygon { stroke: red; fill: red; }
]]></style>
<script type="text/javascript"><![CDATA[
var edges = document.getElementsByTagName('g');
if (edges && edges.length) {
  for (var i=0;i<edges.length;i++) {
    if (edges[i].id.substr(0,4)=='edge') {
      edges[i].setAttribute('class','edge');
    }
  }
}
]]></script>
        <defs>
                <circle id="rim" cx="0" cy="0" r="7"/>
                <circle id="rim2" cx="0" cy="0" r="3.5"/>
                <g id="zoomPlus">
                        <use xlink:href="#rim" fill="#404040">
                                <set attributeName="fill" to="#808080" begin="zoomplus.mouseover" end="zoomplus.mouseout"/>
                        </use>
                        <path d="M-4,0h8M0,-4v8" fill="none" stroke="white" stroke-width="1.5" pointer-events="none"/>
                </g>
                <g id="zoomMin">
                        <use xlink:href="#rim" fill="#404040">
                                <set attributeName="fill" to="#808080" begin="zoomminus.mouseover" end="zoomminus.mouseout"/>
                        </use>
                        <path d="M-4,0h8" fill="none" stroke="white" stroke-width="1.5" pointer-events="none"/>
                </g>
                <g id="dirArrow">
                        <path fill="none" stroke="white" stroke-width="1.5" d="M0,-3.0v7 M-2.5,-0.5L0,-3.0L2.5,-0.5"/>
                </g>
               <g id="resetDef">
                       <use xlink:href="#rim2" fill="#404040">
                               <set attributeName="fill" to="#808080" begin="reset.mouseover" end="reset.mouseout"/>
                       </use>
               </g>
        </defs>

<script type="text/javascript">
var viewWidth = 3849;
var viewHeight = 84;
var sectionId = 'dynsection-1';
</script>
<script xlink:href="../../svgpan.js"/>
<svg id="graph" class="graph">
<g id="viewport">
<title>src/init.h</title>
<polygon fill="white" stroke="none" points="-4,4 -4,-80 3844.5,-80 3844.5,4 -4,4"/>
<!-- Node2 -->
<g id="node1" class="node"><title>Node2</title>
<polygon fill="#bfbfbf" stroke="black" points="1878,-56.5 1878,-75.5 1932,-75.5 1932,-56.5 1878,-56.5"/>
<text text-anchor="middle" x="1905" y="-63.5" font-family="Helvetica,sans-Serif" font-size="10.00">src/init.h</text>
</g>
<!-- Node3 -->
<g id="node2" class="node"><title>Node3</title>
<g id="a_node2"><a xlink:href="../../dd/de1/dashd_8cpp.html" target="_top" xlink:title="src/dashd.cpp">
<polygon fill="white" stroke="black" points="0,-0.5 0,-19.5 78,-19.5 78,-0.5 0,-0.5"/>
<text text-anchor="middle" x="39" y="-7.5" font-family="Helvetica,sans-Serif" font-size="10.00">src/dashd.cpp</text>
</a>
</g>
</g>
<!-- Node2&#45;&gt;Node3 -->
<g id="edge1" class="edge"><title>Node2&#45;&gt;Node3</title>
<path fill="none" stroke="midnightblue" d="M1867.72,-64.8936C1641.47,-64.1247 450.164,-58.2904 87,-20 84.1332,-19.6977 81.1812,-19.317 78.2172,-18.884"/>
<polygon fill="midnightblue" stroke="midnightblue" points="1867.74,-68.3936 1877.75,-64.9265 1867.77,-61.3936 1867.74,-68.3936"/>
</g>
<!-- Node4 -->
<g id="node3" class="node"><title>Node4</title>
<g id="a_node3"><a xlink:href="../../db/d41/governance-classes_8cpp.html" target="_top" xlink:title="src/governance&#45;classes.cpp">
<polygon fill="white" stroke="black" points="96.5,-0.5 96.5,-19.5 235.5,-19.5 235.5,-0.5 96.5,-0.5"/>
<text text-anchor="middle" x="166" y="-7.5" font-family="Helvetica,sans-Serif" font-size="10.00">src/governance&#45;classes.cpp</text>
</a>
</g>
</g>
<!-- Node2&#45;&gt;Node4 -->
<g id="edge2" class="edge"><title>Node2&#45;&gt;Node4</title>
<path fill="none" stroke="midnightblue" d="M1867.59,-65.1795C1687.67,-65.7925 893.565,-65.6488 245,-20 241.971,-19.7868 238.878,-19.5437 235.757,-19.2776"/>
<polygon fill="midnightblue" stroke="midnightblue" points="1867.85,-68.6787 1877.84,-65.1414 1867.82,-61.6787 1867.85,-68.6787"/>
</g>
<!-- Node5 -->
<g id="node4" class="node"><title>Node5</title>
<g id="a_node4"><a xlink:href="../../d6/db3/governance-misc_8h.html" target="_top" xlink:title="src/governance&#45;misc.h">
<polygon fill="white" stroke="black" points="254,-0.5 254,-19.5 370,-19.5 370,-0.5 254,-0.5"/>
<text text-anchor="middle" x="312" y="-7.5" font-family="Helvetica,sans-Serif" font-size="10.00">src/governance&#45;misc.h</text>
</a>
</g>
</g>
<!-- Node2&#45;&gt;Node5 -->
<g id="edge3" class="edge"><title>Node2&#45;&gt;Node5</title>
<path fill="none" stroke="midnightblue" d="M1867.61,-65.3291C1696.52,-66.534 971.238,-68.3774 379,-20 376.076,-19.7611 373.083,-19.4831 370.065,-19.1758"/>
<polygon fill="midnightblue" stroke="midnightblue" points="1867.87,-68.8273 1877.84,-65.2529 1867.82,-61.8275 1867.87,-68.8273"/>
</g>
<!-- Node6 -->
<g id="node5" class="node"><title>Node6</title>
<g id="a_node5"><a xlink:href="../../d0/dc9/init_8cpp.html" target="_top" xlink:title="src/init.cpp">
<polygon fill="white" stroke="black" points="388.5,-0.5 388.5,-19.5 453.5,-19.5 453.5,-0.5 388.5,-0.5"/>
<text text-anchor="middle" x="421" y="-7.5" font-family="Helvetica,sans-Serif" font-size="10.00">src/init.cpp</text>
</a>
</g>
</g>
<!-- Node2&#45;&gt;Node6 -->
<g id="edge4" class="edge"><title>Node2&#45;&gt;Node6</title>
<path fill="none" stroke="midnightblue" d="M1867.63,-64.7705C1670.07,-63.4149 745.772,-55.2625 462,-20 459.252,-19.6585 456.416,-19.2201 453.58,-18.7211"/>
<polygon fill="midnightblue" stroke="midnightblue" points="1867.76,-68.2714 1877.78,-64.8385 1867.81,-61.2715 1867.76,-68.2714"/>
</g>
<!-- Node7 -->
<g id="node6" class="node"><title>Node7</title>
<g id="a_node6"><a xlink:href="../../dc/da3/masternode_8cpp.html" target="_top" xlink:title="src/masternode.cpp">
<polygon fill="white" stroke="black" points="471.5,-0.5 471.5,-19.5 574.5,-19.5 574.5,-0.5 471.5,-0.5"/>
<text text-anchor="middle" x="523" y="-7.5" font-family="Helvetica,sans-Serif" font-size="10.00">src/masternode.cpp</text>
</a>
</g>
</g>
<!-- Node2&#45;&gt;Node7 -->
<g id="edge5" class="edge"><title>Node2&#45;&gt;Node7</title>
<path fill="none" stroke="midnightblue" d="M1867.93,-65.2607C1711.63,-66.0388 1091.13,-65.9025 584,-20 580.908,-19.7201 577.734,-19.3882 574.536,-19.0196"/>
<polygon fill="midnightblue" stroke="midnightblue" points="1867.98,-68.7606 1877.96,-65.2062 1867.94,-61.7607 1867.98,-68.7606"/>
</g>
<!-- Node8 -->
<g id="node7" class="node"><title>Node8</title>
<g id="a_node7"><a xlink:href="../../d2/d83/net__processing_8cpp.html" target="_top" xlink:title="src/net_processing.cpp">
<polygon fill="white" stroke="black" points="593,-0.5 593,-19.5 711,-19.5 711,-0.5 593,-0.5"/>
<text text-anchor="middle" x="652" y="-7.5" font-family="Helvetica,sans-Serif" font-size="10.00">src/net_processing.cpp</text>
</a>
</g>
</g>
<!-- Node2&#45;&gt;Node8 -->
<g id="edge6" class="edge"><title>Node2&#45;&gt;Node8</title>
<path fill="none" stroke="midnightblue" d="M1867.57,-64.8529C1720.83,-64.0067 1170.79,-58.3065 720,-20 717.152,-19.758 714.241,-19.4823 711.303,-19.1813"/>
<polygon fill="midnightblue" stroke="midnightblue" points="1867.8,-68.3541 1877.82,-64.9077 1867.83,-61.3542 1867.8,-68.3541"/>
</g>
<!-- Node9 -->
<g id="node8" class="node"><title>Node9</title>
<g id="a_node8"><a xlink:href="../../d1/dc6/privatesend-client_8cpp.html" target="_top" xlink:title="src/privatesend&#45;client.cpp">
<polygon fill="white" stroke="black" points="729,-0.5 729,-19.5 857,-19.5 857,-0.5 729,-0.5"/>
<text text-anchor="middle" x="793" y="-7.5" font-family="Helvetica,sans-Serif" font-size="10.00">src/privatesend&#45;client.cpp</text>
</a>
</g>
</g>
<!-- Node2&#45;&gt;Node9 -->
<g id="edge7" class="edge"><title>Node2&#45;&gt;Node9</title>
<path fill="none" stroke="midnightblue" d="M1867.42,-64.4496C1732.03,-62.2382 1256.66,-52.4904 866,-20 863.073,-19.7566 860.083,-19.4842 857.064,-19.1902"/>
<polygon fill="midnightblue" stroke="midnightblue" points="1867.6,-67.953 1877.66,-64.613 1867.72,-60.9539 1867.6,-67.953"/>
</g>
<!-- Node10 -->
<g id="node9" class="node"><title>Node10</title>
<g id="a_node9"><a xlink:href="../../d0/d0f/privatesend-server_8cpp.html" target="_top" xlink:title="src/privatesend&#45;server.cpp">
<polygon fill="white" stroke="black" points="875,-0.5 875,-19.5 1007,-19.5 1007,-0.5 875,-0.5"/>
<text text-anchor="middle" x="941" y="-7.5" font-family="Helvetica,sans-Serif" font-size="10.00">src/privatesend&#45;server.cpp</text>
</a>
</g>
</g>
<!-- Node2&#45;&gt;Node10 -->
<g id="edge8" class="edge"><title>Node2&#45;&gt;Node10</title>
<path fill="none" stroke="midnightblue" d="M1867.33,-64.0213C1744.59,-60.6347 1345.21,-48.0507 1016,-20 1013.13,-19.7551 1010.19,-19.4857 1007.23,-19.1981"/>
<polygon fill="midnightblue" stroke="midnightblue" points="1867.58,-67.5295 1877.67,-64.303 1867.77,-60.5321 1867.58,-67.5295"/>
</g>
<!-- Node11 -->
<g id="node10" class="node"><title>Node11</title>
<g id="a_node10"><a xlink:href="../../d4/da2/privatesend_8cpp.html" target="_top" xlink:title="src/privatesend.cpp">
<polygon fill="white" stroke="black" points="1025,-0.5 1025,-19.5 1127,-19.5 1127,-0.5 1025,-0.5"/>
<text text-anchor="middle" x="1076" y="-7.5" font-family="Helvetica,sans-Serif" font-size="10.00">src/privatesend.cpp</text>
</a>
</g>
</g>
<!-- Node2&#45;&gt;Node11 -->
<g id="edge9" class="edge"><title>Node2&#45;&gt;Node11</title>
<path fill="none" stroke="midnightblue" d="M1867.62,-64.0109C1756.12,-60.8035 1416.27,-49.1604 1136,-20 1133.07,-19.6948 1130.06,-19.3487 1127.02,-18.9743"/>
<polygon fill="midnightblue" stroke="midnightblue" points="1867.59,-67.5114 1877.68,-64.2952 1867.79,-60.5142 1867.59,-67.5114"/>
</g>
<!-- Node12 -->
<g id="node11" class="node"><title>Node12</title>
<g id="a_node11"><a xlink:href="../../d6/d26/bitcoingui_8cpp.html" target="_top" xlink:title="src/qt/bitcoingui.cpp">
<polygon fill="white" stroke="black" points="1145,-0.5 1145,-19.5 1249,-19.5 1249,-0.5 1145,-0.5"/>
<text text-anchor="middle" x="1197" y="-7.5" font-family="Helvetica,sans-Serif" font-size="10.00">src/qt/bitcoingui.cpp</text>
</a>
</g>
</g>
<!-- Node2&#45;&gt;Node12 -->
<g id="edge10" class="edge"><title>Node2&#45;&gt;Node12</title>
<path fill="none" stroke="midnightblue" d="M1867.68,-63.4119C1768.31,-58.9658 1489.13,-45.0511 1258,-20 1255.13,-19.6886 1252.18,-19.3427 1249.21,-18.9731"/>
<polygon fill="midnightblue" stroke="midnightblue" points="1867.67,-66.9148 1877.81,-63.8603 1867.98,-59.9216 1867.67,-66.9148"/>
</g>
<!-- Node13 -->
<g id="node12" class="node"><title>Node13</title>
<g id="a_node12"><a xlink:href="../../de/df9/coincontroldialog_8cpp.html" target="_top" xlink:title="src/qt/coincontroldialog.cpp">
<polygon fill="white" stroke="black" points="1267,-0.5 1267,-19.5 1403,-19.5 1403,-0.5 1267,-0.5"/>
<text text-anchor="middle" x="1335" y="-7.5" font-family="Helvetica,sans-Serif" font-size="10.00">src/qt/coincontroldialog.cpp</text>
</a>
</g>
</g>
<!-- Node2&#45;&gt;Node13 -->
<g id="edge11" class="edge"><title>Node2&#45;&gt;Node13</title>
<path fill="none" stroke="midnightblue" d="M1867.89,-61.9363C1785.71,-55.0796 1582.14,-37.705 1412,-20 1409.05,-19.6935 1406.05,-19.3733 1403.01,-19.0438"/>
<polygon fill="midnightblue" stroke="midnightblue" points="1867.73,-65.4349 1877.99,-62.7765 1868.31,-58.459 1867.73,-65.4349"/>
</g>
<!-- Node14 -->
<g id="node13" class="node"><title>Node14</title>
<g id="a_node13"><a xlink:href="../../de/d02/dash_8cpp.html" target="_top" xlink:title="src/qt/dash.cpp">
<polygon fill="white" stroke="black" points="1421,-0.5 1421,-19.5 1505,-19.5 1505,-0.5 1421,-0.5"/>
<text text-anchor="middle" x="1463" y="-7.5" font-family="Helvetica,sans-Serif" font-size="10.00">src/qt/dash.cpp</text>
</a>
</g>
</g>
<!-- Node2&#45;&gt;Node14 -->
<g id="edge12" class="edge"><title>Node2&#45;&gt;Node14</title>
<path fill="none" stroke="midnightblue" d="M1867.78,-61.5258C1798.01,-54.8368 1642.89,-39.1259 1513,-20 1510.47,-19.6274 1507.87,-19.2237 1505.25,-18.8008"/>
<polygon fill="midnightblue" stroke="midnightblue" points="1867.55,-65.0194 1877.83,-62.4839 1868.21,-58.051 1867.55,-65.0194"/>
</g>
<!-- Node15 -->
<g id="node14" class="node"><title>Node15</title>
<g id="a_node14"><a xlink:href="../../db/d35/guiutil_8cpp.html" target="_top" xlink:title="src/qt/guiutil.cpp">
<polygon fill="white" stroke="black" points="1522.5,-0.5 1522.5,-19.5 1611.5,-19.5 1611.5,-0.5 1522.5,-0.5"/>
<text text-anchor="middle" x="1567" y="-7.5" font-family="Helvetica,sans-Serif" font-size="10.00">src/qt/guiutil.cpp</text>
</a>
</g>
</g>
<!-- Node2&#45;&gt;Node15 -->
<g id="edge13" class="edge"><title>Node2&#45;&gt;Node15</title>
<path fill="none" stroke="midnightblue" d="M1867.66,-59.2456C1813.19,-50.8186 1708.75,-34.5411 1620,-20 1617.24,-19.5473 1614.39,-19.0771 1611.53,-18.5997"/>
<polygon fill="midnightblue" stroke="midnightblue" points="1867.45,-62.7549 1877.87,-60.8234 1868.52,-55.837 1867.45,-62.7549"/>
</g>
<!-- Node16 -->
<g id="node15" class="node"><title>Node16</title>
<g id="a_node15"><a xlink:href="../../d7/d12/masternodelist_8cpp.html" target="_top" xlink:title="src/qt/masternodelist.cpp">
<polygon fill="white" stroke="black" points="1629.5,-0.5 1629.5,-19.5 1756.5,-19.5 1756.5,-0.5 1629.5,-0.5"/>
<text text-anchor="middle" x="1693" y="-7.5" font-family="Helvetica,sans-Serif" font-size="10.00">src/qt/masternodelist.cpp</text>
</a>
</g>
</g>
<!-- Node2&#45;&gt;Node16 -->
<g id="edge14" class="edge"><title>Node2&#45;&gt;Node16</title>
<path fill="none" stroke="midnightblue" d="M1867.84,-55.5341C1827.88,-45.3559 1764.92,-29.3199 1726.46,-19.5225"/>
<polygon fill="midnightblue" stroke="midnightblue" points="1867.16,-58.9743 1877.72,-58.051 1868.89,-52.1909 1867.16,-58.9743"/>
</g>
<!-- Node17 -->
<g id="node16" class="node"><title>Node17</title>
<g id="a_node16"><a xlink:href="../../d5/df8/optionsmodel_8cpp.html" target="_top" xlink:title="src/qt/optionsmodel.cpp">
<polygon fill="white" stroke="black" points="1774.5,-0.5 1774.5,-19.5 1895.5,-19.5 1895.5,-0.5 1774.5,-0.5"/>
<text text-anchor="middle" x="1835" y="-7.5" font-family="Helvetica,sans-Serif" font-size="10.00">src/qt/optionsmodel.cpp</text>
</a>
</g>
</g>
<!-- Node2&#45;&gt;Node17 -->
<g id="edge15" class="edge"><title>Node2&#45;&gt;Node17</title>
<path fill="none" stroke="midnightblue" d="M1885.69,-50.1008C1873.09,-40.3824 1857.07,-28.0269 1846.45,-19.8339"/>
<polygon fill="midnightblue" stroke="midnightblue" points="1883.7,-52.9871 1893.75,-56.324 1887.97,-47.4446 1883.7,-52.9871"/>
</g>
<!-- Node18 -->
<g id="node17" class="node"><title>Node18</title>
<g id="a_node17"><a xlink:href="../../d1/d95/overviewpage_8cpp.html" target="_top" xlink:title="src/qt/overviewpage.cpp">
<polygon fill="white" stroke="black" points="1913.5,-0.5 1913.5,-19.5 2036.5,-19.5 2036.5,-0.5 1913.5,-0.5"/>
<text text-anchor="middle" x="1975" y="-7.5" font-family="Helvetica,sans-Serif" font-size="10.00">src/qt/overviewpage.cpp</text>
</a>
</g>
</g>
<!-- Node2&#45;&gt;Node18 -->
<g id="edge16" class="edge"><title>Node2&#45;&gt;Node18</title>
<path fill="none" stroke="midnightblue" d="M1924.31,-50.1008C1936.91,-40.3824 1952.93,-28.0269 1963.55,-19.8339"/>
<polygon fill="midnightblue" stroke="midnightblue" points="1922.03,-47.4446 1916.25,-56.324 1926.3,-52.9871 1922.03,-47.4446"/>
</g>
<!-- Node19 -->
<g id="node18" class="node"><title>Node19</title>
<g id="a_node18"><a xlink:href="../../d7/d38/signverifymessagedialog_8cpp.html" target="_top" xlink:title="src/qt/signverifymessagedialog.cpp">
<polygon fill="white" stroke="black" points="2055,-0.5 2055,-19.5 2225,-19.5 2225,-0.5 2055,-0.5"/>
<text text-anchor="middle" x="2140" y="-7.5" font-family="Helvetica,sans-Serif" font-size="10.00">src/qt/signverifymessagedialog.cpp</text>
</a>
</g>
</g>
<!-- Node2&#45;&gt;Node19 -->
<g id="edge17" class="edge"><title>Node2&#45;&gt;Node19</title>
<path fill="none" stroke="midnightblue" d="M1942.41,-56.4042C1986.36,-46.3056 2058.83,-29.6527 2102.72,-19.5667"/>
<polygon fill="midnightblue" stroke="midnightblue" points="1941.38,-53.0491 1932.42,-58.6998 1942.95,-59.8713 1941.38,-53.0491"/>
</g>
<!-- Node20 -->
<g id="node19" class="node"><title>Node20</title>
<g id="a_node19"><a xlink:href="../../d1/d9f/splashscreen_8cpp.html" target="_top" xlink:title="src/qt/splashscreen.cpp">
<polygon fill="white" stroke="black" points="2243.5,-0.5 2243.5,-19.5 2364.5,-19.5 2364.5,-0.5 2243.5,-0.5"/>
<text text-anchor="middle" x="2304" y="-7.5" font-family="Helvetica,sans-Serif" font-size="10.00">src/qt/splashscreen.cpp</text>
</a>
</g>
</g>
<!-- Node2&#45;&gt;Node20 -->
<g id="edge18" class="edge"><title>Node2&#45;&gt;Node20</title>
<path fill="none" stroke="midnightblue" d="M1942.08,-59.9816C2011.02,-50.6511 2159.52,-30.5537 2243.29,-19.2159"/>
<polygon fill="midnightblue" stroke="midnightblue" points="1941.55,-56.5212 1932.11,-61.3308 1942.49,-63.458 1941.55,-56.5212"/>
</g>
<!-- Node21 -->
<g id="node20" class="node"><title>Node21</title>
<g id="a_node20"><a xlink:href="../../de/d63/utilitydialog_8cpp.html" target="_top" xlink:title="src/qt/utilitydialog.cpp">
<polygon fill="white" stroke="black" points="2383,-0.5 2383,-19.5 2495,-19.5 2495,-0.5 2383,-0.5"/>
<text text-anchor="middle" x="2439" y="-7.5" font-family="Helvetica,sans-Serif" font-size="10.00">src/qt/utilitydialog.cpp</text>
</a>
</g>
</g>
<!-- Node2&#45;&gt;Node21 -->
<g id="edge19" class="edge"><title>Node2&#45;&gt;Node21</title>
<path fill="none" stroke="midnightblue" d="M1941.99,-61.9818C2021.28,-55.3958 2213.44,-38.8096 2374,-20 2376.94,-19.6553 2379.96,-19.2879 2383,-18.9058"/>
<polygon fill="midnightblue" stroke="midnightblue" points="1941.68,-58.4951 1932.01,-62.8078 1942.26,-65.4713 1941.68,-58.4951"/>
</g>
<!-- Node22 -->
<g id="node21" class="node"><title>Node22</title>
<g id="a_node21"><a xlink:href="../../dd/daa/rpc_2governance_8cpp.html" target="_top" xlink:title="src/rpc/governance.cpp">
<polygon fill="white" stroke="black" points="2513.5,-0.5 2513.5,-19.5 2632.5,-19.5 2632.5,-0.5 2513.5,-0.5"/>
<text text-anchor="middle" x="2573" y="-7.5" font-family="Helvetica,sans-Serif" font-size="10.00">src/rpc/governance.cpp</text>
</a>
</g>
</g>
<!-- Node2&#45;&gt;Node22 -->
<g id="edge20" class="edge"><title>Node2&#45;&gt;Node22</title>
<path fill="none" stroke="midnightblue" d="M1942.39,-62.9045C2036.72,-57.4626 2291.98,-41.7747 2504,-20 2507,-19.6914 2510.08,-19.3573 2513.18,-19.0056"/>
<polygon fill="midnightblue" stroke="midnightblue" points="1941.99,-59.4213 1932.21,-63.4878 1942.4,-66.4098 1941.99,-59.4213"/>
</g>
<!-- Node23 -->
<g id="node22" class="node"><title>Node23</title>
<g id="a_node22"><a xlink:href="../../d0/d80/rpc_2masternode_8cpp.html" target="_top" xlink:title="src/rpc/masternode.cpp">
<polygon fill="white" stroke="black" points="2650.5,-0.5 2650.5,-19.5 2769.5,-19.5 2769.5,-0.5 2650.5,-0.5"/>
<text text-anchor="middle" x="2710" y="-7.5" font-family="Helvetica,sans-Serif" font-size="10.00">src/rpc/masternode.cpp</text>
</a>
</g>
</g>
<!-- Node2&#45;&gt;Node23 -->
<g id="edge21" class="edge"><title>Node2&#45;&gt;Node23</title>
<path fill="none" stroke="midnightblue" d="M1942.24,-63.6564C2050.49,-59.5509 2374.35,-45.8509 2642,-20 2644.73,-19.7367 2647.51,-19.448 2650.32,-19.1407"/>
<polygon fill="midnightblue" stroke="midnightblue" points="1942.02,-60.1622 1932.16,-64.0347 1942.28,-67.1573 1942.02,-60.1622"/>
</g>
<!-- Node24 -->
<g id="node23" class="node"><title>Node24</title>
<g id="a_node23"><a xlink:href="../../d0/de9/mining_8cpp.html" target="_top" xlink:title="src/rpc/mining.cpp">
<polygon fill="white" stroke="black" points="2787.5,-0.5 2787.5,-19.5 2884.5,-19.5 2884.5,-0.5 2787.5,-0.5"/>
<text text-anchor="middle" x="2836" y="-7.5" font-family="Helvetica,sans-Serif" font-size="10.00">src/rpc/mining.cpp</text>
</a>
</g>
</g>
<!-- Node2&#45;&gt;Node24 -->
<g id="edge22" class="edge"><title>Node2&#45;&gt;Node24</title>
<path fill="none" stroke="midnightblue" d="M1942.5,-64.4776C2063.78,-62.487 2456.29,-53.691 2779,-20 2781.69,-19.7191 2784.45,-19.3974 2787.23,-19.0465"/>
<polygon fill="midnightblue" stroke="midnightblue" points="1942.21,-60.9816 1932.27,-64.6397 1942.32,-67.9807 1942.21,-60.9816"/>
</g>
<!-- Node25 -->
<g id="node24" class="node"><title>Node25</title>
<g id="a_node24"><a xlink:href="../../d7/d5f/misc_8cpp.html" target="_top" xlink:title="src/rpc/misc.cpp">
<polygon fill="white" stroke="black" points="2902.5,-0.5 2902.5,-19.5 2991.5,-19.5 2991.5,-0.5 2902.5,-0.5"/>
<text text-anchor="middle" x="2947" y="-7.5" font-family="Helvetica,sans-Serif" font-size="10.00">src/rpc/misc.cpp</text>
</a>
</g>
</g>
<!-- Node2&#45;&gt;Node25 -->
<g id="edge23" class="edge"><title>Node2&#45;&gt;Node25</title>
<path fill="none" stroke="midnightblue" d="M1942.54,-64.9483C2073.84,-64.4154 2524.56,-59.6208 2894,-20 2896.69,-19.7114 2899.45,-19.3727 2902.23,-18.9989"/>
<polygon fill="midnightblue" stroke="midnightblue" points="1942.22,-61.4493 1932.23,-64.9838 1942.24,-68.4492 1942.22,-61.4493"/>
</g>
<!-- Node26 -->
<g id="node25" class="node"><title>Node26</title>
<g id="a_node25"><a xlink:href="../../d4/d0c/rawtransaction_8cpp.html" target="_top" xlink:title="src/rpc/rawtransaction.cpp">
<polygon fill="white" stroke="black" points="3010,-0.5 3010,-19.5 3142,-19.5 3142,-0.5 3010,-0.5"/>
<text text-anchor="middle" x="3076" y="-7.5" font-family="Helvetica,sans-Serif" font-size="10.00">src/rpc/rawtransaction.cpp</text>
</a>
</g>
</g>
<!-- Node2&#45;&gt;Node26 -->
<g id="edge24" class="edge"><title>Node2&#45;&gt;Node26</title>
<path fill="none" stroke="midnightblue" d="M1942.32,-64.5278C2081.93,-62.5365 2586.59,-53.3207 3001,-20 3003.88,-19.7688 3006.81,-19.5108 3009.77,-19.2324"/>
<polygon fill="midnightblue" stroke="midnightblue" points="1942.11,-61.0303 1932.16,-64.669 1942.21,-68.0296 1942.11,-61.0303"/>
</g>
<!-- Node27 -->
<g id="node26" class="node"><title>Node27</title>
<g id="a_node26"><a xlink:href="../../df/dd7/server_8cpp.html" target="_top" xlink:title="src/rpc/server.cpp">
<polygon fill="white" stroke="black" points="3160.5,-0.5 3160.5,-19.5 3255.5,-19.5 3255.5,-0.5 3160.5,-0.5"/>
<text text-anchor="middle" x="3208" y="-7.5" font-family="Helvetica,sans-Serif" font-size="10.00">src/rpc/server.cpp</text>
</a>
</g>
</g>
<!-- Node2&#45;&gt;Node27 -->
<g id="edge25" class="edge"><title>Node2&#45;&gt;Node27</title>
<path fill="none" stroke="midnightblue" d="M1942.41,-65.2906C2093.78,-66.1199 2675.48,-65.959 3151,-20 3154.09,-19.7012 3157.27,-19.3428 3160.47,-18.9437"/>
<polygon fill="midnightblue" stroke="midnightblue" points="1942.28,-61.7899 1932.26,-65.2298 1942.24,-68.7897 1942.28,-61.7899"/>
</g>
<!-- Node28 -->
<g id="node27" class="node"><title>Node28</title>
<g id="a_node27"><a xlink:href="../../d1/d65/sendalert_8cpp.html" target="_top" xlink:title="src/sendalert.cpp">
<polygon fill="white" stroke="black" points="3274,-0.5 3274,-19.5 3366,-19.5 3366,-0.5 3274,-0.5"/>
<text text-anchor="middle" x="3320" y="-7.5" font-family="Helvetica,sans-Serif" font-size="10.00">src/sendalert.cpp</text>
</a>
</g>
</g>
<!-- Node2&#45;&gt;Node28 -->
<g id="edge26" class="edge"><title>Node2&#45;&gt;Node28</title>
<path fill="none" stroke="midnightblue" d="M1942.3,-64.418C2132.72,-61.3478 2997.76,-46.1759 3265,-20 3267.89,-19.717 3270.86,-19.3768 3273.84,-18.9966"/>
<polygon fill="midnightblue" stroke="midnightblue" points="1942.18,-60.9195 1932.24,-64.5792 1942.29,-67.9186 1942.18,-60.9195"/>
</g>
<!-- Node29 -->
<g id="node28" class="node"><title>Node29</title>
<g id="a_node28"><a xlink:href="../../d7/d43/txdb_8cpp.html" target="_top" xlink:title="src/txdb.cpp">
<polygon fill="white" stroke="black" points="3384.5,-0.5 3384.5,-19.5 3455.5,-19.5 3455.5,-0.5 3384.5,-0.5"/>
<text text-anchor="middle" x="3420" y="-7.5" font-family="Helvetica,sans-Serif" font-size="10.00">src/txdb.cpp</text>
</a>
</g>
</g>
<!-- Node2&#45;&gt;Node29 -->
<g id="edge27" class="edge"><title>Node2&#45;&gt;Node29</title>
<path fill="none" stroke="midnightblue" d="M1942.42,-64.7007C2142.23,-62.9738 3085.28,-53.1717 3375,-20 3378.01,-19.6556 3381.11,-19.2152 3384.22,-18.7147"/>
<polygon fill="midnightblue" stroke="midnightblue" points="1942.12,-61.203 1932.15,-64.7879 1942.18,-68.2028 1942.12,-61.203"/>
</g>
<!-- Node30 -->
<g id="node29" class="node"><title>Node30</title>
<g id="a_node29"><a xlink:href="../../dd/d7d/validation_8cpp.html" target="_top" xlink:title="src/validation.cpp">
<polygon fill="white" stroke="black" points="3473.5,-0.5 3473.5,-19.5 3566.5,-19.5 3566.5,-0.5 3473.5,-0.5"/>
<text text-anchor="middle" x="3520" y="-7.5" font-family="Helvetica,sans-Serif" font-size="10.00">src/validation.cpp</text>
</a>
</g>
</g>
<!-- Node2&#45;&gt;Node30 -->
<g id="edge28" class="edge"><title>Node2&#45;&gt;Node30</title>
<path fill="none" stroke="midnightblue" d="M1942.04,-64.603C2148.17,-62.2923 3155.66,-49.6379 3465,-20 3467.7,-19.7416 3470.46,-19.4321 3473.25,-19.0857"/>
<polygon fill="midnightblue" stroke="midnightblue" points="1941.99,-61.1034 1932.03,-64.7142 1942.06,-68.1029 1941.99,-61.1034"/>
</g>
<!-- Node31 -->
<g id="node30" class="node"><title>Node31</title>
<g id="a_node30"><a xlink:href="../../dc/dbf/rpcdump_8cpp.html" target="_top" xlink:title="src/wallet/rpcdump.cpp">
<polygon fill="white" stroke="black" points="3585,-0.5 3585,-19.5 3703,-19.5 3703,-0.5 3585,-0.5"/>
<text text-anchor="middle" x="3644" y="-7.5" font-family="Helvetica,sans-Serif" font-size="10.00">src/wallet/rpcdump.cpp</text>
</a>
</g>
</g>
<!-- Node2&#45;&gt;Node31 -->
<g id="edge29" class="edge"><title>Node2&#45;&gt;Node31</title>
<path fill="none" stroke="midnightblue" d="M1942.24,-64.5282C2157.36,-61.7224 3242.96,-46.4506 3576,-20 3578.85,-19.7737 3581.76,-19.5108 3584.7,-19.22"/>
<polygon fill="midnightblue" stroke="midnightblue" points="1942.05,-61.0302 1932.1,-64.6596 1942.14,-68.0296 1942.05,-61.0302"/>
</g>
<!-- Node32 -->
<g id="node31" class="node"><title>Node32</title>
<g id="a_node31"><a xlink:href="../../df/d1d/rpcwallet_8cpp.html" target="_top" xlink:title="src/wallet/rpcwallet.cpp">
<polygon fill="white" stroke="black" points="3721.5,-0.5 3721.5,-19.5 3840.5,-19.5 3840.5,-0.5 3721.5,-0.5"/>
<text text-anchor="middle" x="3781" y="-7.5" font-family="Helvetica,sans-Serif" font-size="10.00">src/wallet/rpcwallet.cpp</text>
</a>
</g>
</g>
<!-- Node2&#45;&gt;Node32 -->
<g id="edge30" class="edge"><title>Node2&#45;&gt;Node32</title>
<path fill="none" stroke="midnightblue" d="M1942.37,-64.604C2167.93,-62.1329 3350.3,-48.0157 3712,-20 3715.01,-19.7668 3718.09,-19.4933 3721.2,-19.1896"/>
<polygon fill="midnightblue" stroke="midnightblue" points="1942.02,-61.1075 1932.06,-64.7161 1942.1,-68.107 1942.02,-61.1075"/>
</g>
</g>
</svg>
        <g id="navigator" transform="translate(0 0)" fill="#404254">
                <rect fill="#f2f5e9" fill-opacity="0.5" stroke="#606060" stroke-width=".5" x="0" y="0" width="60" height="60"/>
                <use id="zoomplus" xlink:href="#zoomPlus" x="17" y="9" onmousedown="handleZoom(evt,'in')"/>
                <use id="zoomminus" xlink:href="#zoomMin" x="42" y="9" onmousedown="handleZoom(evt,'out')"/>
                <use id="reset" xlink:href="#resetDef" x="30" y="36" onmousedown="handleReset()"/>
                <g id="arrowUp" xlink:href="#dirArrow" transform="translate(30 24)" onmousedown="handlePan(0,-1)">
                  <use xlink:href="#rim" fill="#404040">
                        <set attributeName="fill" to="#808080" begin="arrowUp.mouseover" end="arrowUp.mouseout"/>
                  </use>
                  <path fill="none" stroke="white" stroke-width="1.5" d="M0,-3.0v7 M-2.5,-0.5L0,-3.0L2.5,-0.5"/>
                </g>
                <g id="arrowRight" xlink:href="#dirArrow" transform="rotate(90) translate(36 -43)" onmousedown="handlePan(1,0)">
                  <use xlink:href="#rim" fill="#404040">
                        <set attributeName="fill" to="#808080" begin="arrowRight.mouseover" end="arrowRight.mouseout"/>
                  </use>
                  <path fill="none" stroke="white" stroke-width="1.5" d="M0,-3.0v7 M-2.5,-0.5L0,-3.0L2.5,-0.5"/>
                </g>
                <g id="arrowDown" xlink:href="#dirArrow" transform="rotate(180) translate(-30 -48)" onmousedown="handlePan(0,1)">
                  <use xlink:href="#rim" fill="#404040">
                        <set attributeName="fill" to="#808080" begin="arrowDown.mouseover" end="arrowDown.mouseout"/>
                  </use>
                  <path fill="none" stroke="white" stroke-width="1.5" d="M0,-3.0v7 M-2.5,-0.5L0,-3.0L2.5,-0.5"/>
                </g>
                <g id="arrowLeft" xlink:href="#dirArrow" transform="rotate(270) translate(-36 17)" onmousedown="handlePan(-1,0)">
                  <use xlink:href="#rim" fill="#404040">
                        <set attributeName="fill" to="#808080" begin="arrowLeft.mouseover" end="arrowLeft.mouseout"/>
                  </use>
                  <path fill="none" stroke="white" stroke-width="1.5" d="M0,-3.0v7 M-2.5,-0.5L0,-3.0L2.5,-0.5"/>
                </g>
        </g>
        <svg viewBox="0 0 15 15" width="100%" height="30px" preserveAspectRatio="xMaxYMin meet">
         <g id="arrow_out" transform="scale(0.3 0.3)">
          <a xlink:href="init_8h__dep__incl_org.svg" target="_base">
           <rect id="button" ry="5" rx="5" y="6" x="6" height="38" width="38"
                fill="#f2f5e9" fill-opacity="0.5" stroke="#606060" stroke-width="1.0"/>
           <path id="arrow"
             d="M 11.500037,31.436501 C 11.940474,20.09759 22.043105,11.32322 32.158766,21.979434 L 37.068811,17.246167 C 37.068811,17.246167 37.088388,32 37.088388,32 L 22.160133,31.978069 C 22.160133,31.978069 26.997745,27.140456 26.997745,27.140456 C 18.528582,18.264221 13.291696,25.230495 11.500037,31.436501 z"
             style="fill:#404040;"/>
          </a>
         </g>
        </svg>
</svg>
