<?xml version="1.0" encoding="UTF-8" standalone="no"?>
<!DOCTYPE svg PUBLIC "-//W3C//DTD SVG 1.1//EN"
 "http://www.w3.org/Graphics/SVG/1.1/DTD/svg11.dtd">
<!-- Generated by graphviz version 2.38.0 (20140413.2041)
 -->
<!-- Title: CKeePassIntegrator::doHTTPPost Pages: 1 -->
<svg width="878pt" height="613pt"
 viewBox="0.00 0.00 878.00 613.00" xmlns="http://www.w3.org/2000/svg" xmlns:xlink="http://www.w3.org/1999/xlink">
<g id="graph0" class="graph" transform="scale(1 1) rotate(0) translate(4 609)">
<title>CKeePassIntegrator::doHTTPPost</title>
<polygon fill="white" stroke="none" points="-4,4 -4,-609 874,-609 874,4 -4,4"/>
<!-- Node6 -->
<g id="node1" class="node"><title>Node6</title>
<polygon fill="#bfbfbf" stroke="black" points="0,-466 0,-496 105,-496 105,-466 0,-466"/>
<text text-anchor="start" x="8" y="-484" font-family="Helvetica,sans-Serif" font-size="10.00">CKeePassIntegrator</text>
<text text-anchor="middle" x="52.5" y="-473" font-family="Helvetica,sans-Serif" font-size="10.00">::doHTTPPost</text>
</g>
<!-- Node7 -->
<g id="node2" class="node"><title>Node7</title>
<g id="a_node2"><a xlink:href="../../dc/d76/class_uni_value.html#a6cf106f8b73c526b50d0c77a36a2d8ec" target="_top" xlink:title="UniValue::empty">
<polygon fill="white" stroke="black" points="145,-585.5 145,-604.5 234,-604.5 234,-585.5 145,-585.5"/>
<text text-anchor="middle" x="189.5" y="-592.5" font-family="Helvetica,sans-Serif" font-size="10.00">UniValue::empty</text>
</a>
</g>
</g>
<!-- Node6&#45;&gt;Node7 -->
<g id="edge1" class="edge"><title>Node6&#45;&gt;Node7</title>
<path fill="none" stroke="midnightblue" d="M64.0193,-496.122C79.0028,-516.684 108.322,-553.476 141,-576 143.55,-577.758 146.287,-579.389 149.113,-580.896"/>
<polygon fill="midnightblue" stroke="midnightblue" points="147.786,-584.141 158.319,-585.288 150.8,-577.823 147.786,-584.141"/>
</g>
<!-- Node8 -->
<g id="node3" class="node"><title>Node8</title>
<g id="a_node3"><a xlink:href="../../de/d20/clientversion_8cpp.html#ac3e3098552063f228d9deac38a8b9848" target="_top" xlink:title="FormatFullVersion">
<polygon fill="white" stroke="black" points="141.5,-547.5 141.5,-566.5 237.5,-566.5 237.5,-547.5 141.5,-547.5"/>
<text text-anchor="middle" x="189.5" y="-554.5" font-family="Helvetica,sans-Serif" font-size="10.00">FormatFullVersion</text>
</a>
</g>
</g>
<!-- Node6&#45;&gt;Node8 -->
<g id="edge2" class="edge"><title>Node6&#45;&gt;Node8</title>
<path fill="none" stroke="midnightblue" d="M74.0153,-496.025C91.3177,-508.284 117.026,-525.551 141,-538 144.724,-539.934 148.692,-541.801 152.687,-543.561"/>
<polygon fill="midnightblue" stroke="midnightblue" points="151.378,-546.807 161.953,-547.451 154.087,-540.353 151.378,-546.807"/>
</g>
<!-- Node10 -->
<g id="node5" class="node"><title>Node10</title>
<g id="a_node5"><a xlink:href="../../dc/d76/class_uni_value.html#a49a6ac464f3c2d918e7379d3203c7337" target="_top" xlink:title="UniValue::get_obj">
<polygon fill="white" stroke="black" points="142.5,-509.5 142.5,-528.5 236.5,-528.5 236.5,-509.5 142.5,-509.5"/>
<text text-anchor="middle" x="189.5" y="-516.5" font-family="Helvetica,sans-Serif" font-size="10.00">UniValue::get_obj</text>
</a>
</g>
</g>
<!-- Node6&#45;&gt;Node10 -->
<g id="edge4" class="edge"><title>Node6&#45;&gt;Node10</title>
<path fill="none" stroke="midnightblue" d="M105.308,-495.583C118.334,-499.249 132.184,-503.148 144.771,-506.691"/>
<polygon fill="midnightblue" stroke="midnightblue" points="143.979,-510.104 154.554,-509.445 145.876,-503.366 143.979,-510.104"/>
</g>
<!-- Node11 -->
<g id="node6" class="node"><title>Node11</title>
<g id="a_node6"><a xlink:href="../../dc/d76/class_uni_value.html#ab3730236f6f0ecccda0bd4f095b08258" target="_top" xlink:title="UniValue::get_str">
<polygon fill="white" stroke="black" points="143.5,-471.5 143.5,-490.5 235.5,-490.5 235.5,-471.5 143.5,-471.5"/>
<text text-anchor="middle" x="189.5" y="-478.5" font-family="Helvetica,sans-Serif" font-size="10.00">UniValue::get_str</text>
</a>
</g>
</g>
<!-- Node6&#45;&gt;Node11 -->
<g id="edge5" class="edge"><title>Node6&#45;&gt;Node11</title>
<path fill="none" stroke="midnightblue" d="M105.308,-481C114.385,-481 123.862,-481 133.032,-481"/>
<polygon fill="midnightblue" stroke="midnightblue" points="133.218,-484.5 143.218,-481 133.218,-477.5 133.218,-484.5"/>
</g>
<!-- Node12 -->
<g id="node7" class="node"><title>Node12</title>
<g id="a_node7"><a xlink:href="../../df/d51/keepass_8cpp.html#a3da81a3ec830a6948112e5454eec1b3d" target="_top" xlink:title="http_request_done">
<polygon fill="white" stroke="black" points="141,-433.5 141,-452.5 238,-452.5 238,-433.5 141,-433.5"/>
<text text-anchor="middle" x="189.5" y="-440.5" font-family="Helvetica,sans-Serif" font-size="10.00">http_request_done</text>
</a>
</g>
</g>
<!-- Node6&#45;&gt;Node12 -->
<g id="edge6" class="edge"><title>Node6&#45;&gt;Node12</title>
<path fill="none" stroke="midnightblue" d="M105.308,-466.417C118.334,-462.751 132.184,-458.852 144.771,-455.309"/>
<polygon fill="midnightblue" stroke="midnightblue" points="145.876,-458.634 154.554,-452.555 143.979,-451.896 145.876,-458.634"/>
</g>
<!-- Node13 -->
<g id="node8" class="node"><title>Node13</title>
<g id="a_node8"><a xlink:href="../../d8/d3c/util_8h.html#aab1f837a2366f424bdc996fdf6352171" target="_top" xlink:title="Zero&#45;arg versions of logging and error, these are not covered by TINYFORMAT_FOREACH_ARGNUM. ">
<polygon fill="white" stroke="black" points="163,-395.5 163,-414.5 216,-414.5 216,-395.5 163,-395.5"/>
<text text-anchor="middle" x="189.5" y="-402.5" font-family="Helvetica,sans-Serif" font-size="10.00">LogPrint</text>
</a>
</g>
</g>
<!-- Node6&#45;&gt;Node13 -->
<g id="edge7" class="edge"><title>Node6&#45;&gt;Node13</title>
<path fill="none" stroke="midnightblue" d="M74.0153,-465.975C91.3177,-453.716 117.026,-436.449 141,-424 145.01,-421.918 149.302,-419.913 153.606,-418.036"/>
<polygon fill="midnightblue" stroke="midnightblue" points="155.052,-421.226 162.942,-414.155 152.364,-414.762 155.052,-421.226"/>
</g>
<!-- Node31 -->
<g id="node26" class="node"><title>Node31</title>
<g id="a_node26"><a xlink:href="../../dc/d76/class_uni_value.html#a7a2b0e2861c456dc4966e5793453736d" target="_top" xlink:title="UniValue::read">
<polygon fill="white" stroke="black" points="149,-95.5 149,-114.5 230,-114.5 230,-95.5 149,-95.5"/>
<text text-anchor="middle" x="189.5" y="-102.5" font-family="Helvetica,sans-Serif" font-size="10.00">UniValue::read</text>
</a>
</g>
</g>
<!-- Node6&#45;&gt;Node31 -->
<g id="edge26" class="edge"><title>Node6&#45;&gt;Node31</title>
<path fill="none" stroke="midnightblue" d="M58.9594,-465.795C80.2671,-406.449 157.824,-190.439 181.554,-124.347"/>
<polygon fill="midnightblue" stroke="midnightblue" points="184.912,-125.35 184.997,-114.756 178.324,-122.985 184.912,-125.35"/>
</g>
<!-- Node9 -->
<g id="node4" class="node"><title>Node9</title>
<g id="a_node4"><a xlink:href="../../de/d20/clientversion_8cpp.html#aff087070aeaa72e85b2d1a6192af8af5" target="_top" xlink:title="CLIENT_BUILD">
<polygon fill="white" stroke="black" points="285,-547.5 285,-566.5 373,-566.5 373,-547.5 285,-547.5"/>
<text text-anchor="middle" x="329" y="-554.5" font-family="Helvetica,sans-Serif" font-size="10.00">CLIENT_BUILD</text>
</a>
</g>
</g>
<!-- Node8&#45;&gt;Node9 -->
<g id="edge3" class="edge"><title>Node8&#45;&gt;Node9</title>
<path fill="none" stroke="midnightblue" d="M237.82,-557C249.715,-557 262.561,-557 274.726,-557"/>
<polygon fill="midnightblue" stroke="midnightblue" points="274.748,-560.5 284.748,-557 274.748,-553.5 274.748,-560.5"/>
</g>
<!-- Node14 -->
<g id="node9" class="node"><title>Node14</title>
<g id="a_node9"><a xlink:href="../../d8/d1a/namespacetinyformat_1_1detail.html#aa4b0590b3e34562c2d252a2086cec7ba" target="_top" xlink:title="tinyformat::detail\l::format">
<polygon fill="white" stroke="black" points="284.5,-469 284.5,-499 373.5,-499 373.5,-469 284.5,-469"/>
<text text-anchor="start" x="292.5" y="-487" font-family="Helvetica,sans-Serif" font-size="10.00">tinyformat::detail</text>
<text text-anchor="middle" x="329" y="-476" font-family="Helvetica,sans-Serif" font-size="10.00">::format</text>
</a>
</g>
</g>
<!-- Node13&#45;&gt;Node14 -->
<g id="edge8" class="edge"><title>Node13&#45;&gt;Node14</title>
<path fill="none" stroke="midnightblue" d="M216.083,-414.107C223.308,-416.979 231.083,-420.361 238,-424 249.905,-430.262 276.671,-448.306 297.936,-462.984"/>
<polygon fill="midnightblue" stroke="midnightblue" points="296.147,-466.001 306.36,-468.819 300.133,-460.247 296.147,-466.001"/>
</g>
<!-- Node17 -->
<g id="node12" class="node"><title>Node17</title>
<g id="a_node12"><a xlink:href="../../d8/d3c/util_8h.html#a343d2a13efe00125f78d25dafb0a8d98" target="_top" xlink:title="Return true if log accepts specified category. ">
<polygon fill="white" stroke="black" points="277.5,-417.5 277.5,-436.5 380.5,-436.5 380.5,-417.5 277.5,-417.5"/>
<text text-anchor="middle" x="329" y="-424.5" font-family="Helvetica,sans-Serif" font-size="10.00">LogAcceptCategory</text>
</a>
</g>
</g>
<!-- Node13&#45;&gt;Node17 -->
<g id="edge11" class="edge"><title>Node13&#45;&gt;Node17</title>
<path fill="none" stroke="midnightblue" d="M216.04,-409.086C230.522,-411.404 249.306,-414.409 267.337,-417.294"/>
<polygon fill="midnightblue" stroke="midnightblue" points="266.817,-420.755 277.245,-418.879 267.923,-413.843 266.817,-420.755"/>
</g>
<!-- Node19 -->
<g id="node14" class="node"><title>Node19</title>
<g id="a_node14"><a xlink:href="../../d8/d3c/util_8h.html#afd4c3002b2797c0560adddb6af3ca1da" target="_top" xlink:title="Send a string to the log output. ">
<polygon fill="white" stroke="black" points="296.5,-373.5 296.5,-392.5 361.5,-392.5 361.5,-373.5 296.5,-373.5"/>
<text text-anchor="middle" x="329" y="-380.5" font-family="Helvetica,sans-Serif" font-size="10.00">LogPrintStr</text>
</a>
</g>
</g>
<!-- Node13&#45;&gt;Node19 -->
<g id="edge13" class="edge"><title>Node13&#45;&gt;Node19</title>
<path fill="none" stroke="midnightblue" d="M216.04,-400.914C235.706,-397.767 263.305,-393.351 286.18,-389.691"/>
<polygon fill="midnightblue" stroke="midnightblue" points="286.99,-393.106 296.312,-388.07 285.884,-386.194 286.99,-393.106"/>
</g>
<!-- Node15 -->
<g id="node10" class="node"><title>Node15</title>
<g id="a_node10"><a xlink:href="../../d8/d42/classtinyformat_1_1detail_1_1_format_iterator.html#a46377a804f72dbad1e508d2fbaa18ce9" target="_top" xlink:title="tinyformat::detail\l::FormatIterator::finish">
<polygon fill="white" stroke="black" points="421.5,-507 421.5,-537 534.5,-537 534.5,-507 421.5,-507"/>
<text text-anchor="start" x="429.5" y="-525" font-family="Helvetica,sans-Serif" font-size="10.00">tinyformat::detail</text>
<text text-anchor="middle" x="478" y="-514" font-family="Helvetica,sans-Serif" font-size="10.00">::FormatIterator::finish</text>
</a>
</g>
</g>
<!-- Node14&#45;&gt;Node15 -->
<g id="edge9" class="edge"><title>Node14&#45;&gt;Node15</title>
<path fill="none" stroke="midnightblue" d="M373.707,-495.298C385.644,-498.384 398.843,-501.796 411.703,-505.121"/>
<polygon fill="midnightblue" stroke="midnightblue" points="410.887,-508.524 421.444,-507.639 412.639,-501.747 410.887,-508.524"/>
</g>
<!-- Node16 -->
<g id="node11" class="node"><title>Node16</title>
<g id="a_node11"><a xlink:href="../../d8/d42/classtinyformat_1_1detail_1_1_format_iterator.html#af3bbb8259ac0593ec2268ef5863311d5" target="_top" xlink:title="tinyformat::detail\l::FormatIterator::printFormat\lStringLiteral">
<polygon fill="white" stroke="black" points="575,-501.5 575,-542.5 715,-542.5 715,-501.5 575,-501.5"/>
<text text-anchor="start" x="583" y="-530.5" font-family="Helvetica,sans-Serif" font-size="10.00">tinyformat::detail</text>
<text text-anchor="start" x="583" y="-519.5" font-family="Helvetica,sans-Serif" font-size="10.00">::FormatIterator::printFormat</text>
<text text-anchor="middle" x="645" y="-508.5" font-family="Helvetica,sans-Serif" font-size="10.00">StringLiteral</text>
</a>
</g>
</g>
<!-- Node15&#45;&gt;Node16 -->
<g id="edge10" class="edge"><title>Node15&#45;&gt;Node16</title>
<path fill="none" stroke="midnightblue" d="M534.861,-522C544.468,-522 554.614,-522 564.696,-522"/>
<polygon fill="midnightblue" stroke="midnightblue" points="564.735,-525.5 574.735,-522 564.735,-518.5 564.735,-525.5"/>
</g>
<!-- Node18 -->
<g id="node13" class="node"><title>Node18</title>
<g id="a_node13"><a xlink:href="../../df/d2d/util_8cpp.html#a1db3aa900bfa259ae1fe04068f2accfc" target="_top" xlink:title="GetThreadName">
<polygon fill="white" stroke="black" points="600.5,-447.5 600.5,-466.5 689.5,-466.5 689.5,-447.5 600.5,-447.5"/>
<text text-anchor="middle" x="645" y="-454.5" font-family="Helvetica,sans-Serif" font-size="10.00">GetThreadName</text>
</a>
</g>
</g>
<!-- Node17&#45;&gt;Node18 -->
<g id="edge12" class="edge"><title>Node17&#45;&gt;Node18</title>
<path fill="none" stroke="midnightblue" d="M350.548,-436.586C368.445,-444.375 395.324,-454.744 420,-459 477.542,-468.925 544.64,-466.52 590.29,-462.834"/>
<polygon fill="midnightblue" stroke="midnightblue" points="590.602,-466.32 600.267,-461.981 590.005,-459.346 590.602,-466.32"/>
</g>
<!-- Node20 -->
<g id="node15" class="node"><title>Node20</title>
<g id="a_node15"><a xlink:href="../../df/d2d/util_8cpp.html#a751ff5f21d880737811136b5e0bcea12" target="_top" xlink:title="DebugPrintInit">
<polygon fill="white" stroke="black" points="438.5,-430.5 438.5,-449.5 517.5,-449.5 517.5,-430.5 438.5,-430.5"/>
<text text-anchor="middle" x="478" y="-437.5" font-family="Helvetica,sans-Serif" font-size="10.00">DebugPrintInit</text>
</a>
</g>
</g>
<!-- Node19&#45;&gt;Node20 -->
<g id="edge14" class="edge"><title>Node19&#45;&gt;Node20</title>
<path fill="none" stroke="midnightblue" d="M351.269,-392.532C369.388,-400.519 396.196,-412.023 420,-421 425.565,-423.099 431.478,-425.205 437.309,-427.211"/>
<polygon fill="midnightblue" stroke="midnightblue" points="436.373,-430.589 446.967,-430.475 438.614,-423.958 436.373,-430.589"/>
</g>
<!-- Node21 -->
<g id="node16" class="node"><title>Node21</title>
<g id="a_node16"><a xlink:href="../../df/d2d/util_8cpp.html#a7c125ce70fa6b09e1de0c4a404fc2b6f" target="_top" xlink:title="FileWriteStr">
<polygon fill="white" stroke="black" points="444,-392.5 444,-411.5 512,-411.5 512,-392.5 444,-392.5"/>
<text text-anchor="middle" x="478" y="-399.5" font-family="Helvetica,sans-Serif" font-size="10.00">FileWriteStr</text>
</a>
</g>
</g>
<!-- Node19&#45;&gt;Node21 -->
<g id="edge15" class="edge"><title>Node19&#45;&gt;Node21</title>
<path fill="none" stroke="midnightblue" d="M361.535,-387.076C382.7,-389.812 410.845,-393.449 434.049,-396.449"/>
<polygon fill="midnightblue" stroke="midnightblue" points="433.621,-399.922 443.987,-397.733 434.519,-392.98 433.621,-399.922"/>
</g>
<!-- Node22 -->
<g id="node17" class="node"><title>Node22</title>
<g id="a_node17"><a xlink:href="../../df/d2d/util_8cpp.html#ab83866a054745d4b30a3948a1b44beba" target="_top" xlink:title="GetDataDir">
<polygon fill="white" stroke="black" points="445,-316.5 445,-335.5 511,-335.5 511,-316.5 445,-316.5"/>
<text text-anchor="middle" x="478" y="-323.5" font-family="Helvetica,sans-Serif" font-size="10.00">GetDataDir</text>
</a>
</g>
</g>
<!-- Node19&#45;&gt;Node22 -->
<g id="edge16" class="edge"><title>Node19&#45;&gt;Node22</title>
<path fill="none" stroke="midnightblue" d="M351.269,-373.468C369.388,-365.481 396.196,-353.977 420,-345 425.565,-342.901 431.478,-340.795 437.309,-338.789"/>
<polygon fill="midnightblue" stroke="midnightblue" points="438.614,-342.042 446.967,-335.525 436.373,-335.411 438.614,-342.042"/>
</g>
<!-- Node26 -->
<g id="node21" class="node"><title>Node26</title>
<g id="a_node21"><a xlink:href="../../df/d2d/util_8cpp.html#af0c31e37a5891e021f9b339696398a28" target="_top" xlink:title="fStartedNewLine is a state variable held by the calling context that will suppress printing of the th...">
<polygon fill="white" stroke="black" points="427.5,-354.5 427.5,-373.5 528.5,-373.5 528.5,-354.5 427.5,-354.5"/>
<text text-anchor="middle" x="478" y="-361.5" font-family="Helvetica,sans-Serif" font-size="10.00">LogThreadNameStr</text>
</a>
</g>
</g>
<!-- Node19&#45;&gt;Node26 -->
<g id="edge20" class="edge"><title>Node19&#45;&gt;Node26</title>
<path fill="none" stroke="midnightblue" d="M361.535,-378.924C377.768,-376.826 398.108,-374.197 417.175,-371.733"/>
<polygon fill="midnightblue" stroke="midnightblue" points="417.832,-375.177 427.301,-370.424 416.934,-368.235 417.832,-375.177"/>
</g>
<!-- Node27 -->
<g id="node22" class="node"><title>Node27</title>
<g id="a_node22"><a xlink:href="../../df/d2d/util_8cpp.html#a8e80ae045580407e9f2028dc5f7b954c" target="_top" xlink:title="fStartedNewLine is a state variable held by the calling context that will suppress printing of the ti...">
<polygon fill="white" stroke="black" points="431,-278.5 431,-297.5 525,-297.5 525,-278.5 431,-278.5"/>
<text text-anchor="middle" x="478" y="-285.5" font-family="Helvetica,sans-Serif" font-size="10.00">LogTimestampStr</text>
</a>
</g>
</g>
<!-- Node19&#45;&gt;Node27 -->
<g id="edge22" class="edge"><title>Node19&#45;&gt;Node27</title>
<path fill="none" stroke="midnightblue" d="M338.822,-373.492C354.001,-357.643 386.652,-325.72 420,-307 423.735,-304.903 427.738,-302.991 431.828,-301.256"/>
<polygon fill="midnightblue" stroke="midnightblue" points="433.38,-304.408 441.441,-297.532 430.852,-297.881 433.38,-304.408"/>
</g>
<!-- Node23 -->
<g id="node18" class="node"><title>Node23</title>
<g id="a_node18"><a xlink:href="../../d9/d44/chainparamsbase_8cpp.html#a06ef5bfd0efb53d13bbf4276726e84ab" target="_top" xlink:title="Return the currently selected parameters. ">
<polygon fill="white" stroke="black" points="608.5,-392.5 608.5,-411.5 681.5,-411.5 681.5,-392.5 608.5,-392.5"/>
<text text-anchor="middle" x="645" y="-399.5" font-family="Helvetica,sans-Serif" font-size="10.00">BaseParams</text>
</a>
</g>
</g>
<!-- Node22&#45;&gt;Node23 -->
<g id="edge17" class="edge"><title>Node22&#45;&gt;Node23</title>
<path fill="none" stroke="midnightblue" d="M511.014,-333.633C519.518,-336.456 528.433,-340.181 536,-345 555.623,-357.497 551.989,-371.135 572,-383 580.085,-387.794 589.384,-391.397 598.557,-394.1"/>
<polygon fill="midnightblue" stroke="midnightblue" points="597.835,-397.529 608.397,-396.692 599.619,-390.76 597.835,-397.529"/>
</g>
<!-- Node24 -->
<g id="node19" class="node"><title>Node24</title>
<g id="a_node19"><a xlink:href="../../d2/dfc/class_c_base_chain_params.html#a4b142e94ae27f860522dd5efef41fb67" target="_top" xlink:title="CBaseChainParams::DataDir">
<polygon fill="white" stroke="black" points="572,-354.5 572,-373.5 718,-373.5 718,-354.5 572,-354.5"/>
<text text-anchor="middle" x="645" y="-361.5" font-family="Helvetica,sans-Serif" font-size="10.00">CBaseChainParams::DataDir</text>
</a>
</g>
</g>
<!-- Node22&#45;&gt;Node24 -->
<g id="edge18" class="edge"><title>Node22&#45;&gt;Node24</title>
<path fill="none" stroke="midnightblue" d="M511.205,-333.417C534.324,-338.741 565.964,-346.028 592.56,-352.153"/>
<polygon fill="midnightblue" stroke="midnightblue" points="591.948,-355.604 602.478,-354.437 593.519,-348.782 591.948,-355.604"/>
</g>
<!-- Node25 -->
<g id="node20" class="node"><title>Node25</title>
<g id="a_node20"><a xlink:href="../../df/d2d/util_8cpp.html#ab272995de020a3bcbf743be630e485c6" target="_top" xlink:title="GetDefaultDataDir">
<polygon fill="white" stroke="black" points="596,-316.5 596,-335.5 694,-335.5 694,-316.5 596,-316.5"/>
<text text-anchor="middle" x="645" y="-323.5" font-family="Helvetica,sans-Serif" font-size="10.00">GetDefaultDataDir</text>
</a>
</g>
</g>
<!-- Node22&#45;&gt;Node25 -->
<g id="edge19" class="edge"><title>Node22&#45;&gt;Node25</title>
<path fill="none" stroke="midnightblue" d="M511.205,-326C532.389,-326 560.728,-326 585.785,-326"/>
<polygon fill="midnightblue" stroke="midnightblue" points="585.928,-329.5 595.928,-326 585.928,-322.5 585.928,-329.5"/>
</g>
<!-- Node26&#45;&gt;Node18 -->
<g id="edge21" class="edge"><title>Node26&#45;&gt;Node18</title>
<path fill="none" stroke="midnightblue" d="M516.392,-373.526C523.191,-376.063 530.017,-379.19 536,-383 555.623,-395.497 553.312,-407.143 572,-421 583.719,-429.689 597.853,-437.278 610.483,-443.219"/>
<polygon fill="midnightblue" stroke="midnightblue" points="609.231,-446.494 619.784,-447.432 612.119,-440.118 609.231,-446.494"/>
</g>
<!-- Node28 -->
<g id="node23" class="node"><title>Node28</title>
<g id="a_node23"><a xlink:href="../../d6/d3c/utiltime_8cpp.html#a749bc6776c8ec72d7c5e4dea56aee415" target="_top" xlink:title="DateTimeStrFormat">
<polygon fill="white" stroke="black" points="593.5,-278.5 593.5,-297.5 696.5,-297.5 696.5,-278.5 593.5,-278.5"/>
<text text-anchor="middle" x="645" y="-285.5" font-family="Helvetica,sans-Serif" font-size="10.00">DateTimeStrFormat</text>
</a>
</g>
</g>
<!-- Node27&#45;&gt;Node28 -->
<g id="edge23" class="edge"><title>Node27&#45;&gt;Node28</title>
<path fill="none" stroke="midnightblue" d="M525.401,-288C543.338,-288 564.111,-288 583.212,-288"/>
<polygon fill="midnightblue" stroke="midnightblue" points="583.322,-291.5 593.322,-288 583.322,-284.5 583.322,-291.5"/>
</g>
<!-- Node29 -->
<g id="node24" class="node"><title>Node29</title>
<g id="a_node24"><a xlink:href="../../d6/d3c/utiltime_8cpp.html#a474bed4c01c8a1d18330dceccf865e1e" target="_top" xlink:title="Return a time useful for the debug log. ">
<polygon fill="white" stroke="black" points="595.5,-240.5 595.5,-259.5 694.5,-259.5 694.5,-240.5 595.5,-240.5"/>
<text text-anchor="middle" x="645" y="-247.5" font-family="Helvetica,sans-Serif" font-size="10.00">GetLogTimeMicros</text>
</a>
</g>
</g>
<!-- Node27&#45;&gt;Node29 -->
<g id="edge24" class="edge"><title>Node27&#45;&gt;Node29</title>
<path fill="none" stroke="midnightblue" d="M520.636,-278.411C542.508,-273.374 569.506,-267.156 592.664,-261.823"/>
<polygon fill="midnightblue" stroke="midnightblue" points="593.704,-265.175 602.663,-259.52 592.133,-258.354 593.704,-265.175"/>
</g>
<!-- Node30 -->
<g id="node25" class="node"><title>Node30</title>
<g id="a_node25"><a xlink:href="../../d6/d3c/utiltime_8cpp.html#a0c5a06b50cd805b1923552114494c029" target="_top" xlink:title="GetTimeMicros">
<polygon fill="white" stroke="black" points="770.5,-240.5 770.5,-259.5 853.5,-259.5 853.5,-240.5 770.5,-240.5"/>
<text text-anchor="middle" x="812" y="-247.5" font-family="Helvetica,sans-Serif" font-size="10.00">GetTimeMicros</text>
</a>
</g>
</g>
<!-- Node29&#45;&gt;Node30 -->
<g id="edge25" class="edge"><title>Node29&#45;&gt;Node30</title>
<path fill="none" stroke="midnightblue" d="M694.613,-250C715.187,-250 739.165,-250 759.992,-250"/>
<polygon fill="midnightblue" stroke="midnightblue" points="760.247,-253.5 770.247,-250 760.247,-246.5 760.247,-253.5"/>
</g>
<!-- Node32 -->
<g id="node27" class="node"><title>Node32</title>
<g id="a_node27"><a xlink:href="../../d9/d2d/univalue__read_8cpp.html#aea0a2050f525218d9bb75e36e023bde0" target="_top" xlink:title="getJsonToken">
<polygon fill="white" stroke="black" points="290,-152.5 290,-171.5 368,-171.5 368,-152.5 290,-152.5"/>
<text text-anchor="middle" x="329" y="-159.5" font-family="Helvetica,sans-Serif" font-size="10.00">getJsonToken</text>
</a>
</g>
</g>
<!-- Node31&#45;&gt;Node32 -->
<g id="edge27" class="edge"><title>Node31&#45;&gt;Node32</title>
<path fill="none" stroke="midnightblue" d="M210.193,-114.561C226.979,-122.566 251.838,-134.079 274,-143 279.071,-145.041 284.455,-147.082 289.784,-149.029"/>
<polygon fill="midnightblue" stroke="midnightblue" points="288.643,-152.338 299.238,-152.411 291.001,-145.747 288.643,-152.338"/>
</g>
<!-- Node40 -->
<g id="node35" class="node"><title>Node40</title>
<g id="a_node35"><a xlink:href="../../df/da8/univalue_8h.html#a4f2cd0c60e21ee8f1a7c89df3b1818c9" target="_top" xlink:title="jsonTokenIsValue">
<polygon fill="white" stroke="black" points="281.5,-114.5 281.5,-133.5 376.5,-133.5 376.5,-114.5 281.5,-114.5"/>
<text text-anchor="middle" x="329" y="-121.5" font-family="Helvetica,sans-Serif" font-size="10.00">jsonTokenIsValue</text>
</a>
</g>
</g>
<!-- Node31&#45;&gt;Node40 -->
<g id="edge37" class="edge"><title>Node31&#45;&gt;Node40</title>
<path fill="none" stroke="midnightblue" d="M230.271,-110.496C242.911,-112.242 257.152,-114.21 270.772,-116.092"/>
<polygon fill="midnightblue" stroke="midnightblue" points="270.644,-119.608 281.029,-117.509 271.602,-112.673 270.644,-119.608"/>
</g>
<!-- Node41 -->
<g id="node36" class="node"><title>Node41</title>
<g id="a_node36"><a xlink:href="../../dc/d76/class_uni_value.html#a944cd1b59b040cd24c9f46b55a68d49a" target="_top" xlink:title="UniValue::push_back">
<polygon fill="white" stroke="black" points="274,-76.5 274,-95.5 384,-95.5 384,-76.5 274,-76.5"/>
<text text-anchor="middle" x="329" y="-83.5" font-family="Helvetica,sans-Serif" font-size="10.00">UniValue::push_back</text>
</a>
</g>
</g>
<!-- Node31&#45;&gt;Node41 -->
<g id="edge38" class="edge"><title>Node31&#45;&gt;Node41</title>
<path fill="none" stroke="midnightblue" d="M230.271,-99.5044C240.822,-98.0464 252.488,-96.4344 263.977,-94.8468"/>
<polygon fill="midnightblue" stroke="midnightblue" points="264.569,-98.2984 273.996,-93.4624 263.611,-91.3643 264.569,-98.2984"/>
</g>
<!-- Node42 -->
<g id="node37" class="node"><title>Node42</title>
<g id="a_node37"><a xlink:href="../../dc/d76/class_uni_value.html#a2dbc9c5aa9d209338b0bef650f3d1987" target="_top" xlink:title="UniValue::getType">
<polygon fill="white" stroke="black" points="280,-38.5 280,-57.5 378,-57.5 378,-38.5 280,-38.5"/>
<text text-anchor="middle" x="329" y="-45.5" font-family="Helvetica,sans-Serif" font-size="10.00">UniValue::getType</text>
</a>
</g>
</g>
<!-- Node31&#45;&gt;Node42 -->
<g id="edge39" class="edge"><title>Node31&#45;&gt;Node42</title>
<path fill="none" stroke="midnightblue" d="M210.193,-95.4389C226.979,-87.4343 251.838,-75.9214 274,-67 279.071,-64.9588 284.455,-62.9177 289.784,-60.9708"/>
<polygon fill="midnightblue" stroke="midnightblue" points="291.001,-64.2528 299.238,-57.5886 288.643,-57.6619 291.001,-64.2528"/>
</g>
<!-- Node43 -->
<g id="node38" class="node"><title>Node43</title>
<g id="a_node38"><a xlink:href="../../dc/d76/class_uni_value.html#afd5b112dc63426ca6b0a6137041e0809" target="_top" xlink:title="UniValue::setBool">
<polygon fill="white" stroke="black" points="281.5,-0.5 281.5,-19.5 376.5,-19.5 376.5,-0.5 281.5,-0.5"/>
<text text-anchor="middle" x="329" y="-7.5" font-family="Helvetica,sans-Serif" font-size="10.00">UniValue::setBool</text>
</a>
</g>
</g>
<!-- Node31&#45;&gt;Node43 -->
<g id="edge40" class="edge"><title>Node31&#45;&gt;Node43</title>
<path fill="none" stroke="midnightblue" d="M198.794,-95.2536C212.802,-79.3433 242.697,-47.6943 274,-29 277.406,-26.9657 281.064,-25.1038 284.81,-23.41"/>
<polygon fill="midnightblue" stroke="midnightblue" points="286.299,-26.5825 294.217,-19.5436 283.638,-20.108 286.299,-26.5825"/>
</g>
<!-- Node33 -->
<g id="node28" class="node"><title>Node33</title>
<g id="a_node28"><a xlink:href="../../d1/de4/class_j_s_o_n_u_t_f8_string_filter.html#a83905d8112c98598ca3345cfa0c6e052" target="_top" xlink:title="JSONUTF8StringFilter\l::finalize">
<polygon fill="white" stroke="black" points="420,-229 420,-259 536,-259 536,-229 420,-229"/>
<text text-anchor="start" x="428" y="-247" font-family="Helvetica,sans-Serif" font-size="10.00">JSONUTF8StringFilter</text>
<text text-anchor="middle" x="478" y="-236" font-family="Helvetica,sans-Serif" font-size="10.00">::finalize</text>
</a>
</g>
</g>
<!-- Node32&#45;&gt;Node33 -->
<g id="edge28" class="edge"><title>Node32&#45;&gt;Node33</title>
<path fill="none" stroke="midnightblue" d="M343.64,-171.557C360.942,-183.464 391.916,-204.058 420,-219 423.548,-220.887 427.267,-222.754 431.034,-224.566"/>
<polygon fill="midnightblue" stroke="midnightblue" points="429.881,-227.89 440.424,-228.939 432.836,-221.544 429.881,-227.89"/>
</g>
<!-- Node34 -->
<g id="node29" class="node"><title>Node34</title>
<g id="a_node29"><a xlink:href="../../d9/d2d/univalue__read_8cpp.html#a8131fbebd67a0c5c05fe696a86064e07" target="_top" xlink:title="hatoui">
<polygon fill="white" stroke="black" points="456.5,-190.5 456.5,-209.5 499.5,-209.5 499.5,-190.5 456.5,-190.5"/>
<text text-anchor="middle" x="478" y="-197.5" font-family="Helvetica,sans-Serif" font-size="10.00">hatoui</text>
</a>
</g>
</g>
<!-- Node32&#45;&gt;Node34 -->
<g id="edge29" class="edge"><title>Node32&#45;&gt;Node34</title>
<path fill="none" stroke="midnightblue" d="M367.094,-171.589C391.582,-177.919 423.282,-186.114 446.34,-192.074"/>
<polygon fill="midnightblue" stroke="midnightblue" points="445.712,-195.527 456.27,-194.641 447.464,-188.75 445.712,-195.527"/>
</g>
<!-- Node35 -->
<g id="node30" class="node"><title>Node35</title>
<g id="a_node30"><a xlink:href="../../d9/d2d/univalue__read_8cpp.html#a0196b9df1e1f3461abafdc009fabbe25" target="_top" xlink:title="json_isdigit">
<polygon fill="white" stroke="black" points="612.5,-171.5 612.5,-190.5 677.5,-190.5 677.5,-171.5 612.5,-171.5"/>
<text text-anchor="middle" x="645" y="-178.5" font-family="Helvetica,sans-Serif" font-size="10.00">json_isdigit</text>
</a>
</g>
</g>
<!-- Node32&#45;&gt;Node35 -->
<g id="edge31" class="edge"><title>Node32&#45;&gt;Node35</title>
<path fill="none" stroke="midnightblue" d="M368.189,-164.311C427.363,-167.891 540.766,-174.753 602.114,-178.466"/>
<polygon fill="midnightblue" stroke="midnightblue" points="602.025,-181.966 612.218,-179.077 602.448,-174.979 602.025,-181.966"/>
</g>
<!-- Node36 -->
<g id="node31" class="node"><title>Node36</title>
<g id="a_node31"><a xlink:href="../../df/da8/univalue_8h.html#a5637b4b88cc5326157d36f2e77a3c5a8" target="_top" xlink:title="json_isspace">
<polygon fill="white" stroke="black" points="441,-114.5 441,-133.5 515,-133.5 515,-114.5 441,-114.5"/>
<text text-anchor="middle" x="478" y="-121.5" font-family="Helvetica,sans-Serif" font-size="10.00">json_isspace</text>
</a>
</g>
</g>
<!-- Node32&#45;&gt;Node36 -->
<g id="edge32" class="edge"><title>Node32&#45;&gt;Node36</title>
<path fill="none" stroke="midnightblue" d="M367.094,-152.411C386.537,-147.385 410.527,-141.184 431.128,-135.858"/>
<polygon fill="midnightblue" stroke="midnightblue" points="432.128,-139.215 440.934,-133.323 430.376,-132.437 432.128,-139.215"/>
</g>
<!-- Node37 -->
<g id="node32" class="node"><title>Node37</title>
<g id="a_node32"><a xlink:href="../../d1/de4/class_j_s_o_n_u_t_f8_string_filter.html#a714fa066c623119f18728242ec855eb5" target="_top" xlink:title="JSONUTF8StringFilter\l::push_back">
<polygon fill="white" stroke="black" points="420,-65 420,-95 536,-95 536,-65 420,-65"/>
<text text-anchor="start" x="428" y="-83" font-family="Helvetica,sans-Serif" font-size="10.00">JSONUTF8StringFilter</text>
<text text-anchor="middle" x="478" y="-72" font-family="Helvetica,sans-Serif" font-size="10.00">::push_back</text>
</a>
</g>
</g>
<!-- Node32&#45;&gt;Node37 -->
<g id="edge33" class="edge"><title>Node32&#45;&gt;Node37</title>
<path fill="none" stroke="midnightblue" d="M364.852,-152.48C371.481,-149.921 378.163,-146.786 384,-143 403.519,-130.341 400.97,-118.382 420,-105 422.526,-103.224 425.198,-101.532 427.953,-99.9293"/>
<polygon fill="midnightblue" stroke="midnightblue" points="429.787,-102.918 436.952,-95.1133 426.484,-96.7459 429.787,-102.918"/>
</g>
<!-- Node38 -->
<g id="node33" class="node"><title>Node38</title>
<g id="a_node33"><a xlink:href="../../d1/de4/class_j_s_o_n_u_t_f8_string_filter.html#ae436a886ef411d37e296f842551847f0" target="_top" xlink:title="JSONUTF8StringFilter\l::push_back_u">
<polygon fill="white" stroke="black" points="587,-43 587,-73 703,-73 703,-43 587,-43"/>
<text text-anchor="start" x="595" y="-61" font-family="Helvetica,sans-Serif" font-size="10.00">JSONUTF8StringFilter</text>
<text text-anchor="middle" x="645" y="-50" font-family="Helvetica,sans-Serif" font-size="10.00">::push_back_u</text>
</a>
</g>
</g>
<!-- Node32&#45;&gt;Node38 -->
<g id="edge36" class="edge"><title>Node32&#45;&gt;Node38</title>
<path fill="none" stroke="midnightblue" d="M368.063,-153.244C373.889,-150.657 379.463,-147.315 384,-143 414.618,-113.876 384.916,-78.5538 420,-55 469.09,-22.0434 538.872,-29.2875 587.457,-40.6083"/>
<polygon fill="midnightblue" stroke="midnightblue" points="586.637,-44.0109 597.183,-42.9943 588.305,-37.2125 586.637,-44.0109"/>
</g>
<!-- Node34&#45;&gt;Node35 -->
<g id="edge30" class="edge"><title>Node34&#45;&gt;Node35</title>
<path fill="none" stroke="midnightblue" d="M499.564,-197.632C525.132,-194.688 569.405,-189.59 602.213,-185.812"/>
<polygon fill="midnightblue" stroke="midnightblue" points="602.89,-189.257 612.424,-184.636 602.089,-182.303 602.89,-189.257"/>
</g>
<!-- Node37&#45;&gt;Node38 -->
<g id="edge34" class="edge"><title>Node37&#45;&gt;Node38</title>
<path fill="none" stroke="midnightblue" d="M536.246,-72.3672C549.3,-70.6267 563.288,-68.7616 576.718,-66.9709"/>
<polygon fill="midnightblue" stroke="midnightblue" points="577.406,-70.4103 586.855,-65.6193 576.48,-63.4717 577.406,-70.4103"/>
</g>
<!-- Node39 -->
<g id="node34" class="node"><title>Node39</title>
<g id="a_node34"><a xlink:href="../../d1/de4/class_j_s_o_n_u_t_f8_string_filter.html#a1a7c98be02a566dc9f29a51043414273" target="_top" xlink:title="JSONUTF8StringFilter\l::append_codepoint">
<polygon fill="white" stroke="black" points="754,-43 754,-73 870,-73 870,-43 754,-43"/>
<text text-anchor="start" x="762" y="-61" font-family="Helvetica,sans-Serif" font-size="10.00">JSONUTF8StringFilter</text>
<text text-anchor="middle" x="812" y="-50" font-family="Helvetica,sans-Serif" font-size="10.00">::append_codepoint</text>
</a>
</g>
</g>
<!-- Node38&#45;&gt;Node39 -->
<g id="edge35" class="edge"><title>Node38&#45;&gt;Node39</title>
<path fill="none" stroke="midnightblue" d="M703.246,-58C716.3,-58 730.288,-58 743.718,-58"/>
<polygon fill="midnightblue" stroke="midnightblue" points="743.855,-61.5001 753.855,-58 743.855,-54.5001 743.855,-61.5001"/>
</g>
</g>
</svg>
