<?xml version="1.0" encoding="UTF-8" standalone="no"?>
<!DOCTYPE svg PUBLIC "-//W3C//DTD SVG 1.1//EN"
 "http://www.w3.org/Graphics/SVG/1.1/DTD/svg11.dtd">
<!-- Generated by graphviz version 2.38.0 (20140413.2041)
 -->
<!-- Title: CKeePassIntegrator::rpcGetLogins Pages: 1 -->
<svg width="975pt" height="218pt"
 viewBox="0.00 0.00 975.00 218.00" xmlns="http://www.w3.org/2000/svg" xmlns:xlink="http://www.w3.org/1999/xlink">
<g id="graph0" class="graph" transform="scale(1 1) rotate(0) translate(4 214)">
<title>CKeePassIntegrator::rpcGetLogins</title>
<polygon fill="white" stroke="none" points="-4,4 -4,-214 971,-214 971,4 -4,4"/>
<!-- Node300 -->
<g id="node1" class="node"><title>Node300</title>
<polygon fill="#bfbfbf" stroke="black" points="0,-95 0,-125 105,-125 105,-95 0,-95"/>
<text text-anchor="start" x="8" y="-113" font-family="Helvetica,sans-Serif" font-size="10.00">CKeePassIntegrator</text>
<text text-anchor="middle" x="52.5" y="-102" font-family="Helvetica,sans-Serif" font-size="10.00">::rpcGetLogins</text>
</g>
<!-- Node301 -->
<g id="node2" class="node"><title>Node301</title>
<g id="a_node2"><a xlink:href="../../d3/de2/class_c_kee_pass_integrator.html#ae985d304459dde24548acaff08e75a42" target="_top" xlink:title="CKeePassIntegrator\l::retrievePassphrase">
<polygon fill="white" stroke="black" points="141,-120 141,-150 248,-150 248,-120 141,-120"/>
<text text-anchor="start" x="149" y="-138" font-family="Helvetica,sans-Serif" font-size="10.00">CKeePassIntegrator</text>
<text text-anchor="middle" x="194.5" y="-127" font-family="Helvetica,sans-Serif" font-size="10.00">::retrievePassphrase</text>
</a>
</g>
</g>
<!-- Node300&#45;&gt;Node301 -->
<g id="edge1" class="edge"><title>Node300&#45;&gt;Node301</title>
<path fill="none" stroke="midnightblue" d="M115.098,-121C123.593,-122.517 132.255,-124.063 140.575,-125.549"/>
<polygon fill="midnightblue" stroke="midnightblue" points="115.693,-117.551 105.233,-119.238 114.462,-124.442 115.693,-117.551"/>
</g>
<!-- Node311 -->
<g id="node12" class="node"><title>Node311</title>
<g id="a_node12"><a xlink:href="../../d3/de2/class_c_kee_pass_integrator.html#a8f0f9765dfaaf14fc9b2b780b5332c24" target="_top" xlink:title="CKeePassIntegrator\l::updatePassphrase">
<polygon fill="white" stroke="black" points="142,-71 142,-101 247,-101 247,-71 142,-71"/>
<text text-anchor="start" x="150" y="-89" font-family="Helvetica,sans-Serif" font-size="10.00">CKeePassIntegrator</text>
<text text-anchor="middle" x="194.5" y="-78" font-family="Helvetica,sans-Serif" font-size="10.00">::updatePassphrase</text>
</a>
</g>
</g>
<!-- Node300&#45;&gt;Node311 -->
<g id="edge12" class="edge"><title>Node300&#45;&gt;Node311</title>
<path fill="none" stroke="midnightblue" d="M115.214,-99.4205C124.151,-97.8884 133.271,-96.325 141.98,-94.8321"/>
<polygon fill="midnightblue" stroke="midnightblue" points="114.498,-95.9921 105.233,-101.131 115.681,-102.891 114.498,-95.9921"/>
</g>
<!-- Node302 -->
<g id="node3" class="node"><title>Node302</title>
<g id="a_node3"><a xlink:href="../../de/db0/group__map_wallet.html#ga4abcec3066e7c462f4564c159fc15031" target="_top" xlink:title="CWallet::ChangeWalletPassphrase">
<polygon fill="white" stroke="black" points="284,-114.5 284,-133.5 455,-133.5 455,-114.5 284,-114.5"/>
<text text-anchor="middle" x="369.5" y="-121.5" font-family="Helvetica,sans-Serif" font-size="10.00">CWallet::ChangeWalletPassphrase</text>
</a>
</g>
</g>
<!-- Node301&#45;&gt;Node302 -->
<g id="edge2" class="edge"><title>Node301&#45;&gt;Node302</title>
<path fill="none" stroke="midnightblue" d="M258.558,-130.991C266.769,-130.468 275.285,-129.927 283.778,-129.387"/>
<polygon fill="midnightblue" stroke="midnightblue" points="258.103,-127.512 248.346,-131.64 258.548,-134.498 258.103,-127.512"/>
</g>
<!-- Node306 -->
<g id="node7" class="node"><title>Node306</title>
<g id="a_node7"><a xlink:href="../../de/db0/group__map_wallet.html#ga7d19286b74feeb6219af749a1fa5330b" target="_top" xlink:title="CWallet::Unlock">
<polygon fill="white" stroke="black" points="325,-152.5 325,-171.5 414,-171.5 414,-152.5 325,-152.5"/>
<text text-anchor="middle" x="369.5" y="-159.5" font-family="Helvetica,sans-Serif" font-size="10.00">CWallet::Unlock</text>
</a>
</g>
</g>
<!-- Node301&#45;&gt;Node306 -->
<g id="edge6" class="edge"><title>Node301&#45;&gt;Node306</title>
<path fill="none" stroke="midnightblue" d="M258.328,-144.806C280.448,-148.258 304.806,-152.059 324.981,-155.208"/>
<polygon fill="midnightblue" stroke="midnightblue" points="258.766,-141.332 248.346,-143.248 257.686,-148.248 258.766,-141.332"/>
</g>
<!-- Node303 -->
<g id="node4" class="node"><title>Node303</title>
<g id="a_node4"><a xlink:href="../../d4/d27/class_wallet_model.html#a67ebff3f267b5c9973c0465184c085a4" target="_top" xlink:title="WalletModel::changePassphrase">
<polygon fill="white" stroke="black" points="492,-114.5 492,-133.5 652,-133.5 652,-114.5 492,-114.5"/>
<text text-anchor="middle" x="572" y="-121.5" font-family="Helvetica,sans-Serif" font-size="10.00">WalletModel::changePassphrase</text>
</a>
</g>
</g>
<!-- Node302&#45;&gt;Node303 -->
<g id="edge3" class="edge"><title>Node302&#45;&gt;Node303</title>
<path fill="none" stroke="midnightblue" d="M465.289,-124C474.226,-124 483.22,-124 491.988,-124"/>
<polygon fill="midnightblue" stroke="midnightblue" points="465.239,-120.5 455.239,-124 465.239,-127.5 465.239,-120.5"/>
</g>
<!-- Node305 -->
<g id="node6" class="node"><title>Node305</title>
<g id="a_node6"><a xlink:href="../../df/d1d/rpcwallet_8cpp.html#a63c3c88d86ea99e2c171b68a874fe8fe" target="_top" xlink:title="walletpassphrasechange">
<polygon fill="white" stroke="black" points="510,-76.5 510,-95.5 634,-95.5 634,-76.5 510,-76.5"/>
<text text-anchor="middle" x="572" y="-83.5" font-family="Helvetica,sans-Serif" font-size="10.00">walletpassphrasechange</text>
</a>
</g>
</g>
<!-- Node302&#45;&gt;Node305 -->
<g id="edge5" class="edge"><title>Node302&#45;&gt;Node305</title>
<path fill="none" stroke="midnightblue" d="M430.746,-112.582C459.434,-107.145 493.35,-100.717 520.643,-95.5439"/>
<polygon fill="midnightblue" stroke="midnightblue" points="430.009,-109.159 420.836,-114.46 431.313,-116.037 430.009,-109.159"/>
</g>
<!-- Node304 -->
<g id="node5" class="node"><title>Node304</title>
<g id="a_node5"><a xlink:href="../../d8/d70/class_ask_passphrase_dialog.html#ac2f176af3693b73870d26ef0bfc6cbb9" target="_top" xlink:title="AskPassphraseDialog\l::accept">
<polygon fill="white" stroke="black" points="691.5,-109 691.5,-139 804.5,-139 804.5,-109 691.5,-109"/>
<text text-anchor="start" x="699.5" y="-127" font-family="Helvetica,sans-Serif" font-size="10.00">AskPassphraseDialog</text>
<text text-anchor="middle" x="748" y="-116" font-family="Helvetica,sans-Serif" font-size="10.00">::accept</text>
</a>
</g>
</g>
<!-- Node303&#45;&gt;Node304 -->
<g id="edge4" class="edge"><title>Node303&#45;&gt;Node304</title>
<path fill="none" stroke="midnightblue" d="M662.413,-124C672.307,-124 682.159,-124 691.458,-124"/>
<polygon fill="midnightblue" stroke="midnightblue" points="662.108,-120.5 652.108,-124 662.108,-127.5 662.108,-120.5"/>
</g>
<!-- Node307 -->
<g id="node8" class="node"><title>Node307</title>
<g id="a_node8"><a xlink:href="../../d4/d27/class_wallet_model.html#aefc0dde78489bcc7e06690b27acdaf4d" target="_top" xlink:title="WalletModel::setWalletLocked">
<polygon fill="white" stroke="black" points="497.5,-190.5 497.5,-209.5 646.5,-209.5 646.5,-190.5 497.5,-190.5"/>
<text text-anchor="middle" x="572" y="-197.5" font-family="Helvetica,sans-Serif" font-size="10.00">WalletModel::setWalletLocked</text>
</a>
</g>
</g>
<!-- Node306&#45;&gt;Node307 -->
<g id="edge7" class="edge"><title>Node306&#45;&gt;Node307</title>
<path fill="none" stroke="midnightblue" d="M423.907,-172.122C453.99,-177.824 491.333,-184.901 520.864,-190.498"/>
<polygon fill="midnightblue" stroke="midnightblue" points="424.482,-168.669 414.006,-170.245 423.179,-175.546 424.482,-168.669"/>
</g>
<!-- Node310 -->
<g id="node11" class="node"><title>Node310</title>
<g id="a_node11"><a xlink:href="../../df/d1d/rpcwallet_8cpp.html#a001d7bf0dae09484298af47da1c84df6" target="_top" xlink:title="walletpassphrase">
<polygon fill="white" stroke="black" points="526,-152.5 526,-171.5 618,-171.5 618,-152.5 526,-152.5"/>
<text text-anchor="middle" x="572" y="-159.5" font-family="Helvetica,sans-Serif" font-size="10.00">walletpassphrase</text>
</a>
</g>
</g>
<!-- Node306&#45;&gt;Node310 -->
<g id="edge11" class="edge"><title>Node306&#45;&gt;Node310</title>
<path fill="none" stroke="midnightblue" d="M424.018,-162C455.8,-162 495.654,-162 525.842,-162"/>
<polygon fill="midnightblue" stroke="midnightblue" points="424.006,-158.5 414.006,-162 424.005,-165.5 424.006,-158.5"/>
</g>
<!-- Node307&#45;&gt;Node304 -->
<g id="edge8" class="edge"><title>Node307&#45;&gt;Node304</title>
<path fill="none" stroke="midnightblue" d="M633.474,-187.78C640.159,-185.8 646.788,-183.547 653,-181 679.841,-169.994 707.947,-151.963 726.353,-139.129"/>
<polygon fill="midnightblue" stroke="midnightblue" points="632.389,-184.449 623.685,-190.489 634.256,-191.195 632.389,-184.449"/>
</g>
<!-- Node308 -->
<g id="node9" class="node"><title>Node308</title>
<g id="a_node9"><a xlink:href="../../de/d44/class_wallet_view.html#ae76bd29c36d1cfa9bc986924a0454eeb" target="_top" xlink:title="Lock wallet. ">
<polygon fill="white" stroke="black" points="689,-190.5 689,-209.5 807,-209.5 807,-190.5 689,-190.5"/>
<text text-anchor="middle" x="748" y="-197.5" font-family="Helvetica,sans-Serif" font-size="10.00">WalletView::lockWallet</text>
</a>
</g>
</g>
<!-- Node307&#45;&gt;Node308 -->
<g id="edge9" class="edge"><title>Node307&#45;&gt;Node308</title>
<path fill="none" stroke="midnightblue" d="M656.846,-200C667.639,-200 678.497,-200 688.754,-200"/>
<polygon fill="midnightblue" stroke="midnightblue" points="656.539,-196.5 646.539,-200 656.539,-203.5 656.539,-196.5"/>
</g>
<!-- Node309 -->
<g id="node10" class="node"><title>Node309</title>
<g id="a_node10"><a xlink:href="../../d9/dff/class_wallet_frame.html#a0b94aa3ff7ae9ea4d3e31b038d8b9b25" target="_top" xlink:title="Lock wallet. ">
<polygon fill="white" stroke="black" points="843,-190.5 843,-209.5 967,-209.5 967,-190.5 843,-190.5"/>
<text text-anchor="middle" x="905" y="-197.5" font-family="Helvetica,sans-Serif" font-size="10.00">WalletFrame::lockWallet</text>
</a>
</g>
</g>
<!-- Node308&#45;&gt;Node309 -->
<g id="edge10" class="edge"><title>Node308&#45;&gt;Node309</title>
<path fill="none" stroke="midnightblue" d="M817.417,-200C825.912,-200 834.554,-200 842.928,-200"/>
<polygon fill="midnightblue" stroke="midnightblue" points="817.157,-196.5 807.157,-200 817.157,-203.5 817.157,-196.5"/>
</g>
<!-- Node311&#45;&gt;Node302 -->
<g id="edge14" class="edge"><title>Node311&#45;&gt;Node302</title>
<path fill="none" stroke="midnightblue" d="M257.194,-99.5512C279.651,-104.484 304.546,-109.952 325.087,-114.464"/>
<polygon fill="midnightblue" stroke="midnightblue" points="257.924,-96.1282 247.406,-97.4013 256.422,-102.965 257.924,-96.1282"/>
</g>
<!-- Node312 -->
<g id="node13" class="node"><title>Node312</title>
<g id="a_node13"><a xlink:href="../../df/d1d/rpcwallet_8cpp.html#a62a9c35d11a270620170701f577ae19f" target="_top" xlink:title="keepass">
<polygon fill="white" stroke="black" points="343,-76.5 343,-95.5 396,-95.5 396,-76.5 343,-76.5"/>
<text text-anchor="middle" x="369.5" y="-83.5" font-family="Helvetica,sans-Serif" font-size="10.00">keepass</text>
</a>
</g>
</g>
<!-- Node311&#45;&gt;Node312 -->
<g id="edge13" class="edge"><title>Node311&#45;&gt;Node312</title>
<path fill="none" stroke="midnightblue" d="M257.576,-86C286.879,-86 320.256,-86 342.676,-86"/>
<polygon fill="midnightblue" stroke="midnightblue" points="257.406,-82.5001 247.406,-86 257.406,-89.5001 257.406,-82.5001"/>
</g>
<!-- Node313 -->
<g id="node14" class="node"><title>Node313</title>
<g id="a_node14"><a xlink:href="../../de/db0/group__map_wallet.html#gab34fe5bf771619dcbe22a65f013e5469" target="_top" xlink:title="CWallet::EncryptWallet">
<polygon fill="white" stroke="black" points="310,-38.5 310,-57.5 429,-57.5 429,-38.5 310,-38.5"/>
<text text-anchor="middle" x="369.5" y="-45.5" font-family="Helvetica,sans-Serif" font-size="10.00">CWallet::EncryptWallet</text>
</a>
</g>
</g>
<!-- Node311&#45;&gt;Node313 -->
<g id="edge15" class="edge"><title>Node311&#45;&gt;Node313</title>
<path fill="none" stroke="midnightblue" d="M257.194,-72.4488C279.651,-67.5159 304.546,-62.0477 325.087,-57.5357"/>
<polygon fill="midnightblue" stroke="midnightblue" points="256.422,-69.0348 247.406,-74.5987 257.924,-75.8718 256.422,-69.0348"/>
</g>
<!-- Node314 -->
<g id="node15" class="node"><title>Node314</title>
<g id="a_node15"><a xlink:href="../../df/d1d/rpcwallet_8cpp.html#a080b6ac524f3796a7653dee70513227a" target="_top" xlink:title="encryptwallet">
<polygon fill="white" stroke="black" points="535,-38.5 535,-57.5 609,-57.5 609,-38.5 535,-38.5"/>
<text text-anchor="middle" x="572" y="-45.5" font-family="Helvetica,sans-Serif" font-size="10.00">encryptwallet</text>
</a>
</g>
</g>
<!-- Node313&#45;&gt;Node314 -->
<g id="edge16" class="edge"><title>Node313&#45;&gt;Node314</title>
<path fill="none" stroke="midnightblue" d="M439.262,-48C471.348,-48 508.224,-48 534.785,-48"/>
<polygon fill="midnightblue" stroke="midnightblue" points="439.032,-44.5001 429.032,-48 439.032,-51.5001 439.032,-44.5001"/>
</g>
<!-- Node315 -->
<g id="node16" class="node"><title>Node315</title>
<g id="a_node16"><a xlink:href="../../d4/d27/class_wallet_model.html#a444340830badcd48e3a4dd6b03d9c4d7" target="_top" xlink:title="WalletModel::setWalletEncrypted">
<polygon fill="white" stroke="black" points="491,-0.5 491,-19.5 653,-19.5 653,-0.5 491,-0.5"/>
<text text-anchor="middle" x="572" y="-7.5" font-family="Helvetica,sans-Serif" font-size="10.00">WalletModel::setWalletEncrypted</text>
</a>
</g>
</g>
<!-- Node313&#45;&gt;Node315 -->
<g id="edge17" class="edge"><title>Node313&#45;&gt;Node315</title>
<path fill="none" stroke="midnightblue" d="M430.746,-36.5819C459.434,-31.1448 493.35,-24.7168 520.643,-19.5439"/>
<polygon fill="midnightblue" stroke="midnightblue" points="430.009,-33.1591 420.836,-38.46 431.313,-40.0366 430.009,-33.1591"/>
</g>
<!-- Node315&#45;&gt;Node304 -->
<g id="edge18" class="edge"><title>Node315&#45;&gt;Node304</title>
<path fill="none" stroke="midnightblue" d="M640.498,-23.077C644.835,-24.8122 649.043,-26.7765 653,-29 689.208,-49.3451 720.738,-87.685 736.43,-108.908"/>
<polygon fill="midnightblue" stroke="midnightblue" points="641.445,-19.6985 630.85,-19.6328 639.091,-26.291 641.445,-19.6985"/>
</g>
</g>
</svg>
