<?xml version="1.0" encoding="UTF-8" standalone="no"?>
<!DOCTYPE svg PUBLIC "-//W3C//DTD SVG 1.1//EN"
 "http://www.w3.org/Graphics/SVG/1.1/DTD/svg11.dtd">
<!-- Generated by graphviz version 2.38.0 (20140413.2041)
 -->
<!-- Title: CWallet::LoadKey Pages: 1 -->
<svg width="832pt" height="104pt"
 viewBox="0.00 0.00 832.00 104.00" xmlns="http://www.w3.org/2000/svg" xmlns:xlink="http://www.w3.org/1999/xlink">
<g id="graph0" class="graph" transform="scale(1 1) rotate(0) translate(4 100)">
<title>CWallet::LoadKey</title>
<polygon fill="white" stroke="none" points="-4,4 -4,-100 828,-100 828,4 -4,4"/>
<!-- Node153 -->
<g id="node1" class="node"><title>Node153</title>
<polygon fill="#bfbfbf" stroke="black" points="0,-57.5 0,-76.5 96,-76.5 96,-57.5 0,-57.5"/>
<text text-anchor="middle" x="48" y="-64.5" font-family="Helvetica,sans-Serif" font-size="10.00">CWallet::LoadKey</text>
</g>
<!-- Node154 -->
<g id="node2" class="node"><title>Node154</title>
<g id="a_node2"><a xlink:href="../../dc/d75/walletdb_8cpp.html#ad1f171cf096f5479805a06fc20480343" target="_top" xlink:title="ReadKeyValue">
<polygon fill="white" stroke="black" points="132,-57.5 132,-76.5 214,-76.5 214,-57.5 132,-57.5"/>
<text text-anchor="middle" x="173" y="-64.5" font-family="Helvetica,sans-Serif" font-size="10.00">ReadKeyValue</text>
</a>
</g>
</g>
<!-- Node153&#45;&gt;Node154 -->
<g id="edge1" class="edge"><title>Node153&#45;&gt;Node154</title>
<path fill="none" stroke="midnightblue" d="M106.284,-67C114.95,-67 123.729,-67 131.927,-67"/>
<polygon fill="midnightblue" stroke="midnightblue" points="106.203,-63.5001 96.2032,-67 106.203,-70.5001 106.203,-63.5001"/>
</g>
<!-- Node155 -->
<g id="node3" class="node"><title>Node155</title>
<g id="a_node3"><a xlink:href="../../d4/d90/class_c_wallet_d_b.html#a14f26e53502d1a60dd2b034f830acf03" target="_top" xlink:title="CWalletDB::LoadWallet">
<polygon fill="white" stroke="black" points="250,-76.5 250,-95.5 371,-95.5 371,-76.5 250,-76.5"/>
<text text-anchor="middle" x="310.5" y="-83.5" font-family="Helvetica,sans-Serif" font-size="10.00">CWalletDB::LoadWallet</text>
</a>
</g>
</g>
<!-- Node154&#45;&gt;Node155 -->
<g id="edge2" class="edge"><title>Node154&#45;&gt;Node155</title>
<path fill="none" stroke="midnightblue" d="M224.224,-74.0425C232.555,-75.2107 241.266,-76.4321 249.804,-77.6293"/>
<polygon fill="midnightblue" stroke="midnightblue" points="224.677,-70.5718 214.288,-72.6492 223.705,-77.504 224.677,-70.5718"/>
</g>
<!-- Node161 -->
<g id="node9" class="node"><title>Node161</title>
<g id="a_node9"><a xlink:href="../../d4/d90/class_c_wallet_d_b.html#af9fa539659473e1484dc280ec01c0b70" target="_top" xlink:title="CWalletDB::Recover">
<polygon fill="white" stroke="black" points="256,-38.5 256,-57.5 365,-57.5 365,-38.5 256,-38.5"/>
<text text-anchor="middle" x="310.5" y="-45.5" font-family="Helvetica,sans-Serif" font-size="10.00">CWalletDB::Recover</text>
</a>
</g>
</g>
<!-- Node154&#45;&gt;Node161 -->
<g id="edge8" class="edge"><title>Node154&#45;&gt;Node161</title>
<path fill="none" stroke="midnightblue" d="M224.265,-59.9518C234.468,-58.521 245.24,-57.0106 255.565,-55.5628"/>
<polygon fill="midnightblue" stroke="midnightblue" points="223.705,-56.496 214.288,-61.3508 224.677,-63.4282 223.705,-56.496"/>
</g>
<!-- Node156 -->
<g id="node4" class="node"><title>Node156</title>
<g id="a_node4"><a xlink:href="../../dd/d3e/group___actions.html#ga5d7b244b8ed0cbe24233ee0b6ca3cae0" target="_top" xlink:title="CWallet::LoadWallet">
<polygon fill="white" stroke="black" points="408,-76.5 408,-95.5 515,-95.5 515,-76.5 408,-76.5"/>
<text text-anchor="middle" x="461.5" y="-83.5" font-family="Helvetica,sans-Serif" font-size="10.00">CWallet::LoadWallet</text>
</a>
</g>
</g>
<!-- Node155&#45;&gt;Node156 -->
<g id="edge3" class="edge"><title>Node155&#45;&gt;Node156</title>
<path fill="none" stroke="midnightblue" d="M381.302,-86C390.268,-86 399.326,-86 407.952,-86"/>
<polygon fill="midnightblue" stroke="midnightblue" points="381.246,-82.5001 371.245,-86 381.245,-89.5001 381.246,-82.5001"/>
</g>
<!-- Node157 -->
<g id="node5" class="node"><title>Node157</title>
<g id="a_node5"><a xlink:href="../../d8/dc0/init_8h.html#a6f0784aa332573f949b0975205572b28" target="_top" xlink:title="Initialize Dash Core. ">
<polygon fill="white" stroke="black" points="552,-57.5 552,-76.5 605,-76.5 605,-57.5 552,-57.5"/>
<text text-anchor="middle" x="578.5" y="-64.5" font-family="Helvetica,sans-Serif" font-size="10.00">AppInit2</text>
</a>
</g>
</g>
<!-- Node156&#45;&gt;Node157 -->
<g id="edge4" class="edge"><title>Node156&#45;&gt;Node157</title>
<path fill="none" stroke="midnightblue" d="M525.171,-75.6457C534.631,-74.0827 543.903,-72.5508 551.951,-71.2211"/>
<polygon fill="midnightblue" stroke="midnightblue" points="524.584,-72.1952 515.288,-77.2785 525.725,-79.1015 524.584,-72.1952"/>
</g>
<!-- Node158 -->
<g id="node6" class="node"><title>Node158</title>
<g id="a_node6"><a xlink:href="../../dd/de1/dashd_8cpp.html#ac59316b767e6984e1285f0531275286b" target="_top" xlink:title="AppInit">
<polygon fill="white" stroke="black" points="672,-76.5 672,-95.5 719,-95.5 719,-76.5 672,-76.5"/>
<text text-anchor="middle" x="695.5" y="-83.5" font-family="Helvetica,sans-Serif" font-size="10.00">AppInit</text>
</a>
</g>
</g>
<!-- Node157&#45;&gt;Node158 -->
<g id="edge5" class="edge"><title>Node157&#45;&gt;Node158</title>
<path fill="none" stroke="midnightblue" d="M615.14,-72.8884C633.614,-75.9406 655.626,-79.5773 671.775,-82.2455"/>
<polygon fill="midnightblue" stroke="midnightblue" points="615.459,-69.3937 605.022,-71.2167 614.318,-76.3001 615.459,-69.3937"/>
</g>
<!-- Node160 -->
<g id="node8" class="node"><title>Node160</title>
<g id="a_node8"><a xlink:href="../../d2/d76/class_bitcoin_core.html#af34ca069cda1d4362dcc109b4397fb62" target="_top" xlink:title="BitcoinCore::initialize">
<polygon fill="white" stroke="black" points="641,-38.5 641,-57.5 750,-57.5 750,-38.5 641,-38.5"/>
<text text-anchor="middle" x="695.5" y="-45.5" font-family="Helvetica,sans-Serif" font-size="10.00">BitcoinCore::initialize</text>
</a>
</g>
</g>
<!-- Node157&#45;&gt;Node160 -->
<g id="edge7" class="edge"><title>Node157&#45;&gt;Node160</title>
<path fill="none" stroke="midnightblue" d="M614.951,-61.1429C623.134,-59.7909 632.02,-58.3228 640.788,-56.8742"/>
<polygon fill="midnightblue" stroke="midnightblue" points="614.318,-57.6999 605.022,-62.7833 615.459,-64.6063 614.318,-57.6999"/>
</g>
<!-- Node159 -->
<g id="node7" class="node"><title>Node159</title>
<g id="a_node7"><a xlink:href="../../dd/de1/dashd_8cpp.html#a0ddf1224851353fc92bfbff6f499fa97" target="_top" xlink:title="main">
<polygon fill="white" stroke="black" points="786,-76.5 786,-95.5 824,-95.5 824,-76.5 786,-76.5"/>
<text text-anchor="middle" x="805" y="-83.5" font-family="Helvetica,sans-Serif" font-size="10.00">main</text>
</a>
</g>
</g>
<!-- Node158&#45;&gt;Node159 -->
<g id="edge6" class="edge"><title>Node158&#45;&gt;Node159</title>
<path fill="none" stroke="midnightblue" d="M729.151,-86C747.729,-86 770.304,-86 785.773,-86"/>
<polygon fill="midnightblue" stroke="midnightblue" points="729.036,-82.5001 719.036,-86 729.035,-89.5001 729.036,-82.5001"/>
</g>
<!-- Node162 -->
<g id="node10" class="node"><title>Node162</title>
<g id="a_node10"><a xlink:href="../../de/db0/group__map_wallet.html#ga2ed6fec1e8e0076d380351d5a469e4c8" target="_top" xlink:title="Verify the wallet database and perform salvage if required. ">
<polygon fill="white" stroke="black" points="420,-38.5 420,-57.5 503,-57.5 503,-38.5 420,-38.5"/>
<text text-anchor="middle" x="461.5" y="-45.5" font-family="Helvetica,sans-Serif" font-size="10.00">CWallet::Verify</text>
</a>
</g>
</g>
<!-- Node161&#45;&gt;Node162 -->
<g id="edge9" class="edge"><title>Node161&#45;&gt;Node162</title>
<path fill="none" stroke="midnightblue" d="M375.574,-48C390.604,-48 406.211,-48 419.884,-48"/>
<polygon fill="midnightblue" stroke="midnightblue" points="375.292,-44.5001 365.292,-48 375.292,-51.5001 375.292,-44.5001"/>
</g>
<!-- Node163 -->
<g id="node11" class="node"><title>Node163</title>
<g id="a_node11"><a xlink:href="../../d4/d90/class_c_wallet_d_b.html#ad6efdef4b446547fe9ea745c98609695" target="_top" xlink:title="CWalletDB::Recover">
<polygon fill="white" stroke="black" points="407,-0.5 407,-19.5 516,-19.5 516,-0.5 407,-0.5"/>
<text text-anchor="middle" x="461.5" y="-7.5" font-family="Helvetica,sans-Serif" font-size="10.00">CWalletDB::Recover</text>
</a>
</g>
</g>
<!-- Node161&#45;&gt;Node163 -->
<g id="edge11" class="edge"><title>Node161&#45;&gt;Node163</title>
<path fill="none" stroke="midnightblue" d="M358.992,-35.8879C379.744,-30.5956 403.728,-24.4787 423.171,-19.5201"/>
<polygon fill="midnightblue" stroke="midnightblue" points="357.924,-32.5482 349.099,-38.411 359.654,-39.3311 357.924,-32.5482"/>
</g>
<!-- Node162&#45;&gt;Node157 -->
<g id="edge10" class="edge"><title>Node162&#45;&gt;Node157</title>
<path fill="none" stroke="midnightblue" d="M513.091,-56.3585C526.42,-58.5606 540.251,-60.8458 551.664,-62.7314"/>
<polygon fill="midnightblue" stroke="midnightblue" points="513.482,-52.8757 503.045,-54.6987 512.34,-59.782 513.482,-52.8757"/>
</g>
</g>
</svg>
