<?xml version="1.0" encoding="UTF-8" standalone="no"?>
<!DOCTYPE svg PUBLIC "-//W3C//DTD SVG 1.1//EN"
 "http://www.w3.org/Graphics/SVG/1.1/DTD/svg11.dtd">
<!-- Generated by graphviz version 2.38.0 (20140413.2041)
 -->
<!-- Title: src/secp256k1/src/ecdsa_impl.h Pages: 1 -->
<svg width="282pt" height="162pt"
 viewBox="0.00 0.00 282.00 162.00" xmlns="http://www.w3.org/2000/svg" xmlns:xlink="http://www.w3.org/1999/xlink">
<g id="graph0" class="graph" transform="scale(1 1) rotate(0) translate(4 158)">
<title>src/secp256k1/src/ecdsa_impl.h</title>
<polygon fill="white" stroke="none" points="-4,4 -4,-158 278,-158 278,4 -4,4"/>
<!-- Node9 -->
<g id="node1" class="node"><title>Node9</title>
<polygon fill="#bfbfbf" stroke="black" points="73,-123.5 73,-153.5 199,-153.5 199,-123.5 73,-123.5"/>
<text text-anchor="start" x="81" y="-141.5" font-family="Helvetica,sans-Serif" font-size="10.00">src/secp256k1/src/ecdsa</text>
<text text-anchor="middle" x="136" y="-130.5" font-family="Helvetica,sans-Serif" font-size="10.00">_impl.h</text>
</g>
<!-- Node10 -->
<g id="node2" class="node"><title>Node10</title>
<g id="a_node2"><a xlink:href="../../d1/d8c/secp256k1_8c.html" target="_top" xlink:title="src/secp256k1/src/secp256k1.c">
<polygon fill="white" stroke="black" points="58.5,-67.5 58.5,-86.5 213.5,-86.5 213.5,-67.5 58.5,-67.5"/>
<text text-anchor="middle" x="136" y="-74.5" font-family="Helvetica,sans-Serif" font-size="10.00">src/secp256k1/src/secp256k1.c</text>
</a>
</g>
</g>
<!-- Node9&#45;&gt;Node10 -->
<g id="edge1" class="edge"><title>Node9&#45;&gt;Node10</title>
<path fill="none" stroke="midnightblue" d="M136,-113.289C136,-103.857 136,-93.6548 136,-86.6578"/>
<polygon fill="midnightblue" stroke="midnightblue" points="132.5,-113.399 136,-123.399 139.5,-113.399 132.5,-113.399"/>
</g>
<!-- Node11 -->
<g id="node3" class="node"><title>Node11</title>
<g id="a_node3"><a xlink:href="../../d9/d5e/bench__internal_8c.html" target="_top" xlink:title="src/secp256k1/src/bench\l_internal.c">
<polygon fill="white" stroke="black" points="0,-0.5 0,-30.5 126,-30.5 126,-0.5 0,-0.5"/>
<text text-anchor="start" x="8" y="-18.5" font-family="Helvetica,sans-Serif" font-size="10.00">src/secp256k1/src/bench</text>
<text text-anchor="middle" x="63" y="-7.5" font-family="Helvetica,sans-Serif" font-size="10.00">_internal.c</text>
</a>
</g>
</g>
<!-- Node10&#45;&gt;Node11 -->
<g id="edge2" class="edge"><title>Node10&#45;&gt;Node11</title>
<path fill="none" stroke="midnightblue" d="M117.5,-60.9215C106.038,-51.579 91.4168,-39.6616 80.2047,-30.523"/>
<polygon fill="midnightblue" stroke="midnightblue" points="115.578,-63.8701 125.541,-67.4751 120.001,-58.4442 115.578,-63.8701"/>
</g>
<!-- Node12 -->
<g id="node4" class="node"><title>Node12</title>
<g id="a_node4"><a xlink:href="../../d5/d7f/tests_8c.html" target="_top" xlink:title="src/secp256k1/src/tests.c">
<polygon fill="white" stroke="black" points="144,-6 144,-25 274,-25 274,-6 144,-6"/>
<text text-anchor="middle" x="209" y="-13" font-family="Helvetica,sans-Serif" font-size="10.00">src/secp256k1/src/tests.c</text>
</a>
</g>
</g>
<!-- Node10&#45;&gt;Node12 -->
<g id="edge3" class="edge"><title>Node10&#45;&gt;Node12</title>
<path fill="none" stroke="midnightblue" d="M154.437,-60.9727C168.399,-49.5925 187.076,-34.3694 198.56,-25.0091"/>
<polygon fill="midnightblue" stroke="midnightblue" points="151.999,-58.4442 146.459,-67.4751 156.422,-63.8701 151.999,-58.4442"/>
</g>
</g>
</svg>
