<?xml version="1.0" encoding="UTF-8" standalone="no"?>
<!DOCTYPE svg PUBLIC "-//W3C//DTD SVG 1.1//EN"
 "http://www.w3.org/Graphics/SVG/1.1/DTD/svg11.dtd">
<!-- Generated by graphviz version 2.38.0 (20140413.2041)
 -->
<!-- Title: src/masternode/activemasternode.h Pages: 1 -->
<svg width="2631pt" height="95pt"
 viewBox="0.00 0.00 2631.00 95.00" xmlns="http://www.w3.org/2000/svg" xmlns:xlink="http://www.w3.org/1999/xlink">
<g id="graph0" class="graph" transform="scale(1 1) rotate(0) translate(4 91)">
<title>src/masternode/activemasternode.h</title>
<polygon fill="white" stroke="none" points="-4,4 -4,-91 2627,-91 2627,4 -4,4"/>
<!-- Node171 -->
<g id="node1" class="node"><title>Node171</title>
<polygon fill="#bfbfbf" stroke="black" points="1221.5,-67.5 1221.5,-86.5 1412.5,-86.5 1412.5,-67.5 1221.5,-67.5"/>
<text text-anchor="middle" x="1317" y="-74.5" font-family="Helvetica,sans-Serif" font-size="10.00">src/masternode/activemasternode.h</text>
</g>
<!-- Node172 -->
<g id="node2" class="node"><title>Node172</title>
<g id="a_node2"><a xlink:href="mnauth_8cpp.html" target="_top" xlink:title="src/evo/mnauth.cpp">
<polygon fill="white" stroke="black" points="0,-6 0,-25 112,-25 112,-6 0,-6"/>
<text text-anchor="middle" x="56" y="-13" font-family="Helvetica,sans-Serif" font-size="10.00">src/evo/mnauth.cpp</text>
</a>
</g>
</g>
<!-- Node171&#45;&gt;Node172 -->
<g id="edge1" class="edge"><title>Node171&#45;&gt;Node172</title>
<path fill="none" stroke="midnightblue" d="M1211.1,-74.485C959.26,-70.4828 330.098,-58.0276 121,-31 110.451,-29.6364 99.0888,-27.3802 88.861,-25.0491"/>
<polygon fill="midnightblue" stroke="midnightblue" points="1211.3,-77.9885 1221.35,-74.6466 1211.41,-70.9893 1211.3,-77.9885"/>
</g>
<!-- Node173 -->
<g id="node3" class="node"><title>Node173</title>
<g id="a_node3"><a xlink:href="init_8cpp.html" target="_top" xlink:title="src/init.cpp">
<polygon fill="white" stroke="black" points="130,-6 130,-25 198,-25 198,-6 130,-6"/>
<text text-anchor="middle" x="164" y="-13" font-family="Helvetica,sans-Serif" font-size="10.00">src/init.cpp</text>
</a>
</g>
</g>
<!-- Node171&#45;&gt;Node173 -->
<g id="edge2" class="edge"><title>Node171&#45;&gt;Node173</title>
<path fill="none" stroke="midnightblue" d="M1211.22,-75.539C972.406,-73.8773 397.471,-66.2262 207,-31 199.873,-29.6819 192.315,-27.4385 185.556,-25.1051"/>
<polygon fill="midnightblue" stroke="midnightblue" points="1211.28,-79.0394 1221.3,-75.607 1211.33,-72.0396 1211.28,-79.0394"/>
</g>
<!-- Node174 -->
<g id="node4" class="node"><title>Node174</title>
<g id="a_node4"><a xlink:href="quorums_8cpp.html" target="_top" xlink:title="src/llmq/quorums.cpp">
<polygon fill="white" stroke="black" points="216,-6 216,-25 336,-25 336,-6 216,-6"/>
<text text-anchor="middle" x="276" y="-13" font-family="Helvetica,sans-Serif" font-size="10.00">src/llmq/quorums.cpp</text>
</a>
</g>
</g>
<!-- Node171&#45;&gt;Node174 -->
<g id="edge3" class="edge"><title>Node171&#45;&gt;Node174</title>
<path fill="none" stroke="midnightblue" d="M1211.15,-76.6541C1032.06,-76.5212 658.154,-70.8894 345,-31 333.95,-29.5925 322.037,-27.3534 311.271,-25.0519"/>
<polygon fill="midnightblue" stroke="midnightblue" points="1211.36,-80.1541 1221.36,-76.6559 1211.36,-73.1541 1211.36,-80.1541"/>
</g>
<!-- Node175 -->
<g id="node5" class="node"><title>Node175</title>
<g id="a_node5"><a xlink:href="quorums__dkgsession_8cpp.html" target="_top" xlink:title="src/llmq/quorums_dkgsession.cpp">
<polygon fill="white" stroke="black" points="354.5,-6 354.5,-25 533.5,-25 533.5,-6 354.5,-6"/>
<text text-anchor="middle" x="444" y="-13" font-family="Helvetica,sans-Serif" font-size="10.00">src/llmq/quorums_dkgsession.cpp</text>
</a>
</g>
</g>
<!-- Node171&#45;&gt;Node175 -->
<g id="edge4" class="edge"><title>Node171&#45;&gt;Node175</title>
<path fill="none" stroke="midnightblue" d="M1211.39,-72.7833C1062.17,-67.5739 781.234,-55.3249 543,-31 527.793,-29.4473 511.342,-27.2486 496.3,-25.0317"/>
<polygon fill="midnightblue" stroke="midnightblue" points="1211.35,-76.2839 1221.46,-73.1312 1211.59,-69.288 1211.35,-76.2839"/>
</g>
<!-- Node176 -->
<g id="node6" class="node"><title>Node176</title>
<g id="a_node6"><a xlink:href="quorums__dkgsessionhandler_8cpp.html" target="_top" xlink:title="src/llmq/quorums_dkgsessionhandler.cpp">
<polygon fill="white" stroke="black" points="552,-6 552,-25 766,-25 766,-6 552,-6"/>
<text text-anchor="middle" x="659" y="-13" font-family="Helvetica,sans-Serif" font-size="10.00">src/llmq/quorums_dkgsessionhandler.cpp</text>
</a>
</g>
</g>
<!-- Node171&#45;&gt;Node176 -->
<g id="edge5" class="edge"><title>Node171&#45;&gt;Node176</title>
<path fill="none" stroke="midnightblue" d="M1211.19,-68.5759C1101.66,-60.5759 925.677,-46.8399 774,-31 757.288,-29.2547 739.243,-27.1053 722.513,-25.0011"/>
<polygon fill="midnightblue" stroke="midnightblue" points="1211.02,-72.0729 1221.25,-69.3082 1211.53,-65.0913 1211.02,-72.0729"/>
</g>
<!-- Node177 -->
<g id="node7" class="node"><title>Node177</title>
<g id="a_node7"><a xlink:href="quorums__signing_8cpp.html" target="_top" xlink:title="src/llmq/quorums_signing.cpp">
<polygon fill="white" stroke="black" points="783.5,-6 783.5,-25 942.5,-25 942.5,-6 783.5,-6"/>
<text text-anchor="middle" x="863" y="-13" font-family="Helvetica,sans-Serif" font-size="10.00">src/llmq/quorums_signing.cpp</text>
</a>
</g>
</g>
<!-- Node171&#45;&gt;Node177 -->
<g id="edge6" class="edge"><title>Node171&#45;&gt;Node177</title>
<path fill="none" stroke="midnightblue" d="M1229.88,-66.3056C1155.64,-57.8013 1046.17,-44.6855 951,-31 938.586,-29.2148 925.218,-27.1077 912.742,-25.0611"/>
<polygon fill="midnightblue" stroke="midnightblue" points="1229.78,-69.8173 1240.12,-67.4746 1230.58,-62.8625 1229.78,-69.8173"/>
</g>
<!-- Node178 -->
<g id="node8" class="node"><title>Node178</title>
<g id="a_node8"><a xlink:href="quorums__signing__shares_8cpp.html" target="_top" xlink:title="src/llmq/quorums_signing\l_shares.cpp">
<polygon fill="white" stroke="black" points="960.5,-0.5 960.5,-30.5 1099.5,-30.5 1099.5,-0.5 960.5,-0.5"/>
<text text-anchor="start" x="968.5" y="-18.5" font-family="Helvetica,sans-Serif" font-size="10.00">src/llmq/quorums_signing</text>
<text text-anchor="middle" x="1030" y="-7.5" font-family="Helvetica,sans-Serif" font-size="10.00">_shares.cpp</text>
</a>
</g>
</g>
<!-- Node171&#45;&gt;Node178 -->
<g id="edge7" class="edge"><title>Node171&#45;&gt;Node178</title>
<path fill="none" stroke="midnightblue" d="M1265.94,-65.4146C1219.03,-55.6894 1149.18,-41.2071 1097.64,-30.523"/>
<polygon fill="midnightblue" stroke="midnightblue" points="1265.38,-68.8721 1275.88,-67.4751 1266.8,-62.0179 1265.38,-68.8721"/>
</g>
<!-- Node179 -->
<g id="node9" class="node"><title>Node179</title>
<g id="a_node9"><a xlink:href="activemasternode_8cpp.html" target="_top" xlink:title="src/masternode/activemasternode.cpp">
<polygon fill="white" stroke="black" points="1117.5,-6 1117.5,-25 1320.5,-25 1320.5,-6 1117.5,-6"/>
<text text-anchor="middle" x="1219" y="-13" font-family="Helvetica,sans-Serif" font-size="10.00">src/masternode/activemasternode.cpp</text>
</a>
</g>
</g>
<!-- Node171&#45;&gt;Node179 -->
<g id="edge8" class="edge"><title>Node171&#45;&gt;Node179</title>
<path fill="none" stroke="midnightblue" d="M1294.34,-62.2441C1275.41,-50.7498 1249.01,-34.7226 1233.01,-25.0091"/>
<polygon fill="midnightblue" stroke="midnightblue" points="1292.59,-65.277 1302.96,-67.4751 1296.23,-59.2935 1292.59,-65.277"/>
</g>
<!-- Node180 -->
<g id="node10" class="node"><title>Node180</title>
<g id="a_node10"><a xlink:href="masternode-payments_8cpp.html" target="_top" xlink:title="src/masternode/masternode\l&#45;payments.cpp">
<polygon fill="white" stroke="black" points="1339,-0.5 1339,-30.5 1493,-30.5 1493,-0.5 1339,-0.5"/>
<text text-anchor="start" x="1347" y="-18.5" font-family="Helvetica,sans-Serif" font-size="10.00">src/masternode/masternode</text>
<text text-anchor="middle" x="1416" y="-7.5" font-family="Helvetica,sans-Serif" font-size="10.00">&#45;payments.cpp</text>
</a>
</g>
</g>
<!-- Node171&#45;&gt;Node180 -->
<g id="edge9" class="edge"><title>Node171&#45;&gt;Node180</title>
<path fill="none" stroke="midnightblue" d="M1339.83,-62.2762C1355.68,-52.7541 1376.72,-40.1096 1392.67,-30.523"/>
<polygon fill="midnightblue" stroke="midnightblue" points="1337.95,-59.3238 1331.18,-67.4751 1341.56,-65.3236 1337.95,-59.3238"/>
</g>
<!-- Node181 -->
<g id="node11" class="node"><title>Node181</title>
<g id="a_node11"><a xlink:href="masternode-sync_8cpp.html" target="_top" xlink:title="src/masternode/masternode\l&#45;sync.cpp">
<polygon fill="white" stroke="black" points="1511,-0.5 1511,-30.5 1665,-30.5 1665,-0.5 1511,-0.5"/>
<text text-anchor="start" x="1519" y="-18.5" font-family="Helvetica,sans-Serif" font-size="10.00">src/masternode/masternode</text>
<text text-anchor="middle" x="1588" y="-7.5" font-family="Helvetica,sans-Serif" font-size="10.00">&#45;sync.cpp</text>
</a>
</g>
</g>
<!-- Node171&#45;&gt;Node181 -->
<g id="edge10" class="edge"><title>Node171&#45;&gt;Node181</title>
<path fill="none" stroke="midnightblue" d="M1365.77,-65.292C1410.06,-55.568 1475.67,-41.1623 1524.13,-30.523"/>
<polygon fill="midnightblue" stroke="midnightblue" points="1364.84,-61.912 1355.83,-67.4751 1366.35,-68.7491 1364.84,-61.912"/>
</g>
<!-- Node182 -->
<g id="node12" class="node"><title>Node182</title>
<g id="a_node12"><a xlink:href="privatesend-server_8cpp.html" target="_top" xlink:title="src/privatesend/privatesend\l&#45;server.cpp">
<polygon fill="white" stroke="black" points="1683.5,-0.5 1683.5,-30.5 1832.5,-30.5 1832.5,-0.5 1683.5,-0.5"/>
<text text-anchor="start" x="1691.5" y="-18.5" font-family="Helvetica,sans-Serif" font-size="10.00">src/privatesend/privatesend</text>
<text text-anchor="middle" x="1758" y="-7.5" font-family="Helvetica,sans-Serif" font-size="10.00">&#45;server.cpp</text>
</a>
</g>
</g>
<!-- Node171&#45;&gt;Node182 -->
<g id="edge11" class="edge"><title>Node171&#45;&gt;Node182</title>
<path fill="none" stroke="midnightblue" d="M1402.69,-66.3091C1475.1,-57.8539 1581.5,-44.8058 1674,-31 1677.07,-30.5412 1680.21,-30.0601 1683.37,-29.5635"/>
<polygon fill="midnightblue" stroke="midnightblue" points="1402.23,-62.8387 1392.7,-67.4712 1403.04,-69.7918 1402.23,-62.8387"/>
</g>
<!-- Node183 -->
<g id="node13" class="node"><title>Node183</title>
<g id="a_node13"><a xlink:href="privatesend_2privatesend_8cpp.html" target="_top" xlink:title="src/privatesend/privatesend.cpp">
<polygon fill="white" stroke="black" points="1851,-6 1851,-25 2021,-25 2021,-6 1851,-6"/>
<text text-anchor="middle" x="1936" y="-13" font-family="Helvetica,sans-Serif" font-size="10.00">src/privatesend/privatesend.cpp</text>
</a>
</g>
</g>
<!-- Node171&#45;&gt;Node183 -->
<g id="edge12" class="edge"><title>Node171&#45;&gt;Node183</title>
<path fill="none" stroke="midnightblue" d="M1422.6,-69.0536C1528.77,-61.575 1697.03,-48.3736 1842,-31 1855.94,-29.3298 1870.98,-27.1702 1884.86,-25.0303"/>
<polygon fill="midnightblue" stroke="midnightblue" points="1422.25,-65.5692 1412.52,-69.7594 1422.74,-72.5521 1422.25,-65.5692"/>
</g>
<!-- Node184 -->
<g id="node14" class="node"><title>Node184</title>
<g id="a_node14"><a xlink:href="masternodelist_8cpp.html" target="_top" xlink:title="src/qt/masternodelist.cpp">
<polygon fill="white" stroke="black" points="2039.5,-6 2039.5,-25 2178.5,-25 2178.5,-6 2039.5,-6"/>
<text text-anchor="middle" x="2109" y="-13" font-family="Helvetica,sans-Serif" font-size="10.00">src/qt/masternodelist.cpp</text>
</a>
</g>
</g>
<!-- Node171&#45;&gt;Node184 -->
<g id="edge13" class="edge"><title>Node171&#45;&gt;Node184</title>
<path fill="none" stroke="midnightblue" d="M1423.03,-73.2298C1562.62,-68.6866 1815.47,-57.3633 2030,-31 2042.32,-29.4863 2055.62,-27.2725 2067.73,-25.0284"/>
<polygon fill="midnightblue" stroke="midnightblue" points="1422.65,-69.7401 1412.77,-73.5583 1422.87,-76.7365 1422.65,-69.7401"/>
</g>
<!-- Node185 -->
<g id="node15" class="node"><title>Node185</title>
<g id="a_node15"><a xlink:href="rpc_2governance_8cpp.html" target="_top" xlink:title="src/rpc/governance.cpp">
<polygon fill="white" stroke="black" points="2197,-6 2197,-25 2325,-25 2325,-6 2197,-6"/>
<text text-anchor="middle" x="2261" y="-13" font-family="Helvetica,sans-Serif" font-size="10.00">src/rpc/governance.cpp</text>
</a>
</g>
</g>
<!-- Node171&#45;&gt;Node185 -->
<g id="edge14" class="edge"><title>Node171&#45;&gt;Node185</title>
<path fill="none" stroke="midnightblue" d="M1422.88,-75.4492C1587.26,-73.4873 1913.52,-65.1691 2188,-31 2199.54,-29.5634 2211.99,-27.3448 2223.28,-25.0716"/>
<polygon fill="midnightblue" stroke="midnightblue" points="1422.73,-71.9505 1412.77,-75.5642 1422.81,-78.9501 1422.73,-71.9505"/>
</g>
<!-- Node186 -->
<g id="node16" class="node"><title>Node186</title>
<g id="a_node16"><a xlink:href="masternode_8cpp.html" target="_top" xlink:title="src/rpc/masternode.cpp">
<polygon fill="white" stroke="black" points="2343.5,-6 2343.5,-25 2474.5,-25 2474.5,-6 2343.5,-6"/>
<text text-anchor="middle" x="2409" y="-13" font-family="Helvetica,sans-Serif" font-size="10.00">src/rpc/masternode.cpp</text>
</a>
</g>
</g>
<!-- Node171&#45;&gt;Node186 -->
<g id="edge15" class="edge"><title>Node171&#45;&gt;Node186</title>
<path fill="none" stroke="midnightblue" d="M1422.73,-76.4168C1608,-76.0124 2003.1,-70.0936 2334,-31 2345.99,-29.5841 2358.93,-27.3426 2370.63,-25.0414"/>
<polygon fill="midnightblue" stroke="midnightblue" points="1422.72,-72.9167 1412.72,-76.4337 1422.73,-79.9167 1422.72,-72.9167"/>
</g>
<!-- Node187 -->
<g id="node17" class="node"><title>Node187</title>
<g id="a_node17"><a xlink:href="rpcquorums_8cpp.html" target="_top" xlink:title="src/rpc/rpcquorums.cpp">
<polygon fill="white" stroke="black" points="2493,-6 2493,-25 2623,-25 2623,-6 2493,-6"/>
<text text-anchor="middle" x="2558" y="-13" font-family="Helvetica,sans-Serif" font-size="10.00">src/rpc/rpcquorums.cpp</text>
</a>
</g>
</g>
<!-- Node171&#45;&gt;Node187 -->
<g id="edge16" class="edge"><title>Node171&#45;&gt;Node187</title>
<path fill="none" stroke="midnightblue" d="M1422.99,-74.0168C1670.4,-69.0464 2280.4,-54.7283 2484,-31 2495.96,-29.6058 2508.89,-27.341 2520.53,-25.0114"/>
<polygon fill="midnightblue" stroke="midnightblue" points="1422.84,-70.5189 1412.92,-74.2181 1422.98,-77.5175 1422.84,-70.5189"/>
</g>
</g>
</svg>
