<?xml version="1.0" encoding="UTF-8" standalone="no"?>
<!DOCTYPE svg PUBLIC "-//W3C//DTD SVG 1.1//EN"
 "http://www.w3.org/Graphics/SVG/1.1/DTD/svg11.dtd">
<!-- Generated by graphviz version 2.38.0 (20140413.2041)
 -->
<!-- Title: src/qt/addresstablemodel.h Pages: 1 -->
<svg width="1659pt" height="84pt"
 viewBox="0.00 0.00 1659.00 84.00" xmlns="http://www.w3.org/2000/svg" xmlns:xlink="http://www.w3.org/1999/xlink">
<g id="graph0" class="graph" transform="scale(1 1) rotate(0) translate(4 80)">
<title>src/qt/addresstablemodel.h</title>
<polygon fill="white" stroke="none" points="-4,4 -4,-80 1655,-80 1655,4 -4,4"/>
<!-- Node85 -->
<g id="node1" class="node"><title>Node85</title>
<polygon fill="#bfbfbf" stroke="black" points="771,-56.5 771,-75.5 919,-75.5 919,-56.5 771,-56.5"/>
<text text-anchor="middle" x="845" y="-63.5" font-family="Helvetica,sans-Serif" font-size="10.00">src/qt/addresstablemodel.h</text>
</g>
<!-- Node86 -->
<g id="node2" class="node"><title>Node86</title>
<g id="a_node2"><a xlink:href="addressbookpage_8cpp.html" target="_top" xlink:title="src/qt/addressbookpage.cpp">
<polygon fill="white" stroke="black" points="0,-0.5 0,-19.5 152,-19.5 152,-0.5 0,-0.5"/>
<text text-anchor="middle" x="76" y="-7.5" font-family="Helvetica,sans-Serif" font-size="10.00">src/qt/addressbookpage.cpp</text>
</a>
</g>
</g>
<!-- Node85&#45;&gt;Node86 -->
<g id="edge1" class="edge"><title>Node85&#45;&gt;Node86</title>
<path fill="none" stroke="midnightblue" d="M760.566,-60.5289C631.328,-53.4404 376.737,-38.5106 161,-20 158.191,-19.759 155.33,-19.5041 152.442,-19.2389"/>
<polygon fill="midnightblue" stroke="midnightblue" points="760.61,-64.0364 770.786,-61.0874 760.992,-57.0469 760.61,-64.0364"/>
</g>
<!-- Node87 -->
<g id="node3" class="node"><title>Node87</title>
<g id="a_node3"><a xlink:href="addresstablemodel_8cpp.html" target="_top" xlink:title="src/qt/addresstablemodel.cpp">
<polygon fill="white" stroke="black" points="170.5,-0.5 170.5,-19.5 329.5,-19.5 329.5,-0.5 170.5,-0.5"/>
<text text-anchor="middle" x="250" y="-7.5" font-family="Helvetica,sans-Serif" font-size="10.00">src/qt/addresstablemodel.cpp</text>
</a>
</g>
</g>
<!-- Node85&#45;&gt;Node87 -->
<g id="edge2" class="edge"><title>Node85&#45;&gt;Node87</title>
<path fill="none" stroke="midnightblue" d="M760.719,-57.8181C660.263,-49.1853 487.333,-34.0953 339,-20 335.908,-19.7062 332.756,-19.4033 329.572,-19.0947"/>
<polygon fill="midnightblue" stroke="midnightblue" points="760.546,-61.316 770.808,-58.6844 761.145,-54.3417 760.546,-61.316"/>
</g>
<!-- Node88 -->
<g id="node4" class="node"><title>Node88</title>
<g id="a_node4"><a xlink:href="coincontroldialog_8cpp.html" target="_top" xlink:title="src/qt/coincontroldialog.cpp">
<polygon fill="white" stroke="black" points="348,-0.5 348,-19.5 496,-19.5 496,-0.5 348,-0.5"/>
<text text-anchor="middle" x="422" y="-7.5" font-family="Helvetica,sans-Serif" font-size="10.00">src/qt/coincontroldialog.cpp</text>
</a>
</g>
</g>
<!-- Node85&#45;&gt;Node88 -->
<g id="edge3" class="edge"><title>Node85&#45;&gt;Node88</title>
<path fill="none" stroke="midnightblue" d="M767.974,-55.1669C688.111,-44.9716 564.538,-29.1963 488.712,-19.5164"/>
<polygon fill="midnightblue" stroke="midnightblue" points="767.612,-58.649 777.974,-56.4435 768.498,-51.7053 767.612,-58.649"/>
</g>
<!-- Node89 -->
<g id="node5" class="node"><title>Node89</title>
<g id="a_node5"><a xlink:href="editaddressdialog_8cpp.html" target="_top" xlink:title="src/qt/editaddressdialog.cpp">
<polygon fill="white" stroke="black" points="514,-0.5 514,-19.5 666,-19.5 666,-0.5 514,-0.5"/>
<text text-anchor="middle" x="590" y="-7.5" font-family="Helvetica,sans-Serif" font-size="10.00">src/qt/editaddressdialog.cpp</text>
</a>
</g>
</g>
<!-- Node85&#45;&gt;Node89 -->
<g id="edge4" class="edge"><title>Node85&#45;&gt;Node89</title>
<path fill="none" stroke="midnightblue" d="M794.688,-54.3456C746.497,-44.1405 674.717,-28.94 630.216,-19.5164"/>
<polygon fill="midnightblue" stroke="midnightblue" points="794.086,-57.7958 804.594,-56.4435 795.537,-50.9477 794.086,-57.7958"/>
</g>
<!-- Node90 -->
<g id="node6" class="node"><title>Node90</title>
<g id="a_node6"><a xlink:href="receivecoinsdialog_8cpp.html" target="_top" xlink:title="src/qt/receivecoinsdialog.cpp">
<polygon fill="white" stroke="black" points="684.5,-0.5 684.5,-19.5 839.5,-19.5 839.5,-0.5 684.5,-0.5"/>
<text text-anchor="middle" x="762" y="-7.5" font-family="Helvetica,sans-Serif" font-size="10.00">src/qt/receivecoinsdialog.cpp</text>
</a>
</g>
</g>
<!-- Node85&#45;&gt;Node90 -->
<g id="edge5" class="edge"><title>Node85&#45;&gt;Node90</title>
<path fill="none" stroke="midnightblue" d="M822.901,-50.6221C807.738,-40.7574 788.117,-27.9919 775.302,-19.6545"/>
<polygon fill="midnightblue" stroke="midnightblue" points="821.374,-53.8042 831.665,-56.324 825.191,-47.9367 821.374,-53.8042"/>
</g>
<!-- Node91 -->
<g id="node7" class="node"><title>Node91</title>
<g id="a_node7"><a xlink:href="sendcoinsdialog_8cpp.html" target="_top" xlink:title="src/qt/sendcoinsdialog.cpp">
<polygon fill="white" stroke="black" points="857.5,-0.5 857.5,-19.5 1000.5,-19.5 1000.5,-0.5 857.5,-0.5"/>
<text text-anchor="middle" x="929" y="-7.5" font-family="Helvetica,sans-Serif" font-size="10.00">src/qt/sendcoinsdialog.cpp</text>
</a>
</g>
</g>
<!-- Node85&#45;&gt;Node91 -->
<g id="edge6" class="edge"><title>Node85&#45;&gt;Node91</title>
<path fill="none" stroke="midnightblue" d="M866.932,-50.9005C882.335,-40.9986 902.446,-28.0705 915.537,-19.6545"/>
<polygon fill="midnightblue" stroke="midnightblue" points="865.015,-47.9722 858.496,-56.324 868.801,-53.8605 865.015,-47.9722"/>
</g>
<!-- Node92 -->
<g id="node8" class="node"><title>Node92</title>
<g id="a_node8"><a xlink:href="sendcoinsentry_8cpp.html" target="_top" xlink:title="src/qt/sendcoinsentry.cpp">
<polygon fill="white" stroke="black" points="1019,-0.5 1019,-19.5 1157,-19.5 1157,-0.5 1019,-0.5"/>
<text text-anchor="middle" x="1088" y="-7.5" font-family="Helvetica,sans-Serif" font-size="10.00">src/qt/sendcoinsentry.cpp</text>
</a>
</g>
</g>
<!-- Node85&#45;&gt;Node92 -->
<g id="edge7" class="edge"><title>Node85&#45;&gt;Node92</title>
<path fill="none" stroke="midnightblue" d="M893.522,-54.2172C939.44,-44.0134 1007.45,-28.9006 1049.68,-19.5164"/>
<polygon fill="midnightblue" stroke="midnightblue" points="892.507,-50.8575 883.504,-56.4435 894.025,-57.6908 892.507,-50.8575"/>
</g>
<!-- Node93 -->
<g id="node9" class="node"><title>Node93</title>
<g id="a_node9"><a xlink:href="transactiontablemodel_8cpp.html" target="_top" xlink:title="src/qt/transactiontablemodel.cpp">
<polygon fill="white" stroke="black" points="1175.5,-0.5 1175.5,-19.5 1350.5,-19.5 1350.5,-0.5 1175.5,-0.5"/>
<text text-anchor="middle" x="1263" y="-7.5" font-family="Helvetica,sans-Serif" font-size="10.00">src/qt/transactiontablemodel.cpp</text>
</a>
</g>
</g>
<!-- Node85&#45;&gt;Node93 -->
<g id="edge8" class="edge"><title>Node85&#45;&gt;Node93</title>
<path fill="none" stroke="midnightblue" d="M921.598,-55.1046C1000.53,-44.9074 1122.3,-29.1766 1197.08,-19.5164"/>
<polygon fill="midnightblue" stroke="midnightblue" points="920.702,-51.6911 911.233,-56.4435 921.599,-58.6334 920.702,-51.6911"/>
</g>
<!-- Node94 -->
<g id="node10" class="node"><title>Node94</title>
<g id="a_node10"><a xlink:href="transactionview_8cpp.html" target="_top" xlink:title="src/qt/transactionview.cpp">
<polygon fill="white" stroke="black" points="1369,-0.5 1369,-19.5 1509,-19.5 1509,-0.5 1369,-0.5"/>
<text text-anchor="middle" x="1439" y="-7.5" font-family="Helvetica,sans-Serif" font-size="10.00">src/qt/transactionview.cpp</text>
</a>
</g>
</g>
<!-- Node85&#45;&gt;Node94 -->
<g id="edge9" class="edge"><title>Node85&#45;&gt;Node94</title>
<path fill="none" stroke="midnightblue" d="M929.503,-58.3014C1031.58,-50.0513 1208.48,-35.2477 1360,-20 1362.88,-19.7097 1365.83,-19.4065 1368.8,-19.0945"/>
<polygon fill="midnightblue" stroke="midnightblue" points="928.941,-54.8353 919.255,-59.128 929.504,-61.8126 928.941,-54.8353"/>
</g>
<!-- Node95 -->
<g id="node11" class="node"><title>Node95</title>
<g id="a_node11"><a xlink:href="walletmodel_8cpp.html" target="_top" xlink:title="src/qt/walletmodel.cpp">
<polygon fill="white" stroke="black" points="1527,-0.5 1527,-19.5 1651,-19.5 1651,-0.5 1527,-0.5"/>
<text text-anchor="middle" x="1589" y="-7.5" font-family="Helvetica,sans-Serif" font-size="10.00">src/qt/walletmodel.cpp</text>
</a>
</g>
</g>
<!-- Node85&#45;&gt;Node95 -->
<g id="edge10" class="edge"><title>Node85&#45;&gt;Node95</title>
<path fill="none" stroke="midnightblue" d="M929.406,-60.9668C1057.02,-54.5046 1306.64,-40.4445 1518,-20 1520.84,-19.7249 1523.75,-19.4265 1526.69,-19.1114"/>
<polygon fill="midnightblue" stroke="midnightblue" points="929.121,-57.4766 919.31,-61.475 929.473,-64.4677 929.121,-57.4766"/>
</g>
</g>
</svg>
