<?xml version="1.0" encoding="UTF-8" standalone="no"?>
<!DOCTYPE svg PUBLIC "-//W3C//DTD SVG 1.1//EN"
 "http://www.w3.org/Graphics/SVG/1.1/DTD/svg11.dtd">
<!-- Generated by graphviz version 2.38.0 (20140413.2041)
 -->
<!-- Title: MoneyRange Pages: 1 -->
<svg width="980pt" height="1057pt"
 viewBox="0.00 0.00 980.00 1056.50" xmlns="http://www.w3.org/2000/svg" xmlns:xlink="http://www.w3.org/1999/xlink">
<g id="graph0" class="graph" transform="scale(1 1) rotate(0) translate(4 1052.5)">
<title>MoneyRange</title>
<polygon fill="white" stroke="none" points="-4,4 -4,-1052.5 976,-1052.5 976,4 -4,4"/>
<!-- Node1 -->
<g id="node1" class="node"><title>Node1</title>
<polygon fill="#bfbfbf" stroke="black" points="0,-274 0,-293 74,-293 74,-274 0,-274"/>
<text text-anchor="middle" x="37" y="-281" font-family="Helvetica,sans-Serif" font-size="10.00">MoneyRange</text>
</g>
<!-- Node2 -->
<g id="node2" class="node"><title>Node2</title>
<g id="a_node2"><a xlink:href="server_8h.html#abee2131e97f3e3d0ab3bdc47916e29f4" target="_top" xlink:title="AmountFromValue">
<polygon fill="white" stroke="black" points="137.5,-896 137.5,-915 235.5,-915 235.5,-896 137.5,-896"/>
<text text-anchor="middle" x="186.5" y="-903" font-family="Helvetica,sans-Serif" font-size="10.00">AmountFromValue</text>
</a>
</g>
</g>
<!-- Node1&#45;&gt;Node2 -->
<g id="edge1" class="edge"><title>Node1&#45;&gt;Node2</title>
<path fill="none" stroke="midnightblue" d="M39.5111,-303.095C44.6994,-365.81 64.0636,-566.831 110,-726.5 129.303,-793.595 166.753,-869.219 180.382,-895.711"/>
<polygon fill="midnightblue" stroke="midnightblue" points="42.9926,-302.723 38.704,-293.035 36.015,-303.283 42.9926,-302.723"/>
</g>
<!-- Node10 -->
<g id="node10" class="node"><title>Node10</title>
<g id="a_node10"><a xlink:href="validation_8h.html#a3d8c4ba3a0c2b7a05cab21c95a886fbe" target="_top" xlink:title="Context&#45;independent validity checks. ">
<polygon fill="white" stroke="black" points="334.5,-763 334.5,-782 430.5,-782 430.5,-763 334.5,-763"/>
<text text-anchor="middle" x="382.5" y="-770" font-family="Helvetica,sans-Serif" font-size="10.00">CheckTransaction</text>
</a>
</g>
</g>
<!-- Node1&#45;&gt;Node10 -->
<g id="edge9" class="edge"><title>Node1&#45;&gt;Node10</title>
<path fill="none" stroke="midnightblue" d="M40.0259,-303.254C47.0639,-368.882 72.1101,-578.588 110,-633.5 166.51,-715.397 207.2,-715.117 299,-753.5 310.119,-758.149 322.58,-761.769 334.382,-764.543"/>
<polygon fill="midnightblue" stroke="midnightblue" points="43.4803,-302.635 38.9541,-293.056 36.5186,-303.367 43.4803,-302.635"/>
</g>
<!-- Node98 -->
<g id="node21" class="node"><title>Node98</title>
<g id="a_node21"><a xlink:href="namespace_consensus.html#a2d40a2ddecaf3558235c01991ee52e47" target="_top" xlink:title="Consensus::CheckTxInputs">
<polygon fill="white" stroke="black" points="313,-564 313,-583 452,-583 452,-564 313,-564"/>
<text text-anchor="middle" x="382.5" y="-571" font-family="Helvetica,sans-Serif" font-size="10.00">Consensus::CheckTxInputs</text>
</a>
</g>
</g>
<!-- Node1&#45;&gt;Node98 -->
<g id="edge22" class="edge"><title>Node1&#45;&gt;Node98</title>
<path fill="none" stroke="midnightblue" d="M45.0565,-302.892C55.8428,-330.619 78.5406,-382.14 110,-417.5 178.104,-494.048 206.581,-505.268 299,-549.5 311.513,-555.489 325.823,-560.294 338.972,-563.985"/>
<polygon fill="midnightblue" stroke="midnightblue" points="48.2046,-301.321 41.3982,-293.202 41.6557,-303.794 48.2046,-301.321"/>
</g>
<!-- Node101 -->
<g id="node24" class="node"><title>Node101</title>
<g id="a_node24"><a xlink:href="group__map_wallet.html#ga49cae757845e1bf0cb3c8e17bd96d4a1" target="_top" xlink:title="CWalletTx::GetAnonymized\lCredit">
<polygon fill="white" stroke="black" points="117,-268.5 117,-298.5 256,-298.5 256,-268.5 117,-268.5"/>
<text text-anchor="start" x="125" y="-286.5" font-family="Helvetica,sans-Serif" font-size="10.00">CWalletTx::GetAnonymized</text>
<text text-anchor="middle" x="186.5" y="-275.5" font-family="Helvetica,sans-Serif" font-size="10.00">Credit</text>
</a>
</g>
</g>
<!-- Node1&#45;&gt;Node101 -->
<g id="edge27" class="edge"><title>Node1&#45;&gt;Node101</title>
<path fill="none" stroke="midnightblue" d="M84.1658,-283.5C94.5719,-283.5 105.834,-283.5 116.938,-283.5"/>
<polygon fill="midnightblue" stroke="midnightblue" points="84.0826,-280 74.0826,-283.5 84.0825,-287 84.0826,-280"/>
</g>
<!-- Node102 -->
<g id="node25" class="node"><title>Node102</title>
<g id="a_node25"><a xlink:href="group__map_wallet.html#gaf3c82ba365c720dd3d929b86bf432ef6" target="_top" xlink:title="CWalletTx::GetAvailableCredit">
<polygon fill="white" stroke="black" points="111,-605 111,-624 262,-624 262,-605 111,-605"/>
<text text-anchor="middle" x="186.5" y="-612" font-family="Helvetica,sans-Serif" font-size="10.00">CWalletTx::GetAvailableCredit</text>
</a>
</g>
</g>
<!-- Node1&#45;&gt;Node102 -->
<g id="edge28" class="edge"><title>Node1&#45;&gt;Node102</title>
<path fill="none" stroke="midnightblue" d="M41.2113,-303.176C48.6644,-345.367 69.6544,-446.843 110,-522.5 127.987,-556.229 159.405,-589.254 175.45,-604.979"/>
<polygon fill="midnightblue" stroke="midnightblue" points="44.6298,-302.401 39.4982,-293.132 37.7294,-303.578 44.6298,-302.401"/>
</g>
<!-- Node134 -->
<g id="node32" class="node"><title>Node134</title>
<g id="a_node32"><a xlink:href="group__map_wallet.html#gac78c4da3c420b2b28370cba7044dd68d" target="_top" xlink:title="CWalletTx::GetAvailableWatch\lOnlyCredit">
<polygon fill="white" stroke="black" points="110,-219.5 110,-249.5 263,-249.5 263,-219.5 110,-219.5"/>
<text text-anchor="start" x="118" y="-237.5" font-family="Helvetica,sans-Serif" font-size="10.00">CWalletTx::GetAvailableWatch</text>
<text text-anchor="middle" x="186.5" y="-226.5" font-family="Helvetica,sans-Serif" font-size="10.00">OnlyCredit</text>
</a>
</g>
</g>
<!-- Node1&#45;&gt;Node134 -->
<g id="edge35" class="edge"><title>Node1&#45;&gt;Node134</title>
<path fill="none" stroke="midnightblue" d="M74.5501,-270.599C85.8898,-266.653 98.4434,-262.342 110,-258.5 118.875,-255.549 128.362,-252.473 137.51,-249.545"/>
<polygon fill="midnightblue" stroke="midnightblue" points="73.239,-267.35 64.9529,-273.952 75.5477,-273.958 73.239,-267.35"/>
</g>
<!-- Node139 -->
<g id="node35" class="node"><title>Node139</title>
<g id="a_node35"><a xlink:href="group__map_wallet.html#gac1abe6ee00d6a8f20e92e164c423a6d5" target="_top" xlink:title="CWallet::GetChange">
<polygon fill="white" stroke="black" points="133,-181 133,-200 240,-200 240,-181 133,-181"/>
<text text-anchor="middle" x="186.5" y="-188" font-family="Helvetica,sans-Serif" font-size="10.00">CWallet::GetChange</text>
</a>
</g>
</g>
<!-- Node1&#45;&gt;Node139 -->
<g id="edge38" class="edge"><title>Node1&#45;&gt;Node139</title>
<path fill="none" stroke="midnightblue" d="M50.8417,-265.416C63.8468,-248.446 85.4959,-223.622 110,-209.5 117.026,-205.451 124.907,-202.256 132.854,-199.737"/>
<polygon fill="midnightblue" stroke="midnightblue" points="47.6836,-263.799 44.5427,-273.918 53.3081,-267.967 47.6836,-263.799"/>
</g>
<!-- Node140 -->
<g id="node36" class="node"><title>Node140</title>
<g id="a_node36"><a xlink:href="group__map_wallet.html#gaa60b69c7d4ea6063ed83b13d7c6fe695" target="_top" xlink:title="CWallet::GetCredit">
<polygon fill="white" stroke="black" points="136.5,-318 136.5,-337 236.5,-337 236.5,-318 136.5,-318"/>
<text text-anchor="middle" x="186.5" y="-325" font-family="Helvetica,sans-Serif" font-size="10.00">CWallet::GetCredit</text>
</a>
</g>
</g>
<!-- Node1&#45;&gt;Node140 -->
<g id="edge39" class="edge"><title>Node1&#45;&gt;Node140</title>
<path fill="none" stroke="midnightblue" d="M74.7587,-296.247C86.0204,-300.019 98.478,-304.057 110,-307.5 122.213,-311.149 135.636,-314.815 147.734,-317.993"/>
<polygon fill="midnightblue" stroke="midnightblue" points="75.8177,-292.911 65.2234,-293.023 73.5754,-299.542 75.8177,-292.911"/>
</g>
<!-- Node149 -->
<g id="node38" class="node"><title>Node149</title>
<g id="a_node38"><a xlink:href="group__map_wallet.html#gab443cb2d3a96e324587625e6b41ebcbf" target="_top" xlink:title="CWallet::GetDebit">
<polygon fill="white" stroke="black" points="138,-143 138,-162 235,-162 235,-143 138,-143"/>
<text text-anchor="middle" x="186.5" y="-150" font-family="Helvetica,sans-Serif" font-size="10.00">CWallet::GetDebit</text>
</a>
</g>
</g>
<!-- Node1&#45;&gt;Node149 -->
<g id="edge41" class="edge"><title>Node1&#45;&gt;Node149</title>
<path fill="none" stroke="midnightblue" d="M45.0413,-264.424C55.3492,-239.211 76.9829,-195.221 110,-171.5 118.233,-165.585 128.122,-161.505 137.99,-158.693"/>
<polygon fill="midnightblue" stroke="midnightblue" points="41.6925,-263.378 41.317,-273.966 48.2134,-265.923 41.6925,-263.378"/>
</g>
<!-- Node150 -->
<g id="node39" class="node"><title>Node150</title>
<g id="a_node39"><a xlink:href="group__map_wallet.html#gadd56840ebbe56702eeddbfda1870d628" target="_top" xlink:title="CWalletTx::GetDenominated\lCredit">
<polygon fill="white" stroke="black" points="115,-93.5 115,-123.5 258,-123.5 258,-93.5 115,-93.5"/>
<text text-anchor="start" x="123" y="-111.5" font-family="Helvetica,sans-Serif" font-size="10.00">CWalletTx::GetDenominated</text>
<text text-anchor="middle" x="186.5" y="-100.5" font-family="Helvetica,sans-Serif" font-size="10.00">Credit</text>
</a>
</g>
</g>
<!-- Node1&#45;&gt;Node150 -->
<g id="edge42" class="edge"><title>Node1&#45;&gt;Node150</title>
<path fill="none" stroke="midnightblue" d="M42.1498,-263.98C49.9178,-232.134 69.6469,-169.001 110,-133.5 114.354,-129.669 119.312,-126.423 124.557,-123.672"/>
<polygon fill="midnightblue" stroke="midnightblue" points="38.7118,-263.313 39.8867,-273.843 45.5345,-264.879 38.7118,-263.313"/>
</g>
<!-- Node158 -->
<g id="node41" class="node"><title>Node158</title>
<g id="a_node41"><a xlink:href="class_c_transaction.html#aa4ce691dbb2ce32838d94d15801f6644" target="_top" xlink:title="CTransaction::GetValueOut">
<polygon fill="white" stroke="black" points="118,-389 118,-408 255,-408 255,-389 118,-389"/>
<text text-anchor="middle" x="186.5" y="-396" font-family="Helvetica,sans-Serif" font-size="10.00">CTransaction::GetValueOut</text>
</a>
</g>
</g>
<!-- Node1&#45;&gt;Node158 -->
<g id="edge44" class="edge"><title>Node1&#45;&gt;Node158</title>
<path fill="none" stroke="midnightblue" d="M56.014,-300.301C70.286,-313.353 90.929,-331.669 110,-346.5 130.228,-362.231 154.875,-378.742 170.382,-388.831"/>
<polygon fill="midnightblue" stroke="midnightblue" points="58.1323,-297.493 48.407,-293.29 53.3883,-302.64 58.1323,-297.493"/>
</g>
<!-- Node169 -->
<g id="node47" class="node"><title>Node169</title>
<g id="a_node47"><a xlink:href="governance-classes_8cpp.html#a2ee32938a58d62a11dbdc9b334261388" target="_top" xlink:title="ParsePaymentAmount">
<polygon fill="white" stroke="black" points="129,-55 129,-74 244,-74 244,-55 129,-55"/>
<text text-anchor="middle" x="186.5" y="-62" font-family="Helvetica,sans-Serif" font-size="10.00">ParsePaymentAmount</text>
</a>
</g>
</g>
<!-- Node1&#45;&gt;Node169 -->
<g id="edge55" class="edge"><title>Node1&#45;&gt;Node169</title>
<path fill="none" stroke="midnightblue" d="M39.1704,-263.756C42.6487,-223.592 56.3573,-132.078 110,-83.5 115.41,-78.6007 121.897,-74.9229 128.766,-72.1693"/>
<polygon fill="midnightblue" stroke="midnightblue" points="35.6709,-263.62 38.4233,-273.851 42.6518,-264.137 35.6709,-263.62"/>
</g>
<!-- Node172 -->
<g id="node49" class="node"><title>Node172</title>
<g id="a_node49"><a xlink:href="class_payment_server.html#a358c2a0b03c42eef883030f55cdc8a03" target="_top" xlink:title="PaymentServer::verifyAmount">
<polygon fill="white" stroke="black" points="112.5,-12 112.5,-31 260.5,-31 260.5,-12 112.5,-12"/>
<text text-anchor="middle" x="186.5" y="-19" font-family="Helvetica,sans-Serif" font-size="10.00">PaymentServer::verifyAmount</text>
</a>
</g>
</g>
<!-- Node1&#45;&gt;Node172 -->
<g id="edge57" class="edge"><title>Node1&#45;&gt;Node172</title>
<path fill="none" stroke="midnightblue" d="M38.115,-263.511C39.48,-218.261 49.2147,-107.143 110,-45.5 116.277,-39.1343 124.234,-34.4539 132.613,-31.0134"/>
<polygon fill="midnightblue" stroke="midnightblue" points="34.611,-263.689 37.9206,-273.754 41.6098,-263.822 34.611,-263.689"/>
</g>
<!-- Node3 -->
<g id="node3" class="node"><title>Node3</title>
<g id="a_node3"><a xlink:href="server_8h.html#a4724b5b7ead10882a61f7c8830016e75" target="_top" xlink:title="createrawtransaction">
<polygon fill="white" stroke="black" points="329,-839 329,-858 436,-858 436,-839 329,-839"/>
<text text-anchor="middle" x="382.5" y="-846" font-family="Helvetica,sans-Serif" font-size="10.00">createrawtransaction</text>
</a>
</g>
</g>
<!-- Node2&#45;&gt;Node3 -->
<g id="edge2" class="edge"><title>Node2&#45;&gt;Node3</title>
<path fill="none" stroke="midnightblue" d="M222.456,-892.561C244.286,-884.737 273.074,-874.883 299,-867.5 311.016,-864.079 324.147,-860.835 336.329,-858.027"/>
<polygon fill="midnightblue" stroke="midnightblue" points="221.166,-889.305 212.952,-895.996 223.546,-895.888 221.166,-889.305"/>
</g>
<!-- Node4 -->
<g id="node4" class="node"><title>Node4</title>
<g id="a_node4"><a xlink:href="rpcwallet_8cpp.html#a36f0a0b6cd58a61c125bbe7a39ed1368" target="_top" xlink:title="sendtoaddress">
<polygon fill="white" stroke="black" points="342.5,-801 342.5,-820 422.5,-820 422.5,-801 342.5,-801"/>
<text text-anchor="middle" x="382.5" y="-808" font-family="Helvetica,sans-Serif" font-size="10.00">sendtoaddress</text>
</a>
</g>
</g>
<!-- Node2&#45;&gt;Node4 -->
<g id="edge3" class="edge"><title>Node2&#45;&gt;Node4</title>
<path fill="none" stroke="midnightblue" d="M206.235,-889.463C227.4,-872.161 263.535,-845.012 299,-829.5 312.601,-823.551 328.311,-819.339 342.35,-816.419"/>
<polygon fill="midnightblue" stroke="midnightblue" points="203.83,-886.912 198.381,-895.998 208.307,-892.293 203.83,-886.912"/>
</g>
<!-- Node5 -->
<g id="node5" class="node"><title>Node5</title>
<g id="a_node5"><a xlink:href="rpcwallet_8cpp.html#a13ae0f230ba6d349466070da38ee85f4" target="_top" xlink:title="instantsendtoaddress">
<polygon fill="white" stroke="black" points="327.5,-1029 327.5,-1048 437.5,-1048 437.5,-1029 327.5,-1029"/>
<text text-anchor="middle" x="382.5" y="-1036" font-family="Helvetica,sans-Serif" font-size="10.00">instantsendtoaddress</text>
</a>
</g>
</g>
<!-- Node2&#45;&gt;Node5 -->
<g id="edge4" class="edge"><title>Node2&#45;&gt;Node5</title>
<path fill="none" stroke="midnightblue" d="M199.96,-923.647C218.484,-949.167 255.782,-995.245 299,-1019.5 307.716,-1024.39 317.622,-1028.02 327.472,-1030.72"/>
<polygon fill="midnightblue" stroke="midnightblue" points="202.648,-921.387 194.009,-915.254 196.938,-925.436 202.648,-921.387"/>
</g>
<!-- Node6 -->
<g id="node6" class="node"><title>Node6</title>
<g id="a_node6"><a xlink:href="rpcwallet_8cpp.html#a64a4f35df567d7ff5b5d7ce92c56950c" target="_top" xlink:title="movecmd">
<polygon fill="white" stroke="black" points="353,-991 353,-1010 412,-1010 412,-991 353,-991"/>
<text text-anchor="middle" x="382.5" y="-998" font-family="Helvetica,sans-Serif" font-size="10.00">movecmd</text>
</a>
</g>
</g>
<!-- Node2&#45;&gt;Node6 -->
<g id="edge5" class="edge"><title>Node2&#45;&gt;Node6</title>
<path fill="none" stroke="midnightblue" d="M206.235,-921.537C227.4,-938.839 263.535,-965.988 299,-981.5 316.102,-988.98 336.54,-993.715 352.794,-996.587"/>
<polygon fill="midnightblue" stroke="midnightblue" points="208.307,-918.707 198.381,-915.002 203.83,-924.088 208.307,-918.707"/>
</g>
<!-- Node7 -->
<g id="node7" class="node"><title>Node7</title>
<g id="a_node7"><a xlink:href="rpcwallet_8cpp.html#a887e8b6785b39cba59fe24ea952a4f10" target="_top" xlink:title="sendfrom">
<polygon fill="white" stroke="black" points="354,-953 354,-972 411,-972 411,-953 354,-953"/>
<text text-anchor="middle" x="382.5" y="-960" font-family="Helvetica,sans-Serif" font-size="10.00">sendfrom</text>
</a>
</g>
</g>
<!-- Node2&#45;&gt;Node7 -->
<g id="edge6" class="edge"><title>Node2&#45;&gt;Node7</title>
<path fill="none" stroke="midnightblue" d="M222.456,-918.439C244.286,-926.263 273.074,-936.117 299,-943.5 317.094,-948.652 337.719,-953.402 353.82,-956.864"/>
<polygon fill="midnightblue" stroke="midnightblue" points="223.546,-915.112 212.952,-915.004 221.166,-921.695 223.546,-915.112"/>
</g>
<!-- Node8 -->
<g id="node8" class="node"><title>Node8</title>
<g id="a_node8"><a xlink:href="rpcwallet_8cpp.html#a02c1a7b5244896e62bc5ae698f7a76c9" target="_top" xlink:title="sendmany">
<polygon fill="white" stroke="black" points="351.5,-915 351.5,-934 413.5,-934 413.5,-915 351.5,-915"/>
<text text-anchor="middle" x="382.5" y="-922" font-family="Helvetica,sans-Serif" font-size="10.00">sendmany</text>
</a>
</g>
</g>
<!-- Node2&#45;&gt;Node8 -->
<g id="edge7" class="edge"><title>Node2&#45;&gt;Node8</title>
<path fill="none" stroke="midnightblue" d="M245.998,-911.229C280.765,-914.634 323.411,-918.811 351.463,-921.558"/>
<polygon fill="midnightblue" stroke="midnightblue" points="246.248,-907.737 235.954,-910.245 245.565,-914.704 246.248,-907.737"/>
</g>
<!-- Node9 -->
<g id="node9" class="node"><title>Node9</title>
<g id="a_node9"><a xlink:href="rpcwallet_8cpp.html#a2c2f8df688dd38e3ee9add52aa0d23a7" target="_top" xlink:title="settxfee">
<polygon fill="white" stroke="black" points="356.5,-877 356.5,-896 408.5,-896 408.5,-877 356.5,-877"/>
<text text-anchor="middle" x="382.5" y="-884" font-family="Helvetica,sans-Serif" font-size="10.00">settxfee</text>
</a>
</g>
</g>
<!-- Node2&#45;&gt;Node9 -->
<g id="edge8" class="edge"><title>Node2&#45;&gt;Node9</title>
<path fill="none" stroke="midnightblue" d="M246.099,-899.761C282.978,-896.149 328.688,-891.672 356.446,-888.954"/>
<polygon fill="midnightblue" stroke="midnightblue" points="245.565,-896.296 235.954,-900.755 246.248,-903.263 245.565,-896.296"/>
</g>
<!-- Node11 -->
<g id="node11" class="node"><title>Node11</title>
<g id="a_node11"><a xlink:href="validation_8cpp.html#a2771319b8131d6bd0b26cd7de79fd690" target="_top" xlink:title="AcceptToMemoryPoolWorker">
<polygon fill="white" stroke="black" points="670.5,-580 670.5,-599 815.5,-599 815.5,-580 670.5,-580"/>
<text text-anchor="middle" x="743" y="-587" font-family="Helvetica,sans-Serif" font-size="10.00">AcceptToMemoryPoolWorker</text>
</a>
</g>
</g>
<!-- Node10&#45;&gt;Node11 -->
<g id="edge10" class="edge"><title>Node10&#45;&gt;Node11</title>
<path fill="none" stroke="midnightblue" d="M440.663,-761.02C449.241,-758.813 457.915,-756.303 466,-753.5 540.763,-727.583 559.423,-718.663 627,-677.5 667.794,-652.651 711.381,-616.213 731.144,-599.077"/>
<polygon fill="midnightblue" stroke="midnightblue" points="439.557,-757.687 430.679,-763.469 441.225,-764.486 439.557,-757.687"/>
</g>
<!-- Node83 -->
<g id="node13" class="node"><title>Node83</title>
<g id="a_node13"><a xlink:href="validation_8h.html#afbaa5058f820d623e6a36f39da4fe484" target="_top" xlink:title="CheckBlock">
<polygon fill="white" stroke="black" points="529.5,-763 529.5,-782 599.5,-782 599.5,-763 529.5,-763"/>
<text text-anchor="middle" x="564.5" y="-770" font-family="Helvetica,sans-Serif" font-size="10.00">CheckBlock</text>
</a>
</g>
</g>
<!-- Node10&#45;&gt;Node83 -->
<g id="edge12" class="edge"><title>Node10&#45;&gt;Node83</title>
<path fill="none" stroke="midnightblue" d="M440.85,-772.5C469.972,-772.5 504.37,-772.5 529.316,-772.5"/>
<polygon fill="midnightblue" stroke="midnightblue" points="440.793,-769 430.793,-772.5 440.793,-776 440.793,-769"/>
</g>
<!-- Node92 -->
<g id="node18" class="node"><title>Node92</title>
<g id="a_node18"><a xlink:href="walletdb_8cpp.html#ad1f171cf096f5479805a06fc20480343" target="_top" xlink:title="ReadKeyValue">
<polygon fill="white" stroke="black" points="523.5,-839 523.5,-858 605.5,-858 605.5,-839 523.5,-839"/>
<text text-anchor="middle" x="564.5" y="-846" font-family="Helvetica,sans-Serif" font-size="10.00">ReadKeyValue</text>
</a>
</g>
</g>
<!-- Node10&#45;&gt;Node92 -->
<g id="edge19" class="edge"><title>Node10&#45;&gt;Node92</title>
<path fill="none" stroke="midnightblue" d="M440.299,-783.188C449.041,-785.515 457.86,-788.271 466,-791.5 497.895,-804.154 531.745,-826.144 549.973,-838.792"/>
<polygon fill="midnightblue" stroke="midnightblue" points="441.053,-779.769 430.503,-780.741 439.356,-786.56 441.053,-779.769"/>
</g>
<!-- Node12 -->
<g id="node12" class="node"><title>Node12</title>
<g id="a_node12"><a xlink:href="validation_8h.html#a3fccb1390d23df9054d22cbe41f1b7c7" target="_top" xlink:title="(try to) add transaction to memory pool ">
<polygon fill="white" stroke="red" points="859,-580 859,-599 972,-599 972,-580 859,-580"/>
<text text-anchor="middle" x="915.5" y="-587" font-family="Helvetica,sans-Serif" font-size="10.00">AcceptToMemoryPool</text>
</a>
</g>
</g>
<!-- Node11&#45;&gt;Node12 -->
<g id="edge11" class="edge"><title>Node11&#45;&gt;Node12</title>
<path fill="none" stroke="midnightblue" d="M825.988,-589.5C837.114,-589.5 848.314,-589.5 858.829,-589.5"/>
<polygon fill="midnightblue" stroke="midnightblue" points="825.813,-586 815.813,-589.5 825.813,-593 825.813,-586"/>
</g>
<!-- Node84 -->
<g id="node14" class="node"><title>Node84</title>
<g id="a_node14"><a xlink:href="validation_8h.html#a063faa3c9fa2d1733a51fb14cae2a2c6" target="_top" xlink:title="Apply the effects of this block (with given index) on the UTXO set represented by coins...">
<polygon fill="white" stroke="red" points="704,-687 704,-706 782,-706 782,-687 704,-687"/>
<text text-anchor="middle" x="743" y="-694" font-family="Helvetica,sans-Serif" font-size="10.00">ConnectBlock</text>
</a>
</g>
</g>
<!-- Node83&#45;&gt;Node84 -->
<g id="edge13" class="edge"><title>Node83&#45;&gt;Node84</title>
<path fill="none" stroke="midnightblue" d="M604.57,-759.219C612.195,-756.084 619.993,-752.48 627,-748.5 644.625,-738.489 645.002,-729.824 663,-720.5 675.728,-713.906 690.566,-708.802 703.925,-705.029"/>
<polygon fill="midnightblue" stroke="midnightblue" points="603.115,-756.03 595.077,-762.931 605.665,-762.549 603.115,-756.03"/>
</g>
<!-- Node86 -->
<g id="node15" class="node"><title>Node86</title>
<g id="a_node15"><a xlink:href="validation_8h.html#a12c39e969c9077605ae8a91730fb78d3" target="_top" xlink:title="Check a block is completely valid from start to finish (only works on top of our current best block...">
<polygon fill="white" stroke="red" points="869,-753 869,-772 962,-772 962,-753 869,-753"/>
<text text-anchor="middle" x="915.5" y="-760" font-family="Helvetica,sans-Serif" font-size="10.00">TestBlockValidity</text>
</a>
</g>
</g>
<!-- Node83&#45;&gt;Node86 -->
<g id="edge17" class="edge"><title>Node83&#45;&gt;Node86</title>
<path fill="none" stroke="midnightblue" d="M609.754,-771.232C676.27,-769.326 801.386,-765.741 868.762,-763.811"/>
<polygon fill="midnightblue" stroke="midnightblue" points="609.495,-767.738 599.599,-771.523 609.695,-774.735 609.495,-767.738"/>
</g>
<!-- Node89 -->
<g id="node16" class="node"><title>Node89</title>
<g id="a_node16"><a xlink:href="class_c_verify_d_b.html#af12e07230f20d23cf01d417d0e785c49" target="_top" xlink:title="CVerifyDB::VerifyDB">
<polygon fill="white" stroke="red" points="860.5,-696 860.5,-715 970.5,-715 970.5,-696 860.5,-696"/>
<text text-anchor="middle" x="915.5" y="-703" font-family="Helvetica,sans-Serif" font-size="10.00">CVerifyDB::VerifyDB</text>
</a>
</g>
</g>
<!-- Node83&#45;&gt;Node89 -->
<g id="edge18" class="edge"><title>Node83&#45;&gt;Node89</title>
<path fill="none" stroke="midnightblue" d="M609.565,-764.041C674.798,-751.517 796.684,-728.118 864.942,-715.014"/>
<polygon fill="midnightblue" stroke="midnightblue" points="608.76,-760.631 599.599,-765.954 610.08,-767.506 608.76,-760.631"/>
</g>
<!-- Node91 -->
<g id="node17" class="node"><title>Node91</title>
<g id="a_node17"><a xlink:href="validation_8cpp.html#ab80b131f4c6036f55aaa24a1c37f57d0" target="_top" xlink:title="Store block on disk. ">
<polygon fill="white" stroke="red" points="707,-801 707,-820 779,-820 779,-801 707,-801"/>
<text text-anchor="middle" x="743" y="-808" font-family="Helvetica,sans-Serif" font-size="10.00">AcceptBlock</text>
</a>
</g>
</g>
<!-- Node83&#45;&gt;Node91 -->
<g id="edge16" class="edge"><title>Node83&#45;&gt;Node91</title>
<path fill="none" stroke="midnightblue" d="M609.348,-781.94C639.438,-788.419 678.842,-796.902 706.865,-802.936"/>
<polygon fill="midnightblue" stroke="midnightblue" points="610.044,-778.51 599.531,-779.827 608.57,-785.353 610.044,-778.51"/>
</g>
<!-- Node84&#45;&gt;Node86 -->
<g id="edge14" class="edge"><title>Node84&#45;&gt;Node86</title>
<path fill="none" stroke="midnightblue" d="M778.504,-709.856C811.582,-722.661 860.687,-741.669 889.955,-752.999"/>
<polygon fill="midnightblue" stroke="midnightblue" points="779.381,-706.443 768.792,-706.097 776.854,-712.971 779.381,-706.443"/>
</g>
<!-- Node84&#45;&gt;Node89 -->
<g id="edge15" class="edge"><title>Node84&#45;&gt;Node89</title>
<path fill="none" stroke="midnightblue" d="M792.319,-699.051C813.478,-700.167 838.401,-701.483 860.199,-702.634"/>
<polygon fill="midnightblue" stroke="midnightblue" points="792.434,-695.552 782.264,-698.52 792.065,-702.542 792.434,-695.552"/>
</g>
<!-- Node93 -->
<g id="node19" class="node"><title>Node93</title>
<g id="a_node19"><a xlink:href="class_c_wallet_d_b.html#a14f26e53502d1a60dd2b034f830acf03" target="_top" xlink:title="CWalletDB::LoadWallet">
<polygon fill="white" stroke="red" points="682.5,-839 682.5,-858 803.5,-858 803.5,-839 682.5,-839"/>
<text text-anchor="middle" x="743" y="-846" font-family="Helvetica,sans-Serif" font-size="10.00">CWalletDB::LoadWallet</text>
</a>
</g>
</g>
<!-- Node92&#45;&gt;Node93 -->
<g id="edge20" class="edge"><title>Node92&#45;&gt;Node93</title>
<path fill="none" stroke="midnightblue" d="M615.74,-848.5C636.486,-848.5 660.696,-848.5 682.336,-848.5"/>
<polygon fill="midnightblue" stroke="midnightblue" points="615.551,-845 605.551,-848.5 615.551,-852 615.551,-845"/>
</g>
<!-- Node95 -->
<g id="node20" class="node"><title>Node95</title>
<g id="a_node20"><a xlink:href="class_c_wallet_d_b.html#af9fa539659473e1484dc280ec01c0b70" target="_top" xlink:title="CWalletDB::Recover">
<polygon fill="white" stroke="red" points="688.5,-877 688.5,-896 797.5,-896 797.5,-877 688.5,-877"/>
<text text-anchor="middle" x="743" y="-884" font-family="Helvetica,sans-Serif" font-size="10.00">CWalletDB::Recover</text>
</a>
</g>
</g>
<!-- Node92&#45;&gt;Node95 -->
<g id="edge21" class="edge"><title>Node92&#45;&gt;Node95</title>
<path fill="none" stroke="midnightblue" d="M615.547,-859.275C641.442,-864.85 672.774,-871.596 697.771,-876.978"/>
<polygon fill="midnightblue" stroke="midnightblue" points="616.063,-855.806 605.551,-857.123 614.59,-862.649 616.063,-855.806"/>
</g>
<!-- Node99 -->
<g id="node22" class="node"><title>Node99</title>
<g id="a_node22"><a xlink:href="validation_8h.html#aec29d3e8abda6a014ca910e7c73b4df7" target="_top" xlink:title="Check whether all inputs of this transaction are valid (no double spends, scripts &amp; sigs...">
<polygon fill="white" stroke="black" points="528.5,-561 528.5,-580 600.5,-580 600.5,-561 528.5,-561"/>
<text text-anchor="middle" x="564.5" y="-568" font-family="Helvetica,sans-Serif" font-size="10.00">CheckInputs</text>
</a>
</g>
</g>
<!-- Node98&#45;&gt;Node99 -->
<g id="edge23" class="edge"><title>Node98&#45;&gt;Node99</title>
<path fill="none" stroke="midnightblue" d="M462.237,-572.188C485.345,-571.803 509.461,-571.401 528.359,-571.086"/>
<polygon fill="midnightblue" stroke="midnightblue" points="462.004,-568.691 452.064,-572.357 462.121,-575.69 462.004,-568.691"/>
</g>
<!-- Node99&#45;&gt;Node11 -->
<g id="edge25" class="edge"><title>Node99&#45;&gt;Node11</title>
<path fill="none" stroke="midnightblue" d="M610.773,-575.374C628.879,-577.323 650.178,-579.615 670.288,-581.78"/>
<polygon fill="midnightblue" stroke="midnightblue" points="611.11,-571.89 600.793,-574.299 610.361,-578.85 611.11,-571.89"/>
</g>
<!-- Node99&#45;&gt;Node84 -->
<g id="edge26" class="edge"><title>Node99&#45;&gt;Node84</title>
<path fill="none" stroke="midnightblue" d="M610.457,-581.778C616.197,-583.965 621.857,-586.524 627,-589.5 673.973,-616.677 717.408,-666.259 734.421,-686.99"/>
<polygon fill="midnightblue" stroke="midnightblue" points="611.393,-578.398 600.799,-578.44 609.107,-585.014 611.393,-578.398"/>
</g>
<!-- Node100 -->
<g id="node23" class="node"><title>Node100</title>
<g id="a_node23"><a xlink:href="class_c_tx_mem_pool.html#ab30fadfa811829e79accca41da6a8328" target="_top" xlink:title="If sanity&#45;checking is turned on, check makes sure the pool is consistent (does not contain two transa...">
<polygon fill="white" stroke="red" points="688.5,-542 688.5,-561 797.5,-561 797.5,-542 688.5,-542"/>
<text text-anchor="middle" x="743" y="-549" font-family="Helvetica,sans-Serif" font-size="10.00">CTxMemPool::check</text>
</a>
</g>
</g>
<!-- Node99&#45;&gt;Node100 -->
<g id="edge24" class="edge"><title>Node99&#45;&gt;Node100</title>
<path fill="none" stroke="midnightblue" d="M610.899,-565.613C634.535,-563.068 663.587,-559.941 688.33,-557.278"/>
<polygon fill="midnightblue" stroke="midnightblue" points="610.361,-562.15 600.793,-566.701 611.11,-569.11 610.361,-562.15"/>
</g>
<!-- Node103 -->
<g id="node26" class="node"><title>Node103</title>
<g id="a_node26"><a xlink:href="group___actions.html#gaa6522c2833bc0a84d216cf102b51ba05" target="_top" xlink:title="CWallet::GetBalance">
<polygon fill="white" stroke="red" points="328,-605 328,-624 437,-624 437,-605 328,-605"/>
<text text-anchor="middle" x="382.5" y="-612" font-family="Helvetica,sans-Serif" font-size="10.00">CWallet::GetBalance</text>
</a>
</g>
</g>
<!-- Node102&#45;&gt;Node103 -->
<g id="edge29" class="edge"><title>Node102&#45;&gt;Node103</title>
<path fill="none" stroke="midnightblue" d="M272.323,-614.5C291.19,-614.5 310.681,-614.5 327.88,-614.5"/>
<polygon fill="midnightblue" stroke="midnightblue" points="272.228,-611 262.228,-614.5 272.228,-618 272.228,-611"/>
</g>
<!-- Node131 -->
<g id="node31" class="node"><title>Node131</title>
<g id="a_node31"><a xlink:href="group___actions.html#ga6e6e1497535d499242c2f2a76d1cbe63" target="_top" xlink:title="CWallet::GetUnconfirmedBalance">
<polygon fill="white" stroke="red" points="300.5,-725 300.5,-744 464.5,-744 464.5,-725 300.5,-725"/>
<text text-anchor="middle" x="382.5" y="-732" font-family="Helvetica,sans-Serif" font-size="10.00">CWallet::GetUnconfirmedBalance</text>
</a>
</g>
</g>
<!-- Node102&#45;&gt;Node131 -->
<g id="edge34" class="edge"><title>Node102&#45;&gt;Node131</title>
<path fill="none" stroke="midnightblue" d="M202.843,-631.62C222.93,-653.035 260.175,-689.442 299,-710.5 310.277,-716.616 323.287,-721.331 335.594,-724.897"/>
<polygon fill="midnightblue" stroke="midnightblue" points="205.367,-629.193 196.017,-624.209 200.218,-633.936 205.367,-629.193"/>
</g>
<!-- Node104 -->
<g id="node27" class="node"><title>Node104</title>
<g id="a_node27"><a xlink:href="class_c_active_masternode.html#a74c897543703253e78e74704550d8bb8" target="_top" xlink:title="CActiveMasternode::\lManageStateInitial">
<polygon fill="white" stroke="red" points="510,-599.5 510,-629.5 619,-629.5 619,-599.5 510,-599.5"/>
<text text-anchor="start" x="518" y="-617.5" font-family="Helvetica,sans-Serif" font-size="10.00">CActiveMasternode::</text>
<text text-anchor="middle" x="564.5" y="-606.5" font-family="Helvetica,sans-Serif" font-size="10.00">ManageStateInitial</text>
</a>
</g>
</g>
<!-- Node103&#45;&gt;Node104 -->
<g id="edge30" class="edge"><title>Node103&#45;&gt;Node104</title>
<path fill="none" stroke="midnightblue" d="M447.211,-614.5C467.702,-614.5 490.186,-614.5 509.877,-614.5"/>
<polygon fill="midnightblue" stroke="midnightblue" points="447.019,-611 437.019,-614.5 447.019,-618 447.019,-611"/>
</g>
<!-- Node120 -->
<g id="node28" class="node"><title>Node120</title>
<g id="a_node28"><a xlink:href="class_wallet_model.html#a4d2cb225a19b89c64f4b5d81faf89beb" target="_top" xlink:title="WalletModel::getBalance">
<polygon fill="white" stroke="red" points="502,-393 502,-412 627,-412 627,-393 502,-393"/>
<text text-anchor="middle" x="564.5" y="-400" font-family="Helvetica,sans-Serif" font-size="10.00">WalletModel::getBalance</text>
</a>
</g>
</g>
<!-- Node103&#45;&gt;Node120 -->
<g id="edge31" class="edge"><title>Node103&#45;&gt;Node120</title>
<path fill="none" stroke="midnightblue" d="M446.79,-603.641C453.701,-600.753 460.288,-597.106 466,-592.5 497.458,-567.132 546.042,-447.189 559.772,-412.139"/>
<polygon fill="midnightblue" stroke="midnightblue" points="445.417,-600.416 437.217,-607.125 447.811,-606.993 445.417,-600.416"/>
</g>
<!-- Node128 -->
<g id="node30" class="node"><title>Node128</title>
<g id="a_node30"><a xlink:href="server_8h.html#ade6e4d8f2279de00350dea14e978235e" target="_top" xlink:title="getinfo">
<polygon fill="white" stroke="black" points="541.5,-649 541.5,-668 587.5,-668 587.5,-649 541.5,-649"/>
<text text-anchor="middle" x="564.5" y="-656" font-family="Helvetica,sans-Serif" font-size="10.00">getinfo</text>
</a>
</g>
</g>
<!-- Node103&#45;&gt;Node128 -->
<g id="edge33" class="edge"><title>Node103&#45;&gt;Node128</title>
<path fill="none" stroke="midnightblue" d="M432.282,-626.425C467.884,-635.127 514.462,-646.513 541.474,-653.116"/>
<polygon fill="midnightblue" stroke="midnightblue" points="433.102,-623.022 422.557,-624.047 431.44,-629.822 433.102,-623.022"/>
</g>
<!-- Node127 -->
<g id="node29" class="node"><title>Node127</title>
<g id="a_node29"><a xlink:href="class_wallet_model.html#a8abc851901c7c7343ebfb5a8e5fc0154" target="_top" xlink:title="WalletModel::prepareTransaction">
<polygon fill="white" stroke="red" points="663,-328 663,-347 823,-347 823,-328 663,-328"/>
<text text-anchor="middle" x="743" y="-335" font-family="Helvetica,sans-Serif" font-size="10.00">WalletModel::prepareTransaction</text>
</a>
</g>
</g>
<!-- Node120&#45;&gt;Node127 -->
<g id="edge32" class="edge"><title>Node120&#45;&gt;Node127</title>
<path fill="none" stroke="midnightblue" d="M601.116,-389.384C635.189,-376.835 685.758,-358.212 716.137,-347.024"/>
<polygon fill="midnightblue" stroke="midnightblue" points="599.718,-386.169 591.543,-392.909 602.137,-392.738 599.718,-386.169"/>
</g>
<!-- Node135 -->
<g id="node33" class="node"><title>Node135</title>
<g id="a_node33"><a xlink:href="group___actions.html#ga92a58ebac7d7d398597657600db56611" target="_top" xlink:title="CWallet::GetWatchOnlyBalance">
<polygon fill="white" stroke="red" points="303.5,-137 303.5,-156 461.5,-156 461.5,-137 303.5,-137"/>
<text text-anchor="middle" x="382.5" y="-144" font-family="Helvetica,sans-Serif" font-size="10.00">CWallet::GetWatchOnlyBalance</text>
</a>
</g>
</g>
<!-- Node134&#45;&gt;Node135 -->
<g id="edge36" class="edge"><title>Node134&#45;&gt;Node135</title>
<path fill="none" stroke="midnightblue" d="M253.934,-215C257.083,-213.307 260.126,-211.477 263,-209.5 283.819,-195.183 277.535,-178.83 299,-165.5 305.243,-161.623 312.195,-158.536 319.34,-156.078"/>
<polygon fill="midnightblue" stroke="midnightblue" points="252.297,-211.904 244.826,-219.417 255.351,-218.202 252.297,-211.904"/>
</g>
<!-- Node137 -->
<g id="node34" class="node"><title>Node137</title>
<g id="a_node34"><a xlink:href="group___actions.html#gab0c110f14f0429f9de594b2293837621" target="_top" xlink:title="CWallet::GetUnconfirmedWatch\lOnlyBalance">
<polygon fill="white" stroke="red" points="303.5,-175.5 303.5,-205.5 461.5,-205.5 461.5,-175.5 303.5,-175.5"/>
<text text-anchor="start" x="311.5" y="-193.5" font-family="Helvetica,sans-Serif" font-size="10.00">CWallet::GetUnconfirmedWatch</text>
<text text-anchor="middle" x="382.5" y="-182.5" font-family="Helvetica,sans-Serif" font-size="10.00">OnlyBalance</text>
</a>
</g>
</g>
<!-- Node134&#45;&gt;Node137 -->
<g id="edge37" class="edge"><title>Node134&#45;&gt;Node137</title>
<path fill="none" stroke="midnightblue" d="M263.638,-217.232C280.687,-213.365 298.638,-209.293 315.248,-205.526"/>
<polygon fill="midnightblue" stroke="midnightblue" points="262.699,-213.856 253.721,-219.481 264.248,-220.682 262.699,-213.856"/>
</g>
<!-- Node141 -->
<g id="node37" class="node"><title>Node141</title>
<g id="a_node37"><a xlink:href="class_transaction_desc.html#ab7c9dbb2048aae121dd9d75df86e64f4" target="_top" xlink:title="TransactionDesc::toHTML">
<polygon fill="white" stroke="red" points="316.5,-225 316.5,-244 448.5,-244 448.5,-225 316.5,-225"/>
<text text-anchor="middle" x="382.5" y="-232" font-family="Helvetica,sans-Serif" font-size="10.00">TransactionDesc::toHTML</text>
</a>
</g>
</g>
<!-- Node140&#45;&gt;Node141 -->
<g id="edge40" class="edge"><title>Node140&#45;&gt;Node141</title>
<path fill="none" stroke="midnightblue" d="M246.181,-316.285C252.121,-313.9 257.852,-311.007 263,-307.5 285.333,-292.285 276.852,-273.984 299,-258.5 308.047,-252.175 318.757,-247.502 329.413,-244.053"/>
<polygon fill="midnightblue" stroke="midnightblue" points="244.987,-312.995 236.729,-319.632 247.324,-319.593 244.987,-312.995"/>
</g>
<!-- Node151 -->
<g id="node40" class="node"><title>Node151</title>
<g id="a_node40"><a xlink:href="group___actions.html#ga3d9f78bd52a2bd03a9e79c1a84e76cd7" target="_top" xlink:title="CWallet::GetDenominatedBalance">
<polygon fill="white" stroke="red" points="299,-99 299,-118 466,-118 466,-99 299,-99"/>
<text text-anchor="middle" x="382.5" y="-106" font-family="Helvetica,sans-Serif" font-size="10.00">CWallet::GetDenominatedBalance</text>
</a>
</g>
</g>
<!-- Node150&#45;&gt;Node151 -->
<g id="edge43" class="edge"><title>Node150&#45;&gt;Node151</title>
<path fill="none" stroke="midnightblue" d="M268.116,-108.5C278.244,-108.5 288.617,-108.5 298.776,-108.5"/>
<polygon fill="midnightblue" stroke="midnightblue" points="268.087,-105 258.087,-108.5 268.087,-112 268.087,-105"/>
</g>
<!-- Node158&#45;&gt;Node11 -->
<g id="edge51" class="edge"><title>Node158&#45;&gt;Node11</title>
<path fill="none" stroke="midnightblue" d="M262.519,-414.936C294.883,-450.015 263.685,-487.498 299,-515.5 356.456,-561.058 556.894,-530.008 627,-551.5 644.297,-556.803 646.073,-564.113 663,-570.5 672.767,-574.185 683.488,-577.328 693.796,-579.933"/>
<polygon fill="midnightblue" stroke="midnightblue" points="264.824,-412.298 255.16,-407.955 260.007,-417.377 264.824,-412.298"/>
</g>
<!-- Node158&#45;&gt;Node84 -->
<g id="edge53" class="edge"><title>Node158&#45;&gt;Node84</title>
<path fill="none" stroke="midnightblue" d="M194.1,-417.651C211.956,-468.394 262.338,-604.417 299,-633.5 420.112,-729.573 620.621,-714.351 703.906,-702.81"/>
<polygon fill="midnightblue" stroke="midnightblue" points="197.397,-416.476 190.8,-408.186 190.787,-418.781 197.397,-416.476"/>
</g>
<!-- Node158&#45;&gt;Node98 -->
<g id="edge52" class="edge"><title>Node158&#45;&gt;Node98</title>
<path fill="none" stroke="midnightblue" d="M201.912,-415.877C217.463,-434.842 242.723,-466.277 263,-494.5 280.046,-518.227 275.517,-532.119 299,-549.5 307.513,-555.801 317.649,-560.453 327.855,-563.885"/>
<polygon fill="midnightblue" stroke="midnightblue" points="204.562,-413.59 195.503,-408.097 199.16,-418.041 204.562,-413.59"/>
</g>
<!-- Node158&#45;&gt;Node127 -->
<g id="edge49" class="edge"><title>Node158&#45;&gt;Node127</title>
<path fill="none" stroke="midnightblue" d="M214.445,-383.509C229.784,-374.147 248.725,-361.115 263,-346.5 283.413,-325.6 273.3,-305.394 299,-291.5 444.561,-212.806 656.327,-297.823 721.895,-327.837"/>
<polygon fill="midnightblue" stroke="midnightblue" points="212.255,-380.739 205.434,-388.846 215.822,-386.762 212.255,-380.739"/>
</g>
<!-- Node158&#45;&gt;Node141 -->
<g id="edge47" class="edge"><title>Node158&#45;&gt;Node141</title>
<path fill="none" stroke="midnightblue" d="M216.32,-384.022C231.869,-375.006 250.399,-362.147 263,-346.5 289.505,-313.589 267.59,-286.768 299,-258.5 305.985,-252.214 314.529,-247.568 323.441,-244.136"/>
<polygon fill="midnightblue" stroke="midnightblue" points="214.619,-380.963 207.577,-388.879 218.018,-387.082 214.619,-380.963"/>
</g>
<!-- Node159 -->
<g id="node42" class="node"><title>Node159</title>
<g id="a_node42"><a xlink:href="class_c_superblock.html#a33a5b1f41d0acc015c6860eba8689c70" target="_top" xlink:title="Is Transaction Valid. ">
<polygon fill="white" stroke="black" points="328,-351 328,-370 437,-370 437,-351 328,-351"/>
<text text-anchor="middle" x="382.5" y="-358" font-family="Helvetica,sans-Serif" font-size="10.00">CSuperblock::IsValid</text>
</a>
</g>
</g>
<!-- Node158&#45;&gt;Node159 -->
<g id="edge45" class="edge"><title>Node158&#45;&gt;Node159</title>
<path fill="none" stroke="midnightblue" d="M246.405,-386.962C274.075,-381.542 306.662,-375.159 332.898,-370.02"/>
<polygon fill="midnightblue" stroke="midnightblue" points="245.595,-383.554 236.454,-388.911 246.941,-390.423 245.595,-383.554"/>
</g>
<!-- Node160 -->
<g id="node43" class="node"><title>Node160</title>
<g id="a_node43"><a xlink:href="class_c_masternode_block_payees.html#a6721f357d17e653ceb93c28ffd3ae528" target="_top" xlink:title="CMasternodeBlockPayees\l::IsTransactionValid">
<polygon fill="white" stroke="black" points="316,-301.5 316,-331.5 449,-331.5 449,-301.5 316,-301.5"/>
<text text-anchor="start" x="324" y="-319.5" font-family="Helvetica,sans-Serif" font-size="10.00">CMasternodeBlockPayees</text>
<text text-anchor="middle" x="382.5" y="-308.5" font-family="Helvetica,sans-Serif" font-size="10.00">::IsTransactionValid</text>
</a>
</g>
</g>
<!-- Node158&#45;&gt;Node160 -->
<g id="edge46" class="edge"><title>Node158&#45;&gt;Node160</title>
<path fill="none" stroke="midnightblue" d="M212.855,-383.889C235.068,-371.492 268.48,-353.811 299,-341.5 307.883,-337.917 317.481,-334.563 326.88,-331.547"/>
<polygon fill="midnightblue" stroke="midnightblue" points="211.054,-380.887 204.062,-388.847 214.492,-386.984 211.054,-380.887"/>
</g>
<!-- Node161 -->
<g id="node44" class="node"><title>Node161</title>
<g id="a_node44"><a xlink:href="class_transaction_record.html#a9f5db4465fa5fdcc3f9af525096bcdb9" target="_top" xlink:title="TransactionRecord::\ldecomposeTransaction">
<polygon fill="white" stroke="red" points="323.5,-476.5 323.5,-506.5 441.5,-506.5 441.5,-476.5 323.5,-476.5"/>
<text text-anchor="start" x="331.5" y="-494.5" font-family="Helvetica,sans-Serif" font-size="10.00">TransactionRecord::</text>
<text text-anchor="middle" x="382.5" y="-483.5" font-family="Helvetica,sans-Serif" font-size="10.00">decomposeTransaction</text>
</a>
</g>
</g>
<!-- Node158&#45;&gt;Node161 -->
<g id="edge48" class="edge"><title>Node158&#45;&gt;Node161</title>
<path fill="none" stroke="midnightblue" d="M208.827,-413.773C230.629,-428.831 265.897,-451.68 299,-466.5 307.196,-470.169 316.082,-473.492 324.884,-476.429"/>
<polygon fill="midnightblue" stroke="midnightblue" points="210.823,-410.898 200.623,-408.034 206.811,-416.634 210.823,-410.898"/>
</g>
<!-- Node167 -->
<g id="node45" class="node"><title>Node167</title>
<g id="a_node45"><a xlink:href="class_c_tx_mem_pool_entry.html#af9e1f3841f5d0834b6e0e7ff25648547" target="_top" xlink:title="... and total fees (all including us) ">
<polygon fill="white" stroke="black" points="299.5,-427.5 299.5,-457.5 465.5,-457.5 465.5,-427.5 299.5,-427.5"/>
<text text-anchor="start" x="307.5" y="-445.5" font-family="Helvetica,sans-Serif" font-size="10.00">CTxMemPoolEntry::CTxMemPool</text>
<text text-anchor="middle" x="382.5" y="-434.5" font-family="Helvetica,sans-Serif" font-size="10.00">Entry</text>
</a>
</g>
</g>
<!-- Node158&#45;&gt;Node167 -->
<g id="edge50" class="edge"><title>Node158&#45;&gt;Node167</title>
<path fill="none" stroke="midnightblue" d="M239.585,-410.313C262.794,-415.577 290.404,-421.839 315.075,-427.435"/>
<polygon fill="midnightblue" stroke="midnightblue" points="240.122,-406.846 229.595,-408.047 238.573,-413.673 240.122,-406.846"/>
</g>
<!-- Node168 -->
<g id="node46" class="node"><title>Node168</title>
<g id="a_node46"><a xlink:href="rpcwallet_8cpp.html#a0eb27b54e47a747381313eda4f2adc53" target="_top" xlink:title="gettransaction">
<polygon fill="white" stroke="black" points="343.5,-389 343.5,-408 421.5,-408 421.5,-389 343.5,-389"/>
<text text-anchor="middle" x="382.5" y="-396" font-family="Helvetica,sans-Serif" font-size="10.00">gettransaction</text>
</a>
</g>
</g>
<!-- Node158&#45;&gt;Node168 -->
<g id="edge54" class="edge"><title>Node158&#45;&gt;Node168</title>
<path fill="none" stroke="midnightblue" d="M265.25,-398.5C292.096,-398.5 320.991,-398.5 343.258,-398.5"/>
<polygon fill="midnightblue" stroke="midnightblue" points="265.079,-395 255.079,-398.5 265.079,-402 265.079,-395"/>
</g>
<!-- Node170 -->
<g id="node48" class="node"><title>Node170</title>
<g id="a_node48"><a xlink:href="class_c_superblock.html#ae133c9d8d10dcb8c605253ed9bc0db4b" target="_top" xlink:title="CSuperblock::ParsePayment\lSchedule">
<polygon fill="white" stroke="red" points="311,-49.5 311,-79.5 454,-79.5 454,-49.5 311,-49.5"/>
<text text-anchor="start" x="319" y="-67.5" font-family="Helvetica,sans-Serif" font-size="10.00">CSuperblock::ParsePayment</text>
<text text-anchor="middle" x="382.5" y="-56.5" font-family="Helvetica,sans-Serif" font-size="10.00">Schedule</text>
</a>
</g>
</g>
<!-- Node169&#45;&gt;Node170 -->
<g id="edge56" class="edge"><title>Node169&#45;&gt;Node170</title>
<path fill="none" stroke="midnightblue" d="M254.341,-64.5C272.516,-64.5 292.26,-64.5 310.649,-64.5"/>
<polygon fill="midnightblue" stroke="midnightblue" points="254.134,-61.0001 244.134,-64.5 254.134,-68.0001 254.134,-61.0001"/>
</g>
<!-- Node173 -->
<g id="node50" class="node"><title>Node173</title>
<g id="a_node50"><a xlink:href="class_payment_server.html#a19092e1d4d7c6eee3ec9d4390d11a092" target="_top" xlink:title="PaymentServer::processPayment\lRequest">
<polygon fill="white" stroke="red" points="300.5,-0.5 300.5,-30.5 464.5,-30.5 464.5,-0.5 300.5,-0.5"/>
<text text-anchor="start" x="308.5" y="-18.5" font-family="Helvetica,sans-Serif" font-size="10.00">PaymentServer::processPayment</text>
<text text-anchor="middle" x="382.5" y="-7.5" font-family="Helvetica,sans-Serif" font-size="10.00">Request</text>
</a>
</g>
</g>
<!-- Node172&#45;&gt;Node173 -->
<g id="edge58" class="edge"><title>Node172&#45;&gt;Node173</title>
<path fill="none" stroke="midnightblue" d="M270.723,-18.9261C280.553,-18.6221 290.575,-18.3121 300.375,-18.009"/>
<polygon fill="midnightblue" stroke="midnightblue" points="270.454,-15.4327 260.567,-19.2402 270.67,-22.4293 270.454,-15.4327"/>
</g>
</g>
</svg>
