<?xml version="1.0" encoding="UTF-8" standalone="no"?>
<!DOCTYPE svg PUBLIC "-//W3C//DTD SVG 1.1//EN"
 "http://www.w3.org/Graphics/SVG/1.1/DTD/svg11.dtd">
<!-- Generated by graphviz version 2.38.0 (20140413.2041)
 -->
<!-- Title: src/secp256k1/src/bench_ecdh.c Pages: 1 -->
<svg width="559pt" height="207pt"
 viewBox="0.00 0.00 558.50 207.00" xmlns="http://www.w3.org/2000/svg" xmlns:xlink="http://www.w3.org/1999/xlink">
<g id="graph0" class="graph" transform="scale(1 1) rotate(0) translate(4 203)">
<title>src/secp256k1/src/bench_ecdh.c</title>
<polygon fill="white" stroke="none" points="-4,4 -4,-203 554.5,-203 554.5,4 -4,4"/>
<!-- Node0 -->
<g id="node1" class="node"><title>Node0</title>
<polygon fill="#bfbfbf" stroke="black" points="217,-168.5 217,-198.5 352,-198.5 352,-168.5 217,-168.5"/>
<text text-anchor="start" x="225" y="-186.5" font-family="Helvetica,sans-Serif" font-size="10.00">src/secp256k1/src/bench</text>
<text text-anchor="middle" x="284.5" y="-175.5" font-family="Helvetica,sans-Serif" font-size="10.00">_ecdh.c</text>
</g>
<!-- Node1 -->
<g id="node2" class="node"><title>Node1</title>
<polygon fill="white" stroke="#bfbfbf" points="207,-56.5 207,-75.5 260,-75.5 260,-56.5 207,-56.5"/>
<text text-anchor="middle" x="233.5" y="-63.5" font-family="Helvetica,sans-Serif" font-size="10.00">string.h</text>
</g>
<!-- Node0&#45;&gt;Node1 -->
<g id="edge1" class="edge"><title>Node0&#45;&gt;Node1</title>
<path fill="none" stroke="midnightblue" d="M271.366,-168.076C263.326,-158.499 253.468,-145.285 247.5,-132 240.914,-117.341 237.351,-99.4022 235.471,-86.0865"/>
<polygon fill="midnightblue" stroke="midnightblue" points="238.898,-85.2783 234.218,-75.7734 231.949,-86.1226 238.898,-85.2783"/>
</g>
<!-- Node2 -->
<g id="node3" class="node"><title>Node2</title>
<g id="a_node3"><a xlink:href="secp256k1_8h.html" target="_top" xlink:title="include/secp256k1.h">
<polygon fill="white" stroke="black" points="436.5,-56.5 436.5,-75.5 550.5,-75.5 550.5,-56.5 436.5,-56.5"/>
<text text-anchor="middle" x="493.5" y="-63.5" font-family="Helvetica,sans-Serif" font-size="10.00">include/secp256k1.h</text>
</a>
</g>
</g>
<!-- Node0&#45;&gt;Node2 -->
<g id="edge2" class="edge"><title>Node0&#45;&gt;Node2</title>
<path fill="none" stroke="midnightblue" d="M352.106,-173.061C401.884,-164.708 463.848,-150.902 481.5,-132 492.871,-119.823 495.204,-100.551 495.093,-86.1486"/>
<polygon fill="midnightblue" stroke="midnightblue" points="498.576,-85.6937 494.606,-75.8706 491.583,-86.025 498.576,-85.6937"/>
</g>
<!-- Node4 -->
<g id="node5" class="node"><title>Node4</title>
<g id="a_node5"><a xlink:href="secp256k1__ecdh_8h.html" target="_top" xlink:title="include/secp256k1_ecdh.h">
<polygon fill="white" stroke="black" points="330,-112.5 330,-131.5 473,-131.5 473,-112.5 330,-112.5"/>
<text text-anchor="middle" x="401.5" y="-119.5" font-family="Helvetica,sans-Serif" font-size="10.00">include/secp256k1_ecdh.h</text>
</a>
</g>
</g>
<!-- Node0&#45;&gt;Node4 -->
<g id="edge4" class="edge"><title>Node0&#45;&gt;Node4</title>
<path fill="none" stroke="midnightblue" d="M312.227,-168.399C331.332,-158.684 356.558,-145.855 375.32,-136.314"/>
<polygon fill="midnightblue" stroke="midnightblue" points="377.148,-139.311 384.475,-131.658 373.975,-133.071 377.148,-139.311"/>
</g>
<!-- Node5 -->
<g id="node6" class="node"><title>Node5</title>
<g id="a_node6"><a xlink:href="secp256k1_2src_2util_8h.html" target="_top" xlink:title="util.h">
<polygon fill="white" stroke="black" points="110.5,-112.5 110.5,-131.5 150.5,-131.5 150.5,-112.5 110.5,-112.5"/>
<text text-anchor="middle" x="130.5" y="-119.5" font-family="Helvetica,sans-Serif" font-size="10.00">util.h</text>
</a>
</g>
</g>
<!-- Node0&#45;&gt;Node5 -->
<g id="edge6" class="edge"><title>Node0&#45;&gt;Node5</title>
<path fill="none" stroke="midnightblue" d="M248.004,-168.399C221.15,-158.024 185.107,-144.098 160.05,-134.417"/>
<polygon fill="midnightblue" stroke="midnightblue" points="161.289,-131.144 150.7,-130.804 158.766,-137.673 161.289,-131.144"/>
</g>
<!-- Node9 -->
<g id="node10" class="node"><title>Node9</title>
<g id="a_node10"><a xlink:href="secp256k1_2src_2bench_8h.html" target="_top" xlink:title="bench.h">
<polygon fill="white" stroke="black" points="257,-112.5 257,-131.5 312,-131.5 312,-112.5 257,-112.5"/>
<text text-anchor="middle" x="284.5" y="-119.5" font-family="Helvetica,sans-Serif" font-size="10.00">bench.h</text>
</a>
</g>
</g>
<!-- Node0&#45;&gt;Node9 -->
<g id="edge10" class="edge"><title>Node0&#45;&gt;Node9</title>
<path fill="none" stroke="midnightblue" d="M284.5,-168.399C284.5,-160.466 284.5,-150.458 284.5,-141.858"/>
<polygon fill="midnightblue" stroke="midnightblue" points="288,-141.658 284.5,-131.658 281,-141.658 288,-141.658"/>
</g>
<!-- Node3 -->
<g id="node4" class="node"><title>Node3</title>
<polygon fill="white" stroke="#bfbfbf" points="466,-0.5 466,-19.5 521,-19.5 521,-0.5 466,-0.5"/>
<text text-anchor="middle" x="493.5" y="-7.5" font-family="Helvetica,sans-Serif" font-size="10.00">stddef.h</text>
</g>
<!-- Node2&#45;&gt;Node3 -->
<g id="edge3" class="edge"><title>Node2&#45;&gt;Node3</title>
<path fill="none" stroke="midnightblue" d="M493.5,-56.083C493.5,-49.0059 493.5,-38.8611 493.5,-29.9865"/>
<polygon fill="midnightblue" stroke="midnightblue" points="497,-29.751 493.5,-19.7511 490,-29.7511 497,-29.751"/>
</g>
<!-- Node4&#45;&gt;Node2 -->
<g id="edge5" class="edge"><title>Node4&#45;&gt;Node2</title>
<path fill="none" stroke="midnightblue" d="M416.281,-112.324C430.767,-103.822 453.073,-90.7288 469.993,-80.7975"/>
<polygon fill="midnightblue" stroke="midnightblue" points="471.903,-83.735 478.755,-75.6545 468.359,-77.6981 471.903,-83.735"/>
</g>
<!-- Node6 -->
<g id="node7" class="node"><title>Node6</title>
<polygon fill="white" stroke="#bfbfbf" points="0,-56.5 0,-75.5 51,-75.5 51,-56.5 0,-56.5"/>
<text text-anchor="middle" x="25.5" y="-63.5" font-family="Helvetica,sans-Serif" font-size="10.00">stdlib.h</text>
</g>
<!-- Node5&#45;&gt;Node6 -->
<g id="edge7" class="edge"><title>Node5&#45;&gt;Node6</title>
<path fill="none" stroke="midnightblue" d="M113.63,-112.324C96.7912,-103.664 70.6935,-90.2424 51.262,-80.249"/>
<polygon fill="midnightblue" stroke="midnightblue" points="52.8218,-77.1155 42.3282,-75.6545 49.6204,-83.3405 52.8218,-77.1155"/>
</g>
<!-- Node7 -->
<g id="node8" class="node"><title>Node7</title>
<polygon fill="white" stroke="#bfbfbf" points="69,-56.5 69,-75.5 122,-75.5 122,-56.5 69,-56.5"/>
<text text-anchor="middle" x="95.5" y="-63.5" font-family="Helvetica,sans-Serif" font-size="10.00">stdint.h</text>
</g>
<!-- Node5&#45;&gt;Node7 -->
<g id="edge8" class="edge"><title>Node5&#45;&gt;Node7</title>
<path fill="none" stroke="midnightblue" d="M124.72,-112.083C119.828,-104.534 112.673,-93.4948 106.667,-84.2298"/>
<polygon fill="midnightblue" stroke="midnightblue" points="109.548,-82.239 101.172,-75.7511 103.674,-86.0463 109.548,-82.239"/>
</g>
<!-- Node8 -->
<g id="node9" class="node"><title>Node8</title>
<polygon fill="white" stroke="#bfbfbf" points="140,-56.5 140,-75.5 189,-75.5 189,-56.5 140,-56.5"/>
<text text-anchor="middle" x="164.5" y="-63.5" font-family="Helvetica,sans-Serif" font-size="10.00">stdio.h</text>
</g>
<!-- Node5&#45;&gt;Node8 -->
<g id="edge9" class="edge"><title>Node5&#45;&gt;Node8</title>
<path fill="none" stroke="midnightblue" d="M136.114,-112.083C140.867,-104.534 147.818,-93.4948 153.652,-84.2298"/>
<polygon fill="midnightblue" stroke="midnightblue" points="156.624,-86.0783 158.99,-75.7511 150.7,-82.3486 156.624,-86.0783"/>
</g>
<!-- Node9&#45;&gt;Node1 -->
<g id="edge12" class="edge"><title>Node9&#45;&gt;Node1</title>
<path fill="none" stroke="midnightblue" d="M276.078,-112.083C268.652,-104.22 257.648,-92.5688 248.688,-83.0813"/>
<polygon fill="midnightblue" stroke="midnightblue" points="251.176,-80.618 241.765,-75.7511 246.087,-85.4244 251.176,-80.618"/>
</g>
<!-- Node9&#45;&gt;Node8 -->
<g id="edge11" class="edge"><title>Node9&#45;&gt;Node8</title>
<path fill="none" stroke="midnightblue" d="M265.486,-112.444C245.912,-103.636 215.192,-89.8116 192.771,-79.722"/>
<polygon fill="midnightblue" stroke="midnightblue" points="193.981,-76.4284 183.425,-75.5164 191.108,-82.8119 193.981,-76.4284"/>
</g>
<!-- Node10 -->
<g id="node11" class="node"><title>Node10</title>
<polygon fill="white" stroke="#bfbfbf" points="363,-56.5 363,-75.5 414,-75.5 414,-56.5 363,-56.5"/>
<text text-anchor="middle" x="388.5" y="-63.5" font-family="Helvetica,sans-Serif" font-size="10.00">math.h</text>
</g>
<!-- Node9&#45;&gt;Node10 -->
<g id="edge13" class="edge"><title>Node9&#45;&gt;Node10</title>
<path fill="none" stroke="midnightblue" d="M301.209,-112.324C317.812,-103.703 343.502,-90.3643 362.72,-80.3855"/>
<polygon fill="midnightblue" stroke="midnightblue" points="364.57,-83.3689 371.832,-75.6545 361.344,-77.1565 364.57,-83.3689"/>
</g>
<!-- Node11 -->
<g id="node12" class="node"><title>Node11</title>
<polygon fill="white" stroke="#bfbfbf" points="278.5,-56.5 278.5,-75.5 344.5,-75.5 344.5,-56.5 278.5,-56.5"/>
<text text-anchor="middle" x="311.5" y="-63.5" font-family="Helvetica,sans-Serif" font-size="10.00">sys/time.h</text>
</g>
<!-- Node9&#45;&gt;Node11 -->
<g id="edge14" class="edge"><title>Node9&#45;&gt;Node11</title>
<path fill="none" stroke="midnightblue" d="M288.959,-112.083C292.654,-104.691 298.023,-93.9533 302.594,-84.8111"/>
<polygon fill="midnightblue" stroke="midnightblue" points="305.783,-86.2606 307.124,-75.7511 299.522,-83.1301 305.783,-86.2606"/>
</g>
</g>
</svg>
