<?xml version="1.0" encoding="UTF-8" standalone="no"?>
<!DOCTYPE svg PUBLIC "-//W3C//DTD SVG 1.1//EN"
 "http://www.w3.org/Graphics/SVG/1.1/DTD/svg11.dtd">
<!-- Generated by graphviz version 2.38.0 (20140413.2041)
 -->
<!-- Title: src/secp256k1/src/bench_ecmult.c Pages: 1 -->
<svg width="1752pt" height="487pt"
 viewBox="0.00 0.00 1751.54 487.00" xmlns="http://www.w3.org/2000/svg" xmlns:xlink="http://www.w3.org/1999/xlink">
<g id="graph0" class="graph" transform="scale(1 1) rotate(0) translate(4 483)">
<title>src/secp256k1/src/bench_ecmult.c</title>
<polygon fill="white" stroke="none" points="-4,4 -4,-483 1747.54,-483 1747.54,4 -4,4"/>
<!-- Node0 -->
<g id="node1" class="node"><title>Node0</title>
<polygon fill="#bfbfbf" stroke="black" points="438.5,-448.5 438.5,-478.5 573.5,-478.5 573.5,-448.5 438.5,-448.5"/>
<text text-anchor="start" x="446.5" y="-466.5" font-family="Helvetica,sans-Serif" font-size="10.00">src/secp256k1/src/bench</text>
<text text-anchor="middle" x="506" y="-455.5" font-family="Helvetica,sans-Serif" font-size="10.00">_ecmult.c</text>
</g>
<!-- Node1 -->
<g id="node2" class="node"><title>Node1</title>
<polygon fill="white" stroke="#bfbfbf" points="13.5,-0.5 13.5,-19.5 62.5,-19.5 62.5,-0.5 13.5,-0.5"/>
<text text-anchor="middle" x="38" y="-7.5" font-family="Helvetica,sans-Serif" font-size="10.00">stdio.h</text>
</g>
<!-- Node0&#45;&gt;Node1 -->
<g id="edge1" class="edge"><title>Node0&#45;&gt;Node1</title>
<path fill="none" stroke="midnightblue" d="M438.284,-461.084C300.403,-456.359 0,-435.868 0,-347 0,-347 0,-347 0,-121 0,-86.8131 16.6005,-49.7639 27.8573,-28.5707"/>
<polygon fill="midnightblue" stroke="midnightblue" points="30.9473,-30.2151 32.7163,-19.769 24.8191,-26.832 30.9473,-30.2151"/>
</g>
<!-- Node2 -->
<g id="node3" class="node"><title>Node2</title>
<g id="a_node3"><a xlink:href="secp256k1_8h.html" target="_top" xlink:title="include/secp256k1.h">
<polygon fill="white" stroke="black" points="940,-336.5 940,-355.5 1054,-355.5 1054,-336.5 940,-336.5"/>
<text text-anchor="middle" x="997" y="-343.5" font-family="Helvetica,sans-Serif" font-size="10.00">include/secp256k1.h</text>
</a>
</g>
</g>
<!-- Node0&#45;&gt;Node2 -->
<g id="edge2" class="edge"><title>Node0&#45;&gt;Node2</title>
<path fill="none" stroke="midnightblue" d="M565.715,-448.453C664.888,-425.124 861.47,-378.881 950.842,-357.858"/>
<polygon fill="midnightblue" stroke="midnightblue" points="951.753,-361.239 960.686,-355.542 950.15,-354.425 951.753,-361.239"/>
</g>
<!-- Node4 -->
<g id="node5" class="node"><title>Node4</title>
<g id="a_node5"><a xlink:href="secp256k1_2src_2util_8h.html" target="_top" xlink:title="util.h">
<polygon fill="white" stroke="black" points="1243,-56.5 1243,-75.5 1283,-75.5 1283,-56.5 1243,-56.5"/>
<text text-anchor="middle" x="1263" y="-63.5" font-family="Helvetica,sans-Serif" font-size="10.00">util.h</text>
</a>
</g>
</g>
<!-- Node0&#45;&gt;Node4 -->
<g id="edge4" class="edge"><title>Node0&#45;&gt;Node4</title>
<path fill="none" stroke="midnightblue" d="M438.339,-458.331C317.246,-449 76,-421.11 76,-347 76,-347 76,-347 76,-177 76,-117.076 1047.81,-75.5354 1232.79,-68.1711"/>
<polygon fill="midnightblue" stroke="midnightblue" points="1233.04,-71.664 1242.9,-67.7718 1232.77,-64.6695 1233.04,-71.664"/>
</g>
<!-- Node7 -->
<g id="node8" class="node"><title>Node7</title>
<g id="a_node8"><a xlink:href="hash__impl_8h.html" target="_top" xlink:title="hash_impl.h">
<polygon fill="white" stroke="black" points="1666,-224.5 1666,-243.5 1740,-243.5 1740,-224.5 1666,-224.5"/>
<text text-anchor="middle" x="1703" y="-231.5" font-family="Helvetica,sans-Serif" font-size="10.00">hash_impl.h</text>
</a>
</g>
</g>
<!-- Node0&#45;&gt;Node7 -->
<g id="edge8" class="edge"><title>Node0&#45;&gt;Node7</title>
<path fill="none" stroke="midnightblue" d="M573.635,-462.193C712.821,-460.699 1041.07,-452.736 1313,-412 1418.76,-396.157 1445.01,-388.14 1547,-356 1611.7,-335.61 1645.11,-351.728 1689,-300 1699.84,-287.221 1702.89,-268.03 1703.5,-253.81"/>
<polygon fill="midnightblue" stroke="midnightblue" points="1707,-253.712 1703.56,-243.689 1700,-253.667 1707,-253.712"/>
</g>
<!-- Node10 -->
<g id="node11" class="node"><title>Node10</title>
<g id="a_node11"><a xlink:href="num__impl_8h.html" target="_top" xlink:title="num_impl.h">
<polygon fill="white" stroke="black" points="315.5,-336.5 315.5,-355.5 388.5,-355.5 388.5,-336.5 315.5,-336.5"/>
<text text-anchor="middle" x="352" y="-343.5" font-family="Helvetica,sans-Serif" font-size="10.00">num_impl.h</text>
</a>
</g>
</g>
<!-- Node0&#45;&gt;Node10 -->
<g id="edge15" class="edge"><title>Node0&#45;&gt;Node10</title>
<path fill="none" stroke="midnightblue" d="M487.117,-448.337C457.856,-426.392 401.826,-384.37 371.937,-361.953"/>
<polygon fill="midnightblue" stroke="midnightblue" points="373.659,-358.869 363.559,-355.669 369.459,-364.469 373.659,-358.869"/>
</g>
<!-- Node12 -->
<g id="node13" class="node"><title>Node12</title>
<g id="a_node13"><a xlink:href="field__impl_8h.html" target="_top" xlink:title="field_impl.h">
<polygon fill="white" stroke="black" points="406.5,-336.5 406.5,-355.5 477.5,-355.5 477.5,-336.5 406.5,-336.5"/>
<text text-anchor="middle" x="442" y="-343.5" font-family="Helvetica,sans-Serif" font-size="10.00">field_impl.h</text>
</a>
</g>
</g>
<!-- Node0&#45;&gt;Node12 -->
<g id="edge17" class="edge"><title>Node0&#45;&gt;Node12</title>
<path fill="none" stroke="midnightblue" d="M498.152,-448.337C486.464,-427.243 464.497,-387.6 451.779,-364.648"/>
<polygon fill="midnightblue" stroke="midnightblue" points="454.712,-362.72 446.804,-355.669 448.589,-366.113 454.712,-362.72"/>
</g>
<!-- Node13 -->
<g id="node14" class="node"><title>Node13</title>
<g id="a_node14"><a xlink:href="group__impl_8h.html" target="_top" xlink:title="group_impl.h">
<polygon fill="white" stroke="black" points="1530.5,-224.5 1530.5,-243.5 1609.5,-243.5 1609.5,-224.5 1530.5,-224.5"/>
<text text-anchor="middle" x="1570" y="-231.5" font-family="Helvetica,sans-Serif" font-size="10.00">group_impl.h</text>
</a>
</g>
</g>
<!-- Node0&#45;&gt;Node13 -->
<g id="edge20" class="edge"><title>Node0&#45;&gt;Node13</title>
<path fill="none" stroke="midnightblue" d="M573.85,-461.087C691.365,-457.767 940.056,-446.884 1147,-412 1341.32,-379.245 1455.54,-455.95 1576,-300 1586.16,-286.85 1582.71,-267.44 1577.91,-253.255"/>
<polygon fill="midnightblue" stroke="midnightblue" points="1581.06,-251.679 1574.18,-243.617 1574.53,-254.206 1581.06,-251.679"/>
</g>
<!-- Node16 -->
<g id="node17" class="node"><title>Node16</title>
<g id="a_node17"><a xlink:href="scalar__impl_8h.html" target="_top" xlink:title="scalar_impl.h">
<polygon fill="white" stroke="black" points="1364,-280.5 1364,-299.5 1444,-299.5 1444,-280.5 1364,-280.5"/>
<text text-anchor="middle" x="1404" y="-287.5" font-family="Helvetica,sans-Serif" font-size="10.00">scalar_impl.h</text>
</a>
</g>
</g>
<!-- Node0&#45;&gt;Node16 -->
<g id="edge27" class="edge"><title>Node0&#45;&gt;Node16</title>
<path fill="none" stroke="midnightblue" d="M573.92,-463.101C685.463,-462.679 913.763,-455.871 1101,-412 1167.05,-396.523 1179.99,-381.143 1243,-356 1288.54,-337.827 1341.22,-316.504 1373.57,-303.372"/>
<polygon fill="midnightblue" stroke="midnightblue" points="1374.98,-306.577 1382.92,-299.572 1372.34,-300.092 1374.98,-306.577"/>
</g>
<!-- Node18 -->
<g id="node19" class="node"><title>Node18</title>
<g id="a_node19"><a xlink:href="ecmult__impl_8h.html" target="_top" xlink:title="ecmult_impl.h">
<polygon fill="white" stroke="black" points="422,-280.5 422,-299.5 506,-299.5 506,-280.5 422,-280.5"/>
<text text-anchor="middle" x="464" y="-287.5" font-family="Helvetica,sans-Serif" font-size="10.00">ecmult_impl.h</text>
</a>
</g>
</g>
<!-- Node0&#45;&gt;Node18 -->
<g id="edge31" class="edge"><title>Node0&#45;&gt;Node18</title>
<path fill="none" stroke="midnightblue" d="M505.124,-448.144C503.366,-424.346 498.449,-375.438 486,-336 483.022,-326.567 478.347,-316.632 474.071,-308.504"/>
<polygon fill="midnightblue" stroke="midnightblue" points="477.081,-306.714 469.194,-299.641 470.949,-310.089 477.081,-306.714"/>
</g>
<!-- Node21 -->
<g id="node22" class="node"><title>Node21</title>
<g id="a_node22"><a xlink:href="secp256k1_2src_2bench_8h.html" target="_top" xlink:title="bench.h">
<polygon fill="white" stroke="black" points="179.5,-224.5 179.5,-243.5 234.5,-243.5 234.5,-224.5 179.5,-224.5"/>
<text text-anchor="middle" x="207" y="-231.5" font-family="Helvetica,sans-Serif" font-size="10.00">bench.h</text>
</a>
</g>
</g>
<!-- Node0&#45;&gt;Node21 -->
<g id="edge41" class="edge"><title>Node0&#45;&gt;Node21</title>
<path fill="none" stroke="midnightblue" d="M471.762,-448.484C430.222,-430.563 359.156,-396.903 306,-356 279.082,-335.287 275.546,-326.255 254,-300 241.204,-284.408 227.842,-265.651 218.651,-252.303"/>
<polygon fill="midnightblue" stroke="midnightblue" points="221.286,-249.955 212.763,-243.662 215.501,-253.896 221.286,-249.955"/>
</g>
<!-- Node24 -->
<g id="node25" class="node"><title>Node24</title>
<g id="a_node25"><a xlink:href="secp256k1_8c.html" target="_top" xlink:title="secp256k1.c">
<polygon fill="white" stroke="black" points="1015.5,-392.5 1015.5,-411.5 1092.5,-411.5 1092.5,-392.5 1015.5,-392.5"/>
<text text-anchor="middle" x="1054" y="-399.5" font-family="Helvetica,sans-Serif" font-size="10.00">secp256k1.c</text>
</a>
</g>
</g>
<!-- Node0&#45;&gt;Node24 -->
<g id="edge46" class="edge"><title>Node0&#45;&gt;Node24</title>
<path fill="none" stroke="midnightblue" d="M573.745,-455.144C685.783,-442.98 907.026,-418.958 1005.15,-408.304"/>
<polygon fill="midnightblue" stroke="midnightblue" points="1005.82,-411.752 1015.38,-407.193 1005.06,-404.793 1005.82,-411.752"/>
</g>
<!-- Node3 -->
<g id="node4" class="node"><title>Node3</title>
<polygon fill="white" stroke="#bfbfbf" points="1014.5,-224.5 1014.5,-243.5 1069.5,-243.5 1069.5,-224.5 1014.5,-224.5"/>
<text text-anchor="middle" x="1042" y="-231.5" font-family="Helvetica,sans-Serif" font-size="10.00">stddef.h</text>
</g>
<!-- Node2&#45;&gt;Node3 -->
<g id="edge3" class="edge"><title>Node2&#45;&gt;Node3</title>
<path fill="none" stroke="midnightblue" d="M996.97,-336.206C997.227,-323.341 998.867,-298.874 1007,-280 1011.53,-269.476 1019.13,-259.267 1026.08,-251.24"/>
<polygon fill="midnightblue" stroke="midnightblue" points="1028.78,-253.483 1032.95,-243.744 1023.61,-248.755 1028.78,-253.483"/>
</g>
<!-- Node4&#45;&gt;Node1 -->
<g id="edge7" class="edge"><title>Node4&#45;&gt;Node1</title>
<path fill="none" stroke="midnightblue" d="M1242.76,-64.1078C1100.86,-57.8524 255.494,-20.5875 72.7974,-12.5339"/>
<polygon fill="midnightblue" stroke="midnightblue" points="72.8234,-9.03177 62.6789,-12.0879 72.5151,-16.025 72.8234,-9.03177"/>
</g>
<!-- Node5 -->
<g id="node6" class="node"><title>Node5</title>
<polygon fill="white" stroke="#bfbfbf" points="1677.5,-0.5 1677.5,-19.5 1728.5,-19.5 1728.5,-0.5 1677.5,-0.5"/>
<text text-anchor="middle" x="1703" y="-7.5" font-family="Helvetica,sans-Serif" font-size="10.00">stdlib.h</text>
</g>
<!-- Node4&#45;&gt;Node5 -->
<g id="edge5" class="edge"><title>Node4&#45;&gt;Node5</title>
<path fill="none" stroke="midnightblue" d="M1283.05,-62.5394C1351.87,-54.0932 1579.1,-26.2065 1667.43,-15.3651"/>
<polygon fill="midnightblue" stroke="midnightblue" points="1668,-18.822 1677.5,-14.1299 1667.15,-11.8742 1668,-18.822"/>
</g>
<!-- Node6 -->
<g id="node7" class="node"><title>Node6</title>
<polygon fill="white" stroke="#bfbfbf" points="1421.5,-0.5 1421.5,-19.5 1474.5,-19.5 1474.5,-0.5 1421.5,-0.5"/>
<text text-anchor="middle" x="1448" y="-7.5" font-family="Helvetica,sans-Serif" font-size="10.00">stdint.h</text>
</g>
<!-- Node4&#45;&gt;Node6 -->
<g id="edge6" class="edge"><title>Node4&#45;&gt;Node6</title>
<path fill="none" stroke="midnightblue" d="M1283.15,-59.1183C1313.93,-50.135 1373.11,-32.8597 1411.55,-21.6381"/>
<polygon fill="midnightblue" stroke="midnightblue" points="1412.71,-24.9468 1421.33,-18.7849 1410.75,-18.2272 1412.71,-24.9468"/>
</g>
<!-- Node7&#45;&gt;Node5 -->
<g id="edge12" class="edge"><title>Node7&#45;&gt;Node5</title>
<path fill="none" stroke="midnightblue" d="M1707.73,-224.318C1721.28,-198.25 1757.99,-118.599 1737,-56 1733.4,-45.2512 1726.1,-35.0204 1719.18,-27.0378"/>
<polygon fill="midnightblue" stroke="midnightblue" points="1721.65,-24.5561 1712.29,-19.6053 1716.52,-29.3168 1721.65,-24.5561"/>
</g>
<!-- Node7&#45;&gt;Node6 -->
<g id="edge13" class="edge"><title>Node7&#45;&gt;Node6</title>
<path fill="none" stroke="midnightblue" d="M1700.56,-224.284C1694.14,-202.728 1674.9,-146.195 1641,-112 1596.01,-66.6253 1526.34,-37.1504 1484.16,-22.3523"/>
<polygon fill="midnightblue" stroke="midnightblue" points="1485.17,-18.9978 1474.58,-19.0756 1482.91,-25.6216 1485.17,-18.9978"/>
</g>
<!-- Node8 -->
<g id="node9" class="node"><title>Node8</title>
<g id="a_node9"><a xlink:href="secp256k1_2src_2hash_8h.html" target="_top" xlink:title="hash.h">
<polygon fill="white" stroke="black" points="1678.5,-56.5 1678.5,-75.5 1727.5,-75.5 1727.5,-56.5 1678.5,-56.5"/>
<text text-anchor="middle" x="1703" y="-63.5" font-family="Helvetica,sans-Serif" font-size="10.00">hash.h</text>
</a>
</g>
</g>
<!-- Node7&#45;&gt;Node8 -->
<g id="edge9" class="edge"><title>Node7&#45;&gt;Node8</title>
<path fill="none" stroke="midnightblue" d="M1703,-224.075C1703,-197.945 1703,-121.211 1703,-85.577"/>
<polygon fill="midnightblue" stroke="midnightblue" points="1706.5,-85.5681 1703,-75.5681 1699.5,-85.5681 1706.5,-85.5681"/>
</g>
<!-- Node9 -->
<g id="node10" class="node"><title>Node9</title>
<polygon fill="white" stroke="#bfbfbf" points="410.5,-168.5 410.5,-187.5 463.5,-187.5 463.5,-168.5 410.5,-168.5"/>
<text text-anchor="middle" x="437" y="-175.5" font-family="Helvetica,sans-Serif" font-size="10.00">string.h</text>
</g>
<!-- Node7&#45;&gt;Node9 -->
<g id="edge14" class="edge"><title>Node7&#45;&gt;Node9</title>
<path fill="none" stroke="midnightblue" d="M1665.83,-228.463C1651.25,-226.828 1634.36,-225.114 1619,-224 1388.29,-207.269 648.268,-185.136 474.003,-180.065"/>
<polygon fill="midnightblue" stroke="midnightblue" points="473.909,-176.561 463.811,-179.77 473.706,-183.558 473.909,-176.561"/>
</g>
<!-- Node8&#45;&gt;Node5 -->
<g id="edge10" class="edge"><title>Node8&#45;&gt;Node5</title>
<path fill="none" stroke="midnightblue" d="M1703,-56.083C1703,-49.0059 1703,-38.8611 1703,-29.9865"/>
<polygon fill="midnightblue" stroke="midnightblue" points="1706.5,-29.751 1703,-19.7511 1699.5,-29.7511 1706.5,-29.751"/>
</g>
<!-- Node8&#45;&gt;Node6 -->
<g id="edge11" class="edge"><title>Node8&#45;&gt;Node6</title>
<path fill="none" stroke="midnightblue" d="M1678.26,-59.2069C1673.53,-58.1231 1668.62,-57.0132 1664,-56 1601.09,-42.1903 1527.64,-27.1092 1484.64,-18.3837"/>
<polygon fill="midnightblue" stroke="midnightblue" points="1485.14,-14.9143 1474.64,-16.3593 1483.75,-21.7749 1485.14,-14.9143"/>
</g>
<!-- Node11 -->
<g id="node12" class="node"><title>Node11</title>
<g id="a_node12"><a xlink:href="num_8h.html" target="_top" xlink:title="num.h">
<polygon fill="white" stroke="black" points="813.5,-112.5 813.5,-131.5 860.5,-131.5 860.5,-112.5 813.5,-112.5"/>
<text text-anchor="middle" x="837" y="-119.5" font-family="Helvetica,sans-Serif" font-size="10.00">num.h</text>
</a>
</g>
</g>
<!-- Node10&#45;&gt;Node11 -->
<g id="edge16" class="edge"><title>Node10&#45;&gt;Node11</title>
<path fill="none" stroke="midnightblue" d="M350.515,-336.326C346.109,-307.379 336.33,-213.375 386,-168 416.689,-139.965 703.972,-127.552 803.359,-124.073"/>
<polygon fill="midnightblue" stroke="midnightblue" points="803.579,-127.567 813.453,-123.727 803.34,-120.571 803.579,-127.567"/>
</g>
<!-- Node12&#45;&gt;Node4 -->
<g id="edge18" class="edge"><title>Node12&#45;&gt;Node4</title>
<path fill="none" stroke="midnightblue" d="M432.388,-336.213C403.144,-308.46 320.037,-221.365 367,-168 425.581,-101.433 1082.36,-73.5804 1232.54,-68.0577"/>
<polygon fill="midnightblue" stroke="midnightblue" points="1232.98,-71.5442 1242.85,-67.6848 1232.73,-64.5488 1232.98,-71.5442"/>
</g>
<!-- Node12&#45;&gt;Node11 -->
<g id="edge19" class="edge"><title>Node12&#45;&gt;Node11</title>
<path fill="none" stroke="midnightblue" d="M435.4,-336.318C414.814,-308.132 355.786,-218.121 401,-168 427.837,-138.25 705.601,-126.994 803.265,-123.937"/>
<polygon fill="midnightblue" stroke="midnightblue" points="803.577,-127.429 813.467,-123.627 803.365,-120.432 803.577,-127.429"/>
</g>
<!-- Node13&#45;&gt;Node11 -->
<g id="edge21" class="edge"><title>Node13&#45;&gt;Node11</title>
<path fill="none" stroke="midnightblue" d="M1539.07,-224.474C1487.59,-210.592 1380.9,-183.139 1289,-168 1134,-142.465 946.536,-129.422 870.985,-124.891"/>
<polygon fill="midnightblue" stroke="midnightblue" points="870.856,-121.378 860.667,-124.284 870.444,-128.366 870.856,-121.378"/>
</g>
<!-- Node14 -->
<g id="node15" class="node"><title>Node14</title>
<g id="a_node15"><a xlink:href="field_8h.html" target="_top" xlink:title="field.h">
<polygon fill="white" stroke="black" points="1240.5,-112.5 1240.5,-131.5 1285.5,-131.5 1285.5,-112.5 1240.5,-112.5"/>
<text text-anchor="middle" x="1263" y="-119.5" font-family="Helvetica,sans-Serif" font-size="10.00">field.h</text>
</a>
</g>
</g>
<!-- Node13&#45;&gt;Node14 -->
<g id="edge22" class="edge"><title>Node13&#45;&gt;Node14</title>
<path fill="none" stroke="midnightblue" d="M1560.61,-224.336C1544.8,-210.255 1511.35,-182.523 1478,-168 1416.92,-141.401 1339.08,-130.149 1295.8,-125.685"/>
<polygon fill="midnightblue" stroke="midnightblue" points="1295.87,-122.175 1285.57,-124.691 1295.19,-129.142 1295.87,-122.175"/>
</g>
<!-- Node15 -->
<g id="node16" class="node"><title>Node15</title>
<g id="a_node16"><a xlink:href="group_8h.html" target="_top" xlink:title="group.h">
<polygon fill="white" stroke="black" points="1034.5,-168.5 1034.5,-187.5 1087.5,-187.5 1087.5,-168.5 1034.5,-168.5"/>
<text text-anchor="middle" x="1061" y="-175.5" font-family="Helvetica,sans-Serif" font-size="10.00">group.h</text>
</a>
</g>
</g>
<!-- Node13&#45;&gt;Node15 -->
<g id="edge24" class="edge"><title>Node13&#45;&gt;Node15</title>
<path fill="none" stroke="midnightblue" d="M1530.48,-228.808C1434.56,-218.631 1190.47,-192.736 1097.61,-182.884"/>
<polygon fill="midnightblue" stroke="midnightblue" points="1097.88,-179.393 1087.57,-181.819 1097.14,-186.354 1097.88,-179.393"/>
</g>
<!-- Node14&#45;&gt;Node4 -->
<g id="edge23" class="edge"><title>Node14&#45;&gt;Node4</title>
<path fill="none" stroke="midnightblue" d="M1263,-112.083C1263,-105.006 1263,-94.8611 1263,-85.9865"/>
<polygon fill="midnightblue" stroke="midnightblue" points="1266.5,-85.751 1263,-75.7511 1259.5,-85.7511 1266.5,-85.751"/>
</g>
<!-- Node15&#45;&gt;Node11 -->
<g id="edge25" class="edge"><title>Node15&#45;&gt;Node11</title>
<path fill="none" stroke="midnightblue" d="M1034.42,-170.593C993.569,-160.744 915.376,-141.894 870.633,-131.108"/>
<polygon fill="midnightblue" stroke="midnightblue" points="871.361,-127.683 860.819,-128.742 869.721,-134.488 871.361,-127.683"/>
</g>
<!-- Node15&#45;&gt;Node14 -->
<g id="edge26" class="edge"><title>Node15&#45;&gt;Node14</title>
<path fill="none" stroke="midnightblue" d="M1087.82,-169.829C1124.75,-159.959 1191.15,-142.208 1230.74,-131.625"/>
<polygon fill="midnightblue" stroke="midnightblue" points="1231.67,-134.998 1240.43,-129.034 1229.87,-128.235 1231.67,-134.998"/>
</g>
<!-- Node16&#45;&gt;Node15 -->
<g id="edge28" class="edge"><title>Node16&#45;&gt;Node15</title>
<path fill="none" stroke="midnightblue" d="M1398.52,-280.103C1389.11,-265.689 1368.43,-237.488 1343,-224 1301.11,-201.783 1164.4,-187.645 1097.94,-181.915"/>
<polygon fill="midnightblue" stroke="midnightblue" points="1098.16,-178.421 1087.9,-181.068 1097.57,-185.397 1098.16,-178.421"/>
</g>
<!-- Node17 -->
<g id="node18" class="node"><title>Node17</title>
<g id="a_node18"><a xlink:href="scalar_8h.html" target="_top" xlink:title="scalar.h">
<polygon fill="white" stroke="black" points="777.5,-168.5 777.5,-187.5 830.5,-187.5 830.5,-168.5 777.5,-168.5"/>
<text text-anchor="middle" x="804" y="-175.5" font-family="Helvetica,sans-Serif" font-size="10.00">scalar.h</text>
</a>
</g>
</g>
<!-- Node16&#45;&gt;Node17 -->
<g id="edge29" class="edge"><title>Node16&#45;&gt;Node17</title>
<path fill="none" stroke="midnightblue" d="M1390.9,-280.452C1368.03,-266.017 1318.9,-237.105 1273,-224 1191.79,-200.812 936.409,-185.752 840.703,-180.795"/>
<polygon fill="midnightblue" stroke="midnightblue" points="840.796,-177.296 830.63,-180.281 840.439,-184.286 840.796,-177.296"/>
</g>
<!-- Node17&#45;&gt;Node11 -->
<g id="edge30" class="edge"><title>Node17&#45;&gt;Node11</title>
<path fill="none" stroke="midnightblue" d="M809.449,-168.083C814.014,-160.613 820.668,-149.724 826.293,-140.52"/>
<polygon fill="midnightblue" stroke="midnightblue" points="829.424,-142.109 831.652,-131.751 823.451,-138.459 829.424,-142.109"/>
</g>
<!-- Node18&#45;&gt;Node6 -->
<g id="edge33" class="edge"><title>Node18&#45;&gt;Node6</title>
<path fill="none" stroke="midnightblue" d="M452.983,-280.273C427.623,-259.169 369.626,-204.43 401,-168 535.747,-11.5406 1240.46,-8.78252 1410.87,-10.4493"/>
<polygon fill="midnightblue" stroke="midnightblue" points="1411.05,-13.9514 1421.09,-10.5612 1411.13,-6.95183 1411.05,-13.9514"/>
</g>
<!-- Node18&#45;&gt;Node9 -->
<g id="edge32" class="edge"><title>Node18&#45;&gt;Node9</title>
<path fill="none" stroke="midnightblue" d="M459.171,-280.334C454.477,-271.485 447.553,-257.209 444,-244 439.896,-228.741 438.185,-210.855 437.479,-197.712"/>
<polygon fill="midnightblue" stroke="midnightblue" points="440.97,-197.424 437.081,-187.568 433.976,-197.698 440.97,-197.424"/>
</g>
<!-- Node18&#45;&gt;Node15 -->
<g id="edge34" class="edge"><title>Node18&#45;&gt;Node15</title>
<path fill="none" stroke="midnightblue" d="M481.309,-280.356C510.808,-266.046 573.069,-237.659 629,-224 772.129,-189.045 948.432,-181.234 1023.89,-179.495"/>
<polygon fill="midnightblue" stroke="midnightblue" points="1024.35,-182.986 1034.28,-179.28 1024.2,-175.988 1024.35,-182.986"/>
</g>
<!-- Node18&#45;&gt;Node17 -->
<g id="edge35" class="edge"><title>Node18&#45;&gt;Node17</title>
<path fill="none" stroke="midnightblue" d="M468.843,-280.103C477.203,-265.688 495.799,-237.486 520,-224 561.807,-200.703 700.309,-187.06 767.205,-181.679"/>
<polygon fill="midnightblue" stroke="midnightblue" points="767.605,-185.158 777.301,-180.886 767.057,-178.18 767.605,-185.158"/>
</g>
<!-- Node19 -->
<g id="node20" class="node"><title>Node19</title>
<g id="a_node20"><a xlink:href="ecmult_8h.html" target="_top" xlink:title="ecmult.h">
<polygon fill="white" stroke="black" points="860.5,-224.5 860.5,-243.5 919.5,-243.5 919.5,-224.5 860.5,-224.5"/>
<text text-anchor="middle" x="890" y="-231.5" font-family="Helvetica,sans-Serif" font-size="10.00">ecmult.h</text>
</a>
</g>
</g>
<!-- Node18&#45;&gt;Node19 -->
<g id="edge36" class="edge"><title>Node18&#45;&gt;Node19</title>
<path fill="none" stroke="midnightblue" d="M506.012,-283.674C588.277,-273.247 769.581,-250.264 850.109,-240.057"/>
<polygon fill="midnightblue" stroke="midnightblue" points="850.848,-243.491 860.328,-238.761 849.968,-236.547 850.848,-243.491"/>
</g>
<!-- Node19&#45;&gt;Node11 -->
<g id="edge37" class="edge"><title>Node19&#45;&gt;Node11</title>
<path fill="none" stroke="midnightblue" d="M885.841,-224.368C877.172,-206.376 857.02,-164.55 845.493,-140.627"/>
<polygon fill="midnightblue" stroke="midnightblue" points="848.633,-139.081 841.14,-131.591 842.327,-142.119 848.633,-139.081"/>
</g>
<!-- Node19&#45;&gt;Node15 -->
<g id="edge38" class="edge"><title>Node19&#45;&gt;Node15</title>
<path fill="none" stroke="midnightblue" d="M917.095,-224.444C946.073,-215.293 992.195,-200.728 1024.39,-190.561"/>
<polygon fill="midnightblue" stroke="midnightblue" points="1025.83,-193.776 1034.31,-187.428 1023.72,-187.101 1025.83,-193.776"/>
</g>
<!-- Node19&#45;&gt;Node17 -->
<g id="edge39" class="edge"><title>Node19&#45;&gt;Node17</title>
<path fill="none" stroke="midnightblue" d="M876.183,-224.324C862.767,-215.9 842.176,-202.971 826.414,-193.074"/>
<polygon fill="midnightblue" stroke="midnightblue" points="828.113,-190.008 817.783,-187.655 824.391,-195.936 828.113,-190.008"/>
</g>
<!-- Node20 -->
<g id="node21" class="node"><title>Node20</title>
<g id="a_node21"><a xlink:href="scratch_8h.html" target="_top" xlink:title="scratch.h">
<polygon fill="white" stroke="black" points="1219.5,-168.5 1219.5,-187.5 1280.5,-187.5 1280.5,-168.5 1219.5,-168.5"/>
<text text-anchor="middle" x="1250" y="-175.5" font-family="Helvetica,sans-Serif" font-size="10.00">scratch.h</text>
</a>
</g>
</g>
<!-- Node19&#45;&gt;Node20 -->
<g id="edge40" class="edge"><title>Node19&#45;&gt;Node20</title>
<path fill="none" stroke="midnightblue" d="M919.767,-228.535C984.072,-218.889 1136.05,-196.092 1209.23,-185.115"/>
<polygon fill="midnightblue" stroke="midnightblue" points="1210.07,-188.529 1219.44,-183.585 1209.03,-181.607 1210.07,-188.529"/>
</g>
<!-- Node21&#45;&gt;Node1 -->
<g id="edge42" class="edge"><title>Node21&#45;&gt;Node1</title>
<path fill="none" stroke="midnightblue" d="M179.284,-228.713C154.001,-223.394 117.286,-211.916 95,-188 52.6842,-142.591 41.7786,-65.5514 38.9713,-30.0062"/>
<polygon fill="midnightblue" stroke="midnightblue" points="42.4393,-29.3992 38.296,-19.6481 35.4541,-29.8547 42.4393,-29.3992"/>
</g>
<!-- Node21&#45;&gt;Node9 -->
<g id="edge43" class="edge"><title>Node21&#45;&gt;Node9</title>
<path fill="none" stroke="midnightblue" d="M234.743,-226.486C276.175,-216.759 354.264,-198.425 400.349,-187.605"/>
<polygon fill="midnightblue" stroke="midnightblue" points="401.292,-190.979 410.227,-185.286 399.691,-184.164 401.292,-190.979"/>
</g>
<!-- Node22 -->
<g id="node23" class="node"><title>Node22</title>
<polygon fill="white" stroke="#bfbfbf" points="104.5,-168.5 104.5,-187.5 155.5,-187.5 155.5,-168.5 104.5,-168.5"/>
<text text-anchor="middle" x="130" y="-175.5" font-family="Helvetica,sans-Serif" font-size="10.00">math.h</text>
</g>
<!-- Node21&#45;&gt;Node22 -->
<g id="edge44" class="edge"><title>Node21&#45;&gt;Node22</title>
<path fill="none" stroke="midnightblue" d="M194.629,-224.324C182.842,-216.058 164.868,-203.453 150.864,-193.632"/>
<polygon fill="midnightblue" stroke="midnightblue" points="152.538,-190.531 142.341,-187.655 148.518,-196.262 152.538,-190.531"/>
</g>
<!-- Node23 -->
<g id="node24" class="node"><title>Node23</title>
<polygon fill="white" stroke="#bfbfbf" points="174,-168.5 174,-187.5 240,-187.5 240,-168.5 174,-168.5"/>
<text text-anchor="middle" x="207" y="-175.5" font-family="Helvetica,sans-Serif" font-size="10.00">sys/time.h</text>
</g>
<!-- Node21&#45;&gt;Node23 -->
<g id="edge45" class="edge"><title>Node21&#45;&gt;Node23</title>
<path fill="none" stroke="midnightblue" d="M207,-224.083C207,-217.006 207,-206.861 207,-197.986"/>
<polygon fill="midnightblue" stroke="midnightblue" points="210.5,-197.751 207,-187.751 203.5,-197.751 210.5,-197.751"/>
</g>
<!-- Node24&#45;&gt;Node2 -->
<g id="edge47" class="edge"><title>Node24&#45;&gt;Node2</title>
<path fill="none" stroke="midnightblue" d="M1044.84,-392.324C1036.5,-384.42 1023.97,-372.548 1013.82,-362.938"/>
<polygon fill="midnightblue" stroke="midnightblue" points="1015.99,-360.171 1006.32,-355.834 1011.18,-365.252 1015.99,-360.171"/>
</g>
<!-- Node24&#45;&gt;Node4 -->
<g id="edge48" class="edge"><title>Node24&#45;&gt;Node4</title>
<path fill="none" stroke="midnightblue" d="M1092.53,-401.617C1167.13,-401.777 1335.76,-397.069 1470,-356 1549.22,-331.764 1592.36,-322.444 1619,-244 1666.4,-104.45 1387.07,-74.555 1293.07,-68.4761"/>
<polygon fill="midnightblue" stroke="midnightblue" points="1293.25,-64.9806 1283.05,-67.8745 1292.83,-71.968 1293.25,-64.9806"/>
</g>
<!-- Node24&#45;&gt;Node7 -->
<g id="edge90" class="edge"><title>Node24&#45;&gt;Node7</title>
<path fill="none" stroke="midnightblue" d="M1092.6,-401.16C1202.44,-401.101 1514.77,-397.216 1607,-356 1652.35,-335.733 1682.34,-281.437 1695.45,-252.973"/>
<polygon fill="midnightblue" stroke="midnightblue" points="1698.68,-254.328 1699.51,-243.766 1692.27,-251.502 1698.68,-254.328"/>
</g>
<!-- Node24&#45;&gt;Node10 -->
<g id="edge49" class="edge"><title>Node24&#45;&gt;Node10</title>
<path fill="none" stroke="midnightblue" d="M1015.32,-400.092C915.001,-397.366 638.152,-387.482 398.707,-356.075"/>
<polygon fill="midnightblue" stroke="midnightblue" points="399.146,-352.602 388.772,-354.756 398.225,-359.541 399.146,-352.602"/>
</g>
<!-- Node24&#45;&gt;Node12 -->
<g id="edge50" class="edge"><title>Node24&#45;&gt;Node12</title>
<path fill="none" stroke="midnightblue" d="M1015.38,-397.655C929.901,-390.24 718.21,-371.827 541,-356 523.633,-354.449 504.554,-352.72 487.82,-351.196"/>
<polygon fill="midnightblue" stroke="midnightblue" points="488.017,-347.699 477.74,-350.277 487.381,-354.67 488.017,-347.699"/>
</g>
<!-- Node24&#45;&gt;Node13 -->
<g id="edge52" class="edge"><title>Node24&#45;&gt;Node13</title>
<path fill="none" stroke="midnightblue" d="M1092.79,-398.69C1199.16,-391.541 1491.83,-366.141 1557,-300 1568.85,-287.969 1571.39,-268.369 1571.39,-253.833"/>
<polygon fill="midnightblue" stroke="midnightblue" points="1574.88,-253.356 1570.99,-243.502 1567.88,-253.633 1574.88,-253.356"/>
</g>
<!-- Node24&#45;&gt;Node16 -->
<g id="edge51" class="edge"><title>Node24&#45;&gt;Node16</title>
<path fill="none" stroke="midnightblue" d="M1081.17,-392.46C1143.33,-372.926 1295.94,-324.963 1366.77,-302.702"/>
<polygon fill="midnightblue" stroke="midnightblue" points="1368.11,-305.948 1376.6,-299.61 1366.01,-299.27 1368.11,-305.948"/>
</g>
<!-- Node24&#45;&gt;Node18 -->
<g id="edge53" class="edge"><title>Node24&#45;&gt;Node18</title>
<path fill="none" stroke="midnightblue" d="M1015.32,-399.416C917.117,-395.063 660.198,-381.514 579,-356 542.848,-344.64 505.455,-320.866 483.484,-305.435"/>
<polygon fill="midnightblue" stroke="midnightblue" points="485.492,-302.567 475.325,-299.586 481.414,-308.257 485.492,-302.567"/>
</g>
<!-- Node25 -->
<g id="node26" class="node"><title>Node25</title>
<g id="a_node26"><a xlink:href="ecmult__const__impl_8h.html" target="_top" xlink:title="ecmult_const_impl.h">
<polygon fill="white" stroke="black" points="588,-336.5 588,-355.5 704,-355.5 704,-336.5 588,-336.5"/>
<text text-anchor="middle" x="646" y="-343.5" font-family="Helvetica,sans-Serif" font-size="10.00">ecmult_const_impl.h</text>
</a>
</g>
</g>
<!-- Node24&#45;&gt;Node25 -->
<g id="edge54" class="edge"><title>Node24&#45;&gt;Node25</title>
<path fill="none" stroke="midnightblue" d="M1015.25,-395.871C946.08,-386.716 800.544,-367.454 714.278,-356.037"/>
<polygon fill="midnightblue" stroke="midnightblue" points="714.691,-352.561 704.318,-354.719 713.772,-359.5 714.691,-352.561"/>
</g>
<!-- Node27 -->
<g id="node28" class="node"><title>Node27</title>
<g id="a_node28"><a xlink:href="ecmult__gen__impl_8h.html" target="_top" xlink:title="ecmult_gen_impl.h">
<polygon fill="white" stroke="black" points="1200.5,-280.5 1200.5,-299.5 1307.5,-299.5 1307.5,-280.5 1200.5,-280.5"/>
<text text-anchor="middle" x="1254" y="-287.5" font-family="Helvetica,sans-Serif" font-size="10.00">ecmult_gen_impl.h</text>
</a>
</g>
</g>
<!-- Node24&#45;&gt;Node27 -->
<g id="edge61" class="edge"><title>Node24&#45;&gt;Node27</title>
<path fill="none" stroke="midnightblue" d="M1081.39,-392.36C1104.86,-384.432 1139.18,-371.575 1167,-356 1192.78,-341.57 1219.59,-320.454 1236.52,-306.242"/>
<polygon fill="midnightblue" stroke="midnightblue" points="1239.07,-308.664 1244.41,-299.511 1234.53,-303.338 1239.07,-308.664"/>
</g>
<!-- Node29 -->
<g id="node30" class="node"><title>Node29</title>
<g id="a_node30"><a xlink:href="ecdsa__impl_8h.html" target="_top" xlink:title="ecdsa_impl.h">
<polygon fill="white" stroke="black" points="842,-336.5 842,-355.5 922,-355.5 922,-336.5 842,-336.5"/>
<text text-anchor="middle" x="882" y="-343.5" font-family="Helvetica,sans-Serif" font-size="10.00">ecdsa_impl.h</text>
</a>
</g>
</g>
<!-- Node24&#45;&gt;Node29 -->
<g id="edge68" class="edge"><title>Node24&#45;&gt;Node29</title>
<path fill="none" stroke="midnightblue" d="M1026.75,-392.444C997.559,-383.28 951.079,-368.688 918.691,-358.519"/>
<polygon fill="midnightblue" stroke="midnightblue" points="919.716,-355.173 909.126,-355.516 917.619,-361.851 919.716,-355.173"/>
</g>
<!-- Node31 -->
<g id="node32" class="node"><title>Node31</title>
<g id="a_node32"><a xlink:href="eckey__impl_8h.html" target="_top" xlink:title="eckey_impl.h">
<polygon fill="white" stroke="black" points="1079.5,-336.5 1079.5,-355.5 1158.5,-355.5 1158.5,-336.5 1079.5,-336.5"/>
<text text-anchor="middle" x="1119" y="-343.5" font-family="Helvetica,sans-Serif" font-size="10.00">eckey_impl.h</text>
</a>
</g>
</g>
<!-- Node24&#45;&gt;Node31 -->
<g id="edge79" class="edge"><title>Node24&#45;&gt;Node31</title>
<path fill="none" stroke="midnightblue" d="M1064.44,-392.324C1074.15,-384.263 1088.82,-372.077 1100.5,-362.369"/>
<polygon fill="midnightblue" stroke="midnightblue" points="1102.91,-364.916 1108.37,-355.834 1098.44,-359.532 1102.91,-364.916"/>
</g>
<!-- Node33 -->
<g id="node34" class="node"><title>Node33</title>
<g id="a_node34"><a xlink:href="scratch__impl_8h.html" target="_top" xlink:title="scratch_impl.h">
<polygon fill="white" stroke="black" points="1462,-280.5 1462,-299.5 1548,-299.5 1548,-280.5 1462,-280.5"/>
<text text-anchor="middle" x="1505" y="-287.5" font-family="Helvetica,sans-Serif" font-size="10.00">scratch_impl.h</text>
</a>
</g>
</g>
<!-- Node24&#45;&gt;Node33 -->
<g id="edge91" class="edge"><title>Node24&#45;&gt;Node33</title>
<path fill="none" stroke="midnightblue" d="M1090.26,-392.475C1128.32,-383.499 1189.9,-368.907 1243,-356 1319.85,-337.319 1409.23,-315.023 1461.22,-301.995"/>
<polygon fill="midnightblue" stroke="midnightblue" points="1462.26,-305.343 1471.11,-299.516 1460.56,-298.553 1462.26,-305.343"/>
</g>
<!-- Node25&#45;&gt;Node15 -->
<g id="edge56" class="edge"><title>Node25&#45;&gt;Node15</title>
<path fill="none" stroke="midnightblue" d="M657.33,-336.498C687.279,-314.443 771.693,-254.957 851,-224 909.4,-201.204 981.674,-188.941 1024.41,-183.208"/>
<polygon fill="midnightblue" stroke="midnightblue" points="1024.88,-186.676 1034.35,-181.921 1023.98,-179.734 1024.88,-186.676"/>
</g>
<!-- Node25&#45;&gt;Node17 -->
<g id="edge55" class="edge"><title>Node25&#45;&gt;Node17</title>
<path fill="none" stroke="midnightblue" d="M639.752,-336.324C625.123,-314.861 591.868,-258.522 619,-224 637.077,-200.998 718.605,-188.291 767.194,-182.639"/>
<polygon fill="midnightblue" stroke="midnightblue" points="767.771,-186.097 777.32,-181.508 766.993,-179.14 767.771,-186.097"/>
</g>
<!-- Node25&#45;&gt;Node18 -->
<g id="edge60" class="edge"><title>Node25&#45;&gt;Node18</title>
<path fill="none" stroke="midnightblue" d="M617.162,-336.444C586.144,-327.241 536.671,-312.562 502.382,-302.388"/>
<polygon fill="midnightblue" stroke="midnightblue" points="503.286,-299.006 492.704,-299.516 501.295,-305.716 503.286,-299.006"/>
</g>
<!-- Node26 -->
<g id="node27" class="node"><title>Node26</title>
<g id="a_node27"><a xlink:href="ecmult__const_8h.html" target="_top" xlink:title="ecmult_const.h">
<polygon fill="white" stroke="black" points="638,-224.5 638,-243.5 728,-243.5 728,-224.5 638,-224.5"/>
<text text-anchor="middle" x="683" y="-231.5" font-family="Helvetica,sans-Serif" font-size="10.00">ecmult_const.h</text>
</a>
</g>
</g>
<!-- Node25&#45;&gt;Node26 -->
<g id="edge57" class="edge"><title>Node25&#45;&gt;Node26</title>
<path fill="none" stroke="midnightblue" d="M648.903,-336.368C654.901,-318.537 668.773,-277.295 676.854,-253.272"/>
<polygon fill="midnightblue" stroke="midnightblue" points="680.239,-254.185 680.11,-243.591 673.605,-251.954 680.239,-254.185"/>
</g>
<!-- Node26&#45;&gt;Node15 -->
<g id="edge59" class="edge"><title>Node26&#45;&gt;Node15</title>
<path fill="none" stroke="midnightblue" d="M728.22,-226.54C803.897,-215.729 954.731,-194.181 1024.3,-184.243"/>
<polygon fill="midnightblue" stroke="midnightblue" points="1024.94,-187.687 1034.35,-182.808 1023.95,-180.757 1024.94,-187.687"/>
</g>
<!-- Node26&#45;&gt;Node17 -->
<g id="edge58" class="edge"><title>Node26&#45;&gt;Node17</title>
<path fill="none" stroke="midnightblue" d="M702.173,-224.444C721.909,-215.636 752.885,-201.812 775.493,-191.722"/>
<polygon fill="midnightblue" stroke="midnightblue" points="777.211,-194.788 784.917,-187.516 774.359,-188.396 777.211,-194.788"/>
</g>
<!-- Node27&#45;&gt;Node7 -->
<g id="edge67" class="edge"><title>Node27&#45;&gt;Node7</title>
<path fill="none" stroke="midnightblue" d="M1307.71,-282.54C1396.31,-271.884 1571.64,-250.799 1655.78,-240.679"/>
<polygon fill="midnightblue" stroke="midnightblue" points="1656.31,-244.141 1665.82,-239.472 1655.47,-237.191 1656.31,-244.141"/>
</g>
<!-- Node27&#45;&gt;Node15 -->
<g id="edge63" class="edge"><title>Node27&#45;&gt;Node15</title>
<path fill="none" stroke="midnightblue" d="M1276.77,-280.358C1304.39,-268.623 1345.01,-246.516 1326,-224 1311.43,-206.747 1167.39,-189.858 1098,-182.646"/>
<polygon fill="midnightblue" stroke="midnightblue" points="1098.24,-179.152 1087.93,-181.613 1097.52,-186.115 1098.24,-179.152"/>
</g>
<!-- Node27&#45;&gt;Node17 -->
<g id="edge62" class="edge"><title>Node27&#45;&gt;Node17</title>
<path fill="none" stroke="midnightblue" d="M1257.5,-280.121C1262.32,-266.239 1268.94,-239.396 1255,-224 1227.36,-193.469 943.343,-182.779 840.73,-179.897"/>
<polygon fill="midnightblue" stroke="midnightblue" points="840.628,-176.393 830.536,-179.62 840.437,-183.39 840.628,-176.393"/>
</g>
<!-- Node28 -->
<g id="node29" class="node"><title>Node28</title>
<g id="a_node29"><a xlink:href="ecmult__gen_8h.html" target="_top" xlink:title="ecmult_gen.h">
<polygon fill="white" stroke="black" points="1164,-224.5 1164,-243.5 1246,-243.5 1246,-224.5 1164,-224.5"/>
<text text-anchor="middle" x="1205" y="-231.5" font-family="Helvetica,sans-Serif" font-size="10.00">ecmult_gen.h</text>
</a>
</g>
</g>
<!-- Node27&#45;&gt;Node28 -->
<g id="edge64" class="edge"><title>Node27&#45;&gt;Node28</title>
<path fill="none" stroke="midnightblue" d="M1245.91,-280.083C1238.84,-272.298 1228.41,-260.801 1219.85,-251.367"/>
<polygon fill="midnightblue" stroke="midnightblue" points="1222.25,-248.805 1212.94,-243.751 1217.07,-253.509 1222.25,-248.805"/>
</g>
<!-- Node28&#45;&gt;Node15 -->
<g id="edge66" class="edge"><title>Node28&#45;&gt;Node15</title>
<path fill="none" stroke="midnightblue" d="M1182.18,-224.444C1158.17,-215.438 1120.17,-201.189 1093.13,-191.049"/>
<polygon fill="midnightblue" stroke="midnightblue" points="1094.3,-187.751 1083.71,-187.516 1091.84,-194.305 1094.3,-187.751"/>
</g>
<!-- Node28&#45;&gt;Node17 -->
<g id="edge65" class="edge"><title>Node28&#45;&gt;Node17</title>
<path fill="none" stroke="midnightblue" d="M1163.97,-227.475C1085.68,-216.932 916.101,-194.096 841.036,-183.987"/>
<polygon fill="midnightblue" stroke="midnightblue" points="841.047,-180.457 830.669,-182.591 840.112,-187.395 841.047,-180.457"/>
</g>
<!-- Node29&#45;&gt;Node14 -->
<g id="edge70" class="edge"><title>Node29&#45;&gt;Node14</title>
<path fill="none" stroke="midnightblue" d="M841.862,-342.057C754.968,-334.077 561.703,-306.745 619,-224 689.436,-122.281 1109.35,-120.64 1230.37,-122.327"/>
<polygon fill="midnightblue" stroke="midnightblue" points="1230.44,-125.828 1240.5,-122.486 1230.55,-118.829 1230.44,-125.828"/>
</g>
<!-- Node29&#45;&gt;Node15 -->
<g id="edge71" class="edge"><title>Node29&#45;&gt;Node15</title>
<path fill="none" stroke="midnightblue" d="M890.551,-336.366C914.431,-312.289 981.613,-244.806 1005,-224 1016.76,-213.534 1030.55,-202.446 1041.49,-193.896"/>
<polygon fill="midnightblue" stroke="midnightblue" points="1043.81,-196.531 1049.57,-187.643 1039.52,-190.996 1043.81,-196.531"/>
</g>
<!-- Node29&#45;&gt;Node17 -->
<g id="edge69" class="edge"><title>Node29&#45;&gt;Node17</title>
<path fill="none" stroke="midnightblue" d="M841.942,-342.321C783.607,-336.014 677.015,-314.868 629,-244 594.63,-193.272 706.475,-182.019 767.314,-179.603"/>
<polygon fill="midnightblue" stroke="midnightblue" points="767.445,-183.101 777.322,-179.267 767.21,-176.105 767.445,-183.101"/>
</g>
<!-- Node29&#45;&gt;Node19 -->
<g id="edge72" class="edge"><title>Node29&#45;&gt;Node19</title>
<path fill="none" stroke="midnightblue" d="M873.77,-336.322C863.125,-324.001 846.76,-300.638 854,-280 857.785,-269.209 865.367,-259.084 872.6,-251.181"/>
<polygon fill="midnightblue" stroke="midnightblue" points="875.326,-253.4 879.838,-243.815 870.333,-248.494 875.326,-253.4"/>
</g>
<!-- Node29&#45;&gt;Node28 -->
<g id="edge73" class="edge"><title>Node29&#45;&gt;Node28</title>
<path fill="none" stroke="midnightblue" d="M922.135,-336.939C970.543,-327.007 1048.91,-310.199 1077,-300 1115.43,-286.044 1157.17,-263.284 1182.19,-248.733"/>
<polygon fill="midnightblue" stroke="midnightblue" points="1184.08,-251.683 1190.93,-243.594 1180.53,-245.65 1184.08,-251.683"/>
</g>
<!-- Node30 -->
<g id="node31" class="node"><title>Node30</title>
<g id="a_node31"><a xlink:href="ecdsa_8h.html" target="_top" xlink:title="ecdsa.h">
<polygon fill="white" stroke="black" points="863,-280.5 863,-299.5 917,-299.5 917,-280.5 863,-280.5"/>
<text text-anchor="middle" x="890" y="-287.5" font-family="Helvetica,sans-Serif" font-size="10.00">ecdsa.h</text>
</a>
</g>
</g>
<!-- Node29&#45;&gt;Node30 -->
<g id="edge74" class="edge"><title>Node29&#45;&gt;Node30</title>
<path fill="none" stroke="midnightblue" d="M883.321,-336.083C884.381,-328.927 885.906,-318.635 887.231,-309.691"/>
<polygon fill="midnightblue" stroke="midnightblue" points="890.7,-310.156 888.704,-299.751 883.776,-309.13 890.7,-310.156"/>
</g>
<!-- Node30&#45;&gt;Node3 -->
<g id="edge75" class="edge"><title>Node30&#45;&gt;Node3</title>
<path fill="none" stroke="midnightblue" d="M914.085,-280.444C939.545,-271.399 979.894,-257.064 1008.46,-246.916"/>
<polygon fill="midnightblue" stroke="midnightblue" points="1009.78,-250.162 1018.03,-243.516 1007.43,-243.566 1009.78,-250.162"/>
</g>
<!-- Node30&#45;&gt;Node15 -->
<g id="edge77" class="edge"><title>Node30&#45;&gt;Node15</title>
<path fill="none" stroke="midnightblue" d="M899.613,-280.313C914.454,-267.155 944.15,-241.819 972,-224 991.197,-211.717 1014.18,-200.169 1031.98,-191.847"/>
<polygon fill="midnightblue" stroke="midnightblue" points="1033.66,-194.928 1041.28,-187.571 1030.74,-188.568 1033.66,-194.928"/>
</g>
<!-- Node30&#45;&gt;Node17 -->
<g id="edge76" class="edge"><title>Node30&#45;&gt;Node17</title>
<path fill="none" stroke="midnightblue" d="M881.994,-280.231C873.939,-271.302 861.273,-256.965 851,-244 838.473,-228.191 825.076,-209.463 815.803,-196.18"/>
<polygon fill="midnightblue" stroke="midnightblue" points="818.424,-193.817 809.851,-187.59 812.67,-197.803 818.424,-193.817"/>
</g>
<!-- Node30&#45;&gt;Node19 -->
<g id="edge78" class="edge"><title>Node30&#45;&gt;Node19</title>
<path fill="none" stroke="midnightblue" d="M890,-280.083C890,-273.006 890,-262.861 890,-253.986"/>
<polygon fill="midnightblue" stroke="midnightblue" points="893.5,-253.751 890,-243.751 886.5,-253.751 893.5,-253.751"/>
</g>
<!-- Node31&#45;&gt;Node14 -->
<g id="edge87" class="edge"><title>Node31&#45;&gt;Node14</title>
<path fill="none" stroke="midnightblue" d="M1158.91,-340.023C1209.23,-333.058 1292.07,-319.081 1316,-300 1344.03,-277.654 1354.78,-257.854 1343,-224 1330.78,-188.878 1300.69,-156.778 1281.1,-138.587"/>
<polygon fill="midnightblue" stroke="midnightblue" points="1283.2,-135.768 1273.42,-131.674 1278.51,-140.968 1283.2,-135.768"/>
</g>
<!-- Node31&#45;&gt;Node15 -->
<g id="edge88" class="edge"><title>Node31&#45;&gt;Node15</title>
<path fill="none" stroke="midnightblue" d="M1127.33,-336.331C1140.22,-323.197 1166.12,-297.892 1191,-280 1217.5,-260.948 1238.52,-272.171 1255,-244 1259.49,-236.327 1260.53,-230.959 1255,-224 1235.77,-199.802 1148.78,-187.455 1098.05,-182.208"/>
<polygon fill="midnightblue" stroke="midnightblue" points="1098.11,-178.697 1087.82,-181.194 1097.42,-185.663 1098.11,-178.697"/>
</g>
<!-- Node31&#45;&gt;Node17 -->
<g id="edge86" class="edge"><title>Node31&#45;&gt;Node17</title>
<path fill="none" stroke="midnightblue" d="M1079.44,-338.531C1006.09,-326.505 856.203,-301.758 854,-300 821.978,-274.443 810.261,-224.889 806.131,-197.8"/>
<polygon fill="midnightblue" stroke="midnightblue" points="809.576,-197.153 804.789,-187.702 802.637,-198.076 809.576,-197.153"/>
</g>
<!-- Node31&#45;&gt;Node28 -->
<g id="edge89" class="edge"><title>Node31&#45;&gt;Node28</title>
<path fill="none" stroke="midnightblue" d="M1123.36,-336.11C1129.94,-323.126 1143.22,-298.512 1158,-280 1166.61,-269.212 1177.71,-258.469 1186.96,-250.187"/>
<polygon fill="midnightblue" stroke="midnightblue" points="1189.27,-252.815 1194.51,-243.602 1184.67,-247.542 1189.27,-252.815"/>
</g>
<!-- Node32 -->
<g id="node33" class="node"><title>Node32</title>
<g id="a_node33"><a xlink:href="eckey_8h.html" target="_top" xlink:title="eckey.h">
<polygon fill="white" stroke="black" points="1016,-280.5 1016,-299.5 1068,-299.5 1068,-280.5 1016,-280.5"/>
<text text-anchor="middle" x="1042" y="-287.5" font-family="Helvetica,sans-Serif" font-size="10.00">eckey.h</text>
</a>
</g>
</g>
<!-- Node31&#45;&gt;Node32 -->
<g id="edge80" class="edge"><title>Node31&#45;&gt;Node32</title>
<path fill="none" stroke="midnightblue" d="M1106.63,-336.324C1094.84,-328.058 1076.87,-315.453 1062.86,-305.632"/>
<polygon fill="midnightblue" stroke="midnightblue" points="1064.54,-302.531 1054.34,-299.655 1060.52,-308.262 1064.54,-302.531"/>
</g>
<!-- Node32&#45;&gt;Node3 -->
<g id="edge81" class="edge"><title>Node32&#45;&gt;Node3</title>
<path fill="none" stroke="midnightblue" d="M1042,-280.083C1042,-273.006 1042,-262.861 1042,-253.986"/>
<polygon fill="midnightblue" stroke="midnightblue" points="1045.5,-253.751 1042,-243.751 1038.5,-253.751 1045.5,-253.751"/>
</g>
<!-- Node32&#45;&gt;Node15 -->
<g id="edge82" class="edge"><title>Node32&#45;&gt;Node15</title>
<path fill="none" stroke="midnightblue" d="M1066.47,-280.438C1082.57,-273.378 1102.38,-261.626 1112,-244 1122.4,-224.958 1102.71,-205.727 1084.85,-193.178"/>
<polygon fill="midnightblue" stroke="midnightblue" points="1086.65,-190.17 1076.37,-187.584 1082.79,-196.013 1086.65,-190.17"/>
</g>
<!-- Node32&#45;&gt;Node17 -->
<g id="edge83" class="edge"><title>Node32&#45;&gt;Node17</title>
<path fill="none" stroke="midnightblue" d="M1053.09,-280.332C1068.59,-267.199 1093.2,-241.896 1078,-224 1048.01,-188.684 908.583,-181.032 840.967,-179.412"/>
<polygon fill="midnightblue" stroke="midnightblue" points="840.83,-175.908 830.759,-179.2 840.684,-182.906 840.83,-175.908"/>
</g>
<!-- Node32&#45;&gt;Node19 -->
<g id="edge84" class="edge"><title>Node32&#45;&gt;Node19</title>
<path fill="none" stroke="midnightblue" d="M1017.92,-280.444C992.455,-271.399 952.106,-257.064 923.541,-246.916"/>
<polygon fill="midnightblue" stroke="midnightblue" points="924.567,-243.566 913.972,-243.516 922.223,-250.162 924.567,-243.566"/>
</g>
<!-- Node32&#45;&gt;Node28 -->
<g id="edge85" class="edge"><title>Node32&#45;&gt;Node28</title>
<path fill="none" stroke="midnightblue" d="M1067.83,-280.444C1095.25,-271.359 1138.78,-256.939 1169.43,-246.783"/>
<polygon fill="midnightblue" stroke="midnightblue" points="1170.9,-249.984 1179.29,-243.516 1168.7,-243.339 1170.9,-249.984"/>
</g>
<!-- Node33&#45;&gt;Node20 -->
<g id="edge92" class="edge"><title>Node33&#45;&gt;Node20</title>
<path fill="none" stroke="midnightblue" d="M1498.89,-280.322C1488.49,-266.223 1465.92,-238.464 1440,-224 1392.89,-197.712 1330.92,-186.717 1290.78,-182.161"/>
<polygon fill="midnightblue" stroke="midnightblue" points="1291.13,-178.679 1280.82,-181.112 1290.4,-185.64 1291.13,-178.679"/>
</g>
</g>
</svg>
