<?xml version="1.0" encoding="UTF-8" standalone="no"?>
<!DOCTYPE svg PUBLIC "-//W3C//DTD SVG 1.1//EN"
 "http://www.w3.org/Graphics/SVG/1.1/DTD/svg11.dtd">
<!-- Generated by graphviz version 2.38.0 (20140413.2041)
 -->
<!-- Title: benchmark_schnorr_verify Pages: 1 -->
<!--zoomable 446 -->
<svg id="main" version="1.1" xmlns="http://www.w3.org/2000/svg" xmlns:xlink="http://www.w3.org/1999/xlink" xml:space="preserve" onload="init(evt)">
<style type="text/css"><![CDATA[
.edge:hover path { stroke: red; }
.edge:hover polygon { stroke: red; fill: red; }
]]></style>
<script type="text/javascript"><![CDATA[
var edges = document.getElementsByTagName('g');
if (edges && edges.length) {
  for (var i=0;i<edges.length;i++) {
    if (edges[i].id.substr(0,4)=='edge') {
      edges[i].setAttribute('class','edge');
    }
  }
}
]]></script>
        <defs>
                <circle id="rim" cx="0" cy="0" r="7"/>
                <circle id="rim2" cx="0" cy="0" r="3.5"/>
                <g id="zoomPlus">
                        <use xlink:href="#rim" fill="#404040">
                                <set attributeName="fill" to="#808080" begin="zoomplus.mouseover" end="zoomplus.mouseout"/>
                        </use>
                        <path d="M-4,0h8M0,-4v8" fill="none" stroke="white" stroke-width="1.5" pointer-events="none"/>
                </g>
                <g id="zoomMin">
                        <use xlink:href="#rim" fill="#404040">
                                <set attributeName="fill" to="#808080" begin="zoomminus.mouseover" end="zoomminus.mouseout"/>
                        </use>
                        <path d="M-4,0h8" fill="none" stroke="white" stroke-width="1.5" pointer-events="none"/>
                </g>
                <g id="dirArrow">
                        <path fill="none" stroke="white" stroke-width="1.5" d="M0,-3.0v7 M-2.5,-0.5L0,-3.0L2.5,-0.5"/>
                </g>
               <g id="resetDef">
                       <use xlink:href="#rim2" fill="#404040">
                               <set attributeName="fill" to="#808080" begin="reset.mouseover" end="reset.mouseout"/>
                       </use>
               </g>
        </defs>

<script type="text/javascript">
var viewWidth = 765;
var viewHeight = 446;
var sectionId = 'dynsection-3';
</script>
<script xlink:href="svgpan.js"/>
<svg id="graph" class="graph">
<g id="viewport">
<title>benchmark_schnorr_verify</title>
<polygon fill="white" stroke="none" points="-4,4 -4,-442 761,-442 761,4 -4,4"/>
<!-- Node30 -->
<g id="node1" class="node"><title>Node30</title>
<polygon fill="#bfbfbf" stroke="black" points="0,-237.5 0,-256.5 131,-256.5 131,-237.5 0,-237.5"/>
<text text-anchor="middle" x="65.5" y="-244.5" font-family="Helvetica,sans-Serif" font-size="10.00">benchmark_schnorr_verify</text>
</g>
<!-- Node31 -->
<g id="node2" class="node"><title>Node31</title>
<g id="a_node2"><a xlink:href="secp256k1_8h.html#a4e5dc8952c9a7e791376505ef2023ca1" target="_top" xlink:title="Parse a variable&#45;length public key into the pubkey object. ">
<polygon fill="white" stroke="black" points="174.5,-337 174.5,-367 290.5,-367 290.5,-337 174.5,-337"/>
<text text-anchor="start" x="182.5" y="-355" font-family="Helvetica,sans-Serif" font-size="10.00">secp256k1_ec_pubkey</text>
<text text-anchor="middle" x="232.5" y="-344" font-family="Helvetica,sans-Serif" font-size="10.00">_parse</text>
</a>
</g>
</g>
<!-- Node30&#45;&gt;Node31 -->
<g id="edge1" class="edge"><title>Node30&#45;&gt;Node31</title>
<path fill="none" stroke="midnightblue" d="M81.4337,-256.503C107.907,-273.35 163.624,-308.806 199.215,-331.455"/>
<polygon fill="midnightblue" stroke="midnightblue" points="197.485,-334.503 207.801,-336.919 201.243,-328.597 197.485,-334.503"/>
</g>
<!-- Node41 -->
<g id="node12" class="node"><title>Node41</title>
<g id="a_node12"><a xlink:href="secp256k1__schnorr_8h.html#ab9bcde80df113d29823401a460ea9bcc" target="_top" xlink:title="Verify a signature created by secp256k1_schnorr_sign. ">
<polygon fill="white" stroke="black" points="167,-171.5 167,-190.5 298,-190.5 298,-171.5 167,-171.5"/>
<text text-anchor="middle" x="232.5" y="-178.5" font-family="Helvetica,sans-Serif" font-size="10.00">secp256k1_schnorr_verify</text>
</a>
</g>
</g>
<!-- Node30&#45;&gt;Node41 -->
<g id="edge11" class="edge"><title>Node30&#45;&gt;Node41</title>
<path fill="none" stroke="midnightblue" d="M90.4924,-237.403C118.924,-226.031 166.454,-207.018 198.378,-194.249"/>
<polygon fill="midnightblue" stroke="midnightblue" points="199.761,-197.465 207.746,-190.501 197.162,-190.966 199.761,-197.465"/>
</g>
<!-- Node32 -->
<g id="node3" class="node"><title>Node32</title>
<g id="a_node3"><a xlink:href="eckey_8h.html#ae0cdb1eef2dc770d70aac0ad50a35e9a" target="_top" xlink:title="secp256k1_eckey_pubkey\l_parse">
<polygon fill="white" stroke="black" points="341,-400 341,-430 473,-430 473,-400 341,-400"/>
<text text-anchor="start" x="349" y="-418" font-family="Helvetica,sans-Serif" font-size="10.00">secp256k1_eckey_pubkey</text>
<text text-anchor="middle" x="407" y="-407" font-family="Helvetica,sans-Serif" font-size="10.00">_parse</text>
</a>
</g>
</g>
<!-- Node31&#45;&gt;Node32 -->
<g id="edge2" class="edge"><title>Node31&#45;&gt;Node32</title>
<path fill="none" stroke="midnightblue" d="M272.544,-367.046C291.116,-374.13 313.658,-382.624 334,-390 339.959,-392.161 346.21,-394.388 352.433,-396.582"/>
<polygon fill="midnightblue" stroke="midnightblue" points="351.551,-399.982 362.146,-399.987 353.867,-393.376 351.551,-399.982"/>
</g>
<!-- Node33 -->
<g id="node4" class="node"><title>Node33</title>
<g id="a_node4"><a xlink:href="group_8h.html#a34793cf48794f089bb28597d1a9f23b2" target="_top" xlink:title="Clear a secp256k1_ge to prevent leaking sensitive information. ">
<polygon fill="white" stroke="black" points="354,-361.5 354,-380.5 460,-380.5 460,-361.5 354,-361.5"/>
<text text-anchor="middle" x="407" y="-368.5" font-family="Helvetica,sans-Serif" font-size="10.00">secp256k1_ge_clear</text>
</a>
</g>
</g>
<!-- Node31&#45;&gt;Node33 -->
<g id="edge3" class="edge"><title>Node31&#45;&gt;Node33</title>
<path fill="none" stroke="midnightblue" d="M290.94,-358.327C307.899,-360.195 326.538,-362.248 343.783,-364.147"/>
<polygon fill="midnightblue" stroke="midnightblue" points="343.429,-367.629 353.752,-365.245 344.196,-360.671 343.429,-367.629"/>
</g>
<!-- Node34 -->
<g id="node5" class="node"><title>Node34</title>
<g id="a_node5"><a xlink:href="secp256k1_8c.html#aa061c9c5c861017bef990e5c4653e0f4" target="_top" xlink:title="secp256k1_pubkey_save">
<polygon fill="white" stroke="black" points="343.5,-323.5 343.5,-342.5 470.5,-342.5 470.5,-323.5 343.5,-323.5"/>
<text text-anchor="middle" x="407" y="-330.5" font-family="Helvetica,sans-Serif" font-size="10.00">secp256k1_pubkey_save</text>
</a>
</g>
</g>
<!-- Node31&#45;&gt;Node34 -->
<g id="edge4" class="edge"><title>Node31&#45;&gt;Node34</title>
<path fill="none" stroke="midnightblue" d="M290.94,-345.673C304.505,-344.179 319.144,-342.567 333.285,-341.009"/>
<polygon fill="midnightblue" stroke="midnightblue" points="333.915,-344.461 343.472,-339.887 333.149,-337.503 333.915,-344.461"/>
</g>
<!-- Node35 -->
<g id="node6" class="node"><title>Node35</title>
<g id="a_node6"><a xlink:href="group_8h.html#ad6499ae629f998e50d8614869ee3c67f" target="_top" xlink:title="Convert a group element to the storage type. ">
<polygon fill="white" stroke="black" points="522,-418.5 522,-437.5 653,-437.5 653,-418.5 522,-418.5"/>
<text text-anchor="middle" x="587.5" y="-425.5" font-family="Helvetica,sans-Serif" font-size="10.00">secp256k1_ge_to_storage</text>
</a>
</g>
</g>
<!-- Node34&#45;&gt;Node35 -->
<g id="edge5" class="edge"><title>Node34&#45;&gt;Node35</title>
<path fill="none" stroke="midnightblue" d="M462.338,-342.538C468.627,-345.001 474.683,-348.101 480,-352 504.162,-369.719 491.884,-391.218 516,-409 518.653,-410.956 521.494,-412.711 524.458,-414.285"/>
<polygon fill="midnightblue" stroke="midnightblue" points="523.101,-417.513 533.652,-418.486 526.011,-411.146 523.101,-417.513"/>
</g>
<!-- Node36 -->
<g id="node7" class="node"><title>Node36</title>
<g id="a_node7"><a xlink:href="glibc__compat_8cpp.html#a0f46826ab0466591e136db24394923cf" target="_top" xlink:title="memcpy">
<polygon fill="white" stroke="black" points="560.5,-266.5 560.5,-285.5 614.5,-285.5 614.5,-266.5 560.5,-266.5"/>
<text text-anchor="middle" x="587.5" y="-273.5" font-family="Helvetica,sans-Serif" font-size="10.00">memcpy</text>
</a>
</g>
</g>
<!-- Node34&#45;&gt;Node36 -->
<g id="edge6" class="edge"><title>Node34&#45;&gt;Node36</title>
<path fill="none" stroke="midnightblue" d="M433.568,-323.394C455.339,-315.361 487.523,-303.833 516,-295 527.123,-291.55 539.343,-288.129 550.44,-285.16"/>
<polygon fill="midnightblue" stroke="midnightblue" points="551.473,-288.507 560.251,-282.574 549.689,-281.739 551.473,-288.507"/>
</g>
<!-- Node38 -->
<g id="node9" class="node"><title>Node38</title>
<g id="a_node9"><a xlink:href="group_8h.html#ac83592db46af97faf7ba9b9a39a1f6ff" target="_top" xlink:title="Check whether a group element is the point at infinity. ">
<polygon fill="white" stroke="black" points="524.5,-380.5 524.5,-399.5 650.5,-399.5 650.5,-380.5 524.5,-380.5"/>
<text text-anchor="middle" x="587.5" y="-387.5" font-family="Helvetica,sans-Serif" font-size="10.00">secp256k1_ge_is_infinity</text>
</a>
</g>
</g>
<!-- Node34&#45;&gt;Node38 -->
<g id="edge8" class="edge"><title>Node34&#45;&gt;Node38</title>
<path fill="none" stroke="midnightblue" d="M450.774,-342.573C460.517,-345.224 470.726,-348.383 480,-352 496.855,-358.573 499.162,-364.383 516,-371 522.183,-373.43 528.789,-375.661 535.385,-377.673"/>
<polygon fill="midnightblue" stroke="midnightblue" points="534.414,-381.035 544.993,-380.462 536.365,-374.313 534.414,-381.035"/>
</g>
<!-- Node39 -->
<g id="node10" class="node"><title>Node39</title>
<g id="a_node10"><a xlink:href="field_8h.html#a2d45c987537eadb2923c93aa3af9db71" target="_top" xlink:title="Normalize a field element, without constant&#45;time guarantee. ">
<polygon fill="white" stroke="black" points="516,-342.5 516,-361.5 659,-361.5 659,-342.5 516,-342.5"/>
<text text-anchor="middle" x="587.5" y="-349.5" font-family="Helvetica,sans-Serif" font-size="10.00">secp256k1_fe_normalize_var</text>
</a>
</g>
</g>
<!-- Node34&#45;&gt;Node39 -->
<g id="edge9" class="edge"><title>Node34&#45;&gt;Node39</title>
<path fill="none" stroke="midnightblue" d="M470.681,-339.672C481.947,-340.871 493.835,-342.136 505.531,-343.381"/>
<polygon fill="midnightblue" stroke="midnightblue" points="505.425,-346.89 515.739,-344.468 506.166,-339.929 505.425,-346.89"/>
</g>
<!-- Node40 -->
<g id="node11" class="node"><title>Node40</title>
<g id="a_node11"><a xlink:href="field_8h.html#abb1017649be14b9ac1823be3c573e542" target="_top" xlink:title="Convert a field element to a 32&#45;byte big endian value. ">
<polygon fill="white" stroke="black" points="529,-304.5 529,-323.5 646,-323.5 646,-304.5 529,-304.5"/>
<text text-anchor="middle" x="587.5" y="-311.5" font-family="Helvetica,sans-Serif" font-size="10.00">secp256k1_fe_get_b32</text>
</a>
</g>
</g>
<!-- Node34&#45;&gt;Node40 -->
<g id="edge10" class="edge"><title>Node34&#45;&gt;Node40</title>
<path fill="none" stroke="midnightblue" d="M470.681,-326.328C486.173,-324.679 502.841,-322.905 518.57,-321.231"/>
<polygon fill="midnightblue" stroke="midnightblue" points="519.175,-324.686 528.748,-320.147 518.434,-317.725 519.175,-324.686"/>
</g>
<!-- Node37 -->
<g id="node8" class="node"><title>Node37</title>
<g id="a_node8"><a xlink:href="glibc__compat_8cpp.html#a9778d49e9029dd75bc53ecbbf9f5e9a1" target="_top" xlink:title="memmove">
<polygon fill="white" stroke="black" points="695,-266.5 695,-285.5 757,-285.5 757,-266.5 695,-266.5"/>
<text text-anchor="middle" x="726" y="-273.5" font-family="Helvetica,sans-Serif" font-size="10.00">memmove</text>
</a>
</g>
</g>
<!-- Node36&#45;&gt;Node37 -->
<g id="edge7" class="edge"><title>Node36&#45;&gt;Node37</title>
<path fill="none" stroke="midnightblue" d="M614.819,-276C634.615,-276 662.096,-276 684.66,-276"/>
<polygon fill="midnightblue" stroke="midnightblue" points="684.96,-279.5 694.96,-276 684.96,-272.5 684.96,-279.5"/>
</g>
<!-- Node42 -->
<g id="node13" class="node"><title>Node42</title>
<g id="a_node13"><a xlink:href="ecmult_8h.html#aa4f6f213989d3ec35850c40c8f1b313b" target="_top" xlink:title="secp256k1_ecmult_context\l_is_built">
<polygon fill="white" stroke="black" points="339,-210 339,-240 475,-240 475,-210 339,-210"/>
<text text-anchor="start" x="347" y="-228" font-family="Helvetica,sans-Serif" font-size="10.00">secp256k1_ecmult_context</text>
<text text-anchor="middle" x="407" y="-217" font-family="Helvetica,sans-Serif" font-size="10.00">_is_built</text>
</a>
</g>
</g>
<!-- Node41&#45;&gt;Node42 -->
<g id="edge12" class="edge"><title>Node41&#45;&gt;Node42</title>
<path fill="none" stroke="midnightblue" d="M270.93,-190.547C290.265,-195.479 314.48,-201.656 337.048,-207.412"/>
<polygon fill="midnightblue" stroke="midnightblue" points="336.382,-210.854 346.937,-209.935 338.112,-204.072 336.382,-210.854"/>
</g>
<!-- Node43 -->
<g id="node14" class="node"><title>Node43</title>
<g id="a_node14"><a xlink:href="secp256k1_8c.html#a9966ec041e71010d1593ae2211ffb843" target="_top" xlink:title="secp256k1_pubkey_load">
<polygon fill="white" stroke="black" points="345,-171.5 345,-190.5 469,-190.5 469,-171.5 345,-171.5"/>
<text text-anchor="middle" x="407" y="-178.5" font-family="Helvetica,sans-Serif" font-size="10.00">secp256k1_pubkey_load</text>
</a>
</g>
</g>
<!-- Node41&#45;&gt;Node43 -->
<g id="edge13" class="edge"><title>Node41&#45;&gt;Node43</title>
<path fill="none" stroke="midnightblue" d="M298.223,-181C310.174,-181 322.713,-181 334.841,-181"/>
<polygon fill="midnightblue" stroke="midnightblue" points="334.91,-184.5 344.91,-181 334.91,-177.5 334.91,-184.5"/>
</g>
<!-- Node48 -->
<g id="node19" class="node"><title>Node48</title>
<g id="a_node19"><a xlink:href="schnorr_2main__impl_8h.html#aceb4e15773d1a0ef0bd3b13e7339a199" target="_top" xlink:title="secp256k1_schnorr_msghash\l_sha256">
<polygon fill="white" stroke="black" points="334,-71 334,-101 480,-101 480,-71 334,-71"/>
<text text-anchor="start" x="342" y="-89" font-family="Helvetica,sans-Serif" font-size="10.00">secp256k1_schnorr_msghash</text>
<text text-anchor="middle" x="407" y="-78" font-family="Helvetica,sans-Serif" font-size="10.00">_sha256</text>
</a>
</g>
</g>
<!-- Node41&#45;&gt;Node48 -->
<g id="edge19" class="edge"><title>Node41&#45;&gt;Node48</title>
<path fill="none" stroke="midnightblue" d="M250.99,-171.368C278.705,-156.104 333.301,-126.037 369.732,-105.974"/>
<polygon fill="midnightblue" stroke="midnightblue" points="371.504,-108.993 378.575,-101.103 368.127,-102.862 371.504,-108.993"/>
</g>
<!-- Node52 -->
<g id="node23" class="node"><title>Node52</title>
<g id="a_node23"><a xlink:href="schnorr_8h.html#ad8ac32b20746524ea3b97ab609117daa" target="_top" xlink:title="secp256k1_schnorr_sig\l_verify">
<polygon fill="white" stroke="black" points="347.5,-22 347.5,-52 466.5,-52 466.5,-22 347.5,-22"/>
<text text-anchor="start" x="355.5" y="-40" font-family="Helvetica,sans-Serif" font-size="10.00">secp256k1_schnorr_sig</text>
<text text-anchor="middle" x="407" y="-29" font-family="Helvetica,sans-Serif" font-size="10.00">_verify</text>
</a>
</g>
</g>
<!-- Node41&#45;&gt;Node52 -->
<g id="edge23" class="edge"><title>Node41&#45;&gt;Node52</title>
<path fill="none" stroke="midnightblue" d="M238.972,-171.358C252.283,-148.746 288.623,-91.8894 334,-61 336.27,-59.4545 338.648,-58.0016 341.101,-56.6365"/>
<polygon fill="midnightblue" stroke="midnightblue" points="342.869,-59.666 350.253,-52.0685 339.743,-53.4028 342.869,-59.666"/>
</g>
<!-- Node43&#45;&gt;Node36 -->
<g id="edge14" class="edge"><title>Node43&#45;&gt;Node36</title>
<path fill="none" stroke="midnightblue" d="M462.338,-190.538C468.627,-193.001 474.683,-196.101 480,-200 504.162,-217.719 491.884,-239.218 516,-257 525.943,-264.331 538.532,-268.834 550.312,-271.6"/>
<polygon fill="midnightblue" stroke="midnightblue" points="549.877,-275.082 560.369,-273.611 551.249,-268.218 549.877,-275.082"/>
</g>
<!-- Node44 -->
<g id="node15" class="node"><title>Node44</title>
<g id="a_node15"><a xlink:href="group_8h.html#a8c1e7f328284d9ba56404bb8d99bf765" target="_top" xlink:title="Convert a group element back from the storage type. ">
<polygon fill="white" stroke="black" points="516.5,-228.5 516.5,-247.5 658.5,-247.5 658.5,-228.5 516.5,-228.5"/>
<text text-anchor="middle" x="587.5" y="-235.5" font-family="Helvetica,sans-Serif" font-size="10.00">secp256k1_ge_from_storage</text>
</a>
</g>
</g>
<!-- Node43&#45;&gt;Node44 -->
<g id="edge15" class="edge"><title>Node43&#45;&gt;Node44</title>
<path fill="none" stroke="midnightblue" d="M450.774,-190.573C460.517,-193.224 470.726,-196.383 480,-200 496.855,-206.573 499.162,-212.383 516,-219 522.183,-221.43 528.789,-223.661 535.385,-225.673"/>
<polygon fill="midnightblue" stroke="midnightblue" points="534.414,-229.035 544.993,-228.462 536.365,-222.313 534.414,-229.035"/>
</g>
<!-- Node45 -->
<g id="node16" class="node"><title>Node45</title>
<g id="a_node16"><a xlink:href="field_8h.html#a5c86a65052e3b135919c00fe2233a43d" target="_top" xlink:title="Set a field element equal to 32&#45;byte big endian value. ">
<polygon fill="white" stroke="black" points="529,-190.5 529,-209.5 646,-209.5 646,-190.5 529,-190.5"/>
<text text-anchor="middle" x="587.5" y="-197.5" font-family="Helvetica,sans-Serif" font-size="10.00">secp256k1_fe_set_b32</text>
</a>
</g>
</g>
<!-- Node43&#45;&gt;Node45 -->
<g id="edge16" class="edge"><title>Node43&#45;&gt;Node45</title>
<path fill="none" stroke="midnightblue" d="M469.43,-187.539C485.381,-189.237 502.649,-191.075 518.899,-192.804"/>
<polygon fill="midnightblue" stroke="midnightblue" points="518.55,-196.287 528.864,-193.865 519.291,-189.326 518.55,-196.287"/>
</g>
<!-- Node46 -->
<g id="node17" class="node"><title>Node46</title>
<g id="a_node17"><a xlink:href="group_8h.html#a34ab3d1a9a0a7ff0ed1cedff9db5f73c" target="_top" xlink:title="Set a group element equal to the point with given X and Y coordinates. ">
<polygon fill="white" stroke="black" points="530.5,-152.5 530.5,-171.5 644.5,-171.5 644.5,-152.5 530.5,-152.5"/>
<text text-anchor="middle" x="587.5" y="-159.5" font-family="Helvetica,sans-Serif" font-size="10.00">secp256k1_ge_set_xy</text>
</a>
</g>
</g>
<!-- Node43&#45;&gt;Node46 -->
<g id="edge17" class="edge"><title>Node43&#45;&gt;Node46</title>
<path fill="none" stroke="midnightblue" d="M469.43,-174.461C485.798,-172.719 503.554,-170.829 520.173,-169.06"/>
<polygon fill="midnightblue" stroke="midnightblue" points="520.777,-172.516 530.351,-167.977 520.036,-165.555 520.777,-172.516"/>
</g>
<!-- Node47 -->
<g id="node18" class="node"><title>Node47</title>
<g id="a_node18"><a xlink:href="field_8h.html#a619ec4805df6cc54d70e6682ceebd098" target="_top" xlink:title="Verify whether a field element is zero. ">
<polygon fill="white" stroke="black" points="530.5,-114.5 530.5,-133.5 644.5,-133.5 644.5,-114.5 530.5,-114.5"/>
<text text-anchor="middle" x="587.5" y="-121.5" font-family="Helvetica,sans-Serif" font-size="10.00">secp256k1_fe_is_zero</text>
</a>
</g>
</g>
<!-- Node43&#45;&gt;Node47 -->
<g id="edge18" class="edge"><title>Node43&#45;&gt;Node47</title>
<path fill="none" stroke="midnightblue" d="M433.568,-171.394C455.339,-163.361 487.523,-151.833 516,-143 523.491,-140.676 531.48,-138.366 539.288,-136.198"/>
<polygon fill="midnightblue" stroke="midnightblue" points="540.305,-139.549 549.03,-133.538 538.461,-132.796 540.305,-139.549"/>
</g>
<!-- Node49 -->
<g id="node20" class="node"><title>Node49</title>
<g id="a_node20"><a xlink:href="secp256k1_2src_2hash_8h.html#abcb6a95ed605c2bfb19eda1ced4a8f7e" target="_top" xlink:title="secp256k1_sha256_initialize">
<polygon fill="white" stroke="black" points="517,-76.5 517,-95.5 658,-95.5 658,-76.5 517,-76.5"/>
<text text-anchor="middle" x="587.5" y="-83.5" font-family="Helvetica,sans-Serif" font-size="10.00">secp256k1_sha256_initialize</text>
</a>
</g>
</g>
<!-- Node48&#45;&gt;Node49 -->
<g id="edge20" class="edge"><title>Node48&#45;&gt;Node49</title>
<path fill="none" stroke="midnightblue" d="M480.088,-86C488.781,-86 497.7,-86 506.498,-86"/>
<polygon fill="midnightblue" stroke="midnightblue" points="506.749,-89.5001 516.749,-86 506.749,-82.5001 506.749,-89.5001"/>
</g>
<!-- Node50 -->
<g id="node21" class="node"><title>Node50</title>
<g id="a_node21"><a xlink:href="secp256k1_2src_2hash_8h.html#adfccd8d918a52e1cec42ea89a4c3f8ab" target="_top" xlink:title="secp256k1_sha256_write">
<polygon fill="white" stroke="black" points="524,-38.5 524,-57.5 651,-57.5 651,-38.5 524,-38.5"/>
<text text-anchor="middle" x="587.5" y="-45.5" font-family="Helvetica,sans-Serif" font-size="10.00">secp256k1_sha256_write</text>
</a>
</g>
</g>
<!-- Node48&#45;&gt;Node50 -->
<g id="edge21" class="edge"><title>Node48&#45;&gt;Node50</title>
<path fill="none" stroke="midnightblue" d="M478.548,-70.9814C496.221,-67.219 514.919,-63.2386 531.698,-59.6666"/>
<polygon fill="midnightblue" stroke="midnightblue" points="532.819,-63.0065 541.871,-57.5009 531.361,-56.1599 532.819,-63.0065"/>
</g>
<!-- Node51 -->
<g id="node22" class="node"><title>Node51</title>
<g id="a_node22"><a xlink:href="secp256k1_2src_2hash_8h.html#ab88a555e2b13d6d06e20a6a459abae08" target="_top" xlink:title="secp256k1_sha256_finalize">
<polygon fill="white" stroke="black" points="519,-0.5 519,-19.5 656,-19.5 656,-0.5 519,-0.5"/>
<text text-anchor="middle" x="587.5" y="-7.5" font-family="Helvetica,sans-Serif" font-size="10.00">secp256k1_sha256_finalize</text>
</a>
</g>
</g>
<!-- Node48&#45;&gt;Node51 -->
<g id="edge22" class="edge"><title>Node48&#45;&gt;Node51</title>
<path fill="none" stroke="midnightblue" d="M459.468,-70.9295C466.568,-68.0536 473.608,-64.7487 480,-61 498.466,-50.1701 497.162,-39.1681 516,-29 520.239,-26.712 524.773,-24.6846 529.421,-22.8909"/>
<polygon fill="midnightblue" stroke="midnightblue" points="530.773,-26.126 539.063,-19.5285 528.468,-19.5164 530.773,-26.126"/>
</g>
</g>
</svg>
        <g id="navigator" transform="translate(0 0)" fill="#404254">
                <rect fill="#f2f5e9" fill-opacity="0.5" stroke="#606060" stroke-width=".5" x="0" y="0" width="60" height="60"/>
                <use id="zoomplus" xlink:href="#zoomPlus" x="17" y="9" onmousedown="handleZoom(evt,'in')"/>
                <use id="zoomminus" xlink:href="#zoomMin" x="42" y="9" onmousedown="handleZoom(evt,'out')"/>
                <use id="reset" xlink:href="#resetDef" x="30" y="36" onmousedown="handleReset()"/>
                <g id="arrowUp" xlink:href="#dirArrow" transform="translate(30 24)" onmousedown="handlePan(0,-1)">
                  <use xlink:href="#rim" fill="#404040">
                        <set attributeName="fill" to="#808080" begin="arrowUp.mouseover" end="arrowUp.mouseout"/>
                  </use>
                  <path fill="none" stroke="white" stroke-width="1.5" d="M0,-3.0v7 M-2.5,-0.5L0,-3.0L2.5,-0.5"/>
                </g>
                <g id="arrowRight" xlink:href="#dirArrow" transform="rotate(90) translate(36 -43)" onmousedown="handlePan(1,0)">
                  <use xlink:href="#rim" fill="#404040">
                        <set attributeName="fill" to="#808080" begin="arrowRight.mouseover" end="arrowRight.mouseout"/>
                  </use>
                  <path fill="none" stroke="white" stroke-width="1.5" d="M0,-3.0v7 M-2.5,-0.5L0,-3.0L2.5,-0.5"/>
                </g>
                <g id="arrowDown" xlink:href="#dirArrow" transform="rotate(180) translate(-30 -48)" onmousedown="handlePan(0,1)">
                  <use xlink:href="#rim" fill="#404040">
                        <set attributeName="fill" to="#808080" begin="arrowDown.mouseover" end="arrowDown.mouseout"/>
                  </use>
                  <path fill="none" stroke="white" stroke-width="1.5" d="M0,-3.0v7 M-2.5,-0.5L0,-3.0L2.5,-0.5"/>
                </g>
                <g id="arrowLeft" xlink:href="#dirArrow" transform="rotate(270) translate(-36 17)" onmousedown="handlePan(-1,0)">
                  <use xlink:href="#rim" fill="#404040">
                        <set attributeName="fill" to="#808080" begin="arrowLeft.mouseover" end="arrowLeft.mouseout"/>
                  </use>
                  <path fill="none" stroke="white" stroke-width="1.5" d="M0,-3.0v7 M-2.5,-0.5L0,-3.0L2.5,-0.5"/>
                </g>
        </g>
        <svg viewBox="0 0 15 15" width="100%" height="30px" preserveAspectRatio="xMaxYMin meet">
         <g id="arrow_out" transform="scale(0.3 0.3)">
          <a xlink:href="bench__schnorr__verify_8c_a45550cf8aad65472340a81f6f05c6546_cgraph_org.svg" target="_base">
           <rect id="button" ry="5" rx="5" y="6" x="6" height="38" width="38"
                fill="#f2f5e9" fill-opacity="0.5" stroke="#606060" stroke-width="1.0"/>
           <path id="arrow"
             d="M 11.500037,31.436501 C 11.940474,20.09759 22.043105,11.32322 32.158766,21.979434 L 37.068811,17.246167 C 37.068811,17.246167 37.088388,32 37.088388,32 L 22.160133,31.978069 C 22.160133,31.978069 26.997745,27.140456 26.997745,27.140456 C 18.528582,18.264221 13.291696,25.230495 11.500037,31.436501 z"
             style="fill:#404040;"/>
          </a>
         </g>
        </svg>
</svg>
