<?xml version="1.0" encoding="UTF-8" standalone="no"?>
<!DOCTYPE svg PUBLIC "-//W3C//DTD SVG 1.1//EN"
 "http://www.w3.org/Graphics/SVG/1.1/DTD/svg11.dtd">
<!-- Generated by graphviz version 2.38.0 (20140413.2041)
 -->
<!-- Title: src/qt/bitcoingui.h Pages: 1 -->
<!--zoomable 308 -->
<svg id="main" version="1.1" xmlns="http://www.w3.org/2000/svg" xmlns:xlink="http://www.w3.org/1999/xlink" xml:space="preserve" onload="init(evt)">
<style type="text/css"><![CDATA[
.edge:hover path { stroke: red; }
.edge:hover polygon { stroke: red; fill: red; }
]]></style>
<script type="text/javascript"><![CDATA[
var edges = document.getElementsByTagName('g');
if (edges && edges.length) {
  for (var i=0;i<edges.length;i++) {
    if (edges[i].id.substr(0,4)=='edge') {
      edges[i].setAttribute('class','edge');
    }
  }
}
]]></script>
        <defs>
                <circle id="rim" cx="0" cy="0" r="7"/>
                <circle id="rim2" cx="0" cy="0" r="3.5"/>
                <g id="zoomPlus">
                        <use xlink:href="#rim" fill="#404040">
                                <set attributeName="fill" to="#808080" begin="zoomplus.mouseover" end="zoomplus.mouseout"/>
                        </use>
                        <path d="M-4,0h8M0,-4v8" fill="none" stroke="white" stroke-width="1.5" pointer-events="none"/>
                </g>
                <g id="zoomMin">
                        <use xlink:href="#rim" fill="#404040">
                                <set attributeName="fill" to="#808080" begin="zoomminus.mouseover" end="zoomminus.mouseout"/>
                        </use>
                        <path d="M-4,0h8" fill="none" stroke="white" stroke-width="1.5" pointer-events="none"/>
                </g>
                <g id="dirArrow">
                        <path fill="none" stroke="white" stroke-width="1.5" d="M0,-3.0v7 M-2.5,-0.5L0,-3.0L2.5,-0.5"/>
                </g>
               <g id="resetDef">
                       <use xlink:href="#rim2" fill="#404040">
                               <set attributeName="fill" to="#808080" begin="reset.mouseover" end="reset.mouseout"/>
                       </use>
               </g>
        </defs>

<script type="text/javascript">
var viewWidth = 1433;
var viewHeight = 308;
var sectionId = 'dynsection-0';
</script>
<script xlink:href="svgpan.js"/>
<svg id="graph" class="graph">
<g id="viewport">
<title>src/qt/bitcoingui.h</title>
<polygon fill="white" stroke="none" points="-4,4 -4,-304 1428.76,-304 1428.76,4 -4,4"/>
<!-- Node0 -->
<g id="node1" class="node"><title>Node0</title>
<polygon fill="#bfbfbf" stroke="black" points="1048.76,-280.5 1048.76,-299.5 1142.76,-299.5 1142.76,-280.5 1048.76,-280.5"/>
<text text-anchor="middle" x="1095.76" y="-287.5" font-family="Helvetica,sans-Serif" font-size="10.00">src/qt/bitcoingui.h</text>
</g>
<!-- Node1 -->
<g id="node2" class="node"><title>Node1</title>
<g id="a_node2"><a xlink:href="amount_8h.html" target="_top" xlink:title="amount.h">
<polygon fill="white" stroke="black" points="803.26,-224.5 803.26,-243.5 860.26,-243.5 860.26,-224.5 803.26,-224.5"/>
<text text-anchor="middle" x="831.76" y="-231.5" font-family="Helvetica,sans-Serif" font-size="10.00">amount.h</text>
</a>
</g>
</g>
<!-- Node0&#45;&gt;Node1 -->
<g id="edge1" class="edge"><title>Node0&#45;&gt;Node1</title>
<path fill="none" stroke="midnightblue" d="M1049.55,-280.442C1005.75,-272.195 937.875,-259.066 870.369,-244.29"/>
<polygon fill="midnightblue" stroke="midnightblue" points="870.934,-240.831 860.415,-242.099 869.428,-247.667 870.934,-240.831"/>
</g>
<!-- Node20 -->
<g id="node21" class="node"><title>Node20</title>
<polygon fill="white" stroke="#bfbfbf" points="878.26,-224.5 878.26,-243.5 925.26,-243.5 925.26,-224.5 878.26,-224.5"/>
<text text-anchor="middle" x="901.76" y="-231.5" font-family="Helvetica,sans-Serif" font-size="10.00">QLabel</text>
</g>
<!-- Node0&#45;&gt;Node20 -->
<g id="edge26" class="edge"><title>Node0&#45;&gt;Node20</title>
<path fill="none" stroke="midnightblue" d="M1065.02,-280.444C1029.57,-270.576 971.501,-254.413 935.019,-244.258"/>
<polygon fill="midnightblue" stroke="midnightblue" points="935.911,-240.873 925.338,-241.563 934.033,-247.617 935.911,-240.873"/>
</g>
<!-- Node21 -->
<g id="node22" class="node"><title>Node21</title>
<polygon fill="white" stroke="#bfbfbf" points="943.76,-224.5 943.76,-243.5 1023.76,-243.5 1023.76,-224.5 943.76,-224.5"/>
<text text-anchor="middle" x="983.76" y="-231.5" font-family="Helvetica,sans-Serif" font-size="10.00">QMainWindow</text>
</g>
<!-- Node0&#45;&gt;Node21 -->
<g id="edge27" class="edge"><title>Node0&#45;&gt;Node21</title>
<path fill="none" stroke="midnightblue" d="M1077.77,-280.324C1059.72,-271.625 1031.71,-258.12 1010.96,-248.113"/>
<polygon fill="midnightblue" stroke="midnightblue" points="1012.24,-244.845 1001.71,-243.655 1009.2,-251.15 1012.24,-244.845"/>
</g>
<!-- Node22 -->
<g id="node23" class="node"><title>Node22</title>
<polygon fill="white" stroke="#bfbfbf" points="1042.26,-224.5 1042.26,-243.5 1085.26,-243.5 1085.26,-224.5 1042.26,-224.5"/>
<text text-anchor="middle" x="1063.76" y="-231.5" font-family="Helvetica,sans-Serif" font-size="10.00">QMap</text>
</g>
<!-- Node0&#45;&gt;Node22 -->
<g id="edge28" class="edge"><title>Node0&#45;&gt;Node22</title>
<path fill="none" stroke="midnightblue" d="M1090.48,-280.083C1086.05,-272.613 1079.6,-261.724 1074.14,-252.52"/>
<polygon fill="midnightblue" stroke="midnightblue" points="1077.05,-250.57 1068.95,-243.751 1071.03,-254.138 1077.05,-250.57"/>
</g>
<!-- Node23 -->
<g id="node24" class="node"><title>Node23</title>
<polygon fill="white" stroke="#bfbfbf" points="1103.76,-224.5 1103.76,-243.5 1151.76,-243.5 1151.76,-224.5 1103.76,-224.5"/>
<text text-anchor="middle" x="1127.76" y="-231.5" font-family="Helvetica,sans-Serif" font-size="10.00">QMenu</text>
</g>
<!-- Node0&#45;&gt;Node23 -->
<g id="edge29" class="edge"><title>Node0&#45;&gt;Node23</title>
<path fill="none" stroke="midnightblue" d="M1101.04,-280.083C1105.47,-272.613 1111.92,-261.724 1117.38,-252.52"/>
<polygon fill="midnightblue" stroke="midnightblue" points="1120.49,-254.138 1122.57,-243.751 1114.46,-250.57 1120.49,-254.138"/>
</g>
<!-- Node24 -->
<g id="node25" class="node"><title>Node24</title>
<polygon fill="white" stroke="#bfbfbf" points="1170.26,-224.5 1170.26,-243.5 1217.26,-243.5 1217.26,-224.5 1170.26,-224.5"/>
<text text-anchor="middle" x="1193.76" y="-231.5" font-family="Helvetica,sans-Serif" font-size="10.00">QPoint</text>
</g>
<!-- Node0&#45;&gt;Node24 -->
<g id="edge30" class="edge"><title>Node0&#45;&gt;Node24</title>
<path fill="none" stroke="midnightblue" d="M1111.51,-280.324C1127.08,-271.743 1151.14,-258.486 1169.22,-248.522"/>
<polygon fill="midnightblue" stroke="midnightblue" points="1170.98,-251.546 1178.05,-243.655 1167.61,-245.415 1170.98,-251.546"/>
</g>
<!-- Node25 -->
<g id="node26" class="node"><title>Node25</title>
<polygon fill="white" stroke="#bfbfbf" points="1235.26,-224.5 1235.26,-243.5 1310.26,-243.5 1310.26,-224.5 1235.26,-224.5"/>
<text text-anchor="middle" x="1272.76" y="-231.5" font-family="Helvetica,sans-Serif" font-size="10.00">QPushButton</text>
</g>
<!-- Node0&#45;&gt;Node25 -->
<g id="edge31" class="edge"><title>Node0&#45;&gt;Node25</title>
<path fill="none" stroke="midnightblue" d="M1123.81,-280.444C1153.84,-271.28 1201.67,-256.688 1235,-246.519"/>
<polygon fill="midnightblue" stroke="midnightblue" points="1236.3,-249.782 1244.84,-243.516 1234.26,-243.087 1236.3,-249.782"/>
</g>
<!-- Node26 -->
<g id="node27" class="node"><title>Node26</title>
<polygon fill="white" stroke="#bfbfbf" points="1328.76,-224.5 1328.76,-243.5 1424.76,-243.5 1424.76,-224.5 1328.76,-224.5"/>
<text text-anchor="middle" x="1376.76" y="-231.5" font-family="Helvetica,sans-Serif" font-size="10.00">QSystemTrayIcon</text>
</g>
<!-- Node0&#45;&gt;Node26 -->
<g id="edge32" class="edge"><title>Node0&#45;&gt;Node26</title>
<path fill="none" stroke="midnightblue" d="M1140.29,-280.444C1189.72,-270.944 1269.51,-255.611 1322.54,-245.42"/>
<polygon fill="midnightblue" stroke="midnightblue" points="1323.28,-248.841 1332.44,-243.516 1321.96,-241.967 1323.28,-248.841"/>
</g>
<!-- Node2 -->
<g id="node3" class="node"><title>Node2</title>
<g id="a_node3"><a xlink:href="serialize_8h.html" target="_top" xlink:title="serialize.h">
<polygon fill="white" stroke="black" points="455.26,-168.5 455.26,-187.5 516.26,-187.5 516.26,-168.5 455.26,-168.5"/>
<text text-anchor="middle" x="485.76" y="-175.5" font-family="Helvetica,sans-Serif" font-size="10.00">serialize.h</text>
</a>
</g>
</g>
<!-- Node1&#45;&gt;Node2 -->
<g id="edge2" class="edge"><title>Node1&#45;&gt;Node2</title>
<path fill="none" stroke="midnightblue" d="M803.151,-228.535C741.732,-218.949 597.095,-196.376 526.269,-185.322"/>
<polygon fill="midnightblue" stroke="midnightblue" points="526.794,-181.862 516.374,-183.778 525.714,-188.778 526.794,-181.862"/>
</g>
<!-- Node13 -->
<g id="node14" class="node"><title>Node13</title>
<polygon fill="white" stroke="#bfbfbf" points="811.26,-112.5 811.26,-131.5 852.26,-131.5 852.26,-112.5 811.26,-112.5"/>
<text text-anchor="middle" x="831.76" y="-119.5" font-family="Helvetica,sans-Serif" font-size="10.00">string</text>
</g>
<!-- Node1&#45;&gt;Node13 -->
<g id="edge25" class="edge"><title>Node1&#45;&gt;Node13</title>
<path fill="none" stroke="midnightblue" d="M831.76,-224.368C831.76,-206.617 831.76,-165.666 831.76,-141.597"/>
<polygon fill="midnightblue" stroke="midnightblue" points="835.26,-141.591 831.76,-131.591 828.26,-141.591 835.26,-141.591"/>
</g>
<!-- Node18 -->
<g id="node19" class="node"><title>Node18</title>
<polygon fill="white" stroke="#bfbfbf" points="829.76,-56.5 829.76,-75.5 877.76,-75.5 877.76,-56.5 829.76,-56.5"/>
<text text-anchor="middle" x="853.76" y="-63.5" font-family="Helvetica,sans-Serif" font-size="10.00">stdlib.h</text>
</g>
<!-- Node1&#45;&gt;Node18 -->
<g id="edge24" class="edge"><title>Node1&#45;&gt;Node18</title>
<path fill="none" stroke="midnightblue" d="M835.794,-224.347C844.517,-204.698 864.09,-155.075 860.76,-112 860.081,-103.22 858.668,-93.5626 857.288,-85.4526"/>
<polygon fill="midnightblue" stroke="midnightblue" points="860.726,-84.7961 855.499,-75.5806 853.838,-86.0446 860.726,-84.7961"/>
</g>
<!-- Node3 -->
<g id="node4" class="node"><title>Node3</title>
<g id="a_node4"><a xlink:href="endian_8h.html" target="_top" xlink:title="compat/endian.h">
<polygon fill="white" stroke="black" points="19.2599,-112.5 19.2599,-131.5 108.26,-131.5 108.26,-112.5 19.2599,-112.5"/>
<text text-anchor="middle" x="63.7599" y="-119.5" font-family="Helvetica,sans-Serif" font-size="10.00">compat/endian.h</text>
</a>
</g>
</g>
<!-- Node2&#45;&gt;Node3 -->
<g id="edge3" class="edge"><title>Node2&#45;&gt;Node3</title>
<path fill="none" stroke="midnightblue" d="M455.181,-173.273C393.448,-165.721 249.524,-147.971 128.76,-132 125.485,-131.567 122.117,-131.116 118.721,-130.658"/>
<polygon fill="midnightblue" stroke="midnightblue" points="118.887,-127.148 108.507,-129.269 117.944,-134.085 118.887,-127.148"/>
</g>
<!-- Node4 -->
<g id="node5" class="node"><title>Node4</title>
<polygon fill="white" stroke="#bfbfbf" points="78.2599,-0.5 78.2599,-19.5 127.26,-19.5 127.26,-0.5 78.2599,-0.5"/>
<text text-anchor="middle" x="102.76" y="-7.5" font-family="Helvetica,sans-Serif" font-size="10.00">stdint.h</text>
</g>
<!-- Node2&#45;&gt;Node4 -->
<g id="edge14" class="edge"><title>Node2&#45;&gt;Node4</title>
<path fill="none" stroke="midnightblue" d="M455.056,-176.341C383.509,-174.247 208.246,-165.721 161.76,-132 159.467,-130.337 126.787,-61.7504 111.077,-28.5932"/>
<polygon fill="midnightblue" stroke="midnightblue" points="114.24,-27.0952 106.799,-19.5538 107.913,-30.0899 114.24,-27.0952"/>
</g>
<!-- Node6 -->
<g id="node7" class="node"><title>Node6</title>
<polygon fill="white" stroke="#bfbfbf" points="170.76,-112.5 170.76,-131.5 226.76,-131.5 226.76,-112.5 170.76,-112.5"/>
<text text-anchor="middle" x="198.76" y="-119.5" font-family="Helvetica,sans-Serif" font-size="10.00">algorithm</text>
</g>
<!-- Node2&#45;&gt;Node6 -->
<g id="edge7" class="edge"><title>Node2&#45;&gt;Node6</title>
<path fill="none" stroke="midnightblue" d="M455.242,-172.119C409.827,-164.722 321.559,-149.838 237.022,-132.168"/>
<polygon fill="midnightblue" stroke="midnightblue" points="237.508,-128.693 227.001,-130.056 236.065,-135.543 237.508,-128.693"/>
</g>
<!-- Node7 -->
<g id="node8" class="node"><title>Node7</title>
<polygon fill="white" stroke="#bfbfbf" points="244.76,-112.5 244.76,-131.5 296.76,-131.5 296.76,-112.5 244.76,-112.5"/>
<text text-anchor="middle" x="270.76" y="-119.5" font-family="Helvetica,sans-Serif" font-size="10.00">assert.h</text>
</g>
<!-- Node2&#45;&gt;Node7 -->
<g id="edge8" class="edge"><title>Node2&#45;&gt;Node7</title>
<path fill="none" stroke="midnightblue" d="M455.169,-169.419C421.302,-161.011 364.826,-146.947 307.147,-132.34"/>
<polygon fill="midnightblue" stroke="midnightblue" points="307.682,-128.865 297.128,-129.801 305.962,-135.651 307.682,-128.865"/>
</g>
<!-- Node8 -->
<g id="node9" class="node"><title>Node8</title>
<polygon fill="white" stroke="#bfbfbf" points="315.26,-112.5 315.26,-131.5 344.26,-131.5 344.26,-112.5 315.26,-112.5"/>
<text text-anchor="middle" x="329.76" y="-119.5" font-family="Helvetica,sans-Serif" font-size="10.00">ios</text>
</g>
<!-- Node2&#45;&gt;Node8 -->
<g id="edge9" class="edge"><title>Node2&#45;&gt;Node8</title>
<path fill="none" stroke="midnightblue" d="M459.88,-168.435C435.084,-160.171 396.393,-147.134 354.108,-132.048"/>
<polygon fill="midnightblue" stroke="midnightblue" points="355.052,-128.668 344.457,-128.592 352.691,-135.259 355.052,-128.668"/>
</g>
<!-- Node9 -->
<g id="node10" class="node"><title>Node9</title>
<polygon fill="white" stroke="#bfbfbf" points="362.76,-112.5 362.76,-131.5 402.76,-131.5 402.76,-112.5 362.76,-112.5"/>
<text text-anchor="middle" x="382.76" y="-119.5" font-family="Helvetica,sans-Serif" font-size="10.00">limits</text>
</g>
<!-- Node2&#45;&gt;Node9 -->
<g id="edge10" class="edge"><title>Node2&#45;&gt;Node9</title>
<path fill="none" stroke="midnightblue" d="M469.211,-168.324C452.768,-159.703 427.325,-146.364 408.291,-136.386"/>
<polygon fill="midnightblue" stroke="midnightblue" points="409.749,-133.198 399.268,-131.655 406.499,-139.398 409.749,-133.198"/>
</g>
<!-- Node10 -->
<g id="node11" class="node"><title>Node10</title>
<polygon fill="white" stroke="#bfbfbf" points="421.26,-112.5 421.26,-131.5 450.26,-131.5 450.26,-112.5 421.26,-112.5"/>
<text text-anchor="middle" x="435.76" y="-119.5" font-family="Helvetica,sans-Serif" font-size="10.00">list</text>
</g>
<!-- Node2&#45;&gt;Node10 -->
<g id="edge11" class="edge"><title>Node2&#45;&gt;Node10</title>
<path fill="none" stroke="midnightblue" d="M477.503,-168.083C470.295,-160.298 459.65,-148.801 450.914,-139.367"/>
<polygon fill="midnightblue" stroke="midnightblue" points="453.225,-136.711 443.863,-131.751 448.089,-141.467 453.225,-136.711"/>
</g>
<!-- Node11 -->
<g id="node12" class="node"><title>Node11</title>
<polygon fill="white" stroke="#bfbfbf" points="468.26,-112.5 468.26,-131.5 503.26,-131.5 503.26,-112.5 468.26,-112.5"/>
<text text-anchor="middle" x="485.76" y="-119.5" font-family="Helvetica,sans-Serif" font-size="10.00">map</text>
</g>
<!-- Node2&#45;&gt;Node11 -->
<g id="edge12" class="edge"><title>Node2&#45;&gt;Node11</title>
<path fill="none" stroke="midnightblue" d="M485.76,-168.083C485.76,-161.006 485.76,-150.861 485.76,-141.986"/>
<polygon fill="midnightblue" stroke="midnightblue" points="489.26,-141.751 485.76,-131.751 482.26,-141.751 489.26,-141.751"/>
</g>
<!-- Node12 -->
<g id="node13" class="node"><title>Node12</title>
<polygon fill="white" stroke="#bfbfbf" points="521.76,-112.5 521.76,-131.5 551.76,-131.5 551.76,-112.5 521.76,-112.5"/>
<text text-anchor="middle" x="536.76" y="-119.5" font-family="Helvetica,sans-Serif" font-size="10.00">set</text>
</g>
<!-- Node2&#45;&gt;Node12 -->
<g id="edge13" class="edge"><title>Node2&#45;&gt;Node12</title>
<path fill="none" stroke="midnightblue" d="M494.181,-168.083C501.608,-160.22 512.612,-148.569 521.572,-139.081"/>
<polygon fill="midnightblue" stroke="midnightblue" points="524.173,-141.424 528.495,-131.751 519.084,-136.618 524.173,-141.424"/>
</g>
<!-- Node2&#45;&gt;Node13 -->
<g id="edge15" class="edge"><title>Node2&#45;&gt;Node13</title>
<path fill="none" stroke="midnightblue" d="M516.538,-174.166C571.698,-168.756 691.121,-155.537 801.264,-131.787"/>
<polygon fill="midnightblue" stroke="midnightblue" points="802.191,-135.167 811.21,-129.608 800.692,-128.329 802.191,-135.167"/>
</g>
<!-- Node14 -->
<g id="node15" class="node"><title>Node14</title>
<polygon fill="white" stroke="#bfbfbf" points="574.26,-56.5 574.26,-75.5 623.26,-75.5 623.26,-56.5 574.26,-56.5"/>
<text text-anchor="middle" x="598.76" y="-63.5" font-family="Helvetica,sans-Serif" font-size="10.00">string.h</text>
</g>
<!-- Node2&#45;&gt;Node14 -->
<g id="edge16" class="edge"><title>Node2&#45;&gt;Node14</title>
<path fill="none" stroke="midnightblue" d="M505.777,-168.42C522.055,-160.694 544.853,-148.089 560.76,-132 574.089,-118.519 584.511,-99.4503 591.043,-85.4524"/>
<polygon fill="midnightblue" stroke="midnightblue" points="594.418,-86.474 595.263,-75.9129 588.016,-83.6422 594.418,-86.474"/>
</g>
<!-- Node15 -->
<g id="node16" class="node"><title>Node15</title>
<polygon fill="white" stroke="#bfbfbf" points="607.76,-112.5 607.76,-131.5 647.76,-131.5 647.76,-112.5 607.76,-112.5"/>
<text text-anchor="middle" x="627.76" y="-119.5" font-family="Helvetica,sans-Serif" font-size="10.00">utility</text>
</g>
<!-- Node2&#45;&gt;Node15 -->
<g id="edge17" class="edge"><title>Node2&#45;&gt;Node15</title>
<path fill="none" stroke="midnightblue" d="M508.26,-168.444C532.531,-159.214 571.285,-144.476 598.046,-134.299"/>
<polygon fill="midnightblue" stroke="midnightblue" points="599.558,-137.469 607.661,-130.643 597.07,-130.926 599.558,-137.469"/>
</g>
<!-- Node16 -->
<g id="node17" class="node"><title>Node16</title>
<polygon fill="white" stroke="#bfbfbf" points="665.76,-112.5 665.76,-131.5 709.76,-131.5 709.76,-112.5 665.76,-112.5"/>
<text text-anchor="middle" x="687.76" y="-119.5" font-family="Helvetica,sans-Serif" font-size="10.00">vector</text>
</g>
<!-- Node2&#45;&gt;Node16 -->
<g id="edge18" class="edge"><title>Node2&#45;&gt;Node16</title>
<path fill="none" stroke="midnightblue" d="M516.403,-169.184C548.73,-160.885 601.396,-147.21 655.644,-132.262"/>
<polygon fill="midnightblue" stroke="midnightblue" points="656.722,-135.595 665.428,-129.556 654.857,-128.848 656.722,-135.595"/>
</g>
<!-- Node17 -->
<g id="node18" class="node"><title>Node17</title>
<g id="a_node18"><a xlink:href="prevector_8h.html" target="_top" xlink:title="prevector.h">
<polygon fill="white" stroke="black" points="728.26,-112.5 728.26,-131.5 793.26,-131.5 793.26,-112.5 728.26,-112.5"/>
<text text-anchor="middle" x="760.76" y="-119.5" font-family="Helvetica,sans-Serif" font-size="10.00">prevector.h</text>
</a>
</g>
</g>
<!-- Node2&#45;&gt;Node17 -->
<g id="edge19" class="edge"><title>Node2&#45;&gt;Node17</title>
<path fill="none" stroke="midnightblue" d="M516.331,-171.301C559.071,-163.288 639.359,-148.075 718.12,-132.096"/>
<polygon fill="midnightblue" stroke="midnightblue" points="719.113,-135.466 728.214,-130.042 717.717,-128.606 719.113,-135.466"/>
</g>
<!-- Node3&#45;&gt;Node4 -->
<g id="edge4" class="edge"><title>Node3&#45;&gt;Node4</title>
<path fill="none" stroke="midnightblue" d="M45.1708,-112.382C22.5904,-100.674 -10.7902,-78.5963 3.75986,-56 17.8532,-34.113 45.4845,-22.7486 67.9821,-16.9211"/>
<polygon fill="midnightblue" stroke="midnightblue" points="68.9441,-20.2908 77.8905,-14.6153 67.3574,-13.473 68.9441,-20.2908"/>
</g>
<!-- Node5 -->
<g id="node6" class="node"><title>Node5</title>
<g id="a_node6"><a xlink:href="byteswap_8h.html" target="_top" xlink:title="compat/byteswap.h">
<polygon fill="white" stroke="black" points="12.7599,-56.5 12.7599,-75.5 114.76,-75.5 114.76,-56.5 12.7599,-56.5"/>
<text text-anchor="middle" x="63.7599" y="-63.5" font-family="Helvetica,sans-Serif" font-size="10.00">compat/byteswap.h</text>
</a>
</g>
</g>
<!-- Node3&#45;&gt;Node5 -->
<g id="edge5" class="edge"><title>Node3&#45;&gt;Node5</title>
<path fill="none" stroke="midnightblue" d="M63.7599,-112.083C63.7599,-105.006 63.7599,-94.8611 63.7599,-85.9865"/>
<polygon fill="midnightblue" stroke="midnightblue" points="67.26,-85.751 63.7599,-75.7511 60.26,-85.7511 67.26,-85.751"/>
</g>
<!-- Node5&#45;&gt;Node4 -->
<g id="edge6" class="edge"><title>Node5&#45;&gt;Node4</title>
<path fill="none" stroke="midnightblue" d="M70.1999,-56.083C75.7087,-48.4554 83.7911,-37.2645 90.5248,-27.9408"/>
<polygon fill="midnightblue" stroke="midnightblue" points="93.4221,-29.9071 96.4396,-19.7511 87.7473,-25.8087 93.4221,-29.9071"/>
</g>
<!-- Node17&#45;&gt;Node4 -->
<g id="edge21" class="edge"><title>Node17&#45;&gt;Node4</title>
<path fill="none" stroke="midnightblue" d="M747.892,-112.396C725.431,-97.8757 677.125,-68.8391 631.76,-56 538.286,-29.5456 240.09,-16.1469 137.682,-12.2395"/>
<polygon fill="midnightblue" stroke="midnightblue" points="137.687,-8.73731 127.563,-11.8601 137.425,-15.7324 137.687,-8.73731"/>
</g>
<!-- Node17&#45;&gt;Node14 -->
<g id="edge22" class="edge"><title>Node17&#45;&gt;Node14</title>
<path fill="none" stroke="midnightblue" d="M735.09,-112.444C707.597,-103.279 663.811,-88.6839 633.306,-78.5153"/>
<polygon fill="midnightblue" stroke="midnightblue" points="634.106,-75.0927 623.512,-75.2508 631.892,-81.7335 634.106,-75.0927"/>
</g>
<!-- Node17&#45;&gt;Node18 -->
<g id="edge20" class="edge"><title>Node17&#45;&gt;Node18</title>
<path fill="none" stroke="midnightblue" d="M775.702,-112.324C790.345,-103.822 812.894,-90.7288 829.998,-80.7975"/>
<polygon fill="midnightblue" stroke="midnightblue" points="831.964,-83.7027 838.855,-75.6545 828.449,-77.6491 831.964,-83.7027"/>
</g>
<!-- Node19 -->
<g id="node20" class="node"><title>Node19</title>
<polygon fill="white" stroke="#bfbfbf" points="737.26,-56.5 737.26,-75.5 784.26,-75.5 784.26,-56.5 737.26,-56.5"/>
<text text-anchor="middle" x="760.76" y="-63.5" font-family="Helvetica,sans-Serif" font-size="10.00">iterator</text>
</g>
<!-- Node17&#45;&gt;Node19 -->
<g id="edge23" class="edge"><title>Node17&#45;&gt;Node19</title>
<path fill="none" stroke="midnightblue" d="M760.76,-112.083C760.76,-105.006 760.76,-94.8611 760.76,-85.9865"/>
<polygon fill="midnightblue" stroke="midnightblue" points="764.26,-85.751 760.76,-75.7511 757.26,-85.7511 764.26,-85.751"/>
</g>
</g>
</svg>
        <g id="navigator" transform="translate(0 0)" fill="#404254">
                <rect fill="#f2f5e9" fill-opacity="0.5" stroke="#606060" stroke-width=".5" x="0" y="0" width="60" height="60"/>
                <use id="zoomplus" xlink:href="#zoomPlus" x="17" y="9" onmousedown="handleZoom(evt,'in')"/>
                <use id="zoomminus" xlink:href="#zoomMin" x="42" y="9" onmousedown="handleZoom(evt,'out')"/>
                <use id="reset" xlink:href="#resetDef" x="30" y="36" onmousedown="handleReset()"/>
                <g id="arrowUp" xlink:href="#dirArrow" transform="translate(30 24)" onmousedown="handlePan(0,-1)">
                  <use xlink:href="#rim" fill="#404040">
                        <set attributeName="fill" to="#808080" begin="arrowUp.mouseover" end="arrowUp.mouseout"/>
                  </use>
                  <path fill="none" stroke="white" stroke-width="1.5" d="M0,-3.0v7 M-2.5,-0.5L0,-3.0L2.5,-0.5"/>
                </g>
                <g id="arrowRight" xlink:href="#dirArrow" transform="rotate(90) translate(36 -43)" onmousedown="handlePan(1,0)">
                  <use xlink:href="#rim" fill="#404040">
                        <set attributeName="fill" to="#808080" begin="arrowRight.mouseover" end="arrowRight.mouseout"/>
                  </use>
                  <path fill="none" stroke="white" stroke-width="1.5" d="M0,-3.0v7 M-2.5,-0.5L0,-3.0L2.5,-0.5"/>
                </g>
                <g id="arrowDown" xlink:href="#dirArrow" transform="rotate(180) translate(-30 -48)" onmousedown="handlePan(0,1)">
                  <use xlink:href="#rim" fill="#404040">
                        <set attributeName="fill" to="#808080" begin="arrowDown.mouseover" end="arrowDown.mouseout"/>
                  </use>
                  <path fill="none" stroke="white" stroke-width="1.5" d="M0,-3.0v7 M-2.5,-0.5L0,-3.0L2.5,-0.5"/>
                </g>
                <g id="arrowLeft" xlink:href="#dirArrow" transform="rotate(270) translate(-36 17)" onmousedown="handlePan(-1,0)">
                  <use xlink:href="#rim" fill="#404040">
                        <set attributeName="fill" to="#808080" begin="arrowLeft.mouseover" end="arrowLeft.mouseout"/>
                  </use>
                  <path fill="none" stroke="white" stroke-width="1.5" d="M0,-3.0v7 M-2.5,-0.5L0,-3.0L2.5,-0.5"/>
                </g>
        </g>
        <svg viewBox="0 0 15 15" width="100%" height="30px" preserveAspectRatio="xMaxYMin meet">
         <g id="arrow_out" transform="scale(0.3 0.3)">
          <a xlink:href="bitcoingui_8h__incl_org.svg" target="_base">
           <rect id="button" ry="5" rx="5" y="6" x="6" height="38" width="38"
                fill="#f2f5e9" fill-opacity="0.5" stroke="#606060" stroke-width="1.0"/>
           <path id="arrow"
             d="M 11.500037,31.436501 C 11.940474,20.09759 22.043105,11.32322 32.158766,21.979434 L 37.068811,17.246167 C 37.068811,17.246167 37.088388,32 37.088388,32 L 22.160133,31.978069 C 22.160133,31.978069 26.997745,27.140456 26.997745,27.140456 C 18.528582,18.264221 13.291696,25.230495 11.500037,31.436501 z"
             style="fill:#404040;"/>
          </a>
         </g>
        </svg>
</svg>
