<?xml version="1.0" encoding="UTF-8" standalone="no"?>
<!DOCTYPE svg PUBLIC "-//W3C//DTD SVG 1.1//EN"
 "http://www.w3.org/Graphics/SVG/1.1/DTD/svg11.dtd">
<!-- Generated by graphviz version 2.38.0 (20140413.2041)
 -->
<!-- Title: ScriptPubKeyToJSON Pages: 1 -->
<svg width="627pt" height="161pt"
 viewBox="0.00 0.00 627.00 161.00" xmlns="http://www.w3.org/2000/svg" xmlns:xlink="http://www.w3.org/1999/xlink">
<g id="graph0" class="graph" transform="scale(1 1) rotate(0) translate(4 157)">
<title>ScriptPubKeyToJSON</title>
<polygon fill="white" stroke="none" points="-4,4 -4,-157 623,-157 623,4 -4,4"/>
<!-- Node1876 -->
<g id="node1" class="node"><title>Node1876</title>
<polygon fill="#bfbfbf" stroke="black" points="0,-95.5 0,-114.5 115,-114.5 115,-95.5 0,-95.5"/>
<text text-anchor="middle" x="57.5" y="-102.5" font-family="Helvetica,sans-Serif" font-size="10.00">ScriptPubKeyToJSON</text>
</g>
<!-- Node1877 -->
<g id="node2" class="node"><title>Node1877</title>
<g id="a_node2"><a xlink:href="server_8h.html#ae1b1b5063ba94024c0af38e72de0d726" target="_top" xlink:title="decodescript">
<polygon fill="white" stroke="black" points="151,-133.5 151,-152.5 223,-152.5 223,-133.5 151,-133.5"/>
<text text-anchor="middle" x="187" y="-140.5" font-family="Helvetica,sans-Serif" font-size="10.00">decodescript</text>
</a>
</g>
</g>
<!-- Node1876&#45;&gt;Node1877 -->
<g id="edge1" class="edge"><title>Node1876&#45;&gt;Node1877</title>
<path fill="none" stroke="midnightblue" d="M100.559,-117.535C117.904,-122.705 137.681,-128.599 153.837,-133.414"/>
<polygon fill="midnightblue" stroke="midnightblue" points="101.257,-114.091 90.6736,-114.589 99.2574,-120.8 101.257,-114.091"/>
</g>
<!-- Node1878 -->
<g id="node3" class="node"><title>Node1878</title>
<g id="a_node3"><a xlink:href="server_8h.html#a5d2241797e79623e7a558ab617415652" target="_top" xlink:title="gettxout">
<polygon fill="white" stroke="black" points="161,-95.5 161,-114.5 213,-114.5 213,-95.5 161,-95.5"/>
<text text-anchor="middle" x="187" y="-102.5" font-family="Helvetica,sans-Serif" font-size="10.00">gettxout</text>
</a>
</g>
</g>
<!-- Node1876&#45;&gt;Node1878 -->
<g id="edge2" class="edge"><title>Node1876&#45;&gt;Node1878</title>
<path fill="none" stroke="midnightblue" d="M125.309,-105C137.96,-105 150.451,-105 160.782,-105"/>
<polygon fill="midnightblue" stroke="midnightblue" points="125.166,-101.5 115.166,-105 125.166,-108.5 125.166,-101.5"/>
</g>
<!-- Node1879 -->
<g id="node4" class="node"><title>Node1879</title>
<g id="a_node4"><a xlink:href="rawtransaction_8cpp.html#a719639f5d779706aae5c283784b3fd66" target="_top" xlink:title="TxToJSON">
<polygon fill="white" stroke="black" points="154,-57.5 154,-76.5 220,-76.5 220,-57.5 154,-57.5"/>
<text text-anchor="middle" x="187" y="-64.5" font-family="Helvetica,sans-Serif" font-size="10.00">TxToJSON</text>
</a>
</g>
</g>
<!-- Node1876&#45;&gt;Node1879 -->
<g id="edge3" class="edge"><title>Node1876&#45;&gt;Node1879</title>
<path fill="none" stroke="midnightblue" d="M100.559,-92.4647C117.904,-87.2952 137.681,-81.4009 153.837,-76.5859"/>
<polygon fill="midnightblue" stroke="midnightblue" points="99.2574,-89.2005 90.6736,-95.411 101.257,-95.9089 99.2574,-89.2005"/>
</g>
<!-- Node1880 -->
<g id="node5" class="node"><title>Node1880</title>
<g id="a_node5"><a xlink:href="rest_8cpp.html#a6a40ed64db0199226195920c9e92ac33" target="_top" xlink:title="rest_tx">
<polygon fill="white" stroke="black" points="291.5,-114.5 291.5,-133.5 338.5,-133.5 338.5,-114.5 291.5,-114.5"/>
<text text-anchor="middle" x="315" y="-121.5" font-family="Helvetica,sans-Serif" font-size="10.00">rest_tx</text>
</a>
</g>
</g>
<!-- Node1879&#45;&gt;Node1880 -->
<g id="edge4" class="edge"><title>Node1879&#45;&gt;Node1880</title>
<path fill="none" stroke="midnightblue" d="M214.729,-81.4328C233.868,-91.7465 256.661,-103.978 259,-105 269.46,-109.572 281.402,-113.809 291.48,-117.117"/>
<polygon fill="midnightblue" stroke="midnightblue" points="216.196,-78.2472 205.733,-76.5813 212.873,-84.4084 216.196,-78.2472"/>
</g>
<!-- Node1881 -->
<g id="node6" class="node"><title>Node1881</title>
<g id="a_node6"><a xlink:href="blockchain_8cpp.html#a6b596f07acd85fe676c798170fd8ddbe" target="_top" xlink:title="blockToJSON">
<polygon fill="white" stroke="black" points="276,-76.5 276,-95.5 354,-95.5 354,-76.5 276,-76.5"/>
<text text-anchor="middle" x="315" y="-83.5" font-family="Helvetica,sans-Serif" font-size="10.00">blockToJSON</text>
</a>
</g>
</g>
<!-- Node1879&#45;&gt;Node1881 -->
<g id="edge5" class="edge"><title>Node1879&#45;&gt;Node1881</title>
<path fill="none" stroke="midnightblue" d="M230.432,-73.3984C245.067,-75.6054 261.366,-78.0632 275.656,-80.2179"/>
<polygon fill="midnightblue" stroke="midnightblue" points="230.531,-69.874 220.121,-71.8437 229.487,-76.7957 230.531,-69.874"/>
</g>
<!-- Node1886 -->
<g id="node11" class="node"><title>Node1886</title>
<g id="a_node11"><a xlink:href="server_8h.html#aab9a57fd8f857122f587feee00a7757c" target="_top" xlink:title="getrawtransaction">
<polygon fill="white" stroke="black" points="268,-38.5 268,-57.5 362,-57.5 362,-38.5 268,-38.5"/>
<text text-anchor="middle" x="315" y="-45.5" font-family="Helvetica,sans-Serif" font-size="10.00">getrawtransaction</text>
</a>
</g>
</g>
<!-- Node1879&#45;&gt;Node1886 -->
<g id="edge10" class="edge"><title>Node1879&#45;&gt;Node1886</title>
<path fill="none" stroke="midnightblue" d="M230.325,-60.6177C242.324,-58.8083 255.448,-56.8292 267.671,-54.9862"/>
<polygon fill="midnightblue" stroke="midnightblue" points="229.487,-57.2043 220.121,-62.1563 230.531,-64.126 229.487,-57.2043"/>
</g>
<!-- Node1887 -->
<g id="node12" class="node"><title>Node1887</title>
<g id="a_node12"><a xlink:href="server_8h.html#abd3d6aa800b863a2e503ef322d680d9b" target="_top" xlink:title="decoderawtransaction">
<polygon fill="white" stroke="black" points="259,-0.5 259,-19.5 371,-19.5 371,-0.5 259,-0.5"/>
<text text-anchor="middle" x="315" y="-7.5" font-family="Helvetica,sans-Serif" font-size="10.00">decoderawtransaction</text>
</a>
</g>
</g>
<!-- Node1879&#45;&gt;Node1887 -->
<g id="edge11" class="edge"><title>Node1879&#45;&gt;Node1887</title>
<path fill="none" stroke="midnightblue" d="M213.045,-52.337C226.427,-44.8268 243.331,-35.848 259,-29 266.868,-25.5613 275.575,-22.3114 283.696,-19.5041"/>
<polygon fill="midnightblue" stroke="midnightblue" points="210.948,-49.5035 203.991,-57.4946 214.413,-55.5858 210.948,-49.5035"/>
</g>
<!-- Node1882 -->
<g id="node7" class="node"><title>Node1882</title>
<g id="a_node7"><a xlink:href="server_8h.html#afdd7f5b03a6ab23f3627721b074ef606" target="_top" xlink:title="getblock">
<polygon fill="white" stroke="black" points="411.5,-95.5 411.5,-114.5 464.5,-114.5 464.5,-95.5 411.5,-95.5"/>
<text text-anchor="middle" x="438" y="-102.5" font-family="Helvetica,sans-Serif" font-size="10.00">getblock</text>
</a>
</g>
</g>
<!-- Node1881&#45;&gt;Node1882 -->
<g id="edge6" class="edge"><title>Node1881&#45;&gt;Node1882</title>
<path fill="none" stroke="midnightblue" d="M364.552,-93.6239C380.503,-96.1286 397.609,-98.8146 411.191,-100.947"/>
<polygon fill="midnightblue" stroke="midnightblue" points="364.707,-90.1054 354.285,-92.0117 363.621,-97.0207 364.707,-90.1054"/>
</g>
<!-- Node1883 -->
<g id="node8" class="node"><title>Node1883</title>
<g id="a_node8"><a xlink:href="rest_8cpp.html#a99e4aae76e1b90f996cf7c24b5281464" target="_top" xlink:title="rest_block">
<polygon fill="white" stroke="black" points="407,-57.5 407,-76.5 469,-76.5 469,-57.5 407,-57.5"/>
<text text-anchor="middle" x="438" y="-64.5" font-family="Helvetica,sans-Serif" font-size="10.00">rest_block</text>
</a>
</g>
</g>
<!-- Node1881&#45;&gt;Node1883 -->
<g id="edge7" class="edge"><title>Node1881&#45;&gt;Node1883</title>
<path fill="none" stroke="midnightblue" d="M364.443,-78.3932C378.685,-76.1569 393.855,-73.7748 406.623,-71.77"/>
<polygon fill="midnightblue" stroke="midnightblue" points="363.621,-74.9793 354.285,-79.9883 364.707,-81.8946 363.621,-74.9793"/>
</g>
<!-- Node1884 -->
<g id="node9" class="node"><title>Node1884</title>
<g id="a_node9"><a xlink:href="rest_8cpp.html#af08858ee3c5d6236db44a62c423e0c0e" target="_top" xlink:title="rest_block_extended">
<polygon fill="white" stroke="black" points="508.5,-76.5 508.5,-95.5 615.5,-95.5 615.5,-76.5 508.5,-76.5"/>
<text text-anchor="middle" x="562" y="-83.5" font-family="Helvetica,sans-Serif" font-size="10.00">rest_block_extended</text>
</a>
</g>
</g>
<!-- Node1883&#45;&gt;Node1884 -->
<g id="edge8" class="edge"><title>Node1883&#45;&gt;Node1884</title>
<path fill="none" stroke="midnightblue" d="M479.3,-73.2763C488.607,-74.7256 498.642,-76.2886 508.387,-77.8062"/>
<polygon fill="midnightblue" stroke="midnightblue" points="479.577,-69.7772 469.157,-71.6966 478.5,-76.6939 479.577,-69.7772"/>
</g>
<!-- Node1885 -->
<g id="node10" class="node"><title>Node1885</title>
<g id="a_node10"><a xlink:href="rest_8cpp.html#acf422a3f71f1fd9963d6c65517bbb654" target="_top" xlink:title="rest_block_notxdetails">
<polygon fill="white" stroke="black" points="505,-38.5 505,-57.5 619,-57.5 619,-38.5 505,-38.5"/>
<text text-anchor="middle" x="562" y="-45.5" font-family="Helvetica,sans-Serif" font-size="10.00">rest_block_notxdetails</text>
</a>
</g>
</g>
<!-- Node1883&#45;&gt;Node1885 -->
<g id="edge9" class="edge"><title>Node1883&#45;&gt;Node1885</title>
<path fill="none" stroke="midnightblue" d="M479.115,-60.7527C487.254,-59.485 495.959,-58.1294 504.542,-56.7926"/>
<polygon fill="midnightblue" stroke="midnightblue" points="478.5,-57.3061 469.157,-62.3034 479.577,-64.2228 478.5,-57.3061"/>
</g>
</g>
</svg>
