<?xml version="1.0" encoding="UTF-8" standalone="no"?>
<!DOCTYPE svg PUBLIC "-//W3C//DTD SVG 1.1//EN"
 "http://www.w3.org/Graphics/SVG/1.1/DTD/svg11.dtd">
<!-- Generated by graphviz version 2.38.0 (20140413.2041)
 -->
<!-- Title: compress_small Pages: 1 -->
<svg width="495pt" height="165pt"
 viewBox="0.00 0.00 495.00 164.50" xmlns="http://www.w3.org/2000/svg" xmlns:xlink="http://www.w3.org/1999/xlink">
<g id="graph0" class="graph" transform="scale(1 1) rotate(0) translate(4 160.5)">
<title>compress_small</title>
<polygon fill="white" stroke="none" points="-4,4 -4,-160.5 491,-160.5 491,4 -4,4"/>
<!-- Node33 -->
<g id="node1" class="node"><title>Node33</title>
<polygon fill="#bfbfbf" stroke="black" points="0,-77 0,-96 88,-96 88,-77 0,-77"/>
<text text-anchor="middle" x="44" y="-84" font-family="Helvetica,sans-Serif" font-size="10.00">compress_small</text>
</g>
<!-- Node34 -->
<g id="node2" class="node"><title>Node34</title>
<g id="a_node2"><a xlink:href="bmw_8c.html#a71c3a6a3a5cb6743da30b047b33dbcf0" target="_top" xlink:title="bmw32">
<polygon fill="white" stroke="black" points="138.5,-99 138.5,-118 186.5,-118 186.5,-99 138.5,-99"/>
<text text-anchor="middle" x="162.5" y="-106" font-family="Helvetica,sans-Serif" font-size="10.00">bmw32</text>
</a>
</g>
</g>
<!-- Node33&#45;&gt;Node34 -->
<g id="edge1" class="edge"><title>Node33&#45;&gt;Node34</title>
<path fill="none" stroke="midnightblue" d="M98.1646,-96.5397C112.218,-99.1935 126.669,-101.922 138.212,-104.102"/>
<polygon fill="midnightblue" stroke="midnightblue" points="98.5251,-93.046 88.0493,-94.6295 97.2261,-99.9244 98.5251,-93.046"/>
</g>
<!-- Node37 -->
<g id="node5" class="node"><title>Node37</title>
<g id="a_node5"><a xlink:href="bmw_8c.html#aa700142ca85356e397eb3f999959b3b4" target="_top" xlink:title="bmw32_close">
<polygon fill="white" stroke="black" points="124,-55 124,-74 201,-74 201,-55 124,-55"/>
<text text-anchor="middle" x="162.5" y="-62" font-family="Helvetica,sans-Serif" font-size="10.00">bmw32_close</text>
</a>
</g>
</g>
<!-- Node33&#45;&gt;Node37 -->
<g id="edge4" class="edge"><title>Node33&#45;&gt;Node37</title>
<path fill="none" stroke="midnightblue" d="M97.8835,-76.5134C106.694,-74.8496 115.67,-73.1545 123.996,-71.5823"/>
<polygon fill="midnightblue" stroke="midnightblue" points="97.2261,-73.0756 88.0493,-78.3705 98.5251,-79.954 97.2261,-73.0756"/>
</g>
<!-- Node35 -->
<g id="node3" class="node"><title>Node35</title>
<g id="a_node3"><a xlink:href="sph__bmw_8h.html#afc5b4dff8fb6e8d5de62fc9fd4c7af7e" target="_top" xlink:title="Process some data bytes. ">
<polygon fill="white" stroke="black" points="255.5,-137 255.5,-156 329.5,-156 329.5,-137 255.5,-137"/>
<text text-anchor="middle" x="292.5" y="-144" font-family="Helvetica,sans-Serif" font-size="10.00">sph_bmw224</text>
</a>
</g>
</g>
<!-- Node34&#45;&gt;Node35 -->
<g id="edge2" class="edge"><title>Node34&#45;&gt;Node35</title>
<path fill="none" stroke="midnightblue" d="M196.295,-118.236C215.667,-123.987 240.088,-131.237 259.346,-136.954"/>
<polygon fill="midnightblue" stroke="midnightblue" points="197.262,-114.872 186.68,-115.382 195.27,-121.583 197.262,-114.872"/>
</g>
<!-- Node36 -->
<g id="node4" class="node"><title>Node36</title>
<g id="a_node4"><a xlink:href="sph__bmw_8h.html#afe4093d51ea6619687de49e45d56eedd" target="_top" xlink:title="Process some data bytes. ">
<polygon fill="white" stroke="black" points="255.5,-99 255.5,-118 329.5,-118 329.5,-99 255.5,-99"/>
<text text-anchor="middle" x="292.5" y="-106" font-family="Helvetica,sans-Serif" font-size="10.00">sph_bmw256</text>
</a>
</g>
</g>
<!-- Node34&#45;&gt;Node36 -->
<g id="edge3" class="edge"><title>Node34&#45;&gt;Node36</title>
<path fill="none" stroke="midnightblue" d="M196.727,-108.5C214.733,-108.5 237.004,-108.5 255.431,-108.5"/>
<polygon fill="midnightblue" stroke="midnightblue" points="196.68,-105 186.68,-108.5 196.68,-112 196.68,-105"/>
</g>
<!-- Node38 -->
<g id="node6" class="node"><title>Node38</title>
<g id="a_node6"><a xlink:href="sph__bmw_8h.html#a36f74f78c3cea5fd6073325e70829291" target="_top" xlink:title="Add a few additional bits (0 to 7) to the current computation, then terminate it and output the resul...">
<polygon fill="white" stroke="black" points="237,-49.5 237,-79.5 348,-79.5 348,-49.5 237,-49.5"/>
<text text-anchor="start" x="245" y="-67.5" font-family="Helvetica,sans-Serif" font-size="10.00">sph_bmw224_addbits</text>
<text text-anchor="middle" x="292.5" y="-56.5" font-family="Helvetica,sans-Serif" font-size="10.00">_and_close</text>
</a>
</g>
</g>
<!-- Node37&#45;&gt;Node38 -->
<g id="edge5" class="edge"><title>Node37&#45;&gt;Node38</title>
<path fill="none" stroke="midnightblue" d="M211.216,-64.5C219.616,-64.5 228.416,-64.5 236.984,-64.5"/>
<polygon fill="midnightblue" stroke="midnightblue" points="211.212,-61.0001 201.212,-64.5 211.212,-68.0001 211.212,-61.0001"/>
</g>
<!-- Node40 -->
<g id="node8" class="node"><title>Node40</title>
<g id="a_node8"><a xlink:href="sph__bmw_8h.html#a4823bab974c6c8f852c4e3b26185f79e" target="_top" xlink:title="Add a few additional bits (0 to 7) to the current computation, then terminate it and output the resul...">
<polygon fill="white" stroke="black" points="237,-0.5 237,-30.5 348,-30.5 348,-0.5 237,-0.5"/>
<text text-anchor="start" x="245" y="-18.5" font-family="Helvetica,sans-Serif" font-size="10.00">sph_bmw256_addbits</text>
<text text-anchor="middle" x="292.5" y="-7.5" font-family="Helvetica,sans-Serif" font-size="10.00">_and_close</text>
</a>
</g>
</g>
<!-- Node37&#45;&gt;Node40 -->
<g id="edge7" class="edge"><title>Node37&#45;&gt;Node40</title>
<path fill="none" stroke="midnightblue" d="M197.857,-51.3477C214.534,-44.9635 234.658,-37.2599 251.969,-30.6328"/>
<polygon fill="midnightblue" stroke="midnightblue" points="196.571,-48.0921 188.484,-54.936 199.074,-54.6295 196.571,-48.0921"/>
</g>
<!-- Node39 -->
<g id="node7" class="node"><title>Node39</title>
<g id="a_node7"><a xlink:href="sph__bmw_8h.html#a19ee0254d9408c22e4d6a92c1cecf72b" target="_top" xlink:title="Terminate the current BMW&#45;224 computation and output the result into the provided buffer...">
<polygon fill="white" stroke="black" points="384,-55 384,-74 487,-74 487,-55 384,-55"/>
<text text-anchor="middle" x="435.5" y="-62" font-family="Helvetica,sans-Serif" font-size="10.00">sph_bmw224_close</text>
</a>
</g>
</g>
<!-- Node38&#45;&gt;Node39 -->
<g id="edge6" class="edge"><title>Node38&#45;&gt;Node39</title>
<path fill="none" stroke="midnightblue" d="M358.071,-64.5C366.711,-64.5 375.471,-64.5 383.826,-64.5"/>
<polygon fill="midnightblue" stroke="midnightblue" points="358.014,-61.0001 348.014,-64.5 358.014,-68.0001 358.014,-61.0001"/>
</g>
<!-- Node41 -->
<g id="node9" class="node"><title>Node41</title>
<g id="a_node9"><a xlink:href="sph__bmw_8h.html#a418c40f615cc045169463fbc832d378d" target="_top" xlink:title="Terminate the current BMW&#45;256 computation and output the result into the provided buffer...">
<polygon fill="white" stroke="black" points="384,-6 384,-25 487,-25 487,-6 384,-6"/>
<text text-anchor="middle" x="435.5" y="-13" font-family="Helvetica,sans-Serif" font-size="10.00">sph_bmw256_close</text>
</a>
</g>
</g>
<!-- Node40&#45;&gt;Node41 -->
<g id="edge8" class="edge"><title>Node40&#45;&gt;Node41</title>
<path fill="none" stroke="midnightblue" d="M358.071,-15.5C366.711,-15.5 375.471,-15.5 383.826,-15.5"/>
<polygon fill="midnightblue" stroke="midnightblue" points="358.014,-12.0001 348.014,-15.5 358.014,-19.0001 358.014,-12.0001"/>
</g>
</g>
</svg>
