<?xml version="1.0" encoding="UTF-8" standalone="no"?>
<!DOCTYPE svg PUBLIC "-//W3C//DTD SVG 1.1//EN"
 "http://www.w3.org/Graphics/SVG/1.1/DTD/svg11.dtd">
<!-- Generated by graphviz version 2.38.0 (20140413.2041)
 -->
<!-- Title: src/checkpoints.h Pages: 1 -->
<svg width="733pt" height="84pt"
 viewBox="0.00 0.00 733.00 84.00" xmlns="http://www.w3.org/2000/svg" xmlns:xlink="http://www.w3.org/1999/xlink">
<g id="graph0" class="graph" transform="scale(1 1) rotate(0) translate(4 80)">
<title>src/checkpoints.h</title>
<polygon fill="white" stroke="none" points="-4,4 -4,-80 729,-80 729,4 -4,4"/>
<!-- Node13 -->
<g id="node1" class="node"><title>Node13</title>
<polygon fill="#bfbfbf" stroke="black" points="296.5,-56.5 296.5,-75.5 396.5,-75.5 396.5,-56.5 296.5,-56.5"/>
<text text-anchor="middle" x="346.5" y="-63.5" font-family="Helvetica,sans-Serif" font-size="10.00">src/checkpoints.h</text>
</g>
<!-- Node14 -->
<g id="node2" class="node"><title>Node14</title>
<g id="a_node2"><a xlink:href="checkpoints_8cpp.html" target="_top" xlink:title="src/checkpoints.cpp">
<polygon fill="white" stroke="black" points="0,-0.5 0,-19.5 111,-19.5 111,-0.5 0,-0.5"/>
<text text-anchor="middle" x="55.5" y="-7.5" font-family="Helvetica,sans-Serif" font-size="10.00">src/checkpoints.cpp</text>
</a>
</g>
</g>
<!-- Node13&#45;&gt;Node14 -->
<g id="edge1" class="edge"><title>Node13&#45;&gt;Node14</title>
<path fill="none" stroke="midnightblue" d="M290.459,-54.6007C235.464,-44.3953 152.602,-29.0189 101.394,-19.5164"/>
<polygon fill="midnightblue" stroke="midnightblue" points="289.919,-58.0602 300.39,-56.4435 291.197,-51.1777 289.919,-58.0602"/>
</g>
<!-- Node15 -->
<g id="node3" class="node"><title>Node15</title>
<g id="a_node3"><a xlink:href="init_8cpp.html" target="_top" xlink:title="src/init.cpp">
<polygon fill="white" stroke="black" points="129.5,-0.5 129.5,-19.5 197.5,-19.5 197.5,-0.5 129.5,-0.5"/>
<text text-anchor="middle" x="163.5" y="-7.5" font-family="Helvetica,sans-Serif" font-size="10.00">src/init.cpp</text>
</a>
</g>
</g>
<!-- Node13&#45;&gt;Node15 -->
<g id="edge2" class="edge"><title>Node13&#45;&gt;Node15</title>
<path fill="none" stroke="midnightblue" d="M307.757,-53.5677C273.235,-43.381 223.495,-28.7034 192.361,-19.5164"/>
<polygon fill="midnightblue" stroke="midnightblue" points="306.921,-56.9702 317.503,-56.4435 308.903,-50.2564 306.921,-56.9702"/>
</g>
<!-- Node16 -->
<g id="node4" class="node"><title>Node16</title>
<g id="a_node4"><a xlink:href="clientmodel_8cpp.html" target="_top" xlink:title="src/qt/clientmodel.cpp">
<polygon fill="white" stroke="black" points="215.5,-0.5 215.5,-19.5 337.5,-19.5 337.5,-0.5 215.5,-0.5"/>
<text text-anchor="middle" x="276.5" y="-7.5" font-family="Helvetica,sans-Serif" font-size="10.00">src/qt/clientmodel.cpp</text>
</a>
</g>
</g>
<!-- Node13&#45;&gt;Node16 -->
<g id="edge3" class="edge"><title>Node13&#45;&gt;Node16</title>
<path fill="none" stroke="midnightblue" d="M327.186,-50.1008C314.588,-40.3824 298.572,-28.0269 287.951,-19.8339"/>
<polygon fill="midnightblue" stroke="midnightblue" points="325.198,-52.9871 335.253,-56.324 329.473,-47.4446 325.198,-52.9871"/>
</g>
<!-- Node17 -->
<g id="node5" class="node"><title>Node17</title>
<g id="a_node5"><a xlink:href="blockchain_8cpp.html" target="_top" xlink:title="src/rpc/blockchain.cpp">
<polygon fill="white" stroke="black" points="355.5,-0.5 355.5,-19.5 477.5,-19.5 477.5,-0.5 355.5,-0.5"/>
<text text-anchor="middle" x="416.5" y="-7.5" font-family="Helvetica,sans-Serif" font-size="10.00">src/rpc/blockchain.cpp</text>
</a>
</g>
</g>
<!-- Node13&#45;&gt;Node17 -->
<g id="edge4" class="edge"><title>Node13&#45;&gt;Node17</title>
<path fill="none" stroke="midnightblue" d="M365.814,-50.1008C378.412,-40.3824 394.428,-28.0269 405.049,-19.8339"/>
<polygon fill="midnightblue" stroke="midnightblue" points="363.527,-47.4446 357.747,-56.324 367.802,-52.9871 363.527,-47.4446"/>
</g>
<!-- Node18 -->
<g id="node6" class="node"><title>Node18</title>
<g id="a_node6"><a xlink:href="validation_8cpp.html" target="_top" xlink:title="src/validation.cpp">
<polygon fill="white" stroke="black" points="495.5,-0.5 495.5,-19.5 595.5,-19.5 595.5,-0.5 495.5,-0.5"/>
<text text-anchor="middle" x="545.5" y="-7.5" font-family="Helvetica,sans-Serif" font-size="10.00">src/validation.cpp</text>
</a>
</g>
</g>
<!-- Node13&#45;&gt;Node18 -->
<g id="edge5" class="edge"><title>Node13&#45;&gt;Node18</title>
<path fill="none" stroke="midnightblue" d="M388.148,-53.6986C425.706,-43.507 480.114,-28.7429 514.115,-19.5164"/>
<polygon fill="midnightblue" stroke="midnightblue" points="386.767,-50.4468 378.032,-56.4435 388.6,-57.2025 386.767,-50.4468"/>
</g>
<!-- Node19 -->
<g id="node7" class="node"><title>Node19</title>
<g id="a_node7"><a xlink:href="wallet_8cpp.html" target="_top" xlink:title="src/wallet/wallet.cpp">
<polygon fill="white" stroke="black" points="614,-0.5 614,-19.5 725,-19.5 725,-0.5 614,-0.5"/>
<text text-anchor="middle" x="669.5" y="-7.5" font-family="Helvetica,sans-Serif" font-size="10.00">src/wallet/wallet.cpp</text>
</a>
</g>
</g>
<!-- Node13&#45;&gt;Node19 -->
<g id="edge6" class="edge"><title>Node13&#45;&gt;Node19</title>
<path fill="none" stroke="midnightblue" d="M406.485,-54.9715C467.467,-44.7764 560.929,-29.1512 618.468,-19.5317"/>
<polygon fill="midnightblue" stroke="midnightblue" points="405.9,-51.5206 396.614,-56.6217 407.055,-58.4248 405.9,-51.5206"/>
</g>
</g>
</svg>
