<?xml version="1.0" encoding="UTF-8" standalone="no"?>
<!DOCTYPE svg PUBLIC "-//W3C//DTD SVG 1.1//EN"
 "http://www.w3.org/Graphics/SVG/1.1/DTD/svg11.dtd">
<!-- Generated by graphviz version 2.38.0 (20140413.2041)
 -->
<!-- Title: src/checkqueue.h Pages: 1 -->
<svg width="673pt" height="151pt"
 viewBox="0.00 0.00 673.00 151.00" xmlns="http://www.w3.org/2000/svg" xmlns:xlink="http://www.w3.org/1999/xlink">
<g id="graph0" class="graph" transform="scale(1 1) rotate(0) translate(4 147)">
<title>src/checkqueue.h</title>
<polygon fill="white" stroke="none" points="-4,4 -4,-147 669,-147 669,4 -4,4"/>
<!-- Node0 -->
<g id="node1" class="node"><title>Node0</title>
<polygon fill="#bfbfbf" stroke="black" points="297,-123.5 297,-142.5 398,-142.5 398,-123.5 297,-123.5"/>
<text text-anchor="middle" x="347.5" y="-130.5" font-family="Helvetica,sans-Serif" font-size="10.00">src/checkqueue.h</text>
</g>
<!-- Node1 -->
<g id="node2" class="node"><title>Node1</title>
<g id="a_node2"><a xlink:href="sync_8h.html" target="_top" xlink:title="sync.h">
<polygon fill="white" stroke="black" points="178,-62 178,-81 225,-81 225,-62 178,-62"/>
<text text-anchor="middle" x="201.5" y="-69" font-family="Helvetica,sans-Serif" font-size="10.00">sync.h</text>
</a>
</g>
</g>
<!-- Node0&#45;&gt;Node1 -->
<g id="edge1" class="edge"><title>Node0&#45;&gt;Node1</title>
<path fill="none" stroke="midnightblue" d="M325.321,-123.432C302.469,-114.543 265.86,-100.129 234.5,-87 233.093,-86.4109 231.655,-85.8026 230.204,-85.184"/>
<polygon fill="midnightblue" stroke="midnightblue" points="231.214,-81.8073 220.646,-81.048 228.434,-88.2316 231.214,-81.8073"/>
</g>
<!-- Node6 -->
<g id="node7" class="node"><title>Node6</title>
<polygon fill="white" stroke="#bfbfbf" points="243.5,-62 243.5,-81 305.5,-81 305.5,-62 243.5,-62"/>
<text text-anchor="middle" x="274.5" y="-69" font-family="Helvetica,sans-Serif" font-size="10.00">algorithm</text>
</g>
<!-- Node0&#45;&gt;Node6 -->
<g id="edge6" class="edge"><title>Node0&#45;&gt;Node6</title>
<path fill="none" stroke="midnightblue" d="M337.041,-123.475C325.549,-114.108 306.87,-98.8839 292.913,-87.5081"/>
<polygon fill="midnightblue" stroke="midnightblue" points="294.902,-84.614 284.94,-81.0091 290.48,-90.04 294.902,-84.614"/>
</g>
<!-- Node7 -->
<g id="node8" class="node"><title>Node7</title>
<polygon fill="white" stroke="#bfbfbf" points="324,-62 324,-81 371,-81 371,-62 324,-62"/>
<text text-anchor="middle" x="347.5" y="-69" font-family="Helvetica,sans-Serif" font-size="10.00">vector</text>
</g>
<!-- Node0&#45;&gt;Node7 -->
<g id="edge7" class="edge"><title>Node0&#45;&gt;Node7</title>
<path fill="none" stroke="midnightblue" d="M347.5,-123.475C347.5,-115.08 347.5,-101.981 347.5,-91.1631"/>
<polygon fill="midnightblue" stroke="midnightblue" points="351,-91.0091 347.5,-81.0091 344,-91.0091 351,-91.0091"/>
</g>
<!-- Node8 -->
<g id="node9" class="node"><title>Node8</title>
<polygon fill="white" stroke="#bfbfbf" points="389,-56.5 389,-86.5 514,-86.5 514,-56.5 389,-56.5"/>
<text text-anchor="start" x="397" y="-74.5" font-family="Helvetica,sans-Serif" font-size="10.00">boost/thread/condition</text>
<text text-anchor="middle" x="451.5" y="-63.5" font-family="Helvetica,sans-Serif" font-size="10.00">_variable.hpp</text>
</g>
<!-- Node0&#45;&gt;Node8 -->
<g id="edge8" class="edge"><title>Node0&#45;&gt;Node8</title>
<path fill="none" stroke="midnightblue" d="M362.401,-123.475C376.881,-115.191 399.37,-102.325 418.13,-91.5913"/>
<polygon fill="midnightblue" stroke="midnightblue" points="420.047,-94.5269 426.989,-86.523 416.571,-88.4509 420.047,-94.5269"/>
</g>
<!-- Node9 -->
<g id="node10" class="node"><title>Node9</title>
<polygon fill="white" stroke="#bfbfbf" points="532,-62 532,-81 665,-81 665,-62 532,-62"/>
<text text-anchor="middle" x="598.5" y="-69" font-family="Helvetica,sans-Serif" font-size="10.00">boost/thread/mutex.hpp</text>
</g>
<!-- Node0&#45;&gt;Node9 -->
<g id="edge9" class="edge"><title>Node0&#45;&gt;Node9</title>
<path fill="none" stroke="midnightblue" d="M383.462,-123.475C428.009,-112.915 503.959,-94.911 552.649,-83.3689"/>
<polygon fill="midnightblue" stroke="midnightblue" points="553.682,-86.7214 562.605,-81.0091 552.067,-79.9101 553.682,-86.7214"/>
</g>
<!-- Node2 -->
<g id="node3" class="node"><title>Node2</title>
<g id="a_node3"><a xlink:href="threadsafety_8h.html" target="_top" xlink:title="threadsafety.h">
<polygon fill="white" stroke="black" points="0,-0.5 0,-19.5 85,-19.5 85,-0.5 0,-0.5"/>
<text text-anchor="middle" x="42.5" y="-7.5" font-family="Helvetica,sans-Serif" font-size="10.00">threadsafety.h</text>
</a>
</g>
</g>
<!-- Node1&#45;&gt;Node2 -->
<g id="edge2" class="edge"><title>Node1&#45;&gt;Node2</title>
<path fill="none" stroke="midnightblue" d="M178.719,-61.9751C151.445,-51.7687 105.587,-34.608 74.6986,-23.0492"/>
<polygon fill="midnightblue" stroke="midnightblue" points="75.831,-19.7359 65.2386,-19.5091 73.3776,-26.2919 75.831,-19.7359"/>
</g>
<!-- Node3 -->
<g id="node4" class="node"><title>Node3</title>
<polygon fill="white" stroke="#bfbfbf" points="103,-0.5 103,-19.5 206,-19.5 206,-0.5 103,-0.5"/>
<text text-anchor="middle" x="154.5" y="-7.5" font-family="Helvetica,sans-Serif" font-size="10.00">condition_variable</text>
</g>
<!-- Node1&#45;&gt;Node3 -->
<g id="edge3" class="edge"><title>Node1&#45;&gt;Node3</title>
<path fill="none" stroke="midnightblue" d="M194.766,-61.9751C187.716,-53.0501 176.465,-38.8071 167.646,-27.6425"/>
<polygon fill="midnightblue" stroke="midnightblue" points="170.167,-25.1867 161.221,-19.5091 164.674,-29.5258 170.167,-25.1867"/>
</g>
<!-- Node4 -->
<g id="node5" class="node"><title>Node4</title>
<polygon fill="white" stroke="#bfbfbf" points="224.5,-0.5 224.5,-19.5 272.5,-19.5 272.5,-0.5 224.5,-0.5"/>
<text text-anchor="middle" x="248.5" y="-7.5" font-family="Helvetica,sans-Serif" font-size="10.00">thread</text>
</g>
<!-- Node1&#45;&gt;Node4 -->
<g id="edge4" class="edge"><title>Node1&#45;&gt;Node4</title>
<path fill="none" stroke="midnightblue" d="M208.234,-61.9751C215.284,-53.0501 226.535,-38.8071 235.354,-27.6425"/>
<polygon fill="midnightblue" stroke="midnightblue" points="238.326,-29.5258 241.779,-19.5091 232.833,-25.1867 238.326,-29.5258"/>
</g>
<!-- Node5 -->
<g id="node6" class="node"><title>Node5</title>
<polygon fill="white" stroke="#bfbfbf" points="291,-0.5 291,-19.5 338,-19.5 338,-0.5 291,-0.5"/>
<text text-anchor="middle" x="314.5" y="-7.5" font-family="Helvetica,sans-Serif" font-size="10.00">mutex</text>
</g>
<!-- Node1&#45;&gt;Node5 -->
<g id="edge5" class="edge"><title>Node1&#45;&gt;Node5</title>
<path fill="none" stroke="midnightblue" d="M217.69,-61.9751C236.402,-52.1222 267.423,-35.7883 289.299,-24.2697"/>
<polygon fill="midnightblue" stroke="midnightblue" points="291.122,-27.2651 298.34,-19.5091 287.861,-21.0713 291.122,-27.2651"/>
</g>
</g>
</svg>
