<?xml version="1.0" encoding="UTF-8" standalone="no"?>
<!DOCTYPE svg PUBLIC "-//W3C//DTD SVG 1.1//EN"
 "http://www.w3.org/Graphics/SVG/1.1/DTD/svg11.dtd">
<!-- Generated by graphviz version 2.38.0 (20140413.2041)
 -->
<!-- Title: CDBWrapper::NewIterator Pages: 1 -->
<svg width="973pt" height="256pt"
 viewBox="0.00 0.00 973.00 256.22" xmlns="http://www.w3.org/2000/svg" xmlns:xlink="http://www.w3.org/1999/xlink">
<g id="graph0" class="graph" transform="scale(1 1) rotate(0) translate(4 252.219)">
<title>CDBWrapper::NewIterator</title>
<polygon fill="white" stroke="none" points="-4,4 -4,-252.219 969,-252.219 969,4 -4,4"/>
<!-- Node81 -->
<g id="node1" class="node"><title>Node81</title>
<polygon fill="#bfbfbf" stroke="black" points="0,-117.719 0,-136.719 132,-136.719 132,-117.719 0,-117.719"/>
<text text-anchor="middle" x="66" y="-124.719" font-family="Helvetica,sans-Serif" font-size="10.00">CDBWrapper::NewIterator</text>
</g>
<!-- Node82 -->
<g id="node2" class="node"><title>Node82</title>
<g id="a_node2"><a xlink:href="class_c_d_b_wrapper.html#aec1b8db7dc13b64ba599ddb8141118ca" target="_top" xlink:title="Return true if the database managed by this class contains no entries. ">
<polygon fill="white" stroke="black" points="198.5,-224.719 198.5,-243.719 316.5,-243.719 316.5,-224.719 198.5,-224.719"/>
<text text-anchor="middle" x="257.5" y="-231.719" font-family="Helvetica,sans-Serif" font-size="10.00">CDBWrapper::IsEmpty</text>
</a>
</g>
</g>
<!-- Node81&#45;&gt;Node82 -->
<g id="edge1" class="edge"><title>Node81&#45;&gt;Node82</title>
<path fill="none" stroke="midnightblue" d="M81.6859,-144.48C99.8511,-164.666 132.723,-197.56 168,-215.219 177.415,-219.932 187.964,-223.479 198.408,-226.148"/>
<polygon fill="midnightblue" stroke="midnightblue" points="84.2801,-142.13 75.0472,-136.934 79.0242,-146.754 84.2801,-142.13"/>
</g>
<!-- Node84 -->
<g id="node4" class="node"><title>Node84</title>
<g id="a_node4"><a xlink:href="class_c_block_tree_d_b.html#a8f21cec56f3e4c8025726c39522a1ec5" target="_top" xlink:title="CBlockTreeDB::LoadBlockIndexGuts">
<polygon fill="white" stroke="black" points="168,-186.719 168,-205.719 347,-205.719 347,-186.719 168,-186.719"/>
<text text-anchor="middle" x="257.5" y="-193.719" font-family="Helvetica,sans-Serif" font-size="10.00">CBlockTreeDB::LoadBlockIndexGuts</text>
</a>
</g>
</g>
<!-- Node81&#45;&gt;Node84 -->
<g id="edge3" class="edge"><title>Node81&#45;&gt;Node84</title>
<path fill="none" stroke="midnightblue" d="M92.4434,-141.59C112.457,-152.39 141.324,-166.873 168,-176.219 179.744,-180.333 192.668,-183.813 204.925,-186.658"/>
<polygon fill="midnightblue" stroke="midnightblue" points="94.0966,-138.505 83.6447,-136.771 90.734,-144.644 94.0966,-138.505"/>
</g>
<!-- Node91 -->
<g id="node11" class="node"><title>Node91</title>
<g id="a_node11"><a xlink:href="class_c_block_tree_d_b.html#a37f8c135b1b6aaf751694f0747913d96" target="_top" xlink:title="CBlockTreeDB::ReadAddress\lIndex">
<polygon fill="white" stroke="black" points="183.5,-137.219 183.5,-167.219 331.5,-167.219 331.5,-137.219 183.5,-137.219"/>
<text text-anchor="start" x="191.5" y="-155.219" font-family="Helvetica,sans-Serif" font-size="10.00">CBlockTreeDB::ReadAddress</text>
<text text-anchor="middle" x="257.5" y="-144.219" font-family="Helvetica,sans-Serif" font-size="10.00">Index</text>
</a>
</g>
</g>
<!-- Node81&#45;&gt;Node91 -->
<g id="edge10" class="edge"><title>Node81&#45;&gt;Node91</title>
<path fill="none" stroke="midnightblue" d="M142.407,-137.167C155.9,-138.947 169.938,-140.799 183.366,-142.57"/>
<polygon fill="midnightblue" stroke="midnightblue" points="142.587,-133.66 132.215,-135.822 141.671,-140.6 142.587,-133.66"/>
</g>
<!-- Node96 -->
<g id="node16" class="node"><title>Node96</title>
<g id="a_node16"><a xlink:href="class_c_block_tree_d_b.html#a07a11ab4188e7ee7b3b69faa64406a16" target="_top" xlink:title="CBlockTreeDB::ReadAddress\lUnspentIndex">
<polygon fill="white" stroke="black" points="183.5,-88.2187 183.5,-118.219 331.5,-118.219 331.5,-88.2187 183.5,-88.2187"/>
<text text-anchor="start" x="191.5" y="-106.219" font-family="Helvetica,sans-Serif" font-size="10.00">CBlockTreeDB::ReadAddress</text>
<text text-anchor="middle" x="257.5" y="-95.2187" font-family="Helvetica,sans-Serif" font-size="10.00">UnspentIndex</text>
</a>
</g>
</g>
<!-- Node81&#45;&gt;Node96 -->
<g id="edge15" class="edge"><title>Node81&#45;&gt;Node96</title>
<path fill="none" stroke="midnightblue" d="M142.407,-117.668C155.9,-115.96 169.938,-114.182 183.366,-112.481"/>
<polygon fill="midnightblue" stroke="midnightblue" points="141.696,-114.23 132.215,-118.959 142.576,-121.175 141.696,-114.23"/>
</g>
<!-- Node99 -->
<g id="node19" class="node"><title>Node99</title>
<g id="a_node19"><a xlink:href="class_c_block_tree_d_b.html#a212b39bb66363aa8252fa3a4f1dafb00" target="_top" xlink:title="CBlockTreeDB::ReadTimestamp\lIndex">
<polygon fill="white" stroke="black" points="177,-39.2187 177,-69.2187 338,-69.2187 338,-39.2187 177,-39.2187"/>
<text text-anchor="start" x="185" y="-57.2187" font-family="Helvetica,sans-Serif" font-size="10.00">CBlockTreeDB::ReadTimestamp</text>
<text text-anchor="middle" x="257.5" y="-46.2187" font-family="Helvetica,sans-Serif" font-size="10.00">Index</text>
</a>
</g>
</g>
<!-- Node81&#45;&gt;Node99 -->
<g id="edge18" class="edge"><title>Node81&#45;&gt;Node99</title>
<path fill="none" stroke="midnightblue" d="M92.9183,-112.976C112.979,-102.367 141.687,-88.0709 168,-78.2187 176.647,-74.9811 185.919,-71.9786 195.088,-69.2709"/>
<polygon fill="midnightblue" stroke="midnightblue" points="91.2457,-109.902 84.082,-117.708 94.5499,-116.073 91.2457,-109.902"/>
</g>
<!-- Node102 -->
<g id="node22" class="node"><title>Node102</title>
<g id="a_node22"><a xlink:href="class_c_coins_view_d_b.html#a72c1d718a15df89eadab97ce3b34fa56" target="_top" xlink:title="Attempt to update from an older database format. Returns whether an error occurred. ">
<polygon fill="white" stroke="black" points="389,-0.718723 389,-19.7187 517,-19.7187 517,-0.718723 389,-0.718723"/>
<text text-anchor="middle" x="453" y="-7.71872" font-family="Helvetica,sans-Serif" font-size="10.00">CCoinsViewDB::Upgrade</text>
</a>
</g>
</g>
<!-- Node81&#45;&gt;Node102 -->
<g id="edge21" class="edge"><title>Node81&#45;&gt;Node102</title>
<path fill="none" stroke="midnightblue" d="M79.2615,-109.133C96.1577,-85.9199 128.98,-46.5769 168,-29.2187 238.772,2.26441 329.353,2.31643 388.95,-2.3754"/>
<polygon fill="midnightblue" stroke="midnightblue" points="76.308,-107.248 73.3976,-117.435 82.0256,-111.286 76.308,-107.248"/>
</g>
<!-- Node83 -->
<g id="node3" class="node"><title>Node83</title>
<g id="a_node3"><a xlink:href="class_c_d_b_wrapper.html#a196335b21f6416e63acc5be8c747b7db" target="_top" xlink:title="CDBWrapper::CDBWrapper">
<polygon fill="white" stroke="black" points="383,-224.719 383,-243.719 523,-243.719 523,-224.719 383,-224.719"/>
<text text-anchor="middle" x="453" y="-231.719" font-family="Helvetica,sans-Serif" font-size="10.00">CDBWrapper::CDBWrapper</text>
</a>
</g>
</g>
<!-- Node82&#45;&gt;Node83 -->
<g id="edge2" class="edge"><title>Node82&#45;&gt;Node83</title>
<path fill="none" stroke="midnightblue" d="M326.759,-234.219C344.907,-234.219 364.523,-234.219 382.725,-234.219"/>
<polygon fill="midnightblue" stroke="midnightblue" points="326.556,-230.719 316.556,-234.219 326.556,-237.719 326.556,-230.719"/>
</g>
<!-- Node85 -->
<g id="node5" class="node"><title>Node85</title>
<g id="a_node5"><a xlink:href="validation_8cpp.html#ab92802791dd1274ab21b812d6bd9d7a7" target="_top" xlink:title="LoadBlockIndexDB">
<polygon fill="white" stroke="black" points="402.5,-186.719 402.5,-205.719 503.5,-205.719 503.5,-186.719 402.5,-186.719"/>
<text text-anchor="middle" x="453" y="-193.719" font-family="Helvetica,sans-Serif" font-size="10.00">LoadBlockIndexDB</text>
</a>
</g>
</g>
<!-- Node84&#45;&gt;Node85 -->
<g id="edge4" class="edge"><title>Node84&#45;&gt;Node85</title>
<path fill="none" stroke="midnightblue" d="M357.309,-196.219C372.948,-196.219 388.515,-196.219 402.375,-196.219"/>
<polygon fill="midnightblue" stroke="midnightblue" points="357.039,-192.719 347.039,-196.219 357.039,-199.719 357.039,-192.719"/>
</g>
<!-- Node86 -->
<g id="node6" class="node"><title>Node86</title>
<g id="a_node6"><a xlink:href="validation_8h.html#a4ef97794a0ba7a9181ec0ef2aa88491b" target="_top" xlink:title="Load the block tree and coins database from disk. ">
<polygon fill="white" stroke="black" points="565,-228.719 565,-247.719 651,-247.719 651,-228.719 565,-228.719"/>
<text text-anchor="middle" x="608" y="-235.719" font-family="Helvetica,sans-Serif" font-size="10.00">LoadBlockIndex</text>
</a>
</g>
</g>
<!-- Node85&#45;&gt;Node86 -->
<g id="edge5" class="edge"><title>Node85&#45;&gt;Node86</title>
<path fill="none" stroke="midnightblue" d="M498.442,-208.419C521.912,-214.861 550.297,-222.653 572.155,-228.653"/>
<polygon fill="midnightblue" stroke="midnightblue" points="499.288,-205.021 488.718,-205.749 497.435,-211.772 499.288,-205.021"/>
</g>
<!-- Node87 -->
<g id="node7" class="node"><title>Node87</title>
<g id="a_node7"><a xlink:href="init_8h.html#a6f0784aa332573f949b0975205572b28" target="_top" xlink:title="Initialize Dash Core. ">
<polygon fill="white" stroke="black" points="693,-114.719 693,-133.719 746,-133.719 746,-114.719 693,-114.719"/>
<text text-anchor="middle" x="719.5" y="-121.719" font-family="Helvetica,sans-Serif" font-size="10.00">AppInit2</text>
</a>
</g>
</g>
<!-- Node86&#45;&gt;Node87 -->
<g id="edge6" class="edge"><title>Node86&#45;&gt;Node87</title>
<path fill="none" stroke="midnightblue" d="M650.477,-223.826C652.772,-222.417 654.968,-220.884 657,-219.219 686.479,-195.057 706.597,-152.959 714.613,-133.985"/>
<polygon fill="midnightblue" stroke="midnightblue" points="648.489,-220.917 641.263,-228.666 651.744,-227.114 648.489,-220.917"/>
</g>
<!-- Node88 -->
<g id="node8" class="node"><title>Node88</title>
<g id="a_node8"><a xlink:href="dashd_8cpp.html#ac59316b767e6984e1285f0531275286b" target="_top" xlink:title="AppInit">
<polygon fill="white" stroke="black" points="813,-133.719 813,-152.719 860,-152.719 860,-133.719 813,-133.719"/>
<text text-anchor="middle" x="836.5" y="-140.719" font-family="Helvetica,sans-Serif" font-size="10.00">AppInit</text>
</a>
</g>
</g>
<!-- Node87&#45;&gt;Node88 -->
<g id="edge7" class="edge"><title>Node87&#45;&gt;Node88</title>
<path fill="none" stroke="midnightblue" d="M756.14,-130.107C774.614,-133.159 796.626,-136.796 812.775,-139.464"/>
<polygon fill="midnightblue" stroke="midnightblue" points="756.459,-126.612 746.022,-128.435 755.318,-133.519 756.459,-126.612"/>
</g>
<!-- Node90 -->
<g id="node10" class="node"><title>Node90</title>
<g id="a_node10"><a xlink:href="class_bitcoin_core.html#af34ca069cda1d4362dcc109b4397fb62" target="_top" xlink:title="BitcoinCore::initialize">
<polygon fill="white" stroke="black" points="782,-95.7187 782,-114.719 891,-114.719 891,-95.7187 782,-95.7187"/>
<text text-anchor="middle" x="836.5" y="-102.719" font-family="Helvetica,sans-Serif" font-size="10.00">BitcoinCore::initialize</text>
</a>
</g>
</g>
<!-- Node87&#45;&gt;Node90 -->
<g id="edge9" class="edge"><title>Node87&#45;&gt;Node90</title>
<path fill="none" stroke="midnightblue" d="M755.951,-118.362C764.134,-117.01 773.02,-115.541 781.788,-114.093"/>
<polygon fill="midnightblue" stroke="midnightblue" points="755.318,-114.919 746.022,-120.002 756.459,-121.825 755.318,-114.919"/>
</g>
<!-- Node89 -->
<g id="node9" class="node"><title>Node89</title>
<g id="a_node9"><a xlink:href="dashd_8cpp.html#a0ddf1224851353fc92bfbff6f499fa97" target="_top" xlink:title="main">
<polygon fill="white" stroke="black" points="927,-133.719 927,-152.719 965,-152.719 965,-133.719 927,-133.719"/>
<text text-anchor="middle" x="946" y="-140.719" font-family="Helvetica,sans-Serif" font-size="10.00">main</text>
</a>
</g>
</g>
<!-- Node88&#45;&gt;Node89 -->
<g id="edge8" class="edge"><title>Node88&#45;&gt;Node89</title>
<path fill="none" stroke="midnightblue" d="M870.151,-143.219C888.729,-143.219 911.304,-143.219 926.773,-143.219"/>
<polygon fill="midnightblue" stroke="midnightblue" points="870.036,-139.719 860.036,-143.219 870.035,-146.719 870.036,-139.719"/>
</g>
<!-- Node92 -->
<g id="node12" class="node"><title>Node92</title>
<g id="a_node12"><a xlink:href="validation_8h.html#a4715ae09273b16a940176a0573764c9a" target="_top" xlink:title="GetAddressIndex">
<polygon fill="white" stroke="black" points="407,-145.719 407,-164.719 499,-164.719 499,-145.719 407,-145.719"/>
<text text-anchor="middle" x="453" y="-152.719" font-family="Helvetica,sans-Serif" font-size="10.00">GetAddressIndex</text>
</a>
</g>
</g>
<!-- Node91&#45;&gt;Node92 -->
<g id="edge11" class="edge"><title>Node91&#45;&gt;Node92</title>
<path fill="none" stroke="midnightblue" d="M341.821,-153.511C364.136,-153.856 387.423,-154.218 406.808,-154.518"/>
<polygon fill="midnightblue" stroke="midnightblue" points="341.707,-150.008 331.654,-153.353 341.599,-157.008 341.707,-150.008"/>
</g>
<!-- Node93 -->
<g id="node13" class="node"><title>Node93</title>
<g id="a_node13"><a xlink:href="server_8h.html#a05e40b15500611c85e2c821a76ef13ae" target="_top" xlink:title="getaddressbalance">
<polygon fill="white" stroke="black" points="559,-190.719 559,-209.719 657,-209.719 657,-190.719 559,-190.719"/>
<text text-anchor="middle" x="608" y="-197.719" font-family="Helvetica,sans-Serif" font-size="10.00">getaddressbalance</text>
</a>
</g>
</g>
<!-- Node92&#45;&gt;Node93 -->
<g id="edge12" class="edge"><title>Node92&#45;&gt;Node93</title>
<path fill="none" stroke="midnightblue" d="M496.295,-167.658C521.037,-174.935 551.79,-183.98 574.599,-190.689"/>
<polygon fill="midnightblue" stroke="midnightblue" points="497.029,-164.226 486.447,-164.762 495.053,-170.942 497.029,-164.226"/>
</g>
<!-- Node94 -->
<g id="node14" class="node"><title>Node94</title>
<g id="a_node14"><a xlink:href="server_8h.html#a17a8c4a749756fbd165c8239de13ffc9" target="_top" xlink:title="getaddressdeltas">
<polygon fill="white" stroke="black" points="562.5,-152.719 562.5,-171.719 653.5,-171.719 653.5,-152.719 562.5,-152.719"/>
<text text-anchor="middle" x="608" y="-159.719" font-family="Helvetica,sans-Serif" font-size="10.00">getaddressdeltas</text>
</a>
</g>
</g>
<!-- Node92&#45;&gt;Node94 -->
<g id="edge13" class="edge"><title>Node92&#45;&gt;Node94</title>
<path fill="none" stroke="midnightblue" d="M509.13,-157.741C526.571,-158.539 545.623,-159.411 562.245,-160.171"/>
<polygon fill="midnightblue" stroke="midnightblue" points="509.227,-154.242 499.078,-157.281 508.907,-161.235 509.227,-154.242"/>
</g>
<!-- Node95 -->
<g id="node15" class="node"><title>Node95</title>
<g id="a_node15"><a xlink:href="server_8h.html#a66c0a18ed8a096076d8efa94ecf87c30" target="_top" xlink:title="getaddresstxids">
<polygon fill="white" stroke="black" points="565,-114.719 565,-133.719 651,-133.719 651,-114.719 565,-114.719"/>
<text text-anchor="middle" x="608" y="-121.719" font-family="Helvetica,sans-Serif" font-size="10.00">getaddresstxids</text>
</a>
</g>
</g>
<!-- Node92&#45;&gt;Node95 -->
<g id="edge14" class="edge"><title>Node92&#45;&gt;Node95</title>
<path fill="none" stroke="midnightblue" d="M509.074,-144.06C527.453,-140.336 547.627,-136.249 564.863,-132.756"/>
<polygon fill="midnightblue" stroke="midnightblue" points="508.183,-140.669 499.078,-146.085 509.573,-147.53 508.183,-140.669"/>
</g>
<!-- Node97 -->
<g id="node17" class="node"><title>Node97</title>
<g id="a_node17"><a xlink:href="validation_8h.html#a5b96e8574bd6321c809fcc2b01d16ce5" target="_top" xlink:title="GetAddressUnspent">
<polygon fill="white" stroke="black" points="400.5,-86.7187 400.5,-105.719 505.5,-105.719 505.5,-86.7187 400.5,-86.7187"/>
<text text-anchor="middle" x="453" y="-93.7187" font-family="Helvetica,sans-Serif" font-size="10.00">GetAddressUnspent</text>
</a>
</g>
</g>
<!-- Node96&#45;&gt;Node97 -->
<g id="edge16" class="edge"><title>Node96&#45;&gt;Node97</title>
<path fill="none" stroke="midnightblue" d="M341.686,-100.209C361.643,-99.4874 382.387,-98.737 400.428,-98.0844"/>
<polygon fill="midnightblue" stroke="midnightblue" points="341.521,-96.713 331.654,-100.572 341.774,-103.708 341.521,-96.713"/>
</g>
<!-- Node98 -->
<g id="node18" class="node"><title>Node98</title>
<g id="a_node18"><a xlink:href="server_8h.html#a9fd46cdbb9f6cdfc7a6033e7efd95a73" target="_top" xlink:title="getaddressutxos">
<polygon fill="white" stroke="black" points="563.5,-76.7187 563.5,-95.7187 652.5,-95.7187 652.5,-76.7187 563.5,-76.7187"/>
<text text-anchor="middle" x="608" y="-83.7187" font-family="Helvetica,sans-Serif" font-size="10.00">getaddressutxos</text>
</a>
</g>
</g>
<!-- Node97&#45;&gt;Node98 -->
<g id="edge17" class="edge"><title>Node97&#45;&gt;Node98</title>
<path fill="none" stroke="midnightblue" d="M516.077,-92.1614C531.952,-91.1238 548.687,-90.03 563.412,-89.0676"/>
<polygon fill="midnightblue" stroke="midnightblue" points="515.549,-88.6883 505.799,-92.8332 516.006,-95.6734 515.549,-88.6883"/>
</g>
<!-- Node100 -->
<g id="node20" class="node"><title>Node100</title>
<g id="a_node20"><a xlink:href="validation_8h.html#a3fc0c3aaa2c85bc5e3ff69870f69afb7" target="_top" xlink:title="GetTimestampIndex">
<polygon fill="white" stroke="black" points="400.5,-41.7187 400.5,-60.7187 505.5,-60.7187 505.5,-41.7187 400.5,-41.7187"/>
<text text-anchor="middle" x="453" y="-48.7187" font-family="Helvetica,sans-Serif" font-size="10.00">GetTimestampIndex</text>
</a>
</g>
</g>
<!-- Node99&#45;&gt;Node100 -->
<g id="edge19" class="edge"><title>Node99&#45;&gt;Node100</title>
<path fill="none" stroke="midnightblue" d="M348.477,-52.8237C366.294,-52.5475 384.417,-52.2665 400.417,-52.0185"/>
<polygon fill="midnightblue" stroke="midnightblue" points="347.986,-49.3308 338.042,-52.9855 348.095,-56.33 347.986,-49.3308"/>
</g>
<!-- Node101 -->
<g id="node21" class="node"><title>Node101</title>
<g id="a_node21"><a xlink:href="server_8h.html#a077683eedbf989d18fd1d552eecdbc43" target="_top" xlink:title="getblockhashes">
<polygon fill="white" stroke="black" points="565.5,-38.7187 565.5,-57.7187 650.5,-57.7187 650.5,-38.7187 565.5,-38.7187"/>
<text text-anchor="middle" x="608" y="-45.7187" font-family="Helvetica,sans-Serif" font-size="10.00">getblockhashes</text>
</a>
</g>
</g>
<!-- Node100&#45;&gt;Node101 -->
<g id="edge20" class="edge"><title>Node100&#45;&gt;Node101</title>
<path fill="none" stroke="midnightblue" d="M515.993,-50.0032C532.61,-49.6774 550.175,-49.3329 565.394,-49.0345"/>
<polygon fill="midnightblue" stroke="midnightblue" points="515.728,-46.5076 505.799,-50.2031 515.866,-53.5063 515.728,-46.5076"/>
</g>
<!-- Node102&#45;&gt;Node87 -->
<g id="edge22" class="edge"><title>Node102&#45;&gt;Node87</title>
<path fill="none" stroke="midnightblue" d="M527.191,-2.08825C568.12,-1.04657 618.487,-5.88121 657,-29.2187 690.102,-49.2776 708.677,-94.7216 715.481,-114.603"/>
<polygon fill="midnightblue" stroke="midnightblue" points="526.863,1.40197 517.002,-2.472 527.127,-5.59307 526.863,1.40197"/>
</g>
</g>
</svg>
