<?xml version="1.0" encoding="UTF-8" standalone="no"?>
<!DOCTYPE svg PUBLIC "-//W3C//DTD SVG 1.1//EN"
 "http://www.w3.org/Graphics/SVG/1.1/DTD/svg11.dtd">
<!-- Generated by graphviz version 2.38.0 (20140413.2041)
 -->
<!-- Title: CMasternode::IsPingedWithin Pages: 1 -->
<svg width="2402pt" height="289pt"
 viewBox="0.00 0.00 2402.00 289.10" xmlns="http://www.w3.org/2000/svg" xmlns:xlink="http://www.w3.org/1999/xlink">
<g id="graph0" class="graph" transform="scale(1 1) rotate(0) translate(4 285.098)">
<title>CMasternode::IsPingedWithin</title>
<polygon fill="white" stroke="none" points="-4,4 -4,-285.098 2398,-285.098 2398,4 -4,4"/>
<!-- Node613 -->
<g id="node1" class="node"><title>Node613</title>
<polygon fill="#bfbfbf" stroke="black" points="0,-208 0,-227 147,-227 147,-208 0,-208"/>
<text text-anchor="middle" x="73.5" y="-215" font-family="Helvetica,sans-Serif" font-size="10.00">CMasternode::IsPingedWithin</text>
</g>
<!-- Node614 -->
<g id="node2" class="node"><title>Node614</title>
<g id="a_node2"><a xlink:href="class_c_masternode.html#ac00056a0de9176ec7922d88795a6988f" target="_top" xlink:title="CMasternode::Check">
<polygon fill="white" stroke="black" points="378,-250 378,-269 488,-269 488,-250 378,-250"/>
<text text-anchor="middle" x="433" y="-257" font-family="Helvetica,sans-Serif" font-size="10.00">CMasternode::Check</text>
</a>
</g>
</g>
<!-- Node613&#45;&gt;Node614 -->
<g id="edge1" class="edge"><title>Node613&#45;&gt;Node614</title>
<path fill="none" stroke="midnightblue" d="M156.8,-228.263C165.642,-229.376 174.506,-230.474 183,-231.5 249.941,-239.582 327.102,-248.142 377.568,-253.638"/>
<polygon fill="midnightblue" stroke="midnightblue" points="157.21,-224.787 146.849,-227.003 156.33,-231.731 157.21,-224.787"/>
</g>
<!-- Node615 -->
<g id="node3" class="node"><title>Node615</title>
<g id="a_node3"><a xlink:href="class_c_masternode_ping.html#a31094f33b96d13bf21b5609917be5d45" target="_top" xlink:title="CMasternodePing::CheckAnd\lUpdate">
<polygon fill="white" stroke="black" points="524,-202.5 524,-232.5 670,-232.5 670,-202.5 524,-202.5"/>
<text text-anchor="start" x="532" y="-220.5" font-family="Helvetica,sans-Serif" font-size="10.00">CMasternodePing::CheckAnd</text>
<text text-anchor="middle" x="597" y="-209.5" font-family="Helvetica,sans-Serif" font-size="10.00">Update</text>
</a>
</g>
</g>
<!-- Node613&#45;&gt;Node615 -->
<g id="edge26" class="edge"><title>Node613&#45;&gt;Node615</title>
<path fill="none" stroke="midnightblue" d="M157.176,-217.5C258.226,-217.5 427.594,-217.5 523.685,-217.5"/>
<polygon fill="midnightblue" stroke="midnightblue" points="157.012,-214 147.012,-217.5 157.012,-221 157.012,-214"/>
</g>
<!-- Node635 -->
<g id="node23" class="node"><title>Node635</title>
<g id="a_node23"><a xlink:href="class_c_masternode_man.html#afc57c9ea7ba9b86eec73792a83faab19" target="_top" xlink:title="CMasternodeMan::IsMasternode\lPingedWithin">
<polygon fill="white" stroke="black" points="183,-157.5 183,-187.5 342,-187.5 342,-157.5 183,-157.5"/>
<text text-anchor="start" x="191" y="-175.5" font-family="Helvetica,sans-Serif" font-size="10.00">CMasternodeMan::IsMasternode</text>
<text text-anchor="middle" x="262.5" y="-164.5" font-family="Helvetica,sans-Serif" font-size="10.00">PingedWithin</text>
</a>
</g>
</g>
<!-- Node613&#45;&gt;Node635 -->
<g id="edge27" class="edge"><title>Node613&#45;&gt;Node635</title>
<path fill="none" stroke="midnightblue" d="M124.046,-205.577C147.058,-200.04 174.668,-193.396 199.085,-187.52"/>
<polygon fill="midnightblue" stroke="midnightblue" points="123.061,-202.214 114.158,-207.957 124.699,-209.02 123.061,-202.214"/>
</g>
<!-- Node614&#45;&gt;Node615 -->
<g id="edge2" class="edge"><title>Node614&#45;&gt;Node615</title>
<path fill="none" stroke="midnightblue" d="M480.677,-247.399C498.591,-242.754 519.253,-237.397 538.095,-232.512"/>
<polygon fill="midnightblue" stroke="midnightblue" points="479.562,-244.072 470.76,-249.97 481.319,-250.848 479.562,-244.072"/>
</g>
<!-- Node617 -->
<g id="node5" class="node"><title>Node617</title>
<g id="a_node5"><a xlink:href="class_c_masternode_broadcast.html#a42077f16c601f9804bc3b24fd602993c" target="_top" xlink:title="CMasternodeBroadcast\l::Update">
<polygon fill="white" stroke="black" points="897,-208.5 897,-238.5 1016,-238.5 1016,-208.5 897,-208.5"/>
<text text-anchor="start" x="905" y="-226.5" font-family="Helvetica,sans-Serif" font-size="10.00">CMasternodeBroadcast</text>
<text text-anchor="middle" x="956.5" y="-215.5" font-family="Helvetica,sans-Serif" font-size="10.00">::Update</text>
</a>
</g>
</g>
<!-- Node614&#45;&gt;Node617 -->
<g id="edge25" class="edge"><title>Node614&#45;&gt;Node617</title>
<path fill="none" stroke="midnightblue" d="M498.247,-259.708C582.007,-259.312 732.933,-256.316 861,-241.5 872.696,-240.147 885.117,-238.174 896.977,-236.025"/>
<polygon fill="midnightblue" stroke="midnightblue" points="498.11,-256.208 488.123,-259.744 498.136,-263.208 498.11,-256.208"/>
</g>
<!-- Node618 -->
<g id="node6" class="node"><title>Node618</title>
<g id="a_node6"><a xlink:href="class_c_masternode_man.html#a66994623de992c0c4680a95096f3936c" target="_top" xlink:title="Perform complete check and only then update list and maps. ">
<polygon fill="white" stroke="black" points="1052,-208.5 1052,-238.5 1199,-238.5 1199,-208.5 1052,-208.5"/>
<text text-anchor="start" x="1060" y="-226.5" font-family="Helvetica,sans-Serif" font-size="10.00">CMasternodeMan::CheckMnb</text>
<text text-anchor="middle" x="1125.5" y="-215.5" font-family="Helvetica,sans-Serif" font-size="10.00">AndUpdateMasternodeList</text>
</a>
</g>
</g>
<!-- Node614&#45;&gt;Node618 -->
<g id="edge24" class="edge"><title>Node614&#45;&gt;Node618</title>
<path fill="none" stroke="midnightblue" d="M498.19,-269.917C506.845,-270.985 515.625,-271.898 524,-272.5 742.386,-288.191 799.747,-281.752 1016,-247.5 1031.24,-245.086 1047.56,-241.836 1062.78,-238.51"/>
<polygon fill="midnightblue" stroke="midnightblue" points="498.488,-266.426 488.119,-268.6 497.58,-273.367 498.488,-266.426"/>
</g>
<!-- Node616 -->
<g id="node4" class="node"><title>Node616</title>
<g id="a_node4"><a xlink:href="class_c_masternode.html#aaa6d2de9c88179cd210f956ec72b1b6b" target="_top" xlink:title="CMasternode::UpdateFromNew\lBroadcast">
<polygon fill="white" stroke="black" points="706,-202.5 706,-232.5 861,-232.5 861,-202.5 706,-202.5"/>
<text text-anchor="start" x="714" y="-220.5" font-family="Helvetica,sans-Serif" font-size="10.00">CMasternode::UpdateFromNew</text>
<text text-anchor="middle" x="783.5" y="-209.5" font-family="Helvetica,sans-Serif" font-size="10.00">Broadcast</text>
</a>
</g>
</g>
<!-- Node615&#45;&gt;Node616 -->
<g id="edge3" class="edge"><title>Node615&#45;&gt;Node616</title>
<path fill="none" stroke="midnightblue" d="M680.387,-217.5C688.861,-217.5 697.448,-217.5 705.856,-217.5"/>
<polygon fill="midnightblue" stroke="midnightblue" points="680.125,-214 670.125,-217.5 680.125,-221 680.125,-214"/>
</g>
<!-- Node616&#45;&gt;Node617 -->
<g id="edge4" class="edge"><title>Node616&#45;&gt;Node617</title>
<path fill="none" stroke="midnightblue" d="M871.55,-220.554C880.125,-220.855 888.679,-221.155 896.866,-221.443"/>
<polygon fill="midnightblue" stroke="midnightblue" points="871.613,-217.055 861.496,-220.202 871.367,-224.05 871.613,-217.055"/>
</g>
<!-- Node617&#45;&gt;Node618 -->
<g id="edge5" class="edge"><title>Node617&#45;&gt;Node618</title>
<path fill="none" stroke="midnightblue" d="M1026.46,-223.5C1034.83,-223.5 1043.39,-223.5 1051.81,-223.5"/>
<polygon fill="midnightblue" stroke="midnightblue" points="1026.38,-220 1016.38,-223.5 1026.38,-227 1026.38,-220"/>
</g>
<!-- Node619 -->
<g id="node7" class="node"><title>Node619</title>
<g id="a_node7"><a xlink:href="server_8h.html#a7ae813efd78b542bd5e3cddb01174777" target="_top" xlink:title="masternodebroadcast">
<polygon fill="white" stroke="black" points="1268,-214 1268,-233 1378,-233 1378,-214 1268,-214"/>
<text text-anchor="middle" x="1323" y="-221" font-family="Helvetica,sans-Serif" font-size="10.00">masternodebroadcast</text>
</a>
</g>
</g>
<!-- Node618&#45;&gt;Node619 -->
<g id="edge6" class="edge"><title>Node618&#45;&gt;Node619</title>
<path fill="none" stroke="midnightblue" d="M1209.02,-223.5C1228.93,-223.5 1249.71,-223.5 1267.93,-223.5"/>
<polygon fill="midnightblue" stroke="midnightblue" points="1209.02,-220 1199.02,-223.5 1209.02,-227 1209.02,-220"/>
</g>
<!-- Node620 -->
<g id="node8" class="node"><title>Node620</title>
<g id="a_node8"><a xlink:href="class_c_masternode_man.html#a09302023fe1dca8be33e34d1ece9d27f" target="_top" xlink:title="Check all Masternodes and remove inactive. ">
<polygon fill="white" stroke="black" points="1250,-164.5 1250,-194.5 1396,-194.5 1396,-164.5 1250,-164.5"/>
<text text-anchor="start" x="1258" y="-182.5" font-family="Helvetica,sans-Serif" font-size="10.00">CMasternodeMan::CheckAnd</text>
<text text-anchor="middle" x="1323" y="-171.5" font-family="Helvetica,sans-Serif" font-size="10.00">Remove</text>
</a>
</g>
</g>
<!-- Node618&#45;&gt;Node620 -->
<g id="edge7" class="edge"><title>Node618&#45;&gt;Node620</title>
<path fill="none" stroke="midnightblue" d="M1203.23,-206.232C1220.41,-202.365 1238.5,-198.293 1255.24,-194.526"/>
<polygon fill="midnightblue" stroke="midnightblue" points="1202.22,-202.87 1193.23,-208.481 1203.76,-209.7 1202.22,-202.87"/>
</g>
<!-- Node626 -->
<g id="node14" class="node"><title>Node626</title>
<g id="a_node14"><a xlink:href="class_c_masternode_man.html#ae8534b13438b5a2166854a6d35d99bac" target="_top" xlink:title="CMasternodeMan::ProcessMessage">
<polygon fill="white" stroke="black" points="1235,-252 1235,-271 1411,-271 1411,-252 1235,-252"/>
<text text-anchor="middle" x="1323" y="-259" font-family="Helvetica,sans-Serif" font-size="10.00">CMasternodeMan::ProcessMessage</text>
</a>
</g>
</g>
<!-- Node618&#45;&gt;Node626 -->
<g id="edge13" class="edge"><title>Node618&#45;&gt;Node626</title>
<path fill="none" stroke="midnightblue" d="M1208.95,-239.527C1230.77,-243.767 1253.63,-248.21 1273.04,-251.983"/>
<polygon fill="midnightblue" stroke="midnightblue" points="1209.5,-236.068 1199.02,-237.596 1208.17,-242.94 1209.5,-236.068"/>
</g>
<!-- Node621 -->
<g id="node9" class="node"><title>Node621</title>
<g id="a_node9"><a xlink:href="privatesend_8h.html#a8ca12ada145ba86ddcba18018b77db14" target="_top" xlink:title="ThreadCheckPrivateSend">
<polygon fill="white" stroke="black" points="1447,-126 1447,-145 1575,-145 1575,-126 1447,-126"/>
<text text-anchor="middle" x="1511" y="-133" font-family="Helvetica,sans-Serif" font-size="10.00">ThreadCheckPrivateSend</text>
</a>
</g>
</g>
<!-- Node620&#45;&gt;Node621 -->
<g id="edge8" class="edge"><title>Node620&#45;&gt;Node621</title>
<path fill="none" stroke="midnightblue" d="M1397.54,-162.104C1422.16,-156.279 1448.69,-150.005 1469.79,-145.012"/>
<polygon fill="midnightblue" stroke="midnightblue" points="1396.42,-158.773 1387.49,-164.481 1398.03,-165.585 1396.42,-158.773"/>
</g>
<!-- Node622 -->
<g id="node10" class="node"><title>Node622</title>
<g id="a_node10"><a xlink:href="init_8h.html#a6f0784aa332573f949b0975205572b28" target="_top" xlink:title="Initialize Dash Core. ">
<polygon fill="white" stroke="black" points="1949.5,-126 1949.5,-145 2002.5,-145 2002.5,-126 1949.5,-126"/>
<text text-anchor="middle" x="1976" y="-133" font-family="Helvetica,sans-Serif" font-size="10.00">AppInit2</text>
</a>
</g>
</g>
<!-- Node621&#45;&gt;Node622 -->
<g id="edge9" class="edge"><title>Node621&#45;&gt;Node622</title>
<path fill="none" stroke="midnightblue" d="M1585.67,-135.5C1691.3,-135.5 1880.6,-135.5 1949.25,-135.5"/>
<polygon fill="midnightblue" stroke="midnightblue" points="1585.41,-132 1575.41,-135.5 1585.41,-139 1585.41,-132"/>
</g>
<!-- Node623 -->
<g id="node11" class="node"><title>Node623</title>
<g id="a_node11"><a xlink:href="dashd_8cpp.html#ac59316b767e6984e1285f0531275286b" target="_top" xlink:title="AppInit">
<polygon fill="white" stroke="black" points="2238.5,-173 2238.5,-192 2285.5,-192 2285.5,-173 2238.5,-173"/>
<text text-anchor="middle" x="2262" y="-180" font-family="Helvetica,sans-Serif" font-size="10.00">AppInit</text>
</a>
</g>
</g>
<!-- Node622&#45;&gt;Node623 -->
<g id="edge10" class="edge"><title>Node622&#45;&gt;Node623</title>
<path fill="none" stroke="midnightblue" d="M2012.73,-141.414C2072.03,-151.227 2189.11,-170.603 2238.35,-178.751"/>
<polygon fill="midnightblue" stroke="midnightblue" points="2013.14,-137.934 2002.7,-139.754 2012,-144.84 2013.14,-137.934"/>
</g>
<!-- Node625 -->
<g id="node13" class="node"><title>Node625</title>
<g id="a_node13"><a xlink:href="class_bitcoin_core.html#af34ca069cda1d4362dcc109b4397fb62" target="_top" xlink:title="BitcoinCore::initialize">
<polygon fill="white" stroke="black" points="2059,-116 2059,-135 2168,-135 2168,-116 2059,-116"/>
<text text-anchor="middle" x="2113.5" y="-123" font-family="Helvetica,sans-Serif" font-size="10.00">BitcoinCore::initialize</text>
</a>
</g>
</g>
<!-- Node622&#45;&gt;Node625 -->
<g id="edge12" class="edge"><title>Node622&#45;&gt;Node625</title>
<path fill="none" stroke="midnightblue" d="M2013.01,-132.842C2027.03,-131.808 2043.38,-130.601 2058.74,-129.468"/>
<polygon fill="midnightblue" stroke="midnightblue" points="2012.52,-129.369 2002.81,-133.596 2013.04,-136.35 2012.52,-129.369"/>
</g>
<!-- Node624 -->
<g id="node12" class="node"><title>Node624</title>
<g id="a_node12"><a xlink:href="dashd_8cpp.html#a0ddf1224851353fc92bfbff6f499fa97" target="_top" xlink:title="main">
<polygon fill="white" stroke="black" points="2356,-173 2356,-192 2394,-192 2394,-173 2356,-173"/>
<text text-anchor="middle" x="2375" y="-180" font-family="Helvetica,sans-Serif" font-size="10.00">main</text>
</a>
</g>
</g>
<!-- Node623&#45;&gt;Node624 -->
<g id="edge11" class="edge"><title>Node623&#45;&gt;Node624</title>
<path fill="none" stroke="midnightblue" d="M2295.77,-182.5C2315.33,-182.5 2339.46,-182.5 2355.7,-182.5"/>
<polygon fill="midnightblue" stroke="midnightblue" points="2295.73,-179 2285.73,-182.5 2295.73,-186 2295.73,-179"/>
</g>
<!-- Node627 -->
<g id="node15" class="node"><title>Node627</title>
<g id="a_node15"><a xlink:href="net__processing_8cpp.html#a193d0ece6e2f2f7ee37352ac9720bb83" target="_top" xlink:title="ProcessMessage">
<polygon fill="white" stroke="black" points="1465,-245 1465,-264 1557,-264 1557,-245 1465,-245"/>
<text text-anchor="middle" x="1511" y="-252" font-family="Helvetica,sans-Serif" font-size="10.00">ProcessMessage</text>
</a>
</g>
</g>
<!-- Node626&#45;&gt;Node627 -->
<g id="edge14" class="edge"><title>Node626&#45;&gt;Node627</title>
<path fill="none" stroke="midnightblue" d="M1421.01,-257.849C1436.23,-257.276 1451.3,-256.709 1464.6,-256.209"/>
<polygon fill="midnightblue" stroke="midnightblue" points="1420.87,-254.352 1411.01,-258.225 1421.13,-261.347 1420.87,-254.352"/>
</g>
<!-- Node628 -->
<g id="node16" class="node"><title>Node628</title>
<g id="a_node16"><a xlink:href="net__processing_8h.html#a7fa42e7ffd6e6ba5b7537af248e30fc8" target="_top" xlink:title="Process protocol messages received from a given node. ">
<polygon fill="white" stroke="black" points="1626.5,-220 1626.5,-239 1724.5,-239 1724.5,-220 1626.5,-220"/>
<text text-anchor="middle" x="1675.5" y="-227" font-family="Helvetica,sans-Serif" font-size="10.00">ProcessMessages</text>
</a>
</g>
</g>
<!-- Node627&#45;&gt;Node628 -->
<g id="edge15" class="edge"><title>Node627&#45;&gt;Node628</title>
<path fill="none" stroke="midnightblue" d="M1567.36,-245.983C1586.52,-243.036 1607.82,-239.758 1626.35,-236.907"/>
<polygon fill="midnightblue" stroke="midnightblue" points="1566.62,-242.556 1557.27,-247.536 1567.68,-249.475 1566.62,-242.556"/>
</g>
<!-- Node629 -->
<g id="node17" class="node"><title>Node629</title>
<g id="a_node17"><a xlink:href="net__processing_8h.html#ab02615ff65f91d69f8d786ec900baa8a" target="_top" xlink:title="Register with a network node to receive its signals. ">
<polygon fill="white" stroke="black" points="1780,-176 1780,-195 1889,-195 1889,-176 1780,-176"/>
<text text-anchor="middle" x="1834.5" y="-183" font-family="Helvetica,sans-Serif" font-size="10.00">RegisterNodeSignals</text>
</a>
</g>
</g>
<!-- Node628&#45;&gt;Node629 -->
<g id="edge16" class="edge"><title>Node628&#45;&gt;Node629</title>
<path fill="none" stroke="midnightblue" d="M1720.2,-217.252C1745.27,-210.228 1776.27,-201.54 1799.5,-195.029"/>
<polygon fill="midnightblue" stroke="midnightblue" points="1719.25,-213.884 1710.57,-219.953 1721.14,-220.624 1719.25,-213.884"/>
</g>
<!-- Node630 -->
<g id="node18" class="node"><title>Node630</title>
<g id="a_node18"><a xlink:href="net__processing_8h.html#a3ef0cc6e9d9d6435ee2a5569244d6ebd" target="_top" xlink:title="Unregister a network node. ">
<polygon fill="white" stroke="black" points="1776,-220 1776,-239 1893,-239 1893,-220 1776,-220"/>
<text text-anchor="middle" x="1834.5" y="-227" font-family="Helvetica,sans-Serif" font-size="10.00">UnregisterNodeSignals</text>
</a>
</g>
</g>
<!-- Node628&#45;&gt;Node630 -->
<g id="edge18" class="edge"><title>Node628&#45;&gt;Node630</title>
<path fill="none" stroke="midnightblue" d="M1734.93,-229.5C1748.32,-229.5 1762.54,-229.5 1775.9,-229.5"/>
<polygon fill="midnightblue" stroke="midnightblue" points="1734.89,-226 1724.89,-229.5 1734.89,-233 1734.89,-226"/>
</g>
<!-- Node629&#45;&gt;Node622 -->
<g id="edge17" class="edge"><title>Node629&#45;&gt;Node622</title>
<path fill="none" stroke="midnightblue" d="M1871.7,-172.526C1896.1,-163.781 1927.68,-152.459 1949.47,-144.649"/>
<polygon fill="midnightblue" stroke="midnightblue" points="1870.3,-169.309 1862.07,-175.978 1872.66,-175.898 1870.3,-169.309"/>
</g>
<!-- Node631 -->
<g id="node19" class="node"><title>Node631</title>
<g id="a_node19"><a xlink:href="init_8h.html#a5cb3db83cb0ba2e421f651a1ee1f2cfe" target="_top" xlink:title="Preparing steps before shutting down or restarting the wallet. ">
<polygon fill="white" stroke="black" points="1929,-220 1929,-239 2023,-239 2023,-220 1929,-220"/>
<text text-anchor="middle" x="1976" y="-227" font-family="Helvetica,sans-Serif" font-size="10.00">PrepareShutdown</text>
</a>
</g>
</g>
<!-- Node630&#45;&gt;Node631 -->
<g id="edge19" class="edge"><title>Node630&#45;&gt;Node631</title>
<path fill="none" stroke="midnightblue" d="M1903.13,-229.5C1911.77,-229.5 1920.45,-229.5 1928.65,-229.5"/>
<polygon fill="midnightblue" stroke="midnightblue" points="1903.05,-226 1893.05,-229.5 1903.05,-233 1903.05,-226"/>
</g>
<!-- Node632 -->
<g id="node20" class="node"><title>Node632</title>
<g id="a_node20"><a xlink:href="class_bitcoin_core.html#ac2271844c89ebc4c611e7617ce6202e3" target="_top" xlink:title="BitcoinCore::restart">
<polygon fill="white" stroke="black" points="2063,-192 2063,-211 2164,-211 2164,-192 2063,-192"/>
<text text-anchor="middle" x="2113.5" y="-199" font-family="Helvetica,sans-Serif" font-size="10.00">BitcoinCore::restart</text>
</a>
</g>
</g>
<!-- Node631&#45;&gt;Node632 -->
<g id="edge20" class="edge"><title>Node631&#45;&gt;Node632</title>
<path fill="none" stroke="midnightblue" d="M2033.25,-217.876C2044.31,-215.591 2055.78,-213.22 2066.46,-211.015"/>
<polygon fill="midnightblue" stroke="midnightblue" points="2032.34,-214.491 2023.25,-219.942 2033.75,-221.346 2032.34,-214.491"/>
</g>
<!-- Node633 -->
<g id="node21" class="node"><title>Node633</title>
<g id="a_node21"><a xlink:href="init_8h.html#ac5f038c2b480cf9ef5e19e3eba8dbaf9" target="_top" xlink:title="Shutdown is split into 2 parts: Part 1: shut down everything but the main wallet instance (done in Pr...">
<polygon fill="white" stroke="black" points="2083.5,-230 2083.5,-249 2143.5,-249 2143.5,-230 2083.5,-230"/>
<text text-anchor="middle" x="2113.5" y="-237" font-family="Helvetica,sans-Serif" font-size="10.00">Shutdown</text>
</a>
</g>
</g>
<!-- Node631&#45;&gt;Node633 -->
<g id="edge21" class="edge"><title>Node631&#45;&gt;Node633</title>
<path fill="none" stroke="midnightblue" d="M2033.25,-233.651C2050.5,-234.924 2068.76,-236.272 2083.41,-237.353"/>
<polygon fill="midnightblue" stroke="midnightblue" points="2033.48,-230.159 2023.25,-232.913 2032.97,-237.14 2033.48,-230.159"/>
</g>
<!-- Node633&#45;&gt;Node623 -->
<g id="edge22" class="edge"><title>Node633&#45;&gt;Node623</title>
<path fill="none" stroke="midnightblue" d="M2151.74,-226.525C2157.21,-224.547 2162.76,-222.499 2168,-220.5 2192.28,-211.234 2219.8,-199.881 2238.57,-192.01"/>
<polygon fill="midnightblue" stroke="midnightblue" points="2150.32,-223.318 2142.08,-229.981 2152.68,-229.909 2150.32,-223.318"/>
</g>
<!-- Node634 -->
<g id="node22" class="node"><title>Node634</title>
<g id="a_node22"><a xlink:href="class_bitcoin_core.html#a94f3f4622ba698e321f3a2e0e686129f" target="_top" xlink:title="BitcoinCore::shutdown">
<polygon fill="white" stroke="black" points="2204,-230 2204,-249 2320,-249 2320,-230 2204,-230"/>
<text text-anchor="middle" x="2262" y="-237" font-family="Helvetica,sans-Serif" font-size="10.00">BitcoinCore::shutdown</text>
</a>
</g>
</g>
<!-- Node633&#45;&gt;Node634 -->
<g id="edge23" class="edge"><title>Node633&#45;&gt;Node634</title>
<path fill="none" stroke="midnightblue" d="M2153.97,-239.5C2169.31,-239.5 2187.18,-239.5 2203.88,-239.5"/>
<polygon fill="midnightblue" stroke="midnightblue" points="2153.79,-236 2143.79,-239.5 2153.79,-243 2153.79,-236"/>
</g>
<!-- Node636 -->
<g id="node24" class="node"><title>Node636</title>
<g id="a_node24"><a xlink:href="class_c_active_masternode.html#a4307b0f6c795d2ed80993824d458aca0" target="_top" xlink:title="Ping Masternode. ">
<polygon fill="white" stroke="black" points="378,-156.5 378,-186.5 488,-186.5 488,-156.5 378,-156.5"/>
<text text-anchor="start" x="386" y="-174.5" font-family="Helvetica,sans-Serif" font-size="10.00">CActiveMasternode::</text>
<text text-anchor="middle" x="433" y="-163.5" font-family="Helvetica,sans-Serif" font-size="10.00">SendMasternodePing</text>
</a>
</g>
</g>
<!-- Node635&#45;&gt;Node636 -->
<g id="edge28" class="edge"><title>Node635&#45;&gt;Node636</title>
<path fill="none" stroke="midnightblue" d="M352.454,-171.972C361.077,-171.921 369.634,-171.87 377.762,-171.822"/>
<polygon fill="midnightblue" stroke="midnightblue" points="352.302,-168.473 342.323,-172.032 352.344,-175.473 352.302,-168.473"/>
</g>
<!-- Node637 -->
<g id="node25" class="node"><title>Node637</title>
<g id="a_node25"><a xlink:href="class_c_active_masternode.html#aa34e5cadd8539d8be6f7a606aa1407c6" target="_top" xlink:title="Manage state of active Masternode. ">
<polygon fill="white" stroke="black" points="542.5,-153.5 542.5,-183.5 651.5,-183.5 651.5,-153.5 542.5,-153.5"/>
<text text-anchor="start" x="550.5" y="-171.5" font-family="Helvetica,sans-Serif" font-size="10.00">CActiveMasternode::</text>
<text text-anchor="middle" x="597" y="-160.5" font-family="Helvetica,sans-Serif" font-size="10.00">ManageState</text>
</a>
</g>
</g>
<!-- Node636&#45;&gt;Node637 -->
<g id="edge29" class="edge"><title>Node636&#45;&gt;Node637</title>
<path fill="none" stroke="midnightblue" d="M498.756,-170.301C513.199,-170.033 528.36,-169.753 542.3,-169.494"/>
<polygon fill="midnightblue" stroke="midnightblue" points="498.328,-166.808 488.394,-170.493 498.457,-173.807 498.328,-166.808"/>
</g>
<!-- Node637&#45;&gt;Node616 -->
<g id="edge40" class="edge"><title>Node637&#45;&gt;Node616</title>
<path fill="none" stroke="midnightblue" d="M661.618,-185.396C682.542,-190.953 705.646,-197.089 726.003,-202.495"/>
<polygon fill="midnightblue" stroke="midnightblue" points="662.424,-181.989 651.861,-182.805 660.628,-188.754 662.424,-181.989"/>
</g>
<!-- Node637&#45;&gt;Node618 -->
<g id="edge30" class="edge"><title>Node637&#45;&gt;Node618</title>
<path fill="none" stroke="midnightblue" d="M661.935,-170.017C744.231,-172.671 891.458,-179.798 1016,-198.5 1032.63,-200.997 1050.49,-204.685 1066.82,-208.465"/>
<polygon fill="midnightblue" stroke="midnightblue" points="661.843,-166.512 651.739,-169.7 661.626,-173.509 661.843,-166.512"/>
</g>
<!-- Node637&#45;&gt;Node621 -->
<g id="edge39" class="edge"><title>Node637&#45;&gt;Node621</title>
<path fill="none" stroke="midnightblue" d="M661.942,-159.02C733.343,-149.27 852.427,-135.5 955.5,-135.5 955.5,-135.5 955.5,-135.5 1126.5,-135.5 1239.35,-135.5 1370.89,-135.5 1446.89,-135.5"/>
<polygon fill="midnightblue" stroke="midnightblue" points="661.188,-155.591 651.761,-160.427 662.146,-162.525 661.188,-155.591"/>
</g>
<!-- Node638 -->
<g id="node26" class="node"><title>Node638</title>
<g id="a_node26"><a xlink:href="class_c_masternode_sync.html#aeb86906ef4095e9f55b2d672ad6bf491" target="_top" xlink:title="CMasternodeSync::SwitchTo\lNextAsset">
<polygon fill="white" stroke="black" points="1053,-60.5 1053,-90.5 1198,-90.5 1198,-60.5 1053,-60.5"/>
<text text-anchor="start" x="1061" y="-78.5" font-family="Helvetica,sans-Serif" font-size="10.00">CMasternodeSync::SwitchTo</text>
<text text-anchor="middle" x="1125.5" y="-67.5" font-family="Helvetica,sans-Serif" font-size="10.00">NextAsset</text>
</a>
</g>
</g>
<!-- Node637&#45;&gt;Node638 -->
<g id="edge31" class="edge"><title>Node637&#45;&gt;Node638</title>
<path fill="none" stroke="midnightblue" d="M635.686,-148.76C655.986,-138.993 681.775,-127.944 706,-121.5 825.025,-89.8406 968.672,-79.9292 1052.96,-76.8524"/>
<polygon fill="midnightblue" stroke="midnightblue" points="633.915,-145.73 626.482,-153.281 637.001,-152.014 633.915,-145.73"/>
</g>
<!-- Node639 -->
<g id="node27" class="node"><title>Node639</title>
<g id="a_node27"><a xlink:href="class_c_masternode_sync.html#a3ac3b4bbb888145fb62f28bcf92d1b70" target="_top" xlink:title="CMasternodeSync::ProcessTick">
<polygon fill="white" stroke="black" points="1244,-88 1244,-107 1402,-107 1402,-88 1244,-88"/>
<text text-anchor="middle" x="1323" y="-95" font-family="Helvetica,sans-Serif" font-size="10.00">CMasternodeSync::ProcessTick</text>
</a>
</g>
</g>
<!-- Node638&#45;&gt;Node639 -->
<g id="edge32" class="edge"><title>Node638&#45;&gt;Node639</title>
<path fill="none" stroke="midnightblue" d="M1208.38,-84.7136C1220.08,-86.0309 1232.1,-87.3832 1243.73,-88.6924"/>
<polygon fill="midnightblue" stroke="midnightblue" points="1208.52,-81.2074 1198.19,-83.5671 1207.73,-88.1635 1208.52,-81.2074"/>
</g>
<!-- Node640 -->
<g id="node28" class="node"><title>Node640</title>
<g id="a_node28"><a xlink:href="class_c_masternode_sync.html#a95559186ad41a82fe42fd2cfbffca104" target="_top" xlink:title="CMasternodeSync::Updated\lBlockTip">
<polygon fill="white" stroke="black" points="1253,-0.5 1253,-30.5 1393,-30.5 1393,-0.5 1253,-0.5"/>
<text text-anchor="start" x="1261" y="-18.5" font-family="Helvetica,sans-Serif" font-size="10.00">CMasternodeSync::Updated</text>
<text text-anchor="middle" x="1323" y="-7.5" font-family="Helvetica,sans-Serif" font-size="10.00">BlockTip</text>
</a>
</g>
</g>
<!-- Node638&#45;&gt;Node640 -->
<g id="edge34" class="edge"><title>Node638&#45;&gt;Node640</title>
<path fill="none" stroke="midnightblue" d="M1181.85,-57.2661C1198.86,-51.7634 1217.67,-45.7835 1235,-40.5 1245.82,-37.2002 1257.44,-33.779 1268.55,-30.5657"/>
<polygon fill="midnightblue" stroke="midnightblue" points="1180.49,-54.026 1172.06,-60.4421 1182.65,-60.6841 1180.49,-54.026"/>
</g>
<!-- Node643 -->
<g id="node31" class="node"><title>Node643</title>
<g id="a_node31"><a xlink:href="server_8h.html#a2c332caf1997f143fc4477ca91df441d" target="_top" xlink:title="mnsync">
<polygon fill="white" stroke="black" points="1297.5,-50 1297.5,-69 1348.5,-69 1348.5,-50 1297.5,-50"/>
<text text-anchor="middle" x="1323" y="-57" font-family="Helvetica,sans-Serif" font-size="10.00">mnsync</text>
</a>
</g>
</g>
<!-- Node638&#45;&gt;Node643 -->
<g id="edge38" class="edge"><title>Node638&#45;&gt;Node643</title>
<path fill="none" stroke="midnightblue" d="M1208.46,-68.7926C1240.39,-66.1789 1274.64,-63.3762 1297.07,-61.5404"/>
<polygon fill="midnightblue" stroke="midnightblue" points="1207.87,-65.3289 1198.19,-69.633 1208.44,-72.3056 1207.87,-65.3289"/>
</g>
<!-- Node639&#45;&gt;Node621 -->
<g id="edge33" class="edge"><title>Node639&#45;&gt;Node621</title>
<path fill="none" stroke="midnightblue" d="M1380.83,-109.11C1407.28,-114.514 1438.36,-120.864 1463.4,-125.98"/>
<polygon fill="midnightblue" stroke="midnightblue" points="1381.43,-105.662 1370.94,-107.089 1380.03,-112.52 1381.43,-105.662"/>
</g>
<!-- Node641 -->
<g id="node29" class="node"><title>Node641</title>
<g id="a_node29"><a xlink:href="class_c_d_s_notification_interface.html#ac2ced383b75336649c5694e580b18164" target="_top" xlink:title="CDSNotificationInterface\l::UpdatedBlockTip">
<polygon fill="white" stroke="black" points="1448,-38.5 1448,-68.5 1574,-68.5 1574,-38.5 1448,-38.5"/>
<text text-anchor="start" x="1456" y="-56.5" font-family="Helvetica,sans-Serif" font-size="10.00">CDSNotificationInterface</text>
<text text-anchor="middle" x="1511" y="-45.5" font-family="Helvetica,sans-Serif" font-size="10.00">::UpdatedBlockTip</text>
</a>
</g>
</g>
<!-- Node640&#45;&gt;Node641 -->
<g id="edge35" class="edge"><title>Node640&#45;&gt;Node641</title>
<path fill="none" stroke="midnightblue" d="M1403.42,-31.7263C1418.24,-34.7536 1433.53,-37.8768 1447.74,-40.7797"/>
<polygon fill="midnightblue" stroke="midnightblue" points="1403.76,-28.2224 1393.26,-29.6498 1402.36,-35.0807 1403.76,-28.2224"/>
</g>
<!-- Node642 -->
<g id="node30" class="node"><title>Node642</title>
<g id="a_node30"><a xlink:href="class_c_d_s_notification_interface.html#a2e9dff307e1373bda9ac9445f7f5a3d7" target="_top" xlink:title="CDSNotificationInterface\l::InitializeCurrentBlockTip">
<polygon fill="white" stroke="black" points="1611,-49.5 1611,-79.5 1740,-79.5 1740,-49.5 1611,-49.5"/>
<text text-anchor="start" x="1619" y="-67.5" font-family="Helvetica,sans-Serif" font-size="10.00">CDSNotificationInterface</text>
<text text-anchor="middle" x="1675.5" y="-56.5" font-family="Helvetica,sans-Serif" font-size="10.00">::InitializeCurrentBlockTip</text>
</a>
</g>
</g>
<!-- Node641&#45;&gt;Node642 -->
<g id="edge36" class="edge"><title>Node641&#45;&gt;Node642</title>
<path fill="none" stroke="midnightblue" d="M1584.59,-58.4141C1593.39,-59.0092 1602.31,-59.6135 1610.96,-60.1989"/>
<polygon fill="midnightblue" stroke="midnightblue" points="1584.58,-54.9049 1574.36,-57.7214 1584.1,-61.8889 1584.58,-54.9049"/>
</g>
<!-- Node642&#45;&gt;Node622 -->
<g id="edge37" class="edge"><title>Node642&#45;&gt;Node622</title>
<path fill="none" stroke="midnightblue" d="M1749.58,-81.8832C1814.49,-97.3222 1905.66,-119.007 1949.49,-129.433"/>
<polygon fill="midnightblue" stroke="midnightblue" points="1750.34,-78.4663 1739.8,-79.5573 1748.72,-85.2764 1750.34,-78.4663"/>
</g>
</g>
</svg>
