<?xml version="1.0" encoding="UTF-8" standalone="no"?>
<!DOCTYPE svg PUBLIC "-//W3C//DTD SVG 1.1//EN"
 "http://www.w3.org/Graphics/SVG/1.1/DTD/svg11.dtd">
<!-- Generated by graphviz version 2.38.0 (20140413.2041)
 -->
<!-- Title: BitcoinGUI::updateHeadersSyncProgressLabel Pages: 1 -->
<svg width="958pt" height="88pt"
 viewBox="0.00 0.00 958.00 88.00" xmlns="http://www.w3.org/2000/svg" xmlns:xlink="http://www.w3.org/1999/xlink">
<g id="graph0" class="graph" transform="scale(1 1) rotate(0) translate(4 84)">
<title>BitcoinGUI::updateHeadersSyncProgressLabel</title>
<polygon fill="white" stroke="none" points="-4,4 -4,-84 954,-84 954,4 -4,4"/>
<!-- Node638 -->
<g id="node1" class="node"><title>Node638</title>
<polygon fill="#bfbfbf" stroke="black" points="0,-22.5 0,-52.5 137,-52.5 137,-22.5 0,-22.5"/>
<text text-anchor="start" x="8" y="-40.5" font-family="Helvetica,sans-Serif" font-size="10.00">BitcoinGUI::updateHeaders</text>
<text text-anchor="middle" x="68.5" y="-29.5" font-family="Helvetica,sans-Serif" font-size="10.00">SyncProgressLabel</text>
</g>
<!-- Node639 -->
<g id="node2" class="node"><title>Node639</title>
<g id="a_node2"><a xlink:href="class_bitcoin_g_u_i.html#a6cd4a94b6742919131e9ce2154580711" target="_top" xlink:title="Set number of blocks and last block date shown in the UI. ">
<polygon fill="white" stroke="black" points="173,-28 173,-47 308,-47 308,-28 173,-28"/>
<text text-anchor="middle" x="240.5" y="-35" font-family="Helvetica,sans-Serif" font-size="10.00">BitcoinGUI::setNumBlocks</text>
</a>
</g>
</g>
<!-- Node638&#45;&gt;Node639 -->
<g id="edge1" class="edge"><title>Node638&#45;&gt;Node639</title>
<path fill="none" stroke="midnightblue" d="M147.187,-37.5C155.772,-37.5 164.457,-37.5 172.888,-37.5"/>
<polygon fill="midnightblue" stroke="midnightblue" points="147.177,-34.0001 137.177,-37.5 147.177,-41.0001 147.177,-34.0001"/>
</g>
<!-- Node640 -->
<g id="node3" class="node"><title>Node640</title>
<g id="a_node3"><a xlink:href="class_bitcoin_g_u_i.html#a99d71e1f8478ab937ce2522c8d3815e3" target="_top" xlink:title="Set the client model. ">
<polygon fill="white" stroke="black" points="344,-28 344,-47 480,-47 480,-28 344,-28"/>
<text text-anchor="middle" x="412" y="-35" font-family="Helvetica,sans-Serif" font-size="10.00">BitcoinGUI::setClientModel</text>
</a>
</g>
</g>
<!-- Node639&#45;&gt;Node640 -->
<g id="edge2" class="edge"><title>Node639&#45;&gt;Node640</title>
<path fill="none" stroke="midnightblue" d="M318.038,-37.5C326.649,-37.5 335.373,-37.5 343.852,-37.5"/>
<polygon fill="midnightblue" stroke="midnightblue" points="318.004,-34.0001 308.004,-37.5 318.004,-41.0001 318.004,-34.0001"/>
</g>
<!-- Node641 -->
<g id="node4" class="node"><title>Node641</title>
<g id="a_node4"><a xlink:href="class_bitcoin_application.html#aceb08b4063e4fb264cf11cf7f9edd969" target="_top" xlink:title="BitcoinApplication\l::initializeResult">
<polygon fill="white" stroke="black" points="516,-44.5 516,-74.5 611,-74.5 611,-44.5 516,-44.5"/>
<text text-anchor="start" x="524" y="-62.5" font-family="Helvetica,sans-Serif" font-size="10.00">BitcoinApplication</text>
<text text-anchor="middle" x="563.5" y="-51.5" font-family="Helvetica,sans-Serif" font-size="10.00">::initializeResult</text>
</a>
</g>
</g>
<!-- Node640&#45;&gt;Node641 -->
<g id="edge3" class="edge"><title>Node640&#45;&gt;Node641</title>
<path fill="none" stroke="midnightblue" d="M487.644,-48.4845C497.21,-49.8921 506.778,-51.3 515.721,-52.6161"/>
<polygon fill="midnightblue" stroke="midnightblue" points="488.106,-45.0148 477.703,-47.0216 487.087,-51.9403 488.106,-45.0148"/>
</g>
<!-- Node645 -->
<g id="node8" class="node"><title>Node645</title>
<g id="a_node8"><a xlink:href="class_bitcoin_application.html#a37c560d4c04d14a6da151b82caf8888f" target="_top" xlink:title="Request core shutdown. ">
<polygon fill="white" stroke="black" points="778,-0.5 778,-30.5 876,-30.5 876,-0.5 778,-0.5"/>
<text text-anchor="start" x="786" y="-18.5" font-family="Helvetica,sans-Serif" font-size="10.00">BitcoinApplication</text>
<text text-anchor="middle" x="827" y="-7.5" font-family="Helvetica,sans-Serif" font-size="10.00">::requestShutdown</text>
</a>
</g>
</g>
<!-- Node640&#45;&gt;Node645 -->
<g id="edge9" class="edge"><title>Node640&#45;&gt;Node645</title>
<path fill="none" stroke="midnightblue" d="M490.318,-33.3814C574.688,-28.8871 707.14,-21.8315 777.802,-18.0675"/>
<polygon fill="midnightblue" stroke="midnightblue" points="490.074,-29.8893 480.275,-33.9164 490.447,-36.8794 490.074,-29.8893"/>
</g>
<!-- Node642 -->
<g id="node5" class="node"><title>Node642</title>
<g id="a_node5"><a xlink:href="class_bitcoin_application.html#a61afce9356e452c53ad4c83f5ca19df8" target="_top" xlink:title="BitcoinApplication\l::startThread">
<polygon fill="white" stroke="black" points="647,-44.5 647,-74.5 742,-74.5 742,-44.5 647,-44.5"/>
<text text-anchor="start" x="655" y="-62.5" font-family="Helvetica,sans-Serif" font-size="10.00">BitcoinApplication</text>
<text text-anchor="middle" x="694.5" y="-51.5" font-family="Helvetica,sans-Serif" font-size="10.00">::startThread</text>
</a>
</g>
</g>
<!-- Node641&#45;&gt;Node642 -->
<g id="edge4" class="edge"><title>Node641&#45;&gt;Node642</title>
<path fill="none" stroke="midnightblue" d="M621.101,-59.5C629.752,-59.5 638.596,-59.5 646.996,-59.5"/>
<polygon fill="midnightblue" stroke="midnightblue" points="621.072,-56.0001 611.072,-59.5 621.072,-63.0001 621.072,-56.0001"/>
</g>
<!-- Node643 -->
<g id="node6" class="node"><title>Node643</title>
<g id="a_node6"><a xlink:href="class_bitcoin_application.html#ade19c44b87b00b6b19b433caf4c22ba6" target="_top" xlink:title="Request core initialization. ">
<polygon fill="white" stroke="black" points="779.5,-49.5 779.5,-79.5 874.5,-79.5 874.5,-49.5 779.5,-49.5"/>
<text text-anchor="start" x="787.5" y="-67.5" font-family="Helvetica,sans-Serif" font-size="10.00">BitcoinApplication</text>
<text text-anchor="middle" x="827" y="-56.5" font-family="Helvetica,sans-Serif" font-size="10.00">::requestInitialize</text>
</a>
</g>
</g>
<!-- Node642&#45;&gt;Node643 -->
<g id="edge5" class="edge"><title>Node642&#45;&gt;Node643</title>
<path fill="none" stroke="midnightblue" d="M752.251,-61.6744C761.228,-62.0183 770.424,-62.3707 779.143,-62.7047"/>
<polygon fill="midnightblue" stroke="midnightblue" points="752.372,-58.1765 742.245,-61.291 752.104,-65.1714 752.372,-58.1765"/>
</g>
<!-- Node642&#45;&gt;Node645 -->
<g id="edge7" class="edge"><title>Node642&#45;&gt;Node645</title>
<path fill="none" stroke="midnightblue" d="M749.569,-41.2699C760.096,-37.7204 771.024,-34.0358 781.212,-30.6009"/>
<polygon fill="midnightblue" stroke="midnightblue" points="748.403,-37.9692 740.046,-44.4808 750.64,-44.6023 748.403,-37.9692"/>
</g>
<!-- Node644 -->
<g id="node7" class="node"><title>Node644</title>
<g id="a_node7"><a xlink:href="dash_8cpp.html#a0ddf1224851353fc92bfbff6f499fa97" target="_top" xlink:title="main">
<polygon fill="white" stroke="black" points="912,-30 912,-49 950,-49 950,-30 912,-30"/>
<text text-anchor="middle" x="931" y="-37" font-family="Helvetica,sans-Serif" font-size="10.00">main</text>
</a>
</g>
</g>
<!-- Node643&#45;&gt;Node644 -->
<g id="edge6" class="edge"><title>Node643&#45;&gt;Node644</title>
<path fill="none" stroke="midnightblue" d="M884.473,-50.6586C894.386,-48.2289 904.021,-45.8675 911.854,-43.9474"/>
<polygon fill="midnightblue" stroke="midnightblue" points="883.402,-47.3174 874.523,-53.0974 885.068,-54.1162 883.402,-47.3174"/>
</g>
<!-- Node645&#45;&gt;Node644 -->
<g id="edge8" class="edge"><title>Node645&#45;&gt;Node644</title>
<path fill="none" stroke="midnightblue" d="M885.919,-29.128C895.366,-31.3508 904.49,-33.4977 911.963,-35.2559"/>
<polygon fill="midnightblue" stroke="midnightblue" points="886.549,-25.6807 876.013,-26.7972 884.946,-32.4947 886.549,-25.6807"/>
</g>
</g>
</svg>
