<?xml version="1.0" encoding="UTF-8" standalone="no"?>
<!DOCTYPE svg PUBLIC "-//W3C//DTD SVG 1.1//EN"
 "http://www.w3.org/Graphics/SVG/1.1/DTD/svg11.dtd">
<!-- Generated by graphviz version 2.38.0 (20140413.2041)
 -->
<!-- Title: BitcoinGUI::setNumBlocks Pages: 1 -->
<svg width="785pt" height="88pt"
 viewBox="0.00 0.00 785.00 88.00" xmlns="http://www.w3.org/2000/svg" xmlns:xlink="http://www.w3.org/1999/xlink">
<g id="graph0" class="graph" transform="scale(1 1) rotate(0) translate(4 84)">
<title>BitcoinGUI::setNumBlocks</title>
<polygon fill="white" stroke="none" points="-4,4 -4,-84 781,-84 781,4 -4,4"/>
<!-- Node445 -->
<g id="node1" class="node"><title>Node445</title>
<polygon fill="#bfbfbf" stroke="black" points="0,-28 0,-47 135,-47 135,-28 0,-28"/>
<text text-anchor="middle" x="67.5" y="-35" font-family="Helvetica,sans-Serif" font-size="10.00">BitcoinGUI::setNumBlocks</text>
</g>
<!-- Node446 -->
<g id="node2" class="node"><title>Node446</title>
<g id="a_node2"><a xlink:href="class_bitcoin_g_u_i.html#a99d71e1f8478ab937ce2522c8d3815e3" target="_top" xlink:title="Set the client model. ">
<polygon fill="white" stroke="black" points="171,-28 171,-47 307,-47 307,-28 171,-28"/>
<text text-anchor="middle" x="239" y="-35" font-family="Helvetica,sans-Serif" font-size="10.00">BitcoinGUI::setClientModel</text>
</a>
</g>
</g>
<!-- Node445&#45;&gt;Node446 -->
<g id="edge1" class="edge"><title>Node445&#45;&gt;Node446</title>
<path fill="none" stroke="midnightblue" d="M145.038,-37.5C153.649,-37.5 162.373,-37.5 170.852,-37.5"/>
<polygon fill="midnightblue" stroke="midnightblue" points="145.004,-34.0001 135.004,-37.5 145.004,-41.0001 145.004,-34.0001"/>
</g>
<!-- Node447 -->
<g id="node3" class="node"><title>Node447</title>
<g id="a_node3"><a xlink:href="class_bitcoin_application.html#aceb08b4063e4fb264cf11cf7f9edd969" target="_top" xlink:title="BitcoinApplication\l::initializeResult">
<polygon fill="white" stroke="black" points="343,-44.5 343,-74.5 438,-74.5 438,-44.5 343,-44.5"/>
<text text-anchor="start" x="351" y="-62.5" font-family="Helvetica,sans-Serif" font-size="10.00">BitcoinApplication</text>
<text text-anchor="middle" x="390.5" y="-51.5" font-family="Helvetica,sans-Serif" font-size="10.00">::initializeResult</text>
</a>
</g>
</g>
<!-- Node446&#45;&gt;Node447 -->
<g id="edge2" class="edge"><title>Node446&#45;&gt;Node447</title>
<path fill="none" stroke="midnightblue" d="M314.644,-48.4845C324.21,-49.8921 333.778,-51.3 342.721,-52.6161"/>
<polygon fill="midnightblue" stroke="midnightblue" points="315.106,-45.0148 304.703,-47.0216 314.087,-51.9403 315.106,-45.0148"/>
</g>
<!-- Node451 -->
<g id="node7" class="node"><title>Node451</title>
<g id="a_node7"><a xlink:href="class_bitcoin_application.html#a37c560d4c04d14a6da151b82caf8888f" target="_top" xlink:title="Request core shutdown. ">
<polygon fill="white" stroke="black" points="605,-0.5 605,-30.5 703,-30.5 703,-0.5 605,-0.5"/>
<text text-anchor="start" x="613" y="-18.5" font-family="Helvetica,sans-Serif" font-size="10.00">BitcoinApplication</text>
<text text-anchor="middle" x="654" y="-7.5" font-family="Helvetica,sans-Serif" font-size="10.00">::requestShutdown</text>
</a>
</g>
</g>
<!-- Node446&#45;&gt;Node451 -->
<g id="edge8" class="edge"><title>Node446&#45;&gt;Node451</title>
<path fill="none" stroke="midnightblue" d="M317.318,-33.3814C401.688,-28.8871 534.14,-21.8315 604.802,-18.0675"/>
<polygon fill="midnightblue" stroke="midnightblue" points="317.074,-29.8893 307.275,-33.9164 317.447,-36.8794 317.074,-29.8893"/>
</g>
<!-- Node448 -->
<g id="node4" class="node"><title>Node448</title>
<g id="a_node4"><a xlink:href="class_bitcoin_application.html#a61afce9356e452c53ad4c83f5ca19df8" target="_top" xlink:title="BitcoinApplication\l::startThread">
<polygon fill="white" stroke="black" points="474,-44.5 474,-74.5 569,-74.5 569,-44.5 474,-44.5"/>
<text text-anchor="start" x="482" y="-62.5" font-family="Helvetica,sans-Serif" font-size="10.00">BitcoinApplication</text>
<text text-anchor="middle" x="521.5" y="-51.5" font-family="Helvetica,sans-Serif" font-size="10.00">::startThread</text>
</a>
</g>
</g>
<!-- Node447&#45;&gt;Node448 -->
<g id="edge3" class="edge"><title>Node447&#45;&gt;Node448</title>
<path fill="none" stroke="midnightblue" d="M448.101,-59.5C456.752,-59.5 465.596,-59.5 473.996,-59.5"/>
<polygon fill="midnightblue" stroke="midnightblue" points="448.072,-56.0001 438.072,-59.5 448.072,-63.0001 448.072,-56.0001"/>
</g>
<!-- Node449 -->
<g id="node5" class="node"><title>Node449</title>
<g id="a_node5"><a xlink:href="class_bitcoin_application.html#ade19c44b87b00b6b19b433caf4c22ba6" target="_top" xlink:title="Request core initialization. ">
<polygon fill="white" stroke="black" points="606.5,-49.5 606.5,-79.5 701.5,-79.5 701.5,-49.5 606.5,-49.5"/>
<text text-anchor="start" x="614.5" y="-67.5" font-family="Helvetica,sans-Serif" font-size="10.00">BitcoinApplication</text>
<text text-anchor="middle" x="654" y="-56.5" font-family="Helvetica,sans-Serif" font-size="10.00">::requestInitialize</text>
</a>
</g>
</g>
<!-- Node448&#45;&gt;Node449 -->
<g id="edge4" class="edge"><title>Node448&#45;&gt;Node449</title>
<path fill="none" stroke="midnightblue" d="M579.251,-61.6744C588.228,-62.0183 597.424,-62.3707 606.143,-62.7047"/>
<polygon fill="midnightblue" stroke="midnightblue" points="579.372,-58.1765 569.245,-61.291 579.104,-65.1714 579.372,-58.1765"/>
</g>
<!-- Node448&#45;&gt;Node451 -->
<g id="edge6" class="edge"><title>Node448&#45;&gt;Node451</title>
<path fill="none" stroke="midnightblue" d="M576.569,-41.2699C587.096,-37.7204 598.024,-34.0358 608.212,-30.6009"/>
<polygon fill="midnightblue" stroke="midnightblue" points="575.403,-37.9692 567.046,-44.4808 577.64,-44.6023 575.403,-37.9692"/>
</g>
<!-- Node450 -->
<g id="node6" class="node"><title>Node450</title>
<g id="a_node6"><a xlink:href="dash_8cpp.html#a0ddf1224851353fc92bfbff6f499fa97" target="_top" xlink:title="main">
<polygon fill="white" stroke="black" points="739,-30 739,-49 777,-49 777,-30 739,-30"/>
<text text-anchor="middle" x="758" y="-37" font-family="Helvetica,sans-Serif" font-size="10.00">main</text>
</a>
</g>
</g>
<!-- Node449&#45;&gt;Node450 -->
<g id="edge5" class="edge"><title>Node449&#45;&gt;Node450</title>
<path fill="none" stroke="midnightblue" d="M711.473,-50.6586C721.386,-48.2289 731.021,-45.8675 738.854,-43.9474"/>
<polygon fill="midnightblue" stroke="midnightblue" points="710.402,-47.3174 701.523,-53.0974 712.068,-54.1162 710.402,-47.3174"/>
</g>
<!-- Node451&#45;&gt;Node450 -->
<g id="edge7" class="edge"><title>Node451&#45;&gt;Node450</title>
<path fill="none" stroke="midnightblue" d="M712.919,-29.128C722.366,-31.3508 731.49,-33.4977 738.963,-35.2559"/>
<polygon fill="midnightblue" stroke="midnightblue" points="713.549,-25.6807 703.013,-26.7972 711.946,-32.4947 713.549,-25.6807"/>
</g>
</g>
</svg>
