<?xml version="1.0" encoding="UTF-8" standalone="no"?>
<!DOCTYPE svg PUBLIC "-//W3C//DTD SVG 1.1//EN"
 "http://www.w3.org/Graphics/SVG/1.1/DTD/svg11.dtd">
<!-- Generated by graphviz version 2.38.0 (20140413.2041)
 -->
<!-- Title: OverviewPage::setClientModel Pages: 1 -->
<svg width="491pt" height="28pt"
 viewBox="0.00 0.00 491.00 28.00" xmlns="http://www.w3.org/2000/svg" xmlns:xlink="http://www.w3.org/1999/xlink">
<g id="graph0" class="graph" transform="scale(1 1) rotate(0) translate(4 24)">
<title>OverviewPage::setClientModel</title>
<polygon fill="white" stroke="none" points="-4,4 -4,-24 487,-24 487,4 -4,4"/>
<!-- Node689 -->
<g id="node1" class="node"><title>Node689</title>
<polygon fill="#bfbfbf" stroke="black" points="0,-0.5 0,-19.5 152,-19.5 152,-0.5 0,-0.5"/>
<text text-anchor="middle" x="76" y="-7.5" font-family="Helvetica,sans-Serif" font-size="10.00">OverviewPage::setClientModel</text>
</g>
<!-- Node690 -->
<g id="node2" class="node"><title>Node690</title>
<g id="a_node2"><a xlink:href="class_wallet_view.html#a46d9a8d93adfdcc29cae9ff0d44c313e" target="_top" xlink:title="Set the client model. ">
<polygon fill="white" stroke="black" points="188,-0.5 188,-19.5 325,-19.5 325,-0.5 188,-0.5"/>
<text text-anchor="middle" x="256.5" y="-7.5" font-family="Helvetica,sans-Serif" font-size="10.00">WalletView::setClientModel</text>
</a>
</g>
</g>
<!-- Node689&#45;&gt;Node690 -->
<g id="edge1" class="edge"><title>Node689&#45;&gt;Node690</title>
<path fill="none" stroke="midnightblue" d="M162.212,-10C170.792,-10 179.421,-10 187.782,-10"/>
<polygon fill="midnightblue" stroke="midnightblue" points="162.183,-6.5001 152.183,-10 162.183,-13.5001 162.183,-6.5001"/>
</g>
<!-- Node691 -->
<g id="node3" class="node"><title>Node691</title>
<g id="a_node3"><a xlink:href="class_wallet_frame.html#aa199c3f27654199d84c365cf86167d86" target="_top" xlink:title="WalletFrame::addWallet">
<polygon fill="white" stroke="black" points="361,-0.5 361,-19.5 483,-19.5 483,-0.5 361,-0.5"/>
<text text-anchor="middle" x="422" y="-7.5" font-family="Helvetica,sans-Serif" font-size="10.00">WalletFrame::addWallet</text>
</a>
</g>
</g>
<!-- Node690&#45;&gt;Node691 -->
<g id="edge2" class="edge"><title>Node690&#45;&gt;Node691</title>
<path fill="none" stroke="midnightblue" d="M335.688,-10C344.148,-10 352.658,-10 360.857,-10"/>
<polygon fill="midnightblue" stroke="midnightblue" points="335.418,-6.5001 325.418,-10 335.418,-13.5001 335.418,-6.5001"/>
</g>
</g>
</svg>
