<?xml version="1.0" encoding="UTF-8" standalone="no"?>
<!DOCTYPE svg PUBLIC "-//W3C//DTD SVG 1.1//EN"
 "http://www.w3.org/Graphics/SVG/1.1/DTD/svg11.dtd">
<!-- Generated by graphviz version 2.38.0 (20140413.2041)
 -->
<!-- Title: CSuperblock::GetPaymentsLimit Pages: 1 -->
<svg width="2447pt" height="408pt"
 viewBox="0.00 0.00 2447.00 408.00" xmlns="http://www.w3.org/2000/svg" xmlns:xlink="http://www.w3.org/1999/xlink">
<g id="graph0" class="graph" transform="scale(1 1) rotate(0) translate(4 404)">
<title>CSuperblock::GetPaymentsLimit</title>
<polygon fill="white" stroke="none" points="-4,4 -4,-404 2443,-404 2443,4 -4,4"/>
<!-- Node98 -->
<g id="node1" class="node"><title>Node98</title>
<polygon fill="#bfbfbf" stroke="black" points="0,-90 0,-120 139,-120 139,-90 0,-90"/>
<text text-anchor="start" x="8" y="-108" font-family="Helvetica,sans-Serif" font-size="10.00">CSuperblock::GetPayments</text>
<text text-anchor="middle" x="69.5" y="-97" font-family="Helvetica,sans-Serif" font-size="10.00">Limit</text>
</g>
<!-- Node99 -->
<g id="node2" class="node"><title>Node99</title>
<g id="a_node2"><a xlink:href="server_8h.html#aef6fef851934f00dc7c2601d7bfe24d7" target="_top" xlink:title="getsuperblockbudget">
<polygon fill="white" stroke="black" points="176,-133.5 176,-152.5 283,-152.5 283,-133.5 176,-133.5"/>
<text text-anchor="middle" x="229.5" y="-140.5" font-family="Helvetica,sans-Serif" font-size="10.00">getsuperblockbudget</text>
</a>
</g>
</g>
<!-- Node98&#45;&gt;Node99 -->
<g id="edge1" class="edge"><title>Node98&#45;&gt;Node99</title>
<path fill="none" stroke="midnightblue" d="M142.735,-122.373C158.569,-126.181 174.769,-130.077 188.764,-133.443"/>
<polygon fill="midnightblue" stroke="midnightblue" points="143.487,-118.954 132.946,-120.019 141.85,-125.76 143.487,-118.954"/>
</g>
<!-- Node100 -->
<g id="node3" class="node"><title>Node100</title>
<g id="a_node3"><a xlink:href="masternode-payments_8h.html#ab5c4de235616a5c435b32167d76f1efe" target="_top" xlink:title="TODO: all 4 functions do not belong here really, they should be refactored/moved somewhere (main...">
<polygon fill="white" stroke="black" points="181.5,-95.5 181.5,-114.5 277.5,-114.5 277.5,-95.5 181.5,-95.5"/>
<text text-anchor="middle" x="229.5" y="-102.5" font-family="Helvetica,sans-Serif" font-size="10.00">IsBlockValueValid</text>
</a>
</g>
</g>
<!-- Node98&#45;&gt;Node100 -->
<g id="edge2" class="edge"><title>Node98&#45;&gt;Node100</title>
<path fill="none" stroke="midnightblue" d="M149.664,-105C160.457,-105 171.246,-105 181.225,-105"/>
<polygon fill="midnightblue" stroke="midnightblue" points="149.342,-101.5 139.341,-105 149.341,-108.5 149.342,-101.5"/>
</g>
<!-- Node140 -->
<g id="node43" class="node"><title>Node140</title>
<g id="a_node43"><a xlink:href="class_c_superblock.html#a33a5b1f41d0acc015c6860eba8689c70" target="_top" xlink:title="Is Transaction Valid. ">
<polygon fill="white" stroke="black" points="175,-57.5 175,-76.5 284,-76.5 284,-57.5 175,-57.5"/>
<text text-anchor="middle" x="229.5" y="-64.5" font-family="Helvetica,sans-Serif" font-size="10.00">CSuperblock::IsValid</text>
</a>
</g>
</g>
<!-- Node98&#45;&gt;Node140 -->
<g id="edge56" class="edge"><title>Node98&#45;&gt;Node140</title>
<path fill="none" stroke="midnightblue" d="M142.735,-87.6271C158.569,-83.8188 174.769,-79.9227 188.764,-76.5568"/>
<polygon fill="midnightblue" stroke="midnightblue" points="141.85,-84.24 132.946,-89.9814 143.487,-91.0459 141.85,-84.24"/>
</g>
<!-- Node101 -->
<g id="node4" class="node"><title>Node101</title>
<g id="a_node4"><a xlink:href="validation_8cpp.html#aaa0f986172f6a63a3f5dde9bc69f93cb" target="_top" xlink:title="Apply the effects of this block (with given index) on the UTXO set represented by coins...">
<polygon fill="white" stroke="black" points="320,-95.5 320,-114.5 398,-114.5 398,-95.5 320,-95.5"/>
<text text-anchor="middle" x="359" y="-102.5" font-family="Helvetica,sans-Serif" font-size="10.00">ConnectBlock</text>
</a>
</g>
</g>
<!-- Node100&#45;&gt;Node101 -->
<g id="edge3" class="edge"><title>Node100&#45;&gt;Node101</title>
<path fill="none" stroke="midnightblue" d="M287.874,-105C298.698,-105 309.77,-105 319.824,-105"/>
<polygon fill="midnightblue" stroke="midnightblue" points="287.614,-101.5 277.614,-105 287.614,-108.5 287.614,-101.5"/>
</g>
<!-- Node102 -->
<g id="node5" class="node"><title>Node102</title>
<g id="a_node5"><a xlink:href="validation_8cpp.html#a9258465a729a68271780a9968e65819a" target="_top" xlink:title="Connect a new block to chainActive. ">
<polygon fill="white" stroke="black" points="455.5,-209.5 455.5,-228.5 522.5,-228.5 522.5,-209.5 455.5,-209.5"/>
<text text-anchor="middle" x="489" y="-216.5" font-family="Helvetica,sans-Serif" font-size="10.00">ConnectTip</text>
</a>
</g>
</g>
<!-- Node101&#45;&gt;Node102 -->
<g id="edge4" class="edge"><title>Node101&#45;&gt;Node102</title>
<path fill="none" stroke="midnightblue" d="M378.547,-121.519C405.649,-145.656 455.222,-189.807 477.114,-209.305"/>
<polygon fill="midnightblue" stroke="midnightblue" points="380.709,-118.757 370.913,-114.72 376.053,-123.984 380.709,-118.757"/>
</g>
<!-- Node135 -->
<g id="node38" class="node"><title>Node135</title>
<g id="a_node38"><a xlink:href="validation_8h.html#a12c39e969c9077605ae8a91730fb78d3" target="_top" xlink:title="Check a block is completely valid from start to finish (only works on top of our current best block...">
<polygon fill="white" stroke="black" points="737.5,-38.5 737.5,-57.5 830.5,-57.5 830.5,-38.5 737.5,-38.5"/>
<text text-anchor="middle" x="784" y="-45.5" font-family="Helvetica,sans-Serif" font-size="10.00">TestBlockValidity</text>
</a>
</g>
</g>
<!-- Node101&#45;&gt;Node135 -->
<g id="edge48" class="edge"><title>Node101&#45;&gt;Node135</title>
<path fill="none" stroke="midnightblue" d="M408.208,-107.795C474.691,-110.416 597.784,-110.813 699,-86 723.718,-79.9404 750.135,-66.7492 766.606,-57.6227"/>
<polygon fill="midnightblue" stroke="midnightblue" points="408.177,-104.291 398.037,-107.359 407.877,-111.284 408.177,-104.291"/>
</g>
<!-- Node138 -->
<g id="node41" class="node"><title>Node138</title>
<g id="a_node41"><a xlink:href="class_c_verify_d_b.html#af12e07230f20d23cf01d417d0e785c49" target="_top" xlink:title="CVerifyDB::VerifyDB">
<polygon fill="white" stroke="black" points="434,-57.5 434,-76.5 544,-76.5 544,-57.5 434,-57.5"/>
<text text-anchor="middle" x="489" y="-64.5" font-family="Helvetica,sans-Serif" font-size="10.00">CVerifyDB::VerifyDB</text>
</a>
</g>
</g>
<!-- Node101&#45;&gt;Node138 -->
<g id="edge54" class="edge"><title>Node101&#45;&gt;Node138</title>
<path fill="none" stroke="midnightblue" d="M402.224,-92.4647C419.637,-87.2952 439.492,-81.4009 455.711,-76.5859"/>
<polygon fill="midnightblue" stroke="midnightblue" points="400.89,-89.2097 392.3,-95.411 402.882,-95.9202 400.89,-89.2097"/>
</g>
<!-- Node103 -->
<g id="node6" class="node"><title>Node103</title>
<g id="a_node6"><a xlink:href="validation_8cpp.html#a345d6616250288efacae87d05528fe8a" target="_top" xlink:title="Try to make some progress towards making pindexMostWork the active block. ">
<polygon fill="white" stroke="black" points="580,-209.5 580,-228.5 699,-228.5 699,-209.5 580,-209.5"/>
<text text-anchor="middle" x="639.5" y="-216.5" font-family="Helvetica,sans-Serif" font-size="10.00">ActivateBestChainStep</text>
</a>
</g>
</g>
<!-- Node102&#45;&gt;Node103 -->
<g id="edge5" class="edge"><title>Node102&#45;&gt;Node103</title>
<path fill="none" stroke="midnightblue" d="M532.884,-219C547.568,-219 564.257,-219 579.963,-219"/>
<polygon fill="midnightblue" stroke="midnightblue" points="532.589,-215.5 522.589,-219 532.589,-222.5 532.589,-215.5"/>
</g>
<!-- Node104 -->
<g id="node7" class="node"><title>Node104</title>
<g id="a_node7"><a xlink:href="validation_8h.html#ab7be3f1b4119e8df383a4332ddbd344a" target="_top" xlink:title="Find the best known block, and make it the tip of the block chain. ">
<polygon fill="white" stroke="black" points="735,-247.5 735,-266.5 833,-266.5 833,-247.5 735,-247.5"/>
<text text-anchor="middle" x="784" y="-254.5" font-family="Helvetica,sans-Serif" font-size="10.00">ActivateBestChain</text>
</a>
</g>
</g>
<!-- Node103&#45;&gt;Node104 -->
<g id="edge6" class="edge"><title>Node103&#45;&gt;Node104</title>
<path fill="none" stroke="midnightblue" d="M686.153,-231.174C705.858,-236.429 728.575,-242.487 747.053,-247.414"/>
<polygon fill="midnightblue" stroke="midnightblue" points="687.023,-227.784 676.459,-228.589 685.219,-234.548 687.023,-227.784"/>
</g>
<!-- Node105 -->
<g id="node8" class="node"><title>Node105</title>
<g id="a_node8"><a xlink:href="validation_8h.html#aaf2e19311fff6b9cd421a9a9d59f7ff1" target="_top" xlink:title="Initialize a new block tree database + block data on disk. ">
<polygon fill="white" stroke="black" points="886.5,-266.5 886.5,-285.5 965.5,-285.5 965.5,-266.5 886.5,-266.5"/>
<text text-anchor="middle" x="926" y="-273.5" font-family="Helvetica,sans-Serif" font-size="10.00">InitBlockIndex</text>
</a>
</g>
</g>
<!-- Node104&#45;&gt;Node105 -->
<g id="edge7" class="edge"><title>Node104&#45;&gt;Node105</title>
<path fill="none" stroke="midnightblue" d="M843.146,-264.891C857.753,-266.874 873.069,-268.952 886.449,-270.768"/>
<polygon fill="midnightblue" stroke="midnightblue" points="843.56,-261.415 833.18,-263.539 842.619,-268.352 843.56,-261.415"/>
</g>
<!-- Node110 -->
<g id="node13" class="node"><title>Node110</title>
<g id="a_node13"><a xlink:href="init_8cpp.html#a0189c34248cd89bbbe20d4d6045bd7c9" target="_top" xlink:title="ThreadImport">
<polygon fill="white" stroke="black" points="1059.5,-228.5 1059.5,-247.5 1133.5,-247.5 1133.5,-228.5 1059.5,-228.5"/>
<text text-anchor="middle" x="1096.5" y="-235.5" font-family="Helvetica,sans-Serif" font-size="10.00">ThreadImport</text>
</a>
</g>
</g>
<!-- Node104&#45;&gt;Node110 -->
<g id="edge47" class="edge"><title>Node104&#45;&gt;Node110</title>
<path fill="none" stroke="midnightblue" d="M843.427,-253.425C906.902,-249.541 1006.32,-243.457 1059.34,-240.213"/>
<polygon fill="midnightblue" stroke="midnightblue" points="842.942,-249.948 833.175,-254.052 843.37,-256.935 842.942,-249.948"/>
</g>
<!-- Node111 -->
<g id="node14" class="node"><title>Node111</title>
<g id="a_node14"><a xlink:href="server_8h.html#a7e43030fb221e28db98accef3fc80232" target="_top" xlink:title="invalidateblock">
<polygon fill="white" stroke="black" points="885.5,-380.5 885.5,-399.5 966.5,-399.5 966.5,-380.5 885.5,-380.5"/>
<text text-anchor="middle" x="926" y="-387.5" font-family="Helvetica,sans-Serif" font-size="10.00">invalidateblock</text>
</a>
</g>
</g>
<!-- Node104&#45;&gt;Node111 -->
<g id="edge14" class="edge"><title>Node104&#45;&gt;Node111</title>
<path fill="none" stroke="midnightblue" d="M794.3,-276.052C807.535,-301.264 834.118,-345.49 869,-371 874.221,-374.818 880.263,-377.908 886.407,-380.396"/>
<polygon fill="midnightblue" stroke="midnightblue" points="797.254,-274.14 789.603,-266.812 791.014,-277.312 797.254,-274.14"/>
</g>
<!-- Node112 -->
<g id="node15" class="node"><title>Node112</title>
<g id="a_node15"><a xlink:href="validation_8h.html#a2233339a13d09038cf2e46f4d0144be4" target="_top" xlink:title="Import blocks from an external file. ">
<polygon fill="white" stroke="black" points="869,-190.5 869,-209.5 983,-209.5 983,-190.5 869,-190.5"/>
<text text-anchor="middle" x="926" y="-197.5" font-family="Helvetica,sans-Serif" font-size="10.00">LoadExternalBlockFile</text>
</a>
</g>
</g>
<!-- Node104&#45;&gt;Node112 -->
<g id="edge15" class="edge"><title>Node104&#45;&gt;Node112</title>
<path fill="none" stroke="midnightblue" d="M817.767,-243.659C843.444,-233.205 878.548,-218.913 901.491,-209.572"/>
<polygon fill="midnightblue" stroke="midnightblue" points="816.375,-240.447 808.433,-247.459 819.014,-246.93 816.375,-240.447"/>
</g>
<!-- Node113 -->
<g id="node16" class="node"><title>Node113</title>
<g id="a_node16"><a xlink:href="validation_8h.html#ac880446d7f8833dd498df914ccc816a9" target="_top" xlink:title="Process an incoming block. ">
<polygon fill="white" stroke="black" points="877,-152.5 877,-171.5 975,-171.5 975,-152.5 877,-152.5"/>
<text text-anchor="middle" x="926" y="-159.5" font-family="Helvetica,sans-Serif" font-size="10.00">ProcessNewBlock</text>
</a>
</g>
</g>
<!-- Node104&#45;&gt;Node113 -->
<g id="edge17" class="edge"><title>Node104&#45;&gt;Node113</title>
<path fill="none" stroke="midnightblue" d="M799.927,-239.903C815.612,-222.87 841.752,-197.012 869,-181 875.373,-177.255 882.591,-174.114 889.674,-171.533"/>
<polygon fill="midnightblue" stroke="midnightblue" points="797.199,-237.701 793.107,-247.473 802.401,-242.386 797.199,-237.701"/>
</g>
<!-- Node128 -->
<g id="node31" class="node"><title>Node128</title>
<g id="a_node31"><a xlink:href="server_8h.html#a29263a4d92c9f0c07c1dfb0a5fad681b" target="_top" xlink:title="reconsiderblock">
<polygon fill="white" stroke="black" points="883.5,-342.5 883.5,-361.5 968.5,-361.5 968.5,-342.5 883.5,-342.5"/>
<text text-anchor="middle" x="926" y="-349.5" font-family="Helvetica,sans-Serif" font-size="10.00">reconsiderblock</text>
</a>
</g>
</g>
<!-- Node104&#45;&gt;Node128 -->
<g id="edge36" class="edge"><title>Node104&#45;&gt;Node128</title>
<path fill="none" stroke="midnightblue" d="M799.927,-274.097C815.612,-291.13 841.752,-316.988 869,-333 875.373,-336.745 882.591,-339.886 889.674,-342.467"/>
<polygon fill="midnightblue" stroke="midnightblue" points="802.401,-271.614 793.107,-266.527 797.199,-276.299 802.401,-271.614"/>
</g>
<!-- Node129 -->
<g id="node32" class="node"><title>Node129</title>
<g id="a_node32"><a xlink:href="validation_8h.html#a6b20cdba297d137a4d7a91691cc4457b" target="_top" xlink:title="ReprocessBlocks">
<polygon fill="white" stroke="black" points="879,-304.5 879,-323.5 973,-323.5 973,-304.5 879,-304.5"/>
<text text-anchor="middle" x="926" y="-311.5" font-family="Helvetica,sans-Serif" font-size="10.00">ReprocessBlocks</text>
</a>
</g>
</g>
<!-- Node104&#45;&gt;Node129 -->
<g id="edge37" class="edge"><title>Node104&#45;&gt;Node129</title>
<path fill="none" stroke="midnightblue" d="M814.159,-271.038C830.182,-278.537 850.506,-287.7 869,-295 877.404,-298.317 886.647,-301.599 895.16,-304.478"/>
<polygon fill="midnightblue" stroke="midnightblue" points="815.329,-267.72 804.792,-266.616 812.34,-274.05 815.329,-267.72"/>
</g>
<!-- Node106 -->
<g id="node9" class="node"><title>Node106</title>
<g id="a_node9"><a xlink:href="init_8h.html#a6f0784aa332573f949b0975205572b28" target="_top" xlink:title="Initialize Dash Core. ">
<polygon fill="white" stroke="black" points="1994.5,-228.5 1994.5,-247.5 2047.5,-247.5 2047.5,-228.5 1994.5,-228.5"/>
<text text-anchor="middle" x="2021" y="-235.5" font-family="Helvetica,sans-Serif" font-size="10.00">AppInit2</text>
</a>
</g>
</g>
<!-- Node105&#45;&gt;Node106 -->
<g id="edge8" class="edge"><title>Node105&#45;&gt;Node106</title>
<path fill="none" stroke="midnightblue" d="M973.058,-289.544C976.52,-291.185 979.877,-292.999 983,-295 1002.59,-307.55 998.927,-321.239 1019,-333 1108.19,-385.259 1141.13,-390 1244.5,-390 1244.5,-390 1244.5,-390 1737,-390 1858.02,-390 1977.22,-280.785 2010.72,-247.508"/>
<polygon fill="midnightblue" stroke="midnightblue" points="974.308,-286.273 963.735,-285.598 971.579,-292.719 974.308,-286.273"/>
</g>
<!-- Node105&#45;&gt;Node110 -->
<g id="edge12" class="edge"><title>Node105&#45;&gt;Node110</title>
<path fill="none" stroke="midnightblue" d="M975.579,-265.045C1002.29,-259.02 1034.87,-251.673 1059.33,-246.157"/>
<polygon fill="midnightblue" stroke="midnightblue" points="974.642,-261.668 965.657,-267.282 976.182,-268.496 974.642,-261.668"/>
</g>
<!-- Node107 -->
<g id="node10" class="node"><title>Node107</title>
<g id="a_node10"><a xlink:href="dashd_8cpp.html#ac59316b767e6984e1285f0531275286b" target="_top" xlink:title="AppInit">
<polygon fill="white" stroke="black" points="2283.5,-209.5 2283.5,-228.5 2330.5,-228.5 2330.5,-209.5 2283.5,-209.5"/>
<text text-anchor="middle" x="2307" y="-216.5" font-family="Helvetica,sans-Serif" font-size="10.00">AppInit</text>
</a>
</g>
</g>
<!-- Node106&#45;&gt;Node107 -->
<g id="edge9" class="edge"><title>Node106&#45;&gt;Node107</title>
<path fill="none" stroke="midnightblue" d="M2057.73,-235.609C2117.03,-231.642 2234.11,-223.809 2283.35,-220.516"/>
<polygon fill="midnightblue" stroke="midnightblue" points="2057.45,-232.121 2047.7,-236.28 2057.92,-239.105 2057.45,-232.121"/>
</g>
<!-- Node109 -->
<g id="node12" class="node"><title>Node109</title>
<g id="a_node12"><a xlink:href="class_bitcoin_core.html#af34ca069cda1d4362dcc109b4397fb62" target="_top" xlink:title="BitcoinCore::initialize">
<polygon fill="white" stroke="black" points="2104,-190.5 2104,-209.5 2213,-209.5 2213,-190.5 2104,-190.5"/>
<text text-anchor="middle" x="2158.5" y="-197.5" font-family="Helvetica,sans-Serif" font-size="10.00">BitcoinCore::initialize</text>
</a>
</g>
</g>
<!-- Node106&#45;&gt;Node109 -->
<g id="edge11" class="edge"><title>Node106&#45;&gt;Node109</title>
<path fill="none" stroke="midnightblue" d="M2057.66,-227.999C2078.05,-222.28 2103.49,-215.146 2123.59,-209.511"/>
<polygon fill="midnightblue" stroke="midnightblue" points="2056.49,-224.693 2047.81,-230.763 2058.38,-231.433 2056.49,-224.693"/>
</g>
<!-- Node108 -->
<g id="node11" class="node"><title>Node108</title>
<g id="a_node11"><a xlink:href="dashd_8cpp.html#a0ddf1224851353fc92bfbff6f499fa97" target="_top" xlink:title="main">
<polygon fill="white" stroke="black" points="2401,-209.5 2401,-228.5 2439,-228.5 2439,-209.5 2401,-209.5"/>
<text text-anchor="middle" x="2420" y="-216.5" font-family="Helvetica,sans-Serif" font-size="10.00">main</text>
</a>
</g>
</g>
<!-- Node107&#45;&gt;Node108 -->
<g id="edge10" class="edge"><title>Node107&#45;&gt;Node108</title>
<path fill="none" stroke="midnightblue" d="M2340.77,-219C2360.33,-219 2384.46,-219 2400.7,-219"/>
<polygon fill="midnightblue" stroke="midnightblue" points="2340.73,-215.5 2330.73,-219 2340.73,-222.5 2340.73,-215.5"/>
</g>
<!-- Node110&#45;&gt;Node106 -->
<g id="edge13" class="edge"><title>Node110&#45;&gt;Node106</title>
<path fill="none" stroke="midnightblue" d="M1143.79,-231.9C1229.44,-221.16 1418.48,-200 1578.5,-200 1578.5,-200 1578.5,-200 1737,-200 1826.73,-200 1849.43,-204.618 1938,-219 1957.04,-222.092 1978.25,-227.047 1994.32,-231.121"/>
<polygon fill="midnightblue" stroke="midnightblue" points="1143.11,-228.459 1133.63,-233.187 1143.99,-235.403 1143.11,-228.459"/>
</g>
<!-- Node112&#45;&gt;Node110 -->
<g id="edge16" class="edge"><title>Node112&#45;&gt;Node110</title>
<path fill="none" stroke="midnightblue" d="M979.557,-211.853C1005.45,-217.693 1036.03,-224.588 1059.27,-229.831"/>
<polygon fill="midnightblue" stroke="midnightblue" points="980.045,-208.375 969.52,-209.589 978.505,-215.203 980.045,-208.375"/>
</g>
<!-- Node114 -->
<g id="node17" class="node"><title>Node114</title>
<g id="a_node17"><a xlink:href="server_8h.html#afc5f2c0cbe40a2f876b46df2929cf359" target="_top" xlink:title="generate">
<polygon fill="white" stroke="black" points="1069.5,-76.5 1069.5,-95.5 1123.5,-95.5 1123.5,-76.5 1069.5,-76.5"/>
<text text-anchor="middle" x="1096.5" y="-83.5" font-family="Helvetica,sans-Serif" font-size="10.00">generate</text>
</a>
</g>
</g>
<!-- Node113&#45;&gt;Node114 -->
<g id="edge18" class="edge"><title>Node113&#45;&gt;Node114</title>
<path fill="none" stroke="midnightblue" d="M948.253,-146.158C966.261,-133.408 993.2,-115.88 1019,-105 1035.14,-98.1939 1054.27,-93.4439 1069.36,-90.3954"/>
<polygon fill="midnightblue" stroke="midnightblue" points="945.763,-143.638 939.703,-152.329 949.86,-149.314 945.763,-143.638"/>
</g>
<!-- Node115 -->
<g id="node18" class="node"><title>Node115</title>
<g id="a_node18"><a xlink:href="miner_8cpp.html#abfbc96f613381f93c13c00ebc2f25139" target="_top" xlink:title="ProcessBlockFound">
<polygon fill="white" stroke="black" points="1044.5,-114.5 1044.5,-133.5 1148.5,-133.5 1148.5,-114.5 1044.5,-114.5"/>
<text text-anchor="middle" x="1096.5" y="-121.5" font-family="Helvetica,sans-Serif" font-size="10.00">ProcessBlockFound</text>
</a>
</g>
</g>
<!-- Node113&#45;&gt;Node115 -->
<g id="edge19" class="edge"><title>Node113&#45;&gt;Node115</title>
<path fill="none" stroke="midnightblue" d="M979.431,-150.176C1003.19,-144.818 1030.9,-138.569 1053.29,-133.52"/>
<polygon fill="midnightblue" stroke="midnightblue" points="978.505,-146.797 969.52,-152.411 980.045,-153.625 978.505,-146.797"/>
</g>
<!-- Node123 -->
<g id="node26" class="node"><title>Node123</title>
<g id="a_node26"><a xlink:href="net__processing_8cpp.html#a193d0ece6e2f2f7ee37352ac9720bb83" target="_top" xlink:title="ProcessMessage">
<polygon fill="white" stroke="black" points="1533.5,-228.5 1533.5,-247.5 1625.5,-247.5 1625.5,-228.5 1533.5,-228.5"/>
<text text-anchor="middle" x="1579.5" y="-235.5" font-family="Helvetica,sans-Serif" font-size="10.00">ProcessMessage</text>
</a>
</g>
</g>
<!-- Node113&#45;&gt;Node123 -->
<g id="edge29" class="edge"><title>Node113&#45;&gt;Node123</title>
<path fill="none" stroke="midnightblue" d="M978.372,-173.576C991.565,-176.282 1005.77,-178.965 1019,-181 1209.11,-210.237 1437.95,-228.231 1533.34,-234.972"/>
<polygon fill="midnightblue" stroke="midnightblue" points="979.018,-170.135 968.513,-171.512 977.584,-176.987 979.018,-170.135"/>
</g>
<!-- Node127 -->
<g id="node30" class="node"><title>Node127</title>
<g id="a_node30"><a xlink:href="server_8h.html#a220fade8a685be34364aad455f99f6d6" target="_top" xlink:title="submitblock">
<polygon fill="white" stroke="black" points="1062,-152.5 1062,-171.5 1131,-171.5 1131,-152.5 1062,-152.5"/>
<text text-anchor="middle" x="1096.5" y="-159.5" font-family="Helvetica,sans-Serif" font-size="10.00">submitblock</text>
</a>
</g>
</g>
<!-- Node113&#45;&gt;Node127 -->
<g id="edge35" class="edge"><title>Node113&#45;&gt;Node127</title>
<path fill="none" stroke="midnightblue" d="M985.607,-162C1011.13,-162 1040.11,-162 1061.91,-162"/>
<polygon fill="midnightblue" stroke="midnightblue" points="985.285,-158.5 975.285,-162 985.285,-165.5 985.285,-158.5"/>
</g>
<!-- Node116 -->
<g id="node19" class="node"><title>Node116</title>
<g id="a_node19"><a xlink:href="miner_8cpp.html#a17c61f964b27cc5060cd7f9b0efb3607" target="_top" xlink:title="BitcoinMiner">
<polygon fill="white" stroke="black" points="1210,-114.5 1210,-133.5 1281,-133.5 1281,-114.5 1210,-114.5"/>
<text text-anchor="middle" x="1245.5" y="-121.5" font-family="Helvetica,sans-Serif" font-size="10.00">BitcoinMiner</text>
</a>
</g>
</g>
<!-- Node115&#45;&gt;Node116 -->
<g id="edge20" class="edge"><title>Node115&#45;&gt;Node116</title>
<path fill="none" stroke="midnightblue" d="M1158.63,-124C1176.08,-124 1194.48,-124 1209.76,-124"/>
<polygon fill="midnightblue" stroke="midnightblue" points="1158.5,-120.5 1148.5,-124 1158.5,-127.5 1158.5,-120.5"/>
</g>
<!-- Node117 -->
<g id="node20" class="node"><title>Node117</title>
<g id="a_node20"><a xlink:href="miner_8h.html#a5dd1df3c97c260735ad08a808db2115c" target="_top" xlink:title="Run the miner threads. ">
<polygon fill="white" stroke="black" points="1833.5,-114.5 1833.5,-133.5 1925.5,-133.5 1925.5,-114.5 1833.5,-114.5"/>
<text text-anchor="middle" x="1879.5" y="-121.5" font-family="Helvetica,sans-Serif" font-size="10.00">GenerateBitcoins</text>
</a>
</g>
</g>
<!-- Node116&#45;&gt;Node117 -->
<g id="edge21" class="edge"><title>Node116&#45;&gt;Node117</title>
<path fill="none" stroke="midnightblue" d="M1291.71,-124C1408.13,-124 1717.22,-124 1833.46,-124"/>
<polygon fill="midnightblue" stroke="midnightblue" points="1291.38,-120.5 1281.38,-124 1291.38,-127.5 1291.38,-120.5"/>
</g>
<!-- Node117&#45;&gt;Node106 -->
<g id="edge22" class="edge"><title>Node117&#45;&gt;Node106</title>
<path fill="none" stroke="midnightblue" d="M1928.66,-137.673C1931.92,-139.272 1935.07,-141.043 1938,-143 1947.19,-149.142 1993.37,-205.279 2012.09,-228.26"/>
<polygon fill="midnightblue" stroke="midnightblue" points="1929.84,-134.369 1919.27,-133.608 1927.06,-140.793 1929.84,-134.369"/>
</g>
<!-- Node118 -->
<g id="node21" class="node"><title>Node118</title>
<g id="a_node21"><a xlink:href="init_8h.html#a5cb3db83cb0ba2e421f651a1ee1f2cfe" target="_top" xlink:title="Preparing steps before shutting down or restarting the wallet. ">
<polygon fill="white" stroke="black" points="1974,-152.5 1974,-171.5 2068,-171.5 2068,-152.5 1974,-152.5"/>
<text text-anchor="middle" x="2021" y="-159.5" font-family="Helvetica,sans-Serif" font-size="10.00">PrepareShutdown</text>
</a>
</g>
</g>
<!-- Node117&#45;&gt;Node118 -->
<g id="edge23" class="edge"><title>Node117&#45;&gt;Node118</title>
<path fill="none" stroke="midnightblue" d="M1925.46,-136.246C1944.68,-141.484 1966.8,-147.509 1984.81,-152.414"/>
<polygon fill="midnightblue" stroke="midnightblue" points="1926.27,-132.84 1915.7,-133.589 1924.43,-139.594 1926.27,-132.84"/>
</g>
<!-- Node122 -->
<g id="node25" class="node"><title>Node122</title>
<g id="a_node25"><a xlink:href="server_8h.html#ae13fce5b0e4a07b7d116242b3a0e39b8" target="_top" xlink:title="setgenerate">
<polygon fill="white" stroke="black" points="1987,-114.5 1987,-133.5 2055,-133.5 2055,-114.5 1987,-114.5"/>
<text text-anchor="middle" x="2021" y="-121.5" font-family="Helvetica,sans-Serif" font-size="10.00">setgenerate</text>
</a>
</g>
</g>
<!-- Node117&#45;&gt;Node122 -->
<g id="edge28" class="edge"><title>Node117&#45;&gt;Node122</title>
<path fill="none" stroke="midnightblue" d="M1935.79,-124C1953.08,-124 1971.6,-124 1986.86,-124"/>
<polygon fill="midnightblue" stroke="midnightblue" points="1935.79,-120.5 1925.79,-124 1935.79,-127.5 1935.79,-120.5"/>
</g>
<!-- Node119 -->
<g id="node22" class="node"><title>Node119</title>
<g id="a_node22"><a xlink:href="class_bitcoin_core.html#ac2271844c89ebc4c611e7617ce6202e3" target="_top" xlink:title="BitcoinCore::restart">
<polygon fill="white" stroke="black" points="2108,-114.5 2108,-133.5 2209,-133.5 2209,-114.5 2108,-114.5"/>
<text text-anchor="middle" x="2158.5" y="-121.5" font-family="Helvetica,sans-Serif" font-size="10.00">BitcoinCore::restart</text>
</a>
</g>
</g>
<!-- Node118&#45;&gt;Node119 -->
<g id="edge24" class="edge"><title>Node118&#45;&gt;Node119</title>
<path fill="none" stroke="midnightblue" d="M2065.92,-149.682C2084.54,-144.461 2105.91,-138.468 2123.32,-133.586"/>
<polygon fill="midnightblue" stroke="midnightblue" points="2064.88,-146.341 2056.19,-152.411 2066.77,-153.081 2064.88,-146.341"/>
</g>
<!-- Node120 -->
<g id="node23" class="node"><title>Node120</title>
<g id="a_node23"><a xlink:href="init_8h.html#ac5f038c2b480cf9ef5e19e3eba8dbaf9" target="_top" xlink:title="Shutdown is split into 2 parts: Part 1: shut down everything but the main wallet instance (done in Pr...">
<polygon fill="white" stroke="black" points="2128.5,-152.5 2128.5,-171.5 2188.5,-171.5 2188.5,-152.5 2128.5,-152.5"/>
<text text-anchor="middle" x="2158.5" y="-159.5" font-family="Helvetica,sans-Serif" font-size="10.00">Shutdown</text>
</a>
</g>
</g>
<!-- Node118&#45;&gt;Node120 -->
<g id="edge25" class="edge"><title>Node118&#45;&gt;Node120</title>
<path fill="none" stroke="midnightblue" d="M2078.74,-162C2095.84,-162 2113.9,-162 2128.41,-162"/>
<polygon fill="midnightblue" stroke="midnightblue" points="2078.25,-158.5 2068.25,-162 2078.25,-165.5 2078.25,-158.5"/>
</g>
<!-- Node120&#45;&gt;Node107 -->
<g id="edge26" class="edge"><title>Node120&#45;&gt;Node107</title>
<path fill="none" stroke="midnightblue" d="M2196.74,-174.975C2202.21,-176.953 2207.76,-179.001 2213,-181 2237.28,-190.266 2264.8,-201.619 2283.57,-209.49"/>
<polygon fill="midnightblue" stroke="midnightblue" points="2197.68,-171.591 2187.08,-171.519 2195.32,-178.182 2197.68,-171.591"/>
</g>
<!-- Node121 -->
<g id="node24" class="node"><title>Node121</title>
<g id="a_node24"><a xlink:href="class_bitcoin_core.html#a94f3f4622ba698e321f3a2e0e686129f" target="_top" xlink:title="BitcoinCore::shutdown">
<polygon fill="white" stroke="black" points="2249,-152.5 2249,-171.5 2365,-171.5 2365,-152.5 2249,-152.5"/>
<text text-anchor="middle" x="2307" y="-159.5" font-family="Helvetica,sans-Serif" font-size="10.00">BitcoinCore::shutdown</text>
</a>
</g>
</g>
<!-- Node120&#45;&gt;Node121 -->
<g id="edge27" class="edge"><title>Node120&#45;&gt;Node121</title>
<path fill="none" stroke="midnightblue" d="M2198.97,-162C2214.31,-162 2232.18,-162 2248.88,-162"/>
<polygon fill="midnightblue" stroke="midnightblue" points="2198.79,-158.5 2188.79,-162 2198.79,-165.5 2198.79,-158.5"/>
</g>
<!-- Node124 -->
<g id="node27" class="node"><title>Node124</title>
<g id="a_node27"><a xlink:href="net__processing_8h.html#a7fa42e7ffd6e6ba5b7537af248e30fc8" target="_top" xlink:title="Process protocol messages received from a given node. ">
<polygon fill="white" stroke="black" points="1687,-228.5 1687,-247.5 1785,-247.5 1785,-228.5 1687,-228.5"/>
<text text-anchor="middle" x="1736" y="-235.5" font-family="Helvetica,sans-Serif" font-size="10.00">ProcessMessages</text>
</a>
</g>
</g>
<!-- Node123&#45;&gt;Node124 -->
<g id="edge30" class="edge"><title>Node123&#45;&gt;Node124</title>
<path fill="none" stroke="midnightblue" d="M1635.78,-238C1652.48,-238 1670.68,-238 1686.88,-238"/>
<polygon fill="midnightblue" stroke="midnightblue" points="1635.6,-234.5 1625.6,-238 1635.6,-241.5 1635.6,-234.5"/>
</g>
<!-- Node125 -->
<g id="node28" class="node"><title>Node125</title>
<g id="a_node28"><a xlink:href="net__processing_8h.html#ab02615ff65f91d69f8d786ec900baa8a" target="_top" xlink:title="Register with a network node to receive its signals. ">
<polygon fill="white" stroke="black" points="1825,-228.5 1825,-247.5 1934,-247.5 1934,-228.5 1825,-228.5"/>
<text text-anchor="middle" x="1879.5" y="-235.5" font-family="Helvetica,sans-Serif" font-size="10.00">RegisterNodeSignals</text>
</a>
</g>
</g>
<!-- Node124&#45;&gt;Node125 -->
<g id="edge31" class="edge"><title>Node124&#45;&gt;Node125</title>
<path fill="none" stroke="midnightblue" d="M1795.57,-238C1805.18,-238 1815.1,-238 1824.59,-238"/>
<polygon fill="midnightblue" stroke="midnightblue" points="1795.3,-234.5 1785.3,-238 1795.3,-241.5 1795.3,-234.5"/>
</g>
<!-- Node126 -->
<g id="node29" class="node"><title>Node126</title>
<g id="a_node29"><a xlink:href="net__processing_8h.html#a3ef0cc6e9d9d6435ee2a5569244d6ebd" target="_top" xlink:title="Unregister a network node. ">
<polygon fill="white" stroke="black" points="1821,-152.5 1821,-171.5 1938,-171.5 1938,-152.5 1821,-152.5"/>
<text text-anchor="middle" x="1879.5" y="-159.5" font-family="Helvetica,sans-Serif" font-size="10.00">UnregisterNodeSignals</text>
</a>
</g>
</g>
<!-- Node124&#45;&gt;Node126 -->
<g id="edge33" class="edge"><title>Node124&#45;&gt;Node126</title>
<path fill="none" stroke="midnightblue" d="M1763.91,-223.545C1792.34,-208.277 1836.35,-184.64 1860.72,-171.547"/>
<polygon fill="midnightblue" stroke="midnightblue" points="1762.07,-220.559 1754.92,-228.375 1765.39,-226.726 1762.07,-220.559"/>
</g>
<!-- Node125&#45;&gt;Node106 -->
<g id="edge32" class="edge"><title>Node125&#45;&gt;Node106</title>
<path fill="none" stroke="midnightblue" d="M1944.37,-238C1962.09,-238 1980.32,-238 1994.44,-238"/>
<polygon fill="midnightblue" stroke="midnightblue" points="1944.04,-234.5 1934.04,-238 1944.04,-241.5 1944.04,-234.5"/>
</g>
<!-- Node126&#45;&gt;Node118 -->
<g id="edge34" class="edge"><title>Node126&#45;&gt;Node118</title>
<path fill="none" stroke="midnightblue" d="M1948.13,-162C1956.77,-162 1965.45,-162 1973.65,-162"/>
<polygon fill="midnightblue" stroke="midnightblue" points="1948.05,-158.5 1938.05,-162 1948.05,-165.5 1948.05,-158.5"/>
</g>
<!-- Node130 -->
<g id="node33" class="node"><title>Node130</title>
<g id="a_node33"><a xlink:href="class_c_spork_manager.html#ade3cee4d73664c03ceaa900efeedc395" target="_top" xlink:title="CSporkManager::ExecuteSpork">
<polygon fill="white" stroke="black" points="1019,-304.5 1019,-323.5 1174,-323.5 1174,-304.5 1019,-304.5"/>
<text text-anchor="middle" x="1096.5" y="-311.5" font-family="Helvetica,sans-Serif" font-size="10.00">CSporkManager::ExecuteSpork</text>
</a>
</g>
</g>
<!-- Node129&#45;&gt;Node130 -->
<g id="edge38" class="edge"><title>Node129&#45;&gt;Node130</title>
<path fill="none" stroke="midnightblue" d="M983.25,-314C994.629,-314 1006.78,-314 1018.72,-314"/>
<polygon fill="midnightblue" stroke="midnightblue" points="983.043,-310.5 973.043,-314 983.043,-317.5 983.043,-310.5"/>
</g>
<!-- Node131 -->
<g id="node34" class="node"><title>Node131</title>
<g id="a_node34"><a xlink:href="class_c_spork_manager.html#a73b217ee4057d273648c54fee3a702c5" target="_top" xlink:title="CSporkManager::ProcessSpork">
<polygon fill="white" stroke="black" points="1317,-266.5 1317,-285.5 1472,-285.5 1472,-266.5 1317,-266.5"/>
<text text-anchor="middle" x="1394.5" y="-273.5" font-family="Helvetica,sans-Serif" font-size="10.00">CSporkManager::ProcessSpork</text>
</a>
</g>
</g>
<!-- Node130&#45;&gt;Node131 -->
<g id="edge39" class="edge"><title>Node130&#45;&gt;Node131</title>
<path fill="none" stroke="midnightblue" d="M1159.74,-302.756C1176.06,-300.008 1193.67,-297.223 1210,-295 1244.91,-290.25 1283.7,-286.074 1316.59,-282.856"/>
<polygon fill="midnightblue" stroke="midnightblue" points="1159.03,-299.326 1149.77,-304.457 1160.21,-306.226 1159.03,-299.326"/>
</g>
<!-- Node132 -->
<g id="node35" class="node"><title>Node132</title>
<g id="a_node35"><a xlink:href="server_8h.html#a8f5eff6dda04d2f984da8bafd567f140" target="_top" xlink:title="spork">
<polygon fill="white" stroke="black" points="1225,-304.5 1225,-323.5 1266,-323.5 1266,-304.5 1225,-304.5"/>
<text text-anchor="middle" x="1245.5" y="-311.5" font-family="Helvetica,sans-Serif" font-size="10.00">spork</text>
</a>
</g>
</g>
<!-- Node130&#45;&gt;Node132 -->
<g id="edge41" class="edge"><title>Node130&#45;&gt;Node132</title>
<path fill="none" stroke="midnightblue" d="M1184.11,-314C1199.36,-314 1213.82,-314 1224.77,-314"/>
<polygon fill="midnightblue" stroke="midnightblue" points="1184.01,-310.5 1174.01,-314 1184.01,-317.5 1184.01,-310.5"/>
</g>
<!-- Node131&#45;&gt;Node123 -->
<g id="edge40" class="edge"><title>Node131&#45;&gt;Node123</title>
<path fill="none" stroke="midnightblue" d="M1451.48,-264.375C1477.72,-258.927 1508.56,-252.523 1533.29,-247.389"/>
<polygon fill="midnightblue" stroke="midnightblue" points="1450.76,-260.951 1441.68,-266.411 1452.18,-267.805 1450.76,-260.951"/>
</g>
<!-- Node132&#45;&gt;Node131 -->
<g id="edge42" class="edge"><title>Node132&#45;&gt;Node131</title>
<path fill="none" stroke="midnightblue" d="M1276.18,-305.861C1288.76,-302.449 1303.58,-298.475 1317,-295 1329.19,-291.844 1342.5,-288.503 1354.54,-285.517"/>
<polygon fill="midnightblue" stroke="midnightblue" points="1274.95,-302.567 1266.22,-308.572 1276.79,-309.322 1274.95,-302.567"/>
</g>
<!-- Node133 -->
<g id="node36" class="node"><title>Node133</title>
<g id="a_node36"><a xlink:href="class_c_spork_manager.html#a599d088218de9d242e4dc5cb17dd310b" target="_top" xlink:title="CSporkManager::SetPrivKey">
<polygon fill="white" stroke="black" points="1508,-304.5 1508,-323.5 1651,-323.5 1651,-304.5 1508,-304.5"/>
<text text-anchor="middle" x="1579.5" y="-311.5" font-family="Helvetica,sans-Serif" font-size="10.00">CSporkManager::SetPrivKey</text>
</a>
</g>
</g>
<!-- Node132&#45;&gt;Node133 -->
<g id="edge43" class="edge"><title>Node132&#45;&gt;Node133</title>
<path fill="none" stroke="midnightblue" d="M1276.13,-323.847C1288.6,-327.501 1303.35,-331.193 1317,-333 1385.29,-342.041 1403.38,-339.073 1472,-333 1492.95,-331.146 1515.96,-327.277 1535.21,-323.512"/>
<polygon fill="midnightblue" stroke="midnightblue" points="1276.86,-320.409 1266.27,-320.829 1274.81,-327.103 1276.86,-320.409"/>
</g>
<!-- Node134 -->
<g id="node37" class="node"><title>Node134</title>
<g id="a_node37"><a xlink:href="class_c_spork_manager.html#a1277aeae7d50a0473c85a5a062d364cb" target="_top" xlink:title="CSporkManager::UpdateSpork">
<polygon fill="white" stroke="black" points="1319.5,-304.5 1319.5,-323.5 1469.5,-323.5 1469.5,-304.5 1319.5,-304.5"/>
<text text-anchor="middle" x="1394.5" y="-311.5" font-family="Helvetica,sans-Serif" font-size="10.00">CSporkManager::UpdateSpork</text>
</a>
</g>
</g>
<!-- Node132&#45;&gt;Node134 -->
<g id="edge45" class="edge"><title>Node132&#45;&gt;Node134</title>
<path fill="none" stroke="midnightblue" d="M1276.29,-308.449C1288.83,-307.662 1304.03,-307.263 1319.28,-307.25"/>
<polygon fill="midnightblue" stroke="midnightblue" points="1275.72,-304.982 1266.02,-309.24 1276.26,-311.961 1275.72,-304.982"/>
</g>
<!-- Node133&#45;&gt;Node106 -->
<g id="edge44" class="edge"><title>Node133&#45;&gt;Node106</title>
<path fill="none" stroke="midnightblue" d="M1659.27,-303.048C1731.9,-292.571 1842.56,-275.642 1938,-257 1956.93,-253.302 1978.14,-248.366 1994.25,-244.452"/>
<polygon fill="midnightblue" stroke="midnightblue" points="1658.69,-299.597 1649.29,-304.483 1659.68,-306.526 1658.69,-299.597"/>
</g>
<!-- Node134&#45;&gt;Node132 -->
<g id="edge46" class="edge"><title>Node134&#45;&gt;Node132</title>
<path fill="none" stroke="midnightblue" d="M1309.15,-320.684C1292.98,-320.487 1277.53,-319.845 1266.02,-318.76"/>
<polygon fill="midnightblue" stroke="midnightblue" points="1309.26,-324.185 1319.28,-320.75 1309.3,-317.185 1309.26,-324.185"/>
</g>
<!-- Node136 -->
<g id="node39" class="node"><title>Node136</title>
<g id="a_node39"><a xlink:href="miner_8h.html#ac8f34678ed590db1325b261c708f2626" target="_top" xlink:title="Generate a new block, without valid proof&#45;of&#45;work. ">
<polygon fill="white" stroke="black" points="880.5,-38.5 880.5,-57.5 971.5,-57.5 971.5,-38.5 880.5,-38.5"/>
<text text-anchor="middle" x="926" y="-45.5" font-family="Helvetica,sans-Serif" font-size="10.00">CreateNewBlock</text>
</a>
</g>
</g>
<!-- Node135&#45;&gt;Node136 -->
<g id="edge49" class="edge"><title>Node135&#45;&gt;Node136</title>
<path fill="none" stroke="midnightblue" d="M841.152,-48C854.234,-48 867.988,-48 880.487,-48"/>
<polygon fill="midnightblue" stroke="midnightblue" points="840.841,-44.5001 830.841,-48 840.841,-51.5001 840.841,-44.5001"/>
</g>
<!-- Node137 -->
<g id="node40" class="node"><title>Node137</title>
<g id="a_node40"><a xlink:href="server_8h.html#a054ca23f5d86a8ca30138464ba10008c" target="_top" xlink:title="getblocktemplate">
<polygon fill="white" stroke="black" points="1051,-0.5 1051,-19.5 1142,-19.5 1142,-0.5 1051,-0.5"/>
<text text-anchor="middle" x="1096.5" y="-7.5" font-family="Helvetica,sans-Serif" font-size="10.00">getblocktemplate</text>
</a>
</g>
</g>
<!-- Node135&#45;&gt;Node137 -->
<g id="edge53" class="edge"><title>Node135&#45;&gt;Node137</title>
<path fill="none" stroke="midnightblue" d="M831.859,-36.1933C843.9,-33.4926 856.878,-30.8701 869,-29 931.594,-19.3432 1004.73,-14.3268 1050.59,-11.928"/>
<polygon fill="midnightblue" stroke="midnightblue" points="830.962,-32.8081 822.004,-38.4654 832.535,-39.6292 830.962,-32.8081"/>
</g>
<!-- Node136&#45;&gt;Node114 -->
<g id="edge51" class="edge"><title>Node136&#45;&gt;Node114</title>
<path fill="none" stroke="midnightblue" d="M979.378,-59.8123C1009.23,-66.5454 1045.35,-74.6911 1069.3,-80.0912"/>
<polygon fill="midnightblue" stroke="midnightblue" points="980.045,-56.3748 969.52,-57.589 978.505,-63.2033 980.045,-56.3748"/>
</g>
<!-- Node136&#45;&gt;Node116 -->
<g id="edge50" class="edge"><title>Node136&#45;&gt;Node116</title>
<path fill="none" stroke="midnightblue" d="M981.848,-43.0992C1033.33,-40.578 1111.56,-42.1796 1174,-67 1200.04,-77.3487 1223.95,-100.863 1236.1,-114.232"/>
<polygon fill="midnightblue" stroke="midnightblue" points="981.391,-39.6193 971.602,-43.6728 981.782,-46.6083 981.391,-39.6193"/>
</g>
<!-- Node136&#45;&gt;Node137 -->
<g id="edge52" class="edge"><title>Node136&#45;&gt;Node137</title>
<path fill="none" stroke="midnightblue" d="M979.431,-36.1757C1003.19,-30.8184 1030.9,-24.5689 1053.29,-19.5201"/>
<polygon fill="midnightblue" stroke="midnightblue" points="978.505,-32.7967 969.52,-38.411 980.045,-39.6252 978.505,-32.7967"/>
</g>
<!-- Node139 -->
<g id="node42" class="node"><title>Node139</title>
<g id="a_node42"><a xlink:href="server_8h.html#a30b96575c158ca0465dbdb25705c4ca9" target="_top" xlink:title="verifychain">
<polygon fill="white" stroke="black" points="607.5,-57.5 607.5,-76.5 671.5,-76.5 671.5,-57.5 607.5,-57.5"/>
<text text-anchor="middle" x="639.5" y="-64.5" font-family="Helvetica,sans-Serif" font-size="10.00">verifychain</text>
</a>
</g>
</g>
<!-- Node138&#45;&gt;Node139 -->
<g id="edge55" class="edge"><title>Node138&#45;&gt;Node139</title>
<path fill="none" stroke="midnightblue" d="M554.129,-67C572.513,-67 591.74,-67 607.188,-67"/>
<polygon fill="midnightblue" stroke="midnightblue" points="554.032,-63.5001 544.032,-67 554.032,-70.5001 554.032,-63.5001"/>
</g>
</g>
</svg>
