<?xml version="1.0" encoding="UTF-8" standalone="no"?>
<!DOCTYPE svg PUBLIC "-//W3C//DTD SVG 1.1//EN"
 "http://www.w3.org/Graphics/SVG/1.1/DTD/svg11.dtd">
<!-- Generated by graphviz version 2.38.0 (20140413.2041)
 -->
<!-- Title: CBlockIndex::GetBlockHeader Pages: 1 -->
<svg width="283pt" height="104pt"
 viewBox="0.00 0.00 283.00 104.00" xmlns="http://www.w3.org/2000/svg" xmlns:xlink="http://www.w3.org/1999/xlink">
<g id="graph0" class="graph" transform="scale(1 1) rotate(0) translate(4 100)">
<title>CBlockIndex::GetBlockHeader</title>
<polygon fill="white" stroke="none" points="-4,4 -4,-100 279,-100 279,4 -4,4"/>
<!-- Node284 -->
<g id="node1" class="node"><title>Node284</title>
<polygon fill="#bfbfbf" stroke="black" points="0,-38.5 0,-57.5 151,-57.5 151,-38.5 0,-38.5"/>
<text text-anchor="middle" x="75.5" y="-45.5" font-family="Helvetica,sans-Serif" font-size="10.00">CBlockIndex::GetBlockHeader</text>
</g>
<!-- Node285 -->
<g id="node2" class="node"><title>Node285</title>
<g id="a_node2"><a xlink:href="server_8h.html#ac61335dee09545c4069daba061dfc780" target="_top" xlink:title="getblockheader">
<polygon fill="white" stroke="black" points="189.5,-76.5 189.5,-95.5 272.5,-95.5 272.5,-76.5 189.5,-76.5"/>
<text text-anchor="middle" x="231" y="-83.5" font-family="Helvetica,sans-Serif" font-size="10.00">getblockheader</text>
</a>
</g>
</g>
<!-- Node284&#45;&gt;Node285 -->
<g id="edge1" class="edge"><title>Node284&#45;&gt;Node285</title>
<path fill="none" stroke="midnightblue" d="M125.135,-60.04C146.58,-65.3488 171.423,-71.4988 191.544,-76.4799"/>
<polygon fill="midnightblue" stroke="midnightblue" points="125.783,-56.5947 115.235,-57.589 124.1,-63.3896 125.783,-56.5947"/>
</g>
<!-- Node286 -->
<g id="node3" class="node"><title>Node286</title>
<g id="a_node3"><a xlink:href="server_8h.html#a19b979ff4a0ba17c22baf73d950ed5f1" target="_top" xlink:title="getblockheaders">
<polygon fill="white" stroke="black" points="187,-38.5 187,-57.5 275,-57.5 275,-38.5 187,-38.5"/>
<text text-anchor="middle" x="231" y="-45.5" font-family="Helvetica,sans-Serif" font-size="10.00">getblockheaders</text>
</a>
</g>
</g>
<!-- Node284&#45;&gt;Node286 -->
<g id="edge2" class="edge"><title>Node284&#45;&gt;Node286</title>
<path fill="none" stroke="midnightblue" d="M161.019,-48C169.862,-48 178.565,-48 186.654,-48"/>
<polygon fill="midnightblue" stroke="midnightblue" points="161.002,-44.5001 151.002,-48 161.002,-51.5001 161.002,-44.5001"/>
</g>
<!-- Node287 -->
<g id="node4" class="node"><title>Node287</title>
<g id="a_node4"><a xlink:href="rest_8cpp.html#a6155083969f391810ef103732f50793a" target="_top" xlink:title="rest_headers">
<polygon fill="white" stroke="black" points="194.5,-0.5 194.5,-19.5 267.5,-19.5 267.5,-0.5 194.5,-0.5"/>
<text text-anchor="middle" x="231" y="-7.5" font-family="Helvetica,sans-Serif" font-size="10.00">rest_headers</text>
</a>
</g>
</g>
<!-- Node284&#45;&gt;Node287 -->
<g id="edge3" class="edge"><title>Node284&#45;&gt;Node287</title>
<path fill="none" stroke="midnightblue" d="M124.955,-36.0046C147.479,-30.4288 173.783,-23.917 194.434,-18.8045"/>
<polygon fill="midnightblue" stroke="midnightblue" points="124.1,-32.6104 115.235,-38.411 125.783,-39.4053 124.1,-32.6104"/>
</g>
</g>
</svg>
