<?xml version="1.0" encoding="UTF-8" standalone="no"?>
<!DOCTYPE svg PUBLIC "-//W3C//DTD SVG 1.1//EN"
 "http://www.w3.org/Graphics/SVG/1.1/DTD/svg11.dtd">
<!-- Generated by graphviz version 2.38.0 (20140413.2041)
 -->
<!-- Title: GUIUtil::TableViewLastColumnResizingFixer::connectViewHeadersSignals Pages: 1 -->
<!--zoomable 222 -->
<svg id="main" version="1.1" xmlns="http://www.w3.org/2000/svg" xmlns:xlink="http://www.w3.org/1999/xlink" xml:space="preserve" onload="init(evt)">
<style type="text/css"><![CDATA[
.edge:hover path { stroke: red; }
.edge:hover polygon { stroke: red; fill: red; }
]]></style>
<script type="text/javascript"><![CDATA[
var edges = document.getElementsByTagName('g');
if (edges && edges.length) {
  for (var i=0;i<edges.length;i++) {
    if (edges[i].id.substr(0,4)=='edge') {
      edges[i].setAttribute('class','edge');
    }
  }
}
]]></script>
        <defs>
                <circle id="rim" cx="0" cy="0" r="7"/>
                <circle id="rim2" cx="0" cy="0" r="3.5"/>
                <g id="zoomPlus">
                        <use xlink:href="#rim" fill="#404040">
                                <set attributeName="fill" to="#808080" begin="zoomplus.mouseover" end="zoomplus.mouseout"/>
                        </use>
                        <path d="M-4,0h8M0,-4v8" fill="none" stroke="white" stroke-width="1.5" pointer-events="none"/>
                </g>
                <g id="zoomMin">
                        <use xlink:href="#rim" fill="#404040">
                                <set attributeName="fill" to="#808080" begin="zoomminus.mouseover" end="zoomminus.mouseout"/>
                        </use>
                        <path d="M-4,0h8" fill="none" stroke="white" stroke-width="1.5" pointer-events="none"/>
                </g>
                <g id="dirArrow">
                        <path fill="none" stroke="white" stroke-width="1.5" d="M0,-3.0v7 M-2.5,-0.5L0,-3.0L2.5,-0.5"/>
                </g>
               <g id="resetDef">
                       <use xlink:href="#rim2" fill="#404040">
                               <set attributeName="fill" to="#808080" begin="reset.mouseover" end="reset.mouseout"/>
                       </use>
               </g>
        </defs>

<script type="text/javascript">
var viewWidth = 1458;
var viewHeight = 222;
var sectionId = 'dynsection-5';
</script>
<script xlink:href="svgpan.js"/>
<svg id="graph" class="graph">
<g id="viewport">
<title>GUIUtil::TableViewLastColumnResizingFixer::connectViewHeadersSignals</title>
<polygon fill="white" stroke="none" points="-4,4 -4,-217.641 1454,-217.641 1454,4 -4,4"/>
<!-- Node19 -->
<g id="node1" class="node"><title>Node19</title>
<polygon fill="#bfbfbf" stroke="black" points="0,-15.1408 0,-56.1408 176,-56.1408 176,-15.1408 0,-15.1408"/>
<text text-anchor="start" x="8" y="-44.1408" font-family="Helvetica,sans-Serif" font-size="10.00">GUIUtil::TableViewLastColumn</text>
<text text-anchor="start" x="8" y="-33.1408" font-family="Helvetica,sans-Serif" font-size="10.00">ResizingFixer::connectViewHeaders</text>
<text text-anchor="middle" x="88" y="-22.1408" font-family="Helvetica,sans-Serif" font-size="10.00">Signals</text>
</g>
<!-- Node20 -->
<g id="node2" class="node"><title>Node20</title>
<g id="a_node2"><a xlink:href="class_g_u_i_util_1_1_table_view_last_column_resizing_fixer.html#a93f3b32cf06688099875a1c9d2df57f2" target="_top" xlink:title="GUIUtil::TableViewLastColumn\lResizingFixer::on_geometriesChanged">
<polygon fill="white" stroke="black" points="212,-64.6408 212,-94.6408 397,-94.6408 397,-64.6408 212,-64.6408"/>
<text text-anchor="start" x="220" y="-82.6408" font-family="Helvetica,sans-Serif" font-size="10.00">GUIUtil::TableViewLastColumn</text>
<text text-anchor="middle" x="304.5" y="-71.6408" font-family="Helvetica,sans-Serif" font-size="10.00">ResizingFixer::on_geometriesChanged</text>
</a>
</g>
</g>
<!-- Node19&#45;&gt;Node20 -->
<g id="edge1" class="edge"><title>Node19&#45;&gt;Node20</title>
<path fill="none" stroke="midnightblue" d="M176.245,-46.8927C200.486,-51.6068 226.14,-57.0853 248.014,-62.2631"/>
<polygon fill="midnightblue" stroke="midnightblue" points="247.239,-65.6762 257.78,-64.6171 248.879,-58.8711 247.239,-65.6762"/>
</g>
<!-- Node23 -->
<g id="node5" class="node"><title>Node23</title>
<g id="a_node5"><a xlink:href="class_g_u_i_util_1_1_table_view_last_column_resizing_fixer.html#a31422ff98c30c95c01dba5bbb8ccbcae" target="_top" xlink:title="GUIUtil::TableViewLastColumn\lResizingFixer::on_sectionResized">
<polygon fill="white" stroke="black" points="657,-40.6408 657,-70.6408 823,-70.6408 823,-40.6408 657,-40.6408"/>
<text text-anchor="start" x="665" y="-58.6408" font-family="Helvetica,sans-Serif" font-size="10.00">GUIUtil::TableViewLastColumn</text>
<text text-anchor="middle" x="740" y="-47.6408" font-family="Helvetica,sans-Serif" font-size="10.00">ResizingFixer::on_sectionResized</text>
</a>
</g>
</g>
<!-- Node19&#45;&gt;Node23 -->
<g id="edge18" class="edge"><title>Node19&#45;&gt;Node23</title>
<path fill="none" stroke="midnightblue" d="M176.104,-37.2787C281.486,-39.4115 464.279,-43.5952 621,-49.6408 629.324,-49.9619 637.976,-50.3321 646.643,-50.7278"/>
<polygon fill="midnightblue" stroke="midnightblue" points="646.653,-54.2319 656.806,-51.2025 646.98,-47.2396 646.653,-54.2319"/>
</g>
<!-- Node20&#45;&gt;Node19 -->
<g id="edge17" class="edge"><title>Node20&#45;&gt;Node19</title>
<path fill="none" stroke="midnightblue" d="M211.881,-67.5331C197.223,-64.6473 182.166,-61.5084 167.839,-58.3477"/>
<polygon fill="midnightblue" stroke="midnightblue" points="168.573,-54.9255 158.05,-56.1589 167.045,-61.7568 168.573,-54.9255"/>
</g>
<!-- Node21 -->
<g id="node3" class="node"><title>Node21</title>
<g id="a_node3"><a xlink:href="class_g_u_i_util_1_1_table_view_last_column_resizing_fixer.html#a9abbf570cbaad95acfd772ddf712cbbb" target="_top" xlink:title="GUIUtil::TableViewLastColumn\lResizingFixer::getColumnsWidth">
<polygon fill="white" stroke="black" points="1289,-80.6408 1289,-110.641 1450,-110.641 1450,-80.6408 1289,-80.6408"/>
<text text-anchor="start" x="1297" y="-98.6408" font-family="Helvetica,sans-Serif" font-size="10.00">GUIUtil::TableViewLastColumn</text>
<text text-anchor="middle" x="1369.5" y="-87.6408" font-family="Helvetica,sans-Serif" font-size="10.00">ResizingFixer::getColumnsWidth</text>
</a>
</g>
</g>
<!-- Node20&#45;&gt;Node21 -->
<g id="edge2" class="edge"><title>Node20&#45;&gt;Node21</title>
<path fill="none" stroke="midnightblue" d="M333.485,-94.7518C401.083,-129.796 579.483,-213.641 739,-213.641 739,-213.641 739,-213.641 958.5,-213.641 1091.26,-213.641 1128.29,-209.182 1253,-163.641 1284.45,-152.155 1317.04,-132.096 1339.55,-116.731"/>
<polygon fill="midnightblue" stroke="midnightblue" points="1341.74,-119.472 1347.95,-110.892 1337.74,-113.724 1341.74,-119.472"/>
</g>
<!-- Node22 -->
<g id="node4" class="node"><title>Node22</title>
<g id="a_node4"><a xlink:href="class_g_u_i_util_1_1_table_view_last_column_resizing_fixer.html#ae36cd142d60656073928ba6bd05a6661" target="_top" xlink:title="GUIUtil::TableViewLastColumn\lResizingFixer::disconnectViewHeaders\lSignals">
<polygon fill="white" stroke="black" points="433,-59.1408 433,-100.141 621,-100.141 621,-59.1408 433,-59.1408"/>
<text text-anchor="start" x="441" y="-88.1408" font-family="Helvetica,sans-Serif" font-size="10.00">GUIUtil::TableViewLastColumn</text>
<text text-anchor="start" x="441" y="-77.1408" font-family="Helvetica,sans-Serif" font-size="10.00">ResizingFixer::disconnectViewHeaders</text>
<text text-anchor="middle" x="527" y="-66.1408" font-family="Helvetica,sans-Serif" font-size="10.00">Signals</text>
</a>
</g>
</g>
<!-- Node20&#45;&gt;Node22 -->
<g id="edge3" class="edge"><title>Node20&#45;&gt;Node22</title>
<path fill="none" stroke="midnightblue" d="M397.096,-72.9774C405.601,-72.8977 414.258,-72.873 422.857,-72.9033"/>
<polygon fill="midnightblue" stroke="midnightblue" points="422.892,-76.4034 432.913,-72.964 422.934,-69.4036 422.892,-76.4034"/>
</g>
<!-- Node25 -->
<g id="node7" class="node"><title>Node25</title>
<g id="a_node7"><a xlink:href="class_g_u_i_util_1_1_table_view_last_column_resizing_fixer.html#ad0c6ff117107634ae8d37f056d27e711" target="_top" xlink:title="GUIUtil::TableViewLastColumn\lResizingFixer::getAvailableWidth\lForColumn">
<polygon fill="white" stroke="black" points="1092,-26.1408 1092,-67.1408 1253,-67.1408 1253,-26.1408 1092,-26.1408"/>
<text text-anchor="start" x="1100" y="-55.1408" font-family="Helvetica,sans-Serif" font-size="10.00">GUIUtil::TableViewLastColumn</text>
<text text-anchor="start" x="1100" y="-44.1408" font-family="Helvetica,sans-Serif" font-size="10.00">ResizingFixer::getAvailableWidth</text>
<text text-anchor="middle" x="1172.5" y="-33.1408" font-family="Helvetica,sans-Serif" font-size="10.00">ForColumn</text>
</a>
</g>
</g>
<!-- Node20&#45;&gt;Node25 -->
<g id="edge16" class="edge"><title>Node20&#45;&gt;Node25</title>
<path fill="none" stroke="midnightblue" d="M361.321,-64.6367C383.489,-59.1701 409.308,-53.4121 433,-49.6408 664.46,-12.7972 941.917,-27.0413 1081.66,-38.1994"/>
<polygon fill="midnightblue" stroke="midnightblue" points="1081.64,-41.7092 1091.89,-39.0305 1082.21,-34.7322 1081.64,-41.7092"/>
</g>
<!-- Node26 -->
<g id="node8" class="node"><title>Node26</title>
<g id="a_node8"><a xlink:href="class_g_u_i_util_1_1_table_view_last_column_resizing_fixer.html#a284107daa657b2d34a196b886538c02c" target="_top" xlink:title="GUIUtil::TableViewLastColumn\lResizingFixer::resizeColumn">
<polygon fill="white" stroke="black" points="1095.5,-124.641 1095.5,-154.641 1249.5,-154.641 1249.5,-124.641 1095.5,-124.641"/>
<text text-anchor="start" x="1103.5" y="-142.641" font-family="Helvetica,sans-Serif" font-size="10.00">GUIUtil::TableViewLastColumn</text>
<text text-anchor="middle" x="1172.5" y="-131.641" font-family="Helvetica,sans-Serif" font-size="10.00">ResizingFixer::resizeColumn</text>
</a>
</g>
</g>
<!-- Node20&#45;&gt;Node26 -->
<g id="edge15" class="edge"><title>Node20&#45;&gt;Node26</title>
<path fill="none" stroke="midnightblue" d="M361.316,-94.6773C383.483,-100.148 409.303,-105.901 433,-109.641 706.935,-152.874 778.739,-150.639 1056,-144.641 1065.46,-144.436 1075.35,-144.137 1085.19,-143.786"/>
<polygon fill="midnightblue" stroke="midnightblue" points="1085.55,-147.275 1095.41,-143.403 1085.28,-140.28 1085.55,-147.275"/>
</g>
<!-- Node22&#45;&gt;Node20 -->
<g id="edge14" class="edge"><title>Node22&#45;&gt;Node20</title>
<path fill="none" stroke="midnightblue" d="M432.913,-86.3176C424.391,-86.3908 415.729,-86.4091 407.137,-86.3724"/>
<polygon fill="midnightblue" stroke="midnightblue" points="407.12,-82.8723 397.096,-86.3042 407.072,-89.8722 407.12,-82.8723"/>
</g>
<!-- Node22&#45;&gt;Node23 -->
<g id="edge4" class="edge"><title>Node22&#45;&gt;Node23</title>
<path fill="none" stroke="midnightblue" d="M621.162,-69.0442C629.732,-68.0694 638.411,-67.0822 646.971,-66.1086"/>
<polygon fill="midnightblue" stroke="midnightblue" points="647.41,-69.5813 656.95,-64.9735 646.618,-62.6262 647.41,-69.5813"/>
</g>
<!-- Node24 -->
<g id="node6" class="node"><title>Node24</title>
<g id="a_node6"><a xlink:href="class_g_u_i_util_1_1_table_view_last_column_resizing_fixer.html#ac5622cca5767d788033fff5d54629d7f" target="_top" xlink:title="GUIUtil::TableViewLastColumn\lResizingFixer::adjustTableColumnsWidth">
<polygon fill="white" stroke="black" points="859,-78.6408 859,-108.641 1056,-108.641 1056,-78.6408 859,-78.6408"/>
<text text-anchor="start" x="867" y="-96.6408" font-family="Helvetica,sans-Serif" font-size="10.00">GUIUtil::TableViewLastColumn</text>
<text text-anchor="middle" x="957.5" y="-85.6408" font-family="Helvetica,sans-Serif" font-size="10.00">ResizingFixer::adjustTableColumnsWidth</text>
</a>
</g>
</g>
<!-- Node23&#45;&gt;Node24 -->
<g id="edge5" class="edge"><title>Node23&#45;&gt;Node24</title>
<path fill="none" stroke="midnightblue" d="M823.086,-70.1154C835.569,-72.3165 848.54,-74.6037 861.274,-76.8492"/>
<polygon fill="midnightblue" stroke="midnightblue" points="860.966,-80.3488 871.422,-78.6386 862.182,-73.4551 860.966,-80.3488"/>
</g>
<!-- Node23&#45;&gt;Node25 -->
<g id="edge12" class="edge"><title>Node23&#45;&gt;Node25</title>
<path fill="none" stroke="midnightblue" d="M823.241,-53.9215C897.164,-52.376 1005.51,-50.111 1081.68,-48.5186"/>
<polygon fill="midnightblue" stroke="midnightblue" points="1081.81,-52.0167 1091.73,-48.3084 1081.66,-45.0182 1081.81,-52.0167"/>
</g>
<!-- Node23&#45;&gt;Node26 -->
<g id="edge13" class="edge"><title>Node23&#45;&gt;Node26</title>
<path fill="none" stroke="midnightblue" d="M762.883,-70.7082C785.73,-85.5553 823.162,-107.451 859,-117.641 933.486,-138.82 1021.79,-143.246 1085.49,-143.003"/>
<polygon fill="midnightblue" stroke="midnightblue" points="1085.52,-146.502 1095.5,-142.925 1085.47,-139.503 1085.52,-146.502"/>
</g>
<!-- Node24&#45;&gt;Node19 -->
<g id="edge6" class="edge"><title>Node24&#45;&gt;Node19</title>
<path fill="none" stroke="midnightblue" d="M933.058,-78.6406C907.267,-63.1022 864.013,-39.832 823,-30.6408 599.56,19.4332 328.168,-3.25048 186.221,-21.2239"/>
<polygon fill="midnightblue" stroke="midnightblue" points="185.699,-17.7621 176.227,-22.5088 186.591,-24.705 185.699,-17.7621"/>
</g>
<!-- Node24&#45;&gt;Node21 -->
<g id="edge10" class="edge"><title>Node24&#45;&gt;Node21</title>
<path fill="none" stroke="midnightblue" d="M1056.18,-94.1173C1123.63,-94.4463 1212.67,-94.8806 1278.41,-95.2013"/>
<polygon fill="midnightblue" stroke="midnightblue" points="1278.74,-98.7029 1288.75,-95.2518 1278.77,-91.7029 1278.74,-98.7029"/>
</g>
<!-- Node24&#45;&gt;Node22 -->
<g id="edge7" class="edge"><title>Node24&#45;&gt;Node22</title>
<path fill="none" stroke="midnightblue" d="M858.985,-90.4548C791.019,-88.2342 700.491,-85.2764 631.292,-83.0156"/>
<polygon fill="midnightblue" stroke="midnightblue" points="631.351,-79.5157 621.242,-82.6872 631.123,-86.512 631.351,-79.5157"/>
</g>
<!-- Node24&#45;&gt;Node25 -->
<g id="edge8" class="edge"><title>Node24&#45;&gt;Node25</title>
<path fill="none" stroke="midnightblue" d="M1026.48,-78.6405C1044.13,-74.7464 1063.41,-70.4925 1081.98,-66.3946"/>
<polygon fill="midnightblue" stroke="midnightblue" points="1082.9,-69.7758 1091.91,-64.2032 1081.39,-62.9402 1082.9,-69.7758"/>
</g>
<!-- Node24&#45;&gt;Node26 -->
<g id="edge11" class="edge"><title>Node24&#45;&gt;Node26</title>
<path fill="none" stroke="midnightblue" d="M1028.24,-108.703C1048.67,-113.114 1071.15,-117.969 1092.12,-122.499"/>
<polygon fill="midnightblue" stroke="midnightblue" points="1091.45,-125.934 1101.96,-124.623 1092.93,-119.091 1091.45,-125.934"/>
</g>
<!-- Node25&#45;&gt;Node21 -->
<g id="edge9" class="edge"><title>Node25&#45;&gt;Node21</title>
<path fill="none" stroke="midnightblue" d="M1253.1,-66.6416C1268.15,-70.4258 1283.8,-74.3583 1298.54,-78.0611"/>
<polygon fill="midnightblue" stroke="midnightblue" points="1298.03,-81.5406 1308.58,-80.5832 1299.73,-74.7516 1298.03,-81.5406"/>
</g>
</g>
</svg>
        <g id="navigator" transform="translate(0 0)" fill="#404254">
                <rect fill="#f2f5e9" fill-opacity="0.5" stroke="#606060" stroke-width=".5" x="0" y="0" width="60" height="60"/>
                <use id="zoomplus" xlink:href="#zoomPlus" x="17" y="9" onmousedown="handleZoom(evt,'in')"/>
                <use id="zoomminus" xlink:href="#zoomMin" x="42" y="9" onmousedown="handleZoom(evt,'out')"/>
                <use id="reset" xlink:href="#resetDef" x="30" y="36" onmousedown="handleReset()"/>
                <g id="arrowUp" xlink:href="#dirArrow" transform="translate(30 24)" onmousedown="handlePan(0,-1)">
                  <use xlink:href="#rim" fill="#404040">
                        <set attributeName="fill" to="#808080" begin="arrowUp.mouseover" end="arrowUp.mouseout"/>
                  </use>
                  <path fill="none" stroke="white" stroke-width="1.5" d="M0,-3.0v7 M-2.5,-0.5L0,-3.0L2.5,-0.5"/>
                </g>
                <g id="arrowRight" xlink:href="#dirArrow" transform="rotate(90) translate(36 -43)" onmousedown="handlePan(1,0)">
                  <use xlink:href="#rim" fill="#404040">
                        <set attributeName="fill" to="#808080" begin="arrowRight.mouseover" end="arrowRight.mouseout"/>
                  </use>
                  <path fill="none" stroke="white" stroke-width="1.5" d="M0,-3.0v7 M-2.5,-0.5L0,-3.0L2.5,-0.5"/>
                </g>
                <g id="arrowDown" xlink:href="#dirArrow" transform="rotate(180) translate(-30 -48)" onmousedown="handlePan(0,1)">
                  <use xlink:href="#rim" fill="#404040">
                        <set attributeName="fill" to="#808080" begin="arrowDown.mouseover" end="arrowDown.mouseout"/>
                  </use>
                  <path fill="none" stroke="white" stroke-width="1.5" d="M0,-3.0v7 M-2.5,-0.5L0,-3.0L2.5,-0.5"/>
                </g>
                <g id="arrowLeft" xlink:href="#dirArrow" transform="rotate(270) translate(-36 17)" onmousedown="handlePan(-1,0)">
                  <use xlink:href="#rim" fill="#404040">
                        <set attributeName="fill" to="#808080" begin="arrowLeft.mouseover" end="arrowLeft.mouseout"/>
                  </use>
                  <path fill="none" stroke="white" stroke-width="1.5" d="M0,-3.0v7 M-2.5,-0.5L0,-3.0L2.5,-0.5"/>
                </g>
        </g>
        <svg viewBox="0 0 15 15" width="100%" height="30px" preserveAspectRatio="xMaxYMin meet">
         <g id="arrow_out" transform="scale(0.3 0.3)">
          <a xlink:href="class_g_u_i_util_1_1_table_view_last_column_resizing_fixer_ab01fe3dbf021a9306ec74afda41d6f45_cgraph_org.svg" target="_base">
           <rect id="button" ry="5" rx="5" y="6" x="6" height="38" width="38"
                fill="#f2f5e9" fill-opacity="0.5" stroke="#606060" stroke-width="1.0"/>
           <path id="arrow"
             d="M 11.500037,31.436501 C 11.940474,20.09759 22.043105,11.32322 32.158766,21.979434 L 37.068811,17.246167 C 37.068811,17.246167 37.088388,32 37.088388,32 L 22.160133,31.978069 C 22.160133,31.978069 26.997745,27.140456 26.997745,27.140456 C 18.528582,18.264221 13.291696,25.230495 11.500037,31.436501 z"
             style="fill:#404040;"/>
          </a>
         </g>
        </svg>
</svg>
