<?xml version="1.0" encoding="UTF-8" standalone="no"?>
<!DOCTYPE svg PUBLIC "-//W3C//DTD SVG 1.1//EN"
 "http://www.w3.org/Graphics/SVG/1.1/DTD/svg11.dtd">
<!-- Generated by graphviz version 2.38.0 (20140413.2041)
 -->
<!-- Title: prevector::back Pages: 1 -->
<svg width="373pt" height="104pt"
 viewBox="0.00 0.00 373.00 104.00" xmlns="http://www.w3.org/2000/svg" xmlns:xlink="http://www.w3.org/1999/xlink">
<g id="graph0" class="graph" transform="scale(1 1) rotate(0) translate(4 100)">
<title>prevector::back</title>
<polygon fill="white" stroke="none" points="-4,4 -4,-100 369,-100 369,4 -4,4"/>
<!-- Node111 -->
<g id="node1" class="node"><title>Node111</title>
<polygon fill="#bfbfbf" stroke="black" points="0,-57.5 0,-76.5 84,-76.5 84,-57.5 0,-57.5"/>
<text text-anchor="middle" x="42" y="-64.5" font-family="Helvetica,sans-Serif" font-size="10.00">prevector::back</text>
</g>
<!-- Node112 -->
<g id="node2" class="node"><title>Node112</title>
<g id="a_node2"><a xlink:href="classprevector.html#a59f1d7bcbc751cfa0faddd7ffa184846" target="_top" xlink:title="prevector::item_ptr">
<polygon fill="white" stroke="black" points="120,-38.5 120,-57.5 218,-57.5 218,-38.5 120,-38.5"/>
<text text-anchor="middle" x="169" y="-45.5" font-family="Helvetica,sans-Serif" font-size="10.00">prevector::item_ptr</text>
</a>
</g>
</g>
<!-- Node111&#45;&gt;Node112 -->
<g id="edge1" class="edge"><title>Node111&#45;&gt;Node112</title>
<path fill="none" stroke="midnightblue" d="M84.2761,-60.726C92.4541,-59.483 101.182,-58.1563 109.801,-56.8463"/>
<polygon fill="midnightblue" stroke="midnightblue" points="110.468,-60.2852 119.828,-55.3221 109.416,-53.3647 110.468,-60.2852"/>
</g>
<!-- Node116 -->
<g id="node6" class="node"><title>Node116</title>
<g id="a_node6"><a xlink:href="classprevector.html#a626f7d206dbc24e5610631809762758b" target="_top" xlink:title="prevector::size">
<polygon fill="white" stroke="black" points="128.5,-76.5 128.5,-95.5 209.5,-95.5 209.5,-76.5 128.5,-76.5"/>
<text text-anchor="middle" x="169" y="-83.5" font-family="Helvetica,sans-Serif" font-size="10.00">prevector::size</text>
</a>
</g>
</g>
<!-- Node111&#45;&gt;Node116 -->
<g id="edge5" class="edge"><title>Node111&#45;&gt;Node116</title>
<path fill="none" stroke="midnightblue" d="M84.2761,-73.274C95.1652,-74.9291 107.03,-76.7325 118.312,-78.4475"/>
<polygon fill="midnightblue" stroke="midnightblue" points="118.053,-81.9482 128.465,-79.9907 119.105,-75.0276 118.053,-81.9482"/>
</g>
<!-- Node113 -->
<g id="node3" class="node"><title>Node113</title>
<g id="a_node3"><a xlink:href="classprevector.html#a933e204a7e29c6bbc85479d023c00ff8" target="_top" xlink:title="prevector::is_direct">
<polygon fill="white" stroke="black" points="259.5,-76.5 259.5,-95.5 359.5,-95.5 359.5,-76.5 259.5,-76.5"/>
<text text-anchor="middle" x="309.5" y="-83.5" font-family="Helvetica,sans-Serif" font-size="10.00">prevector::is_direct</text>
</a>
</g>
</g>
<!-- Node112&#45;&gt;Node113 -->
<g id="edge2" class="edge"><title>Node112&#45;&gt;Node113</title>
<path fill="none" stroke="midnightblue" d="M204.949,-57.589C222.828,-62.4944 244.788,-68.5196 263.878,-73.7571"/>
<polygon fill="midnightblue" stroke="midnightblue" points="262.992,-77.1434 273.562,-76.4141 264.844,-70.3928 262.992,-77.1434"/>
</g>
<!-- Node114 -->
<g id="node4" class="node"><title>Node114</title>
<g id="a_node4"><a xlink:href="classprevector.html#a20150a43dd87c33f0e855a55bd3418e8" target="_top" xlink:title="prevector::direct_ptr">
<polygon fill="white" stroke="black" points="257.5,-38.5 257.5,-57.5 361.5,-57.5 361.5,-38.5 257.5,-38.5"/>
<text text-anchor="middle" x="309.5" y="-45.5" font-family="Helvetica,sans-Serif" font-size="10.00">prevector::direct_ptr</text>
</a>
</g>
</g>
<!-- Node112&#45;&gt;Node114 -->
<g id="edge3" class="edge"><title>Node112&#45;&gt;Node114</title>
<path fill="none" stroke="midnightblue" d="M218.052,-48C227.446,-48 237.415,-48 247.173,-48"/>
<polygon fill="midnightblue" stroke="midnightblue" points="247.231,-51.5001 257.231,-48 247.231,-44.5001 247.231,-51.5001"/>
</g>
<!-- Node115 -->
<g id="node5" class="node"><title>Node115</title>
<g id="a_node5"><a xlink:href="classprevector.html#ae3343cc65be9fd678b4a6f8305624de6" target="_top" xlink:title="prevector::indirect_ptr">
<polygon fill="white" stroke="black" points="254,-0.5 254,-19.5 365,-19.5 365,-0.5 254,-0.5"/>
<text text-anchor="middle" x="309.5" y="-7.5" font-family="Helvetica,sans-Serif" font-size="10.00">prevector::indirect_ptr</text>
</a>
</g>
</g>
<!-- Node112&#45;&gt;Node115 -->
<g id="edge4" class="edge"><title>Node112&#45;&gt;Node115</title>
<path fill="none" stroke="midnightblue" d="M204.949,-38.411C222.828,-33.5056 244.788,-27.4804 263.878,-22.2429"/>
<polygon fill="midnightblue" stroke="midnightblue" points="264.844,-25.6072 273.562,-19.5859 262.992,-18.8566 264.844,-25.6072"/>
</g>
<!-- Node116&#45;&gt;Node113 -->
<g id="edge6" class="edge"><title>Node116&#45;&gt;Node113</title>
<path fill="none" stroke="midnightblue" d="M209.689,-86C222.046,-86 235.949,-86 249.339,-86"/>
<polygon fill="midnightblue" stroke="midnightblue" points="249.443,-89.5001 259.443,-86 249.443,-82.5001 249.443,-89.5001"/>
</g>
</g>
</svg>
