<?xml version="1.0" encoding="UTF-8" standalone="no"?>
<!DOCTYPE svg PUBLIC "-//W3C//DTD SVG 1.1//EN"
 "http://www.w3.org/Graphics/SVG/1.1/DTD/svg11.dtd">
<!-- Generated by graphviz version 2.38.0 (20140413.2041)
 -->
<!-- Title: CSuperblockManager::IsSuperblockTriggered Pages: 1 -->
<!--zoomable 371 -->
<svg id="main" version="1.1" xmlns="http://www.w3.org/2000/svg" xmlns:xlink="http://www.w3.org/1999/xlink" xml:space="preserve" onload="init(evt)">
<style type="text/css"><![CDATA[
.edge:hover path { stroke: red; }
.edge:hover polygon { stroke: red; fill: red; }
]]></style>
<script type="text/javascript"><![CDATA[
var edges = document.getElementsByTagName('g');
if (edges && edges.length) {
  for (var i=0;i<edges.length;i++) {
    if (edges[i].id.substr(0,4)=='edge') {
      edges[i].setAttribute('class','edge');
    }
  }
}
]]></script>
        <defs>
                <circle id="rim" cx="0" cy="0" r="7"/>
                <circle id="rim2" cx="0" cy="0" r="3.5"/>
                <g id="zoomPlus">
                        <use xlink:href="#rim" fill="#404040">
                                <set attributeName="fill" to="#808080" begin="zoomplus.mouseover" end="zoomplus.mouseout"/>
                        </use>
                        <path d="M-4,0h8M0,-4v8" fill="none" stroke="white" stroke-width="1.5" pointer-events="none"/>
                </g>
                <g id="zoomMin">
                        <use xlink:href="#rim" fill="#404040">
                                <set attributeName="fill" to="#808080" begin="zoomminus.mouseover" end="zoomminus.mouseout"/>
                        </use>
                        <path d="M-4,0h8" fill="none" stroke="white" stroke-width="1.5" pointer-events="none"/>
                </g>
                <g id="dirArrow">
                        <path fill="none" stroke="white" stroke-width="1.5" d="M0,-3.0v7 M-2.5,-0.5L0,-3.0L2.5,-0.5"/>
                </g>
               <g id="resetDef">
                       <use xlink:href="#rim2" fill="#404040">
                               <set attributeName="fill" to="#808080" begin="reset.mouseover" end="reset.mouseout"/>
                       </use>
               </g>
        </defs>

<script type="text/javascript">
var viewWidth = 2480;
var viewHeight = 371;
var sectionId = 'dynsection-7';
</script>
<script xlink:href="svgpan.js"/>
<svg id="graph" class="graph">
<g id="viewport">
<title>CSuperblockManager::IsSuperblockTriggered</title>
<polygon fill="white" stroke="none" points="-4,4 -4,-367.369 2476,-367.369 2476,4 -4,4"/>
<!-- Node284 -->
<g id="node1" class="node"><title>Node284</title>
<polygon fill="#bfbfbf" stroke="black" points="0,-103.937 0,-133.937 120,-133.937 120,-103.937 0,-103.937"/>
<text text-anchor="start" x="8" y="-121.937" font-family="Helvetica,sans-Serif" font-size="10.00">CSuperblockManager</text>
<text text-anchor="middle" x="60" y="-110.937" font-family="Helvetica,sans-Serif" font-size="10.00">::IsSuperblockTriggered</text>
</g>
<!-- Node285 -->
<g id="node2" class="node"><title>Node285</title>
<g id="a_node2"><a xlink:href="masternode-payments_8h.html#a1a60010ef73db581ad54a165770391c6" target="_top" xlink:title="FillBlockPayments">
<polygon fill="white" stroke="black" points="333,-52.437 333,-71.437 431,-71.437 431,-52.437 333,-52.437"/>
<text text-anchor="middle" x="382" y="-59.437" font-family="Helvetica,sans-Serif" font-size="10.00">FillBlockPayments</text>
</a>
</g>
</g>
<!-- Node284&#45;&gt;Node285 -->
<g id="edge1" class="edge"><title>Node284&#45;&gt;Node285</title>
<path fill="none" stroke="midnightblue" d="M101.287,-99.7516C117.873,-92.6708 137.504,-85.3141 156,-80.937 215.892,-66.7635 286.948,-62.8285 332.949,-61.9047"/>
<polygon fill="midnightblue" stroke="midnightblue" points="99.6589,-96.6438 91.9053,-103.864 102.469,-103.055 99.6589,-96.6438"/>
</g>
<!-- Node300 -->
<g id="node17" class="node"><title>Node300</title>
<g id="a_node17"><a xlink:href="masternode-payments_8h.html#a7828ab0b9a1302db35b658f727b260e1" target="_top" xlink:title="GetRequiredPaymentsString">
<polygon fill="white" stroke="black" points="156,-90.437 156,-109.437 297,-109.437 297,-90.437 156,-90.437"/>
<text text-anchor="middle" x="226.5" y="-97.437" font-family="Helvetica,sans-Serif" font-size="10.00">GetRequiredPaymentsString</text>
</a>
</g>
</g>
<!-- Node284&#45;&gt;Node300 -->
<g id="edge17" class="edge"><title>Node284&#45;&gt;Node300</title>
<path fill="none" stroke="midnightblue" d="M130.502,-110.909C138.888,-109.941 147.454,-108.951 155.842,-107.983"/>
<polygon fill="midnightblue" stroke="midnightblue" points="129.921,-107.453 120.388,-112.078 130.724,-114.407 129.921,-107.453"/>
</g>
<!-- Node302 -->
<g id="node19" class="node"><title>Node302</title>
<g id="a_node19"><a xlink:href="masternode-payments_8h.html#a26df8e859f425afc3af5448f582c8dd5" target="_top" xlink:title="IsBlockPayeeValid">
<polygon fill="white" stroke="black" points="177,-166.437 177,-185.437 276,-185.437 276,-166.437 177,-166.437"/>
<text text-anchor="middle" x="226.5" y="-173.437" font-family="Helvetica,sans-Serif" font-size="10.00">IsBlockPayeeValid</text>
</a>
</g>
</g>
<!-- Node284&#45;&gt;Node302 -->
<g id="edge19" class="edge"><title>Node284&#45;&gt;Node302</title>
<path fill="none" stroke="midnightblue" d="M105.375,-137.899C121.206,-144.341 139.264,-151.322 156,-156.937 166.08,-160.319 177.129,-163.549 187.391,-166.357"/>
<polygon fill="midnightblue" stroke="midnightblue" points="106.416,-134.543 95.8365,-133.976 103.753,-141.017 106.416,-134.543"/>
</g>
<!-- Node328 -->
<g id="node45" class="node"><title>Node328</title>
<g id="a_node45"><a xlink:href="masternode-payments_8h.html#ab5c4de235616a5c435b32167d76f1efe" target="_top" xlink:title="TODO: all 4 functions do not belong here really, they should be refactored/moved somewhere (main...">
<polygon fill="white" stroke="black" points="178.5,-128.437 178.5,-147.437 274.5,-147.437 274.5,-128.437 178.5,-128.437"/>
<text text-anchor="middle" x="226.5" y="-135.437" font-family="Helvetica,sans-Serif" font-size="10.00">IsBlockValueValid</text>
</a>
</g>
</g>
<!-- Node284&#45;&gt;Node328 -->
<g id="edge59" class="edge"><title>Node284&#45;&gt;Node328</title>
<path fill="none" stroke="midnightblue" d="M130.345,-126.946C146.516,-128.814 163.369,-130.761 178.32,-132.488"/>
<polygon fill="midnightblue" stroke="midnightblue" points="130.724,-123.467 120.388,-125.796 129.921,-130.421 130.724,-123.467"/>
</g>
<!-- Node286 -->
<g id="node3" class="node"><title>Node286</title>
<g id="a_node3"><a xlink:href="miner_8h.html#ac8f34678ed590db1325b261c708f2626" target="_top" xlink:title="Generate a new block, without valid proof&#45;of&#45;work. ">
<polygon fill="white" stroke="black" points="627,-52.437 627,-71.437 718,-71.437 718,-52.437 627,-52.437"/>
<text text-anchor="middle" x="672.5" y="-59.437" font-family="Helvetica,sans-Serif" font-size="10.00">CreateNewBlock</text>
</a>
</g>
</g>
<!-- Node285&#45;&gt;Node286 -->
<g id="edge2" class="edge"><title>Node285&#45;&gt;Node286</title>
<path fill="none" stroke="midnightblue" d="M441.548,-61.937C496.359,-61.937 577.068,-61.937 626.852,-61.937"/>
<polygon fill="midnightblue" stroke="midnightblue" points="441.288,-58.4371 431.288,-61.937 441.288,-65.4371 441.288,-58.4371"/>
</g>
<!-- Node287 -->
<g id="node4" class="node"><title>Node287</title>
<g id="a_node4"><a xlink:href="miner_8cpp.html#a17c61f964b27cc5060cd7f9b0efb3607" target="_top" xlink:title="BitcoinMiner">
<polygon fill="white" stroke="black" points="1243,-128.437 1243,-147.437 1314,-147.437 1314,-128.437 1243,-128.437"/>
<text text-anchor="middle" x="1278.5" y="-135.437" font-family="Helvetica,sans-Serif" font-size="10.00">BitcoinMiner</text>
</a>
</g>
</g>
<!-- Node286&#45;&gt;Node287 -->
<g id="edge3" class="edge"><title>Node286&#45;&gt;Node287</title>
<path fill="none" stroke="midnightblue" d="M710.151,-49.2361C800.425,-20.2649 1038.4,41.9 1207,-42.937 1243.33,-61.2156 1265.63,-108.049 1273.88,-128.332"/>
<polygon fill="midnightblue" stroke="midnightblue" points="708.802,-45.9946 700.384,-52.4275 710.977,-52.6484 708.802,-45.9946"/>
</g>
<!-- Node298 -->
<g id="node15" class="node"><title>Node298</title>
<g id="a_node15"><a xlink:href="server_8h.html#afc5f2c0cbe40a2f876b46df2929cf359" target="_top" xlink:title="generate">
<polygon fill="white" stroke="black" points="1102.5,-52.437 1102.5,-71.437 1156.5,-71.437 1156.5,-52.437 1102.5,-52.437"/>
<text text-anchor="middle" x="1129.5" y="-59.437" font-family="Helvetica,sans-Serif" font-size="10.00">generate</text>
</a>
</g>
</g>
<!-- Node286&#45;&gt;Node298 -->
<g id="edge15" class="edge"><title>Node286&#45;&gt;Node298</title>
<path fill="none" stroke="midnightblue" d="M728.431,-61.937C826.974,-61.937 1030.23,-61.937 1102.39,-61.937"/>
<polygon fill="midnightblue" stroke="midnightblue" points="728.372,-58.4371 718.372,-61.937 728.372,-65.4371 728.372,-58.4371"/>
</g>
<!-- Node299 -->
<g id="node16" class="node"><title>Node299</title>
<g id="a_node16"><a xlink:href="server_8h.html#a054ca23f5d86a8ca30138464ba10008c" target="_top" xlink:title="getblocktemplate">
<polygon fill="white" stroke="black" points="771.5,-90.437 771.5,-109.437 862.5,-109.437 862.5,-90.437 771.5,-90.437"/>
<text text-anchor="middle" x="817" y="-97.437" font-family="Helvetica,sans-Serif" font-size="10.00">getblocktemplate</text>
</a>
</g>
</g>
<!-- Node286&#45;&gt;Node299 -->
<g id="edge16" class="edge"><title>Node286&#45;&gt;Node299</title>
<path fill="none" stroke="midnightblue" d="M719.153,-74.1112C738.858,-79.3657 761.575,-85.4236 780.053,-90.3511"/>
<polygon fill="midnightblue" stroke="midnightblue" points="720.023,-70.7209 709.459,-71.526 718.219,-77.4845 720.023,-70.7209"/>
</g>
<!-- Node288 -->
<g id="node5" class="node"><title>Node288</title>
<g id="a_node5"><a xlink:href="miner_8h.html#a5dd1df3c97c260735ad08a808db2115c" target="_top" xlink:title="Run the miner threads. ">
<polygon fill="white" stroke="black" points="1866.5,-128.437 1866.5,-147.437 1958.5,-147.437 1958.5,-128.437 1866.5,-128.437"/>
<text text-anchor="middle" x="1912.5" y="-135.437" font-family="Helvetica,sans-Serif" font-size="10.00">GenerateBitcoins</text>
</a>
</g>
</g>
<!-- Node287&#45;&gt;Node288 -->
<g id="edge4" class="edge"><title>Node287&#45;&gt;Node288</title>
<path fill="none" stroke="midnightblue" d="M1324.71,-137.937C1441.13,-137.937 1750.22,-137.937 1866.46,-137.937"/>
<polygon fill="midnightblue" stroke="midnightblue" points="1324.38,-134.437 1314.38,-137.937 1324.38,-141.437 1324.38,-134.437"/>
</g>
<!-- Node289 -->
<g id="node6" class="node"><title>Node289</title>
<g id="a_node6"><a xlink:href="init_8h.html#a6f0784aa332573f949b0975205572b28" target="_top" xlink:title="Initialize Dash Core. ">
<polygon fill="white" stroke="black" points="2027.5,-204.437 2027.5,-223.437 2080.5,-223.437 2080.5,-204.437 2027.5,-204.437"/>
<text text-anchor="middle" x="2054" y="-211.437" font-family="Helvetica,sans-Serif" font-size="10.00">AppInit2</text>
</a>
</g>
</g>
<!-- Node288&#45;&gt;Node289 -->
<g id="edge5" class="edge"><title>Node288&#45;&gt;Node289</title>
<path fill="none" stroke="midnightblue" d="M1957.45,-150.987C1962.1,-152.802 1966.7,-154.789 1971,-156.937 1997.99,-170.419 2026.17,-191.906 2041.46,-204.289"/>
<polygon fill="midnightblue" stroke="midnightblue" points="1958.5,-147.643 1947.9,-147.508 1956.1,-154.22 1958.5,-147.643"/>
</g>
<!-- Node293 -->
<g id="node10" class="node"><title>Node293</title>
<g id="a_node10"><a xlink:href="init_8h.html#a5cb3db83cb0ba2e421f651a1ee1f2cfe" target="_top" xlink:title="Preparing steps before shutting down or restarting the wallet. ">
<polygon fill="white" stroke="black" points="2007,-90.437 2007,-109.437 2101,-109.437 2101,-90.437 2007,-90.437"/>
<text text-anchor="middle" x="2054" y="-97.437" font-family="Helvetica,sans-Serif" font-size="10.00">PrepareShutdown</text>
</a>
</g>
</g>
<!-- Node288&#45;&gt;Node293 -->
<g id="edge9" class="edge"><title>Node288&#45;&gt;Node293</title>
<path fill="none" stroke="midnightblue" d="M1958.46,-125.691C1977.68,-120.453 1999.8,-114.428 2017.81,-109.523"/>
<polygon fill="midnightblue" stroke="midnightblue" points="1957.43,-122.343 1948.7,-128.348 1959.27,-129.097 1957.43,-122.343"/>
</g>
<!-- Node297 -->
<g id="node14" class="node"><title>Node297</title>
<g id="a_node14"><a xlink:href="server_8h.html#ae13fce5b0e4a07b7d116242b3a0e39b8" target="_top" xlink:title="setgenerate">
<polygon fill="white" stroke="black" points="2020,-128.437 2020,-147.437 2088,-147.437 2088,-128.437 2020,-128.437"/>
<text text-anchor="middle" x="2054" y="-135.437" font-family="Helvetica,sans-Serif" font-size="10.00">setgenerate</text>
</a>
</g>
</g>
<!-- Node288&#45;&gt;Node297 -->
<g id="edge14" class="edge"><title>Node288&#45;&gt;Node297</title>
<path fill="none" stroke="midnightblue" d="M1968.79,-137.937C1986.08,-137.937 2004.6,-137.937 2019.86,-137.937"/>
<polygon fill="midnightblue" stroke="midnightblue" points="1968.79,-134.437 1958.79,-137.937 1968.79,-141.437 1968.79,-134.437"/>
</g>
<!-- Node290 -->
<g id="node7" class="node"><title>Node290</title>
<g id="a_node7"><a xlink:href="dashd_8cpp.html#ac59316b767e6984e1285f0531275286b" target="_top" xlink:title="AppInit">
<polygon fill="white" stroke="black" points="2316.5,-166.437 2316.5,-185.437 2363.5,-185.437 2363.5,-166.437 2316.5,-166.437"/>
<text text-anchor="middle" x="2340" y="-173.437" font-family="Helvetica,sans-Serif" font-size="10.00">AppInit</text>
</a>
</g>
</g>
<!-- Node289&#45;&gt;Node290 -->
<g id="edge6" class="edge"><title>Node289&#45;&gt;Node290</title>
<path fill="none" stroke="midnightblue" d="M2090.93,-211.466C2129.42,-208.561 2192.24,-203.08 2246,-194.937 2270.11,-191.284 2297.43,-185.505 2316.19,-181.278"/>
<polygon fill="midnightblue" stroke="midnightblue" points="2090.46,-207.991 2080.75,-212.217 2090.98,-214.972 2090.46,-207.991"/>
</g>
<!-- Node292 -->
<g id="node9" class="node"><title>Node292</title>
<g id="a_node9"><a xlink:href="class_bitcoin_core.html#af34ca069cda1d4362dcc109b4397fb62" target="_top" xlink:title="BitcoinCore::initialize">
<polygon fill="white" stroke="black" points="2137,-166.437 2137,-185.437 2246,-185.437 2246,-166.437 2137,-166.437"/>
<text text-anchor="middle" x="2191.5" y="-173.437" font-family="Helvetica,sans-Serif" font-size="10.00">BitcoinCore::initialize</text>
</a>
</g>
</g>
<!-- Node289&#45;&gt;Node292 -->
<g id="edge8" class="edge"><title>Node289&#45;&gt;Node292</title>
<path fill="none" stroke="midnightblue" d="M2090.66,-203.936C2111.05,-198.217 2136.49,-191.083 2156.59,-185.448"/>
<polygon fill="midnightblue" stroke="midnightblue" points="2089.49,-200.63 2080.81,-206.7 2091.38,-207.37 2089.49,-200.63"/>
</g>
<!-- Node291 -->
<g id="node8" class="node"><title>Node291</title>
<g id="a_node8"><a xlink:href="dashd_8cpp.html#a0ddf1224851353fc92bfbff6f499fa97" target="_top" xlink:title="main">
<polygon fill="white" stroke="black" points="2434,-166.437 2434,-185.437 2472,-185.437 2472,-166.437 2434,-166.437"/>
<text text-anchor="middle" x="2453" y="-173.437" font-family="Helvetica,sans-Serif" font-size="10.00">main</text>
</a>
</g>
</g>
<!-- Node290&#45;&gt;Node291 -->
<g id="edge7" class="edge"><title>Node290&#45;&gt;Node291</title>
<path fill="none" stroke="midnightblue" d="M2373.77,-175.937C2393.33,-175.937 2417.46,-175.937 2433.7,-175.937"/>
<polygon fill="midnightblue" stroke="midnightblue" points="2373.73,-172.437 2363.73,-175.937 2373.73,-179.437 2373.73,-172.437"/>
</g>
<!-- Node294 -->
<g id="node11" class="node"><title>Node294</title>
<g id="a_node11"><a xlink:href="class_bitcoin_core.html#ac2271844c89ebc4c611e7617ce6202e3" target="_top" xlink:title="BitcoinCore::restart">
<polygon fill="white" stroke="black" points="2141,-128.437 2141,-147.437 2242,-147.437 2242,-128.437 2141,-128.437"/>
<text text-anchor="middle" x="2191.5" y="-135.437" font-family="Helvetica,sans-Serif" font-size="10.00">BitcoinCore::restart</text>
</a>
</g>
</g>
<!-- Node293&#45;&gt;Node294 -->
<g id="edge10" class="edge"><title>Node293&#45;&gt;Node294</title>
<path fill="none" stroke="midnightblue" d="M2098.92,-112.255C2117.54,-117.476 2138.91,-123.469 2156.32,-128.351"/>
<polygon fill="midnightblue" stroke="midnightblue" points="2099.77,-108.856 2089.19,-109.526 2097.88,-115.596 2099.77,-108.856"/>
</g>
<!-- Node295 -->
<g id="node12" class="node"><title>Node295</title>
<g id="a_node12"><a xlink:href="init_8h.html#ac5f038c2b480cf9ef5e19e3eba8dbaf9" target="_top" xlink:title="Shutdown is split into 2 parts: Part 1: shut down everything but the main wallet instance (done in Pr...">
<polygon fill="white" stroke="black" points="2161.5,-90.437 2161.5,-109.437 2221.5,-109.437 2221.5,-90.437 2161.5,-90.437"/>
<text text-anchor="middle" x="2191.5" y="-97.437" font-family="Helvetica,sans-Serif" font-size="10.00">Shutdown</text>
</a>
</g>
</g>
<!-- Node293&#45;&gt;Node295 -->
<g id="edge11" class="edge"><title>Node293&#45;&gt;Node295</title>
<path fill="none" stroke="midnightblue" d="M2111.74,-99.937C2128.84,-99.937 2146.9,-99.937 2161.41,-99.937"/>
<polygon fill="midnightblue" stroke="midnightblue" points="2111.25,-96.4371 2101.25,-99.937 2111.25,-103.437 2111.25,-96.4371"/>
</g>
<!-- Node295&#45;&gt;Node290 -->
<g id="edge12" class="edge"><title>Node295&#45;&gt;Node290</title>
<path fill="none" stroke="midnightblue" d="M2231.17,-112.582C2236.23,-114.551 2241.28,-116.685 2246,-118.937 2275.56,-133.056 2307.64,-154.123 2325.33,-166.299"/>
<polygon fill="midnightblue" stroke="midnightblue" points="2232.14,-109.208 2221.55,-109.014 2229.71,-115.771 2232.14,-109.208"/>
</g>
<!-- Node296 -->
<g id="node13" class="node"><title>Node296</title>
<g id="a_node13"><a xlink:href="class_bitcoin_core.html#a94f3f4622ba698e321f3a2e0e686129f" target="_top" xlink:title="BitcoinCore::shutdown">
<polygon fill="white" stroke="black" points="2282,-90.437 2282,-109.437 2398,-109.437 2398,-90.437 2282,-90.437"/>
<text text-anchor="middle" x="2340" y="-97.437" font-family="Helvetica,sans-Serif" font-size="10.00">BitcoinCore::shutdown</text>
</a>
</g>
</g>
<!-- Node295&#45;&gt;Node296 -->
<g id="edge13" class="edge"><title>Node295&#45;&gt;Node296</title>
<path fill="none" stroke="midnightblue" d="M2231.97,-99.937C2247.31,-99.937 2265.18,-99.937 2281.88,-99.937"/>
<polygon fill="midnightblue" stroke="midnightblue" points="2231.79,-96.4371 2221.79,-99.937 2231.79,-103.437 2231.79,-96.4371"/>
</g>
<!-- Node301 -->
<g id="node18" class="node"><title>Node301</title>
<g id="a_node18"><a xlink:href="server_8h.html#adc51a168fd3ea207996ae4f8d9d6c6ea" target="_top" xlink:title="masternode">
<polygon fill="white" stroke="black" points="348,-90.437 348,-109.437 416,-109.437 416,-90.437 348,-90.437"/>
<text text-anchor="middle" x="382" y="-97.437" font-family="Helvetica,sans-Serif" font-size="10.00">masternode</text>
</a>
</g>
</g>
<!-- Node300&#45;&gt;Node301 -->
<g id="edge18" class="edge"><title>Node300&#45;&gt;Node301</title>
<path fill="none" stroke="midnightblue" d="M307.413,-99.937C321.628,-99.937 335.699,-99.937 347.669,-99.937"/>
<polygon fill="midnightblue" stroke="midnightblue" points="307.064,-96.4371 297.064,-99.937 307.064,-103.437 307.064,-96.4371"/>
</g>
<!-- Node303 -->
<g id="node20" class="node"><title>Node303</title>
<g id="a_node20"><a xlink:href="validation_8cpp.html#aaa0f986172f6a63a3f5dde9bc69f93cb" target="_top" xlink:title="Apply the effects of this block (with given index) on the UTXO set represented by coins...">
<polygon fill="white" stroke="black" points="343,-128.437 343,-147.437 421,-147.437 421,-128.437 343,-128.437"/>
<text text-anchor="middle" x="382" y="-135.437" font-family="Helvetica,sans-Serif" font-size="10.00">ConnectBlock</text>
</a>
</g>
</g>
<!-- Node302&#45;&gt;Node303 -->
<g id="edge20" class="edge"><title>Node302&#45;&gt;Node303</title>
<path fill="none" stroke="midnightblue" d="M276.174,-163.887C297.704,-158.557 322.654,-152.381 342.81,-147.391"/>
<polygon fill="midnightblue" stroke="midnightblue" points="275.1,-160.547 266.235,-166.348 276.783,-167.342 275.1,-160.547"/>
</g>
<!-- Node304 -->
<g id="node21" class="node"><title>Node304</title>
<g id="a_node21"><a xlink:href="validation_8cpp.html#a9258465a729a68271780a9968e65819a" target="_top" xlink:title="Connect a new block to chainActive. ">
<polygon fill="white" stroke="black" points="488.5,-128.437 488.5,-147.437 555.5,-147.437 555.5,-128.437 488.5,-128.437"/>
<text text-anchor="middle" x="522" y="-135.437" font-family="Helvetica,sans-Serif" font-size="10.00">ConnectTip</text>
</a>
</g>
</g>
<!-- Node303&#45;&gt;Node304 -->
<g id="edge21" class="edge"><title>Node303&#45;&gt;Node304</title>
<path fill="none" stroke="midnightblue" d="M431.262,-137.937C450.092,-137.937 471.195,-137.937 488.203,-137.937"/>
<polygon fill="midnightblue" stroke="midnightblue" points="431.074,-134.437 421.074,-137.937 431.074,-141.437 431.074,-134.437"/>
</g>
<!-- Node325 -->
<g id="node42" class="node"><title>Node325</title>
<g id="a_node42"><a xlink:href="validation_8h.html#a12c39e969c9077605ae8a91730fb78d3" target="_top" xlink:title="Check a block is completely valid from start to finish (only works on top of our current best block...">
<polygon fill="white" stroke="black" points="475.5,-90.437 475.5,-109.437 568.5,-109.437 568.5,-90.437 475.5,-90.437"/>
<text text-anchor="middle" x="522" y="-97.437" font-family="Helvetica,sans-Serif" font-size="10.00">TestBlockValidity</text>
</a>
</g>
</g>
<!-- Node303&#45;&gt;Node325 -->
<g id="edge54" class="edge"><title>Node303&#45;&gt;Node325</title>
<path fill="none" stroke="midnightblue" d="M427.473,-125.691C446.495,-120.453 468.375,-114.428 486.188,-109.523"/>
<polygon fill="midnightblue" stroke="midnightblue" points="426.535,-122.319 417.823,-128.348 428.394,-129.068 426.535,-122.319"/>
</g>
<!-- Node326 -->
<g id="node43" class="node"><title>Node326</title>
<g id="a_node43"><a xlink:href="class_c_verify_d_b.html#af12e07230f20d23cf01d417d0e785c49" target="_top" xlink:title="CVerifyDB::VerifyDB">
<polygon fill="white" stroke="black" points="467,-166.437 467,-185.437 577,-185.437 577,-166.437 467,-166.437"/>
<text text-anchor="middle" x="522" y="-173.437" font-family="Helvetica,sans-Serif" font-size="10.00">CVerifyDB::VerifyDB</text>
</a>
</g>
</g>
<!-- Node303&#45;&gt;Node326 -->
<g id="edge57" class="edge"><title>Node303&#45;&gt;Node326</title>
<path fill="none" stroke="midnightblue" d="M427.473,-150.183C446.495,-155.421 468.375,-161.446 486.188,-166.351"/>
<polygon fill="midnightblue" stroke="midnightblue" points="428.394,-146.806 417.823,-147.526 426.535,-153.555 428.394,-146.806"/>
</g>
<!-- Node305 -->
<g id="node22" class="node"><title>Node305</title>
<g id="a_node22"><a xlink:href="validation_8cpp.html#a345d6616250288efacae87d05528fe8a" target="_top" xlink:title="Try to make some progress towards making pindexMostWork the active block. ">
<polygon fill="white" stroke="black" points="613,-128.437 613,-147.437 732,-147.437 732,-128.437 613,-128.437"/>
<text text-anchor="middle" x="672.5" y="-135.437" font-family="Helvetica,sans-Serif" font-size="10.00">ActivateBestChainStep</text>
</a>
</g>
</g>
<!-- Node304&#45;&gt;Node305 -->
<g id="edge22" class="edge"><title>Node304&#45;&gt;Node305</title>
<path fill="none" stroke="midnightblue" d="M565.884,-137.937C580.568,-137.937 597.257,-137.937 612.963,-137.937"/>
<polygon fill="midnightblue" stroke="midnightblue" points="565.589,-134.437 555.589,-137.937 565.589,-141.437 565.589,-134.437"/>
</g>
<!-- Node306 -->
<g id="node23" class="node"><title>Node306</title>
<g id="a_node23"><a xlink:href="validation_8h.html#ab7be3f1b4119e8df383a4332ddbd344a" target="_top" xlink:title="Find the best known block, and make it the tip of the block chain. ">
<polygon fill="white" stroke="black" points="768,-223.437 768,-242.437 866,-242.437 866,-223.437 768,-223.437"/>
<text text-anchor="middle" x="817" y="-230.437" font-family="Helvetica,sans-Serif" font-size="10.00">ActivateBestChain</text>
</a>
</g>
</g>
<!-- Node305&#45;&gt;Node306 -->
<g id="edge23" class="edge"><title>Node305&#45;&gt;Node306</title>
<path fill="none" stroke="midnightblue" d="M720.457,-151.202C724.458,-152.923 728.361,-154.831 732,-156.937 763.828,-175.361 793.978,-207.421 807.919,-223.365"/>
<polygon fill="midnightblue" stroke="midnightblue" points="721.613,-147.896 711.025,-147.521 719.069,-154.417 721.613,-147.896"/>
</g>
<!-- Node307 -->
<g id="node24" class="node"><title>Node307</title>
<g id="a_node24"><a xlink:href="validation_8h.html#aaf2e19311fff6b9cd421a9a9d59f7ff1" target="_top" xlink:title="Initialize a new block tree database + block data on disk. ">
<polygon fill="white" stroke="black" points="919.5,-280.437 919.5,-299.437 998.5,-299.437 998.5,-280.437 919.5,-280.437"/>
<text text-anchor="middle" x="959" y="-287.437" font-family="Helvetica,sans-Serif" font-size="10.00">InitBlockIndex</text>
</a>
</g>
</g>
<!-- Node306&#45;&gt;Node307 -->
<g id="edge24" class="edge"><title>Node306&#45;&gt;Node307</title>
<path fill="none" stroke="midnightblue" d="M847.159,-246.975C863.182,-254.474 883.506,-263.637 902,-270.937 910.404,-274.254 919.647,-277.536 928.16,-280.415"/>
<polygon fill="midnightblue" stroke="midnightblue" points="848.329,-243.657 837.792,-242.553 845.34,-249.987 848.329,-243.657"/>
</g>
<!-- Node308 -->
<g id="node25" class="node"><title>Node308</title>
<g id="a_node25"><a xlink:href="init_8cpp.html#a0189c34248cd89bbbe20d4d6045bd7c9" target="_top" xlink:title="ThreadImport">
<polygon fill="white" stroke="black" points="1092.5,-318.437 1092.5,-337.437 1166.5,-337.437 1166.5,-318.437 1092.5,-318.437"/>
<text text-anchor="middle" x="1129.5" y="-325.437" font-family="Helvetica,sans-Serif" font-size="10.00">ThreadImport</text>
</a>
</g>
</g>
<!-- Node306&#45;&gt;Node308 -->
<g id="edge53" class="edge"><title>Node306&#45;&gt;Node308</title>
<path fill="none" stroke="midnightblue" d="M825.525,-252.192C837.245,-279.15 862.678,-327.067 902,-346.937 969.446,-381.018 1062.73,-353.479 1105.45,-337.438"/>
<polygon fill="midnightblue" stroke="midnightblue" points="828.645,-250.576 821.583,-242.678 822.178,-253.257 828.645,-250.576"/>
</g>
<!-- Node309 -->
<g id="node26" class="node"><title>Node309</title>
<g id="a_node26"><a xlink:href="server_8h.html#a7e43030fb221e28db98accef3fc80232" target="_top" xlink:title="invalidateblock">
<polygon fill="white" stroke="black" points="918.5,-166.437 918.5,-185.437 999.5,-185.437 999.5,-166.437 918.5,-166.437"/>
<text text-anchor="middle" x="959" y="-173.437" font-family="Helvetica,sans-Serif" font-size="10.00">invalidateblock</text>
</a>
</g>
</g>
<!-- Node306&#45;&gt;Node309 -->
<g id="edge28" class="edge"><title>Node306&#45;&gt;Node309</title>
<path fill="none" stroke="midnightblue" d="M847.159,-218.899C863.182,-211.4 883.506,-202.237 902,-194.937 910.404,-191.62 919.647,-188.338 928.16,-185.459"/>
<polygon fill="midnightblue" stroke="midnightblue" points="845.34,-215.887 837.792,-223.321 848.329,-222.217 845.34,-215.887"/>
</g>
<!-- Node310 -->
<g id="node27" class="node"><title>Node310</title>
<g id="a_node27"><a xlink:href="validation_8h.html#a2233339a13d09038cf2e46f4d0144be4" target="_top" xlink:title="Import blocks from an external file. ">
<polygon fill="white" stroke="black" points="902,-318.437 902,-337.437 1016,-337.437 1016,-318.437 902,-318.437"/>
<text text-anchor="middle" x="959" y="-325.437" font-family="Helvetica,sans-Serif" font-size="10.00">LoadExternalBlockFile</text>
</a>
</g>
</g>
<!-- Node306&#45;&gt;Node310 -->
<g id="edge29" class="edge"><title>Node306&#45;&gt;Node310</title>
<path fill="none" stroke="midnightblue" d="M832.927,-250.034C848.612,-267.067 874.752,-292.925 902,-308.937 908.373,-312.682 915.591,-315.823 922.674,-318.404"/>
<polygon fill="midnightblue" stroke="midnightblue" points="835.401,-247.551 826.107,-242.464 830.199,-252.236 835.401,-247.551"/>
</g>
<!-- Node311 -->
<g id="node28" class="node"><title>Node311</title>
<g id="a_node28"><a xlink:href="validation_8h.html#ac880446d7f8833dd498df914ccc816a9" target="_top" xlink:title="Process an incoming block. ">
<polygon fill="white" stroke="black" points="910,-128.437 910,-147.437 1008,-147.437 1008,-128.437 910,-128.437"/>
<text text-anchor="middle" x="959" y="-135.437" font-family="Helvetica,sans-Serif" font-size="10.00">ProcessNewBlock</text>
</a>
</g>
</g>
<!-- Node306&#45;&gt;Node311 -->
<g id="edge31" class="edge"><title>Node306&#45;&gt;Node311</title>
<path fill="none" stroke="midnightblue" d="M832.927,-215.84C848.612,-198.807 874.752,-172.949 902,-156.937 908.373,-153.192 915.591,-150.051 922.674,-147.47"/>
<polygon fill="midnightblue" stroke="midnightblue" points="830.199,-213.638 826.107,-223.41 835.401,-218.323 830.199,-213.638"/>
</g>
<!-- Node318 -->
<g id="node35" class="node"><title>Node318</title>
<g id="a_node35"><a xlink:href="server_8h.html#a29263a4d92c9f0c07c1dfb0a5fad681b" target="_top" xlink:title="reconsiderblock">
<polygon fill="white" stroke="black" points="916.5,-242.437 916.5,-261.437 1001.5,-261.437 1001.5,-242.437 916.5,-242.437"/>
<text text-anchor="middle" x="959" y="-249.437" font-family="Helvetica,sans-Serif" font-size="10.00">reconsiderblock</text>
</a>
</g>
</g>
<!-- Node306&#45;&gt;Node318 -->
<g id="edge42" class="edge"><title>Node306&#45;&gt;Node318</title>
<path fill="none" stroke="midnightblue" d="M876.292,-240.848C889.71,-242.669 903.719,-244.57 916.271,-246.274"/>
<polygon fill="midnightblue" stroke="midnightblue" points="876.56,-237.352 866.18,-239.476 875.619,-244.289 876.56,-237.352"/>
</g>
<!-- Node319 -->
<g id="node36" class="node"><title>Node319</title>
<g id="a_node36"><a xlink:href="validation_8h.html#a6b20cdba297d137a4d7a91691cc4457b" target="_top" xlink:title="ReprocessBlocks">
<polygon fill="white" stroke="black" points="912,-204.437 912,-223.437 1006,-223.437 1006,-204.437 912,-204.437"/>
<text text-anchor="middle" x="959" y="-211.437" font-family="Helvetica,sans-Serif" font-size="10.00">ReprocessBlocks</text>
</a>
</g>
</g>
<!-- Node306&#45;&gt;Node319 -->
<g id="edge43" class="edge"><title>Node306&#45;&gt;Node319</title>
<path fill="none" stroke="midnightblue" d="M876.365,-225.016C888.126,-223.42 900.338,-221.763 911.622,-220.231"/>
<polygon fill="midnightblue" stroke="midnightblue" points="875.619,-221.585 866.18,-226.398 876.56,-228.522 875.619,-221.585"/>
</g>
<!-- Node307&#45;&gt;Node289 -->
<g id="edge25" class="edge"><title>Node307&#45;&gt;Node289</title>
<path fill="none" stroke="midnightblue" d="M1008.93,-289.937C1071.29,-289.937 1182.4,-289.937 1277.5,-289.937 1277.5,-289.937 1277.5,-289.937 1770,-289.937 1871.24,-289.937 1986.09,-244.013 2032.21,-223.562"/>
<polygon fill="midnightblue" stroke="midnightblue" points="1008.61,-286.437 998.611,-289.937 1008.61,-293.437 1008.61,-286.437"/>
</g>
<!-- Node307&#45;&gt;Node308 -->
<g id="edge26" class="edge"><title>Node307&#45;&gt;Node308</title>
<path fill="none" stroke="midnightblue" d="M1008.58,-300.892C1035.29,-306.917 1067.87,-314.264 1092.33,-319.78"/>
<polygon fill="midnightblue" stroke="midnightblue" points="1009.18,-297.441 998.657,-298.655 1007.64,-304.269 1009.18,-297.441"/>
</g>
<!-- Node308&#45;&gt;Node289 -->
<g id="edge27" class="edge"><title>Node308&#45;&gt;Node289</title>
<path fill="none" stroke="midnightblue" d="M1176.96,-327.937C1235.25,-327.937 1338.27,-327.937 1426.5,-327.937 1426.5,-327.937 1426.5,-327.937 1770,-327.937 1859.97,-327.937 1891.01,-345.111 1971,-303.937 2007.65,-285.073 2036.04,-242.728 2047.49,-223.619"/>
<polygon fill="midnightblue" stroke="midnightblue" points="1176.96,-324.437 1166.96,-327.937 1176.96,-331.437 1176.96,-324.437"/>
</g>
<!-- Node310&#45;&gt;Node308 -->
<g id="edge30" class="edge"><title>Node310&#45;&gt;Node308</title>
<path fill="none" stroke="midnightblue" d="M1026.32,-327.937C1048.86,-327.937 1073.2,-327.937 1092.47,-327.937"/>
<polygon fill="midnightblue" stroke="midnightblue" points="1026.11,-324.437 1016.11,-327.937 1026.11,-331.437 1026.11,-324.437"/>
</g>
<!-- Node311&#45;&gt;Node298 -->
<g id="edge32" class="edge"><title>Node311&#45;&gt;Node298</title>
<path fill="none" stroke="midnightblue" d="M983.534,-122.803C1001.71,-111.57 1027.78,-96.4431 1052,-85.937 1068.22,-78.903 1087.17,-72.9414 1102.16,-68.7194"/>
<polygon fill="midnightblue" stroke="midnightblue" points="981.414,-120.001 974.798,-128.277 985.131,-125.933 981.414,-120.001"/>
</g>
<!-- Node312 -->
<g id="node29" class="node"><title>Node312</title>
<g id="a_node29"><a xlink:href="miner_8cpp.html#abfbc96f613381f93c13c00ebc2f25139" target="_top" xlink:title="ProcessBlockFound">
<polygon fill="white" stroke="black" points="1077.5,-166.437 1077.5,-185.437 1181.5,-185.437 1181.5,-166.437 1077.5,-166.437"/>
<text text-anchor="middle" x="1129.5" y="-173.437" font-family="Helvetica,sans-Serif" font-size="10.00">ProcessBlockFound</text>
</a>
</g>
</g>
<!-- Node311&#45;&gt;Node312 -->
<g id="edge33" class="edge"><title>Node311&#45;&gt;Node312</title>
<path fill="none" stroke="midnightblue" d="M1012.43,-149.761C1036.19,-155.119 1063.9,-161.368 1086.29,-166.417"/>
<polygon fill="midnightblue" stroke="midnightblue" points="1013.04,-146.312 1002.52,-147.526 1011.5,-153.14 1013.04,-146.312"/>
</g>
<!-- Node313 -->
<g id="node30" class="node"><title>Node313</title>
<g id="a_node30"><a xlink:href="net__processing_8cpp.html#a193d0ece6e2f2f7ee37352ac9720bb83" target="_top" xlink:title="ProcessMessage">
<polygon fill="white" stroke="black" points="1566.5,-90.437 1566.5,-109.437 1658.5,-109.437 1658.5,-90.437 1566.5,-90.437"/>
<text text-anchor="middle" x="1612.5" y="-97.437" font-family="Helvetica,sans-Serif" font-size="10.00">ProcessMessage</text>
</a>
</g>
</g>
<!-- Node311&#45;&gt;Node313 -->
<g id="edge35" class="edge"><title>Node311&#45;&gt;Node313</title>
<path fill="none" stroke="midnightblue" d="M1008.59,-126.298C1022.53,-123.397 1037.8,-120.632 1052,-118.937 1242.12,-96.2438 1470.96,-97.2254 1566.34,-98.8833"/>
<polygon fill="midnightblue" stroke="midnightblue" points="1007.75,-122.898 998.706,-128.421 1009.22,-129.742 1007.75,-122.898"/>
</g>
<!-- Node317 -->
<g id="node34" class="node"><title>Node317</title>
<g id="a_node34"><a xlink:href="server_8h.html#a220fade8a685be34364aad455f99f6d6" target="_top" xlink:title="submitblock">
<polygon fill="white" stroke="black" points="1095,-128.437 1095,-147.437 1164,-147.437 1164,-128.437 1095,-128.437"/>
<text text-anchor="middle" x="1129.5" y="-135.437" font-family="Helvetica,sans-Serif" font-size="10.00">submitblock</text>
</a>
</g>
</g>
<!-- Node311&#45;&gt;Node317 -->
<g id="edge41" class="edge"><title>Node311&#45;&gt;Node317</title>
<path fill="none" stroke="midnightblue" d="M1018.61,-137.937C1044.13,-137.937 1073.11,-137.937 1094.91,-137.937"/>
<polygon fill="midnightblue" stroke="midnightblue" points="1018.29,-134.437 1008.29,-137.937 1018.29,-141.437 1018.29,-134.437"/>
</g>
<!-- Node312&#45;&gt;Node287 -->
<g id="edge34" class="edge"><title>Node312&#45;&gt;Node287</title>
<path fill="none" stroke="midnightblue" d="M1179.28,-163.975C1188.49,-161.672 1198.05,-159.254 1207,-156.937 1218.66,-153.919 1231.37,-150.524 1242.75,-147.448"/>
<polygon fill="midnightblue" stroke="midnightblue" points="1178.31,-160.609 1169.46,-166.42 1180,-167.401 1178.31,-160.609"/>
</g>
<!-- Node314 -->
<g id="node31" class="node"><title>Node314</title>
<g id="a_node31"><a xlink:href="net__processing_8h.html#a7fa42e7ffd6e6ba5b7537af248e30fc8" target="_top" xlink:title="Process protocol messages received from a given node. ">
<polygon fill="white" stroke="black" points="1720,-90.437 1720,-109.437 1818,-109.437 1818,-90.437 1720,-90.437"/>
<text text-anchor="middle" x="1769" y="-97.437" font-family="Helvetica,sans-Serif" font-size="10.00">ProcessMessages</text>
</a>
</g>
</g>
<!-- Node313&#45;&gt;Node314 -->
<g id="edge36" class="edge"><title>Node313&#45;&gt;Node314</title>
<path fill="none" stroke="midnightblue" d="M1668.78,-99.937C1685.48,-99.937 1703.68,-99.937 1719.88,-99.937"/>
<polygon fill="midnightblue" stroke="midnightblue" points="1668.6,-96.4371 1658.6,-99.937 1668.6,-103.437 1668.6,-96.4371"/>
</g>
<!-- Node315 -->
<g id="node32" class="node"><title>Node315</title>
<g id="a_node32"><a xlink:href="net__processing_8h.html#ab02615ff65f91d69f8d786ec900baa8a" target="_top" xlink:title="Register with a network node to receive its signals. ">
<polygon fill="white" stroke="black" points="1858,-166.437 1858,-185.437 1967,-185.437 1967,-166.437 1858,-166.437"/>
<text text-anchor="middle" x="1912.5" y="-173.437" font-family="Helvetica,sans-Serif" font-size="10.00">RegisterNodeSignals</text>
</a>
</g>
</g>
<!-- Node314&#45;&gt;Node315 -->
<g id="edge37" class="edge"><title>Node314&#45;&gt;Node315</title>
<path fill="none" stroke="midnightblue" d="M1790.14,-115.96C1806.57,-128.438 1830.79,-145.504 1854,-156.937 1861.36,-160.56 1869.57,-163.74 1877.43,-166.409"/>
<polygon fill="midnightblue" stroke="midnightblue" points="1791.92,-112.911 1781.87,-109.564 1787.64,-118.449 1791.92,-112.911"/>
</g>
<!-- Node316 -->
<g id="node33" class="node"><title>Node316</title>
<g id="a_node33"><a xlink:href="net__processing_8h.html#a3ef0cc6e9d9d6435ee2a5569244d6ebd" target="_top" xlink:title="Unregister a network node. ">
<polygon fill="white" stroke="black" points="1854,-90.437 1854,-109.437 1971,-109.437 1971,-90.437 1854,-90.437"/>
<text text-anchor="middle" x="1912.5" y="-97.437" font-family="Helvetica,sans-Serif" font-size="10.00">UnregisterNodeSignals</text>
</a>
</g>
</g>
<!-- Node314&#45;&gt;Node316 -->
<g id="edge39" class="edge"><title>Node314&#45;&gt;Node316</title>
<path fill="none" stroke="midnightblue" d="M1828.34,-99.937C1836.7,-99.937 1845.29,-99.937 1853.64,-99.937"/>
<polygon fill="midnightblue" stroke="midnightblue" points="1828.3,-96.4371 1818.3,-99.937 1828.3,-103.437 1828.3,-96.4371"/>
</g>
<!-- Node315&#45;&gt;Node289 -->
<g id="edge38" class="edge"><title>Node315&#45;&gt;Node289</title>
<path fill="none" stroke="midnightblue" d="M1958.53,-188.204C1981.36,-194.423 2008.25,-201.748 2027.49,-206.989"/>
<polygon fill="midnightblue" stroke="midnightblue" points="1959.27,-184.777 1948.7,-185.526 1957.43,-191.531 1959.27,-184.777"/>
</g>
<!-- Node316&#45;&gt;Node293 -->
<g id="edge40" class="edge"><title>Node316&#45;&gt;Node293</title>
<path fill="none" stroke="midnightblue" d="M1981.13,-99.937C1989.77,-99.937 1998.45,-99.937 2006.65,-99.937"/>
<polygon fill="midnightblue" stroke="midnightblue" points="1981.05,-96.4371 1971.05,-99.937 1981.05,-103.437 1981.05,-96.4371"/>
</g>
<!-- Node320 -->
<g id="node37" class="node"><title>Node320</title>
<g id="a_node37"><a xlink:href="class_c_spork_manager.html#ade3cee4d73664c03ceaa900efeedc395" target="_top" xlink:title="CSporkManager::ExecuteSpork">
<polygon fill="white" stroke="black" points="1052,-204.437 1052,-223.437 1207,-223.437 1207,-204.437 1052,-204.437"/>
<text text-anchor="middle" x="1129.5" y="-211.437" font-family="Helvetica,sans-Serif" font-size="10.00">CSporkManager::ExecuteSpork</text>
</a>
</g>
</g>
<!-- Node319&#45;&gt;Node320 -->
<g id="edge44" class="edge"><title>Node319&#45;&gt;Node320</title>
<path fill="none" stroke="midnightblue" d="M1016.25,-213.937C1027.63,-213.937 1039.78,-213.937 1051.72,-213.937"/>
<polygon fill="midnightblue" stroke="midnightblue" points="1016.04,-210.437 1006.04,-213.937 1016.04,-217.437 1016.04,-210.437"/>
</g>
<!-- Node321 -->
<g id="node38" class="node"><title>Node321</title>
<g id="a_node38"><a xlink:href="class_c_spork_manager.html#a73b217ee4057d273648c54fee3a702c5" target="_top" xlink:title="CSporkManager::ProcessSpork">
<polygon fill="white" stroke="black" points="1350,-166.437 1350,-185.437 1505,-185.437 1505,-166.437 1350,-166.437"/>
<text text-anchor="middle" x="1427.5" y="-173.437" font-family="Helvetica,sans-Serif" font-size="10.00">CSporkManager::ProcessSpork</text>
</a>
</g>
</g>
<!-- Node320&#45;&gt;Node321 -->
<g id="edge45" class="edge"><title>Node320&#45;&gt;Node321</title>
<path fill="none" stroke="midnightblue" d="M1192.74,-202.693C1209.06,-199.945 1226.67,-197.16 1243,-194.937 1277.91,-190.187 1316.7,-186.011 1349.59,-182.793"/>
<polygon fill="midnightblue" stroke="midnightblue" points="1192.03,-199.263 1182.77,-204.394 1193.21,-206.163 1192.03,-199.263"/>
</g>
<!-- Node322 -->
<g id="node39" class="node"><title>Node322</title>
<g id="a_node39"><a xlink:href="server_8h.html#a8f5eff6dda04d2f984da8bafd567f140" target="_top" xlink:title="spork">
<polygon fill="white" stroke="black" points="1258,-204.437 1258,-223.437 1299,-223.437 1299,-204.437 1258,-204.437"/>
<text text-anchor="middle" x="1278.5" y="-211.437" font-family="Helvetica,sans-Serif" font-size="10.00">spork</text>
</a>
</g>
</g>
<!-- Node320&#45;&gt;Node322 -->
<g id="edge47" class="edge"><title>Node320&#45;&gt;Node322</title>
<path fill="none" stroke="midnightblue" d="M1217.11,-213.937C1232.36,-213.937 1246.82,-213.937 1257.77,-213.937"/>
<polygon fill="midnightblue" stroke="midnightblue" points="1217.01,-210.437 1207.01,-213.937 1217.01,-217.437 1217.01,-210.437"/>
</g>
<!-- Node321&#45;&gt;Node313 -->
<g id="edge46" class="edge"><title>Node321&#45;&gt;Node313</title>
<path fill="none" stroke="midnightblue" d="M1460.94,-162.466C1497.58,-147.246 1556.3,-122.861 1588.51,-109.484"/>
<polygon fill="midnightblue" stroke="midnightblue" points="1459.57,-159.244 1451.68,-166.312 1462.25,-165.708 1459.57,-159.244"/>
</g>
<!-- Node322&#45;&gt;Node321 -->
<g id="edge48" class="edge"><title>Node322&#45;&gt;Node321</title>
<path fill="none" stroke="midnightblue" d="M1308.97,-206.318C1332.19,-200.316 1364.69,-191.915 1389.63,-185.468"/>
<polygon fill="midnightblue" stroke="midnightblue" points="1307.83,-202.999 1299.02,-208.891 1309.58,-209.777 1307.83,-202.999"/>
</g>
<!-- Node323 -->
<g id="node40" class="node"><title>Node323</title>
<g id="a_node40"><a xlink:href="class_c_spork_manager.html#a599d088218de9d242e4dc5cb17dd310b" target="_top" xlink:title="CSporkManager::SetPrivKey">
<polygon fill="white" stroke="black" points="1541,-204.437 1541,-223.437 1684,-223.437 1684,-204.437 1541,-204.437"/>
<text text-anchor="middle" x="1612.5" y="-211.437" font-family="Helvetica,sans-Serif" font-size="10.00">CSporkManager::SetPrivKey</text>
</a>
</g>
</g>
<!-- Node322&#45;&gt;Node323 -->
<g id="edge49" class="edge"><title>Node322&#45;&gt;Node323</title>
<path fill="none" stroke="midnightblue" d="M1309.45,-213.937C1361.26,-213.937 1468.96,-213.937 1540.74,-213.937"/>
<polygon fill="midnightblue" stroke="midnightblue" points="1309.27,-210.437 1299.27,-213.937 1309.27,-217.437 1309.27,-210.437"/>
</g>
<!-- Node324 -->
<g id="node41" class="node"><title>Node324</title>
<g id="a_node41"><a xlink:href="class_c_spork_manager.html#a1277aeae7d50a0473c85a5a062d364cb" target="_top" xlink:title="CSporkManager::UpdateSpork">
<polygon fill="white" stroke="black" points="1352.5,-242.437 1352.5,-261.437 1502.5,-261.437 1502.5,-242.437 1352.5,-242.437"/>
<text text-anchor="middle" x="1427.5" y="-249.437" font-family="Helvetica,sans-Serif" font-size="10.00">CSporkManager::UpdateSpork</text>
</a>
</g>
</g>
<!-- Node322&#45;&gt;Node324 -->
<g id="edge51" class="edge"><title>Node322&#45;&gt;Node324</title>
<path fill="none" stroke="midnightblue" d="M1309.15,-216.058C1338.63,-221.82 1382.94,-233.564 1407.83,-242.432"/>
<polygon fill="midnightblue" stroke="midnightblue" points="1309.48,-212.563 1299.02,-214.223 1308.24,-219.451 1309.48,-212.563"/>
</g>
<!-- Node323&#45;&gt;Node289 -->
<g id="edge50" class="edge"><title>Node323&#45;&gt;Node289</title>
<path fill="none" stroke="midnightblue" d="M1694.3,-213.937C1795.49,-213.937 1963.36,-213.937 2027.24,-213.937"/>
<polygon fill="midnightblue" stroke="midnightblue" points="1694.11,-210.437 1684.11,-213.937 1694.11,-217.437 1694.11,-210.437"/>
</g>
<!-- Node324&#45;&gt;Node322 -->
<g id="edge52" class="edge"><title>Node324&#45;&gt;Node322</title>
<path fill="none" stroke="midnightblue" d="M1353.97,-239.937C1333.41,-234.643 1312.74,-228.619 1298.42,-223.529"/>
<polygon fill="midnightblue" stroke="midnightblue" points="1353.15,-243.34 1363.7,-242.39 1354.86,-236.553 1353.15,-243.34"/>
</g>
<!-- Node325&#45;&gt;Node286 -->
<g id="edge55" class="edge"><title>Node325&#45;&gt;Node286</title>
<path fill="none" stroke="midnightblue" d="M570.333,-87.8249C591.015,-82.5326 614.919,-76.4157 634.297,-71.457"/>
<polygon fill="midnightblue" stroke="midnightblue" points="569.293,-84.4781 560.473,-90.348 571.028,-91.2596 569.293,-84.4781"/>
</g>
<!-- Node325&#45;&gt;Node299 -->
<g id="edge56" class="edge"><title>Node325&#45;&gt;Node299</title>
<path fill="none" stroke="midnightblue" d="M578.882,-99.937C634.866,-99.937 719.924,-99.937 771.5,-99.937"/>
<polygon fill="midnightblue" stroke="midnightblue" points="578.781,-96.4371 568.781,-99.937 578.781,-103.437 578.781,-96.4371"/>
</g>
<!-- Node327 -->
<g id="node44" class="node"><title>Node327</title>
<g id="a_node44"><a xlink:href="server_8h.html#a30b96575c158ca0465dbdb25705c4ca9" target="_top" xlink:title="verifychain">
<polygon fill="white" stroke="black" points="640.5,-166.437 640.5,-185.437 704.5,-185.437 704.5,-166.437 640.5,-166.437"/>
<text text-anchor="middle" x="672.5" y="-173.437" font-family="Helvetica,sans-Serif" font-size="10.00">verifychain</text>
</a>
</g>
</g>
<!-- Node326&#45;&gt;Node327 -->
<g id="edge58" class="edge"><title>Node326&#45;&gt;Node327</title>
<path fill="none" stroke="midnightblue" d="M587.129,-175.937C605.513,-175.937 624.74,-175.937 640.188,-175.937"/>
<polygon fill="midnightblue" stroke="midnightblue" points="587.032,-172.437 577.032,-175.937 587.032,-179.437 587.032,-172.437"/>
</g>
<!-- Node328&#45;&gt;Node303 -->
<g id="edge60" class="edge"><title>Node328&#45;&gt;Node303</title>
<path fill="none" stroke="midnightblue" d="M285.022,-137.937C304.337,-137.937 325.388,-137.937 342.84,-137.937"/>
<polygon fill="midnightblue" stroke="midnightblue" points="284.808,-134.437 274.808,-137.937 284.808,-141.437 284.808,-134.437"/>
</g>
</g>
</svg>
        <g id="navigator" transform="translate(0 0)" fill="#404254">
                <rect fill="#f2f5e9" fill-opacity="0.5" stroke="#606060" stroke-width=".5" x="0" y="0" width="60" height="60"/>
                <use id="zoomplus" xlink:href="#zoomPlus" x="17" y="9" onmousedown="handleZoom(evt,'in')"/>
                <use id="zoomminus" xlink:href="#zoomMin" x="42" y="9" onmousedown="handleZoom(evt,'out')"/>
                <use id="reset" xlink:href="#resetDef" x="30" y="36" onmousedown="handleReset()"/>
                <g id="arrowUp" xlink:href="#dirArrow" transform="translate(30 24)" onmousedown="handlePan(0,-1)">
                  <use xlink:href="#rim" fill="#404040">
                        <set attributeName="fill" to="#808080" begin="arrowUp.mouseover" end="arrowUp.mouseout"/>
                  </use>
                  <path fill="none" stroke="white" stroke-width="1.5" d="M0,-3.0v7 M-2.5,-0.5L0,-3.0L2.5,-0.5"/>
                </g>
                <g id="arrowRight" xlink:href="#dirArrow" transform="rotate(90) translate(36 -43)" onmousedown="handlePan(1,0)">
                  <use xlink:href="#rim" fill="#404040">
                        <set attributeName="fill" to="#808080" begin="arrowRight.mouseover" end="arrowRight.mouseout"/>
                  </use>
                  <path fill="none" stroke="white" stroke-width="1.5" d="M0,-3.0v7 M-2.5,-0.5L0,-3.0L2.5,-0.5"/>
                </g>
                <g id="arrowDown" xlink:href="#dirArrow" transform="rotate(180) translate(-30 -48)" onmousedown="handlePan(0,1)">
                  <use xlink:href="#rim" fill="#404040">
                        <set attributeName="fill" to="#808080" begin="arrowDown.mouseover" end="arrowDown.mouseout"/>
                  </use>
                  <path fill="none" stroke="white" stroke-width="1.5" d="M0,-3.0v7 M-2.5,-0.5L0,-3.0L2.5,-0.5"/>
                </g>
                <g id="arrowLeft" xlink:href="#dirArrow" transform="rotate(270) translate(-36 17)" onmousedown="handlePan(-1,0)">
                  <use xlink:href="#rim" fill="#404040">
                        <set attributeName="fill" to="#808080" begin="arrowLeft.mouseover" end="arrowLeft.mouseout"/>
                  </use>
                  <path fill="none" stroke="white" stroke-width="1.5" d="M0,-3.0v7 M-2.5,-0.5L0,-3.0L2.5,-0.5"/>
                </g>
        </g>
        <svg viewBox="0 0 15 15" width="100%" height="30px" preserveAspectRatio="xMaxYMin meet">
         <g id="arrow_out" transform="scale(0.3 0.3)">
          <a xlink:href="class_c_superblock_manager_ab3cd100e70341446572ed7fafbea0538_icgraph_org.svg" target="_base">
           <rect id="button" ry="5" rx="5" y="6" x="6" height="38" width="38"
                fill="#f2f5e9" fill-opacity="0.5" stroke="#606060" stroke-width="1.0"/>
           <path id="arrow"
             d="M 11.500037,31.436501 C 11.940474,20.09759 22.043105,11.32322 32.158766,21.979434 L 37.068811,17.246167 C 37.068811,17.246167 37.088388,32 37.088388,32 L 22.160133,31.978069 C 22.160133,31.978069 26.997745,27.140456 26.997745,27.140456 C 18.528582,18.264221 13.291696,25.230495 11.500037,31.436501 z"
             style="fill:#404040;"/>
          </a>
         </g>
        </svg>
</svg>
