<?xml version="1.0" encoding="UTF-8" standalone="no"?>
<!DOCTYPE svg PUBLIC "-//W3C//DTD SVG 1.1//EN"
 "http://www.w3.org/Graphics/SVG/1.1/DTD/svg11.dtd">
<!-- Generated by graphviz version 2.38.0 (20140413.2041)
 -->
<!-- Title: BaseSignatureCreator Pages: 1 -->
<svg width="292pt" height="84pt"
 viewBox="0.00 0.00 292.00 84.00" xmlns="http://www.w3.org/2000/svg" xmlns:xlink="http://www.w3.org/1999/xlink">
<g id="graph0" class="graph" transform="scale(1 1) rotate(0) translate(4 80)">
<title>BaseSignatureCreator</title>
<polygon fill="white" stroke="none" points="-4,4 -4,-80 288,-80 288,4 -4,4"/>
<!-- Node0 -->
<g id="node1" class="node"><title>Node0</title>
<polygon fill="#bfbfbf" stroke="black" points="81,-56.5 81,-75.5 194,-75.5 194,-56.5 81,-56.5"/>
<text text-anchor="middle" x="137.5" y="-63.5" font-family="Helvetica,sans-Serif" font-size="10.00">BaseSignatureCreator</text>
</g>
<!-- Node1 -->
<g id="node2" class="node"><title>Node1</title>
<g id="a_node2"><a xlink:href="class_dummy_signature_creator.html" target="_top" xlink:title="A signature creator that just produces 72&#45;byte empty signatyres. ">
<polygon fill="white" stroke="black" points="0,-0.5 0,-19.5 125,-19.5 125,-0.5 0,-0.5"/>
<text text-anchor="middle" x="62.5" y="-7.5" font-family="Helvetica,sans-Serif" font-size="10.00">DummySignatureCreator</text>
</a>
</g>
</g>
<!-- Node0&#45;&gt;Node1 -->
<g id="edge1" class="edge"><title>Node0&#45;&gt;Node1</title>
<path fill="none" stroke="midnightblue" d="M117.195,-50.3804C103.639,-40.6204 86.2579,-28.1057 74.7693,-19.8339"/>
<polygon fill="midnightblue" stroke="midnightblue" points="115.29,-53.3213 125.45,-56.324 119.38,-47.6405 115.29,-53.3213"/>
</g>
<!-- Node2 -->
<g id="node3" class="node"><title>Node2</title>
<g id="a_node3"><a xlink:href="class_transaction_signature_creator.html" target="_top" xlink:title="A signature creator for transactions. ">
<polygon fill="white" stroke="black" points="143,-0.5 143,-19.5 284,-19.5 284,-0.5 143,-0.5"/>
<text text-anchor="middle" x="213.5" y="-7.5" font-family="Helvetica,sans-Serif" font-size="10.00">TransactionSignatureCreator</text>
</a>
</g>
</g>
<!-- Node0&#45;&gt;Node2 -->
<g id="edge2" class="edge"><title>Node0&#45;&gt;Node2</title>
<path fill="none" stroke="midnightblue" d="M158.076,-50.3804C171.812,-40.6204 189.425,-28.1057 201.067,-19.8339"/>
<polygon fill="midnightblue" stroke="midnightblue" points="155.835,-47.6787 149.711,-56.324 159.89,-53.385 155.835,-47.6787"/>
</g>
</g>
</svg>
