<?xml version="1.0" encoding="UTF-8" standalone="no"?>
<!DOCTYPE svg PUBLIC "-//W3C//DTD SVG 1.1//EN"
 "http://www.w3.org/Graphics/SVG/1.1/DTD/svg11.dtd">
<!-- Generated by graphviz version 2.38.0 (20140413.2041)
 -->
<!-- Title: RPCConsole::peerLayoutAboutToChange Pages: 1 -->
<svg width="351pt" height="78pt"
 viewBox="0.00 0.00 351.00 77.50" xmlns="http://www.w3.org/2000/svg" xmlns:xlink="http://www.w3.org/1999/xlink">
<g id="graph0" class="graph" transform="scale(1 1) rotate(0) translate(4 73.5)">
<title>RPCConsole::peerLayoutAboutToChange</title>
<polygon fill="white" stroke="none" points="-4,4 -4,-73.5 347,-73.5 347,4 -4,4"/>
<!-- Node211 -->
<g id="node1" class="node"><title>Node211</title>
<polygon fill="#bfbfbf" stroke="black" points="0,-22.5 0,-52.5 154,-52.5 154,-22.5 0,-22.5"/>
<text text-anchor="start" x="8" y="-40.5" font-family="Helvetica,sans-Serif" font-size="10.00">RPCConsole::peerLayoutAbout</text>
<text text-anchor="middle" x="77" y="-29.5" font-family="Helvetica,sans-Serif" font-size="10.00">ToChange</text>
</g>
<!-- Node212 -->
<g id="node2" class="node"><title>Node212</title>
<g id="a_node2"><a xlink:href="class_peer_table_model.html#a98084d3299642316c71c5de3d36b9859" target="_top" xlink:title="PeerTableModel::getNodeStats">
<polygon fill="white" stroke="black" points="190,-50 190,-69 343,-69 343,-50 190,-50"/>
<text text-anchor="middle" x="266.5" y="-57" font-family="Helvetica,sans-Serif" font-size="10.00">PeerTableModel::getNodeStats</text>
</a>
</g>
</g>
<!-- Node211&#45;&gt;Node212 -->
<g id="edge1" class="edge"><title>Node211&#45;&gt;Node212</title>
<path fill="none" stroke="midnightblue" d="M154.263,-46.4482C162.717,-47.4401 171.366,-48.455 179.925,-49.4592"/>
<polygon fill="midnightblue" stroke="midnightblue" points="179.572,-52.9417 189.912,-50.631 180.388,-45.9894 179.572,-52.9417"/>
</g>
<!-- Node213 -->
<g id="node3" class="node"><title>Node213</title>
<g id="a_node3"><a xlink:href="class_client_model.html#a643fc112ce94f50ac7187ecdf3c75360" target="_top" xlink:title="ClientModel::getPeerTable\lModel">
<polygon fill="white" stroke="black" points="200.5,-0.5 200.5,-30.5 332.5,-30.5 332.5,-0.5 200.5,-0.5"/>
<text text-anchor="start" x="208.5" y="-18.5" font-family="Helvetica,sans-Serif" font-size="10.00">ClientModel::getPeerTable</text>
<text text-anchor="middle" x="266.5" y="-7.5" font-family="Helvetica,sans-Serif" font-size="10.00">Model</text>
</a>
</g>
</g>
<!-- Node211&#45;&gt;Node213 -->
<g id="edge2" class="edge"><title>Node211&#45;&gt;Node213</title>
<path fill="none" stroke="midnightblue" d="M154.263,-28.5518C166.104,-27.1624 178.331,-25.7278 190.152,-24.3409"/>
<polygon fill="midnightblue" stroke="midnightblue" points="190.891,-27.7782 200.415,-23.1366 190.075,-20.8259 190.891,-27.7782"/>
</g>
</g>
</svg>
