<?xml version="1.0" encoding="UTF-8" standalone="no"?>
<!DOCTYPE svg PUBLIC "-//W3C//DTD SVG 1.1//EN"
 "http://www.w3.org/Graphics/SVG/1.1/DTD/svg11.dtd">
<!-- Generated by graphviz version 2.38.0 (20140413.2041)
 -->
<!-- Title: RPCConsole::startExecutor Pages: 1 -->
<!--zoomable 88 -->
<svg id="main" version="1.1" xmlns="http://www.w3.org/2000/svg" xmlns:xlink="http://www.w3.org/1999/xlink" xml:space="preserve" onload="init(evt)">
<style type="text/css"><![CDATA[
.edge:hover path { stroke: red; }
.edge:hover polygon { stroke: red; fill: red; }
]]></style>
<script type="text/javascript"><![CDATA[
var edges = document.getElementsByTagName('g');
if (edges && edges.length) {
  for (var i=0;i<edges.length;i++) {
    if (edges[i].id.substr(0,4)=='edge') {
      edges[i].setAttribute('class','edge');
    }
  }
}
]]></script>
        <defs>
                <circle id="rim" cx="0" cy="0" r="7"/>
                <circle id="rim2" cx="0" cy="0" r="3.5"/>
                <g id="zoomPlus">
                        <use xlink:href="#rim" fill="#404040">
                                <set attributeName="fill" to="#808080" begin="zoomplus.mouseover" end="zoomplus.mouseout"/>
                        </use>
                        <path d="M-4,0h8M0,-4v8" fill="none" stroke="white" stroke-width="1.5" pointer-events="none"/>
                </g>
                <g id="zoomMin">
                        <use xlink:href="#rim" fill="#404040">
                                <set attributeName="fill" to="#808080" begin="zoomminus.mouseover" end="zoomminus.mouseout"/>
                        </use>
                        <path d="M-4,0h8" fill="none" stroke="white" stroke-width="1.5" pointer-events="none"/>
                </g>
                <g id="dirArrow">
                        <path fill="none" stroke="white" stroke-width="1.5" d="M0,-3.0v7 M-2.5,-0.5L0,-3.0L2.5,-0.5"/>
                </g>
               <g id="resetDef">
                       <use xlink:href="#rim2" fill="#404040">
                               <set attributeName="fill" to="#808080" begin="reset.mouseover" end="reset.mouseout"/>
                       </use>
               </g>
        </defs>

<script type="text/javascript">
var viewWidth = 971;
var viewHeight = 88;
var sectionId = 'dynsection-56';
</script>
<script xlink:href="svgpan.js"/>
<svg id="graph" class="graph">
<g id="viewport">
<title>RPCConsole::startExecutor</title>
<polygon fill="white" stroke="none" points="-4,4 -4,-84 967,-84 967,4 -4,4"/>
<!-- Node480 -->
<g id="node1" class="node"><title>Node480</title>
<polygon fill="#bfbfbf" stroke="black" points="0,-28 0,-47 139,-47 139,-28 0,-28"/>
<text text-anchor="middle" x="69.5" y="-35" font-family="Helvetica,sans-Serif" font-size="10.00">RPCConsole::startExecutor</text>
</g>
<!-- Node481 -->
<g id="node2" class="node"><title>Node481</title>
<g id="a_node2"><a xlink:href="class_r_p_c_console.html#a355349a33664a07628e9ca22a60f5fa7" target="_top" xlink:title="RPCConsole::setClientModel">
<polygon fill="white" stroke="black" points="175,-28 175,-47 321,-47 321,-28 175,-28"/>
<text text-anchor="middle" x="248" y="-35" font-family="Helvetica,sans-Serif" font-size="10.00">RPCConsole::setClientModel</text>
</a>
</g>
</g>
<!-- Node480&#45;&gt;Node481 -->
<g id="edge1" class="edge"><title>Node480&#45;&gt;Node481</title>
<path fill="none" stroke="midnightblue" d="M149.501,-37.5C157.973,-37.5 166.561,-37.5 174.946,-37.5"/>
<polygon fill="midnightblue" stroke="midnightblue" points="149.245,-34.0001 139.245,-37.5 149.245,-41.0001 149.245,-34.0001"/>
</g>
<!-- Node482 -->
<g id="node3" class="node"><title>Node482</title>
<g id="a_node3"><a xlink:href="class_bitcoin_g_u_i.html#a99d71e1f8478ab937ce2522c8d3815e3" target="_top" xlink:title="Set the client model. ">
<polygon fill="white" stroke="black" points="357,-28 357,-47 493,-47 493,-28 357,-28"/>
<text text-anchor="middle" x="425" y="-35" font-family="Helvetica,sans-Serif" font-size="10.00">BitcoinGUI::setClientModel</text>
</a>
</g>
</g>
<!-- Node481&#45;&gt;Node482 -->
<g id="edge2" class="edge"><title>Node481&#45;&gt;Node482</title>
<path fill="none" stroke="midnightblue" d="M331.19,-37.5C339.753,-37.5 348.384,-37.5 356.753,-37.5"/>
<polygon fill="midnightblue" stroke="midnightblue" points="331.19,-34.0001 321.19,-37.5 331.19,-41.0001 331.19,-34.0001"/>
</g>
<!-- Node483 -->
<g id="node4" class="node"><title>Node483</title>
<g id="a_node4"><a xlink:href="class_bitcoin_application.html#aceb08b4063e4fb264cf11cf7f9edd969" target="_top" xlink:title="BitcoinApplication\l::initializeResult">
<polygon fill="white" stroke="black" points="529,-44.5 529,-74.5 624,-74.5 624,-44.5 529,-44.5"/>
<text text-anchor="start" x="537" y="-62.5" font-family="Helvetica,sans-Serif" font-size="10.00">BitcoinApplication</text>
<text text-anchor="middle" x="576.5" y="-51.5" font-family="Helvetica,sans-Serif" font-size="10.00">::initializeResult</text>
</a>
</g>
</g>
<!-- Node482&#45;&gt;Node483 -->
<g id="edge3" class="edge"><title>Node482&#45;&gt;Node483</title>
<path fill="none" stroke="midnightblue" d="M500.644,-48.4845C510.21,-49.8921 519.778,-51.3 528.721,-52.6161"/>
<polygon fill="midnightblue" stroke="midnightblue" points="501.106,-45.0148 490.703,-47.0216 500.087,-51.9403 501.106,-45.0148"/>
</g>
<!-- Node487 -->
<g id="node8" class="node"><title>Node487</title>
<g id="a_node8"><a xlink:href="class_bitcoin_application.html#a37c560d4c04d14a6da151b82caf8888f" target="_top" xlink:title="Request core shutdown. ">
<polygon fill="white" stroke="black" points="791,-0.5 791,-30.5 889,-30.5 889,-0.5 791,-0.5"/>
<text text-anchor="start" x="799" y="-18.5" font-family="Helvetica,sans-Serif" font-size="10.00">BitcoinApplication</text>
<text text-anchor="middle" x="840" y="-7.5" font-family="Helvetica,sans-Serif" font-size="10.00">::requestShutdown</text>
</a>
</g>
</g>
<!-- Node482&#45;&gt;Node487 -->
<g id="edge9" class="edge"><title>Node482&#45;&gt;Node487</title>
<path fill="none" stroke="midnightblue" d="M503.318,-33.3814C587.688,-28.8871 720.14,-21.8315 790.802,-18.0675"/>
<polygon fill="midnightblue" stroke="midnightblue" points="503.074,-29.8893 493.275,-33.9164 503.447,-36.8794 503.074,-29.8893"/>
</g>
<!-- Node484 -->
<g id="node5" class="node"><title>Node484</title>
<g id="a_node5"><a xlink:href="class_bitcoin_application.html#a61afce9356e452c53ad4c83f5ca19df8" target="_top" xlink:title="BitcoinApplication\l::startThread">
<polygon fill="white" stroke="black" points="660,-44.5 660,-74.5 755,-74.5 755,-44.5 660,-44.5"/>
<text text-anchor="start" x="668" y="-62.5" font-family="Helvetica,sans-Serif" font-size="10.00">BitcoinApplication</text>
<text text-anchor="middle" x="707.5" y="-51.5" font-family="Helvetica,sans-Serif" font-size="10.00">::startThread</text>
</a>
</g>
</g>
<!-- Node483&#45;&gt;Node484 -->
<g id="edge4" class="edge"><title>Node483&#45;&gt;Node484</title>
<path fill="none" stroke="midnightblue" d="M634.101,-59.5C642.752,-59.5 651.596,-59.5 659.996,-59.5"/>
<polygon fill="midnightblue" stroke="midnightblue" points="634.072,-56.0001 624.072,-59.5 634.072,-63.0001 634.072,-56.0001"/>
</g>
<!-- Node485 -->
<g id="node6" class="node"><title>Node485</title>
<g id="a_node6"><a xlink:href="class_bitcoin_application.html#ade19c44b87b00b6b19b433caf4c22ba6" target="_top" xlink:title="Request core initialization. ">
<polygon fill="white" stroke="black" points="792.5,-49.5 792.5,-79.5 887.5,-79.5 887.5,-49.5 792.5,-49.5"/>
<text text-anchor="start" x="800.5" y="-67.5" font-family="Helvetica,sans-Serif" font-size="10.00">BitcoinApplication</text>
<text text-anchor="middle" x="840" y="-56.5" font-family="Helvetica,sans-Serif" font-size="10.00">::requestInitialize</text>
</a>
</g>
</g>
<!-- Node484&#45;&gt;Node485 -->
<g id="edge5" class="edge"><title>Node484&#45;&gt;Node485</title>
<path fill="none" stroke="midnightblue" d="M765.251,-61.6744C774.228,-62.0183 783.424,-62.3707 792.143,-62.7047"/>
<polygon fill="midnightblue" stroke="midnightblue" points="765.372,-58.1765 755.245,-61.291 765.104,-65.1714 765.372,-58.1765"/>
</g>
<!-- Node484&#45;&gt;Node487 -->
<g id="edge7" class="edge"><title>Node484&#45;&gt;Node487</title>
<path fill="none" stroke="midnightblue" d="M762.569,-41.2699C773.096,-37.7204 784.024,-34.0358 794.212,-30.6009"/>
<polygon fill="midnightblue" stroke="midnightblue" points="761.403,-37.9692 753.046,-44.4808 763.64,-44.6023 761.403,-37.9692"/>
</g>
<!-- Node486 -->
<g id="node7" class="node"><title>Node486</title>
<g id="a_node7"><a xlink:href="dash_8cpp.html#a0ddf1224851353fc92bfbff6f499fa97" target="_top" xlink:title="main">
<polygon fill="white" stroke="black" points="925,-30 925,-49 963,-49 963,-30 925,-30"/>
<text text-anchor="middle" x="944" y="-37" font-family="Helvetica,sans-Serif" font-size="10.00">main</text>
</a>
</g>
</g>
<!-- Node485&#45;&gt;Node486 -->
<g id="edge6" class="edge"><title>Node485&#45;&gt;Node486</title>
<path fill="none" stroke="midnightblue" d="M897.473,-50.6586C907.386,-48.2289 917.021,-45.8675 924.854,-43.9474"/>
<polygon fill="midnightblue" stroke="midnightblue" points="896.402,-47.3174 887.523,-53.0974 898.068,-54.1162 896.402,-47.3174"/>
</g>
<!-- Node487&#45;&gt;Node486 -->
<g id="edge8" class="edge"><title>Node487&#45;&gt;Node486</title>
<path fill="none" stroke="midnightblue" d="M898.919,-29.128C908.366,-31.3508 917.49,-33.4977 924.963,-35.2559"/>
<polygon fill="midnightblue" stroke="midnightblue" points="899.549,-25.6807 889.013,-26.7972 897.946,-32.4947 899.549,-25.6807"/>
</g>
</g>
</svg>
        <g id="navigator" transform="translate(0 0)" fill="#404254">
                <rect fill="#f2f5e9" fill-opacity="0.5" stroke="#606060" stroke-width=".5" x="0" y="0" width="60" height="60"/>
                <use id="zoomplus" xlink:href="#zoomPlus" x="17" y="9" onmousedown="handleZoom(evt,'in')"/>
                <use id="zoomminus" xlink:href="#zoomMin" x="42" y="9" onmousedown="handleZoom(evt,'out')"/>
                <use id="reset" xlink:href="#resetDef" x="30" y="36" onmousedown="handleReset()"/>
                <g id="arrowUp" xlink:href="#dirArrow" transform="translate(30 24)" onmousedown="handlePan(0,-1)">
                  <use xlink:href="#rim" fill="#404040">
                        <set attributeName="fill" to="#808080" begin="arrowUp.mouseover" end="arrowUp.mouseout"/>
                  </use>
                  <path fill="none" stroke="white" stroke-width="1.5" d="M0,-3.0v7 M-2.5,-0.5L0,-3.0L2.5,-0.5"/>
                </g>
                <g id="arrowRight" xlink:href="#dirArrow" transform="rotate(90) translate(36 -43)" onmousedown="handlePan(1,0)">
                  <use xlink:href="#rim" fill="#404040">
                        <set attributeName="fill" to="#808080" begin="arrowRight.mouseover" end="arrowRight.mouseout"/>
                  </use>
                  <path fill="none" stroke="white" stroke-width="1.5" d="M0,-3.0v7 M-2.5,-0.5L0,-3.0L2.5,-0.5"/>
                </g>
                <g id="arrowDown" xlink:href="#dirArrow" transform="rotate(180) translate(-30 -48)" onmousedown="handlePan(0,1)">
                  <use xlink:href="#rim" fill="#404040">
                        <set attributeName="fill" to="#808080" begin="arrowDown.mouseover" end="arrowDown.mouseout"/>
                  </use>
                  <path fill="none" stroke="white" stroke-width="1.5" d="M0,-3.0v7 M-2.5,-0.5L0,-3.0L2.5,-0.5"/>
                </g>
                <g id="arrowLeft" xlink:href="#dirArrow" transform="rotate(270) translate(-36 17)" onmousedown="handlePan(-1,0)">
                  <use xlink:href="#rim" fill="#404040">
                        <set attributeName="fill" to="#808080" begin="arrowLeft.mouseover" end="arrowLeft.mouseout"/>
                  </use>
                  <path fill="none" stroke="white" stroke-width="1.5" d="M0,-3.0v7 M-2.5,-0.5L0,-3.0L2.5,-0.5"/>
                </g>
        </g>
        <svg viewBox="0 0 15 15" width="100%" height="30px" preserveAspectRatio="xMaxYMin meet">
         <g id="arrow_out" transform="scale(0.3 0.3)">
          <a xlink:href="class_r_p_c_console_ac6250045ef6f8bd5e5fece3e478e141d_icgraph_org.svg" target="_base">
           <rect id="button" ry="5" rx="5" y="6" x="6" height="38" width="38"
                fill="#f2f5e9" fill-opacity="0.5" stroke="#606060" stroke-width="1.0"/>
           <path id="arrow"
             d="M 11.500037,31.436501 C 11.940474,20.09759 22.043105,11.32322 32.158766,21.979434 L 37.068811,17.246167 C 37.068811,17.246167 37.088388,32 37.088388,32 L 22.160133,31.978069 C 22.160133,31.978069 26.997745,27.140456 26.997745,27.140456 C 18.528582,18.264221 13.291696,25.230495 11.500037,31.436501 z"
             style="fill:#404040;"/>
          </a>
         </g>
        </svg>
</svg>
