<?xml version="1.0" encoding="UTF-8" standalone="no"?>
<!DOCTYPE svg PUBLIC "-//W3C//DTD SVG 1.1//EN"
 "http://www.w3.org/Graphics/SVG/1.1/DTD/svg11.dtd">
<!-- Generated by graphviz version 2.38.0 (20140413.2041)
 -->
<!-- Title: CZMQPublishHashBlockNotifier::NotifyBlock Pages: 1 -->
<svg width="1267pt" height="427pt"
 viewBox="0.00 0.00 1267.00 427.00" xmlns="http://www.w3.org/2000/svg" xmlns:xlink="http://www.w3.org/1999/xlink">
<g id="graph0" class="graph" transform="scale(1 1) rotate(0) translate(4 423)">
<title>CZMQPublishHashBlockNotifier::NotifyBlock</title>
<polygon fill="white" stroke="none" points="-4,4 -4,-423 1263,-423 1263,4 -4,4"/>
<!-- Node0 -->
<g id="node1" class="node"><title>Node0</title>
<polygon fill="#bfbfbf" stroke="black" points="0,-318 0,-348 158,-348 158,-318 0,-318"/>
<text text-anchor="start" x="8" y="-336" font-family="Helvetica,sans-Serif" font-size="10.00">CZMQPublishHashBlockNotifier</text>
<text text-anchor="middle" x="79" y="-325" font-family="Helvetica,sans-Serif" font-size="10.00">::NotifyBlock</text>
</g>
<!-- Node1 -->
<g id="node2" class="node"><title>Node1</title>
<g id="a_node2"><a xlink:href="classbase__blob.html#aeee68e00ceeacf49086e98b661e017ff" target="_top" xlink:title="base_blob::begin">
<polygon fill="white" stroke="black" points="222,-399.5 222,-418.5 312,-418.5 312,-399.5 222,-399.5"/>
<text text-anchor="middle" x="267" y="-406.5" font-family="Helvetica,sans-Serif" font-size="10.00">base_blob::begin</text>
</a>
</g>
</g>
<!-- Node0&#45;&gt;Node1 -->
<g id="edge1" class="edge"><title>Node0&#45;&gt;Node1</title>
<path fill="none" stroke="midnightblue" d="M106.477,-348.197C129.144,-360.726 162.946,-378.282 194,-390 200.42,-392.423 207.273,-394.657 214.103,-396.678"/>
<polygon fill="midnightblue" stroke="midnightblue" points="213.467,-400.135 224.042,-399.482 215.368,-393.398 213.467,-400.135"/>
</g>
<!-- Node2 -->
<g id="node3" class="node"><title>Node2</title>
<g id="a_node3"><a xlink:href="class_c_block_index.html#a98490a2788c65cdd6ae9002b004dd74c" target="_top" xlink:title="CBlockIndex::GetBlockHash">
<polygon fill="white" stroke="black" points="195.5,-361.5 195.5,-380.5 338.5,-380.5 338.5,-361.5 195.5,-361.5"/>
<text text-anchor="middle" x="267" y="-368.5" font-family="Helvetica,sans-Serif" font-size="10.00">CBlockIndex::GetBlockHash</text>
</a>
</g>
</g>
<!-- Node0&#45;&gt;Node2 -->
<g id="edge2" class="edge"><title>Node0&#45;&gt;Node2</title>
<path fill="none" stroke="midnightblue" d="M153.512,-348.019C172.102,-351.816 191.779,-355.837 209.389,-359.434"/>
<polygon fill="midnightblue" stroke="midnightblue" points="208.997,-362.927 219.495,-361.499 210.398,-356.068 208.997,-362.927"/>
</g>
<!-- Node3 -->
<g id="node4" class="node"><title>Node3</title>
<g id="a_node4"><a xlink:href="classbase__blob.html#ad7263503f949fb3c6c520ebb1f28e378" target="_top" xlink:title="base_blob::GetHex">
<polygon fill="white" stroke="black" points="216.5,-323.5 216.5,-342.5 317.5,-342.5 317.5,-323.5 216.5,-323.5"/>
<text text-anchor="middle" x="267" y="-330.5" font-family="Helvetica,sans-Serif" font-size="10.00">base_blob::GetHex</text>
</a>
</g>
</g>
<!-- Node0&#45;&gt;Node3 -->
<g id="edge3" class="edge"><title>Node0&#45;&gt;Node3</title>
<path fill="none" stroke="midnightblue" d="M158.072,-333C174.147,-333 190.832,-333 206.139,-333"/>
<polygon fill="midnightblue" stroke="midnightblue" points="206.492,-336.5 216.492,-333 206.492,-329.5 206.492,-336.5"/>
</g>
<!-- Node4 -->
<g id="node5" class="node"><title>Node4</title>
<g id="a_node5"><a xlink:href="util_8h.html#aab1f837a2366f424bdc996fdf6352171" target="_top" xlink:title="Zero&#45;arg versions of logging and error, these are not covered by TINYFORMAT_FOREACH_ARGNUM. ">
<polygon fill="white" stroke="black" points="612.5,-247.5 612.5,-266.5 665.5,-266.5 665.5,-247.5 612.5,-247.5"/>
<text text-anchor="middle" x="639" y="-254.5" font-family="Helvetica,sans-Serif" font-size="10.00">LogPrint</text>
</a>
</g>
</g>
<!-- Node0&#45;&gt;Node4 -->
<g id="edge4" class="edge"><title>Node0&#45;&gt;Node4</title>
<path fill="none" stroke="midnightblue" d="M158.087,-319.296C170.095,-317.388 182.365,-315.553 194,-314 361.363,-291.665 406.2,-307.929 572,-276 581.993,-274.076 592.66,-271.322 602.439,-268.507"/>
<polygon fill="midnightblue" stroke="midnightblue" points="603.662,-271.795 612.244,-265.582 601.661,-265.087 603.662,-271.795"/>
</g>
<!-- Node22 -->
<g id="node23" class="node"><title>Node22</title>
<g id="a_node23"><a xlink:href="class_c_z_m_q_abstract_publish_notifier.html#a1bec52cf2e0ef829bbd067cac11acfdd" target="_top" xlink:title="CZMQAbstractPublishNotifier\l::SendMessage">
<polygon fill="white" stroke="black" points="194,-236 194,-266 340,-266 340,-236 194,-236"/>
<text text-anchor="start" x="202" y="-254" font-family="Helvetica,sans-Serif" font-size="10.00">CZMQAbstractPublishNotifier</text>
<text text-anchor="middle" x="267" y="-243" font-family="Helvetica,sans-Serif" font-size="10.00">::SendMessage</text>
</a>
</g>
</g>
<!-- Node0&#45;&gt;Node22 -->
<g id="edge23" class="edge"><title>Node0&#45;&gt;Node22</title>
<path fill="none" stroke="midnightblue" d="M112.304,-317.92C135.058,-307.382 166.285,-293.091 194,-281 202.386,-277.342 211.36,-273.525 220.029,-269.888"/>
<polygon fill="midnightblue" stroke="midnightblue" points="221.393,-273.111 229.272,-266.028 218.696,-266.651 221.393,-273.111"/>
</g>
<!-- Node5 -->
<g id="node6" class="node"><title>Node5</title>
<g id="a_node6"><a xlink:href="namespacetinyformat_1_1detail.html#aa4b0590b3e34562c2d252a2086cec7ba" target="_top" xlink:title="tinyformat::detail\l::format">
<polygon fill="white" stroke="black" points="713,-286 713,-316 802,-316 802,-286 713,-286"/>
<text text-anchor="start" x="721" y="-304" font-family="Helvetica,sans-Serif" font-size="10.00">tinyformat::detail</text>
<text text-anchor="middle" x="757.5" y="-293" font-family="Helvetica,sans-Serif" font-size="10.00">::format</text>
</a>
</g>
</g>
<!-- Node4&#45;&gt;Node5 -->
<g id="edge5" class="edge"><title>Node4&#45;&gt;Node5</title>
<path fill="none" stroke="midnightblue" d="M665.279,-266.547C677.458,-271.147 692.506,-276.83 706.843,-282.245"/>
<polygon fill="midnightblue" stroke="midnightblue" points="706.019,-285.676 716.611,-285.935 708.493,-279.127 706.019,-285.676"/>
</g>
<!-- Node8 -->
<g id="node9" class="node"><title>Node8</title>
<g id="a_node9"><a xlink:href="util_8h.html#a343d2a13efe00125f78d25dafb0a8d98" target="_top" xlink:title="Return true if log accepts specified category. ">
<polygon fill="white" stroke="black" points="706,-247.5 706,-266.5 809,-266.5 809,-247.5 706,-247.5"/>
<text text-anchor="middle" x="757.5" y="-254.5" font-family="Helvetica,sans-Serif" font-size="10.00">LogAcceptCategory</text>
</a>
</g>
</g>
<!-- Node4&#45;&gt;Node8 -->
<g id="edge8" class="edge"><title>Node4&#45;&gt;Node8</title>
<path fill="none" stroke="midnightblue" d="M665.566,-257C674.5,-257 684.95,-257 695.52,-257"/>
<polygon fill="midnightblue" stroke="midnightblue" points="695.645,-260.5 705.645,-257 695.645,-253.5 695.645,-260.5"/>
</g>
<!-- Node10 -->
<g id="node11" class="node"><title>Node10</title>
<g id="a_node11"><a xlink:href="util_8h.html#afd4c3002b2797c0560adddb6af3ca1da" target="_top" xlink:title="Send a string to the log output. ">
<polygon fill="white" stroke="black" points="725,-152.5 725,-171.5 790,-171.5 790,-152.5 725,-152.5"/>
<text text-anchor="middle" x="757.5" y="-159.5" font-family="Helvetica,sans-Serif" font-size="10.00">LogPrintStr</text>
</a>
</g>
</g>
<!-- Node4&#45;&gt;Node10 -->
<g id="edge10" class="edge"><title>Node4&#45;&gt;Node10</title>
<path fill="none" stroke="midnightblue" d="M652.029,-247.191C672.102,-230.822 712.615,-197.786 736.869,-178.008"/>
<polygon fill="midnightblue" stroke="midnightblue" points="739.172,-180.646 744.71,-171.614 734.748,-175.221 739.172,-180.646"/>
</g>
<!-- Node6 -->
<g id="node7" class="node"><title>Node6</title>
<g id="a_node7"><a xlink:href="classtinyformat_1_1detail_1_1_format_iterator.html#a46377a804f72dbad1e508d2fbaa18ce9" target="_top" xlink:title="tinyformat::detail\l::FormatIterator::finish">
<polygon fill="white" stroke="black" points="845,-286 845,-316 958,-316 958,-286 845,-286"/>
<text text-anchor="start" x="853" y="-304" font-family="Helvetica,sans-Serif" font-size="10.00">tinyformat::detail</text>
<text text-anchor="middle" x="901.5" y="-293" font-family="Helvetica,sans-Serif" font-size="10.00">::FormatIterator::finish</text>
</a>
</g>
</g>
<!-- Node5&#45;&gt;Node6 -->
<g id="edge6" class="edge"><title>Node5&#45;&gt;Node6</title>
<path fill="none" stroke="midnightblue" d="M802.263,-301C812.558,-301 823.753,-301 834.777,-301"/>
<polygon fill="midnightblue" stroke="midnightblue" points="834.823,-304.5 844.823,-301 834.823,-297.5 834.823,-304.5"/>
</g>
<!-- Node7 -->
<g id="node8" class="node"><title>Node7</title>
<g id="a_node8"><a xlink:href="classtinyformat_1_1detail_1_1_format_iterator.html#af3bbb8259ac0593ec2268ef5863311d5" target="_top" xlink:title="tinyformat::detail\l::FormatIterator::printFormat\lStringLiteral">
<polygon fill="white" stroke="black" points="997,-280.5 997,-321.5 1137,-321.5 1137,-280.5 997,-280.5"/>
<text text-anchor="start" x="1005" y="-309.5" font-family="Helvetica,sans-Serif" font-size="10.00">tinyformat::detail</text>
<text text-anchor="start" x="1005" y="-298.5" font-family="Helvetica,sans-Serif" font-size="10.00">::FormatIterator::printFormat</text>
<text text-anchor="middle" x="1067" y="-287.5" font-family="Helvetica,sans-Serif" font-size="10.00">StringLiteral</text>
</a>
</g>
</g>
<!-- Node6&#45;&gt;Node7 -->
<g id="edge7" class="edge"><title>Node6&#45;&gt;Node7</title>
<path fill="none" stroke="midnightblue" d="M958.31,-301C967.51,-301 977.2,-301 986.841,-301"/>
<polygon fill="midnightblue" stroke="midnightblue" points="986.848,-304.5 996.848,-301 986.848,-297.5 986.848,-304.5"/>
</g>
<!-- Node9 -->
<g id="node10" class="node"><title>Node9</title>
<g id="a_node10"><a xlink:href="util_8cpp.html#a1db3aa900bfa259ae1fe04068f2accfc" target="_top" xlink:title="GetThreadName">
<polygon fill="white" stroke="black" points="1022.5,-206.5 1022.5,-225.5 1111.5,-225.5 1111.5,-206.5 1022.5,-206.5"/>
<text text-anchor="middle" x="1067" y="-213.5" font-family="Helvetica,sans-Serif" font-size="10.00">GetThreadName</text>
</a>
</g>
</g>
<!-- Node8&#45;&gt;Node9 -->
<g id="edge9" class="edge"><title>Node8&#45;&gt;Node9</title>
<path fill="none" stroke="midnightblue" d="M809.105,-253.669C849.539,-250.65 907.586,-245.514 958,-238 976.431,-235.253 996.469,-231.412 1014.22,-227.707"/>
<polygon fill="midnightblue" stroke="midnightblue" points="1015.33,-231.051 1024.38,-225.551 1013.87,-224.203 1015.33,-231.051"/>
</g>
<!-- Node11 -->
<g id="node12" class="node"><title>Node11</title>
<g id="a_node12"><a xlink:href="util_8cpp.html#a751ff5f21d880737811136b5e0bcea12" target="_top" xlink:title="DebugPrintInit">
<polygon fill="white" stroke="black" points="862,-209.5 862,-228.5 941,-228.5 941,-209.5 862,-209.5"/>
<text text-anchor="middle" x="901.5" y="-216.5" font-family="Helvetica,sans-Serif" font-size="10.00">DebugPrintInit</text>
</a>
</g>
</g>
<!-- Node10&#45;&gt;Node11 -->
<g id="edge11" class="edge"><title>Node10&#45;&gt;Node11</title>
<path fill="none" stroke="midnightblue" d="M778.92,-171.551C796.32,-179.55 822.078,-191.06 845,-200 850.278,-202.059 855.882,-204.119 861.423,-206.085"/>
<polygon fill="midnightblue" stroke="midnightblue" points="860.646,-209.52 871.241,-209.497 862.944,-202.908 860.646,-209.52"/>
</g>
<!-- Node12 -->
<g id="node13" class="node"><title>Node12</title>
<g id="a_node13"><a xlink:href="util_8cpp.html#a7c125ce70fa6b09e1de0c4a404fc2b6f" target="_top" xlink:title="FileWriteStr">
<polygon fill="white" stroke="black" points="867.5,-171.5 867.5,-190.5 935.5,-190.5 935.5,-171.5 867.5,-171.5"/>
<text text-anchor="middle" x="901.5" y="-178.5" font-family="Helvetica,sans-Serif" font-size="10.00">FileWriteStr</text>
</a>
</g>
</g>
<!-- Node10&#45;&gt;Node12 -->
<g id="edge12" class="edge"><title>Node10&#45;&gt;Node12</title>
<path fill="none" stroke="midnightblue" d="M790.014,-166.217C809.765,-168.859 835.492,-172.302 857.151,-175.2"/>
<polygon fill="midnightblue" stroke="midnightblue" points="856.719,-178.673 867.095,-176.53 857.648,-171.735 856.719,-178.673"/>
</g>
<!-- Node13 -->
<g id="node14" class="node"><title>Node13</title>
<g id="a_node14"><a xlink:href="util_8cpp.html#ab83866a054745d4b30a3948a1b44beba" target="_top" xlink:title="GetDataDir">
<polygon fill="white" stroke="black" points="868.5,-95.5 868.5,-114.5 934.5,-114.5 934.5,-95.5 868.5,-95.5"/>
<text text-anchor="middle" x="901.5" y="-102.5" font-family="Helvetica,sans-Serif" font-size="10.00">GetDataDir</text>
</a>
</g>
</g>
<!-- Node10&#45;&gt;Node13 -->
<g id="edge13" class="edge"><title>Node10&#45;&gt;Node13</title>
<path fill="none" stroke="midnightblue" d="M778.92,-152.449C796.32,-144.45 822.078,-132.94 845,-124 850.278,-121.941 855.882,-119.881 861.423,-117.915"/>
<polygon fill="midnightblue" stroke="midnightblue" points="862.944,-121.092 871.241,-114.503 860.646,-114.48 862.944,-121.092"/>
</g>
<!-- Node17 -->
<g id="node18" class="node"><title>Node17</title>
<g id="a_node18"><a xlink:href="util_8cpp.html#af0c31e37a5891e021f9b339696398a28" target="_top" xlink:title="fStartedNewLine is a state variable held by the calling context that will suppress printing of the th...">
<polygon fill="white" stroke="black" points="851,-133.5 851,-152.5 952,-152.5 952,-133.5 851,-133.5"/>
<text text-anchor="middle" x="901.5" y="-140.5" font-family="Helvetica,sans-Serif" font-size="10.00">LogThreadNameStr</text>
</a>
</g>
</g>
<!-- Node10&#45;&gt;Node17 -->
<g id="edge17" class="edge"><title>Node10&#45;&gt;Node17</title>
<path fill="none" stroke="midnightblue" d="M790.014,-157.783C804.973,-155.782 823.359,-153.322 840.811,-150.987"/>
<polygon fill="midnightblue" stroke="midnightblue" points="841.497,-154.426 850.944,-149.631 840.568,-147.488 841.497,-154.426"/>
</g>
<!-- Node18 -->
<g id="node19" class="node"><title>Node18</title>
<g id="a_node19"><a xlink:href="util_8cpp.html#a8e80ae045580407e9f2028dc5f7b954c" target="_top" xlink:title="fStartedNewLine is a state variable held by the calling context that will suppress printing of the ti...">
<polygon fill="white" stroke="black" points="854.5,-38.5 854.5,-57.5 948.5,-57.5 948.5,-38.5 854.5,-38.5"/>
<text text-anchor="middle" x="901.5" y="-45.5" font-family="Helvetica,sans-Serif" font-size="10.00">LogTimestampStr</text>
</a>
</g>
</g>
<!-- Node10&#45;&gt;Node18 -->
<g id="edge19" class="edge"><title>Node10&#45;&gt;Node18</title>
<path fill="none" stroke="midnightblue" d="M768.543,-152.461C784.324,-137.638 816.114,-108.447 845,-86 855.166,-78.1001 866.869,-69.9567 876.9,-63.2447"/>
<polygon fill="midnightblue" stroke="midnightblue" points="879.135,-65.9631 885.55,-57.5311 875.277,-60.1222 879.135,-65.9631"/>
</g>
<!-- Node14 -->
<g id="node15" class="node"><title>Node14</title>
<g id="a_node15"><a xlink:href="chainparamsbase_8cpp.html#a06ef5bfd0efb53d13bbf4276726e84ab" target="_top" xlink:title="Return the currently selected parameters. ">
<polygon fill="white" stroke="black" points="1030.5,-152.5 1030.5,-171.5 1103.5,-171.5 1103.5,-152.5 1030.5,-152.5"/>
<text text-anchor="middle" x="1067" y="-159.5" font-family="Helvetica,sans-Serif" font-size="10.00">BaseParams</text>
</a>
</g>
</g>
<!-- Node13&#45;&gt;Node14 -->
<g id="edge14" class="edge"><title>Node13&#45;&gt;Node14</title>
<path fill="none" stroke="midnightblue" d="M933.07,-114.512C941.265,-117.32 950.053,-120.567 958,-124 974.609,-131.174 977.145,-136.427 994,-143 1002.4,-146.276 1011.57,-149.177 1020.46,-151.665"/>
<polygon fill="midnightblue" stroke="midnightblue" points="1019.77,-155.102 1030.33,-154.296 1021.57,-148.338 1019.77,-155.102"/>
</g>
<!-- Node15 -->
<g id="node16" class="node"><title>Node15</title>
<g id="a_node16"><a xlink:href="class_c_base_chain_params.html#a4b142e94ae27f860522dd5efef41fb67" target="_top" xlink:title="CBaseChainParams::DataDir">
<polygon fill="white" stroke="black" points="994,-114.5 994,-133.5 1140,-133.5 1140,-114.5 994,-114.5"/>
<text text-anchor="middle" x="1067" y="-121.5" font-family="Helvetica,sans-Serif" font-size="10.00">CBaseChainParams::DataDir</text>
</a>
</g>
</g>
<!-- Node13&#45;&gt;Node15 -->
<g id="edge15" class="edge"><title>Node13&#45;&gt;Node15</title>
<path fill="none" stroke="midnightblue" d="M934.802,-108.754C948.961,-110.399 966.29,-112.413 983.654,-114.431"/>
<polygon fill="midnightblue" stroke="midnightblue" points="983.522,-117.939 993.859,-115.617 984.33,-110.986 983.522,-117.939"/>
</g>
<!-- Node16 -->
<g id="node17" class="node"><title>Node16</title>
<g id="a_node17"><a xlink:href="util_8cpp.html#ab272995de020a3bcbf743be630e485c6" target="_top" xlink:title="GetDefaultDataDir">
<polygon fill="white" stroke="black" points="1018,-76.5 1018,-95.5 1116,-95.5 1116,-76.5 1018,-76.5"/>
<text text-anchor="middle" x="1067" y="-83.5" font-family="Helvetica,sans-Serif" font-size="10.00">GetDefaultDataDir</text>
</a>
</g>
</g>
<!-- Node13&#45;&gt;Node16 -->
<g id="edge16" class="edge"><title>Node13&#45;&gt;Node16</title>
<path fill="none" stroke="midnightblue" d="M934.802,-101.246C955.66,-98.8224 983.397,-95.5992 1007.99,-92.7409"/>
<polygon fill="midnightblue" stroke="midnightblue" points="1008.43,-96.2143 1017.95,-91.5832 1007.62,-89.261 1008.43,-96.2143"/>
</g>
<!-- Node17&#45;&gt;Node9 -->
<g id="edge18" class="edge"><title>Node17&#45;&gt;Node9</title>
<path fill="none" stroke="midnightblue" d="M933.07,-152.512C941.265,-155.32 950.053,-158.567 958,-162 974.609,-169.174 977.862,-172.822 994,-181 1007.97,-188.078 1023.58,-195.704 1036.69,-202.026"/>
<polygon fill="midnightblue" stroke="midnightblue" points="1035.21,-205.195 1045.74,-206.372 1038.24,-198.886 1035.21,-205.195"/>
</g>
<!-- Node19 -->
<g id="node20" class="node"><title>Node19</title>
<g id="a_node20"><a xlink:href="utiltime_8cpp.html#a749bc6776c8ec72d7c5e4dea56aee415" target="_top" xlink:title="DateTimeStrFormat">
<polygon fill="white" stroke="black" points="1015.5,-38.5 1015.5,-57.5 1118.5,-57.5 1118.5,-38.5 1015.5,-38.5"/>
<text text-anchor="middle" x="1067" y="-45.5" font-family="Helvetica,sans-Serif" font-size="10.00">DateTimeStrFormat</text>
</a>
</g>
</g>
<!-- Node18&#45;&gt;Node19 -->
<g id="edge20" class="edge"><title>Node18&#45;&gt;Node19</title>
<path fill="none" stroke="midnightblue" d="M948.915,-48C966.44,-48 986.647,-48 1005.29,-48"/>
<polygon fill="midnightblue" stroke="midnightblue" points="1005.46,-51.5001 1015.46,-48 1005.46,-44.5001 1005.46,-51.5001"/>
</g>
<!-- Node20 -->
<g id="node21" class="node"><title>Node20</title>
<g id="a_node21"><a xlink:href="utiltime_8cpp.html#a474bed4c01c8a1d18330dceccf865e1e" target="_top" xlink:title="Return a time useful for the debug log. ">
<polygon fill="white" stroke="black" points="1017.5,-0.5 1017.5,-19.5 1116.5,-19.5 1116.5,-0.5 1017.5,-0.5"/>
<text text-anchor="middle" x="1067" y="-7.5" font-family="Helvetica,sans-Serif" font-size="10.00">GetLogTimeMicros</text>
</a>
</g>
</g>
<!-- Node18&#45;&gt;Node20 -->
<g id="edge21" class="edge"><title>Node18&#45;&gt;Node20</title>
<path fill="none" stroke="midnightblue" d="M943.758,-38.411C965.431,-33.3739 992.183,-27.1562 1015.13,-21.8229"/>
<polygon fill="midnightblue" stroke="midnightblue" points="1016.09,-25.1931 1025.04,-19.5201 1014.51,-18.3748 1016.09,-25.1931"/>
</g>
<!-- Node21 -->
<g id="node22" class="node"><title>Node21</title>
<g id="a_node22"><a xlink:href="utiltime_8cpp.html#a0c5a06b50cd805b1923552114494c029" target="_top" xlink:title="GetTimeMicros">
<polygon fill="white" stroke="black" points="1176,-0.5 1176,-19.5 1259,-19.5 1259,-0.5 1176,-0.5"/>
<text text-anchor="middle" x="1217.5" y="-7.5" font-family="Helvetica,sans-Serif" font-size="10.00">GetTimeMicros</text>
</a>
</g>
</g>
<!-- Node20&#45;&gt;Node21 -->
<g id="edge22" class="edge"><title>Node20&#45;&gt;Node21</title>
<path fill="none" stroke="midnightblue" d="M1116.62,-10C1132.31,-10 1149.73,-10 1165.57,-10"/>
<polygon fill="midnightblue" stroke="midnightblue" points="1165.72,-13.5001 1175.72,-10 1165.72,-6.5001 1165.72,-13.5001"/>
</g>
<!-- Node23 -->
<g id="node24" class="node"><title>Node23</title>
<g id="a_node24"><a xlink:href="common_8h.html#ab23d5d245f265908700af234252b751f" target="_top" xlink:title="WriteLE32">
<polygon fill="white" stroke="black" points="397,-247.5 397,-266.5 459,-266.5 459,-247.5 397,-247.5"/>
<text text-anchor="middle" x="428" y="-254.5" font-family="Helvetica,sans-Serif" font-size="10.00">WriteLE32</text>
</a>
</g>
</g>
<!-- Node22&#45;&gt;Node23 -->
<g id="edge24" class="edge"><title>Node22&#45;&gt;Node23</title>
<path fill="none" stroke="midnightblue" d="M340.057,-253.719C356.033,-254.322 372.414,-254.94 386.588,-255.475"/>
<polygon fill="midnightblue" stroke="midnightblue" points="386.828,-258.986 396.953,-255.866 387.092,-251.991 386.828,-258.986"/>
</g>
<!-- Node25 -->
<g id="node26" class="node"><title>Node25</title>
<g id="a_node26"><a xlink:href="zmqpublishnotifier_8cpp.html#aca291c0d70711eeb6e943cdb95ca4605" target="_top" xlink:title="zmq_send_multipart">
<polygon fill="white" stroke="black" points="376,-209.5 376,-228.5 480,-228.5 480,-209.5 376,-209.5"/>
<text text-anchor="middle" x="428" y="-216.5" font-family="Helvetica,sans-Serif" font-size="10.00">zmq_send_multipart</text>
</a>
</g>
</g>
<!-- Node22&#45;&gt;Node25 -->
<g id="edge26" class="edge"><title>Node22&#45;&gt;Node25</title>
<path fill="none" stroke="midnightblue" d="M340.057,-236.498C350.058,-234.485 360.218,-232.44 369.895,-230.493"/>
<polygon fill="midnightblue" stroke="midnightblue" points="370.666,-233.908 379.779,-228.504 369.285,-227.045 370.666,-233.908"/>
</g>
<!-- Node24 -->
<g id="node25" class="node"><title>Node24</title>
<g id="a_node25"><a xlink:href="endian_8h.html#abab10181b2a9a38233ca246e1a653b5e" target="_top" xlink:title="htole32">
<polygon fill="white" stroke="black" points="520,-247.5 520,-266.5 568,-266.5 568,-247.5 520,-247.5"/>
<text text-anchor="middle" x="544" y="-254.5" font-family="Helvetica,sans-Serif" font-size="10.00">htole32</text>
</a>
</g>
</g>
<!-- Node23&#45;&gt;Node24 -->
<g id="edge25" class="edge"><title>Node23&#45;&gt;Node24</title>
<path fill="none" stroke="midnightblue" d="M459.251,-257C474.686,-257 493.506,-257 509.392,-257"/>
<polygon fill="midnightblue" stroke="midnightblue" points="509.845,-260.5 519.845,-257 509.845,-253.5 509.845,-260.5"/>
</g>
<!-- Node26 -->
<g id="node27" class="node"><title>Node26</title>
<g id="a_node27"><a xlink:href="glibc__compat_8cpp.html#a0f46826ab0466591e136db24394923cf" target="_top" xlink:title="memcpy">
<polygon fill="white" stroke="black" points="517,-171.5 517,-190.5 571,-190.5 571,-171.5 517,-171.5"/>
<text text-anchor="middle" x="544" y="-178.5" font-family="Helvetica,sans-Serif" font-size="10.00">memcpy</text>
</a>
</g>
</g>
<!-- Node25&#45;&gt;Node26 -->
<g id="edge27" class="edge"><title>Node25&#45;&gt;Node26</title>
<path fill="none" stroke="midnightblue" d="M457.767,-209.411C472.843,-204.386 491.444,-198.185 507.419,-192.86"/>
<polygon fill="midnightblue" stroke="midnightblue" points="508.591,-196.159 516.971,-189.676 506.377,-189.518 508.591,-196.159"/>
</g>
<!-- Node28 -->
<g id="node29" class="node"><title>Node28</title>
<g id="a_node29"><a xlink:href="zmqconfig_8h.html#a9c02cc6f228cd34521a310534ec2d5ba" target="_top" xlink:title="zmqError">
<polygon fill="white" stroke="black" points="516,-209.5 516,-228.5 572,-228.5 572,-209.5 516,-209.5"/>
<text text-anchor="middle" x="544" y="-216.5" font-family="Helvetica,sans-Serif" font-size="10.00">zmqError</text>
</a>
</g>
</g>
<!-- Node25&#45;&gt;Node28 -->
<g id="edge29" class="edge"><title>Node25&#45;&gt;Node28</title>
<path fill="none" stroke="midnightblue" d="M480.331,-219C488.878,-219 497.597,-219 505.708,-219"/>
<polygon fill="midnightblue" stroke="midnightblue" points="505.957,-222.5 515.956,-219 505.956,-215.5 505.957,-222.5"/>
</g>
<!-- Node27 -->
<g id="node28" class="node"><title>Node27</title>
<g id="a_node28"><a xlink:href="glibc__compat_8cpp.html#a9778d49e9029dd75bc53ecbbf9f5e9a1" target="_top" xlink:title="memmove">
<polygon fill="white" stroke="black" points="608,-171.5 608,-190.5 670,-190.5 670,-171.5 608,-171.5"/>
<text text-anchor="middle" x="639" y="-178.5" font-family="Helvetica,sans-Serif" font-size="10.00">memmove</text>
</a>
</g>
</g>
<!-- Node26&#45;&gt;Node27 -->
<g id="edge28" class="edge"><title>Node26&#45;&gt;Node27</title>
<path fill="none" stroke="midnightblue" d="M571.401,-181C579.584,-181 588.795,-181 597.697,-181"/>
<polygon fill="midnightblue" stroke="midnightblue" points="597.926,-184.5 607.926,-181 597.926,-177.5 597.926,-184.5"/>
</g>
<!-- Node28&#45;&gt;Node4 -->
<g id="edge30" class="edge"><title>Node28&#45;&gt;Node4</title>
<path fill="none" stroke="midnightblue" d="M568.468,-228.589C579.592,-233.134 593.069,-238.641 605.185,-243.592"/>
<polygon fill="midnightblue" stroke="midnightblue" points="603.959,-246.872 614.54,-247.414 606.606,-240.392 603.959,-246.872"/>
</g>
</g>
</svg>
