<?xml version="1.0" encoding="UTF-8" standalone="no"?>
<!DOCTYPE svg PUBLIC "-//W3C//DTD SVG 1.1//EN"
 "http://www.w3.org/Graphics/SVG/1.1/DTD/svg11.dtd">
<!-- Generated by graphviz version 2.38.0 (20140413.2041)
 -->
<!-- Title: CGovernanceManager::SerializeObjectForHash Pages: 1 -->
<svg width="1175pt" height="117pt"
 viewBox="0.00 0.00 1175.00 116.97" xmlns="http://www.w3.org/2000/svg" xmlns:xlink="http://www.w3.org/1999/xlink">
<g id="graph0" class="graph" transform="scale(1 1) rotate(0) translate(4 112.97)">
<title>CGovernanceManager::SerializeObjectForHash</title>
<polygon fill="white" stroke="none" points="-4,4 -4,-112.97 1171,-112.97 1171,4 -4,4"/>
<!-- Node2116 -->
<g id="node1" class="node"><title>Node2116</title>
<polygon fill="#bfbfbf" stroke="black" points="0,-52 0,-82 126,-82 126,-52 0,-52"/>
<text text-anchor="start" x="8" y="-70" font-family="Helvetica,sans-Serif" font-size="10.00">CGovernanceManager</text>
<text text-anchor="middle" x="63" y="-59" font-family="Helvetica,sans-Serif" font-size="10.00">::SerializeObjectForHash</text>
</g>
<!-- Node2117 -->
<g id="node2" class="node"><title>Node2117</title>
<g id="a_node2"><a xlink:href="net__processing_8cpp.html#a3610bfc3daf9c22790dad01f77b2df4a" target="_top" xlink:title="ProcessGetData">
<polygon fill="white" stroke="black" points="162,-57.5 162,-76.5 251,-76.5 251,-57.5 162,-57.5"/>
<text text-anchor="middle" x="206.5" y="-64.5" font-family="Helvetica,sans-Serif" font-size="10.00">ProcessGetData</text>
</a>
</g>
</g>
<!-- Node2116&#45;&gt;Node2117 -->
<g id="edge1" class="edge"><title>Node2116&#45;&gt;Node2117</title>
<path fill="none" stroke="midnightblue" d="M136.263,-67C144.966,-67 153.639,-67 161.753,-67"/>
<polygon fill="midnightblue" stroke="midnightblue" points="136.064,-63.5001 126.064,-67 136.064,-70.5001 136.064,-63.5001"/>
</g>
<!-- Node2118 -->
<g id="node3" class="node"><title>Node2118</title>
<g id="a_node3"><a xlink:href="net__processing_8cpp.html#a193d0ece6e2f2f7ee37352ac9720bb83" target="_top" xlink:title="ProcessMessage">
<polygon fill="white" stroke="black" points="287,-76.5 287,-95.5 379,-95.5 379,-76.5 287,-76.5"/>
<text text-anchor="middle" x="333" y="-83.5" font-family="Helvetica,sans-Serif" font-size="10.00">ProcessMessage</text>
</a>
</g>
</g>
<!-- Node2117&#45;&gt;Node2118 -->
<g id="edge2" class="edge"><title>Node2117&#45;&gt;Node2118</title>
<path fill="none" stroke="midnightblue" d="M260.93,-75.154C269.474,-76.4579 278.244,-77.7963 286.579,-79.0683"/>
<polygon fill="midnightblue" stroke="midnightblue" points="261.458,-71.6941 251.044,-73.6453 260.402,-78.6139 261.458,-71.6941"/>
</g>
<!-- Node2119 -->
<g id="node4" class="node"><title>Node2119</title>
<g id="a_node4"><a xlink:href="net__processing_8h.html#a7fa42e7ffd6e6ba5b7537af248e30fc8" target="_top" xlink:title="Process protocol messages received from a given node. ">
<polygon fill="white" stroke="black" points="415,-57.5 415,-76.5 513,-76.5 513,-57.5 415,-57.5"/>
<text text-anchor="middle" x="464" y="-64.5" font-family="Helvetica,sans-Serif" font-size="10.00">ProcessMessages</text>
</a>
</g>
</g>
<!-- Node2117&#45;&gt;Node2119 -->
<g id="edge15" class="edge"><title>Node2117&#45;&gt;Node2119</title>
<path fill="none" stroke="midnightblue" d="M261.371,-67C306.743,-67 371.058,-67 414.762,-67"/>
<polygon fill="midnightblue" stroke="midnightblue" points="261.132,-63.5001 251.132,-67 261.132,-70.5001 261.132,-63.5001"/>
</g>
<!-- Node2118&#45;&gt;Node2119 -->
<g id="edge3" class="edge"><title>Node2118&#45;&gt;Node2119</title>
<path fill="none" stroke="midnightblue" d="M389.259,-77.861C397.694,-76.6187 406.344,-75.3448 414.615,-74.1264"/>
<polygon fill="midnightblue" stroke="midnightblue" points="388.501,-74.4348 379.118,-79.3547 389.521,-81.3601 388.501,-74.4348"/>
</g>
<!-- Node2120 -->
<g id="node5" class="node"><title>Node2120</title>
<g id="a_node5"><a xlink:href="net__processing_8h.html#ab02615ff65f91d69f8d786ec900baa8a" target="_top" xlink:title="Register with a network node to receive its signals. ">
<polygon fill="white" stroke="black" points="553,-76.5 553,-95.5 662,-95.5 662,-76.5 553,-76.5"/>
<text text-anchor="middle" x="607.5" y="-83.5" font-family="Helvetica,sans-Serif" font-size="10.00">RegisterNodeSignals</text>
</a>
</g>
</g>
<!-- Node2119&#45;&gt;Node2120 -->
<g id="edge4" class="edge"><title>Node2119&#45;&gt;Node2120</title>
<path fill="none" stroke="midnightblue" d="M523.265,-74.8236C532.971,-76.1268 543,-77.4734 552.59,-78.7612"/>
<polygon fill="midnightblue" stroke="midnightblue" points="523.677,-71.3476 513.301,-73.4856 522.746,-78.2853 523.677,-71.3476"/>
</g>
<!-- Node2125 -->
<g id="node10" class="node"><title>Node2125</title>
<g id="a_node10"><a xlink:href="net__processing_8h.html#a3ef0cc6e9d9d6435ee2a5569244d6ebd" target="_top" xlink:title="Unregister a network node. ">
<polygon fill="white" stroke="black" points="549,-38.5 549,-57.5 666,-57.5 666,-38.5 549,-38.5"/>
<text text-anchor="middle" x="607.5" y="-45.5" font-family="Helvetica,sans-Serif" font-size="10.00">UnregisterNodeSignals</text>
</a>
</g>
</g>
<!-- Node2119&#45;&gt;Node2125 -->
<g id="edge9" class="edge"><title>Node2119&#45;&gt;Node2125</title>
<path fill="none" stroke="midnightblue" d="M523.343,-59.166C531.7,-58.0439 540.295,-56.8898 548.642,-55.7689"/>
<polygon fill="midnightblue" stroke="midnightblue" points="522.746,-55.7147 513.301,-60.5144 523.677,-62.6524 522.746,-55.7147"/>
</g>
<!-- Node2121 -->
<g id="node6" class="node"><title>Node2121</title>
<g id="a_node6"><a xlink:href="init_8h.html#a6f0784aa332573f949b0975205572b28" target="_top" xlink:title="Initialize Dash Core. ">
<polygon fill="white" stroke="black" points="722.5,-76.5 722.5,-95.5 775.5,-95.5 775.5,-76.5 722.5,-76.5"/>
<text text-anchor="middle" x="749" y="-83.5" font-family="Helvetica,sans-Serif" font-size="10.00">AppInit2</text>
</a>
</g>
</g>
<!-- Node2120&#45;&gt;Node2121 -->
<g id="edge5" class="edge"><title>Node2120&#45;&gt;Node2121</title>
<path fill="none" stroke="midnightblue" d="M672.375,-86C690.095,-86 708.324,-86 722.444,-86"/>
<polygon fill="midnightblue" stroke="midnightblue" points="672.035,-82.5001 662.035,-86 672.035,-89.5001 672.035,-82.5001"/>
</g>
<!-- Node2122 -->
<g id="node7" class="node"><title>Node2122</title>
<g id="a_node7"><a xlink:href="dashd_8cpp.html#ac59316b767e6984e1285f0531275286b" target="_top" xlink:title="AppInit">
<polygon fill="white" stroke="black" points="1011.5,-76.5 1011.5,-95.5 1058.5,-95.5 1058.5,-76.5 1011.5,-76.5"/>
<text text-anchor="middle" x="1035" y="-83.5" font-family="Helvetica,sans-Serif" font-size="10.00">AppInit</text>
</a>
</g>
</g>
<!-- Node2121&#45;&gt;Node2122 -->
<g id="edge6" class="edge"><title>Node2121&#45;&gt;Node2122</title>
<path fill="none" stroke="midnightblue" d="M785.527,-96.0906C799.837,-99.6657 816.578,-103.237 832,-105 880.131,-110.503 892.801,-109.873 941,-105 965.266,-102.547 992.557,-96.5796 1011.27,-91.9816"/>
<polygon fill="midnightblue" stroke="midnightblue" points="786.148,-92.636 775.59,-93.5125 784.39,-99.4117 786.148,-92.636"/>
</g>
<!-- Node2124 -->
<g id="node9" class="node"><title>Node2124</title>
<g id="a_node9"><a xlink:href="class_bitcoin_core.html#af34ca069cda1d4362dcc109b4397fb62" target="_top" xlink:title="BitcoinCore::initialize">
<polygon fill="white" stroke="black" points="832,-76.5 832,-95.5 941,-95.5 941,-76.5 832,-76.5"/>
<text text-anchor="middle" x="886.5" y="-83.5" font-family="Helvetica,sans-Serif" font-size="10.00">BitcoinCore::initialize</text>
</a>
</g>
</g>
<!-- Node2121&#45;&gt;Node2124 -->
<g id="edge8" class="edge"><title>Node2121&#45;&gt;Node2124</title>
<path fill="none" stroke="midnightblue" d="M786.012,-86C800.027,-86 816.384,-86 831.739,-86"/>
<polygon fill="midnightblue" stroke="midnightblue" points="785.805,-82.5001 775.805,-86 785.805,-89.5001 785.805,-82.5001"/>
</g>
<!-- Node2123 -->
<g id="node8" class="node"><title>Node2123</title>
<g id="a_node8"><a xlink:href="dashd_8cpp.html#a0ddf1224851353fc92bfbff6f499fa97" target="_top" xlink:title="main">
<polygon fill="white" stroke="black" points="1129,-76.5 1129,-95.5 1167,-95.5 1167,-76.5 1129,-76.5"/>
<text text-anchor="middle" x="1148" y="-83.5" font-family="Helvetica,sans-Serif" font-size="10.00">main</text>
</a>
</g>
</g>
<!-- Node2122&#45;&gt;Node2123 -->
<g id="edge7" class="edge"><title>Node2122&#45;&gt;Node2123</title>
<path fill="none" stroke="midnightblue" d="M1068.77,-86C1088.33,-86 1112.46,-86 1128.7,-86"/>
<polygon fill="midnightblue" stroke="midnightblue" points="1068.73,-82.5001 1058.73,-86 1068.73,-89.5001 1068.73,-82.5001"/>
</g>
<!-- Node2126 -->
<g id="node11" class="node"><title>Node2126</title>
<g id="a_node11"><a xlink:href="init_8h.html#a5cb3db83cb0ba2e421f651a1ee1f2cfe" target="_top" xlink:title="Preparing steps before shutting down or restarting the wallet. ">
<polygon fill="white" stroke="black" points="702,-38.5 702,-57.5 796,-57.5 796,-38.5 702,-38.5"/>
<text text-anchor="middle" x="749" y="-45.5" font-family="Helvetica,sans-Serif" font-size="10.00">PrepareShutdown</text>
</a>
</g>
</g>
<!-- Node2125&#45;&gt;Node2126 -->
<g id="edge10" class="edge"><title>Node2125&#45;&gt;Node2126</title>
<path fill="none" stroke="midnightblue" d="M676.134,-48C684.773,-48 693.454,-48 701.648,-48"/>
<polygon fill="midnightblue" stroke="midnightblue" points="676.045,-44.5001 666.045,-48 676.045,-51.5001 676.045,-44.5001"/>
</g>
<!-- Node2127 -->
<g id="node12" class="node"><title>Node2127</title>
<g id="a_node12"><a xlink:href="class_bitcoin_core.html#ac2271844c89ebc4c611e7617ce6202e3" target="_top" xlink:title="BitcoinCore::restart">
<polygon fill="white" stroke="black" points="836,-38.5 836,-57.5 937,-57.5 937,-38.5 836,-38.5"/>
<text text-anchor="middle" x="886.5" y="-45.5" font-family="Helvetica,sans-Serif" font-size="10.00">BitcoinCore::restart</text>
</a>
</g>
</g>
<!-- Node2126&#45;&gt;Node2127 -->
<g id="edge11" class="edge"><title>Node2126&#45;&gt;Node2127</title>
<path fill="none" stroke="midnightblue" d="M806.285,-48C816.061,-48 826.164,-48 835.75,-48"/>
<polygon fill="midnightblue" stroke="midnightblue" points="806.252,-44.5001 796.252,-48 806.252,-51.5001 806.252,-44.5001"/>
</g>
<!-- Node2128 -->
<g id="node13" class="node"><title>Node2128</title>
<g id="a_node13"><a xlink:href="init_8h.html#ac5f038c2b480cf9ef5e19e3eba8dbaf9" target="_top" xlink:title="Shutdown is split into 2 parts: Part 1: shut down everything but the main wallet instance (done in Pr...">
<polygon fill="white" stroke="black" points="856.5,-0.5 856.5,-19.5 916.5,-19.5 916.5,-0.5 856.5,-0.5"/>
<text text-anchor="middle" x="886.5" y="-7.5" font-family="Helvetica,sans-Serif" font-size="10.00">Shutdown</text>
</a>
</g>
</g>
<!-- Node2126&#45;&gt;Node2128 -->
<g id="edge12" class="edge"><title>Node2126&#45;&gt;Node2128</title>
<path fill="none" stroke="midnightblue" d="M793.93,-35.68C814.39,-29.9422 838.171,-23.2731 856.369,-18.1695"/>
<polygon fill="midnightblue" stroke="midnightblue" points="792.876,-32.3407 784.192,-38.411 794.766,-39.0807 792.876,-32.3407"/>
</g>
<!-- Node2128&#45;&gt;Node2122 -->
<g id="edge13" class="edge"><title>Node2128&#45;&gt;Node2122</title>
<path fill="none" stroke="midnightblue" d="M926.173,-22.6455C931.228,-24.614 936.285,-26.748 941,-29 970.563,-43.1186 1002.64,-64.1858 1020.33,-76.3625"/>
<polygon fill="midnightblue" stroke="midnightblue" points="927.139,-19.2709 916.546,-19.0768 924.706,-25.8344 927.139,-19.2709"/>
</g>
<!-- Node2129 -->
<g id="node14" class="node"><title>Node2129</title>
<g id="a_node14"><a xlink:href="class_bitcoin_core.html#a94f3f4622ba698e321f3a2e0e686129f" target="_top" xlink:title="BitcoinCore::shutdown">
<polygon fill="white" stroke="black" points="977,-0.5 977,-19.5 1093,-19.5 1093,-0.5 977,-0.5"/>
<text text-anchor="middle" x="1035" y="-7.5" font-family="Helvetica,sans-Serif" font-size="10.00">BitcoinCore::shutdown</text>
</a>
</g>
</g>
<!-- Node2128&#45;&gt;Node2129 -->
<g id="edge14" class="edge"><title>Node2128&#45;&gt;Node2129</title>
<path fill="none" stroke="midnightblue" d="M926.966,-10C942.308,-10 960.182,-10 976.879,-10"/>
<polygon fill="midnightblue" stroke="midnightblue" points="926.794,-6.5001 916.794,-10 926.794,-13.5001 926.794,-6.5001"/>
</g>
</g>
</svg>
