<?xml version="1.0" encoding="UTF-8" standalone="no"?>
<!DOCTYPE svg PUBLIC "-//W3C//DTD SVG 1.1//EN"
 "http://www.w3.org/Graphics/SVG/1.1/DTD/svg11.dtd">
<!-- Generated by graphviz version 2.38.0 (20140413.2041)
 -->
<!-- Title: CDSNotificationInterface::UpdatedBlockTip Pages: 1 -->
<svg width="607pt" height="66pt"
 viewBox="0.00 0.00 607.00 66.00" xmlns="http://www.w3.org/2000/svg" xmlns:xlink="http://www.w3.org/1999/xlink">
<g id="graph0" class="graph" transform="scale(1 1) rotate(0) translate(4 62)">
<title>CDSNotificationInterface::UpdatedBlockTip</title>
<polygon fill="white" stroke="none" points="-4,4 -4,-62 603,-62 603,4 -4,4"/>
<!-- Node1178 -->
<g id="node1" class="node"><title>Node1178</title>
<polygon fill="#bfbfbf" stroke="black" points="0,-14 0,-44 126,-44 126,-14 0,-14"/>
<text text-anchor="start" x="8" y="-32" font-family="Helvetica,sans-Serif" font-size="10.00">CDSNotificationInterface</text>
<text text-anchor="middle" x="63" y="-21" font-family="Helvetica,sans-Serif" font-size="10.00">::UpdatedBlockTip</text>
</g>
<!-- Node1179 -->
<g id="node2" class="node"><title>Node1179</title>
<g id="a_node2"><a xlink:href="class_c_d_s_notification_interface.html#a2e9dff307e1373bda9ac9445f7f5a3d7" target="_top" xlink:title="CDSNotificationInterface\l::InitializeCurrentBlockTip">
<polygon fill="white" stroke="black" points="162,-14 162,-44 291,-44 291,-14 162,-14"/>
<text text-anchor="start" x="170" y="-32" font-family="Helvetica,sans-Serif" font-size="10.00">CDSNotificationInterface</text>
<text text-anchor="middle" x="226.5" y="-21" font-family="Helvetica,sans-Serif" font-size="10.00">::InitializeCurrentBlockTip</text>
</a>
</g>
</g>
<!-- Node1178&#45;&gt;Node1179 -->
<g id="edge1" class="edge"><title>Node1178&#45;&gt;Node1179</title>
<path fill="none" stroke="midnightblue" d="M136.633,-29C145.058,-29 153.602,-29 161.893,-29"/>
<polygon fill="midnightblue" stroke="midnightblue" points="136.44,-25.5001 126.44,-29 136.44,-32.5001 136.44,-25.5001"/>
</g>
<!-- Node1180 -->
<g id="node3" class="node"><title>Node1180</title>
<g id="a_node3"><a xlink:href="init_8h.html#a6f0784aa332573f949b0975205572b28" target="_top" xlink:title="Initialize Dash Core. ">
<polygon fill="white" stroke="black" points="327,-19.5 327,-38.5 380,-38.5 380,-19.5 327,-19.5"/>
<text text-anchor="middle" x="353.5" y="-26.5" font-family="Helvetica,sans-Serif" font-size="10.00">AppInit2</text>
</a>
</g>
</g>
<!-- Node1179&#45;&gt;Node1180 -->
<g id="edge2" class="edge"><title>Node1179&#45;&gt;Node1180</title>
<path fill="none" stroke="midnightblue" d="M301.14,-29C310.309,-29 319.149,-29 326.833,-29"/>
<polygon fill="midnightblue" stroke="midnightblue" points="301.099,-25.5001 291.099,-29 301.099,-32.5001 301.099,-25.5001"/>
</g>
<!-- Node1181 -->
<g id="node4" class="node"><title>Node1181</title>
<g id="a_node4"><a xlink:href="dashd_8cpp.html#ac59316b767e6984e1285f0531275286b" target="_top" xlink:title="AppInit">
<polygon fill="white" stroke="black" points="447,-38.5 447,-57.5 494,-57.5 494,-38.5 447,-38.5"/>
<text text-anchor="middle" x="470.5" y="-45.5" font-family="Helvetica,sans-Serif" font-size="10.00">AppInit</text>
</a>
</g>
</g>
<!-- Node1180&#45;&gt;Node1181 -->
<g id="edge3" class="edge"><title>Node1180&#45;&gt;Node1181</title>
<path fill="none" stroke="midnightblue" d="M390.14,-34.8884C408.614,-37.9406 430.626,-41.5773 446.775,-44.2455"/>
<polygon fill="midnightblue" stroke="midnightblue" points="390.459,-31.3937 380.022,-33.2167 389.318,-38.3001 390.459,-31.3937"/>
</g>
<!-- Node1183 -->
<g id="node6" class="node"><title>Node1183</title>
<g id="a_node6"><a xlink:href="class_bitcoin_core.html#af34ca069cda1d4362dcc109b4397fb62" target="_top" xlink:title="BitcoinCore::initialize">
<polygon fill="white" stroke="black" points="416,-0.5 416,-19.5 525,-19.5 525,-0.5 416,-0.5"/>
<text text-anchor="middle" x="470.5" y="-7.5" font-family="Helvetica,sans-Serif" font-size="10.00">BitcoinCore::initialize</text>
</a>
</g>
</g>
<!-- Node1180&#45;&gt;Node1183 -->
<g id="edge5" class="edge"><title>Node1180&#45;&gt;Node1183</title>
<path fill="none" stroke="midnightblue" d="M389.951,-23.1429C398.134,-21.7909 407.02,-20.3228 415.788,-18.8742"/>
<polygon fill="midnightblue" stroke="midnightblue" points="389.318,-19.6999 380.022,-24.7833 390.459,-26.6063 389.318,-19.6999"/>
</g>
<!-- Node1182 -->
<g id="node5" class="node"><title>Node1182</title>
<g id="a_node5"><a xlink:href="dashd_8cpp.html#a0ddf1224851353fc92bfbff6f499fa97" target="_top" xlink:title="main">
<polygon fill="white" stroke="black" points="561,-38.5 561,-57.5 599,-57.5 599,-38.5 561,-38.5"/>
<text text-anchor="middle" x="580" y="-45.5" font-family="Helvetica,sans-Serif" font-size="10.00">main</text>
</a>
</g>
</g>
<!-- Node1181&#45;&gt;Node1182 -->
<g id="edge4" class="edge"><title>Node1181&#45;&gt;Node1182</title>
<path fill="none" stroke="midnightblue" d="M504.151,-48C522.729,-48 545.304,-48 560.773,-48"/>
<polygon fill="midnightblue" stroke="midnightblue" points="504.036,-44.5001 494.036,-48 504.035,-51.5001 504.036,-44.5001"/>
</g>
</g>
</svg>
