<?xml version="1.0" encoding="UTF-8" standalone="no"?>
<!DOCTYPE svg PUBLIC "-//W3C//DTD SVG 1.1//EN"
 "http://www.w3.org/Graphics/SVG/1.1/DTD/svg11.dtd">
<!-- Generated by graphviz version 2.38.0 (20140413.2041)
 -->
<!-- Title: AddressTableModel::lookupAddress Pages: 1 -->
<svg width="491pt" height="39pt"
 viewBox="0.00 0.00 491.00 39.00" xmlns="http://www.w3.org/2000/svg" xmlns:xlink="http://www.w3.org/1999/xlink">
<g id="graph0" class="graph" transform="scale(1 1) rotate(0) translate(4 35)">
<title>AddressTableModel::lookupAddress</title>
<polygon fill="white" stroke="none" points="-4,4 -4,-35 487,-35 487,4 -4,4"/>
<!-- Node174 -->
<g id="node1" class="node"><title>Node174</title>
<polygon fill="#bfbfbf" stroke="black" points="0,-0.5 0,-30.5 109,-30.5 109,-0.5 0,-0.5"/>
<text text-anchor="start" x="8" y="-18.5" font-family="Helvetica,sans-Serif" font-size="10.00">AddressTableModel::</text>
<text text-anchor="middle" x="54.5" y="-7.5" font-family="Helvetica,sans-Serif" font-size="10.00">lookupAddress</text>
</g>
<!-- Node175 -->
<g id="node2" class="node"><title>Node175</title>
<g id="a_node2"><a xlink:href="class_transaction_view.html#a18817639384e53f94fc1ad956d7263d9" target="_top" xlink:title="TransactionView::editLabel">
<polygon fill="white" stroke="black" points="145,-6 145,-25 279,-25 279,-6 145,-6"/>
<text text-anchor="middle" x="212" y="-13" font-family="Helvetica,sans-Serif" font-size="10.00">TransactionView::editLabel</text>
</a>
</g>
</g>
<!-- Node174&#45;&gt;Node175 -->
<g id="edge1" class="edge"><title>Node174&#45;&gt;Node175</title>
<path fill="none" stroke="midnightblue" d="M119.164,-15.5C127.601,-15.5 136.266,-15.5 144.746,-15.5"/>
<polygon fill="midnightblue" stroke="midnightblue" points="119.014,-12.0001 109.014,-15.5 119.014,-19.0001 119.014,-12.0001"/>
</g>
<!-- Node176 -->
<g id="node3" class="node"><title>Node176</title>
<g id="a_node3"><a xlink:href="class_transaction_view.html#a6bad80e62c684ad1e77250510c9323aa" target="_top" xlink:title="TransactionView::TransactionView">
<polygon fill="white" stroke="black" points="315,-6 315,-25 483,-25 483,-6 315,-6"/>
<text text-anchor="middle" x="399" y="-13" font-family="Helvetica,sans-Serif" font-size="10.00">TransactionView::TransactionView</text>
</a>
</g>
</g>
<!-- Node175&#45;&gt;Node176 -->
<g id="edge2" class="edge"><title>Node175&#45;&gt;Node176</title>
<path fill="none" stroke="midnightblue" d="M289.217,-15.5C297.681,-15.5 306.333,-15.5 314.877,-15.5"/>
<polygon fill="midnightblue" stroke="midnightblue" points="289.006,-12.0001 279.006,-15.5 289.006,-19.0001 289.006,-12.0001"/>
</g>
</g>
</svg>
