<?xml version="1.0" encoding="UTF-8" standalone="no"?>
<!DOCTYPE svg PUBLIC "-//W3C//DTD SVG 1.1//EN"
 "http://www.w3.org/Graphics/SVG/1.1/DTD/svg11.dtd">
<!-- Generated by graphviz version 2.38.0 (20140413.2041)
 -->
<!-- Title: QtRPCTimerBase Pages: 1 -->
<svg width="166pt" height="84pt"
 viewBox="0.00 0.00 165.50 84.00" xmlns="http://www.w3.org/2000/svg" xmlns:xlink="http://www.w3.org/1999/xlink">
<g id="graph0" class="graph" transform="scale(1 1) rotate(0) translate(4 80)">
<title>QtRPCTimerBase</title>
<polygon fill="white" stroke="none" points="-4,4 -4,-80 161.5,-80 161.5,4 -4,4"/>
<!-- Node0 -->
<g id="node1" class="node"><title>Node0</title>
<polygon fill="#bfbfbf" stroke="black" points="22.5,-0.5 22.5,-19.5 118.5,-19.5 118.5,-0.5 22.5,-0.5"/>
<text text-anchor="middle" x="70.5" y="-7.5" font-family="Helvetica,sans-Serif" font-size="10.00">QtRPCTimerBase</text>
</g>
<!-- Node1 -->
<g id="node2" class="node"><title>Node1</title>
<polygon fill="white" stroke="#bfbfbf" points="0,-56.5 0,-75.5 53,-75.5 53,-56.5 0,-56.5"/>
<text text-anchor="middle" x="26.5" y="-63.5" font-family="Helvetica,sans-Serif" font-size="10.00">QObject</text>
</g>
<!-- Node1&#45;&gt;Node0 -->
<g id="edge1" class="edge"><title>Node1&#45;&gt;Node0</title>
<path fill="none" stroke="midnightblue" d="M40.2345,-48.144C47.9005,-38.7357 57.1333,-27.4046 63.3695,-19.7511"/>
<polygon fill="midnightblue" stroke="midnightblue" points="37.3691,-46.1198 33.7657,-56.083 42.7958,-50.5415 37.3691,-46.1198"/>
</g>
<!-- Node2 -->
<g id="node3" class="node"><title>Node2</title>
<g id="a_node3"><a xlink:href="class_r_p_c_timer_base.html" target="_top" xlink:title="Opaque base class for timers returned by NewTimerFunc. ">
<polygon fill="white" stroke="black" points="71.5,-56.5 71.5,-75.5 157.5,-75.5 157.5,-56.5 71.5,-56.5"/>
<text text-anchor="middle" x="114.5" y="-63.5" font-family="Helvetica,sans-Serif" font-size="10.00">RPCTimerBase</text>
</a>
</g>
</g>
<!-- Node2&#45;&gt;Node0 -->
<g id="edge2" class="edge"><title>Node2&#45;&gt;Node0</title>
<path fill="none" stroke="midnightblue" d="M100.765,-48.144C93.0995,-38.7357 83.8667,-27.4046 77.6305,-19.7511"/>
<polygon fill="midnightblue" stroke="midnightblue" points="98.2042,-50.5415 107.234,-56.083 103.631,-46.1198 98.2042,-50.5415"/>
</g>
</g>
</svg>
