<?xml version="1.0" encoding="UTF-8" standalone="no"?>
<!DOCTYPE svg PUBLIC "-//W3C//DTD SVG 1.1//EN"
 "http://www.w3.org/Graphics/SVG/1.1/DTD/svg11.dtd">
<!-- Generated by graphviz version 2.38.0 (20140413.2041)
 -->
<!-- Title: CPrivateSendBase Pages: 1 -->
<svg width="288pt" height="163pt"
 viewBox="0.00 0.00 287.50 163.00" xmlns="http://www.w3.org/2000/svg" xmlns:xlink="http://www.w3.org/1999/xlink">
<g id="graph0" class="graph" transform="scale(1 1) rotate(0) translate(4 159)">
<title>CPrivateSendBase</title>
<polygon fill="white" stroke="none" points="-4,4 -4,-159 283.5,-159 283.5,4 -4,4"/>
<!-- Node3 -->
<g id="node1" class="node"><title>Node3</title>
<polygon fill="#bfbfbf" stroke="black" points="100.5,-0.5 100.5,-19.5 200.5,-19.5 200.5,-0.5 100.5,-0.5"/>
<text text-anchor="middle" x="150.5" y="-7.5" font-family="Helvetica,sans-Serif" font-size="10.00">CPrivateSendBase</text>
</g>
<!-- Node4 -->
<g id="node2" class="node"><title>Node4</title>
<polygon fill="white" stroke="#bfbfbf" points="1,-67.5 1,-97.5 118,-97.5 118,-67.5 1,-67.5"/>
<text text-anchor="start" x="9" y="-85.5" font-family="Helvetica,sans-Serif" font-size="10.00">AnnotatedMixin&lt; boost</text>
<text text-anchor="middle" x="59.5" y="-74.5" font-family="Helvetica,sans-Serif" font-size="10.00">::recursive_mutex &gt;</text>
</g>
<!-- Node4&#45;&gt;Node3 -->
<g id="edge1" class="edge"><title>Node4&#45;&gt;Node3</title>
<path fill="none" stroke="#9a32cd" stroke-dasharray="5,2" d="M79.9835,-59.6947C87.3672,-52.3909 95.9851,-44.4678 104.5,-38 113.644,-31.0544 124.722,-24.5027 133.715,-19.5928"/>
<polygon fill="#9a32cd" stroke="#9a32cd" points="77.0392,-57.6966 72.5192,-67.2789 82.0283,-62.6067 77.0392,-57.6966"/>
<text text-anchor="middle" x="134" y="-41" font-family="Helvetica,sans-Serif" font-size="10.00"> cs_darksend</text>
</g>
<!-- Node5 -->
<g id="node3" class="node"><title>Node5</title>
<polygon fill="white" stroke="#bfbfbf" points="0,-135.5 0,-154.5 119,-154.5 119,-135.5 0,-135.5"/>
<text text-anchor="middle" x="59.5" y="-142.5" font-family="Helvetica,sans-Serif" font-size="10.00">boost::recursive_mutex</text>
</g>
<!-- Node5&#45;&gt;Node4 -->
<g id="edge2" class="edge"><title>Node5&#45;&gt;Node4</title>
<path fill="none" stroke="midnightblue" d="M59.5,-125.215C59.5,-116.356 59.5,-105.958 59.5,-97.7587"/>
<polygon fill="midnightblue" stroke="midnightblue" points="56.0001,-125.332 59.5,-135.332 63.0001,-125.332 56.0001,-125.332"/>
</g>
<!-- Node6 -->
<g id="node4" class="node"><title>Node6</title>
<g id="a_node4"><a xlink:href="struct_c_mutable_transaction.html" target="_top" xlink:title="A mutable version of CTransaction. ">
<polygon fill="white" stroke="black" points="136.5,-73 136.5,-92 246.5,-92 246.5,-73 136.5,-73"/>
<text text-anchor="middle" x="191.5" y="-80" font-family="Helvetica,sans-Serif" font-size="10.00">CMutableTransaction</text>
</a>
</g>
</g>
<!-- Node6&#45;&gt;Node3 -->
<g id="edge3" class="edge"><title>Node6&#45;&gt;Node3</title>
<path fill="none" stroke="#9a32cd" stroke-dasharray="5,2" d="M181.375,-64.09C173.181,-49.9995 161.983,-30.7445 155.569,-19.7154"/>
<polygon fill="#9a32cd" stroke="#9a32cd" points="178.42,-65.9704 186.473,-72.8553 184.471,-62.4513 178.42,-65.9704"/>
<text text-anchor="middle" x="226" y="-41" font-family="Helvetica,sans-Serif" font-size="10.00"> finalMutableTransaction</text>
</g>
</g>
</svg>
