<?xml version="1.0" encoding="UTF-8" standalone="no"?>
<!DOCTYPE svg PUBLIC "-//W3C//DTD SVG 1.1//EN"
 "http://www.w3.org/Graphics/SVG/1.1/DTD/svg11.dtd">
<!-- Generated by graphviz version 2.38.0 (20140413.2041)
 -->
<!-- Title: RecentRequestsTableModel::addNewRequest Pages: 1 -->
<svg width="472pt" height="137pt"
 viewBox="0.00 0.00 472.00 137.00" xmlns="http://www.w3.org/2000/svg" xmlns:xlink="http://www.w3.org/1999/xlink">
<g id="graph0" class="graph" transform="scale(1 1) rotate(0) translate(4 133)">
<title>RecentRequestsTableModel::addNewRequest</title>
<polygon fill="white" stroke="none" points="-4,4 -4,-133 468,-133 468,4 -4,4"/>
<!-- Node39 -->
<g id="node1" class="node"><title>Node39</title>
<polygon fill="#bfbfbf" stroke="black" points="0,-49.5 0,-79.5 140,-79.5 140,-49.5 0,-49.5"/>
<text text-anchor="start" x="8" y="-67.5" font-family="Helvetica,sans-Serif" font-size="10.00">RecentRequestsTableModel</text>
<text text-anchor="middle" x="70" y="-56.5" font-family="Helvetica,sans-Serif" font-size="10.00">::addNewRequest</text>
</g>
<!-- Node40 -->
<g id="node2" class="node"><title>Node40</title>
<g id="a_node2"><a xlink:href="class_recent_requests_table_model.html#aad0b9435284ed1f4b67852b34d7694a9" target="_top" xlink:title="RecentRequestsTableModel\l::addNewRequest">
<polygon fill="white" stroke="black" points="179,-98.5 179,-128.5 319,-128.5 319,-98.5 179,-98.5"/>
<text text-anchor="start" x="187" y="-116.5" font-family="Helvetica,sans-Serif" font-size="10.00">RecentRequestsTableModel</text>
<text text-anchor="middle" x="249" y="-105.5" font-family="Helvetica,sans-Serif" font-size="10.00">::addNewRequest</text>
</a>
</g>
</g>
<!-- Node39&#45;&gt;Node40 -->
<g id="edge1" class="edge"><title>Node39&#45;&gt;Node40</title>
<path fill="none" stroke="midnightblue" d="M135.375,-82.3212C154.485,-87.6118 175.221,-93.3522 193.63,-98.4484"/>
<polygon fill="midnightblue" stroke="midnightblue" points="136.121,-78.8964 125.55,-79.6014 134.254,-85.6427 136.121,-78.8964"/>
</g>
<!-- Node41 -->
<g id="node3" class="node"><title>Node41</title>
<g id="a_node3"><a xlink:href="class_receive_coins_dialog.html#a9db8de31f6889288cb22c061aa51e0cd" target="_top" xlink:title="ReceiveCoinsDialog\l::on_receiveButton_clicked">
<polygon fill="white" stroke="black" points="182,-49.5 182,-79.5 316,-79.5 316,-49.5 182,-49.5"/>
<text text-anchor="start" x="190" y="-67.5" font-family="Helvetica,sans-Serif" font-size="10.00">ReceiveCoinsDialog</text>
<text text-anchor="middle" x="249" y="-56.5" font-family="Helvetica,sans-Serif" font-size="10.00">::on_receiveButton_clicked</text>
</a>
</g>
</g>
<!-- Node39&#45;&gt;Node41 -->
<g id="edge2" class="edge"><title>Node39&#45;&gt;Node41</title>
<path fill="none" stroke="midnightblue" d="M150.22,-64.5C160.756,-64.5 171.469,-64.5 181.753,-64.5"/>
<polygon fill="midnightblue" stroke="midnightblue" points="150.193,-61.0001 140.193,-64.5 150.193,-68.0001 150.193,-61.0001"/>
</g>
<!-- Node43 -->
<g id="node5" class="node"><title>Node43</title>
<g id="a_node5"><a xlink:href="class_recent_requests_table_model.html#ab3ef691b8c34e6d6e5ae0bdf7953a360" target="_top" xlink:title="RecentRequestsTableModel\l::RecentRequestsTableModel">
<polygon fill="white" stroke="black" points="176,-0.5 176,-30.5 322,-30.5 322,-0.5 176,-0.5"/>
<text text-anchor="start" x="184" y="-18.5" font-family="Helvetica,sans-Serif" font-size="10.00">RecentRequestsTableModel</text>
<text text-anchor="middle" x="249" y="-7.5" font-family="Helvetica,sans-Serif" font-size="10.00">::RecentRequestsTableModel</text>
</a>
</g>
</g>
<!-- Node39&#45;&gt;Node43 -->
<g id="edge4" class="edge"><title>Node39&#45;&gt;Node43</title>
<path fill="none" stroke="midnightblue" d="M135.375,-46.6788C154.485,-41.3882 175.221,-35.6478 193.63,-30.5516"/>
<polygon fill="midnightblue" stroke="midnightblue" points="134.254,-43.3573 125.55,-49.3986 136.121,-50.1036 134.254,-43.3573"/>
</g>
<!-- Node42 -->
<g id="node4" class="node"><title>Node42</title>
<g id="a_node4"><a xlink:href="class_receive_coins_dialog.html#abcf17b510c473bf3e94ef12f7f5cfc10" target="_top" xlink:title="ReceiveCoinsDialog\l::keyPressEvent">
<polygon fill="white" stroke="black" points="358,-49.5 358,-79.5 464,-79.5 464,-49.5 358,-49.5"/>
<text text-anchor="start" x="366" y="-67.5" font-family="Helvetica,sans-Serif" font-size="10.00">ReceiveCoinsDialog</text>
<text text-anchor="middle" x="411" y="-56.5" font-family="Helvetica,sans-Serif" font-size="10.00">::keyPressEvent</text>
</a>
</g>
</g>
<!-- Node41&#45;&gt;Node42 -->
<g id="edge3" class="edge"><title>Node41&#45;&gt;Node42</title>
<path fill="none" stroke="midnightblue" d="M326.212,-64.5C336.916,-64.5 347.711,-64.5 357.828,-64.5"/>
<polygon fill="midnightblue" stroke="midnightblue" points="326.002,-61.0001 316.002,-64.5 326.002,-68.0001 326.002,-61.0001"/>
</g>
</g>
</svg>
