<?xml version="1.0" encoding="UTF-8" standalone="no"?>
<!DOCTYPE svg PUBLIC "-//W3C//DTD SVG 1.1//EN"
 "http://www.w3.org/Graphics/SVG/1.1/DTD/svg11.dtd">
<!-- Generated by graphviz version 2.38.0 (20140413.2041)
 -->
<!-- Title: CPrivateSendServer::PushStatus Pages: 1 -->
<!--zoomable 544 -->
<svg id="main" version="1.1" xmlns="http://www.w3.org/2000/svg" xmlns:xlink="http://www.w3.org/1999/xlink" xml:space="preserve" onload="init(evt)">
<style type="text/css"><![CDATA[
.edge:hover path { stroke: red; }
.edge:hover polygon { stroke: red; fill: red; }
]]></style>
<script type="text/javascript"><![CDATA[
var edges = document.getElementsByTagName('g');
if (edges && edges.length) {
  for (var i=0;i<edges.length;i++) {
    if (edges[i].id.substr(0,4)=='edge') {
      edges[i].setAttribute('class','edge');
    }
  }
}
]]></script>
        <defs>
                <circle id="rim" cx="0" cy="0" r="7"/>
                <circle id="rim2" cx="0" cy="0" r="3.5"/>
                <g id="zoomPlus">
                        <use xlink:href="#rim" fill="#404040">
                                <set attributeName="fill" to="#808080" begin="zoomplus.mouseover" end="zoomplus.mouseout"/>
                        </use>
                        <path d="M-4,0h8M0,-4v8" fill="none" stroke="white" stroke-width="1.5" pointer-events="none"/>
                </g>
                <g id="zoomMin">
                        <use xlink:href="#rim" fill="#404040">
                                <set attributeName="fill" to="#808080" begin="zoomminus.mouseover" end="zoomminus.mouseout"/>
                        </use>
                        <path d="M-4,0h8" fill="none" stroke="white" stroke-width="1.5" pointer-events="none"/>
                </g>
                <g id="dirArrow">
                        <path fill="none" stroke="white" stroke-width="1.5" d="M0,-3.0v7 M-2.5,-0.5L0,-3.0L2.5,-0.5"/>
                </g>
               <g id="resetDef">
                       <use xlink:href="#rim2" fill="#404040">
                               <set attributeName="fill" to="#808080" begin="reset.mouseover" end="reset.mouseout"/>
                       </use>
               </g>
        </defs>

<script type="text/javascript">
var viewWidth = 1560;
var viewHeight = 544;
var sectionId = 'dynsection-36';
</script>
<script xlink:href="svgpan.js"/>
<svg id="graph" class="graph">
<g id="viewport">
<title>CPrivateSendServer::PushStatus</title>
<polygon fill="white" stroke="none" points="-4,4 -4,-540 1556,-540 1556,4 -4,4"/>
<!-- Node3529 -->
<g id="node1" class="node"><title>Node3529</title>
<polygon fill="#bfbfbf" stroke="black" points="0,-128 0,-158 106,-158 106,-128 0,-128"/>
<text text-anchor="start" x="8" y="-146" font-family="Helvetica,sans-Serif" font-size="10.00">CPrivateSendServer</text>
<text text-anchor="middle" x="53" y="-135" font-family="Helvetica,sans-Serif" font-size="10.00">::PushStatus</text>
</g>
<!-- Node3530 -->
<g id="node2" class="node"><title>Node3530</title>
<g id="a_node2"><a xlink:href="class_c_connman.html#a7083075680ab1633003a4a5acb09b453" target="_top" xlink:title="CConnman::PushMessage">
<polygon fill="white" stroke="black" points="142,-133.5 142,-152.5 276,-152.5 276,-133.5 142,-133.5"/>
<text text-anchor="middle" x="209" y="-140.5" font-family="Helvetica,sans-Serif" font-size="10.00">CConnman::PushMessage</text>
</a>
</g>
</g>
<!-- Node3529&#45;&gt;Node3530 -->
<g id="edge1" class="edge"><title>Node3529&#45;&gt;Node3530</title>
<path fill="none" stroke="midnightblue" d="M106.137,-143C114.416,-143 123.124,-143 131.819,-143"/>
<polygon fill="midnightblue" stroke="midnightblue" points="131.992,-146.5 141.992,-143 131.992,-139.5 131.992,-146.5"/>
</g>
<!-- Node3531 -->
<g id="node3" class="node"><title>Node3531</title>
<g id="a_node3"><a xlink:href="class_c_connman.html#aadf6f72eea5e6014bd83c365064d6470" target="_top" xlink:title="CConnman::PushMessageWith\lVersionAndFlag">
<polygon fill="white" stroke="black" points="312,-128 312,-158 467,-158 467,-128 312,-128"/>
<text text-anchor="start" x="320" y="-146" font-family="Helvetica,sans-Serif" font-size="10.00">CConnman::PushMessageWith</text>
<text text-anchor="middle" x="389.5" y="-135" font-family="Helvetica,sans-Serif" font-size="10.00">VersionAndFlag</text>
</a>
</g>
</g>
<!-- Node3530&#45;&gt;Node3531 -->
<g id="edge2" class="edge"><title>Node3530&#45;&gt;Node3531</title>
<path fill="none" stroke="midnightblue" d="M276.213,-136.454C284.557,-136.303 293.189,-136.236 301.789,-136.252"/>
<polygon fill="midnightblue" stroke="midnightblue" points="301.832,-139.753 311.852,-136.31 301.872,-132.753 301.832,-139.753"/>
</g>
<!-- Node3531&#45;&gt;Node3530 -->
<g id="edge48" class="edge"><title>Node3531&#45;&gt;Node3530</title>
<path fill="none" stroke="midnightblue" d="M311.852,-149.69C303.417,-149.771 294.83,-149.77 286.399,-149.687"/>
<polygon fill="midnightblue" stroke="midnightblue" points="286.261,-146.185 276.213,-149.546 286.164,-153.185 286.261,-146.185"/>
</g>
<!-- Node3532 -->
<g id="node4" class="node"><title>Node3532</title>
<g id="a_node4"><a xlink:href="class_c_connman.html#af33367840224e80bcfa5c6582dc88170" target="_top" xlink:title="CConnman::BeginMessage">
<polygon fill="white" stroke="black" points="503,-295.5 503,-314.5 640,-314.5 640,-295.5 503,-295.5"/>
<text text-anchor="middle" x="571.5" y="-302.5" font-family="Helvetica,sans-Serif" font-size="10.00">CConnman::BeginMessage</text>
</a>
</g>
</g>
<!-- Node3531&#45;&gt;Node3532 -->
<g id="edge3" class="edge"><title>Node3531&#45;&gt;Node3532</title>
<path fill="none" stroke="midnightblue" d="M407.434,-158.241C441.301,-188.721 517.126,-256.963 552.137,-288.474"/>
<polygon fill="midnightblue" stroke="midnightblue" points="549.954,-291.217 559.728,-295.305 554.637,-286.014 549.954,-291.217"/>
</g>
<!-- Node3553 -->
<g id="node25" class="node"><title>Node3553</title>
<g id="a_node25"><a xlink:href="class_c_connman.html#a4f4e4c1e7e161ff31b73f64d97b9900e" target="_top" xlink:title="CConnman::EndMessage">
<polygon fill="white" stroke="black" points="507,-133.5 507,-152.5 636,-152.5 636,-133.5 507,-133.5"/>
<text text-anchor="middle" x="571.5" y="-140.5" font-family="Helvetica,sans-Serif" font-size="10.00">CConnman::EndMessage</text>
</a>
</g>
</g>
<!-- Node3531&#45;&gt;Node3553 -->
<g id="edge24" class="edge"><title>Node3531&#45;&gt;Node3553</title>
<path fill="none" stroke="midnightblue" d="M467.097,-143C476.969,-143 487.06,-143 496.882,-143"/>
<polygon fill="midnightblue" stroke="midnightblue" points="497,-146.5 507,-143 497,-139.5 497,-146.5"/>
</g>
<!-- Node3574 -->
<g id="node46" class="node"><title>Node3574</title>
<g id="a_node46"><a xlink:href="serialize_8h.html#ad4ccb7eebcb006dc7143382e9a6c4642" target="_top" xlink:title="SerializeMany">
<polygon fill="white" stroke="black" points="532.5,-95.5 532.5,-114.5 610.5,-114.5 610.5,-95.5 532.5,-95.5"/>
<text text-anchor="middle" x="571.5" y="-102.5" font-family="Helvetica,sans-Serif" font-size="10.00">SerializeMany</text>
</a>
</g>
</g>
<!-- Node3531&#45;&gt;Node3574 -->
<g id="edge49" class="edge"><title>Node3531&#45;&gt;Node3574</title>
<path fill="none" stroke="midnightblue" d="M461.641,-127.981C482.037,-123.675 503.787,-119.084 522.441,-115.146"/>
<polygon fill="midnightblue" stroke="midnightblue" points="523.396,-118.521 532.457,-113.031 521.95,-111.672 523.396,-118.521"/>
</g>
<!-- Node3533 -->
<g id="node5" class="node"><title>Node3533</title>
<g id="a_node5"><a xlink:href="class_c_node.html#a253ceac237f69cc1155bfb71acd0c48f" target="_top" xlink:title="CNode::GetSendVersion">
<polygon fill="white" stroke="black" points="688.5,-371.5 688.5,-390.5 813.5,-390.5 813.5,-371.5 688.5,-371.5"/>
<text text-anchor="middle" x="751" y="-378.5" font-family="Helvetica,sans-Serif" font-size="10.00">CNode::GetSendVersion</text>
</a>
</g>
</g>
<!-- Node3532&#45;&gt;Node3533 -->
<g id="edge4" class="edge"><title>Node3532&#45;&gt;Node3533</title>
<path fill="none" stroke="midnightblue" d="M594.98,-314.625C626.189,-327.988 682.799,-352.227 718.29,-367.423"/>
<polygon fill="midnightblue" stroke="midnightblue" points="717.132,-370.734 727.702,-371.453 719.887,-364.299 717.132,-370.734"/>
</g>
<!-- Node3551 -->
<g id="node23" class="node"><title>Node3551</title>
<g id="a_node23"><a xlink:href="class_c_chain_params.html#a42f81df0a4f3494e3fc83ab53049fdd9" target="_top" xlink:title="CChainParams::MessageStart">
<polygon fill="white" stroke="black" points="676,-314.5 676,-333.5 826,-333.5 826,-314.5 676,-314.5"/>
<text text-anchor="middle" x="751" y="-321.5" font-family="Helvetica,sans-Serif" font-size="10.00">CChainParams::MessageStart</text>
</a>
</g>
</g>
<!-- Node3532&#45;&gt;Node3551 -->
<g id="edge22" class="edge"><title>Node3532&#45;&gt;Node3551</title>
<path fill="none" stroke="midnightblue" d="M640.111,-312.237C648.491,-313.134 657.138,-314.06 665.728,-314.979"/>
<polygon fill="midnightblue" stroke="midnightblue" points="665.452,-318.47 675.768,-316.054 666.197,-311.509 665.452,-318.47"/>
</g>
<!-- Node3552 -->
<g id="node24" class="node"><title>Node3552</title>
<g id="a_node24"><a xlink:href="chainparams_8cpp.html#ace5c5b706d71a324a417dd2db394fd4a" target="_top" xlink:title="Return the currently selected parameters. ">
<polygon fill="white" stroke="black" points="726,-276.5 726,-295.5 776,-295.5 776,-276.5 726,-276.5"/>
<text text-anchor="middle" x="751" y="-283.5" font-family="Helvetica,sans-Serif" font-size="10.00">Params</text>
</a>
</g>
</g>
<!-- Node3532&#45;&gt;Node3552 -->
<g id="edge23" class="edge"><title>Node3532&#45;&gt;Node3552</title>
<path fill="none" stroke="midnightblue" d="M640.111,-297.763C665.925,-295 694.273,-291.965 715.71,-289.671"/>
<polygon fill="midnightblue" stroke="midnightblue" points="716.367,-293.12 725.938,-288.576 715.622,-286.16 716.367,-293.12"/>
</g>
<!-- Node3534 -->
<g id="node6" class="node"><title>Node3534</title>
<g id="a_node6"><a xlink:href="util_8h.html#af8985880cf4ef26df0a5aa2ffcb76662" target="_top" xlink:title="error">
<polygon fill="white" stroke="black" points="895.5,-380.5 895.5,-399.5 931.5,-399.5 931.5,-380.5 895.5,-380.5"/>
<text text-anchor="middle" x="913.5" y="-387.5" font-family="Helvetica,sans-Serif" font-size="10.00">error</text>
</a>
</g>
</g>
<!-- Node3533&#45;&gt;Node3534 -->
<g id="edge5" class="edge"><title>Node3533&#45;&gt;Node3534</title>
<path fill="none" stroke="midnightblue" d="M813.594,-384.454C838.358,-385.843 865.631,-387.372 885.254,-388.472"/>
<polygon fill="midnightblue" stroke="midnightblue" points="885.124,-391.97 895.305,-389.036 885.516,-384.981 885.124,-391.97"/>
</g>
<!-- Node3535 -->
<g id="node7" class="node"><title>Node3535</title>
<g id="a_node7"><a xlink:href="namespacetinyformat_1_1detail.html#aa4b0590b3e34562c2d252a2086cec7ba" target="_top" xlink:title="tinyformat::detail\l::format">
<polygon fill="white" stroke="black" points="1007,-457 1007,-487 1096,-487 1096,-457 1007,-457"/>
<text text-anchor="start" x="1015" y="-475" font-family="Helvetica,sans-Serif" font-size="10.00">tinyformat::detail</text>
<text text-anchor="middle" x="1051.5" y="-464" font-family="Helvetica,sans-Serif" font-size="10.00">::format</text>
</a>
</g>
</g>
<!-- Node3534&#45;&gt;Node3535 -->
<g id="edge6" class="edge"><title>Node3534&#45;&gt;Node3535</title>
<path fill="none" stroke="midnightblue" d="M930.367,-399.567C951.393,-412.244 989.039,-434.943 1016.6,-451.56"/>
<polygon fill="midnightblue" stroke="midnightblue" points="1015.15,-454.774 1025.52,-456.94 1018.77,-448.779 1015.15,-454.774"/>
</g>
<!-- Node3538 -->
<g id="node10" class="node"><title>Node3538</title>
<g id="a_node10"><a xlink:href="util_8h.html#afd4c3002b2797c0560adddb6af3ca1da" target="_top" xlink:title="Send a string to the log output. ">
<polygon fill="white" stroke="black" points="1019,-380.5 1019,-399.5 1084,-399.5 1084,-380.5 1019,-380.5"/>
<text text-anchor="middle" x="1051.5" y="-387.5" font-family="Helvetica,sans-Serif" font-size="10.00">LogPrintStr</text>
</a>
</g>
</g>
<!-- Node3534&#45;&gt;Node3538 -->
<g id="edge9" class="edge"><title>Node3534&#45;&gt;Node3538</title>
<path fill="none" stroke="midnightblue" d="M931.724,-390C950.948,-390 982.748,-390 1008.61,-390"/>
<polygon fill="midnightblue" stroke="midnightblue" points="1008.91,-393.5 1018.91,-390 1008.91,-386.5 1008.91,-393.5"/>
</g>
<!-- Node3536 -->
<g id="node8" class="node"><title>Node3536</title>
<g id="a_node8"><a xlink:href="classtinyformat_1_1detail_1_1_format_iterator.html#a46377a804f72dbad1e508d2fbaa18ce9" target="_top" xlink:title="tinyformat::detail\l::FormatIterator::finish">
<polygon fill="white" stroke="black" points="1138,-497 1138,-527 1251,-527 1251,-497 1138,-497"/>
<text text-anchor="start" x="1146" y="-515" font-family="Helvetica,sans-Serif" font-size="10.00">tinyformat::detail</text>
<text text-anchor="middle" x="1194.5" y="-504" font-family="Helvetica,sans-Serif" font-size="10.00">::FormatIterator::finish</text>
</a>
</g>
</g>
<!-- Node3535&#45;&gt;Node3536 -->
<g id="edge7" class="edge"><title>Node3535&#45;&gt;Node3536</title>
<path fill="none" stroke="midnightblue" d="M1096.34,-484.437C1107.27,-487.537 1119.19,-490.92 1130.83,-494.223"/>
<polygon fill="midnightblue" stroke="midnightblue" points="1129.94,-497.607 1140.52,-496.969 1131.85,-490.873 1129.94,-497.607"/>
</g>
<!-- Node3537 -->
<g id="node9" class="node"><title>Node3537</title>
<g id="a_node9"><a xlink:href="classtinyformat_1_1detail_1_1_format_iterator.html#af3bbb8259ac0593ec2268ef5863311d5" target="_top" xlink:title="tinyformat::detail\l::FormatIterator::printFormat\lStringLiteral">
<polygon fill="white" stroke="black" points="1290,-494.5 1290,-535.5 1430,-535.5 1430,-494.5 1290,-494.5"/>
<text text-anchor="start" x="1298" y="-523.5" font-family="Helvetica,sans-Serif" font-size="10.00">tinyformat::detail</text>
<text text-anchor="start" x="1298" y="-512.5" font-family="Helvetica,sans-Serif" font-size="10.00">::FormatIterator::printFormat</text>
<text text-anchor="middle" x="1360" y="-501.5" font-family="Helvetica,sans-Serif" font-size="10.00">StringLiteral</text>
</a>
</g>
</g>
<!-- Node3536&#45;&gt;Node3537 -->
<g id="edge8" class="edge"><title>Node3536&#45;&gt;Node3537</title>
<path fill="none" stroke="midnightblue" d="M1251.31,-513.024C1260.51,-513.193 1270.2,-513.371 1279.84,-513.548"/>
<polygon fill="midnightblue" stroke="midnightblue" points="1279.79,-517.047 1289.85,-513.731 1279.91,-510.048 1279.79,-517.047"/>
</g>
<!-- Node3539 -->
<g id="node11" class="node"><title>Node3539</title>
<g id="a_node11"><a xlink:href="util_8cpp.html#a751ff5f21d880737811136b5e0bcea12" target="_top" xlink:title="DebugPrintInit">
<polygon fill="white" stroke="black" points="1155,-456.5 1155,-475.5 1234,-475.5 1234,-456.5 1155,-456.5"/>
<text text-anchor="middle" x="1194.5" y="-463.5" font-family="Helvetica,sans-Serif" font-size="10.00">DebugPrintInit</text>
</a>
</g>
</g>
<!-- Node3538&#45;&gt;Node3539 -->
<g id="edge10" class="edge"><title>Node3538&#45;&gt;Node3539</title>
<path fill="none" stroke="midnightblue" d="M1064.63,-399.566C1080.67,-411.858 1110.17,-433.249 1138,-447 1142.28,-449.116 1146.86,-451.095 1151.48,-452.915"/>
<polygon fill="midnightblue" stroke="midnightblue" points="1150.35,-456.228 1160.94,-456.423 1152.78,-449.664 1150.35,-456.228"/>
</g>
<!-- Node3540 -->
<g id="node12" class="node"><title>Node3540</title>
<g id="a_node12"><a xlink:href="util_8cpp.html#a7c125ce70fa6b09e1de0c4a404fc2b6f" target="_top" xlink:title="FileWriteStr">
<polygon fill="white" stroke="black" points="1160.5,-418.5 1160.5,-437.5 1228.5,-437.5 1228.5,-418.5 1160.5,-418.5"/>
<text text-anchor="middle" x="1194.5" y="-425.5" font-family="Helvetica,sans-Serif" font-size="10.00">FileWriteStr</text>
</a>
</g>
</g>
<!-- Node3538&#45;&gt;Node3540 -->
<g id="edge11" class="edge"><title>Node3538&#45;&gt;Node3540</title>
<path fill="none" stroke="midnightblue" d="M1084.14,-398.528C1103.77,-403.817 1129.24,-410.681 1150.66,-416.454"/>
<polygon fill="midnightblue" stroke="midnightblue" points="1149.93,-419.881 1160.49,-419.104 1151.75,-413.122 1149.93,-419.881"/>
</g>
<!-- Node3541 -->
<g id="node13" class="node"><title>Node3541</title>
<g id="a_node13"><a xlink:href="util_8cpp.html#ab83866a054745d4b30a3948a1b44beba" target="_top" xlink:title="GetDataDir">
<polygon fill="white" stroke="black" points="1161.5,-380.5 1161.5,-399.5 1227.5,-399.5 1227.5,-380.5 1161.5,-380.5"/>
<text text-anchor="middle" x="1194.5" y="-387.5" font-family="Helvetica,sans-Serif" font-size="10.00">GetDataDir</text>
</a>
</g>
</g>
<!-- Node3538&#45;&gt;Node3541 -->
<g id="edge12" class="edge"><title>Node3538&#45;&gt;Node3541</title>
<path fill="none" stroke="midnightblue" d="M1084.14,-390C1103.96,-390 1129.73,-390 1151.28,-390"/>
<polygon fill="midnightblue" stroke="midnightblue" points="1151.47,-393.5 1161.47,-390 1151.47,-386.5 1151.47,-393.5"/>
</g>
<!-- Node3545 -->
<g id="node17" class="node"><title>Node3545</title>
<g id="a_node17"><a xlink:href="util_8cpp.html#af0c31e37a5891e021f9b339696398a28" target="_top" xlink:title="fStartedNewLine is a state variable held by the calling context that will suppress printing of the th...">
<polygon fill="white" stroke="black" points="1144,-342.5 1144,-361.5 1245,-361.5 1245,-342.5 1144,-342.5"/>
<text text-anchor="middle" x="1194.5" y="-349.5" font-family="Helvetica,sans-Serif" font-size="10.00">LogThreadNameStr</text>
</a>
</g>
</g>
<!-- Node3538&#45;&gt;Node3545 -->
<g id="edge16" class="edge"><title>Node3538&#45;&gt;Node3545</title>
<path fill="none" stroke="midnightblue" d="M1084.14,-381.472C1103.14,-376.353 1127.61,-369.758 1148.58,-364.106"/>
<polygon fill="midnightblue" stroke="midnightblue" points="1149.5,-367.482 1158.25,-361.501 1147.68,-360.724 1149.5,-367.482"/>
</g>
<!-- Node3547 -->
<g id="node19" class="node"><title>Node3547</title>
<g id="a_node19"><a xlink:href="util_8cpp.html#a8e80ae045580407e9f2028dc5f7b954c" target="_top" xlink:title="fStartedNewLine is a state variable held by the calling context that will suppress printing of the ti...">
<polygon fill="white" stroke="black" points="1147.5,-304.5 1147.5,-323.5 1241.5,-323.5 1241.5,-304.5 1147.5,-304.5"/>
<text text-anchor="middle" x="1194.5" y="-311.5" font-family="Helvetica,sans-Serif" font-size="10.00">LogTimestampStr</text>
</a>
</g>
</g>
<!-- Node3538&#45;&gt;Node3547 -->
<g id="edge18" class="edge"><title>Node3538&#45;&gt;Node3547</title>
<path fill="none" stroke="midnightblue" d="M1064.63,-380.434C1080.67,-368.142 1110.17,-346.751 1138,-333 1142.28,-330.884 1146.86,-328.905 1151.48,-327.085"/>
<polygon fill="midnightblue" stroke="midnightblue" points="1152.78,-330.336 1160.94,-323.577 1150.35,-323.772 1152.78,-330.336"/>
</g>
<!-- Node3542 -->
<g id="node14" class="node"><title>Node3542</title>
<g id="a_node14"><a xlink:href="chainparamsbase_8cpp.html#a06ef5bfd0efb53d13bbf4276726e84ab" target="_top" xlink:title="Return the currently selected parameters. ">
<polygon fill="white" stroke="black" points="1323.5,-456.5 1323.5,-475.5 1396.5,-475.5 1396.5,-456.5 1323.5,-456.5"/>
<text text-anchor="middle" x="1360" y="-463.5" font-family="Helvetica,sans-Serif" font-size="10.00">BaseParams</text>
</a>
</g>
</g>
<!-- Node3541&#45;&gt;Node3542 -->
<g id="edge13" class="edge"><title>Node3541&#45;&gt;Node3542</title>
<path fill="none" stroke="midnightblue" d="M1227.54,-398.043C1235.55,-400.827 1243.89,-404.43 1251,-409 1270.57,-421.576 1266.99,-435.135 1287,-447 1295.08,-451.794 1304.38,-455.397 1313.56,-458.1"/>
<polygon fill="midnightblue" stroke="midnightblue" points="1312.83,-461.529 1323.4,-460.692 1314.62,-454.76 1312.83,-461.529"/>
</g>
<!-- Node3543 -->
<g id="node15" class="node"><title>Node3543</title>
<g id="a_node15"><a xlink:href="class_c_base_chain_params.html#a4b142e94ae27f860522dd5efef41fb67" target="_top" xlink:title="CBaseChainParams::DataDir">
<polygon fill="white" stroke="black" points="1287,-418.5 1287,-437.5 1433,-437.5 1433,-418.5 1287,-418.5"/>
<text text-anchor="middle" x="1360" y="-425.5" font-family="Helvetica,sans-Serif" font-size="10.00">CBaseChainParams::DataDir</text>
</a>
</g>
</g>
<!-- Node3541&#45;&gt;Node3543 -->
<g id="edge14" class="edge"><title>Node3541&#45;&gt;Node3543</title>
<path fill="none" stroke="midnightblue" d="M1227.8,-397.508C1250.74,-402.839 1282.01,-410.105 1308.26,-416.207"/>
<polygon fill="midnightblue" stroke="midnightblue" points="1307.52,-419.627 1318.05,-418.482 1309.1,-412.809 1307.52,-419.627"/>
</g>
<!-- Node3544 -->
<g id="node16" class="node"><title>Node3544</title>
<g id="a_node16"><a xlink:href="util_8cpp.html#ab272995de020a3bcbf743be630e485c6" target="_top" xlink:title="GetDefaultDataDir">
<polygon fill="white" stroke="black" points="1311,-380.5 1311,-399.5 1409,-399.5 1409,-380.5 1311,-380.5"/>
<text text-anchor="middle" x="1360" y="-387.5" font-family="Helvetica,sans-Serif" font-size="10.00">GetDefaultDataDir</text>
</a>
</g>
</g>
<!-- Node3541&#45;&gt;Node3544 -->
<g id="edge15" class="edge"><title>Node3541&#45;&gt;Node3544</title>
<path fill="none" stroke="midnightblue" d="M1227.8,-390C1248.57,-390 1276.15,-390 1300.66,-390"/>
<polygon fill="midnightblue" stroke="midnightblue" points="1300.95,-393.5 1310.95,-390 1300.95,-386.5 1300.95,-393.5"/>
</g>
<!-- Node3546 -->
<g id="node18" class="node"><title>Node3546</title>
<g id="a_node18"><a xlink:href="util_8cpp.html#a1db3aa900bfa259ae1fe04068f2accfc" target="_top" xlink:title="GetThreadName">
<polygon fill="white" stroke="black" points="1315.5,-342.5 1315.5,-361.5 1404.5,-361.5 1404.5,-342.5 1315.5,-342.5"/>
<text text-anchor="middle" x="1360" y="-349.5" font-family="Helvetica,sans-Serif" font-size="10.00">GetThreadName</text>
</a>
</g>
</g>
<!-- Node3545&#45;&gt;Node3546 -->
<g id="edge17" class="edge"><title>Node3545&#45;&gt;Node3546</title>
<path fill="none" stroke="midnightblue" d="M1245.44,-352C1264.39,-352 1286.04,-352 1305.31,-352"/>
<polygon fill="midnightblue" stroke="midnightblue" points="1305.45,-355.5 1315.45,-352 1305.45,-348.5 1305.45,-355.5"/>
</g>
<!-- Node3548 -->
<g id="node20" class="node"><title>Node3548</title>
<g id="a_node20"><a xlink:href="utiltime_8cpp.html#a749bc6776c8ec72d7c5e4dea56aee415" target="_top" xlink:title="DateTimeStrFormat">
<polygon fill="white" stroke="black" points="1308.5,-304.5 1308.5,-323.5 1411.5,-323.5 1411.5,-304.5 1308.5,-304.5"/>
<text text-anchor="middle" x="1360" y="-311.5" font-family="Helvetica,sans-Serif" font-size="10.00">DateTimeStrFormat</text>
</a>
</g>
</g>
<!-- Node3547&#45;&gt;Node3548 -->
<g id="edge19" class="edge"><title>Node3547&#45;&gt;Node3548</title>
<path fill="none" stroke="midnightblue" d="M1241.92,-314C1259.44,-314 1279.65,-314 1298.29,-314"/>
<polygon fill="midnightblue" stroke="midnightblue" points="1298.46,-317.5 1308.46,-314 1298.46,-310.5 1298.46,-317.5"/>
</g>
<!-- Node3549 -->
<g id="node21" class="node"><title>Node3549</title>
<g id="a_node21"><a xlink:href="utiltime_8cpp.html#a474bed4c01c8a1d18330dceccf865e1e" target="_top" xlink:title="Return a time useful for the debug log. ">
<polygon fill="white" stroke="black" points="1310.5,-266.5 1310.5,-285.5 1409.5,-285.5 1409.5,-266.5 1310.5,-266.5"/>
<text text-anchor="middle" x="1360" y="-273.5" font-family="Helvetica,sans-Serif" font-size="10.00">GetLogTimeMicros</text>
</a>
</g>
</g>
<!-- Node3547&#45;&gt;Node3549 -->
<g id="edge20" class="edge"><title>Node3547&#45;&gt;Node3549</title>
<path fill="none" stroke="midnightblue" d="M1236.76,-304.411C1258.43,-299.374 1285.18,-293.156 1308.13,-287.823"/>
<polygon fill="midnightblue" stroke="midnightblue" points="1309.09,-291.193 1318.04,-285.52 1307.51,-284.375 1309.09,-291.193"/>
</g>
<!-- Node3550 -->
<g id="node22" class="node"><title>Node3550</title>
<g id="a_node22"><a xlink:href="utiltime_8cpp.html#a0c5a06b50cd805b1923552114494c029" target="_top" xlink:title="GetTimeMicros">
<polygon fill="white" stroke="black" points="1469,-266.5 1469,-285.5 1552,-285.5 1552,-266.5 1469,-266.5"/>
<text text-anchor="middle" x="1510.5" y="-273.5" font-family="Helvetica,sans-Serif" font-size="10.00">GetTimeMicros</text>
</a>
</g>
</g>
<!-- Node3549&#45;&gt;Node3550 -->
<g id="edge21" class="edge"><title>Node3549&#45;&gt;Node3550</title>
<path fill="none" stroke="midnightblue" d="M1409.62,-276C1425.31,-276 1442.73,-276 1458.57,-276"/>
<polygon fill="midnightblue" stroke="midnightblue" points="1458.72,-279.5 1468.72,-276 1458.72,-272.5 1458.72,-279.5"/>
</g>
<!-- Node3554 -->
<g id="node26" class="node"><title>Node3554</title>
<g id="a_node26"><a xlink:href="classbase__blob.html#aeee68e00ceeacf49086e98b661e017ff" target="_top" xlink:title="base_blob::begin">
<polygon fill="white" stroke="black" points="706,-228.5 706,-247.5 796,-247.5 796,-228.5 706,-228.5"/>
<text text-anchor="middle" x="751" y="-235.5" font-family="Helvetica,sans-Serif" font-size="10.00">base_blob::begin</text>
</a>
</g>
</g>
<!-- Node3553&#45;&gt;Node3554 -->
<g id="edge25" class="edge"><title>Node3553&#45;&gt;Node3554</title>
<path fill="none" stroke="midnightblue" d="M582.793,-152.698C600.465,-168.828 638.325,-201.155 676,-219 682.282,-221.976 689.093,-224.529 695.954,-226.709"/>
<polygon fill="midnightblue" stroke="midnightblue" points="695.404,-230.194 705.984,-229.64 697.367,-223.475 695.404,-230.194"/>
</g>
<!-- Node3555 -->
<g id="node27" class="node"><title>Node3555</title>
<g id="a_node27"><a xlink:href="class_c_data_stream.html#a2355d11752d8622badfbc03e9ed192fd" target="_top" xlink:title="CDataStream::begin">
<polygon fill="white" stroke="black" points="698,-190.5 698,-209.5 804,-209.5 804,-190.5 698,-190.5"/>
<text text-anchor="middle" x="751" y="-197.5" font-family="Helvetica,sans-Serif" font-size="10.00">CDataStream::begin</text>
</a>
</g>
</g>
<!-- Node3553&#45;&gt;Node3555 -->
<g id="edge26" class="edge"><title>Node3553&#45;&gt;Node3555</title>
<path fill="none" stroke="midnightblue" d="M596.523,-152.601C617.351,-160.736 648.401,-172.414 676,-181 683.744,-183.409 692.009,-185.751 700.106,-187.921"/>
<polygon fill="midnightblue" stroke="midnightblue" points="699.292,-191.325 709.852,-190.475 701.066,-184.554 699.292,-191.325"/>
</g>
<!-- Node3556 -->
<g id="node28" class="node"><title>Node3556</title>
<g id="a_node28"><a xlink:href="class_c_data_stream.html#a66409dbd4403682fe674e2e71173cab4" target="_top" xlink:title="CDataStream::end">
<polygon fill="white" stroke="black" points="702,-152.5 702,-171.5 800,-171.5 800,-152.5 702,-152.5"/>
<text text-anchor="middle" x="751" y="-159.5" font-family="Helvetica,sans-Serif" font-size="10.00">CDataStream::end</text>
</a>
</g>
</g>
<!-- Node3553&#45;&gt;Node3556 -->
<g id="edge27" class="edge"><title>Node3553&#45;&gt;Node3556</title>
<path fill="none" stroke="midnightblue" d="M636.08,-149.806C654.208,-151.746 673.863,-153.85 691.662,-155.755"/>
<polygon fill="midnightblue" stroke="midnightblue" points="691.586,-159.267 701.902,-156.851 692.331,-152.307 691.586,-159.267"/>
</g>
<!-- Node3557 -->
<g id="node29" class="node"><title>Node3557</title>
<g id="a_node29"><a xlink:href="hash_8h.html#ab3f6c437460137530d86e09c2c102e99" target="_top" xlink:title="Compute the 256&#45;bit hash of an object. ">
<polygon fill="white" stroke="black" points="731,-114.5 731,-133.5 771,-133.5 771,-114.5 731,-114.5"/>
<text text-anchor="middle" x="751" y="-121.5" font-family="Helvetica,sans-Serif" font-size="10.00">Hash</text>
</a>
</g>
</g>
<!-- Node3553&#45;&gt;Node3557 -->
<g id="edge28" class="edge"><title>Node3553&#45;&gt;Node3557</title>
<path fill="none" stroke="midnightblue" d="M636.08,-136.194C664.934,-133.106 697.658,-129.603 720.606,-127.146"/>
<polygon fill="midnightblue" stroke="midnightblue" points="721.149,-130.608 730.719,-126.064 720.404,-123.648 721.149,-130.608"/>
</g>
<!-- Node3564 -->
<g id="node36" class="node"><title>Node3564</title>
<g id="a_node36"><a xlink:href="glibc__compat_8cpp.html#a0f46826ab0466591e136db24394923cf" target="_top" xlink:title="memcpy">
<polygon fill="white" stroke="black" points="1333,-114.5 1333,-133.5 1387,-133.5 1387,-114.5 1333,-114.5"/>
<text text-anchor="middle" x="1360" y="-121.5" font-family="Helvetica,sans-Serif" font-size="10.00">memcpy</text>
</a>
</g>
</g>
<!-- Node3553&#45;&gt;Node3564 -->
<g id="edge44" class="edge"><title>Node3553&#45;&gt;Node3564</title>
<path fill="none" stroke="midnightblue" d="M611.874,-133.427C621.221,-130.742 631.069,-127.567 640,-124 656.801,-117.289 658.627,-110.05 676,-105 777.258,-75.5652 807.05,-86 912.5,-86 912.5,-86 912.5,-86 1052.5,-86 1150.93,-86 1265.8,-105.54 1322.92,-116.596"/>
<polygon fill="midnightblue" stroke="midnightblue" points="1322.41,-120.063 1332.9,-118.556 1323.76,-113.194 1322.41,-120.063"/>
</g>
<!-- Node3571 -->
<g id="node43" class="node"><title>Node3571</title>
<g id="a_node43"><a xlink:href="class_c_data_stream.html#add30f866dd928fc28c47fe79a0a6723a" target="_top" xlink:title="CDataStream::size">
<polygon fill="white" stroke="black" points="700.5,-38.5 700.5,-57.5 801.5,-57.5 801.5,-38.5 700.5,-38.5"/>
<text text-anchor="middle" x="751" y="-45.5" font-family="Helvetica,sans-Serif" font-size="10.00">CDataStream::size</text>
</a>
</g>
</g>
<!-- Node3553&#45;&gt;Node3571 -->
<g id="edge45" class="edge"><title>Node3553&#45;&gt;Node3571</title>
<path fill="none" stroke="midnightblue" d="M621.912,-133.447C628.326,-130.985 634.55,-127.889 640,-124 662.88,-107.672 653.444,-88.7739 676,-72 681.812,-67.678 688.436,-64.1136 695.277,-61.1791"/>
<polygon fill="midnightblue" stroke="midnightblue" points="696.61,-64.4162 704.684,-57.5558 694.094,-57.884 696.61,-64.4162"/>
</g>
<!-- Node3572 -->
<g id="node44" class="node"><title>Node3572</title>
<g id="a_node44"><a xlink:href="common_8h.html#ab23d5d245f265908700af234252b751f" target="_top" xlink:title="WriteLE32">
<polygon fill="white" stroke="black" points="720,-0.5 720,-19.5 782,-19.5 782,-0.5 720,-0.5"/>
<text text-anchor="middle" x="751" y="-7.5" font-family="Helvetica,sans-Serif" font-size="10.00">WriteLE32</text>
</a>
</g>
</g>
<!-- Node3553&#45;&gt;Node3572 -->
<g id="edge46" class="edge"><title>Node3553&#45;&gt;Node3572</title>
<path fill="none" stroke="midnightblue" d="M625.572,-133.413C630.835,-130.95 635.78,-127.864 640,-124 673.298,-93.5053 642.352,-59.1089 676,-29 685.344,-20.6389 697.877,-15.8619 709.971,-13.1622"/>
<polygon fill="midnightblue" stroke="midnightblue" points="710.733,-16.5812 719.946,-11.3499 709.481,-9.6939 710.733,-16.5812"/>
</g>
<!-- Node3558 -->
<g id="node30" class="node"><title>Node3558</title>
<g id="a_node30"><a xlink:href="class_c_hash256.html#aa8a70c1b7cf24ce7d00240a1131cf4e7" target="_top" xlink:title="CHash256::Finalize">
<polygon fill="white" stroke="black" points="862,-171.5 862,-190.5 965,-190.5 965,-171.5 862,-171.5"/>
<text text-anchor="middle" x="913.5" y="-178.5" font-family="Helvetica,sans-Serif" font-size="10.00">CHash256::Finalize</text>
</a>
</g>
</g>
<!-- Node3557&#45;&gt;Node3558 -->
<g id="edge29" class="edge"><title>Node3557&#45;&gt;Node3558</title>
<path fill="none" stroke="midnightblue" d="M771.108,-128.007C786.201,-131.386 807.696,-136.677 826,-143 845.829,-149.85 867.435,-159.34 884.094,-167.123"/>
<polygon fill="midnightblue" stroke="midnightblue" points="882.744,-170.356 893.279,-171.475 885.741,-164.031 882.744,-170.356"/>
</g>
<!-- Node3570 -->
<g id="node42" class="node"><title>Node3570</title>
<g id="a_node42"><a xlink:href="class_c_hash256.html#a9cc25033c6435cb28e2e8e377c949a7a" target="_top" xlink:title="CHash256::Write">
<polygon fill="white" stroke="black" points="867.5,-114.5 867.5,-133.5 959.5,-133.5 959.5,-114.5 867.5,-114.5"/>
<text text-anchor="middle" x="913.5" y="-121.5" font-family="Helvetica,sans-Serif" font-size="10.00">CHash256::Write</text>
</a>
</g>
</g>
<!-- Node3557&#45;&gt;Node3570 -->
<g id="edge42" class="edge"><title>Node3557&#45;&gt;Node3570</title>
<path fill="none" stroke="midnightblue" d="M771.042,-124C792.137,-124 827.125,-124 857.025,-124"/>
<polygon fill="midnightblue" stroke="midnightblue" points="857.358,-127.5 867.358,-124 857.358,-120.5 857.358,-127.5"/>
</g>
<!-- Node3559 -->
<g id="node31" class="node"><title>Node3559</title>
<g id="a_node31"><a xlink:href="class_c_s_h_a256.html#a4259230be0caefa590bc324fc12b9b90" target="_top" xlink:title="CSHA256::Finalize">
<polygon fill="white" stroke="black" points="1001,-228.5 1001,-247.5 1102,-247.5 1102,-228.5 1001,-228.5"/>
<text text-anchor="middle" x="1051.5" y="-235.5" font-family="Helvetica,sans-Serif" font-size="10.00">CSHA256::Finalize</text>
</a>
</g>
</g>
<!-- Node3558&#45;&gt;Node3559 -->
<g id="edge30" class="edge"><title>Node3558&#45;&gt;Node3559</title>
<path fill="none" stroke="midnightblue" d="M937.263,-190.541C959.426,-199.829 993.322,-214.036 1018.26,-224.486"/>
<polygon fill="midnightblue" stroke="midnightblue" points="1017.09,-227.791 1027.66,-228.428 1019.79,-221.335 1017.09,-227.791"/>
</g>
<!-- Node3563 -->
<g id="node35" class="node"><title>Node3563</title>
<g id="a_node35"><a xlink:href="class_c_s_h_a256.html#a9d7de520a562655da85349372820c883" target="_top" xlink:title="CSHA256::Write">
<polygon fill="white" stroke="black" points="1149.5,-133.5 1149.5,-152.5 1239.5,-152.5 1239.5,-133.5 1149.5,-133.5"/>
<text text-anchor="middle" x="1194.5" y="-140.5" font-family="Helvetica,sans-Serif" font-size="10.00">CSHA256::Write</text>
</a>
</g>
</g>
<!-- Node3558&#45;&gt;Node3563 -->
<g id="edge41" class="edge"><title>Node3558&#45;&gt;Node3563</title>
<path fill="none" stroke="midnightblue" d="M965.162,-186.321C1003.19,-189.036 1056.35,-190.103 1102,-181 1124.92,-176.431 1149.28,-166.011 1167.09,-157.236"/>
<polygon fill="midnightblue" stroke="midnightblue" points="1168.94,-160.225 1176.27,-152.578 1165.77,-153.984 1168.94,-160.225"/>
</g>
<!-- Node3569 -->
<g id="node41" class="node"><title>Node3569</title>
<g id="a_node41"><a xlink:href="class_c_s_h_a256.html#a2122395dd5604990eaa0077b43a0e8d4" target="_top" xlink:title="CSHA256::Reset">
<polygon fill="white" stroke="black" points="1005,-152.5 1005,-171.5 1098,-171.5 1098,-152.5 1005,-152.5"/>
<text text-anchor="middle" x="1051.5" y="-159.5" font-family="Helvetica,sans-Serif" font-size="10.00">CSHA256::Reset</text>
</a>
</g>
</g>
<!-- Node3558&#45;&gt;Node3569 -->
<g id="edge40" class="edge"><title>Node3558&#45;&gt;Node3569</title>
<path fill="none" stroke="midnightblue" d="M965.141,-173.925C974.782,-172.578 984.922,-171.162 994.712,-169.794"/>
<polygon fill="midnightblue" stroke="midnightblue" points="995.333,-173.241 1004.75,-168.391 994.365,-166.309 995.333,-173.241"/>
</g>
<!-- Node3560 -->
<g id="node32" class="node"><title>Node3560</title>
<g id="a_node32"><a xlink:href="common_8h.html#ab960e95bf479af0a88a20800366b6131" target="_top" xlink:title="WriteBE64">
<polygon fill="white" stroke="black" points="1162.5,-228.5 1162.5,-247.5 1226.5,-247.5 1226.5,-228.5 1162.5,-228.5"/>
<text text-anchor="middle" x="1194.5" y="-235.5" font-family="Helvetica,sans-Serif" font-size="10.00">WriteBE64</text>
</a>
</g>
</g>
<!-- Node3559&#45;&gt;Node3560 -->
<g id="edge31" class="edge"><title>Node3559&#45;&gt;Node3560</title>
<path fill="none" stroke="midnightblue" d="M1102.21,-238C1118.45,-238 1136.29,-238 1151.87,-238"/>
<polygon fill="midnightblue" stroke="midnightblue" points="1152.24,-241.5 1162.24,-238 1152.24,-234.5 1152.24,-241.5"/>
</g>
<!-- Node3559&#45;&gt;Node3563 -->
<g id="edge34" class="edge"><title>Node3559&#45;&gt;Node3563</title>
<path fill="none" stroke="midnightblue" d="M1075.69,-228.452C1084.26,-224.492 1093.86,-219.528 1102,-214 1119.95,-201.804 1121,-194.498 1138,-181 1147.94,-173.105 1159.45,-165.062 1169.4,-158.421"/>
<polygon fill="midnightblue" stroke="midnightblue" points="1171.58,-161.178 1178.01,-152.76 1167.73,-155.329 1171.58,-161.178"/>
</g>
<!-- Node3566 -->
<g id="node38" class="node"><title>Node3566</title>
<g id="a_node38"><a xlink:href="common_8h.html#aa3a53ff883fd14480eb603d00123a74a" target="_top" xlink:title="WriteBE32">
<polygon fill="white" stroke="black" points="1162.5,-190.5 1162.5,-209.5 1226.5,-209.5 1226.5,-190.5 1162.5,-190.5"/>
<text text-anchor="middle" x="1194.5" y="-197.5" font-family="Helvetica,sans-Serif" font-size="10.00">WriteBE32</text>
</a>
</g>
</g>
<!-- Node3559&#45;&gt;Node3566 -->
<g id="edge37" class="edge"><title>Node3559&#45;&gt;Node3566</title>
<path fill="none" stroke="midnightblue" d="M1088.08,-228.411C1107.71,-223.12 1132.17,-216.527 1152.59,-211.025"/>
<polygon fill="midnightblue" stroke="midnightblue" points="1153.51,-214.403 1162.25,-208.422 1151.68,-207.644 1153.51,-214.403"/>
</g>
<!-- Node3561 -->
<g id="node33" class="node"><title>Node3561</title>
<g id="a_node33"><a xlink:href="endian_8h.html#a55844e5fbe9a8ab3e9793335a16e2efc" target="_top" xlink:title="htobe64">
<polygon fill="white" stroke="black" points="1334.5,-228.5 1334.5,-247.5 1385.5,-247.5 1385.5,-228.5 1334.5,-228.5"/>
<text text-anchor="middle" x="1360" y="-235.5" font-family="Helvetica,sans-Serif" font-size="10.00">htobe64</text>
</a>
</g>
</g>
<!-- Node3560&#45;&gt;Node3561 -->
<g id="edge32" class="edge"><title>Node3560&#45;&gt;Node3561</title>
<path fill="none" stroke="midnightblue" d="M1226.64,-238C1254.53,-238 1295.38,-238 1324.31,-238"/>
<polygon fill="midnightblue" stroke="midnightblue" points="1324.38,-241.5 1334.38,-238 1324.38,-234.5 1324.38,-241.5"/>
</g>
<!-- Node3562 -->
<g id="node34" class="node"><title>Node3562</title>
<g id="a_node34"><a xlink:href="byteswap_8h.html#aaf6a6e8515061fb001505d3b9f6164e2" target="_top" xlink:title="bswap_64">
<polygon fill="white" stroke="black" points="1480,-228.5 1480,-247.5 1541,-247.5 1541,-228.5 1480,-228.5"/>
<text text-anchor="middle" x="1510.5" y="-235.5" font-family="Helvetica,sans-Serif" font-size="10.00">bswap_64</text>
</a>
</g>
</g>
<!-- Node3561&#45;&gt;Node3562 -->
<g id="edge33" class="edge"><title>Node3561&#45;&gt;Node3562</title>
<path fill="none" stroke="midnightblue" d="M1385.52,-238C1408.36,-238 1442.81,-238 1469.6,-238"/>
<polygon fill="midnightblue" stroke="midnightblue" points="1469.82,-241.5 1479.82,-238 1469.82,-234.5 1469.82,-241.5"/>
</g>
<!-- Node3563&#45;&gt;Node3564 -->
<g id="edge35" class="edge"><title>Node3563&#45;&gt;Node3564</title>
<path fill="none" stroke="midnightblue" d="M1239.75,-137.858C1265.73,-134.839 1298.17,-131.069 1322.65,-128.224"/>
<polygon fill="midnightblue" stroke="midnightblue" points="1323.08,-131.697 1332.61,-127.066 1322.28,-124.744 1323.08,-131.697"/>
</g>
<!-- Node3565 -->
<g id="node37" class="node"><title>Node3565</title>
<g id="a_node37"><a xlink:href="glibc__compat_8cpp.html#a9778d49e9029dd75bc53ecbbf9f5e9a1" target="_top" xlink:title="memmove">
<polygon fill="white" stroke="black" points="1479.5,-114.5 1479.5,-133.5 1541.5,-133.5 1541.5,-114.5 1479.5,-114.5"/>
<text text-anchor="middle" x="1510.5" y="-121.5" font-family="Helvetica,sans-Serif" font-size="10.00">memmove</text>
</a>
</g>
</g>
<!-- Node3564&#45;&gt;Node3565 -->
<g id="edge36" class="edge"><title>Node3564&#45;&gt;Node3565</title>
<path fill="none" stroke="midnightblue" d="M1387.21,-124C1409.89,-124 1443.07,-124 1469.14,-124"/>
<polygon fill="midnightblue" stroke="midnightblue" points="1469.47,-127.5 1479.47,-124 1469.47,-120.5 1469.47,-127.5"/>
</g>
<!-- Node3567 -->
<g id="node39" class="node"><title>Node3567</title>
<g id="a_node39"><a xlink:href="endian_8h.html#a3ca91566984b6dca7a0f6fc2694a203c" target="_top" xlink:title="htobe32">
<polygon fill="white" stroke="black" points="1334.5,-190.5 1334.5,-209.5 1385.5,-209.5 1385.5,-190.5 1334.5,-190.5"/>
<text text-anchor="middle" x="1360" y="-197.5" font-family="Helvetica,sans-Serif" font-size="10.00">htobe32</text>
</a>
</g>
</g>
<!-- Node3566&#45;&gt;Node3567 -->
<g id="edge38" class="edge"><title>Node3566&#45;&gt;Node3567</title>
<path fill="none" stroke="midnightblue" d="M1226.64,-200C1254.53,-200 1295.38,-200 1324.31,-200"/>
<polygon fill="midnightblue" stroke="midnightblue" points="1324.38,-203.5 1334.38,-200 1324.38,-196.5 1324.38,-203.5"/>
</g>
<!-- Node3568 -->
<g id="node40" class="node"><title>Node3568</title>
<g id="a_node40"><a xlink:href="byteswap_8h.html#acdd5094f58e4c6e2b0176654b7f20e1c" target="_top" xlink:title="bswap_32">
<polygon fill="white" stroke="black" points="1480,-190.5 1480,-209.5 1541,-209.5 1541,-190.5 1480,-190.5"/>
<text text-anchor="middle" x="1510.5" y="-197.5" font-family="Helvetica,sans-Serif" font-size="10.00">bswap_32</text>
</a>
</g>
</g>
<!-- Node3567&#45;&gt;Node3568 -->
<g id="edge39" class="edge"><title>Node3567&#45;&gt;Node3568</title>
<path fill="none" stroke="midnightblue" d="M1385.52,-200C1408.36,-200 1442.81,-200 1469.6,-200"/>
<polygon fill="midnightblue" stroke="midnightblue" points="1469.82,-203.5 1479.82,-200 1469.82,-196.5 1469.82,-203.5"/>
</g>
<!-- Node3570&#45;&gt;Node3563 -->
<g id="edge43" class="edge"><title>Node3570&#45;&gt;Node3563</title>
<path fill="none" stroke="midnightblue" d="M959.636,-127.074C1008.65,-130.412 1086.92,-135.742 1139.25,-139.305"/>
<polygon fill="midnightblue" stroke="midnightblue" points="1139.14,-142.806 1149.35,-139.993 1139.61,-135.822 1139.14,-142.806"/>
</g>
<!-- Node3573 -->
<g id="node45" class="node"><title>Node3573</title>
<g id="a_node45"><a xlink:href="endian_8h.html#abab10181b2a9a38233ca246e1a653b5e" target="_top" xlink:title="htole32">
<polygon fill="white" stroke="black" points="889.5,-0.5 889.5,-19.5 937.5,-19.5 937.5,-0.5 889.5,-0.5"/>
<text text-anchor="middle" x="913.5" y="-7.5" font-family="Helvetica,sans-Serif" font-size="10.00">htole32</text>
</a>
</g>
</g>
<!-- Node3572&#45;&gt;Node3573 -->
<g id="edge47" class="edge"><title>Node3572&#45;&gt;Node3573</title>
<path fill="none" stroke="midnightblue" d="M782.189,-10C809.727,-10 850.359,-10 878.913,-10"/>
<polygon fill="midnightblue" stroke="midnightblue" points="879.213,-13.5001 889.213,-10 879.213,-6.5001 879.213,-13.5001"/>
</g>
</g>
</svg>
        <g id="navigator" transform="translate(0 0)" fill="#404254">
                <rect fill="#f2f5e9" fill-opacity="0.5" stroke="#606060" stroke-width=".5" x="0" y="0" width="60" height="60"/>
                <use id="zoomplus" xlink:href="#zoomPlus" x="17" y="9" onmousedown="handleZoom(evt,'in')"/>
                <use id="zoomminus" xlink:href="#zoomMin" x="42" y="9" onmousedown="handleZoom(evt,'out')"/>
                <use id="reset" xlink:href="#resetDef" x="30" y="36" onmousedown="handleReset()"/>
                <g id="arrowUp" xlink:href="#dirArrow" transform="translate(30 24)" onmousedown="handlePan(0,-1)">
                  <use xlink:href="#rim" fill="#404040">
                        <set attributeName="fill" to="#808080" begin="arrowUp.mouseover" end="arrowUp.mouseout"/>
                  </use>
                  <path fill="none" stroke="white" stroke-width="1.5" d="M0,-3.0v7 M-2.5,-0.5L0,-3.0L2.5,-0.5"/>
                </g>
                <g id="arrowRight" xlink:href="#dirArrow" transform="rotate(90) translate(36 -43)" onmousedown="handlePan(1,0)">
                  <use xlink:href="#rim" fill="#404040">
                        <set attributeName="fill" to="#808080" begin="arrowRight.mouseover" end="arrowRight.mouseout"/>
                  </use>
                  <path fill="none" stroke="white" stroke-width="1.5" d="M0,-3.0v7 M-2.5,-0.5L0,-3.0L2.5,-0.5"/>
                </g>
                <g id="arrowDown" xlink:href="#dirArrow" transform="rotate(180) translate(-30 -48)" onmousedown="handlePan(0,1)">
                  <use xlink:href="#rim" fill="#404040">
                        <set attributeName="fill" to="#808080" begin="arrowDown.mouseover" end="arrowDown.mouseout"/>
                  </use>
                  <path fill="none" stroke="white" stroke-width="1.5" d="M0,-3.0v7 M-2.5,-0.5L0,-3.0L2.5,-0.5"/>
                </g>
                <g id="arrowLeft" xlink:href="#dirArrow" transform="rotate(270) translate(-36 17)" onmousedown="handlePan(-1,0)">
                  <use xlink:href="#rim" fill="#404040">
                        <set attributeName="fill" to="#808080" begin="arrowLeft.mouseover" end="arrowLeft.mouseout"/>
                  </use>
                  <path fill="none" stroke="white" stroke-width="1.5" d="M0,-3.0v7 M-2.5,-0.5L0,-3.0L2.5,-0.5"/>
                </g>
        </g>
        <svg viewBox="0 0 15 15" width="100%" height="30px" preserveAspectRatio="xMaxYMin meet">
         <g id="arrow_out" transform="scale(0.3 0.3)">
          <a xlink:href="class_c_private_send_server_a9007b9f51597c00ee97c0c39aa4f3e15_cgraph_org.svg" target="_base">
           <rect id="button" ry="5" rx="5" y="6" x="6" height="38" width="38"
                fill="#f2f5e9" fill-opacity="0.5" stroke="#606060" stroke-width="1.0"/>
           <path id="arrow"
             d="M 11.500037,31.436501 C 11.940474,20.09759 22.043105,11.32322 32.158766,21.979434 L 37.068811,17.246167 C 37.068811,17.246167 37.088388,32 37.088388,32 L 22.160133,31.978069 C 22.160133,31.978069 26.997745,27.140456 26.997745,27.140456 C 18.528582,18.264221 13.291696,25.230495 11.500037,31.436501 z"
             style="fill:#404040;"/>
          </a>
         </g>
        </svg>
</svg>
