<?xml version="1.0" encoding="UTF-8" standalone="no"?>
<!DOCTYPE svg PUBLIC "-//W3C//DTD SVG 1.1//EN"
 "http://www.w3.org/Graphics/SVG/1.1/DTD/svg11.dtd">
<!-- Generated by graphviz version 2.38.0 (20140413.2041)
 -->
<!-- Title: CConnman::ForEachNodeThen Pages: 1 -->
<svg width="1268pt" height="123pt"
 viewBox="0.00 0.00 1268.00 123.00" xmlns="http://www.w3.org/2000/svg" xmlns:xlink="http://www.w3.org/1999/xlink">
<g id="graph0" class="graph" transform="scale(1 1) rotate(0) translate(4 119)">
<title>CConnman::ForEachNodeThen</title>
<polygon fill="white" stroke="none" points="-4,4 -4,-119 1264,-119 1264,4 -4,4"/>
<!-- Node1314 -->
<g id="node1" class="node"><title>Node1314</title>
<polygon fill="#bfbfbf" stroke="black" points="0,-76.5 0,-95.5 154,-95.5 154,-76.5 0,-76.5"/>
<text text-anchor="middle" x="77" y="-83.5" font-family="Helvetica,sans-Serif" font-size="10.00">CConnman::ForEachNodeThen</text>
</g>
<!-- Node1315 -->
<g id="node2" class="node"><title>Node1315</title>
<g id="a_node2"><a xlink:href="class_c_connman.html#a38959b6bfe2e0aa536f91e7f20db6aac" target="_top" xlink:title="CConnman::ForEachNodeThen">
<polygon fill="white" stroke="black" points="190,-95.5 190,-114.5 344,-114.5 344,-95.5 190,-95.5"/>
<text text-anchor="middle" x="267" y="-102.5" font-family="Helvetica,sans-Serif" font-size="10.00">CConnman::ForEachNodeThen</text>
</a>
</g>
</g>
<!-- Node1314&#45;&gt;Node1315 -->
<g id="edge1" class="edge"><title>Node1314&#45;&gt;Node1315</title>
<path fill="none" stroke="midnightblue" d="M164.146,-94.7062C172.67,-95.5677 181.281,-96.438 189.696,-97.2884"/>
<polygon fill="midnightblue" stroke="midnightblue" points="164.497,-91.224 154.196,-93.7006 163.793,-98.1885 164.497,-91.224"/>
</g>
<!-- Node1316 -->
<g id="node3" class="node"><title>Node1316</title>
<g id="a_node3"><a xlink:href="net__processing_8cpp.html#a5de6345878869c44bb12d104fecd55d1" target="_top" xlink:title="RelayAddress">
<polygon fill="white" stroke="black" points="228,-57.5 228,-76.5 306,-76.5 306,-57.5 228,-57.5"/>
<text text-anchor="middle" x="267" y="-64.5" font-family="Helvetica,sans-Serif" font-size="10.00">RelayAddress</text>
</a>
</g>
</g>
<!-- Node1314&#45;&gt;Node1316 -->
<g id="edge2" class="edge"><title>Node1314&#45;&gt;Node1316</title>
<path fill="none" stroke="midnightblue" d="M164.371,-77.2711C186.643,-75.0201 209.491,-72.711 227.867,-70.8538"/>
<polygon fill="midnightblue" stroke="midnightblue" points="163.793,-73.8115 154.196,-78.2994 164.497,-80.776 163.793,-73.8115"/>
</g>
<!-- Node1317 -->
<g id="node4" class="node"><title>Node1317</title>
<g id="a_node4"><a xlink:href="net__processing_8cpp.html#a193d0ece6e2f2f7ee37352ac9720bb83" target="_top" xlink:title="ProcessMessage">
<polygon fill="white" stroke="black" points="380,-57.5 380,-76.5 472,-76.5 472,-57.5 380,-57.5"/>
<text text-anchor="middle" x="426" y="-64.5" font-family="Helvetica,sans-Serif" font-size="10.00">ProcessMessage</text>
</a>
</g>
</g>
<!-- Node1316&#45;&gt;Node1317 -->
<g id="edge3" class="edge"><title>Node1316&#45;&gt;Node1317</title>
<path fill="none" stroke="midnightblue" d="M316.266,-67C336.505,-67 359.91,-67 379.81,-67"/>
<polygon fill="midnightblue" stroke="midnightblue" points="316.005,-63.5001 306.005,-67 316.005,-70.5001 316.005,-63.5001"/>
</g>
<!-- Node1318 -->
<g id="node5" class="node"><title>Node1318</title>
<g id="a_node5"><a xlink:href="net__processing_8h.html#a7fa42e7ffd6e6ba5b7537af248e30fc8" target="_top" xlink:title="Process protocol messages received from a given node. ">
<polygon fill="white" stroke="black" points="508,-57.5 508,-76.5 606,-76.5 606,-57.5 508,-57.5"/>
<text text-anchor="middle" x="557" y="-64.5" font-family="Helvetica,sans-Serif" font-size="10.00">ProcessMessages</text>
</a>
</g>
</g>
<!-- Node1317&#45;&gt;Node1318 -->
<g id="edge4" class="edge"><title>Node1317&#45;&gt;Node1318</title>
<path fill="none" stroke="midnightblue" d="M482.259,-67C490.694,-67 499.344,-67 507.615,-67"/>
<polygon fill="midnightblue" stroke="midnightblue" points="482.118,-63.5001 472.118,-67 482.118,-70.5001 482.118,-63.5001"/>
</g>
<!-- Node1319 -->
<g id="node6" class="node"><title>Node1319</title>
<g id="a_node6"><a xlink:href="net__processing_8h.html#ab02615ff65f91d69f8d786ec900baa8a" target="_top" xlink:title="Register with a network node to receive its signals. ">
<polygon fill="white" stroke="black" points="646,-76.5 646,-95.5 755,-95.5 755,-76.5 646,-76.5"/>
<text text-anchor="middle" x="700.5" y="-83.5" font-family="Helvetica,sans-Serif" font-size="10.00">RegisterNodeSignals</text>
</a>
</g>
</g>
<!-- Node1318&#45;&gt;Node1319 -->
<g id="edge5" class="edge"><title>Node1318&#45;&gt;Node1319</title>
<path fill="none" stroke="midnightblue" d="M616.265,-74.8236C625.971,-76.1268 636,-77.4734 645.59,-78.7612"/>
<polygon fill="midnightblue" stroke="midnightblue" points="616.677,-71.3476 606.301,-73.4856 615.746,-78.2853 616.677,-71.3476"/>
</g>
<!-- Node1324 -->
<g id="node11" class="node"><title>Node1324</title>
<g id="a_node11"><a xlink:href="net__processing_8h.html#a3ef0cc6e9d9d6435ee2a5569244d6ebd" target="_top" xlink:title="Unregister a network node. ">
<polygon fill="white" stroke="black" points="642,-38.5 642,-57.5 759,-57.5 759,-38.5 642,-38.5"/>
<text text-anchor="middle" x="700.5" y="-45.5" font-family="Helvetica,sans-Serif" font-size="10.00">UnregisterNodeSignals</text>
</a>
</g>
</g>
<!-- Node1318&#45;&gt;Node1324 -->
<g id="edge10" class="edge"><title>Node1318&#45;&gt;Node1324</title>
<path fill="none" stroke="midnightblue" d="M616.343,-59.166C624.7,-58.0439 633.295,-56.8898 641.642,-55.7689"/>
<polygon fill="midnightblue" stroke="midnightblue" points="615.746,-55.7147 606.301,-60.5144 616.677,-62.6524 615.746,-55.7147"/>
</g>
<!-- Node1320 -->
<g id="node7" class="node"><title>Node1320</title>
<g id="a_node7"><a xlink:href="init_8h.html#a6f0784aa332573f949b0975205572b28" target="_top" xlink:title="Initialize Dash Core. ">
<polygon fill="white" stroke="black" points="815.5,-76.5 815.5,-95.5 868.5,-95.5 868.5,-76.5 815.5,-76.5"/>
<text text-anchor="middle" x="842" y="-83.5" font-family="Helvetica,sans-Serif" font-size="10.00">AppInit2</text>
</a>
</g>
</g>
<!-- Node1319&#45;&gt;Node1320 -->
<g id="edge6" class="edge"><title>Node1319&#45;&gt;Node1320</title>
<path fill="none" stroke="midnightblue" d="M765.375,-86C783.095,-86 801.324,-86 815.444,-86"/>
<polygon fill="midnightblue" stroke="midnightblue" points="765.035,-82.5001 755.035,-86 765.035,-89.5001 765.035,-82.5001"/>
</g>
<!-- Node1321 -->
<g id="node8" class="node"><title>Node1321</title>
<g id="a_node8"><a xlink:href="dashd_8cpp.html#ac59316b767e6984e1285f0531275286b" target="_top" xlink:title="AppInit">
<polygon fill="white" stroke="black" points="1104.5,-76.5 1104.5,-95.5 1151.5,-95.5 1151.5,-76.5 1104.5,-76.5"/>
<text text-anchor="middle" x="1128" y="-83.5" font-family="Helvetica,sans-Serif" font-size="10.00">AppInit</text>
</a>
</g>
</g>
<!-- Node1320&#45;&gt;Node1321 -->
<g id="edge7" class="edge"><title>Node1320&#45;&gt;Node1321</title>
<path fill="none" stroke="midnightblue" d="M878.527,-96.0906C892.837,-99.6657 909.578,-103.237 925,-105 973.131,-110.503 985.801,-109.873 1034,-105 1058.27,-102.547 1085.56,-96.5796 1104.27,-91.9816"/>
<polygon fill="midnightblue" stroke="midnightblue" points="879.148,-92.636 868.59,-93.5125 877.39,-99.4117 879.148,-92.636"/>
</g>
<!-- Node1323 -->
<g id="node10" class="node"><title>Node1323</title>
<g id="a_node10"><a xlink:href="class_bitcoin_core.html#af34ca069cda1d4362dcc109b4397fb62" target="_top" xlink:title="BitcoinCore::initialize">
<polygon fill="white" stroke="black" points="925,-76.5 925,-95.5 1034,-95.5 1034,-76.5 925,-76.5"/>
<text text-anchor="middle" x="979.5" y="-83.5" font-family="Helvetica,sans-Serif" font-size="10.00">BitcoinCore::initialize</text>
</a>
</g>
</g>
<!-- Node1320&#45;&gt;Node1323 -->
<g id="edge9" class="edge"><title>Node1320&#45;&gt;Node1323</title>
<path fill="none" stroke="midnightblue" d="M879.012,-86C893.027,-86 909.384,-86 924.739,-86"/>
<polygon fill="midnightblue" stroke="midnightblue" points="878.805,-82.5001 868.805,-86 878.805,-89.5001 878.805,-82.5001"/>
</g>
<!-- Node1322 -->
<g id="node9" class="node"><title>Node1322</title>
<g id="a_node9"><a xlink:href="dashd_8cpp.html#a0ddf1224851353fc92bfbff6f499fa97" target="_top" xlink:title="main">
<polygon fill="white" stroke="black" points="1222,-76.5 1222,-95.5 1260,-95.5 1260,-76.5 1222,-76.5"/>
<text text-anchor="middle" x="1241" y="-83.5" font-family="Helvetica,sans-Serif" font-size="10.00">main</text>
</a>
</g>
</g>
<!-- Node1321&#45;&gt;Node1322 -->
<g id="edge8" class="edge"><title>Node1321&#45;&gt;Node1322</title>
<path fill="none" stroke="midnightblue" d="M1161.77,-86C1181.33,-86 1205.46,-86 1221.7,-86"/>
<polygon fill="midnightblue" stroke="midnightblue" points="1161.73,-82.5001 1151.73,-86 1161.73,-89.5001 1161.73,-82.5001"/>
</g>
<!-- Node1325 -->
<g id="node12" class="node"><title>Node1325</title>
<g id="a_node12"><a xlink:href="init_8h.html#a5cb3db83cb0ba2e421f651a1ee1f2cfe" target="_top" xlink:title="Preparing steps before shutting down or restarting the wallet. ">
<polygon fill="white" stroke="black" points="795,-38.5 795,-57.5 889,-57.5 889,-38.5 795,-38.5"/>
<text text-anchor="middle" x="842" y="-45.5" font-family="Helvetica,sans-Serif" font-size="10.00">PrepareShutdown</text>
</a>
</g>
</g>
<!-- Node1324&#45;&gt;Node1325 -->
<g id="edge11" class="edge"><title>Node1324&#45;&gt;Node1325</title>
<path fill="none" stroke="midnightblue" d="M769.134,-48C777.773,-48 786.454,-48 794.648,-48"/>
<polygon fill="midnightblue" stroke="midnightblue" points="769.045,-44.5001 759.045,-48 769.045,-51.5001 769.045,-44.5001"/>
</g>
<!-- Node1326 -->
<g id="node13" class="node"><title>Node1326</title>
<g id="a_node13"><a xlink:href="class_bitcoin_core.html#ac2271844c89ebc4c611e7617ce6202e3" target="_top" xlink:title="BitcoinCore::restart">
<polygon fill="white" stroke="black" points="929,-38.5 929,-57.5 1030,-57.5 1030,-38.5 929,-38.5"/>
<text text-anchor="middle" x="979.5" y="-45.5" font-family="Helvetica,sans-Serif" font-size="10.00">BitcoinCore::restart</text>
</a>
</g>
</g>
<!-- Node1325&#45;&gt;Node1326 -->
<g id="edge12" class="edge"><title>Node1325&#45;&gt;Node1326</title>
<path fill="none" stroke="midnightblue" d="M899.285,-48C909.061,-48 919.164,-48 928.75,-48"/>
<polygon fill="midnightblue" stroke="midnightblue" points="899.252,-44.5001 889.252,-48 899.252,-51.5001 899.252,-44.5001"/>
</g>
<!-- Node1327 -->
<g id="node14" class="node"><title>Node1327</title>
<g id="a_node14"><a xlink:href="init_8h.html#ac5f038c2b480cf9ef5e19e3eba8dbaf9" target="_top" xlink:title="Shutdown is split into 2 parts: Part 1: shut down everything but the main wallet instance (done in Pr...">
<polygon fill="white" stroke="black" points="949.5,-0.5 949.5,-19.5 1009.5,-19.5 1009.5,-0.5 949.5,-0.5"/>
<text text-anchor="middle" x="979.5" y="-7.5" font-family="Helvetica,sans-Serif" font-size="10.00">Shutdown</text>
</a>
</g>
</g>
<!-- Node1325&#45;&gt;Node1327 -->
<g id="edge13" class="edge"><title>Node1325&#45;&gt;Node1327</title>
<path fill="none" stroke="midnightblue" d="M886.93,-35.68C907.39,-29.9422 931.171,-23.2731 949.369,-18.1695"/>
<polygon fill="midnightblue" stroke="midnightblue" points="885.876,-32.3407 877.192,-38.411 887.766,-39.0807 885.876,-32.3407"/>
</g>
<!-- Node1327&#45;&gt;Node1321 -->
<g id="edge14" class="edge"><title>Node1327&#45;&gt;Node1321</title>
<path fill="none" stroke="midnightblue" d="M1019.17,-22.6455C1024.23,-24.614 1029.28,-26.748 1034,-29 1063.56,-43.1186 1095.64,-64.1858 1113.33,-76.3625"/>
<polygon fill="midnightblue" stroke="midnightblue" points="1020.14,-19.2709 1009.55,-19.0768 1017.71,-25.8344 1020.14,-19.2709"/>
</g>
<!-- Node1328 -->
<g id="node15" class="node"><title>Node1328</title>
<g id="a_node15"><a xlink:href="class_bitcoin_core.html#a94f3f4622ba698e321f3a2e0e686129f" target="_top" xlink:title="BitcoinCore::shutdown">
<polygon fill="white" stroke="black" points="1070,-0.5 1070,-19.5 1186,-19.5 1186,-0.5 1070,-0.5"/>
<text text-anchor="middle" x="1128" y="-7.5" font-family="Helvetica,sans-Serif" font-size="10.00">BitcoinCore::shutdown</text>
</a>
</g>
</g>
<!-- Node1327&#45;&gt;Node1328 -->
<g id="edge15" class="edge"><title>Node1327&#45;&gt;Node1328</title>
<path fill="none" stroke="midnightblue" d="M1019.97,-10C1035.31,-10 1053.18,-10 1069.88,-10"/>
<polygon fill="midnightblue" stroke="midnightblue" points="1019.79,-6.5001 1009.79,-10 1019.79,-13.5001 1019.79,-6.5001"/>
</g>
</g>
</svg>
