<?xml version="1.0" encoding="UTF-8" standalone="no"?>
<!DOCTYPE svg PUBLIC "-//W3C//DTD SVG 1.1//EN"
 "http://www.w3.org/Graphics/SVG/1.1/DTD/svg11.dtd">
<!-- Generated by graphviz version 2.38.0 (20140413.2041)
 -->
<!-- Title: CMasternode::IsBroadcastedWithin Pages: 1 -->
<svg width="397pt" height="66pt"
 viewBox="0.00 0.00 397.00 66.00" xmlns="http://www.w3.org/2000/svg" xmlns:xlink="http://www.w3.org/1999/xlink">
<g id="graph0" class="graph" transform="scale(1 1) rotate(0) translate(4 62)">
<title>CMasternode::IsBroadcastedWithin</title>
<polygon fill="white" stroke="none" points="-4,4 -4,-62 393,-62 393,4 -4,4"/>
<!-- Node334 -->
<g id="node1" class="node"><title>Node334</title>
<polygon fill="#bfbfbf" stroke="black" points="0,-14 0,-44 144,-44 144,-14 0,-14"/>
<text text-anchor="start" x="8" y="-32" font-family="Helvetica,sans-Serif" font-size="10.00">CMasternode::IsBroadcasted</text>
<text text-anchor="middle" x="72" y="-21" font-family="Helvetica,sans-Serif" font-size="10.00">Within</text>
</g>
<!-- Node335 -->
<g id="node2" class="node"><title>Node335</title>
<g id="a_node2"><a xlink:href="timedata_8cpp.html#a09f81b9c7650f898cf3cf305b87547e6" target="_top" xlink:title="GetAdjustedTime">
<polygon fill="white" stroke="black" points="180,-19.5 180,-38.5 272,-38.5 272,-19.5 180,-19.5"/>
<text text-anchor="middle" x="226" y="-26.5" font-family="Helvetica,sans-Serif" font-size="10.00">GetAdjustedTime</text>
</a>
</g>
</g>
<!-- Node334&#45;&gt;Node335 -->
<g id="edge1" class="edge"><title>Node334&#45;&gt;Node335</title>
<path fill="none" stroke="midnightblue" d="M144.105,-29C152.784,-29 161.548,-29 169.943,-29"/>
<polygon fill="midnightblue" stroke="midnightblue" points="169.969,-32.5001 179.969,-29 169.969,-25.5001 169.969,-32.5001"/>
</g>
<!-- Node336 -->
<g id="node3" class="node"><title>Node336</title>
<g id="a_node3"><a xlink:href="utiltime_8cpp.html#a46fac5fba8ba905b5f9acb364f5d8c6f" target="_top" xlink:title="For unit testing. ">
<polygon fill="white" stroke="black" points="321.5,-38.5 321.5,-57.5 375.5,-57.5 375.5,-38.5 321.5,-38.5"/>
<text text-anchor="middle" x="348.5" y="-45.5" font-family="Helvetica,sans-Serif" font-size="10.00">GetTime</text>
</a>
</g>
</g>
<!-- Node335&#45;&gt;Node336 -->
<g id="edge2" class="edge"><title>Node335&#45;&gt;Node336</title>
<path fill="none" stroke="midnightblue" d="M272.213,-36.129C285.152,-38.1691 299.079,-40.3652 311.394,-42.3069"/>
<polygon fill="midnightblue" stroke="midnightblue" points="310.879,-45.7689 321.302,-43.8692 311.969,-38.8543 310.879,-45.7689"/>
</g>
<!-- Node337 -->
<g id="node4" class="node"><title>Node337</title>
<g id="a_node4"><a xlink:href="timedata_8cpp.html#a50ca5344c75631267633f15cfe5e983e" target="_top" xlink:title="&quot;Never go to sea with two chronometers; take one or three.&quot; Our three time sources are: ...">
<polygon fill="white" stroke="black" points="308,-0.5 308,-19.5 389,-19.5 389,-0.5 308,-0.5"/>
<text text-anchor="middle" x="348.5" y="-7.5" font-family="Helvetica,sans-Serif" font-size="10.00">GetTimeOffset</text>
</a>
</g>
</g>
<!-- Node335&#45;&gt;Node337 -->
<g id="edge3" class="edge"><title>Node335&#45;&gt;Node337</title>
<path fill="none" stroke="midnightblue" d="M272.213,-21.871C280.569,-20.5535 289.337,-19.1709 297.817,-17.8338"/>
<polygon fill="midnightblue" stroke="midnightblue" points="298.638,-21.2477 307.971,-16.2328 297.548,-14.3331 298.638,-21.2477"/>
</g>
</g>
</svg>
