<?xml version="1.0" encoding="UTF-8" standalone="no"?>
<!DOCTYPE svg PUBLIC "-//W3C//DTD SVG 1.1//EN"
 "http://www.w3.org/Graphics/SVG/1.1/DTD/svg11.dtd">
<!-- Generated by graphviz version 2.38.0 (20140413.2041)
 -->
<!-- Title: CConnman::OpenNetworkConnection Pages: 1 -->
<!--zoomable 110 -->
<svg id="main" version="1.1" xmlns="http://www.w3.org/2000/svg" xmlns:xlink="http://www.w3.org/1999/xlink" xml:space="preserve" onload="init(evt)">
<style type="text/css"><![CDATA[
.edge:hover path { stroke: red; }
.edge:hover polygon { stroke: red; fill: red; }
]]></style>
<script type="text/javascript"><![CDATA[
var edges = document.getElementsByTagName('g');
if (edges && edges.length) {
  for (var i=0;i<edges.length;i++) {
    if (edges[i].id.substr(0,4)=='edge') {
      edges[i].setAttribute('class','edge');
    }
  }
}
]]></script>
        <defs>
                <circle id="rim" cx="0" cy="0" r="7"/>
                <circle id="rim2" cx="0" cy="0" r="3.5"/>
                <g id="zoomPlus">
                        <use xlink:href="#rim" fill="#404040">
                                <set attributeName="fill" to="#808080" begin="zoomplus.mouseover" end="zoomplus.mouseout"/>
                        </use>
                        <path d="M-4,0h8M0,-4v8" fill="none" stroke="white" stroke-width="1.5" pointer-events="none"/>
                </g>
                <g id="zoomMin">
                        <use xlink:href="#rim" fill="#404040">
                                <set attributeName="fill" to="#808080" begin="zoomminus.mouseover" end="zoomminus.mouseout"/>
                        </use>
                        <path d="M-4,0h8" fill="none" stroke="white" stroke-width="1.5" pointer-events="none"/>
                </g>
                <g id="dirArrow">
                        <path fill="none" stroke="white" stroke-width="1.5" d="M0,-3.0v7 M-2.5,-0.5L0,-3.0L2.5,-0.5"/>
                </g>
               <g id="resetDef">
                       <use xlink:href="#rim2" fill="#404040">
                               <set attributeName="fill" to="#808080" begin="reset.mouseover" end="reset.mouseout"/>
                       </use>
               </g>
        </defs>

<script type="text/javascript">
var viewWidth = 717;
var viewHeight = 110;
var sectionId = 'dynsection-75';
</script>
<script xlink:href="svgpan.js"/>
<svg id="graph" class="graph">
<g id="viewport">
<title>CConnman::OpenNetworkConnection</title>
<polygon fill="white" stroke="none" points="-4,4 -4,-105.5 713,-105.5 713,4 -4,4"/>
<!-- Node1853 -->
<g id="node1" class="node"><title>Node1853</title>
<polygon fill="#bfbfbf" stroke="black" points="0,-44 0,-63 182,-63 182,-44 0,-44"/>
<text text-anchor="middle" x="91" y="-51" font-family="Helvetica,sans-Serif" font-size="10.00">CConnman::OpenNetworkConnection</text>
</g>
<!-- Node1854 -->
<g id="node2" class="node"><title>Node1854</title>
<g id="a_node2"><a xlink:href="class_c_connman.html#a161f1b41271db1a10cec61a825524b5d" target="_top" xlink:title="CConnman::ProcessOneShot">
<polygon fill="white" stroke="black" points="218,-82 218,-101 364,-101 364,-82 218,-82"/>
<text text-anchor="middle" x="291" y="-89" font-family="Helvetica,sans-Serif" font-size="10.00">CConnman::ProcessOneShot</text>
</a>
</g>
</g>
<!-- Node1853&#45;&gt;Node1854 -->
<g id="edge1" class="edge"><title>Node1853&#45;&gt;Node1854</title>
<path fill="none" stroke="midnightblue" d="M151.866,-64.9894C180.117,-70.4114 213.436,-76.8058 240.271,-81.9561"/>
<polygon fill="midnightblue" stroke="midnightblue" points="152.189,-61.4876 141.708,-63.04 150.869,-68.3621 152.189,-61.4876"/>
</g>
<!-- Node1855 -->
<g id="node3" class="node"><title>Node1855</title>
<g id="a_node3"><a xlink:href="class_c_connman.html#ac4c8cf5142f88565e789f3b173d89b3e" target="_top" xlink:title="CConnman::ThreadOpenConnections">
<polygon fill="white" stroke="black" points="400,-50 400,-69 580,-69 580,-50 400,-50"/>
<text text-anchor="middle" x="490" y="-57" font-family="Helvetica,sans-Serif" font-size="10.00">CConnman::ThreadOpenConnections</text>
</a>
</g>
</g>
<!-- Node1853&#45;&gt;Node1855 -->
<g id="edge6" class="edge"><title>Node1853&#45;&gt;Node1855</title>
<path fill="none" stroke="midnightblue" d="M192.187,-55.0142C256.135,-55.9806 338.296,-57.2224 399.956,-58.1542"/>
<polygon fill="midnightblue" stroke="midnightblue" points="192.137,-51.5131 182.085,-54.8615 192.031,-58.5123 192.137,-51.5131"/>
</g>
<!-- Node1857 -->
<g id="node5" class="node"><title>Node1857</title>
<g id="a_node5"><a xlink:href="class_c_connman.html#a0b787caf95e52a346a2b31a580d60a62" target="_top" xlink:title="CConnman::ThreadOpenAdded\lConnections">
<polygon fill="white" stroke="black" points="413.5,-0.5 413.5,-30.5 566.5,-30.5 566.5,-0.5 413.5,-0.5"/>
<text text-anchor="start" x="421.5" y="-18.5" font-family="Helvetica,sans-Serif" font-size="10.00">CConnman::ThreadOpenAdded</text>
<text text-anchor="middle" x="490" y="-7.5" font-family="Helvetica,sans-Serif" font-size="10.00">Connections</text>
</a>
</g>
</g>
<!-- Node1853&#45;&gt;Node1857 -->
<g id="edge4" class="edge"><title>Node1853&#45;&gt;Node1857</title>
<path fill="none" stroke="midnightblue" d="M192.062,-43.9223C260.754,-37.3472 350.505,-28.7564 413.279,-22.7478"/>
<polygon fill="midnightblue" stroke="midnightblue" points="191.706,-40.4402 182.085,-44.8772 192.373,-47.4084 191.706,-40.4402"/>
</g>
<!-- Node1854&#45;&gt;Node1855 -->
<g id="edge2" class="edge"><title>Node1854&#45;&gt;Node1855</title>
<path fill="none" stroke="midnightblue" d="M360.501,-80.3729C383.254,-76.677 408.368,-72.5976 430.312,-69.033"/>
<polygon fill="midnightblue" stroke="midnightblue" points="359.883,-76.9274 350.573,-81.9856 361.005,-83.8369 359.883,-76.9274"/>
</g>
<!-- Node1856 -->
<g id="node4" class="node"><title>Node1856</title>
<g id="a_node4"><a xlink:href="class_c_connman.html#a80caf4db74fcf515068f169e085ff84e" target="_top" xlink:title="CConnman::Start">
<polygon fill="white" stroke="black" points="616,-28 616,-47 709,-47 709,-28 616,-28"/>
<text text-anchor="middle" x="662.5" y="-35" font-family="Helvetica,sans-Serif" font-size="10.00">CConnman::Start</text>
</a>
</g>
</g>
<!-- Node1855&#45;&gt;Node1856 -->
<g id="edge3" class="edge"><title>Node1855&#45;&gt;Node1856</title>
<path fill="none" stroke="midnightblue" d="M574.969,-48.6653C588.985,-46.8567 603.048,-45.0422 615.641,-43.4173"/>
<polygon fill="midnightblue" stroke="midnightblue" points="574.262,-45.2274 564.792,-49.9784 575.158,-52.1699 574.262,-45.2274"/>
</g>
<!-- Node1857&#45;&gt;Node1856 -->
<g id="edge5" class="edge"><title>Node1857&#45;&gt;Node1856</title>
<path fill="none" stroke="midnightblue" d="M577.005,-26.5974C590.402,-28.3261 603.775,-30.0516 615.799,-31.603"/>
<polygon fill="midnightblue" stroke="midnightblue" points="577.142,-23.0862 566.777,-25.2776 576.247,-30.0287 577.142,-23.0862"/>
</g>
</g>
</svg>
        <g id="navigator" transform="translate(0 0)" fill="#404254">
                <rect fill="#f2f5e9" fill-opacity="0.5" stroke="#606060" stroke-width=".5" x="0" y="0" width="60" height="60"/>
                <use id="zoomplus" xlink:href="#zoomPlus" x="17" y="9" onmousedown="handleZoom(evt,'in')"/>
                <use id="zoomminus" xlink:href="#zoomMin" x="42" y="9" onmousedown="handleZoom(evt,'out')"/>
                <use id="reset" xlink:href="#resetDef" x="30" y="36" onmousedown="handleReset()"/>
                <g id="arrowUp" xlink:href="#dirArrow" transform="translate(30 24)" onmousedown="handlePan(0,-1)">
                  <use xlink:href="#rim" fill="#404040">
                        <set attributeName="fill" to="#808080" begin="arrowUp.mouseover" end="arrowUp.mouseout"/>
                  </use>
                  <path fill="none" stroke="white" stroke-width="1.5" d="M0,-3.0v7 M-2.5,-0.5L0,-3.0L2.5,-0.5"/>
                </g>
                <g id="arrowRight" xlink:href="#dirArrow" transform="rotate(90) translate(36 -43)" onmousedown="handlePan(1,0)">
                  <use xlink:href="#rim" fill="#404040">
                        <set attributeName="fill" to="#808080" begin="arrowRight.mouseover" end="arrowRight.mouseout"/>
                  </use>
                  <path fill="none" stroke="white" stroke-width="1.5" d="M0,-3.0v7 M-2.5,-0.5L0,-3.0L2.5,-0.5"/>
                </g>
                <g id="arrowDown" xlink:href="#dirArrow" transform="rotate(180) translate(-30 -48)" onmousedown="handlePan(0,1)">
                  <use xlink:href="#rim" fill="#404040">
                        <set attributeName="fill" to="#808080" begin="arrowDown.mouseover" end="arrowDown.mouseout"/>
                  </use>
                  <path fill="none" stroke="white" stroke-width="1.5" d="M0,-3.0v7 M-2.5,-0.5L0,-3.0L2.5,-0.5"/>
                </g>
                <g id="arrowLeft" xlink:href="#dirArrow" transform="rotate(270) translate(-36 17)" onmousedown="handlePan(-1,0)">
                  <use xlink:href="#rim" fill="#404040">
                        <set attributeName="fill" to="#808080" begin="arrowLeft.mouseover" end="arrowLeft.mouseout"/>
                  </use>
                  <path fill="none" stroke="white" stroke-width="1.5" d="M0,-3.0v7 M-2.5,-0.5L0,-3.0L2.5,-0.5"/>
                </g>
        </g>
        <svg viewBox="0 0 15 15" width="100%" height="30px" preserveAspectRatio="xMaxYMin meet">
         <g id="arrow_out" transform="scale(0.3 0.3)">
          <a xlink:href="class_c_connman_a0cc39d54353d7edc2a57f4a4e4d0912a_icgraph_org.svg" target="_base">
           <rect id="button" ry="5" rx="5" y="6" x="6" height="38" width="38"
                fill="#f2f5e9" fill-opacity="0.5" stroke="#606060" stroke-width="1.0"/>
           <path id="arrow"
             d="M 11.500037,31.436501 C 11.940474,20.09759 22.043105,11.32322 32.158766,21.979434 L 37.068811,17.246167 C 37.068811,17.246167 37.088388,32 37.088388,32 L 22.160133,31.978069 C 22.160133,31.978069 26.997745,27.140456 26.997745,27.140456 C 18.528582,18.264221 13.291696,25.230495 11.500037,31.436501 z"
             style="fill:#404040;"/>
          </a>
         </g>
        </svg>
</svg>
