<?xml version="1.0" encoding="UTF-8" standalone="no"?>
<!DOCTYPE svg PUBLIC "-//W3C//DTD SVG 1.1//EN"
 "http://www.w3.org/Graphics/SVG/1.1/DTD/svg11.dtd">
<!-- Generated by graphviz version 2.38.0 (20140413.2041)
 -->
<!-- Title: CNetAddr::IsLocal Pages: 1 -->
<svg width="244pt" height="66pt"
 viewBox="0.00 0.00 244.00 66.00" xmlns="http://www.w3.org/2000/svg" xmlns:xlink="http://www.w3.org/1999/xlink">
<g id="graph0" class="graph" transform="scale(1 1) rotate(0) translate(4 62)">
<title>CNetAddr::IsLocal</title>
<polygon fill="white" stroke="none" points="-4,4 -4,-62 240,-62 240,4 -4,4"/>
<!-- Node1198 -->
<g id="node1" class="node"><title>Node1198</title>
<polygon fill="#bfbfbf" stroke="black" points="0,-19.5 0,-38.5 98,-38.5 98,-19.5 0,-19.5"/>
<text text-anchor="middle" x="49" y="-26.5" font-family="Helvetica,sans-Serif" font-size="10.00">CNetAddr::IsLocal</text>
</g>
<!-- Node1199 -->
<g id="node2" class="node"><title>Node1199</title>
<g id="a_node2"><a xlink:href="class_c_net_addr.html#acfd51ebf2030b01fa5ac133176512475" target="_top" xlink:title="CNetAddr::GetByte">
<polygon fill="white" stroke="black" points="134,-38.5 134,-57.5 236,-57.5 236,-38.5 134,-38.5"/>
<text text-anchor="middle" x="185" y="-45.5" font-family="Helvetica,sans-Serif" font-size="10.00">CNetAddr::GetByte</text>
</a>
</g>
</g>
<!-- Node1198&#45;&gt;Node1199 -->
<g id="edge1" class="edge"><title>Node1198&#45;&gt;Node1199</title>
<path fill="none" stroke="midnightblue" d="M98.3771,-35.8594C106.675,-37.036 115.387,-38.2712 123.946,-39.4848"/>
<polygon fill="midnightblue" stroke="midnightblue" points="123.497,-42.9561 133.889,-40.8947 124.479,-36.0254 123.497,-42.9561"/>
</g>
<!-- Node1200 -->
<g id="node3" class="node"><title>Node1200</title>
<g id="a_node3"><a xlink:href="class_c_net_addr.html#a7021b79e9a33c342b68db09dbb6c2293" target="_top" xlink:title="CNetAddr::IsIPv4">
<polygon fill="white" stroke="black" points="137.5,-0.5 137.5,-19.5 232.5,-19.5 232.5,-0.5 137.5,-0.5"/>
<text text-anchor="middle" x="185" y="-7.5" font-family="Helvetica,sans-Serif" font-size="10.00">CNetAddr::IsIPv4</text>
</a>
</g>
</g>
<!-- Node1198&#45;&gt;Node1200 -->
<g id="edge2" class="edge"><title>Node1198&#45;&gt;Node1200</title>
<path fill="none" stroke="midnightblue" d="M98.3771,-22.1406C107.836,-20.7994 117.832,-19.382 127.527,-18.0073"/>
<polygon fill="midnightblue" stroke="midnightblue" points="128.076,-21.4646 137.486,-16.5953 127.094,-14.5339 128.076,-21.4646"/>
</g>
</g>
</svg>
