<?xml version="1.0" encoding="UTF-8" standalone="no"?>
<!DOCTYPE svg PUBLIC "-//W3C//DTD SVG 1.1//EN"
 "http://www.w3.org/Graphics/SVG/1.1/DTD/svg11.dtd">
<!-- Generated by graphviz version 2.38.0 (20140413.2041)
 -->
<!-- Title: BaseSignatureCreator::CreateSig Pages: 1 -->
<!--zoomable 454 -->
<svg id="main" version="1.1" xmlns="http://www.w3.org/2000/svg" xmlns:xlink="http://www.w3.org/1999/xlink" xml:space="preserve" onload="init(evt)">
<style type="text/css"><![CDATA[
.edge:hover path { stroke: red; }
.edge:hover polygon { stroke: red; fill: red; }
]]></style>
<script type="text/javascript"><![CDATA[
var edges = document.getElementsByTagName('g');
if (edges && edges.length) {
  for (var i=0;i<edges.length;i++) {
    if (edges[i].id.substr(0,4)=='edge') {
      edges[i].setAttribute('class','edge');
    }
  }
}
]]></script>
        <defs>
                <circle id="rim" cx="0" cy="0" r="7"/>
                <circle id="rim2" cx="0" cy="0" r="3.5"/>
                <g id="zoomPlus">
                        <use xlink:href="#rim" fill="#404040">
                                <set attributeName="fill" to="#808080" begin="zoomplus.mouseover" end="zoomplus.mouseout"/>
                        </use>
                        <path d="M-4,0h8M0,-4v8" fill="none" stroke="white" stroke-width="1.5" pointer-events="none"/>
                </g>
                <g id="zoomMin">
                        <use xlink:href="#rim" fill="#404040">
                                <set attributeName="fill" to="#808080" begin="zoomminus.mouseover" end="zoomminus.mouseout"/>
                        </use>
                        <path d="M-4,0h8" fill="none" stroke="white" stroke-width="1.5" pointer-events="none"/>
                </g>
                <g id="dirArrow">
                        <path fill="none" stroke="white" stroke-width="1.5" d="M0,-3.0v7 M-2.5,-0.5L0,-3.0L2.5,-0.5"/>
                </g>
               <g id="resetDef">
                       <use xlink:href="#rim2" fill="#404040">
                               <set attributeName="fill" to="#808080" begin="reset.mouseover" end="reset.mouseout"/>
                       </use>
               </g>
        </defs>

<script type="text/javascript">
var viewWidth = 2135;
var viewHeight = 454;
var sectionId = 'dynsection-3';
</script>
<script xlink:href="svgpan.js"/>
<svg id="graph" class="graph">
<g id="viewport">
<title>BaseSignatureCreator::CreateSig</title>
<polygon fill="white" stroke="none" points="-4,4 -4,-449.5 2131,-449.5 2131,4 -4,4"/>
<!-- Node49 -->
<g id="node1" class="node"><title>Node49</title>
<polygon fill="#bfbfbf" stroke="black" points="0,-199 0,-229 113,-229 113,-199 0,-199"/>
<text text-anchor="start" x="8" y="-217" font-family="Helvetica,sans-Serif" font-size="10.00">BaseSignatureCreator</text>
<text text-anchor="middle" x="56.5" y="-206" font-family="Helvetica,sans-Serif" font-size="10.00">::CreateSig</text>
</g>
<!-- Node50 -->
<g id="node2" class="node"><title>Node50</title>
<g id="a_node2"><a xlink:href="sign_8cpp.html#a643ab26d873d302504c50d0fa3eaf7b9" target="_top" xlink:title="Sign1">
<polygon fill="white" stroke="black" points="149,-204.5 149,-223.5 190,-223.5 190,-204.5 149,-204.5"/>
<text text-anchor="middle" x="169.5" y="-211.5" font-family="Helvetica,sans-Serif" font-size="10.00">Sign1</text>
</a>
</g>
</g>
<!-- Node49&#45;&gt;Node50 -->
<g id="edge1" class="edge"><title>Node49&#45;&gt;Node50</title>
<path fill="none" stroke="midnightblue" d="M123.423,-214C132.631,-214 141.443,-214 148.793,-214"/>
<polygon fill="midnightblue" stroke="midnightblue" points="123.325,-210.5 113.325,-214 123.325,-217.5 123.325,-210.5"/>
</g>
<!-- Node51 -->
<g id="node3" class="node"><title>Node51</title>
<g id="a_node3"><a xlink:href="sign_8cpp.html#aa0e632a39efe29ff9d6dd8dfc30b36f6" target="_top" xlink:title="SignN">
<polygon fill="white" stroke="black" points="226,-223.5 226,-242.5 270,-242.5 270,-223.5 226,-223.5"/>
<text text-anchor="middle" x="248" y="-230.5" font-family="Helvetica,sans-Serif" font-size="10.00">SignN</text>
</a>
</g>
</g>
<!-- Node50&#45;&gt;Node51 -->
<g id="edge2" class="edge"><title>Node50&#45;&gt;Node51</title>
<path fill="none" stroke="midnightblue" d="M200.186,-221.373C208.716,-223.492 217.845,-225.759 225.756,-227.724"/>
<polygon fill="midnightblue" stroke="midnightblue" points="200.749,-217.907 190.201,-218.893 199.062,-224.7 200.749,-217.907"/>
</g>
<!-- Node52 -->
<g id="node4" class="node"><title>Node52</title>
<g id="a_node4"><a xlink:href="sign_8cpp.html#a9725c92a7bcbd637145ec747124ffb54" target="_top" xlink:title="Sign scriptPubKey using signature made with creator. ">
<polygon fill="white" stroke="black" points="306,-204.5 306,-223.5 362,-223.5 362,-204.5 306,-204.5"/>
<text text-anchor="middle" x="334" y="-211.5" font-family="Helvetica,sans-Serif" font-size="10.00">SignStep</text>
</a>
</g>
</g>
<!-- Node50&#45;&gt;Node52 -->
<g id="edge48" class="edge"><title>Node50&#45;&gt;Node52</title>
<path fill="none" stroke="midnightblue" d="M200.417,-214C230.541,-214 276.61,-214 305.748,-214"/>
<polygon fill="midnightblue" stroke="midnightblue" points="200.101,-210.5 190.101,-214 200.101,-217.5 200.101,-210.5"/>
</g>
<!-- Node51&#45;&gt;Node52 -->
<g id="edge3" class="edge"><title>Node51&#45;&gt;Node52</title>
<path fill="none" stroke="midnightblue" d="M280.067,-225.973C288.499,-224.066 297.562,-222.016 305.764,-220.161"/>
<polygon fill="midnightblue" stroke="midnightblue" points="279.178,-222.585 270.197,-228.205 280.723,-229.413 279.178,-222.585"/>
</g>
<!-- Node53 -->
<g id="node5" class="node"><title>Node53</title>
<g id="a_node5"><a xlink:href="sign_8h.html#adbf7be99c10673b0273baa225658279d" target="_top" xlink:title="Produce a script signature using a generic signature creator. ">
<polygon fill="white" stroke="black" points="398,-204.5 398,-223.5 492,-223.5 492,-204.5 398,-204.5"/>
<text text-anchor="middle" x="445" y="-211.5" font-family="Helvetica,sans-Serif" font-size="10.00">ProduceSignature</text>
</a>
</g>
</g>
<!-- Node52&#45;&gt;Node53 -->
<g id="edge4" class="edge"><title>Node52&#45;&gt;Node53</title>
<path fill="none" stroke="midnightblue" d="M372.482,-214C380.581,-214 389.238,-214 397.632,-214"/>
<polygon fill="midnightblue" stroke="midnightblue" points="372.224,-210.5 362.224,-214 372.224,-217.5 372.224,-210.5"/>
</g>
<!-- Node54 -->
<g id="node6" class="node"><title>Node54</title>
<g id="a_node6"><a xlink:href="group___actions.html#ga9476d8b40414f77f7f3bcd3ba28fa31f" target="_top" xlink:title="Create a new transaction paying the recipients with a set of coins selected by SelectCoins(); Also cr...">
<polygon fill="white" stroke="black" points="528,-308.5 528,-327.5 666,-327.5 666,-308.5 528,-308.5"/>
<text text-anchor="middle" x="597" y="-315.5" font-family="Helvetica,sans-Serif" font-size="10.00">CWallet::CreateTransaction</text>
</a>
</g>
</g>
<!-- Node53&#45;&gt;Node54 -->
<g id="edge5" class="edge"><title>Node53&#45;&gt;Node54</title>
<path fill="none" stroke="midnightblue" d="M468.379,-229.516C499.842,-251.331 556.208,-290.411 582.191,-308.426"/>
<polygon fill="midnightblue" stroke="midnightblue" points="470.055,-226.419 459.843,-223.598 466.067,-232.172 470.055,-226.419"/>
</g>
<!-- Node65 -->
<g id="node17" class="node"><title>Node65</title>
<g id="a_node17"><a xlink:href="wallet__ismine_8h.html#ae1531a999ac1bfa59d70cfc984f1266b" target="_top" xlink:title="IsMine">
<polygon fill="white" stroke="black" points="574,-204.5 574,-223.5 620,-223.5 620,-204.5 574,-204.5"/>
<text text-anchor="middle" x="597" y="-211.5" font-family="Helvetica,sans-Serif" font-size="10.00">IsMine</text>
</a>
</g>
</g>
<!-- Node53&#45;&gt;Node65 -->
<g id="edge16" class="edge"><title>Node53&#45;&gt;Node65</title>
<path fill="none" stroke="midnightblue" d="M502.341,-214C527.287,-214 555.175,-214 573.98,-214"/>
<polygon fill="midnightblue" stroke="midnightblue" points="502.229,-210.5 492.229,-214 502.229,-217.5 502.229,-210.5"/>
</g>
<!-- Node66 -->
<g id="node18" class="node"><title>Node66</title>
<g id="a_node18"><a xlink:href="sign_8h.html#a3b014c5c7c258e53d1e933017025beeb" target="_top" xlink:title="Produce a script signature for a transaction. ">
<polygon fill="white" stroke="black" points="558.5,-98.5 558.5,-117.5 635.5,-117.5 635.5,-98.5 558.5,-98.5"/>
<text text-anchor="middle" x="597" y="-105.5" font-family="Helvetica,sans-Serif" font-size="10.00">SignSignature</text>
</a>
</g>
</g>
<!-- Node53&#45;&gt;Node66 -->
<g id="edge17" class="edge"><title>Node53&#45;&gt;Node66</title>
<path fill="none" stroke="midnightblue" d="M468.078,-198.398C499.457,-176.224 556.036,-136.241 582.129,-117.802"/>
<polygon fill="midnightblue" stroke="midnightblue" points="465.723,-195.777 459.576,-204.406 469.763,-201.493 465.723,-195.777"/>
</g>
<!-- Node55 -->
<g id="node7" class="node"><title>Node55</title>
<g id="a_node7"><a xlink:href="class_c_private_send_client.html#a1318eb1f8e5a845036cfe99f0b3f8b36" target="_top" xlink:title="CPrivateSendClient\l::CreateDenominated">
<polygon fill="white" stroke="black" points="727,-415 727,-445 837,-445 837,-415 727,-415"/>
<text text-anchor="start" x="735" y="-433" font-family="Helvetica,sans-Serif" font-size="10.00">CPrivateSendClient</text>
<text text-anchor="middle" x="782" y="-422" font-family="Helvetica,sans-Serif" font-size="10.00">::CreateDenominated</text>
</a>
</g>
</g>
<!-- Node54&#45;&gt;Node55 -->
<g id="edge6" class="edge"><title>Node54&#45;&gt;Node55</title>
<path fill="none" stroke="midnightblue" d="M613.869,-334.773C633.068,-354.178 667.169,-385.901 702,-405 709.694,-409.219 718.207,-412.847 726.712,-415.926"/>
<polygon fill="midnightblue" stroke="midnightblue" points="616.299,-332.251 606.819,-327.519 611.279,-337.13 616.299,-332.251"/>
</g>
<!-- Node56 -->
<g id="node8" class="node"><title>Node56</title>
<g id="a_node8"><a xlink:href="class_c_private_send_client.html#ad603beaa1644f6e6cfb8ca7d1400d46e" target="_top" xlink:title="CPrivateSendClient\l::MakeCollateralAmounts">
<polygon fill="white" stroke="black" points="718.5,-366 718.5,-396 845.5,-396 845.5,-366 718.5,-366"/>
<text text-anchor="start" x="726.5" y="-384" font-family="Helvetica,sans-Serif" font-size="10.00">CPrivateSendClient</text>
<text text-anchor="middle" x="782" y="-373" font-family="Helvetica,sans-Serif" font-size="10.00">::MakeCollateralAmounts</text>
</a>
</g>
</g>
<!-- Node54&#45;&gt;Node56 -->
<g id="edge7" class="edge"><title>Node54&#45;&gt;Node56</title>
<path fill="none" stroke="midnightblue" d="M632.51,-331.04C652.69,-338.557 678.701,-348.061 702,-356 711.804,-359.341 722.342,-362.78 732.427,-365.998"/>
<polygon fill="midnightblue" stroke="midnightblue" points="633.701,-327.749 623.109,-327.525 631.25,-334.305 633.701,-327.749"/>
</g>
<!-- Node57 -->
<g id="node9" class="node"><title>Node57</title>
<g id="a_node9"><a xlink:href="class_wallet_model.html#a8abc851901c7c7343ebfb5a8e5fc0154" target="_top" xlink:title="WalletModel::prepareTransaction">
<polygon fill="white" stroke="black" points="702,-327.5 702,-346.5 862,-346.5 862,-327.5 702,-327.5"/>
<text text-anchor="middle" x="782" y="-334.5" font-family="Helvetica,sans-Serif" font-size="10.00">WalletModel::prepareTransaction</text>
</a>
</g>
</g>
<!-- Node54&#45;&gt;Node57 -->
<g id="edge8" class="edge"><title>Node54&#45;&gt;Node57</title>
<path fill="none" stroke="midnightblue" d="M676.303,-326.13C684.711,-327.003 693.27,-327.891 701.69,-328.766"/>
<polygon fill="midnightblue" stroke="midnightblue" points="676.45,-322.626 666.142,-325.075 675.728,-329.589 676.45,-322.626"/>
</g>
<!-- Node60 -->
<g id="node12" class="node"><title>Node60</title>
<g id="a_node12"><a xlink:href="rpcwallet_8cpp.html#a02c1a7b5244896e62bc5ae698f7a76c9" target="_top" xlink:title="sendmany">
<polygon fill="white" stroke="black" points="751,-289.5 751,-308.5 813,-308.5 813,-289.5 751,-289.5"/>
<text text-anchor="middle" x="782" y="-296.5" font-family="Helvetica,sans-Serif" font-size="10.00">sendmany</text>
</a>
</g>
</g>
<!-- Node54&#45;&gt;Node60 -->
<g id="edge11" class="edge"><title>Node54&#45;&gt;Node60</title>
<path fill="none" stroke="midnightblue" d="M676.131,-309.888C702.432,-307.157 730.241,-304.27 750.608,-302.155"/>
<polygon fill="midnightblue" stroke="midnightblue" points="675.728,-306.411 666.142,-310.925 676.45,-313.374 675.728,-306.411"/>
</g>
<!-- Node61 -->
<g id="node13" class="node"><title>Node61</title>
<g id="a_node13"><a xlink:href="rpcwallet_8cpp.html#a1ce48c3b465b38c532d3a3bc9664ba16" target="_top" xlink:title="SendMoney">
<polygon fill="white" stroke="black" points="748,-251.5 748,-270.5 816,-270.5 816,-251.5 748,-251.5"/>
<text text-anchor="middle" x="782" y="-258.5" font-family="Helvetica,sans-Serif" font-size="10.00">SendMoney</text>
</a>
</g>
</g>
<!-- Node54&#45;&gt;Node61 -->
<g id="edge12" class="edge"><title>Node54&#45;&gt;Node61</title>
<path fill="none" stroke="midnightblue" d="M631.103,-304.806C651.377,-297.001 677.961,-287.257 702,-280 716.855,-275.516 733.53,-271.377 747.718,-268.115"/>
<polygon fill="midnightblue" stroke="midnightblue" points="629.75,-301.577 621.697,-308.462 632.285,-308.101 629.75,-301.577"/>
</g>
<!-- Node58 -->
<g id="node10" class="node"><title>Node58</title>
<g id="a_node10"><a xlink:href="class_send_coins_dialog.html#aab03626a859f22a68760b235a1df6bc9" target="_top" xlink:title="SendCoinsDialog::send">
<polygon fill="white" stroke="black" points="908.5,-327.5 908.5,-346.5 1027.5,-346.5 1027.5,-327.5 908.5,-327.5"/>
<text text-anchor="middle" x="968" y="-334.5" font-family="Helvetica,sans-Serif" font-size="10.00">SendCoinsDialog::send</text>
</a>
</g>
</g>
<!-- Node57&#45;&gt;Node58 -->
<g id="edge9" class="edge"><title>Node57&#45;&gt;Node58</title>
<path fill="none" stroke="midnightblue" d="M872.316,-337C884.518,-337 896.783,-337 908.252,-337"/>
<polygon fill="midnightblue" stroke="midnightblue" points="872.1,-333.5 862.1,-337 872.1,-340.5 872.1,-333.5"/>
</g>
<!-- Node59 -->
<g id="node11" class="node"><title>Node59</title>
<g id="a_node11"><a xlink:href="class_send_coins_dialog.html#a2cab7cf9ea5040b9e2189297f7d3c764" target="_top" xlink:title="SendCoinsDialog::on\l_sendButton_clicked">
<polygon fill="white" stroke="black" points="1098.5,-322 1098.5,-352 1207.5,-352 1207.5,-322 1098.5,-322"/>
<text text-anchor="start" x="1106.5" y="-340" font-family="Helvetica,sans-Serif" font-size="10.00">SendCoinsDialog::on</text>
<text text-anchor="middle" x="1153" y="-329" font-family="Helvetica,sans-Serif" font-size="10.00">_sendButton_clicked</text>
</a>
</g>
</g>
<!-- Node58&#45;&gt;Node59 -->
<g id="edge10" class="edge"><title>Node58&#45;&gt;Node59</title>
<path fill="none" stroke="midnightblue" d="M1037.67,-337C1057.72,-337 1079.34,-337 1098.33,-337"/>
<polygon fill="midnightblue" stroke="midnightblue" points="1037.66,-333.5 1027.66,-337 1037.66,-340.5 1037.66,-333.5"/>
</g>
<!-- Node62 -->
<g id="node14" class="node"><title>Node62</title>
<g id="a_node14"><a xlink:href="rpcwallet_8cpp.html#a13ae0f230ba6d349466070da38ee85f4" target="_top" xlink:title="instantsendtoaddress">
<polygon fill="white" stroke="black" points="913,-251.5 913,-270.5 1023,-270.5 1023,-251.5 913,-251.5"/>
<text text-anchor="middle" x="968" y="-258.5" font-family="Helvetica,sans-Serif" font-size="10.00">instantsendtoaddress</text>
</a>
</g>
</g>
<!-- Node61&#45;&gt;Node62 -->
<g id="edge13" class="edge"><title>Node61&#45;&gt;Node62</title>
<path fill="none" stroke="midnightblue" d="M826.576,-261C852.451,-261 885.474,-261 912.995,-261"/>
<polygon fill="midnightblue" stroke="midnightblue" points="826.321,-257.5 816.321,-261 826.321,-264.5 826.321,-257.5"/>
</g>
<!-- Node63 -->
<g id="node15" class="node"><title>Node63</title>
<g id="a_node15"><a xlink:href="rpcwallet_8cpp.html#a887e8b6785b39cba59fe24ea952a4f10" target="_top" xlink:title="sendfrom">
<polygon fill="white" stroke="black" points="939.5,-213.5 939.5,-232.5 996.5,-232.5 996.5,-213.5 939.5,-213.5"/>
<text text-anchor="middle" x="968" y="-220.5" font-family="Helvetica,sans-Serif" font-size="10.00">sendfrom</text>
</a>
</g>
</g>
<!-- Node61&#45;&gt;Node63 -->
<g id="edge14" class="edge"><title>Node61&#45;&gt;Node63</title>
<path fill="none" stroke="midnightblue" d="M826.258,-252.066C861.218,-244.846 909.381,-234.9 939.332,-228.714"/>
<polygon fill="midnightblue" stroke="midnightblue" points="825.406,-248.668 816.321,-254.118 826.822,-255.524 825.406,-248.668"/>
</g>
<!-- Node64 -->
<g id="node16" class="node"><title>Node64</title>
<g id="a_node16"><a xlink:href="rpcwallet_8cpp.html#a36f0a0b6cd58a61c125bbe7a39ed1368" target="_top" xlink:title="sendtoaddress">
<polygon fill="white" stroke="black" points="928,-289.5 928,-308.5 1008,-308.5 1008,-289.5 928,-289.5"/>
<text text-anchor="middle" x="968" y="-296.5" font-family="Helvetica,sans-Serif" font-size="10.00">sendtoaddress</text>
</a>
</g>
</g>
<!-- Node61&#45;&gt;Node64 -->
<g id="edge15" class="edge"><title>Node61&#45;&gt;Node64</title>
<path fill="none" stroke="midnightblue" d="M826.335,-269.95C857.106,-276.305 898.077,-284.766 927.861,-290.917"/>
<polygon fill="midnightblue" stroke="midnightblue" points="826.822,-266.476 816.321,-267.882 825.406,-273.332 826.822,-266.476"/>
</g>
<!-- Node67 -->
<g id="node19" class="node"><title>Node67</title>
<g id="a_node19"><a xlink:href="group___actions.html#ga94971f63a4a5ed96e2c5c6760a29bfa6" target="_top" xlink:title="CWallet::CreateCollateral\lTransaction">
<polygon fill="white" stroke="black" points="718,-164 718,-194 846,-194 846,-164 718,-164"/>
<text text-anchor="start" x="726" y="-182" font-family="Helvetica,sans-Serif" font-size="10.00">CWallet::CreateCollateral</text>
<text text-anchor="middle" x="782" y="-171" font-family="Helvetica,sans-Serif" font-size="10.00">Transaction</text>
</a>
</g>
</g>
<!-- Node66&#45;&gt;Node67 -->
<g id="edge18" class="edge"><title>Node66&#45;&gt;Node67</title>
<path fill="none" stroke="midnightblue" d="M627.233,-121.964C647.881,-131.57 676.333,-144.296 702,-154 711.15,-157.459 721.013,-160.845 730.565,-163.952"/>
<polygon fill="midnightblue" stroke="midnightblue" points="628.593,-118.735 618.053,-117.659 625.621,-125.073 628.593,-118.735"/>
</g>
<!-- Node79 -->
<g id="node31" class="node"><title>Node79</title>
<g id="a_node31"><a xlink:href="dash-tx_8cpp.html#a4530b9267f4e55a4dd36f329d42e9545" target="_top" xlink:title="MutateTxSign">
<polygon fill="white" stroke="black" points="743.5,-76.5 743.5,-95.5 820.5,-95.5 820.5,-76.5 743.5,-76.5"/>
<text text-anchor="middle" x="782" y="-83.5" font-family="Helvetica,sans-Serif" font-size="10.00">MutateTxSign</text>
</a>
</g>
</g>
<!-- Node66&#45;&gt;Node79 -->
<g id="edge30" class="edge"><title>Node66&#45;&gt;Node79</title>
<path fill="none" stroke="midnightblue" d="M645.897,-102.242C676.354,-98.5804 715.223,-93.9076 743.444,-90.5149"/>
<polygon fill="midnightblue" stroke="midnightblue" points="645.428,-98.7729 635.918,-103.442 646.264,-105.723 645.428,-98.7729"/>
</g>
<!-- Node83 -->
<g id="node35" class="node"><title>Node83</title>
<g id="a_node35"><a xlink:href="class_c_private_send_client.html#a2b2003b8c8b493d13fb8b0dfcac37fd5" target="_top" xlink:title="As a client, check and sign the final transaction. ">
<polygon fill="white" stroke="black" points="725,-115 725,-145 839,-145 839,-115 725,-115"/>
<text text-anchor="start" x="733" y="-133" font-family="Helvetica,sans-Serif" font-size="10.00">CPrivateSendClient</text>
<text text-anchor="middle" x="782" y="-122" font-family="Helvetica,sans-Serif" font-size="10.00">::SignFinalTransaction</text>
</a>
</g>
</g>
<!-- Node66&#45;&gt;Node83 -->
<g id="edge34" class="edge"><title>Node66&#45;&gt;Node83</title>
<path fill="none" stroke="midnightblue" d="M645.915,-113.76C670.062,-116.663 699.492,-120.201 724.712,-123.233"/>
<polygon fill="midnightblue" stroke="midnightblue" points="646.264,-110.277 635.918,-112.558 645.428,-117.227 646.264,-110.277"/>
</g>
<!-- Node93 -->
<g id="node45" class="node"><title>Node93</title>
<g id="a_node45"><a xlink:href="server_8h.html#a20a66f1d55549861fea58975ebe5c3fd" target="_top" xlink:title="signrawtransaction">
<polygon fill="white" stroke="black" points="733,-38.5 733,-57.5 831,-57.5 831,-38.5 733,-38.5"/>
<text text-anchor="middle" x="782" y="-45.5" font-family="Helvetica,sans-Serif" font-size="10.00">signrawtransaction</text>
</a>
</g>
</g>
<!-- Node66&#45;&gt;Node93 -->
<g id="edge46" class="edge"><title>Node66&#45;&gt;Node93</title>
<path fill="none" stroke="midnightblue" d="M629.029,-94.4511C649.491,-85.845 677.029,-74.8827 702,-67 713.031,-63.5179 725.1,-60.3171 736.411,-57.5747"/>
<polygon fill="midnightblue" stroke="midnightblue" points="627.427,-91.3289 619.594,-98.4629 630.166,-97.7707 627.427,-91.3289"/>
</g>
<!-- Node94 -->
<g id="node46" class="node"><title>Node94</title>
<g id="a_node46"><a xlink:href="sign_8h.html#aa6f2e97f4c070155f2fbcbe95c25c6ff" target="_top" xlink:title="SignSignature">
<polygon fill="white" stroke="black" points="743.5,-0.5 743.5,-19.5 820.5,-19.5 820.5,-0.5 743.5,-0.5"/>
<text text-anchor="middle" x="782" y="-7.5" font-family="Helvetica,sans-Serif" font-size="10.00">SignSignature</text>
</a>
</g>
</g>
<!-- Node66&#45;&gt;Node94 -->
<g id="edge47" class="edge"><title>Node66&#45;&gt;Node94</title>
<path fill="none" stroke="midnightblue" d="M615.134,-91.3495C634.612,-73.3433 668.12,-45.0673 702,-29 714.873,-22.8951 729.885,-18.6499 743.345,-15.7472"/>
<polygon fill="midnightblue" stroke="midnightblue" points="612.561,-88.9655 607.686,-98.3721 617.363,-94.0589 612.561,-88.9655"/>
</g>
<!-- Node68 -->
<g id="node20" class="node"><title>Node68</title>
<g id="a_node20"><a xlink:href="class_c_private_send_client.html#ad3438123cb41c93b5323f64bb52a7331" target="_top" xlink:title="Passively run mixing in the background according to the configuration in settings. ">
<polygon fill="white" stroke="black" points="898,-164 898,-194 1038,-194 1038,-164 898,-164"/>
<text text-anchor="start" x="906" y="-182" font-family="Helvetica,sans-Serif" font-size="10.00">CPrivateSendClient</text>
<text text-anchor="middle" x="968" y="-171" font-family="Helvetica,sans-Serif" font-size="10.00">::DoAutomaticDenominating</text>
</a>
</g>
</g>
<!-- Node67&#45;&gt;Node68 -->
<g id="edge19" class="edge"><title>Node67&#45;&gt;Node68</title>
<path fill="none" stroke="midnightblue" d="M856.361,-179C869.998,-179 884.206,-179 897.716,-179"/>
<polygon fill="midnightblue" stroke="midnightblue" points="856.065,-175.5 846.065,-179 856.065,-182.5 856.065,-175.5"/>
</g>
<!-- Node69 -->
<g id="node21" class="node"><title>Node69</title>
<g id="a_node21"><a xlink:href="server_8h.html#a6f0f20fd2a24851d47a6120eeca7d3e4" target="_top" xlink:title="privatesend">
<polygon fill="white" stroke="black" points="1119.5,-231.5 1119.5,-250.5 1186.5,-250.5 1186.5,-231.5 1119.5,-231.5"/>
<text text-anchor="middle" x="1153" y="-238.5" font-family="Helvetica,sans-Serif" font-size="10.00">privatesend</text>
</a>
</g>
</g>
<!-- Node68&#45;&gt;Node69 -->
<g id="edge20" class="edge"><title>Node68&#45;&gt;Node69</title>
<path fill="none" stroke="midnightblue" d="M1022.54,-197.703C1027.8,-199.747 1033.02,-201.863 1038,-204 1054.44,-211.059 1057.2,-215.844 1074,-222 1088.53,-227.324 1105.12,-231.603 1119.26,-234.742"/>
<polygon fill="midnightblue" stroke="midnightblue" points="1023.69,-194.395 1013.1,-194.114 1021.2,-200.939 1023.69,-194.395"/>
</g>
<!-- Node70 -->
<g id="node22" class="node"><title>Node70</title>
<g id="a_node22"><a xlink:href="privatesend-client_8h.html#a01b520827079bf595bfd4f72785026dc" target="_top" xlink:title="ThreadCheckPrivateSendClient">
<polygon fill="white" stroke="black" points="1268,-155.5 1268,-174.5 1422,-174.5 1422,-155.5 1268,-155.5"/>
<text text-anchor="middle" x="1345" y="-162.5" font-family="Helvetica,sans-Serif" font-size="10.00">ThreadCheckPrivateSendClient</text>
</a>
</g>
</g>
<!-- Node68&#45;&gt;Node70 -->
<g id="edge21" class="edge"><title>Node68&#45;&gt;Node70</title>
<path fill="none" stroke="midnightblue" d="M1048.37,-176.037C1113.09,-173.621 1203.91,-170.23 1267.77,-167.846"/>
<polygon fill="midnightblue" stroke="midnightblue" points="1048.08,-172.545 1038.22,-176.416 1048.34,-179.54 1048.08,-172.545"/>
</g>
<!-- Node75 -->
<g id="node27" class="node"><title>Node75</title>
<g id="a_node27"><a xlink:href="class_overview_page.html#a26efca896ca89c09ebaba1020916ea59" target="_top" xlink:title="OverviewPage::privateSendAuto">
<polygon fill="white" stroke="black" points="1074,-193.5 1074,-212.5 1232,-212.5 1232,-193.5 1074,-193.5"/>
<text text-anchor="middle" x="1153" y="-200.5" font-family="Helvetica,sans-Serif" font-size="10.00">OverviewPage::privateSendAuto</text>
</a>
</g>
</g>
<!-- Node68&#45;&gt;Node75 -->
<g id="edge26" class="edge"><title>Node68&#45;&gt;Node75</title>
<path fill="none" stroke="midnightblue" d="M1048.39,-189.412C1058.68,-190.762 1069.19,-192.139 1079.36,-193.474"/>
<polygon fill="midnightblue" stroke="midnightblue" points="1048.55,-185.904 1038.18,-188.073 1047.64,-192.844 1048.55,-185.904"/>
</g>
<!-- Node71 -->
<g id="node23" class="node"><title>Node71</title>
<g id="a_node23"><a xlink:href="init_8h.html#a6f0784aa332573f949b0975205572b28" target="_top" xlink:title="Initialize Dash Core. ">
<polygon fill="white" stroke="black" points="1668.5,-136.5 1668.5,-155.5 1721.5,-155.5 1721.5,-136.5 1668.5,-136.5"/>
<text text-anchor="middle" x="1695" y="-143.5" font-family="Helvetica,sans-Serif" font-size="10.00">AppInit2</text>
</a>
</g>
</g>
<!-- Node70&#45;&gt;Node71 -->
<g id="edge22" class="edge"><title>Node70&#45;&gt;Node71</title>
<path fill="none" stroke="midnightblue" d="M1432.63,-160.27C1510.31,-156.029 1619.36,-150.075 1668.37,-147.399"/>
<polygon fill="midnightblue" stroke="midnightblue" points="1432.16,-156.79 1422.37,-160.83 1432.55,-163.78 1432.16,-156.79"/>
</g>
<!-- Node72 -->
<g id="node24" class="node"><title>Node72</title>
<g id="a_node24"><a xlink:href="dashd_8cpp.html#ac59316b767e6984e1285f0531275286b" target="_top" xlink:title="AppInit">
<polygon fill="white" stroke="black" points="1971.5,-127.5 1971.5,-146.5 2018.5,-146.5 2018.5,-127.5 1971.5,-127.5"/>
<text text-anchor="middle" x="1995" y="-134.5" font-family="Helvetica,sans-Serif" font-size="10.00">AppInit</text>
</a>
</g>
</g>
<!-- Node71&#45;&gt;Node72 -->
<g id="edge23" class="edge"><title>Node71&#45;&gt;Node72</title>
<path fill="none" stroke="midnightblue" d="M1731.66,-150.959C1772.62,-155.909 1841.81,-161.985 1901,-156 1925.27,-153.547 1952.56,-147.58 1971.27,-142.982"/>
<polygon fill="midnightblue" stroke="midnightblue" points="1731.99,-147.473 1721.63,-149.701 1731.12,-154.418 1731.99,-147.473"/>
</g>
<!-- Node74 -->
<g id="node26" class="node"><title>Node74</title>
<g id="a_node26"><a xlink:href="class_bitcoin_core.html#af34ca069cda1d4362dcc109b4397fb62" target="_top" xlink:title="BitcoinCore::initialize">
<polygon fill="white" stroke="black" points="1792,-127.5 1792,-146.5 1901,-146.5 1901,-127.5 1792,-127.5"/>
<text text-anchor="middle" x="1846.5" y="-134.5" font-family="Helvetica,sans-Serif" font-size="10.00">BitcoinCore::initialize</text>
</a>
</g>
</g>
<!-- Node71&#45;&gt;Node74 -->
<g id="edge25" class="edge"><title>Node71&#45;&gt;Node74</title>
<path fill="none" stroke="midnightblue" d="M1731.77,-143.846C1749.79,-142.762 1771.99,-141.425 1791.99,-140.221"/>
<polygon fill="midnightblue" stroke="midnightblue" points="1731.47,-140.358 1721.7,-144.453 1731.89,-147.346 1731.47,-140.358"/>
</g>
<!-- Node73 -->
<g id="node25" class="node"><title>Node73</title>
<g id="a_node25"><a xlink:href="dashd_8cpp.html#a0ddf1224851353fc92bfbff6f499fa97" target="_top" xlink:title="main">
<polygon fill="white" stroke="black" points="2089,-127.5 2089,-146.5 2127,-146.5 2127,-127.5 2089,-127.5"/>
<text text-anchor="middle" x="2108" y="-134.5" font-family="Helvetica,sans-Serif" font-size="10.00">main</text>
</a>
</g>
</g>
<!-- Node72&#45;&gt;Node73 -->
<g id="edge24" class="edge"><title>Node72&#45;&gt;Node73</title>
<path fill="none" stroke="midnightblue" d="M2028.77,-137C2048.33,-137 2072.46,-137 2088.7,-137"/>
<polygon fill="midnightblue" stroke="midnightblue" points="2028.73,-133.5 2018.73,-137 2028.73,-140.5 2028.73,-133.5"/>
</g>
<!-- Node76 -->
<g id="node28" class="node"><title>Node76</title>
<g id="a_node28"><a xlink:href="class_overview_page.html#a2ed52a3a87e9c74fee38fa873c9bc71f" target="_top" xlink:title="OverviewPage::setWalletModel">
<polygon fill="white" stroke="black" points="1268,-193.5 1268,-212.5 1422,-212.5 1422,-193.5 1268,-193.5"/>
<text text-anchor="middle" x="1345" y="-200.5" font-family="Helvetica,sans-Serif" font-size="10.00">OverviewPage::setWalletModel</text>
</a>
</g>
</g>
<!-- Node75&#45;&gt;Node76 -->
<g id="edge27" class="edge"><title>Node75&#45;&gt;Node76</title>
<path fill="none" stroke="midnightblue" d="M1242.38,-203C1250.85,-203 1259.39,-203 1267.73,-203"/>
<polygon fill="midnightblue" stroke="midnightblue" points="1242.1,-199.5 1232.1,-203 1242.1,-206.5 1242.1,-199.5"/>
</g>
<!-- Node77 -->
<g id="node29" class="node"><title>Node77</title>
<g id="a_node29"><a xlink:href="class_wallet_view.html#a0a37ff693a4f9c1e5ddc23f9cd3913be" target="_top" xlink:title="Set the wallet model. ">
<polygon fill="white" stroke="black" points="1458,-193.5 1458,-212.5 1598,-212.5 1598,-193.5 1458,-193.5"/>
<text text-anchor="middle" x="1528" y="-200.5" font-family="Helvetica,sans-Serif" font-size="10.00">WalletView::setWalletModel</text>
</a>
</g>
</g>
<!-- Node76&#45;&gt;Node77 -->
<g id="edge28" class="edge"><title>Node76&#45;&gt;Node77</title>
<path fill="none" stroke="midnightblue" d="M1432.24,-203C1440.8,-203 1449.41,-203 1457.76,-203"/>
<polygon fill="midnightblue" stroke="midnightblue" points="1432.24,-199.5 1422.24,-203 1432.24,-206.5 1432.24,-199.5"/>
</g>
<!-- Node78 -->
<g id="node30" class="node"><title>Node78</title>
<g id="a_node30"><a xlink:href="class_wallet_frame.html#aa199c3f27654199d84c365cf86167d86" target="_top" xlink:title="WalletFrame::addWallet">
<polygon fill="white" stroke="black" points="1634,-193.5 1634,-212.5 1756,-212.5 1756,-193.5 1634,-193.5"/>
<text text-anchor="middle" x="1695" y="-200.5" font-family="Helvetica,sans-Serif" font-size="10.00">WalletFrame::addWallet</text>
</a>
</g>
</g>
<!-- Node77&#45;&gt;Node78 -->
<g id="edge29" class="edge"><title>Node77&#45;&gt;Node78</title>
<path fill="none" stroke="midnightblue" d="M1608.15,-203C1616.81,-203 1625.53,-203 1633.91,-203"/>
<polygon fill="midnightblue" stroke="midnightblue" points="1608.02,-199.5 1598.02,-203 1608.02,-206.5 1608.02,-199.5"/>
</g>
<!-- Node80 -->
<g id="node32" class="node"><title>Node80</title>
<g id="a_node32"><a xlink:href="dash-tx_8cpp.html#ab7ebe37e92de4ef2ff4c3b547b1495c3" target="_top" xlink:title="MutateTx">
<polygon fill="white" stroke="black" points="939,-76.5 939,-95.5 997,-95.5 997,-76.5 939,-76.5"/>
<text text-anchor="middle" x="968" y="-83.5" font-family="Helvetica,sans-Serif" font-size="10.00">MutateTx</text>
</a>
</g>
</g>
<!-- Node79&#45;&gt;Node80 -->
<g id="edge31" class="edge"><title>Node79&#45;&gt;Node80</title>
<path fill="none" stroke="midnightblue" d="M830.959,-86C865.289,-86 910.327,-86 938.975,-86"/>
<polygon fill="midnightblue" stroke="midnightblue" points="830.679,-82.5001 820.679,-86 830.679,-89.5001 830.679,-82.5001"/>
</g>
<!-- Node81 -->
<g id="node33" class="node"><title>Node81</title>
<g id="a_node33"><a xlink:href="dash-tx_8cpp.html#aa1edb2f1ad129a440e9c1f98d6a9e6bb" target="_top" xlink:title="CommandLineRawTx">
<polygon fill="white" stroke="black" points="1097.5,-76.5 1097.5,-95.5 1208.5,-95.5 1208.5,-76.5 1097.5,-76.5"/>
<text text-anchor="middle" x="1153" y="-83.5" font-family="Helvetica,sans-Serif" font-size="10.00">CommandLineRawTx</text>
</a>
</g>
</g>
<!-- Node80&#45;&gt;Node81 -->
<g id="edge32" class="edge"><title>Node80&#45;&gt;Node81</title>
<path fill="none" stroke="midnightblue" d="M1007.42,-86C1033.47,-86 1068.29,-86 1097.23,-86"/>
<polygon fill="midnightblue" stroke="midnightblue" points="1007.19,-82.5001 997.193,-86 1007.19,-89.5001 1007.19,-82.5001"/>
</g>
<!-- Node82 -->
<g id="node34" class="node"><title>Node82</title>
<g id="a_node34"><a xlink:href="dash-tx_8cpp.html#a0ddf1224851353fc92bfbff6f499fa97" target="_top" xlink:title="main">
<polygon fill="white" stroke="black" points="1326,-76.5 1326,-95.5 1364,-95.5 1364,-76.5 1326,-76.5"/>
<text text-anchor="middle" x="1345" y="-83.5" font-family="Helvetica,sans-Serif" font-size="10.00">main</text>
</a>
</g>
</g>
<!-- Node81&#45;&gt;Node82 -->
<g id="edge33" class="edge"><title>Node81&#45;&gt;Node82</title>
<path fill="none" stroke="midnightblue" d="M1219.11,-86C1256.73,-86 1301.32,-86 1325.74,-86"/>
<polygon fill="midnightblue" stroke="midnightblue" points="1218.7,-82.5001 1208.7,-86 1218.7,-89.5001 1218.7,-82.5001"/>
</g>
<!-- Node84 -->
<g id="node36" class="node"><title>Node84</title>
<g id="a_node36"><a xlink:href="class_c_private_send_client.html#ac5739f34dc74c48a25481ed6cb61a88f" target="_top" xlink:title="CPrivateSendClient\l::ProcessMessage">
<polygon fill="white" stroke="black" points="916.5,-115 916.5,-145 1019.5,-145 1019.5,-115 916.5,-115"/>
<text text-anchor="start" x="924.5" y="-133" font-family="Helvetica,sans-Serif" font-size="10.00">CPrivateSendClient</text>
<text text-anchor="middle" x="968" y="-122" font-family="Helvetica,sans-Serif" font-size="10.00">::ProcessMessage</text>
</a>
</g>
</g>
<!-- Node83&#45;&gt;Node84 -->
<g id="edge35" class="edge"><title>Node83&#45;&gt;Node84</title>
<path fill="none" stroke="midnightblue" d="M849.211,-130C871.365,-130 895.689,-130 916.451,-130"/>
<polygon fill="midnightblue" stroke="midnightblue" points="849.206,-126.5 839.206,-130 849.206,-133.5 849.206,-126.5"/>
</g>
<!-- Node85 -->
<g id="node37" class="node"><title>Node85</title>
<g id="a_node37"><a xlink:href="net__processing_8cpp.html#a193d0ece6e2f2f7ee37352ac9720bb83" target="_top" xlink:title="ProcessMessage">
<polygon fill="white" stroke="black" points="1107,-117.5 1107,-136.5 1199,-136.5 1199,-117.5 1107,-117.5"/>
<text text-anchor="middle" x="1153" y="-124.5" font-family="Helvetica,sans-Serif" font-size="10.00">ProcessMessage</text>
</a>
</g>
</g>
<!-- Node84&#45;&gt;Node85 -->
<g id="edge36" class="edge"><title>Node84&#45;&gt;Node85</title>
<path fill="none" stroke="midnightblue" d="M1030.13,-128.998C1055.23,-128.586 1083.76,-128.119 1106.91,-127.739"/>
<polygon fill="midnightblue" stroke="midnightblue" points="1029.92,-125.501 1019.98,-129.164 1030.03,-132.5 1029.92,-125.501"/>
</g>
<!-- Node86 -->
<g id="node38" class="node"><title>Node86</title>
<g id="a_node38"><a xlink:href="net__processing_8h.html#a7fa42e7ffd6e6ba5b7537af248e30fc8" target="_top" xlink:title="Process protocol messages received from a given node. ">
<polygon fill="white" stroke="black" points="1296,-117.5 1296,-136.5 1394,-136.5 1394,-117.5 1296,-117.5"/>
<text text-anchor="middle" x="1345" y="-124.5" font-family="Helvetica,sans-Serif" font-size="10.00">ProcessMessages</text>
</a>
</g>
</g>
<!-- Node85&#45;&gt;Node86 -->
<g id="edge37" class="edge"><title>Node85&#45;&gt;Node86</title>
<path fill="none" stroke="midnightblue" d="M1209.26,-127C1236.72,-127 1269.58,-127 1295.97,-127"/>
<polygon fill="midnightblue" stroke="midnightblue" points="1209.03,-123.5 1199.03,-127 1209.03,-130.5 1209.03,-123.5"/>
</g>
<!-- Node87 -->
<g id="node39" class="node"><title>Node87</title>
<g id="a_node39"><a xlink:href="net__processing_8h.html#ab02615ff65f91d69f8d786ec900baa8a" target="_top" xlink:title="Register with a network node to receive its signals. ">
<polygon fill="white" stroke="black" points="1473.5,-117.5 1473.5,-136.5 1582.5,-136.5 1582.5,-117.5 1473.5,-117.5"/>
<text text-anchor="middle" x="1528" y="-124.5" font-family="Helvetica,sans-Serif" font-size="10.00">RegisterNodeSignals</text>
</a>
</g>
</g>
<!-- Node86&#45;&gt;Node87 -->
<g id="edge38" class="edge"><title>Node86&#45;&gt;Node87</title>
<path fill="none" stroke="midnightblue" d="M1404.31,-127C1426.48,-127 1451.6,-127 1473.32,-127"/>
<polygon fill="midnightblue" stroke="midnightblue" points="1404.03,-123.5 1394.03,-127 1404.03,-130.5 1404.03,-123.5"/>
</g>
<!-- Node88 -->
<g id="node40" class="node"><title>Node88</title>
<g id="a_node40"><a xlink:href="net__processing_8h.html#a3ef0cc6e9d9d6435ee2a5569244d6ebd" target="_top" xlink:title="Unregister a network node. ">
<polygon fill="white" stroke="black" points="1469.5,-79.5 1469.5,-98.5 1586.5,-98.5 1586.5,-79.5 1469.5,-79.5"/>
<text text-anchor="middle" x="1528" y="-86.5" font-family="Helvetica,sans-Serif" font-size="10.00">UnregisterNodeSignals</text>
</a>
</g>
</g>
<!-- Node86&#45;&gt;Node88 -->
<g id="edge40" class="edge"><title>Node86&#45;&gt;Node88</title>
<path fill="none" stroke="midnightblue" d="M1401.64,-115.319C1427.31,-109.93 1457.39,-103.614 1481.65,-98.5201"/>
<polygon fill="midnightblue" stroke="midnightblue" points="1400.74,-111.931 1391.67,-117.411 1402.18,-118.782 1400.74,-111.931"/>
</g>
<!-- Node87&#45;&gt;Node71 -->
<g id="edge39" class="edge"><title>Node87&#45;&gt;Node71</title>
<path fill="none" stroke="midnightblue" d="M1592.54,-134.317C1618.96,-137.359 1648.13,-140.718 1668.38,-143.05"/>
<polygon fill="midnightblue" stroke="midnightblue" points="1592.91,-130.836 1582.57,-133.169 1592.1,-137.79 1592.91,-130.836"/>
</g>
<!-- Node89 -->
<g id="node41" class="node"><title>Node89</title>
<g id="a_node41"><a xlink:href="init_8h.html#a5cb3db83cb0ba2e421f651a1ee1f2cfe" target="_top" xlink:title="Preparing steps before shutting down or restarting the wallet. ">
<polygon fill="white" stroke="black" points="1648,-79.5 1648,-98.5 1742,-98.5 1742,-79.5 1648,-79.5"/>
<text text-anchor="middle" x="1695" y="-86.5" font-family="Helvetica,sans-Serif" font-size="10.00">PrepareShutdown</text>
</a>
</g>
</g>
<!-- Node88&#45;&gt;Node89 -->
<g id="edge41" class="edge"><title>Node88&#45;&gt;Node89</title>
<path fill="none" stroke="midnightblue" d="M1597.17,-89C1614.2,-89 1632.06,-89 1647.75,-89"/>
<polygon fill="midnightblue" stroke="midnightblue" points="1596.71,-85.5001 1586.71,-89 1596.71,-92.5001 1596.71,-85.5001"/>
</g>
<!-- Node90 -->
<g id="node42" class="node"><title>Node90</title>
<g id="a_node42"><a xlink:href="class_bitcoin_core.html#ac2271844c89ebc4c611e7617ce6202e3" target="_top" xlink:title="BitcoinCore::restart">
<polygon fill="white" stroke="black" points="1796,-89.5 1796,-108.5 1897,-108.5 1897,-89.5 1796,-89.5"/>
<text text-anchor="middle" x="1846.5" y="-96.5" font-family="Helvetica,sans-Serif" font-size="10.00">BitcoinCore::restart</text>
</a>
</g>
</g>
<!-- Node89&#45;&gt;Node90 -->
<g id="edge42" class="edge"><title>Node89&#45;&gt;Node90</title>
<path fill="none" stroke="midnightblue" d="M1752.31,-92.7669C1766.66,-93.7263 1781.97,-94.7502 1795.94,-95.6852"/>
<polygon fill="midnightblue" stroke="midnightblue" points="1752.29,-89.2572 1742.07,-92.0819 1751.82,-96.2416 1752.29,-89.2572"/>
</g>
<!-- Node91 -->
<g id="node43" class="node"><title>Node91</title>
<g id="a_node43"><a xlink:href="init_8h.html#ac5f038c2b480cf9ef5e19e3eba8dbaf9" target="_top" xlink:title="Shutdown is split into 2 parts: Part 1: shut down everything but the main wallet instance (done in Pr...">
<polygon fill="white" stroke="black" points="1816.5,-51.5 1816.5,-70.5 1876.5,-70.5 1876.5,-51.5 1816.5,-51.5"/>
<text text-anchor="middle" x="1846.5" y="-58.5" font-family="Helvetica,sans-Serif" font-size="10.00">Shutdown</text>
</a>
</g>
</g>
<!-- Node89&#45;&gt;Node91 -->
<g id="edge43" class="edge"><title>Node89&#45;&gt;Node91</title>
<path fill="none" stroke="midnightblue" d="M1751.94,-78.5238C1773.81,-74.4265 1797.99,-69.8984 1816.29,-66.4717"/>
<polygon fill="midnightblue" stroke="midnightblue" points="1751.26,-75.0894 1742.07,-80.3706 1752.55,-81.9698 1751.26,-75.0894"/>
</g>
<!-- Node91&#45;&gt;Node72 -->
<g id="edge44" class="edge"><title>Node91&#45;&gt;Node72</title>
<path fill="none" stroke="midnightblue" d="M1886.17,-73.6455C1891.23,-75.614 1896.28,-77.748 1901,-80 1930.56,-94.1186 1962.64,-115.186 1980.33,-127.362"/>
<polygon fill="midnightblue" stroke="midnightblue" points="1887.14,-70.2709 1876.55,-70.0768 1884.71,-76.8344 1887.14,-70.2709"/>
</g>
<!-- Node92 -->
<g id="node44" class="node"><title>Node92</title>
<g id="a_node44"><a xlink:href="class_bitcoin_core.html#a94f3f4622ba698e321f3a2e0e686129f" target="_top" xlink:title="BitcoinCore::shutdown">
<polygon fill="white" stroke="black" points="1937,-51.5 1937,-70.5 2053,-70.5 2053,-51.5 1937,-51.5"/>
<text text-anchor="middle" x="1995" y="-58.5" font-family="Helvetica,sans-Serif" font-size="10.00">BitcoinCore::shutdown</text>
</a>
</g>
</g>
<!-- Node91&#45;&gt;Node92 -->
<g id="edge45" class="edge"><title>Node91&#45;&gt;Node92</title>
<path fill="none" stroke="midnightblue" d="M1886.97,-61C1902.31,-61 1920.18,-61 1936.88,-61"/>
<polygon fill="midnightblue" stroke="midnightblue" points="1886.79,-57.5001 1876.79,-61 1886.79,-64.5001 1886.79,-57.5001"/>
</g>
</g>
</svg>
        <g id="navigator" transform="translate(0 0)" fill="#404254">
                <rect fill="#f2f5e9" fill-opacity="0.5" stroke="#606060" stroke-width=".5" x="0" y="0" width="60" height="60"/>
                <use id="zoomplus" xlink:href="#zoomPlus" x="17" y="9" onmousedown="handleZoom(evt,'in')"/>
                <use id="zoomminus" xlink:href="#zoomMin" x="42" y="9" onmousedown="handleZoom(evt,'out')"/>
                <use id="reset" xlink:href="#resetDef" x="30" y="36" onmousedown="handleReset()"/>
                <g id="arrowUp" xlink:href="#dirArrow" transform="translate(30 24)" onmousedown="handlePan(0,-1)">
                  <use xlink:href="#rim" fill="#404040">
                        <set attributeName="fill" to="#808080" begin="arrowUp.mouseover" end="arrowUp.mouseout"/>
                  </use>
                  <path fill="none" stroke="white" stroke-width="1.5" d="M0,-3.0v7 M-2.5,-0.5L0,-3.0L2.5,-0.5"/>
                </g>
                <g id="arrowRight" xlink:href="#dirArrow" transform="rotate(90) translate(36 -43)" onmousedown="handlePan(1,0)">
                  <use xlink:href="#rim" fill="#404040">
                        <set attributeName="fill" to="#808080" begin="arrowRight.mouseover" end="arrowRight.mouseout"/>
                  </use>
                  <path fill="none" stroke="white" stroke-width="1.5" d="M0,-3.0v7 M-2.5,-0.5L0,-3.0L2.5,-0.5"/>
                </g>
                <g id="arrowDown" xlink:href="#dirArrow" transform="rotate(180) translate(-30 -48)" onmousedown="handlePan(0,1)">
                  <use xlink:href="#rim" fill="#404040">
                        <set attributeName="fill" to="#808080" begin="arrowDown.mouseover" end="arrowDown.mouseout"/>
                  </use>
                  <path fill="none" stroke="white" stroke-width="1.5" d="M0,-3.0v7 M-2.5,-0.5L0,-3.0L2.5,-0.5"/>
                </g>
                <g id="arrowLeft" xlink:href="#dirArrow" transform="rotate(270) translate(-36 17)" onmousedown="handlePan(-1,0)">
                  <use xlink:href="#rim" fill="#404040">
                        <set attributeName="fill" to="#808080" begin="arrowLeft.mouseover" end="arrowLeft.mouseout"/>
                  </use>
                  <path fill="none" stroke="white" stroke-width="1.5" d="M0,-3.0v7 M-2.5,-0.5L0,-3.0L2.5,-0.5"/>
                </g>
        </g>
        <svg viewBox="0 0 15 15" width="100%" height="30px" preserveAspectRatio="xMaxYMin meet">
         <g id="arrow_out" transform="scale(0.3 0.3)">
          <a xlink:href="class_base_signature_creator_a9c915179e865145f13a561a618126e97_icgraph_org.svg" target="_base">
           <rect id="button" ry="5" rx="5" y="6" x="6" height="38" width="38"
                fill="#f2f5e9" fill-opacity="0.5" stroke="#606060" stroke-width="1.0"/>
           <path id="arrow"
             d="M 11.500037,31.436501 C 11.940474,20.09759 22.043105,11.32322 32.158766,21.979434 L 37.068811,17.246167 C 37.068811,17.246167 37.088388,32 37.088388,32 L 22.160133,31.978069 C 22.160133,31.978069 26.997745,27.140456 26.997745,27.140456 C 18.528582,18.264221 13.291696,25.230495 11.500037,31.436501 z"
             style="fill:#404040;"/>
          </a>
         </g>
        </svg>
</svg>
