<?xml version="1.0" encoding="UTF-8" standalone="no"?>
<!DOCTYPE svg PUBLIC "-//W3C//DTD SVG 1.1//EN"
 "http://www.w3.org/Graphics/SVG/1.1/DTD/svg11.dtd">
<!-- Generated by graphviz version 2.38.0 (20140413.2041)
 -->
<!-- Title: CBlockTreeDB::ReadSpentIndex Pages: 1 -->
<!--zoomable 161 -->
<svg id="main" version="1.1" xmlns="http://www.w3.org/2000/svg" xmlns:xlink="http://www.w3.org/1999/xlink" xml:space="preserve" onload="init(evt)">
<style type="text/css"><![CDATA[
.edge:hover path { stroke: red; }
.edge:hover polygon { stroke: red; fill: red; }
]]></style>
<script type="text/javascript"><![CDATA[
var edges = document.getElementsByTagName('g');
if (edges && edges.length) {
  for (var i=0;i<edges.length;i++) {
    if (edges[i].id.substr(0,4)=='edge') {
      edges[i].setAttribute('class','edge');
    }
  }
}
]]></script>
        <defs>
                <circle id="rim" cx="0" cy="0" r="7"/>
                <circle id="rim2" cx="0" cy="0" r="3.5"/>
                <g id="zoomPlus">
                        <use xlink:href="#rim" fill="#404040">
                                <set attributeName="fill" to="#808080" begin="zoomplus.mouseover" end="zoomplus.mouseout"/>
                        </use>
                        <path d="M-4,0h8M0,-4v8" fill="none" stroke="white" stroke-width="1.5" pointer-events="none"/>
                </g>
                <g id="zoomMin">
                        <use xlink:href="#rim" fill="#404040">
                                <set attributeName="fill" to="#808080" begin="zoomminus.mouseover" end="zoomminus.mouseout"/>
                        </use>
                        <path d="M-4,0h8" fill="none" stroke="white" stroke-width="1.5" pointer-events="none"/>
                </g>
                <g id="dirArrow">
                        <path fill="none" stroke="white" stroke-width="1.5" d="M0,-3.0v7 M-2.5,-0.5L0,-3.0L2.5,-0.5"/>
                </g>
               <g id="resetDef">
                       <use xlink:href="#rim2" fill="#404040">
                               <set attributeName="fill" to="#808080" begin="reset.mouseover" end="reset.mouseout"/>
                       </use>
               </g>
        </defs>

<script type="text/javascript">
var viewWidth = 789;
var viewHeight = 161;
var sectionId = 'dynsection-19';
</script>
<script xlink:href="svgpan.js"/>
<svg id="graph" class="graph">
<g id="viewport">
<title>CBlockTreeDB::ReadSpentIndex</title>
<polygon fill="white" stroke="none" points="-4,4 -4,-157 785,-157 785,4 -4,4"/>
<!-- Node273 -->
<g id="node1" class="node"><title>Node273</title>
<polygon fill="#bfbfbf" stroke="black" points="0,-76.5 0,-95.5 161,-95.5 161,-76.5 0,-76.5"/>
<text text-anchor="middle" x="80.5" y="-83.5" font-family="Helvetica,sans-Serif" font-size="10.00">CBlockTreeDB::ReadSpentIndex</text>
</g>
<!-- Node274 -->
<g id="node2" class="node"><title>Node274</title>
<g id="a_node2"><a xlink:href="validation_8h.html#ae88ea23b2e483753f7e055283007dd77" target="_top" xlink:title="GetSpentIndex">
<polygon fill="white" stroke="black" points="197,-76.5 197,-95.5 279,-95.5 279,-76.5 197,-76.5"/>
<text text-anchor="middle" x="238" y="-83.5" font-family="Helvetica,sans-Serif" font-size="10.00">GetSpentIndex</text>
</a>
</g>
</g>
<!-- Node273&#45;&gt;Node274 -->
<g id="edge1" class="edge"><title>Node273&#45;&gt;Node274</title>
<path fill="none" stroke="midnightblue" d="M171.208,-86C180.127,-86 188.831,-86 196.835,-86"/>
<polygon fill="midnightblue" stroke="midnightblue" points="171.072,-82.5001 161.072,-86 171.072,-89.5001 171.072,-82.5001"/>
</g>
<!-- Node275 -->
<g id="node3" class="node"><title>Node275</title>
<g id="a_node3"><a xlink:href="server_8h.html#a7a839b5e8bc25ff219c614c170d8053b" target="_top" xlink:title="getspentinfo">
<polygon fill="white" stroke="black" points="315,-95.5 315,-114.5 385,-114.5 385,-95.5 315,-95.5"/>
<text text-anchor="middle" x="350" y="-102.5" font-family="Helvetica,sans-Serif" font-size="10.00">getspentinfo</text>
</a>
</g>
</g>
<!-- Node274&#45;&gt;Node275 -->
<g id="edge2" class="edge"><title>Node274&#45;&gt;Node275</title>
<path fill="none" stroke="midnightblue" d="M289.158,-94.6636C297.9,-96.1737 306.807,-97.7122 314.986,-99.1249"/>
<polygon fill="midnightblue" stroke="midnightblue" points="289.474,-91.1664 279.024,-92.9132 288.282,-98.0643 289.474,-91.1664"/>
</g>
<!-- Node276 -->
<g id="node4" class="node"><title>Node276</title>
<g id="a_node4"><a xlink:href="rawtransaction_8cpp.html#a719639f5d779706aae5c283784b3fd66" target="_top" xlink:title="TxToJSON">
<polygon fill="white" stroke="black" points="317,-57.5 317,-76.5 383,-76.5 383,-57.5 317,-57.5"/>
<text text-anchor="middle" x="350" y="-64.5" font-family="Helvetica,sans-Serif" font-size="10.00">TxToJSON</text>
</a>
</g>
</g>
<!-- Node274&#45;&gt;Node276 -->
<g id="edge3" class="edge"><title>Node274&#45;&gt;Node276</title>
<path fill="none" stroke="midnightblue" d="M289.092,-77.3477C298.489,-75.7245 308.079,-74.0682 316.752,-72.57"/>
<polygon fill="midnightblue" stroke="midnightblue" points="288.282,-73.9357 279.024,-79.0868 289.474,-80.8336 288.282,-73.9357"/>
</g>
<!-- Node277 -->
<g id="node5" class="node"><title>Node277</title>
<g id="a_node5"><a xlink:href="blockchain_8cpp.html#a6b596f07acd85fe676c798170fd8ddbe" target="_top" xlink:title="blockToJSON">
<polygon fill="white" stroke="black" points="438,-114.5 438,-133.5 516,-133.5 516,-114.5 438,-114.5"/>
<text text-anchor="middle" x="477" y="-121.5" font-family="Helvetica,sans-Serif" font-size="10.00">blockToJSON</text>
</a>
</g>
</g>
<!-- Node276&#45;&gt;Node277 -->
<g id="edge4" class="edge"><title>Node276&#45;&gt;Node277</title>
<path fill="none" stroke="midnightblue" d="M377.208,-81.4975C395.146,-91.3733 416.474,-103.006 421,-105 428.766,-108.421 437.357,-111.643 445.395,-114.428"/>
<polygon fill="midnightblue" stroke="midnightblue" points="378.691,-78.3182 368.244,-76.5536 375.31,-84.4478 378.691,-78.3182"/>
</g>
<!-- Node282 -->
<g id="node10" class="node"><title>Node282</title>
<g id="a_node10"><a xlink:href="server_8h.html#abd3d6aa800b863a2e503ef322d680d9b" target="_top" xlink:title="decoderawtransaction">
<polygon fill="white" stroke="black" points="421,-76.5 421,-95.5 533,-95.5 533,-76.5 421,-76.5"/>
<text text-anchor="middle" x="477" y="-83.5" font-family="Helvetica,sans-Serif" font-size="10.00">decoderawtransaction</text>
</a>
</g>
</g>
<!-- Node276&#45;&gt;Node282 -->
<g id="edge9" class="edge"><title>Node276&#45;&gt;Node282</title>
<path fill="none" stroke="midnightblue" d="M393.209,-73.4157C402.02,-74.7551 411.436,-76.1862 420.642,-77.5855"/>
<polygon fill="midnightblue" stroke="midnightblue" points="393.603,-69.9355 383.191,-71.893 392.551,-76.8561 393.603,-69.9355"/>
</g>
<!-- Node283 -->
<g id="node11" class="node"><title>Node283</title>
<g id="a_node11"><a xlink:href="server_8h.html#aab9a57fd8f857122f587feee00a7757c" target="_top" xlink:title="getrawtransaction">
<polygon fill="white" stroke="black" points="430,-38.5 430,-57.5 524,-57.5 524,-38.5 430,-38.5"/>
<text text-anchor="middle" x="477" y="-45.5" font-family="Helvetica,sans-Serif" font-size="10.00">getrawtransaction</text>
</a>
</g>
</g>
<!-- Node276&#45;&gt;Node283 -->
<g id="edge10" class="edge"><title>Node276&#45;&gt;Node283</title>
<path fill="none" stroke="midnightblue" d="M393.201,-60.5854C404.964,-58.7975 417.802,-56.8461 429.782,-55.0251"/>
<polygon fill="midnightblue" stroke="midnightblue" points="392.551,-57.1439 383.191,-62.107 393.603,-64.0645 392.551,-57.1439"/>
</g>
<!-- Node284 -->
<g id="node12" class="node"><title>Node284</title>
<g id="a_node12"><a xlink:href="rest_8cpp.html#a6a40ed64db0199226195920c9e92ac33" target="_top" xlink:title="rest_tx">
<polygon fill="white" stroke="black" points="453.5,-0.5 453.5,-19.5 500.5,-19.5 500.5,-0.5 453.5,-0.5"/>
<text text-anchor="middle" x="477" y="-7.5" font-family="Helvetica,sans-Serif" font-size="10.00">rest_tx</text>
</a>
</g>
</g>
<!-- Node276&#45;&gt;Node284 -->
<g id="edge11" class="edge"><title>Node276&#45;&gt;Node284</title>
<path fill="none" stroke="midnightblue" d="M375.668,-52.3133C388.855,-44.7965 405.522,-35.819 421,-29 431.447,-24.3975 443.387,-20.1562 453.467,-16.854"/>
<polygon fill="midnightblue" stroke="midnightblue" points="373.649,-49.4378 366.748,-57.4768 377.156,-55.4961 373.649,-49.4378"/>
</g>
<!-- Node278 -->
<g id="node6" class="node"><title>Node278</title>
<g id="a_node6"><a xlink:href="server_8h.html#afdd7f5b03a6ab23f3627721b074ef606" target="_top" xlink:title="getblock">
<polygon fill="white" stroke="black" points="573.5,-133.5 573.5,-152.5 626.5,-152.5 626.5,-133.5 573.5,-133.5"/>
<text text-anchor="middle" x="600" y="-140.5" font-family="Helvetica,sans-Serif" font-size="10.00">getblock</text>
</a>
</g>
</g>
<!-- Node277&#45;&gt;Node278 -->
<g id="edge5" class="edge"><title>Node277&#45;&gt;Node278</title>
<path fill="none" stroke="midnightblue" d="M526.552,-131.624C542.503,-134.129 559.609,-136.815 573.191,-138.947"/>
<polygon fill="midnightblue" stroke="midnightblue" points="526.707,-128.105 516.285,-130.012 525.621,-135.021 526.707,-128.105"/>
</g>
<!-- Node279 -->
<g id="node7" class="node"><title>Node279</title>
<g id="a_node7"><a xlink:href="rest_8cpp.html#a99e4aae76e1b90f996cf7c24b5281464" target="_top" xlink:title="rest_block">
<polygon fill="white" stroke="black" points="569,-95.5 569,-114.5 631,-114.5 631,-95.5 569,-95.5"/>
<text text-anchor="middle" x="600" y="-102.5" font-family="Helvetica,sans-Serif" font-size="10.00">rest_block</text>
</a>
</g>
</g>
<!-- Node277&#45;&gt;Node279 -->
<g id="edge6" class="edge"><title>Node277&#45;&gt;Node279</title>
<path fill="none" stroke="midnightblue" d="M526.443,-116.393C540.685,-114.157 555.855,-111.775 568.623,-109.77"/>
<polygon fill="midnightblue" stroke="midnightblue" points="525.621,-112.979 516.285,-117.988 526.707,-119.895 525.621,-112.979"/>
</g>
<!-- Node280 -->
<g id="node8" class="node"><title>Node280</title>
<g id="a_node8"><a xlink:href="rest_8cpp.html#af08858ee3c5d6236db44a62c423e0c0e" target="_top" xlink:title="rest_block_extended">
<polygon fill="white" stroke="black" points="670.5,-114.5 670.5,-133.5 777.5,-133.5 777.5,-114.5 670.5,-114.5"/>
<text text-anchor="middle" x="724" y="-121.5" font-family="Helvetica,sans-Serif" font-size="10.00">rest_block_extended</text>
</a>
</g>
</g>
<!-- Node279&#45;&gt;Node280 -->
<g id="edge7" class="edge"><title>Node279&#45;&gt;Node280</title>
<path fill="none" stroke="midnightblue" d="M641.3,-111.276C650.607,-112.726 660.642,-114.289 670.387,-115.806"/>
<polygon fill="midnightblue" stroke="midnightblue" points="641.577,-107.777 631.157,-109.697 640.5,-114.694 641.577,-107.777"/>
</g>
<!-- Node281 -->
<g id="node9" class="node"><title>Node281</title>
<g id="a_node9"><a xlink:href="rest_8cpp.html#acf422a3f71f1fd9963d6c65517bbb654" target="_top" xlink:title="rest_block_notxdetails">
<polygon fill="white" stroke="black" points="667,-76.5 667,-95.5 781,-95.5 781,-76.5 667,-76.5"/>
<text text-anchor="middle" x="724" y="-83.5" font-family="Helvetica,sans-Serif" font-size="10.00">rest_block_notxdetails</text>
</a>
</g>
</g>
<!-- Node279&#45;&gt;Node281 -->
<g id="edge8" class="edge"><title>Node279&#45;&gt;Node281</title>
<path fill="none" stroke="midnightblue" d="M641.115,-98.7527C649.254,-97.485 657.959,-96.1294 666.542,-94.7926"/>
<polygon fill="midnightblue" stroke="midnightblue" points="640.5,-95.3061 631.157,-100.303 641.577,-102.223 640.5,-95.3061"/>
</g>
</g>
</svg>
        <g id="navigator" transform="translate(0 0)" fill="#404254">
                <rect fill="#f2f5e9" fill-opacity="0.5" stroke="#606060" stroke-width=".5" x="0" y="0" width="60" height="60"/>
                <use id="zoomplus" xlink:href="#zoomPlus" x="17" y="9" onmousedown="handleZoom(evt,'in')"/>
                <use id="zoomminus" xlink:href="#zoomMin" x="42" y="9" onmousedown="handleZoom(evt,'out')"/>
                <use id="reset" xlink:href="#resetDef" x="30" y="36" onmousedown="handleReset()"/>
                <g id="arrowUp" xlink:href="#dirArrow" transform="translate(30 24)" onmousedown="handlePan(0,-1)">
                  <use xlink:href="#rim" fill="#404040">
                        <set attributeName="fill" to="#808080" begin="arrowUp.mouseover" end="arrowUp.mouseout"/>
                  </use>
                  <path fill="none" stroke="white" stroke-width="1.5" d="M0,-3.0v7 M-2.5,-0.5L0,-3.0L2.5,-0.5"/>
                </g>
                <g id="arrowRight" xlink:href="#dirArrow" transform="rotate(90) translate(36 -43)" onmousedown="handlePan(1,0)">
                  <use xlink:href="#rim" fill="#404040">
                        <set attributeName="fill" to="#808080" begin="arrowRight.mouseover" end="arrowRight.mouseout"/>
                  </use>
                  <path fill="none" stroke="white" stroke-width="1.5" d="M0,-3.0v7 M-2.5,-0.5L0,-3.0L2.5,-0.5"/>
                </g>
                <g id="arrowDown" xlink:href="#dirArrow" transform="rotate(180) translate(-30 -48)" onmousedown="handlePan(0,1)">
                  <use xlink:href="#rim" fill="#404040">
                        <set attributeName="fill" to="#808080" begin="arrowDown.mouseover" end="arrowDown.mouseout"/>
                  </use>
                  <path fill="none" stroke="white" stroke-width="1.5" d="M0,-3.0v7 M-2.5,-0.5L0,-3.0L2.5,-0.5"/>
                </g>
                <g id="arrowLeft" xlink:href="#dirArrow" transform="rotate(270) translate(-36 17)" onmousedown="handlePan(-1,0)">
                  <use xlink:href="#rim" fill="#404040">
                        <set attributeName="fill" to="#808080" begin="arrowLeft.mouseover" end="arrowLeft.mouseout"/>
                  </use>
                  <path fill="none" stroke="white" stroke-width="1.5" d="M0,-3.0v7 M-2.5,-0.5L0,-3.0L2.5,-0.5"/>
                </g>
        </g>
        <svg viewBox="0 0 15 15" width="100%" height="30px" preserveAspectRatio="xMaxYMin meet">
         <g id="arrow_out" transform="scale(0.3 0.3)">
          <a xlink:href="class_c_block_tree_d_b_acca1254c911a40dafe2c977058cdf852_icgraph_org.svg" target="_base">
           <rect id="button" ry="5" rx="5" y="6" x="6" height="38" width="38"
                fill="#f2f5e9" fill-opacity="0.5" stroke="#606060" stroke-width="1.0"/>
           <path id="arrow"
             d="M 11.500037,31.436501 C 11.940474,20.09759 22.043105,11.32322 32.158766,21.979434 L 37.068811,17.246167 C 37.068811,17.246167 37.088388,32 37.088388,32 L 22.160133,31.978069 C 22.160133,31.978069 26.997745,27.140456 26.997745,27.140456 C 18.528582,18.264221 13.291696,25.230495 11.500037,31.436501 z"
             style="fill:#404040;"/>
          </a>
         </g>
        </svg>
</svg>
