<?xml version="1.0" encoding="UTF-8" standalone="no"?>
<!DOCTYPE svg PUBLIC "-//W3C//DTD SVG 1.1//EN"
 "http://www.w3.org/Graphics/SVG/1.1/DTD/svg11.dtd">
<!-- Generated by graphviz version 2.38.0 (20140413.2041)
 -->
<!-- Title: prevector::clear Pages: 1 -->
<svg width="339pt" height="104pt"
 viewBox="0.00 0.00 339.00 104.00" xmlns="http://www.w3.org/2000/svg" xmlns:xlink="http://www.w3.org/1999/xlink">
<g id="graph0" class="graph" transform="scale(1 1) rotate(0) translate(4 100)">
<title>prevector::clear</title>
<polygon fill="white" stroke="none" points="-4,4 -4,-100 335,-100 335,4 -4,4"/>
<!-- Node669 -->
<g id="node1" class="node"><title>Node669</title>
<polygon fill="#bfbfbf" stroke="black" points="0,-38.5 0,-57.5 84,-57.5 84,-38.5 0,-38.5"/>
<text text-anchor="middle" x="42" y="-45.5" font-family="Helvetica,sans-Serif" font-size="10.00">prevector::clear</text>
</g>
<!-- Node670 -->
<g id="node2" class="node"><title>Node670</title>
<g id="a_node2"><a xlink:href="classprevector.html#aecbf4de43de23c1b01a2e39bf974f14e" target="_top" xlink:title="prevector::assign">
<polygon fill="white" stroke="black" points="129,-76.5 129,-95.5 221,-95.5 221,-76.5 129,-76.5"/>
<text text-anchor="middle" x="175" y="-83.5" font-family="Helvetica,sans-Serif" font-size="10.00">prevector::assign</text>
</a>
</g>
</g>
<!-- Node669&#45;&gt;Node670 -->
<g id="edge1" class="edge"><title>Node669&#45;&gt;Node670</title>
<path fill="none" stroke="midnightblue" d="M85.7148,-60.3906C103.655,-65.5945 124.2,-71.5541 140.954,-76.4141"/>
<polygon fill="midnightblue" stroke="midnightblue" points="86.636,-57.0136 76.0568,-57.589 84.6858,-63.7364 86.636,-57.0136"/>
</g>
<!-- Node671 -->
<g id="node3" class="node"><title>Node671</title>
<g id="a_node3"><a xlink:href="serialize_8h.html#a4f2ad9aaa1793ca2880eb29110a1be4b" target="_top" xlink:title="Unserialize_impl">
<polygon fill="white" stroke="black" points="130.5,-38.5 130.5,-57.5 219.5,-57.5 219.5,-38.5 130.5,-38.5"/>
<text text-anchor="middle" x="175" y="-45.5" font-family="Helvetica,sans-Serif" font-size="10.00">Unserialize_impl</text>
</a>
</g>
</g>
<!-- Node669&#45;&gt;Node671 -->
<g id="edge2" class="edge"><title>Node669&#45;&gt;Node671</title>
<path fill="none" stroke="midnightblue" d="M94.3388,-48C106.241,-48 118.799,-48 130.336,-48"/>
<polygon fill="midnightblue" stroke="midnightblue" points="94.0898,-44.5001 84.0898,-48 94.0898,-51.5001 94.0898,-44.5001"/>
</g>
<!-- Node673 -->
<g id="node5" class="node"><title>Node673</title>
<g id="a_node5"><a xlink:href="classprevector.html#a507bc6d153e291d93c885162e3a3a8f7" target="_top" xlink:title="prevector::~prevector">
<polygon fill="white" stroke="black" points="120,-0.5 120,-19.5 230,-19.5 230,-0.5 120,-0.5"/>
<text text-anchor="middle" x="175" y="-7.5" font-family="Helvetica,sans-Serif" font-size="10.00">prevector::~prevector</text>
</a>
</g>
</g>
<!-- Node669&#45;&gt;Node673 -->
<g id="edge4" class="edge"><title>Node669&#45;&gt;Node673</title>
<path fill="none" stroke="midnightblue" d="M85.7148,-35.6094C103.655,-30.4055 124.2,-24.4459 140.954,-19.5859"/>
<polygon fill="midnightblue" stroke="midnightblue" points="84.6858,-32.2636 76.0568,-38.411 86.636,-38.9864 84.6858,-32.2636"/>
</g>
<!-- Node672 -->
<g id="node4" class="node"><title>Node672</title>
<g id="a_node4"><a xlink:href="serialize_8h.html#a8d18ce7bf2e4c40f627d2a291e8a087b" target="_top" xlink:title="Unserialize">
<polygon fill="white" stroke="black" points="266,-38.5 266,-57.5 331,-57.5 331,-38.5 266,-38.5"/>
<text text-anchor="middle" x="298.5" y="-45.5" font-family="Helvetica,sans-Serif" font-size="10.00">Unserialize</text>
</a>
</g>
</g>
<!-- Node671&#45;&gt;Node672 -->
<g id="edge3" class="edge"><title>Node671&#45;&gt;Node672</title>
<path fill="none" stroke="midnightblue" d="M229.712,-48C242.008,-48 254.693,-48 265.716,-48"/>
<polygon fill="midnightblue" stroke="midnightblue" points="229.521,-44.5001 219.521,-48 229.521,-51.5001 229.521,-44.5001"/>
</g>
</g>
</svg>
