<?xml version="1.0" encoding="UTF-8" standalone="no"?>
<!DOCTYPE svg PUBLIC "-//W3C//DTD SVG 1.1//EN"
 "http://www.w3.org/Graphics/SVG/1.1/DTD/svg11.dtd">
<!-- Generated by graphviz version 2.38.0 (20140413.2041)
 -->
<!-- Title: CBlockTreeDB::WriteTimestampIndex Pages: 1 -->
<svg width="623pt" height="280pt"
 viewBox="0.00 0.00 623.00 279.50" xmlns="http://www.w3.org/2000/svg" xmlns:xlink="http://www.w3.org/1999/xlink">
<g id="graph0" class="graph" transform="scale(1 1) rotate(0) translate(4 275.5)">
<title>CBlockTreeDB::WriteTimestampIndex</title>
<polygon fill="white" stroke="none" points="-4,4 -4,-275.5 619,-275.5 619,4 -4,4"/>
<!-- Node699 -->
<g id="node1" class="node"><title>Node699</title>
<polygon fill="#bfbfbf" stroke="black" points="0,-89.5 0,-119.5 161,-119.5 161,-89.5 0,-89.5"/>
<text text-anchor="start" x="8" y="-107.5" font-family="Helvetica,sans-Serif" font-size="10.00">CBlockTreeDB::WriteTimestamp</text>
<text text-anchor="middle" x="80.5" y="-96.5" font-family="Helvetica,sans-Serif" font-size="10.00">Index</text>
</g>
<!-- Node700 -->
<g id="node2" class="node"><title>Node700</title>
<g id="a_node2"><a xlink:href="class_c_d_b_batch.html#a91b5d889a8d7e56c4f0bbf446e246111" target="_top" xlink:title="CDBBatch::Write">
<polygon fill="white" stroke="black" points="215.5,-138 215.5,-157 308.5,-157 308.5,-138 215.5,-138"/>
<text text-anchor="middle" x="262" y="-145" font-family="Helvetica,sans-Serif" font-size="10.00">CDBBatch::Write</text>
</a>
</g>
</g>
<!-- Node699&#45;&gt;Node700 -->
<g id="edge1" class="edge"><title>Node699&#45;&gt;Node700</title>
<path fill="none" stroke="midnightblue" d="M144.28,-119.539C166.261,-124.805 190.622,-130.641 211.377,-135.613"/>
<polygon fill="midnightblue" stroke="midnightblue" points="210.71,-139.052 221.25,-137.978 212.341,-132.244 210.71,-139.052"/>
</g>
<!-- Node707 -->
<g id="node9" class="node"><title>Node707</title>
<g id="a_node9"><a xlink:href="class_c_d_b_wrapper.html#a3624c2e99b0d4e9a4edc679b304fa180" target="_top" xlink:title="CDBWrapper::WriteBatch">
<polygon fill="white" stroke="black" points="197,-53 197,-72 327,-72 327,-53 197,-53"/>
<text text-anchor="middle" x="262" y="-60" font-family="Helvetica,sans-Serif" font-size="10.00">CDBWrapper::WriteBatch</text>
</a>
</g>
</g>
<!-- Node699&#45;&gt;Node707 -->
<g id="edge9" class="edge"><title>Node699&#45;&gt;Node707</title>
<path fill="none" stroke="midnightblue" d="M145.797,-89.4557C167.053,-84.4821 190.386,-79.0226 210.461,-74.3254"/>
<polygon fill="midnightblue" stroke="midnightblue" points="211.391,-77.7022 220.331,-72.0159 209.796,-70.8863 211.391,-77.7022"/>
</g>
<!-- Node701 -->
<g id="node3" class="node"><title>Node701</title>
<g id="a_node3"><a xlink:href="class_c_data_stream.html#a5542e71bd7af2ab7cd7be0f381d39cb5" target="_top" xlink:title="CDataStream::reserve">
<polygon fill="white" stroke="black" points="363,-252 363,-271 478,-271 478,-252 363,-252"/>
<text text-anchor="middle" x="420.5" y="-259" font-family="Helvetica,sans-Serif" font-size="10.00">CDataStream::reserve</text>
</a>
</g>
</g>
<!-- Node700&#45;&gt;Node701 -->
<g id="edge2" class="edge"><title>Node700&#45;&gt;Node701</title>
<path fill="none" stroke="midnightblue" d="M270.514,-157.008C285.915,-175.899 322.999,-218.409 363,-242.5 366.394,-244.544 370.036,-246.401 373.776,-248.083"/>
<polygon fill="midnightblue" stroke="midnightblue" points="372.608,-251.386 383.191,-251.904 375.241,-244.9 372.608,-251.386"/>
</g>
<!-- Node702 -->
<g id="node4" class="node"><title>Node702</title>
<g id="a_node4"><a xlink:href="class_c_data_stream.html#a1c0a87d9ea725d5d83562dfda15fbeeb" target="_top" xlink:title="CDataStream::data">
<polygon fill="white" stroke="black" points="370,-214 370,-233 471,-233 471,-214 370,-214"/>
<text text-anchor="middle" x="420.5" y="-221" font-family="Helvetica,sans-Serif" font-size="10.00">CDataStream::data</text>
</a>
</g>
</g>
<!-- Node700&#45;&gt;Node702 -->
<g id="edge3" class="edge"><title>Node700&#45;&gt;Node702</title>
<path fill="none" stroke="midnightblue" d="M280.494,-157.125C300.295,-167.895 333.619,-185.647 363,-199.5 370.607,-203.087 378.893,-206.743 386.716,-210.085"/>
<polygon fill="midnightblue" stroke="midnightblue" points="385.379,-213.319 395.953,-213.979 388.099,-206.869 385.379,-213.319"/>
</g>
<!-- Node703 -->
<g id="node5" class="node"><title>Node703</title>
<g id="a_node5"><a xlink:href="class_c_data_stream.html#add30f866dd928fc28c47fe79a0a6723a" target="_top" xlink:title="CDataStream::size">
<polygon fill="white" stroke="black" points="514,-157 514,-176 615,-176 615,-157 514,-157"/>
<text text-anchor="middle" x="564.5" y="-164" font-family="Helvetica,sans-Serif" font-size="10.00">CDataStream::size</text>
</a>
</g>
</g>
<!-- Node700&#45;&gt;Node703 -->
<g id="edge4" class="edge"><title>Node700&#45;&gt;Node703</title>
<path fill="none" stroke="midnightblue" d="M303.622,-157.011C321.691,-160.776 343.295,-164.645 363,-166.5 410.183,-170.943 463.89,-170.66 503.835,-169.421"/>
<polygon fill="midnightblue" stroke="midnightblue" points="504.065,-172.916 513.941,-169.079 503.828,-165.92 504.065,-172.916"/>
</g>
<!-- Node704 -->
<g id="node6" class="node"><title>Node704</title>
<g id="a_node6"><a xlink:href="class_c_data_stream.html#a5b631dc9cc9d5ba6a5b6ee910bd7d8a8" target="_top" xlink:title="XOR the contents of this stream with a certain key. ">
<polygon fill="white" stroke="black" points="371.5,-138 371.5,-157 469.5,-157 469.5,-138 371.5,-138"/>
<text text-anchor="middle" x="420.5" y="-145" font-family="Helvetica,sans-Serif" font-size="10.00">CDataStream::Xor</text>
</a>
</g>
</g>
<!-- Node700&#45;&gt;Node704 -->
<g id="edge5" class="edge"><title>Node700&#45;&gt;Node704</title>
<path fill="none" stroke="midnightblue" d="M308.687,-147.5C325.128,-147.5 343.904,-147.5 361.27,-147.5"/>
<polygon fill="midnightblue" stroke="midnightblue" points="361.303,-151 371.303,-147.5 361.303,-144 361.303,-151"/>
</g>
<!-- Node705 -->
<g id="node7" class="node"><title>Node705</title>
<g id="a_node7"><a xlink:href="namespacedbwrapper__private.html#ab98d46ebc2a1c16becdf271f913b33a3" target="_top" xlink:title="Work around circular dependency, as well as for testing in dbwrapper_tests. ">
<polygon fill="white" stroke="black" points="369.5,-88.5 369.5,-118.5 471.5,-118.5 471.5,-88.5 369.5,-88.5"/>
<text text-anchor="start" x="377.5" y="-106.5" font-family="Helvetica,sans-Serif" font-size="10.00">dbwrapper_private::</text>
<text text-anchor="middle" x="420.5" y="-95.5" font-family="Helvetica,sans-Serif" font-size="10.00">GetObfuscateKey</text>
</a>
</g>
</g>
<!-- Node700&#45;&gt;Node705 -->
<g id="edge7" class="edge"><title>Node700&#45;&gt;Node705</title>
<path fill="none" stroke="midnightblue" d="M296.958,-137.953C315.196,-132.825 338.22,-126.352 359.374,-120.404"/>
<polygon fill="midnightblue" stroke="midnightblue" points="360.578,-123.702 369.257,-117.626 358.683,-116.963 360.578,-123.702"/>
</g>
<!-- Node706 -->
<g id="node8" class="node"><title>Node706</title>
<g id="a_node8"><a xlink:href="class_c_data_stream.html#ade6ed9a3a481e333900e6496707b9692" target="_top" xlink:title="CDataStream::clear">
<polygon fill="white" stroke="black" points="368.5,-50 368.5,-69 472.5,-69 472.5,-50 368.5,-50"/>
<text text-anchor="middle" x="420.5" y="-57" font-family="Helvetica,sans-Serif" font-size="10.00">CDataStream::clear</text>
</a>
</g>
</g>
<!-- Node700&#45;&gt;Node706 -->
<g id="edge8" class="edge"><title>Node700&#45;&gt;Node706</title>
<path fill="none" stroke="midnightblue" d="M274.632,-137.845C292.612,-123.311 328.673,-95.6868 363,-78.5 367.286,-76.3543 371.87,-74.3631 376.504,-72.5407"/>
<polygon fill="midnightblue" stroke="midnightblue" points="377.833,-75.7812 386.008,-69.0418 375.414,-69.2123 377.833,-75.7812"/>
</g>
<!-- Node704&#45;&gt;Node703 -->
<g id="edge6" class="edge"><title>Node704&#45;&gt;Node703</title>
<path fill="none" stroke="midnightblue" d="M469.575,-153.933C480.417,-155.383 492.058,-156.941 503.326,-158.449"/>
<polygon fill="midnightblue" stroke="midnightblue" points="503.16,-161.957 513.536,-159.815 504.089,-155.019 503.16,-161.957"/>
</g>
<!-- Node708 -->
<g id="node10" class="node"><title>Node708</title>
<g id="a_node10"><a xlink:href="namespacedbwrapper__private.html#a69015f423e1a3c2bcf387e4a208c3c36" target="_top" xlink:title="Handle database error by throwing dbwrapper_error exception. ">
<polygon fill="white" stroke="black" points="369.5,-0.5 369.5,-30.5 471.5,-30.5 471.5,-0.5 369.5,-0.5"/>
<text text-anchor="start" x="377.5" y="-18.5" font-family="Helvetica,sans-Serif" font-size="10.00">dbwrapper_private::</text>
<text text-anchor="middle" x="420.5" y="-7.5" font-family="Helvetica,sans-Serif" font-size="10.00">HandleError</text>
</a>
</g>
</g>
<!-- Node707&#45;&gt;Node708 -->
<g id="edge10" class="edge"><title>Node707&#45;&gt;Node708</title>
<path fill="none" stroke="midnightblue" d="M294.67,-52.9888C313.343,-47.3811 337.579,-40.1024 359.722,-33.4524"/>
<polygon fill="midnightblue" stroke="midnightblue" points="360.82,-36.7773 369.391,-30.5488 358.806,-30.0731 360.82,-36.7773"/>
</g>
</g>
</svg>
