<?xml version="1.0" encoding="UTF-8" standalone="no"?>
<!DOCTYPE svg PUBLIC "-//W3C//DTD SVG 1.1//EN"
 "http://www.w3.org/Graphics/SVG/1.1/DTD/svg11.dtd">
<!-- Generated by graphviz version 2.38.0 (20140413.2041)
 -->
<!-- Title: ReceiveCoinsDialog::accept Pages: 1 -->
<svg width="584pt" height="66pt"
 viewBox="0.00 0.00 584.00 66.00" xmlns="http://www.w3.org/2000/svg" xmlns:xlink="http://www.w3.org/1999/xlink">
<g id="graph0" class="graph" transform="scale(1 1) rotate(0) translate(4 62)">
<title>ReceiveCoinsDialog::accept</title>
<polygon fill="white" stroke="none" points="-4,4 -4,-62 580,-62 580,4 -4,4"/>
<!-- Node28 -->
<g id="node1" class="node"><title>Node28</title>
<polygon fill="#bfbfbf" stroke="black" points="0,-14 0,-44 106,-44 106,-14 0,-14"/>
<text text-anchor="start" x="8" y="-32" font-family="Helvetica,sans-Serif" font-size="10.00">ReceiveCoinsDialog</text>
<text text-anchor="middle" x="53" y="-21" font-family="Helvetica,sans-Serif" font-size="10.00">::accept</text>
</g>
<!-- Node29 -->
<g id="node2" class="node"><title>Node29</title>
<g id="a_node2"><a xlink:href="class_receive_coins_dialog.html#aaea0511f0ab43f1d2b23f8684d1edfc3" target="_top" xlink:title="ReceiveCoinsDialog\l::clear">
<polygon fill="white" stroke="black" points="142,-14 142,-44 248,-44 248,-14 142,-14"/>
<text text-anchor="start" x="150" y="-32" font-family="Helvetica,sans-Serif" font-size="10.00">ReceiveCoinsDialog</text>
<text text-anchor="middle" x="195" y="-21" font-family="Helvetica,sans-Serif" font-size="10.00">::clear</text>
</a>
</g>
</g>
<!-- Node28&#45;&gt;Node29 -->
<g id="edge1" class="edge"><title>Node28&#45;&gt;Node29</title>
<path fill="none" stroke="midnightblue" d="M106.131,-29C114.421,-29 123.07,-29 131.568,-29"/>
<polygon fill="midnightblue" stroke="midnightblue" points="131.826,-32.5001 141.826,-29 131.826,-25.5001 131.826,-32.5001"/>
</g>
<!-- Node30 -->
<g id="node3" class="node"><title>Node30</title>
<g id="a_node3"><a xlink:href="class_receive_coins_dialog.html#a19eca7743c5326eee821bb8c0af234bb" target="_top" xlink:title="ReceiveCoinsDialog\l::updateDisplayUnit">
<polygon fill="white" stroke="black" points="284,-14 284,-44 390,-44 390,-14 284,-14"/>
<text text-anchor="start" x="292" y="-32" font-family="Helvetica,sans-Serif" font-size="10.00">ReceiveCoinsDialog</text>
<text text-anchor="middle" x="337" y="-21" font-family="Helvetica,sans-Serif" font-size="10.00">::updateDisplayUnit</text>
</a>
</g>
</g>
<!-- Node29&#45;&gt;Node30 -->
<g id="edge2" class="edge"><title>Node29&#45;&gt;Node30</title>
<path fill="none" stroke="midnightblue" d="M248.131,-29C256.421,-29 265.07,-29 273.568,-29"/>
<polygon fill="midnightblue" stroke="midnightblue" points="273.826,-32.5001 283.826,-29 273.826,-25.5001 273.826,-32.5001"/>
</g>
<!-- Node31 -->
<g id="node4" class="node"><title>Node31</title>
<g id="a_node4"><a xlink:href="class_wallet_model.html#a96d53e56b3f8f07537ea2523f7a7d300" target="_top" xlink:title="WalletModel::getOptionsModel">
<polygon fill="white" stroke="black" points="426,-38.5 426,-57.5 576,-57.5 576,-38.5 426,-38.5"/>
<text text-anchor="middle" x="501" y="-45.5" font-family="Helvetica,sans-Serif" font-size="10.00">WalletModel::getOptionsModel</text>
</a>
</g>
</g>
<!-- Node30&#45;&gt;Node31 -->
<g id="edge3" class="edge"><title>Node30&#45;&gt;Node31</title>
<path fill="none" stroke="midnightblue" d="M390.15,-35.1163C398.327,-36.0754 406.955,-37.0873 415.635,-38.1054"/>
<polygon fill="midnightblue" stroke="midnightblue" points="415.485,-41.6116 425.825,-39.3004 416.3,-34.6593 415.485,-41.6116"/>
</g>
<!-- Node32 -->
<g id="node5" class="node"><title>Node32</title>
<g id="a_node5"><a xlink:href="class_options_model.html#a3b6e4d4ef42be3aaba315b8cd14f468e" target="_top" xlink:title="OptionsModel::getDisplayUnit">
<polygon fill="white" stroke="black" points="427.5,-0.5 427.5,-19.5 574.5,-19.5 574.5,-0.5 427.5,-0.5"/>
<text text-anchor="middle" x="501" y="-7.5" font-family="Helvetica,sans-Serif" font-size="10.00">OptionsModel::getDisplayUnit</text>
</a>
</g>
</g>
<!-- Node30&#45;&gt;Node32 -->
<g id="edge4" class="edge"><title>Node30&#45;&gt;Node32</title>
<path fill="none" stroke="midnightblue" d="M390.15,-22.8837C398.844,-21.864 408.049,-20.7844 417.283,-19.7013"/>
<polygon fill="midnightblue" stroke="midnightblue" points="417.769,-23.1685 427.293,-18.5274 416.953,-16.2162 417.769,-23.1685"/>
</g>
</g>
</svg>
