<?xml version="1.0" encoding="UTF-8" standalone="no"?>
<!DOCTYPE svg PUBLIC "-//W3C//DTD SVG 1.1//EN"
 "http://www.w3.org/Graphics/SVG/1.1/DTD/svg11.dtd">
<!-- Generated by graphviz version 2.38.0 (20140413.2041)
 -->
<!-- Title: RPCConsole::walletZaptxes1 Pages: 1 -->
<svg width="491pt" height="218pt"
 viewBox="0.00 0.00 491.00 218.00" xmlns="http://www.w3.org/2000/svg" xmlns:xlink="http://www.w3.org/1999/xlink">
<g id="graph0" class="graph" transform="scale(1 1) rotate(0) translate(4 214)">
<title>RPCConsole::walletZaptxes1</title>
<polygon fill="white" stroke="none" points="-4,4 -4,-214 487,-214 487,4 -4,4"/>
<!-- Node600 -->
<g id="node1" class="node"><title>Node600</title>
<polygon fill="#bfbfbf" stroke="black" points="0,-47.5 0,-66.5 146,-66.5 146,-47.5 0,-47.5"/>
<text text-anchor="middle" x="73" y="-54.5" font-family="Helvetica,sans-Serif" font-size="10.00">RPCConsole::walletZaptxes1</text>
</g>
<!-- Node601 -->
<g id="node2" class="node"><title>Node601</title>
<g id="a_node2"><a xlink:href="class_r_p_c_console.html#a317ca97b14efb6af2c2e22d5a60e8872" target="_top" xlink:title="Build parameter list for restart. ">
<polygon fill="white" stroke="black" points="182,-76.5 182,-95.5 340,-95.5 340,-76.5 182,-76.5"/>
<text text-anchor="middle" x="261" y="-83.5" font-family="Helvetica,sans-Serif" font-size="10.00">RPCConsole::buildParameterlist</text>
</a>
</g>
</g>
<!-- Node600&#45;&gt;Node601 -->
<g id="edge1" class="edge"><title>Node600&#45;&gt;Node601</title>
<path fill="none" stroke="midnightblue" d="M135.161,-66.5359C152.244,-69.1993 170.956,-72.1168 188.575,-74.8639"/>
<polygon fill="midnightblue" stroke="midnightblue" points="188.382,-78.376 198.802,-76.4584 189.461,-71.4596 188.382,-78.376"/>
</g>
<!-- Node606 -->
<g id="node7" class="node"><title>Node606</title>
<g id="a_node7"><a xlink:href="rpcconsole_8cpp.html#a24cf492047fa76d0994be667ce8fbb1d" target="_top" xlink:title="ZAPTXES1">
<polygon fill="white" stroke="black" points="395.5,-0.5 395.5,-19.5 463.5,-19.5 463.5,-0.5 395.5,-0.5"/>
<text text-anchor="middle" x="429.5" y="-7.5" font-family="Helvetica,sans-Serif" font-size="10.00">ZAPTXES1</text>
</a>
</g>
</g>
<!-- Node600&#45;&gt;Node606 -->
<g id="edge8" class="edge"><title>Node600&#45;&gt;Node606</title>
<path fill="none" stroke="midnightblue" d="M145.738,-47.4888C217.501,-37.9745 325.542,-23.6503 385.153,-15.747"/>
<polygon fill="midnightblue" stroke="midnightblue" points="385.895,-19.1793 395.349,-14.3952 384.975,-12.24 385.895,-19.1793"/>
</g>
<!-- Node602 -->
<g id="node3" class="node"><title>Node602</title>
<g id="a_node3"><a xlink:href="rpcconsole_8cpp.html#adeb5e7f9d8eef5f2bdf8d575ebc2a66a" target="_top" xlink:title="REINDEX">
<polygon fill="white" stroke="black" points="398.5,-190.5 398.5,-209.5 460.5,-209.5 460.5,-190.5 398.5,-190.5"/>
<text text-anchor="middle" x="429.5" y="-197.5" font-family="Helvetica,sans-Serif" font-size="10.00">REINDEX</text>
</a>
</g>
</g>
<!-- Node601&#45;&gt;Node602 -->
<g id="edge2" class="edge"><title>Node601&#45;&gt;Node602</title>
<path fill="none" stroke="midnightblue" d="M271.193,-95.6401C289.535,-114.394 332.651,-156.123 376,-181 379.985,-183.287 384.295,-185.379 388.672,-187.269"/>
<polygon fill="midnightblue" stroke="midnightblue" points="387.678,-190.64 398.263,-191.082 390.264,-184.135 387.678,-190.64"/>
</g>
<!-- Node603 -->
<g id="node4" class="node"><title>Node603</title>
<g id="a_node4"><a xlink:href="rpcconsole_8cpp.html#af007bb2ea31fde5ef557de07fbbec40f" target="_top" xlink:title="RESCAN">
<polygon fill="white" stroke="black" points="400,-152.5 400,-171.5 459,-171.5 459,-152.5 400,-152.5"/>
<text text-anchor="middle" x="429.5" y="-159.5" font-family="Helvetica,sans-Serif" font-size="10.00">RESCAN</text>
</a>
</g>
</g>
<!-- Node601&#45;&gt;Node603 -->
<g id="edge3" class="edge"><title>Node601&#45;&gt;Node603</title>
<path fill="none" stroke="midnightblue" d="M279.47,-95.5347C301.587,-107.418 341.026,-127.988 376,-143 380.722,-145.027 385.74,-147.029 390.729,-148.93"/>
<polygon fill="midnightblue" stroke="midnightblue" points="389.608,-152.247 400.201,-152.44 392.04,-145.683 389.608,-152.247"/>
</g>
<!-- Node604 -->
<g id="node5" class="node"><title>Node604</title>
<g id="a_node5"><a xlink:href="rpcconsole_8cpp.html#aae924d25a586ad1b39c5e2d5e1e731f4" target="_top" xlink:title="SALVAGEWALLET">
<polygon fill="white" stroke="black" points="378,-114.5 378,-133.5 481,-133.5 481,-114.5 378,-114.5"/>
<text text-anchor="middle" x="429.5" y="-121.5" font-family="Helvetica,sans-Serif" font-size="10.00">SALVAGEWALLET</text>
</a>
</g>
</g>
<!-- Node601&#45;&gt;Node604 -->
<g id="edge4" class="edge"><title>Node601&#45;&gt;Node604</title>
<path fill="none" stroke="midnightblue" d="M304.015,-95.589C326.184,-100.649 353.573,-106.9 377.011,-112.249"/>
<polygon fill="midnightblue" stroke="midnightblue" points="376.259,-115.667 386.787,-114.48 377.817,-108.843 376.259,-115.667"/>
</g>
<!-- Node605 -->
<g id="node6" class="node"><title>Node605</title>
<g id="a_node6"><a xlink:href="rpcconsole_8cpp.html#a576eef2e43d89e19c6f369e980413376" target="_top" xlink:title="UPGRADEWALLET">
<polygon fill="white" stroke="black" points="376,-76.5 376,-95.5 483,-95.5 483,-76.5 376,-76.5"/>
<text text-anchor="middle" x="429.5" y="-83.5" font-family="Helvetica,sans-Serif" font-size="10.00">UPGRADEWALLET</text>
</a>
</g>
</g>
<!-- Node601&#45;&gt;Node605 -->
<g id="edge5" class="edge"><title>Node601&#45;&gt;Node605</title>
<path fill="none" stroke="midnightblue" d="M340.375,-86C348.796,-86 357.284,-86 365.493,-86"/>
<polygon fill="midnightblue" stroke="midnightblue" points="365.715,-89.5001 375.715,-86 365.715,-82.5001 365.715,-89.5001"/>
</g>
<!-- Node601&#45;&gt;Node606 -->
<g id="edge6" class="edge"><title>Node601&#45;&gt;Node606</title>
<path fill="none" stroke="midnightblue" d="M279.47,-76.4653C301.587,-64.5822 341.026,-44.0118 376,-29 380.722,-26.9731 385.74,-24.9708 390.729,-23.07"/>
<polygon fill="midnightblue" stroke="midnightblue" points="392.04,-26.3167 400.201,-19.5596 389.608,-19.7529 392.04,-26.3167"/>
</g>
<!-- Node607 -->
<g id="node8" class="node"><title>Node607</title>
<g id="a_node8"><a xlink:href="rpcconsole_8cpp.html#a2aa0870b5231eed82a4be1d0ae9f3d1c" target="_top" xlink:title="ZAPTXES2">
<polygon fill="white" stroke="black" points="395.5,-38.5 395.5,-57.5 463.5,-57.5 463.5,-38.5 395.5,-38.5"/>
<text text-anchor="middle" x="429.5" y="-45.5" font-family="Helvetica,sans-Serif" font-size="10.00">ZAPTXES2</text>
</a>
</g>
</g>
<!-- Node601&#45;&gt;Node607 -->
<g id="edge7" class="edge"><title>Node601&#45;&gt;Node607</title>
<path fill="none" stroke="midnightblue" d="M304.015,-76.411C328.908,-70.7297 360.382,-63.5464 385.454,-57.8243"/>
<polygon fill="midnightblue" stroke="midnightblue" points="386.448,-61.1876 395.418,-55.5502 384.89,-54.3631 386.448,-61.1876"/>
</g>
</g>
</svg>
