<?xml version="1.0" encoding="UTF-8" standalone="no"?>
<!DOCTYPE svg PUBLIC "-//W3C//DTD SVG 1.1//EN"
 "http://www.w3.org/Graphics/SVG/1.1/DTD/svg11.dtd">
<!-- Generated by graphviz version 2.38.0 (20140413.2041)
 -->
<!-- Title: BlockAssembler Pages: 1 -->
<svg width="526pt" height="431pt"
 viewBox="0.00 0.00 526.00 431.00" xmlns="http://www.w3.org/2000/svg" xmlns:xlink="http://www.w3.org/1999/xlink">
<g id="graph0" class="graph" transform="scale(1 1) rotate(0) translate(4 427)">
<title>BlockAssembler</title>
<polygon fill="white" stroke="none" points="-4,4 -4,-427 522,-427 522,4 -4,4"/>
<!-- Node1 -->
<g id="node1" class="node"><title>Node1</title>
<polygon fill="#bfbfbf" stroke="black" points="82.5,-0.5 82.5,-19.5 175.5,-19.5 175.5,-0.5 82.5,-0.5"/>
<text text-anchor="middle" x="129" y="-7.5" font-family="Helvetica,sans-Serif" font-size="10.00">BlockAssembler</text>
</g>
<!-- Node2 -->
<g id="node2" class="node"><title>Node2</title>
<g id="a_node2"><a xlink:href="class_c_fee_rate.html" target="_top" xlink:title="Fee rate in satoshis per kilobyte: CAmount / kB. ">
<polygon fill="white" stroke="black" points="0,-67.5 0,-86.5 62,-86.5 62,-67.5 0,-67.5"/>
<text text-anchor="middle" x="31" y="-74.5" font-family="Helvetica,sans-Serif" font-size="10.00">CFeeRate</text>
</a>
</g>
</g>
<!-- Node2&#45;&gt;Node1 -->
<g id="edge1" class="edge"><title>Node2&#45;&gt;Node1</title>
<path fill="none" stroke="#9a32cd" stroke-dasharray="5,2" d="M27.1578,-57.1487C26.848,-50.4864 27.8376,-43.3322 32,-38 43.9396,-22.705 63.7617,-15.5976 82.3859,-12.453"/>
<polygon fill="#9a32cd" stroke="#9a32cd" points="23.7494,-58.0561 28.5753,-67.488 30.6846,-57.1053 23.7494,-58.0561"/>
<text text-anchor="middle" x="73.5" y="-41" font-family="Helvetica,sans-Serif" font-size="10.00"> blockMinFeeRate</text>
</g>
<!-- Node3 -->
<g id="node3" class="node"><title>Node3</title>
<g id="a_node3"><a xlink:href="class_c_block.html" target="_top" xlink:title="CBlock">
<polygon fill="white" stroke="black" points="107.5,-145.5 107.5,-164.5 156.5,-164.5 156.5,-145.5 107.5,-145.5"/>
<text text-anchor="middle" x="132" y="-152.5" font-family="Helvetica,sans-Serif" font-size="10.00">CBlock</text>
</a>
</g>
</g>
<!-- Node3&#45;&gt;Node1 -->
<g id="edge2" class="edge"><title>Node3&#45;&gt;Node1</title>
<path fill="none" stroke="#9a32cd" stroke-dasharray="5,2" d="M131.603,-135.097C130.946,-103.772 129.657,-42.309 129.182,-19.6532"/>
<polygon fill="#9a32cd" stroke="#9a32cd" points="128.112,-135.559 131.821,-145.483 135.111,-135.412 128.112,-135.559"/>
<text text-anchor="middle" x="148" y="-74.5" font-family="Helvetica,sans-Serif" font-size="10.00"> pblock</text>
</g>
<!-- Node7 -->
<g id="node7" class="node"><title>Node7</title>
<g id="a_node7"><a xlink:href="class_c_chain_params.html" target="_top" xlink:title="CChainParams defines various tweakable parameters of a given instance of the Dash system...">
<polygon fill="white" stroke="black" points="206,-67.5 206,-86.5 292,-86.5 292,-67.5 206,-67.5"/>
<text text-anchor="middle" x="249" y="-74.5" font-family="Helvetica,sans-Serif" font-size="10.00">CChainParams</text>
</a>
</g>
</g>
<!-- Node3&#45;&gt;Node7 -->
<g id="edge8" class="edge"><title>Node3&#45;&gt;Node7</title>
<path fill="none" stroke="#9a32cd" stroke-dasharray="5,2" d="M139.376,-136.315C144.57,-125.846 152.477,-113.091 163,-105 175.406,-95.4615 191.242,-89.2551 205.936,-85.233"/>
<polygon fill="#9a32cd" stroke="#9a32cd" points="136.187,-134.873 135.23,-145.425 142.558,-137.773 136.187,-134.873"/>
<text text-anchor="middle" x="199" y="-119" font-family="Helvetica,sans-Serif" font-size="10.00"> genesis</text>
<text text-anchor="middle" x="199" y="-108" font-family="Helvetica,sans-Serif" font-size="10.00">devnetGenesis</text>
</g>
<!-- Node4 -->
<g id="node4" class="node"><title>Node4</title>
<g id="a_node4"><a xlink:href="class_c_block_header.html" target="_top" xlink:title="Nodes collect new transactions into a block, hash them into a hash tree, and scan through nonce value...">
<polygon fill="white" stroke="black" points="90,-202.5 90,-221.5 174,-221.5 174,-202.5 90,-202.5"/>
<text text-anchor="middle" x="132" y="-209.5" font-family="Helvetica,sans-Serif" font-size="10.00">CBlockHeader</text>
</a>
</g>
</g>
<!-- Node4&#45;&gt;Node3 -->
<g id="edge3" class="edge"><title>Node4&#45;&gt;Node3</title>
<path fill="none" stroke="midnightblue" d="M132,-192.117C132,-182.817 132,-172.056 132,-164.715"/>
<polygon fill="midnightblue" stroke="midnightblue" points="128.5,-192.406 132,-202.406 135.5,-192.406 128.5,-192.406"/>
</g>
<!-- Node5 -->
<g id="node5" class="node"><title>Node5</title>
<g id="a_node5"><a xlink:href="classuint256.html" target="_top" xlink:title="256&#45;bit opaque blob. ">
<polygon fill="white" stroke="black" points="155.5,-346.5 155.5,-365.5 208.5,-365.5 208.5,-346.5 155.5,-346.5"/>
<text text-anchor="middle" x="182" y="-353.5" font-family="Helvetica,sans-Serif" font-size="10.00">uint256</text>
</a>
</g>
</g>
<!-- Node5&#45;&gt;Node4 -->
<g id="edge4" class="edge"><title>Node5&#45;&gt;Node4</title>
<path fill="none" stroke="#9a32cd" stroke-dasharray="5,2" d="M146.588,-341.602C141.174,-338.004 136.299,-333.529 133,-328 112.336,-293.365 123.66,-241.787 129.356,-221.569"/>
<polygon fill="#9a32cd" stroke="#9a32cd" points="144.96,-344.702 155.391,-346.557 148.393,-338.602 144.96,-344.702"/>
<text text-anchor="middle" x="171" y="-287" font-family="Helvetica,sans-Serif" font-size="10.00"> hashPrevBlock</text>
<text text-anchor="middle" x="171" y="-276" font-family="Helvetica,sans-Serif" font-size="10.00">hashMerkleRoot</text>
</g>
<!-- Node9 -->
<g id="node9" class="node"><title>Node9</title>
<g id="a_node9"><a xlink:href="struct_consensus_1_1_params.html" target="_top" xlink:title="Parameters that influence chain consensus. ">
<polygon fill="white" stroke="black" points="193.5,-202.5 193.5,-221.5 304.5,-221.5 304.5,-202.5 193.5,-202.5"/>
<text text-anchor="middle" x="249" y="-209.5" font-family="Helvetica,sans-Serif" font-size="10.00">Consensus::Params</text>
</a>
</g>
</g>
<!-- Node5&#45;&gt;Node9 -->
<g id="edge10" class="edge"><title>Node5&#45;&gt;Node9</title>
<path fill="none" stroke="#9a32cd" stroke-dasharray="5,2" d="M200.583,-339.124C203.748,-335.718 206.738,-331.947 209,-328 229.105,-292.929 215.931,-277.094 232,-240 234.818,-233.494 239.068,-226.744 242.614,-221.62"/>
<polygon fill="#9a32cd" stroke="#9a32cd" points="197.898,-336.851 193.142,-346.319 202.764,-341.883 197.898,-336.851"/>
<text text-anchor="middle" x="295.5" y="-320" font-family="Helvetica,sans-Serif" font-size="10.00"> nMinimumChainWork</text>
<text text-anchor="middle" x="295.5" y="-309" font-family="Helvetica,sans-Serif" font-size="10.00">hashDevnetGenesisBlock</text>
<text text-anchor="middle" x="295.5" y="-298" font-family="Helvetica,sans-Serif" font-size="10.00">hashGenesisBlock</text>
<text text-anchor="middle" x="295.5" y="-287" font-family="Helvetica,sans-Serif" font-size="10.00">DIP0003EnforcementHash</text>
<text text-anchor="middle" x="295.5" y="-276" font-family="Helvetica,sans-Serif" font-size="10.00">defaultAssumeValid</text>
<text text-anchor="middle" x="295.5" y="-265" font-family="Helvetica,sans-Serif" font-size="10.00">BIP34Hash</text>
<text text-anchor="middle" x="295.5" y="-254" font-family="Helvetica,sans-Serif" font-size="10.00">nSuperblockStartHash</text>
<text text-anchor="middle" x="295.5" y="-243" font-family="Helvetica,sans-Serif" font-size="10.00">powLimit</text>
</g>
<!-- Node6 -->
<g id="node6" class="node"><title>Node6</title>
<g id="a_node6"><a xlink:href="classbase__blob.html" target="_top" xlink:title="base_blob\&lt; 256 \&gt;">
<polygon fill="white" stroke="black" points="129,-403.5 129,-422.5 235,-422.5 235,-403.5 129,-403.5"/>
<text text-anchor="middle" x="182" y="-410.5" font-family="Helvetica,sans-Serif" font-size="10.00">base_blob&lt; 256 &gt;</text>
</a>
</g>
</g>
<!-- Node6&#45;&gt;Node5 -->
<g id="edge5" class="edge"><title>Node6&#45;&gt;Node5</title>
<path fill="none" stroke="midnightblue" d="M182,-393.117C182,-383.817 182,-373.056 182,-365.715"/>
<polygon fill="midnightblue" stroke="midnightblue" points="178.5,-393.406 182,-403.406 185.5,-393.406 178.5,-393.406"/>
</g>
<!-- Node7&#45;&gt;Node1 -->
<g id="edge6" class="edge"><title>Node7&#45;&gt;Node1</title>
<path fill="none" stroke="#9a32cd" stroke-dasharray="5,2" d="M224,-62.4586C200.211,-49.5727 165.134,-30.5727 144.927,-19.6273"/>
<polygon fill="#9a32cd" stroke="#9a32cd" points="222.356,-65.5485 232.816,-67.2338 225.69,-59.3934 222.356,-65.5485"/>
<text text-anchor="middle" x="230" y="-41" font-family="Helvetica,sans-Serif" font-size="10.00"> chainparams</text>
</g>
<!-- Node8 -->
<g id="node8" class="node"><title>Node8</title>
<g id="a_node8"><a xlink:href="struct_c_checkpoint_data.html" target="_top" xlink:title="CCheckpointData">
<polygon fill="white" stroke="black" points="418,-145.5 418,-164.5 518,-164.5 518,-145.5 418,-145.5"/>
<text text-anchor="middle" x="468" y="-152.5" font-family="Helvetica,sans-Serif" font-size="10.00">CCheckpointData</text>
</a>
</g>
</g>
<!-- Node8&#45;&gt;Node7 -->
<g id="edge7" class="edge"><title>Node8&#45;&gt;Node7</title>
<path fill="none" stroke="#9a32cd" stroke-dasharray="5,2" d="M447.931,-139.317C431.92,-128.286 408.519,-113.647 386,-105 355.674,-93.356 319.559,-86.5041 292.025,-82.618"/>
<polygon fill="#9a32cd" stroke="#9a32cd" points="446.253,-142.416 456.442,-145.322 450.289,-136.697 446.253,-142.416"/>
<text text-anchor="middle" x="466.5" y="-113.5" font-family="Helvetica,sans-Serif" font-size="10.00"> checkpointData</text>
</g>
<!-- Node9&#45;&gt;Node7 -->
<g id="edge9" class="edge"><title>Node9&#45;&gt;Node7</title>
<path fill="none" stroke="#9a32cd" stroke-dasharray="5,2" d="M249,-192.133C249,-162.884 249,-107.762 249,-86.5857"/>
<polygon fill="#9a32cd" stroke="#9a32cd" points="245.5,-192.273 249,-202.273 252.5,-192.274 245.5,-192.273"/>
<text text-anchor="middle" x="276.5" y="-152.5" font-family="Helvetica,sans-Serif" font-size="10.00"> consensus</text>
</g>
<!-- Node10 -->
<g id="node10" class="node"><title>Node10</title>
<g id="a_node10"><a xlink:href="struct_consensus_1_1_b_i_p9_deployment.html" target="_top" xlink:title="Struct for each individual consensus rule change using BIP9. ">
<polygon fill="white" stroke="black" points="303.5,-346.5 303.5,-365.5 458.5,-365.5 458.5,-346.5 303.5,-346.5"/>
<text text-anchor="middle" x="381" y="-353.5" font-family="Helvetica,sans-Serif" font-size="10.00">Consensus::BIP9Deployment</text>
</a>
</g>
</g>
<!-- Node10&#45;&gt;Node9 -->
<g id="edge11" class="edge"><title>Node10&#45;&gt;Node9</title>
<path fill="none" stroke="#9a32cd" stroke-dasharray="5,2" d="M383.089,-336.318C384.807,-311.03 383.762,-266.076 359,-240 351.146,-231.73 327.825,-225.411 304.665,-220.973"/>
<polygon fill="#9a32cd" stroke="#9a32cd" points="379.591,-336.142 382.18,-346.415 386.562,-336.769 379.591,-336.142"/>
<text text-anchor="middle" x="420.5" y="-281.5" font-family="Helvetica,sans-Serif" font-size="10.00"> vDeployments</text>
</g>
<!-- Node11 -->
<g id="node11" class="node"><title>Node11</title>
<g id="a_node11"><a xlink:href="struct_chain_tx_data.html" target="_top" xlink:title="ChainTxData">
<polygon fill="white" stroke="black" points="322.5,-145.5 322.5,-164.5 399.5,-164.5 399.5,-145.5 322.5,-145.5"/>
<text text-anchor="middle" x="361" y="-152.5" font-family="Helvetica,sans-Serif" font-size="10.00">ChainTxData</text>
</a>
</g>
</g>
<!-- Node11&#45;&gt;Node7 -->
<g id="edge12" class="edge"><title>Node11&#45;&gt;Node7</title>
<path fill="none" stroke="#9a32cd" stroke-dasharray="5,2" d="M339.731,-139.568C316.688,-123.931 280.681,-99.4981 261.698,-86.6165"/>
<polygon fill="#9a32cd" stroke="#9a32cd" points="337.912,-142.563 348.152,-145.282 341.843,-136.771 337.912,-142.563"/>
<text text-anchor="middle" x="350.5" y="-113.5" font-family="Helvetica,sans-Serif" font-size="10.00"> chainTxData</text>
</g>
</g>
</svg>
