<?xml version="1.0" encoding="UTF-8" standalone="no"?>
<!DOCTYPE svg PUBLIC "-//W3C//DTD SVG 1.1//EN"
 "http://www.w3.org/Graphics/SVG/1.1/DTD/svg11.dtd">
<!-- Generated by graphviz version 2.38.0 (20140413.2041)
 -->
<!-- Title: CAffectedKeysVisitor::Process Pages: 1 -->
<svg width="395pt" height="39pt"
 viewBox="0.00 0.00 395.00 39.00" xmlns="http://www.w3.org/2000/svg" xmlns:xlink="http://www.w3.org/1999/xlink">
<g id="graph0" class="graph" transform="scale(1 1) rotate(0) translate(4 35)">
<title>CAffectedKeysVisitor::Process</title>
<polygon fill="white" stroke="none" points="-4,4 -4,-35 391,-35 391,4 -4,4"/>
<!-- Node55 -->
<g id="node1" class="node"><title>Node55</title>
<polygon fill="#bfbfbf" stroke="black" points="0,-0.5 0,-30.5 111,-30.5 111,-0.5 0,-0.5"/>
<text text-anchor="start" x="8" y="-18.5" font-family="Helvetica,sans-Serif" font-size="10.00">CAffectedKeysVisitor</text>
<text text-anchor="middle" x="55.5" y="-7.5" font-family="Helvetica,sans-Serif" font-size="10.00">::Process</text>
</g>
<!-- Node56 -->
<g id="node2" class="node"><title>Node56</title>
<g id="a_node2"><a xlink:href="class_c_wallet.html#acb2fdaf647fa2d812d58e998848e681d" target="_top" xlink:title="CWallet::GetKeyBirthTimes">
<polygon fill="white" stroke="black" points="147,-6 147,-25 285,-25 285,-6 147,-6"/>
<text text-anchor="middle" x="216" y="-13" font-family="Helvetica,sans-Serif" font-size="10.00">CWallet::GetKeyBirthTimes</text>
</a>
</g>
</g>
<!-- Node55&#45;&gt;Node56 -->
<g id="edge1" class="edge"><title>Node55&#45;&gt;Node56</title>
<path fill="none" stroke="midnightblue" d="M121.232,-15.5C129.697,-15.5 138.392,-15.5 146.91,-15.5"/>
<polygon fill="midnightblue" stroke="midnightblue" points="121.047,-12.0001 111.047,-15.5 121.047,-19.0001 121.047,-12.0001"/>
</g>
<!-- Node57 -->
<g id="node3" class="node"><title>Node57</title>
<g id="a_node3"><a xlink:href="rpcdump_8cpp.html#a84626901983e76a517c35e461a9a9442" target="_top" xlink:title="dumpwallet">
<polygon fill="white" stroke="black" points="321,-6 321,-25 387,-25 387,-6 321,-6"/>
<text text-anchor="middle" x="354" y="-13" font-family="Helvetica,sans-Serif" font-size="10.00">dumpwallet</text>
</a>
</g>
</g>
<!-- Node56&#45;&gt;Node57 -->
<g id="edge2" class="edge"><title>Node56&#45;&gt;Node57</title>
<path fill="none" stroke="midnightblue" d="M295.561,-15.5C304.499,-15.5 313.187,-15.5 320.988,-15.5"/>
<polygon fill="midnightblue" stroke="midnightblue" points="295.398,-12.0001 285.398,-15.5 295.398,-19.0001 295.398,-12.0001"/>
</g>
</g>
</svg>
