<?xml version="1.0" encoding="UTF-8" standalone="no"?>
<!DOCTYPE svg PUBLIC "-//W3C//DTD SVG 1.1//EN"
 "http://www.w3.org/Graphics/SVG/1.1/DTD/svg11.dtd">
<!-- Generated by graphviz version 2.38.0 (20140413.2041)
 -->
<!-- Title: CMnemonic::FromData Pages: 1 -->
<svg width="445pt" height="28pt"
 viewBox="0.00 0.00 445.00 28.00" xmlns="http://www.w3.org/2000/svg" xmlns:xlink="http://www.w3.org/1999/xlink">
<g id="graph0" class="graph" transform="scale(1 1) rotate(0) translate(4 24)">
<title>CMnemonic::FromData</title>
<polygon fill="white" stroke="none" points="-4,4 -4,-24 441,-24 441,4 -4,4"/>
<!-- Node24 -->
<g id="node1" class="node"><title>Node24</title>
<polygon fill="#bfbfbf" stroke="black" points="0,-0.5 0,-19.5 119,-19.5 119,-0.5 0,-0.5"/>
<text text-anchor="middle" x="59.5" y="-7.5" font-family="Helvetica,sans-Serif" font-size="10.00">CMnemonic::FromData</text>
</g>
<!-- Node25 -->
<g id="node2" class="node"><title>Node25</title>
<g id="a_node2"><a xlink:href="class_c_mnemonic.html#a3bb897a2a2f101fbcdcf3e4e4450f332" target="_top" xlink:title="Copyright (c) 2013&#45;2014 Tomas Dzetkulic Copyright (c) 2013&#45;2014 Pavol Rusnak. ">
<polygon fill="white" stroke="black" points="155,-0.5 155,-19.5 270,-19.5 270,-0.5 155,-0.5"/>
<text text-anchor="middle" x="212.5" y="-7.5" font-family="Helvetica,sans-Serif" font-size="10.00">CMnemonic::Generate</text>
</a>
</g>
</g>
<!-- Node24&#45;&gt;Node25 -->
<g id="edge1" class="edge"><title>Node24&#45;&gt;Node25</title>
<path fill="none" stroke="midnightblue" d="M129.477,-10C137.877,-10 146.385,-10 154.581,-10"/>
<polygon fill="midnightblue" stroke="midnightblue" points="129.313,-6.5001 119.313,-10 129.313,-13.5001 129.313,-6.5001"/>
</g>
<!-- Node26 -->
<g id="node3" class="node"><title>Node26</title>
<g id="a_node3"><a xlink:href="class_c_h_d_chain.html#af3647d308f1bad5c0a647b1a70ce9c49" target="_top" xlink:title="CHDChain::SetMnemonic">
<polygon fill="white" stroke="black" points="306,-0.5 306,-19.5 437,-19.5 437,-0.5 306,-0.5"/>
<text text-anchor="middle" x="371.5" y="-7.5" font-family="Helvetica,sans-Serif" font-size="10.00">CHDChain::SetMnemonic</text>
</a>
</g>
</g>
<!-- Node25&#45;&gt;Node26 -->
<g id="edge2" class="edge"><title>Node25&#45;&gt;Node26</title>
<path fill="none" stroke="midnightblue" d="M280.381,-10C288.84,-10 297.483,-10 305.906,-10"/>
<polygon fill="midnightblue" stroke="midnightblue" points="280.181,-6.5001 270.181,-10 280.181,-13.5001 280.181,-6.5001"/>
</g>
</g>
</svg>
