<?xml version="1.0" encoding="UTF-8" standalone="no"?>
<!DOCTYPE svg PUBLIC "-//W3C//DTD SVG 1.1//EN"
 "http://www.w3.org/Graphics/SVG/1.1/DTD/svg11.dtd">
<!-- Generated by graphviz version 2.38.0 (20140413.2041)
 -->
<!-- Title: CBlockTreeDB::WriteFlag Pages: 1 -->
<!--zoomable 280 -->
<svg id="main" version="1.1" xmlns="http://www.w3.org/2000/svg" xmlns:xlink="http://www.w3.org/1999/xlink" xml:space="preserve" onload="init(evt)">
<style type="text/css"><![CDATA[
.edge:hover path { stroke: red; }
.edge:hover polygon { stroke: red; fill: red; }
]]></style>
<script type="text/javascript"><![CDATA[
var edges = document.getElementsByTagName('g');
if (edges && edges.length) {
  for (var i=0;i<edges.length;i++) {
    if (edges[i].id.substr(0,4)=='edge') {
      edges[i].setAttribute('class','edge');
    }
  }
}
]]></script>
        <defs>
                <circle id="rim" cx="0" cy="0" r="7"/>
                <circle id="rim2" cx="0" cy="0" r="3.5"/>
                <g id="zoomPlus">
                        <use xlink:href="#rim" fill="#404040">
                                <set attributeName="fill" to="#808080" begin="zoomplus.mouseover" end="zoomplus.mouseout"/>
                        </use>
                        <path d="M-4,0h8M0,-4v8" fill="none" stroke="white" stroke-width="1.5" pointer-events="none"/>
                </g>
                <g id="zoomMin">
                        <use xlink:href="#rim" fill="#404040">
                                <set attributeName="fill" to="#808080" begin="zoomminus.mouseover" end="zoomminus.mouseout"/>
                        </use>
                        <path d="M-4,0h8" fill="none" stroke="white" stroke-width="1.5" pointer-events="none"/>
                </g>
                <g id="dirArrow">
                        <path fill="none" stroke="white" stroke-width="1.5" d="M0,-3.0v7 M-2.5,-0.5L0,-3.0L2.5,-0.5"/>
                </g>
               <g id="resetDef">
                       <use xlink:href="#rim2" fill="#404040">
                               <set attributeName="fill" to="#808080" begin="reset.mouseover" end="reset.mouseout"/>
                       </use>
               </g>
        </defs>

<script type="text/javascript">
var viewWidth = 733;
var viewHeight = 280;
var sectionId = 'dynsection-32';
</script>
<script xlink:href="svgpan.js"/>
<svg id="graph" class="graph">
<g id="viewport">
<title>CBlockTreeDB::WriteFlag</title>
<polygon fill="white" stroke="none" points="-4,4 -4,-275.5 729,-275.5 729,4 -4,4"/>
<!-- Node588 -->
<g id="node1" class="node"><title>Node588</title>
<polygon fill="#bfbfbf" stroke="black" points="0,-95 0,-114 131,-114 131,-95 0,-95"/>
<text text-anchor="middle" x="65.5" y="-102" font-family="Helvetica,sans-Serif" font-size="10.00">CBlockTreeDB::WriteFlag</text>
</g>
<!-- Node589 -->
<g id="node2" class="node"><title>Node589</title>
<g id="a_node2"><a xlink:href="class_c_d_b_wrapper.html#a6600aa8c2b30880dd7e032ea21f74aed" target="_top" xlink:title="CDBWrapper::Write">
<polygon fill="white" stroke="black" points="167,-95 167,-114 271,-114 271,-95 167,-95"/>
<text text-anchor="middle" x="219" y="-102" font-family="Helvetica,sans-Serif" font-size="10.00">CDBWrapper::Write</text>
</a>
</g>
</g>
<!-- Node588&#45;&gt;Node589 -->
<g id="edge1" class="edge"><title>Node588&#45;&gt;Node589</title>
<path fill="none" stroke="midnightblue" d="M131.189,-104.5C139.651,-104.5 148.302,-104.5 156.705,-104.5"/>
<polygon fill="midnightblue" stroke="midnightblue" points="156.805,-108 166.805,-104.5 156.805,-101 156.805,-108"/>
</g>
<!-- Node590 -->
<g id="node3" class="node"><title>Node590</title>
<g id="a_node3"><a xlink:href="class_c_d_b_batch.html#a91b5d889a8d7e56c4f0bbf446e246111" target="_top" xlink:title="CDBBatch::Write">
<polygon fill="white" stroke="black" points="325.5,-138 325.5,-157 418.5,-157 418.5,-138 325.5,-138"/>
<text text-anchor="middle" x="372" y="-145" font-family="Helvetica,sans-Serif" font-size="10.00">CDBBatch::Write</text>
</a>
</g>
</g>
<!-- Node589&#45;&gt;Node590 -->
<g id="edge2" class="edge"><title>Node589&#45;&gt;Node590</title>
<path fill="none" stroke="midnightblue" d="M253.512,-114.043C275.407,-120.278 304.211,-128.481 327.818,-135.203"/>
<polygon fill="midnightblue" stroke="midnightblue" points="327.006,-138.611 337.582,-137.984 328.923,-131.879 327.006,-138.611"/>
</g>
<!-- Node597 -->
<g id="node10" class="node"><title>Node597</title>
<g id="a_node10"><a xlink:href="class_c_d_b_wrapper.html#a3624c2e99b0d4e9a4edc679b304fa180" target="_top" xlink:title="CDBWrapper::WriteBatch">
<polygon fill="white" stroke="black" points="307,-53 307,-72 437,-72 437,-53 307,-53"/>
<text text-anchor="middle" x="372" y="-60" font-family="Helvetica,sans-Serif" font-size="10.00">CDBWrapper::WriteBatch</text>
</a>
</g>
</g>
<!-- Node589&#45;&gt;Node597 -->
<g id="edge10" class="edge"><title>Node589&#45;&gt;Node597</title>
<path fill="none" stroke="midnightblue" d="M254.264,-94.9695C275.715,-89.0031 303.572,-81.2549 326.693,-74.8238"/>
<polygon fill="midnightblue" stroke="midnightblue" points="327.914,-78.1171 336.61,-72.0653 326.038,-71.3731 327.914,-78.1171"/>
</g>
<!-- Node591 -->
<g id="node4" class="node"><title>Node591</title>
<g id="a_node4"><a xlink:href="class_c_data_stream.html#a5542e71bd7af2ab7cd7be0f381d39cb5" target="_top" xlink:title="CDataStream::reserve">
<polygon fill="white" stroke="black" points="473,-252 473,-271 588,-271 588,-252 473,-252"/>
<text text-anchor="middle" x="530.5" y="-259" font-family="Helvetica,sans-Serif" font-size="10.00">CDataStream::reserve</text>
</a>
</g>
</g>
<!-- Node590&#45;&gt;Node591 -->
<g id="edge3" class="edge"><title>Node590&#45;&gt;Node591</title>
<path fill="none" stroke="midnightblue" d="M380.514,-157.008C395.915,-175.899 432.999,-218.409 473,-242.5 476.394,-244.544 480.036,-246.401 483.776,-248.083"/>
<polygon fill="midnightblue" stroke="midnightblue" points="482.608,-251.386 493.191,-251.904 485.241,-244.9 482.608,-251.386"/>
</g>
<!-- Node592 -->
<g id="node5" class="node"><title>Node592</title>
<g id="a_node5"><a xlink:href="class_c_data_stream.html#a1c0a87d9ea725d5d83562dfda15fbeeb" target="_top" xlink:title="CDataStream::data">
<polygon fill="white" stroke="black" points="480,-214 480,-233 581,-233 581,-214 480,-214"/>
<text text-anchor="middle" x="530.5" y="-221" font-family="Helvetica,sans-Serif" font-size="10.00">CDataStream::data</text>
</a>
</g>
</g>
<!-- Node590&#45;&gt;Node592 -->
<g id="edge4" class="edge"><title>Node590&#45;&gt;Node592</title>
<path fill="none" stroke="midnightblue" d="M390.494,-157.125C410.295,-167.895 443.619,-185.647 473,-199.5 480.607,-203.087 488.893,-206.743 496.716,-210.085"/>
<polygon fill="midnightblue" stroke="midnightblue" points="495.379,-213.319 505.953,-213.979 498.099,-206.869 495.379,-213.319"/>
</g>
<!-- Node593 -->
<g id="node6" class="node"><title>Node593</title>
<g id="a_node6"><a xlink:href="class_c_data_stream.html#add30f866dd928fc28c47fe79a0a6723a" target="_top" xlink:title="CDataStream::size">
<polygon fill="white" stroke="black" points="624,-157 624,-176 725,-176 725,-157 624,-157"/>
<text text-anchor="middle" x="674.5" y="-164" font-family="Helvetica,sans-Serif" font-size="10.00">CDataStream::size</text>
</a>
</g>
</g>
<!-- Node590&#45;&gt;Node593 -->
<g id="edge5" class="edge"><title>Node590&#45;&gt;Node593</title>
<path fill="none" stroke="midnightblue" d="M413.622,-157.011C431.691,-160.776 453.295,-164.645 473,-166.5 520.183,-170.943 573.89,-170.66 613.835,-169.421"/>
<polygon fill="midnightblue" stroke="midnightblue" points="614.065,-172.916 623.941,-169.079 613.828,-165.92 614.065,-172.916"/>
</g>
<!-- Node594 -->
<g id="node7" class="node"><title>Node594</title>
<g id="a_node7"><a xlink:href="class_c_data_stream.html#a5b631dc9cc9d5ba6a5b6ee910bd7d8a8" target="_top" xlink:title="XOR the contents of this stream with a certain key. ">
<polygon fill="white" stroke="black" points="481.5,-138 481.5,-157 579.5,-157 579.5,-138 481.5,-138"/>
<text text-anchor="middle" x="530.5" y="-145" font-family="Helvetica,sans-Serif" font-size="10.00">CDataStream::Xor</text>
</a>
</g>
</g>
<!-- Node590&#45;&gt;Node594 -->
<g id="edge6" class="edge"><title>Node590&#45;&gt;Node594</title>
<path fill="none" stroke="midnightblue" d="M418.687,-147.5C435.128,-147.5 453.904,-147.5 471.27,-147.5"/>
<polygon fill="midnightblue" stroke="midnightblue" points="471.303,-151 481.303,-147.5 471.303,-144 471.303,-151"/>
</g>
<!-- Node595 -->
<g id="node8" class="node"><title>Node595</title>
<g id="a_node8"><a xlink:href="namespacedbwrapper__private.html#ab98d46ebc2a1c16becdf271f913b33a3" target="_top" xlink:title="Work around circular dependency, as well as for testing in dbwrapper_tests. ">
<polygon fill="white" stroke="black" points="479.5,-88.5 479.5,-118.5 581.5,-118.5 581.5,-88.5 479.5,-88.5"/>
<text text-anchor="start" x="487.5" y="-106.5" font-family="Helvetica,sans-Serif" font-size="10.00">dbwrapper_private::</text>
<text text-anchor="middle" x="530.5" y="-95.5" font-family="Helvetica,sans-Serif" font-size="10.00">GetObfuscateKey</text>
</a>
</g>
</g>
<!-- Node590&#45;&gt;Node595 -->
<g id="edge8" class="edge"><title>Node590&#45;&gt;Node595</title>
<path fill="none" stroke="midnightblue" d="M406.958,-137.953C425.196,-132.825 448.22,-126.352 469.374,-120.404"/>
<polygon fill="midnightblue" stroke="midnightblue" points="470.578,-123.702 479.257,-117.626 468.683,-116.963 470.578,-123.702"/>
</g>
<!-- Node596 -->
<g id="node9" class="node"><title>Node596</title>
<g id="a_node9"><a xlink:href="class_c_data_stream.html#ade6ed9a3a481e333900e6496707b9692" target="_top" xlink:title="CDataStream::clear">
<polygon fill="white" stroke="black" points="478.5,-50 478.5,-69 582.5,-69 582.5,-50 478.5,-50"/>
<text text-anchor="middle" x="530.5" y="-57" font-family="Helvetica,sans-Serif" font-size="10.00">CDataStream::clear</text>
</a>
</g>
</g>
<!-- Node590&#45;&gt;Node596 -->
<g id="edge9" class="edge"><title>Node590&#45;&gt;Node596</title>
<path fill="none" stroke="midnightblue" d="M384.632,-137.845C402.612,-123.311 438.673,-95.6868 473,-78.5 477.286,-76.3543 481.87,-74.3631 486.504,-72.5407"/>
<polygon fill="midnightblue" stroke="midnightblue" points="487.833,-75.7812 496.008,-69.0418 485.414,-69.2123 487.833,-75.7812"/>
</g>
<!-- Node594&#45;&gt;Node593 -->
<g id="edge7" class="edge"><title>Node594&#45;&gt;Node593</title>
<path fill="none" stroke="midnightblue" d="M579.575,-153.933C590.417,-155.383 602.058,-156.941 613.326,-158.449"/>
<polygon fill="midnightblue" stroke="midnightblue" points="613.16,-161.957 623.536,-159.815 614.089,-155.019 613.16,-161.957"/>
</g>
<!-- Node598 -->
<g id="node11" class="node"><title>Node598</title>
<g id="a_node11"><a xlink:href="namespacedbwrapper__private.html#a69015f423e1a3c2bcf387e4a208c3c36" target="_top" xlink:title="Handle database error by throwing dbwrapper_error exception. ">
<polygon fill="white" stroke="black" points="479.5,-0.5 479.5,-30.5 581.5,-30.5 581.5,-0.5 479.5,-0.5"/>
<text text-anchor="start" x="487.5" y="-18.5" font-family="Helvetica,sans-Serif" font-size="10.00">dbwrapper_private::</text>
<text text-anchor="middle" x="530.5" y="-7.5" font-family="Helvetica,sans-Serif" font-size="10.00">HandleError</text>
</a>
</g>
</g>
<!-- Node597&#45;&gt;Node598 -->
<g id="edge11" class="edge"><title>Node597&#45;&gt;Node598</title>
<path fill="none" stroke="midnightblue" d="M404.67,-52.9888C423.343,-47.3811 447.579,-40.1024 469.722,-33.4524"/>
<polygon fill="midnightblue" stroke="midnightblue" points="470.82,-36.7773 479.391,-30.5488 468.806,-30.0731 470.82,-36.7773"/>
</g>
</g>
</svg>
        <g id="navigator" transform="translate(0 0)" fill="#404254">
                <rect fill="#f2f5e9" fill-opacity="0.5" stroke="#606060" stroke-width=".5" x="0" y="0" width="60" height="60"/>
                <use id="zoomplus" xlink:href="#zoomPlus" x="17" y="9" onmousedown="handleZoom(evt,'in')"/>
                <use id="zoomminus" xlink:href="#zoomMin" x="42" y="9" onmousedown="handleZoom(evt,'out')"/>
                <use id="reset" xlink:href="#resetDef" x="30" y="36" onmousedown="handleReset()"/>
                <g id="arrowUp" xlink:href="#dirArrow" transform="translate(30 24)" onmousedown="handlePan(0,-1)">
                  <use xlink:href="#rim" fill="#404040">
                        <set attributeName="fill" to="#808080" begin="arrowUp.mouseover" end="arrowUp.mouseout"/>
                  </use>
                  <path fill="none" stroke="white" stroke-width="1.5" d="M0,-3.0v7 M-2.5,-0.5L0,-3.0L2.5,-0.5"/>
                </g>
                <g id="arrowRight" xlink:href="#dirArrow" transform="rotate(90) translate(36 -43)" onmousedown="handlePan(1,0)">
                  <use xlink:href="#rim" fill="#404040">
                        <set attributeName="fill" to="#808080" begin="arrowRight.mouseover" end="arrowRight.mouseout"/>
                  </use>
                  <path fill="none" stroke="white" stroke-width="1.5" d="M0,-3.0v7 M-2.5,-0.5L0,-3.0L2.5,-0.5"/>
                </g>
                <g id="arrowDown" xlink:href="#dirArrow" transform="rotate(180) translate(-30 -48)" onmousedown="handlePan(0,1)">
                  <use xlink:href="#rim" fill="#404040">
                        <set attributeName="fill" to="#808080" begin="arrowDown.mouseover" end="arrowDown.mouseout"/>
                  </use>
                  <path fill="none" stroke="white" stroke-width="1.5" d="M0,-3.0v7 M-2.5,-0.5L0,-3.0L2.5,-0.5"/>
                </g>
                <g id="arrowLeft" xlink:href="#dirArrow" transform="rotate(270) translate(-36 17)" onmousedown="handlePan(-1,0)">
                  <use xlink:href="#rim" fill="#404040">
                        <set attributeName="fill" to="#808080" begin="arrowLeft.mouseover" end="arrowLeft.mouseout"/>
                  </use>
                  <path fill="none" stroke="white" stroke-width="1.5" d="M0,-3.0v7 M-2.5,-0.5L0,-3.0L2.5,-0.5"/>
                </g>
        </g>
        <svg viewBox="0 0 15 15" width="100%" height="30px" preserveAspectRatio="xMaxYMin meet">
         <g id="arrow_out" transform="scale(0.3 0.3)">
          <a xlink:href="class_c_block_tree_d_b_af2f65b70ac5d8a198d4f29a7e909c08a_cgraph_org.svg" target="_base">
           <rect id="button" ry="5" rx="5" y="6" x="6" height="38" width="38"
                fill="#f2f5e9" fill-opacity="0.5" stroke="#606060" stroke-width="1.0"/>
           <path id="arrow"
             d="M 11.500037,31.436501 C 11.940474,20.09759 22.043105,11.32322 32.158766,21.979434 L 37.068811,17.246167 C 37.068811,17.246167 37.088388,32 37.088388,32 L 22.160133,31.978069 C 22.160133,31.978069 26.997745,27.140456 26.997745,27.140456 C 18.528582,18.264221 13.291696,25.230495 11.500037,31.436501 z"
             style="fill:#404040;"/>
          </a>
         </g>
        </svg>
</svg>
