<?xml version="1.0" encoding="UTF-8" standalone="no"?>
<!DOCTYPE svg PUBLIC "-//W3C//DTD SVG 1.1//EN"
 "http://www.w3.org/Graphics/SVG/1.1/DTD/svg11.dtd">
<!-- Generated by graphviz version 2.38.0 (20140413.2041)
 -->
<!-- Title: CPrivateSendClient::CheckAutomaticBackup Pages: 1 -->
<svg width="1030pt" height="104pt"
 viewBox="0.00 0.00 1030.00 104.00" xmlns="http://www.w3.org/2000/svg" xmlns:xlink="http://www.w3.org/1999/xlink">
<g id="graph0" class="graph" transform="scale(1 1) rotate(0) translate(4 100)">
<title>CPrivateSendClient::CheckAutomaticBackup</title>
<polygon fill="white" stroke="none" points="-4,4 -4,-100 1026,-100 1026,4 -4,4"/>
<!-- Node37 -->
<g id="node1" class="node"><title>Node37</title>
<polygon fill="#bfbfbf" stroke="black" points="0,-33 0,-63 128,-63 128,-33 0,-33"/>
<text text-anchor="start" x="8" y="-51" font-family="Helvetica,sans-Serif" font-size="10.00">CPrivateSendClient</text>
<text text-anchor="middle" x="64" y="-40" font-family="Helvetica,sans-Serif" font-size="10.00">::CheckAutomaticBackup</text>
</g>
<!-- Node38 -->
<g id="node2" class="node"><title>Node38</title>
<g id="a_node2"><a xlink:href="class_c_private_send_client.html#ad3438123cb41c93b5323f64bb52a7331" target="_top" xlink:title="Passively run mixing in the background according to the configuration in settings. ">
<polygon fill="white" stroke="black" points="164,-33 164,-63 304,-63 304,-33 164,-33"/>
<text text-anchor="start" x="172" y="-51" font-family="Helvetica,sans-Serif" font-size="10.00">CPrivateSendClient</text>
<text text-anchor="middle" x="234" y="-40" font-family="Helvetica,sans-Serif" font-size="10.00">::DoAutomaticDenominating</text>
</a>
</g>
</g>
<!-- Node37&#45;&gt;Node38 -->
<g id="edge1" class="edge"><title>Node37&#45;&gt;Node38</title>
<path fill="none" stroke="midnightblue" d="M138.05,-48C146.66,-48 155.428,-48 163.98,-48"/>
<polygon fill="midnightblue" stroke="midnightblue" points="138.035,-44.5001 128.035,-48 138.035,-51.5001 138.035,-44.5001"/>
</g>
<!-- Node39 -->
<g id="node3" class="node"><title>Node39</title>
<g id="a_node3"><a xlink:href="server_8h.html#a6f0f20fd2a24851d47a6120eeca7d3e4" target="_top" xlink:title="privatesend">
<polygon fill="white" stroke="black" points="385.5,-76.5 385.5,-95.5 452.5,-95.5 452.5,-76.5 385.5,-76.5"/>
<text text-anchor="middle" x="419" y="-83.5" font-family="Helvetica,sans-Serif" font-size="10.00">privatesend</text>
</a>
</g>
</g>
<!-- Node38&#45;&gt;Node39 -->
<g id="edge2" class="edge"><title>Node38&#45;&gt;Node39</title>
<path fill="none" stroke="midnightblue" d="M314.037,-64.412C338.988,-69.5932 365.2,-75.0361 385.062,-79.1604"/>
<polygon fill="midnightblue" stroke="midnightblue" points="314.687,-60.9725 304.184,-62.3662 313.264,-67.8263 314.687,-60.9725"/>
</g>
<!-- Node40 -->
<g id="node4" class="node"><title>Node40</title>
<g id="a_node4"><a xlink:href="privatesend-client_8h.html#a01b520827079bf595bfd4f72785026dc" target="_top" xlink:title="ThreadCheckPrivateSendClient">
<polygon fill="white" stroke="black" points="342,-38.5 342,-57.5 496,-57.5 496,-38.5 342,-38.5"/>
<text text-anchor="middle" x="419" y="-45.5" font-family="Helvetica,sans-Serif" font-size="10.00">ThreadCheckPrivateSendClient</text>
</a>
</g>
</g>
<!-- Node38&#45;&gt;Node40 -->
<g id="edge3" class="edge"><title>Node38&#45;&gt;Node40</title>
<path fill="none" stroke="midnightblue" d="M314.423,-48C323.572,-48 332.884,-48 341.985,-48"/>
<polygon fill="midnightblue" stroke="midnightblue" points="314.184,-44.5001 304.184,-48 314.184,-51.5001 314.184,-44.5001"/>
</g>
<!-- Node45 -->
<g id="node9" class="node"><title>Node45</title>
<g id="a_node9"><a xlink:href="class_overview_page.html#a26efca896ca89c09ebaba1020916ea59" target="_top" xlink:title="OverviewPage::privateSendAuto">
<polygon fill="white" stroke="black" points="340,-0.5 340,-19.5 498,-19.5 498,-0.5 340,-0.5"/>
<text text-anchor="middle" x="419" y="-7.5" font-family="Helvetica,sans-Serif" font-size="10.00">OverviewPage::privateSendAuto</text>
</a>
</g>
</g>
<!-- Node38&#45;&gt;Node45 -->
<g id="edge8" class="edge"><title>Node38&#45;&gt;Node45</title>
<path fill="none" stroke="midnightblue" d="M314.119,-31.571C333.888,-27.466 354.442,-23.1978 371.999,-19.5522"/>
<polygon fill="midnightblue" stroke="midnightblue" points="313.264,-28.1737 304.184,-33.6338 314.687,-35.0275 313.264,-28.1737"/>
</g>
<!-- Node41 -->
<g id="node5" class="node"><title>Node41</title>
<g id="a_node5"><a xlink:href="init_8h.html#a6f0784aa332573f949b0975205572b28" target="_top" xlink:title="Initialize Dash Core. ">
<polygon fill="white" stroke="black" points="584.5,-38.5 584.5,-57.5 637.5,-57.5 637.5,-38.5 584.5,-38.5"/>
<text text-anchor="middle" x="611" y="-45.5" font-family="Helvetica,sans-Serif" font-size="10.00">AppInit2</text>
</a>
</g>
</g>
<!-- Node40&#45;&gt;Node41 -->
<g id="edge4" class="edge"><title>Node40&#45;&gt;Node41</title>
<path fill="none" stroke="midnightblue" d="M506.194,-48C534.664,-48 564.198,-48 584.45,-48"/>
<polygon fill="midnightblue" stroke="midnightblue" points="506.186,-44.5001 496.185,-48 506.185,-51.5001 506.186,-44.5001"/>
</g>
<!-- Node42 -->
<g id="node6" class="node"><title>Node42</title>
<g id="a_node6"><a xlink:href="dashd_8cpp.html#ac59316b767e6984e1285f0531275286b" target="_top" xlink:title="AppInit">
<polygon fill="white" stroke="black" points="770.5,-76.5 770.5,-95.5 817.5,-95.5 817.5,-76.5 770.5,-76.5"/>
<text text-anchor="middle" x="794" y="-83.5" font-family="Helvetica,sans-Serif" font-size="10.00">AppInit</text>
</a>
</g>
</g>
<!-- Node41&#45;&gt;Node42 -->
<g id="edge5" class="edge"><title>Node41&#45;&gt;Node42</title>
<path fill="none" stroke="midnightblue" d="M647.749,-55.5053C684.208,-63.1597 739.663,-74.8021 770.434,-81.2623"/>
<polygon fill="midnightblue" stroke="midnightblue" points="648.055,-51.9933 637.549,-53.3639 646.616,-58.8439 648.055,-51.9933"/>
</g>
<!-- Node44 -->
<g id="node8" class="node"><title>Node44</title>
<g id="a_node8"><a xlink:href="class_bitcoin_core.html#af34ca069cda1d4362dcc109b4397fb62" target="_top" xlink:title="BitcoinCore::initialize">
<polygon fill="white" stroke="black" points="739.5,-38.5 739.5,-57.5 848.5,-57.5 848.5,-38.5 739.5,-38.5"/>
<text text-anchor="middle" x="794" y="-45.5" font-family="Helvetica,sans-Serif" font-size="10.00">BitcoinCore::initialize</text>
</a>
</g>
</g>
<!-- Node41&#45;&gt;Node44 -->
<g id="edge7" class="edge"><title>Node41&#45;&gt;Node44</title>
<path fill="none" stroke="midnightblue" d="M647.746,-48C673.861,-48 709.722,-48 739.278,-48"/>
<polygon fill="midnightblue" stroke="midnightblue" points="647.549,-44.5001 637.549,-48 647.549,-51.5001 647.549,-44.5001"/>
</g>
<!-- Node43 -->
<g id="node7" class="node"><title>Node43</title>
<g id="a_node7"><a xlink:href="dashd_8cpp.html#a0ddf1224851353fc92bfbff6f499fa97" target="_top" xlink:title="main">
<polygon fill="white" stroke="black" points="942,-76.5 942,-95.5 980,-95.5 980,-76.5 942,-76.5"/>
<text text-anchor="middle" x="961" y="-83.5" font-family="Helvetica,sans-Serif" font-size="10.00">main</text>
</a>
</g>
</g>
<!-- Node42&#45;&gt;Node43 -->
<g id="edge6" class="edge"><title>Node42&#45;&gt;Node43</title>
<path fill="none" stroke="midnightblue" d="M828.007,-86C862.185,-86 914.34,-86 941.735,-86"/>
<polygon fill="midnightblue" stroke="midnightblue" points="827.597,-82.5001 817.597,-86 827.597,-89.5001 827.597,-82.5001"/>
</g>
<!-- Node46 -->
<g id="node10" class="node"><title>Node46</title>
<g id="a_node10"><a xlink:href="class_overview_page.html#a2ed52a3a87e9c74fee38fa873c9bc71f" target="_top" xlink:title="OverviewPage::setWalletModel">
<polygon fill="white" stroke="black" points="534,-0.5 534,-19.5 688,-19.5 688,-0.5 534,-0.5"/>
<text text-anchor="middle" x="611" y="-7.5" font-family="Helvetica,sans-Serif" font-size="10.00">OverviewPage::setWalletModel</text>
</a>
</g>
</g>
<!-- Node45&#45;&gt;Node46 -->
<g id="edge9" class="edge"><title>Node45&#45;&gt;Node46</title>
<path fill="none" stroke="midnightblue" d="M508.381,-10C516.852,-10 525.393,-10 533.733,-10"/>
<polygon fill="midnightblue" stroke="midnightblue" points="508.103,-6.5001 498.103,-10 508.103,-13.5001 508.103,-6.5001"/>
</g>
<!-- Node47 -->
<g id="node11" class="node"><title>Node47</title>
<g id="a_node11"><a xlink:href="class_wallet_view.html#a0a37ff693a4f9c1e5ddc23f9cd3913be" target="_top" xlink:title="Set the wallet model. ">
<polygon fill="white" stroke="black" points="724,-0.5 724,-19.5 864,-19.5 864,-0.5 724,-0.5"/>
<text text-anchor="middle" x="794" y="-7.5" font-family="Helvetica,sans-Serif" font-size="10.00">WalletView::setWalletModel</text>
</a>
</g>
</g>
<!-- Node46&#45;&gt;Node47 -->
<g id="edge10" class="edge"><title>Node46&#45;&gt;Node47</title>
<path fill="none" stroke="midnightblue" d="M698.241,-10C706.8,-10 715.409,-10 723.763,-10"/>
<polygon fill="midnightblue" stroke="midnightblue" points="698.236,-6.5001 688.236,-10 698.236,-13.5001 698.236,-6.5001"/>
</g>
<!-- Node48 -->
<g id="node12" class="node"><title>Node48</title>
<g id="a_node12"><a xlink:href="class_wallet_frame.html#aa199c3f27654199d84c365cf86167d86" target="_top" xlink:title="WalletFrame::addWallet">
<polygon fill="white" stroke="black" points="900,-0.5 900,-19.5 1022,-19.5 1022,-0.5 900,-0.5"/>
<text text-anchor="middle" x="961" y="-7.5" font-family="Helvetica,sans-Serif" font-size="10.00">WalletFrame::addWallet</text>
</a>
</g>
</g>
<!-- Node47&#45;&gt;Node48 -->
<g id="edge11" class="edge"><title>Node47&#45;&gt;Node48</title>
<path fill="none" stroke="midnightblue" d="M874.146,-10C882.813,-10 891.528,-10 899.91,-10"/>
<polygon fill="midnightblue" stroke="midnightblue" points="874.019,-6.5001 864.019,-10 874.019,-13.5001 874.019,-6.5001"/>
</g>
</g>
</svg>
