<?xml version="1.0" encoding="UTF-8" standalone="no"?>
<!DOCTYPE svg PUBLIC "-//W3C//DTD SVG 1.1//EN"
 "http://www.w3.org/Graphics/SVG/1.1/DTD/svg11.dtd">
<!-- Generated by graphviz version 2.38.0 (20140413.2041)
 -->
<!-- Title: PaymentServer::readPaymentRequestFromFile Pages: 1 -->
<svg width="799pt" height="142pt"
 viewBox="0.00 0.00 799.00 142.00" xmlns="http://www.w3.org/2000/svg" xmlns:xlink="http://www.w3.org/1999/xlink">
<g id="graph0" class="graph" transform="scale(1 1) rotate(0) translate(4 138)">
<title>PaymentServer::readPaymentRequestFromFile</title>
<polygon fill="white" stroke="none" points="-4,4 -4,-138 795,-138 795,4 -4,4"/>
<!-- Node810 -->
<g id="node1" class="node"><title>Node810</title>
<polygon fill="#bfbfbf" stroke="black" points="0,-37 0,-67 148,-67 148,-37 0,-37"/>
<text text-anchor="start" x="8" y="-55" font-family="Helvetica,sans-Serif" font-size="10.00">PaymentServer::readPayment</text>
<text text-anchor="middle" x="74" y="-44" font-family="Helvetica,sans-Serif" font-size="10.00">RequestFromFile</text>
</g>
<!-- Node811 -->
<g id="node2" class="node"><title>Node811</title>
<g id="a_node2"><a xlink:href="class_payment_server.html#adf4f844b3ce7f053690fd9260210640d" target="_top" xlink:title="PaymentServer::handleURIOrFile">
<polygon fill="white" stroke="black" points="198,-66.5 198,-85.5 361,-85.5 361,-66.5 198,-66.5"/>
<text text-anchor="middle" x="279.5" y="-73.5" font-family="Helvetica,sans-Serif" font-size="10.00">PaymentServer::handleURIOrFile</text>
</a>
</g>
</g>
<!-- Node810&#45;&gt;Node811 -->
<g id="edge1" class="edge"><title>Node810&#45;&gt;Node811</title>
<path fill="none" stroke="midnightblue" d="M158.469,-61.844C171.428,-63.3724 184.796,-64.949 197.695,-66.4702"/>
<polygon fill="midnightblue" stroke="midnightblue" points="158.522,-58.3261 148.181,-60.6306 157.702,-65.2779 158.522,-58.3261"/>
</g>
<!-- Node816 -->
<g id="node7" class="node"><title>Node816</title>
<g id="a_node7"><a xlink:href="class_payment_server.html#a6fa5530162603b2b07d0398ead7ce0b3" target="_top" xlink:title="PaymentServer::ipcParseCommandLine">
<polygon fill="white" stroke="black" points="184,-19.5 184,-38.5 375,-38.5 375,-19.5 184,-19.5"/>
<text text-anchor="middle" x="279.5" y="-26.5" font-family="Helvetica,sans-Serif" font-size="10.00">PaymentServer::ipcParseCommandLine</text>
</a>
</g>
</g>
<!-- Node810&#45;&gt;Node816 -->
<g id="edge6" class="edge"><title>Node810&#45;&gt;Node816</title>
<path fill="none" stroke="midnightblue" d="M158.447,-42.5686C170.248,-41.2348 182.389,-39.8626 194.206,-38.527"/>
<polygon fill="midnightblue" stroke="midnightblue" points="157.724,-39.128 148.181,-43.729 158.511,-46.0837 157.724,-39.128"/>
</g>
<!-- Node812 -->
<g id="node3" class="node"><title>Node812</title>
<g id="a_node3"><a xlink:href="class_payment_server.html#af795e3c318556c833792e530b279efc9" target="_top" xlink:title="PaymentServer::eventFilter">
<polygon fill="white" stroke="black" points="436,-114.5 436,-133.5 572,-133.5 572,-114.5 436,-114.5"/>
<text text-anchor="middle" x="504" y="-121.5" font-family="Helvetica,sans-Serif" font-size="10.00">PaymentServer::eventFilter</text>
</a>
</g>
</g>
<!-- Node811&#45;&gt;Node812 -->
<g id="edge2" class="edge"><title>Node811&#45;&gt;Node812</title>
<path fill="none" stroke="midnightblue" d="M332.69,-87.7858C356.547,-93.125 385.186,-99.4666 411,-105 425.671,-108.145 441.679,-111.483 456.169,-114.47"/>
<polygon fill="midnightblue" stroke="midnightblue" points="333.304,-84.3367 322.781,-85.5643 331.773,-91.1672 333.304,-84.3367"/>
</g>
<!-- Node813 -->
<g id="node4" class="node"><title>Node813</title>
<g id="a_node4"><a xlink:href="class_payment_server.html#a6ee6e29e1255605582459463d195a651" target="_top" xlink:title="PaymentServer::handleURIConnection">
<polygon fill="white" stroke="black" points="411,-76.5 411,-95.5 597,-95.5 597,-76.5 411,-76.5"/>
<text text-anchor="middle" x="504" y="-83.5" font-family="Helvetica,sans-Serif" font-size="10.00">PaymentServer::handleURIConnection</text>
</a>
</g>
</g>
<!-- Node811&#45;&gt;Node813 -->
<g id="edge3" class="edge"><title>Node811&#45;&gt;Node813</title>
<path fill="none" stroke="midnightblue" d="M371.484,-80.0892C384.499,-80.6741 397.898,-81.2763 410.934,-81.8622"/>
<polygon fill="midnightblue" stroke="midnightblue" points="371.289,-76.577 361.142,-79.6244 370.975,-83.5699 371.289,-76.577"/>
</g>
<!-- Node815 -->
<g id="node6" class="node"><title>Node815</title>
<g id="a_node6"><a xlink:href="class_payment_server.html#abb6c65fabbf97ba95381997ca9cd6993" target="_top" xlink:title="PaymentServer::uiReady">
<polygon fill="white" stroke="black" points="441,-38.5 441,-57.5 567,-57.5 567,-38.5 441,-38.5"/>
<text text-anchor="middle" x="504" y="-45.5" font-family="Helvetica,sans-Serif" font-size="10.00">PaymentServer::uiReady</text>
</a>
</g>
</g>
<!-- Node811&#45;&gt;Node815 -->
<g id="edge5" class="edge"><title>Node811&#45;&gt;Node815</title>
<path fill="none" stroke="midnightblue" d="M366.292,-65.2038C391.135,-62.0774 417.768,-58.7258 440.867,-55.819"/>
<polygon fill="midnightblue" stroke="midnightblue" points="365.624,-61.7601 356.139,-66.4814 366.498,-68.7054 365.624,-61.7601"/>
</g>
<!-- Node814 -->
<g id="node5" class="node"><title>Node814</title>
<g id="a_node5"><a xlink:href="class_payment_server.html#a4a66f55c11f4757b121179d5d6988ab2" target="_top" xlink:title="PaymentServer::PaymentServer">
<polygon fill="white" stroke="black" points="633,-76.5 633,-95.5 791,-95.5 791,-76.5 633,-76.5"/>
<text text-anchor="middle" x="712" y="-83.5" font-family="Helvetica,sans-Serif" font-size="10.00">PaymentServer::PaymentServer</text>
</a>
</g>
</g>
<!-- Node813&#45;&gt;Node814 -->
<g id="edge4" class="edge"><title>Node813&#45;&gt;Node814</title>
<path fill="none" stroke="midnightblue" d="M607.22,-86C615.809,-86 624.405,-86 632.769,-86"/>
<polygon fill="midnightblue" stroke="midnightblue" points="607.155,-82.5001 597.155,-86 607.155,-89.5001 607.155,-82.5001"/>
</g>
<!-- Node817 -->
<g id="node8" class="node"><title>Node817</title>
<g id="a_node8"><a xlink:href="dash_8cpp.html#a0ddf1224851353fc92bfbff6f499fa97" target="_top" xlink:title="main">
<polygon fill="white" stroke="black" points="485,-0.5 485,-19.5 523,-19.5 523,-0.5 485,-0.5"/>
<text text-anchor="middle" x="504" y="-7.5" font-family="Helvetica,sans-Serif" font-size="10.00">main</text>
</a>
</g>
</g>
<!-- Node816&#45;&gt;Node817 -->
<g id="edge7" class="edge"><title>Node816&#45;&gt;Node817</title>
<path fill="none" stroke="midnightblue" d="M385.362,-20.0455C423.469,-16.7914 462.579,-13.4517 484.728,-11.5603"/>
<polygon fill="midnightblue" stroke="midnightblue" points="384.849,-16.5765 375.183,-20.9147 385.444,-23.5511 384.849,-16.5765"/>
</g>
</g>
</svg>
