<?xml version="1.0" encoding="UTF-8" standalone="no"?>
<!DOCTYPE svg PUBLIC "-//W3C//DTD SVG 1.1//EN"
 "http://www.w3.org/Graphics/SVG/1.1/DTD/svg11.dtd">
<!-- Generated by graphviz version 2.38.0 (20140413.2041)
 -->
<!-- Title: CKey::Check Pages: 1 -->
<svg width="1672pt" height="507pt"
 viewBox="0.00 0.00 1672.00 507.00" xmlns="http://www.w3.org/2000/svg" xmlns:xlink="http://www.w3.org/1999/xlink">
<g id="graph0" class="graph" transform="scale(1 1) rotate(0) translate(4 503)">
<title>CKey::Check</title>
<polygon fill="white" stroke="none" points="-4,4 -4,-503 1668,-503 1668,4 -4,4"/>
<!-- Node193 -->
<g id="node1" class="node"><title>Node193</title>
<polygon fill="#bfbfbf" stroke="black" points="0,-284.5 0,-303.5 76,-303.5 76,-284.5 0,-284.5"/>
<text text-anchor="middle" x="38" y="-291.5" font-family="Helvetica,sans-Serif" font-size="10.00">CKey::Check</text>
</g>
<!-- Node194 -->
<g id="node2" class="node"><title>Node194</title>
<g id="a_node2"><a xlink:href="class_c_key.html#a9d12ed9d297e4286250fd7ea6b59e1a5" target="_top" xlink:title="Generate a new private key using a cryptographic PRNG. ">
<polygon fill="white" stroke="black" points="112,-416.5 112,-435.5 221,-435.5 221,-416.5 112,-416.5"/>
<text text-anchor="middle" x="166.5" y="-423.5" font-family="Helvetica,sans-Serif" font-size="10.00">CKey::MakeNewKey</text>
</a>
</g>
</g>
<!-- Node193&#45;&gt;Node194 -->
<g id="edge1" class="edge"><title>Node193&#45;&gt;Node194</title>
<path fill="none" stroke="midnightblue" d="M55.7065,-311.433C82.6971,-339.597 135.01,-394.184 156.225,-416.322"/>
<polygon fill="midnightblue" stroke="midnightblue" points="57.9541,-308.72 48.5081,-303.921 52.9002,-313.563 57.9541,-308.72"/>
</g>
<!-- Node203 -->
<g id="node11" class="node"><title>Node203</title>
<g id="a_node11"><a xlink:href="class_c_key.html#aaa13d5f08456bba094210c5eeabf64c8" target="_top" xlink:title="Initialize using begin and end iterators to byte data. ">
<polygon fill="white" stroke="black" points="135.5,-152.5 135.5,-171.5 197.5,-171.5 197.5,-152.5 135.5,-152.5"/>
<text text-anchor="middle" x="166.5" y="-159.5" font-family="Helvetica,sans-Serif" font-size="10.00">CKey::Set</text>
</a>
</g>
</g>
<!-- Node193&#45;&gt;Node203 -->
<g id="edge10" class="edge"><title>Node193&#45;&gt;Node203</title>
<path fill="none" stroke="midnightblue" d="M55.7065,-276.567C82.6971,-248.403 135.01,-193.816 156.225,-171.678"/>
<polygon fill="midnightblue" stroke="midnightblue" points="52.9002,-274.437 48.5081,-284.079 57.9541,-279.28 52.9002,-274.437"/>
</g>
<!-- Node195 -->
<g id="node3" class="node"><title>Node195</title>
<g id="a_node3"><a xlink:href="key_8h.html#a55cc40f04bf887c1000667caccb0684a" target="_top" xlink:title="Check that required EC support is available at runtime. ">
<polygon fill="white" stroke="black" points="268,-397.5 268,-416.5 381,-416.5 381,-397.5 268,-397.5"/>
<text text-anchor="middle" x="324.5" y="-404.5" font-family="Helvetica,sans-Serif" font-size="10.00">ECC_InitSanityCheck</text>
</a>
</g>
</g>
<!-- Node194&#45;&gt;Node195 -->
<g id="edge2" class="edge"><title>Node194&#45;&gt;Node195</title>
<path fill="none" stroke="midnightblue" d="M231.243,-418.236C243.381,-416.758 255.995,-415.222 267.857,-413.777"/>
<polygon fill="midnightblue" stroke="midnightblue" points="230.69,-414.778 221.186,-419.461 231.536,-421.727 230.69,-414.778"/>
</g>
<!-- Node201 -->
<g id="node9" class="node"><title>Node201</title>
<g id="a_node9"><a xlink:href="server_8h.html#adc51a168fd3ea207996ae4f8d9d6c6ea" target="_top" xlink:title="masternode">
<polygon fill="white" stroke="black" points="290.5,-473.5 290.5,-492.5 358.5,-492.5 358.5,-473.5 290.5,-473.5"/>
<text text-anchor="middle" x="324.5" y="-480.5" font-family="Helvetica,sans-Serif" font-size="10.00">masternode</text>
</a>
</g>
</g>
<!-- Node194&#45;&gt;Node201 -->
<g id="edge8" class="edge"><title>Node194&#45;&gt;Node201</title>
<path fill="none" stroke="midnightblue" d="M197.693,-439.918C214.874,-447.559 236.911,-456.896 257,-464 267.754,-467.803 279.684,-471.4 290.437,-474.42"/>
<polygon fill="midnightblue" stroke="midnightblue" points="198.746,-436.554 188.19,-435.645 195.875,-442.938 198.746,-436.554"/>
</g>
<!-- Node202 -->
<g id="node10" class="node"><title>Node202</title>
<g id="a_node10"><a xlink:href="group__map_wallet.html#ga8495da27a11e957d31d7cf6e60c7422d" target="_top" xlink:title="keystore implementation Generate a new key ">
<polygon fill="white" stroke="black" points="257,-435.5 257,-454.5 392,-454.5 392,-435.5 257,-435.5"/>
<text text-anchor="middle" x="324.5" y="-442.5" font-family="Helvetica,sans-Serif" font-size="10.00">CWallet::GenerateNewKey</text>
</a>
</g>
</g>
<!-- Node194&#45;&gt;Node202 -->
<g id="edge9" class="edge"><title>Node194&#45;&gt;Node202</title>
<path fill="none" stroke="midnightblue" d="M231.29,-433.769C239.688,-434.792 248.313,-435.843 256.759,-436.871"/>
<polygon fill="midnightblue" stroke="midnightblue" points="231.536,-430.273 221.186,-432.539 230.69,-437.222 231.536,-430.273"/>
</g>
<!-- Node196 -->
<g id="node4" class="node"><title>Node196</title>
<g id="a_node4"><a xlink:href="init_8cpp.html#a878797b40fb8eb0d7f330a41d7742d11" target="_top" xlink:title="Sanity checks Ensure that Dash Core is running in a usable environment with all necessary library sup...">
<polygon fill="white" stroke="black" points="658,-441.5 658,-460.5 744,-460.5 744,-441.5 658,-441.5"/>
<text text-anchor="middle" x="701" y="-448.5" font-family="Helvetica,sans-Serif" font-size="10.00">InitSanityCheck</text>
</a>
</g>
</g>
<!-- Node195&#45;&gt;Node196 -->
<g id="edge3" class="edge"><title>Node195&#45;&gt;Node196</title>
<path fill="none" stroke="midnightblue" d="M368.219,-419.135C386.491,-423.877 408.148,-428.909 428,-432 508.684,-444.565 604.134,-448.823 657.816,-450.265"/>
<polygon fill="midnightblue" stroke="midnightblue" points="369.013,-415.724 358.45,-416.544 367.219,-422.49 369.013,-415.724"/>
</g>
<!-- Node197 -->
<g id="node5" class="node"><title>Node197</title>
<g id="a_node5"><a xlink:href="init_8h.html#a6f0784aa332573f949b0975205572b28" target="_top" xlink:title="Initialize Dash Core. ">
<polygon fill="white" stroke="black" points="855,-403.5 855,-422.5 908,-422.5 908,-403.5 855,-403.5"/>
<text text-anchor="middle" x="881.5" y="-410.5" font-family="Helvetica,sans-Serif" font-size="10.00">AppInit2</text>
</a>
</g>
</g>
<!-- Node196&#45;&gt;Node197 -->
<g id="edge4" class="edge"><title>Node196&#45;&gt;Node197</title>
<path fill="none" stroke="midnightblue" d="M754.273,-439.872C787.337,-432.833 828.626,-424.043 854.787,-418.474"/>
<polygon fill="midnightblue" stroke="midnightblue" points="753.354,-436.489 744.302,-441.995 754.812,-443.336 753.354,-436.489"/>
</g>
<!-- Node198 -->
<g id="node6" class="node"><title>Node198</title>
<g id="a_node6"><a xlink:href="dashd_8cpp.html#ac59316b767e6984e1285f0531275286b" target="_top" xlink:title="AppInit">
<polygon fill="white" stroke="black" points="1045,-422.5 1045,-441.5 1092,-441.5 1092,-422.5 1045,-422.5"/>
<text text-anchor="middle" x="1068.5" y="-429.5" font-family="Helvetica,sans-Serif" font-size="10.00">AppInit</text>
</a>
</g>
</g>
<!-- Node197&#45;&gt;Node198 -->
<g id="edge5" class="edge"><title>Node197&#45;&gt;Node198</title>
<path fill="none" stroke="midnightblue" d="M918.205,-416.667C955.636,-420.511 1013.31,-426.434 1044.9,-429.679"/>
<polygon fill="midnightblue" stroke="midnightblue" points="918.529,-413.182 908.223,-415.642 917.814,-420.145 918.529,-413.182"/>
</g>
<!-- Node200 -->
<g id="node8" class="node"><title>Node200</title>
<g id="a_node8"><a xlink:href="class_bitcoin_core.html#af34ca069cda1d4362dcc109b4397fb62" target="_top" xlink:title="BitcoinCore::initialize">
<polygon fill="white" stroke="black" points="1014,-384.5 1014,-403.5 1123,-403.5 1123,-384.5 1014,-384.5"/>
<text text-anchor="middle" x="1068.5" y="-391.5" font-family="Helvetica,sans-Serif" font-size="10.00">BitcoinCore::initialize</text>
</a>
</g>
</g>
<!-- Node197&#45;&gt;Node200 -->
<g id="edge7" class="edge"><title>Node197&#45;&gt;Node200</title>
<path fill="none" stroke="midnightblue" d="M918.426,-409.31C945.547,-406.525 983.202,-402.658 1013.88,-399.507"/>
<polygon fill="midnightblue" stroke="midnightblue" points="917.814,-405.855 908.223,-410.358 918.529,-412.818 917.814,-405.855"/>
</g>
<!-- Node199 -->
<g id="node7" class="node"><title>Node199</title>
<g id="a_node7"><a xlink:href="dashd_8cpp.html#a0ddf1224851353fc92bfbff6f499fa97" target="_top" xlink:title="main">
<polygon fill="white" stroke="black" points="1251,-422.5 1251,-441.5 1289,-441.5 1289,-422.5 1251,-422.5"/>
<text text-anchor="middle" x="1270" y="-429.5" font-family="Helvetica,sans-Serif" font-size="10.00">main</text>
</a>
</g>
</g>
<!-- Node198&#45;&gt;Node199 -->
<g id="edge6" class="edge"><title>Node198&#45;&gt;Node199</title>
<path fill="none" stroke="midnightblue" d="M1102.49,-432C1144.92,-432 1217.15,-432 1250.78,-432"/>
<polygon fill="midnightblue" stroke="midnightblue" points="1102.39,-428.5 1092.39,-432 1102.39,-435.5 1102.39,-428.5"/>
</g>
<!-- Node204 -->
<g id="node12" class="node"><title>Node204</title>
<g id="a_node12"><a xlink:href="class_c_bitcoin_secret.html#a4d6bf559d092e6d47f8001c7171096df" target="_top" xlink:title="CBitcoinSecret::GetKey">
<polygon fill="white" stroke="black" points="263.5,-315.5 263.5,-334.5 385.5,-334.5 385.5,-315.5 263.5,-315.5"/>
<text text-anchor="middle" x="324.5" y="-322.5" font-family="Helvetica,sans-Serif" font-size="10.00">CBitcoinSecret::GetKey</text>
</a>
</g>
</g>
<!-- Node203&#45;&gt;Node204 -->
<g id="edge11" class="edge"><title>Node203&#45;&gt;Node204</title>
<path fill="none" stroke="midnightblue" d="M183.803,-179.035C216.305,-212.995 288.256,-288.175 314.06,-315.137"/>
<polygon fill="midnightblue" stroke="midnightblue" points="186.234,-176.513 176.791,-171.708 181.177,-181.353 186.234,-176.513"/>
</g>
<!-- Node216 -->
<g id="node24" class="node"><title>Node216</title>
<g id="a_node24"><a xlink:href="struct_c_ext_key.html#a8cd6ecafdd649082601d7eebbec79688" target="_top" xlink:title="CExtKey::SetMaster">
<polygon fill="white" stroke="black" points="271,-152.5 271,-171.5 378,-171.5 378,-152.5 271,-152.5"/>
<text text-anchor="middle" x="324.5" y="-159.5" font-family="Helvetica,sans-Serif" font-size="10.00">CExtKey::SetMaster</text>
</a>
</g>
</g>
<!-- Node203&#45;&gt;Node216 -->
<g id="edge24" class="edge"><title>Node203&#45;&gt;Node216</title>
<path fill="none" stroke="midnightblue" d="M207.787,-162C226.982,-162 250.19,-162 270.767,-162"/>
<polygon fill="midnightblue" stroke="midnightblue" points="207.578,-158.5 197.578,-162 207.578,-165.5 207.578,-158.5"/>
</g>
<!-- Node238 -->
<g id="node46" class="node"><title>Node238</title>
<g id="a_node46"><a xlink:href="struct_c_ext_key.html#a9720e119745472336b6729e19f0819dd" target="_top" xlink:title="CExtKey::Decode">
<polygon fill="white" stroke="black" points="276.5,-19.5 276.5,-38.5 372.5,-38.5 372.5,-19.5 276.5,-19.5"/>
<text text-anchor="middle" x="324.5" y="-26.5" font-family="Helvetica,sans-Serif" font-size="10.00">CExtKey::Decode</text>
</a>
</g>
</g>
<!-- Node203&#45;&gt;Node238 -->
<g id="edge49" class="edge"><title>Node203&#45;&gt;Node238</title>
<path fill="none" stroke="midnightblue" d="M181.319,-144.435C197.854,-124.156 227.073,-90.5723 257,-67 271.415,-55.6456 289.613,-45.4903 303.327,-38.5408"/>
<polygon fill="midnightblue" stroke="midnightblue" points="178.384,-142.5 174.851,-152.488 183.842,-146.883 178.384,-142.5"/>
</g>
<!-- Node240 -->
<g id="node48" class="node"><title>Node240</title>
<g id="a_node48"><a xlink:href="crypter_8cpp.html#a706e11496e7a89bd65def6cce072ca77" target="_top" xlink:title="DecryptKey">
<polygon fill="white" stroke="black" points="290.5,-76.5 290.5,-95.5 358.5,-95.5 358.5,-76.5 290.5,-76.5"/>
<text text-anchor="middle" x="324.5" y="-83.5" font-family="Helvetica,sans-Serif" font-size="10.00">DecryptKey</text>
</a>
</g>
</g>
<!-- Node203&#45;&gt;Node240 -->
<g id="edge51" class="edge"><title>Node203&#45;&gt;Node240</title>
<path fill="none" stroke="midnightblue" d="M196.357,-147.941C227.665,-132.689 276.795,-108.754 303.903,-95.5473"/>
<polygon fill="midnightblue" stroke="midnightblue" points="194.715,-144.848 187.258,-152.375 197.78,-151.141 194.715,-144.848"/>
</g>
<!-- Node205 -->
<g id="node13" class="node"><title>Node205</title>
<g id="a_node13"><a xlink:href="class_c_message_signer.html#a19e001b31704eef8c0cf4a885be138cd" target="_top" xlink:title="Set the private/public key values, returns true if successful. ">
<polygon fill="white" stroke="black" points="428,-354 428,-384 586,-384 586,-354 428,-354"/>
<text text-anchor="start" x="436" y="-372" font-family="Helvetica,sans-Serif" font-size="10.00">CMessageSigner::GetKeysFrom</text>
<text text-anchor="middle" x="507" y="-361" font-family="Helvetica,sans-Serif" font-size="10.00">Secret</text>
</a>
</g>
</g>
<!-- Node204&#45;&gt;Node205 -->
<g id="edge12" class="edge"><title>Node204&#45;&gt;Node205</title>
<path fill="none" stroke="midnightblue" d="M374.543,-336.955C396.015,-342.189 421.449,-348.389 444.198,-353.935"/>
<polygon fill="midnightblue" stroke="midnightblue" points="375.21,-333.515 364.666,-334.547 373.552,-340.316 375.21,-333.515"/>
</g>
<!-- Node208 -->
<g id="node16" class="node"><title>Node208</title>
<g id="a_node16"><a xlink:href="rpcdump_8cpp.html#accfe82c51846b7751eaae727e7f56631" target="_top" xlink:title="importelectrumwallet">
<polygon fill="white" stroke="black" points="453.5,-277.5 453.5,-296.5 560.5,-296.5 560.5,-277.5 453.5,-277.5"/>
<text text-anchor="middle" x="507" y="-284.5" font-family="Helvetica,sans-Serif" font-size="10.00">importelectrumwallet</text>
</a>
</g>
</g>
<!-- Node204&#45;&gt;Node208 -->
<g id="edge16" class="edge"><title>Node204&#45;&gt;Node208</title>
<path fill="none" stroke="midnightblue" d="M380.985,-313.319C406.582,-307.93 436.584,-301.614 460.78,-296.52"/>
<polygon fill="midnightblue" stroke="midnightblue" points="380.112,-309.926 371.048,-315.411 381.554,-316.776 380.112,-309.926"/>
</g>
<!-- Node209 -->
<g id="node17" class="node"><title>Node209</title>
<g id="a_node17"><a xlink:href="rpcdump_8cpp.html#ace3f8652191a347b888627b8e0a1d17c" target="_top" xlink:title="importprivkey">
<polygon fill="white" stroke="black" points="469.5,-239.5 469.5,-258.5 544.5,-258.5 544.5,-239.5 469.5,-239.5"/>
<text text-anchor="middle" x="507" y="-246.5" font-family="Helvetica,sans-Serif" font-size="10.00">importprivkey</text>
</a>
</g>
</g>
<!-- Node204&#45;&gt;Node209 -->
<g id="edge17" class="edge"><title>Node204&#45;&gt;Node209</title>
<path fill="none" stroke="midnightblue" d="M348.333,-309.948C368.547,-297.206 399.227,-279.267 428,-268 441.108,-262.867 456.014,-258.827 469.259,-255.816"/>
<polygon fill="midnightblue" stroke="midnightblue" points="346.361,-307.055 339.826,-315.394 350.135,-312.95 346.361,-307.055"/>
</g>
<!-- Node210 -->
<g id="node18" class="node"><title>Node210</title>
<g id="a_node18"><a xlink:href="rpcdump_8cpp.html#a71dce63ec2a80b836bab5f31fef8da46" target="_top" xlink:title="importwallet">
<polygon fill="white" stroke="black" points="472.5,-403.5 472.5,-422.5 541.5,-422.5 541.5,-403.5 472.5,-403.5"/>
<text text-anchor="middle" x="507" y="-410.5" font-family="Helvetica,sans-Serif" font-size="10.00">importwallet</text>
</a>
</g>
</g>
<!-- Node204&#45;&gt;Node210 -->
<g id="edge18" class="edge"><title>Node204&#45;&gt;Node210</title>
<path fill="none" stroke="midnightblue" d="M344.98,-340.83C364.783,-356.196 396.894,-379.169 428,-393 441.924,-399.191 458.131,-403.736 472.153,-406.914"/>
<polygon fill="midnightblue" stroke="midnightblue" points="347.057,-338.011 337.04,-334.561 342.72,-343.505 347.057,-338.011"/>
</g>
<!-- Node211 -->
<g id="node19" class="node"><title>Node211</title>
<g id="a_node19"><a xlink:href="dash-tx_8cpp.html#a4530b9267f4e55a4dd36f329d42e9545" target="_top" xlink:title="MutateTxSign">
<polygon fill="white" stroke="black" points="468.5,-479.5 468.5,-498.5 545.5,-498.5 545.5,-479.5 468.5,-479.5"/>
<text text-anchor="middle" x="507" y="-486.5" font-family="Helvetica,sans-Serif" font-size="10.00">MutateTxSign</text>
</a>
</g>
</g>
<!-- Node204&#45;&gt;Node211 -->
<g id="edge19" class="edge"><title>Node204&#45;&gt;Node211</title>
<path fill="none" stroke="midnightblue" d="M344.521,-341.834C358.165,-354.189 376.754,-371.604 392,-388 409.206,-406.503 409.652,-414.628 428,-432 447.852,-450.796 474.046,-468.765 490.457,-479.34"/>
<polygon fill="midnightblue" stroke="midnightblue" points="346.519,-338.924 336.739,-334.849 341.844,-344.133 346.519,-338.924"/>
</g>
<!-- Node215 -->
<g id="node23" class="node"><title>Node215</title>
<g id="a_node23"><a xlink:href="server_8h.html#a20a66f1d55549861fea58975ebe5c3fd" target="_top" xlink:title="signrawtransaction">
<polygon fill="white" stroke="black" points="458,-315.5 458,-334.5 556,-334.5 556,-315.5 458,-315.5"/>
<text text-anchor="middle" x="507" y="-322.5" font-family="Helvetica,sans-Serif" font-size="10.00">signrawtransaction</text>
</a>
</g>
</g>
<!-- Node204&#45;&gt;Node215 -->
<g id="edge23" class="edge"><title>Node204&#45;&gt;Node215</title>
<path fill="none" stroke="midnightblue" d="M395.673,-325C416.473,-325 438.771,-325 457.839,-325"/>
<polygon fill="midnightblue" stroke="midnightblue" points="395.604,-321.5 385.604,-325 395.604,-328.5 395.604,-321.5"/>
</g>
<!-- Node205&#45;&gt;Node197 -->
<g id="edge14" class="edge"><title>Node205&#45;&gt;Node197</title>
<path fill="none" stroke="midnightblue" d="M579.104,-386.228C593.249,-389.192 608.044,-391.967 622,-394 706.607,-406.322 808.018,-410.82 854.685,-412.32"/>
<polygon fill="midnightblue" stroke="midnightblue" points="579.452,-382.723 568.94,-384.044 577.981,-389.567 579.452,-382.723"/>
</g>
<!-- Node206 -->
<g id="node14" class="node"><title>Node206</title>
<g id="a_node14"><a xlink:href="server_8h.html#a0fa637689f8c63fc6adebeb9458430db" target="_top" xlink:title="gobject">
<polygon fill="white" stroke="black" points="677,-365.5 677,-384.5 725,-384.5 725,-365.5 677,-365.5"/>
<text text-anchor="middle" x="701" y="-372.5" font-family="Helvetica,sans-Serif" font-size="10.00">gobject</text>
</a>
</g>
</g>
<!-- Node205&#45;&gt;Node206 -->
<g id="edge13" class="edge"><title>Node205&#45;&gt;Node206</title>
<path fill="none" stroke="midnightblue" d="M596.098,-371.753C625.762,-372.68 656.439,-373.639 676.697,-374.272"/>
<polygon fill="midnightblue" stroke="midnightblue" points="596.198,-368.255 586.094,-371.44 595.98,-375.251 596.198,-368.255"/>
</g>
<!-- Node207 -->
<g id="node15" class="node"><title>Node207</title>
<g id="a_node15"><a xlink:href="class_c_spork_message.html#aa41c57e7ac23f5687be8d1679081f1d7" target="_top" xlink:title="CSporkMessage::Sign">
<polygon fill="white" stroke="black" points="643.5,-327.5 643.5,-346.5 758.5,-346.5 758.5,-327.5 643.5,-327.5"/>
<text text-anchor="middle" x="701" y="-334.5" font-family="Helvetica,sans-Serif" font-size="10.00">CSporkMessage::Sign</text>
</a>
</g>
</g>
<!-- Node205&#45;&gt;Node207 -->
<g id="edge15" class="edge"><title>Node205&#45;&gt;Node207</title>
<path fill="none" stroke="midnightblue" d="M596.069,-354.322C612.178,-351.637 628.587,-348.902 643.465,-346.423"/>
<polygon fill="midnightblue" stroke="midnightblue" points="595.382,-350.888 586.094,-355.984 596.533,-357.793 595.382,-350.888"/>
</g>
<!-- Node212 -->
<g id="node20" class="node"><title>Node212</title>
<g id="a_node20"><a xlink:href="dash-tx_8cpp.html#ab7ebe37e92de4ef2ff4c3b547b1495c3" target="_top" xlink:title="MutateTx">
<polygon fill="white" stroke="black" points="672,-479.5 672,-498.5 730,-498.5 730,-479.5 672,-479.5"/>
<text text-anchor="middle" x="701" y="-486.5" font-family="Helvetica,sans-Serif" font-size="10.00">MutateTx</text>
</a>
</g>
</g>
<!-- Node211&#45;&gt;Node212 -->
<g id="edge20" class="edge"><title>Node211&#45;&gt;Node212</title>
<path fill="none" stroke="midnightblue" d="M556.337,-489C592.78,-489 641.502,-489 671.807,-489"/>
<polygon fill="midnightblue" stroke="midnightblue" points="555.933,-485.5 545.933,-489 555.933,-492.5 555.933,-485.5"/>
</g>
<!-- Node213 -->
<g id="node21" class="node"><title>Node213</title>
<g id="a_node21"><a xlink:href="dash-tx_8cpp.html#aa1edb2f1ad129a440e9c1f98d6a9e6bb" target="_top" xlink:title="CommandLineRawTx">
<polygon fill="white" stroke="black" points="826,-479.5 826,-498.5 937,-498.5 937,-479.5 826,-479.5"/>
<text text-anchor="middle" x="881.5" y="-486.5" font-family="Helvetica,sans-Serif" font-size="10.00">CommandLineRawTx</text>
</a>
</g>
</g>
<!-- Node212&#45;&gt;Node213 -->
<g id="edge21" class="edge"><title>Node212&#45;&gt;Node213</title>
<path fill="none" stroke="midnightblue" d="M740.429,-489C765.321,-489 798.124,-489 825.727,-489"/>
<polygon fill="midnightblue" stroke="midnightblue" points="740.284,-485.5 730.284,-489 740.284,-492.5 740.284,-485.5"/>
</g>
<!-- Node214 -->
<g id="node22" class="node"><title>Node214</title>
<g id="a_node22"><a xlink:href="dash-tx_8cpp.html#a0ddf1224851353fc92bfbff6f499fa97" target="_top" xlink:title="main">
<polygon fill="white" stroke="black" points="1049.5,-479.5 1049.5,-498.5 1087.5,-498.5 1087.5,-479.5 1049.5,-479.5"/>
<text text-anchor="middle" x="1068.5" y="-486.5" font-family="Helvetica,sans-Serif" font-size="10.00">main</text>
</a>
</g>
</g>
<!-- Node213&#45;&gt;Node214 -->
<g id="edge22" class="edge"><title>Node213&#45;&gt;Node214</title>
<path fill="none" stroke="midnightblue" d="M947.459,-489C983.441,-489 1025.54,-489 1049.11,-489"/>
<polygon fill="midnightblue" stroke="midnightblue" points="947.006,-485.5 937.006,-489 947.005,-492.5 947.006,-485.5"/>
</g>
<!-- Node217 -->
<g id="node25" class="node"><title>Node217</title>
<g id="a_node25"><a xlink:href="class_c_h_d_chain.html#ada5366bcf86ad715b0e0fed80733e35b" target="_top" xlink:title="CHDChain::Debug">
<polygon fill="white" stroke="black" points="457.5,-198.5 457.5,-217.5 556.5,-217.5 556.5,-198.5 457.5,-198.5"/>
<text text-anchor="middle" x="507" y="-205.5" font-family="Helvetica,sans-Serif" font-size="10.00">CHDChain::Debug</text>
</a>
</g>
</g>
<!-- Node216&#45;&gt;Node217 -->
<g id="edge25" class="edge"><title>Node216&#45;&gt;Node217</title>
<path fill="none" stroke="midnightblue" d="M372.708,-174.031C402.643,-181.66 440.828,-191.391 468.648,-198.481"/>
<polygon fill="midnightblue" stroke="midnightblue" points="373.454,-170.609 362.9,-171.531 371.726,-177.392 373.454,-170.609"/>
</g>
<!-- Node231 -->
<g id="node39" class="node"><title>Node231</title>
<g id="a_node39"><a xlink:href="class_c_h_d_chain.html#aef1b10fffd41285366d594ace3a97d69" target="_top" xlink:title="CHDChain::DeriveChildExtKey">
<polygon fill="white" stroke="black" points="430,-114.5 430,-133.5 584,-133.5 584,-114.5 430,-114.5"/>
<text text-anchor="middle" x="507" y="-121.5" font-family="Helvetica,sans-Serif" font-size="10.00">CHDChain::DeriveChildExtKey</text>
</a>
</g>
</g>
<!-- Node216&#45;&gt;Node231 -->
<g id="edge41" class="edge"><title>Node216&#45;&gt;Node231</title>
<path fill="none" stroke="midnightblue" d="M380.985,-150.319C406.582,-144.93 436.584,-138.614 460.78,-133.52"/>
<polygon fill="midnightblue" stroke="midnightblue" points="380.112,-146.926 371.048,-152.411 381.554,-153.776 380.112,-146.926"/>
</g>
<!-- Node235 -->
<g id="node43" class="node"><title>Node235</title>
<g id="a_node43"><a xlink:href="rpcdump_8cpp.html#a84626901983e76a517c35e461a9a9442" target="_top" xlink:title="dumpwallet">
<polygon fill="white" stroke="black" points="848.5,-144.5 848.5,-163.5 914.5,-163.5 914.5,-144.5 848.5,-144.5"/>
<text text-anchor="middle" x="881.5" y="-151.5" font-family="Helvetica,sans-Serif" font-size="10.00">dumpwallet</text>
</a>
</g>
</g>
<!-- Node216&#45;&gt;Node235 -->
<g id="edge48" class="edge"><title>Node216&#45;&gt;Node235</title>
<path fill="none" stroke="midnightblue" d="M388.214,-161.096C506.576,-159.39 759.022,-155.751 848.355,-154.463"/>
<polygon fill="midnightblue" stroke="midnightblue" points="388.162,-157.596 378.213,-161.24 388.263,-164.596 388.162,-157.596"/>
</g>
<!-- Node218 -->
<g id="node26" class="node"><title>Node218</title>
<g id="a_node26"><a xlink:href="class_c_crypto_key_store.html#ac468711074b26df2a6c7fbc3a2cde470" target="_top" xlink:title="CCryptoKeyStore::Decrypt\lHDChain">
<polygon fill="white" stroke="black" points="634,-191 634,-221 768,-221 768,-191 634,-191"/>
<text text-anchor="start" x="642" y="-209" font-family="Helvetica,sans-Serif" font-size="10.00">CCryptoKeyStore::Decrypt</text>
<text text-anchor="middle" x="701" y="-198" font-family="Helvetica,sans-Serif" font-size="10.00">HDChain</text>
</a>
</g>
</g>
<!-- Node217&#45;&gt;Node218 -->
<g id="edge26" class="edge"><title>Node217&#45;&gt;Node218</title>
<path fill="none" stroke="midnightblue" d="M567.06,-207.385C588.166,-207.165 612.082,-206.916 633.754,-206.69"/>
<polygon fill="midnightblue" stroke="midnightblue" points="566.909,-203.886 556.946,-207.49 566.982,-210.886 566.909,-203.886"/>
</g>
<!-- Node229 -->
<g id="node37" class="node"><title>Node229</title>
<g id="a_node37"><a xlink:href="class_c_crypto_key_store.html#a3f55c097b0bc9e75c309db4bc1d53a67" target="_top" xlink:title="CCryptoKeyStore::Encrypt\lHDChain">
<polygon fill="white" stroke="black" points="634,-240 634,-270 768,-270 768,-240 634,-240"/>
<text text-anchor="start" x="642" y="-258" font-family="Helvetica,sans-Serif" font-size="10.00">CCryptoKeyStore::Encrypt</text>
<text text-anchor="middle" x="701" y="-247" font-family="Helvetica,sans-Serif" font-size="10.00">HDChain</text>
</a>
</g>
</g>
<!-- Node217&#45;&gt;Node229 -->
<g id="edge38" class="edge"><title>Node217&#45;&gt;Node229</title>
<path fill="none" stroke="midnightblue" d="M556.778,-219.941C581.624,-226.022 612.088,-233.48 638.524,-239.951"/>
<polygon fill="midnightblue" stroke="midnightblue" points="557.4,-216.489 546.854,-217.511 555.735,-223.289 557.4,-216.489"/>
</g>
<!-- Node230 -->
<g id="node38" class="node"><title>Node230</title>
<g id="a_node38"><a xlink:href="group__map_wallet.html#ga0a4476be9fde3845394c1514e69e5ff7" target="_top" xlink:title="CWallet::GenerateNewHDChain">
<polygon fill="white" stroke="black" points="622,-289.5 622,-308.5 780,-308.5 780,-289.5 622,-289.5"/>
<text text-anchor="middle" x="701" y="-296.5" font-family="Helvetica,sans-Serif" font-size="10.00">CWallet::GenerateNewHDChain</text>
</a>
</g>
</g>
<!-- Node217&#45;&gt;Node230 -->
<g id="edge39" class="edge"><title>Node217&#45;&gt;Node230</title>
<path fill="none" stroke="midnightblue" d="M566.374,-219.776C573.312,-222.507 580.037,-225.868 586,-230 608.211,-245.393 599.607,-263.874 622,-279 628.487,-283.382 635.869,-286.804 643.443,-289.476"/>
<polygon fill="midnightblue" stroke="midnightblue" points="567.426,-216.436 556.831,-216.427 565.108,-223.041 567.426,-216.436"/>
</g>
<!-- Node219 -->
<g id="node27" class="node"><title>Node219</title>
<g id="a_node27"><a xlink:href="class_c_crypto_key_store.html#a0717bc91b52f267df77e61870211ca62" target="_top" xlink:title="CCryptoKeyStore::Unlock">
<polygon fill="white" stroke="black" points="816,-193.5 816,-212.5 947,-212.5 947,-193.5 816,-193.5"/>
<text text-anchor="middle" x="881.5" y="-200.5" font-family="Helvetica,sans-Serif" font-size="10.00">CCryptoKeyStore::Unlock</text>
</a>
</g>
</g>
<!-- Node218&#45;&gt;Node219 -->
<g id="edge27" class="edge"><title>Node218&#45;&gt;Node219</title>
<path fill="none" stroke="midnightblue" d="M778.558,-204.713C790.993,-204.504 803.764,-204.29 815.878,-204.086"/>
<polygon fill="midnightblue" stroke="midnightblue" points="778.153,-201.22 768.213,-204.887 778.271,-208.219 778.153,-201.22"/>
</g>
<!-- Node220 -->
<g id="node28" class="node"><title>Node220</title>
<g id="a_node28"><a xlink:href="group__map_wallet.html#ga4abcec3066e7c462f4564c159fc15031" target="_top" xlink:title="CWallet::ChangeWalletPassphrase">
<polygon fill="white" stroke="black" points="983,-212.5 983,-231.5 1154,-231.5 1154,-212.5 983,-212.5"/>
<text text-anchor="middle" x="1068.5" y="-219.5" font-family="Helvetica,sans-Serif" font-size="10.00">CWallet::ChangeWalletPassphrase</text>
</a>
</g>
</g>
<!-- Node219&#45;&gt;Node220 -->
<g id="edge28" class="edge"><title>Node219&#45;&gt;Node220</title>
<path fill="none" stroke="midnightblue" d="M957.374,-210.69C965.811,-211.556 974.45,-212.444 982.998,-213.321"/>
<polygon fill="midnightblue" stroke="midnightblue" points="957.509,-207.185 947.204,-209.645 956.794,-214.149 957.509,-207.185"/>
</g>
<!-- Node224 -->
<g id="node32" class="node"><title>Node224</title>
<g id="a_node32"><a xlink:href="group__map_wallet.html#ga7d19286b74feeb6219af749a1fa5330b" target="_top" xlink:title="CWallet::Unlock">
<polygon fill="white" stroke="black" points="1024,-174.5 1024,-193.5 1113,-193.5 1113,-174.5 1024,-174.5"/>
<text text-anchor="middle" x="1068.5" y="-181.5" font-family="Helvetica,sans-Serif" font-size="10.00">CWallet::Unlock</text>
</a>
</g>
</g>
<!-- Node219&#45;&gt;Node224 -->
<g id="edge32" class="edge"><title>Node219&#45;&gt;Node224</title>
<path fill="none" stroke="midnightblue" d="M957.434,-195.304C979.965,-192.99 1003.94,-190.528 1023.74,-188.494"/>
<polygon fill="midnightblue" stroke="midnightblue" points="956.794,-191.851 947.204,-196.355 957.509,-198.815 956.794,-191.851"/>
</g>
<!-- Node221 -->
<g id="node29" class="node"><title>Node221</title>
<g id="a_node29"><a xlink:href="class_wallet_model.html#a67ebff3f267b5c9973c0465184c085a4" target="_top" xlink:title="WalletModel::changePassphrase">
<polygon fill="white" stroke="black" points="1190,-212.5 1190,-231.5 1350,-231.5 1350,-212.5 1190,-212.5"/>
<text text-anchor="middle" x="1270" y="-219.5" font-family="Helvetica,sans-Serif" font-size="10.00">WalletModel::changePassphrase</text>
</a>
</g>
</g>
<!-- Node220&#45;&gt;Node221 -->
<g id="edge29" class="edge"><title>Node220&#45;&gt;Node221</title>
<path fill="none" stroke="midnightblue" d="M1164.2,-222C1172.82,-222 1181.5,-222 1189.97,-222"/>
<polygon fill="midnightblue" stroke="midnightblue" points="1164.11,-218.5 1154.11,-222 1164.11,-225.5 1164.11,-218.5"/>
</g>
<!-- Node223 -->
<g id="node31" class="node"><title>Node223</title>
<g id="a_node31"><a xlink:href="rpcwallet_8cpp.html#a63c3c88d86ea99e2c171b68a874fe8fe" target="_top" xlink:title="walletpassphrasechange">
<polygon fill="white" stroke="black" points="1208,-250.5 1208,-269.5 1332,-269.5 1332,-250.5 1208,-250.5"/>
<text text-anchor="middle" x="1270" y="-257.5" font-family="Helvetica,sans-Serif" font-size="10.00">walletpassphrasechange</text>
</a>
</g>
</g>
<!-- Node220&#45;&gt;Node223 -->
<g id="edge31" class="edge"><title>Node220&#45;&gt;Node223</title>
<path fill="none" stroke="midnightblue" d="M1129.45,-233.418C1157.99,-238.855 1191.74,-245.283 1218.89,-250.456"/>
<polygon fill="midnightblue" stroke="midnightblue" points="1130.06,-229.973 1119.58,-231.54 1128.75,-236.849 1130.06,-229.973"/>
</g>
<!-- Node222 -->
<g id="node30" class="node"><title>Node222</title>
<g id="a_node30"><a xlink:href="class_ask_passphrase_dialog.html#ac2f176af3693b73870d26ef0bfc6cbb9" target="_top" xlink:title="AskPassphraseDialog\l::accept">
<polygon fill="white" stroke="black" points="1388.5,-191 1388.5,-221 1501.5,-221 1501.5,-191 1388.5,-191"/>
<text text-anchor="start" x="1396.5" y="-209" font-family="Helvetica,sans-Serif" font-size="10.00">AskPassphraseDialog</text>
<text text-anchor="middle" x="1445" y="-198" font-family="Helvetica,sans-Serif" font-size="10.00">::accept</text>
</a>
</g>
</g>
<!-- Node221&#45;&gt;Node222 -->
<g id="edge30" class="edge"><title>Node221&#45;&gt;Node222</title>
<path fill="none" stroke="midnightblue" d="M1360.16,-213.754C1369.76,-212.866 1379.32,-211.982 1388.36,-211.146"/>
<polygon fill="midnightblue" stroke="midnightblue" points="1359.79,-210.273 1350.16,-214.679 1360.44,-217.243 1359.79,-210.273"/>
</g>
<!-- Node225 -->
<g id="node33" class="node"><title>Node225</title>
<g id="a_node33"><a xlink:href="class_wallet_model.html#aefc0dde78489bcc7e06690b27acdaf4d" target="_top" xlink:title="WalletModel::setWalletLocked">
<polygon fill="white" stroke="black" points="1195.5,-136.5 1195.5,-155.5 1344.5,-155.5 1344.5,-136.5 1195.5,-136.5"/>
<text text-anchor="middle" x="1270" y="-143.5" font-family="Helvetica,sans-Serif" font-size="10.00">WalletModel::setWalletLocked</text>
</a>
</g>
</g>
<!-- Node224&#45;&gt;Node225 -->
<g id="edge33" class="edge"><title>Node224&#45;&gt;Node225</title>
<path fill="none" stroke="midnightblue" d="M1123.49,-173.716C1153.23,-168.051 1189.91,-161.065 1219,-155.525"/>
<polygon fill="midnightblue" stroke="midnightblue" points="1122.45,-170.351 1113.28,-175.661 1123.76,-177.228 1122.45,-170.351"/>
</g>
<!-- Node228 -->
<g id="node36" class="node"><title>Node228</title>
<g id="a_node36"><a xlink:href="rpcwallet_8cpp.html#a001d7bf0dae09484298af47da1c84df6" target="_top" xlink:title="walletpassphrase">
<polygon fill="white" stroke="black" points="1224,-174.5 1224,-193.5 1316,-193.5 1316,-174.5 1224,-174.5"/>
<text text-anchor="middle" x="1270" y="-181.5" font-family="Helvetica,sans-Serif" font-size="10.00">walletpassphrase</text>
</a>
</g>
</g>
<!-- Node224&#45;&gt;Node228 -->
<g id="edge37" class="edge"><title>Node224&#45;&gt;Node228</title>
<path fill="none" stroke="midnightblue" d="M1123.62,-184C1155.05,-184 1194.19,-184 1223.94,-184"/>
<polygon fill="midnightblue" stroke="midnightblue" points="1123.28,-180.5 1113.28,-184 1123.28,-187.5 1123.28,-180.5"/>
</g>
<!-- Node225&#45;&gt;Node222 -->
<g id="edge34" class="edge"><title>Node225&#45;&gt;Node222</title>
<path fill="none" stroke="midnightblue" d="M1326.23,-157.972C1334.27,-160.093 1342.39,-162.448 1350,-165 1371.61,-172.248 1395.11,-182.498 1413.2,-190.936"/>
<polygon fill="midnightblue" stroke="midnightblue" points="1327.06,-154.572 1316.51,-155.504 1325.34,-161.357 1327.06,-154.572"/>
</g>
<!-- Node226 -->
<g id="node34" class="node"><title>Node226</title>
<g id="a_node34"><a xlink:href="class_wallet_view.html#ae76bd29c36d1cfa9bc986924a0454eeb" target="_top" xlink:title="Lock wallet. ">
<polygon fill="white" stroke="black" points="1386,-136.5 1386,-155.5 1504,-155.5 1504,-136.5 1386,-136.5"/>
<text text-anchor="middle" x="1445" y="-143.5" font-family="Helvetica,sans-Serif" font-size="10.00">WalletView::lockWallet</text>
</a>
</g>
</g>
<!-- Node225&#45;&gt;Node226 -->
<g id="edge35" class="edge"><title>Node225&#45;&gt;Node226</title>
<path fill="none" stroke="midnightblue" d="M1354.7,-146C1365.25,-146 1375.86,-146 1385.9,-146"/>
<polygon fill="midnightblue" stroke="midnightblue" points="1354.62,-142.5 1344.62,-146 1354.62,-149.5 1354.62,-142.5"/>
</g>
<!-- Node227 -->
<g id="node35" class="node"><title>Node227</title>
<g id="a_node35"><a xlink:href="class_wallet_frame.html#a0b94aa3ff7ae9ea4d3e31b038d8b9b25" target="_top" xlink:title="Lock wallet. ">
<polygon fill="white" stroke="black" points="1540,-136.5 1540,-155.5 1664,-155.5 1664,-136.5 1540,-136.5"/>
<text text-anchor="middle" x="1602" y="-143.5" font-family="Helvetica,sans-Serif" font-size="10.00">WalletFrame::lockWallet</text>
</a>
</g>
</g>
<!-- Node226&#45;&gt;Node227 -->
<g id="edge36" class="edge"><title>Node226&#45;&gt;Node227</title>
<path fill="none" stroke="midnightblue" d="M1514.42,-146C1522.91,-146 1531.55,-146 1539.93,-146"/>
<polygon fill="midnightblue" stroke="midnightblue" points="1514.16,-142.5 1504.16,-146 1514.16,-149.5 1514.16,-142.5"/>
</g>
<!-- Node230&#45;&gt;Node197 -->
<g id="edge40" class="edge"><title>Node230&#45;&gt;Node197</title>
<path fill="none" stroke="midnightblue" d="M766.67,-311.908C771.29,-313.687 775.783,-315.707 780,-318 821.34,-340.483 858.29,-384.226 873.339,-403.496"/>
<polygon fill="midnightblue" stroke="midnightblue" points="767.653,-308.545 757.058,-308.585 765.366,-315.16 767.653,-308.545"/>
</g>
<!-- Node232 -->
<g id="node40" class="node"><title>Node232</title>
<g id="a_node40"><a xlink:href="group__map_wallet.html#ga76beb4aa57afa52c8fca1f84784f29f0" target="_top" xlink:title="CWallet::DeriveNewChildKey">
<polygon fill="white" stroke="black" points="628,-114.5 628,-133.5 774,-133.5 774,-114.5 628,-114.5"/>
<text text-anchor="middle" x="701" y="-121.5" font-family="Helvetica,sans-Serif" font-size="10.00">CWallet::DeriveNewChildKey</text>
</a>
</g>
</g>
<!-- Node231&#45;&gt;Node232 -->
<g id="edge42" class="edge"><title>Node231&#45;&gt;Node232</title>
<path fill="none" stroke="midnightblue" d="M594.404,-124C605.632,-124 617.038,-124 627.997,-124"/>
<polygon fill="midnightblue" stroke="midnightblue" points="594.159,-120.5 584.159,-124 594.159,-127.5 594.159,-120.5"/>
</g>
<!-- Node233 -->
<g id="node41" class="node"><title>Node233</title>
<g id="a_node41"><a xlink:href="group__map_wallet.html#ga81b8985d9f44cfbbf71c12f0857a4c54" target="_top" xlink:title="GetKey implementation that can derive a HD private key on the fly. ">
<polygon fill="white" stroke="black" points="655.5,-38.5 655.5,-57.5 746.5,-57.5 746.5,-38.5 655.5,-38.5"/>
<text text-anchor="middle" x="701" y="-45.5" font-family="Helvetica,sans-Serif" font-size="10.00">CWallet::GetKey</text>
</a>
</g>
</g>
<!-- Node231&#45;&gt;Node233 -->
<g id="edge43" class="edge"><title>Node231&#45;&gt;Node233</title>
<path fill="none" stroke="midnightblue" d="M542.033,-110.529C580.481,-95.3095 642.086,-70.9243 675.881,-57.5473"/>
<polygon fill="midnightblue" stroke="midnightblue" points="540.327,-107.44 532.317,-114.375 542.903,-113.948 540.327,-107.44"/>
</g>
<!-- Node234 -->
<g id="node42" class="node"><title>Node234</title>
<g id="a_node42"><a xlink:href="rpcdump_8cpp.html#adab6603310ec229d92dd1e85c861c6a8" target="_top" xlink:title="dumpprivkey">
<polygon fill="white" stroke="black" points="845.5,-0.5 845.5,-19.5 917.5,-19.5 917.5,-0.5 845.5,-0.5"/>
<text text-anchor="middle" x="881.5" y="-7.5" font-family="Helvetica,sans-Serif" font-size="10.00">dumpprivkey</text>
</a>
</g>
</g>
<!-- Node233&#45;&gt;Node234 -->
<g id="edge44" class="edge"><title>Node233&#45;&gt;Node234</title>
<path fill="none" stroke="midnightblue" d="M756.543,-36.3885C785.452,-30.2342 820.116,-22.8549 845.427,-17.4665"/>
<polygon fill="midnightblue" stroke="midnightblue" points="755.635,-33.0035 746.583,-38.509 757.092,-39.85 755.635,-33.0035"/>
</g>
<!-- Node233&#45;&gt;Node235 -->
<g id="edge45" class="edge"><title>Node233&#45;&gt;Node235</title>
<path fill="none" stroke="midnightblue" d="M756.199,-59.2864C764.657,-62.5251 772.925,-66.6786 780,-72 803.348,-89.561 793.539,-108.317 816,-127 825.333,-134.763 837.216,-140.581 848.234,-144.789"/>
<polygon fill="midnightblue" stroke="midnightblue" points="757.219,-55.9359 746.624,-56.005 754.949,-62.5578 757.219,-55.9359"/>
</g>
<!-- Node236 -->
<g id="node44" class="node"><title>Node236</title>
<g id="a_node44"><a xlink:href="class_sign_verify_message_dialog.html#a2ef91b4ace68d63ab1c1d3cc6c13b5f9" target="_top" xlink:title="SignVerifyMessageDialog\l::on_signMessageButton\l_SM_clicked">
<polygon fill="white" stroke="black" points="817,-76.5 817,-117.5 946,-117.5 946,-76.5 817,-76.5"/>
<text text-anchor="start" x="825" y="-105.5" font-family="Helvetica,sans-Serif" font-size="10.00">SignVerifyMessageDialog</text>
<text text-anchor="start" x="825" y="-94.5" font-family="Helvetica,sans-Serif" font-size="10.00">::on_signMessageButton</text>
<text text-anchor="middle" x="881.5" y="-83.5" font-family="Helvetica,sans-Serif" font-size="10.00">_SM_clicked</text>
</a>
</g>
</g>
<!-- Node233&#45;&gt;Node236 -->
<g id="edge46" class="edge"><title>Node233&#45;&gt;Node236</title>
<path fill="none" stroke="midnightblue" d="M746.561,-60.2323C767.799,-66.0625 793.588,-73.1419 816.845,-79.526"/>
<polygon fill="midnightblue" stroke="midnightblue" points="747.41,-56.8361 736.84,-57.564 745.557,-63.5864 747.41,-56.8361"/>
</g>
<!-- Node237 -->
<g id="node45" class="node"><title>Node237</title>
<g id="a_node45"><a xlink:href="rpcwallet_8cpp.html#a95d30866deb9a289859518f21b6ec721" target="_top" xlink:title="signmessage">
<polygon fill="white" stroke="black" points="844.5,-38.5 844.5,-57.5 918.5,-57.5 918.5,-38.5 844.5,-38.5"/>
<text text-anchor="middle" x="881.5" y="-45.5" font-family="Helvetica,sans-Serif" font-size="10.00">signmessage</text>
</a>
</g>
</g>
<!-- Node233&#45;&gt;Node237 -->
<g id="edge47" class="edge"><title>Node233&#45;&gt;Node237</title>
<path fill="none" stroke="midnightblue" d="M756.779,-48C785.203,-48 819.139,-48 844.274,-48"/>
<polygon fill="midnightblue" stroke="midnightblue" points="756.583,-44.5001 746.583,-48 756.583,-51.5001 756.583,-44.5001"/>
</g>
<!-- Node239 -->
<g id="node47" class="node"><title>Node239</title>
<g id="a_node47"><a xlink:href="struct_c_ext_key.html#ac91216c4c37bd7190a88c2452e8b1735" target="_top" xlink:title="CExtKey::Unserialize">
<polygon fill="white" stroke="black" points="451.5,-0.5 451.5,-19.5 562.5,-19.5 562.5,-0.5 451.5,-0.5"/>
<text text-anchor="middle" x="507" y="-7.5" font-family="Helvetica,sans-Serif" font-size="10.00">CExtKey::Unserialize</text>
</a>
</g>
</g>
<!-- Node238&#45;&gt;Node239 -->
<g id="edge50" class="edge"><title>Node238&#45;&gt;Node239</title>
<path fill="none" stroke="midnightblue" d="M383.049,-22.9422C404.878,-20.6445 429.658,-18.036 451.224,-15.7659"/>
<polygon fill="midnightblue" stroke="midnightblue" points="382.503,-19.4803 372.924,-24.008 383.236,-26.4418 382.503,-19.4803"/>
</g>
<!-- Node240&#45;&gt;Node219 -->
<g id="edge54" class="edge"><title>Node240&#45;&gt;Node219</title>
<path fill="none" stroke="midnightblue" d="M368.845,-82.4827C468.906,-75.1964 712.587,-62.4686 780,-105 808.921,-123.247 791.205,-149.451 816,-173 825.492,-182.015 838.182,-188.708 849.794,-193.456"/>
<polygon fill="midnightblue" stroke="midnightblue" points="368.488,-78.9995 358.776,-83.2331 369.008,-85.9802 368.488,-78.9995"/>
</g>
<!-- Node241 -->
<g id="node49" class="node"><title>Node241</title>
<g id="a_node49"><a xlink:href="class_c_crypto_key_store.html#af46ec271fffb65a113702ba40a3738c8" target="_top" xlink:title="CCryptoKeyStore::GetKey">
<polygon fill="white" stroke="black" points="440.5,-38.5 440.5,-57.5 573.5,-57.5 573.5,-38.5 440.5,-38.5"/>
<text text-anchor="middle" x="507" y="-45.5" font-family="Helvetica,sans-Serif" font-size="10.00">CCryptoKeyStore::GetKey</text>
</a>
</g>
</g>
<!-- Node240&#45;&gt;Node241 -->
<g id="edge52" class="edge"><title>Node240&#45;&gt;Node241</title>
<path fill="none" stroke="midnightblue" d="M368.464,-76.955C396.33,-71.0883 432.579,-63.457 460.867,-57.5017"/>
<polygon fill="midnightblue" stroke="midnightblue" points="367.671,-73.5451 358.606,-79.0302 369.113,-80.395 367.671,-73.5451"/>
</g>
<!-- Node241&#45;&gt;Node233 -->
<g id="edge53" class="edge"><title>Node241&#45;&gt;Node233</title>
<path fill="none" stroke="midnightblue" d="M583.79,-48C608.011,-48 634.03,-48 655.295,-48"/>
<polygon fill="midnightblue" stroke="midnightblue" points="583.539,-44.5001 573.539,-48 583.538,-51.5001 583.539,-44.5001"/>
</g>
</g>
</svg>
