<?xml version="1.0" encoding="UTF-8" standalone="no"?>
<!DOCTYPE svg PUBLIC "-//W3C//DTD SVG 1.1//EN"
 "http://www.w3.org/Graphics/SVG/1.1/DTD/svg11.dtd">
<!-- Generated by graphviz version 2.38.0 (20140413.2041)
 -->
<!-- Title: BitcoinApplication Pages: 1 -->
<svg width="1070pt" height="680pt"
 viewBox="0.00 0.00 1070.00 680.00" xmlns="http://www.w3.org/2000/svg" xmlns:xlink="http://www.w3.org/1999/xlink">
<g id="graph0" class="graph" transform="scale(1 1) rotate(0) translate(4 676)">
<title>BitcoinApplication</title>
<polygon fill="white" stroke="none" points="-4,4 -4,-676 1066,-676 1066,4 -4,4"/>
<!-- Node2 -->
<g id="node1" class="node"><title>Node2</title>
<polygon fill="#bfbfbf" stroke="black" points="967,-568.5 967,-587.5 1062,-587.5 1062,-568.5 967,-568.5"/>
<text text-anchor="middle" x="1014.5" y="-575.5" font-family="Helvetica,sans-Serif" font-size="10.00">BitcoinApplication</text>
</g>
<!-- Node3 -->
<g id="node2" class="node"><title>Node3</title>
<polygon fill="white" stroke="#bfbfbf" points="802,-652.5 802,-671.5 874,-671.5 874,-652.5 802,-652.5"/>
<text text-anchor="middle" x="838" y="-659.5" font-family="Helvetica,sans-Serif" font-size="10.00">QApplication</text>
</g>
<!-- Node3&#45;&gt;Node2 -->
<g id="edge1" class="edge"><title>Node3&#45;&gt;Node2</title>
<path fill="none" stroke="midnightblue" d="M884.191,-657.667C904.837,-654.328 929.072,-648.426 949,-638 973.121,-625.38 994.882,-601.302 1005.9,-587.801"/>
<polygon fill="midnightblue" stroke="midnightblue" points="883.46,-654.237 874.073,-659.149 884.474,-661.163 883.46,-654.237"/>
</g>
<!-- Node4 -->
<g id="node3" class="node"><title>Node4</title>
<g id="a_node3"><a xlink:href="class_platform_style.html" target="_top" xlink:title="PlatformStyle">
<polygon fill="white" stroke="black" points="347.5,-516.5 347.5,-535.5 423.5,-535.5 423.5,-516.5 347.5,-516.5"/>
<text text-anchor="middle" x="385.5" y="-523.5" font-family="Helvetica,sans-Serif" font-size="10.00">PlatformStyle</text>
</a>
</g>
</g>
<!-- Node4&#45;&gt;Node2 -->
<g id="edge2" class="edge"><title>Node4&#45;&gt;Node2</title>
<path fill="none" stroke="#9a32cd" stroke-dasharray="5,2" d="M420.466,-539.044C436.718,-544.688 456.603,-550.738 475,-554 654.683,-585.858 873.076,-583.108 966.952,-579.988"/>
<polygon fill="#9a32cd" stroke="#9a32cd" points="421.457,-535.681 410.862,-535.611 419.1,-542.273 421.457,-535.681"/>
<text text-anchor="middle" x="739.5" y="-583" font-family="Helvetica,sans-Serif" font-size="10.00"> platformStyle</text>
</g>
<!-- Node12 -->
<g id="node11" class="node"><title>Node12</title>
<g id="a_node11"><a xlink:href="class_bitcoin_g_u_i.html" target="_top" xlink:title="Bitcoin GUI main class. ">
<polygon fill="white" stroke="black" points="805.5,-321.5 805.5,-340.5 870.5,-340.5 870.5,-321.5 805.5,-321.5"/>
<text text-anchor="middle" x="838" y="-328.5" font-family="Helvetica,sans-Serif" font-size="10.00">BitcoinGUI</text>
</a>
</g>
</g>
<!-- Node4&#45;&gt;Node12 -->
<g id="edge17" class="edge"><title>Node4&#45;&gt;Node12</title>
<path fill="none" stroke="#9a32cd" stroke-dasharray="5,2" d="M433.551,-522.549C526.952,-514.813 731.31,-493.193 784,-449 818.758,-419.848 831.662,-363.232 835.56,-340.645"/>
<polygon fill="#9a32cd" stroke="#9a32cd" points="433.214,-519.065 423.529,-523.361 433.779,-526.042 433.214,-519.065"/>
<text text-anchor="middle" x="625" y="-509" font-family="Helvetica,sans-Serif" font-size="10.00"> platformStyle</text>
</g>
<!-- Node16 -->
<g id="node15" class="node"><title>Node16</title>
<g id="a_node15"><a xlink:href="class_r_p_c_console.html" target="_top" xlink:title="Local Bitcoin RPC console. ">
<polygon fill="white" stroke="black" points="588,-398.5 588,-417.5 662,-417.5 662,-398.5 588,-398.5"/>
<text text-anchor="middle" x="625" y="-405.5" font-family="Helvetica,sans-Serif" font-size="10.00">RPCConsole</text>
</a>
</g>
</g>
<!-- Node4&#45;&gt;Node16 -->
<g id="edge22" class="edge"><title>Node4&#45;&gt;Node16</title>
<path fill="none" stroke="#9a32cd" stroke-dasharray="5,2" d="M433.556,-513.416C441.603,-510.492 449.711,-507.03 457,-503 466.114,-497.961 466.446,-493.94 475,-488 516.205,-459.388 528.492,-455.143 573,-432 582.637,-426.989 593.505,-421.811 602.725,-417.554"/>
<polygon fill="#9a32cd" stroke="#9a32cd" points="432.175,-510.189 423.83,-516.717 434.425,-516.817 432.175,-510.189"/>
<text text-anchor="middle" x="515" y="-491" font-family="Helvetica,sans-Serif" font-size="10.00"> platformStyle</text>
</g>
<!-- Node19 -->
<g id="node18" class="node"><title>Node19</title>
<g id="a_node18"><a xlink:href="class_wallet_frame.html" target="_top" xlink:title="WalletFrame">
<polygon fill="white" stroke="black" points="978.5,-164.5 978.5,-183.5 1050.5,-183.5 1050.5,-164.5 978.5,-164.5"/>
<text text-anchor="middle" x="1014.5" y="-171.5" font-family="Helvetica,sans-Serif" font-size="10.00">WalletFrame</text>
</a>
</g>
</g>
<!-- Node4&#45;&gt;Node19 -->
<g id="edge26" class="edge"><title>Node4&#45;&gt;Node19</title>
<path fill="none" stroke="#9a32cd" stroke-dasharray="5,2" d="M433.831,-533.804C513.678,-544.295 676.895,-553.937 784,-480 874.668,-417.41 885.973,-385.365 949,-295 976.1,-256.145 1000.04,-204.582 1009.36,-183.546"/>
<polygon fill="#9a32cd" stroke="#9a32cd" points="433.977,-530.291 423.592,-532.393 433.021,-537.225 433.977,-530.291"/>
<text text-anchor="middle" x="739.5" y="-523" font-family="Helvetica,sans-Serif" font-size="10.00"> platformStyle</text>
</g>
<!-- Node5 -->
<g id="node4" class="node"><title>Node5</title>
<g id="a_node4"><a xlink:href="class_client_model.html" target="_top" xlink:title="Model for Dash network client. ">
<polygon fill="white" stroke="black" points="351.5,-236.5 351.5,-255.5 419.5,-255.5 419.5,-236.5 351.5,-236.5"/>
<text text-anchor="middle" x="385.5" y="-243.5" font-family="Helvetica,sans-Serif" font-size="10.00">ClientModel</text>
</a>
</g>
</g>
<!-- Node5&#45;&gt;Node2 -->
<g id="edge3" class="edge"><title>Node5&#45;&gt;Node2</title>
<path fill="none" stroke="#9a32cd" stroke-dasharray="5,2" d="M429.808,-256.252C465.513,-262.334 516.382,-265.38 555,-245 567.43,-238.44 560.551,-225.523 573,-219 641.506,-183.106 857.639,-150.091 949,-229 1002.28,-275.015 1011.83,-516.933 1013.27,-568.376"/>
<polygon fill="#9a32cd" stroke="#9a32cd" points="430.175,-252.76 419.705,-254.381 428.9,-259.643 430.175,-252.76"/>
<text text-anchor="middle" x="739.5" y="-188" font-family="Helvetica,sans-Serif" font-size="10.00"> clientModel</text>
</g>
<!-- Node7 -->
<g id="node6" class="node"><title>Node7</title>
<g id="a_node6"><a xlink:href="class_peer_table_model.html" target="_top" xlink:title="Qt model providing information about connected peers, similar to the &quot;getpeerinfo&quot; RPC call...">
<polygon fill="white" stroke="black" points="581.5,-96.5 581.5,-115.5 668.5,-115.5 668.5,-96.5 581.5,-96.5"/>
<text text-anchor="middle" x="625" y="-103.5" font-family="Helvetica,sans-Serif" font-size="10.00">PeerTableModel</text>
</a>
</g>
</g>
<!-- Node5&#45;&gt;Node7 -->
<g id="edge7" class="edge"><title>Node5&#45;&gt;Node7</title>
<path fill="none" stroke="#9a32cd" stroke-dasharray="5,2" d="M392.75,-226.727C403.818,-196.144 430.038,-137.367 475,-112 507.243,-93.8083 549.957,-94.068 581.383,-97.8417"/>
<polygon fill="#9a32cd" stroke="#9a32cd" points="389.411,-225.674 389.461,-236.268 396.029,-227.955 389.411,-225.674"/>
<text text-anchor="middle" x="515" y="-115" font-family="Helvetica,sans-Serif" font-size="10.00"> clientModel</text>
</g>
<!-- Node9 -->
<g id="node8" class="node"><title>Node9</title>
<g id="a_node8"><a xlink:href="class_ban_table_model.html" target="_top" xlink:title="Qt model providing information about connected peers, similar to the &quot;getpeerinfo&quot; RPC call...">
<polygon fill="white" stroke="black" points="583,-152.5 583,-171.5 667,-171.5 667,-152.5 583,-152.5"/>
<text text-anchor="middle" x="625" y="-159.5" font-family="Helvetica,sans-Serif" font-size="10.00">BanTableModel</text>
</a>
</g>
</g>
<!-- Node5&#45;&gt;Node9 -->
<g id="edge10" class="edge"><title>Node5&#45;&gt;Node9</title>
<path fill="none" stroke="#9a32cd" stroke-dasharray="5,2" d="M410.14,-230.977C427.518,-220.489 452.011,-206.838 475,-198 485.091,-194.121 542.408,-180.661 582.929,-171.346"/>
<polygon fill="#9a32cd" stroke="#9a32cd" points="407.959,-228.209 401.273,-236.427 411.625,-234.172 407.959,-228.209"/>
<text text-anchor="middle" x="515" y="-201" font-family="Helvetica,sans-Serif" font-size="10.00"> clientModel</text>
</g>
<!-- Node5&#45;&gt;Node12 -->
<g id="edge18" class="edge"><title>Node5&#45;&gt;Node12</title>
<path fill="none" stroke="#9a32cd" stroke-dasharray="5,2" d="M427.689,-258.337C442.507,-262.464 459.412,-266.819 475,-270 563.806,-288.12 587.475,-283.852 677,-298 724.707,-305.539 736.833,-306.601 784,-317 790.97,-318.537 798.406,-320.375 805.435,-322.205"/>
<polygon fill="#9a32cd" stroke="#9a32cd" points="428.382,-254.895 417.806,-255.533 426.471,-261.63 428.382,-254.895"/>
<text text-anchor="middle" x="625" y="-301" font-family="Helvetica,sans-Serif" font-size="10.00"> clientModel</text>
</g>
<!-- Node5&#45;&gt;Node16 -->
<g id="edge23" class="edge"><title>Node5&#45;&gt;Node16</title>
<path fill="none" stroke="#9a32cd" stroke-dasharray="5,2" d="M401.85,-263.178C418.57,-281.183 446.724,-309.511 475,-329 507.569,-351.448 523.7,-343.814 555,-368 564.727,-375.516 562.92,-381.964 573,-389 578.423,-392.786 584.694,-395.922 590.943,-398.48"/>
<polygon fill="#9a32cd" stroke="#9a32cd" points="404.345,-260.719 395.014,-255.7 399.179,-265.442 404.345,-260.719"/>
<text text-anchor="middle" x="515" y="-371" font-family="Helvetica,sans-Serif" font-size="10.00"> clientModel</text>
</g>
<!-- Node5&#45;&gt;Node19 -->
<g id="edge27" class="edge"><title>Node5&#45;&gt;Node19</title>
<path fill="none" stroke="#9a32cd" stroke-dasharray="5,2" d="M396.961,-227.443C420.041,-186.535 473.413,-92.118 475,-91 556.18,-33.8103 596.08,-60.7001 695,-52 734.403,-48.5344 745.619,-42.4324 784,-52 874.195,-74.4836 967.839,-139.78 1000.98,-164.429"/>
<polygon fill="#9a32cd" stroke="#9a32cd" points="393.78,-225.959 391.916,-236.388 399.878,-229.397 393.78,-225.959"/>
<text text-anchor="middle" x="739.5" y="-55" font-family="Helvetica,sans-Serif" font-size="10.00"> clientModel</text>
</g>
<!-- Node6 -->
<g id="node5" class="node"><title>Node6</title>
<polygon fill="white" stroke="#bfbfbf" points="152,-273.5 152,-292.5 205,-292.5 205,-273.5 152,-273.5"/>
<text text-anchor="middle" x="178.5" y="-280.5" font-family="Helvetica,sans-Serif" font-size="10.00">QObject</text>
</g>
<!-- Node6&#45;&gt;Node5 -->
<g id="edge4" class="edge"><title>Node6&#45;&gt;Node5</title>
<path fill="none" stroke="midnightblue" d="M215.257,-276.546C253.665,-269.614 314.191,-258.69 351.498,-251.956"/>
<polygon fill="midnightblue" stroke="midnightblue" points="214.268,-273.168 205.049,-278.389 215.512,-280.057 214.268,-273.168"/>
</g>
<!-- Node22 -->
<g id="node21" class="node"><title>Node22</title>
<g id="a_node21"><a xlink:href="class_notificator.html" target="_top" xlink:title="Cross&#45;platform desktop notification client. ">
<polygon fill="white" stroke="black" points="484,-300.5 484,-319.5 546,-319.5 546,-300.5 484,-300.5"/>
<text text-anchor="middle" x="515" y="-307.5" font-family="Helvetica,sans-Serif" font-size="10.00">Notificator</text>
</a>
</g>
</g>
<!-- Node6&#45;&gt;Node22 -->
<g id="edge32" class="edge"><title>Node6&#45;&gt;Node22</title>
<path fill="none" stroke="midnightblue" d="M215.565,-285.911C281.954,-291.27 422.337,-302.601 483.945,-307.574"/>
<polygon fill="midnightblue" stroke="midnightblue" points="215.441,-282.39 205.192,-285.074 214.878,-289.367 215.441,-282.39"/>
</g>
<!-- Node7&#45;&gt;Node5 -->
<g id="edge5" class="edge"><title>Node7&#45;&gt;Node5</title>
<path fill="none" stroke="#9a32cd" stroke-dasharray="5,2" d="M579.249,-118.546C548.533,-128.297 507.591,-143.601 475,-164 441.443,-185.004 409.197,-219.689 394.617,-236.406"/>
<polygon fill="#9a32cd" stroke="#9a32cd" points="580.322,-121.878 588.839,-115.576 578.251,-115.191 580.322,-121.878"/>
<text text-anchor="middle" x="515" y="-167" font-family="Helvetica,sans-Serif" font-size="10.00"> peerTableModel</text>
</g>
<!-- Node8 -->
<g id="node7" class="node"><title>Node8</title>
<polygon fill="white" stroke="#bfbfbf" points="330,-92.5 330,-111.5 441,-111.5 441,-92.5 330,-92.5"/>
<text text-anchor="middle" x="385.5" y="-99.5" font-family="Helvetica,sans-Serif" font-size="10.00">QAbstractTableModel</text>
</g>
<!-- Node8&#45;&gt;Node7 -->
<g id="edge6" class="edge"><title>Node8&#45;&gt;Node7</title>
<path fill="none" stroke="midnightblue" d="M441.935,-90.8576C474.87,-85.7821 517.414,-81.9197 555,-87 568.791,-88.864 583.721,-92.7337 596.155,-96.4974"/>
<polygon fill="midnightblue" stroke="midnightblue" points="441.348,-87.4069 432.038,-92.4632 442.47,-94.3166 441.348,-87.4069"/>
</g>
<!-- Node8&#45;&gt;Node9 -->
<g id="edge9" class="edge"><title>Node8&#45;&gt;Node9</title>
<path fill="none" stroke="midnightblue" d="M433.894,-113.973C478.631,-125.275 544.841,-142.002 586.151,-152.438"/>
<polygon fill="midnightblue" stroke="midnightblue" points="434.685,-110.563 424.133,-111.507 432.971,-117.35 434.685,-110.563"/>
</g>
<!-- Node9&#45;&gt;Node5 -->
<g id="edge8" class="edge"><title>Node9&#45;&gt;Node5</title>
<path fill="none" stroke="#9a32cd" stroke-dasharray="5,2" d="M588.091,-176.033C582.754,-178.912 577.532,-182.234 573,-186 562.469,-194.75 566.484,-203.545 555,-211 533.072,-225.235 462.384,-236.363 419.846,-241.981"/>
<polygon fill="#9a32cd" stroke="#9a32cd" points="589.654,-179.165 597.078,-171.607 586.561,-172.885 589.654,-179.165"/>
<text text-anchor="middle" x="515" y="-236" font-family="Helvetica,sans-Serif" font-size="10.00"> banTableModel</text>
</g>
<!-- Node10 -->
<g id="node9" class="node"><title>Node10</title>
<g id="a_node9"><a xlink:href="class_options_model.html" target="_top" xlink:title="Interface from Qt to configuration data structure for Bitcoin client. ">
<polygon fill="white" stroke="black" points="140,-474.5 140,-493.5 217,-493.5 217,-474.5 140,-474.5"/>
<text text-anchor="middle" x="178.5" y="-481.5" font-family="Helvetica,sans-Serif" font-size="10.00">OptionsModel</text>
</a>
</g>
</g>
<!-- Node10&#45;&gt;Node2 -->
<g id="edge36" class="edge"><title>Node10&#45;&gt;Node2</title>
<path fill="none" stroke="#9a32cd" stroke-dasharray="5,2" d="M192.689,-501.707C222.401,-539.367 298.717,-624 384.5,-624 384.5,-624 384.5,-624 839,-624 895.707,-624 959.458,-601.005 991.945,-587.531"/>
<polygon fill="#9a32cd" stroke="#9a32cd" points="195.336,-499.408 186.46,-493.623 189.791,-503.68 195.336,-499.408"/>
<text text-anchor="middle" x="625" y="-627" font-family="Helvetica,sans-Serif" font-size="10.00"> optionsModel</text>
</g>
<!-- Node10&#45;&gt;Node5 -->
<g id="edge11" class="edge"><title>Node10&#45;&gt;Node5</title>
<path fill="none" stroke="#9a32cd" stroke-dasharray="5,2" d="M194.478,-466.611C234.823,-419.771 344.835,-292.051 376.107,-255.744"/>
<polygon fill="#9a32cd" stroke="#9a32cd" points="191.665,-464.514 187.79,-474.375 196.968,-469.083 191.665,-464.514"/>
<text text-anchor="middle" x="265.5" y="-416" font-family="Helvetica,sans-Serif" font-size="10.00"> optionsModel</text>
</g>
<!-- Node23 -->
<g id="node22" class="node"><title>Node23</title>
<g id="a_node22"><a xlink:href="class_unit_display_status_bar_control.html" target="_top" xlink:title="UnitDisplayStatusBarControl">
<polygon fill="white" stroke="black" points="314,-474.5 314,-493.5 457,-493.5 457,-474.5 314,-474.5"/>
<text text-anchor="middle" x="385.5" y="-481.5" font-family="Helvetica,sans-Serif" font-size="10.00">UnitDisplayStatusBarControl</text>
</a>
</g>
</g>
<!-- Node10&#45;&gt;Node23 -->
<g id="edge35" class="edge"><title>Node10&#45;&gt;Node23</title>
<path fill="none" stroke="#9a32cd" stroke-dasharray="5,2" d="M227.35,-484C253.109,-484 285.377,-484 313.96,-484"/>
<polygon fill="#9a32cd" stroke="#9a32cd" points="227.1,-480.5 217.1,-484 227.1,-487.5 227.1,-480.5"/>
<text text-anchor="middle" x="265.5" y="-487" font-family="Helvetica,sans-Serif" font-size="10.00"> optionsModel</text>
</g>
<!-- Node11 -->
<g id="node10" class="node"><title>Node11</title>
<polygon fill="white" stroke="#bfbfbf" points="0,-474.5 0,-493.5 103,-493.5 103,-474.5 0,-474.5"/>
<text text-anchor="middle" x="51.5" y="-481.5" font-family="Helvetica,sans-Serif" font-size="10.00">QAbstractListModel</text>
</g>
<!-- Node11&#45;&gt;Node10 -->
<g id="edge12" class="edge"><title>Node11&#45;&gt;Node10</title>
<path fill="none" stroke="midnightblue" d="M113.42,-484C122.398,-484 131.419,-484 139.742,-484"/>
<polygon fill="midnightblue" stroke="midnightblue" points="113.342,-480.5 103.342,-484 113.342,-487.5 113.342,-480.5"/>
</g>
<!-- Node12&#45;&gt;Node2 -->
<g id="edge13" class="edge"><title>Node12&#45;&gt;Node2</title>
<path fill="none" stroke="#9a32cd" stroke-dasharray="5,2" d="M851.726,-349.013C886.202,-397.813 980.564,-531.38 1006.71,-568.384"/>
<polygon fill="#9a32cd" stroke="#9a32cd" points="854.469,-346.831 845.841,-340.683 848.752,-350.87 854.469,-346.831"/>
<text text-anchor="middle" x="920.5" y="-486" font-family="Helvetica,sans-Serif" font-size="10.00"> window</text>
</g>
<!-- Node12&#45;&gt;Node19 -->
<g id="edge28" class="edge"><title>Node12&#45;&gt;Node19</title>
<path fill="none" stroke="#9a32cd" stroke-dasharray="5,2" d="M843.234,-311.564C849.639,-286.595 864.118,-243.451 892,-218 916.026,-196.069 951.814,-184.866 978.332,-179.274"/>
<polygon fill="#9a32cd" stroke="#9a32cd" points="839.819,-310.799 840.904,-321.338 846.628,-312.423 839.819,-310.799"/>
<text text-anchor="middle" x="920.5" y="-221" font-family="Helvetica,sans-Serif" font-size="10.00"> gui</text>
</g>
<!-- Node13 -->
<g id="node12" class="node"><title>Node13</title>
<polygon fill="white" stroke="#bfbfbf" points="585,-228.5 585,-247.5 665,-247.5 665,-228.5 585,-228.5"/>
<text text-anchor="middle" x="625" y="-235.5" font-family="Helvetica,sans-Serif" font-size="10.00">QMainWindow</text>
</g>
<!-- Node13&#45;&gt;Node12 -->
<g id="edge14" class="edge"><title>Node13&#45;&gt;Node12</title>
<path fill="none" stroke="midnightblue" d="M675.418,-239.821C708.136,-242.921 750.943,-250.736 784,-270 805.818,-282.715 823.157,-307.707 831.529,-321.425"/>
<polygon fill="midnightblue" stroke="midnightblue" points="675.431,-236.31 665.175,-238.971 674.852,-243.286 675.431,-236.31"/>
</g>
<!-- Node14 -->
<g id="node13" class="node"><title>Node14</title>
<g id="a_node13"><a xlink:href="class_help_message_dialog.html" target="_top" xlink:title="&quot;Help message&quot; dialog box ">
<polygon fill="white" stroke="black" points="573,-0.5 573,-19.5 677,-19.5 677,-0.5 573,-0.5"/>
<text text-anchor="middle" x="625" y="-7.5" font-family="Helvetica,sans-Serif" font-size="10.00">HelpMessageDialog</text>
</a>
</g>
</g>
<!-- Node14&#45;&gt;Node12 -->
<g id="edge15" class="edge"><title>Node14&#45;&gt;Node12</title>
<path fill="none" stroke="#9a32cd" stroke-dasharray="5,2" d="M647.855,-26.0534C681.726,-52.0256 746.857,-106.496 784,-167 816.561,-220.041 831.199,-295.156 835.543,-321.459"/>
<polygon fill="#9a32cd" stroke="#9a32cd" points="649.654,-23.026 639.565,-19.7894 645.433,-28.6108 649.654,-23.026"/>
<text text-anchor="middle" x="739.5" y="-170" font-family="Helvetica,sans-Serif" font-size="10.00"> helpMessageDialog</text>
</g>
<!-- Node15 -->
<g id="node14" class="node"><title>Node15</title>
<polygon fill="white" stroke="#bfbfbf" points="359.5,-0.5 359.5,-19.5 411.5,-19.5 411.5,-0.5 359.5,-0.5"/>
<text text-anchor="middle" x="385.5" y="-7.5" font-family="Helvetica,sans-Serif" font-size="10.00">QDialog</text>
</g>
<!-- Node15&#45;&gt;Node14 -->
<g id="edge16" class="edge"><title>Node15&#45;&gt;Node14</title>
<path fill="none" stroke="midnightblue" d="M421.98,-10C461.898,-10 527.089,-10 572.585,-10"/>
<polygon fill="midnightblue" stroke="midnightblue" points="421.917,-6.5001 411.917,-10 421.917,-13.5001 421.917,-6.5001"/>
</g>
<!-- Node16&#45;&gt;Node12 -->
<g id="edge19" class="edge"><title>Node16&#45;&gt;Node12</title>
<path fill="none" stroke="#9a32cd" stroke-dasharray="5,2" d="M672.253,-404.3C704.809,-400.298 748.698,-392.026 784,-375 801.665,-366.48 818.448,-350.819 828.229,-340.662"/>
<polygon fill="#9a32cd" stroke="#9a32cd" points="671.646,-400.846 662.106,-405.454 672.438,-407.801 671.646,-400.846"/>
<text text-anchor="middle" x="739.5" y="-403" font-family="Helvetica,sans-Serif" font-size="10.00"> rpcConsole</text>
</g>
<!-- Node17 -->
<g id="node16" class="node"><title>Node17</title>
<polygon fill="white" stroke="#bfbfbf" points="358,-356.5 358,-375.5 413,-375.5 413,-356.5 358,-356.5"/>
<text text-anchor="middle" x="385.5" y="-363.5" font-family="Helvetica,sans-Serif" font-size="10.00">QWidget</text>
</g>
<!-- Node17&#45;&gt;Node16 -->
<g id="edge20" class="edge"><title>Node17&#45;&gt;Node16</title>
<path fill="none" stroke="midnightblue" d="M423.152,-372.482C467.88,-380.391 543.042,-393.683 587.638,-401.57"/>
<polygon fill="midnightblue" stroke="midnightblue" points="423.739,-369.031 413.283,-370.736 422.52,-375.924 423.739,-369.031"/>
</g>
<!-- Node21 -->
<g id="node20" class="node"><title>Node21</title>
<g id="a_node20"><a xlink:href="class_modal_overlay.html" target="_top" xlink:title="Modal overlay to display information about the chain&#45;sync state. ">
<polygon fill="white" stroke="black" points="586.5,-360.5 586.5,-379.5 663.5,-379.5 663.5,-360.5 586.5,-360.5"/>
<text text-anchor="middle" x="625" y="-367.5" font-family="Helvetica,sans-Serif" font-size="10.00">ModalOverlay</text>
</a>
</g>
</g>
<!-- Node17&#45;&gt;Node21 -->
<g id="edge30" class="edge"><title>Node17&#45;&gt;Node21</title>
<path fill="none" stroke="midnightblue" d="M423.152,-357.558C457.362,-350.852 509.783,-343.579 555,-350 569.324,-352.034 584.834,-356.331 597.514,-360.423"/>
<polygon fill="midnightblue" stroke="midnightblue" points="422.243,-354.171 413.147,-359.605 423.646,-361.029 422.243,-354.171"/>
</g>
<!-- Node18 -->
<g id="node17" class="node"><title>Node18</title>
<g id="a_node17"><a xlink:href="class_r_p_c_timer_interface.html" target="_top" xlink:title="RPC timer &quot;driver&quot;. ">
<polygon fill="white" stroke="black" points="335,-418.5 335,-437.5 436,-437.5 436,-418.5 335,-418.5"/>
<text text-anchor="middle" x="385.5" y="-425.5" font-family="Helvetica,sans-Serif" font-size="10.00">RPCTimerInterface</text>
</a>
</g>
</g>
<!-- Node18&#45;&gt;Node16 -->
<g id="edge21" class="edge"><title>Node18&#45;&gt;Node16</title>
<path fill="none" stroke="#9a32cd" stroke-dasharray="5,2" d="M446.411,-422.955C490.958,-419.204 550.286,-414.207 587.821,-411.047"/>
<polygon fill="#9a32cd" stroke="#9a32cd" points="445.959,-419.48 436.288,-423.807 446.546,-426.456 445.959,-419.48"/>
<text text-anchor="middle" x="515" y="-423" font-family="Helvetica,sans-Serif" font-size="10.00"> rpcTimerInterface</text>
</g>
<!-- Node19&#45;&gt;Node12 -->
<g id="edge24" class="edge"><title>Node19&#45;&gt;Node12</title>
<path fill="none" stroke="#9a32cd" stroke-dasharray="5,2" d="M995.072,-190.58C958.665,-223.336 878.547,-295.419 849.653,-321.415"/>
<polygon fill="#9a32cd" stroke="#9a32cd" points="997.448,-193.15 1002.54,-183.86 992.766,-187.947 997.448,-193.15"/>
<text text-anchor="middle" x="920.5" y="-283" font-family="Helvetica,sans-Serif" font-size="10.00"> walletFrame</text>
</g>
<!-- Node20 -->
<g id="node19" class="node"><title>Node20</title>
<polygon fill="white" stroke="#bfbfbf" points="812,-0.5 812,-19.5 864,-19.5 864,-0.5 812,-0.5"/>
<text text-anchor="middle" x="838" y="-7.5" font-family="Helvetica,sans-Serif" font-size="10.00">QFrame</text>
</g>
<!-- Node20&#45;&gt;Node19 -->
<g id="edge25" class="edge"><title>Node20&#45;&gt;Node19</title>
<path fill="none" stroke="midnightblue" d="M874.67,-9.86201C898.084,-11.5303 928.124,-17.2236 949,-34 992.18,-68.7003 1007.7,-138.819 1012.06,-164.39"/>
<polygon fill="midnightblue" stroke="midnightblue" points="874.596,-6.35412 864.435,-9.3534 874.249,-13.3455 874.596,-6.35412"/>
</g>
<!-- Node21&#45;&gt;Node12 -->
<g id="edge29" class="edge"><title>Node21&#45;&gt;Node12</title>
<path fill="none" stroke="#9a32cd" stroke-dasharray="5,2" d="M673.788,-363.724C705.247,-359.278 747.255,-352.739 784,-345 790.985,-343.529 798.426,-341.718 805.456,-339.893"/>
<polygon fill="#9a32cd" stroke="#9a32cd" points="672.968,-360.305 663.546,-365.151 673.933,-367.238 672.968,-360.305"/>
<text text-anchor="middle" x="739.5" y="-363" font-family="Helvetica,sans-Serif" font-size="10.00"> modalOverlay</text>
</g>
<!-- Node22&#45;&gt;Node12 -->
<g id="edge31" class="edge"><title>Node22&#45;&gt;Node12</title>
<path fill="none" stroke="#9a32cd" stroke-dasharray="5,2" d="M556.412,-312.644C621.082,-316.874 746.501,-325.08 805.227,-328.921"/>
<polygon fill="#9a32cd" stroke="#9a32cd" points="556.406,-309.136 546.199,-311.976 555.949,-316.121 556.406,-309.136"/>
<text text-anchor="middle" x="625" y="-323" font-family="Helvetica,sans-Serif" font-size="10.00"> notificator</text>
</g>
<!-- Node23&#45;&gt;Node12 -->
<g id="edge33" class="edge"><title>Node23&#45;&gt;Node12</title>
<path fill="none" stroke="#9a32cd" stroke-dasharray="5,2" d="M448.755,-472.672C457.564,-471.091 466.509,-469.496 475,-468 612.226,-443.827 668.132,-492.395 784,-415 811.531,-396.611 827.578,-358.555 833.881,-340.677"/>
<polygon fill="#9a32cd" stroke="#9a32cd" points="448.12,-469.23 438.899,-474.446 449.361,-476.119 448.12,-469.23"/>
<text text-anchor="middle" x="625" y="-464" font-family="Helvetica,sans-Serif" font-size="10.00"> unitDisplayControl</text>
</g>
<!-- Node24 -->
<g id="node23" class="node"><title>Node24</title>
<polygon fill="white" stroke="#bfbfbf" points="155,-639.5 155,-658.5 202,-658.5 202,-639.5 155,-639.5"/>
<text text-anchor="middle" x="178.5" y="-646.5" font-family="Helvetica,sans-Serif" font-size="10.00">QLabel</text>
</g>
<!-- Node24&#45;&gt;Node23 -->
<g id="edge34" class="edge"><title>Node24&#45;&gt;Node23</title>
<path fill="none" stroke="midnightblue" d="M191.958,-630.86C213.461,-600.864 260.424,-540.884 314,-507 322.922,-501.357 333.362,-496.969 343.432,-493.612"/>
<polygon fill="midnightblue" stroke="midnightblue" points="189.02,-628.953 186.123,-639.144 194.743,-632.984 189.02,-628.953"/>
</g>
</g>
</svg>
