<?xml version="1.0" encoding="UTF-8" standalone="no"?>
<!DOCTYPE svg PUBLIC "-//W3C//DTD SVG 1.1//EN"
 "http://www.w3.org/Graphics/SVG/1.1/DTD/svg11.dtd">
<!-- Generated by graphviz version 2.38.0 (20140413.2041)
 -->
<!-- Title: CacheMap::Get Pages: 1 -->
<!--zoomable 117 -->
<svg id="main" version="1.1" xmlns="http://www.w3.org/2000/svg" xmlns:xlink="http://www.w3.org/1999/xlink" xml:space="preserve" onload="init(evt)">
<style type="text/css"><![CDATA[
.edge:hover path { stroke: red; }
.edge:hover polygon { stroke: red; fill: red; }
]]></style>
<script type="text/javascript"><![CDATA[
var edges = document.getElementsByTagName('g');
if (edges && edges.length) {
  for (var i=0;i<edges.length;i++) {
    if (edges[i].id.substr(0,4)=='edge') {
      edges[i].setAttribute('class','edge');
    }
  }
}
]]></script>
        <defs>
                <circle id="rim" cx="0" cy="0" r="7"/>
                <circle id="rim2" cx="0" cy="0" r="3.5"/>
                <g id="zoomPlus">
                        <use xlink:href="#rim" fill="#404040">
                                <set attributeName="fill" to="#808080" begin="zoomplus.mouseover" end="zoomplus.mouseout"/>
                        </use>
                        <path d="M-4,0h8M0,-4v8" fill="none" stroke="white" stroke-width="1.5" pointer-events="none"/>
                </g>
                <g id="zoomMin">
                        <use xlink:href="#rim" fill="#404040">
                                <set attributeName="fill" to="#808080" begin="zoomminus.mouseover" end="zoomminus.mouseout"/>
                        </use>
                        <path d="M-4,0h8" fill="none" stroke="white" stroke-width="1.5" pointer-events="none"/>
                </g>
                <g id="dirArrow">
                        <path fill="none" stroke="white" stroke-width="1.5" d="M0,-3.0v7 M-2.5,-0.5L0,-3.0L2.5,-0.5"/>
                </g>
               <g id="resetDef">
                       <use xlink:href="#rim2" fill="#404040">
                               <set attributeName="fill" to="#808080" begin="reset.mouseover" end="reset.mouseout"/>
                       </use>
               </g>
        </defs>

<script type="text/javascript">
var viewWidth = 1289;
var viewHeight = 117;
var sectionId = 'dynsection-2';
</script>
<script xlink:href="svgpan.js"/>
<svg id="graph" class="graph">
<g id="viewport">
<title>CacheMap::Get</title>
<polygon fill="white" stroke="none" points="-4,4 -4,-112.97 1285,-112.97 1285,4 -4,4"/>
<!-- Node55 -->
<g id="node1" class="node"><title>Node55</title>
<polygon fill="#bfbfbf" stroke="black" points="0,-57.5 0,-76.5 86,-76.5 86,-57.5 0,-57.5"/>
<text text-anchor="middle" x="43" y="-64.5" font-family="Helvetica,sans-Serif" font-size="10.00">CacheMap::Get</text>
</g>
<!-- Node56 -->
<g id="node2" class="node"><title>Node56</title>
<g id="a_node2"><a xlink:href="class_c_governance_manager.html#a34ae4a4241bc9cc6d507da7c562ffd54" target="_top" xlink:title="CGovernanceManager\l::HaveVoteForHash">
<polygon fill="white" stroke="black" points="124,-77 124,-107 238,-107 238,-77 124,-77"/>
<text text-anchor="start" x="132" y="-95" font-family="Helvetica,sans-Serif" font-size="10.00">CGovernanceManager</text>
<text text-anchor="middle" x="181" y="-84" font-family="Helvetica,sans-Serif" font-size="10.00">::HaveVoteForHash</text>
</a>
</g>
</g>
<!-- Node55&#45;&gt;Node56 -->
<g id="edge1" class="edge"><title>Node55&#45;&gt;Node56</title>
<path fill="none" stroke="midnightblue" d="M96.2462,-76.6041C105.247,-78.2586 114.638,-79.9848 123.739,-81.6579"/>
<polygon fill="midnightblue" stroke="midnightblue" points="96.7538,-73.1388 86.2858,-74.7731 95.4882,-80.0235 96.7538,-73.1388"/>
</g>
<!-- Node70 -->
<g id="node16" class="node"><title>Node70</title>
<g id="a_node16"><a xlink:href="class_c_governance_manager.html#a64703cfe6457f15eda35ae0dbb03c167" target="_top" xlink:title="CGovernanceManager\l::SerializeVoteForHash">
<polygon fill="white" stroke="black" points="122,-28 122,-58 240,-58 240,-28 122,-28"/>
<text text-anchor="start" x="130" y="-46" font-family="Helvetica,sans-Serif" font-size="10.00">CGovernanceManager</text>
<text text-anchor="middle" x="181" y="-35" font-family="Helvetica,sans-Serif" font-size="10.00">::SerializeVoteForHash</text>
</a>
</g>
</g>
<!-- Node55&#45;&gt;Node70 -->
<g id="edge17" class="edge"><title>Node55&#45;&gt;Node70</title>
<path fill="none" stroke="midnightblue" d="M96.2615,-57.7774C104.606,-56.3049 113.284,-54.7734 121.757,-53.2782"/>
<polygon fill="midnightblue" stroke="midnightblue" points="95.5253,-54.3531 86.2858,-59.5378 96.7419,-61.2466 95.5253,-54.3531"/>
</g>
<!-- Node57 -->
<g id="node3" class="node"><title>Node57</title>
<g id="a_node3"><a xlink:href="net__processing_8cpp.html#a3610bfc3daf9c22790dad01f77b2df4a" target="_top" xlink:title="ProcessGetData">
<polygon fill="white" stroke="black" points="276,-57.5 276,-76.5 365,-76.5 365,-57.5 276,-57.5"/>
<text text-anchor="middle" x="320.5" y="-64.5" font-family="Helvetica,sans-Serif" font-size="10.00">ProcessGetData</text>
</a>
</g>
</g>
<!-- Node56&#45;&gt;Node57 -->
<g id="edge2" class="edge"><title>Node56&#45;&gt;Node57</title>
<path fill="none" stroke="midnightblue" d="M248.339,-79.9383C257.62,-78.2508 266.96,-76.5527 275.681,-74.9671"/>
<polygon fill="midnightblue" stroke="midnightblue" points="247.536,-76.5269 238.323,-81.7594 248.788,-83.414 247.536,-76.5269"/>
</g>
<!-- Node58 -->
<g id="node4" class="node"><title>Node58</title>
<g id="a_node4"><a xlink:href="net__processing_8cpp.html#a193d0ece6e2f2f7ee37352ac9720bb83" target="_top" xlink:title="ProcessMessage">
<polygon fill="white" stroke="black" points="401,-76.5 401,-95.5 493,-95.5 493,-76.5 401,-76.5"/>
<text text-anchor="middle" x="447" y="-83.5" font-family="Helvetica,sans-Serif" font-size="10.00">ProcessMessage</text>
</a>
</g>
</g>
<!-- Node57&#45;&gt;Node58 -->
<g id="edge3" class="edge"><title>Node57&#45;&gt;Node58</title>
<path fill="none" stroke="midnightblue" d="M374.93,-75.154C383.474,-76.4579 392.244,-77.7963 400.579,-79.0683"/>
<polygon fill="midnightblue" stroke="midnightblue" points="375.458,-71.6941 365.044,-73.6453 374.402,-78.6139 375.458,-71.6941"/>
</g>
<!-- Node59 -->
<g id="node5" class="node"><title>Node59</title>
<g id="a_node5"><a xlink:href="net__processing_8h.html#a7fa42e7ffd6e6ba5b7537af248e30fc8" target="_top" xlink:title="Process protocol messages received from a given node. ">
<polygon fill="white" stroke="black" points="529,-57.5 529,-76.5 627,-76.5 627,-57.5 529,-57.5"/>
<text text-anchor="middle" x="578" y="-64.5" font-family="Helvetica,sans-Serif" font-size="10.00">ProcessMessages</text>
</a>
</g>
</g>
<!-- Node57&#45;&gt;Node59 -->
<g id="edge16" class="edge"><title>Node57&#45;&gt;Node59</title>
<path fill="none" stroke="midnightblue" d="M375.371,-67C420.743,-67 485.058,-67 528.762,-67"/>
<polygon fill="midnightblue" stroke="midnightblue" points="375.132,-63.5001 365.132,-67 375.132,-70.5001 375.132,-63.5001"/>
</g>
<!-- Node58&#45;&gt;Node59 -->
<g id="edge4" class="edge"><title>Node58&#45;&gt;Node59</title>
<path fill="none" stroke="midnightblue" d="M503.259,-77.861C511.694,-76.6187 520.344,-75.3448 528.615,-74.1264"/>
<polygon fill="midnightblue" stroke="midnightblue" points="502.501,-74.4348 493.118,-79.3547 503.521,-81.3601 502.501,-74.4348"/>
</g>
<!-- Node60 -->
<g id="node6" class="node"><title>Node60</title>
<g id="a_node6"><a xlink:href="net__processing_8h.html#ab02615ff65f91d69f8d786ec900baa8a" target="_top" xlink:title="Register with a network node to receive its signals. ">
<polygon fill="white" stroke="black" points="667,-76.5 667,-95.5 776,-95.5 776,-76.5 667,-76.5"/>
<text text-anchor="middle" x="721.5" y="-83.5" font-family="Helvetica,sans-Serif" font-size="10.00">RegisterNodeSignals</text>
</a>
</g>
</g>
<!-- Node59&#45;&gt;Node60 -->
<g id="edge5" class="edge"><title>Node59&#45;&gt;Node60</title>
<path fill="none" stroke="midnightblue" d="M637.265,-74.8236C646.971,-76.1268 657,-77.4734 666.59,-78.7612"/>
<polygon fill="midnightblue" stroke="midnightblue" points="637.677,-71.3476 627.301,-73.4856 636.746,-78.2853 637.677,-71.3476"/>
</g>
<!-- Node65 -->
<g id="node11" class="node"><title>Node65</title>
<g id="a_node11"><a xlink:href="net__processing_8h.html#a3ef0cc6e9d9d6435ee2a5569244d6ebd" target="_top" xlink:title="Unregister a network node. ">
<polygon fill="white" stroke="black" points="663,-38.5 663,-57.5 780,-57.5 780,-38.5 663,-38.5"/>
<text text-anchor="middle" x="721.5" y="-45.5" font-family="Helvetica,sans-Serif" font-size="10.00">UnregisterNodeSignals</text>
</a>
</g>
</g>
<!-- Node59&#45;&gt;Node65 -->
<g id="edge10" class="edge"><title>Node59&#45;&gt;Node65</title>
<path fill="none" stroke="midnightblue" d="M637.343,-59.166C645.7,-58.0439 654.295,-56.8898 662.642,-55.7689"/>
<polygon fill="midnightblue" stroke="midnightblue" points="636.746,-55.7147 627.301,-60.5144 637.677,-62.6524 636.746,-55.7147"/>
</g>
<!-- Node61 -->
<g id="node7" class="node"><title>Node61</title>
<g id="a_node7"><a xlink:href="init_8h.html#a6f0784aa332573f949b0975205572b28" target="_top" xlink:title="Initialize Dash Core. ">
<polygon fill="white" stroke="black" points="836.5,-76.5 836.5,-95.5 889.5,-95.5 889.5,-76.5 836.5,-76.5"/>
<text text-anchor="middle" x="863" y="-83.5" font-family="Helvetica,sans-Serif" font-size="10.00">AppInit2</text>
</a>
</g>
</g>
<!-- Node60&#45;&gt;Node61 -->
<g id="edge6" class="edge"><title>Node60&#45;&gt;Node61</title>
<path fill="none" stroke="midnightblue" d="M786.375,-86C804.095,-86 822.324,-86 836.444,-86"/>
<polygon fill="midnightblue" stroke="midnightblue" points="786.035,-82.5001 776.035,-86 786.035,-89.5001 786.035,-82.5001"/>
</g>
<!-- Node62 -->
<g id="node8" class="node"><title>Node62</title>
<g id="a_node8"><a xlink:href="dashd_8cpp.html#ac59316b767e6984e1285f0531275286b" target="_top" xlink:title="AppInit">
<polygon fill="white" stroke="black" points="1125.5,-76.5 1125.5,-95.5 1172.5,-95.5 1172.5,-76.5 1125.5,-76.5"/>
<text text-anchor="middle" x="1149" y="-83.5" font-family="Helvetica,sans-Serif" font-size="10.00">AppInit</text>
</a>
</g>
</g>
<!-- Node61&#45;&gt;Node62 -->
<g id="edge7" class="edge"><title>Node61&#45;&gt;Node62</title>
<path fill="none" stroke="midnightblue" d="M899.527,-96.0906C913.837,-99.6657 930.578,-103.237 946,-105 994.131,-110.503 1006.8,-109.873 1055,-105 1079.27,-102.547 1106.56,-96.5796 1125.27,-91.9816"/>
<polygon fill="midnightblue" stroke="midnightblue" points="900.148,-92.636 889.59,-93.5125 898.39,-99.4117 900.148,-92.636"/>
</g>
<!-- Node64 -->
<g id="node10" class="node"><title>Node64</title>
<g id="a_node10"><a xlink:href="class_bitcoin_core.html#af34ca069cda1d4362dcc109b4397fb62" target="_top" xlink:title="BitcoinCore::initialize">
<polygon fill="white" stroke="black" points="946,-76.5 946,-95.5 1055,-95.5 1055,-76.5 946,-76.5"/>
<text text-anchor="middle" x="1000.5" y="-83.5" font-family="Helvetica,sans-Serif" font-size="10.00">BitcoinCore::initialize</text>
</a>
</g>
</g>
<!-- Node61&#45;&gt;Node64 -->
<g id="edge9" class="edge"><title>Node61&#45;&gt;Node64</title>
<path fill="none" stroke="midnightblue" d="M900.012,-86C914.027,-86 930.384,-86 945.739,-86"/>
<polygon fill="midnightblue" stroke="midnightblue" points="899.805,-82.5001 889.805,-86 899.805,-89.5001 899.805,-82.5001"/>
</g>
<!-- Node63 -->
<g id="node9" class="node"><title>Node63</title>
<g id="a_node9"><a xlink:href="dashd_8cpp.html#a0ddf1224851353fc92bfbff6f499fa97" target="_top" xlink:title="main">
<polygon fill="white" stroke="black" points="1243,-76.5 1243,-95.5 1281,-95.5 1281,-76.5 1243,-76.5"/>
<text text-anchor="middle" x="1262" y="-83.5" font-family="Helvetica,sans-Serif" font-size="10.00">main</text>
</a>
</g>
</g>
<!-- Node62&#45;&gt;Node63 -->
<g id="edge8" class="edge"><title>Node62&#45;&gt;Node63</title>
<path fill="none" stroke="midnightblue" d="M1182.77,-86C1202.33,-86 1226.46,-86 1242.7,-86"/>
<polygon fill="midnightblue" stroke="midnightblue" points="1182.73,-82.5001 1172.73,-86 1182.73,-89.5001 1182.73,-82.5001"/>
</g>
<!-- Node66 -->
<g id="node12" class="node"><title>Node66</title>
<g id="a_node12"><a xlink:href="init_8h.html#a5cb3db83cb0ba2e421f651a1ee1f2cfe" target="_top" xlink:title="Preparing steps before shutting down or restarting the wallet. ">
<polygon fill="white" stroke="black" points="816,-38.5 816,-57.5 910,-57.5 910,-38.5 816,-38.5"/>
<text text-anchor="middle" x="863" y="-45.5" font-family="Helvetica,sans-Serif" font-size="10.00">PrepareShutdown</text>
</a>
</g>
</g>
<!-- Node65&#45;&gt;Node66 -->
<g id="edge11" class="edge"><title>Node65&#45;&gt;Node66</title>
<path fill="none" stroke="midnightblue" d="M790.134,-48C798.773,-48 807.454,-48 815.648,-48"/>
<polygon fill="midnightblue" stroke="midnightblue" points="790.045,-44.5001 780.045,-48 790.045,-51.5001 790.045,-44.5001"/>
</g>
<!-- Node67 -->
<g id="node13" class="node"><title>Node67</title>
<g id="a_node13"><a xlink:href="class_bitcoin_core.html#ac2271844c89ebc4c611e7617ce6202e3" target="_top" xlink:title="BitcoinCore::restart">
<polygon fill="white" stroke="black" points="950,-38.5 950,-57.5 1051,-57.5 1051,-38.5 950,-38.5"/>
<text text-anchor="middle" x="1000.5" y="-45.5" font-family="Helvetica,sans-Serif" font-size="10.00">BitcoinCore::restart</text>
</a>
</g>
</g>
<!-- Node66&#45;&gt;Node67 -->
<g id="edge12" class="edge"><title>Node66&#45;&gt;Node67</title>
<path fill="none" stroke="midnightblue" d="M920.285,-48C930.061,-48 940.164,-48 949.75,-48"/>
<polygon fill="midnightblue" stroke="midnightblue" points="920.252,-44.5001 910.252,-48 920.252,-51.5001 920.252,-44.5001"/>
</g>
<!-- Node68 -->
<g id="node14" class="node"><title>Node68</title>
<g id="a_node14"><a xlink:href="init_8h.html#ac5f038c2b480cf9ef5e19e3eba8dbaf9" target="_top" xlink:title="Shutdown is split into 2 parts: Part 1: shut down everything but the main wallet instance (done in Pr...">
<polygon fill="white" stroke="black" points="970.5,-0.5 970.5,-19.5 1030.5,-19.5 1030.5,-0.5 970.5,-0.5"/>
<text text-anchor="middle" x="1000.5" y="-7.5" font-family="Helvetica,sans-Serif" font-size="10.00">Shutdown</text>
</a>
</g>
</g>
<!-- Node66&#45;&gt;Node68 -->
<g id="edge13" class="edge"><title>Node66&#45;&gt;Node68</title>
<path fill="none" stroke="midnightblue" d="M907.93,-35.68C928.39,-29.9422 952.171,-23.2731 970.369,-18.1695"/>
<polygon fill="midnightblue" stroke="midnightblue" points="906.876,-32.3407 898.192,-38.411 908.766,-39.0807 906.876,-32.3407"/>
</g>
<!-- Node68&#45;&gt;Node62 -->
<g id="edge14" class="edge"><title>Node68&#45;&gt;Node62</title>
<path fill="none" stroke="midnightblue" d="M1040.17,-22.6455C1045.23,-24.614 1050.28,-26.748 1055,-29 1084.56,-43.1186 1116.64,-64.1858 1134.33,-76.3625"/>
<polygon fill="midnightblue" stroke="midnightblue" points="1041.14,-19.2709 1030.55,-19.0768 1038.71,-25.8344 1041.14,-19.2709"/>
</g>
<!-- Node69 -->
<g id="node15" class="node"><title>Node69</title>
<g id="a_node15"><a xlink:href="class_bitcoin_core.html#a94f3f4622ba698e321f3a2e0e686129f" target="_top" xlink:title="BitcoinCore::shutdown">
<polygon fill="white" stroke="black" points="1091,-0.5 1091,-19.5 1207,-19.5 1207,-0.5 1091,-0.5"/>
<text text-anchor="middle" x="1149" y="-7.5" font-family="Helvetica,sans-Serif" font-size="10.00">BitcoinCore::shutdown</text>
</a>
</g>
</g>
<!-- Node68&#45;&gt;Node69 -->
<g id="edge15" class="edge"><title>Node68&#45;&gt;Node69</title>
<path fill="none" stroke="midnightblue" d="M1040.97,-10C1056.31,-10 1074.18,-10 1090.88,-10"/>
<polygon fill="midnightblue" stroke="midnightblue" points="1040.79,-6.5001 1030.79,-10 1040.79,-13.5001 1040.79,-6.5001"/>
</g>
<!-- Node70&#45;&gt;Node57 -->
<g id="edge18" class="edge"><title>Node70&#45;&gt;Node57</title>
<path fill="none" stroke="midnightblue" d="M250.385,-54.9364C258.997,-56.4394 267.616,-57.9438 275.702,-59.3552"/>
<polygon fill="midnightblue" stroke="midnightblue" points="250.765,-51.4498 240.312,-53.1782 249.562,-58.3456 250.765,-51.4498"/>
</g>
</g>
</svg>
        <g id="navigator" transform="translate(0 0)" fill="#404254">
                <rect fill="#f2f5e9" fill-opacity="0.5" stroke="#606060" stroke-width=".5" x="0" y="0" width="60" height="60"/>
                <use id="zoomplus" xlink:href="#zoomPlus" x="17" y="9" onmousedown="handleZoom(evt,'in')"/>
                <use id="zoomminus" xlink:href="#zoomMin" x="42" y="9" onmousedown="handleZoom(evt,'out')"/>
                <use id="reset" xlink:href="#resetDef" x="30" y="36" onmousedown="handleReset()"/>
                <g id="arrowUp" xlink:href="#dirArrow" transform="translate(30 24)" onmousedown="handlePan(0,-1)">
                  <use xlink:href="#rim" fill="#404040">
                        <set attributeName="fill" to="#808080" begin="arrowUp.mouseover" end="arrowUp.mouseout"/>
                  </use>
                  <path fill="none" stroke="white" stroke-width="1.5" d="M0,-3.0v7 M-2.5,-0.5L0,-3.0L2.5,-0.5"/>
                </g>
                <g id="arrowRight" xlink:href="#dirArrow" transform="rotate(90) translate(36 -43)" onmousedown="handlePan(1,0)">
                  <use xlink:href="#rim" fill="#404040">
                        <set attributeName="fill" to="#808080" begin="arrowRight.mouseover" end="arrowRight.mouseout"/>
                  </use>
                  <path fill="none" stroke="white" stroke-width="1.5" d="M0,-3.0v7 M-2.5,-0.5L0,-3.0L2.5,-0.5"/>
                </g>
                <g id="arrowDown" xlink:href="#dirArrow" transform="rotate(180) translate(-30 -48)" onmousedown="handlePan(0,1)">
                  <use xlink:href="#rim" fill="#404040">
                        <set attributeName="fill" to="#808080" begin="arrowDown.mouseover" end="arrowDown.mouseout"/>
                  </use>
                  <path fill="none" stroke="white" stroke-width="1.5" d="M0,-3.0v7 M-2.5,-0.5L0,-3.0L2.5,-0.5"/>
                </g>
                <g id="arrowLeft" xlink:href="#dirArrow" transform="rotate(270) translate(-36 17)" onmousedown="handlePan(-1,0)">
                  <use xlink:href="#rim" fill="#404040">
                        <set attributeName="fill" to="#808080" begin="arrowLeft.mouseover" end="arrowLeft.mouseout"/>
                  </use>
                  <path fill="none" stroke="white" stroke-width="1.5" d="M0,-3.0v7 M-2.5,-0.5L0,-3.0L2.5,-0.5"/>
                </g>
        </g>
        <svg viewBox="0 0 15 15" width="100%" height="30px" preserveAspectRatio="xMaxYMin meet">
         <g id="arrow_out" transform="scale(0.3 0.3)">
          <a xlink:href="class_cache_map_a54384b111fdff54d646432f351ba9dd4_icgraph_org.svg" target="_base">
           <rect id="button" ry="5" rx="5" y="6" x="6" height="38" width="38"
                fill="#f2f5e9" fill-opacity="0.5" stroke="#606060" stroke-width="1.0"/>
           <path id="arrow"
             d="M 11.500037,31.436501 C 11.940474,20.09759 22.043105,11.32322 32.158766,21.979434 L 37.068811,17.246167 C 37.068811,17.246167 37.088388,32 37.088388,32 L 22.160133,31.978069 C 22.160133,31.978069 26.997745,27.140456 26.997745,27.140456 C 18.528582,18.264221 13.291696,25.230495 11.500037,31.436501 z"
             style="fill:#404040;"/>
          </a>
         </g>
        </svg>
</svg>
