<?xml version="1.0" encoding="UTF-8" standalone="no"?>
<!DOCTYPE svg PUBLIC "-//W3C//DTD SVG 1.1//EN"
 "http://www.w3.org/Graphics/SVG/1.1/DTD/svg11.dtd">
<!-- Generated by graphviz version 2.38.0 (20140413.2041)
 -->
<!-- Title: RPCConsole::updateNodeDetail Pages: 1 -->
<!--zoomable 88 -->
<svg id="main" version="1.1" xmlns="http://www.w3.org/2000/svg" xmlns:xlink="http://www.w3.org/1999/xlink" xml:space="preserve" onload="init(evt)">
<style type="text/css"><![CDATA[
.edge:hover path { stroke: red; }
.edge:hover polygon { stroke: red; fill: red; }
]]></style>
<script type="text/javascript"><![CDATA[
var edges = document.getElementsByTagName('g');
if (edges && edges.length) {
  for (var i=0;i<edges.length;i++) {
    if (edges[i].id.substr(0,4)=='edge') {
      edges[i].setAttribute('class','edge');
    }
  }
}
]]></script>
        <defs>
                <circle id="rim" cx="0" cy="0" r="7"/>
                <circle id="rim2" cx="0" cy="0" r="3.5"/>
                <g id="zoomPlus">
                        <use xlink:href="#rim" fill="#404040">
                                <set attributeName="fill" to="#808080" begin="zoomplus.mouseover" end="zoomplus.mouseout"/>
                        </use>
                        <path d="M-4,0h8M0,-4v8" fill="none" stroke="white" stroke-width="1.5" pointer-events="none"/>
                </g>
                <g id="zoomMin">
                        <use xlink:href="#rim" fill="#404040">
                                <set attributeName="fill" to="#808080" begin="zoomminus.mouseover" end="zoomminus.mouseout"/>
                        </use>
                        <path d="M-4,0h8" fill="none" stroke="white" stroke-width="1.5" pointer-events="none"/>
                </g>
                <g id="dirArrow">
                        <path fill="none" stroke="white" stroke-width="1.5" d="M0,-3.0v7 M-2.5,-0.5L0,-3.0L2.5,-0.5"/>
                </g>
               <g id="resetDef">
                       <use xlink:href="#rim2" fill="#404040">
                               <set attributeName="fill" to="#808080" begin="reset.mouseover" end="reset.mouseout"/>
                       </use>
               </g>
        </defs>

<script type="text/javascript">
var viewWidth = 1193;
var viewHeight = 88;
var sectionId = 'dynsection-63';
</script>
<script xlink:href="svgpan.js"/>
<svg id="graph" class="graph">
<g id="viewport">
<title>RPCConsole::updateNodeDetail</title>
<polygon fill="white" stroke="none" points="-4,4 -4,-84 1189,-84 1189,4 -4,4"/>
<!-- Node541 -->
<g id="node1" class="node"><title>Node541</title>
<polygon fill="#bfbfbf" stroke="black" points="0,-28 0,-47 158,-47 158,-28 0,-28"/>
<text text-anchor="middle" x="79" y="-35" font-family="Helvetica,sans-Serif" font-size="10.00">RPCConsole::updateNodeDetail</text>
</g>
<!-- Node542 -->
<g id="node2" class="node"><title>Node542</title>
<g id="a_node2"><a xlink:href="class_r_p_c_console.html#af952ebc6484c8f7d1262fa0bceed41bf" target="_top" xlink:title="Handle updated peer information. ">
<polygon fill="white" stroke="black" points="194,-47 194,-66 361,-66 361,-47 194,-47"/>
<text text-anchor="middle" x="277.5" y="-54" font-family="Helvetica,sans-Serif" font-size="10.00">RPCConsole::peerLayoutChanged</text>
</a>
</g>
</g>
<!-- Node541&#45;&gt;Node542 -->
<g id="edge1" class="edge"><title>Node541&#45;&gt;Node542</title>
<path fill="none" stroke="midnightblue" d="M168.425,-46.05C176.839,-46.8636 185.35,-47.6865 193.708,-48.4947"/>
<polygon fill="midnightblue" stroke="midnightblue" points="168.517,-42.5427 158.227,-45.0639 167.843,-49.5102 168.517,-42.5427"/>
</g>
<!-- Node550 -->
<g id="node10" class="node"><title>Node550</title>
<g id="a_node10"><a xlink:href="class_r_p_c_console.html#a2487fa6a90cddcbb17ae4bb13ecc5359" target="_top" xlink:title="Handle selection of peer in peers list. ">
<polygon fill="white" stroke="black" points="209,-9 209,-28 346,-28 346,-9 209,-9"/>
<text text-anchor="middle" x="277.5" y="-16" font-family="Helvetica,sans-Serif" font-size="10.00">RPCConsole::peerSelected</text>
</a>
</g>
</g>
<!-- Node541&#45;&gt;Node550 -->
<g id="edge11" class="edge"><title>Node541&#45;&gt;Node550</title>
<path fill="none" stroke="midnightblue" d="M168.483,-28.9444C181.982,-27.6392 195.729,-26.31 208.691,-25.0566"/>
<polygon fill="midnightblue" stroke="midnightblue" points="167.843,-25.4898 158.227,-29.9361 168.517,-32.4573 167.843,-25.4898"/>
</g>
<!-- Node543 -->
<g id="node3" class="node"><title>Node543</title>
<g id="a_node3"><a xlink:href="class_r_p_c_console.html#a355349a33664a07628e9ca22a60f5fa7" target="_top" xlink:title="RPCConsole::setClientModel">
<polygon fill="white" stroke="black" points="397,-28 397,-47 543,-47 543,-28 397,-28"/>
<text text-anchor="middle" x="470" y="-35" font-family="Helvetica,sans-Serif" font-size="10.00">RPCConsole::setClientModel</text>
</a>
</g>
</g>
<!-- Node542&#45;&gt;Node543 -->
<g id="edge2" class="edge"><title>Node542&#45;&gt;Node543</title>
<path fill="none" stroke="midnightblue" d="M371.268,-47.2476C379.848,-46.3918 388.454,-45.5334 396.809,-44.7001"/>
<polygon fill="midnightblue" stroke="midnightblue" points="370.828,-43.774 361.225,-48.2492 371.523,-50.7394 370.828,-43.774"/>
</g>
<!-- Node544 -->
<g id="node4" class="node"><title>Node544</title>
<g id="a_node4"><a xlink:href="class_bitcoin_g_u_i.html#a99d71e1f8478ab937ce2522c8d3815e3" target="_top" xlink:title="Set the client model. ">
<polygon fill="white" stroke="black" points="579,-28 579,-47 715,-47 715,-28 579,-28"/>
<text text-anchor="middle" x="647" y="-35" font-family="Helvetica,sans-Serif" font-size="10.00">BitcoinGUI::setClientModel</text>
</a>
</g>
</g>
<!-- Node543&#45;&gt;Node544 -->
<g id="edge3" class="edge"><title>Node543&#45;&gt;Node544</title>
<path fill="none" stroke="midnightblue" d="M553.19,-37.5C561.753,-37.5 570.384,-37.5 578.753,-37.5"/>
<polygon fill="midnightblue" stroke="midnightblue" points="553.19,-34.0001 543.19,-37.5 553.19,-41.0001 553.19,-34.0001"/>
</g>
<!-- Node545 -->
<g id="node5" class="node"><title>Node545</title>
<g id="a_node5"><a xlink:href="class_bitcoin_application.html#aceb08b4063e4fb264cf11cf7f9edd969" target="_top" xlink:title="BitcoinApplication\l::initializeResult">
<polygon fill="white" stroke="black" points="751,-44.5 751,-74.5 846,-74.5 846,-44.5 751,-44.5"/>
<text text-anchor="start" x="759" y="-62.5" font-family="Helvetica,sans-Serif" font-size="10.00">BitcoinApplication</text>
<text text-anchor="middle" x="798.5" y="-51.5" font-family="Helvetica,sans-Serif" font-size="10.00">::initializeResult</text>
</a>
</g>
</g>
<!-- Node544&#45;&gt;Node545 -->
<g id="edge4" class="edge"><title>Node544&#45;&gt;Node545</title>
<path fill="none" stroke="midnightblue" d="M722.644,-48.4845C732.21,-49.8921 741.778,-51.3 750.721,-52.6161"/>
<polygon fill="midnightblue" stroke="midnightblue" points="723.106,-45.0148 712.703,-47.0216 722.087,-51.9403 723.106,-45.0148"/>
</g>
<!-- Node549 -->
<g id="node9" class="node"><title>Node549</title>
<g id="a_node9"><a xlink:href="class_bitcoin_application.html#a37c560d4c04d14a6da151b82caf8888f" target="_top" xlink:title="Request core shutdown. ">
<polygon fill="white" stroke="black" points="1013,-0.5 1013,-30.5 1111,-30.5 1111,-0.5 1013,-0.5"/>
<text text-anchor="start" x="1021" y="-18.5" font-family="Helvetica,sans-Serif" font-size="10.00">BitcoinApplication</text>
<text text-anchor="middle" x="1062" y="-7.5" font-family="Helvetica,sans-Serif" font-size="10.00">::requestShutdown</text>
</a>
</g>
</g>
<!-- Node544&#45;&gt;Node549 -->
<g id="edge10" class="edge"><title>Node544&#45;&gt;Node549</title>
<path fill="none" stroke="midnightblue" d="M725.318,-33.3814C809.688,-28.8871 942.14,-21.8315 1012.8,-18.0675"/>
<polygon fill="midnightblue" stroke="midnightblue" points="725.074,-29.8893 715.275,-33.9164 725.447,-36.8794 725.074,-29.8893"/>
</g>
<!-- Node546 -->
<g id="node6" class="node"><title>Node546</title>
<g id="a_node6"><a xlink:href="class_bitcoin_application.html#a61afce9356e452c53ad4c83f5ca19df8" target="_top" xlink:title="BitcoinApplication\l::startThread">
<polygon fill="white" stroke="black" points="882,-44.5 882,-74.5 977,-74.5 977,-44.5 882,-44.5"/>
<text text-anchor="start" x="890" y="-62.5" font-family="Helvetica,sans-Serif" font-size="10.00">BitcoinApplication</text>
<text text-anchor="middle" x="929.5" y="-51.5" font-family="Helvetica,sans-Serif" font-size="10.00">::startThread</text>
</a>
</g>
</g>
<!-- Node545&#45;&gt;Node546 -->
<g id="edge5" class="edge"><title>Node545&#45;&gt;Node546</title>
<path fill="none" stroke="midnightblue" d="M856.101,-59.5C864.752,-59.5 873.596,-59.5 881.996,-59.5"/>
<polygon fill="midnightblue" stroke="midnightblue" points="856.072,-56.0001 846.072,-59.5 856.072,-63.0001 856.072,-56.0001"/>
</g>
<!-- Node547 -->
<g id="node7" class="node"><title>Node547</title>
<g id="a_node7"><a xlink:href="class_bitcoin_application.html#ade19c44b87b00b6b19b433caf4c22ba6" target="_top" xlink:title="Request core initialization. ">
<polygon fill="white" stroke="black" points="1014.5,-49.5 1014.5,-79.5 1109.5,-79.5 1109.5,-49.5 1014.5,-49.5"/>
<text text-anchor="start" x="1022.5" y="-67.5" font-family="Helvetica,sans-Serif" font-size="10.00">BitcoinApplication</text>
<text text-anchor="middle" x="1062" y="-56.5" font-family="Helvetica,sans-Serif" font-size="10.00">::requestInitialize</text>
</a>
</g>
</g>
<!-- Node546&#45;&gt;Node547 -->
<g id="edge6" class="edge"><title>Node546&#45;&gt;Node547</title>
<path fill="none" stroke="midnightblue" d="M987.251,-61.6744C996.228,-62.0183 1005.42,-62.3707 1014.14,-62.7047"/>
<polygon fill="midnightblue" stroke="midnightblue" points="987.372,-58.1765 977.245,-61.291 987.104,-65.1714 987.372,-58.1765"/>
</g>
<!-- Node546&#45;&gt;Node549 -->
<g id="edge8" class="edge"><title>Node546&#45;&gt;Node549</title>
<path fill="none" stroke="midnightblue" d="M984.569,-41.2699C995.096,-37.7204 1006.02,-34.0358 1016.21,-30.6009"/>
<polygon fill="midnightblue" stroke="midnightblue" points="983.403,-37.9692 975.046,-44.4808 985.64,-44.6023 983.403,-37.9692"/>
</g>
<!-- Node548 -->
<g id="node8" class="node"><title>Node548</title>
<g id="a_node8"><a xlink:href="dash_8cpp.html#a0ddf1224851353fc92bfbff6f499fa97" target="_top" xlink:title="main">
<polygon fill="white" stroke="black" points="1147,-30 1147,-49 1185,-49 1185,-30 1147,-30"/>
<text text-anchor="middle" x="1166" y="-37" font-family="Helvetica,sans-Serif" font-size="10.00">main</text>
</a>
</g>
</g>
<!-- Node547&#45;&gt;Node548 -->
<g id="edge7" class="edge"><title>Node547&#45;&gt;Node548</title>
<path fill="none" stroke="midnightblue" d="M1119.47,-50.6586C1129.39,-48.2289 1139.02,-45.8675 1146.85,-43.9474"/>
<polygon fill="midnightblue" stroke="midnightblue" points="1118.4,-47.3174 1109.52,-53.0974 1120.07,-54.1162 1118.4,-47.3174"/>
</g>
<!-- Node549&#45;&gt;Node548 -->
<g id="edge9" class="edge"><title>Node549&#45;&gt;Node548</title>
<path fill="none" stroke="midnightblue" d="M1120.92,-29.128C1130.37,-31.3508 1139.49,-33.4977 1146.96,-35.2559"/>
<polygon fill="midnightblue" stroke="midnightblue" points="1121.55,-25.6807 1111.01,-26.7972 1119.95,-32.4947 1121.55,-25.6807"/>
</g>
<!-- Node550&#45;&gt;Node543 -->
<g id="edge12" class="edge"><title>Node550&#45;&gt;Node543</title>
<path fill="none" stroke="midnightblue" d="M356.299,-26.2595C369.651,-27.5911 383.476,-28.97 396.677,-30.2866"/>
<polygon fill="midnightblue" stroke="midnightblue" points="356.498,-22.762 346.2,-25.2522 355.803,-29.7274 356.498,-22.762"/>
</g>
</g>
</svg>
        <g id="navigator" transform="translate(0 0)" fill="#404254">
                <rect fill="#f2f5e9" fill-opacity="0.5" stroke="#606060" stroke-width=".5" x="0" y="0" width="60" height="60"/>
                <use id="zoomplus" xlink:href="#zoomPlus" x="17" y="9" onmousedown="handleZoom(evt,'in')"/>
                <use id="zoomminus" xlink:href="#zoomMin" x="42" y="9" onmousedown="handleZoom(evt,'out')"/>
                <use id="reset" xlink:href="#resetDef" x="30" y="36" onmousedown="handleReset()"/>
                <g id="arrowUp" xlink:href="#dirArrow" transform="translate(30 24)" onmousedown="handlePan(0,-1)">
                  <use xlink:href="#rim" fill="#404040">
                        <set attributeName="fill" to="#808080" begin="arrowUp.mouseover" end="arrowUp.mouseout"/>
                  </use>
                  <path fill="none" stroke="white" stroke-width="1.5" d="M0,-3.0v7 M-2.5,-0.5L0,-3.0L2.5,-0.5"/>
                </g>
                <g id="arrowRight" xlink:href="#dirArrow" transform="rotate(90) translate(36 -43)" onmousedown="handlePan(1,0)">
                  <use xlink:href="#rim" fill="#404040">
                        <set attributeName="fill" to="#808080" begin="arrowRight.mouseover" end="arrowRight.mouseout"/>
                  </use>
                  <path fill="none" stroke="white" stroke-width="1.5" d="M0,-3.0v7 M-2.5,-0.5L0,-3.0L2.5,-0.5"/>
                </g>
                <g id="arrowDown" xlink:href="#dirArrow" transform="rotate(180) translate(-30 -48)" onmousedown="handlePan(0,1)">
                  <use xlink:href="#rim" fill="#404040">
                        <set attributeName="fill" to="#808080" begin="arrowDown.mouseover" end="arrowDown.mouseout"/>
                  </use>
                  <path fill="none" stroke="white" stroke-width="1.5" d="M0,-3.0v7 M-2.5,-0.5L0,-3.0L2.5,-0.5"/>
                </g>
                <g id="arrowLeft" xlink:href="#dirArrow" transform="rotate(270) translate(-36 17)" onmousedown="handlePan(-1,0)">
                  <use xlink:href="#rim" fill="#404040">
                        <set attributeName="fill" to="#808080" begin="arrowLeft.mouseover" end="arrowLeft.mouseout"/>
                  </use>
                  <path fill="none" stroke="white" stroke-width="1.5" d="M0,-3.0v7 M-2.5,-0.5L0,-3.0L2.5,-0.5"/>
                </g>
        </g>
        <svg viewBox="0 0 15 15" width="100%" height="30px" preserveAspectRatio="xMaxYMin meet">
         <g id="arrow_out" transform="scale(0.3 0.3)">
          <a xlink:href="class_r_p_c_console_a0bd7e2be4a07bcf4f8b20eb1881dacbb_icgraph_org.svg" target="_base">
           <rect id="button" ry="5" rx="5" y="6" x="6" height="38" width="38"
                fill="#f2f5e9" fill-opacity="0.5" stroke="#606060" stroke-width="1.0"/>
           <path id="arrow"
             d="M 11.500037,31.436501 C 11.940474,20.09759 22.043105,11.32322 32.158766,21.979434 L 37.068811,17.246167 C 37.068811,17.246167 37.088388,32 37.088388,32 L 22.160133,31.978069 C 22.160133,31.978069 26.997745,27.140456 26.997745,27.140456 C 18.528582,18.264221 13.291696,25.230495 11.500037,31.436501 z"
             style="fill:#404040;"/>
          </a>
         </g>
        </svg>
</svg>
