<?xml version="1.0" encoding="UTF-8" standalone="no"?>
<!DOCTYPE svg PUBLIC "-//W3C//DTD SVG 1.1//EN"
 "http://www.w3.org/Graphics/SVG/1.1/DTD/svg11.dtd">
<!-- Generated by graphviz version 2.38.0 (20140413.2041)
 -->
<!-- Title: CKey::Check Pages: 1 -->
<svg width="1513pt" height="636pt"
 viewBox="0.00 0.00 1513.00 635.72" xmlns="http://www.w3.org/2000/svg" xmlns:xlink="http://www.w3.org/1999/xlink">
<g id="graph0" class="graph" transform="scale(1 1) rotate(0) translate(4 631.719)">
<title>CKey::Check</title>
<polygon fill="white" stroke="none" points="-4,4 -4,-631.719 1509,-631.719 1509,4 -4,4"/>
<!-- Node205 -->
<g id="node1" class="node"><title>Node205</title>
<polygon fill="#bfbfbf" stroke="black" points="0,-395.5 0,-414.5 76,-414.5 76,-395.5 0,-395.5"/>
<text text-anchor="middle" x="38" y="-402.5" font-family="Helvetica,sans-Serif" font-size="10.00">CKey::Check</text>
</g>
<!-- Node206 -->
<g id="node2" class="node"><title>Node206</title>
<g id="a_node2"><a xlink:href="class_c_key.html#a9d12ed9d297e4286250fd7ea6b59e1a5" target="_top" xlink:title="Generate a new private key using a cryptographic PRNG. ">
<polygon fill="white" stroke="black" points="112,-523.5 112,-542.5 221,-542.5 221,-523.5 112,-523.5"/>
<text text-anchor="middle" x="166.5" y="-530.5" font-family="Helvetica,sans-Serif" font-size="10.00">CKey::MakeNewKey</text>
</a>
</g>
</g>
<!-- Node205&#45;&gt;Node206 -->
<g id="edge1" class="edge"><title>Node205&#45;&gt;Node206</title>
<path fill="none" stroke="midnightblue" d="M55.6675,-421.865C82.5022,-449.018 134.44,-501.571 155.882,-523.268"/>
<polygon fill="midnightblue" stroke="midnightblue" points="58.0268,-419.273 48.5081,-414.621 53.0479,-424.194 58.0268,-419.273"/>
</g>
<!-- Node215 -->
<g id="node11" class="node"><title>Node215</title>
<g id="a_node11"><a xlink:href="class_c_key.html#aaa13d5f08456bba094210c5eeabf64c8" target="_top" xlink:title="Initialize using begin and end iterators to byte data. ">
<polygon fill="white" stroke="black" points="135.5,-267.5 135.5,-286.5 197.5,-286.5 197.5,-267.5 135.5,-267.5"/>
<text text-anchor="middle" x="166.5" y="-274.5" font-family="Helvetica,sans-Serif" font-size="10.00">CKey::Set</text>
</a>
</g>
</g>
<!-- Node205&#45;&gt;Node215 -->
<g id="edge10" class="edge"><title>Node205&#45;&gt;Node215</title>
<path fill="none" stroke="midnightblue" d="M55.6675,-388.135C82.5022,-360.982 134.44,-308.429 155.882,-286.732"/>
<polygon fill="midnightblue" stroke="midnightblue" points="53.0479,-385.806 48.5081,-395.379 58.0268,-390.727 53.0479,-385.806"/>
</g>
<!-- Node207 -->
<g id="node3" class="node"><title>Node207</title>
<g id="a_node3"><a xlink:href="key_8h.html#a55cc40f04bf887c1000667caccb0684a" target="_top" xlink:title="Check that required EC support is available at runtime. ">
<polygon fill="white" stroke="black" points="268,-504.5 268,-523.5 381,-523.5 381,-504.5 268,-504.5"/>
<text text-anchor="middle" x="324.5" y="-511.5" font-family="Helvetica,sans-Serif" font-size="10.00">ECC_InitSanityCheck</text>
</a>
</g>
</g>
<!-- Node206&#45;&gt;Node207 -->
<g id="edge2" class="edge"><title>Node206&#45;&gt;Node207</title>
<path fill="none" stroke="midnightblue" d="M231.243,-525.236C243.381,-523.758 255.995,-522.222 267.857,-520.777"/>
<polygon fill="midnightblue" stroke="midnightblue" points="230.69,-521.778 221.186,-526.461 231.536,-528.727 230.69,-521.778"/>
</g>
<!-- Node213 -->
<g id="node9" class="node"><title>Node213</title>
<g id="a_node9"><a xlink:href="server_8h.html#adc51a168fd3ea207996ae4f8d9d6c6ea" target="_top" xlink:title="masternode">
<polygon fill="white" stroke="black" points="290.5,-580.5 290.5,-599.5 358.5,-599.5 358.5,-580.5 290.5,-580.5"/>
<text text-anchor="middle" x="324.5" y="-587.5" font-family="Helvetica,sans-Serif" font-size="10.00">masternode</text>
</a>
</g>
</g>
<!-- Node206&#45;&gt;Node213 -->
<g id="edge8" class="edge"><title>Node206&#45;&gt;Node213</title>
<path fill="none" stroke="midnightblue" d="M197.693,-546.918C214.874,-554.559 236.911,-563.896 257,-571 267.754,-574.803 279.684,-578.4 290.437,-581.42"/>
<polygon fill="midnightblue" stroke="midnightblue" points="198.746,-543.554 188.19,-542.645 195.875,-549.938 198.746,-543.554"/>
</g>
<!-- Node214 -->
<g id="node10" class="node"><title>Node214</title>
<g id="a_node10"><a xlink:href="group__map_wallet.html#ga8495da27a11e957d31d7cf6e60c7422d" target="_top" xlink:title="keystore implementation Generate a new key ">
<polygon fill="white" stroke="black" points="257,-542.5 257,-561.5 392,-561.5 392,-542.5 257,-542.5"/>
<text text-anchor="middle" x="324.5" y="-549.5" font-family="Helvetica,sans-Serif" font-size="10.00">CWallet::GenerateNewKey</text>
</a>
</g>
</g>
<!-- Node206&#45;&gt;Node214 -->
<g id="edge9" class="edge"><title>Node206&#45;&gt;Node214</title>
<path fill="none" stroke="midnightblue" d="M231.29,-540.769C239.688,-541.792 248.313,-542.843 256.759,-543.871"/>
<polygon fill="midnightblue" stroke="midnightblue" points="231.536,-537.273 221.186,-539.539 230.69,-544.222 231.536,-537.273"/>
</g>
<!-- Node208 -->
<g id="node4" class="node"><title>Node208</title>
<g id="a_node4"><a xlink:href="init_8cpp.html#a878797b40fb8eb0d7f330a41d7742d11" target="_top" xlink:title="Sanity checks Ensure that Dash Core is running in a usable environment with all necessary library sup...">
<polygon fill="white" stroke="black" points="464,-595.5 464,-614.5 550,-614.5 550,-595.5 464,-595.5"/>
<text text-anchor="middle" x="507" y="-602.5" font-family="Helvetica,sans-Serif" font-size="10.00">InitSanityCheck</text>
</a>
</g>
</g>
<!-- Node207&#45;&gt;Node208 -->
<g id="edge3" class="edge"><title>Node207&#45;&gt;Node208</title>
<path fill="none" stroke="midnightblue" d="M381.988,-527.438C385.484,-529.086 388.855,-530.932 392,-533 413.112,-546.882 407.361,-562.425 428,-577 439.518,-585.133 453.648,-591.143 466.702,-595.463"/>
<polygon fill="midnightblue" stroke="midnightblue" points="383.095,-524.108 372.516,-523.523 380.421,-530.577 383.095,-524.108"/>
</g>
<!-- Node209 -->
<g id="node5" class="node"><title>Node209</title>
<g id="a_node5"><a xlink:href="init_8h.html#a6f0784aa332573f949b0975205572b28" target="_top" xlink:title="Initialize Dash Core. ">
<polygon fill="white" stroke="black" points="861,-403.5 861,-422.5 914,-422.5 914,-403.5 861,-403.5"/>
<text text-anchor="middle" x="887.5" y="-410.5" font-family="Helvetica,sans-Serif" font-size="10.00">AppInit2</text>
</a>
</g>
</g>
<!-- Node208&#45;&gt;Node209 -->
<g id="edge4" class="edge"><title>Node208&#45;&gt;Node209</title>
<path fill="none" stroke="midnightblue" d="M555.12,-616.728C613.86,-628.554 715.145,-639.488 786,-596 819.672,-575.333 868.875,-457.161 882.74,-422.533"/>
<polygon fill="midnightblue" stroke="midnightblue" points="555.522,-613.236 545.015,-614.6 554.079,-620.086 555.522,-613.236"/>
</g>
<!-- Node210 -->
<g id="node6" class="node"><title>Node210</title>
<g id="a_node6"><a xlink:href="dashd_8cpp.html#ac59316b767e6984e1285f0531275286b" target="_top" xlink:title="AppInit">
<polygon fill="white" stroke="black" points="1051,-422.5 1051,-441.5 1098,-441.5 1098,-422.5 1051,-422.5"/>
<text text-anchor="middle" x="1074.5" y="-429.5" font-family="Helvetica,sans-Serif" font-size="10.00">AppInit</text>
</a>
</g>
</g>
<!-- Node209&#45;&gt;Node210 -->
<g id="edge5" class="edge"><title>Node209&#45;&gt;Node210</title>
<path fill="none" stroke="midnightblue" d="M924.205,-416.667C961.636,-420.511 1019.31,-426.434 1050.9,-429.679"/>
<polygon fill="midnightblue" stroke="midnightblue" points="924.529,-413.182 914.223,-415.642 923.814,-420.145 924.529,-413.182"/>
</g>
<!-- Node212 -->
<g id="node8" class="node"><title>Node212</title>
<g id="a_node8"><a xlink:href="class_bitcoin_core.html#af34ca069cda1d4362dcc109b4397fb62" target="_top" xlink:title="BitcoinCore::initialize">
<polygon fill="white" stroke="black" points="1020,-384.5 1020,-403.5 1129,-403.5 1129,-384.5 1020,-384.5"/>
<text text-anchor="middle" x="1074.5" y="-391.5" font-family="Helvetica,sans-Serif" font-size="10.00">BitcoinCore::initialize</text>
</a>
</g>
</g>
<!-- Node209&#45;&gt;Node212 -->
<g id="edge7" class="edge"><title>Node209&#45;&gt;Node212</title>
<path fill="none" stroke="midnightblue" d="M924.426,-409.31C951.547,-406.525 989.202,-402.658 1019.88,-399.507"/>
<polygon fill="midnightblue" stroke="midnightblue" points="923.814,-405.855 914.223,-410.358 924.529,-412.818 923.814,-405.855"/>
</g>
<!-- Node211 -->
<g id="node7" class="node"><title>Node211</title>
<g id="a_node7"><a xlink:href="dashd_8cpp.html#a0ddf1224851353fc92bfbff6f499fa97" target="_top" xlink:title="main">
<polygon fill="white" stroke="black" points="1257,-422.5 1257,-441.5 1295,-441.5 1295,-422.5 1257,-422.5"/>
<text text-anchor="middle" x="1276" y="-429.5" font-family="Helvetica,sans-Serif" font-size="10.00">main</text>
</a>
</g>
</g>
<!-- Node210&#45;&gt;Node211 -->
<g id="edge6" class="edge"><title>Node210&#45;&gt;Node211</title>
<path fill="none" stroke="midnightblue" d="M1108.49,-432C1150.92,-432 1223.15,-432 1256.78,-432"/>
<polygon fill="midnightblue" stroke="midnightblue" points="1108.39,-428.5 1098.39,-432 1108.39,-435.5 1108.39,-428.5"/>
</g>
<!-- Node216 -->
<g id="node12" class="node"><title>Node216</title>
<g id="a_node12"><a xlink:href="class_c_bitcoin_secret.html#a4d6bf559d092e6d47f8001c7171096df" target="_top" xlink:title="CBitcoinSecret::GetKey">
<polygon fill="white" stroke="black" points="263.5,-403.5 263.5,-422.5 385.5,-422.5 385.5,-403.5 263.5,-403.5"/>
<text text-anchor="middle" x="324.5" y="-410.5" font-family="Helvetica,sans-Serif" font-size="10.00">CBitcoinSecret::GetKey</text>
</a>
</g>
</g>
<!-- Node215&#45;&gt;Node216 -->
<g id="edge11" class="edge"><title>Node215&#45;&gt;Node216</title>
<path fill="none" stroke="midnightblue" d="M186.288,-293.38C219.12,-322.002 285.951,-380.265 312.383,-403.308"/>
<polygon fill="midnightblue" stroke="midnightblue" points="188.557,-290.714 178.719,-286.781 183.957,-295.99 188.557,-290.714"/>
</g>
<!-- Node231 -->
<g id="node27" class="node"><title>Node231</title>
<g id="a_node27"><a xlink:href="struct_c_ext_key.html#a8cd6ecafdd649082601d7eebbec79688" target="_top" xlink:title="CExtKey::SetMaster">
<polygon fill="white" stroke="black" points="271,-161.5 271,-180.5 378,-180.5 378,-161.5 271,-161.5"/>
<text text-anchor="middle" x="324.5" y="-168.5" font-family="Helvetica,sans-Serif" font-size="10.00">CExtKey::SetMaster</text>
</a>
</g>
</g>
<!-- Node215&#45;&gt;Node231 -->
<g id="edge27" class="edge"><title>Node215&#45;&gt;Node231</title>
<path fill="none" stroke="midnightblue" d="M190.043,-261.683C222.59,-239.567 281.821,-199.32 309.074,-180.802"/>
<polygon fill="midnightblue" stroke="midnightblue" points="187.923,-258.891 181.619,-267.406 191.857,-264.681 187.923,-258.891"/>
</g>
<!-- Node253 -->
<g id="node47" class="node"><title>Node253</title>
<g id="a_node47"><a xlink:href="struct_c_ext_key.html#a9720e119745472336b6729e19f0819dd" target="_top" xlink:title="CExtKey::Decode">
<polygon fill="white" stroke="black" points="276.5,-39.5 276.5,-58.5 372.5,-58.5 372.5,-39.5 276.5,-39.5"/>
<text text-anchor="middle" x="324.5" y="-46.5" font-family="Helvetica,sans-Serif" font-size="10.00">CExtKey::Decode</text>
</a>
</g>
</g>
<!-- Node215&#45;&gt;Node253 -->
<g id="edge50" class="edge"><title>Node215&#45;&gt;Node253</title>
<path fill="none" stroke="midnightblue" d="M179.707,-259.159C210.981,-213.451 293.185,-93.3063 316.968,-58.5472"/>
<polygon fill="midnightblue" stroke="midnightblue" points="176.763,-257.264 174.005,-267.493 182.54,-261.217 176.763,-257.264"/>
</g>
<!-- Node255 -->
<g id="node49" class="node"><title>Node255</title>
<g id="a_node49"><a xlink:href="crypter_8cpp.html#a706e11496e7a89bd65def6cce072ca77" target="_top" xlink:title="DecryptKey">
<polygon fill="white" stroke="black" points="290.5,-267.5 290.5,-286.5 358.5,-286.5 358.5,-267.5 290.5,-267.5"/>
<text text-anchor="middle" x="324.5" y="-274.5" font-family="Helvetica,sans-Serif" font-size="10.00">DecryptKey</text>
</a>
</g>
</g>
<!-- Node215&#45;&gt;Node255 -->
<g id="edge52" class="edge"><title>Node215&#45;&gt;Node255</title>
<path fill="none" stroke="midnightblue" d="M207.719,-277C233.34,-277 266.133,-277 290.273,-277"/>
<polygon fill="midnightblue" stroke="midnightblue" points="207.578,-273.5 197.578,-277 207.578,-280.5 207.578,-273.5"/>
</g>
<!-- Node217 -->
<g id="node13" class="node"><title>Node217</title>
<g id="a_node13"><a xlink:href="class_c_message_signer.html#a19e001b31704eef8c0cf4a885be138cd" target="_top" xlink:title="Set the private/public key values, returns true if successful. ">
<polygon fill="white" stroke="black" points="428,-442 428,-472 586,-472 586,-442 428,-442"/>
<text text-anchor="start" x="436" y="-460" font-family="Helvetica,sans-Serif" font-size="10.00">CMessageSigner::GetKeysFrom</text>
<text text-anchor="middle" x="507" y="-449" font-family="Helvetica,sans-Serif" font-size="10.00">Secret</text>
</a>
</g>
</g>
<!-- Node216&#45;&gt;Node217 -->
<g id="edge12" class="edge"><title>Node216&#45;&gt;Node217</title>
<path fill="none" stroke="midnightblue" d="M374.543,-424.955C396.015,-430.189 421.449,-436.389 444.198,-441.935"/>
<polygon fill="midnightblue" stroke="midnightblue" points="375.21,-421.515 364.666,-422.547 373.552,-428.316 375.21,-421.515"/>
</g>
<!-- Node223 -->
<g id="node19" class="node"><title>Node223</title>
<g id="a_node19"><a xlink:href="rpcdump_8cpp.html#accfe82c51846b7751eaae727e7f56631" target="_top" xlink:title="importelectrumwallet">
<polygon fill="white" stroke="black" points="453.5,-365.5 453.5,-384.5 560.5,-384.5 560.5,-365.5 453.5,-365.5"/>
<text text-anchor="middle" x="507" y="-372.5" font-family="Helvetica,sans-Serif" font-size="10.00">importelectrumwallet</text>
</a>
</g>
</g>
<!-- Node216&#45;&gt;Node223 -->
<g id="edge19" class="edge"><title>Node216&#45;&gt;Node223</title>
<path fill="none" stroke="midnightblue" d="M380.985,-401.319C406.582,-395.93 436.584,-389.614 460.78,-384.52"/>
<polygon fill="midnightblue" stroke="midnightblue" points="380.112,-397.926 371.048,-403.411 381.554,-404.776 380.112,-397.926"/>
</g>
<!-- Node224 -->
<g id="node20" class="node"><title>Node224</title>
<g id="a_node20"><a xlink:href="rpcdump_8cpp.html#ace3f8652191a347b888627b8e0a1d17c" target="_top" xlink:title="importprivkey">
<polygon fill="white" stroke="black" points="469.5,-327.5 469.5,-346.5 544.5,-346.5 544.5,-327.5 469.5,-327.5"/>
<text text-anchor="middle" x="507" y="-334.5" font-family="Helvetica,sans-Serif" font-size="10.00">importprivkey</text>
</a>
</g>
</g>
<!-- Node216&#45;&gt;Node224 -->
<g id="edge20" class="edge"><title>Node216&#45;&gt;Node224</title>
<path fill="none" stroke="midnightblue" d="M348.333,-397.948C368.547,-385.206 399.227,-367.267 428,-356 441.108,-350.867 456.014,-346.827 469.259,-343.816"/>
<polygon fill="midnightblue" stroke="midnightblue" points="346.361,-395.055 339.826,-403.394 350.135,-400.95 346.361,-395.055"/>
</g>
<!-- Node225 -->
<g id="node21" class="node"><title>Node225</title>
<g id="a_node21"><a xlink:href="rpcdump_8cpp.html#a71dce63ec2a80b836bab5f31fef8da46" target="_top" xlink:title="importwallet">
<polygon fill="white" stroke="black" points="472.5,-491.5 472.5,-510.5 541.5,-510.5 541.5,-491.5 472.5,-491.5"/>
<text text-anchor="middle" x="507" y="-498.5" font-family="Helvetica,sans-Serif" font-size="10.00">importwallet</text>
</a>
</g>
</g>
<!-- Node216&#45;&gt;Node225 -->
<g id="edge21" class="edge"><title>Node216&#45;&gt;Node225</title>
<path fill="none" stroke="midnightblue" d="M344.98,-428.83C364.783,-444.196 396.894,-467.169 428,-481 441.924,-487.191 458.131,-491.736 472.153,-494.914"/>
<polygon fill="midnightblue" stroke="midnightblue" points="347.057,-426.011 337.04,-422.561 342.72,-431.505 347.057,-426.011"/>
</g>
<!-- Node226 -->
<g id="node22" class="node"><title>Node226</title>
<g id="a_node22"><a xlink:href="dash-tx_8cpp.html#a4530b9267f4e55a4dd36f329d42e9545" target="_top" xlink:title="MutateTxSign">
<polygon fill="white" stroke="black" points="468.5,-548.5 468.5,-567.5 545.5,-567.5 545.5,-548.5 468.5,-548.5"/>
<text text-anchor="middle" x="507" y="-555.5" font-family="Helvetica,sans-Serif" font-size="10.00">MutateTxSign</text>
</a>
</g>
</g>
<!-- Node216&#45;&gt;Node226 -->
<g id="edge22" class="edge"><title>Node216&#45;&gt;Node226</title>
<path fill="none" stroke="midnightblue" d="M339.208,-430.818C357.513,-453.712 391.853,-493.639 428,-520 444.309,-531.893 464.915,-541.747 480.852,-548.438"/>
<polygon fill="midnightblue" stroke="midnightblue" points="341.733,-428.367 332.799,-422.672 336.232,-432.696 341.733,-428.367"/>
</g>
<!-- Node230 -->
<g id="node26" class="node"><title>Node230</title>
<g id="a_node26"><a xlink:href="server_8h.html#a20a66f1d55549861fea58975ebe5c3fd" target="_top" xlink:title="signrawtransaction">
<polygon fill="white" stroke="black" points="458,-403.5 458,-422.5 556,-422.5 556,-403.5 458,-403.5"/>
<text text-anchor="middle" x="507" y="-410.5" font-family="Helvetica,sans-Serif" font-size="10.00">signrawtransaction</text>
</a>
</g>
</g>
<!-- Node216&#45;&gt;Node230 -->
<g id="edge26" class="edge"><title>Node216&#45;&gt;Node230</title>
<path fill="none" stroke="midnightblue" d="M395.673,-413C416.473,-413 438.771,-413 457.839,-413"/>
<polygon fill="midnightblue" stroke="midnightblue" points="395.604,-409.5 385.604,-413 395.604,-416.5 395.604,-409.5"/>
</g>
<!-- Node217&#45;&gt;Node209 -->
<g id="edge16" class="edge"><title>Node217&#45;&gt;Node209</title>
<path fill="none" stroke="midnightblue" d="M579.101,-439.754C593.247,-436.791 608.042,-434.021 622,-432 709.026,-419.399 813.428,-415.025 860.835,-413.616"/>
<polygon fill="midnightblue" stroke="midnightblue" points="577.979,-436.415 568.937,-441.937 579.449,-443.259 577.979,-436.415"/>
</g>
<!-- Node218 -->
<g id="node14" class="node"><title>Node218</title>
<g id="a_node14"><a xlink:href="class_c_dark_send_relay.html#a92b95682e2acbe5570b79cb7c3793388" target="_top" xlink:title="CDarkSendRelay::Sign">
<polygon fill="white" stroke="black" points="644.5,-441.5 644.5,-460.5 763.5,-460.5 763.5,-441.5 644.5,-441.5"/>
<text text-anchor="middle" x="704" y="-448.5" font-family="Helvetica,sans-Serif" font-size="10.00">CDarkSendRelay::Sign</text>
</a>
</g>
</g>
<!-- Node217&#45;&gt;Node218 -->
<g id="edge13" class="edge"><title>Node217&#45;&gt;Node218</title>
<path fill="none" stroke="midnightblue" d="M596.266,-454.284C612.547,-453.783 629.174,-453.272 644.31,-452.806"/>
<polygon fill="midnightblue" stroke="midnightblue" points="596.078,-450.788 586.19,-454.594 596.293,-457.785 596.078,-450.788"/>
</g>
<!-- Node219 -->
<g id="node15" class="node"><title>Node219</title>
<g id="a_node15"><a xlink:href="class_c_dark_send_relay.html#a3d32d1ec983946dc12ff277d0e68365e" target="_top" xlink:title="CDarkSendRelay::VerifyMessage">
<polygon fill="white" stroke="black" points="622,-365.5 622,-384.5 786,-384.5 786,-365.5 622,-365.5"/>
<text text-anchor="middle" x="704" y="-372.5" font-family="Helvetica,sans-Serif" font-size="10.00">CDarkSendRelay::VerifyMessage</text>
</a>
</g>
</g>
<!-- Node217&#45;&gt;Node219 -->
<g id="edge14" class="edge"><title>Node217&#45;&gt;Node219</title>
<path fill="none" stroke="midnightblue" d="M574.487,-437.924C578.464,-436.101 582.334,-434.129 586,-432 604.77,-421.101 603.11,-409.691 622,-399 632.85,-392.86 645.424,-388.151 657.382,-384.6"/>
<polygon fill="midnightblue" stroke="midnightblue" points="572.907,-434.791 565.06,-441.91 575.633,-441.239 572.907,-434.791"/>
</g>
<!-- Node220 -->
<g id="node16" class="node"><title>Node220</title>
<g id="a_node16"><a xlink:href="server_8h.html#a0fa637689f8c63fc6adebeb9458430db" target="_top" xlink:title="gobject">
<polygon fill="white" stroke="black" points="680,-327.5 680,-346.5 728,-346.5 728,-327.5 680,-327.5"/>
<text text-anchor="middle" x="704" y="-334.5" font-family="Helvetica,sans-Serif" font-size="10.00">gobject</text>
</a>
</g>
</g>
<!-- Node217&#45;&gt;Node220 -->
<g id="edge15" class="edge"><title>Node217&#45;&gt;Node220</title>
<path fill="none" stroke="midnightblue" d="M580.38,-436.396C582.338,-435.024 584.218,-433.561 586,-432 614.117,-407.375 592.924,-379.484 622,-356 638.293,-342.84 662.115,-338.492 679.711,-337.196"/>
<polygon fill="midnightblue" stroke="midnightblue" points="578.107,-433.68 571.358,-441.847 581.727,-439.671 578.107,-433.68"/>
</g>
<!-- Node221 -->
<g id="node17" class="node"><title>Node221</title>
<g id="a_node17"><a xlink:href="class_c_masternode_broadcast.html#a5b999adcbdb1de059cb226f3367771b0" target="_top" xlink:title="CMasternodeBroadcast\l::Create">
<polygon fill="white" stroke="black" points="644.5,-518 644.5,-548 763.5,-548 763.5,-518 644.5,-518"/>
<text text-anchor="start" x="652.5" y="-536" font-family="Helvetica,sans-Serif" font-size="10.00">CMasternodeBroadcast</text>
<text text-anchor="middle" x="704" y="-525" font-family="Helvetica,sans-Serif" font-size="10.00">::Create</text>
</a>
</g>
</g>
<!-- Node217&#45;&gt;Node221 -->
<g id="edge17" class="edge"><title>Node217&#45;&gt;Node221</title>
<path fill="none" stroke="midnightblue" d="M571.952,-475.651C576.78,-477.616 581.514,-479.734 586,-482 603.616,-490.9 604.336,-499.195 622,-508 629.508,-511.742 637.688,-515.058 645.869,-517.95"/>
<polygon fill="midnightblue" stroke="midnightblue" points="573.182,-472.374 562.592,-472.057 570.673,-478.909 573.182,-472.374"/>
</g>
<!-- Node222 -->
<g id="node18" class="node"><title>Node222</title>
<g id="a_node18"><a xlink:href="class_c_spork_message.html#aa41c57e7ac23f5687be8d1679081f1d7" target="_top" xlink:title="CSporkMessage::Sign">
<polygon fill="white" stroke="black" points="646.5,-479.5 646.5,-498.5 761.5,-498.5 761.5,-479.5 646.5,-479.5"/>
<text text-anchor="middle" x="704" y="-486.5" font-family="Helvetica,sans-Serif" font-size="10.00">CSporkMessage::Sign</text>
</a>
</g>
</g>
<!-- Node217&#45;&gt;Node222 -->
<g id="edge18" class="edge"><title>Node217&#45;&gt;Node222</title>
<path fill="none" stroke="midnightblue" d="M596.176,-471.47C613.237,-474.27 630.683,-477.133 646.397,-479.711"/>
<polygon fill="midnightblue" stroke="midnightblue" points="596.625,-467.997 586.19,-469.831 595.492,-474.904 596.625,-467.997"/>
</g>
<!-- Node227 -->
<g id="node23" class="node"><title>Node227</title>
<g id="a_node23"><a xlink:href="dash-tx_8cpp.html#ab7ebe37e92de4ef2ff4c3b547b1495c3" target="_top" xlink:title="MutateTx">
<polygon fill="white" stroke="black" points="675,-567.5 675,-586.5 733,-586.5 733,-567.5 675,-567.5"/>
<text text-anchor="middle" x="704" y="-574.5" font-family="Helvetica,sans-Serif" font-size="10.00">MutateTx</text>
</a>
</g>
</g>
<!-- Node226&#45;&gt;Node227 -->
<g id="edge23" class="edge"><title>Node226&#45;&gt;Node227</title>
<path fill="none" stroke="midnightblue" d="M555.765,-562.654C593.16,-566.298 643.887,-571.24 674.983,-574.27"/>
<polygon fill="midnightblue" stroke="midnightblue" points="555.89,-559.15 545.598,-561.663 555.211,-566.117 555.89,-559.15"/>
</g>
<!-- Node228 -->
<g id="node24" class="node"><title>Node228</title>
<g id="a_node24"><a xlink:href="dash-tx_8cpp.html#aa1edb2f1ad129a440e9c1f98d6a9e6bb" target="_top" xlink:title="CommandLineRawTx">
<polygon fill="white" stroke="black" points="832,-567.5 832,-586.5 943,-586.5 943,-567.5 832,-567.5"/>
<text text-anchor="middle" x="887.5" y="-574.5" font-family="Helvetica,sans-Serif" font-size="10.00">CommandLineRawTx</text>
</a>
</g>
</g>
<!-- Node227&#45;&gt;Node228 -->
<g id="edge24" class="edge"><title>Node227&#45;&gt;Node228</title>
<path fill="none" stroke="midnightblue" d="M743.441,-577C769.086,-577 803.195,-577 831.675,-577"/>
<polygon fill="midnightblue" stroke="midnightblue" points="743.359,-573.5 733.359,-577 743.359,-580.5 743.359,-573.5"/>
</g>
<!-- Node229 -->
<g id="node25" class="node"><title>Node229</title>
<g id="a_node25"><a xlink:href="dash-tx_8cpp.html#a0ddf1224851353fc92bfbff6f499fa97" target="_top" xlink:title="main">
<polygon fill="white" stroke="black" points="1055.5,-567.5 1055.5,-586.5 1093.5,-586.5 1093.5,-567.5 1055.5,-567.5"/>
<text text-anchor="middle" x="1074.5" y="-574.5" font-family="Helvetica,sans-Serif" font-size="10.00">main</text>
</a>
</g>
</g>
<!-- Node228&#45;&gt;Node229 -->
<g id="edge25" class="edge"><title>Node228&#45;&gt;Node229</title>
<path fill="none" stroke="midnightblue" d="M953.459,-577C989.441,-577 1031.54,-577 1055.11,-577"/>
<polygon fill="midnightblue" stroke="midnightblue" points="953.006,-573.5 943.006,-577 953.005,-580.5 953.006,-573.5"/>
</g>
<!-- Node232 -->
<g id="node28" class="node"><title>Node232</title>
<g id="a_node28"><a xlink:href="class_c_h_d_chain.html#ada5366bcf86ad715b0e0fed80733e35b" target="_top" xlink:title="CHDChain::Debug">
<polygon fill="white" stroke="black" points="457.5,-203.5 457.5,-222.5 556.5,-222.5 556.5,-203.5 457.5,-203.5"/>
<text text-anchor="middle" x="507" y="-210.5" font-family="Helvetica,sans-Serif" font-size="10.00">CHDChain::Debug</text>
</a>
</g>
</g>
<!-- Node231&#45;&gt;Node232 -->
<g id="edge28" class="edge"><title>Node231&#45;&gt;Node232</title>
<path fill="none" stroke="midnightblue" d="M376.453,-182.856C404.42,-189.364 438.645,-197.327 464.892,-203.435"/>
<polygon fill="midnightblue" stroke="midnightblue" points="376.991,-179.388 366.458,-180.53 375.405,-186.206 376.991,-179.388"/>
</g>
<!-- Node246 -->
<g id="node40" class="node"><title>Node246</title>
<g id="a_node40"><a xlink:href="class_c_h_d_chain.html#aef1b10fffd41285366d594ace3a97d69" target="_top" xlink:title="CHDChain::DeriveChildExtKey">
<polygon fill="white" stroke="black" points="430,-114.5 430,-133.5 584,-133.5 584,-114.5 430,-114.5"/>
<text text-anchor="middle" x="507" y="-121.5" font-family="Helvetica,sans-Serif" font-size="10.00">CHDChain::DeriveChildExtKey</text>
</a>
</g>
</g>
<!-- Node231&#45;&gt;Node246 -->
<g id="edge42" class="edge"><title>Node231&#45;&gt;Node246</title>
<path fill="none" stroke="midnightblue" d="M371.926,-158.911C402.18,-151.034 441.11,-140.897 469.218,-133.578"/>
<polygon fill="midnightblue" stroke="midnightblue" points="370.822,-155.582 362.027,-161.489 372.586,-162.356 370.822,-155.582"/>
</g>
<!-- Node250 -->
<g id="node44" class="node"><title>Node250</title>
<g id="a_node44"><a xlink:href="rpcdump_8cpp.html#a84626901983e76a517c35e461a9a9442" target="_top" xlink:title="dumpwallet">
<polygon fill="white" stroke="black" points="854.5,-38.5 854.5,-57.5 920.5,-57.5 920.5,-38.5 854.5,-38.5"/>
<text text-anchor="middle" x="887.5" y="-45.5" font-family="Helvetica,sans-Serif" font-size="10.00">dumpwallet</text>
</a>
</g>
</g>
<!-- Node231&#45;&gt;Node250 -->
<g id="edge49" class="edge"><title>Node231&#45;&gt;Node250</title>
<path fill="none" stroke="midnightblue" d="M344.898,-155.285C364.638,-140.1 396.702,-117.601 428,-105 578.493,-44.4105 777.373,-43.9799 854.253,-46.4701"/>
<polygon fill="midnightblue" stroke="midnightblue" points="342.695,-152.564 336.986,-161.489 347.015,-158.072 342.695,-152.564"/>
</g>
<!-- Node233 -->
<g id="node29" class="node"><title>Node233</title>
<g id="a_node29"><a xlink:href="class_c_crypto_key_store.html#ac468711074b26df2a6c7fbc3a2cde470" target="_top" xlink:title="CCryptoKeyStore::Decrypt\lHDChain">
<polygon fill="white" stroke="black" points="637,-153 637,-183 771,-183 771,-153 637,-153"/>
<text text-anchor="start" x="645" y="-171" font-family="Helvetica,sans-Serif" font-size="10.00">CCryptoKeyStore::Decrypt</text>
<text text-anchor="middle" x="704" y="-160" font-family="Helvetica,sans-Serif" font-size="10.00">HDChain</text>
</a>
</g>
</g>
<!-- Node232&#45;&gt;Node233 -->
<g id="edge29" class="edge"><title>Node232&#45;&gt;Node233</title>
<path fill="none" stroke="midnightblue" d="M559.344,-201.151C583.404,-195.599 612.339,-188.922 637.915,-183.02"/>
<polygon fill="midnightblue" stroke="midnightblue" points="558.311,-197.798 549.354,-203.457 559.885,-204.618 558.311,-197.798"/>
</g>
<!-- Node244 -->
<g id="node38" class="node"><title>Node244</title>
<g id="a_node38"><a xlink:href="class_c_crypto_key_store.html#a3f55c097b0bc9e75c309db4bc1d53a67" target="_top" xlink:title="CCryptoKeyStore::Encrypt\lHDChain">
<polygon fill="white" stroke="black" points="637,-202 637,-232 771,-232 771,-202 637,-202"/>
<text text-anchor="start" x="645" y="-220" font-family="Helvetica,sans-Serif" font-size="10.00">CCryptoKeyStore::Encrypt</text>
<text text-anchor="middle" x="704" y="-209" font-family="Helvetica,sans-Serif" font-size="10.00">HDChain</text>
</a>
</g>
</g>
<!-- Node232&#45;&gt;Node244 -->
<g id="edge39" class="edge"><title>Node232&#45;&gt;Node244</title>
<path fill="none" stroke="midnightblue" d="M566.933,-214.209C589.01,-214.662 614.231,-215.179 636.913,-215.644"/>
<polygon fill="midnightblue" stroke="midnightblue" points="566.773,-210.705 556.704,-213.999 566.63,-217.703 566.773,-210.705"/>
</g>
<!-- Node245 -->
<g id="node39" class="node"><title>Node245</title>
<g id="a_node39"><a xlink:href="group__map_wallet.html#ga0a4476be9fde3845394c1514e69e5ff7" target="_top" xlink:title="CWallet::GenerateNewHDChain">
<polygon fill="white" stroke="black" points="625,-251.5 625,-270.5 783,-270.5 783,-251.5 625,-251.5"/>
<text text-anchor="middle" x="704" y="-258.5" font-family="Helvetica,sans-Serif" font-size="10.00">CWallet::GenerateNewHDChain</text>
</a>
</g>
</g>
<!-- Node232&#45;&gt;Node245 -->
<g id="edge40" class="edge"><title>Node232&#45;&gt;Node245</title>
<path fill="none" stroke="midnightblue" d="M556.93,-225.044C590.073,-233.203 633.271,-243.836 664.075,-251.418"/>
<polygon fill="midnightblue" stroke="midnightblue" points="557.539,-221.59 546.992,-222.598 555.866,-228.387 557.539,-221.59"/>
</g>
<!-- Node234 -->
<g id="node30" class="node"><title>Node234</title>
<g id="a_node30"><a xlink:href="class_c_crypto_key_store.html#a0717bc91b52f267df77e61870211ca62" target="_top" xlink:title="CCryptoKeyStore::Unlock">
<polygon fill="white" stroke="black" points="822,-251.5 822,-270.5 953,-270.5 953,-251.5 822,-251.5"/>
<text text-anchor="middle" x="887.5" y="-258.5" font-family="Helvetica,sans-Serif" font-size="10.00">CCryptoKeyStore::Unlock</text>
</a>
</g>
</g>
<!-- Node233&#45;&gt;Node234 -->
<g id="edge30" class="edge"><title>Node233&#45;&gt;Node234</title>
<path fill="none" stroke="midnightblue" d="M773.366,-186.555C777.697,-188.251 781.943,-190.066 786,-192 820.961,-208.667 857.294,-236.764 875.173,-251.434"/>
<polygon fill="midnightblue" stroke="midnightblue" points="774.379,-183.198 763.786,-183.03 771.962,-189.768 774.379,-183.198"/>
</g>
<!-- Node235 -->
<g id="node31" class="node"><title>Node235</title>
<g id="a_node31"><a xlink:href="group__map_wallet.html#ga4abcec3066e7c462f4564c159fc15031" target="_top" xlink:title="CWallet::ChangeWalletPassphrase">
<polygon fill="white" stroke="black" points="989,-232.5 989,-251.5 1160,-251.5 1160,-232.5 989,-232.5"/>
<text text-anchor="middle" x="1074.5" y="-239.5" font-family="Helvetica,sans-Serif" font-size="10.00">CWallet::ChangeWalletPassphrase</text>
</a>
</g>
</g>
<!-- Node234&#45;&gt;Node235 -->
<g id="edge31" class="edge"><title>Node234&#45;&gt;Node235</title>
<path fill="none" stroke="midnightblue" d="M963.374,-253.31C971.811,-252.444 980.45,-251.556 988.998,-250.679"/>
<polygon fill="midnightblue" stroke="midnightblue" points="962.794,-249.851 953.204,-254.355 963.509,-256.815 962.794,-249.851"/>
</g>
<!-- Node239 -->
<g id="node35" class="node"><title>Node239</title>
<g id="a_node35"><a xlink:href="group__map_wallet.html#ga7d19286b74feeb6219af749a1fa5330b" target="_top" xlink:title="CWallet::Unlock">
<polygon fill="white" stroke="black" points="1030,-270.5 1030,-289.5 1119,-289.5 1119,-270.5 1030,-270.5"/>
<text text-anchor="middle" x="1074.5" y="-277.5" font-family="Helvetica,sans-Serif" font-size="10.00">CWallet::Unlock</text>
</a>
</g>
</g>
<!-- Node234&#45;&gt;Node239 -->
<g id="edge35" class="edge"><title>Node234&#45;&gt;Node239</title>
<path fill="none" stroke="midnightblue" d="M963.434,-268.696C985.965,-271.01 1009.94,-273.472 1029.74,-275.506"/>
<polygon fill="midnightblue" stroke="midnightblue" points="963.509,-265.185 953.204,-267.645 962.794,-272.149 963.509,-265.185"/>
</g>
<!-- Node236 -->
<g id="node32" class="node"><title>Node236</title>
<g id="a_node32"><a xlink:href="class_wallet_model.html#a67ebff3f267b5c9973c0465184c085a4" target="_top" xlink:title="WalletModel::changePassphrase">
<polygon fill="white" stroke="black" points="1196,-232.5 1196,-251.5 1356,-251.5 1356,-232.5 1196,-232.5"/>
<text text-anchor="middle" x="1276" y="-239.5" font-family="Helvetica,sans-Serif" font-size="10.00">WalletModel::changePassphrase</text>
</a>
</g>
</g>
<!-- Node235&#45;&gt;Node236 -->
<g id="edge32" class="edge"><title>Node235&#45;&gt;Node236</title>
<path fill="none" stroke="midnightblue" d="M1170.2,-242C1178.82,-242 1187.5,-242 1195.97,-242"/>
<polygon fill="midnightblue" stroke="midnightblue" points="1170.11,-238.5 1160.11,-242 1170.11,-245.5 1170.11,-238.5"/>
</g>
<!-- Node238 -->
<g id="node34" class="node"><title>Node238</title>
<g id="a_node34"><a xlink:href="rpcwallet_8cpp.html#a63c3c88d86ea99e2c171b68a874fe8fe" target="_top" xlink:title="walletpassphrasechange">
<polygon fill="white" stroke="black" points="1214,-194.5 1214,-213.5 1338,-213.5 1338,-194.5 1214,-194.5"/>
<text text-anchor="middle" x="1276" y="-201.5" font-family="Helvetica,sans-Serif" font-size="10.00">walletpassphrasechange</text>
</a>
</g>
</g>
<!-- Node235&#45;&gt;Node238 -->
<g id="edge34" class="edge"><title>Node235&#45;&gt;Node238</title>
<path fill="none" stroke="midnightblue" d="M1135.45,-230.582C1163.99,-225.145 1197.74,-218.717 1224.89,-213.544"/>
<polygon fill="midnightblue" stroke="midnightblue" points="1134.75,-227.151 1125.58,-232.46 1136.06,-234.027 1134.75,-227.151"/>
</g>
<!-- Node237 -->
<g id="node33" class="node"><title>Node237</title>
<g id="a_node33"><a xlink:href="class_ask_passphrase_dialog.html#ac2f176af3693b73870d26ef0bfc6cbb9" target="_top" xlink:title="AskPassphraseDialog\l::accept">
<polygon fill="white" stroke="black" points="1392,-246 1392,-276 1505,-276 1505,-246 1392,-246"/>
<text text-anchor="start" x="1400" y="-264" font-family="Helvetica,sans-Serif" font-size="10.00">AskPassphraseDialog</text>
<text text-anchor="middle" x="1448.5" y="-253" font-family="Helvetica,sans-Serif" font-size="10.00">::accept</text>
</a>
</g>
</g>
<!-- Node236&#45;&gt;Node237 -->
<g id="edge33" class="edge"><title>Node236&#45;&gt;Node237</title>
<path fill="none" stroke="midnightblue" d="M1366.4,-251.963C1375.04,-252.925 1383.62,-253.881 1391.78,-254.791"/>
<polygon fill="midnightblue" stroke="midnightblue" points="1366.59,-248.462 1356.26,-250.833 1365.81,-255.419 1366.59,-248.462"/>
</g>
<!-- Node240 -->
<g id="node36" class="node"><title>Node240</title>
<g id="a_node36"><a xlink:href="class_wallet_model.html#aefc0dde78489bcc7e06690b27acdaf4d" target="_top" xlink:title="WalletModel::setWalletLocked">
<polygon fill="white" stroke="red" points="1201.5,-270.5 1201.5,-289.5 1350.5,-289.5 1350.5,-270.5 1201.5,-270.5"/>
<text text-anchor="middle" x="1276" y="-277.5" font-family="Helvetica,sans-Serif" font-size="10.00">WalletModel::setWalletLocked</text>
</a>
</g>
</g>
<!-- Node239&#45;&gt;Node240 -->
<g id="edge36" class="edge"><title>Node239&#45;&gt;Node240</title>
<path fill="none" stroke="midnightblue" d="M1129.45,-280C1151.5,-280 1177.36,-280 1201.13,-280"/>
<polygon fill="midnightblue" stroke="midnightblue" points="1129.28,-276.5 1119.28,-280 1129.28,-283.5 1129.28,-276.5"/>
</g>
<!-- Node243 -->
<g id="node37" class="node"><title>Node243</title>
<g id="a_node37"><a xlink:href="rpcwallet_8cpp.html#a001d7bf0dae09484298af47da1c84df6" target="_top" xlink:title="walletpassphrase">
<polygon fill="white" stroke="black" points="1230,-308.5 1230,-327.5 1322,-327.5 1322,-308.5 1230,-308.5"/>
<text text-anchor="middle" x="1276" y="-315.5" font-family="Helvetica,sans-Serif" font-size="10.00">walletpassphrase</text>
</a>
</g>
</g>
<!-- Node239&#45;&gt;Node243 -->
<g id="edge38" class="edge"><title>Node239&#45;&gt;Node243</title>
<path fill="none" stroke="midnightblue" d="M1129.21,-290.231C1160.71,-296.231 1200.06,-303.726 1229.94,-309.417"/>
<polygon fill="midnightblue" stroke="midnightblue" points="1129.76,-286.772 1119.28,-288.339 1128.45,-293.649 1129.76,-286.772"/>
</g>
<!-- Node240&#45;&gt;Node237 -->
<g id="edge37" class="edge"><title>Node240&#45;&gt;Node237</title>
<path fill="none" stroke="midnightblue" d="M1360.85,-270.656C1371.37,-269.484 1381.91,-268.309 1391.85,-267.202"/>
<polygon fill="midnightblue" stroke="midnightblue" points="1360.34,-267.191 1350.79,-271.777 1361.12,-274.148 1360.34,-267.191"/>
</g>
<!-- Node245&#45;&gt;Node209 -->
<g id="edge41" class="edge"><title>Node245&#45;&gt;Node209</title>
<path fill="none" stroke="midnightblue" d="M728.618,-276.305C745.134,-287.32 767.465,-302.85 786,-318 821.506,-347.022 859.974,-385.62 877.22,-403.35"/>
<polygon fill="midnightblue" stroke="midnightblue" points="730.374,-273.27 720.101,-270.68 726.517,-279.112 730.374,-273.27"/>
</g>
<!-- Node247 -->
<g id="node41" class="node"><title>Node247</title>
<g id="a_node41"><a xlink:href="group__map_wallet.html#ga76beb4aa57afa52c8fca1f84784f29f0" target="_top" xlink:title="CWallet::DeriveNewChildKey">
<polygon fill="white" stroke="black" points="631,-76.5 631,-95.5 777,-95.5 777,-76.5 631,-76.5"/>
<text text-anchor="middle" x="704" y="-83.5" font-family="Helvetica,sans-Serif" font-size="10.00">CWallet::DeriveNewChildKey</text>
</a>
</g>
</g>
<!-- Node246&#45;&gt;Node247 -->
<g id="edge43" class="edge"><title>Node246&#45;&gt;Node247</title>
<path fill="none" stroke="midnightblue" d="M566.959,-112.511C594.782,-107.089 627.596,-100.694 654.025,-95.5439"/>
<polygon fill="midnightblue" stroke="midnightblue" points="566.101,-109.112 556.955,-114.46 567.44,-115.983 566.101,-109.112"/>
</g>
<!-- Node248 -->
<g id="node42" class="node"><title>Node248</title>
<g id="a_node42"><a xlink:href="group__map_wallet.html#ga81b8985d9f44cfbbf71c12f0857a4c54" target="_top" xlink:title="GetKey implementation that can derive a HD private key on the fly. ">
<polygon fill="white" stroke="black" points="658.5,-114.5 658.5,-133.5 749.5,-133.5 749.5,-114.5 658.5,-114.5"/>
<text text-anchor="middle" x="704" y="-121.5" font-family="Helvetica,sans-Serif" font-size="10.00">CWallet::GetKey</text>
</a>
</g>
</g>
<!-- Node246&#45;&gt;Node248 -->
<g id="edge44" class="edge"><title>Node246&#45;&gt;Node248</title>
<path fill="none" stroke="midnightblue" d="M594.32,-124C616.435,-124 639.328,-124 658.367,-124"/>
<polygon fill="midnightblue" stroke="midnightblue" points="594.23,-120.5 584.23,-124 594.23,-127.5 594.23,-120.5"/>
</g>
<!-- Node249 -->
<g id="node43" class="node"><title>Node249</title>
<g id="a_node43"><a xlink:href="rpcdump_8cpp.html#adab6603310ec229d92dd1e85c861c6a8" target="_top" xlink:title="dumpprivkey">
<polygon fill="white" stroke="black" points="851.5,-76.5 851.5,-95.5 923.5,-95.5 923.5,-76.5 851.5,-76.5"/>
<text text-anchor="middle" x="887.5" y="-83.5" font-family="Helvetica,sans-Serif" font-size="10.00">dumpprivkey</text>
</a>
</g>
</g>
<!-- Node248&#45;&gt;Node249 -->
<g id="edge45" class="edge"><title>Node248&#45;&gt;Node249</title>
<path fill="none" stroke="midnightblue" d="M759.679,-112.552C789.381,-106.333 825.241,-98.8256 851.239,-93.3824"/>
<polygon fill="midnightblue" stroke="midnightblue" points="758.936,-109.132 749.865,-114.607 760.37,-115.983 758.936,-109.132"/>
</g>
<!-- Node248&#45;&gt;Node250 -->
<g id="edge46" class="edge"><title>Node248&#45;&gt;Node250</title>
<path fill="none" stroke="midnightblue" d="M759.55,-115.816C768.736,-113.162 777.906,-109.65 786,-105 806.173,-93.4119 802.16,-79.149 822,-67 831.756,-61.0258 843.495,-56.8412 854.269,-53.9516"/>
<polygon fill="midnightblue" stroke="midnightblue" points="758.437,-112.489 749.626,-118.372 760.183,-119.267 758.437,-112.489"/>
</g>
<!-- Node251 -->
<g id="node45" class="node"><title>Node251</title>
<g id="a_node45"><a xlink:href="class_sign_verify_message_dialog.html#a2ef91b4ace68d63ab1c1d3cc6c13b5f9" target="_top" xlink:title="SignVerifyMessageDialog\l::on_signMessageButton\l_SM_clicked">
<polygon fill="white" stroke="black" points="823,-152.5 823,-193.5 952,-193.5 952,-152.5 823,-152.5"/>
<text text-anchor="start" x="831" y="-181.5" font-family="Helvetica,sans-Serif" font-size="10.00">SignVerifyMessageDialog</text>
<text text-anchor="start" x="831" y="-170.5" font-family="Helvetica,sans-Serif" font-size="10.00">::on_signMessageButton</text>
<text text-anchor="middle" x="887.5" y="-159.5" font-family="Helvetica,sans-Serif" font-size="10.00">_SM_clicked</text>
</a>
</g>
</g>
<!-- Node248&#45;&gt;Node251 -->
<g id="edge47" class="edge"><title>Node248&#45;&gt;Node251</title>
<path fill="none" stroke="midnightblue" d="M757.998,-135.952C767.352,-138.198 776.98,-140.598 786,-143 797.965,-146.186 810.665,-149.796 822.864,-153.38"/>
<polygon fill="midnightblue" stroke="midnightblue" points="758.535,-132.482 747.997,-133.582 756.921,-139.294 758.535,-132.482"/>
</g>
<!-- Node252 -->
<g id="node46" class="node"><title>Node252</title>
<g id="a_node46"><a xlink:href="rpcwallet_8cpp.html#a95d30866deb9a289859518f21b6ec721" target="_top" xlink:title="signmessage">
<polygon fill="white" stroke="black" points="850.5,-114.5 850.5,-133.5 924.5,-133.5 924.5,-114.5 850.5,-114.5"/>
<text text-anchor="middle" x="887.5" y="-121.5" font-family="Helvetica,sans-Serif" font-size="10.00">signmessage</text>
</a>
</g>
</g>
<!-- Node248&#45;&gt;Node252 -->
<g id="edge48" class="edge"><title>Node248&#45;&gt;Node252</title>
<path fill="none" stroke="midnightblue" d="M759.961,-124C789.275,-124 824.521,-124 850.362,-124"/>
<polygon fill="midnightblue" stroke="midnightblue" points="759.865,-120.5 749.865,-124 759.865,-127.5 759.865,-120.5"/>
</g>
<!-- Node254 -->
<g id="node48" class="node"><title>Node254</title>
<g id="a_node48"><a xlink:href="struct_c_ext_key.html#ac91216c4c37bd7190a88c2452e8b1735" target="_top" xlink:title="CExtKey::Unserialize">
<polygon fill="white" stroke="black" points="451.5,-0.5 451.5,-19.5 562.5,-19.5 562.5,-0.5 451.5,-0.5"/>
<text text-anchor="middle" x="507" y="-7.5" font-family="Helvetica,sans-Serif" font-size="10.00">CExtKey::Unserialize</text>
</a>
</g>
</g>
<!-- Node253&#45;&gt;Node254 -->
<g id="edge51" class="edge"><title>Node253&#45;&gt;Node254</title>
<path fill="none" stroke="midnightblue" d="M379.486,-37.3354C405.83,-31.6435 437.118,-24.8831 461.988,-19.5095"/>
<polygon fill="midnightblue" stroke="midnightblue" points="378.691,-33.9265 369.655,-39.4595 380.169,-40.7686 378.691,-33.9265"/>
</g>
<!-- Node255&#45;&gt;Node234 -->
<g id="edge55" class="edge"><title>Node255&#45;&gt;Node234</title>
<path fill="none" stroke="midnightblue" d="M368.944,-280.163C450.771,-285.483 633.258,-294.312 786,-280 805.801,-278.145 827.513,-274.276 845.673,-270.511"/>
<polygon fill="midnightblue" stroke="midnightblue" points="368.754,-276.643 358.543,-279.47 368.288,-283.628 368.754,-276.643"/>
</g>
<!-- Node256 -->
<g id="node50" class="node"><title>Node256</title>
<g id="a_node50"><a xlink:href="class_c_crypto_key_store.html#af46ec271fffb65a113702ba40a3738c8" target="_top" xlink:title="CCryptoKeyStore::GetKey">
<polygon fill="white" stroke="black" points="440.5,-157.5 440.5,-176.5 573.5,-176.5 573.5,-157.5 440.5,-157.5"/>
<text text-anchor="middle" x="507" y="-164.5" font-family="Helvetica,sans-Serif" font-size="10.00">CCryptoKeyStore::GetKey</text>
</a>
</g>
</g>
<!-- Node255&#45;&gt;Node256 -->
<g id="edge53" class="edge"><title>Node255&#45;&gt;Node256</title>
<path fill="none" stroke="midnightblue" d="M342.495,-260.072C361.787,-241.654 394.895,-212.385 428,-194 441.029,-186.764 456.345,-180.951 469.939,-176.6"/>
<polygon fill="midnightblue" stroke="midnightblue" points="339.851,-257.761 335.113,-267.238 344.726,-262.784 339.851,-257.761"/>
</g>
<!-- Node256&#45;&gt;Node248 -->
<g id="edge54" class="edge"><title>Node256&#45;&gt;Node248</title>
<path fill="none" stroke="midnightblue" d="M561.056,-155.301C592.068,-148.462 630.711,-139.941 659.844,-133.516"/>
<polygon fill="midnightblue" stroke="midnightblue" points="560.288,-151.886 551.277,-157.457 561.796,-158.721 560.288,-151.886"/>
</g>
</g>
</svg>
