<?xml version="1.0" encoding="UTF-8" standalone="no"?>
<!DOCTYPE svg PUBLIC "-//W3C//DTD SVG 1.1//EN"
 "http://www.w3.org/Graphics/SVG/1.1/DTD/svg11.dtd">
<!-- Generated by graphviz version 2.38.0 (20140413.2041)
 -->
<!-- Title: CAddrMan::Select Pages: 1 -->
<svg width="708pt" height="104pt"
 viewBox="0.00 0.00 708.00 104.00" xmlns="http://www.w3.org/2000/svg" xmlns:xlink="http://www.w3.org/1999/xlink">
<g id="graph0" class="graph" transform="scale(1 1) rotate(0) translate(4 100)">
<title>CAddrMan::Select</title>
<polygon fill="white" stroke="none" points="-4,4 -4,-100 704,-100 704,4 -4,4"/>
<!-- Node909 -->
<g id="node1" class="node"><title>Node909</title>
<polygon fill="#bfbfbf" stroke="black" points="0,-57.5 0,-76.5 97,-76.5 97,-57.5 0,-57.5"/>
<text text-anchor="middle" x="48.5" y="-64.5" font-family="Helvetica,sans-Serif" font-size="10.00">CAddrMan::Select</text>
</g>
<!-- Node910 -->
<g id="node2" class="node"><title>Node910</title>
<g id="a_node2"><a xlink:href="class_c_addr_man.html#a0c2677ae50ce0d680f0105b285d1f5d0" target="_top" xlink:title="Consistency check. ">
<polygon fill="white" stroke="black" points="135,-76.5 135,-95.5 233,-95.5 233,-76.5 135,-76.5"/>
<text text-anchor="middle" x="184" y="-83.5" font-family="Helvetica,sans-Serif" font-size="10.00">CAddrMan::Check</text>
</a>
</g>
</g>
<!-- Node909&#45;&gt;Node910 -->
<g id="edge1" class="edge"><title>Node909&#45;&gt;Node910</title>
<path fill="none" stroke="midnightblue" d="M97.3195,-73.8058C106.126,-75.0591 115.411,-76.3806 124.49,-77.6727"/>
<polygon fill="midnightblue" stroke="midnightblue" points="124.223,-81.1699 134.616,-79.1139 125.209,-74.2397 124.223,-81.1699"/>
</g>
<!-- Node911 -->
<g id="node3" class="node"><title>Node911</title>
<g id="a_node3"><a xlink:href="class_c_addr_man.html#a27e51ef4fe86db1ff5a5e45caefc1ef4" target="_top" xlink:title="Select an address to connect to, if newOnly is set to true, only the new table is selected from...">
<polygon fill="white" stroke="black" points="133,-38.5 133,-57.5 235,-57.5 235,-38.5 133,-38.5"/>
<text text-anchor="middle" x="184" y="-45.5" font-family="Helvetica,sans-Serif" font-size="10.00">CAddrMan::Select_</text>
</a>
</g>
</g>
<!-- Node909&#45;&gt;Node911 -->
<g id="edge2" class="edge"><title>Node909&#45;&gt;Node911</title>
<path fill="none" stroke="midnightblue" d="M97.3195,-60.1942C105.601,-59.0156 114.306,-57.7767 122.865,-56.5586"/>
<polygon fill="midnightblue" stroke="midnightblue" points="123.403,-60.0173 132.81,-55.1431 122.417,-53.0871 123.403,-60.0173"/>
</g>
<!-- Node912 -->
<g id="node4" class="node"><title>Node912</title>
<g id="a_node4"><a xlink:href="class_c_addr_man.html#a244508e8463c4fdfd8b085fcb3b5a225" target="_top" xlink:title="Return the number of (unique) addresses in all tables. ">
<polygon fill="white" stroke="black" points="286,-76.5 286,-95.5 373,-95.5 373,-76.5 286,-76.5"/>
<text text-anchor="middle" x="329.5" y="-83.5" font-family="Helvetica,sans-Serif" font-size="10.00">CAddrMan::size</text>
</a>
</g>
</g>
<!-- Node911&#45;&gt;Node912 -->
<g id="edge3" class="edge"><title>Node911&#45;&gt;Node912</title>
<path fill="none" stroke="midnightblue" d="M221.211,-57.589C239.821,-62.5169 262.697,-68.5749 282.539,-73.8291"/>
<polygon fill="midnightblue" stroke="midnightblue" points="281.738,-77.2375 292.3,-76.4141 283.53,-70.4708 281.738,-77.2375"/>
</g>
<!-- Node913 -->
<g id="node5" class="node"><title>Node913</title>
<g id="a_node5"><a xlink:href="class_c_addr_man.html#a4bf12611bd89c5e524396e50bf8f3846" target="_top" xlink:title="Wraps GetRandInt to allow tests to override RandomInt and make it determinismistic. ">
<polygon fill="white" stroke="black" points="271,-38.5 271,-57.5 388,-57.5 388,-38.5 271,-38.5"/>
<text text-anchor="middle" x="329.5" y="-45.5" font-family="Helvetica,sans-Serif" font-size="10.00">CAddrMan::RandomInt</text>
</a>
</g>
</g>
<!-- Node911&#45;&gt;Node913 -->
<g id="edge4" class="edge"><title>Node911&#45;&gt;Node913</title>
<path fill="none" stroke="midnightblue" d="M235.189,-48C243.438,-48 252.106,-48 260.699,-48"/>
<polygon fill="midnightblue" stroke="midnightblue" points="260.721,-51.5001 270.721,-48 260.721,-44.5001 260.721,-51.5001"/>
</g>
<!-- Node917 -->
<g id="node9" class="node"><title>Node917</title>
<g id="a_node9"><a xlink:href="random_8h.html#ae8f7a2f188545bbbf746160adc42038e" target="_top" xlink:title="insecure_rand">
<polygon fill="white" stroke="black" points="291,-0.5 291,-19.5 368,-19.5 368,-0.5 291,-0.5"/>
<text text-anchor="middle" x="329.5" y="-7.5" font-family="Helvetica,sans-Serif" font-size="10.00">insecure_rand</text>
</a>
</g>
</g>
<!-- Node911&#45;&gt;Node917 -->
<g id="edge8" class="edge"><title>Node911&#45;&gt;Node917</title>
<path fill="none" stroke="midnightblue" d="M221.211,-38.411C239.821,-33.4831 262.697,-27.4251 282.539,-22.1709"/>
<polygon fill="midnightblue" stroke="midnightblue" points="283.53,-25.5292 292.3,-19.5859 281.738,-18.7625 283.53,-25.5292"/>
</g>
<!-- Node914 -->
<g id="node6" class="node"><title>Node914</title>
<g id="a_node6"><a xlink:href="random_8cpp.html#a0e44e088732172da6662db2d5e37d4b2" target="_top" xlink:title="GetRandInt">
<polygon fill="white" stroke="black" points="424,-38.5 424,-57.5 491,-57.5 491,-38.5 424,-38.5"/>
<text text-anchor="middle" x="457.5" y="-45.5" font-family="Helvetica,sans-Serif" font-size="10.00">GetRandInt</text>
</a>
</g>
</g>
<!-- Node913&#45;&gt;Node914 -->
<g id="edge5" class="edge"><title>Node913&#45;&gt;Node914</title>
<path fill="none" stroke="midnightblue" d="M388.337,-48C396.889,-48 405.568,-48 413.74,-48"/>
<polygon fill="midnightblue" stroke="midnightblue" points="413.77,-51.5001 423.77,-48 413.77,-44.5001 413.77,-51.5001"/>
</g>
<!-- Node915 -->
<g id="node7" class="node"><title>Node915</title>
<g id="a_node7"><a xlink:href="random_8cpp.html#a27d9149d522b1fa87d84e5e9ca902aef" target="_top" xlink:title="GetRand">
<polygon fill="white" stroke="black" points="527,-38.5 527,-57.5 583,-57.5 583,-38.5 527,-38.5"/>
<text text-anchor="middle" x="555" y="-45.5" font-family="Helvetica,sans-Serif" font-size="10.00">GetRand</text>
</a>
</g>
</g>
<!-- Node914&#45;&gt;Node915 -->
<g id="edge6" class="edge"><title>Node914&#45;&gt;Node915</title>
<path fill="none" stroke="midnightblue" d="M491.099,-48C499.396,-48 508.375,-48 516.88,-48"/>
<polygon fill="midnightblue" stroke="midnightblue" points="516.941,-51.5001 526.941,-48 516.941,-44.5001 516.941,-51.5001"/>
</g>
<!-- Node916 -->
<g id="node8" class="node"><title>Node916</title>
<g id="a_node8"><a xlink:href="random_8cpp.html#ada0c29949c4d1ac0cc027d93c4771423" target="_top" xlink:title="Functions to gather random data via the OpenSSL PRNG. ">
<polygon fill="white" stroke="black" points="619,-38.5 619,-57.5 700,-57.5 700,-38.5 619,-38.5"/>
<text text-anchor="middle" x="659.5" y="-45.5" font-family="Helvetica,sans-Serif" font-size="10.00">GetRandBytes</text>
</a>
</g>
</g>
<!-- Node915&#45;&gt;Node916 -->
<g id="edge7" class="edge"><title>Node915&#45;&gt;Node916</title>
<path fill="none" stroke="midnightblue" d="M583.199,-48C591.043,-48 599.858,-48 608.62,-48"/>
<polygon fill="midnightblue" stroke="midnightblue" points="608.82,-51.5001 618.82,-48 608.82,-44.5001 608.82,-51.5001"/>
</g>
</g>
</svg>
