<?xml version="1.0" encoding="UTF-8" standalone="no"?>
<!DOCTYPE svg PUBLIC "-//W3C//DTD SVG 1.1//EN"
 "http://www.w3.org/Graphics/SVG/1.1/DTD/svg11.dtd">
<!-- Generated by graphviz version 2.38.0 (20140413.2041)
 -->
<!-- Title: CCoins::CCoins Pages: 1 -->
<svg width="954pt" height="142pt"
 viewBox="0.00 0.00 954.00 142.00" xmlns="http://www.w3.org/2000/svg" xmlns:xlink="http://www.w3.org/1999/xlink">
<g id="graph0" class="graph" transform="scale(1 1) rotate(0) translate(4 138)">
<title>CCoins::CCoins</title>
<polygon fill="white" stroke="none" points="-4,4 -4,-138 950,-138 950,4 -4,4"/>
<!-- Node0 -->
<g id="node1" class="node"><title>Node0</title>
<polygon fill="#bfbfbf" stroke="black" points="0,-57.5 0,-76.5 89,-76.5 89,-57.5 0,-57.5"/>
<text text-anchor="middle" x="44.5" y="-64.5" font-family="Helvetica,sans-Serif" font-size="10.00">CCoins::CCoins</text>
</g>
<!-- Node1 -->
<g id="node2" class="node"><title>Node1</title>
<g id="a_node2"><a xlink:href="class_c_coins.html#abf67e501a1d207c892c1f52dd383956e" target="_top" xlink:title="CCoins::FromTx">
<polygon fill="white" stroke="black" points="125,-57.5 125,-76.5 214,-76.5 214,-57.5 125,-57.5"/>
<text text-anchor="middle" x="169.5" y="-64.5" font-family="Helvetica,sans-Serif" font-size="10.00">CCoins::FromTx</text>
</a>
</g>
</g>
<!-- Node0&#45;&gt;Node1 -->
<g id="edge1" class="edge"><title>Node0&#45;&gt;Node1</title>
<path fill="none" stroke="midnightblue" d="M89.2115,-67C97.4587,-67 106.173,-67 114.687,-67"/>
<polygon fill="midnightblue" stroke="midnightblue" points="114.929,-70.5001 124.929,-67 114.929,-63.5001 114.929,-70.5001"/>
</g>
<!-- Node2 -->
<g id="node3" class="node"><title>Node2</title>
<g id="a_node3"><a xlink:href="class_c_transaction.html#a96256e8ac1bf79ad9c057e48c41132dd" target="_top" xlink:title="CTransaction::IsCoinBase">
<polygon fill="white" stroke="black" points="252,-76.5 252,-95.5 384,-95.5 384,-76.5 252,-76.5"/>
<text text-anchor="middle" x="318" y="-83.5" font-family="Helvetica,sans-Serif" font-size="10.00">CTransaction::IsCoinBase</text>
</a>
</g>
</g>
<!-- Node1&#45;&gt;Node2 -->
<g id="edge2" class="edge"><title>Node1&#45;&gt;Node2</title>
<path fill="none" stroke="midnightblue" d="M214.058,-72.6492C222.885,-73.7939 232.404,-75.0284 241.963,-76.2682"/>
<polygon fill="midnightblue" stroke="midnightblue" points="241.545,-79.7433 251.912,-77.5586 242.446,-72.8014 241.545,-79.7433"/>
</g>
<!-- Node3 -->
<g id="node4" class="node"><title>Node3</title>
<g id="a_node4"><a xlink:href="class_c_coins.html#ad8b649abb32bdba255adec6dcfd57fc5" target="_top" xlink:title="CCoins::ClearUnspendable">
<polygon fill="white" stroke="black" points="250,-38.5 250,-57.5 386,-57.5 386,-38.5 250,-38.5"/>
<text text-anchor="middle" x="318" y="-45.5" font-family="Helvetica,sans-Serif" font-size="10.00">CCoins::ClearUnspendable</text>
</a>
</g>
</g>
<!-- Node1&#45;&gt;Node3 -->
<g id="edge3" class="edge"><title>Node1&#45;&gt;Node3</title>
<path fill="none" stroke="midnightblue" d="M214.058,-61.3508C222.209,-60.2938 230.949,-59.1601 239.767,-58.0165"/>
<polygon fill="midnightblue" stroke="midnightblue" points="240.262,-61.4818 249.729,-56.7246 239.361,-54.5399 240.262,-61.4818"/>
</g>
<!-- Node4 -->
<g id="node5" class="node"><title>Node4</title>
<g id="a_node5"><a xlink:href="class_c_script.html#a11c26ad1d03fa2d60a733337c21b6719" target="_top" xlink:title="Returns whether the script is guaranteed to fail at execution, regardless of the initial stack...">
<polygon fill="white" stroke="black" points="422,-76.5 422,-95.5 543,-95.5 543,-76.5 422,-76.5"/>
<text text-anchor="middle" x="482.5" y="-83.5" font-family="Helvetica,sans-Serif" font-size="10.00">CScript::IsUnspendable</text>
</a>
</g>
</g>
<!-- Node3&#45;&gt;Node4 -->
<g id="edge4" class="edge"><title>Node3&#45;&gt;Node4</title>
<path fill="none" stroke="midnightblue" d="M360.006,-57.589C381.546,-62.6261 408.135,-68.8438 430.941,-74.1771"/>
<polygon fill="midnightblue" stroke="midnightblue" points="430.255,-77.6109 440.789,-76.4799 431.849,-70.7948 430.255,-77.6109"/>
</g>
<!-- Node11 -->
<g id="node12" class="node"><title>Node11</title>
<g id="a_node12"><a xlink:href="class_c_tx_out.html#a9fe5e6a1be651f130d3dc84a64e78a24" target="_top" xlink:title="CTxOut::SetNull">
<polygon fill="white" stroke="black" points="438,-38.5 438,-57.5 527,-57.5 527,-38.5 438,-38.5"/>
<text text-anchor="middle" x="482.5" y="-45.5" font-family="Helvetica,sans-Serif" font-size="10.00">CTxOut::SetNull</text>
</a>
</g>
</g>
<!-- Node3&#45;&gt;Node11 -->
<g id="edge12" class="edge"><title>Node3&#45;&gt;Node11</title>
<path fill="none" stroke="midnightblue" d="M386.033,-48C399.83,-48 414.192,-48 427.459,-48"/>
<polygon fill="midnightblue" stroke="midnightblue" points="427.833,-51.5001 437.833,-48 427.833,-44.5001 427.833,-51.5001"/>
</g>
<!-- Node13 -->
<g id="node14" class="node"><title>Node13</title>
<g id="a_node14"><a xlink:href="class_c_coins.html#a7cfa2efc07f4d35785c9c75caa8bddcb" target="_top" xlink:title="remove spent outputs at the end of vout ">
<polygon fill="white" stroke="black" points="436.5,-0.5 436.5,-19.5 528.5,-19.5 528.5,-0.5 436.5,-0.5"/>
<text text-anchor="middle" x="482.5" y="-7.5" font-family="Helvetica,sans-Serif" font-size="10.00">CCoins::Cleanup</text>
</a>
</g>
</g>
<!-- Node3&#45;&gt;Node13 -->
<g id="edge14" class="edge"><title>Node3&#45;&gt;Node13</title>
<path fill="none" stroke="midnightblue" d="M360.006,-38.411C381.546,-33.3739 408.135,-27.1562 430.941,-21.8229"/>
<polygon fill="midnightblue" stroke="midnightblue" points="431.849,-25.2052 440.789,-19.5201 430.255,-18.3891 431.849,-25.2052"/>
</g>
<!-- Node5 -->
<g id="node6" class="node"><title>Node5</title>
<g id="a_node6"><a xlink:href="classprevector.html#a626f7d206dbc24e5610631809762758b" target="_top" xlink:title="prevector::size">
<polygon fill="white" stroke="black" points="709.5,-114.5 709.5,-133.5 790.5,-133.5 790.5,-114.5 709.5,-114.5"/>
<text text-anchor="middle" x="750" y="-121.5" font-family="Helvetica,sans-Serif" font-size="10.00">prevector::size</text>
</a>
</g>
</g>
<!-- Node4&#45;&gt;Node5 -->
<g id="edge5" class="edge"><title>Node4&#45;&gt;Node5</title>
<path fill="none" stroke="midnightblue" d="M527.579,-95.5838C543.704,-98.8743 562.128,-102.384 579,-105 619.292,-111.248 665.264,-116.259 699.233,-119.563"/>
<polygon fill="midnightblue" stroke="midnightblue" points="699.083,-123.065 709.371,-120.533 699.749,-116.097 699.083,-123.065"/>
</g>
<!-- Node7 -->
<g id="node8" class="node"><title>Node7</title>
<g id="a_node8"><a xlink:href="classprevector.html#aa9210cbe708412a70868d6e0bca844c9" target="_top" xlink:title="prevector::begin">
<polygon fill="white" stroke="black" points="579,-76.5 579,-95.5 665,-95.5 665,-76.5 579,-76.5"/>
<text text-anchor="middle" x="622" y="-83.5" font-family="Helvetica,sans-Serif" font-size="10.00">prevector::begin</text>
</a>
</g>
</g>
<!-- Node4&#45;&gt;Node7 -->
<g id="edge7" class="edge"><title>Node4&#45;&gt;Node7</title>
<path fill="none" stroke="midnightblue" d="M543.01,-86C551.575,-86 560.336,-86 568.746,-86"/>
<polygon fill="midnightblue" stroke="midnightblue" points="568.795,-89.5001 578.795,-86 568.795,-82.5001 568.795,-89.5001"/>
</g>
<!-- Node6 -->
<g id="node7" class="node"><title>Node6</title>
<g id="a_node7"><a xlink:href="classprevector.html#a933e204a7e29c6bbc85479d023c00ff8" target="_top" xlink:title="prevector::is_direct">
<polygon fill="white" stroke="black" points="840.5,-114.5 840.5,-133.5 940.5,-133.5 940.5,-114.5 840.5,-114.5"/>
<text text-anchor="middle" x="890.5" y="-121.5" font-family="Helvetica,sans-Serif" font-size="10.00">prevector::is_direct</text>
</a>
</g>
</g>
<!-- Node5&#45;&gt;Node6 -->
<g id="edge6" class="edge"><title>Node5&#45;&gt;Node6</title>
<path fill="none" stroke="midnightblue" d="M790.689,-124C803.046,-124 816.949,-124 830.339,-124"/>
<polygon fill="midnightblue" stroke="midnightblue" points="830.443,-127.5 840.443,-124 830.443,-120.5 830.443,-127.5"/>
</g>
<!-- Node8 -->
<g id="node9" class="node"><title>Node8</title>
<g id="a_node9"><a xlink:href="classprevector.html#a59f1d7bcbc751cfa0faddd7ffa184846" target="_top" xlink:title="prevector::item_ptr">
<polygon fill="white" stroke="black" points="701,-76.5 701,-95.5 799,-95.5 799,-76.5 701,-76.5"/>
<text text-anchor="middle" x="750" y="-83.5" font-family="Helvetica,sans-Serif" font-size="10.00">prevector::item_ptr</text>
</a>
</g>
</g>
<!-- Node7&#45;&gt;Node8 -->
<g id="edge8" class="edge"><title>Node7&#45;&gt;Node8</title>
<path fill="none" stroke="midnightblue" d="M665.307,-86C673.528,-86 682.279,-86 690.906,-86"/>
<polygon fill="midnightblue" stroke="midnightblue" points="690.938,-89.5001 700.938,-86 690.938,-82.5001 690.938,-89.5001"/>
</g>
<!-- Node8&#45;&gt;Node6 -->
<g id="edge9" class="edge"><title>Node8&#45;&gt;Node6</title>
<path fill="none" stroke="midnightblue" d="M785.949,-95.589C803.828,-100.494 825.788,-106.52 844.878,-111.757"/>
<polygon fill="midnightblue" stroke="midnightblue" points="843.992,-115.143 854.562,-114.414 845.844,-108.393 843.992,-115.143"/>
</g>
<!-- Node9 -->
<g id="node10" class="node"><title>Node9</title>
<g id="a_node10"><a xlink:href="classprevector.html#a20150a43dd87c33f0e855a55bd3418e8" target="_top" xlink:title="prevector::direct_ptr">
<polygon fill="white" stroke="black" points="838.5,-76.5 838.5,-95.5 942.5,-95.5 942.5,-76.5 838.5,-76.5"/>
<text text-anchor="middle" x="890.5" y="-83.5" font-family="Helvetica,sans-Serif" font-size="10.00">prevector::direct_ptr</text>
</a>
</g>
</g>
<!-- Node8&#45;&gt;Node9 -->
<g id="edge10" class="edge"><title>Node8&#45;&gt;Node9</title>
<path fill="none" stroke="midnightblue" d="M799.052,-86C808.446,-86 818.415,-86 828.173,-86"/>
<polygon fill="midnightblue" stroke="midnightblue" points="828.231,-89.5001 838.231,-86 828.231,-82.5001 828.231,-89.5001"/>
</g>
<!-- Node10 -->
<g id="node11" class="node"><title>Node10</title>
<g id="a_node11"><a xlink:href="classprevector.html#ae3343cc65be9fd678b4a6f8305624de6" target="_top" xlink:title="prevector::indirect_ptr">
<polygon fill="white" stroke="black" points="835,-38.5 835,-57.5 946,-57.5 946,-38.5 835,-38.5"/>
<text text-anchor="middle" x="890.5" y="-45.5" font-family="Helvetica,sans-Serif" font-size="10.00">prevector::indirect_ptr</text>
</a>
</g>
</g>
<!-- Node8&#45;&gt;Node10 -->
<g id="edge11" class="edge"><title>Node8&#45;&gt;Node10</title>
<path fill="none" stroke="midnightblue" d="M785.949,-76.411C803.828,-71.5056 825.788,-65.4804 844.878,-60.2429"/>
<polygon fill="midnightblue" stroke="midnightblue" points="845.844,-63.6072 854.562,-57.5859 843.992,-56.8566 845.844,-63.6072"/>
</g>
<!-- Node12 -->
<g id="node13" class="node"><title>Node12</title>
<g id="a_node13"><a xlink:href="class_c_script.html#a7b2baf842621f07c4939408acf63377c" target="_top" xlink:title="CScript::clear">
<polygon fill="white" stroke="black" points="583.5,-38.5 583.5,-57.5 660.5,-57.5 660.5,-38.5 583.5,-38.5"/>
<text text-anchor="middle" x="622" y="-45.5" font-family="Helvetica,sans-Serif" font-size="10.00">CScript::clear</text>
</a>
</g>
</g>
<!-- Node11&#45;&gt;Node12 -->
<g id="edge13" class="edge"><title>Node11&#45;&gt;Node12</title>
<path fill="none" stroke="midnightblue" d="M527.006,-48C541.709,-48 558.201,-48 573.217,-48"/>
<polygon fill="midnightblue" stroke="midnightblue" points="573.337,-51.5001 583.337,-48 573.337,-44.5001 573.337,-51.5001"/>
</g>
</g>
</svg>
