<?xml version="1.0" encoding="UTF-8" standalone="no"?>
<!DOCTYPE svg PUBLIC "-//W3C//DTD SVG 1.1//EN"
 "http://www.w3.org/Graphics/SVG/1.1/DTD/svg11.dtd">
<!-- Generated by graphviz version 2.38.0 (20140413.2041)
 -->
<!-- Title: CDSNotificationInterface::UpdatedBlockTip Pages: 1 -->
<!--zoomable 66 -->
<svg id="main" version="1.1" xmlns="http://www.w3.org/2000/svg" xmlns:xlink="http://www.w3.org/1999/xlink" xml:space="preserve" onload="init(evt)">
<style type="text/css"><![CDATA[
.edge:hover path { stroke: red; }
.edge:hover polygon { stroke: red; fill: red; }
]]></style>
<script type="text/javascript"><![CDATA[
var edges = document.getElementsByTagName('g');
if (edges && edges.length) {
  for (var i=0;i<edges.length;i++) {
    if (edges[i].id.substr(0,4)=='edge') {
      edges[i].setAttribute('class','edge');
    }
  }
}
]]></script>
        <defs>
                <circle id="rim" cx="0" cy="0" r="7"/>
                <circle id="rim2" cx="0" cy="0" r="3.5"/>
                <g id="zoomPlus">
                        <use xlink:href="#rim" fill="#404040">
                                <set attributeName="fill" to="#808080" begin="zoomplus.mouseover" end="zoomplus.mouseout"/>
                        </use>
                        <path d="M-4,0h8M0,-4v8" fill="none" stroke="white" stroke-width="1.5" pointer-events="none"/>
                </g>
                <g id="zoomMin">
                        <use xlink:href="#rim" fill="#404040">
                                <set attributeName="fill" to="#808080" begin="zoomminus.mouseover" end="zoomminus.mouseout"/>
                        </use>
                        <path d="M-4,0h8" fill="none" stroke="white" stroke-width="1.5" pointer-events="none"/>
                </g>
                <g id="dirArrow">
                        <path fill="none" stroke="white" stroke-width="1.5" d="M0,-3.0v7 M-2.5,-0.5L0,-3.0L2.5,-0.5"/>
                </g>
               <g id="resetDef">
                       <use xlink:href="#rim2" fill="#404040">
                               <set attributeName="fill" to="#808080" begin="reset.mouseover" end="reset.mouseout"/>
                       </use>
               </g>
        </defs>

<script type="text/javascript">
var viewWidth = 607;
var viewHeight = 66;
var sectionId = 'dynsection-8';
</script>
<script xlink:href="svgpan.js"/>
<svg id="graph" class="graph">
<g id="viewport">
<title>CDSNotificationInterface::UpdatedBlockTip</title>
<polygon fill="white" stroke="none" points="-4,4 -4,-62 603,-62 603,4 -4,4"/>
<!-- Node1080 -->
<g id="node1" class="node"><title>Node1080</title>
<polygon fill="#bfbfbf" stroke="black" points="0,-14 0,-44 126,-44 126,-14 0,-14"/>
<text text-anchor="start" x="8" y="-32" font-family="Helvetica,sans-Serif" font-size="10.00">CDSNotificationInterface</text>
<text text-anchor="middle" x="63" y="-21" font-family="Helvetica,sans-Serif" font-size="10.00">::UpdatedBlockTip</text>
</g>
<!-- Node1081 -->
<g id="node2" class="node"><title>Node1081</title>
<g id="a_node2"><a xlink:href="class_c_d_s_notification_interface.html#a2e9dff307e1373bda9ac9445f7f5a3d7" target="_top" xlink:title="CDSNotificationInterface\l::InitializeCurrentBlockTip">
<polygon fill="white" stroke="black" points="162,-14 162,-44 291,-44 291,-14 162,-14"/>
<text text-anchor="start" x="170" y="-32" font-family="Helvetica,sans-Serif" font-size="10.00">CDSNotificationInterface</text>
<text text-anchor="middle" x="226.5" y="-21" font-family="Helvetica,sans-Serif" font-size="10.00">::InitializeCurrentBlockTip</text>
</a>
</g>
</g>
<!-- Node1080&#45;&gt;Node1081 -->
<g id="edge1" class="edge"><title>Node1080&#45;&gt;Node1081</title>
<path fill="none" stroke="midnightblue" d="M136.633,-29C145.058,-29 153.602,-29 161.893,-29"/>
<polygon fill="midnightblue" stroke="midnightblue" points="136.44,-25.5001 126.44,-29 136.44,-32.5001 136.44,-25.5001"/>
</g>
<!-- Node1082 -->
<g id="node3" class="node"><title>Node1082</title>
<g id="a_node3"><a xlink:href="init_8h.html#a6f0784aa332573f949b0975205572b28" target="_top" xlink:title="Initialize Dash Core. ">
<polygon fill="white" stroke="black" points="327,-19.5 327,-38.5 380,-38.5 380,-19.5 327,-19.5"/>
<text text-anchor="middle" x="353.5" y="-26.5" font-family="Helvetica,sans-Serif" font-size="10.00">AppInit2</text>
</a>
</g>
</g>
<!-- Node1081&#45;&gt;Node1082 -->
<g id="edge2" class="edge"><title>Node1081&#45;&gt;Node1082</title>
<path fill="none" stroke="midnightblue" d="M301.14,-29C310.309,-29 319.149,-29 326.833,-29"/>
<polygon fill="midnightblue" stroke="midnightblue" points="301.099,-25.5001 291.099,-29 301.099,-32.5001 301.099,-25.5001"/>
</g>
<!-- Node1083 -->
<g id="node4" class="node"><title>Node1083</title>
<g id="a_node4"><a xlink:href="dashd_8cpp.html#ac59316b767e6984e1285f0531275286b" target="_top" xlink:title="AppInit">
<polygon fill="white" stroke="black" points="447,-38.5 447,-57.5 494,-57.5 494,-38.5 447,-38.5"/>
<text text-anchor="middle" x="470.5" y="-45.5" font-family="Helvetica,sans-Serif" font-size="10.00">AppInit</text>
</a>
</g>
</g>
<!-- Node1082&#45;&gt;Node1083 -->
<g id="edge3" class="edge"><title>Node1082&#45;&gt;Node1083</title>
<path fill="none" stroke="midnightblue" d="M390.14,-34.8884C408.614,-37.9406 430.626,-41.5773 446.775,-44.2455"/>
<polygon fill="midnightblue" stroke="midnightblue" points="390.459,-31.3937 380.022,-33.2167 389.318,-38.3001 390.459,-31.3937"/>
</g>
<!-- Node1085 -->
<g id="node6" class="node"><title>Node1085</title>
<g id="a_node6"><a xlink:href="class_bitcoin_core.html#af34ca069cda1d4362dcc109b4397fb62" target="_top" xlink:title="BitcoinCore::initialize">
<polygon fill="white" stroke="black" points="416,-0.5 416,-19.5 525,-19.5 525,-0.5 416,-0.5"/>
<text text-anchor="middle" x="470.5" y="-7.5" font-family="Helvetica,sans-Serif" font-size="10.00">BitcoinCore::initialize</text>
</a>
</g>
</g>
<!-- Node1082&#45;&gt;Node1085 -->
<g id="edge5" class="edge"><title>Node1082&#45;&gt;Node1085</title>
<path fill="none" stroke="midnightblue" d="M389.951,-23.1429C398.134,-21.7909 407.02,-20.3228 415.788,-18.8742"/>
<polygon fill="midnightblue" stroke="midnightblue" points="389.318,-19.6999 380.022,-24.7833 390.459,-26.6063 389.318,-19.6999"/>
</g>
<!-- Node1084 -->
<g id="node5" class="node"><title>Node1084</title>
<g id="a_node5"><a xlink:href="dashd_8cpp.html#a0ddf1224851353fc92bfbff6f499fa97" target="_top" xlink:title="main">
<polygon fill="white" stroke="black" points="561,-38.5 561,-57.5 599,-57.5 599,-38.5 561,-38.5"/>
<text text-anchor="middle" x="580" y="-45.5" font-family="Helvetica,sans-Serif" font-size="10.00">main</text>
</a>
</g>
</g>
<!-- Node1083&#45;&gt;Node1084 -->
<g id="edge4" class="edge"><title>Node1083&#45;&gt;Node1084</title>
<path fill="none" stroke="midnightblue" d="M504.151,-48C522.729,-48 545.304,-48 560.773,-48"/>
<polygon fill="midnightblue" stroke="midnightblue" points="504.036,-44.5001 494.036,-48 504.035,-51.5001 504.036,-44.5001"/>
</g>
</g>
</svg>
        <g id="navigator" transform="translate(0 0)" fill="#404254">
                <rect fill="#f2f5e9" fill-opacity="0.5" stroke="#606060" stroke-width=".5" x="0" y="0" width="60" height="60"/>
                <use id="zoomplus" xlink:href="#zoomPlus" x="17" y="9" onmousedown="handleZoom(evt,'in')"/>
                <use id="zoomminus" xlink:href="#zoomMin" x="42" y="9" onmousedown="handleZoom(evt,'out')"/>
                <use id="reset" xlink:href="#resetDef" x="30" y="36" onmousedown="handleReset()"/>
                <g id="arrowUp" xlink:href="#dirArrow" transform="translate(30 24)" onmousedown="handlePan(0,-1)">
                  <use xlink:href="#rim" fill="#404040">
                        <set attributeName="fill" to="#808080" begin="arrowUp.mouseover" end="arrowUp.mouseout"/>
                  </use>
                  <path fill="none" stroke="white" stroke-width="1.5" d="M0,-3.0v7 M-2.5,-0.5L0,-3.0L2.5,-0.5"/>
                </g>
                <g id="arrowRight" xlink:href="#dirArrow" transform="rotate(90) translate(36 -43)" onmousedown="handlePan(1,0)">
                  <use xlink:href="#rim" fill="#404040">
                        <set attributeName="fill" to="#808080" begin="arrowRight.mouseover" end="arrowRight.mouseout"/>
                  </use>
                  <path fill="none" stroke="white" stroke-width="1.5" d="M0,-3.0v7 M-2.5,-0.5L0,-3.0L2.5,-0.5"/>
                </g>
                <g id="arrowDown" xlink:href="#dirArrow" transform="rotate(180) translate(-30 -48)" onmousedown="handlePan(0,1)">
                  <use xlink:href="#rim" fill="#404040">
                        <set attributeName="fill" to="#808080" begin="arrowDown.mouseover" end="arrowDown.mouseout"/>
                  </use>
                  <path fill="none" stroke="white" stroke-width="1.5" d="M0,-3.0v7 M-2.5,-0.5L0,-3.0L2.5,-0.5"/>
                </g>
                <g id="arrowLeft" xlink:href="#dirArrow" transform="rotate(270) translate(-36 17)" onmousedown="handlePan(-1,0)">
                  <use xlink:href="#rim" fill="#404040">
                        <set attributeName="fill" to="#808080" begin="arrowLeft.mouseover" end="arrowLeft.mouseout"/>
                  </use>
                  <path fill="none" stroke="white" stroke-width="1.5" d="M0,-3.0v7 M-2.5,-0.5L0,-3.0L2.5,-0.5"/>
                </g>
        </g>
        <svg viewBox="0 0 15 15" width="100%" height="30px" preserveAspectRatio="xMaxYMin meet">
         <g id="arrow_out" transform="scale(0.3 0.3)">
          <a xlink:href="class_c_d_s_notification_interface_ac2ced383b75336649c5694e580b18164_icgraph_org.svg" target="_base">
           <rect id="button" ry="5" rx="5" y="6" x="6" height="38" width="38"
                fill="#f2f5e9" fill-opacity="0.5" stroke="#606060" stroke-width="1.0"/>
           <path id="arrow"
             d="M 11.500037,31.436501 C 11.940474,20.09759 22.043105,11.32322 32.158766,21.979434 L 37.068811,17.246167 C 37.068811,17.246167 37.088388,32 37.088388,32 L 22.160133,31.978069 C 22.160133,31.978069 26.997745,27.140456 26.997745,27.140456 C 18.528582,18.264221 13.291696,25.230495 11.500037,31.436501 z"
             style="fill:#404040;"/>
          </a>
         </g>
        </svg>
</svg>
