<?xml version="1.0" encoding="UTF-8" standalone="no"?>
<!DOCTYPE svg PUBLIC "-//W3C//DTD SVG 1.1//EN"
 "http://www.w3.org/Graphics/SVG/1.1/DTD/svg11.dtd">
<!-- Generated by graphviz version 2.38.0 (20140413.2041)
 -->
<!-- Title: ClientModel::getTotalBytesSent Pages: 1 -->
<!--zoomable 215 -->
<svg id="main" version="1.1" xmlns="http://www.w3.org/2000/svg" xmlns:xlink="http://www.w3.org/1999/xlink" xml:space="preserve" onload="init(evt)">
<style type="text/css"><![CDATA[
.edge:hover path { stroke: red; }
.edge:hover polygon { stroke: red; fill: red; }
]]></style>
<script type="text/javascript"><![CDATA[
var edges = document.getElementsByTagName('g');
if (edges && edges.length) {
  for (var i=0;i<edges.length;i++) {
    if (edges[i].id.substr(0,4)=='edge') {
      edges[i].setAttribute('class','edge');
    }
  }
}
]]></script>
        <defs>
                <circle id="rim" cx="0" cy="0" r="7"/>
                <circle id="rim2" cx="0" cy="0" r="3.5"/>
                <g id="zoomPlus">
                        <use xlink:href="#rim" fill="#404040">
                                <set attributeName="fill" to="#808080" begin="zoomplus.mouseover" end="zoomplus.mouseout"/>
                        </use>
                        <path d="M-4,0h8M0,-4v8" fill="none" stroke="white" stroke-width="1.5" pointer-events="none"/>
                </g>
                <g id="zoomMin">
                        <use xlink:href="#rim" fill="#404040">
                                <set attributeName="fill" to="#808080" begin="zoomminus.mouseover" end="zoomminus.mouseout"/>
                        </use>
                        <path d="M-4,0h8" fill="none" stroke="white" stroke-width="1.5" pointer-events="none"/>
                </g>
                <g id="dirArrow">
                        <path fill="none" stroke="white" stroke-width="1.5" d="M0,-3.0v7 M-2.5,-0.5L0,-3.0L2.5,-0.5"/>
                </g>
               <g id="resetDef">
                       <use xlink:href="#rim2" fill="#404040">
                               <set attributeName="fill" to="#808080" begin="reset.mouseover" end="reset.mouseout"/>
                       </use>
               </g>
        </defs>

<script type="text/javascript">
var viewWidth = 987;
var viewHeight = 215;
var sectionId = 'dynsection-37';
</script>
<script xlink:href="svgpan.js"/>
<svg id="graph" class="graph">
<g id="viewport">
<title>ClientModel::getTotalBytesSent</title>
<polygon fill="white" stroke="none" points="-4,4 -4,-210.5 983,-210.5 983,4 -4,4"/>
<!-- Node338 -->
<g id="node1" class="node"><title>Node338</title>
<polygon fill="#bfbfbf" stroke="black" points="0,-88.5 0,-107.5 155,-107.5 155,-88.5 0,-88.5"/>
<text text-anchor="middle" x="77.5" y="-95.5" font-family="Helvetica,sans-Serif" font-size="10.00">ClientModel::getTotalBytesSent</text>
</g>
<!-- Node339 -->
<g id="node2" class="node"><title>Node339</title>
<g id="a_node2"><a xlink:href="class_traffic_graph_widget.html#a71c23db2649ab8781fa9a294e540b7ee" target="_top" xlink:title="TrafficGraphWidget\l::clear">
<polygon fill="white" stroke="black" points="213.5,-176 213.5,-206 314.5,-206 314.5,-176 213.5,-176"/>
<text text-anchor="start" x="221.5" y="-194" font-family="Helvetica,sans-Serif" font-size="10.00">TrafficGraphWidget</text>
<text text-anchor="middle" x="264" y="-183" font-family="Helvetica,sans-Serif" font-size="10.00">::clear</text>
</a>
</g>
</g>
<!-- Node338&#45;&gt;Node339 -->
<g id="edge1" class="edge"><title>Node338&#45;&gt;Node339</title>
<path fill="none" stroke="midnightblue" d="M100.093,-113.312C122.149,-128.448 157.777,-151.523 191,-167 198.047,-170.283 205.67,-173.327 213.229,-176.069"/>
<polygon fill="midnightblue" stroke="midnightblue" points="102.001,-110.377 91.7907,-107.549 98.0095,-116.127 102.001,-110.377"/>
</g>
<!-- Node340 -->
<g id="node3" class="node"><title>Node340</title>
<g id="a_node3"><a xlink:href="class_traffic_graph_widget.html#a8f627aaf6171695d94a0e83b239fe1ac" target="_top" xlink:title="TrafficGraphWidget\l::setClientModel">
<polygon fill="white" stroke="black" points="213.5,-127 213.5,-157 314.5,-157 314.5,-127 213.5,-127"/>
<text text-anchor="start" x="221.5" y="-145" font-family="Helvetica,sans-Serif" font-size="10.00">TrafficGraphWidget</text>
<text text-anchor="middle" x="264" y="-134" font-family="Helvetica,sans-Serif" font-size="10.00">::setClientModel</text>
</a>
</g>
</g>
<!-- Node338&#45;&gt;Node340 -->
<g id="edge2" class="edge"><title>Node338&#45;&gt;Node340</title>
<path fill="none" stroke="midnightblue" d="M128.308,-109.878C154.628,-116.155 186.843,-123.838 213.167,-130.116"/>
<polygon fill="midnightblue" stroke="midnightblue" points="129.073,-106.463 118.534,-107.547 127.449,-113.272 129.073,-106.463"/>
</g>
<!-- Node341 -->
<g id="node4" class="node"><title>Node341</title>
<g id="a_node4"><a xlink:href="class_r_p_c_console.html#a355349a33664a07628e9ca22a60f5fa7" target="_top" xlink:title="RPCConsole::setClientModel">
<polygon fill="white" stroke="black" points="191,-88.5 191,-107.5 337,-107.5 337,-88.5 191,-88.5"/>
<text text-anchor="middle" x="264" y="-95.5" font-family="Helvetica,sans-Serif" font-size="10.00">RPCConsole::setClientModel</text>
</a>
</g>
</g>
<!-- Node338&#45;&gt;Node341 -->
<g id="edge3" class="edge"><title>Node338&#45;&gt;Node341</title>
<path fill="none" stroke="midnightblue" d="M165.148,-98C173.712,-98 182.341,-98 190.737,-98"/>
<polygon fill="midnightblue" stroke="midnightblue" points="165.142,-94.5001 155.142,-98 165.142,-101.5 165.142,-94.5001"/>
</g>
<!-- Node348 -->
<g id="node11" class="node"><title>Node348</title>
<g id="a_node11"><a xlink:href="class_traffic_graph_widget.html#a5a1ae0d0a8cc43c67386de4aa1111340" target="_top" xlink:title="TrafficGraphWidget\l::updateRates">
<polygon fill="white" stroke="black" points="213.5,-39 213.5,-69 314.5,-69 314.5,-39 213.5,-39"/>
<text text-anchor="start" x="221.5" y="-57" font-family="Helvetica,sans-Serif" font-size="10.00">TrafficGraphWidget</text>
<text text-anchor="middle" x="264" y="-46" font-family="Helvetica,sans-Serif" font-size="10.00">::updateRates</text>
</a>
</g>
</g>
<!-- Node338&#45;&gt;Node348 -->
<g id="edge12" class="edge"><title>Node338&#45;&gt;Node348</title>
<path fill="none" stroke="midnightblue" d="M128.308,-86.1217C154.628,-79.8448 186.843,-72.1622 213.167,-65.8844"/>
<polygon fill="midnightblue" stroke="midnightblue" points="127.449,-82.7283 118.534,-88.4527 129.073,-89.5373 127.449,-82.7283"/>
</g>
<!-- Node350 -->
<g id="node13" class="node"><title>Node350</title>
<g id="a_node13"><a xlink:href="class_client_model.html#a82d434ebd032c00736e043ce2d36ac5e" target="_top" xlink:title="ClientModel::updateTimer">
<polygon fill="white" stroke="black" points="200,-0.5 200,-19.5 328,-19.5 328,-0.5 200,-0.5"/>
<text text-anchor="middle" x="264" y="-7.5" font-family="Helvetica,sans-Serif" font-size="10.00">ClientModel::updateTimer</text>
</a>
</g>
</g>
<!-- Node338&#45;&gt;Node350 -->
<g id="edge14" class="edge"><title>Node338&#45;&gt;Node350</title>
<path fill="none" stroke="midnightblue" d="M99.5318,-82.492C121.401,-67.0088 157.116,-43.4894 191,-29 199.677,-25.2894 209.26,-22.1501 218.527,-19.5579"/>
<polygon fill="midnightblue" stroke="midnightblue" points="97.4017,-79.7127 91.3218,-88.3894 101.486,-85.3979 97.4017,-79.7127"/>
</g>
<!-- Node342 -->
<g id="node5" class="node"><title>Node342</title>
<g id="a_node5"><a xlink:href="class_bitcoin_g_u_i.html#a99d71e1f8478ab937ce2522c8d3815e3" target="_top" xlink:title="Set the client model. ">
<polygon fill="white" stroke="black" points="373,-88.5 373,-107.5 509,-107.5 509,-88.5 373,-88.5"/>
<text text-anchor="middle" x="441" y="-95.5" font-family="Helvetica,sans-Serif" font-size="10.00">BitcoinGUI::setClientModel</text>
</a>
</g>
</g>
<!-- Node341&#45;&gt;Node342 -->
<g id="edge4" class="edge"><title>Node341&#45;&gt;Node342</title>
<path fill="none" stroke="midnightblue" d="M347.19,-98C355.753,-98 364.384,-98 372.753,-98"/>
<polygon fill="midnightblue" stroke="midnightblue" points="347.19,-94.5001 337.19,-98 347.19,-101.5 347.19,-94.5001"/>
</g>
<!-- Node343 -->
<g id="node6" class="node"><title>Node343</title>
<g id="a_node6"><a xlink:href="class_bitcoin_application.html#aceb08b4063e4fb264cf11cf7f9edd969" target="_top" xlink:title="BitcoinApplication\l::initializeResult">
<polygon fill="white" stroke="black" points="545,-105 545,-135 640,-135 640,-105 545,-105"/>
<text text-anchor="start" x="553" y="-123" font-family="Helvetica,sans-Serif" font-size="10.00">BitcoinApplication</text>
<text text-anchor="middle" x="592.5" y="-112" font-family="Helvetica,sans-Serif" font-size="10.00">::initializeResult</text>
</a>
</g>
</g>
<!-- Node342&#45;&gt;Node343 -->
<g id="edge5" class="edge"><title>Node342&#45;&gt;Node343</title>
<path fill="none" stroke="midnightblue" d="M516.644,-108.984C526.21,-110.392 535.778,-111.8 544.721,-113.116"/>
<polygon fill="midnightblue" stroke="midnightblue" points="517.106,-105.515 506.703,-107.522 516.087,-112.44 517.106,-105.515"/>
</g>
<!-- Node347 -->
<g id="node10" class="node"><title>Node347</title>
<g id="a_node10"><a xlink:href="class_bitcoin_application.html#a37c560d4c04d14a6da151b82caf8888f" target="_top" xlink:title="Request core shutdown. ">
<polygon fill="white" stroke="black" points="807,-61 807,-91 905,-91 905,-61 807,-61"/>
<text text-anchor="start" x="815" y="-79" font-family="Helvetica,sans-Serif" font-size="10.00">BitcoinApplication</text>
<text text-anchor="middle" x="856" y="-68" font-family="Helvetica,sans-Serif" font-size="10.00">::requestShutdown</text>
</a>
</g>
</g>
<!-- Node342&#45;&gt;Node347 -->
<g id="edge11" class="edge"><title>Node342&#45;&gt;Node347</title>
<path fill="none" stroke="midnightblue" d="M519.318,-93.8814C603.688,-89.3871 736.14,-82.3315 806.802,-78.5675"/>
<polygon fill="midnightblue" stroke="midnightblue" points="519.074,-90.3893 509.275,-94.4164 519.447,-97.3794 519.074,-90.3893"/>
</g>
<!-- Node344 -->
<g id="node7" class="node"><title>Node344</title>
<g id="a_node7"><a xlink:href="class_bitcoin_application.html#a61afce9356e452c53ad4c83f5ca19df8" target="_top" xlink:title="BitcoinApplication\l::startThread">
<polygon fill="white" stroke="black" points="676,-105 676,-135 771,-135 771,-105 676,-105"/>
<text text-anchor="start" x="684" y="-123" font-family="Helvetica,sans-Serif" font-size="10.00">BitcoinApplication</text>
<text text-anchor="middle" x="723.5" y="-112" font-family="Helvetica,sans-Serif" font-size="10.00">::startThread</text>
</a>
</g>
</g>
<!-- Node343&#45;&gt;Node344 -->
<g id="edge6" class="edge"><title>Node343&#45;&gt;Node344</title>
<path fill="none" stroke="midnightblue" d="M650.101,-120C658.752,-120 667.596,-120 675.996,-120"/>
<polygon fill="midnightblue" stroke="midnightblue" points="650.072,-116.5 640.072,-120 650.072,-123.5 650.072,-116.5"/>
</g>
<!-- Node345 -->
<g id="node8" class="node"><title>Node345</title>
<g id="a_node8"><a xlink:href="class_bitcoin_application.html#ade19c44b87b00b6b19b433caf4c22ba6" target="_top" xlink:title="Request core initialization. ">
<polygon fill="white" stroke="black" points="808.5,-110 808.5,-140 903.5,-140 903.5,-110 808.5,-110"/>
<text text-anchor="start" x="816.5" y="-128" font-family="Helvetica,sans-Serif" font-size="10.00">BitcoinApplication</text>
<text text-anchor="middle" x="856" y="-117" font-family="Helvetica,sans-Serif" font-size="10.00">::requestInitialize</text>
</a>
</g>
</g>
<!-- Node344&#45;&gt;Node345 -->
<g id="edge7" class="edge"><title>Node344&#45;&gt;Node345</title>
<path fill="none" stroke="midnightblue" d="M781.251,-122.174C790.228,-122.518 799.424,-122.871 808.143,-123.205"/>
<polygon fill="midnightblue" stroke="midnightblue" points="781.372,-118.677 771.245,-121.791 781.104,-125.671 781.372,-118.677"/>
</g>
<!-- Node344&#45;&gt;Node347 -->
<g id="edge9" class="edge"><title>Node344&#45;&gt;Node347</title>
<path fill="none" stroke="midnightblue" d="M778.569,-101.77C789.096,-98.2204 800.024,-94.5358 810.212,-91.1009"/>
<polygon fill="midnightblue" stroke="midnightblue" points="777.403,-98.4692 769.046,-104.981 779.64,-105.102 777.403,-98.4692"/>
</g>
<!-- Node346 -->
<g id="node9" class="node"><title>Node346</title>
<g id="a_node9"><a xlink:href="dash_8cpp.html#a0ddf1224851353fc92bfbff6f499fa97" target="_top" xlink:title="main">
<polygon fill="white" stroke="black" points="941,-90.5 941,-109.5 979,-109.5 979,-90.5 941,-90.5"/>
<text text-anchor="middle" x="960" y="-97.5" font-family="Helvetica,sans-Serif" font-size="10.00">main</text>
</a>
</g>
</g>
<!-- Node345&#45;&gt;Node346 -->
<g id="edge8" class="edge"><title>Node345&#45;&gt;Node346</title>
<path fill="none" stroke="midnightblue" d="M913.473,-111.159C923.386,-108.729 933.021,-106.367 940.854,-104.447"/>
<polygon fill="midnightblue" stroke="midnightblue" points="912.402,-107.817 903.523,-113.597 914.068,-114.616 912.402,-107.817"/>
</g>
<!-- Node347&#45;&gt;Node346 -->
<g id="edge10" class="edge"><title>Node347&#45;&gt;Node346</title>
<path fill="none" stroke="midnightblue" d="M914.919,-89.628C924.366,-91.8508 933.49,-93.9977 940.963,-95.7559"/>
<polygon fill="midnightblue" stroke="midnightblue" points="915.549,-86.1807 905.013,-87.2972 913.946,-92.9947 915.549,-86.1807"/>
</g>
<!-- Node349 -->
<g id="node12" class="node"><title>Node349</title>
<g id="a_node12"><a xlink:href="class_traffic_graph_widget.html#a99f4f3f14bab99bef8918cb4f5f69aa6" target="_top" xlink:title="TrafficGraphWidget\l::TrafficGraphWidget">
<polygon fill="white" stroke="black" points="387.5,-39 387.5,-69 494.5,-69 494.5,-39 387.5,-39"/>
<text text-anchor="start" x="395.5" y="-57" font-family="Helvetica,sans-Serif" font-size="10.00">TrafficGraphWidget</text>
<text text-anchor="middle" x="441" y="-46" font-family="Helvetica,sans-Serif" font-size="10.00">::TrafficGraphWidget</text>
</a>
</g>
</g>
<!-- Node348&#45;&gt;Node349 -->
<g id="edge13" class="edge"><title>Node348&#45;&gt;Node349</title>
<path fill="none" stroke="midnightblue" d="M324.778,-54C345.127,-54 367.706,-54 387.446,-54"/>
<polygon fill="midnightblue" stroke="midnightblue" points="324.68,-50.5001 314.68,-54 324.68,-57.5001 324.68,-50.5001"/>
</g>
<!-- Node351 -->
<g id="node14" class="node"><title>Node351</title>
<g id="a_node14"><a xlink:href="class_client_model.html#aec1d32d5dc8c094eba66036a19a22854" target="_top" xlink:title="ClientModel::ClientModel">
<polygon fill="white" stroke="black" points="378,-0.5 378,-19.5 504,-19.5 504,-0.5 378,-0.5"/>
<text text-anchor="middle" x="441" y="-7.5" font-family="Helvetica,sans-Serif" font-size="10.00">ClientModel::ClientModel</text>
</a>
</g>
</g>
<!-- Node350&#45;&gt;Node351 -->
<g id="edge15" class="edge"><title>Node350&#45;&gt;Node351</title>
<path fill="none" stroke="midnightblue" d="M338.539,-10C351.599,-10 365.086,-10 377.793,-10"/>
<polygon fill="midnightblue" stroke="midnightblue" points="338.179,-6.5001 328.179,-10 338.179,-13.5001 338.179,-6.5001"/>
</g>
</g>
</svg>
        <g id="navigator" transform="translate(0 0)" fill="#404254">
                <rect fill="#f2f5e9" fill-opacity="0.5" stroke="#606060" stroke-width=".5" x="0" y="0" width="60" height="60"/>
                <use id="zoomplus" xlink:href="#zoomPlus" x="17" y="9" onmousedown="handleZoom(evt,'in')"/>
                <use id="zoomminus" xlink:href="#zoomMin" x="42" y="9" onmousedown="handleZoom(evt,'out')"/>
                <use id="reset" xlink:href="#resetDef" x="30" y="36" onmousedown="handleReset()"/>
                <g id="arrowUp" xlink:href="#dirArrow" transform="translate(30 24)" onmousedown="handlePan(0,-1)">
                  <use xlink:href="#rim" fill="#404040">
                        <set attributeName="fill" to="#808080" begin="arrowUp.mouseover" end="arrowUp.mouseout"/>
                  </use>
                  <path fill="none" stroke="white" stroke-width="1.5" d="M0,-3.0v7 M-2.5,-0.5L0,-3.0L2.5,-0.5"/>
                </g>
                <g id="arrowRight" xlink:href="#dirArrow" transform="rotate(90) translate(36 -43)" onmousedown="handlePan(1,0)">
                  <use xlink:href="#rim" fill="#404040">
                        <set attributeName="fill" to="#808080" begin="arrowRight.mouseover" end="arrowRight.mouseout"/>
                  </use>
                  <path fill="none" stroke="white" stroke-width="1.5" d="M0,-3.0v7 M-2.5,-0.5L0,-3.0L2.5,-0.5"/>
                </g>
                <g id="arrowDown" xlink:href="#dirArrow" transform="rotate(180) translate(-30 -48)" onmousedown="handlePan(0,1)">
                  <use xlink:href="#rim" fill="#404040">
                        <set attributeName="fill" to="#808080" begin="arrowDown.mouseover" end="arrowDown.mouseout"/>
                  </use>
                  <path fill="none" stroke="white" stroke-width="1.5" d="M0,-3.0v7 M-2.5,-0.5L0,-3.0L2.5,-0.5"/>
                </g>
                <g id="arrowLeft" xlink:href="#dirArrow" transform="rotate(270) translate(-36 17)" onmousedown="handlePan(-1,0)">
                  <use xlink:href="#rim" fill="#404040">
                        <set attributeName="fill" to="#808080" begin="arrowLeft.mouseover" end="arrowLeft.mouseout"/>
                  </use>
                  <path fill="none" stroke="white" stroke-width="1.5" d="M0,-3.0v7 M-2.5,-0.5L0,-3.0L2.5,-0.5"/>
                </g>
        </g>
        <svg viewBox="0 0 15 15" width="100%" height="30px" preserveAspectRatio="xMaxYMin meet">
         <g id="arrow_out" transform="scale(0.3 0.3)">
          <a xlink:href="class_client_model_a53cd536b119e49b0fab9c95d13a247ed_icgraph_org.svg" target="_base">
           <rect id="button" ry="5" rx="5" y="6" x="6" height="38" width="38"
                fill="#f2f5e9" fill-opacity="0.5" stroke="#606060" stroke-width="1.0"/>
           <path id="arrow"
             d="M 11.500037,31.436501 C 11.940474,20.09759 22.043105,11.32322 32.158766,21.979434 L 37.068811,17.246167 C 37.068811,17.246167 37.088388,32 37.088388,32 L 22.160133,31.978069 C 22.160133,31.978069 26.997745,27.140456 26.997745,27.140456 C 18.528582,18.264221 13.291696,25.230495 11.500037,31.436501 z"
             style="fill:#404040;"/>
          </a>
         </g>
        </svg>
</svg>
