<?xml version="1.0" encoding="UTF-8" standalone="no"?>
<!DOCTYPE svg PUBLIC "-//W3C//DTD SVG 1.1//EN"
 "http://www.w3.org/Graphics/SVG/1.1/DTD/svg11.dtd">
<!-- Generated by graphviz version 2.38.0 (20140413.2041)
 -->
<!-- Title: LockedPageManager::Instance Pages: 1 -->
<!--zoomable 415 -->
<svg id="main" version="1.1" xmlns="http://www.w3.org/2000/svg" xmlns:xlink="http://www.w3.org/1999/xlink" xml:space="preserve" onload="init(evt)">
<style type="text/css"><![CDATA[
.edge:hover path { stroke: red; }
.edge:hover polygon { stroke: red; fill: red; }
]]></style>
<script type="text/javascript"><![CDATA[
var edges = document.getElementsByTagName('g');
if (edges && edges.length) {
  for (var i=0;i<edges.length;i++) {
    if (edges[i].id.substr(0,4)=='edge') {
      edges[i].setAttribute('class','edge');
    }
  }
}
]]></script>
        <defs>
                <circle id="rim" cx="0" cy="0" r="7"/>
                <circle id="rim2" cx="0" cy="0" r="3.5"/>
                <g id="zoomPlus">
                        <use xlink:href="#rim" fill="#404040">
                                <set attributeName="fill" to="#808080" begin="zoomplus.mouseover" end="zoomplus.mouseout"/>
                        </use>
                        <path d="M-4,0h8M0,-4v8" fill="none" stroke="white" stroke-width="1.5" pointer-events="none"/>
                </g>
                <g id="zoomMin">
                        <use xlink:href="#rim" fill="#404040">
                                <set attributeName="fill" to="#808080" begin="zoomminus.mouseover" end="zoomminus.mouseout"/>
                        </use>
                        <path d="M-4,0h8" fill="none" stroke="white" stroke-width="1.5" pointer-events="none"/>
                </g>
                <g id="dirArrow">
                        <path fill="none" stroke="white" stroke-width="1.5" d="M0,-3.0v7 M-2.5,-0.5L0,-3.0L2.5,-0.5"/>
                </g>
               <g id="resetDef">
                       <use xlink:href="#rim2" fill="#404040">
                               <set attributeName="fill" to="#808080" begin="reset.mouseover" end="reset.mouseout"/>
                       </use>
               </g>
        </defs>

<script type="text/javascript">
var viewWidth = 1715;
var viewHeight = 415;
var sectionId = 'dynsection-4';
</script>
<script xlink:href="svgpan.js"/>
<svg id="graph" class="graph">
<g id="viewport">
<title>LockedPageManager::Instance</title>
<polygon fill="white" stroke="none" points="-4,4 -4,-411 1711,-411 1711,4 -4,4"/>
<!-- Node46 -->
<g id="node1" class="node"><title>Node46</title>
<polygon fill="#bfbfbf" stroke="black" points="0,-172 0,-202 114,-202 114,-172 0,-172"/>
<text text-anchor="start" x="8" y="-190" font-family="Helvetica,sans-Serif" font-size="10.00">LockedPageManager::</text>
<text text-anchor="middle" x="57" y="-179" font-family="Helvetica,sans-Serif" font-size="10.00">Instance</text>
</g>
<!-- Node47 -->
<g id="node2" class="node"><title>Node47</title>
<g id="a_node2"><a xlink:href="structsecure__allocator.html#aee6c375ead3ab5b477898787308bd2d9" target="_top" xlink:title="secure_allocator::allocate">
<polygon fill="white" stroke="black" points="155,-272.5 155,-291.5 283,-291.5 283,-272.5 155,-272.5"/>
<text text-anchor="middle" x="219" y="-279.5" font-family="Helvetica,sans-Serif" font-size="10.00">secure_allocator::allocate</text>
</a>
</g>
</g>
<!-- Node46&#45;&gt;Node47 -->
<g id="edge1" class="edge"><title>Node46&#45;&gt;Node47</title>
<path fill="none" stroke="midnightblue" d="M79.6243,-209.388C97.1496,-226.341 123.249,-249.023 150,-263 157.279,-266.803 165.406,-269.917 173.438,-272.442"/>
<polygon fill="midnightblue" stroke="midnightblue" points="81.7766,-206.594 72.2039,-202.054 76.8558,-211.573 81.7766,-206.594"/>
</g>
<!-- Node48 -->
<g id="node3" class="node"><title>Node48</title>
<g id="a_node3"><a xlink:href="class_c_crypter.html#a4bbf5c23b0350f04e0c8e3b4ef28615e" target="_top" xlink:title="CCrypter::CCrypter">
<polygon fill="white" stroke="black" points="168,-234.5 168,-253.5 270,-253.5 270,-234.5 168,-234.5"/>
<text text-anchor="middle" x="219" y="-241.5" font-family="Helvetica,sans-Serif" font-size="10.00">CCrypter::CCrypter</text>
</a>
</g>
</g>
<!-- Node46&#45;&gt;Node48 -->
<g id="edge2" class="edge"><title>Node46&#45;&gt;Node48</title>
<path fill="none" stroke="midnightblue" d="M100.942,-205.98C116.271,-212.423 133.765,-219.401 150,-225 159.85,-228.397 170.655,-231.632 180.696,-234.44"/>
<polygon fill="midnightblue" stroke="midnightblue" points="102.281,-202.746 91.7083,-202.055 99.542,-209.188 102.281,-202.746"/>
</g>
<!-- Node49 -->
<g id="node4" class="node"><title>Node49</title>
<g id="a_node4"><a xlink:href="structsecure__allocator.html#af86cc49185bd507b8b479e070d744eb0" target="_top" xlink:title="secure_allocator::deallocate">
<polygon fill="white" stroke="black" points="150,-196.5 150,-215.5 288,-215.5 288,-196.5 150,-196.5"/>
<text text-anchor="middle" x="219" y="-203.5" font-family="Helvetica,sans-Serif" font-size="10.00">secure_allocator::deallocate</text>
</a>
</g>
</g>
<!-- Node46&#45;&gt;Node49 -->
<g id="edge3" class="edge"><title>Node46&#45;&gt;Node49</title>
<path fill="none" stroke="midnightblue" d="M124.47,-194.893C132.821,-195.885 141.374,-196.901 149.751,-197.895"/>
<polygon fill="midnightblue" stroke="midnightblue" points="124.753,-191.402 114.41,-193.699 123.927,-198.354 124.753,-191.402"/>
</g>
<!-- Node50 -->
<g id="node5" class="node"><title>Node50</title>
<g id="a_node5"><a xlink:href="pagelocker_8h.html#ab73cc3988a03bed966c0c2bb191a8d2a" target="_top" xlink:title="LockObject">
<polygon fill="white" stroke="black" points="186,-158.5 186,-177.5 252,-177.5 252,-158.5 186,-158.5"/>
<text text-anchor="middle" x="219" y="-165.5" font-family="Helvetica,sans-Serif" font-size="10.00">LockObject</text>
</a>
</g>
</g>
<!-- Node46&#45;&gt;Node50 -->
<g id="edge4" class="edge"><title>Node46&#45;&gt;Node50</title>
<path fill="none" stroke="midnightblue" d="M124.375,-179.118C145.609,-176.596 168.163,-173.918 185.813,-171.822"/>
<polygon fill="midnightblue" stroke="midnightblue" points="123.927,-175.646 114.41,-180.301 124.753,-182.598 123.927,-175.646"/>
</g>
<!-- Node83 -->
<g id="node38" class="node"><title>Node83</title>
<g id="a_node38"><a xlink:href="pagelocker_8h.html#a49577b8da0ecffd2fbc222896283004c" target="_top" xlink:title="UnlockObject">
<polygon fill="white" stroke="black" points="181,-120.5 181,-139.5 257,-139.5 257,-120.5 181,-120.5"/>
<text text-anchor="middle" x="219" y="-127.5" font-family="Helvetica,sans-Serif" font-size="10.00">UnlockObject</text>
</a>
</g>
</g>
<!-- Node46&#45;&gt;Node83 -->
<g id="edge41" class="edge"><title>Node46&#45;&gt;Node83</title>
<path fill="none" stroke="midnightblue" d="M100.942,-168.02C116.271,-161.577 133.765,-154.599 150,-149 159.85,-145.603 170.655,-142.368 180.696,-139.56"/>
<polygon fill="midnightblue" stroke="midnightblue" points="99.542,-164.812 91.7083,-171.945 102.281,-171.254 99.542,-164.812"/>
</g>
<!-- Node85 -->
<g id="node40" class="node"><title>Node85</title>
<g id="a_node40"><a xlink:href="class_c_crypter.html#ac0dccc762fb60fe9605409232ebfaa0f" target="_top" xlink:title="CCrypter::~CCrypter">
<polygon fill="white" stroke="black" points="165,-82.5 165,-101.5 273,-101.5 273,-82.5 165,-82.5"/>
<text text-anchor="middle" x="219" y="-89.5" font-family="Helvetica,sans-Serif" font-size="10.00">CCrypter::~CCrypter</text>
</a>
</g>
</g>
<!-- Node46&#45;&gt;Node85 -->
<g id="edge46" class="edge"><title>Node46&#45;&gt;Node85</title>
<path fill="none" stroke="midnightblue" d="M79.6243,-164.612C97.1496,-147.659 123.249,-124.977 150,-111 157.279,-107.197 165.406,-104.083 173.438,-101.558"/>
<polygon fill="midnightblue" stroke="midnightblue" points="76.8558,-162.427 72.2039,-171.946 81.7766,-167.406 76.8558,-162.427"/>
</g>
<!-- Node51 -->
<g id="node6" class="node"><title>Node51</title>
<g id="a_node6"><a xlink:href="class_c_key.html#a8f4ca910c7b7e729a3f2a5c59d060d3d" target="_top" xlink:title="Construct an invalid private key. ">
<polygon fill="white" stroke="black" points="341.5,-234.5 341.5,-253.5 413.5,-253.5 413.5,-234.5 341.5,-234.5"/>
<text text-anchor="middle" x="377.5" y="-241.5" font-family="Helvetica,sans-Serif" font-size="10.00">CKey::CKey</text>
</a>
</g>
</g>
<!-- Node50&#45;&gt;Node51 -->
<g id="edge5" class="edge"><title>Node50&#45;&gt;Node51</title>
<path fill="none" stroke="midnightblue" d="M262.161,-175.964C271.07,-178.674 280.144,-182.265 288,-187 307.925,-199.01 304.538,-212.254 324,-225 329.757,-228.771 336.359,-231.911 342.895,-234.481"/>
<polygon fill="midnightblue" stroke="midnightblue" points="262.816,-172.515 252.247,-173.264 260.976,-179.269 262.816,-172.515"/>
</g>
<!-- Node52 -->
<g id="node7" class="node"><title>Node52</title>
<g id="a_node7"><a xlink:href="class_c_key.html#ae79008cec2eb799a2efd37e010996acf" target="_top" xlink:title="Derive BIP32 child key. ">
<polygon fill="white" stroke="black" points="339.5,-196.5 339.5,-215.5 415.5,-215.5 415.5,-196.5 339.5,-196.5"/>
<text text-anchor="middle" x="377.5" y="-203.5" font-family="Helvetica,sans-Serif" font-size="10.00">CKey::Derive</text>
</a>
</g>
</g>
<!-- Node50&#45;&gt;Node52 -->
<g id="edge6" class="edge"><title>Node50&#45;&gt;Node52</title>
<path fill="none" stroke="midnightblue" d="M261.972,-178.191C286.056,-184.039 316.028,-191.317 339.27,-196.96"/>
<polygon fill="midnightblue" stroke="midnightblue" points="262.591,-174.74 252.048,-175.782 260.94,-181.542 262.591,-174.74"/>
</g>
<!-- Node61 -->
<g id="node16" class="node"><title>Node61</title>
<g id="a_node16"><a xlink:href="key_8h.html#a5ee69136607b1012d64a045ee44ccae2" target="_top" xlink:title="Initialize the elliptic curve support. ">
<polygon fill="white" stroke="black" points="345,-98.5 345,-117.5 410,-117.5 410,-98.5 345,-98.5"/>
<text text-anchor="middle" x="377.5" y="-105.5" font-family="Helvetica,sans-Serif" font-size="10.00">ECC_Start</text>
</a>
</g>
</g>
<!-- Node50&#45;&gt;Node61 -->
<g id="edge15" class="edge"><title>Node50&#45;&gt;Node61</title>
<path fill="none" stroke="midnightblue" d="M261.818,-157.462C270.553,-154.942 279.644,-152.08 288,-149 312.945,-139.805 340.579,-126.468 358.222,-117.527"/>
<polygon fill="midnightblue" stroke="midnightblue" points="260.857,-154.097 252.166,-160.155 262.738,-160.839 260.857,-154.097"/>
</g>
<!-- Node68 -->
<g id="node23" class="node"><title>Node68</title>
<g id="a_node23"><a xlink:href="struct_c_ext_key.html#a8cd6ecafdd649082601d7eebbec79688" target="_top" xlink:title="CExtKey::SetMaster">
<polygon fill="white" stroke="black" points="324,-158.5 324,-177.5 431,-177.5 431,-158.5 324,-158.5"/>
<text text-anchor="middle" x="377.5" y="-165.5" font-family="Helvetica,sans-Serif" font-size="10.00">CExtKey::SetMaster</text>
</a>
</g>
</g>
<!-- Node50&#45;&gt;Node68 -->
<g id="edge22" class="edge"><title>Node50&#45;&gt;Node68</title>
<path fill="none" stroke="midnightblue" d="M262.182,-168C281.165,-168 303.774,-168 323.855,-168"/>
<polygon fill="midnightblue" stroke="midnightblue" points="262.048,-164.5 252.048,-168 262.048,-171.5 262.048,-164.5"/>
</g>
<!-- Node53 -->
<g id="node8" class="node"><title>Node53</title>
<g id="a_node8"><a xlink:href="struct_c_ext_key.html#a589df63664c6d12bfe071b747a245b1d" target="_top" xlink:title="CExtKey::Derive">
<polygon fill="white" stroke="black" points="495,-327.5 495,-346.5 586,-346.5 586,-327.5 495,-327.5"/>
<text text-anchor="middle" x="540.5" y="-334.5" font-family="Helvetica,sans-Serif" font-size="10.00">CExtKey::Derive</text>
</a>
</g>
</g>
<!-- Node52&#45;&gt;Node53 -->
<g id="edge7" class="edge"><title>Node52&#45;&gt;Node53</title>
<path fill="none" stroke="midnightblue" d="M424.701,-219.968C426.951,-221.478 429.072,-223.15 431,-225 461.488,-254.26 436.112,-284.162 467,-313 474.753,-320.238 484.741,-325.297 494.809,-328.83"/>
<polygon fill="midnightblue" stroke="midnightblue" points="425.961,-216.666 415.514,-214.904 422.582,-222.796 425.961,-216.666"/>
</g>
<!-- Node54 -->
<g id="node9" class="node"><title>Node54</title>
<g id="a_node9"><a xlink:href="class_c_h_d_chain.html#aef1b10fffd41285366d594ace3a97d69" target="_top" xlink:title="CHDChain::DeriveChildExtKey">
<polygon fill="white" stroke="black" points="652,-308.5 652,-327.5 806,-327.5 806,-308.5 652,-308.5"/>
<text text-anchor="middle" x="729" y="-315.5" font-family="Helvetica,sans-Serif" font-size="10.00">CHDChain::DeriveChildExtKey</text>
</a>
</g>
</g>
<!-- Node53&#45;&gt;Node54 -->
<g id="edge8" class="edge"><title>Node53&#45;&gt;Node54</title>
<path fill="none" stroke="midnightblue" d="M596.122,-331.435C613.489,-329.666 633.027,-327.676 651.637,-325.78"/>
<polygon fill="midnightblue" stroke="midnightblue" points="595.765,-327.953 586.171,-332.449 596.475,-334.917 595.765,-327.953"/>
</g>
<!-- Node55 -->
<g id="node10" class="node"><title>Node55</title>
<g id="a_node10"><a xlink:href="group__map_wallet.html#ga76beb4aa57afa52c8fca1f84784f29f0" target="_top" xlink:title="CWallet::DeriveNewChildKey">
<polygon fill="white" stroke="black" points="844,-336.5 844,-355.5 990,-355.5 990,-336.5 844,-336.5"/>
<text text-anchor="middle" x="917" y="-343.5" font-family="Helvetica,sans-Serif" font-size="10.00">CWallet::DeriveNewChildKey</text>
</a>
</g>
</g>
<!-- Node54&#45;&gt;Node55 -->
<g id="edge9" class="edge"><title>Node54&#45;&gt;Node55</title>
<path fill="none" stroke="midnightblue" d="M803.262,-329.029C819.58,-331.485 836.748,-334.07 852.628,-336.46"/>
<polygon fill="midnightblue" stroke="midnightblue" points="803.64,-325.546 793.231,-327.519 802.598,-332.468 803.64,-325.546"/>
</g>
<!-- Node56 -->
<g id="node11" class="node"><title>Node56</title>
<g id="a_node11"><a xlink:href="group__map_wallet.html#ga81b8985d9f44cfbbf71c12f0857a4c54" target="_top" xlink:title="GetKey implementation that can derive a HD private key on the fly. ">
<polygon fill="white" stroke="black" points="871.5,-298.5 871.5,-317.5 962.5,-317.5 962.5,-298.5 871.5,-298.5"/>
<text text-anchor="middle" x="917" y="-305.5" font-family="Helvetica,sans-Serif" font-size="10.00">CWallet::GetKey</text>
</a>
</g>
</g>
<!-- Node54&#45;&gt;Node56 -->
<g id="edge10" class="edge"><title>Node54&#45;&gt;Node56</title>
<path fill="none" stroke="midnightblue" d="M816.396,-313.355C835.427,-312.332 854.829,-311.289 871.392,-310.398"/>
<polygon fill="midnightblue" stroke="midnightblue" points="815.988,-309.872 806.19,-313.904 816.364,-316.862 815.988,-309.872"/>
</g>
<!-- Node57 -->
<g id="node12" class="node"><title>Node57</title>
<g id="a_node12"><a xlink:href="rpcdump_8cpp.html#adab6603310ec229d92dd1e85c861c6a8" target="_top" xlink:title="dumpprivkey">
<polygon fill="white" stroke="black" points="1075.5,-387.5 1075.5,-406.5 1147.5,-406.5 1147.5,-387.5 1075.5,-387.5"/>
<text text-anchor="middle" x="1111.5" y="-394.5" font-family="Helvetica,sans-Serif" font-size="10.00">dumpprivkey</text>
</a>
</g>
</g>
<!-- Node56&#45;&gt;Node57 -->
<g id="edge11" class="edge"><title>Node56&#45;&gt;Node57</title>
<path fill="none" stroke="midnightblue" d="M972.566,-317.964C978.739,-320.356 984.704,-323.322 990,-327 1012.79,-342.827 1002.92,-362.595 1026,-378 1040.51,-387.685 1059.22,-392.494 1075.34,-394.857"/>
<polygon fill="midnightblue" stroke="midnightblue" points="973.356,-314.536 962.762,-314.658 971.12,-321.169 973.356,-314.536"/>
</g>
<!-- Node58 -->
<g id="node13" class="node"><title>Node58</title>
<g id="a_node13"><a xlink:href="rpcdump_8cpp.html#a84626901983e76a517c35e461a9a9442" target="_top" xlink:title="dumpwallet">
<polygon fill="white" stroke="black" points="1078.5,-251.5 1078.5,-270.5 1144.5,-270.5 1144.5,-251.5 1078.5,-251.5"/>
<text text-anchor="middle" x="1111.5" y="-258.5" font-family="Helvetica,sans-Serif" font-size="10.00">dumpwallet</text>
</a>
</g>
</g>
<!-- Node56&#45;&gt;Node58 -->
<g id="edge12" class="edge"><title>Node56&#45;&gt;Node58</title>
<path fill="none" stroke="midnightblue" d="M963.636,-295.818C982.854,-290.779 1005.48,-284.966 1026,-280 1043.25,-275.827 1062.55,-271.464 1078.34,-267.973"/>
<polygon fill="midnightblue" stroke="midnightblue" points="962.706,-292.443 953.927,-298.374 964.488,-299.213 962.706,-292.443"/>
</g>
<!-- Node59 -->
<g id="node14" class="node"><title>Node59</title>
<g id="a_node14"><a xlink:href="class_sign_verify_message_dialog.html#a2ef91b4ace68d63ab1c1d3cc6c13b5f9" target="_top" xlink:title="SignVerifyMessageDialog\l::on_signMessageButton\l_SM_clicked">
<polygon fill="white" stroke="black" points="1047,-327.5 1047,-368.5 1176,-368.5 1176,-327.5 1047,-327.5"/>
<text text-anchor="start" x="1055" y="-356.5" font-family="Helvetica,sans-Serif" font-size="10.00">SignVerifyMessageDialog</text>
<text text-anchor="start" x="1055" y="-345.5" font-family="Helvetica,sans-Serif" font-size="10.00">::on_signMessageButton</text>
<text text-anchor="middle" x="1111.5" y="-334.5" font-family="Helvetica,sans-Serif" font-size="10.00">_SM_clicked</text>
</a>
</g>
</g>
<!-- Node56&#45;&gt;Node59 -->
<g id="edge13" class="edge"><title>Node56&#45;&gt;Node59</title>
<path fill="none" stroke="midnightblue" d="M972.617,-319.349C995.712,-324.148 1022.77,-329.77 1046.77,-334.757"/>
<polygon fill="midnightblue" stroke="midnightblue" points="973.15,-315.885 962.647,-317.277 971.726,-322.739 973.15,-315.885"/>
</g>
<!-- Node60 -->
<g id="node15" class="node"><title>Node60</title>
<g id="a_node15"><a xlink:href="rpcwallet_8cpp.html#a95d30866deb9a289859518f21b6ec721" target="_top" xlink:title="signmessage">
<polygon fill="white" stroke="black" points="1074.5,-289.5 1074.5,-308.5 1148.5,-308.5 1148.5,-289.5 1074.5,-289.5"/>
<text text-anchor="middle" x="1111.5" y="-296.5" font-family="Helvetica,sans-Serif" font-size="10.00">signmessage</text>
</a>
</g>
</g>
<!-- Node56&#45;&gt;Node60 -->
<g id="edge14" class="edge"><title>Node56&#45;&gt;Node60</title>
<path fill="none" stroke="midnightblue" d="M972.928,-305.432C1005.51,-303.908 1045.9,-302.02 1074.46,-300.685"/>
<polygon fill="midnightblue" stroke="midnightblue" points="972.473,-301.949 962.647,-305.913 972.8,-308.942 972.473,-301.949"/>
</g>
<!-- Node62 -->
<g id="node17" class="node"><title>Node62</title>
<g id="a_node17"><a xlink:href="init_8h.html#a6f0784aa332573f949b0975205572b28" target="_top" xlink:title="Initialize Dash Core. ">
<polygon fill="white" stroke="black" points="890.5,-87.5 890.5,-106.5 943.5,-106.5 943.5,-87.5 890.5,-87.5"/>
<text text-anchor="middle" x="917" y="-94.5" font-family="Helvetica,sans-Serif" font-size="10.00">AppInit2</text>
</a>
</g>
</g>
<!-- Node61&#45;&gt;Node62 -->
<g id="edge16" class="edge"><title>Node61&#45;&gt;Node62</title>
<path fill="none" stroke="midnightblue" d="M420.125,-107.148C526.171,-104.978 804.186,-99.2883 890.237,-97.5272"/>
<polygon fill="midnightblue" stroke="midnightblue" points="420.043,-103.649 410.116,-107.353 420.186,-110.648 420.043,-103.649"/>
</g>
<!-- Node66 -->
<g id="node21" class="node"><title>Node66</title>
<g id="a_node21"><a xlink:href="bench__dash_8cpp.html#a3c04138a5bfe5d72780bb7e82a18e627" target="_top" xlink:title="main">
<polygon fill="white" stroke="black" points="521.5,-38.5 521.5,-57.5 559.5,-57.5 559.5,-38.5 521.5,-38.5"/>
<text text-anchor="middle" x="540.5" y="-45.5" font-family="Helvetica,sans-Serif" font-size="10.00">main</text>
</a>
</g>
</g>
<!-- Node61&#45;&gt;Node66 -->
<g id="edge20" class="edge"><title>Node61&#45;&gt;Node66</title>
<path fill="none" stroke="midnightblue" d="M416.057,-94.8947C421.108,-92.9901 426.201,-90.9964 431,-89 447.337,-82.204 450.571,-78.5702 467,-72 485.22,-64.7137 506.604,-57.8307 521.405,-53.32"/>
<polygon fill="midnightblue" stroke="midnightblue" points="414.651,-91.6823 406.479,-98.4246 417.072,-98.2505 414.651,-91.6823"/>
</g>
<!-- Node67 -->
<g id="node22" class="node"><title>Node67</title>
<g id="a_node22"><a xlink:href="class_secp256k1_init.html#a2b66e52b456b58659cb3c4b3adab862b" target="_top" xlink:title="Secp256k1Init::Secp256k1Init">
<polygon fill="white" stroke="black" points="467,-0.5 467,-19.5 614,-19.5 614,-0.5 467,-0.5"/>
<text text-anchor="middle" x="540.5" y="-7.5" font-family="Helvetica,sans-Serif" font-size="10.00">Secp256k1Init::Secp256k1Init</text>
</a>
</g>
</g>
<!-- Node61&#45;&gt;Node67 -->
<g id="edge21" class="edge"><title>Node61&#45;&gt;Node67</title>
<path fill="none" stroke="midnightblue" d="M419.354,-96.4532C423.517,-94.3505 427.496,-91.8851 431,-89 455.008,-69.2333 442.118,-47.6551 467,-29 472.205,-25.0973 478.143,-21.9943 484.328,-19.5274"/>
<polygon fill="midnightblue" stroke="midnightblue" points="417.833,-93.2982 410.061,-100.499 420.627,-99.7164 417.833,-93.2982"/>
</g>
<!-- Node63 -->
<g id="node18" class="node"><title>Node63</title>
<g id="a_node18"><a xlink:href="dashd_8cpp.html#ac59316b767e6984e1285f0531275286b" target="_top" xlink:title="AppInit">
<polygon fill="white" stroke="black" points="1088,-92.5 1088,-111.5 1135,-111.5 1135,-92.5 1088,-92.5"/>
<text text-anchor="middle" x="1111.5" y="-99.5" font-family="Helvetica,sans-Serif" font-size="10.00">AppInit</text>
</a>
</g>
</g>
<!-- Node62&#45;&gt;Node63 -->
<g id="edge17" class="edge"><title>Node62&#45;&gt;Node63</title>
<path fill="none" stroke="midnightblue" d="M953.745,-97.9284C992.975,-98.9474 1054.76,-100.552 1087.83,-101.411"/>
<polygon fill="midnightblue" stroke="midnightblue" points="953.65,-94.4249 943.563,-97.664 953.468,-101.423 953.65,-94.4249"/>
</g>
<!-- Node65 -->
<g id="node20" class="node"><title>Node65</title>
<g id="a_node20"><a xlink:href="class_bitcoin_core.html#af34ca069cda1d4362dcc109b4397fb62" target="_top" xlink:title="BitcoinCore::initialize">
<polygon fill="white" stroke="black" points="1057,-54.5 1057,-73.5 1166,-73.5 1166,-54.5 1057,-54.5"/>
<text text-anchor="middle" x="1111.5" y="-61.5" font-family="Helvetica,sans-Serif" font-size="10.00">BitcoinCore::initialize</text>
</a>
</g>
</g>
<!-- Node62&#45;&gt;Node65 -->
<g id="edge19" class="edge"><title>Node62&#45;&gt;Node65</title>
<path fill="none" stroke="midnightblue" d="M953.627,-90.8926C982.561,-85.9323 1023.82,-78.8587 1056.77,-73.211"/>
<polygon fill="midnightblue" stroke="midnightblue" points="952.827,-87.4785 943.563,-92.6179 954.01,-94.3778 952.827,-87.4785"/>
</g>
<!-- Node64 -->
<g id="node19" class="node"><title>Node64</title>
<g id="a_node19"><a xlink:href="dashd_8cpp.html#a0ddf1224851353fc92bfbff6f499fa97" target="_top" xlink:title="main">
<polygon fill="white" stroke="black" points="1294,-92.5 1294,-111.5 1332,-111.5 1332,-92.5 1294,-92.5"/>
<text text-anchor="middle" x="1313" y="-99.5" font-family="Helvetica,sans-Serif" font-size="10.00">main</text>
</a>
</g>
</g>
<!-- Node63&#45;&gt;Node64 -->
<g id="edge18" class="edge"><title>Node63&#45;&gt;Node64</title>
<path fill="none" stroke="midnightblue" d="M1145.49,-102C1187.92,-102 1260.15,-102 1293.78,-102"/>
<polygon fill="midnightblue" stroke="midnightblue" points="1145.39,-98.5001 1135.39,-102 1145.39,-105.5 1145.39,-98.5001"/>
</g>
<!-- Node68&#45;&gt;Node54 -->
<g id="edge39" class="edge"><title>Node68&#45;&gt;Node54</title>
<path fill="none" stroke="midnightblue" d="M425.672,-182.635C427.563,-183.967 429.352,-185.419 431,-187 461.488,-216.26 433.954,-248.663 467,-275 494.923,-297.253 585.223,-308.337 651.819,-313.611"/>
<polygon fill="midnightblue" stroke="midnightblue" points="427.265,-179.513 416.857,-177.53 423.756,-185.571 427.265,-179.513"/>
</g>
<!-- Node68&#45;&gt;Node58 -->
<g id="edge40" class="edge"><title>Node68&#45;&gt;Node58</title>
<path fill="none" stroke="midnightblue" d="M415.962,-180.884C467.823,-198.07 564.753,-227.851 650,-241 809.362,-265.58 1003.15,-263.857 1078.44,-262.009"/>
<polygon fill="midnightblue" stroke="midnightblue" points="416.801,-177.475 406.207,-177.624 414.582,-184.114 416.801,-177.475"/>
</g>
<!-- Node69 -->
<g id="node24" class="node"><title>Node69</title>
<g id="a_node24"><a xlink:href="class_c_h_d_chain.html#ada5366bcf86ad715b0e0fed80733e35b" target="_top" xlink:title="CHDChain::Debug">
<polygon fill="white" stroke="black" points="491,-158.5 491,-177.5 590,-177.5 590,-158.5 491,-158.5"/>
<text text-anchor="middle" x="540.5" y="-165.5" font-family="Helvetica,sans-Serif" font-size="10.00">CHDChain::Debug</text>
</a>
</g>
</g>
<!-- Node68&#45;&gt;Node69 -->
<g id="edge23" class="edge"><title>Node68&#45;&gt;Node69</title>
<path fill="none" stroke="midnightblue" d="M441.286,-168C457.715,-168 475.179,-168 490.754,-168"/>
<polygon fill="midnightblue" stroke="midnightblue" points="441.217,-164.5 431.217,-168 441.217,-171.5 441.217,-164.5"/>
</g>
<!-- Node70 -->
<g id="node25" class="node"><title>Node70</title>
<g id="a_node25"><a xlink:href="class_c_crypto_key_store.html#ac468711074b26df2a6c7fbc3a2cde470" target="_top" xlink:title="CCryptoKeyStore::Decrypt\lHDChain">
<polygon fill="white" stroke="black" points="662,-202 662,-232 796,-232 796,-202 662,-202"/>
<text text-anchor="start" x="670" y="-220" font-family="Helvetica,sans-Serif" font-size="10.00">CCryptoKeyStore::Decrypt</text>
<text text-anchor="middle" x="729" y="-209" font-family="Helvetica,sans-Serif" font-size="10.00">HDChain</text>
</a>
</g>
</g>
<!-- Node69&#45;&gt;Node70 -->
<g id="edge24" class="edge"><title>Node69&#45;&gt;Node70</title>
<path fill="none" stroke="midnightblue" d="M587.895,-180.19C612.982,-186.781 644.182,-194.978 670.767,-201.963"/>
<polygon fill="midnightblue" stroke="midnightblue" points="588.463,-176.72 577.902,-177.564 586.684,-183.49 588.463,-176.72"/>
</g>
<!-- Node81 -->
<g id="node36" class="node"><title>Node81</title>
<g id="a_node36"><a xlink:href="class_c_crypto_key_store.html#a3f55c097b0bc9e75c309db4bc1d53a67" target="_top" xlink:title="CCryptoKeyStore::Encrypt\lHDChain">
<polygon fill="white" stroke="black" points="662,-153 662,-183 796,-183 796,-153 662,-153"/>
<text text-anchor="start" x="670" y="-171" font-family="Helvetica,sans-Serif" font-size="10.00">CCryptoKeyStore::Encrypt</text>
<text text-anchor="middle" x="729" y="-160" font-family="Helvetica,sans-Serif" font-size="10.00">HDChain</text>
</a>
</g>
</g>
<!-- Node69&#45;&gt;Node81 -->
<g id="edge36" class="edge"><title>Node69&#45;&gt;Node81</title>
<path fill="none" stroke="midnightblue" d="M600.033,-168C619.653,-168 641.665,-168 661.828,-168"/>
<polygon fill="midnightblue" stroke="midnightblue" points="600.014,-164.5 590.014,-168 600.014,-171.5 600.014,-164.5"/>
</g>
<!-- Node82 -->
<g id="node37" class="node"><title>Node82</title>
<g id="a_node37"><a xlink:href="group__map_wallet.html#ga0a4476be9fde3845394c1514e69e5ff7" target="_top" xlink:title="CWallet::GenerateNewHDChain">
<polygon fill="white" stroke="black" points="650,-114.5 650,-133.5 808,-133.5 808,-114.5 650,-114.5"/>
<text text-anchor="middle" x="729" y="-121.5" font-family="Helvetica,sans-Serif" font-size="10.00">CWallet::GenerateNewHDChain</text>
</a>
</g>
</g>
<!-- Node69&#45;&gt;Node82 -->
<g id="edge37" class="edge"><title>Node69&#45;&gt;Node82</title>
<path fill="none" stroke="midnightblue" d="M591.84,-156.124C621.882,-149.036 659.524,-140.155 687.611,-133.529"/>
<polygon fill="midnightblue" stroke="midnightblue" points="590.897,-152.75 581.968,-158.453 592.504,-159.563 590.897,-152.75"/>
</g>
<!-- Node71 -->
<g id="node26" class="node"><title>Node71</title>
<g id="a_node26"><a xlink:href="class_c_crypto_key_store.html#a0717bc91b52f267df77e61870211ca62" target="_top" xlink:title="CCryptoKeyStore::Unlock">
<polygon fill="white" stroke="black" points="851.5,-207.5 851.5,-226.5 982.5,-226.5 982.5,-207.5 851.5,-207.5"/>
<text text-anchor="middle" x="917" y="-214.5" font-family="Helvetica,sans-Serif" font-size="10.00">CCryptoKeyStore::Unlock</text>
</a>
</g>
</g>
<!-- Node70&#45;&gt;Node71 -->
<g id="edge25" class="edge"><title>Node70&#45;&gt;Node71</title>
<path fill="none" stroke="midnightblue" d="M806.337,-217C821.29,-217 836.836,-217 851.362,-217"/>
<polygon fill="midnightblue" stroke="midnightblue" points="806.1,-213.5 796.1,-217 806.1,-220.5 806.1,-213.5"/>
</g>
<!-- Node72 -->
<g id="node27" class="node"><title>Node72</title>
<g id="a_node27"><a xlink:href="group__map_wallet.html#ga4abcec3066e7c462f4564c159fc15031" target="_top" xlink:title="CWallet::ChangeWalletPassphrase">
<polygon fill="white" stroke="black" points="1026,-210.5 1026,-229.5 1197,-229.5 1197,-210.5 1026,-210.5"/>
<text text-anchor="middle" x="1111.5" y="-217.5" font-family="Helvetica,sans-Serif" font-size="10.00">CWallet::ChangeWalletPassphrase</text>
</a>
</g>
</g>
<!-- Node71&#45;&gt;Node72 -->
<g id="edge26" class="edge"><title>Node71&#45;&gt;Node72</title>
<path fill="none" stroke="midnightblue" d="M992.868,-218.167C1003.68,-218.335 1014.88,-218.51 1025.86,-218.681"/>
<polygon fill="midnightblue" stroke="midnightblue" points="992.689,-214.664 982.635,-218.007 992.579,-221.663 992.689,-214.664"/>
</g>
<!-- Node76 -->
<g id="node31" class="node"><title>Node76</title>
<g id="a_node31"><a xlink:href="group__map_wallet.html#ga7d19286b74feeb6219af749a1fa5330b" target="_top" xlink:title="CWallet::Unlock">
<polygon fill="white" stroke="black" points="1067,-172.5 1067,-191.5 1156,-191.5 1156,-172.5 1067,-172.5"/>
<text text-anchor="middle" x="1111.5" y="-179.5" font-family="Helvetica,sans-Serif" font-size="10.00">CWallet::Unlock</text>
</a>
</g>
</g>
<!-- Node71&#45;&gt;Node76 -->
<g id="edge30" class="edge"><title>Node71&#45;&gt;Node76</title>
<path fill="none" stroke="midnightblue" d="M980.527,-205.631C1008.76,-200.498 1041.43,-194.559 1066.95,-189.919"/>
<polygon fill="midnightblue" stroke="midnightblue" points="979.56,-202.25 970.347,-207.482 980.812,-209.137 979.56,-202.25"/>
</g>
<!-- Node73 -->
<g id="node28" class="node"><title>Node73</title>
<g id="a_node28"><a xlink:href="class_wallet_model.html#a67ebff3f267b5c9973c0465184c085a4" target="_top" xlink:title="WalletModel::changePassphrase">
<polygon fill="white" stroke="black" points="1233,-248.5 1233,-267.5 1393,-267.5 1393,-248.5 1233,-248.5"/>
<text text-anchor="middle" x="1313" y="-255.5" font-family="Helvetica,sans-Serif" font-size="10.00">WalletModel::changePassphrase</text>
</a>
</g>
</g>
<!-- Node72&#45;&gt;Node73 -->
<g id="edge27" class="edge"><title>Node72&#45;&gt;Node73</title>
<path fill="none" stroke="midnightblue" d="M1172.45,-231.418C1200.99,-236.855 1234.74,-243.283 1261.89,-248.456"/>
<polygon fill="midnightblue" stroke="midnightblue" points="1173.06,-227.973 1162.58,-229.54 1171.75,-234.849 1173.06,-227.973"/>
</g>
<!-- Node75 -->
<g id="node30" class="node"><title>Node75</title>
<g id="a_node30"><a xlink:href="rpcwallet_8cpp.html#a63c3c88d86ea99e2c171b68a874fe8fe" target="_top" xlink:title="walletpassphrasechange">
<polygon fill="white" stroke="black" points="1251,-210.5 1251,-229.5 1375,-229.5 1375,-210.5 1251,-210.5"/>
<text text-anchor="middle" x="1313" y="-217.5" font-family="Helvetica,sans-Serif" font-size="10.00">walletpassphrasechange</text>
</a>
</g>
</g>
<!-- Node72&#45;&gt;Node75 -->
<g id="edge29" class="edge"><title>Node72&#45;&gt;Node75</title>
<path fill="none" stroke="midnightblue" d="M1207.32,-220C1222.12,-220 1237.07,-220 1250.86,-220"/>
<polygon fill="midnightblue" stroke="midnightblue" points="1207.11,-216.5 1197.11,-220 1207.11,-223.5 1207.11,-216.5"/>
</g>
<!-- Node74 -->
<g id="node29" class="node"><title>Node74</title>
<g id="a_node29"><a xlink:href="class_ask_passphrase_dialog.html#ac2f176af3693b73870d26ef0bfc6cbb9" target="_top" xlink:title="AskPassphraseDialog\l::accept">
<polygon fill="white" stroke="black" points="1431.5,-227 1431.5,-257 1544.5,-257 1544.5,-227 1431.5,-227"/>
<text text-anchor="start" x="1439.5" y="-245" font-family="Helvetica,sans-Serif" font-size="10.00">AskPassphraseDialog</text>
<text text-anchor="middle" x="1488" y="-234" font-family="Helvetica,sans-Serif" font-size="10.00">::accept</text>
</a>
</g>
</g>
<!-- Node73&#45;&gt;Node74 -->
<g id="edge28" class="edge"><title>Node73&#45;&gt;Node74</title>
<path fill="none" stroke="midnightblue" d="M1403.16,-249.754C1412.76,-248.866 1422.32,-247.982 1431.36,-247.146"/>
<polygon fill="midnightblue" stroke="midnightblue" points="1402.79,-246.273 1393.16,-250.679 1403.44,-253.243 1402.79,-246.273"/>
</g>
<!-- Node77 -->
<g id="node32" class="node"><title>Node77</title>
<g id="a_node32"><a xlink:href="class_wallet_model.html#aefc0dde78489bcc7e06690b27acdaf4d" target="_top" xlink:title="WalletModel::setWalletLocked">
<polygon fill="white" stroke="black" points="1238.5,-172.5 1238.5,-191.5 1387.5,-191.5 1387.5,-172.5 1238.5,-172.5"/>
<text text-anchor="middle" x="1313" y="-179.5" font-family="Helvetica,sans-Serif" font-size="10.00">WalletModel::setWalletLocked</text>
</a>
</g>
</g>
<!-- Node76&#45;&gt;Node77 -->
<g id="edge31" class="edge"><title>Node76&#45;&gt;Node77</title>
<path fill="none" stroke="midnightblue" d="M1166.45,-182C1188.5,-182 1214.36,-182 1238.13,-182"/>
<polygon fill="midnightblue" stroke="midnightblue" points="1166.28,-178.5 1156.28,-182 1166.28,-185.5 1166.28,-178.5"/>
</g>
<!-- Node80 -->
<g id="node35" class="node"><title>Node80</title>
<g id="a_node35"><a xlink:href="rpcwallet_8cpp.html#a001d7bf0dae09484298af47da1c84df6" target="_top" xlink:title="walletpassphrase">
<polygon fill="white" stroke="black" points="1267,-134.5 1267,-153.5 1359,-153.5 1359,-134.5 1267,-134.5"/>
<text text-anchor="middle" x="1313" y="-141.5" font-family="Helvetica,sans-Serif" font-size="10.00">walletpassphrase</text>
</a>
</g>
</g>
<!-- Node76&#45;&gt;Node80 -->
<g id="edge35" class="edge"><title>Node76&#45;&gt;Node80</title>
<path fill="none" stroke="midnightblue" d="M1166.21,-171.769C1197.71,-165.769 1237.06,-158.274 1266.94,-152.583"/>
<polygon fill="midnightblue" stroke="midnightblue" points="1165.45,-168.351 1156.28,-173.661 1166.76,-175.228 1165.45,-168.351"/>
</g>
<!-- Node77&#45;&gt;Node74 -->
<g id="edge32" class="edge"><title>Node77&#45;&gt;Node74</title>
<path fill="none" stroke="midnightblue" d="M1369.23,-193.972C1377.27,-196.093 1385.39,-198.448 1393,-201 1414.61,-208.248 1438.11,-218.498 1456.2,-226.936"/>
<polygon fill="midnightblue" stroke="midnightblue" points="1370.06,-190.572 1359.51,-191.504 1368.34,-197.357 1370.06,-190.572"/>
</g>
<!-- Node78 -->
<g id="node33" class="node"><title>Node78</title>
<g id="a_node33"><a xlink:href="class_wallet_view.html#ae76bd29c36d1cfa9bc986924a0454eeb" target="_top" xlink:title="Lock wallet. ">
<polygon fill="white" stroke="black" points="1429,-172.5 1429,-191.5 1547,-191.5 1547,-172.5 1429,-172.5"/>
<text text-anchor="middle" x="1488" y="-179.5" font-family="Helvetica,sans-Serif" font-size="10.00">WalletView::lockWallet</text>
</a>
</g>
</g>
<!-- Node77&#45;&gt;Node78 -->
<g id="edge33" class="edge"><title>Node77&#45;&gt;Node78</title>
<path fill="none" stroke="midnightblue" d="M1397.7,-182C1408.25,-182 1418.86,-182 1428.9,-182"/>
<polygon fill="midnightblue" stroke="midnightblue" points="1397.62,-178.5 1387.62,-182 1397.62,-185.5 1397.62,-178.5"/>
</g>
<!-- Node79 -->
<g id="node34" class="node"><title>Node79</title>
<g id="a_node34"><a xlink:href="class_wallet_frame.html#a0b94aa3ff7ae9ea4d3e31b038d8b9b25" target="_top" xlink:title="Lock wallet. ">
<polygon fill="white" stroke="black" points="1583,-172.5 1583,-191.5 1707,-191.5 1707,-172.5 1583,-172.5"/>
<text text-anchor="middle" x="1645" y="-179.5" font-family="Helvetica,sans-Serif" font-size="10.00">WalletFrame::lockWallet</text>
</a>
</g>
</g>
<!-- Node78&#45;&gt;Node79 -->
<g id="edge34" class="edge"><title>Node78&#45;&gt;Node79</title>
<path fill="none" stroke="midnightblue" d="M1557.42,-182C1565.91,-182 1574.55,-182 1582.93,-182"/>
<polygon fill="midnightblue" stroke="midnightblue" points="1557.16,-178.5 1547.16,-182 1557.16,-185.5 1557.16,-178.5"/>
</g>
<!-- Node82&#45;&gt;Node62 -->
<g id="edge38" class="edge"><title>Node82&#45;&gt;Node62</title>
<path fill="none" stroke="midnightblue" d="M805.653,-113.018C835.706,-108.656 868.264,-103.929 890.168,-100.75"/>
<polygon fill="midnightblue" stroke="midnightblue" points="804.97,-109.58 795.577,-114.481 805.976,-116.508 804.97,-109.58"/>
</g>
<!-- Node83&#45;&gt;Node52 -->
<g id="edge42" class="edge"><title>Node83&#45;&gt;Node52</title>
<path fill="none" stroke="midnightblue" d="M267.043,-139.536C274.339,-142.022 281.576,-145.128 288,-149 307.925,-161.01 304.538,-174.254 324,-187 329.757,-190.771 336.359,-193.911 342.895,-196.481"/>
<polygon fill="midnightblue" stroke="midnightblue" points="267.716,-136.082 257.13,-136.518 265.677,-142.779 267.716,-136.082"/>
</g>
<!-- Node83&#45;&gt;Node61 -->
<g id="edge43" class="edge"><title>Node83&#45;&gt;Node61</title>
<path fill="none" stroke="midnightblue" d="M267.168,-123.369C292.345,-119.83 322.648,-115.57 344.959,-112.434"/>
<polygon fill="midnightblue" stroke="midnightblue" points="266.504,-119.928 257.088,-124.786 267.478,-126.86 266.504,-119.928"/>
</g>
<!-- Node83&#45;&gt;Node68 -->
<g id="edge44" class="edge"><title>Node83&#45;&gt;Node68</title>
<path fill="none" stroke="midnightblue" d="M267.057,-141.426C289.451,-146.864 315.921,-153.291 337.218,-158.462"/>
<polygon fill="midnightblue" stroke="midnightblue" points="267.632,-137.964 257.088,-139.005 265.98,-144.766 267.632,-137.964"/>
</g>
<!-- Node84 -->
<g id="node39" class="node"><title>Node84</title>
<g id="a_node39"><a xlink:href="class_c_key.html#a57d5b254748cef054c40f99c1c339147" target="_top" xlink:title="Destructor (again necessary because of memlocking). ">
<polygon fill="white" stroke="black" points="338.5,-60.5 338.5,-79.5 416.5,-79.5 416.5,-60.5 338.5,-60.5"/>
<text text-anchor="middle" x="377.5" y="-67.5" font-family="Helvetica,sans-Serif" font-size="10.00">CKey::~CKey</text>
</a>
</g>
</g>
<!-- Node83&#45;&gt;Node84 -->
<g id="edge45" class="edge"><title>Node83&#45;&gt;Node84</title>
<path fill="none" stroke="midnightblue" d="M267.003,-118.704C274.152,-116.462 281.355,-113.892 288,-111 305.193,-103.517 307.098,-97.1205 324,-89 331.252,-85.5158 339.32,-82.2937 346.913,-79.5299"/>
<polygon fill="midnightblue" stroke="midnightblue" points="265.945,-115.367 257.347,-121.557 267.928,-122.08 265.945,-115.367"/>
</g>
</g>
</svg>
        <g id="navigator" transform="translate(0 0)" fill="#404254">
                <rect fill="#f2f5e9" fill-opacity="0.5" stroke="#606060" stroke-width=".5" x="0" y="0" width="60" height="60"/>
                <use id="zoomplus" xlink:href="#zoomPlus" x="17" y="9" onmousedown="handleZoom(evt,'in')"/>
                <use id="zoomminus" xlink:href="#zoomMin" x="42" y="9" onmousedown="handleZoom(evt,'out')"/>
                <use id="reset" xlink:href="#resetDef" x="30" y="36" onmousedown="handleReset()"/>
                <g id="arrowUp" xlink:href="#dirArrow" transform="translate(30 24)" onmousedown="handlePan(0,-1)">
                  <use xlink:href="#rim" fill="#404040">
                        <set attributeName="fill" to="#808080" begin="arrowUp.mouseover" end="arrowUp.mouseout"/>
                  </use>
                  <path fill="none" stroke="white" stroke-width="1.5" d="M0,-3.0v7 M-2.5,-0.5L0,-3.0L2.5,-0.5"/>
                </g>
                <g id="arrowRight" xlink:href="#dirArrow" transform="rotate(90) translate(36 -43)" onmousedown="handlePan(1,0)">
                  <use xlink:href="#rim" fill="#404040">
                        <set attributeName="fill" to="#808080" begin="arrowRight.mouseover" end="arrowRight.mouseout"/>
                  </use>
                  <path fill="none" stroke="white" stroke-width="1.5" d="M0,-3.0v7 M-2.5,-0.5L0,-3.0L2.5,-0.5"/>
                </g>
                <g id="arrowDown" xlink:href="#dirArrow" transform="rotate(180) translate(-30 -48)" onmousedown="handlePan(0,1)">
                  <use xlink:href="#rim" fill="#404040">
                        <set attributeName="fill" to="#808080" begin="arrowDown.mouseover" end="arrowDown.mouseout"/>
                  </use>
                  <path fill="none" stroke="white" stroke-width="1.5" d="M0,-3.0v7 M-2.5,-0.5L0,-3.0L2.5,-0.5"/>
                </g>
                <g id="arrowLeft" xlink:href="#dirArrow" transform="rotate(270) translate(-36 17)" onmousedown="handlePan(-1,0)">
                  <use xlink:href="#rim" fill="#404040">
                        <set attributeName="fill" to="#808080" begin="arrowLeft.mouseover" end="arrowLeft.mouseout"/>
                  </use>
                  <path fill="none" stroke="white" stroke-width="1.5" d="M0,-3.0v7 M-2.5,-0.5L0,-3.0L2.5,-0.5"/>
                </g>
        </g>
        <svg viewBox="0 0 15 15" width="100%" height="30px" preserveAspectRatio="xMaxYMin meet">
         <g id="arrow_out" transform="scale(0.3 0.3)">
          <a xlink:href="class_locked_page_manager_ac9b1d42d240dba4714a35fff970b6dde_icgraph_org.svg" target="_base">
           <rect id="button" ry="5" rx="5" y="6" x="6" height="38" width="38"
                fill="#f2f5e9" fill-opacity="0.5" stroke="#606060" stroke-width="1.0"/>
           <path id="arrow"
             d="M 11.500037,31.436501 C 11.940474,20.09759 22.043105,11.32322 32.158766,21.979434 L 37.068811,17.246167 C 37.068811,17.246167 37.088388,32 37.088388,32 L 22.160133,31.978069 C 22.160133,31.978069 26.997745,27.140456 26.997745,27.140456 C 18.528582,18.264221 13.291696,25.230495 11.500037,31.436501 z"
             style="fill:#404040;"/>
          </a>
         </g>
        </svg>
</svg>
