<?xml version="1.0" encoding="UTF-8" standalone="no"?>
<!DOCTYPE svg PUBLIC "-//W3C//DTD SVG 1.1//EN"
 "http://www.w3.org/Graphics/SVG/1.1/DTD/svg11.dtd">
<!-- Generated by graphviz version 2.38.0 (20140413.2041)
 -->
<!-- Title: CPrivateSendClient::ResetPool Pages: 1 -->
<!--zoomable 78 -->
<svg id="main" version="1.1" xmlns="http://www.w3.org/2000/svg" xmlns:xlink="http://www.w3.org/1999/xlink" xml:space="preserve" onload="init(evt)">
<style type="text/css"><![CDATA[
.edge:hover path { stroke: red; }
.edge:hover polygon { stroke: red; fill: red; }
]]></style>
<script type="text/javascript"><![CDATA[
var edges = document.getElementsByTagName('g');
if (edges && edges.length) {
  for (var i=0;i<edges.length;i++) {
    if (edges[i].id.substr(0,4)=='edge') {
      edges[i].setAttribute('class','edge');
    }
  }
}
]]></script>
        <defs>
                <circle id="rim" cx="0" cy="0" r="7"/>
                <circle id="rim2" cx="0" cy="0" r="3.5"/>
                <g id="zoomPlus">
                        <use xlink:href="#rim" fill="#404040">
                                <set attributeName="fill" to="#808080" begin="zoomplus.mouseover" end="zoomplus.mouseout"/>
                        </use>
                        <path d="M-4,0h8M0,-4v8" fill="none" stroke="white" stroke-width="1.5" pointer-events="none"/>
                </g>
                <g id="zoomMin">
                        <use xlink:href="#rim" fill="#404040">
                                <set attributeName="fill" to="#808080" begin="zoomminus.mouseover" end="zoomminus.mouseout"/>
                        </use>
                        <path d="M-4,0h8" fill="none" stroke="white" stroke-width="1.5" pointer-events="none"/>
                </g>
                <g id="dirArrow">
                        <path fill="none" stroke="white" stroke-width="1.5" d="M0,-3.0v7 M-2.5,-0.5L0,-3.0L2.5,-0.5"/>
                </g>
               <g id="resetDef">
                       <use xlink:href="#rim2" fill="#404040">
                               <set attributeName="fill" to="#808080" begin="reset.mouseover" end="reset.mouseout"/>
                       </use>
               </g>
        </defs>

<script type="text/javascript">
var viewWidth = 809;
var viewHeight = 78;
var sectionId = 'dynsection-36';
</script>
<script xlink:href="svgpan.js"/>
<svg id="graph" class="graph">
<g id="viewport">
<title>CPrivateSendClient::ResetPool</title>
<polygon fill="white" stroke="none" points="-4,4 -4,-73.5 805,-73.5 805,4 -4,4"/>
<!-- Node2503 -->
<g id="node1" class="node"><title>Node2503</title>
<polygon fill="#bfbfbf" stroke="black" points="0,-22.5 0,-52.5 103,-52.5 103,-22.5 0,-22.5"/>
<text text-anchor="start" x="8" y="-40.5" font-family="Helvetica,sans-Serif" font-size="10.00">CPrivateSendClient</text>
<text text-anchor="middle" x="51.5" y="-29.5" font-family="Helvetica,sans-Serif" font-size="10.00">::ResetPool</text>
</g>
<!-- Node2504 -->
<g id="node2" class="node"><title>Node2504</title>
<g id="a_node2"><a xlink:href="server_8h.html#a6f0f20fd2a24851d47a6120eeca7d3e4" target="_top" xlink:title="privatesend">
<polygon fill="white" stroke="black" points="174.5,-50 174.5,-69 241.5,-69 241.5,-50 174.5,-50"/>
<text text-anchor="middle" x="208" y="-57" font-family="Helvetica,sans-Serif" font-size="10.00">privatesend</text>
</a>
</g>
</g>
<!-- Node2503&#45;&gt;Node2504 -->
<g id="edge1" class="edge"><title>Node2503&#45;&gt;Node2504</title>
<path fill="none" stroke="midnightblue" d="M113.157,-46.1373C134.002,-49.1054 156.537,-52.3144 174.299,-54.8436"/>
<polygon fill="midnightblue" stroke="midnightblue" points="113.483,-42.6484 103.089,-44.7036 112.496,-49.5785 113.483,-42.6484"/>
</g>
<!-- Node2505 -->
<g id="node3" class="node"><title>Node2505</title>
<g id="a_node3"><a xlink:href="class_overview_page.html#a5886f0785375a7fc30b9802a4f2c7665" target="_top" xlink:title="OverviewPage::privateSend\lReset">
<polygon fill="white" stroke="black" points="139,-0.5 139,-30.5 277,-30.5 277,-0.5 139,-0.5"/>
<text text-anchor="start" x="147" y="-18.5" font-family="Helvetica,sans-Serif" font-size="10.00">OverviewPage::privateSend</text>
<text text-anchor="middle" x="208" y="-7.5" font-family="Helvetica,sans-Serif" font-size="10.00">Reset</text>
</a>
</g>
</g>
<!-- Node2503&#45;&gt;Node2505 -->
<g id="edge2" class="edge"><title>Node2503&#45;&gt;Node2505</title>
<path fill="none" stroke="midnightblue" d="M113.204,-28.856C121.633,-27.6558 130.337,-26.4164 138.89,-25.1985"/>
<polygon fill="midnightblue" stroke="midnightblue" points="112.496,-25.4215 103.089,-30.2964 113.483,-32.3516 112.496,-25.4215"/>
</g>
<!-- Node2506 -->
<g id="node4" class="node"><title>Node2506</title>
<g id="a_node4"><a xlink:href="class_overview_page.html#a2ed52a3a87e9c74fee38fa873c9bc71f" target="_top" xlink:title="OverviewPage::setWalletModel">
<polygon fill="white" stroke="black" points="313,-6 313,-25 467,-25 467,-6 313,-6"/>
<text text-anchor="middle" x="390" y="-13" font-family="Helvetica,sans-Serif" font-size="10.00">OverviewPage::setWalletModel</text>
</a>
</g>
</g>
<!-- Node2505&#45;&gt;Node2506 -->
<g id="edge3" class="edge"><title>Node2505&#45;&gt;Node2506</title>
<path fill="none" stroke="midnightblue" d="M287.262,-15.5C295.707,-15.5 304.293,-15.5 312.715,-15.5"/>
<polygon fill="midnightblue" stroke="midnightblue" points="287.05,-12.0001 277.05,-15.5 287.05,-19.0001 287.05,-12.0001"/>
</g>
<!-- Node2507 -->
<g id="node5" class="node"><title>Node2507</title>
<g id="a_node5"><a xlink:href="class_wallet_view.html#a0a37ff693a4f9c1e5ddc23f9cd3913be" target="_top" xlink:title="Set the wallet model. ">
<polygon fill="white" stroke="black" points="503,-6 503,-25 643,-25 643,-6 503,-6"/>
<text text-anchor="middle" x="573" y="-13" font-family="Helvetica,sans-Serif" font-size="10.00">WalletView::setWalletModel</text>
</a>
</g>
</g>
<!-- Node2506&#45;&gt;Node2507 -->
<g id="edge4" class="edge"><title>Node2506&#45;&gt;Node2507</title>
<path fill="none" stroke="midnightblue" d="M477.241,-15.5C485.8,-15.5 494.409,-15.5 502.763,-15.5"/>
<polygon fill="midnightblue" stroke="midnightblue" points="477.236,-12.0001 467.236,-15.5 477.236,-19.0001 477.236,-12.0001"/>
</g>
<!-- Node2508 -->
<g id="node6" class="node"><title>Node2508</title>
<g id="a_node6"><a xlink:href="class_wallet_frame.html#aa199c3f27654199d84c365cf86167d86" target="_top" xlink:title="WalletFrame::addWallet">
<polygon fill="white" stroke="black" points="679,-6 679,-25 801,-25 801,-6 679,-6"/>
<text text-anchor="middle" x="740" y="-13" font-family="Helvetica,sans-Serif" font-size="10.00">WalletFrame::addWallet</text>
</a>
</g>
</g>
<!-- Node2507&#45;&gt;Node2508 -->
<g id="edge5" class="edge"><title>Node2507&#45;&gt;Node2508</title>
<path fill="none" stroke="midnightblue" d="M653.146,-15.5C661.813,-15.5 670.528,-15.5 678.91,-15.5"/>
<polygon fill="midnightblue" stroke="midnightblue" points="653.019,-12.0001 643.019,-15.5 653.019,-19.0001 653.019,-12.0001"/>
</g>
</g>
</svg>
        <g id="navigator" transform="translate(0 0)" fill="#404254">
                <rect fill="#f2f5e9" fill-opacity="0.5" stroke="#606060" stroke-width=".5" x="0" y="0" width="60" height="60"/>
                <use id="zoomplus" xlink:href="#zoomPlus" x="17" y="9" onmousedown="handleZoom(evt,'in')"/>
                <use id="zoomminus" xlink:href="#zoomMin" x="42" y="9" onmousedown="handleZoom(evt,'out')"/>
                <use id="reset" xlink:href="#resetDef" x="30" y="36" onmousedown="handleReset()"/>
                <g id="arrowUp" xlink:href="#dirArrow" transform="translate(30 24)" onmousedown="handlePan(0,-1)">
                  <use xlink:href="#rim" fill="#404040">
                        <set attributeName="fill" to="#808080" begin="arrowUp.mouseover" end="arrowUp.mouseout"/>
                  </use>
                  <path fill="none" stroke="white" stroke-width="1.5" d="M0,-3.0v7 M-2.5,-0.5L0,-3.0L2.5,-0.5"/>
                </g>
                <g id="arrowRight" xlink:href="#dirArrow" transform="rotate(90) translate(36 -43)" onmousedown="handlePan(1,0)">
                  <use xlink:href="#rim" fill="#404040">
                        <set attributeName="fill" to="#808080" begin="arrowRight.mouseover" end="arrowRight.mouseout"/>
                  </use>
                  <path fill="none" stroke="white" stroke-width="1.5" d="M0,-3.0v7 M-2.5,-0.5L0,-3.0L2.5,-0.5"/>
                </g>
                <g id="arrowDown" xlink:href="#dirArrow" transform="rotate(180) translate(-30 -48)" onmousedown="handlePan(0,1)">
                  <use xlink:href="#rim" fill="#404040">
                        <set attributeName="fill" to="#808080" begin="arrowDown.mouseover" end="arrowDown.mouseout"/>
                  </use>
                  <path fill="none" stroke="white" stroke-width="1.5" d="M0,-3.0v7 M-2.5,-0.5L0,-3.0L2.5,-0.5"/>
                </g>
                <g id="arrowLeft" xlink:href="#dirArrow" transform="rotate(270) translate(-36 17)" onmousedown="handlePan(-1,0)">
                  <use xlink:href="#rim" fill="#404040">
                        <set attributeName="fill" to="#808080" begin="arrowLeft.mouseover" end="arrowLeft.mouseout"/>
                  </use>
                  <path fill="none" stroke="white" stroke-width="1.5" d="M0,-3.0v7 M-2.5,-0.5L0,-3.0L2.5,-0.5"/>
                </g>
        </g>
        <svg viewBox="0 0 15 15" width="100%" height="30px" preserveAspectRatio="xMaxYMin meet">
         <g id="arrow_out" transform="scale(0.3 0.3)">
          <a xlink:href="class_c_private_send_client_ac311fe13f1289e5df9a4420d58d06d09_icgraph_org.svg" target="_base">
           <rect id="button" ry="5" rx="5" y="6" x="6" height="38" width="38"
                fill="#f2f5e9" fill-opacity="0.5" stroke="#606060" stroke-width="1.0"/>
           <path id="arrow"
             d="M 11.500037,31.436501 C 11.940474,20.09759 22.043105,11.32322 32.158766,21.979434 L 37.068811,17.246167 C 37.068811,17.246167 37.088388,32 37.088388,32 L 22.160133,31.978069 C 22.160133,31.978069 26.997745,27.140456 26.997745,27.140456 C 18.528582,18.264221 13.291696,25.230495 11.500037,31.436501 z"
             style="fill:#404040;"/>
          </a>
         </g>
        </svg>
</svg>
