<?xml version="1.0" encoding="UTF-8" standalone="no"?>
<!DOCTYPE svg PUBLIC "-//W3C//DTD SVG 1.1//EN"
 "http://www.w3.org/Graphics/SVG/1.1/DTD/svg11.dtd">
<!-- Generated by graphviz version 2.38.0 (20140413.2041)
 -->
<!-- Title: CBlockIndex::BuildSkip Pages: 1 -->
<svg width="371pt" height="28pt"
 viewBox="0.00 0.00 371.00 28.00" xmlns="http://www.w3.org/2000/svg" xmlns:xlink="http://www.w3.org/1999/xlink">
<g id="graph0" class="graph" transform="scale(1 1) rotate(0) translate(4 24)">
<title>CBlockIndex::BuildSkip</title>
<polygon fill="white" stroke="none" points="-4,4 -4,-24 367,-24 367,4 -4,4"/>
<!-- Node6 -->
<g id="node1" class="node"><title>Node6</title>
<polygon fill="#bfbfbf" stroke="black" points="0,-0.5 0,-19.5 120,-19.5 120,-0.5 0,-0.5"/>
<text text-anchor="middle" x="60" y="-7.5" font-family="Helvetica,sans-Serif" font-size="10.00">CBlockIndex::BuildSkip</text>
</g>
<!-- Node7 -->
<g id="node2" class="node"><title>Node7</title>
<g id="a_node2"><a xlink:href="chain_8cpp.html#ad168714f025f6299a1c80626b6a5bb5a" target="_top" xlink:title="Compute what height to jump back to with the CBlockIndex::pskip pointer. ">
<polygon fill="white" stroke="black" points="156,-0.5 156,-19.5 236,-19.5 236,-0.5 156,-0.5"/>
<text text-anchor="middle" x="196" y="-7.5" font-family="Helvetica,sans-Serif" font-size="10.00">GetSkipHeight</text>
</a>
</g>
</g>
<!-- Node6&#45;&gt;Node7 -->
<g id="edge1" class="edge"><title>Node6&#45;&gt;Node7</title>
<path fill="none" stroke="midnightblue" d="M120.164,-10C128.643,-10 137.292,-10 145.557,-10"/>
<polygon fill="midnightblue" stroke="midnightblue" points="145.78,-13.5001 155.78,-10 145.78,-6.5001 145.78,-13.5001"/>
</g>
<!-- Node8 -->
<g id="node3" class="node"><title>Node8</title>
<g id="a_node3"><a xlink:href="chain_8cpp.html#ae4573d0178546d3f9c518c39ae45fe69" target="_top" xlink:title="Turn the lowest &#39;1&#39; bit in the binary representation of a number into a &#39;0&#39;. ">
<polygon fill="white" stroke="black" points="272,-0.5 272,-19.5 363,-19.5 363,-0.5 272,-0.5"/>
<text text-anchor="middle" x="317.5" y="-7.5" font-family="Helvetica,sans-Serif" font-size="10.00">InvertLowestOne</text>
</a>
</g>
</g>
<!-- Node7&#45;&gt;Node8 -->
<g id="edge2" class="edge"><title>Node7&#45;&gt;Node8</title>
<path fill="none" stroke="midnightblue" d="M236.129,-10C244.348,-10 253.161,-10 261.83,-10"/>
<polygon fill="midnightblue" stroke="midnightblue" points="261.896,-13.5001 271.896,-10 261.896,-6.5001 261.896,-13.5001"/>
</g>
</g>
</svg>
