<?xml version="1.0" encoding="UTF-8" standalone="no"?>
<!DOCTYPE svg PUBLIC "-//W3C//DTD SVG 1.1//EN"
 "http://www.w3.org/Graphics/SVG/1.1/DTD/svg11.dtd">
<!-- Generated by graphviz version 2.38.0 (20140413.2041)
 -->
<!-- Title: CPrivateSendClient::IsMixingMasternode Pages: 1 -->
<!--zoomable 66 -->
<svg id="main" version="1.1" xmlns="http://www.w3.org/2000/svg" xmlns:xlink="http://www.w3.org/1999/xlink" xml:space="preserve" onload="init(evt)">
<style type="text/css"><![CDATA[
.edge:hover path { stroke: red; }
.edge:hover polygon { stroke: red; fill: red; }
]]></style>
<script type="text/javascript"><![CDATA[
var edges = document.getElementsByTagName('g');
if (edges && edges.length) {
  for (var i=0;i<edges.length;i++) {
    if (edges[i].id.substr(0,4)=='edge') {
      edges[i].setAttribute('class','edge');
    }
  }
}
]]></script>
        <defs>
                <circle id="rim" cx="0" cy="0" r="7"/>
                <circle id="rim2" cx="0" cy="0" r="3.5"/>
                <g id="zoomPlus">
                        <use xlink:href="#rim" fill="#404040">
                                <set attributeName="fill" to="#808080" begin="zoomplus.mouseover" end="zoomplus.mouseout"/>
                        </use>
                        <path d="M-4,0h8M0,-4v8" fill="none" stroke="white" stroke-width="1.5" pointer-events="none"/>
                </g>
                <g id="zoomMin">
                        <use xlink:href="#rim" fill="#404040">
                                <set attributeName="fill" to="#808080" begin="zoomminus.mouseover" end="zoomminus.mouseout"/>
                        </use>
                        <path d="M-4,0h8" fill="none" stroke="white" stroke-width="1.5" pointer-events="none"/>
                </g>
                <g id="dirArrow">
                        <path fill="none" stroke="white" stroke-width="1.5" d="M0,-3.0v7 M-2.5,-0.5L0,-3.0L2.5,-0.5"/>
                </g>
               <g id="resetDef">
                       <use xlink:href="#rim2" fill="#404040">
                               <set attributeName="fill" to="#808080" begin="reset.mouseover" end="reset.mouseout"/>
                       </use>
               </g>
        </defs>

<script type="text/javascript">
var viewWidth = 813;
var viewHeight = 66;
var sectionId = 'dynsection-23';
</script>
<script xlink:href="svgpan.js"/>
<svg id="graph" class="graph">
<g id="viewport">
<title>CPrivateSendClient::IsMixingMasternode</title>
<polygon fill="white" stroke="none" points="-4,4 -4,-62 809,-62 809,4 -4,4"/>
<!-- Node1251 -->
<g id="node1" class="node"><title>Node1251</title>
<polygon fill="#bfbfbf" stroke="black" points="0,-14 0,-44 110,-44 110,-14 0,-14"/>
<text text-anchor="start" x="8" y="-32" font-family="Helvetica,sans-Serif" font-size="10.00">CPrivateSendClient</text>
<text text-anchor="middle" x="55" y="-21" font-family="Helvetica,sans-Serif" font-size="10.00">::IsMixingMasternode</text>
</g>
<!-- Node1252 -->
<g id="node2" class="node"><title>Node1252</title>
<g id="a_node2"><a xlink:href="class_c_masternode_man.html#a87209f48f4f8e137f87fe0c007294c05" target="_top" xlink:title="CMasternodeMan::ProcessMasternode\lConnections">
<polygon fill="white" stroke="black" points="146,-14 146,-44 333,-44 333,-14 146,-14"/>
<text text-anchor="start" x="154" y="-32" font-family="Helvetica,sans-Serif" font-size="10.00">CMasternodeMan::ProcessMasternode</text>
<text text-anchor="middle" x="239.5" y="-21" font-family="Helvetica,sans-Serif" font-size="10.00">Connections</text>
</a>
</g>
</g>
<!-- Node1251&#45;&gt;Node1252 -->
<g id="edge1" class="edge"><title>Node1251&#45;&gt;Node1252</title>
<path fill="none" stroke="midnightblue" d="M120.49,-29C128.718,-29 137.264,-29 145.827,-29"/>
<polygon fill="midnightblue" stroke="midnightblue" points="120.262,-25.5001 110.262,-29 120.262,-32.5001 120.262,-25.5001"/>
</g>
<!-- Node1253 -->
<g id="node3" class="node"><title>Node1253</title>
<g id="a_node3"><a xlink:href="privatesend_8h.html#a8ca12ada145ba86ddcba18018b77db14" target="_top" xlink:title="ThreadCheckPrivateSend">
<polygon fill="white" stroke="black" points="369,-19.5 369,-38.5 497,-38.5 497,-19.5 369,-19.5"/>
<text text-anchor="middle" x="433" y="-26.5" font-family="Helvetica,sans-Serif" font-size="10.00">ThreadCheckPrivateSend</text>
</a>
</g>
</g>
<!-- Node1252&#45;&gt;Node1253 -->
<g id="edge2" class="edge"><title>Node1252&#45;&gt;Node1253</title>
<path fill="none" stroke="midnightblue" d="M343.393,-29C352.091,-29 360.709,-29 368.958,-29"/>
<polygon fill="midnightblue" stroke="midnightblue" points="343.165,-25.5001 333.165,-29 343.165,-32.5001 343.165,-25.5001"/>
</g>
<!-- Node1254 -->
<g id="node4" class="node"><title>Node1254</title>
<g id="a_node4"><a xlink:href="init_8h.html#a6f0784aa332573f949b0975205572b28" target="_top" xlink:title="Initialize Dash Core. ">
<polygon fill="white" stroke="black" points="533,-19.5 533,-38.5 586,-38.5 586,-19.5 533,-19.5"/>
<text text-anchor="middle" x="559.5" y="-26.5" font-family="Helvetica,sans-Serif" font-size="10.00">AppInit2</text>
</a>
</g>
</g>
<!-- Node1253&#45;&gt;Node1254 -->
<g id="edge3" class="edge"><title>Node1253&#45;&gt;Node1254</title>
<path fill="none" stroke="midnightblue" d="M507.345,-29C516.478,-29 525.282,-29 532.936,-29"/>
<polygon fill="midnightblue" stroke="midnightblue" points="507.344,-25.5001 497.344,-29 507.344,-32.5001 507.344,-25.5001"/>
</g>
<!-- Node1255 -->
<g id="node5" class="node"><title>Node1255</title>
<g id="a_node5"><a xlink:href="dashd_8cpp.html#ac59316b767e6984e1285f0531275286b" target="_top" xlink:title="AppInit">
<polygon fill="white" stroke="black" points="653,-38.5 653,-57.5 700,-57.5 700,-38.5 653,-38.5"/>
<text text-anchor="middle" x="676.5" y="-45.5" font-family="Helvetica,sans-Serif" font-size="10.00">AppInit</text>
</a>
</g>
</g>
<!-- Node1254&#45;&gt;Node1255 -->
<g id="edge4" class="edge"><title>Node1254&#45;&gt;Node1255</title>
<path fill="none" stroke="midnightblue" d="M596.14,-34.8884C614.614,-37.9406 636.626,-41.5773 652.775,-44.2455"/>
<polygon fill="midnightblue" stroke="midnightblue" points="596.459,-31.3937 586.022,-33.2167 595.318,-38.3001 596.459,-31.3937"/>
</g>
<!-- Node1257 -->
<g id="node7" class="node"><title>Node1257</title>
<g id="a_node7"><a xlink:href="class_bitcoin_core.html#af34ca069cda1d4362dcc109b4397fb62" target="_top" xlink:title="BitcoinCore::initialize">
<polygon fill="white" stroke="black" points="622,-0.5 622,-19.5 731,-19.5 731,-0.5 622,-0.5"/>
<text text-anchor="middle" x="676.5" y="-7.5" font-family="Helvetica,sans-Serif" font-size="10.00">BitcoinCore::initialize</text>
</a>
</g>
</g>
<!-- Node1254&#45;&gt;Node1257 -->
<g id="edge6" class="edge"><title>Node1254&#45;&gt;Node1257</title>
<path fill="none" stroke="midnightblue" d="M595.951,-23.1429C604.134,-21.7909 613.02,-20.3228 621.788,-18.8742"/>
<polygon fill="midnightblue" stroke="midnightblue" points="595.318,-19.6999 586.022,-24.7833 596.459,-26.6063 595.318,-19.6999"/>
</g>
<!-- Node1256 -->
<g id="node6" class="node"><title>Node1256</title>
<g id="a_node6"><a xlink:href="dashd_8cpp.html#a0ddf1224851353fc92bfbff6f499fa97" target="_top" xlink:title="main">
<polygon fill="white" stroke="black" points="767,-38.5 767,-57.5 805,-57.5 805,-38.5 767,-38.5"/>
<text text-anchor="middle" x="786" y="-45.5" font-family="Helvetica,sans-Serif" font-size="10.00">main</text>
</a>
</g>
</g>
<!-- Node1255&#45;&gt;Node1256 -->
<g id="edge5" class="edge"><title>Node1255&#45;&gt;Node1256</title>
<path fill="none" stroke="midnightblue" d="M710.151,-48C728.729,-48 751.304,-48 766.773,-48"/>
<polygon fill="midnightblue" stroke="midnightblue" points="710.036,-44.5001 700.036,-48 710.035,-51.5001 710.036,-44.5001"/>
</g>
</g>
</svg>
        <g id="navigator" transform="translate(0 0)" fill="#404254">
                <rect fill="#f2f5e9" fill-opacity="0.5" stroke="#606060" stroke-width=".5" x="0" y="0" width="60" height="60"/>
                <use id="zoomplus" xlink:href="#zoomPlus" x="17" y="9" onmousedown="handleZoom(evt,'in')"/>
                <use id="zoomminus" xlink:href="#zoomMin" x="42" y="9" onmousedown="handleZoom(evt,'out')"/>
                <use id="reset" xlink:href="#resetDef" x="30" y="36" onmousedown="handleReset()"/>
                <g id="arrowUp" xlink:href="#dirArrow" transform="translate(30 24)" onmousedown="handlePan(0,-1)">
                  <use xlink:href="#rim" fill="#404040">
                        <set attributeName="fill" to="#808080" begin="arrowUp.mouseover" end="arrowUp.mouseout"/>
                  </use>
                  <path fill="none" stroke="white" stroke-width="1.5" d="M0,-3.0v7 M-2.5,-0.5L0,-3.0L2.5,-0.5"/>
                </g>
                <g id="arrowRight" xlink:href="#dirArrow" transform="rotate(90) translate(36 -43)" onmousedown="handlePan(1,0)">
                  <use xlink:href="#rim" fill="#404040">
                        <set attributeName="fill" to="#808080" begin="arrowRight.mouseover" end="arrowRight.mouseout"/>
                  </use>
                  <path fill="none" stroke="white" stroke-width="1.5" d="M0,-3.0v7 M-2.5,-0.5L0,-3.0L2.5,-0.5"/>
                </g>
                <g id="arrowDown" xlink:href="#dirArrow" transform="rotate(180) translate(-30 -48)" onmousedown="handlePan(0,1)">
                  <use xlink:href="#rim" fill="#404040">
                        <set attributeName="fill" to="#808080" begin="arrowDown.mouseover" end="arrowDown.mouseout"/>
                  </use>
                  <path fill="none" stroke="white" stroke-width="1.5" d="M0,-3.0v7 M-2.5,-0.5L0,-3.0L2.5,-0.5"/>
                </g>
                <g id="arrowLeft" xlink:href="#dirArrow" transform="rotate(270) translate(-36 17)" onmousedown="handlePan(-1,0)">
                  <use xlink:href="#rim" fill="#404040">
                        <set attributeName="fill" to="#808080" begin="arrowLeft.mouseover" end="arrowLeft.mouseout"/>
                  </use>
                  <path fill="none" stroke="white" stroke-width="1.5" d="M0,-3.0v7 M-2.5,-0.5L0,-3.0L2.5,-0.5"/>
                </g>
        </g>
        <svg viewBox="0 0 15 15" width="100%" height="30px" preserveAspectRatio="xMaxYMin meet">
         <g id="arrow_out" transform="scale(0.3 0.3)">
          <a xlink:href="class_c_private_send_client_a8343b61f5df92c7d9080273f44174685_icgraph_org.svg" target="_base">
           <rect id="button" ry="5" rx="5" y="6" x="6" height="38" width="38"
                fill="#f2f5e9" fill-opacity="0.5" stroke="#606060" stroke-width="1.0"/>
           <path id="arrow"
             d="M 11.500037,31.436501 C 11.940474,20.09759 22.043105,11.32322 32.158766,21.979434 L 37.068811,17.246167 C 37.068811,17.246167 37.088388,32 37.088388,32 L 22.160133,31.978069 C 22.160133,31.978069 26.997745,27.140456 26.997745,27.140456 C 18.528582,18.264221 13.291696,25.230495 11.500037,31.436501 z"
             style="fill:#404040;"/>
          </a>
         </g>
        </svg>
</svg>
