<?xml version="1.0" encoding="UTF-8" standalone="no"?>
<!DOCTYPE svg PUBLIC "-//W3C//DTD SVG 1.1//EN"
 "http://www.w3.org/Graphics/SVG/1.1/DTD/svg11.dtd">
<!-- Generated by graphviz version 2.38.0 (20140413.2041)
 -->
<!-- Title: CPrivateSendClient::CompletedTransaction Pages: 1 -->
<!--zoomable 251 -->
<svg id="main" version="1.1" xmlns="http://www.w3.org/2000/svg" xmlns:xlink="http://www.w3.org/1999/xlink" xml:space="preserve" onload="init(evt)">
<style type="text/css"><![CDATA[
.edge:hover path { stroke: red; }
.edge:hover polygon { stroke: red; fill: red; }
]]></style>
<script type="text/javascript"><![CDATA[
var edges = document.getElementsByTagName('g');
if (edges && edges.length) {
  for (var i=0;i<edges.length;i++) {
    if (edges[i].id.substr(0,4)=='edge') {
      edges[i].setAttribute('class','edge');
    }
  }
}
]]></script>
        <defs>
                <circle id="rim" cx="0" cy="0" r="7"/>
                <circle id="rim2" cx="0" cy="0" r="3.5"/>
                <g id="zoomPlus">
                        <use xlink:href="#rim" fill="#404040">
                                <set attributeName="fill" to="#808080" begin="zoomplus.mouseover" end="zoomplus.mouseout"/>
                        </use>
                        <path d="M-4,0h8M0,-4v8" fill="none" stroke="white" stroke-width="1.5" pointer-events="none"/>
                </g>
                <g id="zoomMin">
                        <use xlink:href="#rim" fill="#404040">
                                <set attributeName="fill" to="#808080" begin="zoomminus.mouseover" end="zoomminus.mouseout"/>
                        </use>
                        <path d="M-4,0h8" fill="none" stroke="white" stroke-width="1.5" pointer-events="none"/>
                </g>
                <g id="dirArrow">
                        <path fill="none" stroke="white" stroke-width="1.5" d="M0,-3.0v7 M-2.5,-0.5L0,-3.0L2.5,-0.5"/>
                </g>
               <g id="resetDef">
                       <use xlink:href="#rim2" fill="#404040">
                               <set attributeName="fill" to="#808080" begin="reset.mouseover" end="reset.mouseout"/>
                       </use>
               </g>
        </defs>

<script type="text/javascript">
var viewWidth = 613;
var viewHeight = 251;
var sectionId = 'dynsection-12';
</script>
<script xlink:href="svgpan.js"/>
<svg id="graph" class="graph">
<g id="viewport">
<title>CPrivateSendClient::CompletedTransaction</title>
<polygon fill="white" stroke="none" points="-4,4 -4,-247 609,-247 609,4 -4,4"/>
<!-- Node157 -->
<g id="node1" class="node"><title>Node157</title>
<polygon fill="#bfbfbf" stroke="black" points="0,-125 0,-155 121,-155 121,-125 0,-125"/>
<text text-anchor="start" x="8" y="-143" font-family="Helvetica,sans-Serif" font-size="10.00">CPrivateSendClient</text>
<text text-anchor="middle" x="60.5" y="-132" font-family="Helvetica,sans-Serif" font-size="10.00">::CompletedTransaction</text>
</g>
<!-- Node158 -->
<g id="node2" class="node"><title>Node158</title>
<g id="a_node2"><a xlink:href="class_c_private_send.html#aeaa9f7d10403ed99912e0ea8fe4b614a" target="_top" xlink:title="CPrivateSend::GetMessageByID">
<polygon fill="white" stroke="black" points="157,-223.5 157,-242.5 318,-242.5 318,-223.5 157,-223.5"/>
<text text-anchor="middle" x="237.5" y="-230.5" font-family="Helvetica,sans-Serif" font-size="10.00">CPrivateSend::GetMessageByID</text>
</a>
</g>
</g>
<!-- Node157&#45;&gt;Node158 -->
<g id="edge1" class="edge"><title>Node157&#45;&gt;Node158</title>
<path fill="none" stroke="midnightblue" d="M76.6485,-155.124C94.3964,-171.983 125.412,-198.862 157,-214 162.039,-216.415 167.408,-218.536 172.888,-220.398"/>
<polygon fill="midnightblue" stroke="midnightblue" points="172.233,-223.859 182.821,-223.474 174.304,-217.172 172.233,-223.859"/>
</g>
<!-- Node160 -->
<g id="node4" class="node"><title>Node160</title>
<g id="a_node4"><a xlink:href="class_c_key_holder_storage.html#a8afa09c36a07c75bdaa0458af74bdb41" target="_top" xlink:title="CKeyHolderStorage::\lKeepAll">
<polygon fill="white" stroke="black" points="182.5,-174 182.5,-204 292.5,-204 292.5,-174 182.5,-174"/>
<text text-anchor="start" x="190.5" y="-192" font-family="Helvetica,sans-Serif" font-size="10.00">CKeyHolderStorage::</text>
<text text-anchor="middle" x="237.5" y="-181" font-family="Helvetica,sans-Serif" font-size="10.00">KeepAll</text>
</a>
</g>
</g>
<!-- Node157&#45;&gt;Node160 -->
<g id="edge3" class="edge"><title>Node157&#45;&gt;Node160</title>
<path fill="none" stroke="midnightblue" d="M115.434,-155.101C133.65,-160.202 154.153,-165.943 173.037,-171.23"/>
<polygon fill="midnightblue" stroke="midnightblue" points="172.171,-174.622 182.744,-173.948 174.058,-167.882 172.171,-174.622"/>
</g>
<!-- Node161 -->
<g id="node5" class="node"><title>Node161</title>
<g id="a_node5"><a xlink:href="class_c_key_holder_storage.html#a2972b44b9a01abc94c7b34b14f933ad6" target="_top" xlink:title="CKeyHolderStorage::\lReturnAll">
<polygon fill="white" stroke="black" points="182.5,-125 182.5,-155 292.5,-155 292.5,-125 182.5,-125"/>
<text text-anchor="start" x="190.5" y="-143" font-family="Helvetica,sans-Serif" font-size="10.00">CKeyHolderStorage::</text>
<text text-anchor="middle" x="237.5" y="-132" font-family="Helvetica,sans-Serif" font-size="10.00">ReturnAll</text>
</a>
</g>
</g>
<!-- Node157&#45;&gt;Node161 -->
<g id="edge4" class="edge"><title>Node157&#45;&gt;Node161</title>
<path fill="none" stroke="midnightblue" d="M121.236,-140C137.635,-140 155.486,-140 172.134,-140"/>
<polygon fill="midnightblue" stroke="midnightblue" points="172.32,-143.5 182.32,-140 172.32,-136.5 172.32,-143.5"/>
</g>
<!-- Node162 -->
<g id="node6" class="node"><title>Node162</title>
<g id="a_node6"><a xlink:href="class_c_private_send_client.html#aff245581dce471708bea6a425ca5b533" target="_top" xlink:title="CPrivateSendClient\l::SetNull">
<polygon fill="white" stroke="black" points="186,-76 186,-106 289,-106 289,-76 186,-76"/>
<text text-anchor="start" x="194" y="-94" font-family="Helvetica,sans-Serif" font-size="10.00">CPrivateSendClient</text>
<text text-anchor="middle" x="237.5" y="-83" font-family="Helvetica,sans-Serif" font-size="10.00">::SetNull</text>
</a>
</g>
</g>
<!-- Node157&#45;&gt;Node162 -->
<g id="edge5" class="edge"><title>Node157&#45;&gt;Node162</title>
<path fill="none" stroke="midnightblue" d="M115.434,-124.899C134.592,-119.534 156.281,-113.461 175.956,-107.952"/>
<polygon fill="midnightblue" stroke="midnightblue" points="177.047,-111.281 185.733,-105.215 175.16,-104.541 177.047,-111.281"/>
</g>
<!-- Node165 -->
<g id="node9" class="node"><title>Node165</title>
<g id="a_node9"><a xlink:href="class_c_private_send_client.html#af8a649a4aa27cb51eb94384232d7b49e" target="_top" xlink:title="CPrivateSendClient\l::UnlockCoins">
<polygon fill="white" stroke="black" points="186,-27 186,-57 289,-57 289,-27 186,-27"/>
<text text-anchor="start" x="194" y="-45" font-family="Helvetica,sans-Serif" font-size="10.00">CPrivateSendClient</text>
<text text-anchor="middle" x="237.5" y="-34" font-family="Helvetica,sans-Serif" font-size="10.00">::UnlockCoins</text>
</a>
</g>
</g>
<!-- Node157&#45;&gt;Node165 -->
<g id="edge8" class="edge"><title>Node157&#45;&gt;Node165</title>
<path fill="none" stroke="midnightblue" d="M77.1372,-124.911C95.0873,-108.338 126.056,-81.9611 157,-66 163.026,-62.8917 169.521,-60.1154 176.11,-57.6541"/>
<polygon fill="midnightblue" stroke="midnightblue" points="177.501,-60.8755 185.786,-54.2714 175.191,-54.2677 177.501,-60.8755"/>
</g>
<!-- Node159 -->
<g id="node3" class="node"><title>Node159</title>
<g id="a_node3"><a xlink:href="util_8h.html#aad133bb6103b53cebf03fd01e2f11ba1" target="_top" xlink:title="Translation function: Call Translate signal on UI interface, which returns a boost::optional result...">
<polygon fill="white" stroke="black" points="408.5,-223.5 408.5,-242.5 437.5,-242.5 437.5,-223.5 408.5,-223.5"/>
<text text-anchor="middle" x="423" y="-230.5" font-family="Helvetica,sans-Serif" font-size="10.00">_</text>
</a>
</g>
</g>
<!-- Node158&#45;&gt;Node159 -->
<g id="edge2" class="edge"><title>Node158&#45;&gt;Node159</title>
<path fill="none" stroke="midnightblue" d="M318.185,-233C347.075,-233 377.588,-233 397.999,-233"/>
<polygon fill="midnightblue" stroke="midnightblue" points="398.225,-236.5 408.225,-233 398.225,-229.5 398.225,-236.5"/>
</g>
<!-- Node163 -->
<g id="node7" class="node"><title>Node163</title>
<g id="a_node7"><a xlink:href="class_c_private_send_base.html#a0391a4e1597763c859634cec88428190" target="_top" xlink:title="CPrivateSendBase::SetNull">
<polygon fill="white" stroke="black" points="354,-81.5 354,-100.5 492,-100.5 492,-81.5 354,-81.5"/>
<text text-anchor="middle" x="423" y="-88.5" font-family="Helvetica,sans-Serif" font-size="10.00">CPrivateSendBase::SetNull</text>
</a>
</g>
</g>
<!-- Node162&#45;&gt;Node163 -->
<g id="edge6" class="edge"><title>Node162&#45;&gt;Node163</title>
<path fill="none" stroke="midnightblue" d="M289.128,-91C305.955,-91 325.11,-91 343.534,-91"/>
<polygon fill="midnightblue" stroke="midnightblue" points="343.675,-94.5001 353.675,-91 343.675,-87.5001 343.675,-94.5001"/>
</g>
<!-- Node164 -->
<g id="node8" class="node"><title>Node164</title>
<g id="a_node8"><a xlink:href="utiltime_8cpp.html#a139d0fe6387b9e230a9b8bb12d9b43b9" target="_top" xlink:title="GetTimeMillis">
<polygon fill="white" stroke="black" points="528,-81.5 528,-100.5 605,-100.5 605,-81.5 528,-81.5"/>
<text text-anchor="middle" x="566.5" y="-88.5" font-family="Helvetica,sans-Serif" font-size="10.00">GetTimeMillis</text>
</a>
</g>
</g>
<!-- Node163&#45;&gt;Node164 -->
<g id="edge7" class="edge"><title>Node163&#45;&gt;Node164</title>
<path fill="none" stroke="midnightblue" d="M492.263,-91C500.909,-91 509.605,-91 517.833,-91"/>
<polygon fill="midnightblue" stroke="midnightblue" points="517.967,-94.5001 527.967,-91 517.967,-87.5001 517.967,-94.5001"/>
</g>
<!-- Node166 -->
<g id="node10" class="node"><title>Node166</title>
<g id="a_node10"><a xlink:href="utiltime_8cpp.html#ac635182d3e845eda4af4fa5ab31609da" target="_top" xlink:title="MilliSleep">
<polygon fill="white" stroke="black" points="393.5,-38.5 393.5,-57.5 452.5,-57.5 452.5,-38.5 393.5,-38.5"/>
<text text-anchor="middle" x="423" y="-45.5" font-family="Helvetica,sans-Serif" font-size="10.00">MilliSleep</text>
</a>
</g>
</g>
<!-- Node165&#45;&gt;Node166 -->
<g id="edge9" class="edge"><title>Node165&#45;&gt;Node166</title>
<path fill="none" stroke="midnightblue" d="M289.128,-43.6554C318.947,-44.6304 356.073,-45.8443 383.495,-46.741"/>
<polygon fill="midnightblue" stroke="midnightblue" points="383.385,-50.2392 393.494,-47.0679 383.614,-43.2429 383.385,-50.2392"/>
</g>
<!-- Node167 -->
<g id="node11" class="node"><title>Node167</title>
<g id="a_node11"><a xlink:href="group___actions.html#gabd60f5b890e2c62c05c6a2de6322197f" target="_top" xlink:title="CWallet::UnlockCoin">
<polygon fill="white" stroke="black" points="368.5,-0.5 368.5,-19.5 477.5,-19.5 477.5,-0.5 368.5,-0.5"/>
<text text-anchor="middle" x="423" y="-7.5" font-family="Helvetica,sans-Serif" font-size="10.00">CWallet::UnlockCoin</text>
</a>
</g>
</g>
<!-- Node165&#45;&gt;Node167 -->
<g id="edge10" class="edge"><title>Node165&#45;&gt;Node167</title>
<path fill="none" stroke="midnightblue" d="M289.128,-33.1712C310.567,-29.4325 335.783,-25.0352 358.454,-21.0817"/>
<polygon fill="midnightblue" stroke="midnightblue" points="359.081,-24.5252 368.331,-19.3592 357.878,-17.6293 359.081,-24.5252"/>
</g>
</g>
</svg>
        <g id="navigator" transform="translate(0 0)" fill="#404254">
                <rect fill="#f2f5e9" fill-opacity="0.5" stroke="#606060" stroke-width=".5" x="0" y="0" width="60" height="60"/>
                <use id="zoomplus" xlink:href="#zoomPlus" x="17" y="9" onmousedown="handleZoom(evt,'in')"/>
                <use id="zoomminus" xlink:href="#zoomMin" x="42" y="9" onmousedown="handleZoom(evt,'out')"/>
                <use id="reset" xlink:href="#resetDef" x="30" y="36" onmousedown="handleReset()"/>
                <g id="arrowUp" xlink:href="#dirArrow" transform="translate(30 24)" onmousedown="handlePan(0,-1)">
                  <use xlink:href="#rim" fill="#404040">
                        <set attributeName="fill" to="#808080" begin="arrowUp.mouseover" end="arrowUp.mouseout"/>
                  </use>
                  <path fill="none" stroke="white" stroke-width="1.5" d="M0,-3.0v7 M-2.5,-0.5L0,-3.0L2.5,-0.5"/>
                </g>
                <g id="arrowRight" xlink:href="#dirArrow" transform="rotate(90) translate(36 -43)" onmousedown="handlePan(1,0)">
                  <use xlink:href="#rim" fill="#404040">
                        <set attributeName="fill" to="#808080" begin="arrowRight.mouseover" end="arrowRight.mouseout"/>
                  </use>
                  <path fill="none" stroke="white" stroke-width="1.5" d="M0,-3.0v7 M-2.5,-0.5L0,-3.0L2.5,-0.5"/>
                </g>
                <g id="arrowDown" xlink:href="#dirArrow" transform="rotate(180) translate(-30 -48)" onmousedown="handlePan(0,1)">
                  <use xlink:href="#rim" fill="#404040">
                        <set attributeName="fill" to="#808080" begin="arrowDown.mouseover" end="arrowDown.mouseout"/>
                  </use>
                  <path fill="none" stroke="white" stroke-width="1.5" d="M0,-3.0v7 M-2.5,-0.5L0,-3.0L2.5,-0.5"/>
                </g>
                <g id="arrowLeft" xlink:href="#dirArrow" transform="rotate(270) translate(-36 17)" onmousedown="handlePan(-1,0)">
                  <use xlink:href="#rim" fill="#404040">
                        <set attributeName="fill" to="#808080" begin="arrowLeft.mouseover" end="arrowLeft.mouseout"/>
                  </use>
                  <path fill="none" stroke="white" stroke-width="1.5" d="M0,-3.0v7 M-2.5,-0.5L0,-3.0L2.5,-0.5"/>
                </g>
        </g>
        <svg viewBox="0 0 15 15" width="100%" height="30px" preserveAspectRatio="xMaxYMin meet">
         <g id="arrow_out" transform="scale(0.3 0.3)">
          <a xlink:href="class_c_private_send_client_a1f8053400f47f19228fb34d8ee13a983_cgraph_org.svg" target="_base">
           <rect id="button" ry="5" rx="5" y="6" x="6" height="38" width="38"
                fill="#f2f5e9" fill-opacity="0.5" stroke="#606060" stroke-width="1.0"/>
           <path id="arrow"
             d="M 11.500037,31.436501 C 11.940474,20.09759 22.043105,11.32322 32.158766,21.979434 L 37.068811,17.246167 C 37.068811,17.246167 37.088388,32 37.088388,32 L 22.160133,31.978069 C 22.160133,31.978069 26.997745,27.140456 26.997745,27.140456 C 18.528582,18.264221 13.291696,25.230495 11.500037,31.436501 z"
             style="fill:#404040;"/>
          </a>
         </g>
        </svg>
</svg>
