<?xml version="1.0" encoding="UTF-8" standalone="no"?>
<!DOCTYPE svg PUBLIC "-//W3C//DTD SVG 1.1//EN"
 "http://www.w3.org/Graphics/SVG/1.1/DTD/svg11.dtd">
<!-- Generated by graphviz version 2.38.0 (20140413.2041)
 -->
<!-- Title: ReceiveCoinsDialog Pages: 1 -->
<svg width="2055pt" height="575pt"
 viewBox="0.00 0.00 2055.00 575.00" xmlns="http://www.w3.org/2000/svg" xmlns:xlink="http://www.w3.org/1999/xlink">
<g id="graph0" class="graph" transform="scale(1 1) rotate(0) translate(4 571)">
<title>ReceiveCoinsDialog</title>
<polygon fill="white" stroke="none" points="-4,4 -4,-571 2051,-571 2051,4 -4,4"/>
<!-- Node2 -->
<g id="node1" class="node"><title>Node2</title>
<polygon fill="#bfbfbf" stroke="black" points="1737,-521.5 1737,-540.5 1846,-540.5 1846,-521.5 1737,-521.5"/>
<text text-anchor="middle" x="1791.5" y="-528.5" font-family="Helvetica,sans-Serif" font-size="10.00">ReceiveCoinsDialog</text>
</g>
<!-- Node3 -->
<g id="node2" class="node"><title>Node3</title>
<polygon fill="white" stroke="#bfbfbf" points="1447,-547.5 1447,-566.5 1501,-566.5 1501,-547.5 1447,-547.5"/>
<text text-anchor="middle" x="1474" y="-554.5" font-family="Helvetica,sans-Serif" font-size="10.00">QDialog</text>
</g>
<!-- Node3&#45;&gt;Node2 -->
<g id="edge1" class="edge"><title>Node3&#45;&gt;Node2</title>
<path fill="none" stroke="midnightblue" d="M1511.23,-555.554C1555.91,-553.586 1634.17,-549.541 1701,-543 1712.55,-541.87 1724.9,-540.39 1736.62,-538.858"/>
<polygon fill="midnightblue" stroke="midnightblue" points="1510.99,-552.061 1501.15,-555.987 1511.29,-559.054 1510.99,-552.061"/>
</g>
<!-- Node4 -->
<g id="node3" class="node"><title>Node4</title>
<g id="a_node3"><a xlink:href="class_g_u_i_util_1_1_table_view_last_column_resizing_fixer.html" target="_top" xlink:title="Makes a QTableView last column feel as if it was being resized from its left border. ">
<polygon fill="white" stroke="black" points="1395,-484 1395,-514 1553,-514 1553,-484 1395,-484"/>
<text text-anchor="start" x="1403" y="-502" font-family="Helvetica,sans-Serif" font-size="10.00">GUIUtil::TableViewLastColumn</text>
<text text-anchor="middle" x="1474" y="-491" font-family="Helvetica,sans-Serif" font-size="10.00">ResizingFixer</text>
</a>
</g>
</g>
<!-- Node4&#45;&gt;Node2 -->
<g id="edge2" class="edge"><title>Node4&#45;&gt;Node2</title>
<path fill="none" stroke="#9a32cd" stroke-dasharray="5,2" d="M1563.24,-508.205C1565.86,-508.474 1568.45,-508.739 1571,-509 1627.58,-514.782 1692.38,-521.259 1736.82,-525.679"/>
<polygon fill="#9a32cd" stroke="#9a32cd" points="1563.37,-504.7 1553.06,-507.157 1562.65,-511.663 1563.37,-504.7"/>
<text text-anchor="middle" x="1636" y="-524" font-family="Helvetica,sans-Serif" font-size="10.00"> columnResizingFixer</text>
</g>
<!-- Node5 -->
<g id="node4" class="node"><title>Node5</title>
<polygon fill="white" stroke="#bfbfbf" points="1223.5,-429.5 1223.5,-448.5 1278.5,-448.5 1278.5,-429.5 1223.5,-429.5"/>
<text text-anchor="middle" x="1251" y="-436.5" font-family="Helvetica,sans-Serif" font-size="10.00">QObject</text>
</g>
<!-- Node5&#45;&gt;Node4 -->
<g id="edge3" class="edge"><title>Node5&#45;&gt;Node4</title>
<path fill="none" stroke="midnightblue" d="M1288.48,-448.904C1323.56,-458.429 1377.08,-472.958 1417.46,-483.921"/>
<polygon fill="midnightblue" stroke="midnightblue" points="1289.23,-445.48 1278.66,-446.237 1287.39,-452.235 1289.23,-445.48"/>
</g>
<!-- Node6 -->
<g id="node5" class="node"><title>Node6</title>
<g id="a_node5"><a xlink:href="class_wallet_model.html" target="_top" xlink:title="Interface to Bitcoin wallet from Qt view code. ">
<polygon fill="white" stroke="black" points="1437.5,-385.5 1437.5,-404.5 1510.5,-404.5 1510.5,-385.5 1437.5,-385.5"/>
<text text-anchor="middle" x="1474" y="-392.5" font-family="Helvetica,sans-Serif" font-size="10.00">WalletModel</text>
</a>
</g>
</g>
<!-- Node5&#45;&gt;Node6 -->
<g id="edge5" class="edge"><title>Node5&#45;&gt;Node6</title>
<path fill="none" stroke="midnightblue" d="M1288.58,-431.717C1329.88,-423.495 1396.63,-410.205 1437.49,-402.071"/>
<polygon fill="midnightblue" stroke="midnightblue" points="1287.78,-428.307 1278.66,-433.693 1289.15,-435.172 1287.78,-428.307"/>
</g>
<!-- Node6&#45;&gt;Node2 -->
<g id="edge4" class="edge"><title>Node6&#45;&gt;Node2</title>
<path fill="none" stroke="#9a32cd" stroke-dasharray="5,2" d="M1492.95,-411.157C1511.3,-426.857 1541.26,-450.28 1571,-464 1625.03,-488.928 1644.28,-478.015 1701,-496 1724.38,-503.413 1750.42,-513.853 1768.36,-521.4"/>
<polygon fill="#9a32cd" stroke="#9a32cd" points="1495.21,-408.486 1485.37,-404.549 1490.61,-413.761 1495.21,-408.486"/>
<text text-anchor="middle" x="1636" y="-499" font-family="Helvetica,sans-Serif" font-size="10.00"> model</text>
</g>
<!-- Node7 -->
<g id="node6" class="node"><title>Node7</title>
<g id="a_node6"><a xlink:href="class_transaction_table_model.html" target="_top" xlink:title="UI model for the transaction table of a wallet. ">
<polygon fill="white" stroke="black" points="1730,-169.5 1730,-188.5 1853,-188.5 1853,-169.5 1730,-169.5"/>
<text text-anchor="middle" x="1791.5" y="-176.5" font-family="Helvetica,sans-Serif" font-size="10.00">TransactionTableModel</text>
</a>
</g>
</g>
<!-- Node6&#45;&gt;Node7 -->
<g id="edge36" class="edge"><title>Node6&#45;&gt;Node7</title>
<path fill="none" stroke="#9a32cd" stroke-dasharray="5,2" d="M1489.87,-377.524C1507.1,-356.517 1535.38,-319.628 1553,-284 1564.78,-260.186 1551.38,-244.915 1571,-227 1577.32,-221.229 1678.13,-200.812 1740.91,-188.542"/>
<polygon fill="#9a32cd" stroke="#9a32cd" points="1487.14,-375.332 1483.43,-385.257 1492.52,-379.81 1487.14,-375.332"/>
<text text-anchor="middle" x="1636" y="-230" font-family="Helvetica,sans-Serif" font-size="10.00"> walletModel</text>
</g>
<!-- Node29 -->
<g id="node28" class="node"><title>Node29</title>
<g id="a_node28"><a xlink:href="class_address_table_model.html" target="_top" xlink:title="Qt model of the address book in the core. ">
<polygon fill="white" stroke="black" points="1737.5,-259.5 1737.5,-278.5 1845.5,-278.5 1845.5,-259.5 1737.5,-259.5"/>
<text text-anchor="middle" x="1791.5" y="-266.5" font-family="Helvetica,sans-Serif" font-size="10.00">AddressTableModel</text>
</a>
</g>
</g>
<!-- Node6&#45;&gt;Node29 -->
<g id="edge43" class="edge"><title>Node6&#45;&gt;Node29</title>
<path fill="none" stroke="#9a32cd" stroke-dasharray="5,2" d="M1521.1,-394.519C1577.93,-393.242 1670.69,-388.725 1701,-373 1743.29,-351.058 1774.13,-299.924 1785.6,-278.603"/>
<polygon fill="#9a32cd" stroke="#9a32cd" points="1520.86,-391.023 1510.94,-394.722 1521,-398.022 1520.86,-391.023"/>
<text text-anchor="middle" x="1636" y="-396" font-family="Helvetica,sans-Serif" font-size="10.00"> walletModel</text>
</g>
<!-- Node31 -->
<g id="node30" class="node"><title>Node31</title>
<g id="a_node30"><a xlink:href="class_recent_requests_table_model.html" target="_top" xlink:title="Model for list of recently generated payment requests / dash: URIs. ">
<polygon fill="white" stroke="black" points="1719,-419.5 1719,-438.5 1864,-438.5 1864,-419.5 1719,-419.5"/>
<text text-anchor="middle" x="1791.5" y="-426.5" font-family="Helvetica,sans-Serif" font-size="10.00">RecentRequestsTableModel</text>
</a>
</g>
</g>
<!-- Node6&#45;&gt;Node31 -->
<g id="edge47" class="edge"><title>Node6&#45;&gt;Node31</title>
<path fill="none" stroke="#9a32cd" stroke-dasharray="5,2" d="M1520.66,-400.939C1536.58,-402.948 1554.57,-405.15 1571,-407 1620.29,-412.549 1675.88,-418.114 1718.78,-422.258"/>
<polygon fill="#9a32cd" stroke="#9a32cd" points="1520.9,-397.441 1510.54,-399.652 1520.01,-404.385 1520.9,-397.441"/>
<text text-anchor="middle" x="1636" y="-424" font-family="Helvetica,sans-Serif" font-size="10.00"> walletModel</text>
</g>
<!-- Node7&#45;&gt;Node6 -->
<g id="edge6" class="edge"><title>Node7&#45;&gt;Node6</title>
<path fill="none" stroke="#9a32cd" stroke-dasharray="5,2" d="M1767.17,-194.257C1726.89,-220.687 1641.79,-276.877 1571,-326 1540.98,-346.829 1506.3,-372.051 1487.95,-385.488"/>
<polygon fill="#9a32cd" stroke="#9a32cd" points="1769.3,-197.048 1775.74,-188.639 1765.46,-191.194 1769.3,-197.048"/>
<text text-anchor="middle" x="1636" y="-329" font-family="Helvetica,sans-Serif" font-size="10.00"> transactionTableModel</text>
</g>
<!-- Node9 -->
<g id="node8" class="node"><title>Node9</title>
<g id="a_node8"><a xlink:href="class_transaction_table_priv.html" target="_top" xlink:title="TransactionTablePriv">
<polygon fill="white" stroke="black" points="1935,-98.5 1935,-117.5 2047,-117.5 2047,-98.5 1935,-98.5"/>
<text text-anchor="middle" x="1991" y="-105.5" font-family="Helvetica,sans-Serif" font-size="10.00">TransactionTablePriv</text>
</a>
</g>
</g>
<!-- Node7&#45;&gt;Node9 -->
<g id="edge9" class="edge"><title>Node7&#45;&gt;Node9</title>
<path fill="none" stroke="#9a32cd" stroke-dasharray="5,2" d="M1829.03,-165.868C1868.01,-151.854 1928.83,-129.991 1963.47,-117.537"/>
<polygon fill="#9a32cd" stroke="#9a32cd" points="1827.36,-162.748 1819.14,-169.425 1829.73,-169.335 1827.36,-162.748"/>
<text text-anchor="middle" x="1899.5" y="-149" font-family="Helvetica,sans-Serif" font-size="10.00"> parent</text>
</g>
<!-- Node8 -->
<g id="node7" class="node"><title>Node8</title>
<polygon fill="white" stroke="#bfbfbf" points="1415.5,-213.5 1415.5,-232.5 1532.5,-232.5 1532.5,-213.5 1415.5,-213.5"/>
<text text-anchor="middle" x="1474" y="-220.5" font-family="Helvetica,sans-Serif" font-size="10.00">QAbstractTableModel</text>
</g>
<!-- Node8&#45;&gt;Node7 -->
<g id="edge7" class="edge"><title>Node8&#45;&gt;Node7</title>
<path fill="none" stroke="midnightblue" d="M1517.94,-210.762C1534.42,-206.465 1553.47,-201.972 1571,-199 1624.2,-189.982 1685.38,-184.831 1729.62,-182.023"/>
<polygon fill="midnightblue" stroke="midnightblue" points="1516.82,-207.44 1508.05,-213.398 1518.62,-214.204 1516.82,-207.44"/>
</g>
<!-- Node8&#45;&gt;Node29 -->
<g id="edge39" class="edge"><title>Node8&#45;&gt;Node29</title>
<path fill="none" stroke="midnightblue" d="M1542.71,-232.872C1600.94,-241.362 1683.77,-253.439 1737.33,-261.248"/>
<polygon fill="midnightblue" stroke="midnightblue" points="1542.9,-229.363 1532.5,-231.384 1541.89,-236.29 1542.9,-229.363"/>
</g>
<!-- Node8&#45;&gt;Node31 -->
<g id="edge46" class="edge"><title>Node8&#45;&gt;Node31</title>
<path fill="none" stroke="midnightblue" d="M1525.47,-235.586C1534.86,-238.744 1544.42,-242.535 1553,-247 1561.99,-251.678 1562.13,-256.106 1571,-261 1624.8,-290.669 1651.74,-271.288 1701,-308 1743.32,-339.539 1774.58,-396.642 1785.88,-419.33"/>
<polygon fill="midnightblue" stroke="midnightblue" points="1526.37,-232.2 1515.78,-232.521 1524.26,-238.874 1526.37,-232.2"/>
</g>
<!-- Node9&#45;&gt;Node7 -->
<g id="edge8" class="edge"><title>Node9&#45;&gt;Node7</title>
<path fill="none" stroke="#9a32cd" stroke-dasharray="5,2" d="M1924.65,-101.816C1910.29,-102.314 1895.39,-104.317 1882,-109 1846.99,-121.245 1815.14,-153.257 1800.68,-169.399"/>
<polygon fill="#9a32cd" stroke="#9a32cd" points="1925.02,-105.312 1934.98,-101.703 1924.94,-98.3128 1925.02,-105.312"/>
<text text-anchor="middle" x="1899.5" y="-112" font-family="Helvetica,sans-Serif" font-size="10.00"> priv</text>
</g>
<!-- Node10 -->
<g id="node9" class="node"><title>Node10</title>
<g id="a_node9"><a xlink:href="class_c_wallet.html" target="_top" xlink:title="A CWallet is an extension of a keystore, which also maintains a set of transactions and balances...">
<polygon fill="white" stroke="black" points="1225.5,-170.5 1225.5,-189.5 1276.5,-189.5 1276.5,-170.5 1225.5,-170.5"/>
<text text-anchor="middle" x="1251" y="-177.5" font-family="Helvetica,sans-Serif" font-size="10.00">CWallet</text>
</a>
</g>
</g>
<!-- Node10&#45;&gt;Node6 -->
<g id="edge50" class="edge"><title>Node10&#45;&gt;Node6</title>
<path fill="none" stroke="#9a32cd" stroke-dasharray="5,2" d="M1259.54,-198.993C1268.95,-221.003 1286.68,-257.507 1310,-283 1353.45,-330.506 1420.69,-368.505 1453.57,-385.439"/>
<polygon fill="#9a32cd" stroke="#9a32cd" points="1262.77,-197.63 1255.71,-189.727 1256.3,-200.306 1262.77,-197.63"/>
<text text-anchor="middle" x="1343.5" y="-342" font-family="Helvetica,sans-Serif" font-size="10.00"> wallet</text>
</g>
<!-- Node10&#45;&gt;Node7 -->
<g id="edge37" class="edge"><title>Node10&#45;&gt;Node7</title>
<path fill="none" stroke="#9a32cd" stroke-dasharray="5,2" d="M1286.7,-179.936C1376.3,-179.769 1616.28,-179.324 1729.62,-179.113"/>
<polygon fill="#9a32cd" stroke="#9a32cd" points="1286.53,-176.436 1276.54,-179.954 1286.54,-183.436 1286.53,-176.436"/>
<text text-anchor="middle" x="1474" y="-183" font-family="Helvetica,sans-Serif" font-size="10.00"> wallet</text>
</g>
<!-- Node10&#45;&gt;Node9 -->
<g id="edge10" class="edge"><title>Node10&#45;&gt;Node9</title>
<path fill="none" stroke="#9a32cd" stroke-dasharray="5,2" d="M1278.48,-165.711C1288.19,-160.873 1299.41,-155.752 1310,-152 1346.58,-139.042 1356.66,-138 1395,-132 1472.25,-119.911 1853.57,-99.8675 1882,-99 1897.55,-98.5255 1901.47,-98.0465 1917,-99 1922.74,-99.3522 1928.71,-99.8587 1934.66,-100.454"/>
<polygon fill="#9a32cd" stroke="#9a32cd" points="1276.64,-162.717 1269.34,-170.392 1279.84,-168.947 1276.64,-162.717"/>
<text text-anchor="middle" x="1636" y="-120" font-family="Helvetica,sans-Serif" font-size="10.00"> wallet</text>
</g>
<!-- Node10&#45;&gt;Node29 -->
<g id="edge44" class="edge"><title>Node10&#45;&gt;Node29</title>
<path fill="none" stroke="#9a32cd" stroke-dasharray="5,2" d="M1278.05,-194.48C1306.02,-209.256 1352.22,-231.468 1395,-242 1514.79,-271.494 1660.73,-272.922 1737.47,-271.128"/>
<polygon fill="#9a32cd" stroke="#9a32cd" points="1279.42,-191.242 1268.95,-189.595 1276.11,-197.409 1279.42,-191.242"/>
<text text-anchor="middle" x="1474" y="-269" font-family="Helvetica,sans-Serif" font-size="10.00"> wallet</text>
</g>
<!-- Node30 -->
<g id="node29" class="node"><title>Node30</title>
<g id="a_node29"><a xlink:href="class_address_table_priv.html" target="_top" xlink:title="AddressTablePriv">
<polygon fill="white" stroke="black" points="1942.5,-225.5 1942.5,-244.5 2039.5,-244.5 2039.5,-225.5 1942.5,-225.5"/>
<text text-anchor="middle" x="1991" y="-232.5" font-family="Helvetica,sans-Serif" font-size="10.00">AddressTablePriv</text>
</a>
</g>
</g>
<!-- Node10&#45;&gt;Node30 -->
<g id="edge42" class="edge"><title>Node10&#45;&gt;Node30</title>
<path fill="none" stroke="#9a32cd" stroke-dasharray="5,2" d="M1286.38,-171.883C1380.78,-151.072 1651.1,-101.431 1864,-160 1910.88,-172.897 1957.95,-208.298 1978.82,-225.444"/>
<polygon fill="#9a32cd" stroke="#9a32cd" points="1285.51,-168.491 1276.52,-174.094 1287.04,-175.321 1285.51,-168.491"/>
<text text-anchor="middle" x="1636" y="-138" font-family="Helvetica,sans-Serif" font-size="10.00"> wallet</text>
</g>
<!-- Node11 -->
<g id="node10" class="node"><title>Node11</title>
<g id="a_node10"><a xlink:href="class_c_crypto_key_store.html" target="_top" xlink:title="Keystore which keeps the private keys encrypted. ">
<polygon fill="white" stroke="black" points="985,-123.5 985,-142.5 1083,-142.5 1083,-123.5 985,-123.5"/>
<text text-anchor="middle" x="1034" y="-130.5" font-family="Helvetica,sans-Serif" font-size="10.00">CCryptoKeyStore</text>
</a>
</g>
</g>
<!-- Node11&#45;&gt;Node10 -->
<g id="edge11" class="edge"><title>Node11&#45;&gt;Node10</title>
<path fill="none" stroke="midnightblue" d="M1091.96,-144.549C1121.8,-150.706 1158.92,-158.534 1192,-166 1203.01,-168.486 1215.16,-171.393 1225.49,-173.912"/>
<polygon fill="midnightblue" stroke="midnightblue" points="1092.64,-141.115 1082.14,-142.528 1091.23,-147.971 1092.64,-141.115"/>
</g>
<!-- Node12 -->
<g id="node11" class="node"><title>Node12</title>
<g id="a_node11"><a xlink:href="class_c_basic_key_store.html" target="_top" xlink:title="Basic key store, that keeps keys in an address&#45;&gt;secret map. ">
<polygon fill="white" stroke="black" points="719.5,-77.5 719.5,-96.5 811.5,-96.5 811.5,-77.5 719.5,-77.5"/>
<text text-anchor="middle" x="765.5" y="-84.5" font-family="Helvetica,sans-Serif" font-size="10.00">CBasicKeyStore</text>
</a>
</g>
</g>
<!-- Node12&#45;&gt;Node11 -->
<g id="edge12" class="edge"><title>Node12&#45;&gt;Node11</title>
<path fill="none" stroke="midnightblue" d="M821.552,-95.7199C860.309,-101.953 913.383,-110.677 960,-119 968.003,-120.429 976.489,-122.002 984.734,-123.563"/>
<polygon fill="midnightblue" stroke="midnightblue" points="821.948,-92.2387 811.52,-94.1107 820.839,-99.1503 821.948,-92.2387"/>
</g>
<!-- Node13 -->
<g id="node12" class="node"><title>Node13</title>
<g id="a_node12"><a xlink:href="class_c_key_store.html" target="_top" xlink:title="A virtual base class for key stores. ">
<polygon fill="white" stroke="black" points="538.5,-76.5 538.5,-95.5 604.5,-95.5 604.5,-76.5 538.5,-76.5"/>
<text text-anchor="middle" x="571.5" y="-83.5" font-family="Helvetica,sans-Serif" font-size="10.00">CKeyStore</text>
</a>
</g>
</g>
<!-- Node13&#45;&gt;Node12 -->
<g id="edge13" class="edge"><title>Node13&#45;&gt;Node12</title>
<path fill="none" stroke="midnightblue" d="M614.684,-86.2197C645.65,-86.381 687.653,-86.5998 719.304,-86.7646"/>
<polygon fill="midnightblue" stroke="midnightblue" points="614.655,-82.7196 604.636,-86.1674 614.618,-89.7195 614.655,-82.7196"/>
</g>
<!-- Node14 -->
<g id="node13" class="node"><title>Node14</title>
<g id="a_node13"><a xlink:href="class_c_critical_section.html" target="_top" xlink:title="Wrapped mutex: supports recursive locking, but no waiting TODO: We should move away from using the re...">
<polygon fill="white" stroke="black" points="308,-76.5 308,-95.5 400,-95.5 400,-76.5 308,-76.5"/>
<text text-anchor="middle" x="354" y="-83.5" font-family="Helvetica,sans-Serif" font-size="10.00">CCriticalSection</text>
</a>
</g>
</g>
<!-- Node14&#45;&gt;Node10 -->
<g id="edge30" class="edge"><title>Node14&#45;&gt;Node10</title>
<path fill="none" stroke="#9a32cd" stroke-dasharray="5,2" d="M398.164,-73.8165C441.392,-62.702 510.006,-48 570.5,-48 570.5,-48 570.5,-48 1035,-48 1128.29,-48 1215.18,-139.38 1241.74,-170.079"/>
<polygon fill="#9a32cd" stroke="#9a32cd" points="397.058,-70.488 388.274,-76.411 398.835,-77.2588 397.058,-70.488"/>
<text text-anchor="middle" x="765.5" y="-51" font-family="Helvetica,sans-Serif" font-size="10.00"> cs_wallet</text>
</g>
<!-- Node14&#45;&gt;Node13 -->
<g id="edge14" class="edge"><title>Node14&#45;&gt;Node13</title>
<path fill="none" stroke="#9a32cd" stroke-dasharray="5,2" d="M410.191,-86C450.778,-86 504.543,-86 538.331,-86"/>
<polygon fill="#9a32cd" stroke="#9a32cd" points="410.176,-82.5001 400.176,-86 410.176,-89.5001 410.176,-82.5001"/>
<text text-anchor="middle" x="456" y="-89" font-family="Helvetica,sans-Serif" font-size="10.00"> cs_KeyStore</text>
</g>
<!-- Node17 -->
<g id="node16" class="node"><title>Node17</title>
<g id="a_node16"><a xlink:href="class_c_h_d_chain.html" target="_top" xlink:title="CHDChain">
<polygon fill="white" stroke="black" points="539,-119.5 539,-138.5 604,-138.5 604,-119.5 539,-119.5"/>
<text text-anchor="middle" x="571.5" y="-126.5" font-family="Helvetica,sans-Serif" font-size="10.00">CHDChain</text>
</a>
</g>
</g>
<!-- Node14&#45;&gt;Node17 -->
<g id="edge20" class="edge"><title>Node14&#45;&gt;Node17</title>
<path fill="none" stroke="#9a32cd" stroke-dasharray="5,2" d="M409.993,-96.973C450.866,-105.129 505.185,-115.967 538.985,-122.712"/>
<polygon fill="#9a32cd" stroke="#9a32cd" points="410.667,-93.5387 400.176,-95.0142 409.298,-100.403 410.667,-93.5387"/>
<text text-anchor="middle" x="456" y="-116" font-family="Helvetica,sans-Serif" font-size="10.00"> cs_accounts</text>
</g>
<!-- Node15 -->
<g id="node14" class="node"><title>Node15</title>
<g id="a_node14"><a xlink:href="class_annotated_mixin.html" target="_top" xlink:title="AnnotatedMixin\&lt; std\l::recursive_mutex \&gt;">
<polygon fill="white" stroke="black" points="154,-71 154,-101 271,-101 271,-71 154,-71"/>
<text text-anchor="start" x="162" y="-89" font-family="Helvetica,sans-Serif" font-size="10.00">AnnotatedMixin&lt; std</text>
<text text-anchor="middle" x="212.5" y="-78" font-family="Helvetica,sans-Serif" font-size="10.00">::recursive_mutex &gt;</text>
</a>
</g>
</g>
<!-- Node15&#45;&gt;Node14 -->
<g id="edge15" class="edge"><title>Node15&#45;&gt;Node14</title>
<path fill="none" stroke="midnightblue" d="M281.227,-86C290.291,-86 299.401,-86 307.943,-86"/>
<polygon fill="midnightblue" stroke="midnightblue" points="281.045,-82.5001 271.045,-86 281.045,-89.5001 281.045,-82.5001"/>
</g>
<!-- Node16 -->
<g id="node15" class="node"><title>Node16</title>
<polygon fill="white" stroke="#bfbfbf" points="0,-76.5 0,-95.5 117,-95.5 117,-76.5 0,-76.5"/>
<text text-anchor="middle" x="58.5" y="-83.5" font-family="Helvetica,sans-Serif" font-size="10.00">std::recursive_mutex</text>
</g>
<!-- Node16&#45;&gt;Node15 -->
<g id="edge16" class="edge"><title>Node16&#45;&gt;Node15</title>
<path fill="none" stroke="midnightblue" d="M127.572,-86C136.317,-86 145.204,-86 153.763,-86"/>
<polygon fill="midnightblue" stroke="midnightblue" points="127.398,-82.5001 117.398,-86 127.398,-89.5001 127.398,-82.5001"/>
</g>
<!-- Node17&#45;&gt;Node11 -->
<g id="edge21" class="edge"><title>Node17&#45;&gt;Node11</title>
<path fill="none" stroke="#9a32cd" stroke-dasharray="5,2" d="M614.258,-129.363C699.689,-130.105 893.995,-131.793 984.692,-132.58"/>
<polygon fill="#9a32cd" stroke="#9a32cd" points="614.182,-125.862 604.152,-129.275 614.121,-132.862 614.182,-125.862"/>
<text text-anchor="middle" x="765.5" y="-135" font-family="Helvetica,sans-Serif" font-size="10.00"> cryptedHDChain</text>
</g>
<!-- Node17&#45;&gt;Node12 -->
<g id="edge17" class="edge"><title>Node17&#45;&gt;Node12</title>
<path fill="none" stroke="#9a32cd" stroke-dasharray="5,2" d="M613.989,-116.896C625.295,-113.793 637.575,-110.601 649,-108 672.052,-102.751 697.928,-97.9473 719.335,-94.2629"/>
<polygon fill="#9a32cd" stroke="#9a32cd" points="613.045,-113.525 604.351,-119.582 614.924,-120.268 613.045,-113.525"/>
<text text-anchor="middle" x="670.5" y="-111" font-family="Helvetica,sans-Serif" font-size="10.00"> hdChain</text>
</g>
<!-- Node18 -->
<g id="node17" class="node"><title>Node18</title>
<g id="a_node17"><a xlink:href="classuint256.html" target="_top" xlink:title="256&#45;bit opaque blob. ">
<polygon fill="white" stroke="black" points="327.5,-170.5 327.5,-189.5 380.5,-189.5 380.5,-170.5 327.5,-170.5"/>
<text text-anchor="middle" x="354" y="-177.5" font-family="Helvetica,sans-Serif" font-size="10.00">uint256</text>
</a>
</g>
</g>
<!-- Node18&#45;&gt;Node10 -->
<g id="edge28" class="edge"><title>Node18&#45;&gt;Node10</title>
<path fill="none" stroke="#9a32cd" stroke-dasharray="5,2" d="M390.718,-180C433.465,-180 507.21,-180 570.5,-180 570.5,-180 570.5,-180 1035,-180 1104.05,-180 1185.58,-180 1225.49,-180"/>
<polygon fill="#9a32cd" stroke="#9a32cd" points="390.543,-176.5 380.543,-180 390.543,-183.5 390.543,-176.5"/>
<text text-anchor="middle" x="765.5" y="-194" font-family="Helvetica,sans-Serif" font-size="10.00"> nPrivateSendSalt</text>
<text text-anchor="middle" x="765.5" y="-183" font-family="Helvetica,sans-Serif" font-size="10.00">hashPrevBestCoinbase</text>
</g>
<!-- Node18&#45;&gt;Node17 -->
<g id="edge18" class="edge"><title>Node18&#45;&gt;Node17</title>
<path fill="none" stroke="#9a32cd" stroke-dasharray="5,2" d="M385.242,-166.515C395.486,-162.349 407.095,-158.057 418,-155 458.989,-143.509 507.681,-136.281 538.825,-132.441"/>
<polygon fill="#9a32cd" stroke="#9a32cd" points="383.778,-163.334 375.908,-170.426 386.483,-169.79 383.778,-163.334"/>
<text text-anchor="middle" x="456" y="-158" font-family="Helvetica,sans-Serif" font-size="10.00"> id</text>
</g>
<!-- Node21 -->
<g id="node20" class="node"><title>Node21</title>
<g id="a_node20"><a xlink:href="class_c_block_index.html" target="_top" xlink:title="The block chain is a tree shaped structure starting with the genesis block at the root...">
<polygon fill="white" stroke="black" points="534.5,-287.5 534.5,-306.5 608.5,-306.5 608.5,-287.5 534.5,-287.5"/>
<text text-anchor="middle" x="571.5" y="-294.5" font-family="Helvetica,sans-Serif" font-size="10.00">CBlockIndex</text>
</a>
</g>
</g>
<!-- Node18&#45;&gt;Node21 -->
<g id="edge25" class="edge"><title>Node18&#45;&gt;Node21</title>
<path fill="none" stroke="#9a32cd" stroke-dasharray="5,2" d="M380.06,-194.919C410.804,-213.056 464.677,-244.299 512,-269 524.377,-275.46 538.489,-282.232 549.752,-287.497"/>
<polygon fill="#9a32cd" stroke="#9a32cd" points="381.683,-191.813 371.294,-189.733 378.119,-197.838 381.683,-191.813"/>
<text text-anchor="middle" x="456" y="-272" font-family="Helvetica,sans-Serif" font-size="10.00"> phashBlock</text>
<text text-anchor="middle" x="456" y="-261" font-family="Helvetica,sans-Serif" font-size="10.00">hashMerkleRoot</text>
</g>
<!-- Node19 -->
<g id="node18" class="node"><title>Node19</title>
<g id="a_node18"><a xlink:href="classbase__blob.html" target="_top" xlink:title="base_blob\&lt; 256 \&gt;">
<polygon fill="white" stroke="black" points="159.5,-170.5 159.5,-189.5 265.5,-189.5 265.5,-170.5 159.5,-170.5"/>
<text text-anchor="middle" x="212.5" y="-177.5" font-family="Helvetica,sans-Serif" font-size="10.00">base_blob&lt; 256 &gt;</text>
</a>
</g>
</g>
<!-- Node19&#45;&gt;Node18 -->
<g id="edge19" class="edge"><title>Node19&#45;&gt;Node18</title>
<path fill="none" stroke="midnightblue" d="M276.085,-180C294.173,-180 312.911,-180 327.363,-180"/>
<polygon fill="midnightblue" stroke="midnightblue" points="275.842,-176.5 265.842,-180 275.842,-183.5 275.842,-176.5"/>
</g>
<!-- Node20 -->
<g id="node19" class="node"><title>Node20</title>
<g id="a_node19"><a xlink:href="class_c_validation_interface.html" target="_top" xlink:title="CValidationInterface">
<polygon fill="white" stroke="black" points="978,-0.5 978,-19.5 1090,-19.5 1090,-0.5 978,-0.5"/>
<text text-anchor="middle" x="1034" y="-7.5" font-family="Helvetica,sans-Serif" font-size="10.00">CValidationInterface</text>
</a>
</g>
</g>
<!-- Node20&#45;&gt;Node10 -->
<g id="edge22" class="edge"><title>Node20&#45;&gt;Node10</title>
<path fill="none" stroke="midnightblue" d="M1100.37,-5.73637C1131.11,-7.04142 1166.51,-13.7149 1192,-34 1236.39,-69.3251 1246.94,-143.63 1249.33,-170.252"/>
<polygon fill="midnightblue" stroke="midnightblue" points="1100.23,-2.232 1090.15,-5.48769 1100.06,-9.22993 1100.23,-2.232"/>
</g>
<!-- Node21&#45;&gt;Node10 -->
<g id="edge23" class="edge"><title>Node21&#45;&gt;Node10</title>
<path fill="none" stroke="#9a32cd" stroke-dasharray="5,2" d="M613.739,-309.38C719.099,-338.422 1003.15,-400.214 1192,-286 1228.08,-264.179 1243.26,-211.278 1248.11,-189.554"/>
<polygon fill="#9a32cd" stroke="#9a32cd" points="614.392,-305.929 603.818,-306.596 612.5,-312.668 614.392,-305.929"/>
<text text-anchor="middle" x="899.5" y="-356" font-family="Helvetica,sans-Serif" font-size="10.00"> m_last_block_processed</text>
</g>
<!-- Node21&#45;&gt;Node21 -->
<g id="edge24" class="edge"><title>Node21&#45;&gt;Node21</title>
<path fill="none" stroke="#9a32cd" stroke-dasharray="5,2" d="M553.353,-316.4C554.565,-321.315 560.614,-325 571.5,-325 588.918,-325 593.953,-315.565 586.605,-306.757"/>
<polygon fill="#9a32cd" stroke="#9a32cd" points="556.724,-317.347 556.395,-306.757 550.048,-315.24 556.724,-317.347"/>
<text text-anchor="middle" x="571.5" y="-339" font-family="Helvetica,sans-Serif" font-size="10.00"> pskip</text>
<text text-anchor="middle" x="571.5" y="-328" font-family="Helvetica,sans-Serif" font-size="10.00">pprev</text>
</g>
<!-- Node22 -->
<g id="node21" class="node"><title>Node22</title>
<g id="a_node21"><a xlink:href="classarith__uint256.html" target="_top" xlink:title="256&#45;bit unsigned big integer. ">
<polygon fill="white" stroke="black" points="314,-287.5 314,-306.5 394,-306.5 394,-287.5 314,-287.5"/>
<text text-anchor="middle" x="354" y="-294.5" font-family="Helvetica,sans-Serif" font-size="10.00">arith_uint256</text>
</a>
</g>
</g>
<!-- Node22&#45;&gt;Node21 -->
<g id="edge26" class="edge"><title>Node22&#45;&gt;Node21</title>
<path fill="none" stroke="#9a32cd" stroke-dasharray="5,2" d="M404.257,-297C443.866,-297 498.606,-297 534.275,-297"/>
<polygon fill="#9a32cd" stroke="#9a32cd" points="404.025,-293.5 394.025,-297 404.025,-300.5 404.025,-293.5"/>
<text text-anchor="middle" x="456" y="-300" font-family="Helvetica,sans-Serif" font-size="10.00"> nChainWork</text>
</g>
<!-- Node23 -->
<g id="node22" class="node"><title>Node23</title>
<g id="a_node22"><a xlink:href="classbase__uint.html" target="_top" xlink:title="base_uint\&lt; 256 \&gt;">
<polygon fill="white" stroke="black" points="160.5,-287.5 160.5,-306.5 264.5,-306.5 264.5,-287.5 160.5,-287.5"/>
<text text-anchor="middle" x="212.5" y="-294.5" font-family="Helvetica,sans-Serif" font-size="10.00">base_uint&lt; 256 &gt;</text>
</a>
</g>
</g>
<!-- Node23&#45;&gt;Node22 -->
<g id="edge27" class="edge"><title>Node23&#45;&gt;Node22</title>
<path fill="none" stroke="midnightblue" d="M274.655,-297C287.883,-297 301.53,-297 313.654,-297"/>
<polygon fill="midnightblue" stroke="midnightblue" points="274.653,-293.5 264.653,-297 274.652,-300.5 274.653,-293.5"/>
</g>
<!-- Node24 -->
<g id="node23" class="node"><title>Node24</title>
<g id="a_node23"><a xlink:href="class_c_fee_rate.html" target="_top" xlink:title="Fee rate in satoshis per kilobyte: CAmount / kB. ">
<polygon fill="white" stroke="black" points="1003,-247.5 1003,-266.5 1065,-266.5 1065,-247.5 1003,-247.5"/>
<text text-anchor="middle" x="1034" y="-254.5" font-family="Helvetica,sans-Serif" font-size="10.00">CFeeRate</text>
</a>
</g>
</g>
<!-- Node24&#45;&gt;Node10 -->
<g id="edge29" class="edge"><title>Node24&#45;&gt;Node10</title>
<path fill="none" stroke="#9a32cd" stroke-dasharray="5,2" d="M1075.24,-253.471C1107.89,-249.466 1154.5,-241.111 1192,-224 1210.86,-215.395 1229.36,-199.758 1240.22,-189.63"/>
<polygon fill="#9a32cd" stroke="#9a32cd" points="1074.69,-250.011 1065.15,-254.624 1075.49,-256.966 1074.69,-250.011"/>
<text text-anchor="middle" x="1150" y="-274" font-family="Helvetica,sans-Serif" font-size="10.00"> m_discard_rate</text>
<text text-anchor="middle" x="1150" y="-263" font-family="Helvetica,sans-Serif" font-size="10.00">minTxFee</text>
<text text-anchor="middle" x="1150" y="-252" font-family="Helvetica,sans-Serif" font-size="10.00">fallbackFee</text>
</g>
<!-- Node25 -->
<g id="node24" class="node"><title>Node25</title>
<g id="a_node24"><a xlink:href="class_wallet_batch.html" target="_top" xlink:title="Access to the wallet database. ">
<polygon fill="white" stroke="black" points="998,-209.5 998,-228.5 1070,-228.5 1070,-209.5 998,-209.5"/>
<text text-anchor="middle" x="1034" y="-216.5" font-family="Helvetica,sans-Serif" font-size="10.00">WalletBatch</text>
</a>
</g>
</g>
<!-- Node25&#45;&gt;Node10 -->
<g id="edge31" class="edge"><title>Node25&#45;&gt;Node10</title>
<path fill="none" stroke="#9a32cd" stroke-dasharray="5,2" d="M1080.27,-212.758C1111.72,-208.185 1154.55,-201.489 1192,-194 1202.97,-191.806 1215.01,-188.972 1225.26,-186.428"/>
<polygon fill="#9a32cd" stroke="#9a32cd" points="1079.46,-209.338 1070.06,-214.226 1080.46,-216.267 1079.46,-209.338"/>
<text text-anchor="middle" x="1150" y="-212" font-family="Helvetica,sans-Serif" font-size="10.00"> encrypted_batch</text>
</g>
<!-- Node26 -->
<g id="node25" class="node"><title>Node26</title>
<g id="a_node25"><a xlink:href="class_berkeley_batch.html" target="_top" xlink:title="RAII class that provides access to a Berkeley database. ">
<polygon fill="white" stroke="black" points="722.5,-220.5 722.5,-239.5 808.5,-239.5 808.5,-220.5 722.5,-220.5"/>
<text text-anchor="middle" x="765.5" y="-227.5" font-family="Helvetica,sans-Serif" font-size="10.00">BerkeleyBatch</text>
</a>
</g>
</g>
<!-- Node26&#45;&gt;Node25 -->
<g id="edge32" class="edge"><title>Node26&#45;&gt;Node25</title>
<path fill="none" stroke="#9a32cd" stroke-dasharray="5,2" d="M818.925,-227.836C871.826,-225.653 952.043,-222.342 997.778,-220.454"/>
<polygon fill="#9a32cd" stroke="#9a32cd" points="818.575,-224.347 808.728,-228.257 818.864,-231.342 818.575,-224.347"/>
<text text-anchor="middle" x="899.5" y="-230" font-family="Helvetica,sans-Serif" font-size="10.00"> m_batch</text>
</g>
<!-- Node27 -->
<g id="node26" class="node"><title>Node27</title>
<g id="a_node26"><a xlink:href="class_berkeley_environment.html" target="_top" xlink:title="BerkeleyEnvironment">
<polygon fill="white" stroke="black" points="512,-240.5 512,-259.5 631,-259.5 631,-240.5 512,-240.5"/>
<text text-anchor="middle" x="571.5" y="-247.5" font-family="Helvetica,sans-Serif" font-size="10.00">BerkeleyEnvironment</text>
</a>
</g>
</g>
<!-- Node27&#45;&gt;Node26 -->
<g id="edge33" class="edge"><title>Node27&#45;&gt;Node26</title>
<path fill="none" stroke="#9a32cd" stroke-dasharray="5,2" d="M641.35,-242.828C668.418,-240.009 698.624,-236.862 722.346,-234.391"/>
<polygon fill="#9a32cd" stroke="#9a32cd" points="640.733,-239.373 631.15,-243.891 641.458,-246.336 640.733,-239.373"/>
<text text-anchor="middle" x="670.5" y="-245" font-family="Helvetica,sans-Serif" font-size="10.00"> env</text>
</g>
<!-- Node28 -->
<g id="node27" class="node"><title>Node28</title>
<g id="a_node27"><a xlink:href="class_berkeley_database.html" target="_top" xlink:title="An instance of this class represents one database. ">
<polygon fill="white" stroke="black" points="713.5,-258.5 713.5,-277.5 817.5,-277.5 817.5,-258.5 713.5,-258.5"/>
<text text-anchor="middle" x="765.5" y="-265.5" font-family="Helvetica,sans-Serif" font-size="10.00">BerkeleyDatabase</text>
</a>
</g>
</g>
<!-- Node27&#45;&gt;Node28 -->
<g id="edge35" class="edge"><title>Node27&#45;&gt;Node28</title>
<path fill="none" stroke="#9a32cd" stroke-dasharray="5,2" d="M641.18,-256.439C664.978,-258.67 691.219,-261.13 713.355,-263.205"/>
<polygon fill="#9a32cd" stroke="#9a32cd" points="641.433,-252.947 631.15,-255.498 640.779,-259.917 641.433,-252.947"/>
<text text-anchor="middle" x="670.5" y="-265" font-family="Helvetica,sans-Serif" font-size="10.00"> env</text>
</g>
<!-- Node28&#45;&gt;Node25 -->
<g id="edge34" class="edge"><title>Node28&#45;&gt;Node25</title>
<path fill="none" stroke="#9a32cd" stroke-dasharray="5,2" d="M827.816,-262.481C866.107,-258.365 916.268,-251.752 960,-242 975.693,-238.501 992.859,-233.171 1006.6,-228.523"/>
<polygon fill="#9a32cd" stroke="#9a32cd" points="827.429,-259.002 817.848,-263.525 828.158,-265.964 827.429,-259.002"/>
<text text-anchor="middle" x="899.5" y="-265" font-family="Helvetica,sans-Serif" font-size="10.00"> m_database</text>
</g>
<!-- Node29&#45;&gt;Node6 -->
<g id="edge38" class="edge"><title>Node29&#45;&gt;Node6</title>
<path fill="none" stroke="#9a32cd" stroke-dasharray="5,2" d="M1773.75,-286.302C1756.93,-302.58 1729.49,-326.297 1701,-339 1647.41,-362.895 1627.81,-347.307 1571,-362 1546.26,-368.399 1518.75,-378.136 1499.54,-385.377"/>
<polygon fill="#9a32cd" stroke="#9a32cd" points="1776.48,-288.52 1781.11,-278.989 1771.55,-283.554 1776.48,-288.52"/>
<text text-anchor="middle" x="1636" y="-365" font-family="Helvetica,sans-Serif" font-size="10.00"> addressTableModel</text>
</g>
<!-- Node29&#45;&gt;Node30 -->
<g id="edge41" class="edge"><title>Node29&#45;&gt;Node30</title>
<path fill="none" stroke="#9a32cd" stroke-dasharray="5,2" d="M1855.82,-258.099C1883.94,-253.259 1916.47,-247.659 1942.45,-243.185"/>
<polygon fill="#9a32cd" stroke="#9a32cd" points="1854.95,-254.698 1845.69,-259.844 1856.14,-261.597 1854.95,-254.698"/>
<text text-anchor="middle" x="1899.5" y="-257" font-family="Helvetica,sans-Serif" font-size="10.00"> parent</text>
</g>
<!-- Node30&#45;&gt;Node29 -->
<g id="edge40" class="edge"><title>Node30&#45;&gt;Node29</title>
<path fill="none" stroke="#9a32cd" stroke-dasharray="5,2" d="M1931.89,-231.888C1915.64,-232.003 1898.04,-233.061 1882,-236 1857.08,-240.568 1829.98,-251.463 1812.2,-259.491"/>
<polygon fill="#9a32cd" stroke="#9a32cd" points="1932.33,-235.39 1942.35,-231.937 1932.37,-228.39 1932.33,-235.39"/>
<text text-anchor="middle" x="1899.5" y="-239" font-family="Helvetica,sans-Serif" font-size="10.00"> priv</text>
</g>
<!-- Node31&#45;&gt;Node6 -->
<g id="edge45" class="edge"><title>Node31&#45;&gt;Node6</title>
<path fill="none" stroke="#9a32cd" stroke-dasharray="5,2" d="M1736.07,-440.223C1691.22,-447.513 1626.24,-453.552 1571,-441 1540.18,-433.998 1507.7,-415.826 1489.53,-404.53"/>
<polygon fill="#9a32cd" stroke="#9a32cd" points="1736.9,-443.632 1746.17,-438.505 1735.72,-436.731 1736.9,-443.632"/>
<text text-anchor="middle" x="1636" y="-452" font-family="Helvetica,sans-Serif" font-size="10.00"> recentRequestsTableModel</text>
</g>
<!-- Node32 -->
<g id="node31" class="node"><title>Node32</title>
<g id="a_node31"><a xlink:href="class_options_model.html" target="_top" xlink:title="Interface from Qt to configuration data structure for Bitcoin client. ">
<polygon fill="white" stroke="black" points="1210,-385.5 1210,-404.5 1292,-404.5 1292,-385.5 1210,-385.5"/>
<text text-anchor="middle" x="1251" y="-392.5" font-family="Helvetica,sans-Serif" font-size="10.00">OptionsModel</text>
</a>
</g>
</g>
<!-- Node32&#45;&gt;Node6 -->
<g id="edge48" class="edge"><title>Node32&#45;&gt;Node6</title>
<path fill="none" stroke="#9a32cd" stroke-dasharray="5,2" d="M1302.12,-395C1343.31,-395 1400.64,-395 1437.29,-395"/>
<polygon fill="#9a32cd" stroke="#9a32cd" points="1302.02,-391.5 1292.02,-395 1302.02,-398.5 1302.02,-391.5"/>
<text text-anchor="middle" x="1343.5" y="-398" font-family="Helvetica,sans-Serif" font-size="10.00"> optionsModel</text>
</g>
<!-- Node33 -->
<g id="node32" class="node"><title>Node33</title>
<polygon fill="white" stroke="#bfbfbf" points="979,-385.5 979,-404.5 1089,-404.5 1089,-385.5 979,-385.5"/>
<text text-anchor="middle" x="1034" y="-392.5" font-family="Helvetica,sans-Serif" font-size="10.00">QAbstractListModel</text>
</g>
<!-- Node33&#45;&gt;Node32 -->
<g id="edge49" class="edge"><title>Node33&#45;&gt;Node32</title>
<path fill="none" stroke="midnightblue" d="M1099.61,-395C1135.38,-395 1178.73,-395 1209.68,-395"/>
<polygon fill="midnightblue" stroke="midnightblue" points="1099.25,-391.5 1089.25,-395 1099.25,-398.5 1099.25,-391.5"/>
</g>
</g>
</svg>
