<?xml version="1.0" encoding="UTF-8" standalone="no"?>
<!DOCTYPE svg PUBLIC "-//W3C//DTD SVG 1.1//EN"
 "http://www.w3.org/Graphics/SVG/1.1/DTD/svg11.dtd">
<!-- Generated by graphviz version 2.38.0 (20140413.2041)
 -->
<!-- Title: CActiveMasternode::ManageStateInitial Pages: 1 -->
<!--zoomable 280 -->
<svg id="main" version="1.1" xmlns="http://www.w3.org/2000/svg" xmlns:xlink="http://www.w3.org/1999/xlink" xml:space="preserve" onload="init(evt)">
<style type="text/css"><![CDATA[
.edge:hover path { stroke: red; }
.edge:hover polygon { stroke: red; fill: red; }
]]></style>
<script type="text/javascript"><![CDATA[
var edges = document.getElementsByTagName('g');
if (edges && edges.length) {
  for (var i=0;i<edges.length;i++) {
    if (edges[i].id.substr(0,4)=='edge') {
      edges[i].setAttribute('class','edge');
    }
  }
}
]]></script>
        <defs>
                <circle id="rim" cx="0" cy="0" r="7"/>
                <circle id="rim2" cx="0" cy="0" r="3.5"/>
                <g id="zoomPlus">
                        <use xlink:href="#rim" fill="#404040">
                                <set attributeName="fill" to="#808080" begin="zoomplus.mouseover" end="zoomplus.mouseout"/>
                        </use>
                        <path d="M-4,0h8M0,-4v8" fill="none" stroke="white" stroke-width="1.5" pointer-events="none"/>
                </g>
                <g id="zoomMin">
                        <use xlink:href="#rim" fill="#404040">
                                <set attributeName="fill" to="#808080" begin="zoomminus.mouseover" end="zoomminus.mouseout"/>
                        </use>
                        <path d="M-4,0h8" fill="none" stroke="white" stroke-width="1.5" pointer-events="none"/>
                </g>
                <g id="dirArrow">
                        <path fill="none" stroke="white" stroke-width="1.5" d="M0,-3.0v7 M-2.5,-0.5L0,-3.0L2.5,-0.5"/>
                </g>
               <g id="resetDef">
                       <use xlink:href="#rim2" fill="#404040">
                               <set attributeName="fill" to="#808080" begin="reset.mouseover" end="reset.mouseout"/>
                       </use>
               </g>
        </defs>

<script type="text/javascript">
var viewWidth = 1986;
var viewHeight = 280;
var sectionId = 'dynsection-8';
</script>
<script xlink:href="svgpan.js"/>
<svg id="graph" class="graph">
<g id="viewport">
<title>CActiveMasternode::ManageStateInitial</title>
<polygon fill="white" stroke="none" points="-4,4 -4,-275.5 1982,-275.5 1982,4 -4,4"/>
<!-- Node427 -->
<g id="node1" class="node"><title>Node427</title>
<polygon fill="#bfbfbf" stroke="black" points="0,-142.5 0,-172.5 109,-172.5 109,-142.5 0,-142.5"/>
<text text-anchor="start" x="8" y="-160.5" font-family="Helvetica,sans-Serif" font-size="10.00">CActiveMasternode::</text>
<text text-anchor="middle" x="54.5" y="-149.5" font-family="Helvetica,sans-Serif" font-size="10.00">ManageStateInitial</text>
</g>
<!-- Node428 -->
<g id="node2" class="node"><title>Node428</title>
<g id="a_node2"><a xlink:href="class_c_active_masternode.html#aa34e5cadd8539d8be6f7a606aa1407c6" target="_top" xlink:title="Manage state of active Masternode. ">
<polygon fill="white" stroke="black" points="145,-142.5 145,-172.5 254,-172.5 254,-142.5 145,-142.5"/>
<text text-anchor="start" x="153" y="-160.5" font-family="Helvetica,sans-Serif" font-size="10.00">CActiveMasternode::</text>
<text text-anchor="middle" x="199.5" y="-149.5" font-family="Helvetica,sans-Serif" font-size="10.00">ManageState</text>
</a>
</g>
</g>
<!-- Node427&#45;&gt;Node428 -->
<g id="edge1" class="edge"><title>Node427&#45;&gt;Node428</title>
<path fill="none" stroke="midnightblue" d="M119.324,-157.5C127.745,-157.5 136.31,-157.5 144.545,-157.5"/>
<polygon fill="midnightblue" stroke="midnightblue" points="119.155,-154 109.155,-157.5 119.155,-161 119.155,-154"/>
</g>
<!-- Node429 -->
<g id="node3" class="node"><title>Node429</title>
<g id="a_node3"><a xlink:href="class_c_masternode_man.html#a66994623de992c0c4680a95096f3936c" target="_top" xlink:title="Perform complete check and only then update list and maps. ">
<polygon fill="white" stroke="black" points="636,-208.5 636,-238.5 783,-238.5 783,-208.5 636,-208.5"/>
<text text-anchor="start" x="644" y="-226.5" font-family="Helvetica,sans-Serif" font-size="10.00">CMasternodeMan::CheckMnb</text>
<text text-anchor="middle" x="709.5" y="-215.5" font-family="Helvetica,sans-Serif" font-size="10.00">AndUpdateMasternodeList</text>
</a>
</g>
</g>
<!-- Node428&#45;&gt;Node429 -->
<g id="edge2" class="edge"><title>Node428&#45;&gt;Node429</title>
<path fill="none" stroke="midnightblue" d="M232.021,-177.912C248.587,-187.525 269.636,-198.055 290,-203.5 408.055,-235.064 551.396,-233.814 635.993,-229.224"/>
<polygon fill="midnightblue" stroke="midnightblue" points="233.691,-174.832 223.313,-172.704 230.099,-180.84 233.691,-174.832"/>
</g>
<!-- Node432 -->
<g id="node6" class="node"><title>Node432</title>
<g id="a_node6"><a xlink:href="privatesend_8h.html#a8ca12ada145ba86ddcba18018b77db14" target="_top" xlink:title="ThreadCheckPrivateSend">
<polygon fill="white" stroke="black" points="1031,-126 1031,-145 1159,-145 1159,-126 1031,-126"/>
<text text-anchor="middle" x="1095" y="-133" font-family="Helvetica,sans-Serif" font-size="10.00">ThreadCheckPrivateSend</text>
</a>
</g>
</g>
<!-- Node428&#45;&gt;Node432 -->
<g id="edge29" class="edge"><title>Node428&#45;&gt;Node432</title>
<path fill="none" stroke="midnightblue" d="M264.29,-150.886C332.371,-144.407 443.432,-135.5 539.5,-135.5 539.5,-135.5 539.5,-135.5 710.5,-135.5 823.353,-135.5 954.886,-135.5 1030.89,-135.5"/>
<polygon fill="midnightblue" stroke="midnightblue" points="263.771,-147.42 254.153,-151.863 264.443,-154.387 263.771,-147.42"/>
</g>
<!-- Node446 -->
<g id="node20" class="node"><title>Node446</title>
<g id="a_node20"><a xlink:href="class_c_masternode_sync.html#aeb86906ef4095e9f55b2d672ad6bf491" target="_top" xlink:title="CMasternodeSync::SwitchTo\lNextAsset">
<polygon fill="white" stroke="black" points="637,-60.5 637,-90.5 782,-90.5 782,-60.5 637,-60.5"/>
<text text-anchor="start" x="645" y="-78.5" font-family="Helvetica,sans-Serif" font-size="10.00">CMasternodeSync::SwitchTo</text>
<text text-anchor="middle" x="709.5" y="-67.5" font-family="Helvetica,sans-Serif" font-size="10.00">NextAsset</text>
</a>
</g>
</g>
<!-- Node428&#45;&gt;Node446 -->
<g id="edge21" class="edge"><title>Node428&#45;&gt;Node446</title>
<path fill="none" stroke="midnightblue" d="M241.568,-138.245C256.519,-131.973 273.743,-125.581 290,-121.5 409.279,-91.5565 552.541,-81.1028 636.74,-77.4544"/>
<polygon fill="midnightblue" stroke="midnightblue" points="239.903,-135.152 232.105,-142.325 242.673,-141.58 239.903,-135.152"/>
</g>
<!-- Node452 -->
<g id="node26" class="node"><title>Node452</title>
<g id="a_node26"><a xlink:href="class_c_masternode.html#aaa6d2de9c88179cd210f956ec72b1b6b" target="_top" xlink:title="CMasternode::UpdateFromNew\lBroadcast">
<polygon fill="white" stroke="black" points="290,-164.5 290,-194.5 445,-194.5 445,-164.5 290,-164.5"/>
<text text-anchor="start" x="298" y="-182.5" font-family="Helvetica,sans-Serif" font-size="10.00">CMasternode::UpdateFromNew</text>
<text text-anchor="middle" x="367.5" y="-171.5" font-family="Helvetica,sans-Serif" font-size="10.00">Broadcast</text>
</a>
</g>
</g>
<!-- Node428&#45;&gt;Node452 -->
<g id="edge30" class="edge"><title>Node428&#45;&gt;Node452</title>
<path fill="none" stroke="midnightblue" d="M264.431,-165.973C272.79,-167.081 281.421,-168.225 289.961,-169.356"/>
<polygon fill="midnightblue" stroke="midnightblue" points="264.769,-162.487 254.395,-164.643 263.849,-169.426 264.769,-162.487"/>
</g>
<!-- Node430 -->
<g id="node4" class="node"><title>Node430</title>
<g id="a_node4"><a xlink:href="server_8h.html#a7ae813efd78b542bd5e3cddb01174777" target="_top" xlink:title="masternodebroadcast">
<polygon fill="white" stroke="black" points="852,-214 852,-233 962,-233 962,-214 852,-214"/>
<text text-anchor="middle" x="907" y="-221" font-family="Helvetica,sans-Serif" font-size="10.00">masternodebroadcast</text>
</a>
</g>
</g>
<!-- Node429&#45;&gt;Node430 -->
<g id="edge3" class="edge"><title>Node429&#45;&gt;Node430</title>
<path fill="none" stroke="midnightblue" d="M793.021,-223.5C812.932,-223.5 833.708,-223.5 851.933,-223.5"/>
<polygon fill="midnightblue" stroke="midnightblue" points="793.019,-220 783.019,-223.5 793.019,-227 793.019,-220"/>
</g>
<!-- Node431 -->
<g id="node5" class="node"><title>Node431</title>
<g id="a_node5"><a xlink:href="class_c_masternode_man.html#a09302023fe1dca8be33e34d1ece9d27f" target="_top" xlink:title="Check all Masternodes and remove inactive. ">
<polygon fill="white" stroke="black" points="834,-164.5 834,-194.5 980,-194.5 980,-164.5 834,-164.5"/>
<text text-anchor="start" x="842" y="-182.5" font-family="Helvetica,sans-Serif" font-size="10.00">CMasternodeMan::CheckAnd</text>
<text text-anchor="middle" x="907" y="-171.5" font-family="Helvetica,sans-Serif" font-size="10.00">Remove</text>
</a>
</g>
</g>
<!-- Node429&#45;&gt;Node431 -->
<g id="edge4" class="edge"><title>Node429&#45;&gt;Node431</title>
<path fill="none" stroke="midnightblue" d="M787.227,-206.232C804.407,-202.365 822.498,-198.293 839.236,-194.526"/>
<polygon fill="midnightblue" stroke="midnightblue" points="786.221,-202.87 777.233,-208.481 787.758,-209.7 786.221,-202.87"/>
</g>
<!-- Node437 -->
<g id="node11" class="node"><title>Node437</title>
<g id="a_node11"><a xlink:href="class_c_masternode_man.html#ae8534b13438b5a2166854a6d35d99bac" target="_top" xlink:title="CMasternodeMan::ProcessMessage">
<polygon fill="white" stroke="black" points="819,-252 819,-271 995,-271 995,-252 819,-252"/>
<text text-anchor="middle" x="907" y="-259" font-family="Helvetica,sans-Serif" font-size="10.00">CMasternodeMan::ProcessMessage</text>
</a>
</g>
</g>
<!-- Node429&#45;&gt;Node437 -->
<g id="edge10" class="edge"><title>Node429&#45;&gt;Node437</title>
<path fill="none" stroke="midnightblue" d="M792.953,-239.527C814.769,-243.767 837.627,-248.21 857.035,-251.983"/>
<polygon fill="midnightblue" stroke="midnightblue" points="793.503,-236.068 783.019,-237.596 792.168,-242.94 793.503,-236.068"/>
</g>
<!-- Node431&#45;&gt;Node432 -->
<g id="edge5" class="edge"><title>Node431&#45;&gt;Node432</title>
<path fill="none" stroke="midnightblue" d="M981.539,-162.104C1006.16,-156.279 1032.69,-150.005 1053.79,-145.012"/>
<polygon fill="midnightblue" stroke="midnightblue" points="980.416,-158.773 971.49,-164.481 982.028,-165.585 980.416,-158.773"/>
</g>
<!-- Node433 -->
<g id="node7" class="node"><title>Node433</title>
<g id="a_node7"><a xlink:href="init_8h.html#a6f0784aa332573f949b0975205572b28" target="_top" xlink:title="Initialize Dash Core. ">
<polygon fill="white" stroke="black" points="1533.5,-126 1533.5,-145 1586.5,-145 1586.5,-126 1533.5,-126"/>
<text text-anchor="middle" x="1560" y="-133" font-family="Helvetica,sans-Serif" font-size="10.00">AppInit2</text>
</a>
</g>
</g>
<!-- Node432&#45;&gt;Node433 -->
<g id="edge6" class="edge"><title>Node432&#45;&gt;Node433</title>
<path fill="none" stroke="midnightblue" d="M1169.67,-135.5C1275.3,-135.5 1464.6,-135.5 1533.25,-135.5"/>
<polygon fill="midnightblue" stroke="midnightblue" points="1169.41,-132 1159.41,-135.5 1169.41,-139 1169.41,-132"/>
</g>
<!-- Node434 -->
<g id="node8" class="node"><title>Node434</title>
<g id="a_node8"><a xlink:href="dashd_8cpp.html#ac59316b767e6984e1285f0531275286b" target="_top" xlink:title="AppInit">
<polygon fill="white" stroke="black" points="1822.5,-173 1822.5,-192 1869.5,-192 1869.5,-173 1822.5,-173"/>
<text text-anchor="middle" x="1846" y="-180" font-family="Helvetica,sans-Serif" font-size="10.00">AppInit</text>
</a>
</g>
</g>
<!-- Node433&#45;&gt;Node434 -->
<g id="edge7" class="edge"><title>Node433&#45;&gt;Node434</title>
<path fill="none" stroke="midnightblue" d="M1596.73,-141.414C1656.03,-151.227 1773.11,-170.603 1822.35,-178.751"/>
<polygon fill="midnightblue" stroke="midnightblue" points="1597.14,-137.934 1586.7,-139.754 1596,-144.84 1597.14,-137.934"/>
</g>
<!-- Node436 -->
<g id="node10" class="node"><title>Node436</title>
<g id="a_node10"><a xlink:href="class_bitcoin_core.html#af34ca069cda1d4362dcc109b4397fb62" target="_top" xlink:title="BitcoinCore::initialize">
<polygon fill="white" stroke="black" points="1643,-116 1643,-135 1752,-135 1752,-116 1643,-116"/>
<text text-anchor="middle" x="1697.5" y="-123" font-family="Helvetica,sans-Serif" font-size="10.00">BitcoinCore::initialize</text>
</a>
</g>
</g>
<!-- Node433&#45;&gt;Node436 -->
<g id="edge9" class="edge"><title>Node433&#45;&gt;Node436</title>
<path fill="none" stroke="midnightblue" d="M1597.01,-132.842C1611.03,-131.808 1627.38,-130.601 1642.74,-129.468"/>
<polygon fill="midnightblue" stroke="midnightblue" points="1596.52,-129.369 1586.81,-133.596 1597.04,-136.35 1596.52,-129.369"/>
</g>
<!-- Node435 -->
<g id="node9" class="node"><title>Node435</title>
<g id="a_node9"><a xlink:href="dashd_8cpp.html#a0ddf1224851353fc92bfbff6f499fa97" target="_top" xlink:title="main">
<polygon fill="white" stroke="black" points="1940,-173 1940,-192 1978,-192 1978,-173 1940,-173"/>
<text text-anchor="middle" x="1959" y="-180" font-family="Helvetica,sans-Serif" font-size="10.00">main</text>
</a>
</g>
</g>
<!-- Node434&#45;&gt;Node435 -->
<g id="edge8" class="edge"><title>Node434&#45;&gt;Node435</title>
<path fill="none" stroke="midnightblue" d="M1879.77,-182.5C1899.33,-182.5 1923.46,-182.5 1939.7,-182.5"/>
<polygon fill="midnightblue" stroke="midnightblue" points="1879.73,-179 1869.73,-182.5 1879.73,-186 1879.73,-179"/>
</g>
<!-- Node438 -->
<g id="node12" class="node"><title>Node438</title>
<g id="a_node12"><a xlink:href="net__processing_8cpp.html#a193d0ece6e2f2f7ee37352ac9720bb83" target="_top" xlink:title="ProcessMessage">
<polygon fill="white" stroke="black" points="1049,-245 1049,-264 1141,-264 1141,-245 1049,-245"/>
<text text-anchor="middle" x="1095" y="-252" font-family="Helvetica,sans-Serif" font-size="10.00">ProcessMessage</text>
</a>
</g>
</g>
<!-- Node437&#45;&gt;Node438 -->
<g id="edge11" class="edge"><title>Node437&#45;&gt;Node438</title>
<path fill="none" stroke="midnightblue" d="M1005.01,-257.849C1020.23,-257.276 1035.3,-256.709 1048.6,-256.209"/>
<polygon fill="midnightblue" stroke="midnightblue" points="1004.87,-254.352 995.01,-258.225 1005.13,-261.347 1004.87,-254.352"/>
</g>
<!-- Node439 -->
<g id="node13" class="node"><title>Node439</title>
<g id="a_node13"><a xlink:href="net__processing_8h.html#a7fa42e7ffd6e6ba5b7537af248e30fc8" target="_top" xlink:title="Process protocol messages received from a given node. ">
<polygon fill="white" stroke="black" points="1210.5,-220 1210.5,-239 1308.5,-239 1308.5,-220 1210.5,-220"/>
<text text-anchor="middle" x="1259.5" y="-227" font-family="Helvetica,sans-Serif" font-size="10.00">ProcessMessages</text>
</a>
</g>
</g>
<!-- Node438&#45;&gt;Node439 -->
<g id="edge12" class="edge"><title>Node438&#45;&gt;Node439</title>
<path fill="none" stroke="midnightblue" d="M1151.36,-245.983C1170.52,-243.036 1191.82,-239.758 1210.35,-236.907"/>
<polygon fill="midnightblue" stroke="midnightblue" points="1150.62,-242.556 1141.27,-247.536 1151.68,-249.475 1150.62,-242.556"/>
</g>
<!-- Node440 -->
<g id="node14" class="node"><title>Node440</title>
<g id="a_node14"><a xlink:href="net__processing_8h.html#ab02615ff65f91d69f8d786ec900baa8a" target="_top" xlink:title="Register with a network node to receive its signals. ">
<polygon fill="white" stroke="black" points="1364,-176 1364,-195 1473,-195 1473,-176 1364,-176"/>
<text text-anchor="middle" x="1418.5" y="-183" font-family="Helvetica,sans-Serif" font-size="10.00">RegisterNodeSignals</text>
</a>
</g>
</g>
<!-- Node439&#45;&gt;Node440 -->
<g id="edge13" class="edge"><title>Node439&#45;&gt;Node440</title>
<path fill="none" stroke="midnightblue" d="M1304.2,-217.252C1329.27,-210.228 1360.27,-201.54 1383.5,-195.029"/>
<polygon fill="midnightblue" stroke="midnightblue" points="1303.25,-213.884 1294.57,-219.953 1305.14,-220.624 1303.25,-213.884"/>
</g>
<!-- Node441 -->
<g id="node15" class="node"><title>Node441</title>
<g id="a_node15"><a xlink:href="net__processing_8h.html#a3ef0cc6e9d9d6435ee2a5569244d6ebd" target="_top" xlink:title="Unregister a network node. ">
<polygon fill="white" stroke="black" points="1360,-220 1360,-239 1477,-239 1477,-220 1360,-220"/>
<text text-anchor="middle" x="1418.5" y="-227" font-family="Helvetica,sans-Serif" font-size="10.00">UnregisterNodeSignals</text>
</a>
</g>
</g>
<!-- Node439&#45;&gt;Node441 -->
<g id="edge15" class="edge"><title>Node439&#45;&gt;Node441</title>
<path fill="none" stroke="midnightblue" d="M1318.93,-229.5C1332.32,-229.5 1346.54,-229.5 1359.9,-229.5"/>
<polygon fill="midnightblue" stroke="midnightblue" points="1318.89,-226 1308.89,-229.5 1318.89,-233 1318.89,-226"/>
</g>
<!-- Node440&#45;&gt;Node433 -->
<g id="edge14" class="edge"><title>Node440&#45;&gt;Node433</title>
<path fill="none" stroke="midnightblue" d="M1455.7,-172.526C1480.1,-163.781 1511.68,-152.459 1533.47,-144.649"/>
<polygon fill="midnightblue" stroke="midnightblue" points="1454.3,-169.309 1446.07,-175.978 1456.66,-175.898 1454.3,-169.309"/>
</g>
<!-- Node442 -->
<g id="node16" class="node"><title>Node442</title>
<g id="a_node16"><a xlink:href="init_8h.html#a5cb3db83cb0ba2e421f651a1ee1f2cfe" target="_top" xlink:title="Preparing steps before shutting down or restarting the wallet. ">
<polygon fill="white" stroke="black" points="1513,-220 1513,-239 1607,-239 1607,-220 1513,-220"/>
<text text-anchor="middle" x="1560" y="-227" font-family="Helvetica,sans-Serif" font-size="10.00">PrepareShutdown</text>
</a>
</g>
</g>
<!-- Node441&#45;&gt;Node442 -->
<g id="edge16" class="edge"><title>Node441&#45;&gt;Node442</title>
<path fill="none" stroke="midnightblue" d="M1487.13,-229.5C1495.77,-229.5 1504.45,-229.5 1512.65,-229.5"/>
<polygon fill="midnightblue" stroke="midnightblue" points="1487.05,-226 1477.05,-229.5 1487.05,-233 1487.05,-226"/>
</g>
<!-- Node443 -->
<g id="node17" class="node"><title>Node443</title>
<g id="a_node17"><a xlink:href="class_bitcoin_core.html#ac2271844c89ebc4c611e7617ce6202e3" target="_top" xlink:title="BitcoinCore::restart">
<polygon fill="white" stroke="black" points="1647,-192 1647,-211 1748,-211 1748,-192 1647,-192"/>
<text text-anchor="middle" x="1697.5" y="-199" font-family="Helvetica,sans-Serif" font-size="10.00">BitcoinCore::restart</text>
</a>
</g>
</g>
<!-- Node442&#45;&gt;Node443 -->
<g id="edge17" class="edge"><title>Node442&#45;&gt;Node443</title>
<path fill="none" stroke="midnightblue" d="M1617.25,-217.876C1628.31,-215.591 1639.78,-213.22 1650.46,-211.015"/>
<polygon fill="midnightblue" stroke="midnightblue" points="1616.34,-214.491 1607.25,-219.942 1617.75,-221.346 1616.34,-214.491"/>
</g>
<!-- Node444 -->
<g id="node18" class="node"><title>Node444</title>
<g id="a_node18"><a xlink:href="init_8h.html#ac5f038c2b480cf9ef5e19e3eba8dbaf9" target="_top" xlink:title="Shutdown is split into 2 parts: Part 1: shut down everything but the main wallet instance (done in Pr...">
<polygon fill="white" stroke="black" points="1667.5,-230 1667.5,-249 1727.5,-249 1727.5,-230 1667.5,-230"/>
<text text-anchor="middle" x="1697.5" y="-237" font-family="Helvetica,sans-Serif" font-size="10.00">Shutdown</text>
</a>
</g>
</g>
<!-- Node442&#45;&gt;Node444 -->
<g id="edge18" class="edge"><title>Node442&#45;&gt;Node444</title>
<path fill="none" stroke="midnightblue" d="M1617.25,-233.651C1634.5,-234.924 1652.76,-236.272 1667.41,-237.353"/>
<polygon fill="midnightblue" stroke="midnightblue" points="1617.48,-230.159 1607.25,-232.913 1616.97,-237.14 1617.48,-230.159"/>
</g>
<!-- Node444&#45;&gt;Node434 -->
<g id="edge19" class="edge"><title>Node444&#45;&gt;Node434</title>
<path fill="none" stroke="midnightblue" d="M1735.74,-226.525C1741.21,-224.547 1746.76,-222.499 1752,-220.5 1776.28,-211.234 1803.8,-199.881 1822.57,-192.01"/>
<polygon fill="midnightblue" stroke="midnightblue" points="1734.32,-223.318 1726.08,-229.981 1736.68,-229.909 1734.32,-223.318"/>
</g>
<!-- Node445 -->
<g id="node19" class="node"><title>Node445</title>
<g id="a_node19"><a xlink:href="class_bitcoin_core.html#a94f3f4622ba698e321f3a2e0e686129f" target="_top" xlink:title="BitcoinCore::shutdown">
<polygon fill="white" stroke="black" points="1788,-230 1788,-249 1904,-249 1904,-230 1788,-230"/>
<text text-anchor="middle" x="1846" y="-237" font-family="Helvetica,sans-Serif" font-size="10.00">BitcoinCore::shutdown</text>
</a>
</g>
</g>
<!-- Node444&#45;&gt;Node445 -->
<g id="edge20" class="edge"><title>Node444&#45;&gt;Node445</title>
<path fill="none" stroke="midnightblue" d="M1737.97,-239.5C1753.31,-239.5 1771.18,-239.5 1787.88,-239.5"/>
<polygon fill="midnightblue" stroke="midnightblue" points="1737.79,-236 1727.79,-239.5 1737.79,-243 1737.79,-236"/>
</g>
<!-- Node447 -->
<g id="node21" class="node"><title>Node447</title>
<g id="a_node21"><a xlink:href="class_c_masternode_sync.html#a3ac3b4bbb888145fb62f28bcf92d1b70" target="_top" xlink:title="CMasternodeSync::ProcessTick">
<polygon fill="white" stroke="black" points="828,-88 828,-107 986,-107 986,-88 828,-88"/>
<text text-anchor="middle" x="907" y="-95" font-family="Helvetica,sans-Serif" font-size="10.00">CMasternodeSync::ProcessTick</text>
</a>
</g>
</g>
<!-- Node446&#45;&gt;Node447 -->
<g id="edge22" class="edge"><title>Node446&#45;&gt;Node447</title>
<path fill="none" stroke="midnightblue" d="M792.376,-84.7136C804.081,-86.0309 816.098,-87.3832 827.732,-88.6924"/>
<polygon fill="midnightblue" stroke="midnightblue" points="792.516,-81.2074 782.187,-83.5671 791.733,-88.1635 792.516,-81.2074"/>
</g>
<!-- Node448 -->
<g id="node22" class="node"><title>Node448</title>
<g id="a_node22"><a xlink:href="class_c_masternode_sync.html#a95559186ad41a82fe42fd2cfbffca104" target="_top" xlink:title="CMasternodeSync::Updated\lBlockTip">
<polygon fill="white" stroke="black" points="837,-0.5 837,-30.5 977,-30.5 977,-0.5 837,-0.5"/>
<text text-anchor="start" x="845" y="-18.5" font-family="Helvetica,sans-Serif" font-size="10.00">CMasternodeSync::Updated</text>
<text text-anchor="middle" x="907" y="-7.5" font-family="Helvetica,sans-Serif" font-size="10.00">BlockTip</text>
</a>
</g>
</g>
<!-- Node446&#45;&gt;Node448 -->
<g id="edge24" class="edge"><title>Node446&#45;&gt;Node448</title>
<path fill="none" stroke="midnightblue" d="M765.848,-57.2661C782.862,-51.7634 801.67,-45.7835 819,-40.5 829.823,-37.2002 841.44,-33.779 852.548,-30.5657"/>
<polygon fill="midnightblue" stroke="midnightblue" points="764.493,-54.026 756.062,-60.4421 766.654,-60.6841 764.493,-54.026"/>
</g>
<!-- Node451 -->
<g id="node25" class="node"><title>Node451</title>
<g id="a_node25"><a xlink:href="server_8h.html#a2c332caf1997f143fc4477ca91df441d" target="_top" xlink:title="mnsync">
<polygon fill="white" stroke="black" points="881.5,-50 881.5,-69 932.5,-69 932.5,-50 881.5,-50"/>
<text text-anchor="middle" x="907" y="-57" font-family="Helvetica,sans-Serif" font-size="10.00">mnsync</text>
</a>
</g>
</g>
<!-- Node446&#45;&gt;Node451 -->
<g id="edge28" class="edge"><title>Node446&#45;&gt;Node451</title>
<path fill="none" stroke="midnightblue" d="M792.456,-68.7926C824.392,-66.1789 858.638,-63.3762 881.069,-61.5404"/>
<polygon fill="midnightblue" stroke="midnightblue" points="791.868,-65.3289 782.187,-69.633 792.439,-72.3056 791.868,-65.3289"/>
</g>
<!-- Node447&#45;&gt;Node432 -->
<g id="edge23" class="edge"><title>Node447&#45;&gt;Node432</title>
<path fill="none" stroke="midnightblue" d="M964.825,-109.11C991.279,-114.514 1022.36,-120.864 1047.4,-125.98"/>
<polygon fill="midnightblue" stroke="midnightblue" points="965.434,-105.662 954.936,-107.089 964.033,-112.52 965.434,-105.662"/>
</g>
<!-- Node449 -->
<g id="node23" class="node"><title>Node449</title>
<g id="a_node23"><a xlink:href="class_c_d_s_notification_interface.html#ac2ced383b75336649c5694e580b18164" target="_top" xlink:title="CDSNotificationInterface\l::UpdatedBlockTip">
<polygon fill="white" stroke="black" points="1032,-38.5 1032,-68.5 1158,-68.5 1158,-38.5 1032,-38.5"/>
<text text-anchor="start" x="1040" y="-56.5" font-family="Helvetica,sans-Serif" font-size="10.00">CDSNotificationInterface</text>
<text text-anchor="middle" x="1095" y="-45.5" font-family="Helvetica,sans-Serif" font-size="10.00">::UpdatedBlockTip</text>
</a>
</g>
</g>
<!-- Node448&#45;&gt;Node449 -->
<g id="edge25" class="edge"><title>Node448&#45;&gt;Node449</title>
<path fill="none" stroke="midnightblue" d="M987.424,-31.7263C1002.24,-34.7536 1017.53,-37.8768 1031.74,-40.7797"/>
<polygon fill="midnightblue" stroke="midnightblue" points="987.758,-28.2224 977.26,-29.6498 986.357,-35.0807 987.758,-28.2224"/>
</g>
<!-- Node450 -->
<g id="node24" class="node"><title>Node450</title>
<g id="a_node24"><a xlink:href="class_c_d_s_notification_interface.html#a2e9dff307e1373bda9ac9445f7f5a3d7" target="_top" xlink:title="CDSNotificationInterface\l::InitializeCurrentBlockTip">
<polygon fill="white" stroke="black" points="1195,-49.5 1195,-79.5 1324,-79.5 1324,-49.5 1195,-49.5"/>
<text text-anchor="start" x="1203" y="-67.5" font-family="Helvetica,sans-Serif" font-size="10.00">CDSNotificationInterface</text>
<text text-anchor="middle" x="1259.5" y="-56.5" font-family="Helvetica,sans-Serif" font-size="10.00">::InitializeCurrentBlockTip</text>
</a>
</g>
</g>
<!-- Node449&#45;&gt;Node450 -->
<g id="edge26" class="edge"><title>Node449&#45;&gt;Node450</title>
<path fill="none" stroke="midnightblue" d="M1168.59,-58.4141C1177.39,-59.0092 1186.31,-59.6135 1194.96,-60.1989"/>
<polygon fill="midnightblue" stroke="midnightblue" points="1168.58,-54.9049 1158.36,-57.7214 1168.1,-61.8889 1168.58,-54.9049"/>
</g>
<!-- Node450&#45;&gt;Node433 -->
<g id="edge27" class="edge"><title>Node450&#45;&gt;Node433</title>
<path fill="none" stroke="midnightblue" d="M1333.58,-81.8832C1398.49,-97.3222 1489.66,-119.007 1533.49,-129.433"/>
<polygon fill="midnightblue" stroke="midnightblue" points="1334.34,-78.4663 1323.8,-79.5573 1332.72,-85.2764 1334.34,-78.4663"/>
</g>
<!-- Node453 -->
<g id="node27" class="node"><title>Node453</title>
<g id="a_node27"><a xlink:href="class_c_masternode_broadcast.html#a42077f16c601f9804bc3b24fd602993c" target="_top" xlink:title="CMasternodeBroadcast\l::Update">
<polygon fill="white" stroke="black" points="481,-164.5 481,-194.5 600,-194.5 600,-164.5 481,-164.5"/>
<text text-anchor="start" x="489" y="-182.5" font-family="Helvetica,sans-Serif" font-size="10.00">CMasternodeBroadcast</text>
<text text-anchor="middle" x="540.5" y="-171.5" font-family="Helvetica,sans-Serif" font-size="10.00">::Update</text>
</a>
</g>
</g>
<!-- Node452&#45;&gt;Node453 -->
<g id="edge31" class="edge"><title>Node452&#45;&gt;Node453</title>
<path fill="none" stroke="midnightblue" d="M455.55,-179.5C464.125,-179.5 472.679,-179.5 480.866,-179.5"/>
<polygon fill="midnightblue" stroke="midnightblue" points="455.496,-176 445.496,-179.5 455.496,-183 455.496,-176"/>
</g>
<!-- Node453&#45;&gt;Node429 -->
<g id="edge32" class="edge"><title>Node453&#45;&gt;Node429</title>
<path fill="none" stroke="midnightblue" d="M608.278,-197.094C622.583,-200.863 637.571,-204.812 651.469,-208.474"/>
<polygon fill="midnightblue" stroke="midnightblue" points="609.067,-193.683 598.505,-194.519 607.283,-200.452 609.067,-193.683"/>
</g>
</g>
</svg>
        <g id="navigator" transform="translate(0 0)" fill="#404254">
                <rect fill="#f2f5e9" fill-opacity="0.5" stroke="#606060" stroke-width=".5" x="0" y="0" width="60" height="60"/>
                <use id="zoomplus" xlink:href="#zoomPlus" x="17" y="9" onmousedown="handleZoom(evt,'in')"/>
                <use id="zoomminus" xlink:href="#zoomMin" x="42" y="9" onmousedown="handleZoom(evt,'out')"/>
                <use id="reset" xlink:href="#resetDef" x="30" y="36" onmousedown="handleReset()"/>
                <g id="arrowUp" xlink:href="#dirArrow" transform="translate(30 24)" onmousedown="handlePan(0,-1)">
                  <use xlink:href="#rim" fill="#404040">
                        <set attributeName="fill" to="#808080" begin="arrowUp.mouseover" end="arrowUp.mouseout"/>
                  </use>
                  <path fill="none" stroke="white" stroke-width="1.5" d="M0,-3.0v7 M-2.5,-0.5L0,-3.0L2.5,-0.5"/>
                </g>
                <g id="arrowRight" xlink:href="#dirArrow" transform="rotate(90) translate(36 -43)" onmousedown="handlePan(1,0)">
                  <use xlink:href="#rim" fill="#404040">
                        <set attributeName="fill" to="#808080" begin="arrowRight.mouseover" end="arrowRight.mouseout"/>
                  </use>
                  <path fill="none" stroke="white" stroke-width="1.5" d="M0,-3.0v7 M-2.5,-0.5L0,-3.0L2.5,-0.5"/>
                </g>
                <g id="arrowDown" xlink:href="#dirArrow" transform="rotate(180) translate(-30 -48)" onmousedown="handlePan(0,1)">
                  <use xlink:href="#rim" fill="#404040">
                        <set attributeName="fill" to="#808080" begin="arrowDown.mouseover" end="arrowDown.mouseout"/>
                  </use>
                  <path fill="none" stroke="white" stroke-width="1.5" d="M0,-3.0v7 M-2.5,-0.5L0,-3.0L2.5,-0.5"/>
                </g>
                <g id="arrowLeft" xlink:href="#dirArrow" transform="rotate(270) translate(-36 17)" onmousedown="handlePan(-1,0)">
                  <use xlink:href="#rim" fill="#404040">
                        <set attributeName="fill" to="#808080" begin="arrowLeft.mouseover" end="arrowLeft.mouseout"/>
                  </use>
                  <path fill="none" stroke="white" stroke-width="1.5" d="M0,-3.0v7 M-2.5,-0.5L0,-3.0L2.5,-0.5"/>
                </g>
        </g>
        <svg viewBox="0 0 15 15" width="100%" height="30px" preserveAspectRatio="xMaxYMin meet">
         <g id="arrow_out" transform="scale(0.3 0.3)">
          <a xlink:href="class_c_active_masternode_a74c897543703253e78e74704550d8bb8_icgraph_org.svg" target="_base">
           <rect id="button" ry="5" rx="5" y="6" x="6" height="38" width="38"
                fill="#f2f5e9" fill-opacity="0.5" stroke="#606060" stroke-width="1.0"/>
           <path id="arrow"
             d="M 11.500037,31.436501 C 11.940474,20.09759 22.043105,11.32322 32.158766,21.979434 L 37.068811,17.246167 C 37.068811,17.246167 37.088388,32 37.088388,32 L 22.160133,31.978069 C 22.160133,31.978069 26.997745,27.140456 26.997745,27.140456 C 18.528582,18.264221 13.291696,25.230495 11.500037,31.436501 z"
             style="fill:#404040;"/>
          </a>
         </g>
        </svg>
</svg>
