<?xml version="1.0" encoding="UTF-8" standalone="no"?>
<!DOCTYPE svg PUBLIC "-//W3C//DTD SVG 1.1//EN"
 "http://www.w3.org/Graphics/SVG/1.1/DTD/svg11.dtd">
<!-- Generated by graphviz version 2.38.0 (20140413.2041)
 -->
<!-- Title: CConnman::GetAddedNodeInfo Pages: 1 -->
<svg width="1016pt" height="142pt"
 viewBox="0.00 0.00 1016.00 142.00" xmlns="http://www.w3.org/2000/svg" xmlns:xlink="http://www.w3.org/1999/xlink">
<g id="graph0" class="graph" transform="scale(1 1) rotate(0) translate(4 138)">
<title>CConnman::GetAddedNodeInfo</title>
<polygon fill="white" stroke="none" points="-4,4 -4,-138 1012,-138 1012,4 -4,4"/>
<!-- Node1380 -->
<g id="node1" class="node"><title>Node1380</title>
<polygon fill="#bfbfbf" stroke="black" points="0,-57.5 0,-76.5 155,-76.5 155,-57.5 0,-57.5"/>
<text text-anchor="middle" x="77.5" y="-64.5" font-family="Helvetica,sans-Serif" font-size="10.00">CConnman::GetAddedNodeInfo</text>
</g>
<!-- Node1381 -->
<g id="node2" class="node"><title>Node1381</title>
<g id="a_node2"><a xlink:href="class_c_chain_params.html#a2e796bba356e7ce2040f545ea466754f" target="_top" xlink:title="CChainParams::GetDefaultPort">
<polygon fill="white" stroke="black" points="191,-114.5 191,-133.5 346,-133.5 346,-114.5 191,-114.5"/>
<text text-anchor="middle" x="268.5" y="-121.5" font-family="Helvetica,sans-Serif" font-size="10.00">CChainParams::GetDefaultPort</text>
</a>
</g>
</g>
<!-- Node1380&#45;&gt;Node1381 -->
<g id="edge1" class="edge"><title>Node1380&#45;&gt;Node1381</title>
<path fill="none" stroke="midnightblue" d="M104.674,-76.5231C127.351,-84.6096 161.123,-96.26 191,-105 199.213,-107.403 207.978,-109.765 216.536,-111.964"/>
<polygon fill="midnightblue" stroke="midnightblue" points="215.888,-115.41 226.44,-114.462 217.6,-108.622 215.888,-115.41"/>
</g>
<!-- Node1382 -->
<g id="node3" class="node"><title>Node1382</title>
<g id="a_node3"><a xlink:href="class_c_net_addr.html#a6fe20b8da9701ca5dc2af078e2e8ac25" target="_top" xlink:title="CNetAddr::IsValid">
<polygon fill="white" stroke="black" points="220.5,-76.5 220.5,-95.5 316.5,-95.5 316.5,-76.5 220.5,-76.5"/>
<text text-anchor="middle" x="268.5" y="-83.5" font-family="Helvetica,sans-Serif" font-size="10.00">CNetAddr::IsValid</text>
</a>
</g>
</g>
<!-- Node1380&#45;&gt;Node1382 -->
<g id="edge2" class="edge"><title>Node1380&#45;&gt;Node1382</title>
<path fill="none" stroke="midnightblue" d="M155.101,-74.7006C173.577,-76.558 193.001,-78.5106 210.405,-80.2603"/>
<polygon fill="midnightblue" stroke="midnightblue" points="210.098,-83.7469 220.398,-81.2648 210.798,-76.782 210.098,-83.7469"/>
</g>
<!-- Node1386 -->
<g id="node7" class="node"><title>Node1386</title>
<g id="a_node7"><a xlink:href="netbase_8cpp.html#a82f06e9cca43021fa1c4f234a7fe5e2a" target="_top" xlink:title="LookupNumeric">
<polygon fill="white" stroke="black" points="226,-38.5 226,-57.5 311,-57.5 311,-38.5 226,-38.5"/>
<text text-anchor="middle" x="268.5" y="-45.5" font-family="Helvetica,sans-Serif" font-size="10.00">LookupNumeric</text>
</a>
</g>
</g>
<!-- Node1380&#45;&gt;Node1386 -->
<g id="edge6" class="edge"><title>Node1380&#45;&gt;Node1386</title>
<path fill="none" stroke="midnightblue" d="M155.101,-59.2994C175.477,-57.251 197.004,-55.0869 215.706,-53.2068"/>
<polygon fill="midnightblue" stroke="midnightblue" points="216.18,-56.6769 225.78,-52.1941 215.48,-49.712 216.18,-56.6769"/>
</g>
<!-- Node1396 -->
<g id="node17" class="node"><title>Node1396</title>
<g id="a_node17"><a xlink:href="chainparams_8cpp.html#ace5c5b706d71a324a417dd2db394fd4a" target="_top" xlink:title="Return the currently selected parameters. ">
<polygon fill="white" stroke="black" points="243.5,-0.5 243.5,-19.5 293.5,-19.5 293.5,-0.5 243.5,-0.5"/>
<text text-anchor="middle" x="268.5" y="-7.5" font-family="Helvetica,sans-Serif" font-size="10.00">Params</text>
</a>
</g>
</g>
<!-- Node1380&#45;&gt;Node1396 -->
<g id="edge16" class="edge"><title>Node1380&#45;&gt;Node1396</title>
<path fill="none" stroke="midnightblue" d="M104.674,-57.4769C127.351,-49.3904 161.123,-37.74 191,-29 204.816,-24.9585 220.193,-21.0304 233.517,-17.8049"/>
<polygon fill="midnightblue" stroke="midnightblue" points="234.33,-21.2093 243.245,-15.4851 232.706,-14.4002 234.33,-21.2093"/>
</g>
<!-- Node1383 -->
<g id="node4" class="node"><title>Node1383</title>
<g id="a_node4"><a xlink:href="class_c_net_addr.html#a7bf8bc283323c0cd9be42f921469c90f" target="_top" xlink:title="CNetAddr::IsRFC3849">
<polygon fill="white" stroke="black" points="382,-114.5 382,-133.5 498,-133.5 498,-114.5 382,-114.5"/>
<text text-anchor="middle" x="440" y="-121.5" font-family="Helvetica,sans-Serif" font-size="10.00">CNetAddr::IsRFC3849</text>
</a>
</g>
</g>
<!-- Node1382&#45;&gt;Node1383 -->
<g id="edge3" class="edge"><title>Node1382&#45;&gt;Node1383</title>
<path fill="none" stroke="midnightblue" d="M312.272,-95.589C334.841,-100.649 362.723,-106.9 386.583,-112.249"/>
<polygon fill="midnightblue" stroke="midnightblue" points="386.012,-115.708 396.536,-114.48 387.543,-108.877 386.012,-115.708"/>
</g>
<!-- Node1385 -->
<g id="node6" class="node"><title>Node1385</title>
<g id="a_node6"><a xlink:href="class_c_net_addr.html#a7021b79e9a33c342b68db09dbb6c2293" target="_top" xlink:title="CNetAddr::IsIPv4">
<polygon fill="white" stroke="black" points="392.5,-76.5 392.5,-95.5 487.5,-95.5 487.5,-76.5 392.5,-76.5"/>
<text text-anchor="middle" x="440" y="-83.5" font-family="Helvetica,sans-Serif" font-size="10.00">CNetAddr::IsIPv4</text>
</a>
</g>
</g>
<!-- Node1382&#45;&gt;Node1385 -->
<g id="edge5" class="edge"><title>Node1382&#45;&gt;Node1385</title>
<path fill="none" stroke="midnightblue" d="M316.715,-86C337.003,-86 360.887,-86 382.138,-86"/>
<polygon fill="midnightblue" stroke="midnightblue" points="382.331,-89.5001 392.331,-86 382.331,-82.5001 382.331,-89.5001"/>
</g>
<!-- Node1384 -->
<g id="node5" class="node"><title>Node1384</title>
<g id="a_node5"><a xlink:href="class_c_net_addr.html#acfd51ebf2030b01fa5ac133176512475" target="_top" xlink:title="CNetAddr::GetByte">
<polygon fill="white" stroke="black" points="534,-114.5 534,-133.5 636,-133.5 636,-114.5 534,-114.5"/>
<text text-anchor="middle" x="585" y="-121.5" font-family="Helvetica,sans-Serif" font-size="10.00">CNetAddr::GetByte</text>
</a>
</g>
</g>
<!-- Node1383&#45;&gt;Node1384 -->
<g id="edge4" class="edge"><title>Node1383&#45;&gt;Node1384</title>
<path fill="none" stroke="midnightblue" d="M498.34,-124C506.626,-124 515.176,-124 523.522,-124"/>
<polygon fill="midnightblue" stroke="midnightblue" points="523.568,-127.5 533.568,-124 523.568,-120.5 523.568,-127.5"/>
</g>
<!-- Node1387 -->
<g id="node8" class="node"><title>Node1387</title>
<g id="a_node8"><a xlink:href="netbase_8cpp.html#a56a2f4bcb9fb77b5efe358f804f642cc" target="_top" xlink:title="Lookup">
<polygon fill="white" stroke="black" points="416,-38.5 416,-57.5 464,-57.5 464,-38.5 416,-38.5"/>
<text text-anchor="middle" x="440" y="-45.5" font-family="Helvetica,sans-Serif" font-size="10.00">Lookup</text>
</a>
</g>
</g>
<!-- Node1386&#45;&gt;Node1387 -->
<g id="edge7" class="edge"><title>Node1386&#45;&gt;Node1387</title>
<path fill="none" stroke="midnightblue" d="M311.399,-48C340.478,-48 378.692,-48 405.696,-48"/>
<polygon fill="midnightblue" stroke="midnightblue" points="405.809,-51.5001 415.809,-48 405.809,-44.5001 405.809,-51.5001"/>
</g>
<!-- Node1388 -->
<g id="node9" class="node"><title>Node1388</title>
<g id="a_node9"><a xlink:href="netbase_8cpp.html#a9fee8268e1061be54e4826caf0258f9d" target="_top" xlink:title="LookupIntern">
<polygon fill="white" stroke="black" points="548.5,-57.5 548.5,-76.5 621.5,-76.5 621.5,-57.5 548.5,-57.5"/>
<text text-anchor="middle" x="585" y="-64.5" font-family="Helvetica,sans-Serif" font-size="10.00">LookupIntern</text>
</a>
</g>
</g>
<!-- Node1387&#45;&gt;Node1388 -->
<g id="edge8" class="edge"><title>Node1387&#45;&gt;Node1388</title>
<path fill="none" stroke="midnightblue" d="M464.294,-51.095C484.237,-53.7448 513.548,-57.6392 538.173,-60.9111"/>
<polygon fill="midnightblue" stroke="midnightblue" points="538.025,-64.4221 548.399,-62.2698 538.947,-57.4831 538.025,-64.4221"/>
</g>
<!-- Node1393 -->
<g id="node14" class="node"><title>Node1393</title>
<g id="a_node14"><a xlink:href="netbase_8cpp.html#a1b1ce2ba1ffe40785e65ec3ad5a20e79" target="_top" xlink:title="SplitHostPort">
<polygon fill="white" stroke="black" points="547.5,-19.5 547.5,-38.5 622.5,-38.5 622.5,-19.5 547.5,-19.5"/>
<text text-anchor="middle" x="585" y="-26.5" font-family="Helvetica,sans-Serif" font-size="10.00">SplitHostPort</text>
</a>
</g>
</g>
<!-- Node1387&#45;&gt;Node1393 -->
<g id="edge13" class="edge"><title>Node1387&#45;&gt;Node1393</title>
<path fill="none" stroke="midnightblue" d="M464.294,-44.905C483.96,-42.292 512.735,-38.4687 537.144,-35.2256"/>
<polygon fill="midnightblue" stroke="midnightblue" points="537.847,-38.6631 547.299,-33.8764 536.925,-31.7241 537.847,-38.6631"/>
</g>
<!-- Node1389 -->
<g id="node10" class="node"><title>Node1389</title>
<g id="a_node10"><a xlink:href="class_c_net_addr.html#aa3e44dfd064d9d8da1cb48cdcb7dd231" target="_top" xlink:title="CNetAddr::SetSpecial">
<polygon fill="white" stroke="black" points="672,-57.5 672,-76.5 785,-76.5 785,-57.5 672,-57.5"/>
<text text-anchor="middle" x="728.5" y="-64.5" font-family="Helvetica,sans-Serif" font-size="10.00">CNetAddr::SetSpecial</text>
</a>
</g>
</g>
<!-- Node1388&#45;&gt;Node1389 -->
<g id="edge9" class="edge"><title>Node1388&#45;&gt;Node1389</title>
<path fill="none" stroke="midnightblue" d="M621.706,-67C633.96,-67 648.091,-67 661.953,-67"/>
<polygon fill="midnightblue" stroke="midnightblue" points="661.969,-70.5001 671.969,-67 661.969,-63.5001 661.969,-70.5001"/>
</g>
<!-- Node1390 -->
<g id="node11" class="node"><title>Node1390</title>
<g id="a_node11"><a xlink:href="utilstrencodings_8cpp.html#a8266fd137bc7f76f4a75024baab5c18f" target="_top" xlink:title="DecodeBase32">
<polygon fill="white" stroke="black" points="824,-95.5 824,-114.5 907,-114.5 907,-95.5 824,-95.5"/>
<text text-anchor="middle" x="865.5" y="-102.5" font-family="Helvetica,sans-Serif" font-size="10.00">DecodeBase32</text>
</a>
</g>
</g>
<!-- Node1389&#45;&gt;Node1390 -->
<g id="edge10" class="edge"><title>Node1389&#45;&gt;Node1390</title>
<path fill="none" stroke="midnightblue" d="M763.566,-76.589C780.913,-81.4719 802.202,-87.4643 820.749,-92.685"/>
<polygon fill="midnightblue" stroke="midnightblue" points="819.87,-96.0735 830.445,-95.4141 821.767,-89.3354 819.87,-96.0735"/>
</g>
<!-- Node1391 -->
<g id="node12" class="node"><title>Node1391</title>
<g id="a_node12"><a xlink:href="glibc__compat_8cpp.html#a0f46826ab0466591e136db24394923cf" target="_top" xlink:title="memcpy">
<polygon fill="white" stroke="black" points="838.5,-57.5 838.5,-76.5 892.5,-76.5 892.5,-57.5 838.5,-57.5"/>
<text text-anchor="middle" x="865.5" y="-64.5" font-family="Helvetica,sans-Serif" font-size="10.00">memcpy</text>
</a>
</g>
</g>
<!-- Node1389&#45;&gt;Node1391 -->
<g id="edge11" class="edge"><title>Node1389&#45;&gt;Node1391</title>
<path fill="none" stroke="midnightblue" d="M785.189,-67C799.746,-67 815.059,-67 828.306,-67"/>
<polygon fill="midnightblue" stroke="midnightblue" points="828.433,-70.5001 838.433,-67 828.433,-63.5001 828.433,-70.5001"/>
</g>
<!-- Node1392 -->
<g id="node13" class="node"><title>Node1392</title>
<g id="a_node13"><a xlink:href="glibc__compat_8cpp.html#a9778d49e9029dd75bc53ecbbf9f5e9a1" target="_top" xlink:title="memmove">
<polygon fill="white" stroke="black" points="946,-57.5 946,-76.5 1008,-76.5 1008,-57.5 946,-57.5"/>
<text text-anchor="middle" x="977" y="-64.5" font-family="Helvetica,sans-Serif" font-size="10.00">memmove</text>
</a>
</g>
</g>
<!-- Node1391&#45;&gt;Node1392 -->
<g id="edge12" class="edge"><title>Node1391&#45;&gt;Node1392</title>
<path fill="none" stroke="midnightblue" d="M892.728,-67C905.558,-67 921.287,-67 935.607,-67"/>
<polygon fill="midnightblue" stroke="midnightblue" points="935.723,-70.5001 945.723,-67 935.723,-63.5001 935.723,-70.5001"/>
</g>
<!-- Node1394 -->
<g id="node15" class="node"><title>Node1394</title>
<g id="a_node15"><a xlink:href="utilstrencodings_8cpp.html#a880a215d9e931432b095084c756a49bb" target="_top" xlink:title="Convert string to signed 32&#45;bit integer with strict parse error feedback. ">
<polygon fill="white" stroke="black" points="696.5,-19.5 696.5,-38.5 760.5,-38.5 760.5,-19.5 696.5,-19.5"/>
<text text-anchor="middle" x="728.5" y="-26.5" font-family="Helvetica,sans-Serif" font-size="10.00">ParseInt32</text>
</a>
</g>
</g>
<!-- Node1393&#45;&gt;Node1394 -->
<g id="edge14" class="edge"><title>Node1393&#45;&gt;Node1394</title>
<path fill="none" stroke="midnightblue" d="M622.808,-29C642.193,-29 666.034,-29 686.066,-29"/>
<polygon fill="midnightblue" stroke="midnightblue" points="686.15,-32.5001 696.15,-29 686.15,-25.5001 686.15,-32.5001"/>
</g>
<!-- Node1395 -->
<g id="node16" class="node"><title>Node1395</title>
<g id="a_node16"><a xlink:href="utilstrencodings_8cpp.html#a2dc3da13203c8219cee0c696d11c6490" target="_top" xlink:title="ParsePrechecks">
<polygon fill="white" stroke="black" points="821,-19.5 821,-38.5 910,-38.5 910,-19.5 821,-19.5"/>
<text text-anchor="middle" x="865.5" y="-26.5" font-family="Helvetica,sans-Serif" font-size="10.00">ParsePrechecks</text>
</a>
</g>
</g>
<!-- Node1394&#45;&gt;Node1395 -->
<g id="edge15" class="edge"><title>Node1394&#45;&gt;Node1395</title>
<path fill="none" stroke="midnightblue" d="M760.811,-29C775.582,-29 793.636,-29 810.515,-29"/>
<polygon fill="midnightblue" stroke="midnightblue" points="810.833,-32.5001 820.833,-29 810.832,-25.5001 810.833,-32.5001"/>
</g>
</g>
</svg>
