<?xml version="1.0" encoding="UTF-8" standalone="no"?>
<!DOCTYPE svg PUBLIC "-//W3C//DTD SVG 1.1//EN"
 "http://www.w3.org/Graphics/SVG/1.1/DTD/svg11.dtd">
<!-- Generated by graphviz version 2.38.0 (20140413.2041)
 -->
<!-- Title: TorControlConnection::eventcb Pages: 1 -->
<!--zoomable 330 -->
<svg id="main" version="1.1" xmlns="http://www.w3.org/2000/svg" xmlns:xlink="http://www.w3.org/1999/xlink" xml:space="preserve" onload="init(evt)">
<style type="text/css"><![CDATA[
.edge:hover path { stroke: red; }
.edge:hover polygon { stroke: red; fill: red; }
]]></style>
<script type="text/javascript"><![CDATA[
var edges = document.getElementsByTagName('g');
if (edges && edges.length) {
  for (var i=0;i<edges.length;i++) {
    if (edges[i].id.substr(0,4)=='edge') {
      edges[i].setAttribute('class','edge');
    }
  }
}
]]></script>
        <defs>
                <circle id="rim" cx="0" cy="0" r="7"/>
                <circle id="rim2" cx="0" cy="0" r="3.5"/>
                <g id="zoomPlus">
                        <use xlink:href="#rim" fill="#404040">
                                <set attributeName="fill" to="#808080" begin="zoomplus.mouseover" end="zoomplus.mouseout"/>
                        </use>
                        <path d="M-4,0h8M0,-4v8" fill="none" stroke="white" stroke-width="1.5" pointer-events="none"/>
                </g>
                <g id="zoomMin">
                        <use xlink:href="#rim" fill="#404040">
                                <set attributeName="fill" to="#808080" begin="zoomminus.mouseover" end="zoomminus.mouseout"/>
                        </use>
                        <path d="M-4,0h8" fill="none" stroke="white" stroke-width="1.5" pointer-events="none"/>
                </g>
                <g id="dirArrow">
                        <path fill="none" stroke="white" stroke-width="1.5" d="M0,-3.0v7 M-2.5,-0.5L0,-3.0L2.5,-0.5"/>
                </g>
               <g id="resetDef">
                       <use xlink:href="#rim2" fill="#404040">
                               <set attributeName="fill" to="#808080" begin="reset.mouseover" end="reset.mouseout"/>
                       </use>
               </g>
        </defs>

<script type="text/javascript">
var viewWidth = 798;
var viewHeight = 330;
var sectionId = 'dynsection-5';
</script>
<script xlink:href="svgpan.js"/>
<svg id="graph" class="graph">
<g id="viewport">
<title>TorControlConnection::eventcb</title>
<polygon fill="white" stroke="none" points="-4,4 -4,-326 794,-326 794,4 -4,4"/>
<!-- Node46 -->
<g id="node1" class="node"><title>Node46</title>
<polygon fill="#bfbfbf" stroke="black" points="0,-242 0,-272 112,-272 112,-242 0,-242"/>
<text text-anchor="start" x="8" y="-260" font-family="Helvetica,sans-Serif" font-size="10.00">TorControlConnection</text>
<text text-anchor="middle" x="56" y="-249" font-family="Helvetica,sans-Serif" font-size="10.00">::eventcb</text>
</g>
<!-- Node47 -->
<g id="node2" class="node"><title>Node47</title>
<g id="a_node2"><a xlink:href="util_8h.html#aab1f837a2366f424bdc996fdf6352171" target="_top" xlink:title="Zero&#45;arg versions of logging and error, these are not covered by TINYFORMAT_FOREACH_ARGNUM. ">
<polygon fill="white" stroke="black" points="148,-247.5 148,-266.5 201,-266.5 201,-247.5 148,-247.5"/>
<text text-anchor="middle" x="174.5" y="-254.5" font-family="Helvetica,sans-Serif" font-size="10.00">LogPrint</text>
</a>
</g>
</g>
<!-- Node46&#45;&gt;Node47 -->
<g id="edge1" class="edge"><title>Node46&#45;&gt;Node47</title>
<path fill="none" stroke="midnightblue" d="M112.179,-257C120.849,-257 129.609,-257 137.689,-257"/>
<polygon fill="midnightblue" stroke="midnightblue" points="137.855,-260.5 147.855,-257 137.855,-253.5 137.855,-260.5"/>
</g>
<!-- Node48 -->
<g id="node3" class="node"><title>Node48</title>
<g id="a_node3"><a xlink:href="namespacetinyformat_1_1detail.html#aa4b0590b3e34562c2d252a2086cec7ba" target="_top" xlink:title="tinyformat::detail\l::format">
<polygon fill="white" stroke="black" points="244,-286 244,-316 333,-316 333,-286 244,-286"/>
<text text-anchor="start" x="252" y="-304" font-family="Helvetica,sans-Serif" font-size="10.00">tinyformat::detail</text>
<text text-anchor="middle" x="288.5" y="-293" font-family="Helvetica,sans-Serif" font-size="10.00">::format</text>
</a>
</g>
</g>
<!-- Node47&#45;&gt;Node48 -->
<g id="edge2" class="edge"><title>Node47&#45;&gt;Node48</title>
<path fill="none" stroke="midnightblue" d="M199.802,-266.547C211.512,-271.147 225.977,-276.83 239.761,-282.245"/>
<polygon fill="midnightblue" stroke="midnightblue" points="238.564,-285.536 249.152,-285.935 241.124,-279.02 238.564,-285.536"/>
</g>
<!-- Node51 -->
<g id="node6" class="node"><title>Node51</title>
<g id="a_node6"><a xlink:href="util_8h.html#a343d2a13efe00125f78d25dafb0a8d98" target="_top" xlink:title="Return true if log accepts specified category. ">
<polygon fill="white" stroke="black" points="237,-247.5 237,-266.5 340,-266.5 340,-247.5 237,-247.5"/>
<text text-anchor="middle" x="288.5" y="-254.5" font-family="Helvetica,sans-Serif" font-size="10.00">LogAcceptCategory</text>
</a>
</g>
</g>
<!-- Node47&#45;&gt;Node51 -->
<g id="edge5" class="edge"><title>Node47&#45;&gt;Node51</title>
<path fill="none" stroke="midnightblue" d="M201.195,-257C208.89,-257 217.678,-257 226.634,-257"/>
<polygon fill="midnightblue" stroke="midnightblue" points="226.766,-260.5 236.766,-257 226.766,-253.5 226.766,-260.5"/>
</g>
<!-- Node53 -->
<g id="node8" class="node"><title>Node53</title>
<g id="a_node8"><a xlink:href="util_8h.html#afd4c3002b2797c0560adddb6af3ca1da" target="_top" xlink:title="Send a string to the log output. ">
<polygon fill="white" stroke="black" points="256,-152.5 256,-171.5 321,-171.5 321,-152.5 256,-152.5"/>
<text text-anchor="middle" x="288.5" y="-159.5" font-family="Helvetica,sans-Serif" font-size="10.00">LogPrintStr</text>
</a>
</g>
</g>
<!-- Node47&#45;&gt;Node53 -->
<g id="edge7" class="edge"><title>Node47&#45;&gt;Node53</title>
<path fill="none" stroke="midnightblue" d="M187.064,-247.191C206.278,-230.894 244.97,-198.074 268.321,-178.268"/>
<polygon fill="midnightblue" stroke="midnightblue" points="270.803,-180.752 276.166,-171.614 266.275,-175.413 270.803,-180.752"/>
</g>
<!-- Node49 -->
<g id="node4" class="node"><title>Node49</title>
<g id="a_node4"><a xlink:href="classtinyformat_1_1detail_1_1_format_iterator.html#a46377a804f72dbad1e508d2fbaa18ce9" target="_top" xlink:title="tinyformat::detail\l::FormatIterator::finish">
<polygon fill="white" stroke="black" points="376,-286 376,-316 489,-316 489,-286 376,-286"/>
<text text-anchor="start" x="384" y="-304" font-family="Helvetica,sans-Serif" font-size="10.00">tinyformat::detail</text>
<text text-anchor="middle" x="432.5" y="-293" font-family="Helvetica,sans-Serif" font-size="10.00">::FormatIterator::finish</text>
</a>
</g>
</g>
<!-- Node48&#45;&gt;Node49 -->
<g id="edge3" class="edge"><title>Node48&#45;&gt;Node49</title>
<path fill="none" stroke="midnightblue" d="M333.263,-301C343.558,-301 354.753,-301 365.777,-301"/>
<polygon fill="midnightblue" stroke="midnightblue" points="365.823,-304.5 375.823,-301 365.823,-297.5 365.823,-304.5"/>
</g>
<!-- Node50 -->
<g id="node5" class="node"><title>Node50</title>
<g id="a_node5"><a xlink:href="classtinyformat_1_1detail_1_1_format_iterator.html#af3bbb8259ac0593ec2268ef5863311d5" target="_top" xlink:title="tinyformat::detail\l::FormatIterator::printFormat\lStringLiteral">
<polygon fill="white" stroke="black" points="528,-280.5 528,-321.5 668,-321.5 668,-280.5 528,-280.5"/>
<text text-anchor="start" x="536" y="-309.5" font-family="Helvetica,sans-Serif" font-size="10.00">tinyformat::detail</text>
<text text-anchor="start" x="536" y="-298.5" font-family="Helvetica,sans-Serif" font-size="10.00">::FormatIterator::printFormat</text>
<text text-anchor="middle" x="598" y="-287.5" font-family="Helvetica,sans-Serif" font-size="10.00">StringLiteral</text>
</a>
</g>
</g>
<!-- Node49&#45;&gt;Node50 -->
<g id="edge4" class="edge"><title>Node49&#45;&gt;Node50</title>
<path fill="none" stroke="midnightblue" d="M489.31,-301C498.51,-301 508.2,-301 517.841,-301"/>
<polygon fill="midnightblue" stroke="midnightblue" points="517.848,-304.5 527.848,-301 517.848,-297.5 517.848,-304.5"/>
</g>
<!-- Node52 -->
<g id="node7" class="node"><title>Node52</title>
<g id="a_node7"><a xlink:href="util_8cpp.html#a1db3aa900bfa259ae1fe04068f2accfc" target="_top" xlink:title="GetThreadName">
<polygon fill="white" stroke="black" points="553.5,-226.5 553.5,-245.5 642.5,-245.5 642.5,-226.5 553.5,-226.5"/>
<text text-anchor="middle" x="598" y="-233.5" font-family="Helvetica,sans-Serif" font-size="10.00">GetThreadName</text>
</a>
</g>
</g>
<!-- Node51&#45;&gt;Node52 -->
<g id="edge6" class="edge"><title>Node51&#45;&gt;Node52</title>
<path fill="none" stroke="midnightblue" d="M340.277,-253.532C396.162,-249.716 485.638,-243.605 542.837,-239.699"/>
<polygon fill="midnightblue" stroke="midnightblue" points="543.388,-243.17 553.127,-238.996 542.911,-236.186 543.388,-243.17"/>
</g>
<!-- Node54 -->
<g id="node9" class="node"><title>Node54</title>
<g id="a_node9"><a xlink:href="util_8cpp.html#a751ff5f21d880737811136b5e0bcea12" target="_top" xlink:title="DebugPrintInit">
<polygon fill="white" stroke="black" points="393,-209.5 393,-228.5 472,-228.5 472,-209.5 393,-209.5"/>
<text text-anchor="middle" x="432.5" y="-216.5" font-family="Helvetica,sans-Serif" font-size="10.00">DebugPrintInit</text>
</a>
</g>
</g>
<!-- Node53&#45;&gt;Node54 -->
<g id="edge8" class="edge"><title>Node53&#45;&gt;Node54</title>
<path fill="none" stroke="midnightblue" d="M309.92,-171.551C327.32,-179.55 353.078,-191.06 376,-200 381.278,-202.059 386.882,-204.119 392.423,-206.085"/>
<polygon fill="midnightblue" stroke="midnightblue" points="391.646,-209.52 402.241,-209.497 393.944,-202.908 391.646,-209.52"/>
</g>
<!-- Node55 -->
<g id="node10" class="node"><title>Node55</title>
<g id="a_node10"><a xlink:href="util_8cpp.html#a7c125ce70fa6b09e1de0c4a404fc2b6f" target="_top" xlink:title="FileWriteStr">
<polygon fill="white" stroke="black" points="398.5,-171.5 398.5,-190.5 466.5,-190.5 466.5,-171.5 398.5,-171.5"/>
<text text-anchor="middle" x="432.5" y="-178.5" font-family="Helvetica,sans-Serif" font-size="10.00">FileWriteStr</text>
</a>
</g>
</g>
<!-- Node53&#45;&gt;Node55 -->
<g id="edge9" class="edge"><title>Node53&#45;&gt;Node55</title>
<path fill="none" stroke="midnightblue" d="M321.014,-166.217C340.765,-168.859 366.492,-172.302 388.151,-175.2"/>
<polygon fill="midnightblue" stroke="midnightblue" points="387.719,-178.673 398.095,-176.53 388.648,-171.735 387.719,-178.673"/>
</g>
<!-- Node56 -->
<g id="node11" class="node"><title>Node56</title>
<g id="a_node11"><a xlink:href="util_8cpp.html#ab83866a054745d4b30a3948a1b44beba" target="_top" xlink:title="GetDataDir">
<polygon fill="white" stroke="black" points="399.5,-95.5 399.5,-114.5 465.5,-114.5 465.5,-95.5 399.5,-95.5"/>
<text text-anchor="middle" x="432.5" y="-102.5" font-family="Helvetica,sans-Serif" font-size="10.00">GetDataDir</text>
</a>
</g>
</g>
<!-- Node53&#45;&gt;Node56 -->
<g id="edge10" class="edge"><title>Node53&#45;&gt;Node56</title>
<path fill="none" stroke="midnightblue" d="M309.92,-152.449C327.32,-144.45 353.078,-132.94 376,-124 381.278,-121.941 386.882,-119.881 392.423,-117.915"/>
<polygon fill="midnightblue" stroke="midnightblue" points="393.944,-121.092 402.241,-114.503 391.646,-114.48 393.944,-121.092"/>
</g>
<!-- Node60 -->
<g id="node15" class="node"><title>Node60</title>
<g id="a_node15"><a xlink:href="util_8cpp.html#af0c31e37a5891e021f9b339696398a28" target="_top" xlink:title="fStartedNewLine is a state variable held by the calling context that will suppress printing of the th...">
<polygon fill="white" stroke="black" points="382,-133.5 382,-152.5 483,-152.5 483,-133.5 382,-133.5"/>
<text text-anchor="middle" x="432.5" y="-140.5" font-family="Helvetica,sans-Serif" font-size="10.00">LogThreadNameStr</text>
</a>
</g>
</g>
<!-- Node53&#45;&gt;Node60 -->
<g id="edge14" class="edge"><title>Node53&#45;&gt;Node60</title>
<path fill="none" stroke="midnightblue" d="M321.014,-157.783C335.973,-155.782 354.359,-153.322 371.811,-150.987"/>
<polygon fill="midnightblue" stroke="midnightblue" points="372.497,-154.426 381.944,-149.631 371.568,-147.488 372.497,-154.426"/>
</g>
<!-- Node61 -->
<g id="node16" class="node"><title>Node61</title>
<g id="a_node16"><a xlink:href="util_8cpp.html#a8e80ae045580407e9f2028dc5f7b954c" target="_top" xlink:title="fStartedNewLine is a state variable held by the calling context that will suppress printing of the ti...">
<polygon fill="white" stroke="black" points="385.5,-38.5 385.5,-57.5 479.5,-57.5 479.5,-38.5 385.5,-38.5"/>
<text text-anchor="middle" x="432.5" y="-45.5" font-family="Helvetica,sans-Serif" font-size="10.00">LogTimestampStr</text>
</a>
</g>
</g>
<!-- Node53&#45;&gt;Node61 -->
<g id="edge16" class="edge"><title>Node53&#45;&gt;Node61</title>
<path fill="none" stroke="midnightblue" d="M299.543,-152.461C315.324,-137.638 347.114,-108.447 376,-86 386.166,-78.1001 397.869,-69.9567 407.9,-63.2447"/>
<polygon fill="midnightblue" stroke="midnightblue" points="410.135,-65.9631 416.55,-57.5311 406.277,-60.1222 410.135,-65.9631"/>
</g>
<!-- Node57 -->
<g id="node12" class="node"><title>Node57</title>
<g id="a_node12"><a xlink:href="chainparamsbase_8cpp.html#a06ef5bfd0efb53d13bbf4276726e84ab" target="_top" xlink:title="Return the currently selected parameters. ">
<polygon fill="white" stroke="black" points="561.5,-152.5 561.5,-171.5 634.5,-171.5 634.5,-152.5 561.5,-152.5"/>
<text text-anchor="middle" x="598" y="-159.5" font-family="Helvetica,sans-Serif" font-size="10.00">BaseParams</text>
</a>
</g>
</g>
<!-- Node56&#45;&gt;Node57 -->
<g id="edge11" class="edge"><title>Node56&#45;&gt;Node57</title>
<path fill="none" stroke="midnightblue" d="M464.07,-114.512C472.265,-117.32 481.053,-120.567 489,-124 505.609,-131.174 508.145,-136.427 525,-143 533.401,-146.276 542.569,-149.177 551.463,-151.665"/>
<polygon fill="midnightblue" stroke="midnightblue" points="550.767,-155.102 561.331,-154.296 552.57,-148.338 550.767,-155.102"/>
</g>
<!-- Node58 -->
<g id="node13" class="node"><title>Node58</title>
<g id="a_node13"><a xlink:href="class_c_base_chain_params.html#a4b142e94ae27f860522dd5efef41fb67" target="_top" xlink:title="CBaseChainParams::DataDir">
<polygon fill="white" stroke="black" points="525,-114.5 525,-133.5 671,-133.5 671,-114.5 525,-114.5"/>
<text text-anchor="middle" x="598" y="-121.5" font-family="Helvetica,sans-Serif" font-size="10.00">CBaseChainParams::DataDir</text>
</a>
</g>
</g>
<!-- Node56&#45;&gt;Node58 -->
<g id="edge12" class="edge"><title>Node56&#45;&gt;Node58</title>
<path fill="none" stroke="midnightblue" d="M465.802,-108.754C479.961,-110.399 497.29,-112.413 514.654,-114.431"/>
<polygon fill="midnightblue" stroke="midnightblue" points="514.522,-117.939 524.859,-115.617 515.33,-110.986 514.522,-117.939"/>
</g>
<!-- Node59 -->
<g id="node14" class="node"><title>Node59</title>
<g id="a_node14"><a xlink:href="util_8cpp.html#ab272995de020a3bcbf743be630e485c6" target="_top" xlink:title="GetDefaultDataDir">
<polygon fill="white" stroke="black" points="549,-76.5 549,-95.5 647,-95.5 647,-76.5 549,-76.5"/>
<text text-anchor="middle" x="598" y="-83.5" font-family="Helvetica,sans-Serif" font-size="10.00">GetDefaultDataDir</text>
</a>
</g>
</g>
<!-- Node56&#45;&gt;Node59 -->
<g id="edge13" class="edge"><title>Node56&#45;&gt;Node59</title>
<path fill="none" stroke="midnightblue" d="M465.802,-101.246C486.66,-98.8224 514.397,-95.5992 538.993,-92.7409"/>
<polygon fill="midnightblue" stroke="midnightblue" points="539.426,-96.2143 548.955,-91.5832 538.617,-89.261 539.426,-96.2143"/>
</g>
<!-- Node60&#45;&gt;Node52 -->
<g id="edge15" class="edge"><title>Node60&#45;&gt;Node52</title>
<path fill="none" stroke="midnightblue" d="M466.094,-152.512C473.772,-155.199 481.81,-158.39 489,-162 521.882,-178.508 556.362,-203.727 577.271,-220.04"/>
<polygon fill="midnightblue" stroke="midnightblue" points="575.343,-222.977 585.358,-226.435 579.685,-217.486 575.343,-222.977"/>
</g>
<!-- Node62 -->
<g id="node17" class="node"><title>Node62</title>
<g id="a_node17"><a xlink:href="utiltime_8cpp.html#a749bc6776c8ec72d7c5e4dea56aee415" target="_top" xlink:title="DateTimeStrFormat">
<polygon fill="white" stroke="black" points="546.5,-38.5 546.5,-57.5 649.5,-57.5 649.5,-38.5 546.5,-38.5"/>
<text text-anchor="middle" x="598" y="-45.5" font-family="Helvetica,sans-Serif" font-size="10.00">DateTimeStrFormat</text>
</a>
</g>
</g>
<!-- Node61&#45;&gt;Node62 -->
<g id="edge17" class="edge"><title>Node61&#45;&gt;Node62</title>
<path fill="none" stroke="midnightblue" d="M479.915,-48C497.44,-48 517.647,-48 536.289,-48"/>
<polygon fill="midnightblue" stroke="midnightblue" points="536.457,-51.5001 546.457,-48 536.457,-44.5001 536.457,-51.5001"/>
</g>
<!-- Node63 -->
<g id="node18" class="node"><title>Node63</title>
<g id="a_node18"><a xlink:href="utiltime_8cpp.html#a474bed4c01c8a1d18330dceccf865e1e" target="_top" xlink:title="Return a time useful for the debug log. ">
<polygon fill="white" stroke="black" points="548.5,-0.5 548.5,-19.5 647.5,-19.5 647.5,-0.5 548.5,-0.5"/>
<text text-anchor="middle" x="598" y="-7.5" font-family="Helvetica,sans-Serif" font-size="10.00">GetLogTimeMicros</text>
</a>
</g>
</g>
<!-- Node61&#45;&gt;Node63 -->
<g id="edge18" class="edge"><title>Node61&#45;&gt;Node63</title>
<path fill="none" stroke="midnightblue" d="M474.758,-38.411C496.431,-33.3739 523.183,-27.1562 546.13,-21.8229"/>
<polygon fill="midnightblue" stroke="midnightblue" points="547.091,-25.1931 556.039,-19.5201 545.506,-18.3748 547.091,-25.1931"/>
</g>
<!-- Node64 -->
<g id="node19" class="node"><title>Node64</title>
<g id="a_node19"><a xlink:href="utiltime_8cpp.html#a0c5a06b50cd805b1923552114494c029" target="_top" xlink:title="GetTimeMicros">
<polygon fill="white" stroke="black" points="707,-0.5 707,-19.5 790,-19.5 790,-0.5 707,-0.5"/>
<text text-anchor="middle" x="748.5" y="-7.5" font-family="Helvetica,sans-Serif" font-size="10.00">GetTimeMicros</text>
</a>
</g>
</g>
<!-- Node63&#45;&gt;Node64 -->
<g id="edge19" class="edge"><title>Node63&#45;&gt;Node64</title>
<path fill="none" stroke="midnightblue" d="M647.624,-10C663.306,-10 680.726,-10 696.57,-10"/>
<polygon fill="midnightblue" stroke="midnightblue" points="696.719,-13.5001 706.719,-10 696.719,-6.5001 696.719,-13.5001"/>
</g>
</g>
</svg>
        <g id="navigator" transform="translate(0 0)" fill="#404254">
                <rect fill="#f2f5e9" fill-opacity="0.5" stroke="#606060" stroke-width=".5" x="0" y="0" width="60" height="60"/>
                <use id="zoomplus" xlink:href="#zoomPlus" x="17" y="9" onmousedown="handleZoom(evt,'in')"/>
                <use id="zoomminus" xlink:href="#zoomMin" x="42" y="9" onmousedown="handleZoom(evt,'out')"/>
                <use id="reset" xlink:href="#resetDef" x="30" y="36" onmousedown="handleReset()"/>
                <g id="arrowUp" xlink:href="#dirArrow" transform="translate(30 24)" onmousedown="handlePan(0,-1)">
                  <use xlink:href="#rim" fill="#404040">
                        <set attributeName="fill" to="#808080" begin="arrowUp.mouseover" end="arrowUp.mouseout"/>
                  </use>
                  <path fill="none" stroke="white" stroke-width="1.5" d="M0,-3.0v7 M-2.5,-0.5L0,-3.0L2.5,-0.5"/>
                </g>
                <g id="arrowRight" xlink:href="#dirArrow" transform="rotate(90) translate(36 -43)" onmousedown="handlePan(1,0)">
                  <use xlink:href="#rim" fill="#404040">
                        <set attributeName="fill" to="#808080" begin="arrowRight.mouseover" end="arrowRight.mouseout"/>
                  </use>
                  <path fill="none" stroke="white" stroke-width="1.5" d="M0,-3.0v7 M-2.5,-0.5L0,-3.0L2.5,-0.5"/>
                </g>
                <g id="arrowDown" xlink:href="#dirArrow" transform="rotate(180) translate(-30 -48)" onmousedown="handlePan(0,1)">
                  <use xlink:href="#rim" fill="#404040">
                        <set attributeName="fill" to="#808080" begin="arrowDown.mouseover" end="arrowDown.mouseout"/>
                  </use>
                  <path fill="none" stroke="white" stroke-width="1.5" d="M0,-3.0v7 M-2.5,-0.5L0,-3.0L2.5,-0.5"/>
                </g>
                <g id="arrowLeft" xlink:href="#dirArrow" transform="rotate(270) translate(-36 17)" onmousedown="handlePan(-1,0)">
                  <use xlink:href="#rim" fill="#404040">
                        <set attributeName="fill" to="#808080" begin="arrowLeft.mouseover" end="arrowLeft.mouseout"/>
                  </use>
                  <path fill="none" stroke="white" stroke-width="1.5" d="M0,-3.0v7 M-2.5,-0.5L0,-3.0L2.5,-0.5"/>
                </g>
        </g>
        <svg viewBox="0 0 15 15" width="100%" height="30px" preserveAspectRatio="xMaxYMin meet">
         <g id="arrow_out" transform="scale(0.3 0.3)">
          <a xlink:href="class_tor_control_connection_a8b22b26822247f8be7d739e14a045e98_cgraph_org.svg" target="_base">
           <rect id="button" ry="5" rx="5" y="6" x="6" height="38" width="38"
                fill="#f2f5e9" fill-opacity="0.5" stroke="#606060" stroke-width="1.0"/>
           <path id="arrow"
             d="M 11.500037,31.436501 C 11.940474,20.09759 22.043105,11.32322 32.158766,21.979434 L 37.068811,17.246167 C 37.068811,17.246167 37.088388,32 37.088388,32 L 22.160133,31.978069 C 22.160133,31.978069 26.997745,27.140456 26.997745,27.140456 C 18.528582,18.264221 13.291696,25.230495 11.500037,31.436501 z"
             style="fill:#404040;"/>
          </a>
         </g>
        </svg>
</svg>
