<?xml version="1.0" encoding="UTF-8" standalone="no"?>
<!DOCTYPE svg PUBLIC "-//W3C//DTD SVG 1.1//EN"
 "http://www.w3.org/Graphics/SVG/1.1/DTD/svg11.dtd">
<!-- Generated by graphviz version 2.38.0 (20140413.2041)
 -->
<!-- Title: CConnman::SweepBanned Pages: 1 -->
<!--zoomable 217 -->
<svg id="main" version="1.1" xmlns="http://www.w3.org/2000/svg" xmlns:xlink="http://www.w3.org/1999/xlink" xml:space="preserve" onload="init(evt)">
<style type="text/css"><![CDATA[
.edge:hover path { stroke: red; }
.edge:hover polygon { stroke: red; fill: red; }
]]></style>
<script type="text/javascript"><![CDATA[
var edges = document.getElementsByTagName('g');
if (edges && edges.length) {
  for (var i=0;i<edges.length;i++) {
    if (edges[i].id.substr(0,4)=='edge') {
      edges[i].setAttribute('class','edge');
    }
  }
}
]]></script>
        <defs>
                <circle id="rim" cx="0" cy="0" r="7"/>
                <circle id="rim2" cx="0" cy="0" r="3.5"/>
                <g id="zoomPlus">
                        <use xlink:href="#rim" fill="#404040">
                                <set attributeName="fill" to="#808080" begin="zoomplus.mouseover" end="zoomplus.mouseout"/>
                        </use>
                        <path d="M-4,0h8M0,-4v8" fill="none" stroke="white" stroke-width="1.5" pointer-events="none"/>
                </g>
                <g id="zoomMin">
                        <use xlink:href="#rim" fill="#404040">
                                <set attributeName="fill" to="#808080" begin="zoomminus.mouseover" end="zoomminus.mouseout"/>
                        </use>
                        <path d="M-4,0h8" fill="none" stroke="white" stroke-width="1.5" pointer-events="none"/>
                </g>
                <g id="dirArrow">
                        <path fill="none" stroke="white" stroke-width="1.5" d="M0,-3.0v7 M-2.5,-0.5L0,-3.0L2.5,-0.5"/>
                </g>
               <g id="resetDef">
                       <use xlink:href="#rim2" fill="#404040">
                               <set attributeName="fill" to="#808080" begin="reset.mouseover" end="reset.mouseout"/>
                       </use>
               </g>
        </defs>

<script type="text/javascript">
var viewWidth = 764;
var viewHeight = 217;
var sectionId = 'dynsection-112';
</script>
<script xlink:href="svgpan.js"/>
<svg id="graph" class="graph">
<g id="viewport">
<title>CConnman::SweepBanned</title>
<polygon fill="white" stroke="none" points="-4,4 -4,-213.299 760,-213.299 760,4 -4,4"/>
<!-- Node3023 -->
<g id="node1" class="node"><title>Node3023</title>
<polygon fill="#bfbfbf" stroke="black" points="0,-152.5 0,-171.5 135,-171.5 135,-152.5 0,-152.5"/>
<text text-anchor="middle" x="67.5" y="-159.5" font-family="Helvetica,sans-Serif" font-size="10.00">CConnman::SweepBanned</text>
</g>
<!-- Node3024 -->
<g id="node2" class="node"><title>Node3024</title>
<g id="a_node2"><a xlink:href="class_c_connman.html#a6e729a956380ac422ab78d842e158df1" target="_top" xlink:title="CConnman::DumpBanlist">
<polygon fill="white" stroke="black" points="171,-95.5 171,-114.5 299,-114.5 299,-95.5 171,-95.5"/>
<text text-anchor="middle" x="235" y="-102.5" font-family="Helvetica,sans-Serif" font-size="10.00">CConnman::DumpBanlist</text>
</a>
</g>
</g>
<!-- Node3023&#45;&gt;Node3024 -->
<g id="edge1" class="edge"><title>Node3023&#45;&gt;Node3024</title>
<path fill="none" stroke="midnightblue" d="M106.038,-149.072C136.49,-138.584 178.729,-124.036 206.209,-114.572"/>
<polygon fill="midnightblue" stroke="midnightblue" points="104.516,-145.894 96.201,-152.459 106.796,-152.512 104.516,-145.894"/>
</g>
<!-- Node3028 -->
<g id="node6" class="node"><title>Node3028</title>
<g id="a_node6"><a xlink:href="class_c_connman.html#a80caf4db74fcf515068f169e085ff84e" target="_top" xlink:title="CConnman::Start">
<polygon fill="white" stroke="black" points="499,-76.5 499,-95.5 592,-95.5 592,-76.5 499,-76.5"/>
<text text-anchor="middle" x="545.5" y="-83.5" font-family="Helvetica,sans-Serif" font-size="10.00">CConnman::Start</text>
</a>
</g>
</g>
<!-- Node3023&#45;&gt;Node3028 -->
<g id="edge10" class="edge"><title>Node3023&#45;&gt;Node3028</title>
<path fill="none" stroke="midnightblue" d="M105.575,-174.621C178.104,-197.048 342.208,-236.525 463,-181 502.094,-163.029 529.468,-116.028 539.865,-95.6523"/>
<polygon fill="midnightblue" stroke="midnightblue" points="106.553,-171.26 95.9631,-171.581 104.442,-177.934 106.553,-171.26"/>
</g>
<!-- Node3025 -->
<g id="node3" class="node"><title>Node3025</title>
<g id="a_node3"><a xlink:href="class_c_connman.html#ace6d92a39c2ba3062e52b16735c65df7" target="_top" xlink:title="CConnman::Ban">
<polygon fill="white" stroke="black" points="354.5,-152.5 354.5,-171.5 443.5,-171.5 443.5,-152.5 354.5,-152.5"/>
<text text-anchor="middle" x="399" y="-159.5" font-family="Helvetica,sans-Serif" font-size="10.00">CConnman::Ban</text>
</a>
</g>
</g>
<!-- Node3024&#45;&gt;Node3025 -->
<g id="edge2" class="edge"><title>Node3024&#45;&gt;Node3025</title>
<path fill="none" stroke="midnightblue" d="M268.898,-118.325C288.057,-125.91 312.751,-135.386 335,-143 344.62,-146.292 355.165,-149.591 364.83,-152.495"/>
<polygon fill="midnightblue" stroke="midnightblue" points="270.011,-115.001 259.425,-114.551 267.42,-121.504 270.011,-115.001"/>
</g>
<!-- Node3026 -->
<g id="node4" class="node"><title>Node3026</title>
<g id="a_node4"><a xlink:href="class_c_connman.html#a6ccf00706c65a961f8abf3d7019406f4" target="_top" xlink:title="CConnman::ClearBanned">
<polygon fill="white" stroke="black" points="335,-114.5 335,-133.5 463,-133.5 463,-114.5 335,-114.5"/>
<text text-anchor="middle" x="399" y="-121.5" font-family="Helvetica,sans-Serif" font-size="10.00">CConnman::ClearBanned</text>
</a>
</g>
</g>
<!-- Node3024&#45;&gt;Node3026 -->
<g id="edge3" class="edge"><title>Node3024&#45;&gt;Node3026</title>
<path fill="none" stroke="midnightblue" d="M309.094,-113.573C317.676,-114.579 326.378,-115.6 334.808,-116.589"/>
<polygon fill="midnightblue" stroke="midnightblue" points="309.437,-110.089 299.097,-112.4 308.621,-117.041 309.437,-110.089"/>
</g>
<!-- Node3027 -->
<g id="node5" class="node"><title>Node3027</title>
<g id="a_node5"><a xlink:href="class_c_connman.html#ad59340080a38661aadeac522c2ccf656" target="_top" xlink:title="CConnman::DumpData">
<polygon fill="white" stroke="black" points="339.5,-38.5 339.5,-57.5 458.5,-57.5 458.5,-38.5 339.5,-38.5"/>
<text text-anchor="middle" x="399" y="-45.5" font-family="Helvetica,sans-Serif" font-size="10.00">CConnman::DumpData</text>
</a>
</g>
</g>
<!-- Node3024&#45;&gt;Node3027 -->
<g id="edge4" class="edge"><title>Node3024&#45;&gt;Node3027</title>
<path fill="none" stroke="midnightblue" d="M272.744,-92.0715C302.552,-81.5836 343.898,-67.0361 370.796,-57.5716"/>
<polygon fill="midnightblue" stroke="midnightblue" points="271.387,-88.8388 263.115,-95.4595 273.71,-95.4419 271.387,-88.8388"/>
</g>
<!-- Node3024&#45;&gt;Node3028 -->
<g id="edge8" class="edge"><title>Node3024&#45;&gt;Node3028</title>
<path fill="none" stroke="midnightblue" d="M309.162,-100.494C368.046,-96.8675 448.958,-91.8843 498.932,-88.8065"/>
<polygon fill="midnightblue" stroke="midnightblue" points="308.94,-97.001 299.174,-101.109 309.37,-103.988 308.94,-97.001"/>
</g>
<!-- Node3031 -->
<g id="node9" class="node"><title>Node3031</title>
<g id="a_node9"><a xlink:href="class_c_connman.html#aec22c52d83be0b6cccb723af3a28b366" target="_top" xlink:title="CConnman::Unban">
<polygon fill="white" stroke="black" points="348.5,-0.5 348.5,-19.5 449.5,-19.5 449.5,-0.5 348.5,-0.5"/>
<text text-anchor="middle" x="399" y="-7.5" font-family="Helvetica,sans-Serif" font-size="10.00">CConnman::Unban</text>
</a>
</g>
</g>
<!-- Node3024&#45;&gt;Node3031 -->
<g id="edge9" class="edge"><title>Node3024&#45;&gt;Node3031</title>
<path fill="none" stroke="midnightblue" d="M253.297,-88.5448C272.071,-71.4859 303.592,-45.105 335,-29 342.319,-25.2469 350.505,-22.102 358.49,-19.52"/>
<polygon fill="midnightblue" stroke="midnightblue" points="250.805,-86.0819 245.841,-95.4421 255.559,-91.2203 250.805,-86.0819"/>
</g>
<!-- Node3027&#45;&gt;Node3028 -->
<g id="edge5" class="edge"><title>Node3027&#45;&gt;Node3028</title>
<path fill="none" stroke="midnightblue" d="M446.333,-60.1843C466.394,-65.46 489.529,-71.5438 508.299,-76.4799"/>
<polygon fill="midnightblue" stroke="midnightblue" points="447.025,-56.7474 436.463,-57.589 445.244,-63.5173 447.025,-56.7474"/>
</g>
<!-- Node3029 -->
<g id="node7" class="node"><title>Node3029</title>
<g id="a_node7"><a xlink:href="class_c_connman.html#a289dca0ee65310fcfc5b552249fc0401" target="_top" xlink:title="CConnman::Stop">
<polygon fill="white" stroke="black" points="499.5,-38.5 499.5,-57.5 591.5,-57.5 591.5,-38.5 499.5,-38.5"/>
<text text-anchor="middle" x="545.5" y="-45.5" font-family="Helvetica,sans-Serif" font-size="10.00">CConnman::Stop</text>
</a>
</g>
</g>
<!-- Node3027&#45;&gt;Node3029 -->
<g id="edge6" class="edge"><title>Node3027&#45;&gt;Node3029</title>
<path fill="none" stroke="midnightblue" d="M468.944,-48C479.174,-48 489.492,-48 499.077,-48"/>
<polygon fill="midnightblue" stroke="midnightblue" points="468.774,-44.5001 458.774,-48 468.774,-51.5001 468.774,-44.5001"/>
</g>
<!-- Node3030 -->
<g id="node8" class="node"><title>Node3030</title>
<g id="a_node8"><a xlink:href="class_c_connman.html#ab4bc83003310d960423d963148d5c9ec" target="_top" xlink:title="CConnman::~CConnman">
<polygon fill="white" stroke="black" points="628,-38.5 628,-57.5 756,-57.5 756,-38.5 628,-38.5"/>
<text text-anchor="middle" x="692" y="-45.5" font-family="Helvetica,sans-Serif" font-size="10.00">CConnman::~CConnman</text>
</a>
</g>
</g>
<!-- Node3029&#45;&gt;Node3030 -->
<g id="edge7" class="edge"><title>Node3029&#45;&gt;Node3030</title>
<path fill="none" stroke="midnightblue" d="M601.958,-48C610.426,-48 619.22,-48 627.839,-48"/>
<polygon fill="midnightblue" stroke="midnightblue" points="601.824,-44.5001 591.824,-48 601.824,-51.5001 601.824,-44.5001"/>
</g>
</g>
</svg>
        <g id="navigator" transform="translate(0 0)" fill="#404254">
                <rect fill="#f2f5e9" fill-opacity="0.5" stroke="#606060" stroke-width=".5" x="0" y="0" width="60" height="60"/>
                <use id="zoomplus" xlink:href="#zoomPlus" x="17" y="9" onmousedown="handleZoom(evt,'in')"/>
                <use id="zoomminus" xlink:href="#zoomMin" x="42" y="9" onmousedown="handleZoom(evt,'out')"/>
                <use id="reset" xlink:href="#resetDef" x="30" y="36" onmousedown="handleReset()"/>
                <g id="arrowUp" xlink:href="#dirArrow" transform="translate(30 24)" onmousedown="handlePan(0,-1)">
                  <use xlink:href="#rim" fill="#404040">
                        <set attributeName="fill" to="#808080" begin="arrowUp.mouseover" end="arrowUp.mouseout"/>
                  </use>
                  <path fill="none" stroke="white" stroke-width="1.5" d="M0,-3.0v7 M-2.5,-0.5L0,-3.0L2.5,-0.5"/>
                </g>
                <g id="arrowRight" xlink:href="#dirArrow" transform="rotate(90) translate(36 -43)" onmousedown="handlePan(1,0)">
                  <use xlink:href="#rim" fill="#404040">
                        <set attributeName="fill" to="#808080" begin="arrowRight.mouseover" end="arrowRight.mouseout"/>
                  </use>
                  <path fill="none" stroke="white" stroke-width="1.5" d="M0,-3.0v7 M-2.5,-0.5L0,-3.0L2.5,-0.5"/>
                </g>
                <g id="arrowDown" xlink:href="#dirArrow" transform="rotate(180) translate(-30 -48)" onmousedown="handlePan(0,1)">
                  <use xlink:href="#rim" fill="#404040">
                        <set attributeName="fill" to="#808080" begin="arrowDown.mouseover" end="arrowDown.mouseout"/>
                  </use>
                  <path fill="none" stroke="white" stroke-width="1.5" d="M0,-3.0v7 M-2.5,-0.5L0,-3.0L2.5,-0.5"/>
                </g>
                <g id="arrowLeft" xlink:href="#dirArrow" transform="rotate(270) translate(-36 17)" onmousedown="handlePan(-1,0)">
                  <use xlink:href="#rim" fill="#404040">
                        <set attributeName="fill" to="#808080" begin="arrowLeft.mouseover" end="arrowLeft.mouseout"/>
                  </use>
                  <path fill="none" stroke="white" stroke-width="1.5" d="M0,-3.0v7 M-2.5,-0.5L0,-3.0L2.5,-0.5"/>
                </g>
        </g>
        <svg viewBox="0 0 15 15" width="100%" height="30px" preserveAspectRatio="xMaxYMin meet">
         <g id="arrow_out" transform="scale(0.3 0.3)">
          <a xlink:href="class_c_connman_a0695d37447e19cfde25be7e9b7f13f67_icgraph_org.svg" target="_base">
           <rect id="button" ry="5" rx="5" y="6" x="6" height="38" width="38"
                fill="#f2f5e9" fill-opacity="0.5" stroke="#606060" stroke-width="1.0"/>
           <path id="arrow"
             d="M 11.500037,31.436501 C 11.940474,20.09759 22.043105,11.32322 32.158766,21.979434 L 37.068811,17.246167 C 37.068811,17.246167 37.088388,32 37.088388,32 L 22.160133,31.978069 C 22.160133,31.978069 26.997745,27.140456 26.997745,27.140456 C 18.528582,18.264221 13.291696,25.230495 11.500037,31.436501 z"
             style="fill:#404040;"/>
          </a>
         </g>
        </svg>
</svg>
