<?xml version="1.0" encoding="UTF-8" standalone="no"?>
<!DOCTYPE svg PUBLIC "-//W3C//DTD SVG 1.1//EN"
 "http://www.w3.org/Graphics/SVG/1.1/DTD/svg11.dtd">
<!-- Generated by graphviz version 2.38.0 (20140413.2041)
 -->
<!-- Title: CMasternode::IsBroadcastedWithin Pages: 1 -->
<!--zoomable 167 -->
<svg id="main" version="1.1" xmlns="http://www.w3.org/2000/svg" xmlns:xlink="http://www.w3.org/1999/xlink" xml:space="preserve" onload="init(evt)">
<style type="text/css"><![CDATA[
.edge:hover path { stroke: red; }
.edge:hover polygon { stroke: red; fill: red; }
]]></style>
<script type="text/javascript"><![CDATA[
var edges = document.getElementsByTagName('g');
if (edges && edges.length) {
  for (var i=0;i<edges.length;i++) {
    if (edges[i].id.substr(0,4)=='edge') {
      edges[i].setAttribute('class','edge');
    }
  }
}
]]></script>
        <defs>
                <circle id="rim" cx="0" cy="0" r="7"/>
                <circle id="rim2" cx="0" cy="0" r="3.5"/>
                <g id="zoomPlus">
                        <use xlink:href="#rim" fill="#404040">
                                <set attributeName="fill" to="#808080" begin="zoomplus.mouseover" end="zoomplus.mouseout"/>
                        </use>
                        <path d="M-4,0h8M0,-4v8" fill="none" stroke="white" stroke-width="1.5" pointer-events="none"/>
                </g>
                <g id="zoomMin">
                        <use xlink:href="#rim" fill="#404040">
                                <set attributeName="fill" to="#808080" begin="zoomminus.mouseover" end="zoomminus.mouseout"/>
                        </use>
                        <path d="M-4,0h8" fill="none" stroke="white" stroke-width="1.5" pointer-events="none"/>
                </g>
                <g id="dirArrow">
                        <path fill="none" stroke="white" stroke-width="1.5" d="M0,-3.0v7 M-2.5,-0.5L0,-3.0L2.5,-0.5"/>
                </g>
               <g id="resetDef">
                       <use xlink:href="#rim2" fill="#404040">
                               <set attributeName="fill" to="#808080" begin="reset.mouseover" end="reset.mouseout"/>
                       </use>
               </g>
        </defs>

<script type="text/javascript">
var viewWidth = 1648;
var viewHeight = 167;
var sectionId = 'dynsection-22';
</script>
<script xlink:href="svgpan.js"/>
<svg id="graph" class="graph">
<g id="viewport">
<title>CMasternode::IsBroadcastedWithin</title>
<polygon fill="white" stroke="none" points="-4,4 -4,-163 1644,-163 1644,4 -4,4"/>
<!-- Node338 -->
<g id="node1" class="node"><title>Node338</title>
<polygon fill="#bfbfbf" stroke="black" points="0,-90 0,-120 144,-120 144,-90 0,-90"/>
<text text-anchor="start" x="8" y="-108" font-family="Helvetica,sans-Serif" font-size="10.00">CMasternode::IsBroadcasted</text>
<text text-anchor="middle" x="72" y="-97" font-family="Helvetica,sans-Serif" font-size="10.00">Within</text>
</g>
<!-- Node339 -->
<g id="node2" class="node"><title>Node339</title>
<g id="a_node2"><a xlink:href="class_c_masternode_broadcast.html#a42077f16c601f9804bc3b24fd602993c" target="_top" xlink:title="CMasternodeBroadcast\l::Update">
<polygon fill="white" stroke="black" points="180,-90 180,-120 299,-120 299,-90 180,-90"/>
<text text-anchor="start" x="188" y="-108" font-family="Helvetica,sans-Serif" font-size="10.00">CMasternodeBroadcast</text>
<text text-anchor="middle" x="239.5" y="-97" font-family="Helvetica,sans-Serif" font-size="10.00">::Update</text>
</a>
</g>
</g>
<!-- Node338&#45;&gt;Node339 -->
<g id="edge1" class="edge"><title>Node338&#45;&gt;Node339</title>
<path fill="none" stroke="midnightblue" d="M154.256,-105C162.894,-105 171.554,-105 179.86,-105"/>
<polygon fill="midnightblue" stroke="midnightblue" points="154.147,-101.5 144.147,-105 154.147,-108.5 154.147,-101.5"/>
</g>
<!-- Node340 -->
<g id="node3" class="node"><title>Node340</title>
<g id="a_node3"><a xlink:href="class_c_masternode_man.html#a66994623de992c0c4680a95096f3936c" target="_top" xlink:title="Perform complete check and only then update list and maps. ">
<polygon fill="white" stroke="black" points="335,-90 335,-120 482,-120 482,-90 335,-90"/>
<text text-anchor="start" x="343" y="-108" font-family="Helvetica,sans-Serif" font-size="10.00">CMasternodeMan::CheckMnb</text>
<text text-anchor="middle" x="408.5" y="-97" font-family="Helvetica,sans-Serif" font-size="10.00">AndUpdateMasternodeList</text>
</a>
</g>
</g>
<!-- Node339&#45;&gt;Node340 -->
<g id="edge2" class="edge"><title>Node339&#45;&gt;Node340</title>
<path fill="none" stroke="midnightblue" d="M309.46,-105C317.826,-105 326.393,-105 334.811,-105"/>
<polygon fill="midnightblue" stroke="midnightblue" points="309.378,-101.5 299.378,-105 309.378,-108.5 309.378,-101.5"/>
</g>
<!-- Node341 -->
<g id="node4" class="node"><title>Node341</title>
<g id="a_node4"><a xlink:href="server_8h.html#a7ae813efd78b542bd5e3cddb01174777" target="_top" xlink:title="masternodebroadcast">
<polygon fill="white" stroke="black" points="551,-139.5 551,-158.5 661,-158.5 661,-139.5 551,-139.5"/>
<text text-anchor="middle" x="606" y="-146.5" font-family="Helvetica,sans-Serif" font-size="10.00">masternodebroadcast</text>
</a>
</g>
</g>
<!-- Node340&#45;&gt;Node341 -->
<g id="edge3" class="edge"><title>Node340&#45;&gt;Node341</title>
<path fill="none" stroke="midnightblue" d="M484.179,-122.325C495.505,-124.919 507.059,-127.545 518,-130 531.878,-133.114 547.018,-136.444 560.719,-139.432"/>
<polygon fill="midnightblue" stroke="midnightblue" points="484.834,-118.885 474.304,-120.06 483.268,-125.707 484.834,-118.885"/>
</g>
<!-- Node342 -->
<g id="node5" class="node"><title>Node342</title>
<g id="a_node5"><a xlink:href="class_c_masternode_man.html#a09302023fe1dca8be33e34d1ece9d27f" target="_top" xlink:title="Check all Masternodes and remove inactive. ">
<polygon fill="white" stroke="black" points="533,-90 533,-120 679,-120 679,-90 533,-90"/>
<text text-anchor="start" x="541" y="-108" font-family="Helvetica,sans-Serif" font-size="10.00">CMasternodeMan::CheckAnd</text>
<text text-anchor="middle" x="606" y="-97" font-family="Helvetica,sans-Serif" font-size="10.00">Remove</text>
</a>
</g>
</g>
<!-- Node340&#45;&gt;Node342 -->
<g id="edge4" class="edge"><title>Node340&#45;&gt;Node342</title>
<path fill="none" stroke="midnightblue" d="M492.262,-105C505.78,-105 519.69,-105 532.924,-105"/>
<polygon fill="midnightblue" stroke="midnightblue" points="492.019,-101.5 482.019,-105 492.019,-108.5 492.019,-101.5"/>
</g>
<!-- Node348 -->
<g id="node11" class="node"><title>Node348</title>
<g id="a_node11"><a xlink:href="class_c_masternode_man.html#ae8534b13438b5a2166854a6d35d99bac" target="_top" xlink:title="CMasternodeMan::ProcessMessage">
<polygon fill="white" stroke="black" points="518,-51.5 518,-70.5 694,-70.5 694,-51.5 518,-51.5"/>
<text text-anchor="middle" x="606" y="-58.5" font-family="Helvetica,sans-Serif" font-size="10.00">CMasternodeMan::ProcessMessage</text>
</a>
</g>
</g>
<!-- Node340&#45;&gt;Node348 -->
<g id="edge10" class="edge"><title>Node340&#45;&gt;Node348</title>
<path fill="none" stroke="midnightblue" d="M484.179,-87.6748C495.505,-85.0812 507.059,-82.4551 518,-80 531.878,-76.8858 547.018,-73.5561 560.719,-70.5679"/>
<polygon fill="midnightblue" stroke="midnightblue" points="483.268,-84.2926 474.304,-89.9404 484.834,-91.1153 483.268,-84.2926"/>
</g>
<!-- Node343 -->
<g id="node6" class="node"><title>Node343</title>
<g id="a_node6"><a xlink:href="privatesend_8h.html#a8ca12ada145ba86ddcba18018b77db14" target="_top" xlink:title="ThreadCheckPrivateSend">
<polygon fill="white" stroke="black" points="858,-95.5 858,-114.5 986,-114.5 986,-95.5 858,-95.5"/>
<text text-anchor="middle" x="922" y="-102.5" font-family="Helvetica,sans-Serif" font-size="10.00">ThreadCheckPrivateSend</text>
</a>
</g>
</g>
<!-- Node342&#45;&gt;Node343 -->
<g id="edge5" class="edge"><title>Node342&#45;&gt;Node343</title>
<path fill="none" stroke="midnightblue" d="M689.04,-105C741.77,-105 809.239,-105 857.803,-105"/>
<polygon fill="midnightblue" stroke="midnightblue" points="689.038,-101.5 679.038,-105 689.038,-108.5 689.038,-101.5"/>
</g>
<!-- Node344 -->
<g id="node7" class="node"><title>Node344</title>
<g id="a_node7"><a xlink:href="init_8h.html#a6f0784aa332573f949b0975205572b28" target="_top" xlink:title="Initialize Dash Core. ">
<polygon fill="white" stroke="black" points="1195.5,-85.5 1195.5,-104.5 1248.5,-104.5 1248.5,-85.5 1195.5,-85.5"/>
<text text-anchor="middle" x="1222" y="-92.5" font-family="Helvetica,sans-Serif" font-size="10.00">AppInit2</text>
</a>
</g>
</g>
<!-- Node343&#45;&gt;Node344 -->
<g id="edge6" class="edge"><title>Node343&#45;&gt;Node344</title>
<path fill="none" stroke="midnightblue" d="M996.333,-102.539C1060.93,-100.371 1151.36,-97.337 1195.17,-95.8667"/>
<polygon fill="midnightblue" stroke="midnightblue" points="996.075,-99.0457 986.198,-102.879 996.31,-106.042 996.075,-99.0457"/>
</g>
<!-- Node345 -->
<g id="node8" class="node"><title>Node345</title>
<g id="a_node8"><a xlink:href="dashd_8cpp.html#ac59316b767e6984e1285f0531275286b" target="_top" xlink:title="AppInit">
<polygon fill="white" stroke="black" points="1484.5,-76.5 1484.5,-95.5 1531.5,-95.5 1531.5,-76.5 1484.5,-76.5"/>
<text text-anchor="middle" x="1508" y="-83.5" font-family="Helvetica,sans-Serif" font-size="10.00">AppInit</text>
</a>
</g>
</g>
<!-- Node344&#45;&gt;Node345 -->
<g id="edge7" class="edge"><title>Node344&#45;&gt;Node345</title>
<path fill="none" stroke="midnightblue" d="M1258.75,-100.315C1273.09,-102.198 1289.79,-104.076 1305,-105 1353.36,-107.938 1365.8,-109.873 1414,-105 1438.27,-102.547 1465.56,-96.5796 1484.27,-91.9816"/>
<polygon fill="midnightblue" stroke="midnightblue" points="1259.16,-96.839 1248.78,-98.9577 1258.21,-103.775 1259.16,-96.839"/>
</g>
<!-- Node347 -->
<g id="node10" class="node"><title>Node347</title>
<g id="a_node10"><a xlink:href="class_bitcoin_core.html#af34ca069cda1d4362dcc109b4397fb62" target="_top" xlink:title="BitcoinCore::initialize">
<polygon fill="white" stroke="black" points="1305,-76.5 1305,-95.5 1414,-95.5 1414,-76.5 1305,-76.5"/>
<text text-anchor="middle" x="1359.5" y="-83.5" font-family="Helvetica,sans-Serif" font-size="10.00">BitcoinCore::initialize</text>
</a>
</g>
</g>
<!-- Node344&#45;&gt;Node347 -->
<g id="edge9" class="edge"><title>Node344&#45;&gt;Node347</title>
<path fill="none" stroke="midnightblue" d="M1259.01,-92.6081C1273.03,-91.6772 1289.38,-90.5907 1304.74,-89.5709"/>
<polygon fill="midnightblue" stroke="midnightblue" points="1258.55,-89.1308 1248.81,-93.286 1259.02,-96.1155 1258.55,-89.1308"/>
</g>
<!-- Node346 -->
<g id="node9" class="node"><title>Node346</title>
<g id="a_node9"><a xlink:href="dashd_8cpp.html#a0ddf1224851353fc92bfbff6f499fa97" target="_top" xlink:title="main">
<polygon fill="white" stroke="black" points="1602,-76.5 1602,-95.5 1640,-95.5 1640,-76.5 1602,-76.5"/>
<text text-anchor="middle" x="1621" y="-83.5" font-family="Helvetica,sans-Serif" font-size="10.00">main</text>
</a>
</g>
</g>
<!-- Node345&#45;&gt;Node346 -->
<g id="edge8" class="edge"><title>Node345&#45;&gt;Node346</title>
<path fill="none" stroke="midnightblue" d="M1541.77,-86C1561.33,-86 1585.46,-86 1601.7,-86"/>
<polygon fill="midnightblue" stroke="midnightblue" points="1541.73,-82.5001 1531.73,-86 1541.73,-89.5001 1541.73,-82.5001"/>
</g>
<!-- Node349 -->
<g id="node12" class="node"><title>Node349</title>
<g id="a_node12"><a xlink:href="net__processing_8cpp.html#a193d0ece6e2f2f7ee37352ac9720bb83" target="_top" xlink:title="ProcessMessage">
<polygon fill="white" stroke="black" points="730,-51.5 730,-70.5 822,-70.5 822,-51.5 730,-51.5"/>
<text text-anchor="middle" x="776" y="-58.5" font-family="Helvetica,sans-Serif" font-size="10.00">ProcessMessage</text>
</a>
</g>
</g>
<!-- Node348&#45;&gt;Node349 -->
<g id="edge11" class="edge"><title>Node348&#45;&gt;Node349</title>
<path fill="none" stroke="midnightblue" d="M704.473,-61C713.298,-61 721.919,-61 729.932,-61"/>
<polygon fill="midnightblue" stroke="midnightblue" points="704.444,-57.5001 694.444,-61 704.444,-64.5001 704.444,-57.5001"/>
</g>
<!-- Node350 -->
<g id="node13" class="node"><title>Node350</title>
<g id="a_node13"><a xlink:href="net__processing_8h.html#a7fa42e7ffd6e6ba5b7537af248e30fc8" target="_top" xlink:title="Process protocol messages received from a given node. ">
<polygon fill="white" stroke="black" points="873,-51.5 873,-70.5 971,-70.5 971,-51.5 873,-51.5"/>
<text text-anchor="middle" x="922" y="-58.5" font-family="Helvetica,sans-Serif" font-size="10.00">ProcessMessages</text>
</a>
</g>
</g>
<!-- Node349&#45;&gt;Node350 -->
<g id="edge12" class="edge"><title>Node349&#45;&gt;Node350</title>
<path fill="none" stroke="midnightblue" d="M832.194,-61C845.556,-61 859.737,-61 872.752,-61"/>
<polygon fill="midnightblue" stroke="midnightblue" points="832.167,-57.5001 822.167,-61 832.167,-64.5001 832.167,-57.5001"/>
</g>
<!-- Node351 -->
<g id="node14" class="node"><title>Node351</title>
<g id="a_node14"><a xlink:href="net__processing_8h.html#ab02615ff65f91d69f8d786ec900baa8a" target="_top" xlink:title="Register with a network node to receive its signals. ">
<polygon fill="white" stroke="black" points="1026,-57.5 1026,-76.5 1135,-76.5 1135,-57.5 1026,-57.5"/>
<text text-anchor="middle" x="1080.5" y="-64.5" font-family="Helvetica,sans-Serif" font-size="10.00">RegisterNodeSignals</text>
</a>
</g>
</g>
<!-- Node350&#45;&gt;Node351 -->
<g id="edge13" class="edge"><title>Node350&#45;&gt;Node351</title>
<path fill="none" stroke="midnightblue" d="M981.622,-63.2475C996.169,-63.8052 1011.68,-64.4 1025.97,-64.9478"/>
<polygon fill="midnightblue" stroke="midnightblue" points="981.359,-59.7349 971.232,-62.8492 981.091,-66.7298 981.359,-59.7349"/>
</g>
<!-- Node352 -->
<g id="node15" class="node"><title>Node352</title>
<g id="a_node15"><a xlink:href="net__processing_8h.html#a3ef0cc6e9d9d6435ee2a5569244d6ebd" target="_top" xlink:title="Unregister a network node. ">
<polygon fill="white" stroke="black" points="1022,-19.5 1022,-38.5 1139,-38.5 1139,-19.5 1022,-19.5"/>
<text text-anchor="middle" x="1080.5" y="-26.5" font-family="Helvetica,sans-Serif" font-size="10.00">UnregisterNodeSignals</text>
</a>
</g>
</g>
<!-- Node350&#45;&gt;Node352 -->
<g id="edge15" class="edge"><title>Node350&#45;&gt;Node352</title>
<path fill="none" stroke="midnightblue" d="M979.616,-49.4236C997.1,-45.8485 1016.15,-41.9537 1032.88,-38.533"/>
<polygon fill="midnightblue" stroke="midnightblue" points="978.628,-46.0532 969.531,-51.4856 980.03,-52.9113 978.628,-46.0532"/>
</g>
<!-- Node351&#45;&gt;Node344 -->
<g id="edge14" class="edge"><title>Node351&#45;&gt;Node344</title>
<path fill="none" stroke="midnightblue" d="M1139.14,-78.5702C1158.61,-82.477 1179.37,-86.6442 1195.11,-89.8041"/>
<polygon fill="midnightblue" stroke="midnightblue" points="1139.61,-75.0941 1129.12,-76.5577 1138.23,-81.9573 1139.61,-75.0941"/>
</g>
<!-- Node353 -->
<g id="node16" class="node"><title>Node353</title>
<g id="a_node16"><a xlink:href="init_8h.html#a5cb3db83cb0ba2e421f651a1ee1f2cfe" target="_top" xlink:title="Preparing steps before shutting down or restarting the wallet. ">
<polygon fill="white" stroke="black" points="1175,-19.5 1175,-38.5 1269,-38.5 1269,-19.5 1175,-19.5"/>
<text text-anchor="middle" x="1222" y="-26.5" font-family="Helvetica,sans-Serif" font-size="10.00">PrepareShutdown</text>
</a>
</g>
</g>
<!-- Node352&#45;&gt;Node353 -->
<g id="edge16" class="edge"><title>Node352&#45;&gt;Node353</title>
<path fill="none" stroke="midnightblue" d="M1149.13,-29C1157.77,-29 1166.45,-29 1174.65,-29"/>
<polygon fill="midnightblue" stroke="midnightblue" points="1149.05,-25.5001 1139.05,-29 1149.05,-32.5001 1149.05,-25.5001"/>
</g>
<!-- Node354 -->
<g id="node17" class="node"><title>Node354</title>
<g id="a_node17"><a xlink:href="class_bitcoin_core.html#ac2271844c89ebc4c611e7617ce6202e3" target="_top" xlink:title="BitcoinCore::restart">
<polygon fill="white" stroke="black" points="1309,-38.5 1309,-57.5 1410,-57.5 1410,-38.5 1309,-38.5"/>
<text text-anchor="middle" x="1359.5" y="-45.5" font-family="Helvetica,sans-Serif" font-size="10.00">BitcoinCore::restart</text>
</a>
</g>
</g>
<!-- Node353&#45;&gt;Node354 -->
<g id="edge17" class="edge"><title>Node353&#45;&gt;Node354</title>
<path fill="none" stroke="midnightblue" d="M1279.29,-36.8924C1289.06,-38.2632 1299.16,-39.6799 1308.75,-41.0239"/>
<polygon fill="midnightblue" stroke="midnightblue" points="1279.64,-33.4082 1269.25,-35.4856 1278.67,-40.3404 1279.64,-33.4082"/>
</g>
<!-- Node355 -->
<g id="node18" class="node"><title>Node355</title>
<g id="a_node18"><a xlink:href="init_8h.html#ac5f038c2b480cf9ef5e19e3eba8dbaf9" target="_top" xlink:title="Shutdown is split into 2 parts: Part 1: shut down everything but the main wallet instance (done in Pr...">
<polygon fill="white" stroke="black" points="1329.5,-0.5 1329.5,-19.5 1389.5,-19.5 1389.5,-0.5 1329.5,-0.5"/>
<text text-anchor="middle" x="1359.5" y="-7.5" font-family="Helvetica,sans-Serif" font-size="10.00">Shutdown</text>
</a>
</g>
</g>
<!-- Node353&#45;&gt;Node355 -->
<g id="edge18" class="edge"><title>Node353&#45;&gt;Node355</title>
<path fill="none" stroke="midnightblue" d="M1279.25,-21.1123C1296.5,-18.6943 1314.76,-16.1328 1329.41,-14.0793"/>
<polygon fill="midnightblue" stroke="midnightblue" points="1278.67,-17.6596 1269.25,-22.5144 1279.64,-24.5918 1278.67,-17.6596"/>
</g>
<!-- Node355&#45;&gt;Node345 -->
<g id="edge19" class="edge"><title>Node355&#45;&gt;Node345</title>
<path fill="none" stroke="midnightblue" d="M1399.17,-22.6455C1404.23,-24.614 1409.28,-26.748 1414,-29 1443.56,-43.1186 1475.64,-64.1858 1493.33,-76.3625"/>
<polygon fill="midnightblue" stroke="midnightblue" points="1400.14,-19.2709 1389.55,-19.0768 1397.71,-25.8344 1400.14,-19.2709"/>
</g>
<!-- Node356 -->
<g id="node19" class="node"><title>Node356</title>
<g id="a_node19"><a xlink:href="class_bitcoin_core.html#a94f3f4622ba698e321f3a2e0e686129f" target="_top" xlink:title="BitcoinCore::shutdown">
<polygon fill="white" stroke="black" points="1450,-0.5 1450,-19.5 1566,-19.5 1566,-0.5 1450,-0.5"/>
<text text-anchor="middle" x="1508" y="-7.5" font-family="Helvetica,sans-Serif" font-size="10.00">BitcoinCore::shutdown</text>
</a>
</g>
</g>
<!-- Node355&#45;&gt;Node356 -->
<g id="edge20" class="edge"><title>Node355&#45;&gt;Node356</title>
<path fill="none" stroke="midnightblue" d="M1399.97,-10C1415.31,-10 1433.18,-10 1449.88,-10"/>
<polygon fill="midnightblue" stroke="midnightblue" points="1399.79,-6.5001 1389.79,-10 1399.79,-13.5001 1399.79,-6.5001"/>
</g>
</g>
</svg>
        <g id="navigator" transform="translate(0 0)" fill="#404254">
                <rect fill="#f2f5e9" fill-opacity="0.5" stroke="#606060" stroke-width=".5" x="0" y="0" width="60" height="60"/>
                <use id="zoomplus" xlink:href="#zoomPlus" x="17" y="9" onmousedown="handleZoom(evt,'in')"/>
                <use id="zoomminus" xlink:href="#zoomMin" x="42" y="9" onmousedown="handleZoom(evt,'out')"/>
                <use id="reset" xlink:href="#resetDef" x="30" y="36" onmousedown="handleReset()"/>
                <g id="arrowUp" xlink:href="#dirArrow" transform="translate(30 24)" onmousedown="handlePan(0,-1)">
                  <use xlink:href="#rim" fill="#404040">
                        <set attributeName="fill" to="#808080" begin="arrowUp.mouseover" end="arrowUp.mouseout"/>
                  </use>
                  <path fill="none" stroke="white" stroke-width="1.5" d="M0,-3.0v7 M-2.5,-0.5L0,-3.0L2.5,-0.5"/>
                </g>
                <g id="arrowRight" xlink:href="#dirArrow" transform="rotate(90) translate(36 -43)" onmousedown="handlePan(1,0)">
                  <use xlink:href="#rim" fill="#404040">
                        <set attributeName="fill" to="#808080" begin="arrowRight.mouseover" end="arrowRight.mouseout"/>
                  </use>
                  <path fill="none" stroke="white" stroke-width="1.5" d="M0,-3.0v7 M-2.5,-0.5L0,-3.0L2.5,-0.5"/>
                </g>
                <g id="arrowDown" xlink:href="#dirArrow" transform="rotate(180) translate(-30 -48)" onmousedown="handlePan(0,1)">
                  <use xlink:href="#rim" fill="#404040">
                        <set attributeName="fill" to="#808080" begin="arrowDown.mouseover" end="arrowDown.mouseout"/>
                  </use>
                  <path fill="none" stroke="white" stroke-width="1.5" d="M0,-3.0v7 M-2.5,-0.5L0,-3.0L2.5,-0.5"/>
                </g>
                <g id="arrowLeft" xlink:href="#dirArrow" transform="rotate(270) translate(-36 17)" onmousedown="handlePan(-1,0)">
                  <use xlink:href="#rim" fill="#404040">
                        <set attributeName="fill" to="#808080" begin="arrowLeft.mouseover" end="arrowLeft.mouseout"/>
                  </use>
                  <path fill="none" stroke="white" stroke-width="1.5" d="M0,-3.0v7 M-2.5,-0.5L0,-3.0L2.5,-0.5"/>
                </g>
        </g>
        <svg viewBox="0 0 15 15" width="100%" height="30px" preserveAspectRatio="xMaxYMin meet">
         <g id="arrow_out" transform="scale(0.3 0.3)">
          <a xlink:href="class_c_masternode_aa9aecc4762dcb9f6a5a5fb359e5aa9e1_icgraph_org.svg" target="_base">
           <rect id="button" ry="5" rx="5" y="6" x="6" height="38" width="38"
                fill="#f2f5e9" fill-opacity="0.5" stroke="#606060" stroke-width="1.0"/>
           <path id="arrow"
             d="M 11.500037,31.436501 C 11.940474,20.09759 22.043105,11.32322 32.158766,21.979434 L 37.068811,17.246167 C 37.068811,17.246167 37.088388,32 37.088388,32 L 22.160133,31.978069 C 22.160133,31.978069 26.997745,27.140456 26.997745,27.140456 C 18.528582,18.264221 13.291696,25.230495 11.500037,31.436501 z"
             style="fill:#404040;"/>
          </a>
         </g>
        </svg>
</svg>
