<?xml version="1.0" encoding="UTF-8" standalone="no"?>
<!DOCTYPE svg PUBLIC "-//W3C//DTD SVG 1.1//EN"
 "http://www.w3.org/Graphics/SVG/1.1/DTD/svg11.dtd">
<!-- Generated by graphviz version 2.38.0 (20140413.2041)
 -->
<!-- Title: CMasternode::IsExpired Pages: 1 -->
<!--zoomable 189 -->
<svg id="main" version="1.1" xmlns="http://www.w3.org/2000/svg" xmlns:xlink="http://www.w3.org/1999/xlink" xml:space="preserve" onload="init(evt)">
<style type="text/css"><![CDATA[
.edge:hover path { stroke: red; }
.edge:hover polygon { stroke: red; fill: red; }
]]></style>
<script type="text/javascript"><![CDATA[
var edges = document.getElementsByTagName('g');
if (edges && edges.length) {
  for (var i=0;i<edges.length;i++) {
    if (edges[i].id.substr(0,4)=='edge') {
      edges[i].setAttribute('class','edge');
    }
  }
}
]]></script>
        <defs>
                <circle id="rim" cx="0" cy="0" r="7"/>
                <circle id="rim2" cx="0" cy="0" r="3.5"/>
                <g id="zoomPlus">
                        <use xlink:href="#rim" fill="#404040">
                                <set attributeName="fill" to="#808080" begin="zoomplus.mouseover" end="zoomplus.mouseout"/>
                        </use>
                        <path d="M-4,0h8M0,-4v8" fill="none" stroke="white" stroke-width="1.5" pointer-events="none"/>
                </g>
                <g id="zoomMin">
                        <use xlink:href="#rim" fill="#404040">
                                <set attributeName="fill" to="#808080" begin="zoomminus.mouseover" end="zoomminus.mouseout"/>
                        </use>
                        <path d="M-4,0h8" fill="none" stroke="white" stroke-width="1.5" pointer-events="none"/>
                </g>
                <g id="dirArrow">
                        <path fill="none" stroke="white" stroke-width="1.5" d="M0,-3.0v7 M-2.5,-0.5L0,-3.0L2.5,-0.5"/>
                </g>
               <g id="resetDef">
                       <use xlink:href="#rim2" fill="#404040">
                               <set attributeName="fill" to="#808080" begin="reset.mouseover" end="reset.mouseout"/>
                       </use>
               </g>
        </defs>

<script type="text/javascript">
var viewWidth = 2145;
var viewHeight = 189;
var sectionId = 'dynsection-24';
</script>
<script xlink:href="svgpan.js"/>
<svg id="graph" class="graph">
<g id="viewport">
<title>CMasternode::IsExpired</title>
<polygon fill="white" stroke="none" points="-4,4 -4,-184.5 2141,-184.5 2141,4 -4,4"/>
<!-- Node382 -->
<g id="node1" class="node"><title>Node382</title>
<polygon fill="#bfbfbf" stroke="black" points="0,-132.5 0,-151.5 122,-151.5 122,-132.5 0,-132.5"/>
<text text-anchor="middle" x="61" y="-139.5" font-family="Helvetica,sans-Serif" font-size="10.00">CMasternode::IsExpired</text>
</g>
<!-- Node383 -->
<g id="node2" class="node"><title>Node383</title>
<g id="a_node2"><a xlink:href="class_c_masternode.html#ac00056a0de9176ec7922d88795a6988f" target="_top" xlink:title="CMasternode::Check">
<polygon fill="white" stroke="black" points="158,-112.5 158,-131.5 268,-131.5 268,-112.5 158,-112.5"/>
<text text-anchor="middle" x="213" y="-119.5" font-family="Helvetica,sans-Serif" font-size="10.00">CMasternode::Check</text>
</a>
</g>
</g>
<!-- Node382&#45;&gt;Node383 -->
<g id="edge1" class="edge"><title>Node382&#45;&gt;Node383</title>
<path fill="none" stroke="midnightblue" d="M132.142,-132.648C140.714,-131.505 149.37,-130.351 157.661,-129.245"/>
<polygon fill="midnightblue" stroke="midnightblue" points="131.596,-129.189 122.146,-133.98 132.521,-136.128 131.596,-129.189"/>
</g>
<!-- Node384 -->
<g id="node3" class="node"><title>Node384</title>
<g id="a_node3"><a xlink:href="class_c_masternode_ping.html#a31094f33b96d13bf21b5609917be5d45" target="_top" xlink:title="CMasternodePing::CheckAnd\lUpdate">
<polygon fill="white" stroke="black" points="304,-150 304,-180 450,-180 450,-150 304,-150"/>
<text text-anchor="start" x="312" y="-168" font-family="Helvetica,sans-Serif" font-size="10.00">CMasternodePing::CheckAnd</text>
<text text-anchor="middle" x="377" y="-157" font-family="Helvetica,sans-Serif" font-size="10.00">Update</text>
</a>
</g>
</g>
<!-- Node382&#45;&gt;Node384 -->
<g id="edge26" class="edge"><title>Node382&#45;&gt;Node384</title>
<path fill="none" stroke="midnightblue" d="M132.147,-147.138C183.277,-150.883 252.34,-155.942 303.915,-159.72"/>
<polygon fill="midnightblue" stroke="midnightblue" points="132.4,-143.647 122.171,-146.407 131.888,-150.629 132.4,-143.647"/>
</g>
<!-- Node383&#45;&gt;Node384 -->
<g id="edge2" class="edge"><title>Node383&#45;&gt;Node384</title>
<path fill="none" stroke="midnightblue" d="M259.643,-134.115C278.225,-139.047 299.896,-144.8 319.465,-149.994"/>
<polygon fill="midnightblue" stroke="midnightblue" points="260.516,-130.726 249.953,-131.543 258.72,-137.492 260.516,-130.726"/>
</g>
<!-- Node386 -->
<g id="node5" class="node"><title>Node386</title>
<g id="a_node5"><a xlink:href="class_c_masternode_broadcast.html#a42077f16c601f9804bc3b24fd602993c" target="_top" xlink:title="CMasternodeBroadcast\l::Update">
<polygon fill="white" stroke="black" points="677,-112 677,-142 796,-142 796,-112 677,-112"/>
<text text-anchor="start" x="685" y="-130" font-family="Helvetica,sans-Serif" font-size="10.00">CMasternodeBroadcast</text>
<text text-anchor="middle" x="736.5" y="-119" font-family="Helvetica,sans-Serif" font-size="10.00">::Update</text>
</a>
</g>
</g>
<!-- Node383&#45;&gt;Node386 -->
<g id="edge25" class="edge"><title>Node383&#45;&gt;Node386</title>
<path fill="none" stroke="midnightblue" d="M278.523,-122.619C380.775,-123.599 578.513,-125.495 676.919,-126.438"/>
<polygon fill="midnightblue" stroke="midnightblue" points="278.367,-119.117 268.334,-122.521 278.3,-126.117 278.367,-119.117"/>
</g>
<!-- Node387 -->
<g id="node6" class="node"><title>Node387</title>
<g id="a_node6"><a xlink:href="class_c_masternode_man.html#a66994623de992c0c4680a95096f3936c" target="_top" xlink:title="Perform complete check and only then update list and maps. ">
<polygon fill="white" stroke="black" points="832,-90 832,-120 979,-120 979,-90 832,-90"/>
<text text-anchor="start" x="840" y="-108" font-family="Helvetica,sans-Serif" font-size="10.00">CMasternodeMan::CheckMnb</text>
<text text-anchor="middle" x="905.5" y="-97" font-family="Helvetica,sans-Serif" font-size="10.00">AndUpdateMasternodeList</text>
</a>
</g>
</g>
<!-- Node383&#45;&gt;Node387 -->
<g id="edge24" class="edge"><title>Node383&#45;&gt;Node387</title>
<path fill="none" stroke="midnightblue" d="M278.398,-118.339C367.809,-113.457 534.631,-105.073 677,-102 729.877,-100.858 743.116,-101.269 796,-102 807.588,-102.16 819.87,-102.417 831.844,-102.714"/>
<polygon fill="midnightblue" stroke="midnightblue" points="277.941,-114.859 268.148,-118.902 278.325,-121.848 277.941,-114.859"/>
</g>
<!-- Node385 -->
<g id="node4" class="node"><title>Node385</title>
<g id="a_node4"><a xlink:href="class_c_masternode.html#aaa6d2de9c88179cd210f956ec72b1b6b" target="_top" xlink:title="CMasternode::UpdateFromNew\lBroadcast">
<polygon fill="white" stroke="black" points="486,-150 486,-180 641,-180 641,-150 486,-150"/>
<text text-anchor="start" x="494" y="-168" font-family="Helvetica,sans-Serif" font-size="10.00">CMasternode::UpdateFromNew</text>
<text text-anchor="middle" x="563.5" y="-157" font-family="Helvetica,sans-Serif" font-size="10.00">Broadcast</text>
</a>
</g>
</g>
<!-- Node384&#45;&gt;Node385 -->
<g id="edge3" class="edge"><title>Node384&#45;&gt;Node385</title>
<path fill="none" stroke="midnightblue" d="M460.387,-165C468.861,-165 477.448,-165 485.856,-165"/>
<polygon fill="midnightblue" stroke="midnightblue" points="460.125,-161.5 450.125,-165 460.125,-168.5 460.125,-161.5"/>
</g>
<!-- Node385&#45;&gt;Node386 -->
<g id="edge4" class="edge"><title>Node385&#45;&gt;Node386</title>
<path fill="none" stroke="midnightblue" d="M641.913,-147.797C653.696,-145.179 665.686,-142.514 676.977,-140.005"/>
<polygon fill="midnightblue" stroke="midnightblue" points="641.086,-144.395 632.084,-149.981 642.605,-151.229 641.086,-144.395"/>
</g>
<!-- Node386&#45;&gt;Node387 -->
<g id="edge5" class="edge"><title>Node386&#45;&gt;Node387</title>
<path fill="none" stroke="midnightblue" d="M806.46,-117.915C814.826,-116.813 823.393,-115.685 831.811,-114.576"/>
<polygon fill="midnightblue" stroke="midnightblue" points="805.835,-114.467 796.378,-119.244 806.749,-121.407 805.835,-114.467"/>
</g>
<!-- Node388 -->
<g id="node7" class="node"><title>Node388</title>
<g id="a_node7"><a xlink:href="server_8h.html#a7ae813efd78b542bd5e3cddb01174777" target="_top" xlink:title="masternodebroadcast">
<polygon fill="white" stroke="black" points="1048,-139.5 1048,-158.5 1158,-158.5 1158,-139.5 1048,-139.5"/>
<text text-anchor="middle" x="1103" y="-146.5" font-family="Helvetica,sans-Serif" font-size="10.00">masternodebroadcast</text>
</a>
</g>
</g>
<!-- Node387&#45;&gt;Node388 -->
<g id="edge6" class="edge"><title>Node387&#45;&gt;Node388</title>
<path fill="none" stroke="midnightblue" d="M983.106,-122.241C1009.18,-128.109 1037.36,-134.451 1059.73,-139.488"/>
<polygon fill="midnightblue" stroke="midnightblue" points="983.758,-118.8 973.233,-120.019 982.221,-125.63 983.758,-118.8"/>
</g>
<!-- Node389 -->
<g id="node8" class="node"><title>Node389</title>
<g id="a_node8"><a xlink:href="class_c_masternode_man.html#a09302023fe1dca8be33e34d1ece9d27f" target="_top" xlink:title="Check all Masternodes and remove inactive. ">
<polygon fill="white" stroke="black" points="1030,-90 1030,-120 1176,-120 1176,-90 1030,-90"/>
<text text-anchor="start" x="1038" y="-108" font-family="Helvetica,sans-Serif" font-size="10.00">CMasternodeMan::CheckAnd</text>
<text text-anchor="middle" x="1103" y="-97" font-family="Helvetica,sans-Serif" font-size="10.00">Remove</text>
</a>
</g>
</g>
<!-- Node387&#45;&gt;Node389 -->
<g id="edge7" class="edge"><title>Node387&#45;&gt;Node389</title>
<path fill="none" stroke="midnightblue" d="M989.262,-105C1002.78,-105 1016.69,-105 1029.92,-105"/>
<polygon fill="midnightblue" stroke="midnightblue" points="989.019,-101.5 979.019,-105 989.019,-108.5 989.019,-101.5"/>
</g>
<!-- Node395 -->
<g id="node14" class="node"><title>Node395</title>
<g id="a_node14"><a xlink:href="class_c_masternode_man.html#ae8534b13438b5a2166854a6d35d99bac" target="_top" xlink:title="CMasternodeMan::ProcessMessage">
<polygon fill="white" stroke="black" points="1015,-51.5 1015,-70.5 1191,-70.5 1191,-51.5 1015,-51.5"/>
<text text-anchor="middle" x="1103" y="-58.5" font-family="Helvetica,sans-Serif" font-size="10.00">CMasternodeMan::ProcessMessage</text>
</a>
</g>
</g>
<!-- Node387&#45;&gt;Node395 -->
<g id="edge13" class="edge"><title>Node387&#45;&gt;Node395</title>
<path fill="none" stroke="midnightblue" d="M981.179,-87.6748C992.505,-85.0812 1004.06,-82.4551 1015,-80 1028.88,-76.8858 1044.02,-73.5561 1057.72,-70.5679"/>
<polygon fill="midnightblue" stroke="midnightblue" points="980.268,-84.2926 971.304,-89.9404 981.834,-91.1153 980.268,-84.2926"/>
</g>
<!-- Node390 -->
<g id="node9" class="node"><title>Node390</title>
<g id="a_node9"><a xlink:href="privatesend_8h.html#a8ca12ada145ba86ddcba18018b77db14" target="_top" xlink:title="ThreadCheckPrivateSend">
<polygon fill="white" stroke="black" points="1355,-95.5 1355,-114.5 1483,-114.5 1483,-95.5 1355,-95.5"/>
<text text-anchor="middle" x="1419" y="-102.5" font-family="Helvetica,sans-Serif" font-size="10.00">ThreadCheckPrivateSend</text>
</a>
</g>
</g>
<!-- Node389&#45;&gt;Node390 -->
<g id="edge8" class="edge"><title>Node389&#45;&gt;Node390</title>
<path fill="none" stroke="midnightblue" d="M1186.04,-105C1238.77,-105 1306.24,-105 1354.8,-105"/>
<polygon fill="midnightblue" stroke="midnightblue" points="1186.04,-101.5 1176.04,-105 1186.04,-108.5 1186.04,-101.5"/>
</g>
<!-- Node391 -->
<g id="node10" class="node"><title>Node391</title>
<g id="a_node10"><a xlink:href="init_8h.html#a6f0784aa332573f949b0975205572b28" target="_top" xlink:title="Initialize Dash Core. ">
<polygon fill="white" stroke="black" points="1692.5,-85.5 1692.5,-104.5 1745.5,-104.5 1745.5,-85.5 1692.5,-85.5"/>
<text text-anchor="middle" x="1719" y="-92.5" font-family="Helvetica,sans-Serif" font-size="10.00">AppInit2</text>
</a>
</g>
</g>
<!-- Node390&#45;&gt;Node391 -->
<g id="edge9" class="edge"><title>Node390&#45;&gt;Node391</title>
<path fill="none" stroke="midnightblue" d="M1493.33,-102.539C1557.93,-100.371 1648.36,-97.337 1692.17,-95.8667"/>
<polygon fill="midnightblue" stroke="midnightblue" points="1493.08,-99.0457 1483.2,-102.879 1493.31,-106.042 1493.08,-99.0457"/>
</g>
<!-- Node392 -->
<g id="node11" class="node"><title>Node392</title>
<g id="a_node11"><a xlink:href="dashd_8cpp.html#ac59316b767e6984e1285f0531275286b" target="_top" xlink:title="AppInit">
<polygon fill="white" stroke="black" points="1981.5,-76.5 1981.5,-95.5 2028.5,-95.5 2028.5,-76.5 1981.5,-76.5"/>
<text text-anchor="middle" x="2005" y="-83.5" font-family="Helvetica,sans-Serif" font-size="10.00">AppInit</text>
</a>
</g>
</g>
<!-- Node391&#45;&gt;Node392 -->
<g id="edge10" class="edge"><title>Node391&#45;&gt;Node392</title>
<path fill="none" stroke="midnightblue" d="M1755.75,-100.315C1770.09,-102.198 1786.79,-104.076 1802,-105 1850.36,-107.938 1862.8,-109.873 1911,-105 1935.27,-102.547 1962.56,-96.5796 1981.27,-91.9816"/>
<polygon fill="midnightblue" stroke="midnightblue" points="1756.16,-96.839 1745.78,-98.9577 1755.21,-103.775 1756.16,-96.839"/>
</g>
<!-- Node394 -->
<g id="node13" class="node"><title>Node394</title>
<g id="a_node13"><a xlink:href="class_bitcoin_core.html#af34ca069cda1d4362dcc109b4397fb62" target="_top" xlink:title="BitcoinCore::initialize">
<polygon fill="white" stroke="black" points="1802,-76.5 1802,-95.5 1911,-95.5 1911,-76.5 1802,-76.5"/>
<text text-anchor="middle" x="1856.5" y="-83.5" font-family="Helvetica,sans-Serif" font-size="10.00">BitcoinCore::initialize</text>
</a>
</g>
</g>
<!-- Node391&#45;&gt;Node394 -->
<g id="edge12" class="edge"><title>Node391&#45;&gt;Node394</title>
<path fill="none" stroke="midnightblue" d="M1756.01,-92.6081C1770.03,-91.6772 1786.38,-90.5907 1801.74,-89.5709"/>
<polygon fill="midnightblue" stroke="midnightblue" points="1755.55,-89.1308 1745.81,-93.286 1756.02,-96.1155 1755.55,-89.1308"/>
</g>
<!-- Node393 -->
<g id="node12" class="node"><title>Node393</title>
<g id="a_node12"><a xlink:href="dashd_8cpp.html#a0ddf1224851353fc92bfbff6f499fa97" target="_top" xlink:title="main">
<polygon fill="white" stroke="black" points="2099,-76.5 2099,-95.5 2137,-95.5 2137,-76.5 2099,-76.5"/>
<text text-anchor="middle" x="2118" y="-83.5" font-family="Helvetica,sans-Serif" font-size="10.00">main</text>
</a>
</g>
</g>
<!-- Node392&#45;&gt;Node393 -->
<g id="edge11" class="edge"><title>Node392&#45;&gt;Node393</title>
<path fill="none" stroke="midnightblue" d="M2038.77,-86C2058.33,-86 2082.46,-86 2098.7,-86"/>
<polygon fill="midnightblue" stroke="midnightblue" points="2038.73,-82.5001 2028.73,-86 2038.73,-89.5001 2038.73,-82.5001"/>
</g>
<!-- Node396 -->
<g id="node15" class="node"><title>Node396</title>
<g id="a_node15"><a xlink:href="net__processing_8cpp.html#a193d0ece6e2f2f7ee37352ac9720bb83" target="_top" xlink:title="ProcessMessage">
<polygon fill="white" stroke="black" points="1227,-51.5 1227,-70.5 1319,-70.5 1319,-51.5 1227,-51.5"/>
<text text-anchor="middle" x="1273" y="-58.5" font-family="Helvetica,sans-Serif" font-size="10.00">ProcessMessage</text>
</a>
</g>
</g>
<!-- Node395&#45;&gt;Node396 -->
<g id="edge14" class="edge"><title>Node395&#45;&gt;Node396</title>
<path fill="none" stroke="midnightblue" d="M1201.47,-61C1210.3,-61 1218.92,-61 1226.93,-61"/>
<polygon fill="midnightblue" stroke="midnightblue" points="1201.44,-57.5001 1191.44,-61 1201.44,-64.5001 1201.44,-57.5001"/>
</g>
<!-- Node397 -->
<g id="node16" class="node"><title>Node397</title>
<g id="a_node16"><a xlink:href="net__processing_8h.html#a7fa42e7ffd6e6ba5b7537af248e30fc8" target="_top" xlink:title="Process protocol messages received from a given node. ">
<polygon fill="white" stroke="black" points="1370,-51.5 1370,-70.5 1468,-70.5 1468,-51.5 1370,-51.5"/>
<text text-anchor="middle" x="1419" y="-58.5" font-family="Helvetica,sans-Serif" font-size="10.00">ProcessMessages</text>
</a>
</g>
</g>
<!-- Node396&#45;&gt;Node397 -->
<g id="edge15" class="edge"><title>Node396&#45;&gt;Node397</title>
<path fill="none" stroke="midnightblue" d="M1329.19,-61C1342.56,-61 1356.74,-61 1369.75,-61"/>
<polygon fill="midnightblue" stroke="midnightblue" points="1329.17,-57.5001 1319.17,-61 1329.17,-64.5001 1329.17,-57.5001"/>
</g>
<!-- Node398 -->
<g id="node17" class="node"><title>Node398</title>
<g id="a_node17"><a xlink:href="net__processing_8h.html#ab02615ff65f91d69f8d786ec900baa8a" target="_top" xlink:title="Register with a network node to receive its signals. ">
<polygon fill="white" stroke="black" points="1523,-57.5 1523,-76.5 1632,-76.5 1632,-57.5 1523,-57.5"/>
<text text-anchor="middle" x="1577.5" y="-64.5" font-family="Helvetica,sans-Serif" font-size="10.00">RegisterNodeSignals</text>
</a>
</g>
</g>
<!-- Node397&#45;&gt;Node398 -->
<g id="edge16" class="edge"><title>Node397&#45;&gt;Node398</title>
<path fill="none" stroke="midnightblue" d="M1478.62,-63.2475C1493.17,-63.8052 1508.68,-64.4 1522.97,-64.9478"/>
<polygon fill="midnightblue" stroke="midnightblue" points="1478.36,-59.7349 1468.23,-62.8492 1478.09,-66.7298 1478.36,-59.7349"/>
</g>
<!-- Node399 -->
<g id="node18" class="node"><title>Node399</title>
<g id="a_node18"><a xlink:href="net__processing_8h.html#a3ef0cc6e9d9d6435ee2a5569244d6ebd" target="_top" xlink:title="Unregister a network node. ">
<polygon fill="white" stroke="black" points="1519,-19.5 1519,-38.5 1636,-38.5 1636,-19.5 1519,-19.5"/>
<text text-anchor="middle" x="1577.5" y="-26.5" font-family="Helvetica,sans-Serif" font-size="10.00">UnregisterNodeSignals</text>
</a>
</g>
</g>
<!-- Node397&#45;&gt;Node399 -->
<g id="edge18" class="edge"><title>Node397&#45;&gt;Node399</title>
<path fill="none" stroke="midnightblue" d="M1476.62,-49.4236C1494.1,-45.8485 1513.15,-41.9537 1529.88,-38.533"/>
<polygon fill="midnightblue" stroke="midnightblue" points="1475.63,-46.0532 1466.53,-51.4856 1477.03,-52.9113 1475.63,-46.0532"/>
</g>
<!-- Node398&#45;&gt;Node391 -->
<g id="edge17" class="edge"><title>Node398&#45;&gt;Node391</title>
<path fill="none" stroke="midnightblue" d="M1636.14,-78.5702C1655.61,-82.477 1676.37,-86.6442 1692.11,-89.8041"/>
<polygon fill="midnightblue" stroke="midnightblue" points="1636.61,-75.0941 1626.12,-76.5577 1635.23,-81.9573 1636.61,-75.0941"/>
</g>
<!-- Node400 -->
<g id="node19" class="node"><title>Node400</title>
<g id="a_node19"><a xlink:href="init_8h.html#a5cb3db83cb0ba2e421f651a1ee1f2cfe" target="_top" xlink:title="Preparing steps before shutting down or restarting the wallet. ">
<polygon fill="white" stroke="black" points="1672,-19.5 1672,-38.5 1766,-38.5 1766,-19.5 1672,-19.5"/>
<text text-anchor="middle" x="1719" y="-26.5" font-family="Helvetica,sans-Serif" font-size="10.00">PrepareShutdown</text>
</a>
</g>
</g>
<!-- Node399&#45;&gt;Node400 -->
<g id="edge19" class="edge"><title>Node399&#45;&gt;Node400</title>
<path fill="none" stroke="midnightblue" d="M1646.13,-29C1654.77,-29 1663.45,-29 1671.65,-29"/>
<polygon fill="midnightblue" stroke="midnightblue" points="1646.05,-25.5001 1636.05,-29 1646.05,-32.5001 1646.05,-25.5001"/>
</g>
<!-- Node401 -->
<g id="node20" class="node"><title>Node401</title>
<g id="a_node20"><a xlink:href="class_bitcoin_core.html#ac2271844c89ebc4c611e7617ce6202e3" target="_top" xlink:title="BitcoinCore::restart">
<polygon fill="white" stroke="black" points="1806,-38.5 1806,-57.5 1907,-57.5 1907,-38.5 1806,-38.5"/>
<text text-anchor="middle" x="1856.5" y="-45.5" font-family="Helvetica,sans-Serif" font-size="10.00">BitcoinCore::restart</text>
</a>
</g>
</g>
<!-- Node400&#45;&gt;Node401 -->
<g id="edge20" class="edge"><title>Node400&#45;&gt;Node401</title>
<path fill="none" stroke="midnightblue" d="M1776.29,-36.8924C1786.06,-38.2632 1796.16,-39.6799 1805.75,-41.0239"/>
<polygon fill="midnightblue" stroke="midnightblue" points="1776.64,-33.4082 1766.25,-35.4856 1775.67,-40.3404 1776.64,-33.4082"/>
</g>
<!-- Node402 -->
<g id="node21" class="node"><title>Node402</title>
<g id="a_node21"><a xlink:href="init_8h.html#ac5f038c2b480cf9ef5e19e3eba8dbaf9" target="_top" xlink:title="Shutdown is split into 2 parts: Part 1: shut down everything but the main wallet instance (done in Pr...">
<polygon fill="white" stroke="black" points="1826.5,-0.5 1826.5,-19.5 1886.5,-19.5 1886.5,-0.5 1826.5,-0.5"/>
<text text-anchor="middle" x="1856.5" y="-7.5" font-family="Helvetica,sans-Serif" font-size="10.00">Shutdown</text>
</a>
</g>
</g>
<!-- Node400&#45;&gt;Node402 -->
<g id="edge21" class="edge"><title>Node400&#45;&gt;Node402</title>
<path fill="none" stroke="midnightblue" d="M1776.25,-21.1123C1793.5,-18.6943 1811.76,-16.1328 1826.41,-14.0793"/>
<polygon fill="midnightblue" stroke="midnightblue" points="1775.67,-17.6596 1766.25,-22.5144 1776.64,-24.5918 1775.67,-17.6596"/>
</g>
<!-- Node402&#45;&gt;Node392 -->
<g id="edge22" class="edge"><title>Node402&#45;&gt;Node392</title>
<path fill="none" stroke="midnightblue" d="M1896.17,-22.6455C1901.23,-24.614 1906.28,-26.748 1911,-29 1940.56,-43.1186 1972.64,-64.1858 1990.33,-76.3625"/>
<polygon fill="midnightblue" stroke="midnightblue" points="1897.14,-19.2709 1886.55,-19.0768 1894.71,-25.8344 1897.14,-19.2709"/>
</g>
<!-- Node403 -->
<g id="node22" class="node"><title>Node403</title>
<g id="a_node22"><a xlink:href="class_bitcoin_core.html#a94f3f4622ba698e321f3a2e0e686129f" target="_top" xlink:title="BitcoinCore::shutdown">
<polygon fill="white" stroke="black" points="1947,-0.5 1947,-19.5 2063,-19.5 2063,-0.5 1947,-0.5"/>
<text text-anchor="middle" x="2005" y="-7.5" font-family="Helvetica,sans-Serif" font-size="10.00">BitcoinCore::shutdown</text>
</a>
</g>
</g>
<!-- Node402&#45;&gt;Node403 -->
<g id="edge23" class="edge"><title>Node402&#45;&gt;Node403</title>
<path fill="none" stroke="midnightblue" d="M1896.97,-10C1912.31,-10 1930.18,-10 1946.88,-10"/>
<polygon fill="midnightblue" stroke="midnightblue" points="1896.79,-6.5001 1886.79,-10 1896.79,-13.5001 1896.79,-6.5001"/>
</g>
</g>
</svg>
        <g id="navigator" transform="translate(0 0)" fill="#404254">
                <rect fill="#f2f5e9" fill-opacity="0.5" stroke="#606060" stroke-width=".5" x="0" y="0" width="60" height="60"/>
                <use id="zoomplus" xlink:href="#zoomPlus" x="17" y="9" onmousedown="handleZoom(evt,'in')"/>
                <use id="zoomminus" xlink:href="#zoomMin" x="42" y="9" onmousedown="handleZoom(evt,'out')"/>
                <use id="reset" xlink:href="#resetDef" x="30" y="36" onmousedown="handleReset()"/>
                <g id="arrowUp" xlink:href="#dirArrow" transform="translate(30 24)" onmousedown="handlePan(0,-1)">
                  <use xlink:href="#rim" fill="#404040">
                        <set attributeName="fill" to="#808080" begin="arrowUp.mouseover" end="arrowUp.mouseout"/>
                  </use>
                  <path fill="none" stroke="white" stroke-width="1.5" d="M0,-3.0v7 M-2.5,-0.5L0,-3.0L2.5,-0.5"/>
                </g>
                <g id="arrowRight" xlink:href="#dirArrow" transform="rotate(90) translate(36 -43)" onmousedown="handlePan(1,0)">
                  <use xlink:href="#rim" fill="#404040">
                        <set attributeName="fill" to="#808080" begin="arrowRight.mouseover" end="arrowRight.mouseout"/>
                  </use>
                  <path fill="none" stroke="white" stroke-width="1.5" d="M0,-3.0v7 M-2.5,-0.5L0,-3.0L2.5,-0.5"/>
                </g>
                <g id="arrowDown" xlink:href="#dirArrow" transform="rotate(180) translate(-30 -48)" onmousedown="handlePan(0,1)">
                  <use xlink:href="#rim" fill="#404040">
                        <set attributeName="fill" to="#808080" begin="arrowDown.mouseover" end="arrowDown.mouseout"/>
                  </use>
                  <path fill="none" stroke="white" stroke-width="1.5" d="M0,-3.0v7 M-2.5,-0.5L0,-3.0L2.5,-0.5"/>
                </g>
                <g id="arrowLeft" xlink:href="#dirArrow" transform="rotate(270) translate(-36 17)" onmousedown="handlePan(-1,0)">
                  <use xlink:href="#rim" fill="#404040">
                        <set attributeName="fill" to="#808080" begin="arrowLeft.mouseover" end="arrowLeft.mouseout"/>
                  </use>
                  <path fill="none" stroke="white" stroke-width="1.5" d="M0,-3.0v7 M-2.5,-0.5L0,-3.0L2.5,-0.5"/>
                </g>
        </g>
        <svg viewBox="0 0 15 15" width="100%" height="30px" preserveAspectRatio="xMaxYMin meet">
         <g id="arrow_out" transform="scale(0.3 0.3)">
          <a xlink:href="class_c_masternode_a15c8c3351d7a91b7cce67a07b27a37b0_icgraph_org.svg" target="_base">
           <rect id="button" ry="5" rx="5" y="6" x="6" height="38" width="38"
                fill="#f2f5e9" fill-opacity="0.5" stroke="#606060" stroke-width="1.0"/>
           <path id="arrow"
             d="M 11.500037,31.436501 C 11.940474,20.09759 22.043105,11.32322 32.158766,21.979434 L 37.068811,17.246167 C 37.068811,17.246167 37.088388,32 37.088388,32 L 22.160133,31.978069 C 22.160133,31.978069 26.997745,27.140456 26.997745,27.140456 C 18.528582,18.264221 13.291696,25.230495 11.500037,31.436501 z"
             style="fill:#404040;"/>
          </a>
         </g>
        </svg>
</svg>
