<?xml version="1.0" encoding="UTF-8" standalone="no"?>
<!DOCTYPE svg PUBLIC "-//W3C//DTD SVG 1.1//EN"
 "http://www.w3.org/Graphics/SVG/1.1/DTD/svg11.dtd">
<!-- Generated by graphviz version 2.38.0 (20140413.2041)
 -->
<!-- Title: BitcoinGUI Pages: 1 -->
<svg width="1040pt" height="600pt"
 viewBox="0.00 0.00 1040.00 600.34" xmlns="http://www.w3.org/2000/svg" xmlns:xlink="http://www.w3.org/1999/xlink">
<g id="graph0" class="graph" transform="scale(1 1) rotate(0) translate(4 596.335)">
<title>BitcoinGUI</title>
<polygon fill="white" stroke="none" points="-4,4 -4,-596.335 1036,-596.335 1036,4 -4,4"/>
<!-- Node2 -->
<g id="node1" class="node"><title>Node2</title>
<polygon fill="#bfbfbf" stroke="black" points="802,-358.835 802,-377.835 867,-377.835 867,-358.835 802,-358.835"/>
<text text-anchor="middle" x="834.5" y="-365.835" font-family="Helvetica,sans-Serif" font-size="10.00">BitcoinGUI</text>
</g>
<!-- Node17 -->
<g id="node16" class="node"><title>Node17</title>
<g id="a_node16"><a xlink:href="class_wallet_frame.html" target="_top" xlink:title="WalletFrame">
<polygon fill="white" stroke="black" points="960,-324.835 960,-343.835 1032,-343.835 1032,-324.835 960,-324.835"/>
<text text-anchor="middle" x="996" y="-331.835" font-family="Helvetica,sans-Serif" font-size="10.00">WalletFrame</text>
</a>
</g>
</g>
<!-- Node2&#45;&gt;Node17 -->
<g id="edge24" class="edge"><title>Node2&#45;&gt;Node17</title>
<path fill="none" stroke="#9a32cd" stroke-dasharray="5,2" d="M852.777,-352.109C861.68,-344.856 873.142,-337.104 885,-333.335 909.207,-325.642 937.952,-326.212 959.986,-328.537"/>
<polygon fill="#9a32cd" stroke="#9a32cd" points="850.362,-349.57 845.096,-358.763 854.946,-354.86 850.362,-349.57"/>
<text text-anchor="middle" x="913.5" y="-336.335" font-family="Helvetica,sans-Serif" font-size="10.00"> gui</text>
</g>
<!-- Node3 -->
<g id="node2" class="node"><title>Node3</title>
<polygon fill="white" stroke="#bfbfbf" points="585,-490.835 585,-509.835 665,-509.835 665,-490.835 585,-490.835"/>
<text text-anchor="middle" x="625" y="-497.835" font-family="Helvetica,sans-Serif" font-size="10.00">QMainWindow</text>
</g>
<!-- Node3&#45;&gt;Node2 -->
<g id="edge1" class="edge"><title>Node3&#45;&gt;Node2</title>
<path fill="none" stroke="midnightblue" d="M675.135,-504.029C708.914,-504.025 753.079,-498.706 784,-475.335 816.657,-450.653 828.5,-399.229 832.118,-377.912"/>
<polygon fill="midnightblue" stroke="midnightblue" points="675.064,-500.527 665.011,-503.873 674.956,-507.527 675.064,-500.527"/>
</g>
<!-- Node4 -->
<g id="node3" class="node"><title>Node4</title>
<g id="a_node3"><a xlink:href="class_help_message_dialog.html" target="_top" xlink:title="&quot;Help message&quot; dialog box ">
<polygon fill="white" stroke="black" points="573,-566.835 573,-585.835 677,-585.835 677,-566.835 573,-566.835"/>
<text text-anchor="middle" x="625" y="-573.835" font-family="Helvetica,sans-Serif" font-size="10.00">HelpMessageDialog</text>
</a>
</g>
</g>
<!-- Node4&#45;&gt;Node2 -->
<g id="edge2" class="edge"><title>Node4&#45;&gt;Node2</title>
<path fill="none" stroke="#9a32cd" stroke-dasharray="5,2" d="M687.483,-582.069C719.881,-581.708 758.147,-575.443 784,-552.335 810.761,-528.417 827.72,-412.84 832.267,-378.18"/>
<polygon fill="#9a32cd" stroke="#9a32cd" points="687.219,-578.567 677.194,-581.993 687.167,-585.567 687.219,-578.567"/>
<text text-anchor="middle" x="739.5" y="-584.335" font-family="Helvetica,sans-Serif" font-size="10.00"> helpMessageDialog</text>
</g>
<!-- Node5 -->
<g id="node4" class="node"><title>Node5</title>
<polygon fill="white" stroke="#bfbfbf" points="359.5,-566.835 359.5,-585.835 411.5,-585.835 411.5,-566.835 359.5,-566.835"/>
<text text-anchor="middle" x="385.5" y="-573.835" font-family="Helvetica,sans-Serif" font-size="10.00">QDialog</text>
</g>
<!-- Node5&#45;&gt;Node4 -->
<g id="edge3" class="edge"><title>Node5&#45;&gt;Node4</title>
<path fill="none" stroke="midnightblue" d="M421.98,-576.335C461.898,-576.335 527.089,-576.335 572.585,-576.335"/>
<polygon fill="midnightblue" stroke="midnightblue" points="421.917,-572.836 411.917,-576.335 421.917,-579.836 421.917,-572.836"/>
</g>
<!-- Node6 -->
<g id="node5" class="node"><title>Node6</title>
<g id="a_node5"><a xlink:href="class_platform_style.html" target="_top" xlink:title="PlatformStyle">
<polygon fill="white" stroke="black" points="347.5,-463.835 347.5,-482.835 423.5,-482.835 423.5,-463.835 347.5,-463.835"/>
<text text-anchor="middle" x="385.5" y="-470.835" font-family="Helvetica,sans-Serif" font-size="10.00">PlatformStyle</text>
</a>
</g>
</g>
<!-- Node6&#45;&gt;Node2 -->
<g id="edge4" class="edge"><title>Node6&#45;&gt;Node2</title>
<path fill="none" stroke="#9a32cd" stroke-dasharray="5,2" d="M433.902,-471.684C510.381,-467.572 664.503,-453.239 784,-403.335 798.762,-397.171 813.445,-385.988 822.938,-377.919"/>
<polygon fill="#9a32cd" stroke="#9a32cd" points="433.449,-468.202 423.637,-472.199 433.8,-475.193 433.449,-468.202"/>
<text text-anchor="middle" x="625" y="-459.335" font-family="Helvetica,sans-Serif" font-size="10.00"> platformStyle</text>
</g>
<!-- Node14 -->
<g id="node13" class="node"><title>Node14</title>
<g id="a_node13"><a xlink:href="class_r_p_c_console.html" target="_top" xlink:title="Local Bitcoin RPC console. ">
<polygon fill="white" stroke="black" points="588,-320.835 588,-339.835 662,-339.835 662,-320.835 588,-320.835"/>
<text text-anchor="middle" x="625" y="-327.835" font-family="Helvetica,sans-Serif" font-size="10.00">RPCConsole</text>
</a>
</g>
</g>
<!-- Node6&#45;&gt;Node14 -->
<g id="edge18" class="edge"><title>Node6&#45;&gt;Node14</title>
<path fill="none" stroke="#9a32cd" stroke-dasharray="5,2" d="M413.09,-458.646C426.368,-451.21 442.626,-441.953 457,-433.335 501.204,-406.833 516.408,-405.497 555,-371.335 564.46,-362.962 562.724,-356.685 573,-349.335 578.303,-345.543 584.452,-342.414 590.606,-339.868"/>
<polygon fill="#9a32cd" stroke="#9a32cd" points="411.048,-455.777 404.018,-463.703 414.457,-461.891 411.048,-455.777"/>
<text text-anchor="middle" x="515" y="-424.335" font-family="Helvetica,sans-Serif" font-size="10.00"> platformStyle</text>
</g>
<!-- Node6&#45;&gt;Node17 -->
<g id="edge22" class="edge"><title>Node6&#45;&gt;Node17</title>
<path fill="none" stroke="#9a32cd" stroke-dasharray="5,2" d="M420.911,-486.326C492.141,-511.041 659.481,-557.733 784,-503.335 875.178,-463.503 960.044,-373.744 986.524,-344.067"/>
<polygon fill="#9a32cd" stroke="#9a32cd" points="421.711,-482.896 411.116,-482.853 419.372,-489.493 421.711,-482.896"/>
<text text-anchor="middle" x="739.5" y="-528.335" font-family="Helvetica,sans-Serif" font-size="10.00"> platformStyle</text>
</g>
<!-- Node7 -->
<g id="node6" class="node"><title>Node7</title>
<g id="a_node6"><a xlink:href="class_client_model.html" target="_top" xlink:title="Model for Dash network client. ">
<polygon fill="white" stroke="black" points="351.5,-142.835 351.5,-161.835 419.5,-161.835 419.5,-142.835 351.5,-142.835"/>
<text text-anchor="middle" x="385.5" y="-149.835" font-family="Helvetica,sans-Serif" font-size="10.00">ClientModel</text>
</a>
</g>
</g>
<!-- Node7&#45;&gt;Node2 -->
<g id="edge5" class="edge"><title>Node7&#45;&gt;Node2</title>
<path fill="none" stroke="#9a32cd" stroke-dasharray="5,2" d="M410.215,-137.516C427.46,-127.649 451.762,-115.57 475,-110.335 562.738,-90.5727 600.38,-75.2411 677,-122.335 772.088,-180.781 819.477,-321.049 830.792,-358.828"/>
<polygon fill="#9a32cd" stroke="#9a32cd" points="408.244,-134.615 401.412,-142.713 411.802,-140.643 408.244,-134.615"/>
<text text-anchor="middle" x="625" y="-125.335" font-family="Helvetica,sans-Serif" font-size="10.00"> clientModel</text>
</g>
<!-- Node9 -->
<g id="node8" class="node"><title>Node9</title>
<g id="a_node8"><a xlink:href="class_peer_table_model.html" target="_top" xlink:title="Qt model providing information about connected peers, similar to the &quot;getpeerinfo&quot; RPC call...">
<polygon fill="white" stroke="black" points="581.5,-210.835 581.5,-229.835 668.5,-229.835 668.5,-210.835 581.5,-210.835"/>
<text text-anchor="middle" x="625" y="-217.835" font-family="Helvetica,sans-Serif" font-size="10.00">PeerTableModel</text>
</a>
</g>
</g>
<!-- Node7&#45;&gt;Node9 -->
<g id="edge9" class="edge"><title>Node7&#45;&gt;Node9</title>
<path fill="none" stroke="#9a32cd" stroke-dasharray="5,2" d="M429.726,-157.453C464.282,-162.335 513.618,-171.096 555,-185.335 574.179,-191.935 594.739,-202.926 608.378,-210.832"/>
<polygon fill="#9a32cd" stroke="#9a32cd" points="429.882,-153.942 419.501,-156.06 428.938,-160.878 429.882,-153.942"/>
<text text-anchor="middle" x="515" y="-188.335" font-family="Helvetica,sans-Serif" font-size="10.00"> clientModel</text>
</g>
<!-- Node11 -->
<g id="node10" class="node"><title>Node11</title>
<g id="a_node10"><a xlink:href="class_ban_table_model.html" target="_top" xlink:title="Qt model providing information about connected peers, similar to the &quot;getpeerinfo&quot; RPC call...">
<polygon fill="white" stroke="black" points="583,-142.835 583,-161.835 667,-161.835 667,-142.835 583,-142.835"/>
<text text-anchor="middle" x="625" y="-149.835" font-family="Helvetica,sans-Serif" font-size="10.00">BanTableModel</text>
</a>
</g>
</g>
<!-- Node7&#45;&gt;Node11 -->
<g id="edge12" class="edge"><title>Node7&#45;&gt;Node11</title>
<path fill="none" stroke="#9a32cd" stroke-dasharray="5,2" d="M429.529,-152.335C473.105,-152.335 540.02,-152.335 582.893,-152.335"/>
<polygon fill="#9a32cd" stroke="#9a32cd" points="429.523,-148.836 419.523,-152.335 429.523,-155.836 429.523,-148.836"/>
<text text-anchor="middle" x="515" y="-155.335" font-family="Helvetica,sans-Serif" font-size="10.00"> clientModel</text>
</g>
<!-- Node7&#45;&gt;Node14 -->
<g id="edge19" class="edge"><title>Node7&#45;&gt;Node14</title>
<path fill="none" stroke="#9a32cd" stroke-dasharray="5,2" d="M404.17,-169.151C421.624,-185.458 449.352,-210.563 475,-230.335 521.632,-266.285 580.623,-303.659 608.307,-320.759"/>
<polygon fill="#9a32cd" stroke="#9a32cd" points="406.162,-166.22 396.481,-161.915 401.365,-171.317 406.162,-166.22"/>
<text text-anchor="middle" x="515" y="-290.335" font-family="Helvetica,sans-Serif" font-size="10.00"> clientModel</text>
</g>
<!-- Node7&#45;&gt;Node17 -->
<g id="edge23" class="edge"><title>Node7&#45;&gt;Node17</title>
<path fill="none" stroke="#9a32cd" stroke-dasharray="5,2" d="M403.802,-135.523C420.496,-120.525 447.257,-99.5554 475,-90.3355 560.205,-62.0185 588.332,-73.2021 677,-87.3355 726.411,-95.2115 741.395,-96.0998 784,-122.335 879.509,-181.149 964.06,-291.64 988.151,-324.733"/>
<polygon fill="#9a32cd" stroke="#9a32cd" points="400.987,-133.36 396.037,-142.727 405.749,-138.491 400.987,-133.36"/>
<text text-anchor="middle" x="739.5" y="-125.335" font-family="Helvetica,sans-Serif" font-size="10.00"> clientModel</text>
</g>
<!-- Node8 -->
<g id="node7" class="node"><title>Node8</title>
<polygon fill="white" stroke="#bfbfbf" points="152,-121.835 152,-140.835 205,-140.835 205,-121.835 152,-121.835"/>
<text text-anchor="middle" x="178.5" y="-128.835" font-family="Helvetica,sans-Serif" font-size="10.00">QObject</text>
</g>
<!-- Node8&#45;&gt;Node7 -->
<g id="edge6" class="edge"><title>Node8&#45;&gt;Node7</title>
<path fill="none" stroke="midnightblue" d="M215.257,-134.998C253.665,-138.933 314.191,-145.133 351.498,-148.955"/>
<polygon fill="midnightblue" stroke="midnightblue" points="215.354,-131.49 205.049,-133.953 214.64,-138.454 215.354,-131.49"/>
</g>
<!-- Node20 -->
<g id="node19" class="node"><title>Node20</title>
<g id="a_node19"><a xlink:href="class_notificator.html" target="_top" xlink:title="Cross&#45;platform desktop notification client. ">
<polygon fill="white" stroke="black" points="484,-18.8355 484,-37.8355 546,-37.8355 546,-18.8355 484,-18.8355"/>
<text text-anchor="middle" x="515" y="-25.8355" font-family="Helvetica,sans-Serif" font-size="10.00">Notificator</text>
</a>
</g>
</g>
<!-- Node8&#45;&gt;Node20 -->
<g id="edge28" class="edge"><title>Node8&#45;&gt;Node20</title>
<path fill="none" stroke="midnightblue" d="M215.156,-120.356C281.375,-99.966 422.21,-56.5997 483.945,-37.5901"/>
<polygon fill="midnightblue" stroke="midnightblue" points="213.719,-117.136 205.192,-123.424 215.779,-123.826 213.719,-117.136"/>
</g>
<!-- Node9&#45;&gt;Node7 -->
<g id="edge7" class="edge"><title>Node9&#45;&gt;Node7</title>
<path fill="none" stroke="#9a32cd" stroke-dasharray="5,2" d="M571.094,-216.832C542.17,-213.852 506.02,-208.374 475,-198.335 447.487,-189.432 418.208,-172.569 401.176,-161.921"/>
<polygon fill="#9a32cd" stroke="#9a32cd" points="571.111,-220.35 581.4,-217.82 571.78,-213.382 571.111,-220.35"/>
<text text-anchor="middle" x="515" y="-218.335" font-family="Helvetica,sans-Serif" font-size="10.00"> peerTableModel</text>
</g>
<!-- Node10 -->
<g id="node9" class="node"><title>Node10</title>
<polygon fill="white" stroke="#bfbfbf" points="330,-280.835 330,-299.835 441,-299.835 441,-280.835 330,-280.835"/>
<text text-anchor="middle" x="385.5" y="-287.835" font-family="Helvetica,sans-Serif" font-size="10.00">QAbstractTableModel</text>
</g>
<!-- Node10&#45;&gt;Node9 -->
<g id="edge8" class="edge"><title>Node10&#45;&gt;Node9</title>
<path fill="none" stroke="midnightblue" d="M441.176,-301.318C475.236,-305.623 519.224,-306.455 555,-291.335 584.765,-278.756 608.025,-246.362 618.282,-230.04"/>
<polygon fill="midnightblue" stroke="midnightblue" points="441.333,-297.806 430.944,-299.885 440.362,-304.738 441.333,-297.806"/>
</g>
<!-- Node10&#45;&gt;Node11 -->
<g id="edge11" class="edge"><title>Node10&#45;&gt;Node11</title>
<path fill="none" stroke="midnightblue" d="M451.295,-288.308C492.043,-285.703 539.706,-279.778 555,-266.335 577.515,-246.546 557.645,-227.081 573,-201.335 582.56,-185.306 598.747,-171.037 610.321,-162.089"/>
<polygon fill="midnightblue" stroke="midnightblue" points="450.888,-284.826 441.109,-288.902 451.296,-291.814 450.888,-284.826"/>
</g>
<!-- Node11&#45;&gt;Node7 -->
<g id="edge10" class="edge"><title>Node11&#45;&gt;Node7</title>
<path fill="none" stroke="#9a32cd" stroke-dasharray="5,2" d="M600.414,-137.815C587.511,-130.722 570.943,-122.952 555,-119.335 520.325,-111.47 509.991,-113.024 475,-119.335 450.31,-123.789 423.52,-134.707 405.96,-142.771"/>
<polygon fill="#9a32cd" stroke="#9a32cd" points="598.684,-140.857 609.101,-142.791 602.163,-134.783 598.684,-140.857"/>
<text text-anchor="middle" x="515" y="-122.335" font-family="Helvetica,sans-Serif" font-size="10.00"> banTableModel</text>
</g>
<!-- Node12 -->
<g id="node11" class="node"><title>Node12</title>
<g id="a_node11"><a xlink:href="class_options_model.html" target="_top" xlink:title="Interface from Qt to configuration data structure for Bitcoin client. ">
<polygon fill="white" stroke="black" points="140,-205.835 140,-224.835 217,-224.835 217,-205.835 140,-205.835"/>
<text text-anchor="middle" x="178.5" y="-212.835" font-family="Helvetica,sans-Serif" font-size="10.00">OptionsModel</text>
</a>
</g>
</g>
<!-- Node12&#45;&gt;Node7 -->
<g id="edge13" class="edge"><title>Node12&#45;&gt;Node7</title>
<path fill="none" stroke="#9a32cd" stroke-dasharray="5,2" d="M220.408,-202.764C259.597,-190.72 317.879,-172.809 353.408,-161.89"/>
<polygon fill="#9a32cd" stroke="#9a32cd" points="219.166,-199.484 210.635,-205.767 221.222,-206.175 219.166,-199.484"/>
<text text-anchor="middle" x="265.5" y="-200.335" font-family="Helvetica,sans-Serif" font-size="10.00"> optionsModel</text>
</g>
<!-- Node21 -->
<g id="node20" class="node"><title>Node21</title>
<g id="a_node20"><a xlink:href="class_unit_display_status_bar_control.html" target="_top" xlink:title="UnitDisplayStatusBarControl">
<polygon fill="white" stroke="black" points="314,-404.835 314,-423.835 457,-423.835 457,-404.835 314,-404.835"/>
<text text-anchor="middle" x="385.5" y="-411.835" font-family="Helvetica,sans-Serif" font-size="10.00">UnitDisplayStatusBarControl</text>
</a>
</g>
</g>
<!-- Node12&#45;&gt;Node21 -->
<g id="edge31" class="edge"><title>Node12&#45;&gt;Node21</title>
<path fill="none" stroke="#9a32cd" stroke-dasharray="5,2" d="M188.133,-234.022C206.103,-270.799 251.15,-352.691 314,-395.335 319.769,-399.25 326.314,-402.36 333.034,-404.829"/>
<polygon fill="#9a32cd" stroke="#9a32cd" points="191.253,-232.435 183.79,-224.916 184.935,-235.449 191.253,-232.435"/>
<text text-anchor="middle" x="265.5" y="-383.335" font-family="Helvetica,sans-Serif" font-size="10.00"> optionsModel</text>
</g>
<!-- Node13 -->
<g id="node12" class="node"><title>Node13</title>
<polygon fill="white" stroke="#bfbfbf" points="0,-205.835 0,-224.835 103,-224.835 103,-205.835 0,-205.835"/>
<text text-anchor="middle" x="51.5" y="-212.835" font-family="Helvetica,sans-Serif" font-size="10.00">QAbstractListModel</text>
</g>
<!-- Node13&#45;&gt;Node12 -->
<g id="edge14" class="edge"><title>Node13&#45;&gt;Node12</title>
<path fill="none" stroke="midnightblue" d="M113.42,-215.335C122.398,-215.335 131.419,-215.335 139.742,-215.335"/>
<polygon fill="midnightblue" stroke="midnightblue" points="113.342,-211.836 103.342,-215.335 113.342,-218.836 113.342,-211.836"/>
</g>
<!-- Node14&#45;&gt;Node2 -->
<g id="edge15" class="edge"><title>Node14&#45;&gt;Node2</title>
<path fill="none" stroke="#9a32cd" stroke-dasharray="5,2" d="M672.335,-335.229C704.004,-339.024 746.81,-345.043 784,-353.335 790.749,-354.84 797.916,-356.797 804.639,-358.797"/>
<polygon fill="#9a32cd" stroke="#9a32cd" points="672.386,-331.711 662.047,-334.027 671.573,-338.663 672.386,-331.711"/>
<text text-anchor="middle" x="739.5" y="-356.335" font-family="Helvetica,sans-Serif" font-size="10.00"> rpcConsole</text>
</g>
<!-- Node15 -->
<g id="node14" class="node"><title>Node15</title>
<polygon fill="white" stroke="#bfbfbf" points="358,-366.835 358,-385.835 413,-385.835 413,-366.835 358,-366.835"/>
<text text-anchor="middle" x="385.5" y="-373.835" font-family="Helvetica,sans-Serif" font-size="10.00">QWidget</text>
</g>
<!-- Node15&#45;&gt;Node14 -->
<g id="edge16" class="edge"><title>Node15&#45;&gt;Node14</title>
<path fill="none" stroke="midnightblue" d="M423.29,-372.048C457.596,-367.723 510.081,-360.268 555,-350.335 568.031,-347.454 582.223,-343.488 594.329,-339.846"/>
<polygon fill="midnightblue" stroke="midnightblue" points="422.749,-368.588 413.255,-373.29 423.609,-375.536 422.749,-368.588"/>
</g>
<!-- Node19 -->
<g id="node18" class="node"><title>Node19</title>
<g id="a_node18"><a xlink:href="class_modal_overlay.html" target="_top" xlink:title="Modal overlay to display information about the chain&#45;sync state. ">
<polygon fill="white" stroke="black" points="586.5,-358.835 586.5,-377.835 663.5,-377.835 663.5,-358.835 586.5,-358.835"/>
<text text-anchor="middle" x="625" y="-365.835" font-family="Helvetica,sans-Serif" font-size="10.00">ModalOverlay</text>
</a>
</g>
</g>
<!-- Node15&#45;&gt;Node19 -->
<g id="edge26" class="edge"><title>Node15&#45;&gt;Node19</title>
<path fill="none" stroke="midnightblue" d="M423.509,-377.126C457.669,-377.616 509.794,-377.757 555,-375.335 565.22,-374.788 576.26,-373.832 586.449,-372.8"/>
<polygon fill="midnightblue" stroke="midnightblue" points="423.136,-373.62 413.081,-376.958 423.023,-380.619 423.136,-373.62"/>
</g>
<!-- Node16 -->
<g id="node15" class="node"><title>Node16</title>
<g id="a_node15"><a xlink:href="class_r_p_c_timer_interface.html" target="_top" xlink:title="RPC timer &quot;driver&quot;. ">
<polygon fill="white" stroke="black" points="335,-328.835 335,-347.835 436,-347.835 436,-328.835 335,-328.835"/>
<text text-anchor="middle" x="385.5" y="-335.835" font-family="Helvetica,sans-Serif" font-size="10.00">RPCTimerInterface</text>
</a>
</g>
</g>
<!-- Node16&#45;&gt;Node14 -->
<g id="edge17" class="edge"><title>Node16&#45;&gt;Node14</title>
<path fill="none" stroke="#9a32cd" stroke-dasharray="5,2" d="M446.411,-336.317C490.958,-334.817 550.286,-332.818 587.821,-331.554"/>
<polygon fill="#9a32cd" stroke="#9a32cd" points="446.164,-332.824 436.288,-336.658 446.4,-339.82 446.164,-332.824"/>
<text text-anchor="middle" x="515" y="-338.335" font-family="Helvetica,sans-Serif" font-size="10.00"> rpcTimerInterface</text>
</g>
<!-- Node17&#45;&gt;Node2 -->
<g id="edge20" class="edge"><title>Node17&#45;&gt;Node2</title>
<path fill="none" stroke="#9a32cd" stroke-dasharray="5,2" d="M950.064,-344.572C947.336,-345.174 944.632,-345.766 942,-346.335 916.905,-351.768 888.416,-357.637 867.222,-361.946"/>
<polygon fill="#9a32cd" stroke="#9a32cd" points="950.955,-347.959 959.955,-342.369 949.433,-341.127 950.955,-347.959"/>
<text text-anchor="middle" x="913.5" y="-360.335" font-family="Helvetica,sans-Serif" font-size="10.00"> walletFrame</text>
</g>
<!-- Node18 -->
<g id="node17" class="node"><title>Node18</title>
<polygon fill="white" stroke="#bfbfbf" points="808.5,-12.8355 808.5,-31.8355 860.5,-31.8355 860.5,-12.8355 808.5,-12.8355"/>
<text text-anchor="middle" x="834.5" y="-19.8355" font-family="Helvetica,sans-Serif" font-size="10.00">QFrame</text>
</g>
<!-- Node18&#45;&gt;Node17 -->
<g id="edge21" class="edge"><title>Node18&#45;&gt;Node17</title>
<path fill="none" stroke="midnightblue" d="M871.03,-20.9151C894.394,-21.9862 923.891,-27.4937 942,-46.3355 981.721,-87.6637 992.588,-279.646 994.614,-324.805"/>
<polygon fill="midnightblue" stroke="midnightblue" points="870.86,-17.4109 860.789,-20.7031 870.715,-24.4094 870.86,-17.4109"/>
</g>
<!-- Node19&#45;&gt;Node2 -->
<g id="edge25" class="edge"><title>Node19&#45;&gt;Node2</title>
<path fill="none" stroke="#9a32cd" stroke-dasharray="5,2" d="M673.74,-368.335C713.119,-368.335 767.871,-368.335 801.97,-368.335"/>
<polygon fill="#9a32cd" stroke="#9a32cd" points="673.577,-364.836 663.577,-368.335 673.577,-371.836 673.577,-364.836"/>
<text text-anchor="middle" x="739.5" y="-371.335" font-family="Helvetica,sans-Serif" font-size="10.00"> modalOverlay</text>
</g>
<!-- Node20&#45;&gt;Node2 -->
<g id="edge27" class="edge"><title>Node20&#45;&gt;Node2</title>
<path fill="none" stroke="#9a32cd" stroke-dasharray="5,2" d="M555.234,-15.9751C613.07,-0.446984 721.135,17.878 784,-38.3355 833.123,-82.2615 834.03,-308.729 833.623,-358.609"/>
<polygon fill="#9a32cd" stroke="#9a32cd" points="554.071,-12.6658 545.38,-18.7251 555.953,-19.4082 554.071,-12.6658"/>
<text text-anchor="middle" x="625" y="-14.3355" font-family="Helvetica,sans-Serif" font-size="10.00"> notificator</text>
</g>
<!-- Node21&#45;&gt;Node2 -->
<g id="edge29" class="edge"><title>Node21&#45;&gt;Node2</title>
<path fill="none" stroke="#9a32cd" stroke-dasharray="5,2" d="M467.217,-413.144C548.006,-410.759 675.546,-403.747 784,-383.335 791.148,-381.99 798.728,-379.994 805.752,-377.895"/>
<polygon fill="#9a32cd" stroke="#9a32cd" points="467.012,-409.648 457.113,-413.425 467.206,-416.645 467.012,-409.648"/>
<text text-anchor="middle" x="625" y="-410.335" font-family="Helvetica,sans-Serif" font-size="10.00"> unitDisplayControl</text>
</g>
<!-- Node22 -->
<g id="node21" class="node"><title>Node22</title>
<polygon fill="white" stroke="#bfbfbf" points="155,-404.835 155,-423.835 202,-423.835 202,-404.835 155,-404.835"/>
<text text-anchor="middle" x="178.5" y="-411.835" font-family="Helvetica,sans-Serif" font-size="10.00">QLabel</text>
</g>
<!-- Node22&#45;&gt;Node21 -->
<g id="edge30" class="edge"><title>Node22&#45;&gt;Node21</title>
<path fill="none" stroke="midnightblue" d="M212.383,-414.335C239.659,-414.335 279.405,-414.335 313.832,-414.335"/>
<polygon fill="midnightblue" stroke="midnightblue" points="212.222,-410.836 202.222,-414.335 212.222,-417.836 212.222,-410.836"/>
</g>
</g>
</svg>
