<?xml version="1.0" encoding="UTF-8" standalone="no"?>
<!DOCTYPE svg PUBLIC "-//W3C//DTD SVG 1.1//EN"
 "http://www.w3.org/Graphics/SVG/1.1/DTD/svg11.dtd">
<!-- Generated by graphviz version 2.38.0 (20140413.2041)
 -->
<!-- Title: WalletModel::unsubscribeFromCoreSignals Pages: 1 -->
<svg width="324pt" height="180pt"
 viewBox="0.00 0.00 324.00 180.00" xmlns="http://www.w3.org/2000/svg" xmlns:xlink="http://www.w3.org/1999/xlink">
<g id="graph0" class="graph" transform="scale(1 1) rotate(0) translate(4 176)">
<title>WalletModel::unsubscribeFromCoreSignals</title>
<polygon fill="white" stroke="none" points="-4,4 -4,-176 320,-176 320,4 -4,4"/>
<!-- Node2504 -->
<g id="node1" class="node"><title>Node2504</title>
<polygon fill="#bfbfbf" stroke="black" points="0,-71 0,-101 129,-101 129,-71 0,-71"/>
<text text-anchor="start" x="8" y="-89" font-family="Helvetica,sans-Serif" font-size="10.00">WalletModel::unsubscribe</text>
<text text-anchor="middle" x="64.5" y="-78" font-family="Helvetica,sans-Serif" font-size="10.00">FromCoreSignals</text>
</g>
<!-- Node2505 -->
<g id="node2" class="node"><title>Node2505</title>
<g id="a_node2"><a xlink:href="walletmodel_8cpp.html#a3bb83e84ffdc22a5e9ea4e5b26697805" target="_top" xlink:title="NotifyAddressBookChanged">
<polygon fill="white" stroke="black" points="170.5,-152.5 170.5,-171.5 310.5,-171.5 310.5,-152.5 170.5,-152.5"/>
<text text-anchor="middle" x="240.5" y="-159.5" font-family="Helvetica,sans-Serif" font-size="10.00">NotifyAddressBookChanged</text>
</a>
</g>
</g>
<!-- Node2504&#45;&gt;Node2505 -->
<g id="edge1" class="edge"><title>Node2504&#45;&gt;Node2505</title>
<path fill="none" stroke="midnightblue" d="M87.9242,-101.204C107.528,-113.908 137.139,-131.711 165,-143 171.151,-145.492 177.722,-147.733 184.32,-149.726"/>
<polygon fill="midnightblue" stroke="midnightblue" points="183.381,-153.098 193.957,-152.469 185.298,-146.365 183.381,-153.098"/>
</g>
<!-- Node2506 -->
<g id="node3" class="node"><title>Node2506</title>
<g id="a_node3"><a xlink:href="walletmodel_8cpp.html#aab2580f1947ed929cf2cea77c0f50dba" target="_top" xlink:title="NotifyKeyStoreStatusChanged">
<polygon fill="white" stroke="black" points="165,-114.5 165,-133.5 316,-133.5 316,-114.5 165,-114.5"/>
<text text-anchor="middle" x="240.5" y="-121.5" font-family="Helvetica,sans-Serif" font-size="10.00">NotifyKeyStoreStatusChanged</text>
</a>
</g>
</g>
<!-- Node2504&#45;&gt;Node2506 -->
<g id="edge2" class="edge"><title>Node2504&#45;&gt;Node2506</title>
<path fill="none" stroke="midnightblue" d="M129.303,-99.934C147.875,-103.99 167.969,-108.378 185.849,-112.283"/>
<polygon fill="midnightblue" stroke="midnightblue" points="185.294,-115.744 195.81,-114.459 186.787,-108.905 185.294,-115.744"/>
</g>
<!-- Node2507 -->
<g id="node4" class="node"><title>Node2507</title>
<g id="a_node4"><a xlink:href="walletmodel_8cpp.html#a630438ead9c8da8f60b372df0e6e7405" target="_top" xlink:title="NotifyTransactionChanged">
<polygon fill="white" stroke="black" points="174,-76.5 174,-95.5 307,-95.5 307,-76.5 174,-76.5"/>
<text text-anchor="middle" x="240.5" y="-83.5" font-family="Helvetica,sans-Serif" font-size="10.00">NotifyTransactionChanged</text>
</a>
</g>
</g>
<!-- Node2504&#45;&gt;Node2507 -->
<g id="edge3" class="edge"><title>Node2504&#45;&gt;Node2507</title>
<path fill="none" stroke="midnightblue" d="M129.303,-86C140.556,-86 152.367,-86 163.905,-86"/>
<polygon fill="midnightblue" stroke="midnightblue" points="163.954,-89.5001 173.954,-86 163.954,-82.5001 163.954,-89.5001"/>
</g>
<!-- Node2508 -->
<g id="node5" class="node"><title>Node2508</title>
<g id="a_node5"><a xlink:href="walletmodel_8cpp.html#a6c9555da4fe0c7643b7ea96f8bc2475b" target="_top" xlink:title="NotifyWatchonlyChanged">
<polygon fill="white" stroke="black" points="176.5,-38.5 176.5,-57.5 304.5,-57.5 304.5,-38.5 176.5,-38.5"/>
<text text-anchor="middle" x="240.5" y="-45.5" font-family="Helvetica,sans-Serif" font-size="10.00">NotifyWatchonlyChanged</text>
</a>
</g>
</g>
<!-- Node2504&#45;&gt;Node2508 -->
<g id="edge4" class="edge"><title>Node2504&#45;&gt;Node2508</title>
<path fill="none" stroke="midnightblue" d="M129.303,-72.066C147.875,-68.01 167.969,-63.6217 185.849,-59.7169"/>
<polygon fill="midnightblue" stroke="midnightblue" points="186.787,-63.0946 195.81,-57.5415 185.294,-56.2558 186.787,-63.0946"/>
</g>
<!-- Node2509 -->
<g id="node6" class="node"><title>Node2509</title>
<g id="a_node6"><a xlink:href="walletmodel_8cpp.html#ad90e039bd1291397caab3dbc49947a6a" target="_top" xlink:title="ShowProgress">
<polygon fill="white" stroke="black" points="200.5,-0.5 200.5,-19.5 280.5,-19.5 280.5,-0.5 200.5,-0.5"/>
<text text-anchor="middle" x="240.5" y="-7.5" font-family="Helvetica,sans-Serif" font-size="10.00">ShowProgress</text>
</a>
</g>
</g>
<!-- Node2504&#45;&gt;Node2509 -->
<g id="edge5" class="edge"><title>Node2504&#45;&gt;Node2509</title>
<path fill="none" stroke="midnightblue" d="M87.9242,-70.7963C107.528,-58.0916 137.139,-40.2889 165,-29 173.003,-25.7575 181.718,-22.9405 190.274,-20.541"/>
<polygon fill="midnightblue" stroke="midnightblue" points="191.422,-23.8577 200.194,-17.9155 189.631,-17.0907 191.422,-23.8577"/>
</g>
</g>
</svg>
