<?xml version="1.0" encoding="UTF-8" standalone="no"?>
<!DOCTYPE svg PUBLIC "-//W3C//DTD SVG 1.1//EN"
 "http://www.w3.org/Graphics/SVG/1.1/DTD/svg11.dtd">
<!-- Generated by graphviz version 2.38.0 (20140413.2041)
 -->
<!-- Title: CPrivateSend::GetDenominations Pages: 1 -->
<!--zoomable 199 -->
<svg id="main" version="1.1" xmlns="http://www.w3.org/2000/svg" xmlns:xlink="http://www.w3.org/1999/xlink" xml:space="preserve" onload="init(evt)">
<style type="text/css"><![CDATA[
.edge:hover path { stroke: red; }
.edge:hover polygon { stroke: red; fill: red; }
]]></style>
<script type="text/javascript"><![CDATA[
var edges = document.getElementsByTagName('g');
if (edges && edges.length) {
  for (var i=0;i<edges.length;i++) {
    if (edges[i].id.substr(0,4)=='edge') {
      edges[i].setAttribute('class','edge');
    }
  }
}
]]></script>
        <defs>
                <circle id="rim" cx="0" cy="0" r="7"/>
                <circle id="rim2" cx="0" cy="0" r="3.5"/>
                <g id="zoomPlus">
                        <use xlink:href="#rim" fill="#404040">
                                <set attributeName="fill" to="#808080" begin="zoomplus.mouseover" end="zoomplus.mouseout"/>
                        </use>
                        <path d="M-4,0h8M0,-4v8" fill="none" stroke="white" stroke-width="1.5" pointer-events="none"/>
                </g>
                <g id="zoomMin">
                        <use xlink:href="#rim" fill="#404040">
                                <set attributeName="fill" to="#808080" begin="zoomminus.mouseover" end="zoomminus.mouseout"/>
                        </use>
                        <path d="M-4,0h8" fill="none" stroke="white" stroke-width="1.5" pointer-events="none"/>
                </g>
                <g id="dirArrow">
                        <path fill="none" stroke="white" stroke-width="1.5" d="M0,-3.0v7 M-2.5,-0.5L0,-3.0L2.5,-0.5"/>
                </g>
               <g id="resetDef">
                       <use xlink:href="#rim2" fill="#404040">
                               <set attributeName="fill" to="#808080" begin="reset.mouseover" end="reset.mouseout"/>
                       </use>
               </g>
        </defs>

<script type="text/javascript">
var viewWidth = 1843;
var viewHeight = 199;
var sectionId = 'dynsection-7';
</script>
<script xlink:href="svgpan.js"/>
<svg id="graph" class="graph">
<g id="viewport">
<title>CPrivateSend::GetDenominations</title>
<polygon fill="white" stroke="none" points="-4,4 -4,-195 1839,-195 1839,4 -4,4"/>
<!-- Node99 -->
<g id="node1" class="node"><title>Node99</title>
<polygon fill="#bfbfbf" stroke="black" points="0,-101.5 0,-120.5 164,-120.5 164,-101.5 0,-101.5"/>
<text text-anchor="middle" x="82" y="-108.5" font-family="Helvetica,sans-Serif" font-size="10.00">CPrivateSend::GetDenominations</text>
</g>
<!-- Node100 -->
<g id="node2" class="node"><title>Node100</title>
<g id="a_node2"><a xlink:href="class_c_private_send.html#a0c46027cfe24dfca591f7b17bec13045" target="_top" xlink:title="CPrivateSend::GetDenominations">
<polygon fill="white" stroke="black" points="200,-167.5 200,-186.5 364,-186.5 364,-167.5 200,-167.5"/>
<text text-anchor="middle" x="282" y="-174.5" font-family="Helvetica,sans-Serif" font-size="10.00">CPrivateSend::GetDenominations</text>
</a>
</g>
</g>
<!-- Node99&#45;&gt;Node100 -->
<g id="edge1" class="edge"><title>Node99&#45;&gt;Node100</title>
<path fill="none" stroke="midnightblue" d="M114.065,-124.517C137.412,-134.354 170.339,-147.553 200,-157 212.146,-160.868 225.512,-164.44 237.826,-167.463"/>
<polygon fill="midnightblue" stroke="midnightblue" points="115.255,-121.22 104.683,-120.527 112.516,-127.661 115.255,-121.22"/>
</g>
<!-- Node101 -->
<g id="node3" class="node"><title>Node101</title>
<g id="a_node3"><a xlink:href="class_c_private_send.html#ae9450458b796fc1a97f6a86dd787bf23" target="_top" xlink:title="Get the denominations for a specific amount of dash. ">
<polygon fill="white" stroke="black" points="200,-118 200,-148 364,-148 364,-118 200,-118"/>
<text text-anchor="start" x="208" y="-136" font-family="Helvetica,sans-Serif" font-size="10.00">CPrivateSend::GetDenominations</text>
<text text-anchor="middle" x="282" y="-125" font-family="Helvetica,sans-Serif" font-size="10.00">ByAmounts</text>
</a>
</g>
</g>
<!-- Node99&#45;&gt;Node101 -->
<g id="edge2" class="edge"><title>Node99&#45;&gt;Node101</title>
<path fill="none" stroke="midnightblue" d="M174.085,-121.121C182.63,-122.07 191.254,-123.028 199.7,-123.967"/>
<polygon fill="midnightblue" stroke="midnightblue" points="174.431,-117.638 164.105,-120.012 173.658,-124.595 174.431,-117.638"/>
</g>
<!-- Node114 -->
<g id="node16" class="node"><title>Node114</title>
<g id="a_node16"><a xlink:href="class_c_private_send_server.html#a9db6664e7c755680654305aa31d918de" target="_top" xlink:title="Are these outputs compatible with other client in the pool? ">
<polygon fill="white" stroke="black" points="400,-68.5 400,-109.5 570,-109.5 570,-68.5 400,-68.5"/>
<text text-anchor="start" x="408" y="-97.5" font-family="Helvetica,sans-Serif" font-size="10.00">CPrivateSendServer</text>
<text text-anchor="start" x="408" y="-86.5" font-family="Helvetica,sans-Serif" font-size="10.00">::IsOutputsCompatibleWithSession</text>
<text text-anchor="middle" x="485" y="-75.5" font-family="Helvetica,sans-Serif" font-size="10.00">Denom</text>
</a>
</g>
</g>
<!-- Node99&#45;&gt;Node114 -->
<g id="edge15" class="edge"><title>Node99&#45;&gt;Node114</title>
<path fill="none" stroke="midnightblue" d="M174.391,-105.986C242.173,-102.267 333.877,-97.2361 399.865,-93.6159"/>
<polygon fill="midnightblue" stroke="midnightblue" points="173.942,-102.505 164.148,-106.548 174.325,-109.495 173.942,-102.505"/>
</g>
<!-- Node124 -->
<g id="node26" class="node"><title>Node124</title>
<g id="a_node26"><a xlink:href="class_c_private_send_client.html#a356ed0412558a251d85ebfbc4090dcf9" target="_top" xlink:title="step 1: prepare denominated inputs and outputs ">
<polygon fill="white" stroke="black" points="227.5,-25 227.5,-55 336.5,-55 336.5,-25 227.5,-25"/>
<text text-anchor="start" x="235.5" y="-43" font-family="Helvetica,sans-Serif" font-size="10.00">CPrivateSendClient</text>
<text text-anchor="middle" x="282" y="-32" font-family="Helvetica,sans-Serif" font-size="10.00">::PrepareDenominate</text>
</a>
</g>
</g>
<!-- Node99&#45;&gt;Node124 -->
<g id="edge27" class="edge"><title>Node99&#45;&gt;Node124</title>
<path fill="none" stroke="midnightblue" d="M119.182,-98.0255C152.932,-85.9235 203.276,-67.8708 238.831,-55.1211"/>
<polygon fill="midnightblue" stroke="midnightblue" points="117.935,-94.7546 109.703,-101.425 120.298,-101.344 117.935,-94.7546"/>
</g>
<!-- Node102 -->
<g id="node4" class="node"><title>Node102</title>
<g id="a_node4"><a xlink:href="class_c_private_send_client.html#a4394dfd7c898722e494a417cce66aeea" target="_top" xlink:title="CPrivateSendClient\l::StartNewQueue">
<polygon fill="white" stroke="black" points="433.5,-128 433.5,-158 536.5,-158 536.5,-128 433.5,-128"/>
<text text-anchor="start" x="441.5" y="-146" font-family="Helvetica,sans-Serif" font-size="10.00">CPrivateSendClient</text>
<text text-anchor="middle" x="485" y="-135" font-family="Helvetica,sans-Serif" font-size="10.00">::StartNewQueue</text>
</a>
</g>
</g>
<!-- Node101&#45;&gt;Node102 -->
<g id="edge3" class="edge"><title>Node101&#45;&gt;Node102</title>
<path fill="none" stroke="midnightblue" d="M374.407,-137.548C394.711,-138.558 415.514,-139.593 433.465,-140.486"/>
<polygon fill="midnightblue" stroke="midnightblue" points="374.337,-134.04 364.175,-137.039 373.989,-141.031 374.337,-134.04"/>
</g>
<!-- Node103 -->
<g id="node5" class="node"><title>Node103</title>
<g id="a_node5"><a xlink:href="class_c_private_send_client.html#ad3438123cb41c93b5323f64bb52a7331" target="_top" xlink:title="Passively run mixing in the background according to the configuration in settings. ">
<polygon fill="white" stroke="black" points="606,-128 606,-158 746,-158 746,-128 606,-128"/>
<text text-anchor="start" x="614" y="-146" font-family="Helvetica,sans-Serif" font-size="10.00">CPrivateSendClient</text>
<text text-anchor="middle" x="676" y="-135" font-family="Helvetica,sans-Serif" font-size="10.00">::DoAutomaticDenominating</text>
</a>
</g>
</g>
<!-- Node102&#45;&gt;Node103 -->
<g id="edge4" class="edge"><title>Node102&#45;&gt;Node103</title>
<path fill="none" stroke="midnightblue" d="M546.847,-143C565.622,-143 586.436,-143 605.734,-143"/>
<polygon fill="midnightblue" stroke="midnightblue" points="546.649,-139.5 536.649,-143 546.648,-146.5 546.649,-139.5"/>
</g>
<!-- Node104 -->
<g id="node6" class="node"><title>Node104</title>
<g id="a_node6"><a xlink:href="server_8h.html#a6f0f20fd2a24851d47a6120eeca7d3e4" target="_top" xlink:title="privatesend">
<polygon fill="white" stroke="black" points="827.5,-133.5 827.5,-152.5 894.5,-152.5 894.5,-133.5 827.5,-133.5"/>
<text text-anchor="middle" x="861" y="-140.5" font-family="Helvetica,sans-Serif" font-size="10.00">privatesend</text>
</a>
</g>
</g>
<!-- Node103&#45;&gt;Node104 -->
<g id="edge5" class="edge"><title>Node103&#45;&gt;Node104</title>
<path fill="none" stroke="midnightblue" d="M756.368,-143C781.22,-143 807.288,-143 827.062,-143"/>
<polygon fill="midnightblue" stroke="midnightblue" points="756.184,-139.5 746.184,-143 756.184,-146.5 756.184,-139.5"/>
</g>
<!-- Node105 -->
<g id="node7" class="node"><title>Node105</title>
<g id="a_node7"><a xlink:href="privatesend-client_8h.html#a01b520827079bf595bfd4f72785026dc" target="_top" xlink:title="ThreadCheckPrivateSendClient">
<polygon fill="white" stroke="black" points="976,-95.5 976,-114.5 1130,-114.5 1130,-95.5 976,-95.5"/>
<text text-anchor="middle" x="1053" y="-102.5" font-family="Helvetica,sans-Serif" font-size="10.00">ThreadCheckPrivateSendClient</text>
</a>
</g>
</g>
<!-- Node103&#45;&gt;Node105 -->
<g id="edge6" class="edge"><title>Node103&#45;&gt;Node105</title>
<path fill="none" stroke="midnightblue" d="M755.9,-127.771C764.685,-126.359 773.519,-125.062 782,-124 847.16,-115.836 921.64,-110.924 975.846,-108.145"/>
<polygon fill="midnightblue" stroke="midnightblue" points="755.317,-124.32 746.024,-129.408 756.462,-131.226 755.317,-124.32"/>
</g>
<!-- Node110 -->
<g id="node12" class="node"><title>Node110</title>
<g id="a_node12"><a xlink:href="class_overview_page.html#a26efca896ca89c09ebaba1020916ea59" target="_top" xlink:title="OverviewPage::privateSendAuto">
<polygon fill="white" stroke="black" points="782,-171.5 782,-190.5 940,-190.5 940,-171.5 782,-171.5"/>
<text text-anchor="middle" x="861" y="-178.5" font-family="Helvetica,sans-Serif" font-size="10.00">OverviewPage::privateSendAuto</text>
</a>
</g>
</g>
<!-- Node103&#45;&gt;Node110 -->
<g id="edge11" class="edge"><title>Node103&#45;&gt;Node110</title>
<path fill="none" stroke="midnightblue" d="M756.119,-159.429C775.888,-163.534 796.442,-167.802 813.999,-171.448"/>
<polygon fill="midnightblue" stroke="midnightblue" points="756.687,-155.972 746.184,-157.366 755.264,-162.826 756.687,-155.972"/>
</g>
<!-- Node106 -->
<g id="node8" class="node"><title>Node106</title>
<g id="a_node8"><a xlink:href="init_8h.html#a6f0784aa332573f949b0975205572b28" target="_top" xlink:title="Initialize Dash Core. ">
<polygon fill="white" stroke="black" points="1376.5,-85.5 1376.5,-104.5 1429.5,-104.5 1429.5,-85.5 1376.5,-85.5"/>
<text text-anchor="middle" x="1403" y="-92.5" font-family="Helvetica,sans-Serif" font-size="10.00">AppInit2</text>
</a>
</g>
</g>
<!-- Node105&#45;&gt;Node106 -->
<g id="edge7" class="edge"><title>Node105&#45;&gt;Node106</title>
<path fill="none" stroke="midnightblue" d="M1140.63,-102.51C1218.31,-100.278 1327.36,-97.1448 1376.37,-95.7364"/>
<polygon fill="midnightblue" stroke="midnightblue" points="1140.27,-99.0196 1130.37,-102.805 1140.47,-106.017 1140.27,-99.0196"/>
</g>
<!-- Node107 -->
<g id="node9" class="node"><title>Node107</title>
<g id="a_node9"><a xlink:href="dashd_8cpp.html#ac59316b767e6984e1285f0531275286b" target="_top" xlink:title="AppInit">
<polygon fill="white" stroke="black" points="1679.5,-76.5 1679.5,-95.5 1726.5,-95.5 1726.5,-76.5 1679.5,-76.5"/>
<text text-anchor="middle" x="1703" y="-83.5" font-family="Helvetica,sans-Serif" font-size="10.00">AppInit</text>
</a>
</g>
</g>
<!-- Node106&#45;&gt;Node107 -->
<g id="edge8" class="edge"><title>Node106&#45;&gt;Node107</title>
<path fill="none" stroke="midnightblue" d="M1439.66,-99.9591C1480.62,-104.909 1549.81,-110.985 1609,-105 1633.27,-102.547 1660.56,-96.5796 1679.27,-91.9816"/>
<polygon fill="midnightblue" stroke="midnightblue" points="1439.99,-96.4728 1429.63,-98.7007 1439.12,-103.418 1439.99,-96.4728"/>
</g>
<!-- Node109 -->
<g id="node11" class="node"><title>Node109</title>
<g id="a_node11"><a xlink:href="class_bitcoin_core.html#af34ca069cda1d4362dcc109b4397fb62" target="_top" xlink:title="BitcoinCore::initialize">
<polygon fill="white" stroke="black" points="1500,-76.5 1500,-95.5 1609,-95.5 1609,-76.5 1500,-76.5"/>
<text text-anchor="middle" x="1554.5" y="-83.5" font-family="Helvetica,sans-Serif" font-size="10.00">BitcoinCore::initialize</text>
</a>
</g>
</g>
<!-- Node106&#45;&gt;Node109 -->
<g id="edge10" class="edge"><title>Node106&#45;&gt;Node109</title>
<path fill="none" stroke="midnightblue" d="M1439.77,-92.8464C1457.79,-91.762 1479.99,-90.4252 1499.99,-89.2215"/>
<polygon fill="midnightblue" stroke="midnightblue" points="1439.47,-89.3582 1429.7,-93.4528 1439.89,-96.3455 1439.47,-89.3582"/>
</g>
<!-- Node108 -->
<g id="node10" class="node"><title>Node108</title>
<g id="a_node10"><a xlink:href="dashd_8cpp.html#a0ddf1224851353fc92bfbff6f499fa97" target="_top" xlink:title="main">
<polygon fill="white" stroke="black" points="1797,-76.5 1797,-95.5 1835,-95.5 1835,-76.5 1797,-76.5"/>
<text text-anchor="middle" x="1816" y="-83.5" font-family="Helvetica,sans-Serif" font-size="10.00">main</text>
</a>
</g>
</g>
<!-- Node107&#45;&gt;Node108 -->
<g id="edge9" class="edge"><title>Node107&#45;&gt;Node108</title>
<path fill="none" stroke="midnightblue" d="M1736.77,-86C1756.33,-86 1780.46,-86 1796.7,-86"/>
<polygon fill="midnightblue" stroke="midnightblue" points="1736.73,-82.5001 1726.73,-86 1736.73,-89.5001 1736.73,-82.5001"/>
</g>
<!-- Node111 -->
<g id="node13" class="node"><title>Node111</title>
<g id="a_node13"><a xlink:href="class_overview_page.html#a2ed52a3a87e9c74fee38fa873c9bc71f" target="_top" xlink:title="OverviewPage::setWalletModel">
<polygon fill="white" stroke="black" points="976,-171.5 976,-190.5 1130,-190.5 1130,-171.5 976,-171.5"/>
<text text-anchor="middle" x="1053" y="-178.5" font-family="Helvetica,sans-Serif" font-size="10.00">OverviewPage::setWalletModel</text>
</a>
</g>
</g>
<!-- Node110&#45;&gt;Node111 -->
<g id="edge12" class="edge"><title>Node110&#45;&gt;Node111</title>
<path fill="none" stroke="midnightblue" d="M950.381,-181C958.852,-181 967.393,-181 975.733,-181"/>
<polygon fill="midnightblue" stroke="midnightblue" points="950.103,-177.5 940.103,-181 950.103,-184.5 950.103,-177.5"/>
</g>
<!-- Node112 -->
<g id="node14" class="node"><title>Node112</title>
<g id="a_node14"><a xlink:href="class_wallet_view.html#a0a37ff693a4f9c1e5ddc23f9cd3913be" target="_top" xlink:title="Set the wallet model. ">
<polygon fill="white" stroke="black" points="1166,-171.5 1166,-190.5 1306,-190.5 1306,-171.5 1166,-171.5"/>
<text text-anchor="middle" x="1236" y="-178.5" font-family="Helvetica,sans-Serif" font-size="10.00">WalletView::setWalletModel</text>
</a>
</g>
</g>
<!-- Node111&#45;&gt;Node112 -->
<g id="edge13" class="edge"><title>Node111&#45;&gt;Node112</title>
<path fill="none" stroke="midnightblue" d="M1140.24,-181C1148.8,-181 1157.41,-181 1165.76,-181"/>
<polygon fill="midnightblue" stroke="midnightblue" points="1140.24,-177.5 1130.24,-181 1140.24,-184.5 1140.24,-177.5"/>
</g>
<!-- Node113 -->
<g id="node15" class="node"><title>Node113</title>
<g id="a_node15"><a xlink:href="class_wallet_frame.html#aa199c3f27654199d84c365cf86167d86" target="_top" xlink:title="WalletFrame::addWallet">
<polygon fill="white" stroke="black" points="1342,-171.5 1342,-190.5 1464,-190.5 1464,-171.5 1342,-171.5"/>
<text text-anchor="middle" x="1403" y="-178.5" font-family="Helvetica,sans-Serif" font-size="10.00">WalletFrame::addWallet</text>
</a>
</g>
</g>
<!-- Node112&#45;&gt;Node113 -->
<g id="edge14" class="edge"><title>Node112&#45;&gt;Node113</title>
<path fill="none" stroke="midnightblue" d="M1316.15,-181C1324.81,-181 1333.53,-181 1341.91,-181"/>
<polygon fill="midnightblue" stroke="midnightblue" points="1316.02,-177.5 1306.02,-181 1316.02,-184.5 1316.02,-177.5"/>
</g>
<!-- Node115 -->
<g id="node17" class="node"><title>Node115</title>
<g id="a_node17"><a xlink:href="class_c_private_send_server.html#ad51576edb65312fa566ba6f0351a7b6d" target="_top" xlink:title="CPrivateSendServer\l::ProcessMessage">
<polygon fill="white" stroke="black" points="623,-72 623,-102 729,-102 729,-72 623,-72"/>
<text text-anchor="start" x="631" y="-90" font-family="Helvetica,sans-Serif" font-size="10.00">CPrivateSendServer</text>
<text text-anchor="middle" x="676" y="-79" font-family="Helvetica,sans-Serif" font-size="10.00">::ProcessMessage</text>
</a>
</g>
</g>
<!-- Node114&#45;&gt;Node115 -->
<g id="edge16" class="edge"><title>Node114&#45;&gt;Node115</title>
<path fill="none" stroke="midnightblue" d="M580.387,-88.0012C595.02,-87.8464 609.656,-87.6915 622.893,-87.5514"/>
<polygon fill="midnightblue" stroke="midnightblue" points="580.237,-84.5025 570.274,-88.1082 580.311,-91.5021 580.237,-84.5025"/>
</g>
<!-- Node116 -->
<g id="node18" class="node"><title>Node116</title>
<g id="a_node18"><a xlink:href="net__processing_8cpp.html#a193d0ece6e2f2f7ee37352ac9720bb83" target="_top" xlink:title="ProcessMessage">
<polygon fill="white" stroke="black" points="815,-42.5 815,-61.5 907,-61.5 907,-42.5 815,-42.5"/>
<text text-anchor="middle" x="861" y="-49.5" font-family="Helvetica,sans-Serif" font-size="10.00">ProcessMessage</text>
</a>
</g>
</g>
<!-- Node115&#45;&gt;Node116 -->
<g id="edge17" class="edge"><title>Node115&#45;&gt;Node116</title>
<path fill="none" stroke="midnightblue" d="M739.487,-75.0489C764.284,-70.3063 792.252,-64.9572 814.999,-60.6068"/>
<polygon fill="midnightblue" stroke="midnightblue" points="738.605,-71.6541 729.44,-76.9704 739.92,-78.5295 738.605,-71.6541"/>
</g>
<!-- Node117 -->
<g id="node19" class="node"><title>Node117</title>
<g id="a_node19"><a xlink:href="net__processing_8h.html#a7fa42e7ffd6e6ba5b7537af248e30fc8" target="_top" xlink:title="Process protocol messages received from a given node. ">
<polygon fill="white" stroke="black" points="1004,-42.5 1004,-61.5 1102,-61.5 1102,-42.5 1004,-42.5"/>
<text text-anchor="middle" x="1053" y="-49.5" font-family="Helvetica,sans-Serif" font-size="10.00">ProcessMessages</text>
</a>
</g>
</g>
<!-- Node116&#45;&gt;Node117 -->
<g id="edge18" class="edge"><title>Node116&#45;&gt;Node117</title>
<path fill="none" stroke="midnightblue" d="M917.261,-52C944.719,-52 977.579,-52 1003.97,-52"/>
<polygon fill="midnightblue" stroke="midnightblue" points="917.027,-48.5001 907.027,-52 917.027,-55.5001 917.027,-48.5001"/>
</g>
<!-- Node118 -->
<g id="node20" class="node"><title>Node118</title>
<g id="a_node20"><a xlink:href="net__processing_8h.html#ab02615ff65f91d69f8d786ec900baa8a" target="_top" xlink:title="Register with a network node to receive its signals. ">
<polygon fill="white" stroke="black" points="1181.5,-57.5 1181.5,-76.5 1290.5,-76.5 1290.5,-57.5 1181.5,-57.5"/>
<text text-anchor="middle" x="1236" y="-64.5" font-family="Helvetica,sans-Serif" font-size="10.00">RegisterNodeSignals</text>
</a>
</g>
</g>
<!-- Node117&#45;&gt;Node118 -->
<g id="edge19" class="edge"><title>Node117&#45;&gt;Node118</title>
<path fill="none" stroke="midnightblue" d="M1112.01,-56.8075C1134.25,-58.6504 1159.5,-60.7433 1181.32,-62.5511"/>
<polygon fill="midnightblue" stroke="midnightblue" points="1112.28,-53.3183 1102.03,-55.9803 1111.71,-60.2944 1112.28,-53.3183"/>
</g>
<!-- Node119 -->
<g id="node21" class="node"><title>Node119</title>
<g id="a_node21"><a xlink:href="net__processing_8h.html#a3ef0cc6e9d9d6435ee2a5569244d6ebd" target="_top" xlink:title="Unregister a network node. ">
<polygon fill="white" stroke="black" points="1177.5,-19.5 1177.5,-38.5 1294.5,-38.5 1294.5,-19.5 1177.5,-19.5"/>
<text text-anchor="middle" x="1236" y="-26.5" font-family="Helvetica,sans-Serif" font-size="10.00">UnregisterNodeSignals</text>
</a>
</g>
</g>
<!-- Node117&#45;&gt;Node119 -->
<g id="edge21" class="edge"><title>Node117&#45;&gt;Node119</title>
<path fill="none" stroke="midnightblue" d="M1112.05,-44.6229C1132.96,-41.9664 1156.53,-38.9716 1177.4,-36.3199"/>
<polygon fill="midnightblue" stroke="midnightblue" points="1111.51,-41.1641 1102.03,-45.8968 1112.39,-48.1082 1111.51,-41.1641"/>
</g>
<!-- Node118&#45;&gt;Node106 -->
<g id="edge20" class="edge"><title>Node118&#45;&gt;Node106</title>
<path fill="none" stroke="midnightblue" d="M1300.54,-77.7824C1326.96,-82.2665 1356.13,-87.2161 1376.38,-90.6531"/>
<polygon fill="midnightblue" stroke="midnightblue" points="1301.02,-74.3133 1290.57,-76.0908 1299.84,-81.2146 1301.02,-74.3133"/>
</g>
<!-- Node120 -->
<g id="node22" class="node"><title>Node120</title>
<g id="a_node22"><a xlink:href="init_8h.html#a5cb3db83cb0ba2e421f651a1ee1f2cfe" target="_top" xlink:title="Preparing steps before shutting down or restarting the wallet. ">
<polygon fill="white" stroke="black" points="1356,-19.5 1356,-38.5 1450,-38.5 1450,-19.5 1356,-19.5"/>
<text text-anchor="middle" x="1403" y="-26.5" font-family="Helvetica,sans-Serif" font-size="10.00">PrepareShutdown</text>
</a>
</g>
</g>
<!-- Node119&#45;&gt;Node120 -->
<g id="edge22" class="edge"><title>Node119&#45;&gt;Node120</title>
<path fill="none" stroke="midnightblue" d="M1305.17,-29C1322.2,-29 1340.06,-29 1355.75,-29"/>
<polygon fill="midnightblue" stroke="midnightblue" points="1304.71,-25.5001 1294.71,-29 1304.71,-32.5001 1304.71,-25.5001"/>
</g>
<!-- Node121 -->
<g id="node23" class="node"><title>Node121</title>
<g id="a_node23"><a xlink:href="class_bitcoin_core.html#ac2271844c89ebc4c611e7617ce6202e3" target="_top" xlink:title="BitcoinCore::restart">
<polygon fill="white" stroke="black" points="1504,-38.5 1504,-57.5 1605,-57.5 1605,-38.5 1504,-38.5"/>
<text text-anchor="middle" x="1554.5" y="-45.5" font-family="Helvetica,sans-Serif" font-size="10.00">BitcoinCore::restart</text>
</a>
</g>
</g>
<!-- Node120&#45;&gt;Node121 -->
<g id="edge23" class="edge"><title>Node120&#45;&gt;Node121</title>
<path fill="none" stroke="midnightblue" d="M1460.31,-36.1571C1474.66,-37.9799 1489.97,-39.9254 1503.94,-41.7018"/>
<polygon fill="midnightblue" stroke="midnightblue" points="1460.44,-32.6444 1450.07,-34.8557 1459.55,-39.5886 1460.44,-32.6444"/>
</g>
<!-- Node122 -->
<g id="node24" class="node"><title>Node122</title>
<g id="a_node24"><a xlink:href="init_8h.html#ac5f038c2b480cf9ef5e19e3eba8dbaf9" target="_top" xlink:title="Shutdown is split into 2 parts: Part 1: shut down everything but the main wallet instance (done in Pr...">
<polygon fill="white" stroke="black" points="1524.5,-0.5 1524.5,-19.5 1584.5,-19.5 1584.5,-0.5 1524.5,-0.5"/>
<text text-anchor="middle" x="1554.5" y="-7.5" font-family="Helvetica,sans-Serif" font-size="10.00">Shutdown</text>
</a>
</g>
</g>
<!-- Node120&#45;&gt;Node122 -->
<g id="edge24" class="edge"><title>Node120&#45;&gt;Node122</title>
<path fill="none" stroke="midnightblue" d="M1460.23,-21.8536C1482.03,-19.0832 1506.07,-16.0277 1524.29,-13.7129"/>
<polygon fill="midnightblue" stroke="midnightblue" points="1459.55,-18.4114 1450.07,-23.1443 1460.44,-25.3556 1459.55,-18.4114"/>
</g>
<!-- Node122&#45;&gt;Node107 -->
<g id="edge25" class="edge"><title>Node122&#45;&gt;Node107</title>
<path fill="none" stroke="midnightblue" d="M1594.17,-22.6455C1599.23,-24.614 1604.28,-26.748 1609,-29 1638.56,-43.1186 1670.64,-64.1858 1688.33,-76.3625"/>
<polygon fill="midnightblue" stroke="midnightblue" points="1595.14,-19.2709 1584.55,-19.0768 1592.71,-25.8344 1595.14,-19.2709"/>
</g>
<!-- Node123 -->
<g id="node25" class="node"><title>Node123</title>
<g id="a_node25"><a xlink:href="class_bitcoin_core.html#a94f3f4622ba698e321f3a2e0e686129f" target="_top" xlink:title="BitcoinCore::shutdown">
<polygon fill="white" stroke="black" points="1645,-0.5 1645,-19.5 1761,-19.5 1761,-0.5 1645,-0.5"/>
<text text-anchor="middle" x="1703" y="-7.5" font-family="Helvetica,sans-Serif" font-size="10.00">BitcoinCore::shutdown</text>
</a>
</g>
</g>
<!-- Node122&#45;&gt;Node123 -->
<g id="edge26" class="edge"><title>Node122&#45;&gt;Node123</title>
<path fill="none" stroke="midnightblue" d="M1594.97,-10C1610.31,-10 1628.18,-10 1644.88,-10"/>
<polygon fill="midnightblue" stroke="midnightblue" points="1594.79,-6.5001 1584.79,-10 1594.79,-13.5001 1594.79,-6.5001"/>
</g>
<!-- Node125 -->
<g id="node27" class="node"><title>Node125</title>
<g id="a_node27"><a xlink:href="class_c_private_send_client.html#a0c0fd844c06a51c196e9c712df4af546" target="_top" xlink:title="As a client, submit part of a future mixing transaction to a Masternode to start the process...">
<polygon fill="white" stroke="black" points="432,-20 432,-50 538,-50 538,-20 432,-20"/>
<text text-anchor="start" x="440" y="-38" font-family="Helvetica,sans-Serif" font-size="10.00">CPrivateSendClient</text>
<text text-anchor="middle" x="485" y="-27" font-family="Helvetica,sans-Serif" font-size="10.00">::SubmitDenominate</text>
</a>
</g>
</g>
<!-- Node124&#45;&gt;Node125 -->
<g id="edge28" class="edge"><title>Node124&#45;&gt;Node125</title>
<path fill="none" stroke="midnightblue" d="M346.887,-38.4108C374.318,-37.7284 405.965,-36.9412 431.938,-36.2951"/>
<polygon fill="midnightblue" stroke="midnightblue" points="346.51,-34.919 336.6,-38.6667 346.684,-41.9168 346.51,-34.919"/>
</g>
<!-- Node126 -->
<g id="node28" class="node"><title>Node126</title>
<g id="a_node28"><a xlink:href="class_c_private_send_client.html#ac5739f34dc74c48a25481ed6cb61a88f" target="_top" xlink:title="CPrivateSendClient\l::ProcessMessage">
<polygon fill="white" stroke="black" points="624.5,-21 624.5,-51 727.5,-51 727.5,-21 624.5,-21"/>
<text text-anchor="start" x="632.5" y="-39" font-family="Helvetica,sans-Serif" font-size="10.00">CPrivateSendClient</text>
<text text-anchor="middle" x="676" y="-28" font-family="Helvetica,sans-Serif" font-size="10.00">::ProcessMessage</text>
</a>
</g>
</g>
<!-- Node125&#45;&gt;Node126 -->
<g id="edge29" class="edge"><title>Node125&#45;&gt;Node126</title>
<path fill="none" stroke="midnightblue" d="M548.472,-35.3305C573.091,-35.4608 601,-35.6085 624.33,-35.7319"/>
<polygon fill="midnightblue" stroke="midnightblue" points="548.164,-31.829 538.145,-35.2759 548.127,-38.8289 548.164,-31.829"/>
</g>
<!-- Node126&#45;&gt;Node116 -->
<g id="edge30" class="edge"><title>Node126&#45;&gt;Node116</title>
<path fill="none" stroke="midnightblue" d="M738.13,-41.3447C763.226,-43.5389 791.761,-46.0337 814.907,-48.0575"/>
<polygon fill="midnightblue" stroke="midnightblue" points="738.243,-37.8413 727.976,-40.4569 737.633,-44.8147 738.243,-37.8413"/>
</g>
</g>
</svg>
        <g id="navigator" transform="translate(0 0)" fill="#404254">
                <rect fill="#f2f5e9" fill-opacity="0.5" stroke="#606060" stroke-width=".5" x="0" y="0" width="60" height="60"/>
                <use id="zoomplus" xlink:href="#zoomPlus" x="17" y="9" onmousedown="handleZoom(evt,'in')"/>
                <use id="zoomminus" xlink:href="#zoomMin" x="42" y="9" onmousedown="handleZoom(evt,'out')"/>
                <use id="reset" xlink:href="#resetDef" x="30" y="36" onmousedown="handleReset()"/>
                <g id="arrowUp" xlink:href="#dirArrow" transform="translate(30 24)" onmousedown="handlePan(0,-1)">
                  <use xlink:href="#rim" fill="#404040">
                        <set attributeName="fill" to="#808080" begin="arrowUp.mouseover" end="arrowUp.mouseout"/>
                  </use>
                  <path fill="none" stroke="white" stroke-width="1.5" d="M0,-3.0v7 M-2.5,-0.5L0,-3.0L2.5,-0.5"/>
                </g>
                <g id="arrowRight" xlink:href="#dirArrow" transform="rotate(90) translate(36 -43)" onmousedown="handlePan(1,0)">
                  <use xlink:href="#rim" fill="#404040">
                        <set attributeName="fill" to="#808080" begin="arrowRight.mouseover" end="arrowRight.mouseout"/>
                  </use>
                  <path fill="none" stroke="white" stroke-width="1.5" d="M0,-3.0v7 M-2.5,-0.5L0,-3.0L2.5,-0.5"/>
                </g>
                <g id="arrowDown" xlink:href="#dirArrow" transform="rotate(180) translate(-30 -48)" onmousedown="handlePan(0,1)">
                  <use xlink:href="#rim" fill="#404040">
                        <set attributeName="fill" to="#808080" begin="arrowDown.mouseover" end="arrowDown.mouseout"/>
                  </use>
                  <path fill="none" stroke="white" stroke-width="1.5" d="M0,-3.0v7 M-2.5,-0.5L0,-3.0L2.5,-0.5"/>
                </g>
                <g id="arrowLeft" xlink:href="#dirArrow" transform="rotate(270) translate(-36 17)" onmousedown="handlePan(-1,0)">
                  <use xlink:href="#rim" fill="#404040">
                        <set attributeName="fill" to="#808080" begin="arrowLeft.mouseover" end="arrowLeft.mouseout"/>
                  </use>
                  <path fill="none" stroke="white" stroke-width="1.5" d="M0,-3.0v7 M-2.5,-0.5L0,-3.0L2.5,-0.5"/>
                </g>
        </g>
        <svg viewBox="0 0 15 15" width="100%" height="30px" preserveAspectRatio="xMaxYMin meet">
         <g id="arrow_out" transform="scale(0.3 0.3)">
          <a xlink:href="class_c_private_send_a43c11671576bb701a8fb0a2dcc7ab855_icgraph_org.svg" target="_base">
           <rect id="button" ry="5" rx="5" y="6" x="6" height="38" width="38"
                fill="#f2f5e9" fill-opacity="0.5" stroke="#606060" stroke-width="1.0"/>
           <path id="arrow"
             d="M 11.500037,31.436501 C 11.940474,20.09759 22.043105,11.32322 32.158766,21.979434 L 37.068811,17.246167 C 37.068811,17.246167 37.088388,32 37.088388,32 L 22.160133,31.978069 C 22.160133,31.978069 26.997745,27.140456 26.997745,27.140456 C 18.528582,18.264221 13.291696,25.230495 11.500037,31.436501 z"
             style="fill:#404040;"/>
          </a>
         </g>
        </svg>
</svg>
