<?xml version="1.0" encoding="UTF-8" standalone="no"?>
<!DOCTYPE svg PUBLIC "-//W3C//DTD SVG 1.1//EN"
 "http://www.w3.org/Graphics/SVG/1.1/DTD/svg11.dtd">
<!-- Generated by graphviz version 2.38.0 (20140413.2041)
 -->
<!-- Title: CMasternode::CalculateScore Pages: 1 -->
<!--zoomable 175 -->
<svg id="main" version="1.1" xmlns="http://www.w3.org/2000/svg" xmlns:xlink="http://www.w3.org/1999/xlink" xml:space="preserve" onload="init(evt)">
<style type="text/css"><![CDATA[
.edge:hover path { stroke: red; }
.edge:hover polygon { stroke: red; fill: red; }
]]></style>
<script type="text/javascript"><![CDATA[
var edges = document.getElementsByTagName('g');
if (edges && edges.length) {
  for (var i=0;i<edges.length;i++) {
    if (edges[i].id.substr(0,4)=='edge') {
      edges[i].setAttribute('class','edge');
    }
  }
}
]]></script>
        <defs>
                <circle id="rim" cx="0" cy="0" r="7"/>
                <circle id="rim2" cx="0" cy="0" r="3.5"/>
                <g id="zoomPlus">
                        <use xlink:href="#rim" fill="#404040">
                                <set attributeName="fill" to="#808080" begin="zoomplus.mouseover" end="zoomplus.mouseout"/>
                        </use>
                        <path d="M-4,0h8M0,-4v8" fill="none" stroke="white" stroke-width="1.5" pointer-events="none"/>
                </g>
                <g id="zoomMin">
                        <use xlink:href="#rim" fill="#404040">
                                <set attributeName="fill" to="#808080" begin="zoomminus.mouseover" end="zoomminus.mouseout"/>
                        </use>
                        <path d="M-4,0h8" fill="none" stroke="white" stroke-width="1.5" pointer-events="none"/>
                </g>
                <g id="dirArrow">
                        <path fill="none" stroke="white" stroke-width="1.5" d="M0,-3.0v7 M-2.5,-0.5L0,-3.0L2.5,-0.5"/>
                </g>
               <g id="resetDef">
                       <use xlink:href="#rim2" fill="#404040">
                               <set attributeName="fill" to="#808080" begin="reset.mouseover" end="reset.mouseout"/>
                       </use>
               </g>
        </defs>

<script type="text/javascript">
var viewWidth = 901;
var viewHeight = 175;
var sectionId = 'dynsection-5';
</script>
<script xlink:href="svgpan.js"/>
<svg id="graph" class="graph">
<g id="viewport">
<title>CMasternode::CalculateScore</title>
<polygon fill="white" stroke="none" points="-4,4 -4,-171 897,-171 897,4 -4,4"/>
<!-- Node55 -->
<g id="node1" class="node"><title>Node55</title>
<polygon fill="#bfbfbf" stroke="black" points="0,-59.5 0,-78.5 148,-78.5 148,-59.5 0,-59.5"/>
<text text-anchor="middle" x="74" y="-66.5" font-family="Helvetica,sans-Serif" font-size="10.00">CMasternode::CalculateScore</text>
</g>
<!-- Node56 -->
<g id="node2" class="node"><title>Node56</title>
<g id="a_node2"><a xlink:href="class_c_hash_writer.html#ae94a937211502eabf19477630090093a" target="_top" xlink:title="CHashWriter::GetHash">
<polygon fill="white" stroke="black" points="184,-81.5 184,-100.5 303,-100.5 303,-81.5 184,-81.5"/>
<text text-anchor="middle" x="243.5" y="-88.5" font-family="Helvetica,sans-Serif" font-size="10.00">CHashWriter::GetHash</text>
</a>
</g>
</g>
<!-- Node55&#45;&gt;Node56 -->
<g id="edge1" class="edge"><title>Node55&#45;&gt;Node56</title>
<path fill="none" stroke="midnightblue" d="M147.494,-78.5216C156.2,-79.6651 165.071,-80.8303 173.723,-81.9665"/>
<polygon fill="midnightblue" stroke="midnightblue" points="173.383,-85.452 183.754,-83.2841 174.295,-78.5116 173.383,-85.452"/>
</g>
<!-- Node69 -->
<g id="node15" class="node"><title>Node69</title>
<g id="a_node15"><a xlink:href="arith__uint256_8cpp.html#a6a6e0e2e41ba7e31c4a741eb2426a516" target="_top" xlink:title="UintToArith256">
<polygon fill="white" stroke="black" points="202.5,-38.5 202.5,-57.5 284.5,-57.5 284.5,-38.5 202.5,-38.5"/>
<text text-anchor="middle" x="243.5" y="-45.5" font-family="Helvetica,sans-Serif" font-size="10.00">UintToArith256</text>
</a>
</g>
</g>
<!-- Node55&#45;&gt;Node69 -->
<g id="edge15" class="edge"><title>Node55&#45;&gt;Node69</title>
<path fill="none" stroke="midnightblue" d="M148.468,-59.7891C163.178,-57.9449 178.317,-56.0468 192.034,-54.3271"/>
<polygon fill="midnightblue" stroke="midnightblue" points="192.728,-57.7676 202.215,-53.0507 191.857,-50.822 192.728,-57.7676"/>
</g>
<!-- Node57 -->
<g id="node3" class="node"><title>Node57</title>
<g id="a_node3"><a xlink:href="class_c_hash256.html#aa8a70c1b7cf24ce7d00240a1131cf4e7" target="_top" xlink:title="CHash256::Finalize">
<polygon fill="white" stroke="black" points="339,-90.5 339,-109.5 442,-109.5 442,-90.5 339,-90.5"/>
<text text-anchor="middle" x="390.5" y="-97.5" font-family="Helvetica,sans-Serif" font-size="10.00">CHash256::Finalize</text>
</a>
</g>
</g>
<!-- Node56&#45;&gt;Node57 -->
<g id="edge2" class="edge"><title>Node56&#45;&gt;Node57</title>
<path fill="none" stroke="midnightblue" d="M303.059,-94.6347C311.441,-95.155 320.081,-95.6912 328.509,-96.2143"/>
<polygon fill="midnightblue" stroke="midnightblue" points="328.453,-99.7175 338.651,-96.8438 328.887,-92.731 328.453,-99.7175"/>
</g>
<!-- Node58 -->
<g id="node4" class="node"><title>Node58</title>
<g id="a_node4"><a xlink:href="class_c_s_h_a256.html#a4259230be0caefa590bc324fc12b9b90" target="_top" xlink:title="CSHA256::Finalize">
<polygon fill="white" stroke="black" points="478,-109.5 478,-128.5 579,-128.5 579,-109.5 478,-109.5"/>
<text text-anchor="middle" x="528.5" y="-116.5" font-family="Helvetica,sans-Serif" font-size="10.00">CSHA256::Finalize</text>
</a>
</g>
</g>
<!-- Node57&#45;&gt;Node58 -->
<g id="edge3" class="edge"><title>Node57&#45;&gt;Node58</title>
<path fill="none" stroke="midnightblue" d="M442.141,-107.075C450.501,-108.243 459.235,-109.463 467.791,-110.658"/>
<polygon fill="midnightblue" stroke="midnightblue" points="467.333,-114.128 477.721,-112.046 468.302,-107.196 467.333,-114.128"/>
</g>
<!-- Node62 -->
<g id="node8" class="node"><title>Node62</title>
<g id="a_node8"><a xlink:href="class_c_s_h_a256.html#a9d7de520a562655da85349372820c883" target="_top" xlink:title="CSHA256::Write">
<polygon fill="white" stroke="black" points="615,-71.5 615,-90.5 705,-90.5 705,-71.5 615,-71.5"/>
<text text-anchor="middle" x="660" y="-78.5" font-family="Helvetica,sans-Serif" font-size="10.00">CSHA256::Write</text>
</a>
</g>
</g>
<!-- Node57&#45;&gt;Node62 -->
<g id="edge14" class="edge"><title>Node57&#45;&gt;Node62</title>
<path fill="none" stroke="midnightblue" d="M442.129,-96.4039C488.555,-93.1064 557.118,-88.2365 604.675,-84.8586"/>
<polygon fill="midnightblue" stroke="midnightblue" points="605.061,-88.3401 614.787,-84.1403 604.565,-81.3577 605.061,-88.3401"/>
</g>
<!-- Node68 -->
<g id="node14" class="node"><title>Node68</title>
<g id="a_node14"><a xlink:href="class_c_s_h_a256.html#a2122395dd5604990eaa0077b43a0e8d4" target="_top" xlink:title="CSHA256::Reset">
<polygon fill="white" stroke="black" points="482,-147.5 482,-166.5 575,-166.5 575,-147.5 482,-147.5"/>
<text text-anchor="middle" x="528.5" y="-154.5" font-family="Helvetica,sans-Serif" font-size="10.00">CSHA256::Reset</text>
</a>
</g>
</g>
<!-- Node57&#45;&gt;Node68 -->
<g id="edge13" class="edge"><title>Node57&#45;&gt;Node68</title>
<path fill="none" stroke="midnightblue" d="M412.708,-109.653C430.146,-117.508 455.549,-128.766 478,-138 482.6,-139.892 487.463,-141.832 492.273,-143.715"/>
<polygon fill="midnightblue" stroke="midnightblue" points="491.383,-147.123 501.972,-147.467 493.909,-140.594 491.383,-147.123"/>
</g>
<!-- Node59 -->
<g id="node5" class="node"><title>Node59</title>
<g id="a_node5"><a xlink:href="common_8h.html#ab960e95bf479af0a88a20800366b6131" target="_top" xlink:title="WriteBE64">
<polygon fill="white" stroke="black" points="628,-109.5 628,-128.5 692,-128.5 692,-109.5 628,-109.5"/>
<text text-anchor="middle" x="660" y="-116.5" font-family="Helvetica,sans-Serif" font-size="10.00">WriteBE64</text>
</a>
</g>
</g>
<!-- Node58&#45;&gt;Node59 -->
<g id="edge4" class="edge"><title>Node58&#45;&gt;Node59</title>
<path fill="none" stroke="midnightblue" d="M579.198,-119C591.886,-119 605.391,-119 617.613,-119"/>
<polygon fill="midnightblue" stroke="midnightblue" points="617.971,-122.5 627.971,-119 617.971,-115.5 617.971,-122.5"/>
</g>
<!-- Node58&#45;&gt;Node62 -->
<g id="edge7" class="edge"><title>Node58&#45;&gt;Node62</title>
<path fill="none" stroke="midnightblue" d="M562.178,-109.411C578.589,-104.596 598.676,-98.7012 616.292,-93.532"/>
<polygon fill="midnightblue" stroke="midnightblue" points="617.722,-96.7601 626.332,-90.5859 615.751,-90.0433 617.722,-96.7601"/>
</g>
<!-- Node65 -->
<g id="node11" class="node"><title>Node65</title>
<g id="a_node11"><a xlink:href="common_8h.html#aa3a53ff883fd14480eb603d00123a74a" target="_top" xlink:title="WriteBE32">
<polygon fill="white" stroke="black" points="628,-147.5 628,-166.5 692,-166.5 692,-147.5 628,-147.5"/>
<text text-anchor="middle" x="660" y="-154.5" font-family="Helvetica,sans-Serif" font-size="10.00">WriteBE32</text>
</a>
</g>
</g>
<!-- Node58&#45;&gt;Node65 -->
<g id="edge10" class="edge"><title>Node58&#45;&gt;Node65</title>
<path fill="none" stroke="midnightblue" d="M562.178,-128.589C579.121,-133.561 599.984,-139.683 618,-144.969"/>
<polygon fill="midnightblue" stroke="midnightblue" points="617.091,-148.35 627.672,-147.807 619.062,-141.633 617.091,-148.35"/>
</g>
<!-- Node60 -->
<g id="node6" class="node"><title>Node60</title>
<g id="a_node6"><a xlink:href="endian_8h.html#a55844e5fbe9a8ab3e9793335a16e2efc" target="_top" xlink:title="htobe64">
<polygon fill="white" stroke="black" points="742.5,-109.5 742.5,-128.5 793.5,-128.5 793.5,-109.5 742.5,-109.5"/>
<text text-anchor="middle" x="768" y="-116.5" font-family="Helvetica,sans-Serif" font-size="10.00">htobe64</text>
</a>
</g>
</g>
<!-- Node59&#45;&gt;Node60 -->
<g id="edge5" class="edge"><title>Node59&#45;&gt;Node60</title>
<path fill="none" stroke="midnightblue" d="M692.23,-119C704.73,-119 719.186,-119 732.035,-119"/>
<polygon fill="midnightblue" stroke="midnightblue" points="732.373,-122.5 742.373,-119 732.373,-115.5 732.373,-122.5"/>
</g>
<!-- Node61 -->
<g id="node7" class="node"><title>Node61</title>
<g id="a_node7"><a xlink:href="byteswap_8h.html#aaf6a6e8515061fb001505d3b9f6164e2" target="_top" xlink:title="bswap_64">
<polygon fill="white" stroke="black" points="831.5,-109.5 831.5,-128.5 892.5,-128.5 892.5,-109.5 831.5,-109.5"/>
<text text-anchor="middle" x="862" y="-116.5" font-family="Helvetica,sans-Serif" font-size="10.00">bswap_64</text>
</a>
</g>
</g>
<!-- Node60&#45;&gt;Node61 -->
<g id="edge6" class="edge"><title>Node60&#45;&gt;Node61</title>
<path fill="none" stroke="midnightblue" d="M793.654,-119C802.085,-119 811.744,-119 821.066,-119"/>
<polygon fill="midnightblue" stroke="midnightblue" points="821.362,-122.5 831.362,-119 821.362,-115.5 821.362,-122.5"/>
</g>
<!-- Node63 -->
<g id="node9" class="node"><title>Node63</title>
<g id="a_node9"><a xlink:href="glibc__compat_8cpp.html#a0f46826ab0466591e136db24394923cf" target="_top" xlink:title="memcpy">
<polygon fill="white" stroke="black" points="741,-71.5 741,-90.5 795,-90.5 795,-71.5 741,-71.5"/>
<text text-anchor="middle" x="768" y="-78.5" font-family="Helvetica,sans-Serif" font-size="10.00">memcpy</text>
</a>
</g>
</g>
<!-- Node62&#45;&gt;Node63 -->
<g id="edge8" class="edge"><title>Node62&#45;&gt;Node63</title>
<path fill="none" stroke="midnightblue" d="M705.033,-81C713.592,-81 722.472,-81 730.745,-81"/>
<polygon fill="midnightblue" stroke="midnightblue" points="730.831,-84.5001 740.831,-81 730.831,-77.5001 730.831,-84.5001"/>
</g>
<!-- Node64 -->
<g id="node10" class="node"><title>Node64</title>
<g id="a_node10"><a xlink:href="glibc__compat_8cpp.html#a9778d49e9029dd75bc53ecbbf9f5e9a1" target="_top" xlink:title="memmove">
<polygon fill="white" stroke="black" points="831,-71.5 831,-90.5 893,-90.5 893,-71.5 831,-71.5"/>
<text text-anchor="middle" x="862" y="-78.5" font-family="Helvetica,sans-Serif" font-size="10.00">memmove</text>
</a>
</g>
</g>
<!-- Node63&#45;&gt;Node64 -->
<g id="edge9" class="edge"><title>Node63&#45;&gt;Node64</title>
<path fill="none" stroke="midnightblue" d="M795.117,-81C803.136,-81 812.152,-81 820.881,-81"/>
<polygon fill="midnightblue" stroke="midnightblue" points="820.92,-84.5001 830.92,-81 820.919,-77.5001 820.92,-84.5001"/>
</g>
<!-- Node66 -->
<g id="node12" class="node"><title>Node66</title>
<g id="a_node12"><a xlink:href="endian_8h.html#a3ca91566984b6dca7a0f6fc2694a203c" target="_top" xlink:title="htobe32">
<polygon fill="white" stroke="black" points="742.5,-147.5 742.5,-166.5 793.5,-166.5 793.5,-147.5 742.5,-147.5"/>
<text text-anchor="middle" x="768" y="-154.5" font-family="Helvetica,sans-Serif" font-size="10.00">htobe32</text>
</a>
</g>
</g>
<!-- Node65&#45;&gt;Node66 -->
<g id="edge11" class="edge"><title>Node65&#45;&gt;Node66</title>
<path fill="none" stroke="midnightblue" d="M692.23,-157C704.73,-157 719.186,-157 732.035,-157"/>
<polygon fill="midnightblue" stroke="midnightblue" points="732.373,-160.5 742.373,-157 732.373,-153.5 732.373,-160.5"/>
</g>
<!-- Node67 -->
<g id="node13" class="node"><title>Node67</title>
<g id="a_node13"><a xlink:href="byteswap_8h.html#acdd5094f58e4c6e2b0176654b7f20e1c" target="_top" xlink:title="bswap_32">
<polygon fill="white" stroke="black" points="831.5,-147.5 831.5,-166.5 892.5,-166.5 892.5,-147.5 831.5,-147.5"/>
<text text-anchor="middle" x="862" y="-154.5" font-family="Helvetica,sans-Serif" font-size="10.00">bswap_32</text>
</a>
</g>
</g>
<!-- Node66&#45;&gt;Node67 -->
<g id="edge12" class="edge"><title>Node66&#45;&gt;Node67</title>
<path fill="none" stroke="midnightblue" d="M793.654,-157C802.085,-157 811.744,-157 821.066,-157"/>
<polygon fill="midnightblue" stroke="midnightblue" points="821.362,-160.5 831.362,-157 821.362,-153.5 821.362,-160.5"/>
</g>
<!-- Node70 -->
<g id="node16" class="node"><title>Node70</title>
<g id="a_node16"><a xlink:href="classbase__blob.html#aeee68e00ceeacf49086e98b661e017ff" target="_top" xlink:title="base_blob::begin">
<polygon fill="white" stroke="black" points="345.5,-0.5 345.5,-19.5 435.5,-19.5 435.5,-0.5 345.5,-0.5"/>
<text text-anchor="middle" x="390.5" y="-7.5" font-family="Helvetica,sans-Serif" font-size="10.00">base_blob::begin</text>
</a>
</g>
</g>
<!-- Node69&#45;&gt;Node70 -->
<g id="edge16" class="edge"><title>Node69&#45;&gt;Node70</title>
<path fill="none" stroke="midnightblue" d="M281.09,-38.411C299.965,-33.4642 323.186,-27.3789 343.288,-22.1108"/>
<polygon fill="midnightblue" stroke="midnightblue" points="344.387,-25.4409 353.173,-19.5201 342.613,-18.6695 344.387,-25.4409"/>
</g>
<!-- Node71 -->
<g id="node17" class="node"><title>Node71</title>
<g id="a_node17"><a xlink:href="common_8h.html#a95b035f2729461d80d2f09d776ea07d2" target="_top" xlink:title="ReadLE32">
<polygon fill="white" stroke="black" points="359.5,-38.5 359.5,-57.5 421.5,-57.5 421.5,-38.5 359.5,-38.5"/>
<text text-anchor="middle" x="390.5" y="-45.5" font-family="Helvetica,sans-Serif" font-size="10.00">ReadLE32</text>
</a>
</g>
</g>
<!-- Node69&#45;&gt;Node71 -->
<g id="edge17" class="edge"><title>Node69&#45;&gt;Node71</title>
<path fill="none" stroke="midnightblue" d="M284.506,-48C304.636,-48 328.98,-48 349.157,-48"/>
<polygon fill="midnightblue" stroke="midnightblue" points="349.284,-51.5001 359.284,-48 349.284,-44.5001 349.284,-51.5001"/>
</g>
<!-- Node72 -->
<g id="node18" class="node"><title>Node72</title>
<g id="a_node18"><a xlink:href="endian_8h.html#a3b4e83868bbf53b2572b736fc146a319" target="_top" xlink:title="le32toh">
<polygon fill="white" stroke="black" points="504.5,-33.5 504.5,-52.5 552.5,-52.5 552.5,-33.5 504.5,-33.5"/>
<text text-anchor="middle" x="528.5" y="-40.5" font-family="Helvetica,sans-Serif" font-size="10.00">le32toh</text>
</a>
</g>
</g>
<!-- Node71&#45;&gt;Node72 -->
<g id="edge18" class="edge"><title>Node71&#45;&gt;Node72</title>
<path fill="none" stroke="midnightblue" d="M421.683,-46.8903C443.069,-46.1041 471.771,-45.0488 493.888,-44.2358"/>
<polygon fill="midnightblue" stroke="midnightblue" points="494.29,-47.7234 504.155,-43.8583 494.033,-40.7281 494.29,-47.7234"/>
</g>
</g>
</svg>
        <g id="navigator" transform="translate(0 0)" fill="#404254">
                <rect fill="#f2f5e9" fill-opacity="0.5" stroke="#606060" stroke-width=".5" x="0" y="0" width="60" height="60"/>
                <use id="zoomplus" xlink:href="#zoomPlus" x="17" y="9" onmousedown="handleZoom(evt,'in')"/>
                <use id="zoomminus" xlink:href="#zoomMin" x="42" y="9" onmousedown="handleZoom(evt,'out')"/>
                <use id="reset" xlink:href="#resetDef" x="30" y="36" onmousedown="handleReset()"/>
                <g id="arrowUp" xlink:href="#dirArrow" transform="translate(30 24)" onmousedown="handlePan(0,-1)">
                  <use xlink:href="#rim" fill="#404040">
                        <set attributeName="fill" to="#808080" begin="arrowUp.mouseover" end="arrowUp.mouseout"/>
                  </use>
                  <path fill="none" stroke="white" stroke-width="1.5" d="M0,-3.0v7 M-2.5,-0.5L0,-3.0L2.5,-0.5"/>
                </g>
                <g id="arrowRight" xlink:href="#dirArrow" transform="rotate(90) translate(36 -43)" onmousedown="handlePan(1,0)">
                  <use xlink:href="#rim" fill="#404040">
                        <set attributeName="fill" to="#808080" begin="arrowRight.mouseover" end="arrowRight.mouseout"/>
                  </use>
                  <path fill="none" stroke="white" stroke-width="1.5" d="M0,-3.0v7 M-2.5,-0.5L0,-3.0L2.5,-0.5"/>
                </g>
                <g id="arrowDown" xlink:href="#dirArrow" transform="rotate(180) translate(-30 -48)" onmousedown="handlePan(0,1)">
                  <use xlink:href="#rim" fill="#404040">
                        <set attributeName="fill" to="#808080" begin="arrowDown.mouseover" end="arrowDown.mouseout"/>
                  </use>
                  <path fill="none" stroke="white" stroke-width="1.5" d="M0,-3.0v7 M-2.5,-0.5L0,-3.0L2.5,-0.5"/>
                </g>
                <g id="arrowLeft" xlink:href="#dirArrow" transform="rotate(270) translate(-36 17)" onmousedown="handlePan(-1,0)">
                  <use xlink:href="#rim" fill="#404040">
                        <set attributeName="fill" to="#808080" begin="arrowLeft.mouseover" end="arrowLeft.mouseout"/>
                  </use>
                  <path fill="none" stroke="white" stroke-width="1.5" d="M0,-3.0v7 M-2.5,-0.5L0,-3.0L2.5,-0.5"/>
                </g>
        </g>
        <svg viewBox="0 0 15 15" width="100%" height="30px" preserveAspectRatio="xMaxYMin meet">
         <g id="arrow_out" transform="scale(0.3 0.3)">
          <a xlink:href="class_c_masternode_abfee4bc30fa436d9a5f8b5f15a078081_cgraph_org.svg" target="_base">
           <rect id="button" ry="5" rx="5" y="6" x="6" height="38" width="38"
                fill="#f2f5e9" fill-opacity="0.5" stroke="#606060" stroke-width="1.0"/>
           <path id="arrow"
             d="M 11.500037,31.436501 C 11.940474,20.09759 22.043105,11.32322 32.158766,21.979434 L 37.068811,17.246167 C 37.068811,17.246167 37.088388,32 37.088388,32 L 22.160133,31.978069 C 22.160133,31.978069 26.997745,27.140456 26.997745,27.140456 C 18.528582,18.264221 13.291696,25.230495 11.500037,31.436501 z"
             style="fill:#404040;"/>
          </a>
         </g>
        </svg>
</svg>
