<?xml version="1.0" encoding="UTF-8" standalone="no"?>
<!DOCTYPE svg PUBLIC "-//W3C//DTD SVG 1.1//EN"
 "http://www.w3.org/Graphics/SVG/1.1/DTD/svg11.dtd">
<!-- Generated by graphviz version 2.38.0 (20140413.2041)
 -->
<!-- Title: CNetMessage::readHeader Pages: 1 -->
<svg width="646pt" height="28pt"
 viewBox="0.00 0.00 646.00 28.00" xmlns="http://www.w3.org/2000/svg" xmlns:xlink="http://www.w3.org/1999/xlink">
<g id="graph0" class="graph" transform="scale(1 1) rotate(0) translate(4 24)">
<title>CNetMessage::readHeader</title>
<polygon fill="white" stroke="none" points="-4,4 -4,-24 642,-24 642,4 -4,4"/>
<!-- Node20 -->
<g id="node1" class="node"><title>Node20</title>
<polygon fill="#bfbfbf" stroke="black" points="0,-0.5 0,-19.5 136,-19.5 136,-0.5 0,-0.5"/>
<text text-anchor="middle" x="68" y="-7.5" font-family="Helvetica,sans-Serif" font-size="10.00">CNetMessage::readHeader</text>
</g>
<!-- Node21 -->
<g id="node2" class="node"><title>Node21</title>
<g id="a_node2"><a xlink:href="class_c_node.html#a7f39c9fe6b7975531cb9963846aed3e7" target="_top" xlink:title="CNode::ReceiveMsgBytes">
<polygon fill="white" stroke="black" points="172,-0.5 172,-19.5 306,-19.5 306,-0.5 172,-0.5"/>
<text text-anchor="middle" x="239" y="-7.5" font-family="Helvetica,sans-Serif" font-size="10.00">CNode::ReceiveMsgBytes</text>
</a>
</g>
</g>
<!-- Node20&#45;&gt;Node21 -->
<g id="edge1" class="edge"><title>Node20&#45;&gt;Node21</title>
<path fill="none" stroke="midnightblue" d="M146.509,-10C154.952,-10 163.489,-10 171.78,-10"/>
<polygon fill="midnightblue" stroke="midnightblue" points="146.279,-6.5001 136.279,-10 146.279,-13.5001 146.279,-6.5001"/>
</g>
<!-- Node22 -->
<g id="node3" class="node"><title>Node22</title>
<g id="a_node3"><a xlink:href="class_c_connman.html#a765597cbfe99c083d8fa3d61bb464e34" target="_top" xlink:title="CConnman::ThreadSocketHandler">
<polygon fill="white" stroke="black" points="342,-0.5 342,-19.5 509,-19.5 509,-0.5 342,-0.5"/>
<text text-anchor="middle" x="425.5" y="-7.5" font-family="Helvetica,sans-Serif" font-size="10.00">CConnman::ThreadSocketHandler</text>
</a>
</g>
</g>
<!-- Node21&#45;&gt;Node22 -->
<g id="edge2" class="edge"><title>Node21&#45;&gt;Node22</title>
<path fill="none" stroke="midnightblue" d="M316.261,-10C324.692,-10 333.307,-10 341.812,-10"/>
<polygon fill="midnightblue" stroke="midnightblue" points="316.088,-6.5001 306.088,-10 316.088,-13.5001 316.088,-6.5001"/>
</g>
<!-- Node23 -->
<g id="node4" class="node"><title>Node23</title>
<g id="a_node4"><a xlink:href="class_c_connman.html#a80caf4db74fcf515068f169e085ff84e" target="_top" xlink:title="CConnman::Start">
<polygon fill="white" stroke="black" points="545,-0.5 545,-19.5 638,-19.5 638,-0.5 545,-0.5"/>
<text text-anchor="middle" x="591.5" y="-7.5" font-family="Helvetica,sans-Serif" font-size="10.00">CConnman::Start</text>
</a>
</g>
</g>
<!-- Node22&#45;&gt;Node23 -->
<g id="edge3" class="edge"><title>Node22&#45;&gt;Node23</title>
<path fill="none" stroke="midnightblue" d="M519.469,-10C528.288,-10 536.934,-10 544.99,-10"/>
<polygon fill="midnightblue" stroke="midnightblue" points="519.461,-6.5001 509.461,-10 519.461,-13.5001 519.461,-6.5001"/>
</g>
</g>
</svg>
