<?xml version="1.0" encoding="UTF-8" standalone="no"?>
<!DOCTYPE svg PUBLIC "-//W3C//DTD SVG 1.1//EN"
 "http://www.w3.org/Graphics/SVG/1.1/DTD/svg11.dtd">
<!-- Generated by graphviz version 2.38.0 (20140413.2041)
 -->
<!-- Title: CGovernanceManager::ToString Pages: 1 -->
<!--zoomable 364 -->
<svg id="main" version="1.1" xmlns="http://www.w3.org/2000/svg" xmlns:xlink="http://www.w3.org/1999/xlink" xml:space="preserve" onload="init(evt)">
<style type="text/css"><![CDATA[
.edge:hover path { stroke: red; }
.edge:hover polygon { stroke: red; fill: red; }
]]></style>
<script type="text/javascript"><![CDATA[
var edges = document.getElementsByTagName('g');
if (edges && edges.length) {
  for (var i=0;i<edges.length;i++) {
    if (edges[i].id.substr(0,4)=='edge') {
      edges[i].setAttribute('class','edge');
    }
  }
}
]]></script>
        <defs>
                <circle id="rim" cx="0" cy="0" r="7"/>
                <circle id="rim2" cx="0" cy="0" r="3.5"/>
                <g id="zoomPlus">
                        <use xlink:href="#rim" fill="#404040">
                                <set attributeName="fill" to="#808080" begin="zoomplus.mouseover" end="zoomplus.mouseout"/>
                        </use>
                        <path d="M-4,0h8M0,-4v8" fill="none" stroke="white" stroke-width="1.5" pointer-events="none"/>
                </g>
                <g id="zoomMin">
                        <use xlink:href="#rim" fill="#404040">
                                <set attributeName="fill" to="#808080" begin="zoomminus.mouseover" end="zoomminus.mouseout"/>
                        </use>
                        <path d="M-4,0h8" fill="none" stroke="white" stroke-width="1.5" pointer-events="none"/>
                </g>
                <g id="dirArrow">
                        <path fill="none" stroke="white" stroke-width="1.5" d="M0,-3.0v7 M-2.5,-0.5L0,-3.0L2.5,-0.5"/>
                </g>
               <g id="resetDef">
                       <use xlink:href="#rim2" fill="#404040">
                               <set attributeName="fill" to="#808080" begin="reset.mouseover" end="reset.mouseout"/>
                       </use>
               </g>
        </defs>

<script type="text/javascript">
var viewWidth = 2084;
var viewHeight = 364;
var sectionId = 'dynsection-72';
</script>
<script xlink:href="svgpan.js"/>
<svg id="graph" class="graph">
<g id="viewport">
<title>CGovernanceManager::ToString</title>
<polygon fill="white" stroke="none" points="-4,4 -4,-360 2080,-360 2080,4 -4,4"/>
<!-- Node2224 -->
<g id="node1" class="node"><title>Node2224</title>
<polygon fill="#bfbfbf" stroke="black" points="0,-233.5 0,-263.5 114,-263.5 114,-233.5 0,-233.5"/>
<text text-anchor="start" x="8" y="-251.5" font-family="Helvetica,sans-Serif" font-size="10.00">CGovernanceManager</text>
<text text-anchor="middle" x="57" y="-240.5" font-family="Helvetica,sans-Serif" font-size="10.00">::ToString</text>
</g>
<!-- Node2225 -->
<g id="node2" class="node"><title>Node2225</title>
<g id="a_node2"><a xlink:href="server_8h.html#a0fa637689f8c63fc6adebeb9458430db" target="_top" xlink:title="gobject">
<polygon fill="white" stroke="black" points="533.5,-261 533.5,-280 581.5,-280 581.5,-261 533.5,-261"/>
<text text-anchor="middle" x="557.5" y="-268" font-family="Helvetica,sans-Serif" font-size="10.00">gobject</text>
</a>
</g>
</g>
<!-- Node2224&#45;&gt;Node2225 -->
<g id="edge1" class="edge"><title>Node2224&#45;&gt;Node2225</title>
<path fill="none" stroke="midnightblue" d="M124.454,-251.433C237.328,-256.414 461.294,-266.298 533.492,-269.485"/>
<polygon fill="midnightblue" stroke="midnightblue" points="124.36,-247.925 114.215,-250.981 124.051,-254.918 124.36,-247.925"/>
</g>
<!-- Node2226 -->
<g id="node3" class="node"><title>Node2226</title>
<g id="a_node3"><a xlink:href="class_c_governance_manager.html#acc033e676d06f9411a0c8d47219de0c8" target="_top" xlink:title="CGovernanceManager\l::InitOnLoad">
<polygon fill="white" stroke="black" points="320.5,-325.5 320.5,-355.5 434.5,-355.5 434.5,-325.5 320.5,-325.5"/>
<text text-anchor="start" x="328.5" y="-343.5" font-family="Helvetica,sans-Serif" font-size="10.00">CGovernanceManager</text>
<text text-anchor="middle" x="377.5" y="-332.5" font-family="Helvetica,sans-Serif" font-size="10.00">::InitOnLoad</text>
</a>
</g>
</g>
<!-- Node2224&#45;&gt;Node2226 -->
<g id="edge2" class="edge"><title>Node2224&#45;&gt;Node2226</title>
<path fill="none" stroke="midnightblue" d="M102.896,-267.422C117.744,-273.315 134.446,-279.557 150,-284.5 207.135,-302.656 273.91,-318.536 320.083,-328.703"/>
<polygon fill="midnightblue" stroke="midnightblue" points="104.021,-264.102 93.4373,-263.618 101.409,-270.597 104.021,-264.102"/>
</g>
<!-- Node2231 -->
<g id="node8" class="node"><title>Node2231</title>
<g id="a_node8"><a xlink:href="class_c_governance_manager.html#a224574b8ed01bd82aab435d672a7be83" target="_top" xlink:title="CGovernanceManager\l::UpdateCachesAndClean">
<polygon fill="white" stroke="black" points="492,-113.5 492,-143.5 623,-143.5 623,-113.5 492,-113.5"/>
<text text-anchor="start" x="500" y="-131.5" font-family="Helvetica,sans-Serif" font-size="10.00">CGovernanceManager</text>
<text text-anchor="middle" x="557.5" y="-120.5" font-family="Helvetica,sans-Serif" font-size="10.00">::UpdateCachesAndClean</text>
</a>
</g>
</g>
<!-- Node2224&#45;&gt;Node2231 -->
<g id="edge7" class="edge"><title>Node2224&#45;&gt;Node2231</title>
<path fill="none" stroke="midnightblue" d="M91.479,-228.374C108.483,-218.944 129.779,-208.313 150,-201.5 266.871,-162.121 410.197,-142.704 491.672,-134.202"/>
<polygon fill="midnightblue" stroke="midnightblue" points="89.483,-225.482 82.5077,-233.456 92.9336,-231.572 89.483,-225.482"/>
</g>
<!-- Node2254 -->
<g id="node31" class="node"><title>Node2254</title>
<g id="a_node31"><a xlink:href="class_c_governance_manager.html#a86138b11fecbfc562b899a42ba89d19a" target="_top" xlink:title="CGovernanceManager\l::UpdateCurrentWatchdog">
<polygon fill="white" stroke="black" points="150,-211.5 150,-241.5 281,-241.5 281,-211.5 150,-211.5"/>
<text text-anchor="start" x="158" y="-229.5" font-family="Helvetica,sans-Serif" font-size="10.00">CGovernanceManager</text>
<text text-anchor="middle" x="215.5" y="-218.5" font-family="Helvetica,sans-Serif" font-size="10.00">::UpdateCurrentWatchdog</text>
</a>
</g>
</g>
<!-- Node2224&#45;&gt;Node2254 -->
<g id="edge34" class="edge"><title>Node2224&#45;&gt;Node2254</title>
<path fill="none" stroke="midnightblue" d="M123.969,-239.226C132.511,-238.026 141.254,-236.797 149.776,-235.599"/>
<polygon fill="midnightblue" stroke="midnightblue" points="123.473,-235.762 114.058,-240.62 124.448,-242.693 123.473,-235.762"/>
</g>
<!-- Node2227 -->
<g id="node4" class="node"><title>Node2227</title>
<g id="a_node4"><a xlink:href="init_8h.html#a6f0784aa332573f949b0975205572b28" target="_top" xlink:title="Initialize Dash Core. ">
<polygon fill="white" stroke="black" points="1631.5,-176 1631.5,-195 1684.5,-195 1684.5,-176 1631.5,-176"/>
<text text-anchor="middle" x="1658" y="-183" font-family="Helvetica,sans-Serif" font-size="10.00">AppInit2</text>
</a>
</g>
</g>
<!-- Node2226&#45;&gt;Node2227 -->
<g id="edge3" class="edge"><title>Node2226&#45;&gt;Node2227</title>
<path fill="none" stroke="midnightblue" d="M444.754,-344.364C521.622,-348.508 652.191,-354.5 764.5,-354.5 764.5,-354.5 764.5,-354.5 1345,-354.5 1479.91,-354.5 1612.33,-230.821 1647.79,-195.07"/>
<polygon fill="midnightblue" stroke="midnightblue" points="444.907,-340.867 434.731,-343.818 444.526,-347.857 444.907,-340.867"/>
</g>
<!-- Node2228 -->
<g id="node5" class="node"><title>Node2228</title>
<g id="a_node5"><a xlink:href="dashd_8cpp.html#ac59316b767e6984e1285f0531275286b" target="_top" xlink:title="AppInit">
<polygon fill="white" stroke="black" points="1920.5,-176 1920.5,-195 1967.5,-195 1967.5,-176 1920.5,-176"/>
<text text-anchor="middle" x="1944" y="-183" font-family="Helvetica,sans-Serif" font-size="10.00">AppInit</text>
</a>
</g>
</g>
<!-- Node2227&#45;&gt;Node2228 -->
<g id="edge4" class="edge"><title>Node2227&#45;&gt;Node2228</title>
<path fill="none" stroke="midnightblue" d="M1694.73,-185.5C1754.03,-185.5 1871.11,-185.5 1920.35,-185.5"/>
<polygon fill="midnightblue" stroke="midnightblue" points="1694.7,-182 1684.7,-185.5 1694.7,-189 1694.7,-182"/>
</g>
<!-- Node2230 -->
<g id="node7" class="node"><title>Node2230</title>
<g id="a_node7"><a xlink:href="class_bitcoin_core.html#af34ca069cda1d4362dcc109b4397fb62" target="_top" xlink:title="BitcoinCore::initialize">
<polygon fill="white" stroke="black" points="1741,-157 1741,-176 1850,-176 1850,-157 1741,-157"/>
<text text-anchor="middle" x="1795.5" y="-164" font-family="Helvetica,sans-Serif" font-size="10.00">BitcoinCore::initialize</text>
</a>
</g>
</g>
<!-- Node2227&#45;&gt;Node2230 -->
<g id="edge6" class="edge"><title>Node2227&#45;&gt;Node2230</title>
<path fill="none" stroke="midnightblue" d="M1695.01,-180.45C1709.03,-178.485 1725.38,-176.192 1740.74,-174.039"/>
<polygon fill="midnightblue" stroke="midnightblue" points="1694.22,-177.027 1684.81,-181.882 1695.19,-183.959 1694.22,-177.027"/>
</g>
<!-- Node2229 -->
<g id="node6" class="node"><title>Node2229</title>
<g id="a_node6"><a xlink:href="dashd_8cpp.html#a0ddf1224851353fc92bfbff6f499fa97" target="_top" xlink:title="main">
<polygon fill="white" stroke="black" points="2038,-176 2038,-195 2076,-195 2076,-176 2038,-176"/>
<text text-anchor="middle" x="2057" y="-183" font-family="Helvetica,sans-Serif" font-size="10.00">main</text>
</a>
</g>
</g>
<!-- Node2228&#45;&gt;Node2229 -->
<g id="edge5" class="edge"><title>Node2228&#45;&gt;Node2229</title>
<path fill="none" stroke="midnightblue" d="M1977.77,-185.5C1997.33,-185.5 2021.46,-185.5 2037.7,-185.5"/>
<polygon fill="midnightblue" stroke="midnightblue" points="1977.73,-182 1967.73,-185.5 1977.73,-189 1977.73,-182"/>
</g>
<!-- Node2232 -->
<g id="node9" class="node"><title>Node2232</title>
<g id="a_node9"><a xlink:href="class_c_governance_manager.html#a23de4bbbdff3df077cbc3ea2c1c415d2" target="_top" xlink:title="CGovernanceManager\l::DoMaintenance">
<polygon fill="white" stroke="black" points="708.5,-113.5 708.5,-143.5 822.5,-143.5 822.5,-113.5 708.5,-113.5"/>
<text text-anchor="start" x="716.5" y="-131.5" font-family="Helvetica,sans-Serif" font-size="10.00">CGovernanceManager</text>
<text text-anchor="middle" x="765.5" y="-120.5" font-family="Helvetica,sans-Serif" font-size="10.00">::DoMaintenance</text>
</a>
</g>
</g>
<!-- Node2231&#45;&gt;Node2232 -->
<g id="edge8" class="edge"><title>Node2231&#45;&gt;Node2232</title>
<path fill="none" stroke="midnightblue" d="M633.228,-128.5C658.065,-128.5 685.278,-128.5 708.456,-128.5"/>
<polygon fill="midnightblue" stroke="midnightblue" points="633.115,-125 623.114,-128.5 633.114,-132 633.115,-125"/>
</g>
<!-- Node2234 -->
<g id="node11" class="node"><title>Node2234</title>
<g id="a_node11"><a xlink:href="class_c_governance_manager.html#a05ac7c9debda08aa30c7e4fccc81d5e8" target="_top" xlink:title="CGovernanceManager\l::CheckAndRemove">
<polygon fill="white" stroke="black" points="708.5,-64.5 708.5,-94.5 822.5,-94.5 822.5,-64.5 708.5,-64.5"/>
<text text-anchor="start" x="716.5" y="-82.5" font-family="Helvetica,sans-Serif" font-size="10.00">CGovernanceManager</text>
<text text-anchor="middle" x="765.5" y="-71.5" font-family="Helvetica,sans-Serif" font-size="10.00">::CheckAndRemove</text>
</a>
</g>
</g>
<!-- Node2231&#45;&gt;Node2234 -->
<g id="edge11" class="edge"><title>Node2231&#45;&gt;Node2234</title>
<path fill="none" stroke="midnightblue" d="M631.607,-111.11C656.856,-105.105 684.729,-98.4747 708.4,-92.8442"/>
<polygon fill="midnightblue" stroke="midnightblue" points="630.625,-107.746 621.707,-113.465 632.245,-114.556 630.625,-107.746"/>
</g>
<!-- Node2235 -->
<g id="node12" class="node"><title>Node2235</title>
<g id="a_node12"><a xlink:href="class_c_masternode_man.html#a5e27707730f73d111df8bc0fcd819b68" target="_top" xlink:title="Called to notify CGovernanceManager that the masternode index has been updated. ">
<polygon fill="white" stroke="black" points="677,-162.5 677,-192.5 854,-192.5 854,-162.5 677,-162.5"/>
<text text-anchor="start" x="685" y="-180.5" font-family="Helvetica,sans-Serif" font-size="10.00">CMasternodeMan::NotifyMasternode</text>
<text text-anchor="middle" x="765.5" y="-169.5" font-family="Helvetica,sans-Serif" font-size="10.00">Updates</text>
</a>
</g>
</g>
<!-- Node2231&#45;&gt;Node2235 -->
<g id="edge12" class="edge"><title>Node2231&#45;&gt;Node2235</title>
<path fill="none" stroke="midnightblue" d="M631.667,-145.904C654.455,-151.324 679.376,-157.252 701.413,-162.494"/>
<polygon fill="midnightblue" stroke="midnightblue" points="632.245,-142.444 621.707,-143.535 630.625,-149.254 632.245,-142.444"/>
</g>
<!-- Node2233 -->
<g id="node10" class="node"><title>Node2233</title>
<g id="a_node10"><a xlink:href="privatesend_8h.html#a8ca12ada145ba86ddcba18018b77db14" target="_top" xlink:title="ThreadCheckPrivateSend">
<polygon fill="white" stroke="black" points="1102,-100 1102,-119 1230,-119 1230,-100 1102,-100"/>
<text text-anchor="middle" x="1166" y="-107" font-family="Helvetica,sans-Serif" font-size="10.00">ThreadCheckPrivateSend</text>
</a>
</g>
</g>
<!-- Node2232&#45;&gt;Node2233 -->
<g id="edge9" class="edge"><title>Node2232&#45;&gt;Node2233</title>
<path fill="none" stroke="midnightblue" d="M832.022,-114.771C839.768,-111.726 847.292,-108.016 854,-103.5 875.536,-89.0019 866.662,-68.871 890,-57.5 960.32,-23.2385 993.099,-29.1426 1066,-57.5 1086.23,-65.3686 1083.14,-79.7636 1102,-90.5 1108.65,-94.2861 1116.14,-97.3919 1123.56,-99.914"/>
<polygon fill="midnightblue" stroke="midnightblue" points="830.748,-111.51 822.505,-118.165 833.1,-118.103 830.748,-111.51"/>
</g>
<!-- Node2233&#45;&gt;Node2227 -->
<g id="edge10" class="edge"><title>Node2233&#45;&gt;Node2227</title>
<path fill="none" stroke="midnightblue" d="M1218.71,-121.226C1276.7,-134 1373.65,-154.243 1458,-166.5 1519.99,-175.509 1593.5,-181.259 1631.46,-183.868"/>
<polygon fill="midnightblue" stroke="midnightblue" points="1219.22,-117.754 1208.7,-119.01 1217.71,-124.589 1219.22,-117.754"/>
</g>
<!-- Node2236 -->
<g id="node13" class="node"><title>Node2236</title>
<g id="a_node13"><a xlink:href="server_8h.html#adc51a168fd3ea207996ae4f8d9d6c6ea" target="_top" xlink:title="masternode">
<polygon fill="white" stroke="black" points="944,-269 944,-288 1012,-288 1012,-269 944,-269"/>
<text text-anchor="middle" x="978" y="-276" font-family="Helvetica,sans-Serif" font-size="10.00">masternode</text>
</a>
</g>
</g>
<!-- Node2235&#45;&gt;Node2236 -->
<g id="edge13" class="edge"><title>Node2235&#45;&gt;Node2236</title>
<path fill="none" stroke="midnightblue" d="M796.725,-198.417C829.977,-221.292 880.047,-255.285 890,-259.5 907.084,-266.734 927.267,-271.361 943.891,-274.236"/>
<polygon fill="midnightblue" stroke="midnightblue" points="798.475,-195.373 788.255,-192.581 794.503,-201.137 798.475,-195.373"/>
</g>
<!-- Node2237 -->
<g id="node14" class="node"><title>Node2237</title>
<g id="a_node14"><a xlink:href="server_8h.html#a7ae813efd78b542bd5e3cddb01174777" target="_top" xlink:title="masternodebroadcast">
<polygon fill="white" stroke="black" points="923,-231 923,-250 1033,-250 1033,-231 923,-231"/>
<text text-anchor="middle" x="978" y="-238" font-family="Helvetica,sans-Serif" font-size="10.00">masternodebroadcast</text>
</a>
</g>
</g>
<!-- Node2235&#45;&gt;Node2237 -->
<g id="edge14" class="edge"><title>Node2235&#45;&gt;Node2237</title>
<path fill="none" stroke="midnightblue" d="M814.169,-196.083C836.908,-204.534 864.629,-214.242 890,-221.5 902.188,-224.987 915.495,-228.189 927.952,-230.932"/>
<polygon fill="midnightblue" stroke="midnightblue" points="815.343,-192.785 804.751,-192.549 812.884,-199.339 815.343,-192.785"/>
</g>
<!-- Node2238 -->
<g id="node15" class="node"><title>Node2238</title>
<g id="a_node15"><a xlink:href="class_c_masternode_man.html#a09302023fe1dca8be33e34d1ece9d27f" target="_top" xlink:title="Check all Masternodes and remove inactive. ">
<polygon fill="white" stroke="black" points="905,-105.5 905,-135.5 1051,-135.5 1051,-105.5 905,-105.5"/>
<text text-anchor="start" x="913" y="-123.5" font-family="Helvetica,sans-Serif" font-size="10.00">CMasternodeMan::CheckAnd</text>
<text text-anchor="middle" x="978" y="-112.5" font-family="Helvetica,sans-Serif" font-size="10.00">Remove</text>
</a>
</g>
</g>
<!-- Node2235&#45;&gt;Node2238 -->
<g id="edge15" class="edge"><title>Node2235&#45;&gt;Node2238</title>
<path fill="none" stroke="midnightblue" d="M832.021,-159.758C860.713,-151.989 894.022,-142.969 921.472,-135.536"/>
<polygon fill="midnightblue" stroke="midnightblue" points="830.819,-156.457 822.082,-162.449 832.649,-163.214 830.819,-156.457"/>
</g>
<!-- Node2239 -->
<g id="node16" class="node"><title>Node2239</title>
<g id="a_node16"><a xlink:href="class_c_masternode_man.html#ae8534b13438b5a2166854a6d35d99bac" target="_top" xlink:title="CMasternodeMan::ProcessMessage">
<polygon fill="white" stroke="black" points="890,-67 890,-86 1066,-86 1066,-67 890,-67"/>
<text text-anchor="middle" x="978" y="-74" font-family="Helvetica,sans-Serif" font-size="10.00">CMasternodeMan::ProcessMessage</text>
</a>
</g>
</g>
<!-- Node2235&#45;&gt;Node2239 -->
<g id="edge17" class="edge"><title>Node2235&#45;&gt;Node2239</title>
<path fill="none" stroke="midnightblue" d="M846.092,-157.729C848.841,-156.121 851.489,-154.381 854,-152.5 877.981,-134.537 865.462,-112.695 890,-95.5 895.444,-91.6849 901.514,-88.6153 907.846,-86.1485"/>
<polygon fill="midnightblue" stroke="midnightblue" points="844.282,-154.725 837.016,-162.436 847.504,-160.94 844.282,-154.725"/>
</g>
<!-- Node2248 -->
<g id="node25" class="node"><title>Node2248</title>
<g id="a_node25"><a xlink:href="class_masternode_list.html#ab3a42d1c66f3b28e9843335d8ce0178d" target="_top" xlink:title="MasternodeList::StartAlias">
<polygon fill="white" stroke="black" points="912,-193 912,-212 1044,-212 1044,-193 912,-193"/>
<text text-anchor="middle" x="978" y="-200" font-family="Helvetica,sans-Serif" font-size="10.00">MasternodeList::StartAlias</text>
</a>
</g>
</g>
<!-- Node2235&#45;&gt;Node2248 -->
<g id="edge28" class="edge"><title>Node2235&#45;&gt;Node2248</title>
<path fill="none" stroke="midnightblue" d="M864.251,-189.109C880.39,-191.026 896.765,-192.971 911.849,-194.762"/>
<polygon fill="midnightblue" stroke="midnightblue" points="864.59,-185.625 854.247,-187.921 863.764,-192.576 864.59,-185.625"/>
</g>
<!-- Node2251 -->
<g id="node28" class="node"><title>Node2251</title>
<g id="a_node28"><a xlink:href="class_masternode_list.html#a0ebd5301adf7567e6a82550ba6d02ccc" target="_top" xlink:title="MasternodeList::StartAll">
<polygon fill="white" stroke="black" points="917,-155 917,-174 1039,-174 1039,-155 917,-155"/>
<text text-anchor="middle" x="978" y="-162" font-family="Helvetica,sans-Serif" font-size="10.00">MasternodeList::StartAll</text>
</a>
</g>
</g>
<!-- Node2235&#45;&gt;Node2251 -->
<g id="edge31" class="edge"><title>Node2235&#45;&gt;Node2251</title>
<path fill="none" stroke="midnightblue" d="M864.692,-171.436C882.512,-170.335 900.603,-169.218 916.91,-168.211"/>
<polygon fill="midnightblue" stroke="midnightblue" points="864.012,-167.971 854.247,-172.081 864.443,-174.958 864.012,-167.971"/>
</g>
<!-- Node2238&#45;&gt;Node2233 -->
<g id="edge16" class="edge"><title>Node2238&#45;&gt;Node2233</title>
<path fill="none" stroke="midnightblue" d="M1061.48,-115.622C1075.06,-114.819 1088.94,-113.998 1101.94,-113.229"/>
<polygon fill="midnightblue" stroke="midnightblue" points="1060.95,-112.147 1051.18,-116.231 1061.37,-119.135 1060.95,-112.147"/>
</g>
<!-- Node2240 -->
<g id="node17" class="node"><title>Node2240</title>
<g id="a_node17"><a xlink:href="net__processing_8cpp.html#a193d0ece6e2f2f7ee37352ac9720bb83" target="_top" xlink:title="ProcessMessage">
<polygon fill="white" stroke="black" points="1120,-62 1120,-81 1212,-81 1212,-62 1120,-62"/>
<text text-anchor="middle" x="1166" y="-69" font-family="Helvetica,sans-Serif" font-size="10.00">ProcessMessage</text>
</a>
</g>
</g>
<!-- Node2239&#45;&gt;Node2240 -->
<g id="edge18" class="edge"><title>Node2239&#45;&gt;Node2240</title>
<path fill="none" stroke="midnightblue" d="M1076.01,-73.8921C1091.23,-73.4831 1106.3,-73.0779 1119.6,-72.7204"/>
<polygon fill="midnightblue" stroke="midnightblue" points="1075.91,-70.3935 1066.01,-74.161 1076.1,-77.391 1075.91,-70.3935"/>
</g>
<!-- Node2241 -->
<g id="node18" class="node"><title>Node2241</title>
<g id="a_node18"><a xlink:href="net__processing_8h.html#a7fa42e7ffd6e6ba5b7537af248e30fc8" target="_top" xlink:title="Process protocol messages received from a given node. ">
<polygon fill="white" stroke="black" points="1295,-81 1295,-100 1393,-100 1393,-81 1295,-81"/>
<text text-anchor="middle" x="1344" y="-88" font-family="Helvetica,sans-Serif" font-size="10.00">ProcessMessages</text>
</a>
</g>
</g>
<!-- Node2240&#45;&gt;Node2241 -->
<g id="edge19" class="edge"><title>Node2240&#45;&gt;Node2241</title>
<path fill="none" stroke="midnightblue" d="M1222.38,-77.478C1245.6,-79.9848 1272.35,-82.8726 1294.75,-85.2909"/>
<polygon fill="midnightblue" stroke="midnightblue" points="1222.64,-73.9866 1212.32,-76.393 1221.89,-80.9462 1222.64,-73.9866"/>
</g>
<!-- Node2242 -->
<g id="node19" class="node"><title>Node2242</title>
<g id="a_node19"><a xlink:href="net__processing_8h.html#ab02615ff65f91d69f8d786ec900baa8a" target="_top" xlink:title="Register with a network node to receive its signals. ">
<polygon fill="white" stroke="black" points="1462,-138 1462,-157 1571,-157 1571,-138 1462,-138"/>
<text text-anchor="middle" x="1516.5" y="-145" font-family="Helvetica,sans-Serif" font-size="10.00">RegisterNodeSignals</text>
</a>
</g>
</g>
<!-- Node2241&#45;&gt;Node2242 -->
<g id="edge20" class="edge"><title>Node2241&#45;&gt;Node2242</title>
<path fill="none" stroke="midnightblue" d="M1383.26,-103.292C1414.67,-113.79 1458.44,-128.423 1486.87,-137.928"/>
<polygon fill="midnightblue" stroke="midnightblue" points="1384.13,-99.8918 1373.54,-100.041 1381.91,-106.531 1384.13,-99.8918"/>
</g>
<!-- Node2243 -->
<g id="node20" class="node"><title>Node2243</title>
<g id="a_node20"><a xlink:href="net__processing_8h.html#a3ef0cc6e9d9d6435ee2a5569244d6ebd" target="_top" xlink:title="Unregister a network node. ">
<polygon fill="white" stroke="black" points="1458,-81 1458,-100 1575,-100 1575,-81 1458,-81"/>
<text text-anchor="middle" x="1516.5" y="-88" font-family="Helvetica,sans-Serif" font-size="10.00">UnregisterNodeSignals</text>
</a>
</g>
</g>
<!-- Node2241&#45;&gt;Node2243 -->
<g id="edge22" class="edge"><title>Node2241&#45;&gt;Node2243</title>
<path fill="none" stroke="midnightblue" d="M1403.53,-90.5C1421.12,-90.5 1440.39,-90.5 1457.91,-90.5"/>
<polygon fill="midnightblue" stroke="midnightblue" points="1403.4,-87.0001 1393.4,-90.5 1403.4,-94.0001 1403.4,-87.0001"/>
</g>
<!-- Node2242&#45;&gt;Node2227 -->
<g id="edge21" class="edge"><title>Node2242&#45;&gt;Node2227</title>
<path fill="none" stroke="midnightblue" d="M1562.53,-159.767C1585.36,-165.986 1612.25,-173.311 1631.49,-178.552"/>
<polygon fill="midnightblue" stroke="midnightblue" points="1563.27,-156.34 1552.7,-157.089 1561.43,-163.094 1563.27,-156.34"/>
</g>
<!-- Node2244 -->
<g id="node21" class="node"><title>Node2244</title>
<g id="a_node21"><a xlink:href="init_8h.html#a5cb3db83cb0ba2e421f651a1ee1f2cfe" target="_top" xlink:title="Preparing steps before shutting down or restarting the wallet. ">
<polygon fill="white" stroke="black" points="1611,-81 1611,-100 1705,-100 1705,-81 1611,-81"/>
<text text-anchor="middle" x="1658" y="-88" font-family="Helvetica,sans-Serif" font-size="10.00">PrepareShutdown</text>
</a>
</g>
</g>
<!-- Node2243&#45;&gt;Node2244 -->
<g id="edge23" class="edge"><title>Node2243&#45;&gt;Node2244</title>
<path fill="none" stroke="midnightblue" d="M1585.13,-90.5C1593.77,-90.5 1602.45,-90.5 1610.65,-90.5"/>
<polygon fill="midnightblue" stroke="midnightblue" points="1585.05,-87.0001 1575.05,-90.5 1585.05,-94.0001 1585.05,-87.0001"/>
</g>
<!-- Node2245 -->
<g id="node22" class="node"><title>Node2245</title>
<g id="a_node22"><a xlink:href="class_bitcoin_core.html#ac2271844c89ebc4c611e7617ce6202e3" target="_top" xlink:title="BitcoinCore::restart">
<polygon fill="white" stroke="black" points="1745,-81 1745,-100 1846,-100 1846,-81 1745,-81"/>
<text text-anchor="middle" x="1795.5" y="-88" font-family="Helvetica,sans-Serif" font-size="10.00">BitcoinCore::restart</text>
</a>
</g>
</g>
<!-- Node2244&#45;&gt;Node2245 -->
<g id="edge24" class="edge"><title>Node2244&#45;&gt;Node2245</title>
<path fill="none" stroke="midnightblue" d="M1715.29,-90.5C1725.06,-90.5 1735.16,-90.5 1744.75,-90.5"/>
<polygon fill="midnightblue" stroke="midnightblue" points="1715.25,-87.0001 1705.25,-90.5 1715.25,-94.0001 1715.25,-87.0001"/>
</g>
<!-- Node2246 -->
<g id="node23" class="node"><title>Node2246</title>
<g id="a_node23"><a xlink:href="init_8h.html#ac5f038c2b480cf9ef5e19e3eba8dbaf9" target="_top" xlink:title="Shutdown is split into 2 parts: Part 1: shut down everything but the main wallet instance (done in Pr...">
<polygon fill="white" stroke="black" points="1765.5,-119 1765.5,-138 1825.5,-138 1825.5,-119 1765.5,-119"/>
<text text-anchor="middle" x="1795.5" y="-126" font-family="Helvetica,sans-Serif" font-size="10.00">Shutdown</text>
</a>
</g>
</g>
<!-- Node2244&#45;&gt;Node2246 -->
<g id="edge25" class="edge"><title>Node2244&#45;&gt;Node2246</title>
<path fill="none" stroke="midnightblue" d="M1702.93,-102.82C1723.39,-108.558 1747.17,-115.227 1765.37,-120.331"/>
<polygon fill="midnightblue" stroke="midnightblue" points="1703.77,-99.4193 1693.19,-100.089 1701.88,-106.159 1703.77,-99.4193"/>
</g>
<!-- Node2246&#45;&gt;Node2228 -->
<g id="edge26" class="edge"><title>Node2246&#45;&gt;Node2228</title>
<path fill="none" stroke="midnightblue" d="M1833.74,-141.475C1839.21,-143.453 1844.76,-145.501 1850,-147.5 1874.28,-156.766 1901.8,-168.119 1920.57,-175.99"/>
<polygon fill="midnightblue" stroke="midnightblue" points="1834.68,-138.091 1824.08,-138.019 1832.32,-144.682 1834.68,-138.091"/>
</g>
<!-- Node2247 -->
<g id="node24" class="node"><title>Node2247</title>
<g id="a_node24"><a xlink:href="class_bitcoin_core.html#a94f3f4622ba698e321f3a2e0e686129f" target="_top" xlink:title="BitcoinCore::shutdown">
<polygon fill="white" stroke="black" points="1886,-119 1886,-138 2002,-138 2002,-119 1886,-119"/>
<text text-anchor="middle" x="1944" y="-126" font-family="Helvetica,sans-Serif" font-size="10.00">BitcoinCore::shutdown</text>
</a>
</g>
</g>
<!-- Node2246&#45;&gt;Node2247 -->
<g id="edge27" class="edge"><title>Node2246&#45;&gt;Node2247</title>
<path fill="none" stroke="midnightblue" d="M1835.97,-128.5C1851.31,-128.5 1869.18,-128.5 1885.88,-128.5"/>
<polygon fill="midnightblue" stroke="midnightblue" points="1835.79,-125 1825.79,-128.5 1835.79,-132 1835.79,-125"/>
</g>
<!-- Node2249 -->
<g id="node26" class="node"><title>Node2249</title>
<g id="a_node26"><a xlink:href="class_masternode_list.html#a4370755b1dcdbf4a9396108c2b7ae76a" target="_top" xlink:title="MasternodeList::on\l_startButton_clicked">
<polygon fill="white" stroke="black" points="1113,-246.5 1113,-276.5 1219,-276.5 1219,-246.5 1113,-246.5"/>
<text text-anchor="start" x="1121" y="-264.5" font-family="Helvetica,sans-Serif" font-size="10.00">MasternodeList::on</text>
<text text-anchor="middle" x="1166" y="-253.5" font-family="Helvetica,sans-Serif" font-size="10.00">_startButton_clicked</text>
</a>
</g>
</g>
<!-- Node2248&#45;&gt;Node2249 -->
<g id="edge29" class="edge"><title>Node2248&#45;&gt;Node2249</title>
<path fill="none" stroke="midnightblue" d="M1040.91,-214.393C1049.41,-216.498 1057.97,-218.871 1066,-221.5 1082.64,-226.952 1085.81,-230.825 1102,-237.5 1109.25,-240.489 1117.02,-243.558 1124.54,-246.459"/>
<polygon fill="midnightblue" stroke="midnightblue" points="1041.53,-210.942 1030.99,-212.045 1039.91,-217.754 1041.53,-210.942"/>
</g>
<!-- Node2250 -->
<g id="node27" class="node"><title>Node2250</title>
<g id="a_node27"><a xlink:href="class_masternode_list.html#a257b85a08e7d691d1ecb35472043cf90" target="_top" xlink:title="MasternodeList::MasternodeList">
<polygon fill="white" stroke="black" points="1266,-252 1266,-271 1422,-271 1422,-252 1266,-252"/>
<text text-anchor="middle" x="1344" y="-259" font-family="Helvetica,sans-Serif" font-size="10.00">MasternodeList::MasternodeList</text>
</a>
</g>
</g>
<!-- Node2249&#45;&gt;Node2250 -->
<g id="edge30" class="edge"><title>Node2249&#45;&gt;Node2250</title>
<path fill="none" stroke="midnightblue" d="M1229.47,-261.5C1241.22,-261.5 1253.64,-261.5 1265.79,-261.5"/>
<polygon fill="midnightblue" stroke="midnightblue" points="1229.33,-258 1219.33,-261.5 1229.33,-265 1229.33,-258"/>
</g>
<!-- Node2252 -->
<g id="node29" class="node"><title>Node2252</title>
<g id="a_node29"><a xlink:href="class_masternode_list.html#a12e7d7a66cc6ce787fb5de9babfd7358" target="_top" xlink:title="MasternodeList::on\l_startAllButton_clicked">
<polygon fill="white" stroke="black" points="1107.5,-138.5 1107.5,-168.5 1224.5,-168.5 1224.5,-138.5 1107.5,-138.5"/>
<text text-anchor="start" x="1115.5" y="-156.5" font-family="Helvetica,sans-Serif" font-size="10.00">MasternodeList::on</text>
<text text-anchor="middle" x="1166" y="-145.5" font-family="Helvetica,sans-Serif" font-size="10.00">_startAllButton_clicked</text>
</a>
</g>
</g>
<!-- Node2251&#45;&gt;Node2252 -->
<g id="edge32" class="edge"><title>Node2251&#45;&gt;Node2252</title>
<path fill="none" stroke="midnightblue" d="M1049.3,-160.343C1068.44,-159.211 1088.94,-157.998 1107.29,-156.913"/>
<polygon fill="midnightblue" stroke="midnightblue" points="1048.91,-156.859 1039.13,-160.944 1049.32,-163.847 1048.91,-156.859"/>
</g>
<!-- Node2253 -->
<g id="node30" class="node"><title>Node2253</title>
<g id="a_node30"><a xlink:href="class_masternode_list.html#a559cf1011eede788d0416c7390e25145" target="_top" xlink:title="MasternodeList::on\l_startMissingButton\l_clicked">
<polygon fill="white" stroke="black" points="1114,-187 1114,-228 1218,-228 1218,-187 1114,-187"/>
<text text-anchor="start" x="1122" y="-216" font-family="Helvetica,sans-Serif" font-size="10.00">MasternodeList::on</text>
<text text-anchor="start" x="1122" y="-205" font-family="Helvetica,sans-Serif" font-size="10.00">_startMissingButton</text>
<text text-anchor="middle" x="1166" y="-194" font-family="Helvetica,sans-Serif" font-size="10.00">_clicked</text>
</a>
</g>
</g>
<!-- Node2251&#45;&gt;Node2253 -->
<g id="edge33" class="edge"><title>Node2251&#45;&gt;Node2253</title>
<path fill="none" stroke="midnightblue" d="M1033.82,-176.274C1044.51,-178.624 1055.61,-181.107 1066,-183.5 1081.6,-187.093 1098.54,-191.145 1113.92,-194.883"/>
<polygon fill="midnightblue" stroke="midnightblue" points="1034.27,-172.788 1023.75,-174.068 1032.77,-179.626 1034.27,-172.788"/>
</g>
<!-- Node2255 -->
<g id="node32" class="node"><title>Node2255</title>
<g id="a_node32"><a xlink:href="class_c_governance_manager.html#a411c189171dd09a82de2daf8b12134fd" target="_top" xlink:title="CGovernanceManager\l::AddGovernanceObject">
<polygon fill="white" stroke="black" points="317,-211.5 317,-241.5 438,-241.5 438,-211.5 317,-211.5"/>
<text text-anchor="start" x="325" y="-229.5" font-family="Helvetica,sans-Serif" font-size="10.00">CGovernanceManager</text>
<text text-anchor="middle" x="377.5" y="-218.5" font-family="Helvetica,sans-Serif" font-size="10.00">::AddGovernanceObject</text>
</a>
</g>
</g>
<!-- Node2254&#45;&gt;Node2255 -->
<g id="edge35" class="edge"><title>Node2254&#45;&gt;Node2255</title>
<path fill="none" stroke="midnightblue" d="M291.155,-226.5C299.759,-226.5 308.446,-226.5 316.815,-226.5"/>
<polygon fill="midnightblue" stroke="midnightblue" points="291.117,-223 281.117,-226.5 291.117,-230 291.117,-223"/>
</g>
<!-- Node2255&#45;&gt;Node2225 -->
<g id="edge43" class="edge"><title>Node2255&#45;&gt;Node2225</title>
<path fill="none" stroke="midnightblue" d="M447.929,-244.02C456.702,-246.213 465.559,-248.416 474,-250.5 494.032,-255.445 516.827,-260.963 533.373,-264.948"/>
<polygon fill="midnightblue" stroke="midnightblue" points="448.635,-240.589 438.085,-241.556 446.935,-247.38 448.635,-240.589"/>
</g>
<!-- Node2256 -->
<g id="node33" class="node"><title>Node2256</title>
<g id="a_node33"><a xlink:href="class_c_governance_manager.html#a3953c78251f14a8db9ed1b8683c35670" target="_top" xlink:title="CGovernanceManager\l::CheckMasternodeOrphanObjects">
<polygon fill="white" stroke="black" points="474,-162.5 474,-192.5 641,-192.5 641,-162.5 474,-162.5"/>
<text text-anchor="start" x="482" y="-180.5" font-family="Helvetica,sans-Serif" font-size="10.00">CGovernanceManager</text>
<text text-anchor="middle" x="557.5" y="-169.5" font-family="Helvetica,sans-Serif" font-size="10.00">::CheckMasternodeOrphanObjects</text>
</a>
</g>
</g>
<!-- Node2255&#45;&gt;Node2256 -->
<g id="edge36" class="edge"><title>Node2255&#45;&gt;Node2256</title>
<path fill="none" stroke="midnightblue" d="M443.238,-208.679C462.457,-203.388 483.31,-197.648 501.823,-192.552"/>
<polygon fill="midnightblue" stroke="midnightblue" points="442.071,-205.37 433.358,-211.399 443.929,-212.119 442.071,-205.37"/>
</g>
<!-- Node2257 -->
<g id="node34" class="node"><title>Node2257</title>
<g id="a_node34"><a xlink:href="class_c_governance_manager.html#ac3f4ec182d1b226f8f2190224044e533" target="_top" xlink:title="CGovernanceManager\l::CheckPostponedObjects">
<polygon fill="white" stroke="black" points="492,-211.5 492,-241.5 623,-241.5 623,-211.5 492,-211.5"/>
<text text-anchor="start" x="500" y="-229.5" font-family="Helvetica,sans-Serif" font-size="10.00">CGovernanceManager</text>
<text text-anchor="middle" x="557.5" y="-218.5" font-family="Helvetica,sans-Serif" font-size="10.00">::CheckPostponedObjects</text>
</a>
</g>
</g>
<!-- Node2255&#45;&gt;Node2257 -->
<g id="edge38" class="edge"><title>Node2255&#45;&gt;Node2257</title>
<path fill="none" stroke="midnightblue" d="M448.492,-226.5C462.73,-226.5 477.649,-226.5 491.697,-226.5"/>
<polygon fill="midnightblue" stroke="midnightblue" points="448.267,-223 438.267,-226.5 448.267,-230 448.267,-223"/>
</g>
<!-- Node2261 -->
<g id="node38" class="node"><title>Node2261</title>
<g id="a_node38"><a xlink:href="class_c_governance_manager.html#a442507518db0686a860dea18979c7cd6" target="_top" xlink:title="CGovernanceManager\l::ProcessMessage">
<polygon fill="white" stroke="black" points="708.5,-0.5 708.5,-30.5 822.5,-30.5 822.5,-0.5 708.5,-0.5"/>
<text text-anchor="start" x="716.5" y="-18.5" font-family="Helvetica,sans-Serif" font-size="10.00">CGovernanceManager</text>
<text text-anchor="middle" x="765.5" y="-7.5" font-family="Helvetica,sans-Serif" font-size="10.00">::ProcessMessage</text>
</a>
</g>
</g>
<!-- Node2255&#45;&gt;Node2261 -->
<g id="edge44" class="edge"><title>Node2255&#45;&gt;Node2261</title>
<path fill="none" stroke="midnightblue" d="M391.28,-202.098C407.082,-174.256 436.537,-129.26 474,-103.5 545.973,-54.0103 646.525,-31.7158 708.478,-22.1472"/>
<polygon fill="midnightblue" stroke="midnightblue" points="388.04,-200.725 386.27,-211.171 394.168,-204.109 388.04,-200.725"/>
</g>
<!-- Node2256&#45;&gt;Node2235 -->
<g id="edge37" class="edge"><title>Node2256&#45;&gt;Node2235</title>
<path fill="none" stroke="midnightblue" d="M651.37,-177.5C659.839,-177.5 668.401,-177.5 676.822,-177.5"/>
<polygon fill="midnightblue" stroke="midnightblue" points="651.101,-174 641.101,-177.5 651.101,-181 651.101,-174"/>
</g>
<!-- Node2258 -->
<g id="node35" class="node"><title>Node2258</title>
<g id="a_node35"><a xlink:href="class_c_governance_manager.html#abefe0f159b050f2c3c3c8f382ecca88d" target="_top" xlink:title="CGovernanceManager\l::UpdatedBlockTip">
<polygon fill="white" stroke="black" points="708.5,-247.5 708.5,-277.5 822.5,-277.5 822.5,-247.5 708.5,-247.5"/>
<text text-anchor="start" x="716.5" y="-265.5" font-family="Helvetica,sans-Serif" font-size="10.00">CGovernanceManager</text>
<text text-anchor="middle" x="765.5" y="-254.5" font-family="Helvetica,sans-Serif" font-size="10.00">::UpdatedBlockTip</text>
</a>
</g>
</g>
<!-- Node2257&#45;&gt;Node2258 -->
<g id="edge39" class="edge"><title>Node2257&#45;&gt;Node2258</title>
<path fill="none" stroke="midnightblue" d="M633.228,-239.559C658.065,-243.9 685.278,-248.655 708.456,-252.706"/>
<polygon fill="midnightblue" stroke="midnightblue" points="633.568,-236.066 623.114,-237.792 632.363,-242.961 633.568,-236.066"/>
</g>
<!-- Node2259 -->
<g id="node36" class="node"><title>Node2259</title>
<g id="a_node36"><a xlink:href="class_c_d_s_notification_interface.html#ac2ced383b75336649c5694e580b18164" target="_top" xlink:title="CDSNotificationInterface\l::UpdatedBlockTip">
<polygon fill="white" stroke="black" points="1103,-295.5 1103,-325.5 1229,-325.5 1229,-295.5 1103,-295.5"/>
<text text-anchor="start" x="1111" y="-313.5" font-family="Helvetica,sans-Serif" font-size="10.00">CDSNotificationInterface</text>
<text text-anchor="middle" x="1166" y="-302.5" font-family="Helvetica,sans-Serif" font-size="10.00">::UpdatedBlockTip</text>
</a>
</g>
</g>
<!-- Node2258&#45;&gt;Node2259 -->
<g id="edge40" class="edge"><title>Node2258&#45;&gt;Node2259</title>
<path fill="none" stroke="midnightblue" d="M819.86,-280.508C841.395,-287.014 866.635,-293.689 890,-297.5 962.41,-309.312 1046.86,-311.633 1102.87,-311.597"/>
<polygon fill="midnightblue" stroke="midnightblue" points="820.833,-277.146 810.246,-277.542 818.77,-283.834 820.833,-277.146"/>
</g>
<!-- Node2260 -->
<g id="node37" class="node"><title>Node2260</title>
<g id="a_node37"><a xlink:href="class_c_d_s_notification_interface.html#a2e9dff307e1373bda9ac9445f7f5a3d7" target="_top" xlink:title="CDSNotificationInterface\l::InitializeCurrentBlockTip">
<polygon fill="white" stroke="black" points="1279.5,-293.5 1279.5,-323.5 1408.5,-323.5 1408.5,-293.5 1279.5,-293.5"/>
<text text-anchor="start" x="1287.5" y="-311.5" font-family="Helvetica,sans-Serif" font-size="10.00">CDSNotificationInterface</text>
<text text-anchor="middle" x="1344" y="-300.5" font-family="Helvetica,sans-Serif" font-size="10.00">::InitializeCurrentBlockTip</text>
</a>
</g>
</g>
<!-- Node2259&#45;&gt;Node2260 -->
<g id="edge41" class="edge"><title>Node2259&#45;&gt;Node2260</title>
<path fill="none" stroke="midnightblue" d="M1239.14,-309.68C1252.5,-309.528 1266.35,-309.371 1279.43,-309.222"/>
<polygon fill="midnightblue" stroke="midnightblue" points="1239.01,-306.181 1229.05,-309.795 1239.09,-313.181 1239.01,-306.181"/>
</g>
<!-- Node2260&#45;&gt;Node2227 -->
<g id="edge42" class="edge"><title>Node2260&#45;&gt;Node2227</title>
<path fill="none" stroke="midnightblue" d="M1396.85,-289.928C1405.28,-286.83 1413.9,-283.611 1422,-280.5 1500.27,-250.461 1592.18,-212.523 1634.09,-195.075"/>
<polygon fill="midnightblue" stroke="midnightblue" points="1395.65,-286.641 1387.46,-293.364 1398.06,-293.215 1395.65,-286.641"/>
</g>
<!-- Node2261&#45;&gt;Node2240 -->
<g id="edge45" class="edge"><title>Node2261&#45;&gt;Node2240</title>
<path fill="none" stroke="midnightblue" d="M833.052,-12.3842C894.332,-11.027 987.377,-12.8078 1066,-30.5 1095.58,-37.157 1127.63,-51.9586 1147.01,-61.8343"/>
<polygon fill="midnightblue" stroke="midnightblue" points="832.651,-8.89319 822.744,-12.6487 832.831,-15.8909 832.651,-8.89319"/>
</g>
</g>
</svg>
        <g id="navigator" transform="translate(0 0)" fill="#404254">
                <rect fill="#f2f5e9" fill-opacity="0.5" stroke="#606060" stroke-width=".5" x="0" y="0" width="60" height="60"/>
                <use id="zoomplus" xlink:href="#zoomPlus" x="17" y="9" onmousedown="handleZoom(evt,'in')"/>
                <use id="zoomminus" xlink:href="#zoomMin" x="42" y="9" onmousedown="handleZoom(evt,'out')"/>
                <use id="reset" xlink:href="#resetDef" x="30" y="36" onmousedown="handleReset()"/>
                <g id="arrowUp" xlink:href="#dirArrow" transform="translate(30 24)" onmousedown="handlePan(0,-1)">
                  <use xlink:href="#rim" fill="#404040">
                        <set attributeName="fill" to="#808080" begin="arrowUp.mouseover" end="arrowUp.mouseout"/>
                  </use>
                  <path fill="none" stroke="white" stroke-width="1.5" d="M0,-3.0v7 M-2.5,-0.5L0,-3.0L2.5,-0.5"/>
                </g>
                <g id="arrowRight" xlink:href="#dirArrow" transform="rotate(90) translate(36 -43)" onmousedown="handlePan(1,0)">
                  <use xlink:href="#rim" fill="#404040">
                        <set attributeName="fill" to="#808080" begin="arrowRight.mouseover" end="arrowRight.mouseout"/>
                  </use>
                  <path fill="none" stroke="white" stroke-width="1.5" d="M0,-3.0v7 M-2.5,-0.5L0,-3.0L2.5,-0.5"/>
                </g>
                <g id="arrowDown" xlink:href="#dirArrow" transform="rotate(180) translate(-30 -48)" onmousedown="handlePan(0,1)">
                  <use xlink:href="#rim" fill="#404040">
                        <set attributeName="fill" to="#808080" begin="arrowDown.mouseover" end="arrowDown.mouseout"/>
                  </use>
                  <path fill="none" stroke="white" stroke-width="1.5" d="M0,-3.0v7 M-2.5,-0.5L0,-3.0L2.5,-0.5"/>
                </g>
                <g id="arrowLeft" xlink:href="#dirArrow" transform="rotate(270) translate(-36 17)" onmousedown="handlePan(-1,0)">
                  <use xlink:href="#rim" fill="#404040">
                        <set attributeName="fill" to="#808080" begin="arrowLeft.mouseover" end="arrowLeft.mouseout"/>
                  </use>
                  <path fill="none" stroke="white" stroke-width="1.5" d="M0,-3.0v7 M-2.5,-0.5L0,-3.0L2.5,-0.5"/>
                </g>
        </g>
        <svg viewBox="0 0 15 15" width="100%" height="30px" preserveAspectRatio="xMaxYMin meet">
         <g id="arrow_out" transform="scale(0.3 0.3)">
          <a xlink:href="class_c_governance_manager_ab359e2f0bb647613a9f18e644cd71345_icgraph_org.svg" target="_base">
           <rect id="button" ry="5" rx="5" y="6" x="6" height="38" width="38"
                fill="#f2f5e9" fill-opacity="0.5" stroke="#606060" stroke-width="1.0"/>
           <path id="arrow"
             d="M 11.500037,31.436501 C 11.940474,20.09759 22.043105,11.32322 32.158766,21.979434 L 37.068811,17.246167 C 37.068811,17.246167 37.088388,32 37.088388,32 L 22.160133,31.978069 C 22.160133,31.978069 26.997745,27.140456 26.997745,27.140456 C 18.528582,18.264221 13.291696,25.230495 11.500037,31.436501 z"
             style="fill:#404040;"/>
          </a>
         </g>
        </svg>
</svg>
