<?xml version="1.0" encoding="UTF-8" standalone="no"?>
<!DOCTYPE svg PUBLIC "-//W3C//DTD SVG 1.1//EN"
 "http://www.w3.org/Graphics/SVG/1.1/DTD/svg11.dtd">
<!-- Generated by graphviz version 2.38.0 (20140413.2041)
 -->
<!-- Title: CPrivateSend::GetMaxPoolTransactions Pages: 1 -->
<svg width="365pt" height="66pt"
 viewBox="0.00 0.00 365.00 66.00" xmlns="http://www.w3.org/2000/svg" xmlns:xlink="http://www.w3.org/1999/xlink">
<g id="graph0" class="graph" transform="scale(1 1) rotate(0) translate(4 62)">
<title>CPrivateSend::GetMaxPoolTransactions</title>
<polygon fill="white" stroke="none" points="-4,4 -4,-62 361,-62 361,4 -4,4"/>
<!-- Node349 -->
<g id="node1" class="node"><title>Node349</title>
<polygon fill="#bfbfbf" stroke="black" points="0,-14 0,-44 137,-44 137,-14 0,-14"/>
<text text-anchor="start" x="8" y="-32" font-family="Helvetica,sans-Serif" font-size="10.00">CPrivateSend::GetMaxPool</text>
<text text-anchor="middle" x="68.5" y="-21" font-family="Helvetica,sans-Serif" font-size="10.00">Transactions</text>
</g>
<!-- Node350 -->
<g id="node2" class="node"><title>Node350</title>
<g id="a_node2"><a xlink:href="chainparams_8cpp.html#ace5c5b706d71a324a417dd2db394fd4a" target="_top" xlink:title="Return the currently selected parameters. ">
<polygon fill="white" stroke="black" points="240,-38.5 240,-57.5 290,-57.5 290,-38.5 240,-38.5"/>
<text text-anchor="middle" x="265" y="-45.5" font-family="Helvetica,sans-Serif" font-size="10.00">Params</text>
</a>
</g>
</g>
<!-- Node349&#45;&gt;Node350 -->
<g id="edge1" class="edge"><title>Node349&#45;&gt;Node350</title>
<path fill="none" stroke="midnightblue" d="M137.254,-35.6186C168.335,-38.6548 203.856,-42.1247 229.371,-44.6172"/>
<polygon fill="midnightblue" stroke="midnightblue" points="229.358,-48.1325 239.651,-45.6214 230.039,-41.1657 229.358,-48.1325"/>
</g>
<!-- Node351 -->
<g id="node3" class="node"><title>Node351</title>
<g id="a_node3"><a xlink:href="class_c_chain_params.html#a128aaa94e4cfcba19dc26e6d2f5ad467" target="_top" xlink:title="CChainParams::PoolMaxTransactions">
<polygon fill="white" stroke="black" points="173,-0.5 173,-19.5 357,-19.5 357,-0.5 173,-0.5"/>
<text text-anchor="middle" x="265" y="-7.5" font-family="Helvetica,sans-Serif" font-size="10.00">CChainParams::PoolMaxTransactions</text>
</a>
</g>
</g>
<!-- Node349&#45;&gt;Node351 -->
<g id="edge2" class="edge"><title>Node349&#45;&gt;Node351</title>
<path fill="none" stroke="midnightblue" d="M137.254,-22.3814C145.528,-21.5731 154.116,-20.7342 162.747,-19.8911"/>
<polygon fill="midnightblue" stroke="midnightblue" points="163.269,-23.3568 172.881,-18.901 162.589,-16.3899 163.269,-23.3568"/>
</g>
</g>
</svg>
