<?xml version="1.0" encoding="UTF-8" standalone="no"?>
<!DOCTYPE svg PUBLIC "-//W3C//DTD SVG 1.1//EN"
 "http://www.w3.org/Graphics/SVG/1.1/DTD/svg11.dtd">
<!-- Generated by graphviz version 2.38.0 (20140413.2041)
 -->
<!-- Title: CPrivateSend::IsCollateralValid Pages: 1 -->
<svg width="1719pt" height="203pt"
 viewBox="0.00 0.00 1719.00 202.50" xmlns="http://www.w3.org/2000/svg" xmlns:xlink="http://www.w3.org/1999/xlink">
<g id="graph0" class="graph" transform="scale(1 1) rotate(0) translate(4 198.5)">
<title>CPrivateSend::IsCollateralValid</title>
<polygon fill="white" stroke="none" points="-4,4 -4,-198.5 1715,-198.5 1715,4 -4,4"/>
<!-- Node752 -->
<g id="node1" class="node"><title>Node752</title>
<polygon fill="#bfbfbf" stroke="black" points="0,-93.5 0,-123.5 133,-123.5 133,-93.5 0,-93.5"/>
<text text-anchor="start" x="8" y="-111.5" font-family="Helvetica,sans-Serif" font-size="10.00">CPrivateSend::IsCollateral</text>
<text text-anchor="middle" x="66.5" y="-100.5" font-family="Helvetica,sans-Serif" font-size="10.00">Valid</text>
</g>
<!-- Node753 -->
<g id="node2" class="node"><title>Node753</title>
<g id="a_node2"><a xlink:href="class_c_private_send_server.html#aa1d021f6e9df0817b8bee67bd8c90bdc" target="_top" xlink:title="Add a clients entry to the pool. ">
<polygon fill="white" stroke="black" points="201,-93.5 201,-123.5 307,-123.5 307,-93.5 201,-93.5"/>
<text text-anchor="start" x="209" y="-111.5" font-family="Helvetica,sans-Serif" font-size="10.00">CPrivateSendServer</text>
<text text-anchor="middle" x="254" y="-100.5" font-family="Helvetica,sans-Serif" font-size="10.00">::AddEntry</text>
</a>
</g>
</g>
<!-- Node752&#45;&gt;Node753 -->
<g id="edge1" class="edge"><title>Node752&#45;&gt;Node753</title>
<path fill="none" stroke="midnightblue" d="M143.178,-108.5C162.549,-108.5 182.949,-108.5 200.839,-108.5"/>
<polygon fill="midnightblue" stroke="midnightblue" points="143.161,-105 133.161,-108.5 143.161,-112 143.161,-105"/>
</g>
<!-- Node767 -->
<g id="node16" class="node"><title>Node767</title>
<g id="a_node16"><a xlink:href="class_c_private_send_client.html#ad3438123cb41c93b5323f64bb52a7331" target="_top" xlink:title="Passively run mixing in the background according to the configuration in settings. ">
<polygon fill="white" stroke="black" points="184,-142.5 184,-172.5 324,-172.5 324,-142.5 184,-142.5"/>
<text text-anchor="start" x="192" y="-160.5" font-family="Helvetica,sans-Serif" font-size="10.00">CPrivateSendClient</text>
<text text-anchor="middle" x="254" y="-149.5" font-family="Helvetica,sans-Serif" font-size="10.00">::DoAutomaticDenominating</text>
</a>
</g>
</g>
<!-- Node752&#45;&gt;Node767 -->
<g id="edge16" class="edge"><title>Node752&#45;&gt;Node767</title>
<path fill="none" stroke="midnightblue" d="M134.215,-126.123C154.51,-131.484 176.614,-137.323 196.191,-142.494"/>
<polygon fill="midnightblue" stroke="midnightblue" points="134.979,-122.705 124.417,-123.535 133.191,-129.473 134.979,-122.705"/>
</g>
<!-- Node773 -->
<g id="node22" class="node"><title>Node773</title>
<g id="a_node22"><a xlink:href="class_c_private_send_server.html#af7e38b25732fe0532d4a7061badababe" target="_top" xlink:title="Is this nDenom and txCollateral acceptable? ">
<polygon fill="white" stroke="black" points="169,-44.5 169,-74.5 339,-74.5 339,-44.5 169,-44.5"/>
<text text-anchor="start" x="177" y="-62.5" font-family="Helvetica,sans-Serif" font-size="10.00">CPrivateSendServer</text>
<text text-anchor="middle" x="254" y="-51.5" font-family="Helvetica,sans-Serif" font-size="10.00">::IsAcceptableDenomAndCollateral</text>
</a>
</g>
</g>
<!-- Node752&#45;&gt;Node773 -->
<g id="edge23" class="edge"><title>Node752&#45;&gt;Node773</title>
<path fill="none" stroke="midnightblue" d="M134.215,-90.8771C154.51,-85.5163 176.614,-79.6775 196.191,-74.5062"/>
<polygon fill="midnightblue" stroke="midnightblue" points="133.191,-87.5275 124.417,-93.4654 134.979,-94.2953 133.191,-87.5275"/>
</g>
<!-- Node754 -->
<g id="node3" class="node"><title>Node754</title>
<g id="a_node3"><a xlink:href="class_c_private_send_server.html#ad51576edb65312fa566ba6f0351a7b6d" target="_top" xlink:title="CPrivateSendServer\l::ProcessMessage">
<polygon fill="white" stroke="black" points="593,-52.5 593,-82.5 699,-82.5 699,-52.5 593,-52.5"/>
<text text-anchor="start" x="601" y="-70.5" font-family="Helvetica,sans-Serif" font-size="10.00">CPrivateSendServer</text>
<text text-anchor="middle" x="646" y="-59.5" font-family="Helvetica,sans-Serif" font-size="10.00">::ProcessMessage</text>
</a>
</g>
</g>
<!-- Node753&#45;&gt;Node754 -->
<g id="edge2" class="edge"><title>Node753&#45;&gt;Node754</title>
<path fill="none" stroke="midnightblue" d="M317.381,-106.039C373.857,-103.33 459.248,-98.0359 533,-88.5 552.62,-85.9632 574.002,-82.2039 592.775,-78.5643"/>
<polygon fill="midnightblue" stroke="midnightblue" points="317.008,-102.553 307.182,-106.515 317.334,-109.545 317.008,-102.553"/>
</g>
<!-- Node755 -->
<g id="node4" class="node"><title>Node755</title>
<g id="a_node4"><a xlink:href="net__processing_8cpp.html#a193d0ece6e2f2f7ee37352ac9720bb83" target="_top" xlink:title="ProcessMessage">
<polygon fill="white" stroke="black" points="783,-59 783,-78 875,-78 875,-59 783,-59"/>
<text text-anchor="middle" x="829" y="-66" font-family="Helvetica,sans-Serif" font-size="10.00">ProcessMessage</text>
</a>
</g>
</g>
<!-- Node754&#45;&gt;Node755 -->
<g id="edge3" class="edge"><title>Node754&#45;&gt;Node755</title>
<path fill="none" stroke="midnightblue" d="M709.484,-67.8452C733.598,-67.9784 760.656,-68.1279 782.824,-68.2504"/>
<polygon fill="midnightblue" stroke="midnightblue" points="709.372,-64.3446 699.353,-67.7892 709.333,-71.3445 709.372,-64.3446"/>
</g>
<!-- Node756 -->
<g id="node5" class="node"><title>Node756</title>
<g id="a_node5"><a xlink:href="net__processing_8h.html#a7fa42e7ffd6e6ba5b7537af248e30fc8" target="_top" xlink:title="Process protocol messages received from a given node. ">
<polygon fill="white" stroke="black" points="947,-59 947,-78 1045,-78 1045,-59 947,-59"/>
<text text-anchor="middle" x="996" y="-66" font-family="Helvetica,sans-Serif" font-size="10.00">ProcessMessages</text>
</a>
</g>
</g>
<!-- Node755&#45;&gt;Node756 -->
<g id="edge4" class="edge"><title>Node755&#45;&gt;Node756</title>
<path fill="none" stroke="midnightblue" d="M885.262,-68.5C905.192,-68.5 927.511,-68.5 946.79,-68.5"/>
<polygon fill="midnightblue" stroke="midnightblue" points="885.087,-65.0001 875.087,-68.5 885.087,-72.0001 885.087,-65.0001"/>
</g>
<!-- Node757 -->
<g id="node6" class="node"><title>Node757</title>
<g id="a_node6"><a xlink:href="net__processing_8h.html#ab02615ff65f91d69f8d786ec900baa8a" target="_top" xlink:title="Register with a network node to receive its signals. ">
<polygon fill="white" stroke="black" points="1097,-98 1097,-117 1206,-117 1206,-98 1097,-98"/>
<text text-anchor="middle" x="1151.5" y="-105" font-family="Helvetica,sans-Serif" font-size="10.00">RegisterNodeSignals</text>
</a>
</g>
</g>
<!-- Node756&#45;&gt;Node757 -->
<g id="edge5" class="edge"><title>Node756&#45;&gt;Node757</title>
<path fill="none" stroke="midnightblue" d="M1044.4,-80.5422C1066.48,-86.1537 1092.39,-92.7353 1113.07,-97.9905"/>
<polygon fill="midnightblue" stroke="midnightblue" points="1045.1,-77.1108 1034.55,-78.0405 1043.38,-83.8953 1045.1,-77.1108"/>
</g>
<!-- Node762 -->
<g id="node11" class="node"><title>Node762</title>
<g id="a_node11"><a xlink:href="net__processing_8h.html#a3ef0cc6e9d9d6435ee2a5569244d6ebd" target="_top" xlink:title="Unregister a network node. ">
<polygon fill="white" stroke="black" points="1093,-59 1093,-78 1210,-78 1210,-59 1093,-59"/>
<text text-anchor="middle" x="1151.5" y="-66" font-family="Helvetica,sans-Serif" font-size="10.00">UnregisterNodeSignals</text>
</a>
</g>
</g>
<!-- Node756&#45;&gt;Node762 -->
<g id="edge10" class="edge"><title>Node756&#45;&gt;Node762</title>
<path fill="none" stroke="midnightblue" d="M1055.29,-68.5C1067.59,-68.5 1080.56,-68.5 1092.83,-68.5"/>
<polygon fill="midnightblue" stroke="midnightblue" points="1055.15,-65.0001 1045.15,-68.5 1055.15,-72.0001 1055.15,-65.0001"/>
</g>
<!-- Node758 -->
<g id="node7" class="node"><title>Node758</title>
<g id="a_node7"><a xlink:href="init_8h.html#a6f0784aa332573f949b0975205572b28" target="_top" xlink:title="Initialize Dash Core. ">
<polygon fill="white" stroke="black" points="1266.5,-126 1266.5,-145 1319.5,-145 1319.5,-126 1266.5,-126"/>
<text text-anchor="middle" x="1293" y="-133" font-family="Helvetica,sans-Serif" font-size="10.00">AppInit2</text>
</a>
</g>
</g>
<!-- Node757&#45;&gt;Node758 -->
<g id="edge6" class="edge"><title>Node757&#45;&gt;Node758</title>
<path fill="none" stroke="midnightblue" d="M1210.14,-119.07C1229.61,-122.977 1250.37,-127.144 1266.11,-130.304"/>
<polygon fill="midnightblue" stroke="midnightblue" points="1210.61,-115.594 1200.12,-117.058 1209.23,-122.457 1210.61,-115.594"/>
</g>
<!-- Node759 -->
<g id="node8" class="node"><title>Node759</title>
<g id="a_node8"><a xlink:href="dashd_8cpp.html#ac59316b767e6984e1285f0531275286b" target="_top" xlink:title="AppInit">
<polygon fill="white" stroke="black" points="1555.5,-117 1555.5,-136 1602.5,-136 1602.5,-117 1555.5,-117"/>
<text text-anchor="middle" x="1579" y="-124" font-family="Helvetica,sans-Serif" font-size="10.00">AppInit</text>
</a>
</g>
</g>
<!-- Node758&#45;&gt;Node759 -->
<g id="edge7" class="edge"><title>Node758&#45;&gt;Node759</title>
<path fill="none" stroke="midnightblue" d="M1329.75,-140.815C1344.09,-142.698 1360.79,-144.576 1376,-145.5 1424.36,-148.438 1436.8,-150.373 1485,-145.5 1509.27,-143.047 1536.56,-137.08 1555.27,-132.482"/>
<polygon fill="midnightblue" stroke="midnightblue" points="1330.16,-137.339 1319.78,-139.458 1329.21,-144.275 1330.16,-137.339"/>
</g>
<!-- Node761 -->
<g id="node10" class="node"><title>Node761</title>
<g id="a_node10"><a xlink:href="class_bitcoin_core.html#af34ca069cda1d4362dcc109b4397fb62" target="_top" xlink:title="BitcoinCore::initialize">
<polygon fill="white" stroke="black" points="1376,-117 1376,-136 1485,-136 1485,-117 1376,-117"/>
<text text-anchor="middle" x="1430.5" y="-124" font-family="Helvetica,sans-Serif" font-size="10.00">BitcoinCore::initialize</text>
</a>
</g>
</g>
<!-- Node758&#45;&gt;Node761 -->
<g id="edge9" class="edge"><title>Node758&#45;&gt;Node761</title>
<path fill="none" stroke="midnightblue" d="M1330.01,-133.108C1344.03,-132.177 1360.38,-131.091 1375.74,-130.071"/>
<polygon fill="midnightblue" stroke="midnightblue" points="1329.55,-129.631 1319.81,-133.786 1330.02,-136.615 1329.55,-129.631"/>
</g>
<!-- Node760 -->
<g id="node9" class="node"><title>Node760</title>
<g id="a_node9"><a xlink:href="dashd_8cpp.html#a0ddf1224851353fc92bfbff6f499fa97" target="_top" xlink:title="main">
<polygon fill="white" stroke="black" points="1673,-117 1673,-136 1711,-136 1711,-117 1673,-117"/>
<text text-anchor="middle" x="1692" y="-124" font-family="Helvetica,sans-Serif" font-size="10.00">main</text>
</a>
</g>
</g>
<!-- Node759&#45;&gt;Node760 -->
<g id="edge8" class="edge"><title>Node759&#45;&gt;Node760</title>
<path fill="none" stroke="midnightblue" d="M1612.77,-126.5C1632.33,-126.5 1656.46,-126.5 1672.7,-126.5"/>
<polygon fill="midnightblue" stroke="midnightblue" points="1612.73,-123 1602.73,-126.5 1612.73,-130 1612.73,-123"/>
</g>
<!-- Node763 -->
<g id="node12" class="node"><title>Node763</title>
<g id="a_node12"><a xlink:href="init_8h.html#a5cb3db83cb0ba2e421f651a1ee1f2cfe" target="_top" xlink:title="Preparing steps before shutting down or restarting the wallet. ">
<polygon fill="white" stroke="black" points="1246,-59 1246,-78 1340,-78 1340,-59 1246,-59"/>
<text text-anchor="middle" x="1293" y="-66" font-family="Helvetica,sans-Serif" font-size="10.00">PrepareShutdown</text>
</a>
</g>
</g>
<!-- Node762&#45;&gt;Node763 -->
<g id="edge11" class="edge"><title>Node762&#45;&gt;Node763</title>
<path fill="none" stroke="midnightblue" d="M1220.13,-68.5C1228.77,-68.5 1237.45,-68.5 1245.65,-68.5"/>
<polygon fill="midnightblue" stroke="midnightblue" points="1220.05,-65.0001 1210.05,-68.5 1220.05,-72.0001 1220.05,-65.0001"/>
</g>
<!-- Node764 -->
<g id="node13" class="node"><title>Node764</title>
<g id="a_node13"><a xlink:href="class_bitcoin_core.html#ac2271844c89ebc4c611e7617ce6202e3" target="_top" xlink:title="BitcoinCore::restart">
<polygon fill="white" stroke="black" points="1380,-79 1380,-98 1481,-98 1481,-79 1380,-79"/>
<text text-anchor="middle" x="1430.5" y="-86" font-family="Helvetica,sans-Serif" font-size="10.00">BitcoinCore::restart</text>
</a>
</g>
</g>
<!-- Node763&#45;&gt;Node764 -->
<g id="edge12" class="edge"><title>Node763&#45;&gt;Node764</title>
<path fill="none" stroke="midnightblue" d="M1350.29,-76.8078C1360.06,-78.2507 1370.16,-79.742 1379.75,-81.1568"/>
<polygon fill="midnightblue" stroke="midnightblue" points="1350.66,-73.3247 1340.25,-75.3269 1349.63,-80.2497 1350.66,-73.3247"/>
</g>
<!-- Node765 -->
<g id="node14" class="node"><title>Node765</title>
<g id="a_node14"><a xlink:href="init_8h.html#ac5f038c2b480cf9ef5e19e3eba8dbaf9" target="_top" xlink:title="Shutdown is split into 2 parts: Part 1: shut down everything but the main wallet instance (done in Pr...">
<polygon fill="white" stroke="black" points="1400.5,-41 1400.5,-60 1460.5,-60 1460.5,-41 1400.5,-41"/>
<text text-anchor="middle" x="1430.5" y="-48" font-family="Helvetica,sans-Serif" font-size="10.00">Shutdown</text>
</a>
</g>
</g>
<!-- Node763&#45;&gt;Node765 -->
<g id="edge13" class="edge"><title>Node763&#45;&gt;Node765</title>
<path fill="none" stroke="midnightblue" d="M1350.25,-61.0274C1367.5,-58.7367 1385.76,-56.3101 1400.41,-54.3646"/>
<polygon fill="midnightblue" stroke="midnightblue" points="1349.7,-57.5693 1340.25,-62.3558 1350.63,-64.5084 1349.7,-57.5693"/>
</g>
<!-- Node765&#45;&gt;Node759 -->
<g id="edge14" class="edge"><title>Node765&#45;&gt;Node759</title>
<path fill="none" stroke="midnightblue" d="M1470.17,-63.1455C1475.23,-65.114 1480.28,-67.248 1485,-69.5 1514.56,-83.6186 1546.64,-104.686 1564.33,-116.862"/>
<polygon fill="midnightblue" stroke="midnightblue" points="1471.14,-59.7709 1460.55,-59.5768 1468.71,-66.3344 1471.14,-59.7709"/>
</g>
<!-- Node766 -->
<g id="node15" class="node"><title>Node766</title>
<g id="a_node15"><a xlink:href="class_bitcoin_core.html#a94f3f4622ba698e321f3a2e0e686129f" target="_top" xlink:title="BitcoinCore::shutdown">
<polygon fill="white" stroke="black" points="1521,-41 1521,-60 1637,-60 1637,-41 1521,-41"/>
<text text-anchor="middle" x="1579" y="-48" font-family="Helvetica,sans-Serif" font-size="10.00">BitcoinCore::shutdown</text>
</a>
</g>
</g>
<!-- Node765&#45;&gt;Node766 -->
<g id="edge15" class="edge"><title>Node765&#45;&gt;Node766</title>
<path fill="none" stroke="midnightblue" d="M1470.97,-50.5C1486.31,-50.5 1504.18,-50.5 1520.88,-50.5"/>
<polygon fill="midnightblue" stroke="midnightblue" points="1470.79,-47.0001 1460.79,-50.5 1470.79,-54.0001 1470.79,-47.0001"/>
</g>
<!-- Node768 -->
<g id="node17" class="node"><title>Node768</title>
<g id="a_node17"><a xlink:href="privatesend-client_8h.html#a01b520827079bf595bfd4f72785026dc" target="_top" xlink:title="ThreadCheckPrivateSendClient">
<polygon fill="white" stroke="black" points="569,-136 569,-155 723,-155 723,-136 569,-136"/>
<text text-anchor="middle" x="646" y="-143" font-family="Helvetica,sans-Serif" font-size="10.00">ThreadCheckPrivateSendClient</text>
</a>
</g>
</g>
<!-- Node767&#45;&gt;Node768 -->
<g id="edge17" class="edge"><title>Node767&#45;&gt;Node768</title>
<path fill="none" stroke="midnightblue" d="M334.578,-155.051C403.053,-152.945 501.194,-149.925 568.7,-147.848"/>
<polygon fill="midnightblue" stroke="midnightblue" points="334.162,-151.562 324.275,-155.368 334.378,-158.559 334.162,-151.562"/>
</g>
<!-- Node769 -->
<g id="node18" class="node"><title>Node769</title>
<g id="a_node18"><a xlink:href="class_overview_page.html#a26efca896ca89c09ebaba1020916ea59" target="_top" xlink:title="OverviewPage::privateSendAuto">
<polygon fill="white" stroke="black" points="375,-175 375,-194 533,-194 533,-175 375,-175"/>
<text text-anchor="middle" x="454" y="-182" font-family="Helvetica,sans-Serif" font-size="10.00">OverviewPage::privateSendAuto</text>
</a>
</g>
</g>
<!-- Node767&#45;&gt;Node769 -->
<g id="edge19" class="edge"><title>Node767&#45;&gt;Node769</title>
<path fill="none" stroke="midnightblue" d="M334.211,-168.302C350.387,-170.507 367.297,-172.813 383.119,-174.971"/>
<polygon fill="midnightblue" stroke="midnightblue" points="334.632,-164.827 324.251,-166.943 333.686,-171.762 334.632,-164.827"/>
</g>
<!-- Node768&#45;&gt;Node758 -->
<g id="edge18" class="edge"><title>Node768&#45;&gt;Node758</title>
<path fill="none" stroke="midnightblue" d="M733.641,-144.157C882.203,-141.853 1178.1,-137.266 1266.49,-135.895"/>
<polygon fill="midnightblue" stroke="midnightblue" points="733.149,-140.664 723.204,-144.319 733.257,-147.663 733.149,-140.664"/>
</g>
<!-- Node770 -->
<g id="node19" class="node"><title>Node770</title>
<g id="a_node19"><a xlink:href="class_overview_page.html#a2ed52a3a87e9c74fee38fa873c9bc71f" target="_top" xlink:title="OverviewPage::setWalletModel">
<polygon fill="white" stroke="black" points="569,-175 569,-194 723,-194 723,-175 569,-175"/>
<text text-anchor="middle" x="646" y="-182" font-family="Helvetica,sans-Serif" font-size="10.00">OverviewPage::setWalletModel</text>
</a>
</g>
</g>
<!-- Node769&#45;&gt;Node770 -->
<g id="edge20" class="edge"><title>Node769&#45;&gt;Node770</title>
<path fill="none" stroke="midnightblue" d="M543.381,-184.5C551.852,-184.5 560.393,-184.5 568.733,-184.5"/>
<polygon fill="midnightblue" stroke="midnightblue" points="543.103,-181 533.103,-184.5 543.103,-188 543.103,-181"/>
</g>
<!-- Node771 -->
<g id="node20" class="node"><title>Node771</title>
<g id="a_node20"><a xlink:href="class_wallet_view.html#a0a37ff693a4f9c1e5ddc23f9cd3913be" target="_top" xlink:title="Set the wallet model. ">
<polygon fill="white" stroke="black" points="759,-175 759,-194 899,-194 899,-175 759,-175"/>
<text text-anchor="middle" x="829" y="-182" font-family="Helvetica,sans-Serif" font-size="10.00">WalletView::setWalletModel</text>
</a>
</g>
</g>
<!-- Node770&#45;&gt;Node771 -->
<g id="edge21" class="edge"><title>Node770&#45;&gt;Node771</title>
<path fill="none" stroke="midnightblue" d="M733.241,-184.5C741.8,-184.5 750.409,-184.5 758.763,-184.5"/>
<polygon fill="midnightblue" stroke="midnightblue" points="733.236,-181 723.236,-184.5 733.236,-188 733.236,-181"/>
</g>
<!-- Node772 -->
<g id="node21" class="node"><title>Node772</title>
<g id="a_node21"><a xlink:href="class_wallet_frame.html#aa199c3f27654199d84c365cf86167d86" target="_top" xlink:title="WalletFrame::addWallet">
<polygon fill="white" stroke="black" points="935,-175 935,-194 1057,-194 1057,-175 935,-175"/>
<text text-anchor="middle" x="996" y="-182" font-family="Helvetica,sans-Serif" font-size="10.00">WalletFrame::addWallet</text>
</a>
</g>
</g>
<!-- Node771&#45;&gt;Node772 -->
<g id="edge22" class="edge"><title>Node771&#45;&gt;Node772</title>
<path fill="none" stroke="midnightblue" d="M909.146,-184.5C917.813,-184.5 926.528,-184.5 934.91,-184.5"/>
<polygon fill="midnightblue" stroke="midnightblue" points="909.019,-181 899.019,-184.5 909.019,-188 909.019,-181"/>
</g>
<!-- Node774 -->
<g id="node23" class="node"><title>Node774</title>
<g id="a_node23"><a xlink:href="class_c_private_send_server.html#ad22c8603123573ef0831c127477af1bd" target="_top" xlink:title="CPrivateSendServer\l::CreateNewSession">
<polygon fill="white" stroke="black" points="400.5,-0.5 400.5,-30.5 507.5,-30.5 507.5,-0.5 400.5,-0.5"/>
<text text-anchor="start" x="408.5" y="-18.5" font-family="Helvetica,sans-Serif" font-size="10.00">CPrivateSendServer</text>
<text text-anchor="middle" x="454" y="-7.5" font-family="Helvetica,sans-Serif" font-size="10.00">::CreateNewSession</text>
</a>
</g>
</g>
<!-- Node773&#45;&gt;Node774 -->
<g id="edge24" class="edge"><title>Node773&#45;&gt;Node774</title>
<path fill="none" stroke="midnightblue" d="M332.558,-42.2648C355.292,-37.2129 379.61,-31.809 400.4,-27.189"/>
<polygon fill="midnightblue" stroke="midnightblue" points="331.589,-38.8947 322.587,-44.4808 333.108,-45.728 331.589,-38.8947"/>
</g>
<!-- Node775 -->
<g id="node24" class="node"><title>Node775</title>
<g id="a_node24"><a xlink:href="class_c_private_send_server.html#a14ae547ff0bb1ecf95c4f14419ff7978" target="_top" xlink:title="CPrivateSendServer\l::AddUserToExistingSession">
<polygon fill="white" stroke="black" points="382.5,-49.5 382.5,-79.5 525.5,-79.5 525.5,-49.5 382.5,-49.5"/>
<text text-anchor="start" x="390.5" y="-67.5" font-family="Helvetica,sans-Serif" font-size="10.00">CPrivateSendServer</text>
<text text-anchor="middle" x="454" y="-56.5" font-family="Helvetica,sans-Serif" font-size="10.00">::AddUserToExistingSession</text>
</a>
</g>
</g>
<!-- Node773&#45;&gt;Node775 -->
<g id="edge26" class="edge"><title>Node773&#45;&gt;Node775</title>
<path fill="none" stroke="midnightblue" d="M349.375,-61.8832C360.434,-62.1625 371.57,-62.4437 382.229,-62.7129"/>
<polygon fill="midnightblue" stroke="midnightblue" points="349.342,-58.3814 339.257,-61.6277 349.165,-65.3791 349.342,-58.3814"/>
</g>
<!-- Node774&#45;&gt;Node754 -->
<g id="edge25" class="edge"><title>Node774&#45;&gt;Node754</title>
<path fill="none" stroke="midnightblue" d="M517.553,-32.6197C541.95,-39.2969 569.592,-46.8621 592.882,-53.2362"/>
<polygon fill="midnightblue" stroke="midnightblue" points="518.243,-29.1798 507.673,-29.9158 516.395,-35.9315 518.243,-29.1798"/>
</g>
<!-- Node775&#45;&gt;Node754 -->
<g id="edge27" class="edge"><title>Node775&#45;&gt;Node754</title>
<path fill="none" stroke="midnightblue" d="M535.771,-65.7753C555.109,-66.0807 575.253,-66.3987 592.897,-66.6773"/>
<polygon fill="midnightblue" stroke="midnightblue" points="535.803,-62.2755 525.749,-65.6171 535.692,-69.2746 535.803,-62.2755"/>
</g>
</g>
</svg>
