<?xml version="1.0" encoding="UTF-8" standalone="no"?>
<!DOCTYPE svg PUBLIC "-//W3C//DTD SVG 1.1//EN"
 "http://www.w3.org/Graphics/SVG/1.1/DTD/svg11.dtd">
<!-- Generated by graphviz version 2.38.0 (20140413.2041)
 -->
<!-- Title: BitcoinAmountField::unitChanged Pages: 1 -->
<svg width="1112pt" height="142pt"
 viewBox="0.00 0.00 1112.00 142.00" xmlns="http://www.w3.org/2000/svg" xmlns:xlink="http://www.w3.org/1999/xlink">
<g id="graph0" class="graph" transform="scale(1 1) rotate(0) translate(4 138)">
<title>BitcoinAmountField::unitChanged</title>
<polygon fill="white" stroke="none" points="-4,4 -4,-138 1108,-138 1108,4 -4,4"/>
<!-- Node48 -->
<g id="node1" class="node"><title>Node48</title>
<polygon fill="#bfbfbf" stroke="black" points="0,-71 0,-101 101,-101 101,-71 0,-71"/>
<text text-anchor="start" x="8" y="-89" font-family="Helvetica,sans-Serif" font-size="10.00">BitcoinAmountField</text>
<text text-anchor="middle" x="50.5" y="-78" font-family="Helvetica,sans-Serif" font-size="10.00">::unitChanged</text>
</g>
<!-- Node49 -->
<g id="node2" class="node"><title>Node49</title>
<g id="a_node2"><a xlink:href="class_amount_spin_box.html#aef946e84b685f35c02782b50f4cce842" target="_top" xlink:title="AmountSpinBox::setDisplayUnit">
<polygon fill="white" stroke="black" points="137,-76.5 137,-95.5 295,-95.5 295,-76.5 137,-76.5"/>
<text text-anchor="middle" x="216" y="-83.5" font-family="Helvetica,sans-Serif" font-size="10.00">AmountSpinBox::setDisplayUnit</text>
</a>
</g>
</g>
<!-- Node48&#45;&gt;Node49 -->
<g id="edge1" class="edge"><title>Node48&#45;&gt;Node49</title>
<path fill="none" stroke="midnightblue" d="M101.444,-86C109.476,-86 117.994,-86 126.61,-86"/>
<polygon fill="midnightblue" stroke="midnightblue" points="126.748,-89.5001 136.748,-86 126.748,-82.5001 126.748,-89.5001"/>
</g>
<!-- Node50 -->
<g id="node3" class="node"><title>Node50</title>
<g id="a_node3"><a xlink:href="class_amount_spin_box.html#aca3825a8e5735dd99d3fa9665afb614c" target="_top" xlink:title="AmountSpinBox::setValue">
<polygon fill="white" stroke="black" points="331,-95.5 331,-114.5 462,-114.5 462,-95.5 331,-95.5"/>
<text text-anchor="middle" x="396.5" y="-102.5" font-family="Helvetica,sans-Serif" font-size="10.00">AmountSpinBox::setValue</text>
</a>
</g>
</g>
<!-- Node49&#45;&gt;Node50 -->
<g id="edge2" class="edge"><title>Node49&#45;&gt;Node50</title>
<path fill="none" stroke="midnightblue" d="M295.033,-94.306C303.664,-95.2247 312.437,-96.1585 321.022,-97.0724"/>
<polygon fill="midnightblue" stroke="midnightblue" points="320.68,-100.556 330.994,-98.1338 321.421,-93.595 320.68,-100.556"/>
</g>
<!-- Node55 -->
<g id="node8" class="node"><title>Node55</title>
<g id="a_node8"><a xlink:href="class_amount_spin_box.html#ab7e522a441231ceaeeb0682ec62a06a9" target="_top" xlink:title="AmountSpinBox::value">
<polygon fill="white" stroke="black" points="498,-57.5 498,-76.5 614,-76.5 614,-57.5 498,-57.5"/>
<text text-anchor="middle" x="556" y="-64.5" font-family="Helvetica,sans-Serif" font-size="10.00">AmountSpinBox::value</text>
</a>
</g>
</g>
<!-- Node49&#45;&gt;Node55 -->
<g id="edge14" class="edge"><title>Node49&#45;&gt;Node55</title>
<path fill="none" stroke="midnightblue" d="M295.394,-81.5933C353.683,-78.3166 432.39,-73.8923 487.811,-70.7769"/>
<polygon fill="midnightblue" stroke="midnightblue" points="488.09,-74.2668 497.878,-70.211 487.697,-67.2779 488.09,-74.2668"/>
</g>
<!-- Node51 -->
<g id="node4" class="node"><title>Node51</title>
<g id="a_node4"><a xlink:href="class_bitcoin_units.html#ab07437e5a788c80a82d75e3714bd3925" target="_top" xlink:title="Format as string. ">
<polygon fill="white" stroke="black" points="813,-95.5 813,-114.5 917,-114.5 917,-95.5 813,-95.5"/>
<text text-anchor="middle" x="865" y="-102.5" font-family="Helvetica,sans-Serif" font-size="10.00">BitcoinUnits::format</text>
</a>
</g>
</g>
<!-- Node50&#45;&gt;Node51 -->
<g id="edge3" class="edge"><title>Node50&#45;&gt;Node51</title>
<path fill="none" stroke="midnightblue" d="M462.365,-105C552.552,-105 714.653,-105 802.828,-105"/>
<polygon fill="midnightblue" stroke="midnightblue" points="802.944,-108.5 812.944,-105 802.944,-101.5 802.944,-108.5"/>
</g>
<!-- Node50&#45;&gt;Node55 -->
<g id="edge7" class="edge"><title>Node50&#45;&gt;Node55</title>
<path fill="none" stroke="midnightblue" d="M437.244,-95.411C458.028,-90.3965 483.661,-84.2119 505.699,-78.8947"/>
<polygon fill="midnightblue" stroke="midnightblue" points="506.642,-82.2679 515.542,-76.5201 505,-75.4632 506.642,-82.2679"/>
</g>
<!-- Node52 -->
<g id="node5" class="node"><title>Node52</title>
<g id="a_node5"><a xlink:href="class_bitcoin_units.html#a81cbc41480adfb600dad79711d336e5f" target="_top" xlink:title="Is unit ID valid? ">
<polygon fill="white" stroke="black" points="985.5,-76.5 985.5,-95.5 1081.5,-95.5 1081.5,-76.5 985.5,-76.5"/>
<text text-anchor="middle" x="1033.5" y="-83.5" font-family="Helvetica,sans-Serif" font-size="10.00">BitcoinUnits::valid</text>
</a>
</g>
</g>
<!-- Node51&#45;&gt;Node52 -->
<g id="edge4" class="edge"><title>Node51&#45;&gt;Node52</title>
<path fill="none" stroke="midnightblue" d="M917.314,-99.1443C935.7,-97.0463 956.535,-94.6687 975.381,-92.5181"/>
<polygon fill="midnightblue" stroke="midnightblue" points="975.786,-95.9947 985.324,-91.3834 974.992,-89.0398 975.786,-95.9947"/>
</g>
<!-- Node53 -->
<g id="node6" class="node"><title>Node53</title>
<g id="a_node6"><a xlink:href="class_bitcoin_units.html#ae967b9e6ecbb8f041bfe398d27533b09" target="_top" xlink:title="Number of Satoshis (1e&#45;8) per unit. ">
<polygon fill="white" stroke="black" points="983,-114.5 983,-133.5 1084,-133.5 1084,-114.5 983,-114.5"/>
<text text-anchor="middle" x="1033.5" y="-121.5" font-family="Helvetica,sans-Serif" font-size="10.00">BitcoinUnits::factor</text>
</a>
</g>
</g>
<!-- Node51&#45;&gt;Node53 -->
<g id="edge5" class="edge"><title>Node51&#45;&gt;Node53</title>
<path fill="none" stroke="midnightblue" d="M917.314,-110.856C934.808,-112.852 954.519,-115.101 972.626,-117.167"/>
<polygon fill="midnightblue" stroke="midnightblue" points="972.45,-120.67 982.782,-118.327 973.244,-113.715 972.45,-120.67"/>
</g>
<!-- Node54 -->
<g id="node7" class="node"><title>Node54</title>
<g id="a_node7"><a xlink:href="class_bitcoin_units.html#a3f0fc21634520ea06c684ba0d7e25f2f" target="_top" xlink:title="Number of decimals left. ">
<polygon fill="white" stroke="black" points="976,-38.5 976,-57.5 1091,-57.5 1091,-38.5 976,-38.5"/>
<text text-anchor="middle" x="1033.5" y="-45.5" font-family="Helvetica,sans-Serif" font-size="10.00">BitcoinUnits::decimals</text>
</a>
</g>
</g>
<!-- Node51&#45;&gt;Node54 -->
<g id="edge6" class="edge"><title>Node51&#45;&gt;Node54</title>
<path fill="none" stroke="midnightblue" d="M900.593,-95.436C909.323,-92.6934 918.601,-89.4898 927,-86 943.707,-79.0584 946.174,-73.6474 963,-67 968.955,-64.6474 975.307,-62.476 981.66,-60.5073"/>
<polygon fill="midnightblue" stroke="midnightblue" points="982.982,-63.7667 991.586,-57.5838 981.004,-57.0519 982.982,-63.7667"/>
</g>
<!-- Node56 -->
<g id="node9" class="node"><title>Node56</title>
<g id="a_node9"><a xlink:href="class_amount_spin_box.html#a487085fe9dc6d6aaa1d2e2a55852f587" target="_top" xlink:title="Parse a string into a number of base monetary units and return validity. ">
<polygon fill="white" stroke="black" points="650,-57.5 650,-76.5 767,-76.5 767,-57.5 650,-57.5"/>
<text text-anchor="middle" x="708.5" y="-64.5" font-family="Helvetica,sans-Serif" font-size="10.00">AmountSpinBox::parse</text>
</a>
</g>
</g>
<!-- Node55&#45;&gt;Node56 -->
<g id="edge8" class="edge"><title>Node55&#45;&gt;Node56</title>
<path fill="none" stroke="midnightblue" d="M614.327,-67C622.595,-67 631.169,-67 639.619,-67"/>
<polygon fill="midnightblue" stroke="midnightblue" points="639.834,-70.5001 649.834,-67 639.834,-63.5001 639.834,-70.5001"/>
</g>
<!-- Node57 -->
<g id="node10" class="node"><title>Node57</title>
<g id="a_node10"><a xlink:href="class_bitcoin_units.html#a310bc10d6973f335b5757a341909b7fe" target="_top" xlink:title="Return maximum number of base units (Satoshis) ">
<polygon fill="white" stroke="black" points="803,-57.5 803,-76.5 927,-76.5 927,-57.5 803,-57.5"/>
<text text-anchor="middle" x="865" y="-64.5" font-family="Helvetica,sans-Serif" font-size="10.00">BitcoinUnits::maxMoney</text>
</a>
</g>
</g>
<!-- Node56&#45;&gt;Node57 -->
<g id="edge9" class="edge"><title>Node56&#45;&gt;Node57</title>
<path fill="none" stroke="midnightblue" d="M767.03,-67C775.416,-67 784.135,-67 792.754,-67"/>
<polygon fill="midnightblue" stroke="midnightblue" points="792.799,-70.5001 802.799,-67 792.799,-63.5001 792.799,-70.5001"/>
</g>
<!-- Node58 -->
<g id="node11" class="node"><title>Node58</title>
<g id="a_node11"><a xlink:href="class_bitcoin_units.html#a23b5ed29b71bd5039776e8f3a87d668d" target="_top" xlink:title="Parse string to coin amount. ">
<polygon fill="white" stroke="black" points="815,-19.5 815,-38.5 915,-38.5 915,-19.5 815,-19.5"/>
<text text-anchor="middle" x="865" y="-26.5" font-family="Helvetica,sans-Serif" font-size="10.00">BitcoinUnits::parse</text>
</a>
</g>
</g>
<!-- Node56&#45;&gt;Node58 -->
<g id="edge10" class="edge"><title>Node56&#45;&gt;Node58</title>
<path fill="none" stroke="midnightblue" d="M748.487,-57.411C768.783,-52.4191 793.793,-46.2676 815.346,-40.9666"/>
<polygon fill="midnightblue" stroke="midnightblue" points="816.419,-44.3072 825.293,-38.5201 814.747,-37.5098 816.419,-44.3072"/>
</g>
<!-- Node58&#45;&gt;Node52 -->
<g id="edge11" class="edge"><title>Node58&#45;&gt;Node52</title>
<path fill="none" stroke="midnightblue" d="M900.593,-38.564C909.323,-41.3066 918.601,-44.5102 927,-48 943.707,-54.9416 946.174,-60.3526 963,-67 968.955,-69.3526 975.307,-71.524 981.66,-73.4927"/>
<polygon fill="midnightblue" stroke="midnightblue" points="981.004,-76.9481 991.586,-76.4162 982.982,-70.2333 981.004,-76.9481"/>
</g>
<!-- Node58&#45;&gt;Node54 -->
<g id="edge12" class="edge"><title>Node58&#45;&gt;Node54</title>
<path fill="none" stroke="midnightblue" d="M915.055,-34.5979C930.863,-36.4018 948.662,-38.4329 965.533,-40.3581"/>
<polygon fill="midnightblue" stroke="midnightblue" points="965.559,-43.8837 975.891,-41.5401 966.352,-36.9288 965.559,-43.8837"/>
</g>
<!-- Node59 -->
<g id="node12" class="node"><title>Node59</title>
<g id="a_node12"><a xlink:href="class_bitcoin_units.html#a9354c3d913372b03101a23dc9cd18023" target="_top" xlink:title="BitcoinUnits::removeSpaces">
<polygon fill="white" stroke="black" points="963,-0.5 963,-19.5 1104,-19.5 1104,-0.5 963,-0.5"/>
<text text-anchor="middle" x="1033.5" y="-7.5" font-family="Helvetica,sans-Serif" font-size="10.00">BitcoinUnits::removeSpaces</text>
</a>
</g>
</g>
<!-- Node58&#45;&gt;Node59 -->
<g id="edge13" class="edge"><title>Node58&#45;&gt;Node59</title>
<path fill="none" stroke="midnightblue" d="M915.055,-23.4021C926.863,-22.0547 939.781,-20.5805 952.594,-19.1184"/>
<polygon fill="midnightblue" stroke="midnightblue" points="953.285,-22.5624 962.824,-17.9511 952.491,-15.6075 953.285,-22.5624"/>
</g>
</g>
</svg>
