<?xml version="1.0" encoding="UTF-8" standalone="no"?>
<!DOCTYPE svg PUBLIC "-//W3C//DTD SVG 1.1//EN"
 "http://www.w3.org/Graphics/SVG/1.1/DTD/svg11.dtd">
<!-- Generated by graphviz version 2.38.0 (20140413.2041)
 -->
<!-- Title: CGovernanceObjectVoteFile::GetVotes Pages: 1 -->
<svg width="1653pt" height="242pt"
 viewBox="0.00 0.00 1653.00 241.50" xmlns="http://www.w3.org/2000/svg" xmlns:xlink="http://www.w3.org/1999/xlink">
<g id="graph0" class="graph" transform="scale(1 1) rotate(0) translate(4 237.501)">
<title>CGovernanceObjectVoteFile::GetVotes</title>
<polygon fill="white" stroke="none" points="-4,4 -4,-237.501 1649,-237.501 1649,4 -4,4"/>
<!-- Node102 -->
<g id="node1" class="node"><title>Node102</title>
<polygon fill="#bfbfbf" stroke="black" points="0,-124.001 0,-154.001 141,-154.001 141,-124.001 0,-124.001"/>
<text text-anchor="start" x="8" y="-142.001" font-family="Helvetica,sans-Serif" font-size="10.00">CGovernanceObjectVoteFile</text>
<text text-anchor="middle" x="70.5" y="-131.001" font-family="Helvetica,sans-Serif" font-size="10.00">::GetVotes</text>
</g>
<!-- Node103 -->
<g id="node2" class="node"><title>Node103</title>
<g id="a_node2"><a xlink:href="class_c_governance_manager.html#a8a183e1ee5f118c0e3fe4bff3d9bdea0" target="_top" xlink:title="CGovernanceManager\l::GetMatchingVotes">
<polygon fill="white" stroke="black" points="559,-159.001 559,-189.001 673,-189.001 673,-159.001 559,-159.001"/>
<text text-anchor="start" x="567" y="-177.001" font-family="Helvetica,sans-Serif" font-size="10.00">CGovernanceManager</text>
<text text-anchor="middle" x="616" y="-166.001" font-family="Helvetica,sans-Serif" font-size="10.00">::GetMatchingVotes</text>
</a>
</g>
</g>
<!-- Node102&#45;&gt;Node103 -->
<g id="edge1" class="edge"><title>Node102&#45;&gt;Node103</title>
<path fill="none" stroke="midnightblue" d="M151.33,-144.142C262.689,-151.313 461.872,-164.14 558.854,-170.386"/>
<polygon fill="midnightblue" stroke="midnightblue" points="151.368,-140.637 141.163,-143.487 150.918,-147.623 151.368,-140.637"/>
</g>
<!-- Node105 -->
<g id="node4" class="node"><title>Node105</title>
<g id="a_node4"><a xlink:href="class_c_governance_manager.html#aef113f2687624cbcec09fb8ba4404d0d" target="_top" xlink:title="CGovernanceManager\l::RebuildIndexes">
<polygon fill="white" stroke="black" points="190,-203.001 190,-233.001 304,-233.001 304,-203.001 190,-203.001"/>
<text text-anchor="start" x="198" y="-221.001" font-family="Helvetica,sans-Serif" font-size="10.00">CGovernanceManager</text>
<text text-anchor="middle" x="247" y="-210.001" font-family="Helvetica,sans-Serif" font-size="10.00">::RebuildIndexes</text>
</a>
</g>
</g>
<!-- Node102&#45;&gt;Node105 -->
<g id="edge3" class="edge"><title>Node102&#45;&gt;Node105</title>
<path fill="none" stroke="midnightblue" d="M112.468,-158.315C131.962,-167.432 155.63,-178.395 177,-188.001 187.961,-192.929 199.955,-198.189 210.824,-202.906"/>
<polygon fill="midnightblue" stroke="midnightblue" points="113.802,-155.075 103.261,-154.002 110.832,-161.414 113.802,-155.075"/>
</g>
<!-- Node111 -->
<g id="node10" class="node"><title>Node111</title>
<g id="a_node10"><a xlink:href="class_c_governance_manager.html#a21705b3f3b7f56a2c4063c02536ac953" target="_top" xlink:title="CGovernanceManager\l::RequestGovernanceObject">
<polygon fill="white" stroke="black" points="177,-90.0012 177,-120.001 317,-120.001 317,-90.0012 177,-90.0012"/>
<text text-anchor="start" x="185" y="-108.001" font-family="Helvetica,sans-Serif" font-size="10.00">CGovernanceManager</text>
<text text-anchor="middle" x="247" y="-97.0012" font-family="Helvetica,sans-Serif" font-size="10.00">::RequestGovernanceObject</text>
</a>
</g>
</g>
<!-- Node102&#45;&gt;Node111 -->
<g id="edge9" class="edge"><title>Node102&#45;&gt;Node111</title>
<path fill="none" stroke="midnightblue" d="M151.237,-123.465C159.826,-121.792 168.512,-120.099 176.961,-118.453"/>
<polygon fill="midnightblue" stroke="midnightblue" points="150.365,-120.069 141.219,-125.417 151.704,-126.94 150.365,-120.069"/>
</g>
<!-- Node128 -->
<g id="node27" class="node"><title>Node128</title>
<g id="a_node27"><a xlink:href="class_c_governance_manager.html#ac1dff91913046fccc08eb27857d43bf2" target="_top" xlink:title="CGovernanceManager\l::Sync">
<polygon fill="white" stroke="black" points="190,-19.0012 190,-49.0012 304,-49.0012 304,-19.0012 190,-19.0012"/>
<text text-anchor="start" x="198" y="-37.0012" font-family="Helvetica,sans-Serif" font-size="10.00">CGovernanceManager</text>
<text text-anchor="middle" x="247" y="-26.0012" font-family="Helvetica,sans-Serif" font-size="10.00">::Sync</text>
</a>
</g>
</g>
<!-- Node102&#45;&gt;Node128 -->
<g id="edge30" class="edge"><title>Node102&#45;&gt;Node128</title>
<path fill="none" stroke="midnightblue" d="M105.143,-118.757C139.057,-98.3507 190.615,-67.3274 221.045,-49.0172"/>
<polygon fill="midnightblue" stroke="midnightblue" points="103.265,-115.802 96.5016,-123.957 106.875,-121.8 103.265,-115.802"/>
</g>
<!-- Node104 -->
<g id="node3" class="node"><title>Node104</title>
<g id="a_node3"><a xlink:href="server_8h.html#a0fa637689f8c63fc6adebeb9458430db" target="_top" xlink:title="gobject">
<polygon fill="white" stroke="black" points="746,-164.501 746,-183.501 794,-183.501 794,-164.501 746,-164.501"/>
<text text-anchor="middle" x="770" y="-171.501" font-family="Helvetica,sans-Serif" font-size="10.00">gobject</text>
</a>
</g>
</g>
<!-- Node103&#45;&gt;Node104 -->
<g id="edge2" class="edge"><title>Node103&#45;&gt;Node104</title>
<path fill="none" stroke="midnightblue" d="M683.346,-174.001C705.734,-174.001 729.259,-174.001 745.978,-174.001"/>
<polygon fill="midnightblue" stroke="midnightblue" points="683.167,-170.501 673.167,-174.001 683.167,-177.501 683.167,-170.501"/>
</g>
<!-- Node106 -->
<g id="node5" class="node"><title>Node106</title>
<g id="a_node5"><a xlink:href="class_c_governance_manager.html#acc033e676d06f9411a0c8d47219de0c8" target="_top" xlink:title="CGovernanceManager\l::InitOnLoad">
<polygon fill="white" stroke="black" points="870,-181.001 870,-211.001 984,-211.001 984,-181.001 870,-181.001"/>
<text text-anchor="start" x="878" y="-199.001" font-family="Helvetica,sans-Serif" font-size="10.00">CGovernanceManager</text>
<text text-anchor="middle" x="927" y="-188.001" font-family="Helvetica,sans-Serif" font-size="10.00">::InitOnLoad</text>
</a>
</g>
</g>
<!-- Node105&#45;&gt;Node106 -->
<g id="edge4" class="edge"><title>Node105&#45;&gt;Node106</title>
<path fill="none" stroke="midnightblue" d="M314.124,-215.856C447.26,-211.536 745.51,-201.858 869.874,-197.822"/>
<polygon fill="midnightblue" stroke="midnightblue" points="313.942,-212.36 304.06,-216.182 314.169,-219.356 313.942,-212.36"/>
</g>
<!-- Node107 -->
<g id="node6" class="node"><title>Node107</title>
<g id="a_node6"><a xlink:href="init_8h.html#a6f0784aa332573f949b0975205572b28" target="_top" xlink:title="Initialize Dash Core. ">
<polygon fill="white" stroke="black" points="1200.5,-120.501 1200.5,-139.501 1253.5,-139.501 1253.5,-120.501 1200.5,-120.501"/>
<text text-anchor="middle" x="1227" y="-127.501" font-family="Helvetica,sans-Serif" font-size="10.00">AppInit2</text>
</a>
</g>
</g>
<!-- Node106&#45;&gt;Node107 -->
<g id="edge5" class="edge"><title>Node106&#45;&gt;Node107</title>
<path fill="none" stroke="midnightblue" d="M994.204,-181.339C1059.18,-166.947 1154.95,-145.738 1200.33,-135.685"/>
<polygon fill="midnightblue" stroke="midnightblue" points="993.058,-178.007 984.052,-183.587 994.572,-184.842 993.058,-178.007"/>
</g>
<!-- Node108 -->
<g id="node7" class="node"><title>Node108</title>
<g id="a_node7"><a xlink:href="dashd_8cpp.html#ac59316b767e6984e1285f0531275286b" target="_top" xlink:title="AppInit">
<polygon fill="white" stroke="black" points="1489.5,-114.501 1489.5,-133.501 1536.5,-133.501 1536.5,-114.501 1489.5,-114.501"/>
<text text-anchor="middle" x="1513" y="-121.501" font-family="Helvetica,sans-Serif" font-size="10.00">AppInit</text>
</a>
</g>
</g>
<!-- Node107&#45;&gt;Node108 -->
<g id="edge6" class="edge"><title>Node107&#45;&gt;Node108</title>
<path fill="none" stroke="midnightblue" d="M1263.73,-129.246C1323.03,-127.993 1440.11,-125.52 1489.35,-124.48"/>
<polygon fill="midnightblue" stroke="midnightblue" points="1263.63,-125.748 1253.7,-129.458 1263.78,-132.746 1263.63,-125.748"/>
</g>
<!-- Node110 -->
<g id="node9" class="node"><title>Node110</title>
<g id="a_node9"><a xlink:href="class_bitcoin_core.html#af34ca069cda1d4362dcc109b4397fb62" target="_top" xlink:title="BitcoinCore::initialize">
<polygon fill="white" stroke="black" points="1310,-95.5012 1310,-114.501 1419,-114.501 1419,-95.5012 1310,-95.5012"/>
<text text-anchor="middle" x="1364.5" y="-102.501" font-family="Helvetica,sans-Serif" font-size="10.00">BitcoinCore::initialize</text>
</a>
</g>
</g>
<!-- Node107&#45;&gt;Node110 -->
<g id="edge8" class="edge"><title>Node107&#45;&gt;Node110</title>
<path fill="none" stroke="midnightblue" d="M1264,-123.359C1278.7,-120.647 1295.98,-117.459 1311.98,-114.507"/>
<polygon fill="midnightblue" stroke="midnightblue" points="1263,-119.984 1253.81,-125.24 1264.27,-126.867 1263,-119.984"/>
</g>
<!-- Node109 -->
<g id="node8" class="node"><title>Node109</title>
<g id="a_node8"><a xlink:href="dashd_8cpp.html#a0ddf1224851353fc92bfbff6f499fa97" target="_top" xlink:title="main">
<polygon fill="white" stroke="black" points="1607,-114.501 1607,-133.501 1645,-133.501 1645,-114.501 1607,-114.501"/>
<text text-anchor="middle" x="1626" y="-121.501" font-family="Helvetica,sans-Serif" font-size="10.00">main</text>
</a>
</g>
</g>
<!-- Node108&#45;&gt;Node109 -->
<g id="edge7" class="edge"><title>Node108&#45;&gt;Node109</title>
<path fill="none" stroke="midnightblue" d="M1546.77,-124.001C1566.33,-124.001 1590.46,-124.001 1606.7,-124.001"/>
<polygon fill="midnightblue" stroke="midnightblue" points="1546.73,-120.501 1536.73,-124.001 1546.73,-127.501 1546.73,-120.501"/>
</g>
<!-- Node112 -->
<g id="node11" class="node"><title>Node112</title>
<g id="a_node11"><a xlink:href="class_c_governance_manager.html#a7af57e90ea7d01041410d26172ecae01" target="_top" xlink:title="CGovernanceManager\l::ProcessVote">
<polygon fill="white" stroke="black" points="379,-17.0012 379,-47.0012 493,-47.0012 493,-17.0012 379,-17.0012"/>
<text text-anchor="start" x="387" y="-35.0012" font-family="Helvetica,sans-Serif" font-size="10.00">CGovernanceManager</text>
<text text-anchor="middle" x="436" y="-24.0012" font-family="Helvetica,sans-Serif" font-size="10.00">::ProcessVote</text>
</a>
</g>
</g>
<!-- Node111&#45;&gt;Node112 -->
<g id="edge10" class="edge"><title>Node111&#45;&gt;Node112</title>
<path fill="none" stroke="midnightblue" d="M286.561,-85.2889C306.154,-75.7164 330.516,-64.4815 353,-56.0012 361.466,-52.808 370.553,-49.7738 379.485,-47.0043"/>
<polygon fill="midnightblue" stroke="midnightblue" points="284.771,-82.2691 277.355,-89.8352 287.871,-88.5455 284.771,-82.2691"/>
</g>
<!-- Node124 -->
<g id="node23" class="node"><title>Node124</title>
<g id="a_node23"><a xlink:href="class_c_governance_manager.html#abbf19b7d63d3e56cf0f6d1ff483b8519" target="_top" xlink:title="CGovernanceManager\l::RequestGovernanceObjectVotes">
<polygon fill="white" stroke="black" points="353,-66.0012 353,-96.0012 519,-96.0012 519,-66.0012 353,-66.0012"/>
<text text-anchor="start" x="361" y="-84.0012" font-family="Helvetica,sans-Serif" font-size="10.00">CGovernanceManager</text>
<text text-anchor="middle" x="436" y="-73.0012" font-family="Helvetica,sans-Serif" font-size="10.00">::RequestGovernanceObjectVotes</text>
</a>
</g>
</g>
<!-- Node111&#45;&gt;Node124 -->
<g id="edge25" class="edge"><title>Node111&#45;&gt;Node124</title>
<path fill="none" stroke="midnightblue" d="M327.044,-94.8565C335.594,-93.7592 344.309,-92.6407 352.894,-91.5389"/>
<polygon fill="midnightblue" stroke="midnightblue" points="326.574,-91.3881 317.101,-96.1327 327.465,-98.3311 326.574,-91.3881"/>
</g>
<!-- Node125 -->
<g id="node24" class="node"><title>Node125</title>
<g id="a_node24"><a xlink:href="class_c_governance_manager.html#aa97afdda65dbb2dcf5915bca26153bdd" target="_top" xlink:title="CGovernanceManager\l::RequestOrphanObjects">
<polygon fill="white" stroke="black" points="373.5,-115.001 373.5,-145.001 498.5,-145.001 498.5,-115.001 373.5,-115.001"/>
<text text-anchor="start" x="381.5" y="-133.001" font-family="Helvetica,sans-Serif" font-size="10.00">CGovernanceManager</text>
<text text-anchor="middle" x="436" y="-122.001" font-family="Helvetica,sans-Serif" font-size="10.00">::RequestOrphanObjects</text>
</a>
</g>
</g>
<!-- Node111&#45;&gt;Node125 -->
<g id="edge26" class="edge"><title>Node111&#45;&gt;Node125</title>
<path fill="none" stroke="midnightblue" d="M327.141,-115.582C342.564,-117.643 358.522,-119.777 373.28,-121.75"/>
<polygon fill="midnightblue" stroke="midnightblue" points="327.476,-112.095 317.101,-114.239 326.549,-119.034 327.476,-112.095"/>
</g>
<!-- Node113 -->
<g id="node12" class="node"><title>Node113</title>
<g id="a_node12"><a xlink:href="class_c_governance_manager.html#a442507518db0686a860dea18979c7cd6" target="_top" xlink:title="CGovernanceManager\l::ProcessMessage">
<polygon fill="white" stroke="black" points="559,-17.0012 559,-47.0012 673,-47.0012 673,-17.0012 559,-17.0012"/>
<text text-anchor="start" x="567" y="-35.0012" font-family="Helvetica,sans-Serif" font-size="10.00">CGovernanceManager</text>
<text text-anchor="middle" x="616" y="-24.0012" font-family="Helvetica,sans-Serif" font-size="10.00">::ProcessMessage</text>
</a>
</g>
</g>
<!-- Node112&#45;&gt;Node113 -->
<g id="edge11" class="edge"><title>Node112&#45;&gt;Node113</title>
<path fill="none" stroke="midnightblue" d="M503.544,-32.0012C521.709,-32.0012 541.21,-32.0012 558.741,-32.0012"/>
<polygon fill="midnightblue" stroke="midnightblue" points="503.32,-28.5013 493.32,-32.0012 503.32,-35.5013 503.32,-28.5013"/>
</g>
<!-- Node122 -->
<g id="node21" class="node"><title>Node122</title>
<g id="a_node21"><a xlink:href="class_c_governance_manager.html#a78ea36701695fecce0db0f8d517552c4" target="_top" xlink:title="CGovernanceManager\l::ProcessVoteAndRelay">
<polygon fill="white" stroke="black" points="555,-69.0012 555,-99.0012 677,-99.0012 677,-69.0012 555,-69.0012"/>
<text text-anchor="start" x="563" y="-87.0012" font-family="Helvetica,sans-Serif" font-size="10.00">CGovernanceManager</text>
<text text-anchor="middle" x="616" y="-76.0012" font-family="Helvetica,sans-Serif" font-size="10.00">::ProcessVoteAndRelay</text>
</a>
</g>
</g>
<!-- Node112&#45;&gt;Node122 -->
<g id="edge22" class="edge"><title>Node112&#45;&gt;Node122</title>
<path fill="none" stroke="midnightblue" d="M498.102,-49.8513C519.443,-56.0856 543.164,-63.0154 563.631,-68.9944"/>
<polygon fill="midnightblue" stroke="midnightblue" points="499.065,-46.4864 488.485,-47.0418 497.102,-53.2055 499.065,-46.4864"/>
</g>
<!-- Node114 -->
<g id="node13" class="node"><title>Node114</title>
<g id="a_node13"><a xlink:href="net__processing_8cpp.html#a193d0ece6e2f2f7ee37352ac9720bb83" target="_top" xlink:title="ProcessMessage">
<polygon fill="white" stroke="black" points="724,-28.5012 724,-47.5012 816,-47.5012 816,-28.5012 724,-28.5012"/>
<text text-anchor="middle" x="770" y="-35.5012" font-family="Helvetica,sans-Serif" font-size="10.00">ProcessMessage</text>
</a>
</g>
</g>
<!-- Node113&#45;&gt;Node114 -->
<g id="edge12" class="edge"><title>Node113&#45;&gt;Node114</title>
<path fill="none" stroke="midnightblue" d="M683.512,-34.6267C697.185,-35.1664 711.274,-35.7225 723.972,-36.2238"/>
<polygon fill="midnightblue" stroke="midnightblue" points="683.298,-31.1156 673.167,-34.2183 683.021,-38.1101 683.298,-31.1156"/>
</g>
<!-- Node115 -->
<g id="node14" class="node"><title>Node115</title>
<g id="a_node14"><a xlink:href="net__processing_8h.html#a7fa42e7ffd6e6ba5b7537af248e30fc8" target="_top" xlink:title="Process protocol messages received from a given node. ">
<polygon fill="white" stroke="black" points="878,-32.5012 878,-51.5012 976,-51.5012 976,-32.5012 878,-32.5012"/>
<text text-anchor="middle" x="927" y="-39.5012" font-family="Helvetica,sans-Serif" font-size="10.00">ProcessMessages</text>
</a>
</g>
</g>
<!-- Node114&#45;&gt;Node115 -->
<g id="edge13" class="edge"><title>Node114&#45;&gt;Node115</title>
<path fill="none" stroke="midnightblue" d="M826.506,-39.4336C843.344,-39.8681 861.691,-40.3416 877.993,-40.7623"/>
<polygon fill="midnightblue" stroke="midnightblue" points="826.336,-35.9282 816.249,-39.1689 826.155,-42.9258 826.336,-35.9282"/>
</g>
<!-- Node116 -->
<g id="node15" class="node"><title>Node116</title>
<g id="a_node15"><a xlink:href="net__processing_8h.html#ab02615ff65f91d69f8d786ec900baa8a" target="_top" xlink:title="Register with a network node to receive its signals. ">
<polygon fill="white" stroke="black" points="1031,-78.5012 1031,-97.5012 1140,-97.5012 1140,-78.5012 1031,-78.5012"/>
<text text-anchor="middle" x="1085.5" y="-85.5012" font-family="Helvetica,sans-Serif" font-size="10.00">RegisterNodeSignals</text>
</a>
</g>
</g>
<!-- Node115&#45;&gt;Node116 -->
<g id="edge14" class="edge"><title>Node115&#45;&gt;Node116</title>
<path fill="none" stroke="midnightblue" d="M970.292,-54.4321C996.035,-61.9987 1028.41,-71.5156 1052.11,-78.4822"/>
<polygon fill="midnightblue" stroke="midnightblue" points="971.008,-50.9945 960.427,-51.5324 969.034,-57.7105 971.008,-50.9945"/>
</g>
<!-- Node117 -->
<g id="node16" class="node"><title>Node117</title>
<g id="a_node16"><a xlink:href="net__processing_8h.html#a3ef0cc6e9d9d6435ee2a5569244d6ebd" target="_top" xlink:title="Unregister a network node. ">
<polygon fill="white" stroke="black" points="1027,-32.5012 1027,-51.5012 1144,-51.5012 1144,-32.5012 1027,-32.5012"/>
<text text-anchor="middle" x="1085.5" y="-39.5012" font-family="Helvetica,sans-Serif" font-size="10.00">UnregisterNodeSignals</text>
</a>
</g>
</g>
<!-- Node115&#45;&gt;Node117 -->
<g id="edge16" class="edge"><title>Node115&#45;&gt;Node117</title>
<path fill="none" stroke="midnightblue" d="M986.581,-42.0012C999.735,-42.0012 1013.68,-42.0012 1026.8,-42.0012"/>
<polygon fill="midnightblue" stroke="midnightblue" points="986.232,-38.5013 976.232,-42.0012 986.232,-45.5013 986.232,-38.5013"/>
</g>
<!-- Node116&#45;&gt;Node107 -->
<g id="edge15" class="edge"><title>Node116&#45;&gt;Node107</title>
<path fill="none" stroke="midnightblue" d="M1127.83,-100.446C1151.24,-107.494 1179.81,-116.094 1200.07,-122.195"/>
<polygon fill="midnightblue" stroke="midnightblue" points="1128.74,-97.0632 1118.15,-97.5316 1126.72,-103.766 1128.74,-97.0632"/>
</g>
<!-- Node118 -->
<g id="node17" class="node"><title>Node118</title>
<g id="a_node17"><a xlink:href="init_8h.html#a5cb3db83cb0ba2e421f651a1ee1f2cfe" target="_top" xlink:title="Preparing steps before shutting down or restarting the wallet. ">
<polygon fill="white" stroke="black" points="1180,-32.5012 1180,-51.5012 1274,-51.5012 1274,-32.5012 1180,-32.5012"/>
<text text-anchor="middle" x="1227" y="-39.5012" font-family="Helvetica,sans-Serif" font-size="10.00">PrepareShutdown</text>
</a>
</g>
</g>
<!-- Node117&#45;&gt;Node118 -->
<g id="edge17" class="edge"><title>Node117&#45;&gt;Node118</title>
<path fill="none" stroke="midnightblue" d="M1154.13,-42.0012C1162.77,-42.0012 1171.45,-42.0012 1179.65,-42.0012"/>
<polygon fill="midnightblue" stroke="midnightblue" points="1154.05,-38.5013 1144.05,-42.0012 1154.05,-45.5013 1154.05,-38.5013"/>
</g>
<!-- Node119 -->
<g id="node18" class="node"><title>Node119</title>
<g id="a_node18"><a xlink:href="class_bitcoin_core.html#ac2271844c89ebc4c611e7617ce6202e3" target="_top" xlink:title="BitcoinCore::restart">
<polygon fill="white" stroke="black" points="1314,-19.5012 1314,-38.5012 1415,-38.5012 1415,-19.5012 1314,-19.5012"/>
<text text-anchor="middle" x="1364.5" y="-26.5012" font-family="Helvetica,sans-Serif" font-size="10.00">BitcoinCore::restart</text>
</a>
</g>
</g>
<!-- Node118&#45;&gt;Node119 -->
<g id="edge18" class="edge"><title>Node118&#45;&gt;Node119</title>
<path fill="none" stroke="midnightblue" d="M1284.29,-36.6011C1294.06,-35.6633 1304.16,-34.6939 1313.75,-33.7743"/>
<polygon fill="midnightblue" stroke="midnightblue" points="1283.87,-33.1246 1274.25,-37.5637 1284.54,-40.0926 1283.87,-33.1246"/>
</g>
<!-- Node120 -->
<g id="node19" class="node"><title>Node120</title>
<g id="a_node19"><a xlink:href="init_8h.html#ac5f038c2b480cf9ef5e19e3eba8dbaf9" target="_top" xlink:title="Shutdown is split into 2 parts: Part 1: shut down everything but the main wallet instance (done in Pr...">
<polygon fill="white" stroke="black" points="1334.5,-57.5012 1334.5,-76.5012 1394.5,-76.5012 1394.5,-57.5012 1334.5,-57.5012"/>
<text text-anchor="middle" x="1364.5" y="-64.5012" font-family="Helvetica,sans-Serif" font-size="10.00">Shutdown</text>
</a>
</g>
</g>
<!-- Node118&#45;&gt;Node120 -->
<g id="edge19" class="edge"><title>Node118&#45;&gt;Node120</title>
<path fill="none" stroke="midnightblue" d="M1284.25,-52.3798C1301.5,-55.5613 1319.76,-58.9317 1334.41,-61.6338"/>
<polygon fill="midnightblue" stroke="midnightblue" points="1284.72,-48.9074 1274.25,-50.5349 1283.45,-55.7912 1284.72,-48.9074"/>
</g>
<!-- Node120&#45;&gt;Node108 -->
<g id="edge20" class="edge"><title>Node120&#45;&gt;Node108</title>
<path fill="none" stroke="midnightblue" d="M1402.74,-79.9765C1408.21,-81.9539 1413.76,-84.0024 1419,-86.0012 1443.28,-95.2673 1470.8,-106.62 1489.57,-114.491"/>
<polygon fill="midnightblue" stroke="midnightblue" points="1403.68,-76.5926 1393.08,-76.52 1401.32,-83.1837 1403.68,-76.5926"/>
</g>
<!-- Node121 -->
<g id="node20" class="node"><title>Node121</title>
<g id="a_node20"><a xlink:href="class_bitcoin_core.html#a94f3f4622ba698e321f3a2e0e686129f" target="_top" xlink:title="BitcoinCore::shutdown">
<polygon fill="white" stroke="black" points="1455,-57.5012 1455,-76.5012 1571,-76.5012 1571,-57.5012 1455,-57.5012"/>
<text text-anchor="middle" x="1513" y="-64.5012" font-family="Helvetica,sans-Serif" font-size="10.00">BitcoinCore::shutdown</text>
</a>
</g>
</g>
<!-- Node120&#45;&gt;Node121 -->
<g id="edge21" class="edge"><title>Node120&#45;&gt;Node121</title>
<path fill="none" stroke="midnightblue" d="M1404.97,-67.0012C1420.31,-67.0012 1438.18,-67.0012 1454.88,-67.0012"/>
<polygon fill="midnightblue" stroke="midnightblue" points="1404.79,-63.5013 1394.79,-67.0012 1404.79,-70.5013 1404.79,-63.5013"/>
</g>
<!-- Node122&#45;&gt;Node104 -->
<g id="edge23" class="edge"><title>Node122&#45;&gt;Node104</title>
<path fill="none" stroke="midnightblue" d="M642.102,-105.417C660.735,-120.516 687.27,-140.391 713,-154.001 723.312,-159.456 735.432,-163.992 745.754,-167.357"/>
<polygon fill="midnightblue" stroke="midnightblue" points="644.324,-102.713 634.377,-99.0644 639.878,-108.12 644.324,-102.713"/>
</g>
<!-- Node123 -->
<g id="node22" class="node"><title>Node123</title>
<g id="a_node22"><a xlink:href="server_8h.html#a8b0acfa41f2702303b7abbd69587d7fc" target="_top" xlink:title="voteraw">
<polygon fill="white" stroke="black" points="744.5,-74.5012 744.5,-93.5012 795.5,-93.5012 795.5,-74.5012 744.5,-74.5012"/>
<text text-anchor="middle" x="770" y="-81.5012" font-family="Helvetica,sans-Serif" font-size="10.00">voteraw</text>
</a>
</g>
</g>
<!-- Node122&#45;&gt;Node123 -->
<g id="edge24" class="edge"><title>Node122&#45;&gt;Node123</title>
<path fill="none" stroke="midnightblue" d="M687.325,-84.0012C707.696,-84.0012 728.615,-84.0012 744.182,-84.0012"/>
<polygon fill="midnightblue" stroke="midnightblue" points="687.074,-80.5013 677.074,-84.0012 687.074,-87.5013 687.074,-80.5013"/>
</g>
<!-- Node126 -->
<g id="node25" class="node"><title>Node126</title>
<g id="a_node25"><a xlink:href="class_c_governance_manager.html#a23de4bbbdff3df077cbc3ea2c1c415d2" target="_top" xlink:title="CGovernanceManager\l::DoMaintenance">
<polygon fill="white" stroke="black" points="713,-115.001 713,-145.001 827,-145.001 827,-115.001 713,-115.001"/>
<text text-anchor="start" x="721" y="-133.001" font-family="Helvetica,sans-Serif" font-size="10.00">CGovernanceManager</text>
<text text-anchor="middle" x="770" y="-122.001" font-family="Helvetica,sans-Serif" font-size="10.00">::DoMaintenance</text>
</a>
</g>
</g>
<!-- Node125&#45;&gt;Node126 -->
<g id="edge27" class="edge"><title>Node125&#45;&gt;Node126</title>
<path fill="none" stroke="midnightblue" d="M509.021,-130.001C570.202,-130.001 656.783,-130.001 712.913,-130.001"/>
<polygon fill="midnightblue" stroke="midnightblue" points="508.669,-126.501 498.669,-130.001 508.669,-133.501 508.669,-126.501"/>
</g>
<!-- Node127 -->
<g id="node26" class="node"><title>Node127</title>
<g id="a_node26"><a xlink:href="privatesend_8h.html#a8ca12ada145ba86ddcba18018b77db14" target="_top" xlink:title="ThreadCheckPrivateSend">
<polygon fill="white" stroke="black" points="863,-120.501 863,-139.501 991,-139.501 991,-120.501 863,-120.501"/>
<text text-anchor="middle" x="927" y="-127.501" font-family="Helvetica,sans-Serif" font-size="10.00">ThreadCheckPrivateSend</text>
</a>
</g>
</g>
<!-- Node126&#45;&gt;Node127 -->
<g id="edge28" class="edge"><title>Node126&#45;&gt;Node127</title>
<path fill="none" stroke="midnightblue" d="M837.522,-130.001C845.916,-130.001 854.485,-130.001 862.825,-130.001"/>
<polygon fill="midnightblue" stroke="midnightblue" points="837.397,-126.501 827.397,-130.001 837.397,-133.501 837.397,-126.501"/>
</g>
<!-- Node127&#45;&gt;Node107 -->
<g id="edge29" class="edge"><title>Node127&#45;&gt;Node107</title>
<path fill="none" stroke="midnightblue" d="M1001.33,-130.001C1065.93,-130.001 1156.36,-130.001 1200.17,-130.001"/>
<polygon fill="midnightblue" stroke="midnightblue" points="1001.2,-126.501 991.198,-130.001 1001.2,-133.501 1001.2,-126.501"/>
</g>
<!-- Node128&#45;&gt;Node113 -->
<g id="edge31" class="edge"><title>Node128&#45;&gt;Node113</title>
<path fill="none" stroke="midnightblue" d="M305.667,-16.3984C320.911,-12.5118 337.452,-8.9682 353,-7.0012 426.194,2.25888 445.82,2.37116 519,-7.0012 534.887,-9.03591 551.901,-12.8916 567.126,-16.9767"/>
<polygon fill="midnightblue" stroke="midnightblue" points="304.635,-13.0509 295.86,-18.9888 306.423,-19.8188 304.635,-13.0509"/>
</g>
</g>
</svg>
