<?xml version="1.0" encoding="UTF-8" standalone="no"?>
<!DOCTYPE svg PUBLIC "-//W3C//DTD SVG 1.1//EN"
 "http://www.w3.org/Graphics/SVG/1.1/DTD/svg11.dtd">
<!-- Generated by graphviz version 2.38.0 (20140413.2041)
 -->
<!-- Title: PaymentServer Pages: 1 -->
<svg width="178pt" height="152pt"
 viewBox="0.00 0.00 177.50 152.00" xmlns="http://www.w3.org/2000/svg" xmlns:xlink="http://www.w3.org/1999/xlink">
<g id="graph0" class="graph" transform="scale(1 1) rotate(0) translate(4 148)">
<title>PaymentServer</title>
<polygon fill="white" stroke="none" points="-4,4 -4,-148 173.5,-148 173.5,4 -4,4"/>
<!-- Node2 -->
<g id="node1" class="node"><title>Node2</title>
<polygon fill="#bfbfbf" stroke="black" points="12.5,-0.5 12.5,-19.5 102.5,-19.5 102.5,-0.5 12.5,-0.5"/>
<text text-anchor="middle" x="57.5" y="-7.5" font-family="Helvetica,sans-Serif" font-size="10.00">PaymentServer</text>
</g>
<!-- Node3 -->
<g id="node2" class="node"><title>Node3</title>
<polygon fill="white" stroke="#bfbfbf" points="0,-67.5 0,-86.5 55,-86.5 55,-67.5 0,-67.5"/>
<text text-anchor="middle" x="27.5" y="-74.5" font-family="Helvetica,sans-Serif" font-size="10.00">QObject</text>
</g>
<!-- Node3&#45;&gt;Node2 -->
<g id="edge1" class="edge"><title>Node3&#45;&gt;Node2</title>
<path fill="none" stroke="midnightblue" d="M35.9046,-57.79C41.6657,-45.3076 49.0476,-29.3135 53.5182,-19.6273"/>
<polygon fill="midnightblue" stroke="midnightblue" points="32.5587,-56.6875 31.5459,-67.2338 38.9144,-59.6209 32.5587,-56.6875"/>
</g>
<!-- Node4 -->
<g id="node3" class="node"><title>Node4</title>
<g id="a_node3"><a xlink:href="class_options_model.html" target="_top" xlink:title="Interface from Qt to configuration data structure for Bitcoin client. ">
<polygon fill="white" stroke="black" points="73.5,-67.5 73.5,-86.5 155.5,-86.5 155.5,-67.5 73.5,-67.5"/>
<text text-anchor="middle" x="114.5" y="-74.5" font-family="Helvetica,sans-Serif" font-size="10.00">OptionsModel</text>
</a>
</g>
</g>
<!-- Node4&#45;&gt;Node2 -->
<g id="edge2" class="edge"><title>Node4&#45;&gt;Node2</title>
<path fill="none" stroke="#9a32cd" stroke-dasharray="5,2" d="M100.149,-59.6348C89.0015,-46.9228 73.9842,-29.7978 65.0655,-19.6273"/>
<polygon fill="#9a32cd" stroke="#9a32cd" points="97.5879,-62.0228 106.813,-67.2338 102.851,-57.4075 97.5879,-62.0228"/>
<text text-anchor="middle" x="122" y="-41" font-family="Helvetica,sans-Serif" font-size="10.00"> optionsModel</text>
</g>
<!-- Node5 -->
<g id="node4" class="node"><title>Node5</title>
<polygon fill="white" stroke="#bfbfbf" points="59.5,-124.5 59.5,-143.5 169.5,-143.5 169.5,-124.5 59.5,-124.5"/>
<text text-anchor="middle" x="114.5" y="-131.5" font-family="Helvetica,sans-Serif" font-size="10.00">QAbstractListModel</text>
</g>
<!-- Node5&#45;&gt;Node4 -->
<g id="edge3" class="edge"><title>Node5&#45;&gt;Node4</title>
<path fill="none" stroke="midnightblue" d="M114.5,-114.117C114.5,-104.817 114.5,-94.0557 114.5,-86.7149"/>
<polygon fill="midnightblue" stroke="midnightblue" points="111,-114.406 114.5,-124.406 118,-114.406 111,-114.406"/>
</g>
</g>
</svg>
