<?xml version="1.0" encoding="UTF-8" standalone="no"?>
<!DOCTYPE svg PUBLIC "-//W3C//DTD SVG 1.1//EN"
 "http://www.w3.org/Graphics/SVG/1.1/DTD/svg11.dtd">
<!-- Generated by graphviz version 2.38.0 (20140413.2041)
 -->
<!-- Title: CMasternodeSync::GetAssetName Pages: 1 -->
<svg width="1189pt" height="116pt"
 viewBox="0.00 0.00 1189.00 116.00" xmlns="http://www.w3.org/2000/svg" xmlns:xlink="http://www.w3.org/1999/xlink">
<g id="graph0" class="graph" transform="scale(1 1) rotate(0) translate(4 112)">
<title>CMasternodeSync::GetAssetName</title>
<polygon fill="white" stroke="none" points="-4,4 -4,-112 1185,-112 1185,4 -4,4"/>
<!-- Node129 -->
<g id="node1" class="node"><title>Node129</title>
<polygon fill="#bfbfbf" stroke="black" points="0,-44.5 0,-63.5 171,-63.5 171,-44.5 0,-44.5"/>
<text text-anchor="middle" x="85.5" y="-51.5" font-family="Helvetica,sans-Serif" font-size="10.00">CMasternodeSync::GetAssetName</text>
</g>
<!-- Node130 -->
<g id="node2" class="node"><title>Node130</title>
<g id="a_node2"><a xlink:href="server_8h.html#a2c332caf1997f143fc4477ca91df441d" target="_top" xlink:title="mnsync">
<polygon fill="white" stroke="black" points="441.5,-88.5 441.5,-107.5 492.5,-107.5 492.5,-88.5 441.5,-88.5"/>
<text text-anchor="middle" x="467" y="-95.5" font-family="Helvetica,sans-Serif" font-size="10.00">mnsync</text>
</a>
</g>
</g>
<!-- Node129&#45;&gt;Node130 -->
<g id="edge1" class="edge"><title>Node129&#45;&gt;Node130</title>
<path fill="none" stroke="midnightblue" d="M137.671,-65.5964C159.007,-70.0649 184.106,-74.8476 207,-78 292.558,-89.7807 395.043,-95.1278 441.254,-97.0745"/>
<polygon fill="midnightblue" stroke="midnightblue" points="138.35,-62.1626 127.84,-63.5048 136.893,-69.0094 138.35,-62.1626"/>
</g>
<!-- Node131 -->
<g id="node3" class="node"><title>Node131</title>
<g id="a_node3"><a xlink:href="class_c_masternode_sync.html#a3ac3b4bbb888145fb62f28bcf92d1b70" target="_top" xlink:title="CMasternodeSync::ProcessTick">
<polygon fill="white" stroke="black" points="388,-0.5 388,-19.5 546,-19.5 546,-0.5 388,-0.5"/>
<text text-anchor="middle" x="467" y="-7.5" font-family="Helvetica,sans-Serif" font-size="10.00">CMasternodeSync::ProcessTick</text>
</a>
</g>
</g>
<!-- Node129&#45;&gt;Node131 -->
<g id="edge2" class="edge"><title>Node129&#45;&gt;Node131</title>
<path fill="none" stroke="midnightblue" d="M135.864,-42.2314C157.57,-37.4533 183.436,-32.2942 207,-29 267.392,-20.5574 336.264,-15.7323 387.799,-13.0588"/>
<polygon fill="midnightblue" stroke="midnightblue" points="134.884,-38.864 125.89,-44.4639 136.413,-45.695 134.884,-38.864"/>
</g>
<!-- Node137 -->
<g id="node9" class="node"><title>Node137</title>
<g id="a_node9"><a xlink:href="class_c_masternode_sync.html#aeb86906ef4095e9f55b2d672ad6bf491" target="_top" xlink:title="CMasternodeSync::SwitchTo\lNextAsset">
<polygon fill="white" stroke="black" points="207,-39 207,-69 352,-69 352,-39 207,-39"/>
<text text-anchor="start" x="215" y="-57" font-family="Helvetica,sans-Serif" font-size="10.00">CMasternodeSync::SwitchTo</text>
<text text-anchor="middle" x="279.5" y="-46" font-family="Helvetica,sans-Serif" font-size="10.00">NextAsset</text>
</a>
</g>
</g>
<!-- Node129&#45;&gt;Node137 -->
<g id="edge8" class="edge"><title>Node129&#45;&gt;Node137</title>
<path fill="none" stroke="midnightblue" d="M181.313,-54C189.885,-54 198.469,-54 206.793,-54"/>
<polygon fill="midnightblue" stroke="midnightblue" points="181.273,-50.5001 171.273,-54 181.273,-57.5001 181.273,-50.5001"/>
</g>
<!-- Node132 -->
<g id="node4" class="node"><title>Node132</title>
<g id="a_node4"><a xlink:href="privatesend_8h.html#a8ca12ada145ba86ddcba18018b77db14" target="_top" xlink:title="ThreadCheckPrivateSend">
<polygon fill="white" stroke="black" points="744.5,-0.5 744.5,-19.5 872.5,-19.5 872.5,-0.5 744.5,-0.5"/>
<text text-anchor="middle" x="808.5" y="-7.5" font-family="Helvetica,sans-Serif" font-size="10.00">ThreadCheckPrivateSend</text>
</a>
</g>
</g>
<!-- Node131&#45;&gt;Node132 -->
<g id="edge3" class="edge"><title>Node131&#45;&gt;Node132</title>
<path fill="none" stroke="midnightblue" d="M556.365,-10C615.316,-10 691.421,-10 744.329,-10"/>
<polygon fill="midnightblue" stroke="midnightblue" points="556.314,-6.5001 546.314,-10 556.314,-13.5001 556.314,-6.5001"/>
</g>
<!-- Node133 -->
<g id="node5" class="node"><title>Node133</title>
<g id="a_node5"><a xlink:href="init_8h.html#a6f0784aa332573f949b0975205572b28" target="_top" xlink:title="Initialize Dash Core. ">
<polygon fill="white" stroke="black" points="909,-22.5 909,-41.5 962,-41.5 962,-22.5 909,-22.5"/>
<text text-anchor="middle" x="935.5" y="-29.5" font-family="Helvetica,sans-Serif" font-size="10.00">AppInit2</text>
</a>
</g>
</g>
<!-- Node132&#45;&gt;Node133 -->
<g id="edge4" class="edge"><title>Node132&#45;&gt;Node133</title>
<path fill="none" stroke="midnightblue" d="M873.595,-21.2808C886.084,-23.4787 898.487,-25.6617 908.809,-27.4785"/>
<polygon fill="midnightblue" stroke="midnightblue" points="874.055,-17.808 863.6,-19.5216 872.842,-24.702 874.055,-17.808"/>
</g>
<!-- Node134 -->
<g id="node6" class="node"><title>Node134</title>
<g id="a_node6"><a xlink:href="dashd_8cpp.html#ac59316b767e6984e1285f0531275286b" target="_top" xlink:title="AppInit">
<polygon fill="white" stroke="black" points="1029,-41.5 1029,-60.5 1076,-60.5 1076,-41.5 1029,-41.5"/>
<text text-anchor="middle" x="1052.5" y="-48.5" font-family="Helvetica,sans-Serif" font-size="10.00">AppInit</text>
</a>
</g>
</g>
<!-- Node133&#45;&gt;Node134 -->
<g id="edge5" class="edge"><title>Node133&#45;&gt;Node134</title>
<path fill="none" stroke="midnightblue" d="M972.14,-37.8884C990.614,-40.9406 1012.63,-44.5773 1028.78,-47.2455"/>
<polygon fill="midnightblue" stroke="midnightblue" points="972.459,-34.3937 962.022,-36.2167 971.318,-41.3001 972.459,-34.3937"/>
</g>
<!-- Node136 -->
<g id="node8" class="node"><title>Node136</title>
<g id="a_node8"><a xlink:href="class_bitcoin_core.html#af34ca069cda1d4362dcc109b4397fb62" target="_top" xlink:title="BitcoinCore::initialize">
<polygon fill="white" stroke="black" points="998,-3.5 998,-22.5 1107,-22.5 1107,-3.5 998,-3.5"/>
<text text-anchor="middle" x="1052.5" y="-10.5" font-family="Helvetica,sans-Serif" font-size="10.00">BitcoinCore::initialize</text>
</a>
</g>
</g>
<!-- Node133&#45;&gt;Node136 -->
<g id="edge7" class="edge"><title>Node133&#45;&gt;Node136</title>
<path fill="none" stroke="midnightblue" d="M971.951,-26.1429C980.134,-24.7909 989.02,-23.3228 997.788,-21.8742"/>
<polygon fill="midnightblue" stroke="midnightblue" points="971.318,-22.6999 962.022,-27.7833 972.459,-29.6063 971.318,-22.6999"/>
</g>
<!-- Node135 -->
<g id="node7" class="node"><title>Node135</title>
<g id="a_node7"><a xlink:href="dashd_8cpp.html#a0ddf1224851353fc92bfbff6f499fa97" target="_top" xlink:title="main">
<polygon fill="white" stroke="black" points="1143,-41.5 1143,-60.5 1181,-60.5 1181,-41.5 1143,-41.5"/>
<text text-anchor="middle" x="1162" y="-48.5" font-family="Helvetica,sans-Serif" font-size="10.00">main</text>
</a>
</g>
</g>
<!-- Node134&#45;&gt;Node135 -->
<g id="edge6" class="edge"><title>Node134&#45;&gt;Node135</title>
<path fill="none" stroke="midnightblue" d="M1086.15,-51C1104.73,-51 1127.3,-51 1142.77,-51"/>
<polygon fill="midnightblue" stroke="midnightblue" points="1086.04,-47.5001 1076.04,-51 1086.04,-54.5001 1086.04,-47.5001"/>
</g>
<!-- Node137&#45;&gt;Node130 -->
<g id="edge14" class="edge"><title>Node137&#45;&gt;Node130</title>
<path fill="none" stroke="midnightblue" d="M353.742,-71.3727C384.687,-78.7128 418.667,-86.7726 441.044,-92.0806"/>
<polygon fill="midnightblue" stroke="midnightblue" points="354.358,-67.9217 343.82,-69.0192 352.742,-74.7328 354.358,-67.9217"/>
</g>
<!-- Node137&#45;&gt;Node131 -->
<g id="edge9" class="edge"><title>Node137&#45;&gt;Node131</title>
<path fill="none" stroke="midnightblue" d="M353.842,-36.6036C378.396,-30.7794 404.85,-24.5046 425.897,-19.5124"/>
<polygon fill="midnightblue" stroke="midnightblue" points="352.742,-33.2672 343.82,-38.9808 354.358,-40.0783 352.742,-33.2672"/>
</g>
<!-- Node138 -->
<g id="node10" class="node"><title>Node138</title>
<g id="a_node10"><a xlink:href="class_c_masternode_sync.html#a95559186ad41a82fe42fd2cfbffca104" target="_top" xlink:title="CMasternodeSync::Updated\lBlockTip">
<polygon fill="white" stroke="black" points="397,-39 397,-69 537,-69 537,-39 397,-39"/>
<text text-anchor="start" x="405" y="-57" font-family="Helvetica,sans-Serif" font-size="10.00">CMasternodeSync::Updated</text>
<text text-anchor="middle" x="467" y="-46" font-family="Helvetica,sans-Serif" font-size="10.00">BlockTip</text>
</a>
</g>
</g>
<!-- Node137&#45;&gt;Node138 -->
<g id="edge10" class="edge"><title>Node137&#45;&gt;Node138</title>
<path fill="none" stroke="midnightblue" d="M362.294,-54C373.846,-54 385.628,-54 396.91,-54"/>
<polygon fill="midnightblue" stroke="midnightblue" points="362.219,-50.5001 352.219,-54 362.219,-57.5001 362.219,-50.5001"/>
</g>
<!-- Node139 -->
<g id="node11" class="node"><title>Node139</title>
<g id="a_node11"><a xlink:href="class_c_d_s_notification_interface.html#ac2ced383b75336649c5694e580b18164" target="_top" xlink:title="CDSNotificationInterface\l::UpdatedBlockTip">
<polygon fill="white" stroke="black" points="582,-39 582,-69 708,-69 708,-39 582,-39"/>
<text text-anchor="start" x="590" y="-57" font-family="Helvetica,sans-Serif" font-size="10.00">CDSNotificationInterface</text>
<text text-anchor="middle" x="645" y="-46" font-family="Helvetica,sans-Serif" font-size="10.00">::UpdatedBlockTip</text>
</a>
</g>
</g>
<!-- Node138&#45;&gt;Node139 -->
<g id="edge11" class="edge"><title>Node138&#45;&gt;Node139</title>
<path fill="none" stroke="midnightblue" d="M547.164,-54C558.751,-54 570.544,-54 581.729,-54"/>
<polygon fill="midnightblue" stroke="midnightblue" points="547.055,-50.5001 537.055,-54 547.055,-57.5001 547.055,-50.5001"/>
</g>
<!-- Node140 -->
<g id="node12" class="node"><title>Node140</title>
<g id="a_node12"><a xlink:href="class_c_d_s_notification_interface.html#a2e9dff307e1373bda9ac9445f7f5a3d7" target="_top" xlink:title="CDSNotificationInterface\l::InitializeCurrentBlockTip">
<polygon fill="white" stroke="black" points="744,-39 744,-69 873,-69 873,-39 744,-39"/>
<text text-anchor="start" x="752" y="-57" font-family="Helvetica,sans-Serif" font-size="10.00">CDSNotificationInterface</text>
<text text-anchor="middle" x="808.5" y="-46" font-family="Helvetica,sans-Serif" font-size="10.00">::InitializeCurrentBlockTip</text>
</a>
</g>
</g>
<!-- Node139&#45;&gt;Node140 -->
<g id="edge12" class="edge"><title>Node139&#45;&gt;Node140</title>
<path fill="none" stroke="midnightblue" d="M718.633,-54C727.058,-54 735.602,-54 743.893,-54"/>
<polygon fill="midnightblue" stroke="midnightblue" points="718.44,-50.5001 708.44,-54 718.44,-57.5001 718.44,-50.5001"/>
</g>
<!-- Node140&#45;&gt;Node133 -->
<g id="edge13" class="edge"><title>Node140&#45;&gt;Node133</title>
<path fill="none" stroke="midnightblue" d="M883.14,-41.0394C892.309,-39.4255 901.149,-37.8698 908.833,-36.5174"/>
<polygon fill="midnightblue" stroke="midnightblue" points="882.341,-37.6262 873.099,-42.8066 883.554,-44.5202 882.341,-37.6262"/>
</g>
</g>
</svg>
