<?xml version="1.0" encoding="UTF-8" standalone="no"?>
<!DOCTYPE svg PUBLIC "-//W3C//DTD SVG 1.1//EN"
 "http://www.w3.org/Graphics/SVG/1.1/DTD/svg11.dtd">
<!-- Generated by graphviz version 2.38.0 (20140413.2041)
 -->
<!-- Title: AmountLineEdit Pages: 1 -->
<svg width="190pt" height="152pt"
 viewBox="0.00 0.00 190.00 152.00" xmlns="http://www.w3.org/2000/svg" xmlns:xlink="http://www.w3.org/1999/xlink">
<g id="graph0" class="graph" transform="scale(1 1) rotate(0) translate(4 148)">
<title>AmountLineEdit</title>
<polygon fill="white" stroke="none" points="-4,4 -4,-148 186,-148 186,4 -4,4"/>
<!-- Node2 -->
<g id="node1" class="node"><title>Node2</title>
<polygon fill="#bfbfbf" stroke="black" points="17,-0.5 17,-19.5 109,-19.5 109,-0.5 17,-0.5"/>
<text text-anchor="middle" x="63" y="-7.5" font-family="Helvetica,sans-Serif" font-size="10.00">AmountLineEdit</text>
</g>
<!-- Node3 -->
<g id="node2" class="node"><title>Node3</title>
<polygon fill="white" stroke="#bfbfbf" points="-3.55271e-15,-67.5 -3.55271e-15,-86.5 62,-86.5 62,-67.5 -3.55271e-15,-67.5"/>
<text text-anchor="middle" x="31" y="-74.5" font-family="Helvetica,sans-Serif" font-size="10.00">QLineEdit</text>
</g>
<!-- Node3&#45;&gt;Node2 -->
<g id="edge1" class="edge"><title>Node3&#45;&gt;Node2</title>
<path fill="none" stroke="midnightblue" d="M39.7811,-58.1635C45.9523,-45.6281 53.9364,-29.4104 58.7527,-19.6273"/>
<polygon fill="midnightblue" stroke="midnightblue" points="36.5925,-56.7162 35.3157,-67.2338 42.8727,-59.808 36.5925,-56.7162"/>
</g>
<!-- Node4 -->
<g id="node3" class="node"><title>Node4</title>
<g id="a_node3"><a xlink:href="class_amount_validator.html" target="_top" xlink:title="Amount widget validator, checks for valid CAmount value. ">
<polygon fill="white" stroke="black" points="79.5,-67.5 79.5,-86.5 176.5,-86.5 176.5,-67.5 79.5,-67.5"/>
<text text-anchor="middle" x="128" y="-74.5" font-family="Helvetica,sans-Serif" font-size="10.00">AmountValidator</text>
</a>
</g>
</g>
<!-- Node4&#45;&gt;Node2 -->
<g id="edge2" class="edge"><title>Node4&#45;&gt;Node2</title>
<path fill="none" stroke="#9a32cd" stroke-dasharray="5,2" d="M111.997,-59.9968C99.2496,-47.2496 81.8947,-29.8947 71.6273,-19.6273"/>
<polygon fill="#9a32cd" stroke="#9a32cd" points="109.688,-62.6376 119.234,-67.2338 114.638,-57.6878 109.688,-62.6376"/>
<text text-anchor="middle" x="140.5" y="-41" font-family="Helvetica,sans-Serif" font-size="10.00"> amountValidator</text>
</g>
<!-- Node5 -->
<g id="node4" class="node"><title>Node5</title>
<polygon fill="white" stroke="#bfbfbf" points="95,-124.5 95,-143.5 161,-143.5 161,-124.5 95,-124.5"/>
<text text-anchor="middle" x="128" y="-131.5" font-family="Helvetica,sans-Serif" font-size="10.00">QValidator</text>
</g>
<!-- Node5&#45;&gt;Node4 -->
<g id="edge3" class="edge"><title>Node5&#45;&gt;Node4</title>
<path fill="none" stroke="midnightblue" d="M128,-114.117C128,-104.817 128,-94.0557 128,-86.7149"/>
<polygon fill="midnightblue" stroke="midnightblue" points="124.5,-114.406 128,-124.406 131.5,-114.406 124.5,-114.406"/>
</g>
</g>
</svg>
