<?xml version="1.0" encoding="UTF-8" standalone="no"?>
<!DOCTYPE svg PUBLIC "-//W3C//DTD SVG 1.1//EN"
 "http://www.w3.org/Graphics/SVG/1.1/DTD/svg11.dtd">
<!-- Generated by graphviz version 2.38.0 (20140413.2041)
 -->
<!-- Title: SendCoinsDialog::updateTabsAndLabels Pages: 1 -->
<svg width="1080pt" height="230pt"
 viewBox="0.00 0.00 1080.00 230.00" xmlns="http://www.w3.org/2000/svg" xmlns:xlink="http://www.w3.org/1999/xlink">
<g id="graph0" class="graph" transform="scale(1 1) rotate(0) translate(4 226)">
<title>SendCoinsDialog::updateTabsAndLabels</title>
<polygon fill="white" stroke="none" points="-4,4 -4,-226 1076,-226 1076,4 -4,4"/>
<!-- Node4049 -->
<g id="node1" class="node"><title>Node4049</title>
<polygon fill="#bfbfbf" stroke="black" points="0,-90 0,-120 149,-120 149,-90 0,-90"/>
<text text-anchor="start" x="8" y="-108" font-family="Helvetica,sans-Serif" font-size="10.00">SendCoinsDialog::updateTabs</text>
<text text-anchor="middle" x="74.5" y="-97" font-family="Helvetica,sans-Serif" font-size="10.00">AndLabels</text>
</g>
<!-- Node4050 -->
<g id="node2" class="node"><title>Node4050</title>
<g id="a_node2"><a xlink:href="class_send_coins_dialog.html#a3d680a76b967641115c6ff2fa83fb62a" target="_top" xlink:title="SendCoinsDialog::addEntry">
<polygon fill="white" stroke="black" points="185,-76.5 185,-95.5 322,-95.5 322,-76.5 185,-76.5"/>
<text text-anchor="middle" x="253.5" y="-83.5" font-family="Helvetica,sans-Serif" font-size="10.00">SendCoinsDialog::addEntry</text>
</a>
</g>
</g>
<!-- Node4049&#45;&gt;Node4050 -->
<g id="edge1" class="edge"><title>Node4049&#45;&gt;Node4050</title>
<path fill="none" stroke="midnightblue" d="M159.112,-96.0247C167.745,-95.098 176.44,-94.1647 184.867,-93.2601"/>
<polygon fill="midnightblue" stroke="midnightblue" points="158.596,-92.5599 149.026,-97.1074 159.343,-99.52 158.596,-92.5599"/>
</g>
<!-- Node4051 -->
<g id="node3" class="node"><title>Node4051</title>
<g id="a_node3"><a xlink:href="class_send_coins_dialog.html#a127bddff45f49ff5e6e263efe218ae26" target="_top" xlink:title="SendCoinsDialog::clear">
<polygon fill="white" stroke="black" points="375.5,-152.5 375.5,-171.5 494.5,-171.5 494.5,-152.5 375.5,-152.5"/>
<text text-anchor="middle" x="435" y="-159.5" font-family="Helvetica,sans-Serif" font-size="10.00">SendCoinsDialog::clear</text>
</a>
</g>
</g>
<!-- Node4049&#45;&gt;Node4051 -->
<g id="edge17" class="edge"><title>Node4049&#45;&gt;Node4051</title>
<path fill="none" stroke="midnightblue" d="M149.688,-122.142C161.469,-124.609 173.544,-126.989 185,-129 249.855,-140.384 324.833,-149.82 375.427,-155.645"/>
<polygon fill="midnightblue" stroke="midnightblue" points="150.391,-118.713 139.881,-120.055 148.934,-125.56 150.391,-118.713"/>
</g>
<!-- Node4057 -->
<g id="node9" class="node"><title>Node4057</title>
<g id="a_node9"><a xlink:href="class_send_coins_dialog.html#a4440d15ced5d217baaad33a17d56b409" target="_top" xlink:title="SendCoinsDialog::pasteEntry">
<polygon fill="white" stroke="black" points="362,-114.5 362,-133.5 508,-133.5 508,-114.5 362,-114.5"/>
<text text-anchor="middle" x="435" y="-121.5" font-family="Helvetica,sans-Serif" font-size="10.00">SendCoinsDialog::pasteEntry</text>
</a>
</g>
</g>
<!-- Node4049&#45;&gt;Node4057 -->
<g id="edge18" class="edge"><title>Node4049&#45;&gt;Node4057</title>
<path fill="none" stroke="midnightblue" d="M159.4,-109.447C220.813,-112.701 303.291,-117.073 361.78,-120.172"/>
<polygon fill="midnightblue" stroke="midnightblue" points="159.518,-105.948 149.347,-108.914 159.147,-112.938 159.518,-105.948"/>
</g>
<!-- Node4061 -->
<g id="node13" class="node"><title>Node4061</title>
<g id="a_node13"><a xlink:href="class_send_coins_dialog.html#aabd82a79bd2358493f36425f1d62136b" target="_top" xlink:title="SendCoinsDialog::removeEntry">
<polygon fill="white" stroke="black" points="358,-0.5 358,-19.5 512,-19.5 512,-0.5 358,-0.5"/>
<text text-anchor="middle" x="435" y="-7.5" font-family="Helvetica,sans-Serif" font-size="10.00">SendCoinsDialog::removeEntry</text>
</a>
</g>
</g>
<!-- Node4049&#45;&gt;Node4061 -->
<g id="edge19" class="edge"><title>Node4049&#45;&gt;Node4061</title>
<path fill="none" stroke="midnightblue" d="M124.949,-86.5574C143.624,-79.9323 165.153,-72.6971 185,-67 253.628,-47.3004 334.42,-29.8344 384.932,-19.5842"/>
<polygon fill="midnightblue" stroke="midnightblue" points="123.701,-83.2866 115.468,-89.9548 126.063,-89.8763 123.701,-83.2866"/>
</g>
<!-- Node4050&#45;&gt;Node4051 -->
<g id="edge2" class="edge"><title>Node4050&#45;&gt;Node4051</title>
<path fill="none" stroke="midnightblue" d="M277.594,-100.996C298.03,-113.702 329.023,-131.621 358,-143 367.368,-146.679 377.67,-149.818 387.584,-152.423"/>
<polygon fill="midnightblue" stroke="midnightblue" points="279.317,-97.945 268.992,-95.5673 275.581,-103.865 279.317,-97.945"/>
</g>
<!-- Node4056 -->
<g id="node8" class="node"><title>Node4056</title>
<g id="a_node8"><a xlink:href="class_send_coins_dialog.html#affacd36b4df87a68e2fe706ef388c0a6" target="_top" xlink:title="SendCoinsDialog::SendCoins\lDialog">
<polygon fill="white" stroke="black" points="558,-66 558,-96 704,-96 704,-66 558,-66"/>
<text text-anchor="start" x="566" y="-84" font-family="Helvetica,sans-Serif" font-size="10.00">SendCoinsDialog::SendCoins</text>
<text text-anchor="middle" x="631" y="-73" font-family="Helvetica,sans-Serif" font-size="10.00">Dialog</text>
</a>
</g>
</g>
<!-- Node4050&#45;&gt;Node4056 -->
<g id="edge14" class="edge"><title>Node4050&#45;&gt;Node4056</title>
<path fill="none" stroke="midnightblue" d="M332.458,-84.9619C398.773,-84.0789 493.262,-82.8207 557.858,-81.9606"/>
<polygon fill="midnightblue" stroke="midnightblue" points="332.018,-81.4674 322.066,-85.1003 332.111,-88.4668 332.018,-81.4674"/>
</g>
<!-- Node4050&#45;&gt;Node4057 -->
<g id="edge8" class="edge"><title>Node4050&#45;&gt;Node4057</title>
<path fill="none" stroke="midnightblue" d="M309.677,-97.681C335.133,-103.07 364.968,-109.386 389.03,-114.48"/>
<polygon fill="midnightblue" stroke="midnightblue" points="310.304,-94.2361 299.795,-95.589 308.854,-101.084 310.304,-94.2361"/>
</g>
<!-- Node4050&#45;&gt;Node4061 -->
<g id="edge12" class="edge"><title>Node4050&#45;&gt;Node4061</title>
<path fill="none" stroke="midnightblue" d="M269.519,-69.8945C289.134,-54.5507 324.884,-33.0044 358,-20 358.38,-19.8509 358.761,-19.7026 359.144,-19.5553"/>
<polygon fill="midnightblue" stroke="midnightblue" points="267.115,-67.3429 261.709,-76.455 271.617,-72.7027 267.115,-67.3429"/>
</g>
<!-- Node4062 -->
<g id="node14" class="node"><title>Node4062</title>
<g id="a_node14"><a xlink:href="class_send_coins_dialog.html#a920b2dbf121ca3cfac2adc56e96295f8" target="_top" xlink:title="SendCoinsDialog::setAddress">
<polygon fill="white" stroke="black" points="361,-38.5 361,-57.5 509,-57.5 509,-38.5 361,-38.5"/>
<text text-anchor="middle" x="435" y="-45.5" font-family="Helvetica,sans-Serif" font-size="10.00">SendCoinsDialog::setAddress</text>
</a>
</g>
</g>
<!-- Node4050&#45;&gt;Node4062 -->
<g id="edge15" class="edge"><title>Node4050&#45;&gt;Node4062</title>
<path fill="none" stroke="midnightblue" d="M309.677,-74.319C335.133,-68.9301 364.968,-62.6139 389.03,-57.5201"/>
<polygon fill="midnightblue" stroke="midnightblue" points="308.854,-70.9157 299.795,-76.411 310.304,-77.7639 308.854,-70.9157"/>
</g>
<!-- Node4052 -->
<g id="node4" class="node"><title>Node4052</title>
<g id="a_node4"><a xlink:href="class_send_coins_dialog.html#af2185c3d29e43d37c30669f0def46060" target="_top" xlink:title="SendCoinsDialog::accept">
<polygon fill="white" stroke="black" points="567,-164.5 567,-183.5 695,-183.5 695,-164.5 567,-164.5"/>
<text text-anchor="middle" x="631" y="-171.5" font-family="Helvetica,sans-Serif" font-size="10.00">SendCoinsDialog::accept</text>
</a>
</g>
</g>
<!-- Node4051&#45;&gt;Node4052 -->
<g id="edge3" class="edge"><title>Node4051&#45;&gt;Node4052</title>
<path fill="none" stroke="midnightblue" d="M504.788,-166.255C524.965,-167.503 546.926,-168.861 566.741,-170.087"/>
<polygon fill="midnightblue" stroke="midnightblue" points="504.93,-162.757 494.733,-165.633 504.498,-169.744 504.93,-162.757"/>
</g>
<!-- Node4055 -->
<g id="node7" class="node"><title>Node4055</title>
<g id="a_node7"><a xlink:href="class_send_coins_dialog.html#a4879553d77d29f522ac92ac04580f4ad" target="_top" xlink:title="SendCoinsDialog::reject">
<polygon fill="white" stroke="black" points="570,-202.5 570,-221.5 692,-221.5 692,-202.5 570,-202.5"/>
<text text-anchor="middle" x="631" y="-209.5" font-family="Helvetica,sans-Serif" font-size="10.00">SendCoinsDialog::reject</text>
</a>
</g>
</g>
<!-- Node4051&#45;&gt;Node4055 -->
<g id="edge6" class="edge"><title>Node4051&#45;&gt;Node4055</title>
<path fill="none" stroke="midnightblue" d="M479.033,-174.37C499.816,-180.226 525.146,-187.192 548,-193 560.747,-196.239 574.666,-199.549 587.358,-202.48"/>
<polygon fill="midnightblue" stroke="midnightblue" points="479.802,-170.95 469.227,-171.594 477.896,-177.685 479.802,-170.95"/>
</g>
<!-- Node4051&#45;&gt;Node4056 -->
<g id="edge7" class="edge"><title>Node4051&#45;&gt;Node4056</title>
<path fill="none" stroke="midnightblue" d="M499.733,-149.012C503.997,-147.254 508.13,-145.261 512,-143 532.088,-131.265 528.149,-117.132 548,-105 553.569,-101.597 559.646,-98.654 565.892,-96.1145"/>
<polygon fill="midnightblue" stroke="midnightblue" points="498.422,-145.765 490.24,-152.495 500.834,-152.336 498.422,-145.765"/>
</g>
<!-- Node4053 -->
<g id="node5" class="node"><title>Node4053</title>
<g id="a_node5"><a xlink:href="class_send_coins_dialog.html#aab03626a859f22a68760b235a1df6bc9" target="_top" xlink:title="SendCoinsDialog::send">
<polygon fill="white" stroke="black" points="760.5,-164.5 760.5,-183.5 879.5,-183.5 879.5,-164.5 760.5,-164.5"/>
<text text-anchor="middle" x="820" y="-171.5" font-family="Helvetica,sans-Serif" font-size="10.00">SendCoinsDialog::send</text>
</a>
</g>
</g>
<!-- Node4052&#45;&gt;Node4053 -->
<g id="edge4" class="edge"><title>Node4052&#45;&gt;Node4053</title>
<path fill="none" stroke="midnightblue" d="M705.091,-174C723.404,-174 742.815,-174 760.325,-174"/>
<polygon fill="midnightblue" stroke="midnightblue" points="705.049,-170.5 695.049,-174 705.049,-177.5 705.049,-170.5"/>
</g>
<!-- Node4054 -->
<g id="node6" class="node"><title>Node4054</title>
<g id="a_node6"><a xlink:href="class_send_coins_dialog.html#a2cab7cf9ea5040b9e2189297f7d3c764" target="_top" xlink:title="SendCoinsDialog::on\l_sendButton_clicked">
<polygon fill="white" stroke="black" points="944.5,-161 944.5,-191 1053.5,-191 1053.5,-161 944.5,-161"/>
<text text-anchor="start" x="952.5" y="-179" font-family="Helvetica,sans-Serif" font-size="10.00">SendCoinsDialog::on</text>
<text text-anchor="middle" x="999" y="-168" font-family="Helvetica,sans-Serif" font-size="10.00">_sendButton_clicked</text>
</a>
</g>
</g>
<!-- Node4053&#45;&gt;Node4054 -->
<g id="edge5" class="edge"><title>Node4053&#45;&gt;Node4054</title>
<path fill="none" stroke="midnightblue" d="M890.108,-174.781C908.138,-174.985 927.297,-175.201 944.389,-175.394"/>
<polygon fill="midnightblue" stroke="midnightblue" points="889.977,-171.279 879.938,-174.666 889.898,-178.279 889.977,-171.279"/>
</g>
<!-- Node4058 -->
<g id="node10" class="node"><title>Node4058</title>
<g id="a_node10"><a xlink:href="class_send_coins_dialog.html#a82ed6a3badadaa523415e1924ebd292a" target="_top" xlink:title="SendCoinsDialog::handlePayment\lRequest">
<polygon fill="white" stroke="black" points="548,-115 548,-145 714,-145 714,-115 548,-115"/>
<text text-anchor="start" x="556" y="-133" font-family="Helvetica,sans-Serif" font-size="10.00">SendCoinsDialog::handlePayment</text>
<text text-anchor="middle" x="631" y="-122" font-family="Helvetica,sans-Serif" font-size="10.00">Request</text>
</a>
</g>
</g>
<!-- Node4057&#45;&gt;Node4058 -->
<g id="edge9" class="edge"><title>Node4057&#45;&gt;Node4058</title>
<path fill="none" stroke="midnightblue" d="M518.345,-126.547C528.131,-126.849 538.12,-127.158 547.902,-127.461"/>
<polygon fill="midnightblue" stroke="midnightblue" points="518.342,-123.045 508.238,-126.234 518.125,-130.042 518.342,-123.045"/>
</g>
<!-- Node4059 -->
<g id="node11" class="node"><title>Node4059</title>
<g id="a_node11"><a xlink:href="class_wallet_view.html#a0ae21d91a9d7755026ce2a6846cef68d" target="_top" xlink:title="WalletView::handlePayment\lRequest">
<polygon fill="white" stroke="black" points="750,-113 750,-143 890,-143 890,-113 750,-113"/>
<text text-anchor="start" x="758" y="-131" font-family="Helvetica,sans-Serif" font-size="10.00">WalletView::handlePayment</text>
<text text-anchor="middle" x="820" y="-120" font-family="Helvetica,sans-Serif" font-size="10.00">Request</text>
</a>
</g>
</g>
<!-- Node4058&#45;&gt;Node4059 -->
<g id="edge10" class="edge"><title>Node4058&#45;&gt;Node4059</title>
<path fill="none" stroke="midnightblue" d="M724.165,-129.014C732.828,-128.922 741.506,-128.829 749.901,-128.739"/>
<polygon fill="midnightblue" stroke="midnightblue" points="723.983,-125.516 714.021,-129.123 724.058,-132.516 723.983,-125.516"/>
</g>
<!-- Node4060 -->
<g id="node12" class="node"><title>Node4060</title>
<g id="a_node12"><a xlink:href="class_wallet_frame.html#aa8c5b10f2240df164795619ca41c619c" target="_top" xlink:title="WalletFrame::handlePayment\lRequest">
<polygon fill="white" stroke="black" points="926,-112 926,-142 1072,-142 1072,-112 926,-112"/>
<text text-anchor="start" x="934" y="-130" font-family="Helvetica,sans-Serif" font-size="10.00">WalletFrame::handlePayment</text>
<text text-anchor="middle" x="999" y="-119" font-family="Helvetica,sans-Serif" font-size="10.00">Request</text>
</a>
</g>
</g>
<!-- Node4059&#45;&gt;Node4060 -->
<g id="edge11" class="edge"><title>Node4059&#45;&gt;Node4060</title>
<path fill="none" stroke="midnightblue" d="M900.465,-127.551C908.949,-127.503 917.545,-127.455 925.937,-127.407"/>
<polygon fill="midnightblue" stroke="midnightblue" points="900.173,-124.053 890.193,-127.609 900.213,-131.052 900.173,-124.053"/>
</g>
<!-- Node4061&#45;&gt;Node4050 -->
<g id="edge13" class="edge"><title>Node4061&#45;&gt;Node4050</title>
<path fill="none" stroke="midnightblue" d="M408.568,-22.4835C393.557,-26.7988 374.354,-31.5778 358,-38 330.505,-48.7972 301.193,-65.4827 280.809,-76.4141"/>
<polygon fill="midnightblue" stroke="midnightblue" points="409.654,-25.8117 418.204,-19.5555 407.619,-19.114 409.654,-25.8117"/>
</g>
<!-- Node4063 -->
<g id="node15" class="node"><title>Node4063</title>
<g id="a_node15"><a xlink:href="class_wallet_view.html#a2a70c2b00b097dd7b83b6915bb037ea3" target="_top" xlink:title="Switch to send coins page. ">
<polygon fill="white" stroke="black" points="550.5,-27.5 550.5,-46.5 711.5,-46.5 711.5,-27.5 550.5,-27.5"/>
<text text-anchor="middle" x="631" y="-34.5" font-family="Helvetica,sans-Serif" font-size="10.00">WalletView::gotoSendCoinsPage</text>
</a>
</g>
</g>
<!-- Node4062&#45;&gt;Node4063 -->
<g id="edge16" class="edge"><title>Node4062&#45;&gt;Node4063</title>
<path fill="none" stroke="midnightblue" d="M519.241,-43.2801C529.503,-42.6983 539.974,-42.1045 550.183,-41.5257"/>
<polygon fill="midnightblue" stroke="midnightblue" points="518.852,-39.7965 509.067,-43.857 519.249,-46.7852 518.852,-39.7965"/>
</g>
</g>
</svg>
