<?xml version="1.0" encoding="UTF-8" standalone="no"?>
<!DOCTYPE svg PUBLIC "-//W3C//DTD SVG 1.1//EN"
 "http://www.w3.org/Graphics/SVG/1.1/DTD/svg11.dtd">
<!-- Generated by graphviz version 2.38.0 (20140413.2041)
 -->
<!-- Title: AES256Decrypt Pages: 1 -->
<svg width="100pt" height="162pt"
 viewBox="0.00 0.00 100.00 162.00" xmlns="http://www.w3.org/2000/svg" xmlns:xlink="http://www.w3.org/1999/xlink">
<g id="graph0" class="graph" transform="scale(1 1) rotate(0) translate(4 158)">
<title>AES256Decrypt</title>
<polygon fill="white" stroke="none" points="-4,4 -4,-158 96,-158 96,4 -4,4"/>
<!-- Node1 -->
<g id="node1" class="node"><title>Node1</title>
<polygon fill="#bfbfbf" stroke="black" points="0,-0.5 0,-19.5 92,-19.5 92,-0.5 0,-0.5"/>
<text text-anchor="middle" x="46" y="-7.5" font-family="Helvetica,sans-Serif" font-size="10.00">AES256Decrypt</text>
</g>
<!-- Node2 -->
<g id="node2" class="node"><title>Node2</title>
<g id="a_node2"><a xlink:href="struct_a_e_s256__ctx.html" target="_top" xlink:title="AES256_ctx">
<polygon fill="white" stroke="black" points="9,-67.5 9,-86.5 83,-86.5 83,-67.5 9,-67.5"/>
<text text-anchor="middle" x="46" y="-74.5" font-family="Helvetica,sans-Serif" font-size="10.00">AES256_ctx</text>
</a>
</g>
</g>
<!-- Node2&#45;&gt;Node1 -->
<g id="edge1" class="edge"><title>Node2&#45;&gt;Node1</title>
<path fill="none" stroke="#9a32cd" stroke-dasharray="5,2" d="M46,-57.037C46,-44.6703 46,-29.1198 46,-19.6273"/>
<polygon fill="#9a32cd" stroke="#9a32cd" points="42.5001,-57.2338 46,-67.2338 49.5001,-57.2338 42.5001,-57.2338"/>
<text text-anchor="middle" x="55" y="-41" font-family="Helvetica,sans-Serif" font-size="10.00"> ctx</text>
</g>
<!-- Node3 -->
<g id="node3" class="node"><title>Node3</title>
<g id="a_node3"><a xlink:href="struct_a_e_s__state.html" target="_top" xlink:title="AES_state">
<polygon fill="white" stroke="black" points="13,-134.5 13,-153.5 79,-153.5 79,-134.5 13,-134.5"/>
<text text-anchor="middle" x="46" y="-141.5" font-family="Helvetica,sans-Serif" font-size="10.00">AES_state</text>
</a>
</g>
</g>
<!-- Node3&#45;&gt;Node2 -->
<g id="edge2" class="edge"><title>Node3&#45;&gt;Node2</title>
<path fill="none" stroke="#9a32cd" stroke-dasharray="5,2" d="M46,-124.037C46,-111.67 46,-96.1198 46,-86.6273"/>
<polygon fill="#9a32cd" stroke="#9a32cd" points="42.5001,-124.234 46,-134.234 49.5001,-124.234 42.5001,-124.234"/>
<text text-anchor="middle" x="52.5" y="-108" font-family="Helvetica,sans-Serif" font-size="10.00"> rk</text>
</g>
</g>
</svg>
