<?xml version="1.0" encoding="UTF-8" standalone="no"?>
<!DOCTYPE svg PUBLIC "-//W3C//DTD SVG 1.1//EN"
 "http://www.w3.org/Graphics/SVG/1.1/DTD/svg11.dtd">
<!-- Generated by graphviz version 2.38.0 (20140413.2041)
 -->
<!-- Title: OverviewPage::privateSendReset Pages: 1 -->
<svg width="718pt" height="164pt"
 viewBox="0.00 0.00 718.00 163.50" xmlns="http://www.w3.org/2000/svg" xmlns:xlink="http://www.w3.org/1999/xlink">
<g id="graph0" class="graph" transform="scale(1 1) rotate(0) translate(4 159.5)">
<title>OverviewPage::privateSendReset</title>
<polygon fill="white" stroke="none" points="-4,4 -4,-159.5 714,-159.5 714,4 -4,4"/>
<!-- Node573 -->
<g id="node1" class="node"><title>Node573</title>
<polygon fill="#bfbfbf" stroke="black" points="0,-76 0,-106 138,-106 138,-76 0,-76"/>
<text text-anchor="start" x="8" y="-94" font-family="Helvetica,sans-Serif" font-size="10.00">OverviewPage::privateSend</text>
<text text-anchor="middle" x="69" y="-83" font-family="Helvetica,sans-Serif" font-size="10.00">Reset</text>
</g>
<!-- Node574 -->
<g id="node2" class="node"><title>Node574</title>
<g id="a_node2"><a xlink:href="class_c_private_send_client.html#ac311fe13f1289e5df9a4420d58d06d09" target="_top" xlink:title="CPrivateSendClient\l::ResetPool">
<polygon fill="white" stroke="black" points="174,-76 174,-106 277,-106 277,-76 174,-76"/>
<text text-anchor="start" x="182" y="-94" font-family="Helvetica,sans-Serif" font-size="10.00">CPrivateSendClient</text>
<text text-anchor="middle" x="225.5" y="-83" font-family="Helvetica,sans-Serif" font-size="10.00">::ResetPool</text>
</a>
</g>
</g>
<!-- Node573&#45;&gt;Node574 -->
<g id="edge1" class="edge"><title>Node573&#45;&gt;Node574</title>
<path fill="none" stroke="midnightblue" d="M138.216,-91C146.721,-91 155.375,-91 163.757,-91"/>
<polygon fill="midnightblue" stroke="midnightblue" points="163.817,-94.5001 173.817,-91 163.817,-87.5001 163.817,-94.5001"/>
</g>
<!-- Node575 -->
<g id="node3" class="node"><title>Node575</title>
<g id="a_node3"><a xlink:href="class_c_key_holder_storage.html#a2972b44b9a01abc94c7b34b14f933ad6" target="_top" xlink:title="CKeyHolderStorage::\lReturnAll">
<polygon fill="white" stroke="black" points="313,-125 313,-155 423,-155 423,-125 313,-125"/>
<text text-anchor="start" x="321" y="-143" font-family="Helvetica,sans-Serif" font-size="10.00">CKeyHolderStorage::</text>
<text text-anchor="middle" x="368" y="-132" font-family="Helvetica,sans-Serif" font-size="10.00">ReturnAll</text>
</a>
</g>
</g>
<!-- Node574&#45;&gt;Node575 -->
<g id="edge2" class="edge"><title>Node574&#45;&gt;Node575</title>
<path fill="none" stroke="midnightblue" d="M269.801,-106.101C283.689,-110.945 299.234,-116.366 313.749,-121.428"/>
<polygon fill="midnightblue" stroke="midnightblue" points="313.005,-124.876 323.6,-124.864 315.31,-118.266 313.005,-124.876"/>
</g>
<!-- Node576 -->
<g id="node4" class="node"><title>Node576</title>
<g id="a_node4"><a xlink:href="class_c_private_send_client.html#aff245581dce471708bea6a425ca5b533" target="_top" xlink:title="CPrivateSendClient\l::SetNull">
<polygon fill="white" stroke="black" points="316.5,-76 316.5,-106 419.5,-106 419.5,-76 316.5,-76"/>
<text text-anchor="start" x="324.5" y="-94" font-family="Helvetica,sans-Serif" font-size="10.00">CPrivateSendClient</text>
<text text-anchor="middle" x="368" y="-83" font-family="Helvetica,sans-Serif" font-size="10.00">::SetNull</text>
</a>
</g>
</g>
<!-- Node574&#45;&gt;Node576 -->
<g id="edge3" class="edge"><title>Node574&#45;&gt;Node576</title>
<path fill="none" stroke="midnightblue" d="M277.224,-91C286.674,-91 296.637,-91 306.351,-91"/>
<polygon fill="midnightblue" stroke="midnightblue" points="306.351,-94.5001 316.351,-91 306.351,-87.5001 306.351,-94.5001"/>
</g>
<!-- Node579 -->
<g id="node7" class="node"><title>Node579</title>
<g id="a_node7"><a xlink:href="class_c_private_send_client.html#af8a649a4aa27cb51eb94384232d7b49e" target="_top" xlink:title="CPrivateSendClient\l::UnlockCoins">
<polygon fill="white" stroke="black" points="316.5,-27 316.5,-57 419.5,-57 419.5,-27 316.5,-27"/>
<text text-anchor="start" x="324.5" y="-45" font-family="Helvetica,sans-Serif" font-size="10.00">CPrivateSendClient</text>
<text text-anchor="middle" x="368" y="-34" font-family="Helvetica,sans-Serif" font-size="10.00">::UnlockCoins</text>
</a>
</g>
</g>
<!-- Node574&#45;&gt;Node579 -->
<g id="edge6" class="edge"><title>Node574&#45;&gt;Node579</title>
<path fill="none" stroke="midnightblue" d="M269.801,-75.8986C283.689,-71.0549 299.234,-65.6336 313.749,-60.5715"/>
<polygon fill="midnightblue" stroke="midnightblue" points="315.31,-63.7338 323.6,-57.1359 313.005,-57.1242 315.31,-63.7338"/>
</g>
<!-- Node577 -->
<g id="node5" class="node"><title>Node577</title>
<g id="a_node5"><a xlink:href="class_c_private_send_base.html#a0391a4e1597763c859634cec88428190" target="_top" xlink:title="CPrivateSendBase::SetNull">
<polygon fill="white" stroke="black" points="459,-81.5 459,-100.5 597,-100.5 597,-81.5 459,-81.5"/>
<text text-anchor="middle" x="528" y="-88.5" font-family="Helvetica,sans-Serif" font-size="10.00">CPrivateSendBase::SetNull</text>
</a>
</g>
</g>
<!-- Node576&#45;&gt;Node577 -->
<g id="edge4" class="edge"><title>Node576&#45;&gt;Node577</title>
<path fill="none" stroke="midnightblue" d="M419.862,-91C429.102,-91 438.932,-91 448.747,-91"/>
<polygon fill="midnightblue" stroke="midnightblue" points="448.944,-94.5001 458.944,-91 448.944,-87.5001 448.944,-94.5001"/>
</g>
<!-- Node578 -->
<g id="node6" class="node"><title>Node578</title>
<g id="a_node6"><a xlink:href="utiltime_8cpp.html#a139d0fe6387b9e230a9b8bb12d9b43b9" target="_top" xlink:title="GetTimeMillis">
<polygon fill="white" stroke="black" points="633,-81.5 633,-100.5 710,-100.5 710,-81.5 633,-81.5"/>
<text text-anchor="middle" x="671.5" y="-88.5" font-family="Helvetica,sans-Serif" font-size="10.00">GetTimeMillis</text>
</a>
</g>
</g>
<!-- Node577&#45;&gt;Node578 -->
<g id="edge5" class="edge"><title>Node577&#45;&gt;Node578</title>
<path fill="none" stroke="midnightblue" d="M597.263,-91C605.909,-91 614.605,-91 622.833,-91"/>
<polygon fill="midnightblue" stroke="midnightblue" points="622.967,-94.5001 632.967,-91 622.967,-87.5001 622.967,-94.5001"/>
</g>
<!-- Node580 -->
<g id="node8" class="node"><title>Node580</title>
<g id="a_node8"><a xlink:href="utiltime_8cpp.html#ac635182d3e845eda4af4fa5ab31609da" target="_top" xlink:title="MilliSleep">
<polygon fill="white" stroke="black" points="498.5,-38.5 498.5,-57.5 557.5,-57.5 557.5,-38.5 498.5,-38.5"/>
<text text-anchor="middle" x="528" y="-45.5" font-family="Helvetica,sans-Serif" font-size="10.00">MilliSleep</text>
</a>
</g>
</g>
<!-- Node579&#45;&gt;Node580 -->
<g id="edge7" class="edge"><title>Node579&#45;&gt;Node580</title>
<path fill="none" stroke="midnightblue" d="M419.862,-43.9315C441.986,-44.7716 467.498,-45.7404 488.075,-46.5218"/>
<polygon fill="midnightblue" stroke="midnightblue" points="488.216,-50.0296 498.342,-46.9117 488.482,-43.0347 488.216,-50.0296"/>
</g>
<!-- Node581 -->
<g id="node9" class="node"><title>Node581</title>
<g id="a_node9"><a xlink:href="group___actions.html#gabd60f5b890e2c62c05c6a2de6322197f" target="_top" xlink:title="CWallet::UnlockCoin">
<polygon fill="white" stroke="black" points="473.5,-0.5 473.5,-19.5 582.5,-19.5 582.5,-0.5 473.5,-0.5"/>
<text text-anchor="middle" x="528" y="-7.5" font-family="Helvetica,sans-Serif" font-size="10.00">CWallet::UnlockCoin</text>
</a>
</g>
</g>
<!-- Node579&#45;&gt;Node581 -->
<g id="edge8" class="edge"><title>Node579&#45;&gt;Node581</title>
<path fill="none" stroke="midnightblue" d="M419.862,-31.6989C435.849,-28.4609 453.605,-24.8648 469.989,-21.5465"/>
<polygon fill="midnightblue" stroke="midnightblue" points="470.88,-24.9373 479.986,-19.5219 469.49,-18.0766 470.88,-24.9373"/>
</g>
</g>
</svg>
