<?xml version="1.0" encoding="UTF-8" standalone="no"?>
<!DOCTYPE svg PUBLIC "-//W3C//DTD SVG 1.1//EN"
 "http://www.w3.org/Graphics/SVG/1.1/DTD/svg11.dtd">
<!-- Generated by graphviz version 2.38.0 (20140413.2041)
 -->
<!-- Title: CPubKey::Set Pages: 1 -->
<svg width="1177pt" height="897pt"
 viewBox="0.00 0.00 1177.00 896.50" xmlns="http://www.w3.org/2000/svg" xmlns:xlink="http://www.w3.org/1999/xlink">
<g id="graph0" class="graph" transform="scale(1 1) rotate(0) translate(4 892.5)">
<title>CPubKey::Set</title>
<polygon fill="white" stroke="none" points="-4,4 -4,-892.5 1173,-892.5 1173,4 -4,4"/>
<!-- Node1715 -->
<g id="node1" class="node"><title>Node1715</title>
<polygon fill="#bfbfbf" stroke="black" points="0,-587.5 0,-606.5 80,-606.5 80,-587.5 0,-587.5"/>
<text text-anchor="middle" x="40" y="-594.5" font-family="Helvetica,sans-Serif" font-size="10.00">CPubKey::Set</text>
</g>
<!-- Node1716 -->
<g id="node2" class="node"><title>Node1716</title>
<g id="a_node2"><a xlink:href="class_c_pub_key.html#a8c7527b40c96bfb8f48b669764301df8" target="_top" xlink:title="Construct a public key using begin/end iterators to byte data. ">
<polygon fill="white" stroke="black" points="133,-682.5 133,-701.5 240,-701.5 240,-682.5 133,-682.5"/>
<text text-anchor="middle" x="186.5" y="-689.5" font-family="Helvetica,sans-Serif" font-size="10.00">CPubKey::CPubKey</text>
</a>
</g>
</g>
<!-- Node1715&#45;&gt;Node1716 -->
<g id="edge1" class="edge"><title>Node1715&#45;&gt;Node1716</title>
<path fill="none" stroke="midnightblue" d="M53.907,-614.697C67.477,-632.047 90.3859,-658.011 116,-673 122.586,-676.854 129.979,-679.95 137.421,-682.43"/>
<polygon fill="midnightblue" stroke="midnightblue" points="56.53,-612.363 47.6972,-606.513 50.9535,-616.595 56.53,-612.363"/>
</g>
<!-- Node1717 -->
<g id="node3" class="node"><title>Node1717</title>
<g id="a_node3"><a xlink:href="struct_c_ext_pub_key.html#aa3ca44410ecfa765962d3b97aef61ab5" target="_top" xlink:title="CExtPubKey::Decode">
<polygon fill="white" stroke="black" points="130,-644.5 130,-663.5 243,-663.5 243,-644.5 130,-644.5"/>
<text text-anchor="middle" x="186.5" y="-651.5" font-family="Helvetica,sans-Serif" font-size="10.00">CExtPubKey::Decode</text>
</a>
</g>
</g>
<!-- Node1715&#45;&gt;Node1717 -->
<g id="edge2" class="edge"><title>Node1715&#45;&gt;Node1717</title>
<path fill="none" stroke="midnightblue" d="M66.6794,-611.64C80.8957,-619.325 99.0687,-628.474 116,-635 125.221,-638.554 135.369,-641.724 144.994,-644.409"/>
<polygon fill="midnightblue" stroke="midnightblue" points="67.9813,-608.361 57.5333,-606.603 64.6047,-614.493 67.9813,-608.361"/>
</g>
<!-- Node1719 -->
<g id="node5" class="node"><title>Node1719</title>
<g id="a_node5"><a xlink:href="class_c_pub_key.html#a572689418fecf47b300a11519bc3da36" target="_top" xlink:title="Turn this public key into an uncompressed public key. ">
<polygon fill="white" stroke="black" points="126.5,-606.5 126.5,-625.5 246.5,-625.5 246.5,-606.5 126.5,-606.5"/>
<text text-anchor="middle" x="186.5" y="-613.5" font-family="Helvetica,sans-Serif" font-size="10.00">CPubKey::Decompress</text>
</a>
</g>
</g>
<!-- Node1715&#45;&gt;Node1719 -->
<g id="edge4" class="edge"><title>Node1715&#45;&gt;Node1719</title>
<path fill="none" stroke="midnightblue" d="M90.0627,-603.451C101.698,-604.981 114.231,-606.629 126.265,-608.211"/>
<polygon fill="midnightblue" stroke="midnightblue" points="90.4748,-599.975 80.1038,-602.142 89.5621,-606.916 90.4748,-599.975"/>
</g>
<!-- Node1722 -->
<g id="node8" class="node"><title>Node1722</title>
<g id="a_node8"><a xlink:href="class_c_pub_key.html#ac28722f47ab8a613bf9982608d13aa1f" target="_top" xlink:title="Derive BIP32 child pubkey. ">
<polygon fill="white" stroke="black" points="140,-568.5 140,-587.5 233,-587.5 233,-568.5 140,-568.5"/>
<text text-anchor="middle" x="186.5" y="-575.5" font-family="Helvetica,sans-Serif" font-size="10.00">CPubKey::Derive</text>
</a>
</g>
</g>
<!-- Node1715&#45;&gt;Node1722 -->
<g id="edge7" class="edge"><title>Node1715&#45;&gt;Node1722</title>
<path fill="none" stroke="midnightblue" d="M90.3802,-590.507C106.445,-588.395 124.192,-586.061 139.963,-583.988"/>
<polygon fill="midnightblue" stroke="midnightblue" points="89.5621,-587.084 80.1038,-591.858 90.4748,-594.025 89.5621,-587.084"/>
</g>
<!-- Node1724 -->
<g id="node10" class="node"><title>Node1724</title>
<g id="a_node10"><a xlink:href="class_c_script_compressor.html#a19a67455a106e2e0528bc97cb60d2391" target="_top" xlink:title="CScriptCompressor::\lIsToPubKey">
<polygon fill="white" stroke="black" points="132,-519 132,-549 241,-549 241,-519 132,-519"/>
<text text-anchor="start" x="140" y="-537" font-family="Helvetica,sans-Serif" font-size="10.00">CScriptCompressor::</text>
<text text-anchor="middle" x="186.5" y="-526" font-family="Helvetica,sans-Serif" font-size="10.00">IsToPubKey</text>
</a>
</g>
</g>
<!-- Node1715&#45;&gt;Node1724 -->
<g id="edge9" class="edge"><title>Node1715&#45;&gt;Node1724</title>
<path fill="none" stroke="midnightblue" d="M67.4548,-582.587C81.647,-575.113 99.5554,-566.091 116,-559 124.007,-555.547 132.664,-552.165 141.06,-549.059"/>
<polygon fill="midnightblue" stroke="midnightblue" points="65.4671,-579.68 58.2868,-587.471 68.7582,-585.858 65.4671,-579.68"/>
</g>
<!-- Node1728 -->
<g id="node14" class="node"><title>Node1728</title>
<g id="a_node14"><a xlink:href="class_c_pub_key.html#a169505e735a02db385486b0affeb565c" target="_top" xlink:title="Recover a public key from a compact signature. ">
<polygon fill="white" stroke="black" points="116,-445.5 116,-464.5 257,-464.5 257,-445.5 116,-445.5"/>
<text text-anchor="middle" x="186.5" y="-452.5" font-family="Helvetica,sans-Serif" font-size="10.00">CPubKey::RecoverCompact</text>
</a>
</g>
</g>
<!-- Node1715&#45;&gt;Node1728 -->
<g id="edge13" class="edge"><title>Node1715&#45;&gt;Node1728</title>
<path fill="none" stroke="midnightblue" d="M54.5948,-579.32C68.9705,-561.103 92.7446,-532.299 116,-510 134.103,-492.641 157.329,-475.09 171.815,-464.629"/>
<polygon fill="midnightblue" stroke="midnightblue" points="51.7305,-577.302 48.336,-587.338 57.2484,-581.609 51.7305,-577.302"/>
</g>
<!-- Node1718 -->
<g id="node4" class="node"><title>Node1718</title>
<g id="a_node4"><a xlink:href="struct_c_ext_pub_key.html#a929ebe0d428cc3e8d9827568e65038ac" target="_top" xlink:title="CExtPubKey::Unserialize">
<polygon fill="white" stroke="black" points="294.5,-656.5 294.5,-675.5 422.5,-675.5 422.5,-656.5 294.5,-656.5"/>
<text text-anchor="middle" x="358.5" y="-663.5" font-family="Helvetica,sans-Serif" font-size="10.00">CExtPubKey::Unserialize</text>
</a>
</g>
</g>
<!-- Node1717&#45;&gt;Node1718 -->
<g id="edge3" class="edge"><title>Node1717&#45;&gt;Node1718</title>
<path fill="none" stroke="midnightblue" d="M253.317,-658.646C266.799,-659.598 280.96,-660.597 294.346,-661.542"/>
<polygon fill="midnightblue" stroke="midnightblue" points="253.386,-655.142 243.164,-657.929 252.893,-662.125 253.386,-655.142"/>
</g>
<!-- Node1720 -->
<g id="node6" class="node"><title>Node1720</title>
<g id="a_node6"><a xlink:href="class_c_script_compressor.html#a1feb663ddab3a45218c7cb02f2a25717" target="_top" xlink:title="CScriptCompressor::\lDecompress">
<polygon fill="white" stroke="black" points="304,-607 304,-637 413,-637 413,-607 304,-607"/>
<text text-anchor="start" x="312" y="-625" font-family="Helvetica,sans-Serif" font-size="10.00">CScriptCompressor::</text>
<text text-anchor="middle" x="358.5" y="-614" font-family="Helvetica,sans-Serif" font-size="10.00">Decompress</text>
</a>
</g>
</g>
<!-- Node1719&#45;&gt;Node1720 -->
<g id="edge5" class="edge"><title>Node1719&#45;&gt;Node1720</title>
<path fill="none" stroke="midnightblue" d="M257.068,-618.455C272.646,-619.005 288.938,-619.58 303.758,-620.103"/>
<polygon fill="midnightblue" stroke="midnightblue" points="257.075,-614.954 246.958,-618.099 256.828,-621.949 257.075,-614.954"/>
</g>
<!-- Node1721 -->
<g id="node7" class="node"><title>Node1721</title>
<g id="a_node7"><a xlink:href="class_c_script_compressor.html#a016fa6e3d2735d95fcf773271da073d5" target="_top" xlink:title="CScriptCompressor::\lUnserialize">
<polygon fill="white" stroke="black" points="487,-607 487,-637 596,-637 596,-607 487,-607"/>
<text text-anchor="start" x="495" y="-625" font-family="Helvetica,sans-Serif" font-size="10.00">CScriptCompressor::</text>
<text text-anchor="middle" x="541.5" y="-614" font-family="Helvetica,sans-Serif" font-size="10.00">Unserialize</text>
</a>
</g>
</g>
<!-- Node1720&#45;&gt;Node1721 -->
<g id="edge6" class="edge"><title>Node1720&#45;&gt;Node1721</title>
<path fill="none" stroke="midnightblue" d="M423.328,-622C444.105,-622 466.941,-622 486.891,-622"/>
<polygon fill="midnightblue" stroke="midnightblue" points="423.316,-618.5 413.316,-622 423.316,-625.5 423.316,-618.5"/>
</g>
<!-- Node1723 -->
<g id="node9" class="node"><title>Node1723</title>
<g id="a_node9"><a xlink:href="struct_c_ext_pub_key.html#a2dae8fcc00b9617589dd0b1444f95ec8" target="_top" xlink:title="CExtPubKey::Derive">
<polygon fill="white" stroke="black" points="304.5,-568.5 304.5,-587.5 412.5,-587.5 412.5,-568.5 304.5,-568.5"/>
<text text-anchor="middle" x="358.5" y="-575.5" font-family="Helvetica,sans-Serif" font-size="10.00">CExtPubKey::Derive</text>
</a>
</g>
</g>
<!-- Node1722&#45;&gt;Node1723 -->
<g id="edge8" class="edge"><title>Node1722&#45;&gt;Node1723</title>
<path fill="none" stroke="midnightblue" d="M243.095,-578C262.758,-578 284.816,-578 304.277,-578"/>
<polygon fill="midnightblue" stroke="midnightblue" points="243.057,-574.5 233.057,-578 243.057,-581.5 243.057,-574.5"/>
</g>
<!-- Node1725 -->
<g id="node11" class="node"><title>Node1725</title>
<g id="a_node11"><a xlink:href="class_c_script_compressor.html#a563ba251e7720841b4d5fc30ebd736e6" target="_top" xlink:title="CScriptCompressor::\lCompress">
<polygon fill="white" stroke="black" points="304,-519 304,-549 413,-549 413,-519 304,-519"/>
<text text-anchor="start" x="312" y="-537" font-family="Helvetica,sans-Serif" font-size="10.00">CScriptCompressor::</text>
<text text-anchor="middle" x="358.5" y="-526" font-family="Helvetica,sans-Serif" font-size="10.00">Compress</text>
</a>
</g>
</g>
<!-- Node1724&#45;&gt;Node1725 -->
<g id="edge10" class="edge"><title>Node1724&#45;&gt;Node1725</title>
<path fill="none" stroke="midnightblue" d="M251.295,-534C268.575,-534 287.104,-534 303.769,-534"/>
<polygon fill="midnightblue" stroke="midnightblue" points="251.289,-530.5 241.289,-534 251.289,-537.5 251.289,-530.5"/>
</g>
<!-- Node1726 -->
<g id="node12" class="node"><title>Node1726</title>
<g id="a_node12"><a xlink:href="class_c_script_compressor.html#afd6f2bea6c0ba2d34f770997e96bc23d" target="_top" xlink:title="CScriptCompressor::\lGetSerializeSize">
<polygon fill="white" stroke="black" points="487,-538 487,-568 596,-568 596,-538 487,-538"/>
<text text-anchor="start" x="495" y="-556" font-family="Helvetica,sans-Serif" font-size="10.00">CScriptCompressor::</text>
<text text-anchor="middle" x="541.5" y="-545" font-family="Helvetica,sans-Serif" font-size="10.00">GetSerializeSize</text>
</a>
</g>
</g>
<!-- Node1725&#45;&gt;Node1726 -->
<g id="edge11" class="edge"><title>Node1725&#45;&gt;Node1726</title>
<path fill="none" stroke="midnightblue" d="M423.328,-540.7C444.105,-542.881 466.941,-545.278 486.891,-547.373"/>
<polygon fill="midnightblue" stroke="midnightblue" points="423.627,-537.212 413.316,-539.649 422.896,-544.174 423.627,-537.212"/>
</g>
<!-- Node1727 -->
<g id="node13" class="node"><title>Node1727</title>
<g id="a_node13"><a xlink:href="class_c_script_compressor.html#a5702b644df500ddd11c56d0490e8be44" target="_top" xlink:title="CScriptCompressor::\lSerialize">
<polygon fill="white" stroke="black" points="487,-489 487,-519 596,-519 596,-489 487,-489"/>
<text text-anchor="start" x="495" y="-507" font-family="Helvetica,sans-Serif" font-size="10.00">CScriptCompressor::</text>
<text text-anchor="middle" x="541.5" y="-496" font-family="Helvetica,sans-Serif" font-size="10.00">Serialize</text>
</a>
</g>
</g>
<!-- Node1725&#45;&gt;Node1727 -->
<g id="edge12" class="edge"><title>Node1725&#45;&gt;Node1727</title>
<path fill="none" stroke="midnightblue" d="M423.328,-523.421C444.105,-519.977 466.941,-516.192 486.891,-512.885"/>
<polygon fill="midnightblue" stroke="midnightblue" points="422.609,-519.992 413.316,-525.08 423.754,-526.898 422.609,-519.992"/>
</g>
<!-- Node1729 -->
<g id="node15" class="node"><title>Node1729</title>
<g id="a_node15"><a xlink:href="class_sign_verify_message_dialog.html#ae37dec200b27f23c409221511447ae1e" target="_top" xlink:title="SignVerifyMessageDialog\l::on_verifyMessageButton\l_VM_clicked">
<polygon fill="white" stroke="black" points="293,-459.5 293,-500.5 424,-500.5 424,-459.5 293,-459.5"/>
<text text-anchor="start" x="301" y="-488.5" font-family="Helvetica,sans-Serif" font-size="10.00">SignVerifyMessageDialog</text>
<text text-anchor="start" x="301" y="-477.5" font-family="Helvetica,sans-Serif" font-size="10.00">::on_verifyMessageButton</text>
<text text-anchor="middle" x="358.5" y="-466.5" font-family="Helvetica,sans-Serif" font-size="10.00">_VM_clicked</text>
</a>
</g>
</g>
<!-- Node1728&#45;&gt;Node1729 -->
<g id="edge14" class="edge"><title>Node1728&#45;&gt;Node1729</title>
<path fill="none" stroke="midnightblue" d="M262.358,-466.008C272.549,-467.507 282.937,-469.035 292.925,-470.504"/>
<polygon fill="midnightblue" stroke="midnightblue" points="262.658,-462.515 252.255,-464.523 261.639,-469.441 262.658,-462.515"/>
</g>
<!-- Node1730 -->
<g id="node16" class="node"><title>Node1730</title>
<g id="a_node16"><a xlink:href="class_c_hash_signer.html#a941bca56ae42ff938656c805a1ddc78e" target="_top" xlink:title="Verify the hash signature, returns true if succcessful. ">
<polygon fill="white" stroke="black" points="293.5,-421.5 293.5,-440.5 423.5,-440.5 423.5,-421.5 293.5,-421.5"/>
<text text-anchor="middle" x="358.5" y="-428.5" font-family="Helvetica,sans-Serif" font-size="10.00">CHashSigner::VerifyHash</text>
</a>
</g>
</g>
<!-- Node1728&#45;&gt;Node1730 -->
<g id="edge15" class="edge"><title>Node1728&#45;&gt;Node1730</title>
<path fill="none" stroke="midnightblue" d="M265.302,-444.016C274.696,-442.69 284.208,-441.347 293.374,-440.053"/>
<polygon fill="midnightblue" stroke="midnightblue" points="264.589,-440.582 255.177,-445.446 265.568,-447.513 264.589,-440.582"/>
</g>
<!-- Node1823 -->
<g id="node50" class="node"><title>Node1823</title>
<g id="a_node50"><a xlink:href="server_8h.html#a395e3289609c817a2605bd14d45ae641" target="_top" xlink:title="verifymessage">
<polygon fill="white" stroke="black" points="318.5,-383.5 318.5,-402.5 398.5,-402.5 398.5,-383.5 318.5,-383.5"/>
<text text-anchor="middle" x="358.5" y="-390.5" font-family="Helvetica,sans-Serif" font-size="10.00">verifymessage</text>
</a>
</g>
</g>
<!-- Node1728&#45;&gt;Node1823 -->
<g id="edge53" class="edge"><title>Node1728&#45;&gt;Node1823</title>
<path fill="none" stroke="midnightblue" d="M218.393,-441.45C239.258,-432.536 267.537,-420.914 293,-412 302.586,-408.644 313.105,-405.375 322.817,-402.521"/>
<polygon fill="midnightblue" stroke="midnightblue" points="216.879,-438.291 209.077,-445.46 219.646,-444.721 216.879,-438.291"/>
</g>
<!-- Node1731 -->
<g id="node17" class="node"><title>Node1731</title>
<g id="a_node17"><a xlink:href="class_c_message_signer.html#ab4189ffcd1472cac33f99a425faa4cec" target="_top" xlink:title="Verify the message signature, returns true if succcessful. ">
<polygon fill="white" stroke="black" points="460,-421.5 460,-440.5 623,-440.5 623,-421.5 460,-421.5"/>
<text text-anchor="middle" x="541.5" y="-428.5" font-family="Helvetica,sans-Serif" font-size="10.00">CMessageSigner::VerifyMessage</text>
</a>
</g>
</g>
<!-- Node1730&#45;&gt;Node1731 -->
<g id="edge16" class="edge"><title>Node1730&#45;&gt;Node1731</title>
<path fill="none" stroke="midnightblue" d="M433.57,-431C442.187,-431 451.009,-431 459.71,-431"/>
<polygon fill="midnightblue" stroke="midnightblue" points="433.569,-427.5 423.569,-431 433.569,-434.5 433.569,-427.5"/>
</g>
<!-- Node1732 -->
<g id="node18" class="node"><title>Node1732</title>
<g id="a_node18"><a xlink:href="class_c_masternode_ping.html#abceb3c43f2596257fec39fa8a4669f93" target="_top" xlink:title="CMasternodePing::CheckSignature">
<polygon fill="white" stroke="black" points="659,-863.5 659,-882.5 829,-882.5 829,-863.5 659,-863.5"/>
<text text-anchor="middle" x="744" y="-870.5" font-family="Helvetica,sans-Serif" font-size="10.00">CMasternodePing::CheckSignature</text>
</a>
</g>
</g>
<!-- Node1731&#45;&gt;Node1732 -->
<g id="edge17" class="edge"><title>Node1731&#45;&gt;Node1732</title>
<path fill="none" stroke="midnightblue" d="M579.964,-444.809C595.889,-452.647 613.047,-464.124 623,-480 667.35,-550.742 603.809,-791.347 659,-854 662.261,-857.702 666.078,-860.766 670.252,-863.294"/>
<polygon fill="midnightblue" stroke="midnightblue" points="581.343,-441.591 570.794,-440.609 578.428,-447.956 581.343,-441.591"/>
</g>
<!-- Node1753 -->
<g id="node20" class="node"><title>Node1753</title>
<g id="a_node20"><a xlink:href="class_c_spork_message.html#ad32681a192c7a5a1214cd38ee7d16296" target="_top" xlink:title="CSporkMessage::CheckSignature">
<polygon fill="white" stroke="black" points="661.5,-825.5 661.5,-844.5 826.5,-844.5 826.5,-825.5 661.5,-825.5"/>
<text text-anchor="middle" x="744" y="-832.5" font-family="Helvetica,sans-Serif" font-size="10.00">CSporkMessage::CheckSignature</text>
</a>
</g>
</g>
<!-- Node1731&#45;&gt;Node1753 -->
<g id="edge19" class="edge"><title>Node1731&#45;&gt;Node1753</title>
<path fill="none" stroke="midnightblue" d="M579.886,-444.858C595.795,-452.706 612.962,-464.178 623,-480 663.23,-543.409 609.06,-759.919 659,-816 662.381,-819.796 666.345,-822.92 670.679,-825.481"/>
<polygon fill="midnightblue" stroke="midnightblue" points="581.276,-441.645 570.728,-440.651 578.353,-448.006 581.276,-441.645"/>
</g>
<!-- Node1754 -->
<g id="node21" class="node"><title>Node1754</title>
<g id="a_node21"><a xlink:href="class_c_masternode_payment_vote.html#a07da3b083404cef1b60ed8b1305e4f0c" target="_top" xlink:title="CMasternodePaymentVote\l::CheckSignature">
<polygon fill="white" stroke="black" points="677,-776 677,-806 811,-806 811,-776 677,-776"/>
<text text-anchor="start" x="685" y="-794" font-family="Helvetica,sans-Serif" font-size="10.00">CMasternodePaymentVote</text>
<text text-anchor="middle" x="744" y="-783" font-family="Helvetica,sans-Serif" font-size="10.00">::CheckSignature</text>
</a>
</g>
</g>
<!-- Node1731&#45;&gt;Node1754 -->
<g id="edge20" class="edge"><title>Node1731&#45;&gt;Node1754</title>
<path fill="none" stroke="midnightblue" d="M579.405,-444.772C595.382,-452.642 612.742,-464.157 623,-480 692.631,-587.539 576.137,-668.292 659,-766 663.921,-771.802 670.123,-776.292 676.92,-779.76"/>
<polygon fill="midnightblue" stroke="midnightblue" points="580.769,-441.548 570.221,-440.555 577.848,-447.909 580.769,-441.548"/>
</g>
<!-- Node1755 -->
<g id="node22" class="node"><title>Node1755</title>
<g id="a_node22"><a xlink:href="class_c_tx_lock_vote.html#aca06d0758d607cd7461a3f800d9d4f20" target="_top" xlink:title="CTxLockVote::CheckSignature">
<polygon fill="white" stroke="black" points="668,-699.5 668,-718.5 820,-718.5 820,-699.5 668,-699.5"/>
<text text-anchor="middle" x="744" y="-706.5" font-family="Helvetica,sans-Serif" font-size="10.00">CTxLockVote::CheckSignature</text>
</a>
</g>
</g>
<!-- Node1731&#45;&gt;Node1755 -->
<g id="edge21" class="edge"><title>Node1731&#45;&gt;Node1755</title>
<path fill="none" stroke="midnightblue" d="M578.742,-444.811C594.745,-452.732 612.314,-464.276 623,-480 676.226,-558.321 593.827,-621.301 659,-690 662.602,-693.797 666.789,-696.91 671.333,-699.456"/>
<polygon fill="midnightblue" stroke="midnightblue" points="580.109,-441.588 569.564,-440.563 577.169,-447.94 580.109,-441.588"/>
</g>
<!-- Node1778 -->
<g id="node25" class="node"><title>Node1778</title>
<g id="a_node25"><a xlink:href="class_c_darksend_queue.html#a5d672b52114eef6e5cb4b469118f1815" target="_top" xlink:title="Check if we have a valid Masternode address. ">
<polygon fill="white" stroke="black" points="659,-661.5 659,-680.5 829,-680.5 829,-661.5 659,-661.5"/>
<text text-anchor="middle" x="744" y="-668.5" font-family="Helvetica,sans-Serif" font-size="10.00">CDarksendQueue::CheckSignature</text>
</a>
</g>
</g>
<!-- Node1731&#45;&gt;Node1778 -->
<g id="edge24" class="edge"><title>Node1731&#45;&gt;Node1778</title>
<path fill="none" stroke="midnightblue" d="M578.142,-444.817C594.179,-452.782 611.95,-464.363 623,-480 668.072,-543.783 604.221,-596.331 659,-652 662.67,-655.73 666.907,-658.795 671.487,-661.308"/>
<polygon fill="midnightblue" stroke="midnightblue" points="579.507,-441.592 568.964,-440.542 576.551,-447.937 579.507,-441.592"/>
</g>
<!-- Node1784 -->
<g id="node27" class="node"><title>Node1784</title>
<g id="a_node27"><a xlink:href="class_c_governance_object.html#ad41e5a106cd3980c726014aa99ea4536" target="_top" xlink:title="CGovernanceObject::\lCheckSignature">
<polygon fill="white" stroke="black" points="688.5,-612 688.5,-642 799.5,-642 799.5,-612 688.5,-612"/>
<text text-anchor="start" x="696.5" y="-630" font-family="Helvetica,sans-Serif" font-size="10.00">CGovernanceObject::</text>
<text text-anchor="middle" x="744" y="-619" font-family="Helvetica,sans-Serif" font-size="10.00">CheckSignature</text>
</a>
</g>
</g>
<!-- Node1731&#45;&gt;Node1784 -->
<g id="edge26" class="edge"><title>Node1731&#45;&gt;Node1784</title>
<path fill="none" stroke="midnightblue" d="M576.927,-444.868C593.013,-452.936 611.179,-464.591 623,-480 657.669,-525.194 618.594,-562.853 659,-603 666.962,-610.911 677.339,-616.253 688.071,-619.852"/>
<polygon fill="midnightblue" stroke="midnightblue" points="578.296,-441.644 567.76,-440.53 575.302,-447.971 578.296,-441.644"/>
</g>
<!-- Node1786 -->
<g id="node29" class="node"><title>Node1786</title>
<g id="a_node29"><a xlink:href="class_c_darksend_broadcast_tx.html#a9ad4625dc786673e99999cb0c81842c9" target="_top" xlink:title="CDarksendBroadcastTx\l::CheckSignature">
<polygon fill="white" stroke="black" points="683,-563 683,-593 805,-593 805,-563 683,-563"/>
<text text-anchor="start" x="691" y="-581" font-family="Helvetica,sans-Serif" font-size="10.00">CDarksendBroadcastTx</text>
<text text-anchor="middle" x="744" y="-570" font-family="Helvetica,sans-Serif" font-size="10.00">::CheckSignature</text>
</a>
</g>
</g>
<!-- Node1731&#45;&gt;Node1786 -->
<g id="edge28" class="edge"><title>Node1731&#45;&gt;Node1786</title>
<path fill="none" stroke="midnightblue" d="M574.516,-445.078C590.638,-453.409 609.559,-465.232 623,-480 647.618,-507.049 630.983,-530.49 659,-554 665.971,-559.85 674.289,-564.276 682.939,-567.624"/>
<polygon fill="midnightblue" stroke="midnightblue" points="575.926,-441.871 565.41,-440.581 572.826,-448.147 575.926,-441.871"/>
</g>
<!-- Node1790 -->
<g id="node32" class="node"><title>Node1790</title>
<g id="a_node32"><a xlink:href="class_c_masternode_broadcast.html#a12769e5247ac34008e887ba6bb04496a" target="_top" xlink:title="CMasternodeBroadcast\l::CheckSignature">
<polygon fill="white" stroke="black" points="684.5,-367 684.5,-397 803.5,-397 803.5,-367 684.5,-367"/>
<text text-anchor="start" x="692.5" y="-385" font-family="Helvetica,sans-Serif" font-size="10.00">CMasternodeBroadcast</text>
<text text-anchor="middle" x="744" y="-374" font-family="Helvetica,sans-Serif" font-size="10.00">::CheckSignature</text>
</a>
</g>
</g>
<!-- Node1731&#45;&gt;Node1790 -->
<g id="edge31" class="edge"><title>Node1731&#45;&gt;Node1790</title>
<path fill="none" stroke="midnightblue" d="M591.584,-419.004C619.546,-412.171 654.765,-403.564 684.198,-396.371"/>
<polygon fill="midnightblue" stroke="midnightblue" points="590.518,-415.662 581.634,-421.436 592.179,-422.462 590.518,-415.662"/>
</g>
<!-- Node1792 -->
<g id="node36" class="node"><title>Node1792</title>
<g id="a_node36"><a xlink:href="class_c_governance_vote.html#a6f6a2973b21926522fa2f1311d370b94" target="_top" xlink:title="CGovernanceVote::IsValid">
<polygon fill="white" stroke="black" points="677.5,-328.5 677.5,-347.5 810.5,-347.5 810.5,-328.5 677.5,-328.5"/>
<text text-anchor="middle" x="744" y="-335.5" font-family="Helvetica,sans-Serif" font-size="10.00">CGovernanceVote::IsValid</text>
</a>
</g>
</g>
<!-- Node1731&#45;&gt;Node1792 -->
<g id="edge35" class="edge"><title>Node1731&#45;&gt;Node1792</title>
<path fill="none" stroke="midnightblue" d="M562.752,-415.414C585.146,-398.895 622.852,-373.145 659,-358 669.093,-353.771 680.261,-350.328 691.069,-347.566"/>
<polygon fill="midnightblue" stroke="midnightblue" points="560.589,-412.662 554.683,-421.459 564.785,-418.265 560.589,-412.662"/>
</g>
<!-- Node1793 -->
<g id="node37" class="node"><title>Node1793</title>
<g id="a_node37"><a xlink:href="class_c_masternode_man.html#a0731112eab2636186ca00f01bedd723e" target="_top" xlink:title="CMasternodeMan::ProcessVerify\lBroadcast">
<polygon fill="white" stroke="black" points="663.5,-514 663.5,-544 824.5,-544 824.5,-514 663.5,-514"/>
<text text-anchor="start" x="671.5" y="-532" font-family="Helvetica,sans-Serif" font-size="10.00">CMasternodeMan::ProcessVerify</text>
<text text-anchor="middle" x="744" y="-521" font-family="Helvetica,sans-Serif" font-size="10.00">Broadcast</text>
</a>
</g>
</g>
<!-- Node1731&#45;&gt;Node1793 -->
<g id="edge36" class="edge"><title>Node1731&#45;&gt;Node1793</title>
<path fill="none" stroke="midnightblue" d="M567.793,-445.864C583.773,-455.386 604.773,-468.139 623,-480 639.327,-490.625 641.398,-496.656 659,-505 665.99,-508.313 673.528,-511.259 681.119,-513.852"/>
<polygon fill="midnightblue" stroke="midnightblue" points="569.409,-442.754 559.023,-440.662 565.838,-448.774 569.409,-442.754"/>
</g>
<!-- Node1794 -->
<g id="node39" class="node"><title>Node1794</title>
<g id="a_node39"><a xlink:href="class_c_masternode_man.html#a9a96a97210dd939754ef496efdf7fe70" target="_top" xlink:title="CMasternodeMan::ProcessVerify\lReply">
<polygon fill="white" stroke="black" points="663.5,-465 663.5,-495 824.5,-495 824.5,-465 663.5,-465"/>
<text text-anchor="start" x="671.5" y="-483" font-family="Helvetica,sans-Serif" font-size="10.00">CMasternodeMan::ProcessVerify</text>
<text text-anchor="middle" x="744" y="-472" font-family="Helvetica,sans-Serif" font-size="10.00">Reply</text>
</a>
</g>
</g>
<!-- Node1731&#45;&gt;Node1794 -->
<g id="edge39" class="edge"><title>Node1731&#45;&gt;Node1794</title>
<path fill="none" stroke="midnightblue" d="M591.66,-443.014C618.751,-449.635 652.636,-457.916 681.471,-464.963"/>
<polygon fill="midnightblue" stroke="midnightblue" points="592.179,-439.538 581.634,-440.564 590.518,-446.338 592.179,-439.538"/>
</g>
<!-- Node1795 -->
<g id="node40" class="node"><title>Node1795</title>
<g id="a_node40"><a xlink:href="class_c_masternode_man.html#a96f55c43bf50fcb9bfc9d045f8f6756e" target="_top" xlink:title="CMasternodeMan::SendVerify\lReply">
<polygon fill="white" stroke="black" points="670,-416 670,-446 818,-446 818,-416 670,-416"/>
<text text-anchor="start" x="678" y="-434" font-family="Helvetica,sans-Serif" font-size="10.00">CMasternodeMan::SendVerify</text>
<text text-anchor="middle" x="744" y="-423" font-family="Helvetica,sans-Serif" font-size="10.00">Reply</text>
</a>
</g>
</g>
<!-- Node1731&#45;&gt;Node1795 -->
<g id="edge41" class="edge"><title>Node1731&#45;&gt;Node1795</title>
<path fill="none" stroke="midnightblue" d="M633.401,-431C645.636,-431 658.057,-431 669.929,-431"/>
<polygon fill="midnightblue" stroke="midnightblue" points="633.184,-427.5 623.184,-431 633.184,-434.5 633.184,-427.5"/>
</g>
<!-- Node1796 -->
<g id="node41" class="node"><title>Node1796</title>
<g id="a_node41"><a xlink:href="class_c_dark_send_relay.html#a92b95682e2acbe5570b79cb7c3793388" target="_top" xlink:title="CDarkSendRelay::Sign">
<polygon fill="white" stroke="black" points="684.5,-290.5 684.5,-309.5 803.5,-309.5 803.5,-290.5 684.5,-290.5"/>
<text text-anchor="middle" x="744" y="-297.5" font-family="Helvetica,sans-Serif" font-size="10.00">CDarkSendRelay::Sign</text>
</a>
</g>
</g>
<!-- Node1731&#45;&gt;Node1796 -->
<g id="edge43" class="edge"><title>Node1731&#45;&gt;Node1796</title>
<path fill="none" stroke="midnightblue" d="M555.773,-413.168C575.437,-388.092 614.781,-342.818 659,-319 666.767,-314.817 675.415,-311.552 684.126,-309.006"/>
<polygon fill="midnightblue" stroke="midnightblue" points="552.756,-411.351 549.446,-421.415 558.31,-415.612 552.756,-411.351"/>
</g>
<!-- Node1797 -->
<g id="node42" class="node"><title>Node1797</title>
<g id="a_node42"><a xlink:href="class_c_masternode_ping.html#aec087812841840e98833673a88abcf07" target="_top" xlink:title="CMasternodePing::Sign">
<polygon fill="white" stroke="red" points="684,-252.5 684,-271.5 804,-271.5 804,-252.5 684,-252.5"/>
<text text-anchor="middle" x="744" y="-259.5" font-family="Helvetica,sans-Serif" font-size="10.00">CMasternodePing::Sign</text>
</a>
</g>
</g>
<!-- Node1731&#45;&gt;Node1797 -->
<g id="edge44" class="edge"><title>Node1731&#45;&gt;Node1797</title>
<path fill="none" stroke="midnightblue" d="M551.565,-412.217C568.142,-379.979 606.528,-314.371 659,-281 666.57,-276.186 675.206,-272.585 683.992,-269.892"/>
<polygon fill="midnightblue" stroke="midnightblue" points="548.301,-410.919 546.958,-421.428 554.561,-414.049 548.301,-410.919"/>
</g>
<!-- Node1816 -->
<g id="node43" class="node"><title>Node1816</title>
<g id="a_node43"><a xlink:href="class_c_spork_message.html#aa41c57e7ac23f5687be8d1679081f1d7" target="_top" xlink:title="CSporkMessage::Sign">
<polygon fill="white" stroke="black" points="686.5,-214.5 686.5,-233.5 801.5,-233.5 801.5,-214.5 686.5,-214.5"/>
<text text-anchor="middle" x="744" y="-221.5" font-family="Helvetica,sans-Serif" font-size="10.00">CSporkMessage::Sign</text>
</a>
</g>
</g>
<!-- Node1731&#45;&gt;Node1816 -->
<g id="edge45" class="edge"><title>Node1731&#45;&gt;Node1816</title>
<path fill="none" stroke="midnightblue" d="M548.68,-411.828C562.125,-373.331 597.837,-286.595 659,-243 667.036,-237.272 676.511,-233.235 686.15,-230.397"/>
<polygon fill="midnightblue" stroke="midnightblue" points="545.354,-410.737 545.475,-421.331 551.987,-412.973 545.354,-410.737"/>
</g>
<!-- Node1817 -->
<g id="node44" class="node"><title>Node1817</title>
<g id="a_node44"><a xlink:href="class_c_governance_vote.html#ad8c4ed6faefac545b39e208debd36b9b" target="_top" xlink:title="CGovernanceVote::Sign">
<polygon fill="white" stroke="red" points="683,-176.5 683,-195.5 805,-195.5 805,-176.5 683,-176.5"/>
<text text-anchor="middle" x="744" y="-183.5" font-family="Helvetica,sans-Serif" font-size="10.00">CGovernanceVote::Sign</text>
</a>
</g>
</g>
<!-- Node1731&#45;&gt;Node1817 -->
<g id="edge46" class="edge"><title>Node1731&#45;&gt;Node1817</title>
<path fill="none" stroke="midnightblue" d="M546.677,-411.406C557.176,-367.164 588.993,-259.181 659,-205 665.976,-199.601 674.199,-195.681 682.722,-192.846"/>
<polygon fill="midnightblue" stroke="midnightblue" points="543.201,-410.907 544.408,-421.433 550.029,-412.451 543.201,-410.907"/>
</g>
<!-- Node1818 -->
<g id="node45" class="node"><title>Node1818</title>
<g id="a_node45"><a xlink:href="class_c_masternode_payment_vote.html#a7e3cb1b9bbd3c03500facbea2a66de5d" target="_top" xlink:title="CMasternodePaymentVote\l::Sign">
<polygon fill="white" stroke="black" points="677,-127 677,-157 811,-157 811,-127 677,-127"/>
<text text-anchor="start" x="685" y="-145" font-family="Helvetica,sans-Serif" font-size="10.00">CMasternodePaymentVote</text>
<text text-anchor="middle" x="744" y="-134" font-family="Helvetica,sans-Serif" font-size="10.00">::Sign</text>
</a>
</g>
</g>
<!-- Node1731&#45;&gt;Node1818 -->
<g id="edge47" class="edge"><title>Node1731&#45;&gt;Node1818</title>
<path fill="none" stroke="midnightblue" d="M545.406,-411.516C553.712,-362.796 582.105,-234.748 659,-167 664.252,-162.373 670.328,-158.602 676.763,-155.528"/>
<polygon fill="midnightblue" stroke="midnightblue" points="541.951,-410.962 543.818,-421.391 548.862,-412.074 541.951,-410.962"/>
</g>
<!-- Node1819 -->
<g id="node46" class="node"><title>Node1819</title>
<g id="a_node46"><a xlink:href="class_c_tx_lock_vote.html#a043595d6c0fcece35a440cdc7ba3c2af" target="_top" xlink:title="CTxLockVote::Sign">
<polygon fill="white" stroke="black" points="693,-737.5 693,-756.5 795,-756.5 795,-737.5 693,-737.5"/>
<text text-anchor="middle" x="744" y="-744.5" font-family="Helvetica,sans-Serif" font-size="10.00">CTxLockVote::Sign</text>
</a>
</g>
</g>
<!-- Node1731&#45;&gt;Node1819 -->
<g id="edge48" class="edge"><title>Node1731&#45;&gt;Node1819</title>
<path fill="none" stroke="midnightblue" d="M579.269,-444.861C595.218,-452.75 612.592,-464.255 623,-480 684.417,-572.913 583.387,-646.222 659,-728 667.73,-737.441 680.074,-742.683 692.619,-745.482"/>
<polygon fill="midnightblue" stroke="midnightblue" points="580.653,-441.645 570.107,-440.629 577.718,-448 580.653,-441.645"/>
</g>
<!-- Node1820 -->
<g id="node47" class="node"><title>Node1820</title>
<g id="a_node47"><a xlink:href="class_c_governance_object.html#a1ac3561fed7eb1837d55516a8a2646ba" target="_top" xlink:title="CGovernanceObject::Sign">
<polygon fill="white" stroke="red" points="678.5,-88.5 678.5,-107.5 809.5,-107.5 809.5,-88.5 678.5,-88.5"/>
<text text-anchor="middle" x="744" y="-95.5" font-family="Helvetica,sans-Serif" font-size="10.00">CGovernanceObject::Sign</text>
</a>
</g>
</g>
<!-- Node1731&#45;&gt;Node1820 -->
<g id="edge50" class="edge"><title>Node1731&#45;&gt;Node1820</title>
<path fill="none" stroke="midnightblue" d="M543.613,-410.955C547.839,-355.157 567.706,-196.907 659,-117 664.625,-112.076 671.258,-108.351 678.289,-105.544"/>
<polygon fill="midnightblue" stroke="midnightblue" points="540.1,-411.031 542.928,-421.241 547.084,-411.496 540.1,-411.031"/>
</g>
<!-- Node1821 -->
<g id="node48" class="node"><title>Node1821</title>
<g id="a_node48"><a xlink:href="class_c_masternode_broadcast.html#a2603223b2d8123005944d5e8fdb97ff9" target="_top" xlink:title="CMasternodeBroadcast\l::Sign">
<polygon fill="white" stroke="red" points="684.5,-39 684.5,-69 803.5,-69 803.5,-39 684.5,-39"/>
<text text-anchor="start" x="692.5" y="-57" font-family="Helvetica,sans-Serif" font-size="10.00">CMasternodeBroadcast</text>
<text text-anchor="middle" x="744" y="-46" font-family="Helvetica,sans-Serif" font-size="10.00">::Sign</text>
</a>
</g>
</g>
<!-- Node1731&#45;&gt;Node1821 -->
<g id="edge51" class="edge"><title>Node1731&#45;&gt;Node1821</title>
<path fill="none" stroke="midnightblue" d="M542.999,-410.908C545.594,-351.27 561.541,-173.545 659,-79 666.099,-72.1136 675.008,-67.1125 684.351,-63.4832"/>
<polygon fill="midnightblue" stroke="midnightblue" points="539.491,-411.085 542.638,-421.202 546.487,-411.331 539.491,-411.085"/>
</g>
<!-- Node1822 -->
<g id="node49" class="node"><title>Node1822</title>
<g id="a_node49"><a xlink:href="class_c_dark_send_relay.html#a3d32d1ec983946dc12ff277d0e68365e" target="_top" xlink:title="CDarkSendRelay::VerifyMessage">
<polygon fill="white" stroke="black" points="662,-0.5 662,-19.5 826,-19.5 826,-0.5 662,-0.5"/>
<text text-anchor="middle" x="744" y="-7.5" font-family="Helvetica,sans-Serif" font-size="10.00">CDarkSendRelay::VerifyMessage</text>
</a>
</g>
</g>
<!-- Node1731&#45;&gt;Node1822 -->
<g id="edge52" class="edge"><title>Node1731&#45;&gt;Node1822</title>
<path fill="none" stroke="midnightblue" d="M541.75,-411.262C540.423,-346.104 545.492,-135.934 659,-29 663.027,-25.2065 667.644,-22.1127 672.597,-19.5955"/>
<polygon fill="midnightblue" stroke="midnightblue" points="538.255,-411.48 542.036,-421.377 545.252,-411.282 538.255,-411.48"/>
</g>
<!-- Node1733 -->
<g id="node19" class="node"><title>Node1733</title>
<g id="a_node19"><a xlink:href="class_c_masternode_ping.html#a31094f33b96d13bf21b5609917be5d45" target="_top" xlink:title="CMasternodePing::CheckAnd\lUpdate">
<polygon fill="white" stroke="red" points="880,-858 880,-888 1026,-888 1026,-858 880,-858"/>
<text text-anchor="start" x="888" y="-876" font-family="Helvetica,sans-Serif" font-size="10.00">CMasternodePing::CheckAnd</text>
<text text-anchor="middle" x="953" y="-865" font-family="Helvetica,sans-Serif" font-size="10.00">Update</text>
</a>
</g>
</g>
<!-- Node1732&#45;&gt;Node1733 -->
<g id="edge18" class="edge"><title>Node1732&#45;&gt;Node1733</title>
<path fill="none" stroke="midnightblue" d="M839.498,-873C853.043,-873 866.797,-873 879.819,-873"/>
<polygon fill="midnightblue" stroke="midnightblue" points="839.195,-869.5 829.195,-873 839.195,-876.5 839.195,-869.5"/>
</g>
<!-- Node1756 -->
<g id="node23" class="node"><title>Node1756</title>
<g id="a_node23"><a xlink:href="class_c_instant_send.html#a4b27db90b09bb5f7918229ef40985fdd" target="_top" xlink:title="CInstantSend::Vote">
<polygon fill="white" stroke="red" points="901.5,-737.5 901.5,-756.5 1004.5,-756.5 1004.5,-737.5 901.5,-737.5"/>
<text text-anchor="middle" x="953" y="-744.5" font-family="Helvetica,sans-Serif" font-size="10.00">CInstantSend::Vote</text>
</a>
</g>
</g>
<!-- Node1755&#45;&gt;Node1756 -->
<g id="edge22" class="edge"><title>Node1755&#45;&gt;Node1756</title>
<path fill="none" stroke="midnightblue" d="M806.964,-720.375C837.135,-725.914 872.951,-732.489 901.442,-737.719"/>
<polygon fill="midnightblue" stroke="midnightblue" points="807.435,-716.903 796.968,-718.54 806.171,-723.788 807.435,-716.903"/>
</g>
<!-- Node1777 -->
<g id="node24" class="node"><title>Node1777</title>
<g id="a_node24"><a xlink:href="class_c_tx_lock_vote.html#a6f2d5203dd1ce7b281754cedaf1194b5" target="_top" xlink:title="CTxLockVote::IsValid">
<polygon fill="white" stroke="red" points="896.5,-699.5 896.5,-718.5 1009.5,-718.5 1009.5,-699.5 896.5,-699.5"/>
<text text-anchor="middle" x="953" y="-706.5" font-family="Helvetica,sans-Serif" font-size="10.00">CTxLockVote::IsValid</text>
</a>
</g>
</g>
<!-- Node1755&#45;&gt;Node1777 -->
<g id="edge23" class="edge"><title>Node1755&#45;&gt;Node1777</title>
<path fill="none" stroke="midnightblue" d="M830.188,-709C852.523,-709 876.033,-709 896.378,-709"/>
<polygon fill="midnightblue" stroke="midnightblue" points="830.024,-705.5 820.024,-709 830.024,-712.5 830.024,-705.5"/>
</g>
<!-- Node1779 -->
<g id="node26" class="node"><title>Node1779</title>
<g id="a_node26"><a xlink:href="class_c_darksend_queue.html#a8bc4c6d19ac1aca978cfe4342be729ed" target="_top" xlink:title="Sign this mixing transaction. ">
<polygon fill="white" stroke="red" points="893,-661.5 893,-680.5 1013,-680.5 1013,-661.5 893,-661.5"/>
<text text-anchor="middle" x="953" y="-668.5" font-family="Helvetica,sans-Serif" font-size="10.00">CDarksendQueue::Sign</text>
</a>
</g>
</g>
<!-- Node1778&#45;&gt;Node1779 -->
<g id="edge25" class="edge"><title>Node1778&#45;&gt;Node1779</title>
<path fill="none" stroke="midnightblue" d="M839.285,-671C857.545,-671 876.191,-671 892.925,-671"/>
<polygon fill="midnightblue" stroke="midnightblue" points="839.195,-667.5 829.195,-671 839.195,-674.5 839.195,-667.5"/>
</g>
<!-- Node1785 -->
<g id="node28" class="node"><title>Node1785</title>
<g id="a_node28"><a xlink:href="class_c_governance_object.html#adba6b4211c5b255df0e30fee56ff3f97" target="_top" xlink:title="CGovernanceObject::\lIsValidLocally">
<polygon fill="white" stroke="black" points="897.5,-612 897.5,-642 1008.5,-642 1008.5,-612 897.5,-612"/>
<text text-anchor="start" x="905.5" y="-630" font-family="Helvetica,sans-Serif" font-size="10.00">CGovernanceObject::</text>
<text text-anchor="middle" x="953" y="-619" font-family="Helvetica,sans-Serif" font-size="10.00">IsValidLocally</text>
</a>
</g>
</g>
<!-- Node1784&#45;&gt;Node1785 -->
<g id="edge27" class="edge"><title>Node1784&#45;&gt;Node1785</title>
<path fill="none" stroke="midnightblue" d="M809.801,-627C837.932,-627 870.519,-627 897.395,-627"/>
<polygon fill="midnightblue" stroke="midnightblue" points="809.658,-623.5 799.658,-627 809.658,-630.5 809.658,-623.5"/>
</g>
<!-- Node1745 -->
<g id="node30" class="node"><title>Node1745</title>
<g id="a_node30"><a xlink:href="net__processing_8cpp.html#a193d0ece6e2f2f7ee37352ac9720bb83" target="_top" xlink:title="ProcessMessage">
<polygon fill="white" stroke="red" points="1077,-524.5 1077,-543.5 1169,-543.5 1169,-524.5 1077,-524.5"/>
<text text-anchor="middle" x="1123" y="-531.5" font-family="Helvetica,sans-Serif" font-size="10.00">ProcessMessage</text>
</a>
</g>
</g>
<!-- Node1786&#45;&gt;Node1745 -->
<g id="edge29" class="edge"><title>Node1786&#45;&gt;Node1745</title>
<path fill="none" stroke="midnightblue" d="M815.209,-578.121C875.546,-577.127 964.636,-573.033 1041,-559 1059.96,-555.516 1080.73,-549.051 1096.49,-543.568"/>
<polygon fill="midnightblue" stroke="midnightblue" points="814.984,-574.624 805.035,-578.264 815.083,-581.623 814.984,-574.624"/>
</g>
<!-- Node1787 -->
<g id="node31" class="node"><title>Node1787</title>
<g id="a_node31"><a xlink:href="class_c_darksend_broadcast_tx.html#a32311f7649758f709e1aae4ed7d64953" target="_top" xlink:title="CDarksendBroadcastTx\l::Sign">
<polygon fill="white" stroke="red" points="892,-519 892,-549 1014,-549 1014,-519 892,-519"/>
<text text-anchor="start" x="900" y="-537" font-family="Helvetica,sans-Serif" font-size="10.00">CDarksendBroadcastTx</text>
<text text-anchor="middle" x="953" y="-526" font-family="Helvetica,sans-Serif" font-size="10.00">::Sign</text>
</a>
</g>
</g>
<!-- Node1786&#45;&gt;Node1787 -->
<g id="edge30" class="edge"><title>Node1786&#45;&gt;Node1787</title>
<path fill="none" stroke="midnightblue" d="M815.236,-563.071C840.07,-557.792 867.763,-551.906 891.699,-546.818"/>
<polygon fill="midnightblue" stroke="midnightblue" points="814.205,-559.712 805.151,-565.214 815.66,-566.559 814.205,-559.712"/>
</g>
<!-- Node1791 -->
<g id="node33" class="node"><title>Node1791</title>
<g id="a_node33"><a xlink:href="class_c_masternode_broadcast.html#ad3e6be4a6f0206e5d8e6dcb427d169ce" target="_top" xlink:title="CMasternodeBroadcast\l::CheckOutpoint">
<polygon fill="white" stroke="red" points="893.5,-411 893.5,-441 1012.5,-441 1012.5,-411 893.5,-411"/>
<text text-anchor="start" x="901.5" y="-429" font-family="Helvetica,sans-Serif" font-size="10.00">CMasternodeBroadcast</text>
<text text-anchor="middle" x="953" y="-418" font-family="Helvetica,sans-Serif" font-size="10.00">::CheckOutpoint</text>
</a>
</g>
</g>
<!-- Node1790&#45;&gt;Node1791 -->
<g id="edge32" class="edge"><title>Node1790&#45;&gt;Node1791</title>
<path fill="none" stroke="midnightblue" d="M813.846,-396.634C839.637,-402.116 868.674,-408.288 893.447,-413.554"/>
<polygon fill="midnightblue" stroke="midnightblue" points="814.273,-393.147 803.764,-394.491 812.818,-399.994 814.273,-393.147"/>
</g>
<!-- Node1743 -->
<g id="node34" class="node"><title>Node1743</title>
<g id="a_node34"><a xlink:href="server_8h.html#a7ae813efd78b542bd5e3cddb01174777" target="_top" xlink:title="masternodebroadcast">
<polygon fill="white" stroke="black" points="898,-372.5 898,-391.5 1008,-391.5 1008,-372.5 898,-372.5"/>
<text text-anchor="middle" x="953" y="-379.5" font-family="Helvetica,sans-Serif" font-size="10.00">masternodebroadcast</text>
</a>
</g>
</g>
<!-- Node1790&#45;&gt;Node1743 -->
<g id="edge33" class="edge"><title>Node1790&#45;&gt;Node1743</title>
<path fill="none" stroke="midnightblue" d="M814.011,-382C841.253,-382 872.096,-382 897.702,-382"/>
<polygon fill="midnightblue" stroke="midnightblue" points="813.764,-378.5 803.764,-382 813.764,-385.5 813.764,-378.5"/>
</g>
<!-- Node1735 -->
<g id="node35" class="node"><title>Node1735</title>
<g id="a_node35"><a xlink:href="class_c_masternode_broadcast.html#a42077f16c601f9804bc3b24fd602993c" target="_top" xlink:title="CMasternodeBroadcast\l::Update">
<polygon fill="white" stroke="red" points="893.5,-323 893.5,-353 1012.5,-353 1012.5,-323 893.5,-323"/>
<text text-anchor="start" x="901.5" y="-341" font-family="Helvetica,sans-Serif" font-size="10.00">CMasternodeBroadcast</text>
<text text-anchor="middle" x="953" y="-330" font-family="Helvetica,sans-Serif" font-size="10.00">::Update</text>
</a>
</g>
</g>
<!-- Node1790&#45;&gt;Node1735 -->
<g id="edge34" class="edge"><title>Node1790&#45;&gt;Node1735</title>
<path fill="none" stroke="midnightblue" d="M813.846,-367.366C839.637,-361.884 868.674,-355.712 893.447,-350.446"/>
<polygon fill="midnightblue" stroke="midnightblue" points="812.818,-364.006 803.764,-369.509 814.273,-370.853 812.818,-364.006"/>
</g>
<!-- Node1744 -->
<g id="node38" class="node"><title>Node1744</title>
<g id="a_node38"><a xlink:href="class_c_masternode_man.html#ae8534b13438b5a2166854a6d35d99bac" target="_top" xlink:title="CMasternodeMan::ProcessMessage">
<polygon fill="white" stroke="black" points="865,-475.5 865,-494.5 1041,-494.5 1041,-475.5 865,-475.5"/>
<text text-anchor="middle" x="953" y="-482.5" font-family="Helvetica,sans-Serif" font-size="10.00">CMasternodeMan::ProcessMessage</text>
</a>
</g>
</g>
<!-- Node1793&#45;&gt;Node1744 -->
<g id="edge37" class="edge"><title>Node1793&#45;&gt;Node1744</title>
<path fill="none" stroke="midnightblue" d="M825.747,-511.836C853.454,-505.947 883.449,-499.571 907.248,-494.512"/>
<polygon fill="midnightblue" stroke="midnightblue" points="824.712,-508.478 815.659,-513.981 826.168,-515.325 824.712,-508.478"/>
</g>
<!-- Node1744&#45;&gt;Node1745 -->
<g id="edge38" class="edge"><title>Node1744&#45;&gt;Node1745</title>
<path fill="none" stroke="midnightblue" d="M997.322,-497.373C1011.27,-501.378 1026.8,-505.855 1041,-510 1057.19,-514.725 1075.18,-520.048 1090.09,-524.478"/>
<polygon fill="midnightblue" stroke="midnightblue" points="998.06,-493.943 987.482,-494.552 996.131,-500.672 998.06,-493.943"/>
</g>
<!-- Node1794&#45;&gt;Node1744 -->
<g id="edge40" class="edge"><title>Node1794&#45;&gt;Node1744</title>
<path fill="none" stroke="midnightblue" d="M834.957,-482.173C844.839,-482.412 854.888,-482.654 864.737,-482.892"/>
<polygon fill="midnightblue" stroke="midnightblue" points="834.817,-478.669 824.736,-481.926 834.648,-485.667 834.817,-478.669"/>
</g>
<!-- Node1795&#45;&gt;Node1744 -->
<g id="edge42" class="edge"><title>Node1795&#45;&gt;Node1744</title>
<path fill="none" stroke="midnightblue" d="M812.608,-448.637C846.843,-457.568 887.059,-468.059 915.473,-475.471"/>
<polygon fill="midnightblue" stroke="midnightblue" points="813.221,-445.18 802.661,-446.042 811.454,-451.953 813.221,-445.18"/>
</g>
<!-- Node1819&#45;&gt;Node1756 -->
<g id="edge49" class="edge"><title>Node1819&#45;&gt;Node1756</title>
<path fill="none" stroke="midnightblue" d="M805.19,-747C835.664,-747 872.25,-747 901.275,-747"/>
<polygon fill="midnightblue" stroke="midnightblue" points="805.109,-743.5 795.109,-747 805.109,-750.5 805.109,-743.5"/>
</g>
</g>
</svg>
