<?xml version="1.0" encoding="UTF-8" standalone="no"?>
<!DOCTYPE svg PUBLIC "-//W3C//DTD SVG 1.1//EN"
 "http://www.w3.org/Graphics/SVG/1.1/DTD/svg11.dtd">
<!-- Generated by graphviz version 2.38.0 (20140413.2041)
 -->
<!-- Title: CProposalValidator::Validate Pages: 1 -->
<!--zoomable 284 -->
<svg id="main" version="1.1" xmlns="http://www.w3.org/2000/svg" xmlns:xlink="http://www.w3.org/1999/xlink" xml:space="preserve" onload="init(evt)">
<style type="text/css"><![CDATA[
.edge:hover path { stroke: red; }
.edge:hover polygon { stroke: red; fill: red; }
]]></style>
<script type="text/javascript"><![CDATA[
var edges = document.getElementsByTagName('g');
if (edges && edges.length) {
  for (var i=0;i<edges.length;i++) {
    if (edges[i].id.substr(0,4)=='edge') {
      edges[i].setAttribute('class','edge');
    }
  }
}
]]></script>
        <defs>
                <circle id="rim" cx="0" cy="0" r="7"/>
                <circle id="rim2" cx="0" cy="0" r="3.5"/>
                <g id="zoomPlus">
                        <use xlink:href="#rim" fill="#404040">
                                <set attributeName="fill" to="#808080" begin="zoomplus.mouseover" end="zoomplus.mouseout"/>
                        </use>
                        <path d="M-4,0h8M0,-4v8" fill="none" stroke="white" stroke-width="1.5" pointer-events="none"/>
                </g>
                <g id="zoomMin">
                        <use xlink:href="#rim" fill="#404040">
                                <set attributeName="fill" to="#808080" begin="zoomminus.mouseover" end="zoomminus.mouseout"/>
                        </use>
                        <path d="M-4,0h8" fill="none" stroke="white" stroke-width="1.5" pointer-events="none"/>
                </g>
                <g id="dirArrow">
                        <path fill="none" stroke="white" stroke-width="1.5" d="M0,-3.0v7 M-2.5,-0.5L0,-3.0L2.5,-0.5"/>
                </g>
               <g id="resetDef">
                       <use xlink:href="#rim2" fill="#404040">
                               <set attributeName="fill" to="#808080" begin="reset.mouseover" end="reset.mouseout"/>
                       </use>
               </g>
        </defs>

<script type="text/javascript">
var viewWidth = 568;
var viewHeight = 284;
var sectionId = 'dynsection-13';
</script>
<script xlink:href="svgpan.js"/>
<svg id="graph" class="graph">
<g id="viewport">
<title>CProposalValidator::Validate</title>
<polygon fill="white" stroke="none" points="-4,4 -4,-280 564,-280 564,4 -4,4"/>
<!-- Node96 -->
<g id="node1" class="node"><title>Node96</title>
<polygon fill="#bfbfbf" stroke="black" points="0,-122.5 0,-152.5 101,-152.5 101,-122.5 0,-122.5"/>
<text text-anchor="start" x="8" y="-140.5" font-family="Helvetica,sans-Serif" font-size="10.00">CProposalValidator</text>
<text text-anchor="middle" x="50.5" y="-129.5" font-family="Helvetica,sans-Serif" font-size="10.00">::Validate</text>
</g>
<!-- Node97 -->
<g id="node2" class="node"><title>Node97</title>
<g id="a_node2"><a xlink:href="class_c_proposal_validator.html#a87282c067f3fa752988245b96545b796" target="_top" xlink:title="CProposalValidator\l::ValidateJSON">
<polygon fill="white" stroke="black" points="153,-245.5 153,-275.5 254,-275.5 254,-245.5 153,-245.5"/>
<text text-anchor="start" x="161" y="-263.5" font-family="Helvetica,sans-Serif" font-size="10.00">CProposalValidator</text>
<text text-anchor="middle" x="203.5" y="-252.5" font-family="Helvetica,sans-Serif" font-size="10.00">::ValidateJSON</text>
</a>
</g>
</g>
<!-- Node96&#45;&gt;Node97 -->
<g id="edge1" class="edge"><title>Node96&#45;&gt;Node97</title>
<path fill="none" stroke="midnightblue" d="M60.9765,-152.708C75.0825,-174.193 103.561,-213.385 137,-236.5 139.136,-237.976 141.373,-239.374 143.68,-240.695"/>
<polygon fill="midnightblue" stroke="midnightblue" points="142.363,-243.953 152.855,-245.42 145.567,-237.73 142.363,-243.953"/>
</g>
<!-- Node98 -->
<g id="node3" class="node"><title>Node98</title>
<g id="a_node3"><a xlink:href="class_c_proposal_validator.html#ae3f9c24196fa4a30102187536c69e206" target="_top" xlink:title="CProposalValidator\l::ValidateName">
<polygon fill="white" stroke="black" points="153,-49.5 153,-79.5 254,-79.5 254,-49.5 153,-49.5"/>
<text text-anchor="start" x="161" y="-67.5" font-family="Helvetica,sans-Serif" font-size="10.00">CProposalValidator</text>
<text text-anchor="middle" x="203.5" y="-56.5" font-family="Helvetica,sans-Serif" font-size="10.00">::ValidateName</text>
</a>
</g>
</g>
<!-- Node96&#45;&gt;Node98 -->
<g id="edge2" class="edge"><title>Node96&#45;&gt;Node98</title>
<path fill="none" stroke="midnightblue" d="M75.2438,-122.441C92.0878,-112.122 115.442,-98.5391 137,-88.5 140.767,-86.7458 144.701,-85.0306 148.69,-83.3756"/>
<polygon fill="midnightblue" stroke="midnightblue" points="150.058,-86.5978 158.042,-79.6329 147.457,-80.0989 150.058,-86.5978"/>
</g>
<!-- Node102 -->
<g id="node7" class="node"><title>Node102</title>
<g id="a_node7"><a xlink:href="class_c_proposal_validator.html#aec722f5ace4a1a4440e86bf86e54ca0b" target="_top" xlink:title="CProposalValidator\l::ValidatePaymentAddress">
<polygon fill="white" stroke="black" points="137,-98.5 137,-128.5 270,-128.5 270,-98.5 137,-98.5"/>
<text text-anchor="start" x="145" y="-116.5" font-family="Helvetica,sans-Serif" font-size="10.00">CProposalValidator</text>
<text text-anchor="middle" x="203.5" y="-105.5" font-family="Helvetica,sans-Serif" font-size="10.00">::ValidatePaymentAddress</text>
</a>
</g>
</g>
<!-- Node96&#45;&gt;Node102 -->
<g id="edge6" class="edge"><title>Node96&#45;&gt;Node102</title>
<path fill="none" stroke="midnightblue" d="M101.362,-129.575C109.512,-128.28 118.114,-126.912 126.721,-125.544"/>
<polygon fill="midnightblue" stroke="midnightblue" points="127.474,-128.969 136.801,-123.942 126.376,-122.055 127.474,-128.969"/>
</g>
<!-- Node105 -->
<g id="node10" class="node"><title>Node105</title>
<g id="a_node10"><a xlink:href="class_c_proposal_validator.html#ae44e7f264101907b52e323c7cfd6550c" target="_top" xlink:title="CProposalValidator\l::ValidatePaymentAmount">
<polygon fill="white" stroke="black" points="138,-196.5 138,-226.5 269,-226.5 269,-196.5 138,-196.5"/>
<text text-anchor="start" x="146" y="-214.5" font-family="Helvetica,sans-Serif" font-size="10.00">CProposalValidator</text>
<text text-anchor="middle" x="203.5" y="-203.5" font-family="Helvetica,sans-Serif" font-size="10.00">::ValidatePaymentAmount</text>
</a>
</g>
</g>
<!-- Node96&#45;&gt;Node105 -->
<g id="edge10" class="edge"><title>Node96&#45;&gt;Node105</title>
<path fill="none" stroke="midnightblue" d="M74.8408,-152.676C91.6922,-163.25 115.221,-177.242 137,-187.5 140.759,-189.271 144.688,-190.998 148.672,-192.661"/>
<polygon fill="midnightblue" stroke="midnightblue" points="147.434,-195.936 158.018,-196.418 150.045,-189.441 147.434,-195.936"/>
</g>
<!-- Node106 -->
<g id="node11" class="node"><title>Node106</title>
<g id="a_node11"><a xlink:href="class_c_proposal_validator.html#ad9f1440f66dba9c2a3e63d1c55bdc215" target="_top" xlink:title="CProposalValidator\l::ValidateStartEndEpoch">
<polygon fill="white" stroke="black" points="141.5,-147.5 141.5,-177.5 265.5,-177.5 265.5,-147.5 141.5,-147.5"/>
<text text-anchor="start" x="149.5" y="-165.5" font-family="Helvetica,sans-Serif" font-size="10.00">CProposalValidator</text>
<text text-anchor="middle" x="203.5" y="-154.5" font-family="Helvetica,sans-Serif" font-size="10.00">::ValidateStartEndEpoch</text>
</a>
</g>
</g>
<!-- Node96&#45;&gt;Node106 -->
<g id="edge12" class="edge"><title>Node96&#45;&gt;Node106</title>
<path fill="none" stroke="midnightblue" d="M101.362,-145.755C110.961,-147.345 121.189,-149.038 131.312,-150.714"/>
<polygon fill="midnightblue" stroke="midnightblue" points="130.937,-154.199 141.374,-152.38 132.08,-147.293 130.937,-154.199"/>
</g>
<!-- Node107 -->
<g id="node12" class="node"><title>Node107</title>
<g id="a_node12"><a xlink:href="class_c_proposal_validator.html#a479a8fd0c779465ebe05917e1f7462a9" target="_top" xlink:title="CProposalValidator\l::ValidateURL">
<polygon fill="white" stroke="black" points="153,-0.5 153,-30.5 254,-30.5 254,-0.5 153,-0.5"/>
<text text-anchor="start" x="161" y="-18.5" font-family="Helvetica,sans-Serif" font-size="10.00">CProposalValidator</text>
<text text-anchor="middle" x="203.5" y="-7.5" font-family="Helvetica,sans-Serif" font-size="10.00">::ValidateURL</text>
</a>
</g>
</g>
<!-- Node96&#45;&gt;Node107 -->
<g id="edge14" class="edge"><title>Node96&#45;&gt;Node107</title>
<path fill="none" stroke="midnightblue" d="M61.0132,-122.45C75.164,-101.187 103.696,-62.398 137,-39.5 139.139,-38.0291 141.38,-36.6362 143.689,-35.3186"/>
<polygon fill="midnightblue" stroke="midnightblue" points="145.575,-38.2851 152.872,-30.6041 142.377,-32.0578 145.575,-38.2851"/>
</g>
<!-- Node99 -->
<g id="node4" class="node"><title>Node99</title>
<g id="a_node4"><a xlink:href="class_c_proposal_validator.html#af5f4ff9a514552b1b03cbfaa9f094ed5" target="_top" xlink:title="CProposalValidator\l::GetDataValue">
<polygon fill="white" stroke="black" points="318.5,-139.5 318.5,-169.5 419.5,-169.5 419.5,-139.5 318.5,-139.5"/>
<text text-anchor="start" x="326.5" y="-157.5" font-family="Helvetica,sans-Serif" font-size="10.00">CProposalValidator</text>
<text text-anchor="middle" x="369" y="-146.5" font-family="Helvetica,sans-Serif" font-size="10.00">::GetDataValue</text>
</a>
</g>
</g>
<!-- Node98&#45;&gt;Node99 -->
<g id="edge3" class="edge"><title>Node98&#45;&gt;Node99</title>
<path fill="none" stroke="midnightblue" d="M254.117,-79.6193C259.684,-82.1961 265.105,-85.1457 270,-88.5 290.004,-102.207 286.218,-115.474 306,-129.5 308.651,-131.38 311.464,-133.147 314.371,-134.805"/>
<polygon fill="midnightblue" stroke="midnightblue" points="312.823,-137.944 323.31,-139.449 316.05,-131.733 312.823,-137.944"/>
</g>
<!-- Node101 -->
<g id="node6" class="node"><title>Node101</title>
<g id="a_node6"><a xlink:href="class_c_proposal_validator.html#af92f4425fe1e53b976e28a087e1200da" target="_top" xlink:title="CProposalValidator\l::StripWhitespace">
<polygon fill="white" stroke="black" points="318.5,-49.5 318.5,-79.5 419.5,-79.5 419.5,-49.5 318.5,-49.5"/>
<text text-anchor="start" x="326.5" y="-67.5" font-family="Helvetica,sans-Serif" font-size="10.00">CProposalValidator</text>
<text text-anchor="middle" x="369" y="-56.5" font-family="Helvetica,sans-Serif" font-size="10.00">::StripWhitespace</text>
</a>
</g>
</g>
<!-- Node98&#45;&gt;Node101 -->
<g id="edge5" class="edge"><title>Node98&#45;&gt;Node101</title>
<path fill="none" stroke="midnightblue" d="M254.444,-64.5C271.401,-64.5 290.52,-64.5 308.169,-64.5"/>
<polygon fill="midnightblue" stroke="midnightblue" points="308.362,-68.0001 318.362,-64.5 308.362,-61.0001 308.362,-68.0001"/>
</g>
<!-- Node100 -->
<g id="node5" class="node"><title>Node100</title>
<g id="a_node5"><a xlink:href="class_uni_value.html#ab3730236f6f0ecccda0bd4f095b08258" target="_top" xlink:title="UniValue::get_str">
<polygon fill="white" stroke="black" points="468,-145 468,-164 560,-164 560,-145 468,-145"/>
<text text-anchor="middle" x="514" y="-152" font-family="Helvetica,sans-Serif" font-size="10.00">UniValue::get_str</text>
</a>
</g>
</g>
<!-- Node99&#45;&gt;Node100 -->
<g id="edge4" class="edge"><title>Node99&#45;&gt;Node100</title>
<path fill="none" stroke="midnightblue" d="M419.613,-154.5C431.839,-154.5 445.01,-154.5 457.496,-154.5"/>
<polygon fill="midnightblue" stroke="midnightblue" points="457.786,-158 467.786,-154.5 457.786,-151 457.786,-158"/>
</g>
<!-- Node102&#45;&gt;Node99 -->
<g id="edge7" class="edge"><title>Node102&#45;&gt;Node99</title>
<path fill="none" stroke="midnightblue" d="M264.453,-128.534C278.819,-132.136 294.153,-135.982 308.498,-139.579"/>
<polygon fill="midnightblue" stroke="midnightblue" points="307.696,-142.986 318.247,-142.024 309.399,-136.197 307.696,-142.986"/>
</g>
<!-- Node103 -->
<g id="node8" class="node"><title>Node103</title>
<g id="a_node8"><a xlink:href="class_c_bitcoin_address.html#ab39907ce6895062a8f8bf585270ef13b" target="_top" xlink:title="CBitcoinAddress::IsValid">
<polygon fill="white" stroke="black" points="306,-101 306,-120 432,-120 432,-101 306,-101"/>
<text text-anchor="middle" x="369" y="-108" font-family="Helvetica,sans-Serif" font-size="10.00">CBitcoinAddress::IsValid</text>
</a>
</g>
</g>
<!-- Node102&#45;&gt;Node103 -->
<g id="edge8" class="edge"><title>Node102&#45;&gt;Node103</title>
<path fill="none" stroke="midnightblue" d="M270.06,-112.297C278.46,-112.143 287.098,-111.984 295.599,-111.828"/>
<polygon fill="midnightblue" stroke="midnightblue" points="295.942,-115.323 305.876,-111.64 295.814,-108.324 295.942,-115.323"/>
</g>
<!-- Node104 -->
<g id="node9" class="node"><title>Node104</title>
<g id="a_node9"><a xlink:href="chainparams_8cpp.html#ace5c5b706d71a324a417dd2db394fd4a" target="_top" xlink:title="Return the currently selected parameters. ">
<polygon fill="white" stroke="black" points="489,-101 489,-120 539,-120 539,-101 489,-101"/>
<text text-anchor="middle" x="514" y="-108" font-family="Helvetica,sans-Serif" font-size="10.00">Params</text>
</a>
</g>
</g>
<!-- Node103&#45;&gt;Node104 -->
<g id="edge9" class="edge"><title>Node103&#45;&gt;Node104</title>
<path fill="none" stroke="midnightblue" d="M432.306,-110.5C448.26,-110.5 464.834,-110.5 478.782,-110.5"/>
<polygon fill="midnightblue" stroke="midnightblue" points="478.881,-114 488.881,-110.5 478.881,-107 478.881,-114"/>
</g>
<!-- Node105&#45;&gt;Node99 -->
<g id="edge11" class="edge"><title>Node105&#45;&gt;Node99</title>
<path fill="none" stroke="midnightblue" d="M247.886,-196.375C268.478,-189.196 293.27,-180.553 314.969,-172.988"/>
<polygon fill="midnightblue" stroke="midnightblue" points="316.405,-176.194 324.695,-169.597 314.101,-169.584 316.405,-176.194"/>
</g>
<!-- Node106&#45;&gt;Node99 -->
<g id="edge13" class="edge"><title>Node106&#45;&gt;Node99</title>
<path fill="none" stroke="midnightblue" d="M265.847,-159.498C279.638,-158.824 294.257,-158.108 307.993,-157.436"/>
<polygon fill="midnightblue" stroke="midnightblue" points="308.48,-160.917 318.297,-156.932 308.138,-153.925 308.48,-160.917"/>
</g>
<!-- Node107&#45;&gt;Node99 -->
<g id="edge15" class="edge"><title>Node107&#45;&gt;Node99</title>
<path fill="none" stroke="midnightblue" d="M254.054,-28.4043C259.89,-31.3793 265.395,-35.0282 270,-39.5 300.906,-69.5138 275.579,-98.9946 306,-129.5 307.444,-130.948 308.984,-132.316 310.598,-133.607"/>
<polygon fill="midnightblue" stroke="midnightblue" points="308.963,-136.727 319.204,-139.442 312.891,-130.933 308.963,-136.727"/>
</g>
<!-- Node107&#45;&gt;Node101 -->
<g id="edge16" class="edge"><title>Node107&#45;&gt;Node101</title>
<path fill="none" stroke="midnightblue" d="M254.444,-30.4679C271.559,-35.5972 290.878,-41.387 308.663,-46.717"/>
<polygon fill="midnightblue" stroke="midnightblue" points="307.778,-50.1056 318.362,-49.6238 309.788,-43.4003 307.778,-50.1056"/>
</g>
<!-- Node108 -->
<g id="node13" class="node"><title>Node108</title>
<g id="a_node13"><a xlink:href="class_c_proposal_validator.html#a4ebfe6c3748936a3309f2ef372c98392" target="_top" xlink:title="CProposalValidator\l::CheckURL">
<polygon fill="white" stroke="black" points="318.5,-0.5 318.5,-30.5 419.5,-30.5 419.5,-0.5 318.5,-0.5"/>
<text text-anchor="start" x="326.5" y="-18.5" font-family="Helvetica,sans-Serif" font-size="10.00">CProposalValidator</text>
<text text-anchor="middle" x="369" y="-7.5" font-family="Helvetica,sans-Serif" font-size="10.00">::CheckURL</text>
</a>
</g>
</g>
<!-- Node107&#45;&gt;Node108 -->
<g id="edge17" class="edge"><title>Node107&#45;&gt;Node108</title>
<path fill="none" stroke="midnightblue" d="M254.444,-15.5C271.401,-15.5 290.52,-15.5 308.169,-15.5"/>
<polygon fill="midnightblue" stroke="midnightblue" points="308.362,-19.0001 318.362,-15.5 308.362,-12.0001 308.362,-19.0001"/>
</g>
</g>
</svg>
        <g id="navigator" transform="translate(0 0)" fill="#404254">
                <rect fill="#f2f5e9" fill-opacity="0.5" stroke="#606060" stroke-width=".5" x="0" y="0" width="60" height="60"/>
                <use id="zoomplus" xlink:href="#zoomPlus" x="17" y="9" onmousedown="handleZoom(evt,'in')"/>
                <use id="zoomminus" xlink:href="#zoomMin" x="42" y="9" onmousedown="handleZoom(evt,'out')"/>
                <use id="reset" xlink:href="#resetDef" x="30" y="36" onmousedown="handleReset()"/>
                <g id="arrowUp" xlink:href="#dirArrow" transform="translate(30 24)" onmousedown="handlePan(0,-1)">
                  <use xlink:href="#rim" fill="#404040">
                        <set attributeName="fill" to="#808080" begin="arrowUp.mouseover" end="arrowUp.mouseout"/>
                  </use>
                  <path fill="none" stroke="white" stroke-width="1.5" d="M0,-3.0v7 M-2.5,-0.5L0,-3.0L2.5,-0.5"/>
                </g>
                <g id="arrowRight" xlink:href="#dirArrow" transform="rotate(90) translate(36 -43)" onmousedown="handlePan(1,0)">
                  <use xlink:href="#rim" fill="#404040">
                        <set attributeName="fill" to="#808080" begin="arrowRight.mouseover" end="arrowRight.mouseout"/>
                  </use>
                  <path fill="none" stroke="white" stroke-width="1.5" d="M0,-3.0v7 M-2.5,-0.5L0,-3.0L2.5,-0.5"/>
                </g>
                <g id="arrowDown" xlink:href="#dirArrow" transform="rotate(180) translate(-30 -48)" onmousedown="handlePan(0,1)">
                  <use xlink:href="#rim" fill="#404040">
                        <set attributeName="fill" to="#808080" begin="arrowDown.mouseover" end="arrowDown.mouseout"/>
                  </use>
                  <path fill="none" stroke="white" stroke-width="1.5" d="M0,-3.0v7 M-2.5,-0.5L0,-3.0L2.5,-0.5"/>
                </g>
                <g id="arrowLeft" xlink:href="#dirArrow" transform="rotate(270) translate(-36 17)" onmousedown="handlePan(-1,0)">
                  <use xlink:href="#rim" fill="#404040">
                        <set attributeName="fill" to="#808080" begin="arrowLeft.mouseover" end="arrowLeft.mouseout"/>
                  </use>
                  <path fill="none" stroke="white" stroke-width="1.5" d="M0,-3.0v7 M-2.5,-0.5L0,-3.0L2.5,-0.5"/>
                </g>
        </g>
        <svg viewBox="0 0 15 15" width="100%" height="30px" preserveAspectRatio="xMaxYMin meet">
         <g id="arrow_out" transform="scale(0.3 0.3)">
          <a xlink:href="class_c_proposal_validator_a10b1b2036263dc881f70303efe4eb1a5_cgraph_org.svg" target="_base">
           <rect id="button" ry="5" rx="5" y="6" x="6" height="38" width="38"
                fill="#f2f5e9" fill-opacity="0.5" stroke="#606060" stroke-width="1.0"/>
           <path id="arrow"
             d="M 11.500037,31.436501 C 11.940474,20.09759 22.043105,11.32322 32.158766,21.979434 L 37.068811,17.246167 C 37.068811,17.246167 37.088388,32 37.088388,32 L 22.160133,31.978069 C 22.160133,31.978069 26.997745,27.140456 26.997745,27.140456 C 18.528582,18.264221 13.291696,25.230495 11.500037,31.436501 z"
             style="fill:#404040;"/>
          </a>
         </g>
        </svg>
</svg>
