<?xml version="1.0" encoding="UTF-8" standalone="no"?>
<!DOCTYPE svg PUBLIC "-//W3C//DTD SVG 1.1//EN"
 "http://www.w3.org/Graphics/SVG/1.1/DTD/svg11.dtd">
<!-- Generated by graphviz version 2.38.0 (20140413.2041)
 -->
<!-- Title: BitcoinGUI::showNormalIfMinimized Pages: 1 -->
<!--zoomable 113 -->
<svg id="main" version="1.1" xmlns="http://www.w3.org/2000/svg" xmlns:xlink="http://www.w3.org/1999/xlink" xml:space="preserve" onload="init(evt)">
<style type="text/css"><![CDATA[
.edge:hover path { stroke: red; }
.edge:hover polygon { stroke: red; fill: red; }
]]></style>
<script type="text/javascript"><![CDATA[
var edges = document.getElementsByTagName('g');
if (edges && edges.length) {
  for (var i=0;i<edges.length;i++) {
    if (edges[i].id.substr(0,4)=='edge') {
      edges[i].setAttribute('class','edge');
    }
  }
}
]]></script>
        <defs>
                <circle id="rim" cx="0" cy="0" r="7"/>
                <circle id="rim2" cx="0" cy="0" r="3.5"/>
                <g id="zoomPlus">
                        <use xlink:href="#rim" fill="#404040">
                                <set attributeName="fill" to="#808080" begin="zoomplus.mouseover" end="zoomplus.mouseout"/>
                        </use>
                        <path d="M-4,0h8M0,-4v8" fill="none" stroke="white" stroke-width="1.5" pointer-events="none"/>
                </g>
                <g id="zoomMin">
                        <use xlink:href="#rim" fill="#404040">
                                <set attributeName="fill" to="#808080" begin="zoomminus.mouseover" end="zoomminus.mouseout"/>
                        </use>
                        <path d="M-4,0h8" fill="none" stroke="white" stroke-width="1.5" pointer-events="none"/>
                </g>
                <g id="dirArrow">
                        <path fill="none" stroke="white" stroke-width="1.5" d="M0,-3.0v7 M-2.5,-0.5L0,-3.0L2.5,-0.5"/>
                </g>
               <g id="resetDef">
                       <use xlink:href="#rim2" fill="#404040">
                               <set attributeName="fill" to="#808080" begin="reset.mouseover" end="reset.mouseout"/>
                       </use>
               </g>
        </defs>

<script type="text/javascript">
var viewWidth = 1128;
var viewHeight = 113;
var sectionId = 'dynsection-53';
</script>
<script xlink:href="svgpan.js"/>
<svg id="graph" class="graph">
<g id="viewport">
<title>BitcoinGUI::showNormalIfMinimized</title>
<polygon fill="white" stroke="none" points="-4,4 -4,-108.5 1124,-108.5 1124,4 -4,4"/>
<!-- Node555 -->
<g id="node1" class="node"><title>Node555</title>
<polygon fill="#bfbfbf" stroke="black" points="0,-41.5 0,-71.5 131,-71.5 131,-41.5 0,-41.5"/>
<text text-anchor="start" x="8" y="-59.5" font-family="Helvetica,sans-Serif" font-size="10.00">BitcoinGUI::showNormalIf</text>
<text text-anchor="middle" x="65.5" y="-48.5" font-family="Helvetica,sans-Serif" font-size="10.00">Minimized</text>
</g>
<!-- Node556 -->
<g id="node2" class="node"><title>Node556</title>
<g id="a_node2"><a xlink:href="class_bitcoin_g_u_i.html#a7340679e1356b1bb3cfaeb64a3e93218" target="_top" xlink:title="Create the main UI actions. ">
<polygon fill="white" stroke="black" points="339,-85 339,-104 470,-104 470,-85 339,-85"/>
<text text-anchor="middle" x="404.5" y="-92" font-family="Helvetica,sans-Serif" font-size="10.00">BitcoinGUI::createActions</text>
</a>
</g>
</g>
<!-- Node555&#45;&gt;Node556 -->
<g id="edge1" class="edge"><title>Node555&#45;&gt;Node556</title>
<path fill="none" stroke="midnightblue" d="M141.303,-71.5519C149.946,-73.0206 158.651,-74.3787 167,-75.5 224.869,-83.2722 291.163,-88.2626 338.809,-91.1689"/>
<polygon fill="midnightblue" stroke="midnightblue" points="141.664,-68.0619 131.21,-69.7846 140.456,-74.957 141.664,-68.0619"/>
</g>
<!-- Node558 -->
<g id="node4" class="node"><title>Node558</title>
<g id="a_node4"><a xlink:href="class_bitcoin_g_u_i.html#abf1d036341d1fb122398b2b78d2734ea" target="_top" xlink:title="Notify the user of an event from the core network or transaction handling code. ">
<polygon fill="white" stroke="black" points="176,-9 176,-28 286,-28 286,-9 176,-9"/>
<text text-anchor="middle" x="231" y="-16" font-family="Helvetica,sans-Serif" font-size="10.00">BitcoinGUI::message</text>
</a>
</g>
</g>
<!-- Node555&#45;&gt;Node558 -->
<g id="edge3" class="edge"><title>Node555&#45;&gt;Node558</title>
<path fill="none" stroke="midnightblue" d="M141.249,-39.1271C157.635,-35.3188 174.398,-31.4227 188.881,-28.0568"/>
<polygon fill="midnightblue" stroke="midnightblue" points="140.068,-35.8084 131.12,-41.4814 141.652,-42.6266 140.068,-35.8084"/>
</g>
<!-- Node565 -->
<g id="node11" class="node"><title>Node565</title>
<g id="a_node11"><a xlink:href="class_bitcoin_g_u_i.html#a6ca9ded69ab510195ff04fe7f5754ff5" target="_top" xlink:title="Simply calls showNormalIfMinimized(true) for use in SLOT() macro. ">
<polygon fill="white" stroke="black" points="167,-47 167,-66 295,-66 295,-47 167,-47"/>
<text text-anchor="middle" x="231" y="-54" font-family="Helvetica,sans-Serif" font-size="10.00">BitcoinGUI::toggleHidden</text>
</a>
</g>
</g>
<!-- Node555&#45;&gt;Node565 -->
<g id="edge12" class="edge"><title>Node555&#45;&gt;Node565</title>
<path fill="none" stroke="midnightblue" d="M141.156,-56.5C149.766,-56.5 158.482,-56.5 166.918,-56.5"/>
<polygon fill="midnightblue" stroke="midnightblue" points="141.12,-53.0001 131.12,-56.5 141.119,-60.0001 141.12,-53.0001"/>
</g>
<!-- Node557 -->
<g id="node3" class="node"><title>Node557</title>
<g id="a_node3"><a xlink:href="class_bitcoin_g_u_i.html#a66562921703374d7de64cb26949d054f" target="_top" xlink:title="BitcoinGUI::BitcoinGUI">
<polygon fill="white" stroke="black" points="522.5,-85 522.5,-104 641.5,-104 641.5,-85 522.5,-85"/>
<text text-anchor="middle" x="582" y="-92" font-family="Helvetica,sans-Serif" font-size="10.00">BitcoinGUI::BitcoinGUI</text>
</a>
</g>
</g>
<!-- Node556&#45;&gt;Node557 -->
<g id="edge2" class="edge"><title>Node556&#45;&gt;Node557</title>
<path fill="none" stroke="midnightblue" d="M480.426,-94.5C494.399,-94.5 508.815,-94.5 522.216,-94.5"/>
<polygon fill="midnightblue" stroke="midnightblue" points="480.351,-91.0001 470.351,-94.5 480.351,-98.0001 480.351,-91.0001"/>
</g>
<!-- Node559 -->
<g id="node5" class="node"><title>Node559</title>
<g id="a_node5"><a xlink:href="class_bitcoin_g_u_i.html#a99d71e1f8478ab937ce2522c8d3815e3" target="_top" xlink:title="Set the client model. ">
<polygon fill="white" stroke="black" points="514,-28 514,-47 650,-47 650,-28 514,-28"/>
<text text-anchor="middle" x="582" y="-35" font-family="Helvetica,sans-Serif" font-size="10.00">BitcoinGUI::setClientModel</text>
</a>
</g>
</g>
<!-- Node558&#45;&gt;Node559 -->
<g id="edge4" class="edge"><title>Node558&#45;&gt;Node559</title>
<path fill="none" stroke="midnightblue" d="M296.168,-21.9934C357.972,-25.3581 451.082,-30.4271 513.865,-33.8451"/>
<polygon fill="midnightblue" stroke="midnightblue" points="296.324,-18.4968 286.148,-21.4479 295.943,-25.4864 296.324,-18.4968"/>
</g>
<!-- Node560 -->
<g id="node6" class="node"><title>Node560</title>
<g id="a_node6"><a xlink:href="class_bitcoin_application.html#aceb08b4063e4fb264cf11cf7f9edd969" target="_top" xlink:title="BitcoinApplication\l::initializeResult">
<polygon fill="white" stroke="black" points="686,-44.5 686,-74.5 781,-74.5 781,-44.5 686,-44.5"/>
<text text-anchor="start" x="694" y="-62.5" font-family="Helvetica,sans-Serif" font-size="10.00">BitcoinApplication</text>
<text text-anchor="middle" x="733.5" y="-51.5" font-family="Helvetica,sans-Serif" font-size="10.00">::initializeResult</text>
</a>
</g>
</g>
<!-- Node559&#45;&gt;Node560 -->
<g id="edge5" class="edge"><title>Node559&#45;&gt;Node560</title>
<path fill="none" stroke="midnightblue" d="M657.644,-48.4845C667.21,-49.8921 676.778,-51.3 685.721,-52.6161"/>
<polygon fill="midnightblue" stroke="midnightblue" points="658.106,-45.0148 647.703,-47.0216 657.087,-51.9403 658.106,-45.0148"/>
</g>
<!-- Node564 -->
<g id="node10" class="node"><title>Node564</title>
<g id="a_node10"><a xlink:href="class_bitcoin_application.html#a37c560d4c04d14a6da151b82caf8888f" target="_top" xlink:title="Request core shutdown. ">
<polygon fill="white" stroke="black" points="948,-0.5 948,-30.5 1046,-30.5 1046,-0.5 948,-0.5"/>
<text text-anchor="start" x="956" y="-18.5" font-family="Helvetica,sans-Serif" font-size="10.00">BitcoinApplication</text>
<text text-anchor="middle" x="997" y="-7.5" font-family="Helvetica,sans-Serif" font-size="10.00">::requestShutdown</text>
</a>
</g>
</g>
<!-- Node559&#45;&gt;Node564 -->
<g id="edge11" class="edge"><title>Node559&#45;&gt;Node564</title>
<path fill="none" stroke="midnightblue" d="M660.318,-33.3814C744.688,-28.8871 877.14,-21.8315 947.802,-18.0675"/>
<polygon fill="midnightblue" stroke="midnightblue" points="660.074,-29.8893 650.275,-33.9164 660.447,-36.8794 660.074,-29.8893"/>
</g>
<!-- Node561 -->
<g id="node7" class="node"><title>Node561</title>
<g id="a_node7"><a xlink:href="class_bitcoin_application.html#a61afce9356e452c53ad4c83f5ca19df8" target="_top" xlink:title="BitcoinApplication\l::startThread">
<polygon fill="white" stroke="black" points="817,-44.5 817,-74.5 912,-74.5 912,-44.5 817,-44.5"/>
<text text-anchor="start" x="825" y="-62.5" font-family="Helvetica,sans-Serif" font-size="10.00">BitcoinApplication</text>
<text text-anchor="middle" x="864.5" y="-51.5" font-family="Helvetica,sans-Serif" font-size="10.00">::startThread</text>
</a>
</g>
</g>
<!-- Node560&#45;&gt;Node561 -->
<g id="edge6" class="edge"><title>Node560&#45;&gt;Node561</title>
<path fill="none" stroke="midnightblue" d="M791.101,-59.5C799.752,-59.5 808.596,-59.5 816.996,-59.5"/>
<polygon fill="midnightblue" stroke="midnightblue" points="791.072,-56.0001 781.072,-59.5 791.072,-63.0001 791.072,-56.0001"/>
</g>
<!-- Node562 -->
<g id="node8" class="node"><title>Node562</title>
<g id="a_node8"><a xlink:href="class_bitcoin_application.html#ade19c44b87b00b6b19b433caf4c22ba6" target="_top" xlink:title="Request core initialization. ">
<polygon fill="white" stroke="black" points="949.5,-49.5 949.5,-79.5 1044.5,-79.5 1044.5,-49.5 949.5,-49.5"/>
<text text-anchor="start" x="957.5" y="-67.5" font-family="Helvetica,sans-Serif" font-size="10.00">BitcoinApplication</text>
<text text-anchor="middle" x="997" y="-56.5" font-family="Helvetica,sans-Serif" font-size="10.00">::requestInitialize</text>
</a>
</g>
</g>
<!-- Node561&#45;&gt;Node562 -->
<g id="edge7" class="edge"><title>Node561&#45;&gt;Node562</title>
<path fill="none" stroke="midnightblue" d="M922.251,-61.6744C931.228,-62.0183 940.424,-62.3707 949.143,-62.7047"/>
<polygon fill="midnightblue" stroke="midnightblue" points="922.372,-58.1765 912.245,-61.291 922.104,-65.1714 922.372,-58.1765"/>
</g>
<!-- Node561&#45;&gt;Node564 -->
<g id="edge9" class="edge"><title>Node561&#45;&gt;Node564</title>
<path fill="none" stroke="midnightblue" d="M919.569,-41.2699C930.096,-37.7204 941.024,-34.0358 951.212,-30.6009"/>
<polygon fill="midnightblue" stroke="midnightblue" points="918.403,-37.9692 910.046,-44.4808 920.64,-44.6023 918.403,-37.9692"/>
</g>
<!-- Node563 -->
<g id="node9" class="node"><title>Node563</title>
<g id="a_node9"><a xlink:href="dash_8cpp.html#a0ddf1224851353fc92bfbff6f499fa97" target="_top" xlink:title="main">
<polygon fill="white" stroke="black" points="1082,-30 1082,-49 1120,-49 1120,-30 1082,-30"/>
<text text-anchor="middle" x="1101" y="-37" font-family="Helvetica,sans-Serif" font-size="10.00">main</text>
</a>
</g>
</g>
<!-- Node562&#45;&gt;Node563 -->
<g id="edge8" class="edge"><title>Node562&#45;&gt;Node563</title>
<path fill="none" stroke="midnightblue" d="M1054.47,-50.6586C1064.39,-48.2289 1074.02,-45.8675 1081.85,-43.9474"/>
<polygon fill="midnightblue" stroke="midnightblue" points="1053.4,-47.3174 1044.52,-53.0974 1055.07,-54.1162 1053.4,-47.3174"/>
</g>
<!-- Node564&#45;&gt;Node563 -->
<g id="edge10" class="edge"><title>Node564&#45;&gt;Node563</title>
<path fill="none" stroke="midnightblue" d="M1055.92,-29.128C1065.37,-31.3508 1074.49,-33.4977 1081.96,-35.2559"/>
<polygon fill="midnightblue" stroke="midnightblue" points="1056.55,-25.6807 1046.01,-26.7972 1054.95,-32.4947 1056.55,-25.6807"/>
</g>
<!-- Node565&#45;&gt;Node556 -->
<g id="edge13" class="edge"><title>Node565&#45;&gt;Node556</title>
<path fill="none" stroke="midnightblue" d="M285.041,-68.2526C309.291,-73.6258 337.647,-79.9086 360.535,-84.9799"/>
<polygon fill="midnightblue" stroke="midnightblue" points="285.797,-64.8352 275.277,-66.089 284.283,-71.6695 285.797,-64.8352"/>
</g>
<!-- Node566 -->
<g id="node12" class="node"><title>Node566</title>
<g id="a_node12"><a xlink:href="class_bitcoin_g_u_i.html#ae753f1d521f7c17804419f6a9054738b" target="_top" xlink:title="Handle tray icon clicked. ">
<polygon fill="white" stroke="black" points="331,-47 331,-66 478,-66 478,-47 331,-47"/>
<text text-anchor="middle" x="404.5" y="-54" font-family="Helvetica,sans-Serif" font-size="10.00">BitcoinGUI::trayIconActivated</text>
</a>
</g>
</g>
<!-- Node565&#45;&gt;Node566 -->
<g id="edge14" class="edge"><title>Node565&#45;&gt;Node566</title>
<path fill="none" stroke="midnightblue" d="M305.509,-56.5C313.902,-56.5 322.454,-56.5 330.836,-56.5"/>
<polygon fill="midnightblue" stroke="midnightblue" points="305.373,-53.0001 295.373,-56.5 305.373,-60.0001 305.373,-53.0001"/>
</g>
<!-- Node566&#45;&gt;Node559 -->
<g id="edge15" class="edge"><title>Node566&#45;&gt;Node559</title>
<path fill="none" stroke="midnightblue" d="M488.164,-47.5506C496.738,-46.6224 505.376,-45.6872 513.75,-44.7806"/>
<polygon fill="midnightblue" stroke="midnightblue" points="487.715,-44.0787 478.149,-48.6348 488.468,-51.0381 487.715,-44.0787"/>
</g>
</g>
</svg>
        <g id="navigator" transform="translate(0 0)" fill="#404254">
                <rect fill="#f2f5e9" fill-opacity="0.5" stroke="#606060" stroke-width=".5" x="0" y="0" width="60" height="60"/>
                <use id="zoomplus" xlink:href="#zoomPlus" x="17" y="9" onmousedown="handleZoom(evt,'in')"/>
                <use id="zoomminus" xlink:href="#zoomMin" x="42" y="9" onmousedown="handleZoom(evt,'out')"/>
                <use id="reset" xlink:href="#resetDef" x="30" y="36" onmousedown="handleReset()"/>
                <g id="arrowUp" xlink:href="#dirArrow" transform="translate(30 24)" onmousedown="handlePan(0,-1)">
                  <use xlink:href="#rim" fill="#404040">
                        <set attributeName="fill" to="#808080" begin="arrowUp.mouseover" end="arrowUp.mouseout"/>
                  </use>
                  <path fill="none" stroke="white" stroke-width="1.5" d="M0,-3.0v7 M-2.5,-0.5L0,-3.0L2.5,-0.5"/>
                </g>
                <g id="arrowRight" xlink:href="#dirArrow" transform="rotate(90) translate(36 -43)" onmousedown="handlePan(1,0)">
                  <use xlink:href="#rim" fill="#404040">
                        <set attributeName="fill" to="#808080" begin="arrowRight.mouseover" end="arrowRight.mouseout"/>
                  </use>
                  <path fill="none" stroke="white" stroke-width="1.5" d="M0,-3.0v7 M-2.5,-0.5L0,-3.0L2.5,-0.5"/>
                </g>
                <g id="arrowDown" xlink:href="#dirArrow" transform="rotate(180) translate(-30 -48)" onmousedown="handlePan(0,1)">
                  <use xlink:href="#rim" fill="#404040">
                        <set attributeName="fill" to="#808080" begin="arrowDown.mouseover" end="arrowDown.mouseout"/>
                  </use>
                  <path fill="none" stroke="white" stroke-width="1.5" d="M0,-3.0v7 M-2.5,-0.5L0,-3.0L2.5,-0.5"/>
                </g>
                <g id="arrowLeft" xlink:href="#dirArrow" transform="rotate(270) translate(-36 17)" onmousedown="handlePan(-1,0)">
                  <use xlink:href="#rim" fill="#404040">
                        <set attributeName="fill" to="#808080" begin="arrowLeft.mouseover" end="arrowLeft.mouseout"/>
                  </use>
                  <path fill="none" stroke="white" stroke-width="1.5" d="M0,-3.0v7 M-2.5,-0.5L0,-3.0L2.5,-0.5"/>
                </g>
        </g>
        <svg viewBox="0 0 15 15" width="100%" height="30px" preserveAspectRatio="xMaxYMin meet">
         <g id="arrow_out" transform="scale(0.3 0.3)">
          <a xlink:href="class_bitcoin_g_u_i_a0aed98ed2a278a2effdd9a4b34ba8620_icgraph_org.svg" target="_base">
           <rect id="button" ry="5" rx="5" y="6" x="6" height="38" width="38"
                fill="#f2f5e9" fill-opacity="0.5" stroke="#606060" stroke-width="1.0"/>
           <path id="arrow"
             d="M 11.500037,31.436501 C 11.940474,20.09759 22.043105,11.32322 32.158766,21.979434 L 37.068811,17.246167 C 37.068811,17.246167 37.088388,32 37.088388,32 L 22.160133,31.978069 C 22.160133,31.978069 26.997745,27.140456 26.997745,27.140456 C 18.528582,18.264221 13.291696,25.230495 11.500037,31.436501 z"
             style="fill:#404040;"/>
          </a>
         </g>
        </svg>
</svg>
