<?xml version="1.0" encoding="UTF-8" standalone="no"?>
<!DOCTYPE svg PUBLIC "-//W3C//DTD SVG 1.1//EN"
 "http://www.w3.org/Graphics/SVG/1.1/DTD/svg11.dtd">
<!-- Generated by graphviz version 2.38.0 (20140413.2041)
 -->
<!-- Title: CMasternodeMan::PoSeBan Pages: 1 -->
<svg width="307pt" height="66pt"
 viewBox="0.00 0.00 307.00 66.00" xmlns="http://www.w3.org/2000/svg" xmlns:xlink="http://www.w3.org/1999/xlink">
<g id="graph0" class="graph" transform="scale(1 1) rotate(0) translate(4 62)">
<title>CMasternodeMan::PoSeBan</title>
<polygon fill="white" stroke="none" points="-4,4 -4,-62 303,-62 303,4 -4,4"/>
<!-- Node2597 -->
<g id="node1" class="node"><title>Node2597</title>
<polygon fill="#bfbfbf" stroke="black" points="0,-19.5 0,-38.5 141,-38.5 141,-19.5 0,-19.5"/>
<text text-anchor="middle" x="70.5" y="-26.5" font-family="Helvetica,sans-Serif" font-size="10.00">CMasternodeMan::PoSeBan</text>
</g>
<!-- Node2598 -->
<g id="node2" class="node"><title>Node2598</title>
<g id="a_node2"><a xlink:href="class_c_masternode_man.html#a783f3a3a381184f60a1c609f6c5270fd" target="_top" xlink:title="Find an entry. ">
<polygon fill="white" stroke="black" points="178.5,-38.5 178.5,-57.5 297.5,-57.5 297.5,-38.5 178.5,-38.5"/>
<text text-anchor="middle" x="238" y="-45.5" font-family="Helvetica,sans-Serif" font-size="10.00">CMasternodeMan::Find</text>
</a>
</g>
</g>
<!-- Node2597&#45;&gt;Node2598 -->
<g id="edge1" class="edge"><title>Node2597&#45;&gt;Node2598</title>
<path fill="none" stroke="midnightblue" d="M141.207,-37.0026C150.193,-38.0342 159.389,-39.09 168.358,-40.1196"/>
<polygon fill="midnightblue" stroke="midnightblue" points="168.029,-43.6048 178.363,-41.2683 168.828,-36.6505 168.029,-43.6048"/>
</g>
<!-- Node2599 -->
<g id="node3" class="node"><title>Node2599</title>
<g id="a_node3"><a xlink:href="class_c_masternode.html#a2a26fd6255b8186ec723dd7a5044a03c" target="_top" xlink:title="CMasternode::PoSeBan">
<polygon fill="white" stroke="black" points="177,-0.5 177,-19.5 299,-19.5 299,-0.5 177,-0.5"/>
<text text-anchor="middle" x="238" y="-7.5" font-family="Helvetica,sans-Serif" font-size="10.00">CMasternode::PoSeBan</text>
</a>
</g>
</g>
<!-- Node2597&#45;&gt;Node2599 -->
<g id="edge2" class="edge"><title>Node2597&#45;&gt;Node2599</title>
<path fill="none" stroke="midnightblue" d="M141.207,-20.9974C149.623,-20.0312 158.223,-19.0438 166.648,-18.0766"/>
<polygon fill="midnightblue" stroke="midnightblue" points="167.278,-21.5274 176.814,-16.9096 166.48,-14.5731 167.278,-21.5274"/>
</g>
</g>
</svg>
