<?xml version="1.0" encoding="UTF-8" standalone="no"?>
<!DOCTYPE svg PUBLIC "-//W3C//DTD SVG 1.1//EN"
 "http://www.w3.org/Graphics/SVG/1.1/DTD/svg11.dtd">
<!-- Generated by graphviz version 2.38.0 (20140413.2041)
 -->
<!-- Title: MaxBlockSigOps Pages: 1 -->
<!--zoomable 380 -->
<svg id="main" version="1.1" xmlns="http://www.w3.org/2000/svg" xmlns:xlink="http://www.w3.org/1999/xlink" xml:space="preserve" onload="init(evt)">
<style type="text/css"><![CDATA[
.edge:hover path { stroke: red; }
.edge:hover polygon { stroke: red; fill: red; }
]]></style>
<script type="text/javascript"><![CDATA[
var edges = document.getElementsByTagName('g');
if (edges && edges.length) {
  for (var i=0;i<edges.length;i++) {
    if (edges[i].id.substr(0,4)=='edge') {
      edges[i].setAttribute('class','edge');
    }
  }
}
]]></script>
        <defs>
                <circle id="rim" cx="0" cy="0" r="7"/>
                <circle id="rim2" cx="0" cy="0" r="3.5"/>
                <g id="zoomPlus">
                        <use xlink:href="#rim" fill="#404040">
                                <set attributeName="fill" to="#808080" begin="zoomplus.mouseover" end="zoomplus.mouseout"/>
                        </use>
                        <path d="M-4,0h8M0,-4v8" fill="none" stroke="white" stroke-width="1.5" pointer-events="none"/>
                </g>
                <g id="zoomMin">
                        <use xlink:href="#rim" fill="#404040">
                                <set attributeName="fill" to="#808080" begin="zoomminus.mouseover" end="zoomminus.mouseout"/>
                        </use>
                        <path d="M-4,0h8" fill="none" stroke="white" stroke-width="1.5" pointer-events="none"/>
                </g>
                <g id="dirArrow">
                        <path fill="none" stroke="white" stroke-width="1.5" d="M0,-3.0v7 M-2.5,-0.5L0,-3.0L2.5,-0.5"/>
                </g>
               <g id="resetDef">
                       <use xlink:href="#rim2" fill="#404040">
                               <set attributeName="fill" to="#808080" begin="reset.mouseover" end="reset.mouseout"/>
                       </use>
               </g>
        </defs>

<script type="text/javascript">
var viewWidth = 2400;
var viewHeight = 380;
var sectionId = 'dynsection-2';
</script>
<script xlink:href="svgpan.js"/>
<svg id="graph" class="graph">
<g id="viewport">
<title>MaxBlockSigOps</title>
<polygon fill="white" stroke="none" points="-4,4 -4,-375.596 2396,-375.596 2396,4 -4,4"/>
<!-- Node2 -->
<g id="node1" class="node"><title>Node2</title>
<polygon fill="#bfbfbf" stroke="black" points="0,-96.0959 0,-115.096 92,-115.096 92,-96.0959 0,-96.0959"/>
<text text-anchor="middle" x="46" y="-103.096" font-family="Helvetica,sans-Serif" font-size="10.00">MaxBlockSigOps</text>
</g>
<!-- Node3 -->
<g id="node2" class="node"><title>Node3</title>
<g id="a_node2"><a xlink:href="validation_8h.html#afbaa5058f820d623e6a36f39da4fe484" target="_top" xlink:title="CheckBlock">
<polygon fill="white" stroke="black" points="128,-172.096 128,-191.096 198,-191.096 198,-172.096 128,-172.096"/>
<text text-anchor="middle" x="163" y="-179.096" font-family="Helvetica,sans-Serif" font-size="10.00">CheckBlock</text>
</a>
</g>
</g>
<!-- Node2&#45;&gt;Node3 -->
<g id="edge1" class="edge"><title>Node2&#45;&gt;Node3</title>
<path fill="none" stroke="midnightblue" d="M70.0896,-120.855C93.2151,-136.138 128.087,-159.184 147.553,-172.049"/>
<polygon fill="midnightblue" stroke="midnightblue" points="71.8373,-117.815 61.5648,-115.221 67.9779,-123.655 71.8373,-117.815"/>
</g>
<!-- Node4 -->
<g id="node3" class="node"><title>Node4</title>
<g id="a_node3"><a xlink:href="validation_8h.html#a063faa3c9fa2d1733a51fb14cae2a2c6" target="_top" xlink:title="Apply the effects of this block (with given index) on the UTXO set represented by coins...">
<polygon fill="white" stroke="black" points="253.5,-248.096 253.5,-267.096 331.5,-267.096 331.5,-248.096 253.5,-248.096"/>
<text text-anchor="middle" x="292.5" y="-255.096" font-family="Helvetica,sans-Serif" font-size="10.00">ConnectBlock</text>
</a>
</g>
</g>
<!-- Node2&#45;&gt;Node4 -->
<g id="edge60" class="edge"><title>Node2&#45;&gt;Node4</title>
<path fill="none" stroke="midnightblue" d="M58.2075,-123.849C72.1224,-145.093 97.7525,-179.897 128,-200.596 166.453,-226.909 218.28,-242.255 253.189,-250.267"/>
<polygon fill="midnightblue" stroke="midnightblue" points="60.9871,-121.697 52.6641,-115.141 55.0822,-125.457 60.9871,-121.697"/>
</g>
<!-- Node39 -->
<g id="node38" class="node"><title>Node39</title>
<g id="a_node38"><a xlink:href="miner_8h.html#ac8f34678ed590db1325b261c708f2626" target="_top" xlink:title="Generate a new block, without valid proof&#45;of&#45;work. ">
<polygon fill="white" stroke="black" points="547,-20.0959 547,-39.0959 638,-39.0959 638,-20.0959 547,-20.0959"/>
<text text-anchor="middle" x="592.5" y="-27.0959" font-family="Helvetica,sans-Serif" font-size="10.00">CreateNewBlock</text>
</a>
</g>
</g>
<!-- Node2&#45;&gt;Node39 -->
<g id="edge64" class="edge"><title>Node2&#45;&gt;Node39</title>
<path fill="none" stroke="midnightblue" d="M65.6225,-89.598C81.1709,-77.2908 104.511,-61.1519 128,-53.5959 275.275,-6.22099 462.356,-16.4085 546.692,-24.4631"/>
<polygon fill="midnightblue" stroke="midnightblue" points="63.3632,-86.9242 57.8347,-95.9622 67.7927,-92.3445 63.3632,-86.9242"/>
</g>
<!-- Node40 -->
<g id="node39" class="node"><title>Node40</title>
<g id="a_node39"><a xlink:href="server_8h.html#a054ca23f5d86a8ca30138464ba10008c" target="_top" xlink:title="getblocktemplate">
<polygon fill="white" stroke="black" points="691.5,-86.0959 691.5,-105.096 782.5,-105.096 782.5,-86.0959 691.5,-86.0959"/>
<text text-anchor="middle" x="737" y="-93.0959" font-family="Helvetica,sans-Serif" font-size="10.00">getblocktemplate</text>
</a>
</g>
</g>
<!-- Node2&#45;&gt;Node40 -->
<g id="edge65" class="edge"><title>Node2&#45;&gt;Node40</title>
<path fill="none" stroke="midnightblue" d="M94.8341,-93.693C143.877,-82.5471 222.52,-67.5959 291.5,-67.5959 291.5,-67.5959 291.5,-67.5959 443,-67.5959 531.403,-67.5959 634.131,-80.383 691.451,-88.6746"/>
<polygon fill="midnightblue" stroke="midnightblue" points="93.7861,-90.3429 84.8323,-96.0069 95.3639,-97.1628 93.7861,-90.3429"/>
</g>
<!-- Node44 -->
<g id="node43" class="node"><title>Node44</title>
<g id="a_node43"><a xlink:href="validation_8h.html#ae390d092b83ef1b712414d684b479fea" target="_top" xlink:title="ContextualCheckBlock">
<polygon fill="white" stroke="black" points="234,-96.0959 234,-115.096 351,-115.096 351,-96.0959 234,-96.0959"/>
<text text-anchor="middle" x="292.5" y="-103.096" font-family="Helvetica,sans-Serif" font-size="10.00">ContextualCheckBlock</text>
</a>
</g>
</g>
<!-- Node2&#45;&gt;Node44 -->
<g id="edge61" class="edge"><title>Node2&#45;&gt;Node44</title>
<path fill="none" stroke="midnightblue" d="M102.298,-105.596C141.483,-105.596 193.938,-105.596 233.677,-105.596"/>
<polygon fill="midnightblue" stroke="midnightblue" points="102.13,-102.096 92.13,-105.596 102.13,-109.096 102.13,-102.096"/>
</g>
<!-- Node3&#45;&gt;Node4 -->
<g id="edge2" class="edge"><title>Node3&#45;&gt;Node4</title>
<path fill="none" stroke="midnightblue" d="M183.387,-198.016C196.969,-209.002 215.865,-223.281 234,-233.596 243.685,-239.105 254.884,-244.066 264.812,-248.028"/>
<polygon fill="midnightblue" stroke="midnightblue" points="185.235,-195.004 175.291,-191.347 180.784,-200.407 185.235,-195.004"/>
</g>
<!-- Node38 -->
<g id="node37" class="node"><title>Node38</title>
<g id="a_node37"><a xlink:href="validation_8h.html#a12c39e969c9077605ae8a91730fb78d3" target="_top" xlink:title="Check a block is completely valid from start to finish (only works on top of our current best block...">
<polygon fill="white" stroke="black" points="395.5,-134.096 395.5,-153.096 488.5,-153.096 488.5,-134.096 395.5,-134.096"/>
<text text-anchor="middle" x="442" y="-141.096" font-family="Helvetica,sans-Serif" font-size="10.00">TestBlockValidity</text>
</a>
</g>
</g>
<!-- Node3&#45;&gt;Node38 -->
<g id="edge58" class="edge"><title>Node3&#45;&gt;Node38</title>
<path fill="none" stroke="midnightblue" d="M207.964,-172.231C216.574,-170.559 225.553,-168.928 234,-167.596 289.213,-158.889 353.178,-151.95 395.221,-147.816"/>
<polygon fill="midnightblue" stroke="midnightblue" points="207.204,-168.814 198.079,-174.198 208.57,-175.679 207.204,-168.814"/>
</g>
<!-- Node41 -->
<g id="node40" class="node"><title>Node41</title>
<g id="a_node40"><a xlink:href="class_c_verify_d_b.html#af12e07230f20d23cf01d417d0e785c49" target="_top" xlink:title="CVerifyDB::VerifyDB">
<polygon fill="white" stroke="black" points="387,-210.096 387,-229.096 497,-229.096 497,-210.096 387,-210.096"/>
<text text-anchor="middle" x="442" y="-217.096" font-family="Helvetica,sans-Serif" font-size="10.00">CVerifyDB::VerifyDB</text>
</a>
</g>
</g>
<!-- Node3&#45;&gt;Node41 -->
<g id="edge59" class="edge"><title>Node3&#45;&gt;Node41</title>
<path fill="none" stroke="midnightblue" d="M207.964,-190.961C216.574,-192.633 225.553,-194.264 234,-195.596 285.639,-203.739 344.934,-210.336 386.79,-214.538"/>
<polygon fill="midnightblue" stroke="midnightblue" points="208.57,-187.513 198.079,-188.994 207.204,-194.378 208.57,-187.513"/>
</g>
<!-- Node43 -->
<g id="node42" class="node"><title>Node43</title>
<g id="a_node42"><a xlink:href="validation_8cpp.html#ab80b131f4c6036f55aaa24a1c37f57d0" target="_top" xlink:title="Store block on disk. ">
<polygon fill="white" stroke="black" points="701,-153.096 701,-172.096 773,-172.096 773,-153.096 701,-153.096"/>
<text text-anchor="middle" x="737" y="-160.096" font-family="Helvetica,sans-Serif" font-size="10.00">AcceptBlock</text>
</a>
</g>
</g>
<!-- Node3&#45;&gt;Node43 -->
<g id="edge55" class="edge"><title>Node3&#45;&gt;Node43</title>
<path fill="none" stroke="midnightblue" d="M208.127,-180.13C317.785,-176.488 600.983,-167.081 700.657,-163.77"/>
<polygon fill="midnightblue" stroke="midnightblue" points="207.946,-176.634 198.068,-180.464 208.179,-183.63 207.946,-176.634"/>
</g>
<!-- Node5 -->
<g id="node4" class="node"><title>Node5</title>
<g id="a_node4"><a xlink:href="validation_8cpp.html#a9258465a729a68271780a9968e65819a" target="_top" xlink:title="Connect a new block to chainActive. ">
<polygon fill="white" stroke="black" points="408.5,-248.096 408.5,-267.096 475.5,-267.096 475.5,-248.096 408.5,-248.096"/>
<text text-anchor="middle" x="442" y="-255.096" font-family="Helvetica,sans-Serif" font-size="10.00">ConnectTip</text>
</a>
</g>
</g>
<!-- Node4&#45;&gt;Node5 -->
<g id="edge3" class="edge"><title>Node4&#45;&gt;Node5</title>
<path fill="none" stroke="midnightblue" d="M341.925,-257.596C363.697,-257.596 388.821,-257.596 408.321,-257.596"/>
<polygon fill="midnightblue" stroke="midnightblue" points="341.869,-254.096 331.869,-257.596 341.869,-261.096 341.869,-254.096"/>
</g>
<!-- Node4&#45;&gt;Node38 -->
<g id="edge47" class="edge"><title>Node4&#45;&gt;Node38</title>
<path fill="none" stroke="midnightblue" d="M313.782,-241.92C344.733,-217.999 402.847,-173.083 428.4,-153.334"/>
<polygon fill="midnightblue" stroke="midnightblue" points="311.594,-239.188 305.822,-248.072 315.875,-244.726 311.594,-239.188"/>
</g>
<!-- Node4&#45;&gt;Node41 -->
<g id="edge53" class="edge"><title>Node4&#45;&gt;Node41</title>
<path fill="none" stroke="midnightblue" d="M340.514,-245.484C361.057,-240.192 384.8,-234.075 404.047,-229.116"/>
<polygon fill="midnightblue" stroke="midnightblue" points="339.531,-242.123 330.72,-248.007 341.277,-248.901 339.531,-242.123"/>
</g>
<!-- Node6 -->
<g id="node5" class="node"><title>Node6</title>
<g id="a_node5"><a xlink:href="validation_8cpp.html#a345d6616250288efacae87d05528fe8a" target="_top" xlink:title="Try to make some progress towards making pindexMostWork the active block. ">
<polygon fill="white" stroke="black" points="533,-248.096 533,-267.096 652,-267.096 652,-248.096 533,-248.096"/>
<text text-anchor="middle" x="592.5" y="-255.096" font-family="Helvetica,sans-Serif" font-size="10.00">ActivateBestChainStep</text>
</a>
</g>
</g>
<!-- Node5&#45;&gt;Node6 -->
<g id="edge4" class="edge"><title>Node5&#45;&gt;Node6</title>
<path fill="none" stroke="midnightblue" d="M485.884,-257.596C500.568,-257.596 517.257,-257.596 532.963,-257.596"/>
<polygon fill="midnightblue" stroke="midnightblue" points="485.589,-254.096 475.589,-257.596 485.589,-261.096 485.589,-254.096"/>
</g>
<!-- Node7 -->
<g id="node6" class="node"><title>Node7</title>
<g id="a_node6"><a xlink:href="validation_8h.html#ab7be3f1b4119e8df383a4332ddbd344a" target="_top" xlink:title="Find the best known block, and make it the tip of the block chain. ">
<polygon fill="white" stroke="black" points="688,-243.096 688,-262.096 786,-262.096 786,-243.096 688,-243.096"/>
<text text-anchor="middle" x="737" y="-250.096" font-family="Helvetica,sans-Serif" font-size="10.00">ActivateBestChain</text>
</a>
</g>
</g>
<!-- Node6&#45;&gt;Node7 -->
<g id="edge5" class="edge"><title>Node6&#45;&gt;Node7</title>
<path fill="none" stroke="midnightblue" d="M662.327,-255.181C670.926,-254.879 679.573,-254.576 687.765,-254.288"/>
<polygon fill="midnightblue" stroke="midnightblue" points="662.154,-251.685 652.283,-255.533 662.4,-258.68 662.154,-251.685"/>
</g>
<!-- Node8 -->
<g id="node7" class="node"><title>Node8</title>
<g id="a_node7"><a xlink:href="init_8cpp.html#a0189c34248cd89bbbe20d4d6045bd7c9" target="_top" xlink:title="ThreadImport">
<polygon fill="white" stroke="black" points="1012.5,-200.096 1012.5,-219.096 1086.5,-219.096 1086.5,-200.096 1012.5,-200.096"/>
<text text-anchor="middle" x="1049.5" y="-207.096" font-family="Helvetica,sans-Serif" font-size="10.00">ThreadImport</text>
</a>
</g>
</g>
<!-- Node7&#45;&gt;Node8 -->
<g id="edge6" class="edge"><title>Node7&#45;&gt;Node8</title>
<path fill="none" stroke="midnightblue" d="M776.356,-239.937C790.552,-235.704 806.873,-231.364 822,-228.596 888.376,-216.449 967.138,-212.052 1012.12,-210.472"/>
<polygon fill="midnightblue" stroke="midnightblue" points="774.977,-236.699 766.442,-242.976 777.028,-243.391 774.977,-236.699"/>
</g>
<!-- Node13 -->
<g id="node12" class="node"><title>Node13</title>
<g id="a_node12"><a xlink:href="server_8h.html#a7e43030fb221e28db98accef3fc80232" target="_top" xlink:title="invalidateblock">
<polygon fill="white" stroke="black" points="838.5,-352.096 838.5,-371.096 919.5,-371.096 919.5,-352.096 838.5,-352.096"/>
<text text-anchor="middle" x="879" y="-359.096" font-family="Helvetica,sans-Serif" font-size="10.00">invalidateblock</text>
</a>
</g>
</g>
<!-- Node7&#45;&gt;Node13 -->
<g id="edge11" class="edge"><title>Node7&#45;&gt;Node13</title>
<path fill="none" stroke="midnightblue" d="M750.429,-270.511C765.289,-290.688 791.951,-323.188 822,-342.596 827.864,-346.384 834.564,-349.5 841.243,-352.034"/>
<polygon fill="midnightblue" stroke="midnightblue" points="753.137,-268.281 744.462,-262.199 747.45,-272.363 753.137,-268.281"/>
</g>
<!-- Node14 -->
<g id="node13" class="node"><title>Node14</title>
<g id="a_node13"><a xlink:href="server_8h.html#a29263a4d92c9f0c07c1dfb0a5fad681b" target="_top" xlink:title="reconsiderblock">
<polygon fill="white" stroke="black" points="836.5,-314.096 836.5,-333.096 921.5,-333.096 921.5,-314.096 836.5,-314.096"/>
<text text-anchor="middle" x="879" y="-321.096" font-family="Helvetica,sans-Serif" font-size="10.00">reconsiderblock</text>
</a>
</g>
</g>
<!-- Node7&#45;&gt;Node14 -->
<g id="edge12" class="edge"><title>Node7&#45;&gt;Node14</title>
<path fill="none" stroke="midnightblue" d="M759.825,-268.027C776.34,-279.219 799.88,-294.163 822,-304.596 829.521,-308.143 837.889,-311.348 845.815,-314.072"/>
<polygon fill="midnightblue" stroke="midnightblue" points="761.649,-265.033 751.427,-262.247 757.681,-270.799 761.649,-265.033"/>
</g>
<!-- Node15 -->
<g id="node14" class="node"><title>Node15</title>
<g id="a_node14"><a xlink:href="validation_8h.html#a6b20cdba297d137a4d7a91691cc4457b" target="_top" xlink:title="ReprocessBlocks">
<polygon fill="white" stroke="black" points="832,-276.096 832,-295.096 926,-295.096 926,-276.096 832,-276.096"/>
<text text-anchor="middle" x="879" y="-283.096" font-family="Helvetica,sans-Serif" font-size="10.00">ReprocessBlocks</text>
</a>
</g>
</g>
<!-- Node7&#45;&gt;Node15 -->
<g id="edge13" class="edge"><title>Node7&#45;&gt;Node15</title>
<path fill="none" stroke="midnightblue" d="M788.337,-264.461C804.518,-268.275 822.225,-272.449 837.597,-276.072"/>
<polygon fill="midnightblue" stroke="midnightblue" points="789.03,-261.029 778.494,-262.141 787.424,-267.842 789.03,-261.029"/>
</g>
<!-- Node29 -->
<g id="node28" class="node"><title>Node29</title>
<g id="a_node28"><a xlink:href="validation_8h.html#ac880446d7f8833dd498df914ccc816a9" target="_top" xlink:title="Process an incoming block. ">
<polygon fill="white" stroke="black" points="830,-124.096 830,-143.096 928,-143.096 928,-124.096 830,-124.096"/>
<text text-anchor="middle" x="879" y="-131.096" font-family="Helvetica,sans-Serif" font-size="10.00">ProcessNewBlock</text>
</a>
</g>
</g>
<!-- Node7&#45;&gt;Node29 -->
<g id="edge32" class="edge"><title>Node7&#45;&gt;Node29</title>
<path fill="none" stroke="midnightblue" d="M748.922,-234.275C763.109,-211.962 789.899,-174.54 822,-152.596 827.594,-148.772 834.026,-145.657 840.491,-143.139"/>
<polygon fill="midnightblue" stroke="midnightblue" points="745.918,-232.478 743.634,-242.824 751.871,-236.161 745.918,-232.478"/>
</g>
<!-- Node36 -->
<g id="node35" class="node"><title>Node36</title>
<g id="a_node35"><a xlink:href="validation_8h.html#aaf2e19311fff6b9cd421a9a9d59f7ff1" target="_top" xlink:title="Initialize a new block tree database + block data on disk. ">
<polygon fill="white" stroke="black" points="839.5,-238.096 839.5,-257.096 918.5,-257.096 918.5,-238.096 839.5,-238.096"/>
<text text-anchor="middle" x="879" y="-245.096" font-family="Helvetica,sans-Serif" font-size="10.00">InitBlockIndex</text>
</a>
</g>
</g>
<!-- Node7&#45;&gt;Node36 -->
<g id="edge42" class="edge"><title>Node7&#45;&gt;Node36</title>
<path fill="none" stroke="midnightblue" d="M796.568,-250.504C811.047,-249.987 826.197,-249.446 839.449,-248.973"/>
<polygon fill="midnightblue" stroke="midnightblue" points="796.049,-247.02 786.18,-250.875 796.299,-254.016 796.049,-247.02"/>
</g>
<!-- Node37 -->
<g id="node36" class="node"><title>Node37</title>
<g id="a_node36"><a xlink:href="validation_8h.html#a2233339a13d09038cf2e46f4d0144be4" target="_top" xlink:title="Import blocks from an external file. ">
<polygon fill="white" stroke="black" points="822,-162.096 822,-181.096 936,-181.096 936,-162.096 822,-162.096"/>
<text text-anchor="middle" x="879" y="-169.096" font-family="Helvetica,sans-Serif" font-size="10.00">LoadExternalBlockFile</text>
</a>
</g>
</g>
<!-- Node7&#45;&gt;Node37 -->
<g id="edge45" class="edge"><title>Node7&#45;&gt;Node37</title>
<path fill="none" stroke="midnightblue" d="M758.994,-236.689C775.568,-224.546 799.561,-207.87 822,-195.596 831.837,-190.215 843.128,-185.176 852.984,-181.117"/>
<polygon fill="midnightblue" stroke="midnightblue" points="756.553,-234.142 750.607,-242.911 760.723,-239.764 756.553,-234.142"/>
</g>
<!-- Node9 -->
<g id="node8" class="node"><title>Node9</title>
<g id="a_node8"><a xlink:href="init_8h.html#a6f0784aa332573f949b0975205572b28" target="_top" xlink:title="Initialize Dash Core. ">
<polygon fill="white" stroke="black" points="1947.5,-200.096 1947.5,-219.096 2000.5,-219.096 2000.5,-200.096 1947.5,-200.096"/>
<text text-anchor="middle" x="1974" y="-207.096" font-family="Helvetica,sans-Serif" font-size="10.00">AppInit2</text>
</a>
</g>
</g>
<!-- Node8&#45;&gt;Node9 -->
<g id="edge7" class="edge"><title>Node8&#45;&gt;Node9</title>
<path fill="none" stroke="midnightblue" d="M1096.79,-203.496C1182.44,-192.756 1371.48,-171.596 1531.5,-171.596 1531.5,-171.596 1531.5,-171.596 1690,-171.596 1779.73,-171.596 1802.43,-176.214 1891,-190.596 1910.04,-193.688 1931.25,-198.642 1947.32,-202.717"/>
<polygon fill="midnightblue" stroke="midnightblue" points="1096.11,-200.055 1086.63,-204.783 1096.99,-206.999 1096.11,-200.055"/>
</g>
<!-- Node10 -->
<g id="node9" class="node"><title>Node10</title>
<g id="a_node9"><a xlink:href="dashd_8cpp.html#ac59316b767e6984e1285f0531275286b" target="_top" xlink:title="AppInit">
<polygon fill="white" stroke="black" points="2236.5,-181.096 2236.5,-200.096 2283.5,-200.096 2283.5,-181.096 2236.5,-181.096"/>
<text text-anchor="middle" x="2260" y="-188.096" font-family="Helvetica,sans-Serif" font-size="10.00">AppInit</text>
</a>
</g>
</g>
<!-- Node9&#45;&gt;Node10 -->
<g id="edge8" class="edge"><title>Node9&#45;&gt;Node10</title>
<path fill="none" stroke="midnightblue" d="M2010.73,-207.205C2070.03,-203.238 2187.11,-195.405 2236.35,-192.111"/>
<polygon fill="midnightblue" stroke="midnightblue" points="2010.45,-203.716 2000.7,-207.876 2010.92,-210.701 2010.45,-203.716"/>
</g>
<!-- Node12 -->
<g id="node11" class="node"><title>Node12</title>
<g id="a_node11"><a xlink:href="class_bitcoin_core.html#af34ca069cda1d4362dcc109b4397fb62" target="_top" xlink:title="BitcoinCore::initialize">
<polygon fill="white" stroke="black" points="2057,-162.096 2057,-181.096 2166,-181.096 2166,-162.096 2057,-162.096"/>
<text text-anchor="middle" x="2111.5" y="-169.096" font-family="Helvetica,sans-Serif" font-size="10.00">BitcoinCore::initialize</text>
</a>
</g>
</g>
<!-- Node9&#45;&gt;Node12 -->
<g id="edge10" class="edge"><title>Node9&#45;&gt;Node12</title>
<path fill="none" stroke="midnightblue" d="M2010.66,-199.595C2031.05,-193.876 2056.49,-186.742 2076.59,-181.107"/>
<polygon fill="midnightblue" stroke="midnightblue" points="2009.49,-196.289 2000.81,-202.359 2011.38,-203.029 2009.49,-196.289"/>
</g>
<!-- Node11 -->
<g id="node10" class="node"><title>Node11</title>
<g id="a_node10"><a xlink:href="dashd_8cpp.html#a0ddf1224851353fc92bfbff6f499fa97" target="_top" xlink:title="main">
<polygon fill="white" stroke="black" points="2354,-181.096 2354,-200.096 2392,-200.096 2392,-181.096 2354,-181.096"/>
<text text-anchor="middle" x="2373" y="-188.096" font-family="Helvetica,sans-Serif" font-size="10.00">main</text>
</a>
</g>
</g>
<!-- Node10&#45;&gt;Node11 -->
<g id="edge9" class="edge"><title>Node10&#45;&gt;Node11</title>
<path fill="none" stroke="midnightblue" d="M2293.77,-190.596C2313.33,-190.596 2337.46,-190.596 2353.7,-190.596"/>
<polygon fill="midnightblue" stroke="midnightblue" points="2293.73,-187.096 2283.73,-190.596 2293.73,-194.096 2293.73,-187.096"/>
</g>
<!-- Node16 -->
<g id="node15" class="node"><title>Node16</title>
<g id="a_node15"><a xlink:href="class_c_spork_manager.html#ade3cee4d73664c03ceaa900efeedc395" target="_top" xlink:title="CSporkManager::ExecuteSpork">
<polygon fill="white" stroke="black" points="972,-276.096 972,-295.096 1127,-295.096 1127,-276.096 972,-276.096"/>
<text text-anchor="middle" x="1049.5" y="-283.096" font-family="Helvetica,sans-Serif" font-size="10.00">CSporkManager::ExecuteSpork</text>
</a>
</g>
</g>
<!-- Node15&#45;&gt;Node16 -->
<g id="edge14" class="edge"><title>Node15&#45;&gt;Node16</title>
<path fill="none" stroke="midnightblue" d="M936.25,-285.596C947.629,-285.596 959.777,-285.596 971.723,-285.596"/>
<polygon fill="midnightblue" stroke="midnightblue" points="936.043,-282.096 926.043,-285.596 936.043,-289.096 936.043,-282.096"/>
</g>
<!-- Node17 -->
<g id="node16" class="node"><title>Node17</title>
<g id="a_node16"><a xlink:href="server_8h.html#a8f5eff6dda04d2f984da8bafd567f140" target="_top" xlink:title="spork">
<polygon fill="white" stroke="black" points="1178,-276.096 1178,-295.096 1219,-295.096 1219,-276.096 1178,-276.096"/>
<text text-anchor="middle" x="1198.5" y="-283.096" font-family="Helvetica,sans-Serif" font-size="10.00">spork</text>
</a>
</g>
</g>
<!-- Node16&#45;&gt;Node17 -->
<g id="edge15" class="edge"><title>Node16&#45;&gt;Node17</title>
<path fill="none" stroke="midnightblue" d="M1137.11,-285.596C1152.36,-285.596 1166.82,-285.596 1177.77,-285.596"/>
<polygon fill="midnightblue" stroke="midnightblue" points="1137.01,-282.096 1127.01,-285.596 1137.01,-289.096 1137.01,-282.096"/>
</g>
<!-- Node18 -->
<g id="node17" class="node"><title>Node18</title>
<g id="a_node17"><a xlink:href="class_c_spork_manager.html#a73b217ee4057d273648c54fee3a702c5" target="_top" xlink:title="CSporkManager::ProcessSpork">
<polygon fill="white" stroke="black" points="1270,-238.096 1270,-257.096 1425,-257.096 1425,-238.096 1270,-238.096"/>
<text text-anchor="middle" x="1347.5" y="-245.096" font-family="Helvetica,sans-Serif" font-size="10.00">CSporkManager::ProcessSpork</text>
</a>
</g>
</g>
<!-- Node16&#45;&gt;Node18 -->
<g id="edge31" class="edge"><title>Node16&#45;&gt;Node18</title>
<path fill="none" stroke="midnightblue" d="M1112.74,-274.352C1129.06,-271.604 1146.67,-268.819 1163,-266.596 1197.91,-261.846 1236.7,-257.67 1269.59,-254.452"/>
<polygon fill="midnightblue" stroke="midnightblue" points="1112.03,-270.921 1102.77,-276.052 1113.21,-277.822 1112.03,-270.921"/>
</g>
<!-- Node17&#45;&gt;Node18 -->
<g id="edge16" class="edge"><title>Node17&#45;&gt;Node18</title>
<path fill="none" stroke="midnightblue" d="M1229.18,-277.457C1241.76,-274.045 1256.58,-270.071 1270,-266.596 1282.19,-263.44 1295.5,-260.099 1307.54,-257.113"/>
<polygon fill="midnightblue" stroke="midnightblue" points="1227.95,-274.163 1219.22,-280.168 1229.79,-280.917 1227.95,-274.163"/>
</g>
<!-- Node27 -->
<g id="node26" class="node"><title>Node27</title>
<g id="a_node26"><a xlink:href="class_c_spork_manager.html#a1277aeae7d50a0473c85a5a062d364cb" target="_top" xlink:title="CSporkManager::UpdateSpork">
<polygon fill="white" stroke="black" points="1272.5,-276.096 1272.5,-295.096 1422.5,-295.096 1422.5,-276.096 1272.5,-276.096"/>
<text text-anchor="middle" x="1347.5" y="-283.096" font-family="Helvetica,sans-Serif" font-size="10.00">CSporkManager::UpdateSpork</text>
</a>
</g>
</g>
<!-- Node17&#45;&gt;Node27 -->
<g id="edge27" class="edge"><title>Node17&#45;&gt;Node27</title>
<path fill="none" stroke="midnightblue" d="M1229.29,-280.045C1241.83,-279.258 1257.03,-278.858 1272.28,-278.846"/>
<polygon fill="midnightblue" stroke="midnightblue" points="1228.72,-276.578 1219.02,-280.836 1229.26,-283.557 1228.72,-276.578"/>
</g>
<!-- Node28 -->
<g id="node27" class="node"><title>Node28</title>
<g id="a_node27"><a xlink:href="class_c_spork_manager.html#a599d088218de9d242e4dc5cb17dd310b" target="_top" xlink:title="CSporkManager::SetPrivKey">
<polygon fill="white" stroke="black" points="1461,-295.096 1461,-314.096 1604,-314.096 1604,-295.096 1461,-295.096"/>
<text text-anchor="middle" x="1532.5" y="-302.096" font-family="Helvetica,sans-Serif" font-size="10.00">CSporkManager::SetPrivKey</text>
</a>
</g>
</g>
<!-- Node17&#45;&gt;Node28 -->
<g id="edge29" class="edge"><title>Node17&#45;&gt;Node28</title>
<path fill="none" stroke="midnightblue" d="M1229.13,-295.443C1241.6,-299.096 1256.35,-302.789 1270,-304.596 1334.25,-313.102 1408.15,-312.121 1460.97,-309.59"/>
<polygon fill="midnightblue" stroke="midnightblue" points="1229.86,-292.005 1219.27,-292.425 1227.81,-298.699 1229.86,-292.005"/>
</g>
<!-- Node19 -->
<g id="node18" class="node"><title>Node19</title>
<g id="a_node18"><a xlink:href="net__processing_8cpp.html#a193d0ece6e2f2f7ee37352ac9720bb83" target="_top" xlink:title="ProcessMessage">
<polygon fill="white" stroke="black" points="1486.5,-200.096 1486.5,-219.096 1578.5,-219.096 1578.5,-200.096 1486.5,-200.096"/>
<text text-anchor="middle" x="1532.5" y="-207.096" font-family="Helvetica,sans-Serif" font-size="10.00">ProcessMessage</text>
</a>
</g>
</g>
<!-- Node18&#45;&gt;Node19 -->
<g id="edge17" class="edge"><title>Node18&#45;&gt;Node19</title>
<path fill="none" stroke="midnightblue" d="M1404.48,-235.971C1430.72,-230.523 1461.56,-224.118 1486.29,-218.985"/>
<polygon fill="midnightblue" stroke="midnightblue" points="1403.76,-232.547 1394.68,-238.007 1405.18,-239.401 1403.76,-232.547"/>
</g>
<!-- Node20 -->
<g id="node19" class="node"><title>Node20</title>
<g id="a_node19"><a xlink:href="net__processing_8h.html#a7fa42e7ffd6e6ba5b7537af248e30fc8" target="_top" xlink:title="Process protocol messages received from a given node. ">
<polygon fill="white" stroke="black" points="1640,-200.096 1640,-219.096 1738,-219.096 1738,-200.096 1640,-200.096"/>
<text text-anchor="middle" x="1689" y="-207.096" font-family="Helvetica,sans-Serif" font-size="10.00">ProcessMessages</text>
</a>
</g>
</g>
<!-- Node19&#45;&gt;Node20 -->
<g id="edge18" class="edge"><title>Node19&#45;&gt;Node20</title>
<path fill="none" stroke="midnightblue" d="M1588.78,-209.596C1605.48,-209.596 1623.68,-209.596 1639.88,-209.596"/>
<polygon fill="midnightblue" stroke="midnightblue" points="1588.6,-206.096 1578.6,-209.596 1588.6,-213.096 1588.6,-206.096"/>
</g>
<!-- Node21 -->
<g id="node20" class="node"><title>Node21</title>
<g id="a_node20"><a xlink:href="net__processing_8h.html#ab02615ff65f91d69f8d786ec900baa8a" target="_top" xlink:title="Register with a network node to receive its signals. ">
<polygon fill="white" stroke="black" points="1778,-200.096 1778,-219.096 1887,-219.096 1887,-200.096 1778,-200.096"/>
<text text-anchor="middle" x="1832.5" y="-207.096" font-family="Helvetica,sans-Serif" font-size="10.00">RegisterNodeSignals</text>
</a>
</g>
</g>
<!-- Node20&#45;&gt;Node21 -->
<g id="edge19" class="edge"><title>Node20&#45;&gt;Node21</title>
<path fill="none" stroke="midnightblue" d="M1748.57,-209.596C1758.18,-209.596 1768.1,-209.596 1777.59,-209.596"/>
<polygon fill="midnightblue" stroke="midnightblue" points="1748.3,-206.096 1738.3,-209.596 1748.3,-213.096 1748.3,-206.096"/>
</g>
<!-- Node22 -->
<g id="node21" class="node"><title>Node22</title>
<g id="a_node21"><a xlink:href="net__processing_8h.html#a3ef0cc6e9d9d6435ee2a5569244d6ebd" target="_top" xlink:title="Unregister a network node. ">
<polygon fill="white" stroke="black" points="1774,-124.096 1774,-143.096 1891,-143.096 1891,-124.096 1774,-124.096"/>
<text text-anchor="middle" x="1832.5" y="-131.096" font-family="Helvetica,sans-Serif" font-size="10.00">UnregisterNodeSignals</text>
</a>
</g>
</g>
<!-- Node20&#45;&gt;Node22 -->
<g id="edge21" class="edge"><title>Node20&#45;&gt;Node22</title>
<path fill="none" stroke="midnightblue" d="M1716.91,-195.141C1745.34,-179.873 1789.35,-156.236 1813.72,-143.143"/>
<polygon fill="midnightblue" stroke="midnightblue" points="1715.07,-192.155 1707.92,-199.97 1718.39,-198.322 1715.07,-192.155"/>
</g>
<!-- Node21&#45;&gt;Node9 -->
<g id="edge20" class="edge"><title>Node21&#45;&gt;Node9</title>
<path fill="none" stroke="midnightblue" d="M1897.37,-209.596C1915.09,-209.596 1933.32,-209.596 1947.44,-209.596"/>
<polygon fill="midnightblue" stroke="midnightblue" points="1897.04,-206.096 1887.04,-209.596 1897.04,-213.096 1897.04,-206.096"/>
</g>
<!-- Node23 -->
<g id="node22" class="node"><title>Node23</title>
<g id="a_node22"><a xlink:href="init_8h.html#a5cb3db83cb0ba2e421f651a1ee1f2cfe" target="_top" xlink:title="Preparing steps before shutting down or restarting the wallet. ">
<polygon fill="white" stroke="black" points="1927,-124.096 1927,-143.096 2021,-143.096 2021,-124.096 1927,-124.096"/>
<text text-anchor="middle" x="1974" y="-131.096" font-family="Helvetica,sans-Serif" font-size="10.00">PrepareShutdown</text>
</a>
</g>
</g>
<!-- Node22&#45;&gt;Node23 -->
<g id="edge22" class="edge"><title>Node22&#45;&gt;Node23</title>
<path fill="none" stroke="midnightblue" d="M1901.13,-133.596C1909.77,-133.596 1918.45,-133.596 1926.65,-133.596"/>
<polygon fill="midnightblue" stroke="midnightblue" points="1901.05,-130.096 1891.05,-133.596 1901.05,-137.096 1901.05,-130.096"/>
</g>
<!-- Node24 -->
<g id="node23" class="node"><title>Node24</title>
<g id="a_node23"><a xlink:href="init_8h.html#ac5f038c2b480cf9ef5e19e3eba8dbaf9" target="_top" xlink:title="Shutdown is split into 2 parts: Part 1: shut down everything but the main wallet instance (done in Pr...">
<polygon fill="white" stroke="black" points="2081.5,-124.096 2081.5,-143.096 2141.5,-143.096 2141.5,-124.096 2081.5,-124.096"/>
<text text-anchor="middle" x="2111.5" y="-131.096" font-family="Helvetica,sans-Serif" font-size="10.00">Shutdown</text>
</a>
</g>
</g>
<!-- Node23&#45;&gt;Node24 -->
<g id="edge23" class="edge"><title>Node23&#45;&gt;Node24</title>
<path fill="none" stroke="midnightblue" d="M2031.74,-133.596C2048.84,-133.596 2066.9,-133.596 2081.41,-133.596"/>
<polygon fill="midnightblue" stroke="midnightblue" points="2031.25,-130.096 2021.25,-133.596 2031.25,-137.096 2031.25,-130.096"/>
</g>
<!-- Node26 -->
<g id="node25" class="node"><title>Node26</title>
<g id="a_node25"><a xlink:href="class_bitcoin_core.html#ac2271844c89ebc4c611e7617ce6202e3" target="_top" xlink:title="BitcoinCore::restart">
<polygon fill="white" stroke="black" points="2061,-86.0959 2061,-105.096 2162,-105.096 2162,-86.0959 2061,-86.0959"/>
<text text-anchor="middle" x="2111.5" y="-93.0959" font-family="Helvetica,sans-Serif" font-size="10.00">BitcoinCore::restart</text>
</a>
</g>
</g>
<!-- Node23&#45;&gt;Node26 -->
<g id="edge26" class="edge"><title>Node23&#45;&gt;Node26</title>
<path fill="none" stroke="midnightblue" d="M2018.92,-121.278C2037.54,-116.057 2058.91,-110.064 2076.32,-105.182"/>
<polygon fill="midnightblue" stroke="midnightblue" points="2017.88,-117.937 2009.19,-124.007 2019.77,-124.677 2017.88,-117.937"/>
</g>
<!-- Node24&#45;&gt;Node10 -->
<g id="edge24" class="edge"><title>Node24&#45;&gt;Node10</title>
<path fill="none" stroke="midnightblue" d="M2149.74,-146.571C2155.21,-148.549 2160.76,-150.597 2166,-152.596 2190.28,-161.862 2217.8,-173.215 2236.57,-181.086"/>
<polygon fill="midnightblue" stroke="midnightblue" points="2150.68,-143.187 2140.08,-143.115 2148.32,-149.778 2150.68,-143.187"/>
</g>
<!-- Node25 -->
<g id="node24" class="node"><title>Node25</title>
<g id="a_node24"><a xlink:href="class_bitcoin_core.html#a94f3f4622ba698e321f3a2e0e686129f" target="_top" xlink:title="BitcoinCore::shutdown">
<polygon fill="white" stroke="black" points="2202,-124.096 2202,-143.096 2318,-143.096 2318,-124.096 2202,-124.096"/>
<text text-anchor="middle" x="2260" y="-131.096" font-family="Helvetica,sans-Serif" font-size="10.00">BitcoinCore::shutdown</text>
</a>
</g>
</g>
<!-- Node24&#45;&gt;Node25 -->
<g id="edge25" class="edge"><title>Node24&#45;&gt;Node25</title>
<path fill="none" stroke="midnightblue" d="M2151.97,-133.596C2167.31,-133.596 2185.18,-133.596 2201.88,-133.596"/>
<polygon fill="midnightblue" stroke="midnightblue" points="2151.79,-130.096 2141.79,-133.596 2151.79,-137.096 2151.79,-130.096"/>
</g>
<!-- Node27&#45;&gt;Node17 -->
<g id="edge28" class="edge"><title>Node27&#45;&gt;Node17</title>
<path fill="none" stroke="midnightblue" d="M1262.15,-292.28C1245.98,-292.083 1230.53,-291.441 1219.02,-290.356"/>
<polygon fill="midnightblue" stroke="midnightblue" points="1262.26,-295.781 1272.28,-292.346 1262.3,-288.781 1262.26,-295.781"/>
</g>
<!-- Node28&#45;&gt;Node9 -->
<g id="edge30" class="edge"><title>Node28&#45;&gt;Node9</title>
<path fill="none" stroke="midnightblue" d="M1589.54,-293.011C1659.99,-278.374 1784.58,-252.235 1891,-228.596 1909.83,-224.413 1931.04,-219.492 1947.18,-215.707"/>
<polygon fill="midnightblue" stroke="midnightblue" points="1588.63,-289.626 1579.55,-295.086 1590.05,-296.48 1588.63,-289.626"/>
</g>
<!-- Node29&#45;&gt;Node19 -->
<g id="edge39" class="edge"><title>Node29&#45;&gt;Node19</title>
<path fill="none" stroke="midnightblue" d="M931.372,-145.172C944.565,-147.878 958.769,-150.561 972,-152.596 1162.11,-181.833 1390.95,-199.826 1486.34,-206.567"/>
<polygon fill="midnightblue" stroke="midnightblue" points="932.018,-141.731 921.513,-143.108 930.584,-148.582 932.018,-141.731"/>
</g>
<!-- Node30 -->
<g id="node29" class="node"><title>Node30</title>
<g id="a_node29"><a xlink:href="miner_8cpp.html#abfbc96f613381f93c13c00ebc2f25139" target="_top" xlink:title="ProcessBlockFound">
<polygon fill="white" stroke="black" points="997.5,-86.0959 997.5,-105.096 1101.5,-105.096 1101.5,-86.0959 997.5,-86.0959"/>
<text text-anchor="middle" x="1049.5" y="-93.0959" font-family="Helvetica,sans-Serif" font-size="10.00">ProcessBlockFound</text>
</a>
</g>
</g>
<!-- Node29&#45;&gt;Node30 -->
<g id="edge33" class="edge"><title>Node29&#45;&gt;Node30</title>
<path fill="none" stroke="midnightblue" d="M932.431,-121.772C956.187,-116.414 983.899,-110.165 1006.29,-105.116"/>
<polygon fill="midnightblue" stroke="midnightblue" points="931.505,-118.393 922.52,-124.007 933.045,-125.221 931.505,-118.393"/>
</g>
<!-- Node34 -->
<g id="node33" class="node"><title>Node34</title>
<g id="a_node33"><a xlink:href="server_8h.html#afc5f2c0cbe40a2f876b46df2929cf359" target="_top" xlink:title="generate">
<polygon fill="white" stroke="black" points="1022.5,-48.0959 1022.5,-67.0959 1076.5,-67.0959 1076.5,-48.0959 1022.5,-48.0959"/>
<text text-anchor="middle" x="1049.5" y="-55.0959" font-family="Helvetica,sans-Serif" font-size="10.00">generate</text>
</a>
</g>
</g>
<!-- Node29&#45;&gt;Node34 -->
<g id="edge40" class="edge"><title>Node29&#45;&gt;Node34</title>
<path fill="none" stroke="midnightblue" d="M901.253,-117.754C919.261,-105.004 946.2,-87.4756 972,-76.5959 988.14,-69.7898 1007.27,-65.0398 1022.36,-61.9914"/>
<polygon fill="midnightblue" stroke="midnightblue" points="898.763,-115.234 892.703,-123.925 902.86,-120.91 898.763,-115.234"/>
</g>
<!-- Node35 -->
<g id="node34" class="node"><title>Node35</title>
<g id="a_node34"><a xlink:href="server_8h.html#a220fade8a685be34364aad455f99f6d6" target="_top" xlink:title="submitblock">
<polygon fill="white" stroke="black" points="1015,-124.096 1015,-143.096 1084,-143.096 1084,-124.096 1015,-124.096"/>
<text text-anchor="middle" x="1049.5" y="-131.096" font-family="Helvetica,sans-Serif" font-size="10.00">submitblock</text>
</a>
</g>
</g>
<!-- Node29&#45;&gt;Node35 -->
<g id="edge41" class="edge"><title>Node29&#45;&gt;Node35</title>
<path fill="none" stroke="midnightblue" d="M938.607,-133.596C964.125,-133.596 993.113,-133.596 1014.91,-133.596"/>
<polygon fill="midnightblue" stroke="midnightblue" points="938.285,-130.096 928.285,-133.596 938.285,-137.096 938.285,-130.096"/>
</g>
<!-- Node31 -->
<g id="node30" class="node"><title>Node31</title>
<g id="a_node30"><a xlink:href="miner_8cpp.html#a17c61f964b27cc5060cd7f9b0efb3607" target="_top" xlink:title="BitcoinMiner">
<polygon fill="white" stroke="black" points="1163,-86.0959 1163,-105.096 1234,-105.096 1234,-86.0959 1163,-86.0959"/>
<text text-anchor="middle" x="1198.5" y="-93.0959" font-family="Helvetica,sans-Serif" font-size="10.00">BitcoinMiner</text>
</a>
</g>
</g>
<!-- Node30&#45;&gt;Node31 -->
<g id="edge34" class="edge"><title>Node30&#45;&gt;Node31</title>
<path fill="none" stroke="midnightblue" d="M1111.63,-95.5959C1129.08,-95.5959 1147.48,-95.5959 1162.76,-95.5959"/>
<polygon fill="midnightblue" stroke="midnightblue" points="1111.5,-92.096 1101.5,-95.5959 1111.5,-99.096 1111.5,-92.096"/>
</g>
<!-- Node32 -->
<g id="node31" class="node"><title>Node32</title>
<g id="a_node31"><a xlink:href="miner_8h.html#a5dd1df3c97c260735ad08a808db2115c" target="_top" xlink:title="Run the miner threads. ">
<polygon fill="white" stroke="black" points="1786.5,-86.0959 1786.5,-105.096 1878.5,-105.096 1878.5,-86.0959 1786.5,-86.0959"/>
<text text-anchor="middle" x="1832.5" y="-93.0959" font-family="Helvetica,sans-Serif" font-size="10.00">GenerateBitcoins</text>
</a>
</g>
</g>
<!-- Node31&#45;&gt;Node32 -->
<g id="edge35" class="edge"><title>Node31&#45;&gt;Node32</title>
<path fill="none" stroke="midnightblue" d="M1244.71,-95.5959C1361.13,-95.5959 1670.22,-95.5959 1786.46,-95.5959"/>
<polygon fill="midnightblue" stroke="midnightblue" points="1244.38,-92.096 1234.38,-95.5959 1244.38,-99.096 1244.38,-92.096"/>
</g>
<!-- Node32&#45;&gt;Node9 -->
<g id="edge37" class="edge"><title>Node32&#45;&gt;Node9</title>
<path fill="none" stroke="midnightblue" d="M1881.66,-109.269C1884.92,-110.868 1888.07,-112.639 1891,-114.596 1900.19,-120.738 1946.37,-176.875 1965.09,-199.856"/>
<polygon fill="midnightblue" stroke="midnightblue" points="1882.84,-105.965 1872.27,-105.204 1880.06,-112.389 1882.84,-105.965"/>
</g>
<!-- Node32&#45;&gt;Node23 -->
<g id="edge36" class="edge"><title>Node32&#45;&gt;Node23</title>
<path fill="none" stroke="midnightblue" d="M1878.46,-107.842C1897.68,-113.08 1919.8,-119.105 1937.81,-124.01"/>
<polygon fill="midnightblue" stroke="midnightblue" points="1879.27,-104.436 1868.7,-105.185 1877.43,-111.19 1879.27,-104.436"/>
</g>
<!-- Node33 -->
<g id="node32" class="node"><title>Node33</title>
<g id="a_node32"><a xlink:href="server_8h.html#ae13fce5b0e4a07b7d116242b3a0e39b8" target="_top" xlink:title="setgenerate">
<polygon fill="white" stroke="black" points="1940,-86.0959 1940,-105.096 2008,-105.096 2008,-86.0959 1940,-86.0959"/>
<text text-anchor="middle" x="1974" y="-93.0959" font-family="Helvetica,sans-Serif" font-size="10.00">setgenerate</text>
</a>
</g>
</g>
<!-- Node32&#45;&gt;Node33 -->
<g id="edge38" class="edge"><title>Node32&#45;&gt;Node33</title>
<path fill="none" stroke="midnightblue" d="M1888.79,-95.5959C1906.08,-95.5959 1924.6,-95.5959 1939.86,-95.5959"/>
<polygon fill="midnightblue" stroke="midnightblue" points="1888.79,-92.096 1878.79,-95.5959 1888.79,-99.096 1888.79,-92.096"/>
</g>
<!-- Node36&#45;&gt;Node8 -->
<g id="edge43" class="edge"><title>Node36&#45;&gt;Node8</title>
<path fill="none" stroke="midnightblue" d="M928.579,-236.64C955.291,-230.616 987.872,-223.269 1012.33,-217.753"/>
<polygon fill="midnightblue" stroke="midnightblue" points="927.642,-233.264 918.657,-238.878 929.182,-240.092 927.642,-233.264"/>
</g>
<!-- Node36&#45;&gt;Node9 -->
<g id="edge44" class="edge"><title>Node36&#45;&gt;Node9</title>
<path fill="none" stroke="midnightblue" d="M926.058,-261.14C929.52,-262.781 932.877,-264.595 936,-266.596 955.589,-279.145 951.927,-292.835 972,-304.596 1061.19,-356.855 1094.13,-361.596 1197.5,-361.596 1197.5,-361.596 1197.5,-361.596 1690,-361.596 1811.02,-361.596 1930.22,-252.381 1963.72,-219.104"/>
<polygon fill="midnightblue" stroke="midnightblue" points="927.308,-257.869 916.735,-257.193 924.579,-264.315 927.308,-257.869"/>
</g>
<!-- Node37&#45;&gt;Node8 -->
<g id="edge46" class="edge"><title>Node37&#45;&gt;Node8</title>
<path fill="none" stroke="midnightblue" d="M932.557,-183.449C958.454,-189.289 989.027,-196.184 1012.27,-201.426"/>
<polygon fill="midnightblue" stroke="midnightblue" points="933.045,-179.971 922.52,-181.185 931.505,-186.799 933.045,-179.971"/>
</g>
<!-- Node38&#45;&gt;Node39 -->
<g id="edge48" class="edge"><title>Node38&#45;&gt;Node39</title>
<path fill="none" stroke="midnightblue" d="M463.419,-127.92C494.58,-103.999 553.089,-59.0834 578.815,-39.334"/>
<polygon fill="midnightblue" stroke="midnightblue" points="461.207,-125.207 455.406,-134.072 465.469,-130.759 461.207,-125.207"/>
</g>
<!-- Node38&#45;&gt;Node40 -->
<g id="edge52" class="edge"><title>Node38&#45;&gt;Node40</title>
<path fill="none" stroke="midnightblue" d="M498.882,-134.441C554.866,-125.27 639.924,-111.335 691.5,-102.886"/>
<polygon fill="midnightblue" stroke="midnightblue" points="498.084,-131.025 488.781,-136.096 499.216,-137.933 498.084,-131.025"/>
</g>
<!-- Node39&#45;&gt;Node31 -->
<g id="edge49" class="edge"><title>Node39&#45;&gt;Node31</title>
<path fill="none" stroke="midnightblue" d="M648.192,-19.1701C747.225,-2.72466 961.336,21.5739 1127,-38.5959 1153.63,-48.2677 1177.67,-72.5185 1189.59,-86.065"/>
<polygon fill="midnightblue" stroke="midnightblue" points="647.39,-15.7562 638.118,-20.8825 648.563,-22.6572 647.39,-15.7562"/>
</g>
<!-- Node39&#45;&gt;Node34 -->
<g id="edge50" class="edge"><title>Node39&#45;&gt;Node34</title>
<path fill="none" stroke="midnightblue" d="M648.431,-32.9763C746.974,-39.0405 950.233,-51.5487 1022.39,-55.989"/>
<polygon fill="midnightblue" stroke="midnightblue" points="648.569,-29.4782 638.372,-32.3573 648.138,-36.465 648.569,-29.4782"/>
</g>
<!-- Node39&#45;&gt;Node40 -->
<g id="edge51" class="edge"><title>Node39&#45;&gt;Node40</title>
<path fill="none" stroke="midnightblue" d="M627.162,-42.9058C635.341,-46.2772 644.026,-49.9729 652,-53.5959 652.408,-53.7814 691.958,-73.5634 716.637,-85.909"/>
<polygon fill="midnightblue" stroke="midnightblue" points="628.447,-39.6503 617.866,-39.1211 625.808,-46.1336 628.447,-39.6503"/>
</g>
<!-- Node42 -->
<g id="node41" class="node"><title>Node42</title>
<g id="a_node41"><a xlink:href="server_8h.html#a30b96575c158ca0465dbdb25705c4ca9" target="_top" xlink:title="verifychain">
<polygon fill="white" stroke="black" points="560.5,-210.096 560.5,-229.096 624.5,-229.096 624.5,-210.096 560.5,-210.096"/>
<text text-anchor="middle" x="592.5" y="-217.096" font-family="Helvetica,sans-Serif" font-size="10.00">verifychain</text>
</a>
</g>
</g>
<!-- Node41&#45;&gt;Node42 -->
<g id="edge54" class="edge"><title>Node41&#45;&gt;Node42</title>
<path fill="none" stroke="midnightblue" d="M507.129,-219.596C525.513,-219.596 544.74,-219.596 560.188,-219.596"/>
<polygon fill="midnightblue" stroke="midnightblue" points="507.032,-216.096 497.032,-219.596 507.032,-223.096 507.032,-216.096"/>
</g>
<!-- Node43&#45;&gt;Node29 -->
<g id="edge56" class="edge"><title>Node43&#45;&gt;Node29</title>
<path fill="none" stroke="midnightblue" d="M783.284,-153.216C798.906,-149.98 816.414,-146.353 832.086,-143.107"/>
<polygon fill="midnightblue" stroke="midnightblue" points="782.41,-149.822 773.328,-155.278 783.83,-156.677 782.41,-149.822"/>
</g>
<!-- Node43&#45;&gt;Node37 -->
<g id="edge57" class="edge"><title>Node43&#45;&gt;Node37</title>
<path fill="none" stroke="midnightblue" d="M783.357,-165.512C795.67,-166.303 809.15,-167.17 821.977,-167.994"/>
<polygon fill="midnightblue" stroke="midnightblue" points="783.532,-162.016 773.328,-164.867 783.083,-169.001 783.532,-162.016"/>
</g>
<!-- Node44&#45;&gt;Node38 -->
<g id="edge63" class="edge"><title>Node44&#45;&gt;Node38</title>
<path fill="none" stroke="midnightblue" d="M340.514,-117.708C361.057,-123 384.8,-129.117 404.047,-134.076"/>
<polygon fill="midnightblue" stroke="midnightblue" points="341.277,-114.29 330.72,-115.185 339.531,-121.069 341.277,-114.29"/>
</g>
<!-- Node44&#45;&gt;Node43 -->
<g id="edge62" class="edge"><title>Node44&#45;&gt;Node43</title>
<path fill="none" stroke="midnightblue" d="M361.148,-110.81C400.801,-114.142 451.822,-118.901 497,-124.596 569.739,-133.765 654.362,-148.09 700.871,-156.282"/>
<polygon fill="midnightblue" stroke="midnightblue" points="361.318,-107.312 351.062,-109.973 360.739,-114.288 361.318,-107.312"/>
</g>
</g>
</svg>
        <g id="navigator" transform="translate(0 0)" fill="#404254">
                <rect fill="#f2f5e9" fill-opacity="0.5" stroke="#606060" stroke-width=".5" x="0" y="0" width="60" height="60"/>
                <use id="zoomplus" xlink:href="#zoomPlus" x="17" y="9" onmousedown="handleZoom(evt,'in')"/>
                <use id="zoomminus" xlink:href="#zoomMin" x="42" y="9" onmousedown="handleZoom(evt,'out')"/>
                <use id="reset" xlink:href="#resetDef" x="30" y="36" onmousedown="handleReset()"/>
                <g id="arrowUp" xlink:href="#dirArrow" transform="translate(30 24)" onmousedown="handlePan(0,-1)">
                  <use xlink:href="#rim" fill="#404040">
                        <set attributeName="fill" to="#808080" begin="arrowUp.mouseover" end="arrowUp.mouseout"/>
                  </use>
                  <path fill="none" stroke="white" stroke-width="1.5" d="M0,-3.0v7 M-2.5,-0.5L0,-3.0L2.5,-0.5"/>
                </g>
                <g id="arrowRight" xlink:href="#dirArrow" transform="rotate(90) translate(36 -43)" onmousedown="handlePan(1,0)">
                  <use xlink:href="#rim" fill="#404040">
                        <set attributeName="fill" to="#808080" begin="arrowRight.mouseover" end="arrowRight.mouseout"/>
                  </use>
                  <path fill="none" stroke="white" stroke-width="1.5" d="M0,-3.0v7 M-2.5,-0.5L0,-3.0L2.5,-0.5"/>
                </g>
                <g id="arrowDown" xlink:href="#dirArrow" transform="rotate(180) translate(-30 -48)" onmousedown="handlePan(0,1)">
                  <use xlink:href="#rim" fill="#404040">
                        <set attributeName="fill" to="#808080" begin="arrowDown.mouseover" end="arrowDown.mouseout"/>
                  </use>
                  <path fill="none" stroke="white" stroke-width="1.5" d="M0,-3.0v7 M-2.5,-0.5L0,-3.0L2.5,-0.5"/>
                </g>
                <g id="arrowLeft" xlink:href="#dirArrow" transform="rotate(270) translate(-36 17)" onmousedown="handlePan(-1,0)">
                  <use xlink:href="#rim" fill="#404040">
                        <set attributeName="fill" to="#808080" begin="arrowLeft.mouseover" end="arrowLeft.mouseout"/>
                  </use>
                  <path fill="none" stroke="white" stroke-width="1.5" d="M0,-3.0v7 M-2.5,-0.5L0,-3.0L2.5,-0.5"/>
                </g>
        </g>
        <svg viewBox="0 0 15 15" width="100%" height="30px" preserveAspectRatio="xMaxYMin meet">
         <g id="arrow_out" transform="scale(0.3 0.3)">
          <a xlink:href="consensus_8h_a584552e12f7fc517fbc554315d181d27_icgraph_org.svg" target="_base">
           <rect id="button" ry="5" rx="5" y="6" x="6" height="38" width="38"
                fill="#f2f5e9" fill-opacity="0.5" stroke="#606060" stroke-width="1.0"/>
           <path id="arrow"
             d="M 11.500037,31.436501 C 11.940474,20.09759 22.043105,11.32322 32.158766,21.979434 L 37.068811,17.246167 C 37.068811,17.246167 37.088388,32 37.088388,32 L 22.160133,31.978069 C 22.160133,31.978069 26.997745,27.140456 26.997745,27.140456 C 18.528582,18.264221 13.291696,25.230495 11.500037,31.436501 z"
             style="fill:#404040;"/>
          </a>
         </g>
        </svg>
</svg>
