<?xml version="1.0" encoding="UTF-8" standalone="no"?>
<!DOCTYPE svg PUBLIC "-//W3C//DTD SVG 1.1//EN"
 "http://www.w3.org/Graphics/SVG/1.1/DTD/svg11.dtd">
<!-- Generated by graphviz version 2.38.0 (20140413.2041)
 -->
<!-- Title: src/core_io.h Pages: 1 -->
<!--zoomable 162 -->
<svg id="main" version="1.1" xmlns="http://www.w3.org/2000/svg" xmlns:xlink="http://www.w3.org/1999/xlink" xml:space="preserve" onload="init(evt)">
<style type="text/css"><![CDATA[
.edge:hover path { stroke: red; }
.edge:hover polygon { stroke: red; fill: red; }
]]></style>
<script type="text/javascript"><![CDATA[
var edges = document.getElementsByTagName('g');
if (edges && edges.length) {
  for (var i=0;i<edges.length;i++) {
    if (edges[i].id.substr(0,4)=='edge') {
      edges[i].setAttribute('class','edge');
    }
  }
}
]]></script>
        <defs>
                <circle id="rim" cx="0" cy="0" r="7"/>
                <circle id="rim2" cx="0" cy="0" r="3.5"/>
                <g id="zoomPlus">
                        <use xlink:href="#rim" fill="#404040">
                                <set attributeName="fill" to="#808080" begin="zoomplus.mouseover" end="zoomplus.mouseout"/>
                        </use>
                        <path d="M-4,0h8M0,-4v8" fill="none" stroke="white" stroke-width="1.5" pointer-events="none"/>
                </g>
                <g id="zoomMin">
                        <use xlink:href="#rim" fill="#404040">
                                <set attributeName="fill" to="#808080" begin="zoomminus.mouseover" end="zoomminus.mouseout"/>
                        </use>
                        <path d="M-4,0h8" fill="none" stroke="white" stroke-width="1.5" pointer-events="none"/>
                </g>
                <g id="dirArrow">
                        <path fill="none" stroke="white" stroke-width="1.5" d="M0,-3.0v7 M-2.5,-0.5L0,-3.0L2.5,-0.5"/>
                </g>
               <g id="resetDef">
                       <use xlink:href="#rim2" fill="#404040">
                               <set attributeName="fill" to="#808080" begin="reset.mouseover" end="reset.mouseout"/>
                       </use>
               </g>
        </defs>

<script type="text/javascript">
var viewWidth = 2928;
var viewHeight = 162;
var sectionId = 'dynsection-1';
</script>
<script xlink:href="svgpan.js"/>
<svg id="graph" class="graph">
<g id="viewport">
<title>src/core_io.h</title>
<polygon fill="white" stroke="none" points="-4,4 -4,-158 2924,-158 2924,4 -4,4"/>
<!-- Node5 -->
<g id="node1" class="node"><title>Node5</title>
<polygon fill="#bfbfbf" stroke="black" points="1391.5,-134.5 1391.5,-153.5 1468.5,-153.5 1468.5,-134.5 1391.5,-134.5"/>
<text text-anchor="middle" x="1430" y="-141.5" font-family="Helvetica,sans-Serif" font-size="10.00">src/core_io.h</text>
</g>
<!-- Node6 -->
<g id="node2" class="node"><title>Node6</title>
<g id="a_node2"><a xlink:href="core__read_8cpp.html" target="_top" xlink:title="src/core_read.cpp">
<polygon fill="white" stroke="black" points="0,-73 0,-92 102,-92 102,-73 0,-73"/>
<text text-anchor="middle" x="51" y="-80" font-family="Helvetica,sans-Serif" font-size="10.00">src/core_read.cpp</text>
</a>
</g>
</g>
<!-- Node5&#45;&gt;Node6 -->
<g id="edge1" class="edge"><title>Node5&#45;&gt;Node6</title>
<path fill="none" stroke="midnightblue" d="M1381.14,-142.66C1173.53,-141.013 363.57,-132.463 111,-98 101.125,-96.6526 90.5066,-94.3705 80.9879,-92.0107"/>
<polygon fill="midnightblue" stroke="midnightblue" points="1381.39,-146.162 1391.42,-142.74 1381.45,-139.163 1381.39,-146.162"/>
</g>
<!-- Node7 -->
<g id="node3" class="node"><title>Node7</title>
<g id="a_node3"><a xlink:href="core__write_8cpp.html" target="_top" xlink:title="src/core_write.cpp">
<polygon fill="white" stroke="black" points="120.5,-73 120.5,-92 223.5,-92 223.5,-73 120.5,-73"/>
<text text-anchor="middle" x="172" y="-80" font-family="Helvetica,sans-Serif" font-size="10.00">src/core_write.cpp</text>
</a>
</g>
</g>
<!-- Node5&#45;&gt;Node7 -->
<g id="edge2" class="edge"><title>Node5&#45;&gt;Node7</title>
<path fill="none" stroke="midnightblue" d="M1381.27,-142.441C1186.09,-140.004 460.496,-129.01 233,-98 223.077,-96.6474 212.408,-94.3943 202.811,-92.0627"/>
<polygon fill="midnightblue" stroke="midnightblue" points="1381.45,-145.943 1391.49,-142.567 1381.54,-138.944 1381.45,-145.943"/>
</g>
<!-- Node8 -->
<g id="node4" class="node"><title>Node8</title>
<g id="a_node4"><a xlink:href="dash-tx_8cpp.html" target="_top" xlink:title="src/dash&#45;tx.cpp">
<polygon fill="white" stroke="black" points="242,-73 242,-92 332,-92 332,-73 242,-73"/>
<text text-anchor="middle" x="287" y="-80" font-family="Helvetica,sans-Serif" font-size="10.00">src/dash&#45;tx.cpp</text>
</a>
</g>
</g>
<!-- Node5&#45;&gt;Node8 -->
<g id="edge3" class="edge"><title>Node5&#45;&gt;Node8</title>
<path fill="none" stroke="midnightblue" d="M1381.16,-142.415C1197.16,-139.99 545.816,-129.335 341,-98 332.172,-96.6494 322.715,-94.3969 314.221,-92.0651"/>
<polygon fill="midnightblue" stroke="midnightblue" points="1381.3,-145.917 1391.34,-142.547 1381.39,-138.918 1381.3,-145.917"/>
</g>
<!-- Node9 -->
<g id="node5" class="node"><title>Node9</title>
<g id="a_node5"><a xlink:href="deterministicmns_8cpp.html" target="_top" xlink:title="src/evo/deterministicmns.cpp">
<polygon fill="white" stroke="black" points="350,-73 350,-92 508,-92 508,-73 350,-73"/>
<text text-anchor="middle" x="429" y="-80" font-family="Helvetica,sans-Serif" font-size="10.00">src/evo/deterministicmns.cpp</text>
</a>
</g>
</g>
<!-- Node5&#45;&gt;Node9 -->
<g id="edge4" class="edge"><title>Node5&#45;&gt;Node9</title>
<path fill="none" stroke="midnightblue" d="M1381,-142.548C1244.04,-140.862 845.742,-133.07 517,-98 503.143,-96.5218 488.153,-94.2908 474.539,-92.019"/>
<polygon fill="midnightblue" stroke="midnightblue" points="1381.13,-146.05 1391.17,-142.668 1381.21,-139.05 1381.13,-146.05"/>
</g>
<!-- Node10 -->
<g id="node6" class="node"><title>Node10</title>
<g id="a_node6"><a xlink:href="providertx_8cpp.html" target="_top" xlink:title="src/evo/providertx.cpp">
<polygon fill="white" stroke="black" points="526,-73 526,-92 648,-92 648,-73 526,-73"/>
<text text-anchor="middle" x="587" y="-80" font-family="Helvetica,sans-Serif" font-size="10.00">src/evo/providertx.cpp</text>
</a>
</g>
</g>
<!-- Node5&#45;&gt;Node10 -->
<g id="edge5" class="edge"><title>Node5&#45;&gt;Node10</title>
<path fill="none" stroke="midnightblue" d="M1381.02,-142.626C1258.48,-141.154 928.948,-133.886 657,-98 645.926,-96.5387 633.987,-94.3128 623.16,-92.0404"/>
<polygon fill="midnightblue" stroke="midnightblue" points="1381.17,-146.128 1391.2,-142.741 1381.24,-139.128 1381.17,-146.128"/>
</g>
<!-- Node11 -->
<g id="node7" class="node"><title>Node11</title>
<g id="a_node7"><a xlink:href="simplifiedmns_8cpp.html" target="_top" xlink:title="src/evo/simplifiedmns.cpp">
<polygon fill="white" stroke="black" points="666,-73 666,-92 806,-92 806,-73 666,-73"/>
<text text-anchor="middle" x="736" y="-80" font-family="Helvetica,sans-Serif" font-size="10.00">src/evo/simplifiedmns.cpp</text>
</a>
</g>
</g>
<!-- Node5&#45;&gt;Node11 -->
<g id="edge6" class="edge"><title>Node5&#45;&gt;Node11</title>
<path fill="none" stroke="midnightblue" d="M1381.22,-141.186C1277.07,-136.926 1025.38,-124.572 816,-98 803.677,-96.4362 790.374,-94.2341 778.219,-92.0174"/>
<polygon fill="midnightblue" stroke="midnightblue" points="1381.29,-144.691 1391.42,-141.596 1381.57,-137.697 1381.29,-144.691"/>
</g>
<!-- Node12 -->
<g id="node8" class="node"><title>Node12</title>
<g id="a_node8"><a xlink:href="governance-classes_8cpp.html" target="_top" xlink:title="src/governance/governance\l&#45;classes.cpp">
<polygon fill="white" stroke="black" points="824.5,-67.5 824.5,-97.5 973.5,-97.5 973.5,-67.5 824.5,-67.5"/>
<text text-anchor="start" x="832.5" y="-85.5" font-family="Helvetica,sans-Serif" font-size="10.00">src/governance/governance</text>
<text text-anchor="middle" x="899" y="-74.5" font-family="Helvetica,sans-Serif" font-size="10.00">&#45;classes.cpp</text>
</a>
</g>
</g>
<!-- Node5&#45;&gt;Node12 -->
<g id="edge7" class="edge"><title>Node5&#45;&gt;Node12</title>
<path fill="none" stroke="midnightblue" d="M1381.27,-139.228C1298.98,-132.605 1127.33,-117.697 983,-98 979.921,-97.5798 976.781,-97.1309 973.613,-96.6609"/>
<polygon fill="midnightblue" stroke="midnightblue" points="1381.08,-142.724 1391.33,-140.032 1381.64,-135.746 1381.08,-142.724"/>
</g>
<!-- Node13 -->
<g id="node9" class="node"><title>Node13</title>
<g id="a_node9"><a xlink:href="governance-object_8cpp.html" target="_top" xlink:title="src/governance/governance\l&#45;object.cpp">
<polygon fill="white" stroke="black" points="991.5,-67.5 991.5,-97.5 1140.5,-97.5 1140.5,-67.5 991.5,-67.5"/>
<text text-anchor="start" x="999.5" y="-85.5" font-family="Helvetica,sans-Serif" font-size="10.00">src/governance/governance</text>
<text text-anchor="middle" x="1066" y="-74.5" font-family="Helvetica,sans-Serif" font-size="10.00">&#45;object.cpp</text>
</a>
</g>
</g>
<!-- Node5&#45;&gt;Node13 -->
<g id="edge8" class="edge"><title>Node5&#45;&gt;Node13</title>
<path fill="none" stroke="midnightblue" d="M1381.51,-135.382C1325.66,-126.566 1231.15,-111.525 1150,-98 1146.93,-97.4891 1143.81,-96.9644 1140.65,-96.4317"/>
<polygon fill="midnightblue" stroke="midnightblue" points="1381.06,-138.853 1391.48,-136.954 1382.15,-131.939 1381.06,-138.853"/>
</g>
<!-- Node14 -->
<g id="node10" class="node"><title>Node14</title>
<g id="a_node10"><a xlink:href="masternode-payments_8h.html" target="_top" xlink:title="src/masternode/masternode\l&#45;payments.h">
<polygon fill="white" stroke="black" points="1159,-67.5 1159,-97.5 1313,-97.5 1313,-67.5 1159,-67.5"/>
<text text-anchor="start" x="1167" y="-85.5" font-family="Helvetica,sans-Serif" font-size="10.00">src/masternode/masternode</text>
<text text-anchor="middle" x="1236" y="-74.5" font-family="Helvetica,sans-Serif" font-size="10.00">&#45;payments.h</text>
</a>
</g>
</g>
<!-- Node5&#45;&gt;Node14 -->
<g id="edge9" class="edge"><title>Node5&#45;&gt;Node14</title>
<path fill="none" stroke="midnightblue" d="M1392.45,-131.483C1360.82,-121.782 1315.46,-107.871 1281.72,-97.523"/>
<polygon fill="midnightblue" stroke="midnightblue" points="1391.62,-134.889 1402.2,-134.475 1393.67,-128.197 1391.62,-134.889"/>
</g>
<!-- Node21 -->
<g id="node17" class="node"><title>Node21</title>
<g id="a_node17"><a xlink:href="privatesend-client_8cpp.html" target="_top" xlink:title="src/privatesend/privatesend\l&#45;client.cpp">
<polygon fill="white" stroke="black" points="1575.5,-0.5 1575.5,-30.5 1724.5,-30.5 1724.5,-0.5 1575.5,-0.5"/>
<text text-anchor="start" x="1583.5" y="-18.5" font-family="Helvetica,sans-Serif" font-size="10.00">src/privatesend/privatesend</text>
<text text-anchor="middle" x="1650" y="-7.5" font-family="Helvetica,sans-Serif" font-size="10.00">&#45;client.cpp</text>
</a>
</g>
</g>
<!-- Node5&#45;&gt;Node21 -->
<g id="edge21" class="edge"><title>Node5&#45;&gt;Node21</title>
<path fill="none" stroke="midnightblue" d="M1398.98,-129.667C1386.01,-122.348 1372.28,-111.892 1365,-98 1358.61,-85.7959 1356.15,-77.5581 1365,-67 1365.43,-66.4886 1490.97,-44.3869 1575.26,-29.5951"/>
<polygon fill="midnightblue" stroke="midnightblue" points="1397.7,-132.947 1408.19,-134.447 1400.93,-126.734 1397.7,-132.947"/>
</g>
<!-- Node24 -->
<g id="node20" class="node"><title>Node24</title>
<g id="a_node20"><a xlink:href="mining_8cpp.html" target="_top" xlink:title="src/rpc/mining.cpp">
<polygon fill="white" stroke="black" points="1743,-6 1743,-25 1847,-25 1847,-6 1743,-6"/>
<text text-anchor="middle" x="1795" y="-13" font-family="Helvetica,sans-Serif" font-size="10.00">src/rpc/mining.cpp</text>
</a>
</g>
</g>
<!-- Node5&#45;&gt;Node24 -->
<g id="edge27" class="edge"><title>Node5&#45;&gt;Node24</title>
<path fill="none" stroke="midnightblue" d="M1413.9,-126.7C1399.39,-110.038 1382.52,-84.2294 1398,-67 1448.19,-11.1437 1659.99,-43.7086 1734,-31 1743.33,-29.3973 1753.37,-27.2093 1762.55,-25.0188"/>
<polygon fill="midnightblue" stroke="midnightblue" points="1411.73,-129.513 1421.09,-134.485 1416.88,-124.764 1411.73,-129.513"/>
</g>
<!-- Node26 -->
<g id="node22" class="node"><title>Node26</title>
<g id="a_node22"><a xlink:href="privatesend-server_8cpp.html" target="_top" xlink:title="src/privatesend/privatesend\l&#45;server.cpp">
<polygon fill="white" stroke="black" points="1406.5,-67.5 1406.5,-97.5 1555.5,-97.5 1555.5,-67.5 1406.5,-67.5"/>
<text text-anchor="start" x="1414.5" y="-85.5" font-family="Helvetica,sans-Serif" font-size="10.00">src/privatesend/privatesend</text>
<text text-anchor="middle" x="1481" y="-74.5" font-family="Helvetica,sans-Serif" font-size="10.00">&#45;server.cpp</text>
</a>
</g>
</g>
<!-- Node5&#45;&gt;Node26 -->
<g id="edge22" class="edge"><title>Node5&#45;&gt;Node26</title>
<path fill="none" stroke="midnightblue" d="M1443.88,-126.811C1451.73,-117.649 1461.45,-106.303 1468.98,-97.523"/>
<polygon fill="midnightblue" stroke="midnightblue" points="1441.16,-124.605 1437.31,-134.475 1446.47,-129.16 1441.16,-124.605"/>
</g>
<!-- Node27 -->
<g id="node23" class="node"><title>Node27</title>
<g id="a_node23"><a xlink:href="transactiontablemodel_8cpp.html" target="_top" xlink:title="src/qt/transactiontablemodel.cpp">
<polygon fill="white" stroke="black" points="1573.5,-73 1573.5,-92 1748.5,-92 1748.5,-73 1573.5,-73"/>
<text text-anchor="middle" x="1661" y="-80" font-family="Helvetica,sans-Serif" font-size="10.00">src/qt/transactiontablemodel.cpp</text>
</a>
</g>
</g>
<!-- Node5&#45;&gt;Node27 -->
<g id="edge23" class="edge"><title>Node5&#45;&gt;Node27</title>
<path fill="none" stroke="midnightblue" d="M1472.83,-131.968C1517.68,-120.415 1587.17,-102.517 1627.96,-92.0091"/>
<polygon fill="midnightblue" stroke="midnightblue" points="1471.91,-128.591 1463.1,-134.475 1473.65,-135.37 1471.91,-128.591"/>
</g>
<!-- Node28 -->
<g id="node24" class="node"><title>Node28</title>
<g id="a_node24"><a xlink:href="rest_8cpp.html" target="_top" xlink:title="src/rest.cpp">
<polygon fill="white" stroke="black" points="1766.5,-73 1766.5,-92 1839.5,-92 1839.5,-73 1766.5,-73"/>
<text text-anchor="middle" x="1803" y="-80" font-family="Helvetica,sans-Serif" font-size="10.00">src/rest.cpp</text>
</a>
</g>
</g>
<!-- Node5&#45;&gt;Node28 -->
<g id="edge24" class="edge"><title>Node5&#45;&gt;Node28</title>
<path fill="none" stroke="midnightblue" d="M1479.06,-138.976C1543.61,-133.066 1660.32,-120.257 1758,-98 1764.88,-96.4318 1772.22,-94.2808 1778.93,-92.1156"/>
<polygon fill="midnightblue" stroke="midnightblue" points="1478.42,-135.519 1468.77,-139.899 1479.04,-142.491 1478.42,-135.519"/>
</g>
<!-- Node29 -->
<g id="node25" class="node"><title>Node29</title>
<g id="a_node25"><a xlink:href="blockchain_8cpp.html" target="_top" xlink:title="src/rpc/blockchain.cpp">
<polygon fill="white" stroke="black" points="1858,-73 1858,-92 1980,-92 1980,-73 1858,-73"/>
<text text-anchor="middle" x="1919" y="-80" font-family="Helvetica,sans-Serif" font-size="10.00">src/rpc/blockchain.cpp</text>
</a>
</g>
</g>
<!-- Node5&#45;&gt;Node29 -->
<g id="edge25" class="edge"><title>Node5&#45;&gt;Node29</title>
<path fill="none" stroke="midnightblue" d="M1478.63,-139.323C1556.93,-133.055 1715.67,-118.918 1849,-98 1859.54,-96.3457 1870.9,-94.1665 1881.34,-92.0018"/>
<polygon fill="midnightblue" stroke="midnightblue" points="1478.27,-135.84 1468.58,-140.119 1478.83,-142.818 1478.27,-135.84"/>
</g>
<!-- Node30 -->
<g id="node26" class="node"><title>Node30</title>
<g id="a_node26"><a xlink:href="rpc_2governance_8cpp.html" target="_top" xlink:title="src/rpc/governance.cpp">
<polygon fill="white" stroke="black" points="1998,-73 1998,-92 2126,-92 2126,-73 1998,-73"/>
<text text-anchor="middle" x="2062" y="-80" font-family="Helvetica,sans-Serif" font-size="10.00">src/rpc/governance.cpp</text>
</a>
</g>
</g>
<!-- Node5&#45;&gt;Node30 -->
<g id="edge26" class="edge"><title>Node5&#45;&gt;Node30</title>
<path fill="none" stroke="midnightblue" d="M1478.94,-140.968C1576.4,-136.5 1801.52,-124.077 1989,-98 2000.26,-96.4335 2012.41,-94.2306 2023.5,-92.014"/>
<polygon fill="midnightblue" stroke="midnightblue" points="1478.63,-137.478 1468.8,-141.425 1478.95,-144.471 1478.63,-137.478"/>
</g>
<!-- Node31 -->
<g id="node27" class="node"><title>Node31</title>
<g id="a_node27"><a xlink:href="misc_8cpp.html" target="_top" xlink:title="src/rpc/misc.cpp">
<polygon fill="white" stroke="black" points="2144.5,-73 2144.5,-92 2239.5,-92 2239.5,-73 2144.5,-73"/>
<text text-anchor="middle" x="2192" y="-80" font-family="Helvetica,sans-Serif" font-size="10.00">src/rpc/misc.cpp</text>
</a>
</g>
</g>
<!-- Node5&#45;&gt;Node31 -->
<g id="edge28" class="edge"><title>Node5&#45;&gt;Node31</title>
<path fill="none" stroke="midnightblue" d="M1479.13,-142.984C1594.4,-142.269 1890.94,-136.492 2135,-98 2144.18,-96.5524 2154.03,-94.3018 2162.93,-92.002"/>
<polygon fill="midnightblue" stroke="midnightblue" points="1478.85,-139.485 1468.87,-143.037 1478.89,-146.485 1478.85,-139.485"/>
</g>
<!-- Node32 -->
<g id="node28" class="node"><title>Node32</title>
<g id="a_node28"><a xlink:href="rpc_2net_8cpp.html" target="_top" xlink:title="src/rpc/net.cpp">
<polygon fill="white" stroke="black" points="2258,-73 2258,-92 2346,-92 2346,-73 2258,-73"/>
<text text-anchor="middle" x="2302" y="-80" font-family="Helvetica,sans-Serif" font-size="10.00">src/rpc/net.cpp</text>
</a>
</g>
</g>
<!-- Node5&#45;&gt;Node32 -->
<g id="edge29" class="edge"><title>Node5&#45;&gt;Node32</title>
<path fill="none" stroke="midnightblue" d="M1478.67,-141.681C1631.28,-137.333 2099.23,-122.319 2249,-98 2257.57,-96.6087 2266.74,-94.3743 2275.01,-92.072"/>
<polygon fill="midnightblue" stroke="midnightblue" points="1478.55,-138.183 1468.65,-141.964 1478.75,-145.18 1478.55,-138.183"/>
</g>
<!-- Node33 -->
<g id="node29" class="node"><title>Node33</title>
<g id="a_node29"><a xlink:href="rawtransaction_8cpp.html" target="_top" xlink:title="src/rpc/rawtransaction.cpp">
<polygon fill="white" stroke="black" points="2364.5,-73 2364.5,-92 2507.5,-92 2507.5,-73 2364.5,-73"/>
<text text-anchor="middle" x="2436" y="-80" font-family="Helvetica,sans-Serif" font-size="10.00">src/rpc/rawtransaction.cpp</text>
</a>
</g>
</g>
<!-- Node5&#45;&gt;Node33 -->
<g id="edge30" class="edge"><title>Node5&#45;&gt;Node33</title>
<path fill="none" stroke="midnightblue" d="M1479.18,-142.828C1617.55,-141.866 2021.8,-135.77 2355,-98 2367.78,-96.5518 2381.58,-94.3297 2394.11,-92.0569"/>
<polygon fill="midnightblue" stroke="midnightblue" points="1478.89,-139.33 1468.92,-142.893 1478.94,-146.329 1478.89,-139.33"/>
</g>
<!-- Node34 -->
<g id="node30" class="node"><title>Node34</title>
<g id="a_node30"><a xlink:href="rpcevo_8cpp.html" target="_top" xlink:title="src/rpc/rpcevo.cpp">
<polygon fill="white" stroke="black" points="2526,-73 2526,-92 2630,-92 2630,-73 2526,-73"/>
<text text-anchor="middle" x="2578" y="-80" font-family="Helvetica,sans-Serif" font-size="10.00">src/rpc/rpcevo.cpp</text>
</a>
</g>
</g>
<!-- Node5&#45;&gt;Node34 -->
<g id="edge31" class="edge"><title>Node5&#45;&gt;Node34</title>
<path fill="none" stroke="midnightblue" d="M1478.72,-142.227C1662.29,-139.119 2312.13,-126.322 2517,-98 2526.92,-96.6286 2537.59,-94.3702 2547.19,-92.0395"/>
<polygon fill="midnightblue" stroke="midnightblue" points="1478.5,-138.73 1468.56,-142.397 1478.62,-145.729 1478.5,-138.73"/>
</g>
<!-- Node35 -->
<g id="node31" class="node"><title>Node35</title>
<g id="a_node31"><a xlink:href="rpcdump_8cpp.html" target="_top" xlink:title="src/wallet/rpcdump.cpp">
<polygon fill="white" stroke="black" points="2648.5,-73 2648.5,-92 2775.5,-92 2775.5,-73 2648.5,-73"/>
<text text-anchor="middle" x="2712" y="-80" font-family="Helvetica,sans-Serif" font-size="10.00">src/wallet/rpcdump.cpp</text>
</a>
</g>
</g>
<!-- Node5&#45;&gt;Node35 -->
<g id="edge32" class="edge"><title>Node5&#45;&gt;Node35</title>
<path fill="none" stroke="midnightblue" d="M1478.57,-142.223C1674.66,-138.928 2408.43,-125.016 2639,-98 2650.81,-96.6166 2663.56,-94.3548 2675.04,-92.0247"/>
<polygon fill="midnightblue" stroke="midnightblue" points="1478.51,-138.724 1468.57,-142.39 1478.62,-145.723 1478.51,-138.724"/>
</g>
<!-- Node36 -->
<g id="node32" class="node"><title>Node36</title>
<g id="a_node32"><a xlink:href="rpcwallet_8cpp.html" target="_top" xlink:title="src/wallet/rpcwallet.cpp">
<polygon fill="white" stroke="black" points="2794,-73 2794,-92 2920,-92 2920,-73 2794,-73"/>
<text text-anchor="middle" x="2857" y="-80" font-family="Helvetica,sans-Serif" font-size="10.00">src/wallet/rpcwallet.cpp</text>
</a>
</g>
</g>
<!-- Node5&#45;&gt;Node36 -->
<g id="edge33" class="edge"><title>Node5&#45;&gt;Node36</title>
<path fill="none" stroke="midnightblue" d="M1478.79,-142.463C1689.72,-139.973 2524.34,-128.364 2785,-98 2796.65,-96.6427 2809.23,-94.3883 2820.56,-92.0568"/>
<polygon fill="midnightblue" stroke="midnightblue" points="1478.6,-138.965 1468.64,-142.581 1478.68,-145.964 1478.6,-138.965"/>
</g>
<!-- Node15 -->
<g id="node11" class="node"><title>Node15</title>
<g id="a_node11"><a xlink:href="dsnotificationinterface_8cpp.html" target="_top" xlink:title="src/dsnotificationinterface.cpp">
<polygon fill="white" stroke="black" points="723,-6 723,-25 883,-25 883,-6 723,-6"/>
<text text-anchor="middle" x="803" y="-13" font-family="Helvetica,sans-Serif" font-size="10.00">src/dsnotificationinterface.cpp</text>
</a>
</g>
</g>
<!-- Node14&#45;&gt;Node15 -->
<g id="edge10" class="edge"><title>Node14&#45;&gt;Node15</title>
<path fill="none" stroke="midnightblue" d="M1148.77,-66.8364C1033.92,-49.3034 1003.35,-47.8364 892,-31 879.771,-29.1509 866.615,-27.0623 854.267,-25.058"/>
<polygon fill="midnightblue" stroke="midnightblue" points="1148.25,-70.2967 1158.66,-68.3539 1149.31,-63.3777 1148.25,-70.2967"/>
</g>
<!-- Node16 -->
<g id="node12" class="node"><title>Node16</title>
<g id="a_node12"><a xlink:href="init_8cpp.html" target="_top" xlink:title="src/init.cpp">
<polygon fill="white" stroke="black" points="901,-6 901,-25 969,-25 969,-6 901,-6"/>
<text text-anchor="middle" x="935" y="-13" font-family="Helvetica,sans-Serif" font-size="10.00">src/init.cpp</text>
</a>
</g>
</g>
<!-- Node14&#45;&gt;Node16 -->
<g id="edge11" class="edge"><title>Node14&#45;&gt;Node16</title>
<path fill="none" stroke="midnightblue" d="M1148.67,-65.6806C1086.9,-54.2489 1009.66,-39.3962 978,-31 971.603,-29.3034 964.775,-27.1591 958.487,-25.0434"/>
<polygon fill="midnightblue" stroke="midnightblue" points="1148.36,-69.1829 1158.83,-67.5563 1149.63,-62.2992 1148.36,-69.1829"/>
</g>
<!-- Node17 -->
<g id="node13" class="node"><title>Node17</title>
<g id="a_node13"><a xlink:href="masternode-payments_8cpp.html" target="_top" xlink:title="src/masternode/masternode\l&#45;payments.cpp">
<polygon fill="white" stroke="black" points="987,-0.5 987,-30.5 1141,-30.5 1141,-0.5 987,-0.5"/>
<text text-anchor="start" x="995" y="-18.5" font-family="Helvetica,sans-Serif" font-size="10.00">src/masternode/masternode</text>
<text text-anchor="middle" x="1064" y="-7.5" font-family="Helvetica,sans-Serif" font-size="10.00">&#45;payments.cpp</text>
</a>
</g>
</g>
<!-- Node14&#45;&gt;Node17 -->
<g id="edge12" class="edge"><title>Node14&#45;&gt;Node17</title>
<path fill="none" stroke="midnightblue" d="M1189.21,-63.8185C1161.57,-53.3707 1127.04,-40.3231 1101.25,-30.5765"/>
<polygon fill="midnightblue" stroke="midnightblue" points="1188.09,-67.1349 1198.68,-67.396 1190.56,-60.5868 1188.09,-67.1349"/>
</g>
<!-- Node18 -->
<g id="node14" class="node"><title>Node18</title>
<g id="a_node14"><a xlink:href="masternode-sync_8cpp.html" target="_top" xlink:title="src/masternode/masternode\l&#45;sync.cpp">
<polygon fill="white" stroke="black" points="1159,-0.5 1159,-30.5 1313,-30.5 1313,-0.5 1159,-0.5"/>
<text text-anchor="start" x="1167" y="-18.5" font-family="Helvetica,sans-Serif" font-size="10.00">src/masternode/masternode</text>
<text text-anchor="middle" x="1236" y="-7.5" font-family="Helvetica,sans-Serif" font-size="10.00">&#45;sync.cpp</text>
</a>
</g>
</g>
<!-- Node14&#45;&gt;Node18 -->
<g id="edge13" class="edge"><title>Node14&#45;&gt;Node18</title>
<path fill="none" stroke="midnightblue" d="M1236,-57.1081C1236,-48.1539 1236,-38.3227 1236,-30.5765"/>
<polygon fill="midnightblue" stroke="midnightblue" points="1232.5,-57.3959 1236,-67.396 1239.5,-57.396 1232.5,-57.3959"/>
</g>
<!-- Node19 -->
<g id="node15" class="node"><title>Node19</title>
<g id="a_node15"><a xlink:href="miner_8cpp.html" target="_top" xlink:title="src/miner.cpp">
<polygon fill="white" stroke="black" points="1331.5,-6 1331.5,-25 1412.5,-25 1412.5,-6 1331.5,-6"/>
<text text-anchor="middle" x="1372" y="-13" font-family="Helvetica,sans-Serif" font-size="10.00">src/miner.cpp</text>
</a>
</g>
</g>
<!-- Node14&#45;&gt;Node19 -->
<g id="edge14" class="edge"><title>Node14&#45;&gt;Node19</title>
<path fill="none" stroke="midnightblue" d="M1274.78,-62.9674C1300.9,-50.481 1334.13,-34.5978 1354.2,-25.007"/>
<polygon fill="midnightblue" stroke="midnightblue" points="1273.02,-59.9258 1265.51,-67.396 1276.04,-66.2416 1273.02,-59.9258"/>
</g>
<!-- Node20 -->
<g id="node16" class="node"><title>Node20</title>
<g id="a_node16"><a xlink:href="net__processing_8cpp.html" target="_top" xlink:title="src/net_processing.cpp">
<polygon fill="white" stroke="black" points="1430.5,-6 1430.5,-25 1557.5,-25 1557.5,-6 1430.5,-6"/>
<text text-anchor="middle" x="1494" y="-13" font-family="Helvetica,sans-Serif" font-size="10.00">src/net_processing.cpp</text>
</a>
</g>
</g>
<!-- Node14&#45;&gt;Node20 -->
<g id="edge15" class="edge"><title>Node14&#45;&gt;Node20</title>
<path fill="none" stroke="midnightblue" d="M1301.53,-64.9899C1352.09,-52.2516 1419.98,-35.1484 1460.15,-25.0287"/>
<polygon fill="midnightblue" stroke="midnightblue" points="1300.51,-61.6389 1291.66,-67.476 1302.22,-68.4268 1300.51,-61.6389"/>
</g>
<!-- Node14&#45;&gt;Node21 -->
<g id="edge16" class="edge"><title>Node14&#45;&gt;Node21</title>
<path fill="none" stroke="midnightblue" d="M1323.66,-67.5177C1324.78,-67.3438 1325.89,-67.1712 1327,-67 1433.59,-50.5136 1460.53,-48.2822 1567,-31 1569.74,-30.5547 1572.54,-30.0956 1575.36,-29.6272"/>
<polygon fill="midnightblue" stroke="midnightblue" points="1322.78,-64.1125 1313.44,-69.1117 1323.86,-71.0289 1322.78,-64.1125"/>
</g>
<!-- Node22 -->
<g id="node18" class="node"><title>Node22</title>
<g id="a_node18"><a xlink:href="privatesend_2privatesend_8cpp.html" target="_top" xlink:title="src/privatesend/privatesend.cpp">
<polygon fill="white" stroke="black" points="267,-6 267,-25 437,-25 437,-6 267,-6"/>
<text text-anchor="middle" x="352" y="-13" font-family="Helvetica,sans-Serif" font-size="10.00">src/privatesend/privatesend.cpp</text>
</a>
</g>
</g>
<!-- Node14&#45;&gt;Node22 -->
<g id="edge17" class="edge"><title>Node14&#45;&gt;Node22</title>
<path fill="none" stroke="midnightblue" d="M1148.48,-66.9244C837.245,-33.5668 754.906,-62.3022 447,-31 432.227,-29.4982 416.244,-27.2881 401.678,-25.0436"/>
<polygon fill="midnightblue" stroke="midnightblue" points="1148.38,-70.4341 1158.7,-68.0332 1149.14,-63.475 1148.38,-70.4341"/>
</g>
<!-- Node23 -->
<g id="node19" class="node"><title>Node23</title>
<g id="a_node19"><a xlink:href="masternode_8cpp.html" target="_top" xlink:title="src/rpc/masternode.cpp">
<polygon fill="white" stroke="black" points="455.5,-6 455.5,-25 586.5,-25 586.5,-6 455.5,-6"/>
<text text-anchor="middle" x="521" y="-13" font-family="Helvetica,sans-Serif" font-size="10.00">src/rpc/masternode.cpp</text>
</a>
</g>
</g>
<!-- Node14&#45;&gt;Node23 -->
<g id="edge18" class="edge"><title>Node14&#45;&gt;Node23</title>
<path fill="none" stroke="midnightblue" d="M1148.76,-66.9394C903.192,-39.0753 837.499,-62.0656 596,-31 584.293,-29.4941 571.662,-27.2827 560.163,-25.0384"/>
<polygon fill="midnightblue" stroke="midnightblue" points="1148.36,-70.4169 1158.7,-68.0836 1149.16,-63.4628 1148.36,-70.4169"/>
</g>
<!-- Node14&#45;&gt;Node24 -->
<g id="edge19" class="edge"><title>Node14&#45;&gt;Node24</title>
<path fill="none" stroke="midnightblue" d="M1323.17,-71.5259C1337.15,-69.9764 1351.47,-68.42 1365,-67 1528.88,-49.7967 1571.47,-58.1162 1734,-31 1743.45,-29.4236 1753.61,-27.2177 1762.88,-25.0012"/>
<polygon fill="midnightblue" stroke="midnightblue" points="1322.61,-68.0661 1313.06,-72.6509 1323.39,-75.0232 1322.61,-68.0661"/>
</g>
<!-- Node25 -->
<g id="node21" class="node"><title>Node25</title>
<g id="a_node21"><a xlink:href="validation_8cpp.html" target="_top" xlink:title="src/validation.cpp">
<polygon fill="white" stroke="black" points="605,-6 605,-25 705,-25 705,-6 605,-6"/>
<text text-anchor="middle" x="655" y="-13" font-family="Helvetica,sans-Serif" font-size="10.00">src/validation.cpp</text>
</a>
</g>
</g>
<!-- Node14&#45;&gt;Node25 -->
<g id="edge20" class="edge"><title>Node14&#45;&gt;Node25</title>
<path fill="none" stroke="midnightblue" d="M1148.48,-66.8878C955.283,-43.4661 902.622,-61.7657 714,-31 704.735,-29.4888 694.781,-27.2758 685.737,-25.0316"/>
<polygon fill="midnightblue" stroke="midnightblue" points="1148.34,-70.3962 1158.69,-68.1478 1149.19,-63.4489 1148.34,-70.3962"/>
</g>
</g>
</svg>
        <g id="navigator" transform="translate(0 0)" fill="#404254">
                <rect fill="#f2f5e9" fill-opacity="0.5" stroke="#606060" stroke-width=".5" x="0" y="0" width="60" height="60"/>
                <use id="zoomplus" xlink:href="#zoomPlus" x="17" y="9" onmousedown="handleZoom(evt,'in')"/>
                <use id="zoomminus" xlink:href="#zoomMin" x="42" y="9" onmousedown="handleZoom(evt,'out')"/>
                <use id="reset" xlink:href="#resetDef" x="30" y="36" onmousedown="handleReset()"/>
                <g id="arrowUp" xlink:href="#dirArrow" transform="translate(30 24)" onmousedown="handlePan(0,-1)">
                  <use xlink:href="#rim" fill="#404040">
                        <set attributeName="fill" to="#808080" begin="arrowUp.mouseover" end="arrowUp.mouseout"/>
                  </use>
                  <path fill="none" stroke="white" stroke-width="1.5" d="M0,-3.0v7 M-2.5,-0.5L0,-3.0L2.5,-0.5"/>
                </g>
                <g id="arrowRight" xlink:href="#dirArrow" transform="rotate(90) translate(36 -43)" onmousedown="handlePan(1,0)">
                  <use xlink:href="#rim" fill="#404040">
                        <set attributeName="fill" to="#808080" begin="arrowRight.mouseover" end="arrowRight.mouseout"/>
                  </use>
                  <path fill="none" stroke="white" stroke-width="1.5" d="M0,-3.0v7 M-2.5,-0.5L0,-3.0L2.5,-0.5"/>
                </g>
                <g id="arrowDown" xlink:href="#dirArrow" transform="rotate(180) translate(-30 -48)" onmousedown="handlePan(0,1)">
                  <use xlink:href="#rim" fill="#404040">
                        <set attributeName="fill" to="#808080" begin="arrowDown.mouseover" end="arrowDown.mouseout"/>
                  </use>
                  <path fill="none" stroke="white" stroke-width="1.5" d="M0,-3.0v7 M-2.5,-0.5L0,-3.0L2.5,-0.5"/>
                </g>
                <g id="arrowLeft" xlink:href="#dirArrow" transform="rotate(270) translate(-36 17)" onmousedown="handlePan(-1,0)">
                  <use xlink:href="#rim" fill="#404040">
                        <set attributeName="fill" to="#808080" begin="arrowLeft.mouseover" end="arrowLeft.mouseout"/>
                  </use>
                  <path fill="none" stroke="white" stroke-width="1.5" d="M0,-3.0v7 M-2.5,-0.5L0,-3.0L2.5,-0.5"/>
                </g>
        </g>
        <svg viewBox="0 0 15 15" width="100%" height="30px" preserveAspectRatio="xMaxYMin meet">
         <g id="arrow_out" transform="scale(0.3 0.3)">
          <a xlink:href="core__io_8h__dep__incl_org.svg" target="_base">
           <rect id="button" ry="5" rx="5" y="6" x="6" height="38" width="38"
                fill="#f2f5e9" fill-opacity="0.5" stroke="#606060" stroke-width="1.0"/>
           <path id="arrow"
             d="M 11.500037,31.436501 C 11.940474,20.09759 22.043105,11.32322 32.158766,21.979434 L 37.068811,17.246167 C 37.068811,17.246167 37.088388,32 37.088388,32 L 22.160133,31.978069 C 22.160133,31.978069 26.997745,27.140456 26.997745,27.140456 C 18.528582,18.264221 13.291696,25.230495 11.500037,31.436501 z"
             style="fill:#404040;"/>
          </a>
         </g>
        </svg>
</svg>
