<?xml version="1.0" encoding="UTF-8" standalone="no"?>
<!DOCTYPE svg PUBLIC "-//W3C//DTD SVG 1.1//EN"
 "http://www.w3.org/Graphics/SVG/1.1/DTD/svg11.dtd">
<!-- Generated by graphviz version 2.38.0 (20140413.2041)
 -->
<!-- Title: ScriptToAsmStr Pages: 1 -->
<!--zoomable 382 -->
<svg id="main" version="1.1" xmlns="http://www.w3.org/2000/svg" xmlns:xlink="http://www.w3.org/1999/xlink" xml:space="preserve" onload="init(evt)">
<style type="text/css"><![CDATA[
.edge:hover path { stroke: red; }
.edge:hover polygon { stroke: red; fill: red; }
]]></style>
<script type="text/javascript"><![CDATA[
var edges = document.getElementsByTagName('g');
if (edges && edges.length) {
  for (var i=0;i<edges.length;i++) {
    if (edges[i].id.substr(0,4)=='edge') {
      edges[i].setAttribute('class','edge');
    }
  }
}
]]></script>
        <defs>
                <circle id="rim" cx="0" cy="0" r="7"/>
                <circle id="rim2" cx="0" cy="0" r="3.5"/>
                <g id="zoomPlus">
                        <use xlink:href="#rim" fill="#404040">
                                <set attributeName="fill" to="#808080" begin="zoomplus.mouseover" end="zoomplus.mouseout"/>
                        </use>
                        <path d="M-4,0h8M0,-4v8" fill="none" stroke="white" stroke-width="1.5" pointer-events="none"/>
                </g>
                <g id="zoomMin">
                        <use xlink:href="#rim" fill="#404040">
                                <set attributeName="fill" to="#808080" begin="zoomminus.mouseover" end="zoomminus.mouseout"/>
                        </use>
                        <path d="M-4,0h8" fill="none" stroke="white" stroke-width="1.5" pointer-events="none"/>
                </g>
                <g id="dirArrow">
                        <path fill="none" stroke="white" stroke-width="1.5" d="M0,-3.0v7 M-2.5,-0.5L0,-3.0L2.5,-0.5"/>
                </g>
               <g id="resetDef">
                       <use xlink:href="#rim2" fill="#404040">
                               <set attributeName="fill" to="#808080" begin="reset.mouseover" end="reset.mouseout"/>
                       </use>
               </g>
        </defs>

<script type="text/javascript">
var viewWidth = 1447;
var viewHeight = 382;
var sectionId = 'dynsection-17';
</script>
<script xlink:href="svgpan.js"/>
<svg id="graph" class="graph">
<g id="viewport">
<title>ScriptToAsmStr</title>
<polygon fill="white" stroke="none" points="-4,4 -4,-378 1443,-378 1443,4 -4,4"/>
<!-- Node179 -->
<g id="node1" class="node"><title>Node179</title>
<polygon fill="#bfbfbf" stroke="black" points="0,-202.5 0,-221.5 86,-221.5 86,-202.5 0,-202.5"/>
<text text-anchor="middle" x="43" y="-209.5" font-family="Helvetica,sans-Serif" font-size="10.00">ScriptToAsmStr</text>
</g>
<!-- Node180 -->
<g id="node2" class="node"><title>Node180</title>
<g id="a_node2"><a xlink:href="classprevector.html#aa9210cbe708412a70868d6e0bca844c9" target="_top" xlink:title="prevector::begin">
<polygon fill="white" stroke="black" points="313,-278.5 313,-297.5 399,-297.5 399,-278.5 313,-278.5"/>
<text text-anchor="middle" x="356" y="-285.5" font-family="Helvetica,sans-Serif" font-size="10.00">prevector::begin</text>
</a>
</g>
</g>
<!-- Node179&#45;&gt;Node180 -->
<g id="edge1" class="edge"><title>Node179&#45;&gt;Node180</title>
<path fill="none" stroke="midnightblue" d="M54.6797,-221.637C68.8953,-233.836 95.3531,-254.414 122,-264 181.356,-285.352 254.327,-289.64 302.621,-289.704"/>
<polygon fill="midnightblue" stroke="midnightblue" points="302.855,-293.203 312.838,-289.655 302.821,-286.203 302.855,-293.203"/>
</g>
<!-- Node185 -->
<g id="node7" class="node"><title>Node185</title>
<g id="a_node7"><a xlink:href="interpreter_8cpp.html#aa4e3a87396b4a90745bedbc16a341d13" target="_top" xlink:title="CheckSignatureEncoding">
<polygon fill="white" stroke="black" points="122,-164.5 122,-183.5 249,-183.5 249,-164.5 122,-164.5"/>
<text text-anchor="middle" x="185.5" y="-171.5" font-family="Helvetica,sans-Serif" font-size="10.00">CheckSignatureEncoding</text>
</a>
</g>
</g>
<!-- Node179&#45;&gt;Node185 -->
<g id="edge6" class="edge"><title>Node179&#45;&gt;Node185</title>
<path fill="none" stroke="midnightblue" d="M79.4541,-202.411C97.5913,-197.506 119.868,-191.48 139.233,-186.243"/>
<polygon fill="midnightblue" stroke="midnightblue" points="140.318,-189.575 149.057,-183.586 138.49,-182.818 140.318,-189.575"/>
</g>
<!-- Node201 -->
<g id="node23" class="node"><title>Node201</title>
<g id="a_node23"><a xlink:href="classprevector.html#aab7f6e13a3cac85cc340fc6b90c5365c" target="_top" xlink:title="prevector::end">
<polygon fill="white" stroke="black" points="487.5,-240.5 487.5,-259.5 566.5,-259.5 566.5,-240.5 487.5,-240.5"/>
<text text-anchor="middle" x="527" y="-247.5" font-family="Helvetica,sans-Serif" font-size="10.00">prevector::end</text>
</a>
</g>
</g>
<!-- Node179&#45;&gt;Node201 -->
<g id="edge27" class="edge"><title>Node179&#45;&gt;Node201</title>
<path fill="none" stroke="midnightblue" d="M77.1272,-221.558C90.8906,-225.139 107.101,-228.855 122,-231 249.114,-249.298 400.81,-251.148 477.08,-250.713"/>
<polygon fill="midnightblue" stroke="midnightblue" points="477.357,-254.211 487.331,-250.638 477.306,-247.211 477.357,-254.211"/>
</g>
<!-- Node203 -->
<g id="node25" class="node"><title>Node203</title>
<g id="a_node25"><a xlink:href="class_c_script.html#a94635ed93d8d244ec3acfa83f9ecfe5f" target="_top" xlink:title="CScript::GetOp">
<polygon fill="white" stroke="black" points="143.5,-316.5 143.5,-335.5 227.5,-335.5 227.5,-316.5 143.5,-316.5"/>
<text text-anchor="middle" x="185.5" y="-323.5" font-family="Helvetica,sans-Serif" font-size="10.00">CScript::GetOp</text>
</a>
</g>
</g>
<!-- Node179&#45;&gt;Node203 -->
<g id="edge31" class="edge"><title>Node179&#45;&gt;Node203</title>
<path fill="none" stroke="midnightblue" d="M49.9108,-221.506C61.5869,-239.568 89.3297,-279.085 122,-302 127.754,-306.036 134.277,-309.504 140.884,-312.448"/>
<polygon fill="midnightblue" stroke="midnightblue" points="139.965,-315.853 150.546,-316.391 142.609,-309.372 139.965,-315.853"/>
</g>
<!-- Node209 -->
<g id="node31" class="node"><title>Node209</title>
<g id="a_node31"><a xlink:href="script_8cpp.html#a573587022d52d3542eb6fbf5a1190489" target="_top" xlink:title="GetOpName">
<polygon fill="white" stroke="black" points="150,-126.5 150,-145.5 221,-145.5 221,-126.5 150,-126.5"/>
<text text-anchor="middle" x="185.5" y="-133.5" font-family="Helvetica,sans-Serif" font-size="10.00">GetOpName</text>
</a>
</g>
</g>
<!-- Node179&#45;&gt;Node209 -->
<g id="edge39" class="edge"><title>Node179&#45;&gt;Node209</title>
<path fill="none" stroke="midnightblue" d="M54.5981,-202.43C68.9331,-189.934 95.7403,-168.112 122,-155 127.726,-152.141 133.966,-149.619 140.213,-147.424"/>
<polygon fill="midnightblue" stroke="midnightblue" points="141.543,-150.672 149.965,-144.244 139.373,-144.017 141.543,-150.672"/>
</g>
<!-- Node210 -->
<g id="node32" class="node"><title>Node210</title>
<g id="a_node32"><a xlink:href="utilstrencodings_8h.html#ace13a819ca4e98c22847d26b3b357e75" target="_top" xlink:title="HexStr">
<polygon fill="white" stroke="black" points="162,-88.5 162,-107.5 209,-107.5 209,-88.5 162,-88.5"/>
<text text-anchor="middle" x="185.5" y="-95.5" font-family="Helvetica,sans-Serif" font-size="10.00">HexStr</text>
</a>
</g>
</g>
<!-- Node179&#45;&gt;Node210 -->
<g id="edge40" class="edge"><title>Node179&#45;&gt;Node210</title>
<path fill="none" stroke="midnightblue" d="M49.2827,-202.328C60.2562,-183.141 87.4043,-140.125 122,-117 130.91,-111.044 141.758,-106.896 151.9,-104.033"/>
<polygon fill="midnightblue" stroke="midnightblue" points="152.857,-107.402 161.708,-101.579 151.158,-100.611 152.857,-107.402"/>
</g>
<!-- Node211 -->
<g id="node33" class="node"><title>Node211</title>
<g id="a_node33"><a xlink:href="class_c_script.html#a11c26ad1d03fa2d60a733337c21b6719" target="_top" xlink:title="Returns whether the script is guaranteed to fail at execution, regardless of the initial stack...">
<polygon fill="white" stroke="black" points="125,-202.5 125,-221.5 246,-221.5 246,-202.5 125,-202.5"/>
<text text-anchor="middle" x="185.5" y="-209.5" font-family="Helvetica,sans-Serif" font-size="10.00">CScript::IsUnspendable</text>
</a>
</g>
</g>
<!-- Node179&#45;&gt;Node211 -->
<g id="edge41" class="edge"><title>Node179&#45;&gt;Node211</title>
<path fill="none" stroke="midnightblue" d="M86.1546,-212C95.2133,-212 105.018,-212 114.809,-212"/>
<polygon fill="midnightblue" stroke="midnightblue" points="114.974,-215.5 124.974,-212 114.974,-208.5 114.974,-215.5"/>
</g>
<!-- Node181 -->
<g id="node3" class="node"><title>Node181</title>
<g id="a_node3"><a xlink:href="classprevector.html#a59f1d7bcbc751cfa0faddd7ffa184846" target="_top" xlink:title="prevector::item_ptr">
<polygon fill="white" stroke="black" points="648,-278.5 648,-297.5 746,-297.5 746,-278.5 648,-278.5"/>
<text text-anchor="middle" x="697" y="-285.5" font-family="Helvetica,sans-Serif" font-size="10.00">prevector::item_ptr</text>
</a>
</g>
</g>
<!-- Node180&#45;&gt;Node181 -->
<g id="edge2" class="edge"><title>Node180&#45;&gt;Node181</title>
<path fill="none" stroke="midnightblue" d="M399.249,-288C459.35,-288 569.753,-288 637.634,-288"/>
<polygon fill="midnightblue" stroke="midnightblue" points="637.739,-291.5 647.739,-288 637.739,-284.5 637.739,-291.5"/>
</g>
<!-- Node182 -->
<g id="node4" class="node"><title>Node182</title>
<g id="a_node4"><a xlink:href="classprevector.html#a933e204a7e29c6bbc85479d023c00ff8" target="_top" xlink:title="prevector::is_direct">
<polygon fill="white" stroke="black" points="835,-240.5 835,-259.5 935,-259.5 935,-240.5 835,-240.5"/>
<text text-anchor="middle" x="885" y="-247.5" font-family="Helvetica,sans-Serif" font-size="10.00">prevector::is_direct</text>
</a>
</g>
</g>
<!-- Node181&#45;&gt;Node182 -->
<g id="edge3" class="edge"><title>Node181&#45;&gt;Node182</title>
<path fill="none" stroke="midnightblue" d="M744.936,-278.411C770.033,-273.284 801.119,-266.933 827.53,-261.537"/>
<polygon fill="midnightblue" stroke="midnightblue" points="828.305,-264.951 837.402,-259.52 826.904,-258.093 828.305,-264.951"/>
</g>
<!-- Node183 -->
<g id="node5" class="node"><title>Node183</title>
<g id="a_node5"><a xlink:href="classprevector.html#a20150a43dd87c33f0e855a55bd3418e8" target="_top" xlink:title="prevector::direct_ptr">
<polygon fill="white" stroke="black" points="833,-278.5 833,-297.5 937,-297.5 937,-278.5 833,-278.5"/>
<text text-anchor="middle" x="885" y="-285.5" font-family="Helvetica,sans-Serif" font-size="10.00">prevector::direct_ptr</text>
</a>
</g>
</g>
<!-- Node181&#45;&gt;Node183 -->
<g id="edge4" class="edge"><title>Node181&#45;&gt;Node183</title>
<path fill="none" stroke="midnightblue" d="M746.384,-288C769.751,-288 798.043,-288 822.883,-288"/>
<polygon fill="midnightblue" stroke="midnightblue" points="822.932,-291.5 832.932,-288 822.932,-284.5 822.932,-291.5"/>
</g>
<!-- Node184 -->
<g id="node6" class="node"><title>Node184</title>
<g id="a_node6"><a xlink:href="classprevector.html#ae3343cc65be9fd678b4a6f8305624de6" target="_top" xlink:title="prevector::indirect_ptr">
<polygon fill="white" stroke="black" points="829.5,-316.5 829.5,-335.5 940.5,-335.5 940.5,-316.5 829.5,-316.5"/>
<text text-anchor="middle" x="885" y="-323.5" font-family="Helvetica,sans-Serif" font-size="10.00">prevector::indirect_ptr</text>
</a>
</g>
</g>
<!-- Node181&#45;&gt;Node184 -->
<g id="edge5" class="edge"><title>Node181&#45;&gt;Node184</title>
<path fill="none" stroke="midnightblue" d="M744.936,-297.589C770.033,-302.716 801.119,-309.067 827.53,-314.463"/>
<polygon fill="midnightblue" stroke="midnightblue" points="826.904,-317.907 837.402,-316.48 828.305,-311.049 826.904,-317.907"/>
</g>
<!-- Node186 -->
<g id="node8" class="node"><title>Node186</title>
<g id="a_node8"><a xlink:href="interpreter_8cpp.html#a2e47b027868e878b9a7227bb4342a615" target="_top" xlink:title="A canonical signature exists of: &lt;30&gt; &lt;total len&gt;=&quot;&quot;&gt; &lt;02&gt; &lt;len r&gt;=&quot;&quot;&gt; &lt;R&gt; &lt;02&gt; &lt;len s&gt;=&quot;&quot;&gt; &lt;S&gt; &lt;hash...">
<polygon fill="white" stroke="black" points="463,-164.5 463,-183.5 591,-183.5 591,-164.5 463,-164.5"/>
<text text-anchor="middle" x="527" y="-171.5" font-family="Helvetica,sans-Serif" font-size="10.00">IsValidSignatureEncoding</text>
</a>
</g>
</g>
<!-- Node185&#45;&gt;Node186 -->
<g id="edge7" class="edge"><title>Node185&#45;&gt;Node186</title>
<path fill="none" stroke="midnightblue" d="M249.165,-174C306.67,-174 391.886,-174 452.564,-174"/>
<polygon fill="midnightblue" stroke="midnightblue" points="452.838,-177.5 462.838,-174 452.838,-170.5 452.838,-177.5"/>
</g>
<!-- Node187 -->
<g id="node9" class="node"><title>Node187</title>
<g id="a_node9"><a xlink:href="interpreter_8cpp.html#a564b26c1fa2d8cd82acd49f12fff452b" target="_top" xlink:title="IsLowDERSignature">
<polygon fill="white" stroke="black" points="303,-126.5 303,-145.5 409,-145.5 409,-126.5 303,-126.5"/>
<text text-anchor="middle" x="356" y="-133.5" font-family="Helvetica,sans-Serif" font-size="10.00">IsLowDERSignature</text>
</a>
</g>
</g>
<!-- Node185&#45;&gt;Node187 -->
<g id="edge8" class="edge"><title>Node185&#45;&gt;Node187</title>
<path fill="none" stroke="midnightblue" d="M229.02,-164.411C251.455,-159.351 279.173,-153.1 302.893,-147.751"/>
<polygon fill="midnightblue" stroke="midnightblue" points="303.801,-151.134 312.786,-145.52 302.261,-144.306 303.801,-151.134"/>
</g>
<!-- Node200 -->
<g id="node22" class="node"><title>Node200</title>
<g id="a_node22"><a xlink:href="interpreter_8cpp.html#a10b82cfa960aba7c714878a6c5ba6424" target="_top" xlink:title="IsDefinedHashtypeSignature">
<polygon fill="white" stroke="black" points="285,-88.5 285,-107.5 427,-107.5 427,-88.5 285,-88.5"/>
<text text-anchor="middle" x="356" y="-95.5" font-family="Helvetica,sans-Serif" font-size="10.00">IsDefinedHashtypeSignature</text>
</a>
</g>
</g>
<!-- Node185&#45;&gt;Node200 -->
<g id="edge26" class="edge"><title>Node185&#45;&gt;Node200</title>
<path fill="none" stroke="midnightblue" d="M228.817,-164.41C235.834,-161.913 242.827,-158.817 249,-155 268.788,-142.765 265.031,-128.936 285,-117 288.648,-114.82 292.551,-112.884 296.578,-111.166"/>
<polygon fill="midnightblue" stroke="midnightblue" points="298.028,-114.359 306.138,-107.541 295.547,-107.814 298.028,-114.359"/>
</g>
<!-- Node187&#45;&gt;Node186 -->
<g id="edge9" class="edge"><title>Node187&#45;&gt;Node186</title>
<path fill="none" stroke="midnightblue" d="M399.646,-145.589C422.148,-150.649 449.948,-156.9 473.738,-162.249"/>
<polygon fill="midnightblue" stroke="midnightblue" points="473.137,-165.701 483.661,-164.48 474.672,-158.871 473.137,-165.701"/>
</g>
<!-- Node188 -->
<g id="node10" class="node"><title>Node188</title>
<g id="a_node10"><a xlink:href="class_c_pub_key.html#a4ada230ef593456ef9088c28fd5ca34e" target="_top" xlink:title="Check whether a signature is normalized (lower&#45;S). ">
<polygon fill="white" stroke="black" points="468,-126.5 468,-145.5 586,-145.5 586,-126.5 468,-126.5"/>
<text text-anchor="middle" x="527" y="-133.5" font-family="Helvetica,sans-Serif" font-size="10.00">CPubKey::CheckLowS</text>
</a>
</g>
</g>
<!-- Node187&#45;&gt;Node188 -->
<g id="edge10" class="edge"><title>Node187&#45;&gt;Node188</title>
<path fill="none" stroke="midnightblue" d="M409.085,-136C424.505,-136 441.623,-136 457.898,-136"/>
<polygon fill="midnightblue" stroke="midnightblue" points="457.899,-139.5 467.899,-136 457.899,-132.5 457.899,-139.5"/>
</g>
<!-- Node189 -->
<g id="node11" class="node"><title>Node189</title>
<g id="a_node11"><a xlink:href="pubkey_8cpp.html#acd68762de13ffb2c909fcf12acfea0fd" target="_top" xlink:title="This function is taken from the libsecp256k1 distribution and implements DER parsing for ECDSA signat...">
<polygon fill="white" stroke="black" points="638.5,-121 638.5,-151 755.5,-151 755.5,-121 638.5,-121"/>
<text text-anchor="start" x="646.5" y="-139" font-family="Helvetica,sans-Serif" font-size="10.00">ecdsa_signature_parse</text>
<text text-anchor="middle" x="697" y="-128" font-family="Helvetica,sans-Serif" font-size="10.00">_der_lax</text>
</a>
</g>
</g>
<!-- Node188&#45;&gt;Node189 -->
<g id="edge11" class="edge"><title>Node188&#45;&gt;Node189</title>
<path fill="none" stroke="midnightblue" d="M586.287,-136C599.861,-136 614.427,-136 628.367,-136"/>
<polygon fill="midnightblue" stroke="midnightblue" points="628.384,-139.5 638.384,-136 628.384,-132.5 628.384,-139.5"/>
</g>
<!-- Node196 -->
<g id="node18" class="node"><title>Node196</title>
<g id="a_node18"><a xlink:href="secp256k1_8h.html#a93ec36a19229f08acc5ff1ca613ab3a1" target="_top" xlink:title="Convert a signature to a normalized lower&#45;S form. ">
<polygon fill="white" stroke="black" points="627,-71 627,-101 767,-101 767,-71 627,-71"/>
<text text-anchor="start" x="635" y="-89" font-family="Helvetica,sans-Serif" font-size="10.00">secp256k1_ecdsa_signature</text>
<text text-anchor="middle" x="697" y="-78" font-family="Helvetica,sans-Serif" font-size="10.00">_normalize</text>
</a>
</g>
</g>
<!-- Node188&#45;&gt;Node196 -->
<g id="edge19" class="edge"><title>Node188&#45;&gt;Node196</title>
<path fill="none" stroke="midnightblue" d="M559.995,-126.478C581.353,-120.121 610.105,-111.564 635.672,-103.955"/>
<polygon fill="midnightblue" stroke="midnightblue" points="636.707,-107.299 645.293,-101.091 634.71,-100.589 636.707,-107.299"/>
</g>
<!-- Node190 -->
<g id="node12" class="node"><title>Node190</title>
<g id="a_node12"><a xlink:href="secp256k1_8h.html#a2aff2802eca3d15ec54298e879579897" target="_top" xlink:title="Parse an ECDSA signature in compact (64 bytes) format. ">
<polygon fill="white" stroke="black" points="815,-115 815,-145 955,-145 955,-115 815,-115"/>
<text text-anchor="start" x="823" y="-133" font-family="Helvetica,sans-Serif" font-size="10.00">secp256k1_ecdsa_signature</text>
<text text-anchor="middle" x="885" y="-122" font-family="Helvetica,sans-Serif" font-size="10.00">_parse_compact</text>
</a>
</g>
</g>
<!-- Node189&#45;&gt;Node190 -->
<g id="edge12" class="edge"><title>Node189&#45;&gt;Node190</title>
<path fill="none" stroke="midnightblue" d="M755.578,-134.143C771.128,-133.641 788.232,-133.089 804.745,-132.557"/>
<polygon fill="midnightblue" stroke="midnightblue" points="805.049,-136.049 814.93,-132.228 804.823,-129.052 805.049,-136.049"/>
</g>
<!-- Node193 -->
<g id="node15" class="node"><title>Node193</title>
<g id="a_node15"><a xlink:href="glibc__compat_8cpp.html#a0f46826ab0466591e136db24394923cf" target="_top" xlink:title="memcpy">
<polygon fill="white" stroke="black" points="1246.5,-164.5 1246.5,-183.5 1300.5,-183.5 1300.5,-164.5 1246.5,-164.5"/>
<text text-anchor="middle" x="1273.5" y="-171.5" font-family="Helvetica,sans-Serif" font-size="10.00">memcpy</text>
</a>
</g>
</g>
<!-- Node189&#45;&gt;Node193 -->
<g id="edge18" class="edge"><title>Node189&#45;&gt;Node193</title>
<path fill="none" stroke="midnightblue" d="M718.416,-151.118C738.684,-165.112 771.236,-184.934 803,-193 960.205,-232.919 1156.42,-199.371 1236.23,-182.394"/>
<polygon fill="midnightblue" stroke="midnightblue" points="1237.23,-185.758 1246.26,-180.216 1235.74,-178.917 1237.23,-185.758"/>
</g>
<!-- Node191 -->
<g id="node13" class="node"><title>Node191</title>
<g id="a_node13"><a xlink:href="scalar_8h.html#a25cc2d45ae1d1765d07c3313cdf46fa0" target="_top" xlink:title="Set a scalar from a big endian byte array. ">
<polygon fill="white" stroke="black" points="1019,-126.5 1019,-145.5 1154,-145.5 1154,-126.5 1019,-126.5"/>
<text text-anchor="middle" x="1086.5" y="-133.5" font-family="Helvetica,sans-Serif" font-size="10.00">secp256k1_scalar_set_b32</text>
</a>
</g>
</g>
<!-- Node190&#45;&gt;Node191 -->
<g id="edge13" class="edge"><title>Node190&#45;&gt;Node191</title>
<path fill="none" stroke="midnightblue" d="M955.216,-132.082C972.431,-132.599 990.99,-133.158 1008.55,-133.686"/>
<polygon fill="midnightblue" stroke="midnightblue" points="1008.66,-137.191 1018.76,-133.993 1008.87,-130.194 1008.66,-137.191"/>
</g>
<!-- Node192 -->
<g id="node14" class="node"><title>Node192</title>
<g id="a_node14"><a xlink:href="secp256k1_8c.html#a94e522f94c4819bebf8e854952eb6a8f" target="_top" xlink:title="secp256k1_ecdsa_signature_save">
<polygon fill="white" stroke="black" points="1003,-88.5 1003,-107.5 1170,-107.5 1170,-88.5 1003,-88.5"/>
<text text-anchor="middle" x="1086.5" y="-95.5" font-family="Helvetica,sans-Serif" font-size="10.00">secp256k1_ecdsa_signature_save</text>
</a>
</g>
</g>
<!-- Node190&#45;&gt;Node192 -->
<g id="edge14" class="edge"><title>Node190&#45;&gt;Node192</title>
<path fill="none" stroke="midnightblue" d="M955.216,-118.898C974.862,-115.747 996.257,-112.315 1015.92,-109.16"/>
<polygon fill="midnightblue" stroke="midnightblue" points="1016.71,-112.578 1026.03,-107.539 1015.6,-105.667 1016.71,-112.578"/>
</g>
<!-- Node192&#45;&gt;Node193 -->
<g id="edge15" class="edge"><title>Node192&#45;&gt;Node193</title>
<path fill="none" stroke="midnightblue" d="M1139.22,-107.561C1149.58,-110.128 1160.26,-113.256 1170,-117 1198.84,-128.086 1229.51,-146.059 1249.7,-158.858"/>
<polygon fill="midnightblue" stroke="midnightblue" points="1247.9,-161.858 1258.2,-164.331 1251.69,-155.973 1247.9,-161.858"/>
</g>
<!-- Node195 -->
<g id="node17" class="node"><title>Node195</title>
<g id="a_node17"><a xlink:href="scalar_8h.html#a4fa08f8af5a23f505b44c9ef1bec1831" target="_top" xlink:title="Convert a scalar to a byte array. ">
<polygon fill="white" stroke="black" points="1206,-88.5 1206,-107.5 1341,-107.5 1341,-88.5 1206,-88.5"/>
<text text-anchor="middle" x="1273.5" y="-95.5" font-family="Helvetica,sans-Serif" font-size="10.00">secp256k1_scalar_get_b32</text>
</a>
</g>
</g>
<!-- Node192&#45;&gt;Node195 -->
<g id="edge17" class="edge"><title>Node192&#45;&gt;Node195</title>
<path fill="none" stroke="midnightblue" d="M1170.26,-98C1178.74,-98 1187.33,-98 1195.75,-98"/>
<polygon fill="midnightblue" stroke="midnightblue" points="1195.9,-101.5 1205.9,-98 1195.9,-94.5001 1195.9,-101.5"/>
</g>
<!-- Node194 -->
<g id="node16" class="node"><title>Node194</title>
<g id="a_node16"><a xlink:href="glibc__compat_8cpp.html#a9778d49e9029dd75bc53ecbbf9f5e9a1" target="_top" xlink:title="memmove">
<polygon fill="white" stroke="black" points="1377,-164.5 1377,-183.5 1439,-183.5 1439,-164.5 1377,-164.5"/>
<text text-anchor="middle" x="1408" y="-171.5" font-family="Helvetica,sans-Serif" font-size="10.00">memmove</text>
</a>
</g>
</g>
<!-- Node193&#45;&gt;Node194 -->
<g id="edge16" class="edge"><title>Node193&#45;&gt;Node194</title>
<path fill="none" stroke="midnightblue" d="M1300.68,-174C1319.47,-174 1345.16,-174 1366.58,-174"/>
<polygon fill="midnightblue" stroke="midnightblue" points="1366.7,-177.5 1376.7,-174 1366.7,-170.5 1366.7,-177.5"/>
</g>
<!-- Node196&#45;&gt;Node192 -->
<g id="edge25" class="edge"><title>Node196&#45;&gt;Node192</title>
<path fill="none" stroke="midnightblue" d="M767.277,-88.1454C830.146,-90.0923 923.338,-92.9782 992.642,-95.1244"/>
<polygon fill="midnightblue" stroke="midnightblue" points="992.584,-98.6242 1002.69,-95.4355 992.8,-91.6275 992.584,-98.6242"/>
</g>
<!-- Node197 -->
<g id="node19" class="node"><title>Node197</title>
<g id="a_node19"><a xlink:href="secp256k1_8c.html#af2027241c9dfc85fa5b6a3bb5fe41d18" target="_top" xlink:title="secp256k1_ecdsa_signature_load">
<polygon fill="white" stroke="black" points="803,-164.5 803,-183.5 967,-183.5 967,-164.5 803,-164.5"/>
<text text-anchor="middle" x="885" y="-171.5" font-family="Helvetica,sans-Serif" font-size="10.00">secp256k1_ecdsa_signature_load</text>
</a>
</g>
</g>
<!-- Node196&#45;&gt;Node197 -->
<g id="edge20" class="edge"><title>Node196&#45;&gt;Node197</title>
<path fill="none" stroke="midnightblue" d="M747.473,-101.053C754.327,-104.147 761.049,-107.778 767,-112 787.328,-126.422 781.778,-141.928 803,-155 806.43,-157.113 810.074,-158.991 813.845,-160.66"/>
<polygon fill="midnightblue" stroke="midnightblue" points="812.841,-164.025 823.429,-164.394 815.382,-157.503 812.841,-164.025"/>
</g>
<!-- Node198 -->
<g id="node20" class="node"><title>Node198</title>
<g id="a_node20"><a xlink:href="scalar_8h.html#aab66620cbbe49bec3c7c02f4a1219c05" target="_top" xlink:title="Check whether a scalar is higher than the group order divided by 2. ">
<polygon fill="white" stroke="black" points="819.5,-38.5 819.5,-57.5 950.5,-57.5 950.5,-38.5 819.5,-38.5"/>
<text text-anchor="middle" x="885" y="-45.5" font-family="Helvetica,sans-Serif" font-size="10.00">secp256k1_scalar_is_high</text>
</a>
</g>
</g>
<!-- Node196&#45;&gt;Node198 -->
<g id="edge23" class="edge"><title>Node196&#45;&gt;Node198</title>
<path fill="none" stroke="midnightblue" d="M767.26,-71.8502C787.046,-67.8078 808.369,-63.4515 827.309,-59.5821"/>
<polygon fill="midnightblue" stroke="midnightblue" points="828.17,-62.9785 837.267,-57.5476 826.769,-56.1202 828.17,-62.9785"/>
</g>
<!-- Node199 -->
<g id="node21" class="node"><title>Node199</title>
<g id="a_node21"><a xlink:href="scalar_8h.html#aa3f1c1d4536adf835ee256878c222968" target="_top" xlink:title="Compute the complement of a scalar (modulo the group order). ">
<polygon fill="white" stroke="black" points="820,-0.5 820,-19.5 950,-19.5 950,-0.5 820,-0.5"/>
<text text-anchor="middle" x="885" y="-7.5" font-family="Helvetica,sans-Serif" font-size="10.00">secp256k1_scalar_negate</text>
</a>
</g>
</g>
<!-- Node196&#45;&gt;Node199 -->
<g id="edge24" class="edge"><title>Node196&#45;&gt;Node199</title>
<path fill="none" stroke="midnightblue" d="M721.319,-70.9772C742.044,-58.2115 773.536,-40.2206 803,-29 809.682,-26.4554 816.808,-24.1845 823.957,-22.1765"/>
<polygon fill="midnightblue" stroke="midnightblue" points="824.91,-25.5448 833.68,-19.6004 823.117,-18.7783 824.91,-25.5448"/>
</g>
<!-- Node197&#45;&gt;Node191 -->
<g id="edge22" class="edge"><title>Node197&#45;&gt;Node191</title>
<path fill="none" stroke="midnightblue" d="M936.085,-164.46C963.239,-159.288 996.986,-152.86 1025.53,-147.422"/>
<polygon fill="midnightblue" stroke="midnightblue" points="1026.23,-150.853 1035.39,-145.544 1024.92,-143.977 1026.23,-150.853"/>
</g>
<!-- Node197&#45;&gt;Node193 -->
<g id="edge21" class="edge"><title>Node197&#45;&gt;Node193</title>
<path fill="none" stroke="midnightblue" d="M967.023,-174C1049.92,-174 1174.99,-174 1236.18,-174"/>
<polygon fill="midnightblue" stroke="midnightblue" points="1236.49,-177.5 1246.49,-174 1236.49,-170.5 1236.49,-177.5"/>
</g>
<!-- Node201&#45;&gt;Node181 -->
<g id="edge28" class="edge"><title>Node201&#45;&gt;Node181</title>
<path fill="none" stroke="midnightblue" d="M566.543,-258.718C589.446,-263.899 618.802,-270.538 643.767,-276.185"/>
<polygon fill="midnightblue" stroke="midnightblue" points="643.281,-279.664 653.807,-278.456 644.826,-272.836 643.281,-279.664"/>
</g>
<!-- Node202 -->
<g id="node24" class="node"><title>Node202</title>
<g id="a_node24"><a xlink:href="classprevector.html#a626f7d206dbc24e5610631809762758b" target="_top" xlink:title="prevector::size">
<polygon fill="white" stroke="black" points="656.5,-240.5 656.5,-259.5 737.5,-259.5 737.5,-240.5 656.5,-240.5"/>
<text text-anchor="middle" x="697" y="-247.5" font-family="Helvetica,sans-Serif" font-size="10.00">prevector::size</text>
</a>
</g>
</g>
<!-- Node201&#45;&gt;Node202 -->
<g id="edge29" class="edge"><title>Node201&#45;&gt;Node202</title>
<path fill="none" stroke="midnightblue" d="M566.543,-250C590.212,-250 620.773,-250 646.257,-250"/>
<polygon fill="midnightblue" stroke="midnightblue" points="646.471,-253.5 656.47,-250 646.47,-246.5 646.471,-253.5"/>
</g>
<!-- Node202&#45;&gt;Node182 -->
<g id="edge30" class="edge"><title>Node202&#45;&gt;Node182</title>
<path fill="none" stroke="midnightblue" d="M737.902,-250C763.19,-250 796.356,-250 824.694,-250"/>
<polygon fill="midnightblue" stroke="midnightblue" points="824.893,-253.5 834.893,-250 824.893,-246.5 824.893,-253.5"/>
</g>
<!-- Node203&#45;&gt;Node180 -->
<g id="edge38" class="edge"><title>Node203&#45;&gt;Node180</title>
<path fill="none" stroke="midnightblue" d="M227.72,-316.704C250.311,-311.609 278.546,-305.242 302.678,-299.8"/>
<polygon fill="midnightblue" stroke="midnightblue" points="303.756,-303.144 312.741,-297.53 302.216,-296.316 303.756,-303.144"/>
</g>
<!-- Node204 -->
<g id="node26" class="node"><title>Node204</title>
<g id="a_node26"><a xlink:href="class_c_script.html#aac2dbe75742054049b0c6de0e9473ef0" target="_top" xlink:title="CScript::GetOp2">
<polygon fill="white" stroke="black" points="311.5,-316.5 311.5,-335.5 400.5,-335.5 400.5,-316.5 311.5,-316.5"/>
<text text-anchor="middle" x="356" y="-323.5" font-family="Helvetica,sans-Serif" font-size="10.00">CScript::GetOp2</text>
</a>
</g>
</g>
<!-- Node203&#45;&gt;Node204 -->
<g id="edge32" class="edge"><title>Node203&#45;&gt;Node204</title>
<path fill="none" stroke="midnightblue" d="M227.72,-326C249.786,-326 277.236,-326 300.989,-326"/>
<polygon fill="midnightblue" stroke="midnightblue" points="301.261,-329.5 311.261,-326 301.261,-322.5 301.261,-329.5"/>
</g>
<!-- Node204&#45;&gt;Node201 -->
<g id="edge33" class="edge"><title>Node204&#45;&gt;Node201</title>
<path fill="none" stroke="midnightblue" d="M399.047,-316.475C408.402,-313.838 418.162,-310.671 427,-307 454.67,-295.506 484.159,-277.727 503.685,-265.084"/>
<polygon fill="midnightblue" stroke="midnightblue" points="505.731,-267.927 512.165,-259.509 501.886,-262.078 505.731,-267.927"/>
</g>
<!-- Node205 -->
<g id="node27" class="node"><title>Node205</title>
<g id="a_node27"><a xlink:href="common_8h.html#a2d16135fe5ad0be1b5ae2525bf8a6ae0" target="_top" xlink:title="ReadLE16">
<polygon fill="white" stroke="black" points="496,-316.5 496,-335.5 558,-335.5 558,-316.5 496,-316.5"/>
<text text-anchor="middle" x="527" y="-323.5" font-family="Helvetica,sans-Serif" font-size="10.00">ReadLE16</text>
</a>
</g>
</g>
<!-- Node204&#45;&gt;Node205 -->
<g id="edge34" class="edge"><title>Node204&#45;&gt;Node205</title>
<path fill="none" stroke="midnightblue" d="M400.522,-326C426.824,-326 460.117,-326 485.798,-326"/>
<polygon fill="midnightblue" stroke="midnightblue" points="485.941,-329.5 495.941,-326 485.941,-322.5 485.941,-329.5"/>
</g>
<!-- Node207 -->
<g id="node29" class="node"><title>Node207</title>
<g id="a_node29"><a xlink:href="common_8h.html#a95b035f2729461d80d2f09d776ea07d2" target="_top" xlink:title="ReadLE32">
<polygon fill="white" stroke="black" points="496,-354.5 496,-373.5 558,-373.5 558,-354.5 496,-354.5"/>
<text text-anchor="middle" x="527" y="-361.5" font-family="Helvetica,sans-Serif" font-size="10.00">ReadLE32</text>
</a>
</g>
</g>
<!-- Node204&#45;&gt;Node207 -->
<g id="edge36" class="edge"><title>Node204&#45;&gt;Node207</title>
<path fill="none" stroke="midnightblue" d="M399.646,-335.589C426.147,-341.548 459.997,-349.159 485.99,-355.004"/>
<polygon fill="midnightblue" stroke="midnightblue" points="485.365,-358.451 495.89,-357.23 486.901,-351.621 485.365,-358.451"/>
</g>
<!-- Node206 -->
<g id="node28" class="node"><title>Node206</title>
<g id="a_node28"><a xlink:href="endian_8h.html#a43af2810e0abe8dcaefe0920e64a99f4" target="_top" xlink:title="le16toh">
<polygon fill="white" stroke="black" points="673,-316.5 673,-335.5 721,-335.5 721,-316.5 673,-316.5"/>
<text text-anchor="middle" x="697" y="-323.5" font-family="Helvetica,sans-Serif" font-size="10.00">le16toh</text>
</a>
</g>
</g>
<!-- Node205&#45;&gt;Node206 -->
<g id="edge35" class="edge"><title>Node205&#45;&gt;Node206</title>
<path fill="none" stroke="midnightblue" d="M558.035,-326C587.5,-326 632.327,-326 662.827,-326"/>
<polygon fill="midnightblue" stroke="midnightblue" points="662.969,-329.5 672.969,-326 662.969,-322.5 662.969,-329.5"/>
</g>
<!-- Node208 -->
<g id="node30" class="node"><title>Node208</title>
<g id="a_node30"><a xlink:href="endian_8h.html#a3b4e83868bbf53b2572b736fc146a319" target="_top" xlink:title="le32toh">
<polygon fill="white" stroke="black" points="673,-354.5 673,-373.5 721,-373.5 721,-354.5 673,-354.5"/>
<text text-anchor="middle" x="697" y="-361.5" font-family="Helvetica,sans-Serif" font-size="10.00">le32toh</text>
</a>
</g>
</g>
<!-- Node207&#45;&gt;Node208 -->
<g id="edge37" class="edge"><title>Node207&#45;&gt;Node208</title>
<path fill="none" stroke="midnightblue" d="M558.035,-364C587.5,-364 632.327,-364 662.827,-364"/>
<polygon fill="midnightblue" stroke="midnightblue" points="662.969,-367.5 672.969,-364 662.969,-360.5 662.969,-367.5"/>
</g>
<!-- Node211&#45;&gt;Node180 -->
<g id="edge43" class="edge"><title>Node211&#45;&gt;Node180</title>
<path fill="none" stroke="midnightblue" d="M207.841,-221.625C237.34,-234.931 290.747,-259.02 324.465,-274.228"/>
<polygon fill="midnightblue" stroke="midnightblue" points="323.278,-277.532 333.833,-278.453 326.156,-271.151 323.278,-277.532"/>
</g>
<!-- Node211&#45;&gt;Node202 -->
<g id="edge42" class="edge"><title>Node211&#45;&gt;Node202</title>
<path fill="none" stroke="midnightblue" d="M246.324,-212.346C325.442,-213.366 469.103,-217.17 591,-231 609.157,-233.06 628.911,-236.353 646.335,-239.624"/>
<polygon fill="midnightblue" stroke="midnightblue" points="645.814,-243.088 656.295,-241.537 647.135,-236.214 645.814,-243.088"/>
</g>
</g>
</svg>
        <g id="navigator" transform="translate(0 0)" fill="#404254">
                <rect fill="#f2f5e9" fill-opacity="0.5" stroke="#606060" stroke-width=".5" x="0" y="0" width="60" height="60"/>
                <use id="zoomplus" xlink:href="#zoomPlus" x="17" y="9" onmousedown="handleZoom(evt,'in')"/>
                <use id="zoomminus" xlink:href="#zoomMin" x="42" y="9" onmousedown="handleZoom(evt,'out')"/>
                <use id="reset" xlink:href="#resetDef" x="30" y="36" onmousedown="handleReset()"/>
                <g id="arrowUp" xlink:href="#dirArrow" transform="translate(30 24)" onmousedown="handlePan(0,-1)">
                  <use xlink:href="#rim" fill="#404040">
                        <set attributeName="fill" to="#808080" begin="arrowUp.mouseover" end="arrowUp.mouseout"/>
                  </use>
                  <path fill="none" stroke="white" stroke-width="1.5" d="M0,-3.0v7 M-2.5,-0.5L0,-3.0L2.5,-0.5"/>
                </g>
                <g id="arrowRight" xlink:href="#dirArrow" transform="rotate(90) translate(36 -43)" onmousedown="handlePan(1,0)">
                  <use xlink:href="#rim" fill="#404040">
                        <set attributeName="fill" to="#808080" begin="arrowRight.mouseover" end="arrowRight.mouseout"/>
                  </use>
                  <path fill="none" stroke="white" stroke-width="1.5" d="M0,-3.0v7 M-2.5,-0.5L0,-3.0L2.5,-0.5"/>
                </g>
                <g id="arrowDown" xlink:href="#dirArrow" transform="rotate(180) translate(-30 -48)" onmousedown="handlePan(0,1)">
                  <use xlink:href="#rim" fill="#404040">
                        <set attributeName="fill" to="#808080" begin="arrowDown.mouseover" end="arrowDown.mouseout"/>
                  </use>
                  <path fill="none" stroke="white" stroke-width="1.5" d="M0,-3.0v7 M-2.5,-0.5L0,-3.0L2.5,-0.5"/>
                </g>
                <g id="arrowLeft" xlink:href="#dirArrow" transform="rotate(270) translate(-36 17)" onmousedown="handlePan(-1,0)">
                  <use xlink:href="#rim" fill="#404040">
                        <set attributeName="fill" to="#808080" begin="arrowLeft.mouseover" end="arrowLeft.mouseout"/>
                  </use>
                  <path fill="none" stroke="white" stroke-width="1.5" d="M0,-3.0v7 M-2.5,-0.5L0,-3.0L2.5,-0.5"/>
                </g>
        </g>
        <svg viewBox="0 0 15 15" width="100%" height="30px" preserveAspectRatio="xMaxYMin meet">
         <g id="arrow_out" transform="scale(0.3 0.3)">
          <a xlink:href="core__io_8h_a9236ffa581211a68db7f7447faa6c27c_cgraph_org.svg" target="_base">
           <rect id="button" ry="5" rx="5" y="6" x="6" height="38" width="38"
                fill="#f2f5e9" fill-opacity="0.5" stroke="#606060" stroke-width="1.0"/>
           <path id="arrow"
             d="M 11.500037,31.436501 C 11.940474,20.09759 22.043105,11.32322 32.158766,21.979434 L 37.068811,17.246167 C 37.068811,17.246167 37.088388,32 37.088388,32 L 22.160133,31.978069 C 22.160133,31.978069 26.997745,27.140456 26.997745,27.140456 C 18.528582,18.264221 13.291696,25.230495 11.500037,31.436501 z"
             style="fill:#404040;"/>
          </a>
         </g>
        </svg>
</svg>
