<?xml version="1.0" encoding="UTF-8" standalone="no"?>
<!DOCTYPE svg PUBLIC "-//W3C//DTD SVG 1.1//EN"
 "http://www.w3.org/Graphics/SVG/1.1/DTD/svg11.dtd">
<!-- Generated by graphviz version 2.38.0 (20140413.2041)
 -->
<!-- Title: EncryptSecret Pages: 1 -->
<svg width="407pt" height="104pt"
 viewBox="0.00 0.00 407.00 104.00" xmlns="http://www.w3.org/2000/svg" xmlns:xlink="http://www.w3.org/1999/xlink">
<g id="graph0" class="graph" transform="scale(1 1) rotate(0) translate(4 100)">
<title>EncryptSecret</title>
<polygon fill="white" stroke="none" points="-4,4 -4,-100 403,-100 403,4 -4,4"/>
<!-- Node113 -->
<g id="node1" class="node"><title>Node113</title>
<polygon fill="#bfbfbf" stroke="black" points="0,-38.5 0,-57.5 79,-57.5 79,-38.5 0,-38.5"/>
<text text-anchor="middle" x="39.5" y="-45.5" font-family="Helvetica,sans-Serif" font-size="10.00">EncryptSecret</text>
</g>
<!-- Node114 -->
<g id="node2" class="node"><title>Node114</title>
<g id="a_node2"><a xlink:href="class_c_crypter.html#a124fcd3021569a660ce2daa3391c8ea4" target="_top" xlink:title="CCrypter::Encrypt">
<polygon fill="white" stroke="black" points="115,-76.5 115,-95.5 211,-95.5 211,-76.5 115,-76.5"/>
<text text-anchor="middle" x="163" y="-83.5" font-family="Helvetica,sans-Serif" font-size="10.00">CCrypter::Encrypt</text>
</a>
</g>
</g>
<!-- Node113&#45;&gt;Node114 -->
<g id="edge1" class="edge"><title>Node113&#45;&gt;Node114</title>
<path fill="none" stroke="midnightblue" d="M71.1596,-57.589C86.4124,-62.3594 105.051,-68.1888 121.467,-73.3229"/>
<polygon fill="midnightblue" stroke="midnightblue" points="120.761,-76.7694 131.35,-76.4141 122.851,-70.0886 120.761,-76.7694"/>
</g>
<!-- Node115 -->
<g id="node3" class="node"><title>Node115</title>
<g id="a_node3"><a xlink:href="glibc__compat_8cpp.html#a0f46826ab0466591e136db24394923cf" target="_top" xlink:title="memcpy">
<polygon fill="white" stroke="black" points="247,-19.5 247,-38.5 301,-38.5 301,-19.5 247,-19.5"/>
<text text-anchor="middle" x="274" y="-26.5" font-family="Helvetica,sans-Serif" font-size="10.00">memcpy</text>
</a>
</g>
</g>
<!-- Node113&#45;&gt;Node115 -->
<g id="edge2" class="edge"><title>Node113&#45;&gt;Node115</title>
<path fill="none" stroke="midnightblue" d="M79.1536,-44.8412C123.052,-41.2538 194.12,-35.4461 236.921,-31.9484"/>
<polygon fill="midnightblue" stroke="midnightblue" points="237.219,-35.4358 246.901,-31.1328 236.649,-28.459 237.219,-35.4358"/>
</g>
<!-- Node117 -->
<g id="node5" class="node"><title>Node117</title>
<g id="a_node5"><a xlink:href="class_c_crypter.html#a0d948dd4796e2420e1dd9c1ddbf7974e" target="_top" xlink:title="CCrypter::SetKey">
<polygon fill="white" stroke="black" points="115.5,-0.5 115.5,-19.5 210.5,-19.5 210.5,-0.5 115.5,-0.5"/>
<text text-anchor="middle" x="163" y="-7.5" font-family="Helvetica,sans-Serif" font-size="10.00">CCrypter::SetKey</text>
</a>
</g>
</g>
<!-- Node113&#45;&gt;Node117 -->
<g id="edge4" class="edge"><title>Node113&#45;&gt;Node117</title>
<path fill="none" stroke="midnightblue" d="M71.1596,-38.411C86.4124,-33.6406 105.051,-27.8112 121.467,-22.6771"/>
<polygon fill="midnightblue" stroke="midnightblue" points="122.851,-25.9114 131.35,-19.5859 120.761,-19.2306 122.851,-25.9114"/>
</g>
<!-- Node116 -->
<g id="node4" class="node"><title>Node116</title>
<g id="a_node4"><a xlink:href="glibc__compat_8cpp.html#a9778d49e9029dd75bc53ecbbf9f5e9a1" target="_top" xlink:title="memmove">
<polygon fill="white" stroke="black" points="337,-19.5 337,-38.5 399,-38.5 399,-19.5 337,-19.5"/>
<text text-anchor="middle" x="368" y="-26.5" font-family="Helvetica,sans-Serif" font-size="10.00">memmove</text>
</a>
</g>
</g>
<!-- Node115&#45;&gt;Node116 -->
<g id="edge3" class="edge"><title>Node115&#45;&gt;Node116</title>
<path fill="none" stroke="midnightblue" d="M301.117,-29C309.136,-29 318.152,-29 326.881,-29"/>
<polygon fill="midnightblue" stroke="midnightblue" points="326.92,-32.5001 336.92,-29 326.919,-25.5001 326.92,-32.5001"/>
</g>
<!-- Node117&#45;&gt;Node115 -->
<g id="edge5" class="edge"><title>Node117&#45;&gt;Node115</title>
<path fill="none" stroke="midnightblue" d="M210.542,-18.1128C219.345,-19.6473 228.432,-21.2312 236.856,-22.6996"/>
<polygon fill="midnightblue" stroke="midnightblue" points="236.286,-26.1531 246.739,-24.4224 237.489,-19.2571 236.286,-26.1531"/>
</g>
</g>
</svg>
