<?xml version="1.0" encoding="UTF-8" standalone="no"?>
<!DOCTYPE svg PUBLIC "-//W3C//DTD SVG 1.1//EN"
 "http://www.w3.org/Graphics/SVG/1.1/DTD/svg11.dtd">
<!-- Generated by graphviz version 2.38.0 (20140413.2041)
 -->
<!-- Title: src/crypto/chacha20.cpp Pages: 1 -->
<svg width="296pt" height="252pt"
 viewBox="0.00 0.00 296.17 252.00" xmlns="http://www.w3.org/2000/svg" xmlns:xlink="http://www.w3.org/1999/xlink">
<g id="graph0" class="graph" transform="scale(1 1) rotate(0) translate(4 248)">
<title>src/crypto/chacha20.cpp</title>
<polygon fill="white" stroke="none" points="-4,4 -4,-248 292.166,-248 292.166,4 -4,4"/>
<!-- Node0 -->
<g id="node1" class="node"><title>Node0</title>
<polygon fill="#bfbfbf" stroke="black" points="82.6665,-224.5 82.6665,-243.5 216.666,-243.5 216.666,-224.5 82.6665,-224.5"/>
<text text-anchor="middle" x="149.666" y="-231.5" font-family="Helvetica,sans-Serif" font-size="10.00">src/crypto/chacha20.cpp</text>
</g>
<!-- Node1 -->
<g id="node2" class="node"><title>Node1</title>
<g id="a_node2"><a xlink:href="common_8h.html" target="_top" xlink:title="crypto/common.h">
<polygon fill="white" stroke="black" points="13.1665,-168.5 13.1665,-187.5 114.166,-187.5 114.166,-168.5 13.1665,-168.5"/>
<text text-anchor="middle" x="63.6665" y="-175.5" font-family="Helvetica,sans-Serif" font-size="10.00">crypto/common.h</text>
</a>
</g>
</g>
<!-- Node0&#45;&gt;Node1 -->
<g id="edge1" class="edge"><title>Node0&#45;&gt;Node1</title>
<path fill="none" stroke="midnightblue" d="M135.849,-224.324C122.434,-215.9 101.842,-202.971 86.0809,-193.074"/>
<polygon fill="midnightblue" stroke="midnightblue" points="87.7797,-190.008 77.4496,-187.655 84.0573,-195.936 87.7797,-190.008"/>
</g>
<!-- Node3 -->
<g id="node4" class="node"><title>Node3</title>
<polygon fill="white" stroke="#bfbfbf" points="127.166,-112.5 127.166,-131.5 180.166,-131.5 180.166,-112.5 127.166,-112.5"/>
<text text-anchor="middle" x="153.666" y="-119.5" font-family="Helvetica,sans-Serif" font-size="10.00">string.h</text>
</g>
<!-- Node0&#45;&gt;Node3 -->
<g id="edge11" class="edge"><title>Node0&#45;&gt;Node3</title>
<path fill="none" stroke="midnightblue" d="M149.98,-224.368C150.626,-206.617 152.115,-165.666 152.99,-141.597"/>
<polygon fill="midnightblue" stroke="midnightblue" points="156.488,-141.712 153.354,-131.591 149.493,-141.458 156.488,-141.712"/>
</g>
<!-- Node6 -->
<g id="node7" class="node"><title>Node6</title>
<g id="a_node7"><a xlink:href="chacha20_8h.html" target="_top" xlink:title="crypto/chacha20.h">
<polygon fill="white" stroke="black" points="178.166,-168.5 178.166,-187.5 283.166,-187.5 283.166,-168.5 178.166,-168.5"/>
<text text-anchor="middle" x="230.666" y="-175.5" font-family="Helvetica,sans-Serif" font-size="10.00">crypto/chacha20.h</text>
</a>
</g>
</g>
<!-- Node0&#45;&gt;Node6 -->
<g id="edge8" class="edge"><title>Node0&#45;&gt;Node6</title>
<path fill="none" stroke="midnightblue" d="M162.681,-224.324C175.198,-215.979 194.348,-203.212 209.138,-193.352"/>
<polygon fill="midnightblue" stroke="midnightblue" points="211.306,-196.114 217.685,-187.655 207.423,-190.289 211.306,-196.114"/>
</g>
<!-- Node2 -->
<g id="node3" class="node"><title>Node2</title>
<polygon fill="white" stroke="#bfbfbf" points="46.1665,-0.5 46.1665,-19.5 99.1665,-19.5 99.1665,-0.5 46.1665,-0.5"/>
<text text-anchor="middle" x="72.6665" y="-7.5" font-family="Helvetica,sans-Serif" font-size="10.00">stdint.h</text>
</g>
<!-- Node1&#45;&gt;Node2 -->
<g id="edge2" class="edge"><title>Node1&#45;&gt;Node2</title>
<path fill="none" stroke="midnightblue" d="M43.7604,-168.41C29.4415,-161.04 11.2085,-148.916 2.66647,-132 -1.34019,-124.065 0.0139118,-120.484 2.66647,-112 13.2589,-78.1214 39.6504,-45.6177 56.8307,-27.0119"/>
<polygon fill="midnightblue" stroke="midnightblue" points="59.4217,-29.3662 63.7716,-19.7055 54.3466,-24.545 59.4217,-29.3662"/>
</g>
<!-- Node1&#45;&gt;Node3 -->
<g id="edge3" class="edge"><title>Node1&#45;&gt;Node3</title>
<path fill="none" stroke="midnightblue" d="M78.1265,-168.324C92.1661,-159.9 113.715,-146.971 130.21,-137.074"/>
<polygon fill="midnightblue" stroke="midnightblue" points="132.468,-139.801 139.242,-131.655 128.867,-133.798 132.468,-139.801"/>
</g>
<!-- Node4 -->
<g id="node5" class="node"><title>Node4</title>
<g id="a_node5"><a xlink:href="endian_8h.html" target="_top" xlink:title="compat/endian.h">
<polygon fill="white" stroke="black" points="11.6665,-112.5 11.6665,-131.5 109.666,-131.5 109.666,-112.5 11.6665,-112.5"/>
<text text-anchor="middle" x="60.6665" y="-119.5" font-family="Helvetica,sans-Serif" font-size="10.00">compat/endian.h</text>
</a>
</g>
</g>
<!-- Node1&#45;&gt;Node4 -->
<g id="edge4" class="edge"><title>Node1&#45;&gt;Node4</title>
<path fill="none" stroke="midnightblue" d="M63.1711,-168.083C62.7779,-161.006 62.2143,-150.861 61.7213,-141.986"/>
<polygon fill="midnightblue" stroke="midnightblue" points="65.202,-141.542 61.1526,-131.751 58.2128,-141.93 65.202,-141.542"/>
</g>
<!-- Node4&#45;&gt;Node2 -->
<g id="edge7" class="edge"><title>Node4&#45;&gt;Node2</title>
<path fill="none" stroke="midnightblue" d="M57.1713,-112.089C52.7095,-99.4906 46.0855,-75.8001 50.6665,-56 52.8962,-46.3627 57.4879,-36.4052 61.9025,-28.3149"/>
<polygon fill="midnightblue" stroke="midnightblue" points="65.0171,-29.9216 67.0286,-19.5194 58.9693,-26.3968 65.0171,-29.9216"/>
</g>
<!-- Node5 -->
<g id="node6" class="node"><title>Node5</title>
<g id="a_node6"><a xlink:href="byteswap_8h.html" target="_top" xlink:title="compat/byteswap.h">
<polygon fill="white" stroke="black" points="59.6665,-56.5 59.6665,-75.5 169.666,-75.5 169.666,-56.5 59.6665,-56.5"/>
<text text-anchor="middle" x="114.666" y="-63.5" font-family="Helvetica,sans-Serif" font-size="10.00">compat/byteswap.h</text>
</a>
</g>
</g>
<!-- Node4&#45;&gt;Node5 -->
<g id="edge5" class="edge"><title>Node4&#45;&gt;Node5</title>
<path fill="none" stroke="midnightblue" d="M69.5835,-112.083C77.4469,-104.22 89.0976,-92.5688 98.5852,-83.0813"/>
<polygon fill="midnightblue" stroke="midnightblue" points="101.319,-85.2971 105.915,-75.7511 96.3694,-80.3473 101.319,-85.2971"/>
</g>
<!-- Node5&#45;&gt;Node2 -->
<g id="edge6" class="edge"><title>Node5&#45;&gt;Node2</title>
<path fill="none" stroke="midnightblue" d="M107.731,-56.083C101.737,-48.3768 92.9146,-37.0333 85.6188,-27.6531"/>
<polygon fill="midnightblue" stroke="midnightblue" points="88.3751,-25.4958 79.4729,-19.7511 82.8496,-29.7934 88.3751,-25.4958"/>
</g>
<!-- Node6&#45;&gt;Node2 -->
<g id="edge9" class="edge"><title>Node6&#45;&gt;Node2</title>
<path fill="none" stroke="midnightblue" d="M229.252,-168.444C225.246,-146.768 211.883,-89.0706 178.666,-56 159.746,-37.1625 131.719,-25.7327 109.236,-19.1082"/>
<polygon fill="midnightblue" stroke="midnightblue" points="109.919,-15.6661 99.3488,-16.3933 108.065,-22.4163 109.919,-15.6661"/>
</g>
<!-- Node7 -->
<g id="node8" class="node"><title>Node7</title>
<polygon fill="white" stroke="#bfbfbf" points="237.166,-112.5 237.166,-131.5 288.166,-131.5 288.166,-112.5 237.166,-112.5"/>
<text text-anchor="middle" x="262.666" y="-119.5" font-family="Helvetica,sans-Serif" font-size="10.00">stdlib.h</text>
</g>
<!-- Node6&#45;&gt;Node7 -->
<g id="edge10" class="edge"><title>Node6&#45;&gt;Node7</title>
<path fill="none" stroke="midnightblue" d="M235.951,-168.083C240.377,-160.613 246.83,-149.724 252.284,-140.52"/>
<polygon fill="midnightblue" stroke="midnightblue" points="255.394,-142.138 257.481,-131.751 249.372,-138.57 255.394,-142.138"/>
</g>
</g>
</svg>
