<?xml version="1.0" encoding="UTF-8" standalone="no"?>
<!DOCTYPE svg PUBLIC "-//W3C//DTD SVG 1.1//EN"
 "http://www.w3.org/Graphics/SVG/1.1/DTD/svg11.dtd">
<!-- Generated by graphviz version 2.38.0 (20140413.2041)
 -->
<!-- Title: src/qt/dash.cpp Pages: 1 -->
<!--zoomable 196 -->
<svg id="main" version="1.1" xmlns="http://www.w3.org/2000/svg" xmlns:xlink="http://www.w3.org/1999/xlink" xml:space="preserve" onload="init(evt)">
<style type="text/css"><![CDATA[
.edge:hover path { stroke: red; }
.edge:hover polygon { stroke: red; fill: red; }
]]></style>
<script type="text/javascript"><![CDATA[
var edges = document.getElementsByTagName('g');
if (edges && edges.length) {
  for (var i=0;i<edges.length;i++) {
    if (edges[i].id.substr(0,4)=='edge') {
      edges[i].setAttribute('class','edge');
    }
  }
}
]]></script>
        <defs>
                <circle id="rim" cx="0" cy="0" r="7"/>
                <circle id="rim2" cx="0" cy="0" r="3.5"/>
                <g id="zoomPlus">
                        <use xlink:href="#rim" fill="#404040">
                                <set attributeName="fill" to="#808080" begin="zoomplus.mouseover" end="zoomplus.mouseout"/>
                        </use>
                        <path d="M-4,0h8M0,-4v8" fill="none" stroke="white" stroke-width="1.5" pointer-events="none"/>
                </g>
                <g id="zoomMin">
                        <use xlink:href="#rim" fill="#404040">
                                <set attributeName="fill" to="#808080" begin="zoomminus.mouseover" end="zoomminus.mouseout"/>
                        </use>
                        <path d="M-4,0h8" fill="none" stroke="white" stroke-width="1.5" pointer-events="none"/>
                </g>
                <g id="dirArrow">
                        <path fill="none" stroke="white" stroke-width="1.5" d="M0,-3.0v7 M-2.5,-0.5L0,-3.0L2.5,-0.5"/>
                </g>
               <g id="resetDef">
                       <use xlink:href="#rim2" fill="#404040">
                               <set attributeName="fill" to="#808080" begin="reset.mouseover" end="reset.mouseout"/>
                       </use>
               </g>
        </defs>

<script type="text/javascript">
var viewWidth = 3777;
var viewHeight = 196;
var sectionId = 'dynsection-0';
</script>
<script xlink:href="svgpan.js"/>
<svg id="graph" class="graph">
<g id="viewport">
<title>src/qt/dash.cpp</title>
<polygon fill="white" stroke="none" points="-4,4 -4,-192 3772.5,-192 3772.5,4 -4,4"/>
<!-- Node0 -->
<g id="node1" class="node"><title>Node0</title>
<polygon fill="#bfbfbf" stroke="black" points="2307,-168.5 2307,-187.5 2397,-187.5 2397,-168.5 2307,-168.5"/>
<text text-anchor="middle" x="2352" y="-175.5" font-family="Helvetica,sans-Serif" font-size="10.00">src/qt/dash.cpp</text>
</g>
<!-- Node1 -->
<g id="node2" class="node"><title>Node1</title>
<g id="a_node2"><a xlink:href="bitcoingui_8h.html" target="_top" xlink:title="qt/bitcoingui.h">
<polygon fill="white" stroke="black" points="349,-112.5 349,-131.5 433,-131.5 433,-112.5 349,-112.5"/>
<text text-anchor="middle" x="391" y="-119.5" font-family="Helvetica,sans-Serif" font-size="10.00">qt/bitcoingui.h</text>
</a>
</g>
</g>
<!-- Node0&#45;&gt;Node1 -->
<g id="edge1" class="edge"><title>Node0&#45;&gt;Node1</title>
<path fill="none" stroke="midnightblue" d="M2306.76,-175.761C2114.5,-170.495 1346.28,-149.444 715,-132 619.222,-129.353 507.519,-126.246 443.446,-124.461"/>
<polygon fill="midnightblue" stroke="midnightblue" points="443.292,-120.956 433.199,-124.176 443.097,-127.953 443.292,-120.956"/>
</g>
<!-- Node3 -->
<g id="node4" class="node"><title>Node3</title>
<polygon fill="white" stroke="#bfbfbf" points="1639.5,-0.5 1639.5,-19.5 1692.5,-19.5 1692.5,-0.5 1639.5,-0.5"/>
<text text-anchor="middle" x="1666" y="-7.5" font-family="Helvetica,sans-Serif" font-size="10.00">stdint.h</text>
</g>
<!-- Node0&#45;&gt;Node3 -->
<g id="edge57" class="edge"><title>Node0&#45;&gt;Node3</title>
<path fill="none" stroke="midnightblue" d="M2397.31,-174.264C2453.77,-169.048 2539.36,-154.121 2509,-112 2462.98,-48.1507 2418.23,-71.1856 2341,-56 2217.11,-31.6387 1825.18,-16.4555 1702.84,-12.2179"/>
<polygon fill="midnightblue" stroke="midnightblue" points="1702.63,-8.7087 1692.52,-11.8642 1702.39,-15.7046 1702.63,-8.7087"/>
</g>
<!-- Node11 -->
<g id="node12" class="node"><title>Node11</title>
<g id="a_node12"><a xlink:href="chainparams_8h.html" target="_top" xlink:title="chainparams.h">
<polygon fill="white" stroke="black" points="724,-112.5 724,-131.5 812,-131.5 812,-112.5 724,-112.5"/>
<text text-anchor="middle" x="768" y="-119.5" font-family="Helvetica,sans-Serif" font-size="10.00">chainparams.h</text>
</a>
</g>
</g>
<!-- Node0&#45;&gt;Node11 -->
<g id="edge11" class="edge"><title>Node0&#45;&gt;Node11</title>
<path fill="none" stroke="midnightblue" d="M2306.99,-175.53C2137.57,-169.989 1522.15,-149.774 1015,-132 948.74,-129.678 872.486,-126.88 822.44,-125.027"/>
<polygon fill="midnightblue" stroke="midnightblue" points="822.294,-121.519 812.171,-124.646 822.035,-128.515 822.294,-121.519"/>
</g>
<!-- Node13 -->
<g id="node14" class="node"><title>Node13</title>
<polygon fill="white" stroke="#bfbfbf" points="961.5,-0.5 961.5,-19.5 1018.5,-19.5 1018.5,-0.5 961.5,-0.5"/>
<text text-anchor="middle" x="990" y="-7.5" font-family="Helvetica,sans-Serif" font-size="10.00">memory</text>
</g>
<!-- Node0&#45;&gt;Node13 -->
<g id="edge56" class="edge"><title>Node0&#45;&gt;Node13</title>
<path fill="none" stroke="midnightblue" d="M2306.93,-177.359C2101.8,-178.718 1261.73,-181.211 1156,-132 1114.64,-112.749 1123.76,-83.0254 1087,-56 1068.06,-42.0768 1044.13,-30.9187 1024.78,-23.1961"/>
<polygon fill="midnightblue" stroke="midnightblue" points="1026,-19.9147 1015.41,-19.5794 1023.48,-26.4452 1026,-19.9147"/>
</g>
<!-- Node63 -->
<g id="node19" class="node"><title>Node63</title>
<g id="a_node19"><a xlink:href="clientmodel_8h.html" target="_top" xlink:title="qt/clientmodel.h">
<polygon fill="white" stroke="red" points="1165,-112.5 1165,-131.5 1259,-131.5 1259,-112.5 1165,-112.5"/>
<text text-anchor="middle" x="1212" y="-119.5" font-family="Helvetica,sans-Serif" font-size="10.00">qt/clientmodel.h</text>
</a>
</g>
</g>
<!-- Node0&#45;&gt;Node63 -->
<g id="edge21" class="edge"><title>Node0&#45;&gt;Node63</title>
<path fill="none" stroke="midnightblue" d="M2306.76,-176.518C2159.04,-174.64 1677.56,-166.127 1281,-132 1277.12,-131.666 1273.12,-131.273 1269.09,-130.841"/>
<polygon fill="midnightblue" stroke="midnightblue" points="1269.41,-127.355 1259.08,-129.701 1268.62,-134.31 1269.41,-127.355"/>
</g>
<!-- Node77 -->
<g id="node21" class="node"><title>Node77</title>
<g id="a_node21"><a xlink:href="fs_8h.html" target="_top" xlink:title="fs.h">
<polygon fill="white" stroke="red" points="1441,-56.5 1441,-75.5 1475,-75.5 1475,-56.5 1441,-56.5"/>
<text text-anchor="middle" x="1458" y="-63.5" font-family="Helvetica,sans-Serif" font-size="10.00">fs.h</text>
</a>
</g>
</g>
<!-- Node0&#45;&gt;Node77 -->
<g id="edge23" class="edge"><title>Node0&#45;&gt;Node77</title>
<path fill="none" stroke="midnightblue" d="M2306.79,-176.626C2119.32,-174.856 1411.41,-165.94 1379,-132 1357.95,-109.956 1400.62,-88.2591 1431.04,-76.3485"/>
<polygon fill="midnightblue" stroke="midnightblue" points="1432.64,-79.4858 1440.78,-72.6981 1430.18,-72.9312 1432.64,-79.4858"/>
</g>
<!-- Node170 -->
<g id="node22" class="node"><title>Node170</title>
<g id="a_node22"><a xlink:href="guiconstants_8h.html" target="_top" xlink:title="qt/guiconstants.h">
<polygon fill="white" stroke="black" points="1575,-56.5 1575,-75.5 1675,-75.5 1675,-56.5 1575,-56.5"/>
<text text-anchor="middle" x="1625" y="-63.5" font-family="Helvetica,sans-Serif" font-size="10.00">qt/guiconstants.h</text>
</a>
</g>
</g>
<!-- Node0&#45;&gt;Node170 -->
<g id="edge24" class="edge"><title>Node0&#45;&gt;Node170</title>
<path fill="none" stroke="midnightblue" d="M2306.82,-175.891C2151.61,-171.862 1648.43,-156.921 1625,-132 1613.67,-119.944 1615.32,-100.375 1618.79,-85.8545"/>
<polygon fill="midnightblue" stroke="midnightblue" points="1622.24,-86.5192 1621.63,-75.9425 1615.51,-84.5966 1622.24,-86.5192"/>
</g>
<!-- Node171 -->
<g id="node23" class="node"><title>Node171</title>
<g id="a_node23"><a xlink:href="guiutil_8h.html" target="_top" xlink:title="qt/guiutil.h">
<polygon fill="white" stroke="red" points="1388.5,-112.5 1388.5,-131.5 1455.5,-131.5 1455.5,-112.5 1388.5,-112.5"/>
<text text-anchor="middle" x="1422" y="-119.5" font-family="Helvetica,sans-Serif" font-size="10.00">qt/guiutil.h</text>
</a>
</g>
</g>
<!-- Node0&#45;&gt;Node171 -->
<g id="edge25" class="edge"><title>Node0&#45;&gt;Node171</title>
<path fill="none" stroke="midnightblue" d="M2306.55,-177.183C2176.76,-177.176 1793.34,-173.474 1465.88,-131.879"/>
<polygon fill="midnightblue" stroke="midnightblue" points="1466.08,-128.377 1455.72,-130.574 1465.19,-135.32 1466.08,-128.377"/>
</g>
<!-- Node174 -->
<g id="node24" class="node"><title>Node174</title>
<polygon fill="white" stroke="#bfbfbf" points="1693.5,-56.5 1693.5,-75.5 1778.5,-75.5 1778.5,-56.5 1693.5,-56.5"/>
<text text-anchor="middle" x="1736" y="-63.5" font-family="Helvetica,sans-Serif" font-size="10.00">QMessageBox</text>
</g>
<!-- Node0&#45;&gt;Node174 -->
<g id="edge63" class="edge"><title>Node0&#45;&gt;Node174</title>
<path fill="none" stroke="midnightblue" d="M2306.63,-176.51C2174.65,-174.683 1797.55,-166.47 1755,-132 1741.46,-121.032 1737.23,-100.975 1736.07,-86.0308"/>
<polygon fill="midnightblue" stroke="midnightblue" points="1739.56,-85.6921 1735.67,-75.8346 1732.56,-85.9622 1739.56,-85.6921"/>
</g>
<!-- Node178 -->
<g id="node25" class="node"><title>Node178</title>
<g id="a_node25"><a xlink:href="intro_8h.html" target="_top" xlink:title="qt/intro.h">
<polygon fill="white" stroke="red" points="1880,-112.5 1880,-131.5 1940,-131.5 1940,-112.5 1880,-112.5"/>
<text text-anchor="middle" x="1910" y="-119.5" font-family="Helvetica,sans-Serif" font-size="10.00">qt/intro.h</text>
</a>
</g>
</g>
<!-- Node0&#45;&gt;Node178 -->
<g id="edge31" class="edge"><title>Node0&#45;&gt;Node178</title>
<path fill="none" stroke="midnightblue" d="M2306.73,-173.663C2233.74,-167.907 2085.38,-154.662 1950.28,-132.04"/>
<polygon fill="midnightblue" stroke="midnightblue" points="1950.61,-128.545 1940.16,-130.324 1949.44,-135.447 1950.61,-128.545"/>
</g>
<!-- Node181 -->
<g id="node26" class="node"><title>Node181</title>
<polygon fill="white" stroke="#bfbfbf" points="2077.5,-56.5 2077.5,-75.5 2134.5,-75.5 2134.5,-56.5 2077.5,-56.5"/>
<text text-anchor="middle" x="2106" y="-63.5" font-family="Helvetica,sans-Serif" font-size="10.00">QThread</text>
</g>
<!-- Node0&#45;&gt;Node181 -->
<g id="edge66" class="edge"><title>Node0&#45;&gt;Node181</title>
<path fill="none" stroke="midnightblue" d="M2352.13,-168.389C2351.85,-154.386 2349.13,-126.762 2333,-112 2306,-87.2971 2202.49,-74.9649 2145.02,-69.9061"/>
<polygon fill="midnightblue" stroke="midnightblue" points="2145.12,-66.4016 2134.86,-69.0448 2144.53,-73.3766 2145.12,-66.4016"/>
</g>
<!-- Node182 -->
<g id="node27" class="node"><title>Node182</title>
<g id="a_node27"><a xlink:href="net_8h.html" target="_top" xlink:title="net.h">
<polygon fill="white" stroke="red" points="1290.5,-112.5 1290.5,-131.5 1331.5,-131.5 1331.5,-112.5 1290.5,-112.5"/>
<text text-anchor="middle" x="1311" y="-119.5" font-family="Helvetica,sans-Serif" font-size="10.00">net.h</text>
</a>
</g>
</g>
<!-- Node0&#45;&gt;Node182 -->
<g id="edge33" class="edge"><title>Node0&#45;&gt;Node182</title>
<path fill="none" stroke="midnightblue" d="M2306.9,-176.223C2136.95,-173.103 1535.34,-160.266 1346,-132 1344.53,-131.78 1343.02,-131.523 1341.51,-131.239"/>
<polygon fill="midnightblue" stroke="midnightblue" points="1342.1,-127.785 1331.58,-129.047 1340.59,-134.62 1342.1,-127.785"/>
</g>
<!-- Node193 -->
<g id="node28" class="node"><title>Node193</title>
<g id="a_node28"><a xlink:href="networkstyle_8h.html" target="_top" xlink:title="qt/networkstyle.h">
<polygon fill="white" stroke="red" points="1764,-112.5 1764,-131.5 1862,-131.5 1862,-112.5 1764,-112.5"/>
<text text-anchor="middle" x="1813" y="-119.5" font-family="Helvetica,sans-Serif" font-size="10.00">qt/networkstyle.h</text>
</a>
</g>
</g>
<!-- Node0&#45;&gt;Node193 -->
<g id="edge39" class="edge"><title>Node0&#45;&gt;Node193</title>
<path fill="none" stroke="midnightblue" d="M2306.81,-173.692C2223.22,-167.372 2038.58,-152.483 1872.43,-132.107"/>
<polygon fill="midnightblue" stroke="midnightblue" points="1872.37,-128.574 1862.02,-130.82 1871.51,-135.521 1872.37,-128.574"/>
</g>
<!-- Node196 -->
<g id="node29" class="node"><title>Node196</title>
<g id="a_node29"><a xlink:href="optionsmodel_8h.html" target="_top" xlink:title="qt/optionsmodel.h">
<polygon fill="white" stroke="red" points="1474,-112.5 1474,-131.5 1578,-131.5 1578,-112.5 1474,-112.5"/>
<text text-anchor="middle" x="1526" y="-119.5" font-family="Helvetica,sans-Serif" font-size="10.00">qt/optionsmodel.h</text>
</a>
</g>
</g>
<!-- Node0&#45;&gt;Node196 -->
<g id="edge40" class="edge"><title>Node0&#45;&gt;Node196</title>
<path fill="none" stroke="midnightblue" d="M2306.93,-175.534C2189.18,-171.443 1862.66,-158.428 1592,-132 1590.74,-131.877 1589.46,-131.747 1588.18,-131.613"/>
<polygon fill="midnightblue" stroke="midnightblue" points="1588.52,-128.13 1578.2,-130.492 1587.74,-135.086 1588.52,-128.13"/>
</g>
<!-- Node198 -->
<g id="node30" class="node"><title>Node198</title>
<g id="a_node30"><a xlink:href="splashscreen_8h.html" target="_top" xlink:title="qt/splashscreen.h">
<polygon fill="white" stroke="red" points="1958.5,-112.5 1958.5,-131.5 2059.5,-131.5 2059.5,-112.5 1958.5,-112.5"/>
<text text-anchor="middle" x="2009" y="-119.5" font-family="Helvetica,sans-Serif" font-size="10.00">qt/splashscreen.h</text>
</a>
</g>
</g>
<!-- Node0&#45;&gt;Node198 -->
<g id="edge42" class="edge"><title>Node0&#45;&gt;Node198</title>
<path fill="none" stroke="midnightblue" d="M2306.81,-169.885C2245.99,-160.31 2137.61,-143.248 2069.72,-132.559"/>
<polygon fill="midnightblue" stroke="midnightblue" points="2070.02,-129.063 2059.6,-130.966 2068.93,-135.978 2070.02,-129.063"/>
</g>
<!-- Node200 -->
<g id="node31" class="node"><title>Node200</title>
<g id="a_node31"><a xlink:href="utilitydialog_8h.html" target="_top" xlink:title="qt/utilitydialog.h">
<polygon fill="white" stroke="red" points="2078,-112.5 2078,-131.5 2170,-131.5 2170,-112.5 2078,-112.5"/>
<text text-anchor="middle" x="2124" y="-119.5" font-family="Helvetica,sans-Serif" font-size="10.00">qt/utilitydialog.h</text>
</a>
</g>
</g>
<!-- Node0&#45;&gt;Node200 -->
<g id="edge43" class="edge"><title>Node0&#45;&gt;Node200</title>
<path fill="none" stroke="midnightblue" d="M2315.87,-168.444C2276.35,-159.083 2212.9,-144.056 2169.89,-133.868"/>
<polygon fill="midnightblue" stroke="midnightblue" points="2170.5,-130.415 2159.96,-131.516 2168.88,-137.227 2170.5,-130.415"/>
</g>
<!-- Node201 -->
<g id="node32" class="node"><title>Node201</title>
<g id="a_node32"><a xlink:href="winshutdownmonitor_8h.html" target="_top" xlink:title="qt/winshutdownmonitor.h">
<polygon fill="white" stroke="black" points="2188,-112.5 2188,-131.5 2324,-131.5 2324,-112.5 2188,-112.5"/>
<text text-anchor="middle" x="2256" y="-119.5" font-family="Helvetica,sans-Serif" font-size="10.00">qt/winshutdownmonitor.h</text>
</a>
</g>
</g>
<!-- Node0&#45;&gt;Node201 -->
<g id="edge44" class="edge"><title>Node0&#45;&gt;Node201</title>
<path fill="none" stroke="midnightblue" d="M2336.58,-168.324C2321.46,-159.822 2298.18,-146.729 2280.53,-136.797"/>
<polygon fill="midnightblue" stroke="midnightblue" points="2281.82,-133.507 2271.39,-131.655 2278.39,-139.608 2281.82,-133.507"/>
</g>
<!-- Node202 -->
<g id="node33" class="node"><title>Node202</title>
<g id="a_node33"><a xlink:href="init_8h.html" target="_top" xlink:title="init.h">
<polygon fill="white" stroke="red" points="970,-56.5 970,-75.5 1010,-75.5 1010,-56.5 970,-56.5"/>
<text text-anchor="middle" x="990" y="-63.5" font-family="Helvetica,sans-Serif" font-size="10.00">init.h</text>
</a>
</g>
</g>
<!-- Node0&#45;&gt;Node202 -->
<g id="edge45" class="edge"><title>Node0&#45;&gt;Node202</title>
<path fill="none" stroke="midnightblue" d="M2306.92,-176.793C2095.76,-175.633 1209.7,-168.607 1092,-132 1059.14,-121.779 1026.54,-98.0026 1007.35,-82.2173"/>
<polygon fill="midnightblue" stroke="midnightblue" points="1009.41,-79.3822 999.516,-75.6044 1004.9,-84.7304 1009.41,-79.3822"/>
</g>
<!-- Node203 -->
<g id="node34" class="node"><title>Node203</title>
<g id="a_node34"><a xlink:href="server_8h.html" target="_top" xlink:title="rpc/server.h">
<polygon fill="white" stroke="red" points="1634.5,-112.5 1634.5,-131.5 1707.5,-131.5 1707.5,-112.5 1634.5,-112.5"/>
<text text-anchor="middle" x="1671" y="-119.5" font-family="Helvetica,sans-Serif" font-size="10.00">rpc/server.h</text>
</a>
</g>
</g>
<!-- Node0&#45;&gt;Node203 -->
<g id="edge47" class="edge"><title>Node0&#45;&gt;Node203</title>
<path fill="none" stroke="midnightblue" d="M2306.77,-175.375C2203.05,-171.298 1940.19,-158.972 1722,-132 1720.55,-131.821 1719.08,-131.628 1717.59,-131.424"/>
<polygon fill="midnightblue" stroke="midnightblue" points="1718.11,-127.963 1707.7,-129.944 1717.07,-134.886 1718.11,-127.963"/>
</g>
<!-- Node205 -->
<g id="node35" class="node"><title>Node205</title>
<g id="a_node35"><a xlink:href="stacktraces_8h.html" target="_top" xlink:title="stacktraces.h">
<polygon fill="white" stroke="red" points="2418.5,-112.5 2418.5,-131.5 2499.5,-131.5 2499.5,-112.5 2418.5,-112.5"/>
<text text-anchor="middle" x="2459" y="-119.5" font-family="Helvetica,sans-Serif" font-size="10.00">stacktraces.h</text>
</a>
</g>
</g>
<!-- Node0&#45;&gt;Node205 -->
<g id="edge50" class="edge"><title>Node0&#45;&gt;Node205</title>
<path fill="none" stroke="midnightblue" d="M2369.19,-168.324C2386.35,-159.664 2412.95,-146.242 2432.75,-136.249"/>
<polygon fill="midnightblue" stroke="midnightblue" points="2434.5,-139.285 2441.85,-131.655 2431.35,-133.035 2434.5,-139.285"/>
</g>
<!-- Node207 -->
<g id="node36" class="node"><title>Node207</title>
<g id="a_node36"><a xlink:href="ui__interface_8h.html" target="_top" xlink:title="ui_interface.h">
<polygon fill="white" stroke="red" points="2250.5,-56.5 2250.5,-75.5 2331.5,-75.5 2331.5,-56.5 2250.5,-56.5"/>
<text text-anchor="middle" x="2291" y="-63.5" font-family="Helvetica,sans-Serif" font-size="10.00">ui_interface.h</text>
</a>
</g>
</g>
<!-- Node0&#45;&gt;Node207 -->
<g id="edge51" class="edge"><title>Node0&#45;&gt;Node207</title>
<path fill="none" stroke="midnightblue" d="M2357.43,-168.429C2364.91,-155.422 2376.35,-130.282 2366,-112 2357.65,-97.2584 2342.34,-86.8192 2327.71,-79.7321"/>
<polygon fill="midnightblue" stroke="midnightblue" points="2328.84,-76.4041 2318.28,-75.5474 2326,-82.8025 2328.84,-76.4041"/>
</g>
<!-- Node209 -->
<g id="node37" class="node"><title>Node209</title>
<polygon fill="white" stroke="#bfbfbf" points="2556,-112.5 2556,-131.5 2596,-131.5 2596,-112.5 2556,-112.5"/>
<text text-anchor="middle" x="2576" y="-119.5" font-family="Helvetica,sans-Serif" font-size="10.00">util.h</text>
</g>
<!-- Node0&#45;&gt;Node209 -->
<g id="edge53" class="edge"><title>Node0&#45;&gt;Node209</title>
<path fill="none" stroke="midnightblue" d="M2389.21,-168.492C2427.56,-159.65 2489.06,-145.273 2542,-132 2543.27,-131.683 2544.56,-131.355 2545.86,-131.022"/>
<polygon fill="midnightblue" stroke="midnightblue" points="2547.09,-134.32 2555.89,-128.417 2545.33,-127.545 2547.09,-134.32"/>
</g>
<!-- Node210 -->
<g id="node38" class="node"><title>Node210</title>
<g id="a_node38"><a xlink:href="warnings_8h.html" target="_top" xlink:title="warnings.h">
<polygon fill="white" stroke="red" points="2614,-112.5 2614,-131.5 2682,-131.5 2682,-112.5 2614,-112.5"/>
<text text-anchor="middle" x="2648" y="-119.5" font-family="Helvetica,sans-Serif" font-size="10.00">warnings.h</text>
</a>
</g>
</g>
<!-- Node0&#45;&gt;Node210 -->
<g id="edge54" class="edge"><title>Node0&#45;&gt;Node210</title>
<path fill="none" stroke="midnightblue" d="M2397.32,-169.365C2445.93,-161.081 2525.64,-147.225 2603.74,-132.2"/>
<polygon fill="midnightblue" stroke="midnightblue" points="2604.6,-135.599 2613.75,-130.266 2603.27,-128.726 2604.6,-135.599"/>
</g>
<!-- Node211 -->
<g id="node39" class="node"><title>Node211</title>
<g id="a_node39"><a xlink:href="walletinitinterface_8h.html" target="_top" xlink:title="walletinitinterface.h">
<polygon fill="white" stroke="red" points="2700.5,-112.5 2700.5,-131.5 2809.5,-131.5 2809.5,-112.5 2700.5,-112.5"/>
<text text-anchor="middle" x="2755" y="-119.5" font-family="Helvetica,sans-Serif" font-size="10.00">walletinitinterface.h</text>
</a>
</g>
</g>
<!-- Node0&#45;&gt;Node211 -->
<g id="edge55" class="edge"><title>Node0&#45;&gt;Node211</title>
<path fill="none" stroke="midnightblue" d="M2397.25,-171.106C2460.36,-162.862 2578.66,-147.317 2690.12,-132.112"/>
<polygon fill="midnightblue" stroke="midnightblue" points="2690.76,-135.557 2700.19,-130.736 2689.81,-128.621 2690.76,-135.557"/>
</g>
<!-- Node212 -->
<g id="node40" class="node"><title>Node212</title>
<polygon fill="white" stroke="#bfbfbf" points="2827.5,-112.5 2827.5,-131.5 2926.5,-131.5 2926.5,-112.5 2827.5,-112.5"/>
<text text-anchor="middle" x="2877" y="-119.5" font-family="Helvetica,sans-Serif" font-size="10.00">boost/thread.hpp</text>
</g>
<!-- Node0&#45;&gt;Node212 -->
<g id="edge58" class="edge"><title>Node0&#45;&gt;Node212</title>
<path fill="none" stroke="midnightblue" d="M2397.18,-173.521C2478.94,-167.035 2657.14,-152.029 2817.32,-132.152"/>
<polygon fill="midnightblue" stroke="midnightblue" points="2817.86,-135.611 2827.35,-130.897 2817,-128.665 2817.86,-135.611"/>
</g>
<!-- Node213 -->
<g id="node41" class="node"><title>Node213</title>
<polygon fill="white" stroke="#bfbfbf" points="2944.5,-112.5 2944.5,-131.5 3021.5,-131.5 3021.5,-112.5 2944.5,-112.5"/>
<text text-anchor="middle" x="2983" y="-119.5" font-family="Helvetica,sans-Serif" font-size="10.00">QApplication</text>
</g>
<!-- Node0&#45;&gt;Node213 -->
<g id="edge59" class="edge"><title>Node0&#45;&gt;Node213</title>
<path fill="none" stroke="midnightblue" d="M2397.24,-175.246C2494.03,-171.121 2728.47,-159.138 2934.24,-132.102"/>
<polygon fill="midnightblue" stroke="midnightblue" points="2934.88,-135.549 2944.33,-130.762 2933.95,-128.61 2934.88,-135.549"/>
</g>
<!-- Node214 -->
<g id="node42" class="node"><title>Node214</title>
<polygon fill="white" stroke="#bfbfbf" points="3040,-112.5 3040,-131.5 3096,-131.5 3096,-112.5 3040,-112.5"/>
<text text-anchor="middle" x="3068" y="-119.5" font-family="Helvetica,sans-Serif" font-size="10.00">QDebug</text>
</g>
<!-- Node0&#45;&gt;Node214 -->
<g id="edge60" class="edge"><title>Node0&#45;&gt;Node214</title>
<path fill="none" stroke="midnightblue" d="M2397.18,-176.689C2505.11,-175.372 2786.41,-168.552 3029.72,-131.926"/>
<polygon fill="midnightblue" stroke="midnightblue" points="3030.46,-135.354 3039.82,-130.385 3029.4,-128.434 3030.46,-135.354"/>
</g>
<!-- Node215 -->
<g id="node43" class="node"><title>Node215</title>
<polygon fill="white" stroke="#bfbfbf" points="3114,-112.5 3114,-131.5 3188,-131.5 3188,-112.5 3114,-112.5"/>
<text text-anchor="middle" x="3151" y="-119.5" font-family="Helvetica,sans-Serif" font-size="10.00">QLibraryInfo</text>
</g>
<!-- Node0&#45;&gt;Node215 -->
<g id="edge61" class="edge"><title>Node0&#45;&gt;Node215</title>
<path fill="none" stroke="midnightblue" d="M2397.18,-176.4C2513.02,-174.412 2830.15,-166.146 3103.79,-131.976"/>
<polygon fill="midnightblue" stroke="midnightblue" points="3104.43,-135.423 3113.91,-130.698 3103.55,-128.478 3104.43,-135.423"/>
</g>
<!-- Node216 -->
<g id="node44" class="node"><title>Node216</title>
<polygon fill="white" stroke="#bfbfbf" points="3206.5,-112.5 3206.5,-131.5 3261.5,-131.5 3261.5,-112.5 3206.5,-112.5"/>
<text text-anchor="middle" x="3234" y="-119.5" font-family="Helvetica,sans-Serif" font-size="10.00">QLocale</text>
</g>
<!-- Node0&#45;&gt;Node216 -->
<g id="edge62" class="edge"><title>Node0&#45;&gt;Node216</title>
<path fill="none" stroke="midnightblue" d="M2397.18,-177.527C2522.66,-178.367 2886.03,-176.573 3196.15,-131.813"/>
<polygon fill="midnightblue" stroke="midnightblue" points="3196.84,-135.249 3206.23,-130.34 3195.83,-128.323 3196.84,-135.249"/>
</g>
<!-- Node217 -->
<g id="node45" class="node"><title>Node217</title>
<polygon fill="white" stroke="#bfbfbf" points="3280,-112.5 3280,-131.5 3342,-131.5 3342,-112.5 3280,-112.5"/>
<text text-anchor="middle" x="3311" y="-119.5" font-family="Helvetica,sans-Serif" font-size="10.00">QProcess</text>
</g>
<!-- Node0&#45;&gt;Node217 -->
<g id="edge64" class="edge"><title>Node0&#45;&gt;Node217</title>
<path fill="none" stroke="midnightblue" d="M2397.2,-177.533C2529.9,-178.517 2929.9,-177.32 3269.62,-131.946"/>
<polygon fill="midnightblue" stroke="midnightblue" points="3270.21,-135.398 3279.65,-130.59 3269.27,-128.461 3270.21,-135.398"/>
</g>
<!-- Node218 -->
<g id="node46" class="node"><title>Node218</title>
<polygon fill="white" stroke="#bfbfbf" points="3360,-112.5 3360,-131.5 3424,-131.5 3424,-112.5 3360,-112.5"/>
<text text-anchor="middle" x="3392" y="-119.5" font-family="Helvetica,sans-Serif" font-size="10.00">QSettings</text>
</g>
<!-- Node0&#45;&gt;Node218 -->
<g id="edge65" class="edge"><title>Node0&#45;&gt;Node218</title>
<path fill="none" stroke="midnightblue" d="M2397.05,-175.996C2563.29,-172.134 3142.93,-157.24 3349.71,-131.892"/>
<polygon fill="midnightblue" stroke="midnightblue" points="3350.39,-135.334 3359.86,-130.599 3349.5,-128.391 3350.39,-135.334"/>
</g>
<!-- Node219 -->
<g id="node47" class="node"><title>Node219</title>
<polygon fill="white" stroke="#bfbfbf" points="3442.5,-112.5 3442.5,-131.5 3493.5,-131.5 3493.5,-112.5 3442.5,-112.5"/>
<text text-anchor="middle" x="3468" y="-119.5" font-family="Helvetica,sans-Serif" font-size="10.00">QTimer</text>
</g>
<!-- Node0&#45;&gt;Node219 -->
<g id="edge67" class="edge"><title>Node0&#45;&gt;Node219</title>
<path fill="none" stroke="midnightblue" d="M2397.08,-176.385C2572.25,-173.804 3208.58,-162.59 3432.12,-131.735"/>
<polygon fill="midnightblue" stroke="midnightblue" points="3432.73,-135.183 3442.13,-130.298 3431.73,-128.254 3432.73,-135.183"/>
</g>
<!-- Node220 -->
<g id="node48" class="node"><title>Node220</title>
<polygon fill="white" stroke="#bfbfbf" points="3511.5,-112.5 3511.5,-131.5 3582.5,-131.5 3582.5,-112.5 3511.5,-112.5"/>
<text text-anchor="middle" x="3547" y="-119.5" font-family="Helvetica,sans-Serif" font-size="10.00">QTranslator</text>
</g>
<!-- Node0&#45;&gt;Node220 -->
<g id="edge68" class="edge"><title>Node0&#45;&gt;Node220</title>
<path fill="none" stroke="midnightblue" d="M2397.1,-176.218C2579.44,-172.907 3263.38,-159.007 3501.1,-132.019"/>
<polygon fill="midnightblue" stroke="midnightblue" points="3501.54,-135.491 3511.06,-130.847 3500.72,-128.539 3501.54,-135.491"/>
</g>
<!-- Node221 -->
<g id="node49" class="node"><title>Node221</title>
<polygon fill="white" stroke="#bfbfbf" points="3600.5,-112.5 3600.5,-131.5 3673.5,-131.5 3673.5,-112.5 3600.5,-112.5"/>
<text text-anchor="middle" x="3637" y="-119.5" font-family="Helvetica,sans-Serif" font-size="10.00">QTextCodec</text>
</g>
<!-- Node0&#45;&gt;Node221 -->
<g id="edge69" class="edge"><title>Node0&#45;&gt;Node221</title>
<path fill="none" stroke="midnightblue" d="M2397.26,-176.335C2588.73,-173.374 3333.71,-160.318 3590.22,-131.997"/>
<polygon fill="midnightblue" stroke="midnightblue" points="3590.7,-135.465 3600.24,-130.854 3589.91,-128.51 3590.7,-135.465"/>
</g>
<!-- Node222 -->
<g id="node50" class="node"><title>Node222</title>
<polygon fill="white" stroke="#bfbfbf" points="3691.5,-112.5 3691.5,-131.5 3768.5,-131.5 3768.5,-112.5 3691.5,-112.5"/>
<text text-anchor="middle" x="3730" y="-119.5" font-family="Helvetica,sans-Serif" font-size="10.00">qt/dash.moc</text>
</g>
<!-- Node0&#45;&gt;Node222 -->
<g id="edge70" class="edge"><title>Node0&#45;&gt;Node222</title>
<path fill="none" stroke="midnightblue" d="M2397.13,-176.417C2597.14,-173.69 3405.58,-161.125 3681.37,-131.983"/>
<polygon fill="midnightblue" stroke="midnightblue" points="3681.78,-135.459 3691.34,-130.895 3681.02,-128.5 3681.78,-135.459"/>
</g>
<!-- Node2 -->
<g id="node3" class="node"><title>Node2</title>
<g id="a_node3"><a xlink:href="amount_8h.html" target="_top" xlink:title="amount.h">
<polygon fill="white" stroke="black" points="1493.5,-56.5 1493.5,-75.5 1556.5,-75.5 1556.5,-56.5 1493.5,-56.5"/>
<text text-anchor="middle" x="1525" y="-63.5" font-family="Helvetica,sans-Serif" font-size="10.00">amount.h</text>
</a>
</g>
</g>
<!-- Node1&#45;&gt;Node2 -->
<g id="edge2" class="edge"><title>Node1&#45;&gt;Node2</title>
<path fill="none" stroke="midnightblue" d="M433.021,-119.706C616.035,-114.012 1340.41,-90.8594 1483.34,-75.698"/>
<polygon fill="midnightblue" stroke="midnightblue" points="1483.79,-79.1702 1493.31,-74.5297 1482.97,-72.2177 1483.79,-79.1702"/>
</g>
<!-- Node4 -->
<g id="node5" class="node"><title>Node4</title>
<polygon fill="white" stroke="#bfbfbf" points="1028,-56.5 1028,-75.5 1078,-75.5 1078,-56.5 1028,-56.5"/>
<text text-anchor="middle" x="1053" y="-63.5" font-family="Helvetica,sans-Serif" font-size="10.00">QLabel</text>
</g>
<!-- Node1&#45;&gt;Node4 -->
<g id="edge4" class="edge"><title>Node1&#45;&gt;Node4</title>
<path fill="none" stroke="midnightblue" d="M433.212,-120.693C533.311,-119.386 792.911,-112.593 1017.85,-75.8728"/>
<polygon fill="midnightblue" stroke="midnightblue" points="1018.57,-79.3021 1027.86,-74.2151 1017.43,-72.3962 1018.57,-79.3021"/>
</g>
<!-- Node5 -->
<g id="node6" class="node"><title>Node5</title>
<polygon fill="white" stroke="#bfbfbf" points="350,-56.5 350,-75.5 432,-75.5 432,-56.5 350,-56.5"/>
<text text-anchor="middle" x="391" y="-63.5" font-family="Helvetica,sans-Serif" font-size="10.00">QMainWindow</text>
</g>
<!-- Node1&#45;&gt;Node5 -->
<g id="edge5" class="edge"><title>Node1&#45;&gt;Node5</title>
<path fill="none" stroke="midnightblue" d="M391,-112.083C391,-105.006 391,-94.8611 391,-85.9865"/>
<polygon fill="midnightblue" stroke="midnightblue" points="394.5,-85.751 391,-75.7511 387.5,-85.7511 394.5,-85.751"/>
</g>
<!-- Node6 -->
<g id="node7" class="node"><title>Node6</title>
<polygon fill="white" stroke="#bfbfbf" points="450,-56.5 450,-75.5 494,-75.5 494,-56.5 450,-56.5"/>
<text text-anchor="middle" x="472" y="-63.5" font-family="Helvetica,sans-Serif" font-size="10.00">QMap</text>
</g>
<!-- Node1&#45;&gt;Node6 -->
<g id="edge6" class="edge"><title>Node1&#45;&gt;Node6</title>
<path fill="none" stroke="midnightblue" d="M404.014,-112.324C416.532,-103.979 435.682,-91.2122 450.471,-81.3524"/>
<polygon fill="midnightblue" stroke="midnightblue" points="452.639,-84.1137 459.018,-75.6545 448.756,-78.2894 452.639,-84.1137"/>
</g>
<!-- Node7 -->
<g id="node8" class="node"><title>Node7</title>
<polygon fill="white" stroke="#bfbfbf" points="0,-56.5 0,-75.5 50,-75.5 50,-56.5 0,-56.5"/>
<text text-anchor="middle" x="25" y="-63.5" font-family="Helvetica,sans-Serif" font-size="10.00">QMenu</text>
</g>
<!-- Node1&#45;&gt;Node7 -->
<g id="edge7" class="edge"><title>Node1&#45;&gt;Node7</title>
<path fill="none" stroke="midnightblue" d="M348.795,-116.975C287.318,-110.742 169.417,-97.3924 60.0473,-75.9942"/>
<polygon fill="midnightblue" stroke="midnightblue" points="60.6596,-72.5476 50.1697,-74.0348 59.2975,-79.4138 60.6596,-72.5476"/>
</g>
<!-- Node8 -->
<g id="node9" class="node"><title>Node8</title>
<polygon fill="white" stroke="#bfbfbf" points="68,-56.5 68,-75.5 116,-75.5 116,-56.5 68,-56.5"/>
<text text-anchor="middle" x="92" y="-63.5" font-family="Helvetica,sans-Serif" font-size="10.00">QPoint</text>
</g>
<!-- Node1&#45;&gt;Node8 -->
<g id="edge8" class="edge"><title>Node1&#45;&gt;Node8</title>
<path fill="none" stroke="midnightblue" d="M348.828,-115.179C298.17,-107.897 210.447,-94.3687 126.085,-76.0599"/>
<polygon fill="midnightblue" stroke="midnightblue" points="126.601,-72.5898 116.082,-73.8628 125.099,-79.4268 126.601,-72.5898"/>
</g>
<!-- Node9 -->
<g id="node10" class="node"><title>Node9</title>
<polygon fill="white" stroke="#bfbfbf" points="134,-56.5 134,-75.5 214,-75.5 214,-56.5 134,-56.5"/>
<text text-anchor="middle" x="174" y="-63.5" font-family="Helvetica,sans-Serif" font-size="10.00">QPushButton</text>
</g>
<!-- Node1&#45;&gt;Node9 -->
<g id="edge9" class="edge"><title>Node1&#45;&gt;Node9</title>
<path fill="none" stroke="midnightblue" d="M356.616,-112.444C319.078,-103.102 258.869,-88.1194 217.933,-77.9326"/>
<polygon fill="midnightblue" stroke="midnightblue" points="218.773,-74.5349 208.223,-75.5164 217.082,-81.3278 218.773,-74.5349"/>
</g>
<!-- Node10 -->
<g id="node11" class="node"><title>Node10</title>
<polygon fill="white" stroke="#bfbfbf" points="232.5,-56.5 232.5,-75.5 331.5,-75.5 331.5,-56.5 232.5,-56.5"/>
<text text-anchor="middle" x="282" y="-63.5" font-family="Helvetica,sans-Serif" font-size="10.00">QSystemTrayIcon</text>
</g>
<!-- Node1&#45;&gt;Node10 -->
<g id="edge10" class="edge"><title>Node1&#45;&gt;Node10</title>
<path fill="none" stroke="midnightblue" d="M373.487,-112.324C355.928,-103.625 328.669,-90.1202 308.469,-80.113"/>
<polygon fill="midnightblue" stroke="midnightblue" points="309.984,-76.9575 299.469,-75.6545 306.876,-83.23 309.984,-76.9575"/>
</g>
<!-- Node2&#45;&gt;Node3 -->
<g id="edge3" class="edge"><title>Node2&#45;&gt;Node3</title>
<path fill="none" stroke="midnightblue" d="M1547.34,-56.4435C1570.75,-47.4776 1607.74,-33.314 1634.19,-23.1827"/>
<polygon fill="midnightblue" stroke="midnightblue" points="1635.68,-26.3615 1643.76,-19.5164 1633.17,-19.8245 1635.68,-26.3615"/>
</g>
<!-- Node12 -->
<g id="node13" class="node"><title>Node12</title>
<g id="a_node13"><a xlink:href="chainparamsbase_8h.html" target="_top" xlink:title="chainparamsbase.h">
<polygon fill="white" stroke="red" points="550.5,-56.5 550.5,-75.5 661.5,-75.5 661.5,-56.5 550.5,-56.5"/>
<text text-anchor="middle" x="606" y="-63.5" font-family="Helvetica,sans-Serif" font-size="10.00">chainparamsbase.h</text>
</a>
</g>
</g>
<!-- Node11&#45;&gt;Node12 -->
<g id="edge12" class="edge"><title>Node11&#45;&gt;Node12</title>
<path fill="none" stroke="midnightblue" d="M742.331,-112.444C715.077,-103.359 671.816,-88.9388 641.349,-78.7831"/>
<polygon fill="midnightblue" stroke="midnightblue" points="642.143,-75.3584 631.549,-75.5164 639.929,-81.9992 642.143,-75.3584"/>
</g>
<!-- Node11&#45;&gt;Node13 -->
<g id="edge19" class="edge"><title>Node11&#45;&gt;Node13</title>
<path fill="none" stroke="midnightblue" d="M750.004,-112.324C726.799,-100.004 691.4,-76.6431 709,-56 739.642,-20.0606 881.24,-12.7034 950.976,-11.2818"/>
<polygon fill="midnightblue" stroke="midnightblue" points="951.185,-14.7788 961.123,-11.1067 951.064,-7.77981 951.185,-14.7788"/>
</g>
<!-- Node15 -->
<g id="node15" class="node"><title>Node15</title>
<polygon fill="white" stroke="#bfbfbf" points="540.5,-0.5 540.5,-19.5 587.5,-19.5 587.5,-0.5 540.5,-0.5"/>
<text text-anchor="middle" x="564" y="-7.5" font-family="Helvetica,sans-Serif" font-size="10.00">vector</text>
</g>
<!-- Node11&#45;&gt;Node15 -->
<g id="edge20" class="edge"><title>Node11&#45;&gt;Node15</title>
<path fill="none" stroke="midnightblue" d="M723.941,-118.709C664.574,-114.595 563.693,-103.633 541,-76 529.55,-62.0574 539.555,-42.0017 549.72,-27.8638"/>
<polygon fill="midnightblue" stroke="midnightblue" points="552.51,-29.9779 555.88,-19.9333 546.981,-25.6839 552.51,-29.9779"/>
</g>
<!-- Node16 -->
<g id="node16" class="node"><title>Node16</title>
<g id="a_node16"><a xlink:href="params_8h.html" target="_top" xlink:title="consensus/params.h">
<polygon fill="white" stroke="red" points="836,-56.5 836,-75.5 952,-75.5 952,-56.5 836,-56.5"/>
<text text-anchor="middle" x="894" y="-63.5" font-family="Helvetica,sans-Serif" font-size="10.00">consensus/params.h</text>
</a>
</g>
</g>
<!-- Node11&#45;&gt;Node16 -->
<g id="edge15" class="edge"><title>Node11&#45;&gt;Node16</title>
<path fill="none" stroke="midnightblue" d="M787.965,-112.444C808.609,-103.596 841.063,-89.6875 864.632,-79.5865"/>
<polygon fill="midnightblue" stroke="midnightblue" points="866.316,-82.6727 874.128,-75.5164 863.558,-76.2387 866.316,-82.6727"/>
</g>
<!-- Node26 -->
<g id="node17" class="node"><title>Node26</title>
<g id="a_node17"><a xlink:href="block_8h.html" target="_top" xlink:title="primitives/block.h">
<polygon fill="white" stroke="red" points="718,-56.5 718,-75.5 818,-75.5 818,-56.5 718,-56.5"/>
<text text-anchor="middle" x="768" y="-63.5" font-family="Helvetica,sans-Serif" font-size="10.00">primitives/block.h</text>
</a>
</g>
</g>
<!-- Node11&#45;&gt;Node26 -->
<g id="edge16" class="edge"><title>Node11&#45;&gt;Node26</title>
<path fill="none" stroke="midnightblue" d="M768,-112.083C768,-105.006 768,-94.8611 768,-85.9865"/>
<polygon fill="midnightblue" stroke="midnightblue" points="771.5,-85.751 768,-75.7511 764.5,-85.7511 771.5,-85.751"/>
</g>
<!-- Node59 -->
<g id="node18" class="node"><title>Node59</title>
<g id="a_node18"><a xlink:href="protocol_8h.html" target="_top" xlink:title="protocol.h">
<polygon fill="white" stroke="red" points="1281.5,-56.5 1281.5,-75.5 1346.5,-75.5 1346.5,-56.5 1281.5,-56.5"/>
<text text-anchor="middle" x="1314" y="-63.5" font-family="Helvetica,sans-Serif" font-size="10.00">protocol.h</text>
</a>
</g>
</g>
<!-- Node11&#45;&gt;Node59 -->
<g id="edge17" class="edge"><title>Node11&#45;&gt;Node59</title>
<path fill="none" stroke="midnightblue" d="M812.035,-118.88C898.267,-114.336 1095.56,-102.014 1271.12,-75.9501"/>
<polygon fill="midnightblue" stroke="midnightblue" points="1271.69,-79.4046 1281.05,-74.457 1270.65,-72.4824 1271.69,-79.4046"/>
</g>
<!-- Node12&#45;&gt;Node13 -->
<g id="edge13" class="edge"><title>Node12&#45;&gt;Node13</title>
<path fill="none" stroke="midnightblue" d="M661.837,-57.1479C740.781,-46.0465 882.998,-26.0471 951.312,-16.4405"/>
<polygon fill="midnightblue" stroke="midnightblue" points="951.815,-19.9044 961.23,-15.0458 950.84,-12.9726 951.815,-19.9044"/>
</g>
<!-- Node12&#45;&gt;Node15 -->
<g id="edge14" class="edge"><title>Node12&#45;&gt;Node15</title>
<path fill="none" stroke="midnightblue" d="M599.065,-56.083C593.071,-48.3768 584.248,-37.0333 576.952,-27.6531"/>
<polygon fill="midnightblue" stroke="midnightblue" points="579.709,-25.4958 570.806,-19.7511 574.183,-29.7934 579.709,-25.4958"/>
</g>
<!-- Node59&#45;&gt;Node3 -->
<g id="edge18" class="edge"><title>Node59&#45;&gt;Node3</title>
<path fill="none" stroke="midnightblue" d="M1346.8,-59.9683C1412.55,-49.8821 1560.06,-27.2528 1629.07,-16.6648"/>
<polygon fill="midnightblue" stroke="midnightblue" points="1629.71,-20.1087 1639.06,-15.1327 1628.65,-13.1896 1629.71,-20.1087"/>
</g>
<!-- Node64 -->
<g id="node20" class="node"><title>Node64</title>
<g id="a_node20"><a xlink:href="deterministicmns_8h.html" target="_top" xlink:title="evo/deterministicmns.h">
<polygon fill="white" stroke="red" points="1134.5,-56.5 1134.5,-75.5 1263.5,-75.5 1263.5,-56.5 1134.5,-56.5"/>
<text text-anchor="middle" x="1199" y="-63.5" font-family="Helvetica,sans-Serif" font-size="10.00">evo/deterministicmns.h</text>
</a>
</g>
</g>
<!-- Node63&#45;&gt;Node64 -->
<g id="edge22" class="edge"><title>Node63&#45;&gt;Node64</title>
<path fill="none" stroke="midnightblue" d="M1209.85,-112.083C1208.13,-104.927 1205.65,-94.6353 1203.5,-85.6911"/>
<polygon fill="midnightblue" stroke="midnightblue" points="1206.85,-84.6541 1201.11,-75.7511 1200.04,-86.2925 1206.85,-84.6541"/>
</g>
<!-- Node171&#45;&gt;Node2 -->
<g id="edge26" class="edge"><title>Node171&#45;&gt;Node2</title>
<path fill="none" stroke="midnightblue" d="M1438.55,-112.324C1454.99,-103.703 1480.43,-90.3643 1499.47,-80.3855"/>
<polygon fill="midnightblue" stroke="midnightblue" points="1501.26,-83.3977 1508.49,-75.6545 1498.01,-77.198 1501.26,-83.3977"/>
</g>
<!-- Node171&#45;&gt;Node4 -->
<g id="edge30" class="edge"><title>Node171&#45;&gt;Node4</title>
<path fill="none" stroke="midnightblue" d="M1388.28,-116.065C1318.72,-105.886 1159.92,-82.6468 1088.71,-72.2255"/>
<polygon fill="midnightblue" stroke="midnightblue" points="1088.86,-68.7103 1078.46,-70.7254 1087.84,-75.6366 1088.86,-68.7103"/>
</g>
<!-- Node171&#45;&gt;Node77 -->
<g id="edge27" class="edge"><title>Node171&#45;&gt;Node77</title>
<path fill="none" stroke="midnightblue" d="M1427.94,-112.083C1432.98,-104.534 1440.34,-93.4948 1446.51,-84.2298"/>
<polygon fill="midnightblue" stroke="midnightblue" points="1449.53,-86.0131 1452.17,-75.7511 1443.71,-82.1301 1449.53,-86.0131"/>
</g>
<!-- Node171&#45;&gt;Node170 -->
<g id="edge28" class="edge"><title>Node171&#45;&gt;Node170</title>
<path fill="none" stroke="midnightblue" d="M1454.17,-112.444C1489.06,-103.162 1544.89,-88.3093 1583.17,-78.127"/>
<polygon fill="midnightblue" stroke="midnightblue" points="1584.22,-81.4696 1592.98,-75.5164 1582.42,-74.7048 1584.22,-81.4696"/>
</g>
<!-- Node171&#45;&gt;Node174 -->
<g id="edge29" class="edge"><title>Node171&#45;&gt;Node174</title>
<path fill="none" stroke="midnightblue" d="M1455.77,-113.787C1458.89,-113.165 1462,-112.56 1465,-112 1558.84,-94.4755 1585.06,-92.5239 1683.37,-76.0879"/>
<polygon fill="midnightblue" stroke="midnightblue" points="1684.16,-79.5053 1693.44,-74.3967 1683,-72.6021 1684.16,-79.5053"/>
</g>
<!-- Node178&#45;&gt;Node181 -->
<g id="edge32" class="edge"><title>Node178&#45;&gt;Node181</title>
<path fill="none" stroke="midnightblue" d="M1940.2,-112.681C1974.35,-103.27 2030.07,-87.9206 2067.37,-77.644"/>
<polygon fill="midnightblue" stroke="midnightblue" points="2068.65,-80.9196 2077.37,-74.8891 2066.8,-74.171 2068.65,-80.9196"/>
</g>
<!-- Node182&#45;&gt;Node3 -->
<g id="edge37" class="edge"><title>Node182&#45;&gt;Node3</title>
<path fill="none" stroke="midnightblue" d="M1323.82,-112.41C1345.27,-98.4357 1390.21,-70.8529 1432,-56 1499.41,-32.0442 1582.52,-19.9195 1629.36,-14.5729"/>
<polygon fill="midnightblue" stroke="midnightblue" points="1629.79,-18.0472 1639.34,-13.4739 1629.02,-11.0892 1629.79,-18.0472"/>
</g>
<!-- Node182&#45;&gt;Node13 -->
<g id="edge38" class="edge"><title>Node182&#45;&gt;Node13</title>
<path fill="none" stroke="midnightblue" d="M1324.32,-112.29C1342.58,-99.3195 1371.34,-74.4771 1355,-56 1333.62,-31.817 1118.22,-17.7584 1028.7,-12.9205"/>
<polygon fill="midnightblue" stroke="midnightblue" points="1028.85,-9.42359 1018.68,-12.3891 1028.48,-16.4138 1028.85,-9.42359"/>
</g>
<!-- Node182&#45;&gt;Node16 -->
<g id="edge36" class="edge"><title>Node182&#45;&gt;Node16</title>
<path fill="none" stroke="midnightblue" d="M1290.07,-116.228C1283.08,-114.738 1275.23,-113.178 1268,-112 1135.59,-90.4237 1099.01,-93.0075 962.128,-76.1153"/>
<polygon fill="midnightblue" stroke="midnightblue" points="962.453,-72.6288 952.097,-74.8648 961.587,-79.575 962.453,-72.6288"/>
</g>
<!-- Node182&#45;&gt;Node59 -->
<g id="edge35" class="edge"><title>Node182&#45;&gt;Node59</title>
<path fill="none" stroke="midnightblue" d="M1311.5,-112.083C1311.89,-105.006 1312.45,-94.8611 1312.95,-85.9865"/>
<polygon fill="midnightblue" stroke="midnightblue" points="1316.45,-85.9299 1313.51,-75.7511 1309.46,-85.5415 1316.45,-85.9299"/>
</g>
<!-- Node182&#45;&gt;Node77 -->
<g id="edge34" class="edge"><title>Node182&#45;&gt;Node77</title>
<path fill="none" stroke="midnightblue" d="M1331.75,-113.378C1357.8,-103.807 1402.54,-87.3719 1431.17,-76.8553"/>
<polygon fill="midnightblue" stroke="midnightblue" points="1432.39,-80.1368 1440.57,-73.4032 1429.98,-73.5661 1432.39,-80.1368"/>
</g>
<!-- Node196&#45;&gt;Node2 -->
<g id="edge41" class="edge"><title>Node196&#45;&gt;Node2</title>
<path fill="none" stroke="midnightblue" d="M1525.83,-112.083C1525.7,-105.006 1525.52,-94.8611 1525.35,-85.9865"/>
<polygon fill="midnightblue" stroke="midnightblue" points="1528.85,-85.6845 1525.16,-75.7511 1521.85,-85.8142 1528.85,-85.6845"/>
</g>
<!-- Node202&#45;&gt;Node13 -->
<g id="edge46" class="edge"><title>Node202&#45;&gt;Node13</title>
<path fill="none" stroke="midnightblue" d="M990,-56.083C990,-49.0059 990,-38.8611 990,-29.9865"/>
<polygon fill="midnightblue" stroke="midnightblue" points="993.5,-29.751 990,-19.7511 986.5,-29.7511 993.5,-29.751"/>
</g>
<!-- Node203&#45;&gt;Node2 -->
<g id="edge48" class="edge"><title>Node203&#45;&gt;Node2</title>
<path fill="none" stroke="midnightblue" d="M1647.87,-112.444C1623.52,-103.438 1584.99,-89.1891 1557.58,-79.049"/>
<polygon fill="midnightblue" stroke="midnightblue" points="1558.62,-75.7028 1548.03,-75.5164 1556.19,-82.2681 1558.62,-75.7028"/>
</g>
<!-- Node203&#45;&gt;Node3 -->
<g id="edge49" class="edge"><title>Node203&#45;&gt;Node3</title>
<path fill="none" stroke="midnightblue" d="M1707.59,-115.129C1749.51,-106.739 1809.66,-88.6048 1787,-56 1768.15,-28.8726 1730.89,-18.0655 1702.67,-13.7782"/>
<polygon fill="midnightblue" stroke="midnightblue" points="1703.11,-10.3053 1692.74,-12.4756 1702.2,-17.2459 1703.11,-10.3053"/>
</g>
<!-- Node207&#45;&gt;Node3 -->
<g id="edge52" class="edge"><title>Node207&#45;&gt;Node3</title>
<path fill="none" stroke="midnightblue" d="M2250.47,-61.4985C2136.2,-51.6257 1812.62,-23.6684 1702.91,-14.189"/>
<polygon fill="midnightblue" stroke="midnightblue" points="1702.94,-10.6788 1692.68,-13.3049 1702.34,-17.6528 1702.94,-10.6788"/>
</g>
</g>
</svg>
        <g id="navigator" transform="translate(0 0)" fill="#404254">
                <rect fill="#f2f5e9" fill-opacity="0.5" stroke="#606060" stroke-width=".5" x="0" y="0" width="60" height="60"/>
                <use id="zoomplus" xlink:href="#zoomPlus" x="17" y="9" onmousedown="handleZoom(evt,'in')"/>
                <use id="zoomminus" xlink:href="#zoomMin" x="42" y="9" onmousedown="handleZoom(evt,'out')"/>
                <use id="reset" xlink:href="#resetDef" x="30" y="36" onmousedown="handleReset()"/>
                <g id="arrowUp" xlink:href="#dirArrow" transform="translate(30 24)" onmousedown="handlePan(0,-1)">
                  <use xlink:href="#rim" fill="#404040">
                        <set attributeName="fill" to="#808080" begin="arrowUp.mouseover" end="arrowUp.mouseout"/>
                  </use>
                  <path fill="none" stroke="white" stroke-width="1.5" d="M0,-3.0v7 M-2.5,-0.5L0,-3.0L2.5,-0.5"/>
                </g>
                <g id="arrowRight" xlink:href="#dirArrow" transform="rotate(90) translate(36 -43)" onmousedown="handlePan(1,0)">
                  <use xlink:href="#rim" fill="#404040">
                        <set attributeName="fill" to="#808080" begin="arrowRight.mouseover" end="arrowRight.mouseout"/>
                  </use>
                  <path fill="none" stroke="white" stroke-width="1.5" d="M0,-3.0v7 M-2.5,-0.5L0,-3.0L2.5,-0.5"/>
                </g>
                <g id="arrowDown" xlink:href="#dirArrow" transform="rotate(180) translate(-30 -48)" onmousedown="handlePan(0,1)">
                  <use xlink:href="#rim" fill="#404040">
                        <set attributeName="fill" to="#808080" begin="arrowDown.mouseover" end="arrowDown.mouseout"/>
                  </use>
                  <path fill="none" stroke="white" stroke-width="1.5" d="M0,-3.0v7 M-2.5,-0.5L0,-3.0L2.5,-0.5"/>
                </g>
                <g id="arrowLeft" xlink:href="#dirArrow" transform="rotate(270) translate(-36 17)" onmousedown="handlePan(-1,0)">
                  <use xlink:href="#rim" fill="#404040">
                        <set attributeName="fill" to="#808080" begin="arrowLeft.mouseover" end="arrowLeft.mouseout"/>
                  </use>
                  <path fill="none" stroke="white" stroke-width="1.5" d="M0,-3.0v7 M-2.5,-0.5L0,-3.0L2.5,-0.5"/>
                </g>
        </g>
        <svg viewBox="0 0 15 15" width="100%" height="30px" preserveAspectRatio="xMaxYMin meet">
         <g id="arrow_out" transform="scale(0.3 0.3)">
          <a xlink:href="dash_8cpp__incl_org.svg" target="_base">
           <rect id="button" ry="5" rx="5" y="6" x="6" height="38" width="38"
                fill="#f2f5e9" fill-opacity="0.5" stroke="#606060" stroke-width="1.0"/>
           <path id="arrow"
             d="M 11.500037,31.436501 C 11.940474,20.09759 22.043105,11.32322 32.158766,21.979434 L 37.068811,17.246167 C 37.068811,17.246167 37.088388,32 37.088388,32 L 22.160133,31.978069 C 22.160133,31.978069 26.997745,27.140456 26.997745,27.140456 C 18.528582,18.264221 13.291696,25.230495 11.500037,31.436501 z"
             style="fill:#404040;"/>
          </a>
         </g>
        </svg>
</svg>
