<?xml version="1.0" encoding="UTF-8" standalone="no"?>
<!DOCTYPE svg PUBLIC "-//W3C//DTD SVG 1.1//EN"
 "http://www.w3.org/Graphics/SVG/1.1/DTD/svg11.dtd">
<!-- Generated by graphviz version 2.38.0 (20140413.2041)
 -->
<!-- Title: CommandLineRawTx Pages: 1 -->
<svg width="879pt" height="1209pt"
 viewBox="0.00 0.00 879.00 1209.27" xmlns="http://www.w3.org/2000/svg" xmlns:xlink="http://www.w3.org/1999/xlink">
<g id="graph0" class="graph" transform="scale(1 1) rotate(0) translate(4 1205.27)">
<title>CommandLineRawTx</title>
<polygon fill="white" stroke="none" points="-4,4 -4,-1205.27 875,-1205.27 875,4 -4,4"/>
<!-- Node20 -->
<g id="node1" class="node"><title>Node20</title>
<polygon fill="#bfbfbf" stroke="black" points="0,-247.5 0,-266.5 111,-266.5 111,-247.5 0,-247.5"/>
<text text-anchor="middle" x="55.5" y="-254.5" font-family="Helvetica,sans-Serif" font-size="10.00">CommandLineRawTx</text>
</g>
<!-- Node21 -->
<g id="node2" class="node"><title>Node21</title>
<g id="a_node2"><a xlink:href="core__io_8h.html#adf3a8ae53f4e0af5832ce21fc581db0e" target="_top" xlink:title="DecodeHexTx">
<polygon fill="white" stroke="black" points="496,-1082.5 496,-1101.5 576,-1101.5 576,-1082.5 496,-1082.5"/>
<text text-anchor="middle" x="536" y="-1089.5" font-family="Helvetica,sans-Serif" font-size="10.00">DecodeHexTx</text>
</a>
</g>
</g>
<!-- Node20&#45;&gt;Node21 -->
<g id="edge1" class="edge"><title>Node20&#45;&gt;Node21</title>
<path fill="none" stroke="midnightblue" d="M56.5449,-266.833C57.4158,-338.613 72.1512,-785.583 302,-1016 351.3,-1065.42 433.106,-1082.71 485.506,-1088.76"/>
<polygon fill="midnightblue" stroke="midnightblue" points="485.263,-1092.25 495.576,-1089.82 486,-1085.29 485.263,-1092.25"/>
</g>
<!-- Node25 -->
<g id="node6" class="node"><title>Node25</title>
<g id="a_node6"><a xlink:href="util_8h.html#ac0165e18ce3be89a2e0731e27d54b478" target="_top" xlink:title="IsSwitchChar">
<polygon fill="white" stroke="black" points="168.5,-380.5 168.5,-399.5 244.5,-399.5 244.5,-380.5 168.5,-380.5"/>
<text text-anchor="middle" x="206.5" y="-387.5" font-family="Helvetica,sans-Serif" font-size="10.00">IsSwitchChar</text>
</a>
</g>
</g>
<!-- Node20&#45;&gt;Node25 -->
<g id="edge6" class="edge"><title>Node20&#45;&gt;Node25</title>
<path fill="none" stroke="midnightblue" d="M61.4596,-266.513C73.2823,-288.275 105.279,-342.031 147,-371 150.702,-373.57 154.773,-375.81 158.991,-377.757"/>
<polygon fill="midnightblue" stroke="midnightblue" points="157.792,-381.048 168.374,-381.57 160.427,-374.562 157.792,-381.048"/>
</g>
<!-- Node26 -->
<g id="node7" class="node"><title>Node26</title>
<g id="a_node7"><a xlink:href="dash-tx_8cpp.html#ab7ebe37e92de4ef2ff4c3b547b1495c3" target="_top" xlink:title="MutateTx">
<polygon fill="white" stroke="black" points="177.5,-342.5 177.5,-361.5 235.5,-361.5 235.5,-342.5 177.5,-342.5"/>
<text text-anchor="middle" x="206.5" y="-349.5" font-family="Helvetica,sans-Serif" font-size="10.00">MutateTx</text>
</a>
</g>
</g>
<!-- Node20&#45;&gt;Node26 -->
<g id="edge7" class="edge"><title>Node20&#45;&gt;Node26</title>
<path fill="none" stroke="midnightblue" d="M71.6069,-266.632C97.5992,-283.204 150.962,-317.228 181.896,-336.951"/>
<polygon fill="midnightblue" stroke="midnightblue" points="180.04,-339.918 190.353,-342.343 183.803,-334.015 180.04,-339.918"/>
</g>
<!-- Node228 -->
<g id="node43" class="node"><title>Node228</title>
<g id="a_node43"><a xlink:href="dash-tx_8cpp.html#afa9b1d8da4bf251e16a424daa3408335" target="_top" xlink:title="OutputTx">
<polygon fill="white" stroke="black" points="178,-133.5 178,-152.5 235,-152.5 235,-133.5 178,-133.5"/>
<text text-anchor="middle" x="206.5" y="-140.5" font-family="Helvetica,sans-Serif" font-size="10.00">OutputTx</text>
</a>
</g>
</g>
<!-- Node20&#45;&gt;Node228 -->
<g id="edge57" class="edge"><title>Node20&#45;&gt;Node228</title>
<path fill="none" stroke="midnightblue" d="M68.9474,-247.477C94.5202,-227.911 153.205,-183.011 184.67,-158.937"/>
<polygon fill="midnightblue" stroke="midnightblue" points="186.957,-161.594 192.772,-152.738 182.703,-156.035 186.957,-161.594"/>
</g>
<!-- Node253 -->
<g id="node48" class="node"><title>Node253</title>
<g id="a_node48"><a xlink:href="util_8cpp.html#aaada8c5faa502eb0c33fc01294955db8" target="_top" xlink:title="PrintExceptionContinue">
<polygon fill="white" stroke="black" points="147,-95.5 147,-114.5 266,-114.5 266,-95.5 147,-95.5"/>
<text text-anchor="middle" x="206.5" y="-102.5" font-family="Helvetica,sans-Serif" font-size="10.00">PrintExceptionContinue</text>
</a>
</g>
</g>
<!-- Node20&#45;&gt;Node253 -->
<g id="edge62" class="edge"><title>Node20&#45;&gt;Node253</title>
<path fill="none" stroke="midnightblue" d="M60.3914,-247.359C70.7194,-222.977 101.203,-158.36 147,-124 149.482,-122.138 152.155,-120.453 154.943,-118.93"/>
<polygon fill="midnightblue" stroke="midnightblue" points="156.591,-122.023 164.147,-114.596 153.608,-115.69 156.591,-122.023"/>
</g>
<!-- Node255 -->
<g id="node50" class="node"><title>Node255</title>
<g id="a_node50"><a xlink:href="dash-tx_8cpp.html#a3313aa342f7dfcab2383317d84373e65" target="_top" xlink:title="readStdin">
<polygon fill="white" stroke="black" points="177.5,-57.5 177.5,-76.5 235.5,-76.5 235.5,-57.5 177.5,-57.5"/>
<text text-anchor="middle" x="206.5" y="-64.5" font-family="Helvetica,sans-Serif" font-size="10.00">readStdin</text>
</a>
</g>
</g>
<!-- Node20&#45;&gt;Node255 -->
<g id="edge64" class="edge"><title>Node20&#45;&gt;Node255</title>
<path fill="none" stroke="midnightblue" d="M58.8772,-247.234C66.4477,-218.2 92.7498,-131.605 147,-86 152.968,-80.9833 160.289,-77.2828 167.708,-74.5556"/>
<polygon fill="midnightblue" stroke="midnightblue" points="168.921,-77.843 177.409,-71.5024 166.82,-71.1658 168.921,-77.843"/>
</g>
<!-- Node22 -->
<g id="node3" class="node"><title>Node22</title>
<g id="a_node3"><a xlink:href="utilstrencodings_8cpp.html#aa4e3553d2b2fe693c106f4296685f75c" target="_top" xlink:title="IsHex">
<polygon fill="white" stroke="black" points="695.5,-968.5 695.5,-987.5 738.5,-987.5 738.5,-968.5 695.5,-968.5"/>
<text text-anchor="middle" x="717" y="-975.5" font-family="Helvetica,sans-Serif" font-size="10.00">IsHex</text>
</a>
</g>
</g>
<!-- Node21&#45;&gt;Node22 -->
<g id="edge2" class="edge"><title>Node21&#45;&gt;Node22</title>
<path fill="none" stroke="midnightblue" d="M551.696,-1082.28C573.789,-1067.7 616.924,-1039.4 654,-1016 666.3,-1008.24 680.085,-999.766 691.528,-992.796"/>
<polygon fill="midnightblue" stroke="midnightblue" points="693.401,-995.754 700.13,-987.57 689.766,-989.771 693.401,-995.754"/>
</g>
<!-- Node24 -->
<g id="node5" class="node"><title>Node24</title>
<g id="a_node5"><a xlink:href="utilstrencodings_8cpp.html#abea395175fbc4a788ed0f0a41710b8a7" target="_top" xlink:title="ParseHex">
<polygon fill="white" stroke="black" points="687,-1025.5 687,-1044.5 747,-1044.5 747,-1025.5 687,-1025.5"/>
<text text-anchor="middle" x="717" y="-1032.5" font-family="Helvetica,sans-Serif" font-size="10.00">ParseHex</text>
</a>
</g>
</g>
<!-- Node21&#45;&gt;Node24 -->
<g id="edge4" class="edge"><title>Node21&#45;&gt;Node24</title>
<path fill="none" stroke="midnightblue" d="M570.188,-1082.47C584.877,-1078.17 602.338,-1072.96 618,-1068 638.219,-1061.6 660.644,-1054.08 678.935,-1047.84"/>
<polygon fill="midnightblue" stroke="midnightblue" points="680.305,-1051.07 688.631,-1044.52 678.036,-1044.45 680.305,-1051.07"/>
</g>
<!-- Node23 -->
<g id="node4" class="node"><title>Node23</title>
<g id="a_node4"><a xlink:href="utilstrencodings_8cpp.html#aa59e8a8c5a39cb5041f93bb95dd02119" target="_top" xlink:title="HexDigit">
<polygon fill="white" stroke="black" points="816,-996.5 816,-1015.5 871,-1015.5 871,-996.5 816,-996.5"/>
<text text-anchor="middle" x="843.5" y="-1003.5" font-family="Helvetica,sans-Serif" font-size="10.00">HexDigit</text>
</a>
</g>
</g>
<!-- Node22&#45;&gt;Node23 -->
<g id="edge3" class="edge"><title>Node22&#45;&gt;Node23</title>
<path fill="none" stroke="midnightblue" d="M738.559,-982.624C756.803,-986.727 783.891,-992.819 805.839,-997.755"/>
<polygon fill="midnightblue" stroke="midnightblue" points="805.301,-1001.22 815.825,-1000 806.837,-994.392 805.301,-1001.22"/>
</g>
<!-- Node24&#45;&gt;Node23 -->
<g id="edge5" class="edge"><title>Node24&#45;&gt;Node23</title>
<path fill="none" stroke="midnightblue" d="M747.19,-1028.2C764.655,-1024.13 787.011,-1018.93 805.681,-1014.58"/>
<polygon fill="midnightblue" stroke="midnightblue" points="806.674,-1017.94 815.619,-1012.26 805.086,-1011.12 806.674,-1017.94"/>
</g>
<!-- Node27 -->
<g id="node8" class="node"><title>Node27</title>
<g id="a_node8"><a xlink:href="dash-tx_8cpp.html#a68013967fade46cf0fb36f4a9dbf88a3" target="_top" xlink:title="MutateTxVersion">
<polygon fill="white" stroke="black" points="314.5,-228.5 314.5,-247.5 405.5,-247.5 405.5,-228.5 314.5,-228.5"/>
<text text-anchor="middle" x="360" y="-235.5" font-family="Helvetica,sans-Serif" font-size="10.00">MutateTxVersion</text>
</a>
</g>
</g>
<!-- Node26&#45;&gt;Node27 -->
<g id="edge8" class="edge"><title>Node26&#45;&gt;Node27</title>
<path fill="none" stroke="midnightblue" d="M214.472,-342.46C228.795,-323.51 263.443,-280.9 302,-257 305.346,-254.926 308.943,-253.051 312.646,-251.361"/>
<polygon fill="midnightblue" stroke="midnightblue" points="314.058,-254.565 321.983,-247.533 311.403,-248.088 314.058,-254.565"/>
</g>
<!-- Node29 -->
<g id="node10" class="node"><title>Node29</title>
<g id="a_node10"><a xlink:href="dash-tx_8cpp.html#ac6ccb558dabe8d77860d895ed9c1531c" target="_top" xlink:title="MutateTxLocktime">
<polygon fill="white" stroke="black" points="311,-190.5 311,-209.5 409,-209.5 409,-190.5 311,-190.5"/>
<text text-anchor="middle" x="360" y="-197.5" font-family="Helvetica,sans-Serif" font-size="10.00">MutateTxLocktime</text>
</a>
</g>
</g>
<!-- Node26&#45;&gt;Node29 -->
<g id="edge10" class="edge"><title>Node26&#45;&gt;Node29</title>
<path fill="none" stroke="midnightblue" d="M211.701,-342.382C222.809,-318.055 255.335,-253.556 302,-219 304.518,-217.136 307.229,-215.447 310.054,-213.919"/>
<polygon fill="midnightblue" stroke="midnightblue" points="311.789,-216.972 319.365,-209.566 308.824,-210.631 311.789,-216.972"/>
</g>
<!-- Node30 -->
<g id="node11" class="node"><title>Node30</title>
<g id="a_node11"><a xlink:href="dash-tx_8cpp.html#ab2bda3d7f26af75190e0b1b817f0c556" target="_top" xlink:title="MutateTxDelInput">
<polygon fill="white" stroke="black" points="312.5,-304.5 312.5,-323.5 407.5,-323.5 407.5,-304.5 312.5,-304.5"/>
<text text-anchor="middle" x="360" y="-311.5" font-family="Helvetica,sans-Serif" font-size="10.00">MutateTxDelInput</text>
</a>
</g>
</g>
<!-- Node26&#45;&gt;Node30 -->
<g id="edge12" class="edge"><title>Node26&#45;&gt;Node30</title>
<path fill="none" stroke="midnightblue" d="M235.641,-344.942C256.775,-339.641 286.223,-332.254 311.047,-326.028"/>
<polygon fill="midnightblue" stroke="midnightblue" points="312.163,-329.356 321.011,-323.529 310.46,-322.567 312.163,-329.356"/>
</g>
<!-- Node32 -->
<g id="node13" class="node"><title>Node32</title>
<g id="a_node13"><a xlink:href="dash-tx_8cpp.html#a54211e2ff2d8fcc5b0c3c1b439d392a4" target="_top" xlink:title="MutateTxAddInput">
<polygon fill="white" stroke="black" points="311.5,-266.5 311.5,-285.5 408.5,-285.5 408.5,-266.5 311.5,-266.5"/>
<text text-anchor="middle" x="360" y="-273.5" font-family="Helvetica,sans-Serif" font-size="10.00">MutateTxAddInput</text>
</a>
</g>
</g>
<!-- Node26&#45;&gt;Node32 -->
<g id="edge15" class="edge"><title>Node26&#45;&gt;Node32</title>
<path fill="none" stroke="midnightblue" d="M221.368,-342.289C239.327,-330.035 271.902,-308.885 302,-295 306.675,-292.843 311.667,-290.812 316.678,-288.937"/>
<polygon fill="midnightblue" stroke="midnightblue" points="318.01,-292.179 326.264,-285.535 315.669,-285.582 318.01,-292.179"/>
</g>
<!-- Node36 -->
<g id="node16" class="node"><title>Node36</title>
<g id="a_node16"><a xlink:href="dash-tx_8cpp.html#ae36a9e3dbb97338e50688398a51132c9" target="_top" xlink:title="MutateTxDelOutput">
<polygon fill="white" stroke="black" points="309,-342.5 309,-361.5 411,-361.5 411,-342.5 309,-342.5"/>
<text text-anchor="middle" x="360" y="-349.5" font-family="Helvetica,sans-Serif" font-size="10.00">MutateTxDelOutput</text>
</a>
</g>
</g>
<!-- Node26&#45;&gt;Node36 -->
<g id="edge20" class="edge"><title>Node26&#45;&gt;Node36</title>
<path fill="none" stroke="midnightblue" d="M235.641,-352C253.37,-352 276.951,-352 298.744,-352"/>
<polygon fill="midnightblue" stroke="midnightblue" points="298.934,-355.5 308.934,-352 298.934,-348.5 298.934,-355.5"/>
</g>
<!-- Node37 -->
<g id="node17" class="node"><title>Node37</title>
<g id="a_node17"><a xlink:href="dash-tx_8cpp.html#af42e5437bd7f7d997f4bd789186684ce" target="_top" xlink:title="MutateTxAddOutAddr">
<polygon fill="white" stroke="black" points="304.5,-1120.5 304.5,-1139.5 415.5,-1139.5 415.5,-1120.5 304.5,-1120.5"/>
<text text-anchor="middle" x="360" y="-1127.5" font-family="Helvetica,sans-Serif" font-size="10.00">MutateTxAddOutAddr</text>
</a>
</g>
</g>
<!-- Node26&#45;&gt;Node37 -->
<g id="edge22" class="edge"><title>Node26&#45;&gt;Node37</title>
<path fill="none" stroke="midnightblue" d="M235.582,-354.343C246.809,-356.79 258.768,-361.609 266,-371 309.796,-427.869 283.568,-946.629 302,-1016 311.603,-1052.14 333.366,-1090.24 347.05,-1111.97"/>
<polygon fill="midnightblue" stroke="midnightblue" points="344.173,-1113.97 352.529,-1120.48 350.059,-1110.18 344.173,-1113.97"/>
</g>
<!-- Node45 -->
<g id="node22" class="node"><title>Node45</title>
<g id="a_node22"><a xlink:href="dash-tx_8cpp.html#a56b7a8d2a5591d6d35b6a2a962109a6d" target="_top" xlink:title="MutateTxAddOutData">
<polygon fill="white" stroke="black" points="304,-987.5 304,-1006.5 416,-1006.5 416,-987.5 304,-987.5"/>
<text text-anchor="middle" x="360" y="-994.5" font-family="Helvetica,sans-Serif" font-size="10.00">MutateTxAddOutData</text>
</a>
</g>
</g>
<!-- Node26&#45;&gt;Node45 -->
<g id="edge28" class="edge"><title>Node26&#45;&gt;Node45</title>
<path fill="none" stroke="midnightblue" d="M235.558,-354.362C246.78,-356.812 258.742,-361.629 266,-371 346.156,-474.503 236.729,-845.521 302,-959 307.617,-968.766 316.882,-976.507 326.325,-982.386"/>
<polygon fill="midnightblue" stroke="midnightblue" points="324.891,-985.595 335.321,-987.456 328.328,-979.497 324.891,-985.595"/>
</g>
<!-- Node46 -->
<g id="node23" class="node"><title>Node46</title>
<g id="a_node23"><a xlink:href="dash-tx_8cpp.html#a2cc4d56e385bafe0e2b4b8f2e1e995b0" target="_top" xlink:title="MutateTxAddOutScript">
<polygon fill="white" stroke="black" points="302,-930.5 302,-949.5 418,-949.5 418,-930.5 302,-930.5"/>
<text text-anchor="middle" x="360" y="-937.5" font-family="Helvetica,sans-Serif" font-size="10.00">MutateTxAddOutScript</text>
</a>
</g>
</g>
<!-- Node26&#45;&gt;Node46 -->
<g id="edge32" class="edge"><title>Node26&#45;&gt;Node46</title>
<path fill="none" stroke="midnightblue" d="M235.788,-354.801C246.773,-357.341 258.492,-362.105 266,-371 301.636,-413.22 293.198,-562.457 302,-617 320.596,-732.24 345.96,-870.035 355.328,-920.368"/>
<polygon fill="midnightblue" stroke="midnightblue" points="351.895,-921.051 357.17,-930.24 358.777,-919.768 351.895,-921.051"/>
</g>
<!-- Node59 -->
<g id="node25" class="node"><title>Node59</title>
<g id="a_node25"><a xlink:href="dash-tx_8cpp.html#a4530b9267f4e55a4dd36f329d42e9545" target="_top" xlink:title="MutateTxSign">
<polygon fill="white" stroke="red" points="321.5,-588.5 321.5,-607.5 398.5,-607.5 398.5,-588.5 321.5,-588.5"/>
<text text-anchor="middle" x="360" y="-595.5" font-family="Helvetica,sans-Serif" font-size="10.00">MutateTxSign</text>
</a>
</g>
</g>
<!-- Node26&#45;&gt;Node59 -->
<g id="edge38" class="edge"><title>Node26&#45;&gt;Node59</title>
<path fill="none" stroke="midnightblue" d="M235.671,-355.995C246.247,-358.72 257.702,-363.301 266,-371 274.16,-378.571 331.033,-525.212 351.6,-578.693"/>
<polygon fill="midnightblue" stroke="midnightblue" points="348.453,-580.264 355.306,-588.344 354.988,-577.754 348.453,-580.264"/>
</g>
<!-- Node212 -->
<g id="node41" class="node"><title>Node212</title>
<g id="a_node41"><a xlink:href="dash-tx_8cpp.html#afa6156b7dd460f3a4563a7ac349bc24c" target="_top" xlink:title="RegisterLoad">
<polygon fill="white" stroke="red" points="323,-418.5 323,-437.5 397,-437.5 397,-418.5 323,-418.5"/>
<text text-anchor="middle" x="360" y="-425.5" font-family="Helvetica,sans-Serif" font-size="10.00">RegisterLoad</text>
</a>
</g>
</g>
<!-- Node26&#45;&gt;Node212 -->
<g id="edge55" class="edge"><title>Node26&#45;&gt;Node212</title>
<path fill="none" stroke="midnightblue" d="M235.541,-358.041C245.633,-360.987 256.79,-365.185 266,-371 285.671,-383.421 282.377,-396.503 302,-409 305.563,-411.269 309.426,-413.296 313.404,-415.1"/>
<polygon fill="midnightblue" stroke="midnightblue" points="312.226,-418.4 322.808,-418.916 314.857,-411.913 312.226,-418.4"/>
</g>
<!-- Node227 -->
<g id="node42" class="node"><title>Node227</title>
<g id="a_node42"><a xlink:href="dash-tx_8cpp.html#a49f74fa4e0a49edded1509f1b1a918ba" target="_top" xlink:title="RegisterSet">
<polygon fill="white" stroke="red" points="326,-380.5 326,-399.5 394,-399.5 394,-380.5 326,-380.5"/>
<text text-anchor="middle" x="360" y="-387.5" font-family="Helvetica,sans-Serif" font-size="10.00">RegisterSet</text>
</a>
</g>
</g>
<!-- Node26&#45;&gt;Node227 -->
<g id="edge56" class="edge"><title>Node26&#45;&gt;Node227</title>
<path fill="none" stroke="midnightblue" d="M235.641,-359.058C258.228,-364.724 290.314,-372.772 316.1,-379.24"/>
<polygon fill="midnightblue" stroke="midnightblue" points="315.448,-382.684 325.999,-381.723 317.151,-375.895 315.448,-382.684"/>
</g>
<!-- Node28 -->
<g id="node9" class="node"><title>Node28</title>
<g id="a_node9"><a xlink:href="utilstrencodings_8cpp.html#a22916d155600c742c4efad727462588e" target="_top" xlink:title="atoi64">
<polygon fill="white" stroke="black" points="695.5,-152.5 695.5,-171.5 738.5,-171.5 738.5,-152.5 695.5,-152.5"/>
<text text-anchor="middle" x="717" y="-159.5" font-family="Helvetica,sans-Serif" font-size="10.00">atoi64</text>
</a>
</g>
</g>
<!-- Node27&#45;&gt;Node28 -->
<g id="edge9" class="edge"><title>Node27&#45;&gt;Node28</title>
<path fill="none" stroke="midnightblue" d="M398.392,-228.474C405.191,-225.937 412.017,-222.81 418,-219 437.623,-206.503 432.975,-190.96 454,-181 530.763,-144.635 634.512,-151.128 685.347,-157.365"/>
<polygon fill="midnightblue" stroke="midnightblue" points="684.993,-160.848 695.363,-158.676 685.902,-153.907 684.993,-160.848"/>
</g>
<!-- Node29&#45;&gt;Node28 -->
<g id="edge11" class="edge"><title>Node29&#45;&gt;Node28</title>
<path fill="none" stroke="midnightblue" d="M397.278,-190.458C404.39,-187.89 411.617,-184.756 418,-181 436.707,-169.993 433.771,-155.869 454,-148 532.87,-117.321 635.253,-138.544 685.482,-152.494"/>
<polygon fill="midnightblue" stroke="midnightblue" points="684.804,-155.941 695.382,-155.339 686.738,-149.213 684.804,-155.941"/>
</g>
<!-- Node31 -->
<g id="node12" class="node"><title>Node31</title>
<g id="a_node12"><a xlink:href="utilstrencodings_8cpp.html#aa5ce96ec36f4413f820cec9c1831c070" target="_top" xlink:title="atoi">
<polygon fill="white" stroke="black" points="520,-304.5 520,-323.5 552,-323.5 552,-304.5 520,-304.5"/>
<text text-anchor="middle" x="536" y="-311.5" font-family="Helvetica,sans-Serif" font-size="10.00">atoi</text>
</a>
</g>
</g>
<!-- Node30&#45;&gt;Node31 -->
<g id="edge13" class="edge"><title>Node30&#45;&gt;Node31</title>
<path fill="none" stroke="midnightblue" d="M407.629,-314C440.365,-314 482.9,-314 509.58,-314"/>
<polygon fill="midnightblue" stroke="midnightblue" points="509.637,-317.5 519.637,-314 509.637,-310.5 509.637,-317.5"/>
</g>
<!-- Node31&#45;&gt;Node31 -->
<g id="edge14" class="edge"><title>Node31&#45;&gt;Node31</title>
<path fill="none" stroke="midnightblue" d="M519.679,-318.547C492.919,-328.339 498.359,-342 536,-342 568.347,-342 576.914,-331.911 561.7,-322.859"/>
<polygon fill="midnightblue" stroke="midnightblue" points="562.869,-319.544 552.321,-318.547 559.945,-325.904 562.869,-319.544"/>
</g>
<!-- Node32&#45;&gt;Node22 -->
<g id="edge16" class="edge"><title>Node32&#45;&gt;Node22</title>
<path fill="none" stroke="midnightblue" d="M408.545,-272.721C474.425,-269.278 588.689,-267.637 618,-295 717.703,-388.077 717.572,-856.013 716.326,-958.249"/>
<polygon fill="midnightblue" stroke="midnightblue" points="712.825,-958.349 716.183,-968.398 719.824,-958.448 712.825,-958.349"/>
</g>
<!-- Node32&#45;&gt;Node31 -->
<g id="edge19" class="edge"><title>Node32&#45;&gt;Node31</title>
<path fill="none" stroke="midnightblue" d="M404.908,-285.589C438.148,-292.848 482.616,-302.56 510.009,-308.542"/>
<polygon fill="midnightblue" stroke="midnightblue" points="509.432,-311.999 519.948,-310.713 510.925,-305.16 509.432,-311.999"/>
</g>
<!-- Node33 -->
<g id="node14" class="node"><title>Node33</title>
<g id="a_node14"><a xlink:href="uint256_8h.html#a52e679560cc1ebf68f878ed69e38f259" target="_top" xlink:title="uint256S">
<polygon fill="white" stroke="red" points="508.5,-190.5 508.5,-209.5 563.5,-209.5 563.5,-190.5 508.5,-190.5"/>
<text text-anchor="middle" x="536" y="-197.5" font-family="Helvetica,sans-Serif" font-size="10.00">uint256S</text>
</a>
</g>
</g>
<!-- Node32&#45;&gt;Node33 -->
<g id="edge17" class="edge"><title>Node32&#45;&gt;Node33</title>
<path fill="none" stroke="midnightblue" d="M398.392,-266.474C405.191,-263.937 412.017,-260.81 418,-257 437.623,-244.503 433.827,-230.588 454,-219 467.404,-211.3 483.758,-206.717 498.252,-203.991"/>
<polygon fill="midnightblue" stroke="midnightblue" points="499.111,-207.397 508.408,-202.317 497.972,-200.49 499.111,-207.397"/>
</g>
<!-- Node35 -->
<g id="node15" class="node"><title>Node35</title>
<g id="a_node15"><a xlink:href="consensus_8h.html#aa372df0d6494f4aaca5ecf5a5a9d4406" target="_top" xlink:title="MaxBlockSize">
<polygon fill="white" stroke="black" points="496,-228.5 496,-247.5 576,-247.5 576,-228.5 496,-228.5"/>
<text text-anchor="middle" x="536" y="-235.5" font-family="Helvetica,sans-Serif" font-size="10.00">MaxBlockSize</text>
</a>
</g>
</g>
<!-- Node32&#45;&gt;Node35 -->
<g id="edge18" class="edge"><title>Node32&#45;&gt;Node35</title>
<path fill="none" stroke="midnightblue" d="M404.908,-266.411C429.616,-261.015 460.527,-254.264 486.019,-248.697"/>
<polygon fill="midnightblue" stroke="midnightblue" points="486.833,-252.102 495.856,-246.549 485.34,-245.263 486.833,-252.102"/>
</g>
<!-- Node36&#45;&gt;Node31 -->
<g id="edge21" class="edge"><title>Node36&#45;&gt;Node31</title>
<path fill="none" stroke="midnightblue" d="M404.908,-342.411C438.148,-335.152 482.616,-325.44 510.009,-319.458"/>
<polygon fill="midnightblue" stroke="midnightblue" points="510.925,-322.84 519.948,-317.287 509.432,-316.001 510.925,-322.84"/>
</g>
<!-- Node38 -->
<g id="node18" class="node"><title>Node38</title>
<g id="a_node18"><a xlink:href="utilmoneystr_8cpp.html#a9ebffff9292ea77a3801d29ae2f23572" target="_top" xlink:title="ParseMoney">
<polygon fill="white" stroke="black" points="500.5,-1006.5 500.5,-1025.5 571.5,-1025.5 571.5,-1006.5 500.5,-1006.5"/>
<text text-anchor="middle" x="536" y="-1013.5" font-family="Helvetica,sans-Serif" font-size="10.00">ParseMoney</text>
</a>
</g>
</g>
<!-- Node37&#45;&gt;Node38 -->
<g id="edge23" class="edge"><title>Node37&#45;&gt;Node38</title>
<path fill="none" stroke="midnightblue" d="M375.536,-1120.48C405.655,-1100.74 475.105,-1055.24 511.61,-1031.32"/>
<polygon fill="midnightblue" stroke="midnightblue" points="513.69,-1034.15 520.137,-1025.74 509.854,-1028.29 513.69,-1034.15"/>
</g>
<!-- Node39 -->
<g id="node19" class="node"><title>Node39</title>
<g id="a_node19"><a xlink:href="class_c_bitcoin_address.html#ab39907ce6895062a8f8bf585270ef13b" target="_top" xlink:title="CBitcoinAddress::IsValid">
<polygon fill="white" stroke="red" points="654,-1177.5 654,-1196.5 780,-1196.5 780,-1177.5 654,-1177.5"/>
<text text-anchor="middle" x="717" y="-1184.5" font-family="Helvetica,sans-Serif" font-size="10.00">CBitcoinAddress::IsValid</text>
</a>
</g>
</g>
<!-- Node37&#45;&gt;Node39 -->
<g id="edge24" class="edge"><title>Node37&#45;&gt;Node39</title>
<path fill="none" stroke="midnightblue" d="M372.049,-1139.64C388.543,-1153.33 421.193,-1177.75 454,-1187 516.308,-1204.58 590.317,-1202.61 643.758,-1197.4"/>
<polygon fill="midnightblue" stroke="midnightblue" points="644.24,-1200.86 653.825,-1196.35 643.518,-1193.9 644.24,-1200.86"/>
</g>
<!-- Node41 -->
<g id="node20" class="node"><title>Node41</title>
<g id="a_node20"><a xlink:href="standard_8cpp.html#ae40f28d3b46c21033f6ee1f1200d0321" target="_top" xlink:title="GetScriptForDestination">
<polygon fill="white" stroke="black" points="475,-1120.5 475,-1139.5 597,-1139.5 597,-1120.5 475,-1120.5"/>
<text text-anchor="middle" x="536" y="-1127.5" font-family="Helvetica,sans-Serif" font-size="10.00">GetScriptForDestination</text>
</a>
</g>
</g>
<!-- Node37&#45;&gt;Node41 -->
<g id="edge25" class="edge"><title>Node37&#45;&gt;Node41</title>
<path fill="none" stroke="midnightblue" d="M415.577,-1130C431.176,-1130 448.398,-1130 464.793,-1130"/>
<polygon fill="midnightblue" stroke="midnightblue" points="464.873,-1133.5 474.873,-1130 464.873,-1126.5 464.873,-1133.5"/>
</g>
<!-- Node42 -->
<g id="node21" class="node"><title>Node42</title>
<g id="a_node21"><a xlink:href="class_c_bitcoin_address.html#a1e44de10dfc84d1fd2e15150f1e22b8e" target="_top" xlink:title="CBitcoinAddress::Get">
<polygon fill="white" stroke="red" points="480,-1158.5 480,-1177.5 592,-1177.5 592,-1158.5 480,-1158.5"/>
<text text-anchor="middle" x="536" y="-1165.5" font-family="Helvetica,sans-Serif" font-size="10.00">CBitcoinAddress::Get</text>
</a>
</g>
</g>
<!-- Node37&#45;&gt;Node42 -->
<g id="edge26" class="edge"><title>Node37&#45;&gt;Node42</title>
<path fill="none" stroke="midnightblue" d="M404.908,-1139.59C428.179,-1144.67 456.954,-1150.96 481.519,-1156.32"/>
<polygon fill="midnightblue" stroke="midnightblue" points="480.892,-1159.77 491.408,-1158.48 482.385,-1152.93 480.892,-1159.77"/>
</g>
<!-- Node42&#45;&gt;Node39 -->
<g id="edge27" class="edge"><title>Node42&#45;&gt;Node39</title>
<path fill="none" stroke="midnightblue" d="M592.166,-1173.86C608.482,-1175.59 626.591,-1177.51 643.812,-1179.34"/>
<polygon fill="midnightblue" stroke="midnightblue" points="643.515,-1182.83 653.828,-1180.4 644.254,-1175.86 643.515,-1182.83"/>
</g>
<!-- Node45&#45;&gt;Node22 -->
<g id="edge30" class="edge"><title>Node45&#45;&gt;Node22</title>
<path fill="none" stroke="midnightblue" d="M416.079,-994.052C491.616,-990.009 624.822,-982.88 684.977,-979.66"/>
<polygon fill="midnightblue" stroke="midnightblue" points="685.53,-983.136 695.328,-979.106 685.156,-976.146 685.53,-983.136"/>
</g>
<!-- Node45&#45;&gt;Node24 -->
<g id="edge31" class="edge"><title>Node45&#45;&gt;Node24</title>
<path fill="none" stroke="midnightblue" d="M378.532,-1006.58C396.766,-1015.95 426.445,-1029.59 454,-1035 531.876,-1050.3 625.303,-1044.74 676.908,-1039.65"/>
<polygon fill="midnightblue" stroke="midnightblue" points="677.372,-1043.12 686.959,-1038.62 676.653,-1036.16 677.372,-1043.12"/>
</g>
<!-- Node45&#45;&gt;Node38 -->
<g id="edge29" class="edge"><title>Node45&#45;&gt;Node38</title>
<path fill="none" stroke="midnightblue" d="M416.055,-1003.01C439.971,-1005.62 467.627,-1008.64 490.25,-1011.11"/>
<polygon fill="midnightblue" stroke="midnightblue" points="489.938,-1014.6 500.259,-1012.21 490.698,-1007.64 489.938,-1014.6"/>
</g>
<!-- Node46&#45;&gt;Node38 -->
<g id="edge33" class="edge"><title>Node46&#45;&gt;Node38</title>
<path fill="none" stroke="midnightblue" d="M383.037,-949.625C413.631,-962.988 469.124,-987.227 503.916,-1002.42"/>
<polygon fill="midnightblue" stroke="midnightblue" points="502.577,-1005.66 513.142,-1006.45 505.379,-999.243 502.577,-1005.66"/>
</g>
<!-- Node47 -->
<g id="node24" class="node"><title>Node47</title>
<g id="a_node24"><a xlink:href="core__io_8h.html#a29989c95b21abde8baf8b48a73f9b9a8" target="_top" xlink:title="ParseScript">
<polygon fill="white" stroke="red" points="502,-930.5 502,-949.5 570,-949.5 570,-930.5 502,-930.5"/>
<text text-anchor="middle" x="536" y="-937.5" font-family="Helvetica,sans-Serif" font-size="10.00">ParseScript</text>
</a>
</g>
</g>
<!-- Node46&#45;&gt;Node47 -->
<g id="edge34" class="edge"><title>Node46&#45;&gt;Node47</title>
<path fill="none" stroke="midnightblue" d="M418.456,-940C442.384,-940 469.694,-940 491.861,-940"/>
<polygon fill="midnightblue" stroke="midnightblue" points="491.971,-943.5 501.971,-940 491.971,-936.5 491.971,-943.5"/>
</g>
<!-- Node47&#45;&gt;Node22 -->
<g id="edge36" class="edge"><title>Node47&#45;&gt;Node22</title>
<path fill="none" stroke="midnightblue" d="M570.249,-947.058C603.222,-954.058 653.326,-964.695 685.359,-971.495"/>
<polygon fill="midnightblue" stroke="midnightblue" points="684.969,-974.99 695.478,-973.643 686.423,-968.143 684.969,-974.99"/>
</g>
<!-- Node47&#45;&gt;Node24 -->
<g id="edge37" class="edge"><title>Node47&#45;&gt;Node24</title>
<path fill="none" stroke="midnightblue" d="M555.149,-949.632C586.724,-966.39 651.921,-1000.99 688.882,-1020.61"/>
<polygon fill="midnightblue" stroke="midnightblue" points="687.596,-1023.89 698.07,-1025.48 690.877,-1017.7 687.596,-1023.89"/>
</g>
<!-- Node47&#45;&gt;Node28 -->
<g id="edge35" class="edge"><title>Node47&#45;&gt;Node28</title>
<path fill="none" stroke="midnightblue" d="M570.231,-940.621C586.93,-939.088 606.094,-934.187 618,-921 719.908,-808.129 717.925,-290.252 716.364,-181.908"/>
<polygon fill="midnightblue" stroke="midnightblue" points="719.86,-181.678 716.2,-171.736 712.861,-181.791 719.86,-181.678"/>
</g>
<!-- Node59&#45;&gt;Node31 -->
<g id="edge47" class="edge"><title>Node59&#45;&gt;Node31</title>
<path fill="none" stroke="midnightblue" d="M364.608,-588.463C373.627,-564.621 397.871,-500.501 418,-447 434.046,-404.351 422.921,-384.325 454,-351 468.985,-334.933 492.293,-325.302 510.067,-319.913"/>
<polygon fill="midnightblue" stroke="midnightblue" points="511.088,-323.262 519.787,-317.214 509.215,-316.517 511.088,-323.262"/>
</g>
<!-- Node60 -->
<g id="node26" class="node"><title>Node60</title>
<g id="a_node26"><a xlink:href="dash-tx_8cpp.html#a804f2eb1021c3fc5b3c163897588925f" target="_top" xlink:title="findSighashFlags">
<polygon fill="white" stroke="black" points="490,-360.5 490,-379.5 582,-379.5 582,-360.5 490,-360.5"/>
<text text-anchor="middle" x="536" y="-367.5" font-family="Helvetica,sans-Serif" font-size="10.00">findSighashFlags</text>
</a>
</g>
</g>
<!-- Node59&#45;&gt;Node60 -->
<g id="edge39" class="edge"><title>Node59&#45;&gt;Node60</title>
<path fill="none" stroke="midnightblue" d="M364.689,-588.4C379.811,-549.243 437.056,-403.02 454,-389 461.433,-382.849 470.502,-378.615 479.847,-375.715"/>
<polygon fill="midnightblue" stroke="midnightblue" points="480.842,-379.072 489.628,-373.152 479.068,-372.301 480.842,-379.072"/>
</g>
<!-- Node61 -->
<g id="node27" class="node"><title>Node61</title>
<g id="a_node27"><a xlink:href="class_uni_value.html#a5a7394aeb8d5584db7a90c2c041726b1" target="_top" xlink:title="UniValue::size">
<polygon fill="white" stroke="black" points="496,-892.5 496,-911.5 576,-911.5 576,-892.5 496,-892.5"/>
<text text-anchor="middle" x="536" y="-899.5" font-family="Helvetica,sans-Serif" font-size="10.00">UniValue::size</text>
</a>
</g>
</g>
<!-- Node59&#45;&gt;Node61 -->
<g id="edge40" class="edge"><title>Node59&#45;&gt;Node61</title>
<path fill="none" stroke="midnightblue" d="M360.982,-607.61C361.458,-647.916 368.9,-804.844 454,-883 462.722,-891.01 474.165,-895.838 485.691,-898.701"/>
<polygon fill="midnightblue" stroke="midnightblue" points="485.281,-902.189 495.776,-900.742 486.669,-895.328 485.281,-902.189"/>
</g>
<!-- Node62 -->
<g id="node28" class="node"><title>Node62</title>
<g id="a_node28"><a xlink:href="class_c_bitcoin_secret.html#a6a8aff02f66099f33f573ad3e6375bb1" target="_top" xlink:title="CBitcoinSecret::SetString">
<polygon fill="white" stroke="red" points="471.5,-854.5 471.5,-873.5 600.5,-873.5 600.5,-854.5 471.5,-854.5"/>
<text text-anchor="middle" x="536" y="-861.5" font-family="Helvetica,sans-Serif" font-size="10.00">CBitcoinSecret::SetString</text>
</a>
</g>
</g>
<!-- Node59&#45;&gt;Node62 -->
<g id="edge41" class="edge"><title>Node59&#45;&gt;Node62</title>
<path fill="none" stroke="midnightblue" d="M361.523,-607.585C364.078,-644.489 378.422,-778.64 454,-845 456.551,-847.24 459.316,-849.228 462.234,-850.993"/>
<polygon fill="midnightblue" stroke="midnightblue" points="460.888,-854.235 471.389,-855.643 464.058,-847.993 460.888,-854.235"/>
</g>
<!-- Node82 -->
<g id="node29" class="node"><title>Node82</title>
<g id="a_node29"><a xlink:href="class_c_bitcoin_secret.html#a4d6bf559d092e6d47f8001c7171096df" target="_top" xlink:title="CBitcoinSecret::GetKey">
<polygon fill="white" stroke="red" points="475,-816.5 475,-835.5 597,-835.5 597,-816.5 475,-816.5"/>
<text text-anchor="middle" x="536" y="-823.5" font-family="Helvetica,sans-Serif" font-size="10.00">CBitcoinSecret::GetKey</text>
</a>
</g>
</g>
<!-- Node59&#45;&gt;Node82 -->
<g id="edge42" class="edge"><title>Node59&#45;&gt;Node82</title>
<path fill="none" stroke="midnightblue" d="M362.261,-607.708C367.138,-641.12 387.909,-752.312 454,-807 457.538,-809.928 461.448,-812.422 465.581,-814.544"/>
<polygon fill="midnightblue" stroke="midnightblue" points="464.364,-817.832 474.929,-818.621 467.162,-811.415 464.364,-817.832"/>
</g>
<!-- Node89 -->
<g id="node30" class="node"><title>Node89</title>
<g id="a_node30"><a xlink:href="class_c_key_store.html#a0b4ca43724cfcc6e2ea70c0baa192750" target="_top" xlink:title="CKeyStore::AddKey">
<polygon fill="white" stroke="red" points="483.5,-778.5 483.5,-797.5 588.5,-797.5 588.5,-778.5 483.5,-778.5"/>
<text text-anchor="middle" x="536" y="-785.5" font-family="Helvetica,sans-Serif" font-size="10.00">CKeyStore::AddKey</text>
</a>
</g>
</g>
<!-- Node59&#45;&gt;Node89 -->
<g id="edge43" class="edge"><title>Node59&#45;&gt;Node89</title>
<path fill="none" stroke="midnightblue" d="M363.249,-607.568C370.639,-636.795 397.033,-725.555 454,-769 459.843,-773.456 466.563,-776.892 473.58,-779.536"/>
<polygon fill="midnightblue" stroke="midnightblue" points="472.687,-782.926 483.279,-782.673 474.841,-776.265 472.687,-782.926"/>
</g>
<!-- Node113 -->
<g id="node31" class="node"><title>Node113</title>
<g id="a_node31"><a xlink:href="class_uni_value.html#af1a6df88c2bee59a863dd6f8d12e9be5" target="_top" xlink:title="UniValue::isObject">
<polygon fill="white" stroke="black" points="487,-740.5 487,-759.5 585,-759.5 585,-740.5 487,-740.5"/>
<text text-anchor="middle" x="536" y="-747.5" font-family="Helvetica,sans-Serif" font-size="10.00">UniValue::isObject</text>
</a>
</g>
</g>
<!-- Node59&#45;&gt;Node113 -->
<g id="edge44" class="edge"><title>Node59&#45;&gt;Node113</title>
<path fill="none" stroke="midnightblue" d="M364.758,-607.513C375.011,-632.162 405.949,-698.444 454,-731 460.962,-735.717 468.946,-739.271 477.128,-741.947"/>
<polygon fill="midnightblue" stroke="midnightblue" points="476.198,-745.321 486.775,-744.703 478.121,-738.591 476.198,-745.321"/>
</g>
<!-- Node114 -->
<g id="node32" class="node"><title>Node114</title>
<g id="a_node32"><a xlink:href="class_uni_value.html#a2ec95a1ab26c60f471e2baef3ffa11ef" target="_top" xlink:title="UniValue::checkObject">
<polygon fill="white" stroke="black" points="477.5,-702.5 477.5,-721.5 594.5,-721.5 594.5,-702.5 477.5,-702.5"/>
<text text-anchor="middle" x="536" y="-709.5" font-family="Helvetica,sans-Serif" font-size="10.00">UniValue::checkObject</text>
</a>
</g>
</g>
<!-- Node59&#45;&gt;Node114 -->
<g id="edge45" class="edge"><title>Node59&#45;&gt;Node114</title>
<path fill="none" stroke="midnightblue" d="M367.437,-607.549C381.012,-626.901 414.59,-670.789 454,-693 458.259,-695.4 462.807,-697.498 467.494,-699.331"/>
<polygon fill="midnightblue" stroke="midnightblue" points="466.666,-702.749 477.261,-702.734 468.97,-696.139 466.666,-702.749"/>
</g>
<!-- Node115 -->
<g id="node33" class="node"><title>Node115</title>
<g id="a_node33"><a xlink:href="core__io_8h.html#acd21ab1ea0a5b55dbccb6c06f0d03b19" target="_top" xlink:title="ParseHashUV">
<polygon fill="white" stroke="black" points="496,-664.5 496,-683.5 576,-683.5 576,-664.5 496,-664.5"/>
<text text-anchor="middle" x="536" y="-671.5" font-family="Helvetica,sans-Serif" font-size="10.00">ParseHashUV</text>
</a>
</g>
</g>
<!-- Node59&#45;&gt;Node115 -->
<g id="edge46" class="edge"><title>Node59&#45;&gt;Node115</title>
<path fill="none" stroke="midnightblue" d="M373.539,-607.507C390.777,-620.136 423.175,-642.325 454,-655 464.126,-659.164 475.356,-662.527 486.149,-665.2"/>
<polygon fill="midnightblue" stroke="midnightblue" points="485.362,-668.61 495.894,-667.463 486.945,-661.792 485.362,-668.61"/>
</g>
<!-- Node116 -->
<g id="node34" class="node"><title>Node116</title>
<g id="a_node34"><a xlink:href="core__io_8h.html#a78a4823e9ac3cb4e78cb6dddc868efff" target="_top" xlink:title="ParseHexUV">
<polygon fill="white" stroke="black" points="499,-626.5 499,-645.5 573,-645.5 573,-626.5 499,-626.5"/>
<text text-anchor="middle" x="536" y="-633.5" font-family="Helvetica,sans-Serif" font-size="10.00">ParseHexUV</text>
</a>
</g>
</g>
<!-- Node59&#45;&gt;Node116 -->
<g id="edge48" class="edge"><title>Node59&#45;&gt;Node116</title>
<path fill="none" stroke="midnightblue" d="M398.755,-606.245C425.194,-612.019 460.679,-619.769 488.807,-625.912"/>
<polygon fill="midnightblue" stroke="midnightblue" points="488.29,-629.381 498.807,-628.096 489.784,-622.543 488.29,-629.381"/>
</g>
<!-- Node117 -->
<g id="node35" class="node"><title>Node117</title>
<g id="a_node35"><a xlink:href="class_c_coins_view_cache.html#ab67c0d489873ed735c4fc52aa66f0830" target="_top" xlink:title="Return a modifiable reference to a CCoins. ">
<polygon fill="white" stroke="red" points="455.5,-588.5 455.5,-607.5 616.5,-607.5 616.5,-588.5 455.5,-588.5"/>
<text text-anchor="middle" x="536" y="-595.5" font-family="Helvetica,sans-Serif" font-size="10.00">CCoinsViewCache::ModifyCoins</text>
</a>
</g>
</g>
<!-- Node59&#45;&gt;Node117 -->
<g id="edge49" class="edge"><title>Node59&#45;&gt;Node117</title>
<path fill="none" stroke="midnightblue" d="M398.755,-598C412.496,-598 428.679,-598 445.003,-598"/>
<polygon fill="midnightblue" stroke="midnightblue" points="445.165,-601.5 455.165,-598 445.165,-594.5 445.165,-601.5"/>
</g>
<!-- Node119 -->
<g id="node36" class="node"><title>Node119</title>
<g id="a_node36"><a xlink:href="class_c_coins.html#aa645bc3d18f74e91430ac178a9d28ee4" target="_top" xlink:title="check whether a particular output is still available ">
<polygon fill="white" stroke="black" points="484,-550.5 484,-569.5 588,-569.5 588,-550.5 484,-550.5"/>
<text text-anchor="middle" x="536" y="-557.5" font-family="Helvetica,sans-Serif" font-size="10.00">CCoins::IsAvailable</text>
</a>
</g>
</g>
<!-- Node59&#45;&gt;Node119 -->
<g id="edge50" class="edge"><title>Node59&#45;&gt;Node119</title>
<path fill="none" stroke="midnightblue" d="M398.755,-589.755C422.951,-584.47 454.723,-577.532 481.499,-571.684"/>
<polygon fill="midnightblue" stroke="midnightblue" points="482.468,-575.055 491.491,-569.502 480.974,-568.216 482.468,-575.055"/>
</g>
<!-- Node120 -->
<g id="node37" class="node"><title>Node120</title>
<g id="a_node37"><a xlink:href="core__io_8h.html#a9236ffa581211a68db7f7447faa6c27c" target="_top" xlink:title="Create the assembly string representation of a CScript object. ">
<polygon fill="white" stroke="red" points="493,-512.5 493,-531.5 579,-531.5 579,-512.5 493,-512.5"/>
<text text-anchor="middle" x="536" y="-519.5" font-family="Helvetica,sans-Serif" font-size="10.00">ScriptToAsmStr</text>
</a>
</g>
</g>
<!-- Node59&#45;&gt;Node120 -->
<g id="edge51" class="edge"><title>Node59&#45;&gt;Node120</title>
<path fill="none" stroke="midnightblue" d="M373.539,-588.493C390.777,-575.864 423.175,-553.675 454,-541 463.218,-537.21 473.351,-534.082 483.236,-531.536"/>
<polygon fill="midnightblue" stroke="midnightblue" points="484.097,-534.929 492.996,-529.18 482.454,-528.124 484.097,-534.929"/>
</g>
<!-- Node142 -->
<g id="node38" class="node"><title>Node142</title>
<g id="a_node38"><a xlink:href="class_uni_value.html#aad13d343dbda293251205e37d8b83c27" target="_top" xlink:title="UniValue::exists">
<polygon fill="white" stroke="red" points="491.5,-474.5 491.5,-493.5 580.5,-493.5 580.5,-474.5 491.5,-474.5"/>
<text text-anchor="middle" x="536" y="-481.5" font-family="Helvetica,sans-Serif" font-size="10.00">UniValue::exists</text>
</a>
</g>
</g>
<!-- Node59&#45;&gt;Node142 -->
<g id="edge52" class="edge"><title>Node59&#45;&gt;Node142</title>
<path fill="none" stroke="midnightblue" d="M367.437,-588.451C381.012,-569.099 414.59,-525.211 454,-503 462.405,-498.263 471.939,-494.704 481.44,-492.032"/>
<polygon fill="midnightblue" stroke="midnightblue" points="482.437,-495.39 491.28,-489.555 480.728,-488.602 482.437,-495.39"/>
</g>
<!-- Node144 -->
<g id="node39" class="node"><title>Node144</title>
<g id="a_node39"><a xlink:href="class_c_basic_key_store.html#a56249ce3540398999cd397eeb662e836" target="_top" xlink:title="Support for BIP 0013 : see https://github.com/bitcoin/bips/blob/master/bip&#45;0013.mediawiki. ">
<polygon fill="white" stroke="red" points="463,-436.5 463,-455.5 609,-455.5 609,-436.5 463,-436.5"/>
<text text-anchor="middle" x="536" y="-443.5" font-family="Helvetica,sans-Serif" font-size="10.00">CBasicKeyStore::AddCScript</text>
</a>
</g>
</g>
<!-- Node59&#45;&gt;Node144 -->
<g id="edge53" class="edge"><title>Node59&#45;&gt;Node144</title>
<path fill="none" stroke="midnightblue" d="M364.758,-588.487C375.011,-563.838 405.949,-497.556 454,-465 456.96,-462.995 460.104,-461.2 463.37,-459.593"/>
<polygon fill="midnightblue" stroke="midnightblue" points="465.023,-462.693 472.843,-455.545 462.272,-456.256 465.023,-462.693"/>
</g>
<!-- Node162 -->
<g id="node40" class="node"><title>Node162</title>
<g id="a_node40"><a xlink:href="class_c_coins_view_cache.html#a8e5341e8b01233949d6170dd4d1fd75d" target="_top" xlink:title="Return a pointer to CCoins in the cache, or NULL if not found. ">
<polygon fill="white" stroke="red" points="454,-398.5 454,-417.5 618,-417.5 618,-398.5 454,-398.5"/>
<text text-anchor="middle" x="536" y="-405.5" font-family="Helvetica,sans-Serif" font-size="10.00">CCoinsViewCache::AccessCoins</text>
</a>
</g>
</g>
<!-- Node59&#45;&gt;Node162 -->
<g id="edge54" class="edge"><title>Node59&#45;&gt;Node162</title>
<path fill="none" stroke="midnightblue" d="M363.249,-588.432C370.639,-559.205 397.033,-470.445 454,-427 456.369,-425.193 458.882,-423.555 461.5,-422.068"/>
<polygon fill="midnightblue" stroke="midnightblue" points="463.283,-425.093 470.753,-417.58 460.228,-418.795 463.283,-425.093"/>
</g>
<!-- Node229 -->
<g id="node44" class="node"><title>Node229</title>
<g id="a_node44"><a xlink:href="util_8cpp.html#a64d956f1dda7f9a80ab5d594532b906d" target="_top" xlink:title="Return boolean argument or default value. ">
<polygon fill="white" stroke="red" points="326.5,-114.5 326.5,-133.5 393.5,-133.5 393.5,-114.5 326.5,-114.5"/>
<text text-anchor="middle" x="360" y="-121.5" font-family="Helvetica,sans-Serif" font-size="10.00">GetBoolArg</text>
</a>
</g>
</g>
<!-- Node228&#45;&gt;Node229 -->
<g id="edge58" class="edge"><title>Node228&#45;&gt;Node229</title>
<path fill="none" stroke="midnightblue" d="M235.287,-139.515C257.987,-136.668 290.447,-132.597 316.423,-129.34"/>
<polygon fill="midnightblue" stroke="midnightblue" points="316.899,-132.807 326.386,-128.09 316.028,-125.862 316.899,-132.807"/>
</g>
<!-- Node231 -->
<g id="node45" class="node"><title>Node231</title>
<g id="a_node45"><a xlink:href="dash-tx_8cpp.html#a26ba4dd080ca06548ff738ebbdf197d8" target="_top" xlink:title="OutputTxJSON">
<polygon fill="white" stroke="red" points="318,-76.5 318,-95.5 402,-95.5 402,-76.5 318,-76.5"/>
<text text-anchor="middle" x="360" y="-83.5" font-family="Helvetica,sans-Serif" font-size="10.00">OutputTxJSON</text>
</a>
</g>
</g>
<!-- Node228&#45;&gt;Node231 -->
<g id="edge59" class="edge"><title>Node228&#45;&gt;Node231</title>
<path fill="none" stroke="midnightblue" d="M235.237,-135.063C245.086,-131.965 256.164,-128.157 266,-124 282.665,-116.958 285.363,-112.107 302,-105 307.036,-102.849 312.404,-100.781 317.756,-98.8525"/>
<polygon fill="midnightblue" stroke="midnightblue" points="318.994,-102.127 327.296,-95.5444 316.701,-95.5138 318.994,-102.127"/>
</g>
<!-- Node250 -->
<g id="node46" class="node"><title>Node250</title>
<g id="a_node46"><a xlink:href="dash-tx_8cpp.html#a11e51019a89a249e5c1d0bdfb6a3025e" target="_top" xlink:title="OutputTxHash">
<polygon fill="white" stroke="red" points="320,-38.5 320,-57.5 400,-57.5 400,-38.5 320,-38.5"/>
<text text-anchor="middle" x="360" y="-45.5" font-family="Helvetica,sans-Serif" font-size="10.00">OutputTxHash</text>
</a>
</g>
</g>
<!-- Node228&#45;&gt;Node250 -->
<g id="edge60" class="edge"><title>Node228&#45;&gt;Node250</title>
<path fill="none" stroke="midnightblue" d="M235.012,-138.23C245.497,-135.398 257.063,-130.947 266,-124 289.657,-105.611 278.415,-85.4798 302,-67 304.627,-64.9413 307.489,-63.1004 310.484,-61.455"/>
<polygon fill="midnightblue" stroke="midnightblue" points="312.216,-64.5082 319.774,-57.0831 309.236,-58.1745 312.216,-64.5082"/>
</g>
<!-- Node251 -->
<g id="node47" class="node"><title>Node251</title>
<g id="a_node47"><a xlink:href="dash-tx_8cpp.html#aa8ad9a2a3e50ac2b69b02c1dc5ff0e3e" target="_top" xlink:title="OutputTxHex">
<polygon fill="white" stroke="red" points="322.5,-152.5 322.5,-171.5 397.5,-171.5 397.5,-152.5 322.5,-152.5"/>
<text text-anchor="middle" x="360" y="-159.5" font-family="Helvetica,sans-Serif" font-size="10.00">OutputTxHex</text>
</a>
</g>
</g>
<!-- Node228&#45;&gt;Node251 -->
<g id="edge61" class="edge"><title>Node228&#45;&gt;Node251</title>
<path fill="none" stroke="midnightblue" d="M235.287,-146.485C256.76,-149.178 286.968,-152.966 312.157,-156.125"/>
<polygon fill="midnightblue" stroke="midnightblue" points="311.89,-159.619 322.248,-157.391 312.761,-152.674 311.89,-159.619"/>
</g>
<!-- Node254 -->
<g id="node49" class="node"><title>Node254</title>
<g id="a_node49"><a xlink:href="util_8cpp.html#a49c14d0bff24ce3abab063cd11b8fc8c" target="_top" xlink:title="FormatException">
<polygon fill="white" stroke="black" points="314.5,-0.5 314.5,-19.5 405.5,-19.5 405.5,-0.5 314.5,-0.5"/>
<text text-anchor="middle" x="360" y="-7.5" font-family="Helvetica,sans-Serif" font-size="10.00">FormatException</text>
</a>
</g>
</g>
<!-- Node253&#45;&gt;Node254 -->
<g id="edge63" class="edge"><title>Node253&#45;&gt;Node254</title>
<path fill="none" stroke="midnightblue" d="M249.273,-95.4316C255.237,-92.9601 261.026,-89.8666 266,-86 289.657,-67.6112 278.415,-47.4798 302,-29 304.309,-27.1906 306.799,-25.5494 309.402,-24.0614"/>
<polygon fill="midnightblue" stroke="midnightblue" points="311.142,-27.1065 318.589,-19.57 308.068,-20.8177 311.142,-27.1065"/>
</g>
</g>
</svg>
