<?xml version="1.0" encoding="UTF-8" standalone="no"?>
<!DOCTYPE svg PUBLIC "-//W3C//DTD SVG 1.1//EN"
 "http://www.w3.org/Graphics/SVG/1.1/DTD/svg11.dtd">
<!-- Generated by graphviz version 2.38.0 (20140413.2041)
 -->
<!-- Title: secp256k1_ecdsa_sig_sign Pages: 1 -->
<!--zoomable 858 -->
<svg id="main" version="1.1" xmlns="http://www.w3.org/2000/svg" xmlns:xlink="http://www.w3.org/1999/xlink" xml:space="preserve" onload="init(evt)">
<style type="text/css"><![CDATA[
.edge:hover path { stroke: red; }
.edge:hover polygon { stroke: red; fill: red; }
]]></style>
<script type="text/javascript"><![CDATA[
var edges = document.getElementsByTagName('g');
if (edges && edges.length) {
  for (var i=0;i<edges.length;i++) {
    if (edges[i].id.substr(0,4)=='edge') {
      edges[i].setAttribute('class','edge');
    }
  }
}
]]></script>
        <defs>
                <circle id="rim" cx="0" cy="0" r="7"/>
                <circle id="rim2" cx="0" cy="0" r="3.5"/>
                <g id="zoomPlus">
                        <use xlink:href="#rim" fill="#404040">
                                <set attributeName="fill" to="#808080" begin="zoomplus.mouseover" end="zoomplus.mouseout"/>
                        </use>
                        <path d="M-4,0h8M0,-4v8" fill="none" stroke="white" stroke-width="1.5" pointer-events="none"/>
                </g>
                <g id="zoomMin">
                        <use xlink:href="#rim" fill="#404040">
                                <set attributeName="fill" to="#808080" begin="zoomminus.mouseover" end="zoomminus.mouseout"/>
                        </use>
                        <path d="M-4,0h8" fill="none" stroke="white" stroke-width="1.5" pointer-events="none"/>
                </g>
                <g id="dirArrow">
                        <path fill="none" stroke="white" stroke-width="1.5" d="M0,-3.0v7 M-2.5,-0.5L0,-3.0L2.5,-0.5"/>
                </g>
               <g id="resetDef">
                       <use xlink:href="#rim2" fill="#404040">
                               <set attributeName="fill" to="#808080" begin="reset.mouseover" end="reset.mouseout"/>
                       </use>
               </g>
        </defs>

<script type="text/javascript">
var viewWidth = 1114;
var viewHeight = 858;
var sectionId = 'dynsection-4';
</script>
<script xlink:href="svgpan.js"/>
<svg id="graph" class="graph">
<g id="viewport">
<title>secp256k1_ecdsa_sig_sign</title>
<polygon fill="white" stroke="none" points="-4,4 -4,-853.5 1110,-853.5 1110,4 -4,4"/>
<!-- Node68 -->
<g id="node1" class="node"><title>Node68</title>
<polygon fill="#bfbfbf" stroke="black" points="0,-725 0,-744 137,-744 137,-725 0,-725"/>
<text text-anchor="middle" x="68.5" y="-732" font-family="Helvetica,sans-Serif" font-size="10.00">secp256k1_ecdsa_sig_sign</text>
</g>
<!-- Node69 -->
<g id="node2" class="node"><title>Node69</title>
<g id="a_node2"><a xlink:href="tests_8c.html#a5c5253164e8444359849fd66e27bbe5a" target="_top" xlink:title="random_sign">
<polygon fill="white" stroke="black" points="196.5,-820 196.5,-839 268.5,-839 268.5,-820 196.5,-820"/>
<text text-anchor="middle" x="232.5" y="-827" font-family="Helvetica,sans-Serif" font-size="10.00">random_sign</text>
</a>
</g>
</g>
<!-- Node68&#45;&gt;Node69 -->
<g id="edge1" class="edge"><title>Node68&#45;&gt;Node69</title>
<path fill="none" stroke="midnightblue" d="M94.6803,-749.266C128.221,-768.935 186.62,-803.181 215.032,-819.843"/>
<polygon fill="midnightblue" stroke="midnightblue" points="96.3216,-746.171 85.9249,-744.132 92.7806,-752.21 96.3216,-746.171"/>
</g>
<!-- Node73 -->
<g id="node6" class="node"><title>Node73</title>
<g id="a_node6"><a xlink:href="tests_8c.html#a2f9713526b1e988694c6e2026a6fce69" target="_top" xlink:title="run_context_tests">
<polygon fill="white" stroke="black" points="341.5,-792 341.5,-811 436.5,-811 436.5,-792 341.5,-792"/>
<text text-anchor="middle" x="389" y="-799" font-family="Helvetica,sans-Serif" font-size="10.00">run_context_tests</text>
</a>
</g>
</g>
<!-- Node68&#45;&gt;Node73 -->
<g id="edge5" class="edge"><title>Node68&#45;&gt;Node73</title>
<path fill="none" stroke="midnightblue" d="M124.744,-746.121C186.457,-759.103 285.208,-779.877 342.604,-791.95"/>
<polygon fill="midnightblue" stroke="midnightblue" points="125.301,-742.662 114.795,-744.028 123.86,-749.512 125.301,-742.662"/>
</g>
<!-- Node74 -->
<g id="node7" class="node"><title>Node74</title>
<g id="a_node7"><a xlink:href="secp256k1_8c.html#ad33367933638f0bda3387c76867df7d5" target="_top" xlink:title="Create an ECDSA signature. ">
<polygon fill="white" stroke="black" points="173,-687 173,-706 292,-706 292,-687 173,-687"/>
<text text-anchor="middle" x="232.5" y="-694" font-family="Helvetica,sans-Serif" font-size="10.00">secp256k1_ecdsa_sign</text>
</a>
</g>
</g>
<!-- Node68&#45;&gt;Node74 -->
<g id="edge7" class="edge"><title>Node68&#45;&gt;Node74</title>
<path fill="none" stroke="midnightblue" d="M120.215,-722.604C142.986,-717.263 169.487,-711.046 190.915,-706.02"/>
<polygon fill="midnightblue" stroke="midnightblue" points="119.316,-719.22 110.379,-724.911 120.915,-726.035 119.316,-719.22"/>
</g>
<!-- Node124 -->
<g id="node35" class="node"><title>Node124</title>
<g id="a_node35"><a xlink:href="recovery_2main__impl_8h.html#ae06d019b6eaa34e248a502ba9c6d04cb" target="_top" xlink:title="Create a recoverable ECDSA signature. ">
<polygon fill="white" stroke="black" points="173,-590.5 173,-620.5 292,-620.5 292,-590.5 173,-590.5"/>
<text text-anchor="start" x="181" y="-608.5" font-family="Helvetica,sans-Serif" font-size="10.00">secp256k1_ecdsa_sign</text>
<text text-anchor="middle" x="232.5" y="-597.5" font-family="Helvetica,sans-Serif" font-size="10.00">_recoverable</text>
</a>
</g>
</g>
<!-- Node68&#45;&gt;Node124 -->
<g id="edge40" class="edge"><title>Node68&#45;&gt;Node124</title>
<path fill="none" stroke="midnightblue" d="M89.7691,-718.36C121.355,-693.208 181.875,-645.016 212.601,-620.549"/>
<polygon fill="midnightblue" stroke="midnightblue" points="87.3189,-715.837 81.6763,-724.804 91.6794,-721.313 87.3189,-715.837"/>
</g>
<!-- Node70 -->
<g id="node3" class="node"><title>Node70</title>
<g id="a_node3"><a xlink:href="tests_8c.html#a9f741d7d63a637666b9884c5241abd00" target="_top" xlink:title="test_ecdsa_sign_verify">
<polygon fill="white" stroke="black" points="330.5,-830 330.5,-849 447.5,-849 447.5,-830 330.5,-830"/>
<text text-anchor="middle" x="389" y="-837" font-family="Helvetica,sans-Serif" font-size="10.00">test_ecdsa_sign_verify</text>
</a>
</g>
</g>
<!-- Node69&#45;&gt;Node70 -->
<g id="edge2" class="edge"><title>Node69&#45;&gt;Node70</title>
<path fill="none" stroke="midnightblue" d="M278.798,-832.432C294.933,-833.476 313.324,-834.667 330.355,-835.769"/>
<polygon fill="midnightblue" stroke="midnightblue" points="278.764,-828.922 268.558,-831.769 278.311,-835.908 278.764,-828.922"/>
</g>
<!-- Node71 -->
<g id="node4" class="node"><title>Node71</title>
<g id="a_node4"><a xlink:href="tests_8c.html#a8b33b5c265c09b165c29d92c05c641d8" target="_top" xlink:title="run_ecdsa_sign_verify">
<polygon fill="white" stroke="black" points="499.5,-830 499.5,-849 613.5,-849 613.5,-830 499.5,-830"/>
<text text-anchor="middle" x="556.5" y="-837" font-family="Helvetica,sans-Serif" font-size="10.00">run_ecdsa_sign_verify</text>
</a>
</g>
</g>
<!-- Node70&#45;&gt;Node71 -->
<g id="edge3" class="edge"><title>Node70&#45;&gt;Node71</title>
<path fill="none" stroke="midnightblue" d="M458.21,-839.5C471.886,-839.5 486.109,-839.5 499.321,-839.5"/>
<polygon fill="midnightblue" stroke="midnightblue" points="457.884,-836 447.884,-839.5 457.884,-843 457.884,-836"/>
</g>
<!-- Node72 -->
<g id="node5" class="node"><title>Node72</title>
<g id="a_node5"><a xlink:href="tests_8c.html#a3c04138a5bfe5d72780bb7e82a18e627" target="_top" xlink:title="main">
<polygon fill="white" stroke="black" points="722.5,-754 722.5,-773 760.5,-773 760.5,-754 722.5,-754"/>
<text text-anchor="middle" x="741.5" y="-761" font-family="Helvetica,sans-Serif" font-size="10.00">main</text>
</a>
</g>
</g>
<!-- Node71&#45;&gt;Node72 -->
<g id="edge4" class="edge"><title>Node71&#45;&gt;Node72</title>
<path fill="none" stroke="midnightblue" d="M596.801,-826.673C606.726,-823.231 617.313,-819.381 627,-815.5 661.204,-801.797 700.032,-783.362 722.259,-772.523"/>
<polygon fill="midnightblue" stroke="midnightblue" points="595.487,-823.423 587.154,-829.966 597.749,-830.048 595.487,-823.423"/>
</g>
<!-- Node73&#45;&gt;Node72 -->
<g id="edge6" class="edge"><title>Node73&#45;&gt;Node72</title>
<path fill="none" stroke="midnightblue" d="M447.098,-798.302C495.19,-795.278 565.744,-790.068 627,-782.5 660.906,-778.311 700.158,-771.241 722.485,-767.007"/>
<polygon fill="midnightblue" stroke="midnightblue" points="446.653,-794.822 436.888,-798.932 447.084,-801.809 446.653,-794.822"/>
</g>
<!-- Node74&#45;&gt;Node73 -->
<g id="edge33" class="edge"><title>Node74&#45;&gt;Node73</title>
<path fill="none" stroke="midnightblue" d="M248.377,-713.968C265.69,-733.278 296.017,-764.081 328,-782.5 334.533,-786.263 341.904,-789.377 349.185,-791.92"/>
<polygon fill="midnightblue" stroke="midnightblue" points="250.809,-711.434 241.582,-706.228 245.549,-716.052 250.809,-711.434"/>
</g>
<!-- Node75 -->
<g id="node8" class="node"><title>Node75</title>
<g id="a_node8"><a xlink:href="class_c_key.html#aa9b184a4a71d3e1a40aab360cf68e86c" target="_top" xlink:title="Create a DER&#45;serialized signature. ">
<polygon fill="white" stroke="black" points="355.5,-552 355.5,-571 422.5,-571 422.5,-552 355.5,-552"/>
<text text-anchor="middle" x="389" y="-559" font-family="Helvetica,sans-Serif" font-size="10.00">CKey::Sign</text>
</a>
</g>
</g>
<!-- Node74&#45;&gt;Node75 -->
<g id="edge8" class="edge"><title>Node74&#45;&gt;Node75</title>
<path fill="none" stroke="midnightblue" d="M249.285,-679.237C261.299,-665.905 278.083,-646.862 292,-629.5 308.902,-608.414 306.036,-596.244 328,-580.5 336.081,-574.707 345.999,-570.632 355.426,-567.785"/>
<polygon fill="midnightblue" stroke="midnightblue" points="246.612,-676.975 242.489,-686.734 251.798,-681.676 246.612,-676.975"/>
</g>
<!-- Node115 -->
<g id="node26" class="node"><title>Node115</title>
<g id="a_node26"><a xlink:href="bench__sign_8c.html#ab94f8aceb19d41bc9223619892cfba5c" target="_top" xlink:title="bench_sign">
<polygon fill="white" stroke="black" points="356,-640 356,-659 422,-659 422,-640 356,-640"/>
<text text-anchor="middle" x="389" y="-647" font-family="Helvetica,sans-Serif" font-size="10.00">bench_sign</text>
</a>
</g>
</g>
<!-- Node74&#45;&gt;Node115 -->
<g id="edge27" class="edge"><title>Node74&#45;&gt;Node115</title>
<path fill="none" stroke="midnightblue" d="M274.596,-683.998C300.291,-676.182 332.875,-666.269 356.516,-659.078"/>
<polygon fill="midnightblue" stroke="midnightblue" points="273.314,-680.73 264.765,-686.989 275.351,-687.427 273.314,-680.73"/>
</g>
<!-- Node117 -->
<g id="node28" class="node"><title>Node117</title>
<g id="a_node28"><a xlink:href="bench__verify_8c.html#a840291bc02cba5474a4cb46a9b9566fe" target="_top" xlink:title="main">
<polygon fill="white" stroke="black" points="370,-678 370,-697 408,-697 408,-678 370,-678"/>
<text text-anchor="middle" x="389" y="-685" font-family="Helvetica,sans-Serif" font-size="10.00">main</text>
</a>
</g>
</g>
<!-- Node74&#45;&gt;Node117 -->
<g id="edge29" class="edge"><title>Node74&#45;&gt;Node117</title>
<path fill="none" stroke="midnightblue" d="M302.507,-692.48C327.304,-691.036 353.247,-689.524 369.958,-688.551"/>
<polygon fill="midnightblue" stroke="midnightblue" points="302.13,-688.996 292.351,-693.072 302.537,-695.984 302.13,-688.996"/>
</g>
<!-- Node118 -->
<g id="node29" class="node"><title>Node118</title>
<g id="a_node29"><a xlink:href="recovery_2tests__impl_8h.html#a70649882936497184992dfaa06b1106f" target="_top" xlink:title="test_ecdsa_recovery\l_end_to_end">
<polygon fill="white" stroke="black" points="335.5,-590.5 335.5,-620.5 442.5,-620.5 442.5,-590.5 335.5,-590.5"/>
<text text-anchor="start" x="343.5" y="-608.5" font-family="Helvetica,sans-Serif" font-size="10.00">test_ecdsa_recovery</text>
<text text-anchor="middle" x="389" y="-597.5" font-family="Helvetica,sans-Serif" font-size="10.00">_end_to_end</text>
</a>
</g>
</g>
<!-- Node74&#45;&gt;Node118 -->
<g id="edge30" class="edge"><title>Node74&#45;&gt;Node118</title>
<path fill="none" stroke="midnightblue" d="M253.496,-680.628C272.081,-666.348 300.895,-645.386 328,-630.5 334.429,-626.969 341.462,-623.619 348.377,-620.587"/>
<polygon fill="midnightblue" stroke="midnightblue" points="251.229,-677.957 245.484,-686.859 255.526,-683.483 251.229,-677.957"/>
</g>
<!-- Node120 -->
<g id="node31" class="node"><title>Node120</title>
<g id="a_node31"><a xlink:href="tests_8c.html#a3fc9dc1908215215a68690ea1bfa8bcd" target="_top" xlink:title="test_ecdsa_end_to_end">
<polygon fill="white" stroke="black" points="329,-754 329,-773 449,-773 449,-754 329,-754"/>
<text text-anchor="middle" x="389" y="-761" font-family="Helvetica,sans-Serif" font-size="10.00">test_ecdsa_end_to_end</text>
</a>
</g>
</g>
<!-- Node74&#45;&gt;Node120 -->
<g id="edge34" class="edge"><title>Node74&#45;&gt;Node120</title>
<path fill="none" stroke="midnightblue" d="M258.978,-710.876C277.701,-721.083 303.96,-734.665 328,-744.5 336.394,-747.934 345.652,-751.138 354.331,-753.901"/>
<polygon fill="midnightblue" stroke="midnightblue" points="260.628,-707.789 250.181,-706.026 257.248,-713.919 260.628,-707.789"/>
</g>
<!-- Node122 -->
<g id="node33" class="node"><title>Node122</title>
<g id="a_node33"><a xlink:href="tests_8c.html#abbcb27d1eb13654db9b2e281ffce021e" target="_top" xlink:title="test_ecdsa_edge_cases">
<polygon fill="white" stroke="black" points="328,-716 328,-735 450,-735 450,-716 328,-716"/>
<text text-anchor="middle" x="389" y="-723" font-family="Helvetica,sans-Serif" font-size="10.00">test_ecdsa_edge_cases</text>
</a>
</g>
</g>
<!-- Node74&#45;&gt;Node122 -->
<g id="edge37" class="edge"><title>Node74&#45;&gt;Node122</title>
<path fill="none" stroke="midnightblue" d="M294.647,-707.978C308.782,-710.631 323.669,-713.425 337.3,-715.983"/>
<polygon fill="midnightblue" stroke="midnightblue" points="294.991,-704.481 284.517,-706.076 293.7,-711.361 294.991,-704.481"/>
</g>
<!-- Node76 -->
<g id="node9" class="node"><title>Node76</title>
<g id="a_node9"><a xlink:href="class_c_alert.html#ab1ca9ece010b37dd4dd1d1514a316bf8" target="_top" xlink:title="CAlert::Sign">
<polygon fill="white" stroke="black" points="521.5,-552 521.5,-571 591.5,-571 591.5,-552 521.5,-552"/>
<text text-anchor="middle" x="556.5" y="-559" font-family="Helvetica,sans-Serif" font-size="10.00">CAlert::Sign</text>
</a>
</g>
</g>
<!-- Node75&#45;&gt;Node76 -->
<g id="edge9" class="edge"><title>Node75&#45;&gt;Node76</title>
<path fill="none" stroke="midnightblue" d="M432.851,-561.5C460.433,-561.5 495.789,-561.5 521.448,-561.5"/>
<polygon fill="midnightblue" stroke="midnightblue" points="432.698,-558 422.697,-561.5 432.697,-565 432.698,-558"/>
</g>
<!-- Node82 -->
<g id="node12" class="node"><title>Node82</title>
<g id="a_node12"><a xlink:href="class_c_key.html#ac53425b8d0f89067bce781c485101b20" target="_top" xlink:title="Verify thoroughly whether a private key and a public key match. ">
<polygon fill="white" stroke="black" points="503,-514 503,-533 610,-533 610,-514 503,-514"/>
<text text-anchor="middle" x="556.5" y="-521" font-family="Helvetica,sans-Serif" font-size="10.00">CKey::VerifyPubKey</text>
</a>
</g>
</g>
<!-- Node75&#45;&gt;Node82 -->
<g id="edge12" class="edge"><title>Node75&#45;&gt;Node82</title>
<path fill="none" stroke="midnightblue" d="M432.648,-551.708C457.696,-545.956 489.21,-538.721 514.048,-533.018"/>
<polygon fill="midnightblue" stroke="midnightblue" points="431.661,-548.343 422.697,-553.992 433.227,-555.166 431.661,-548.343"/>
</g>
<!-- Node114 -->
<g id="node25" class="node"><title>Node114</title>
<g id="a_node25"><a xlink:href="class_transaction_signature_creator.html#a02115adb0c60be7f118fbf383072f820" target="_top" xlink:title="Create a singular (non&#45;script) signature. ">
<polygon fill="white" stroke="black" points="486,-590.5 486,-620.5 627,-620.5 627,-590.5 486,-590.5"/>
<text text-anchor="start" x="494" y="-608.5" font-family="Helvetica,sans-Serif" font-size="10.00">TransactionSignatureCreator</text>
<text text-anchor="middle" x="556.5" y="-597.5" font-family="Helvetica,sans-Serif" font-size="10.00">::CreateSig</text>
</a>
</g>
</g>
<!-- Node75&#45;&gt;Node114 -->
<g id="edge26" class="edge"><title>Node75&#45;&gt;Node114</title>
<path fill="none" stroke="midnightblue" d="M432.563,-572.816C452.809,-578.199 477.295,-584.708 499.067,-590.497"/>
<polygon fill="midnightblue" stroke="midnightblue" points="433.261,-569.38 422.697,-570.193 431.462,-576.145 433.261,-569.38"/>
</g>
<!-- Node77 -->
<g id="node10" class="node"><title>Node77</title>
<g id="a_node10"><a xlink:href="sendalert_8cpp.html#a09cc51753d54f8f68e61c9b97e54fc28" target="_top" xlink:title="ThreadSendAlert">
<polygon fill="white" stroke="black" points="697,-685 697,-704 786,-704 786,-685 697,-685"/>
<text text-anchor="middle" x="741.5" y="-692" font-family="Helvetica,sans-Serif" font-size="10.00">ThreadSendAlert</text>
</a>
</g>
</g>
<!-- Node76&#45;&gt;Node77 -->
<g id="edge10" class="edge"><title>Node76&#45;&gt;Node77</title>
<path fill="none" stroke="midnightblue" d="M601.691,-566.945C610.893,-569.792 619.93,-574.074 627,-580.5 660.413,-610.869 629.189,-645.575 663,-675.5 672.336,-683.763 684.687,-688.565 696.778,-691.317"/>
<polygon fill="midnightblue" stroke="midnightblue" points="602.284,-563.484 591.727,-564.387 600.543,-570.264 602.284,-563.484"/>
</g>
<!-- Node78 -->
<g id="node11" class="node"><title>Node78</title>
<g id="a_node11"><a xlink:href="init_8h.html#a6f0784aa332573f949b0975205572b28" target="_top" xlink:title="Initialize Dash Core. ">
<polygon fill="white" stroke="red" points="1053,-666 1053,-685 1106,-685 1106,-666 1053,-666"/>
<text text-anchor="middle" x="1079.5" y="-673" font-family="Helvetica,sans-Serif" font-size="10.00">AppInit2</text>
</a>
</g>
</g>
<!-- Node77&#45;&gt;Node78 -->
<g id="edge11" class="edge"><title>Node77&#45;&gt;Node78</title>
<path fill="none" stroke="midnightblue" d="M796.499,-691.446C869.916,-687.295 998.315,-680.034 1052.84,-676.951"/>
<polygon fill="midnightblue" stroke="midnightblue" points="795.868,-687.976 786.082,-692.036 796.263,-694.965 795.868,-687.976"/>
</g>
<!-- Node83 -->
<g id="node13" class="node"><title>Node83</title>
<g id="a_node13"><a xlink:href="class_c_key.html#a141751588f8bfe5f1b6fc27f4e64b63f" target="_top" xlink:title="Load private key and check that public key matches. ">
<polygon fill="white" stroke="black" points="707.5,-495 707.5,-514 775.5,-514 775.5,-495 707.5,-495"/>
<text text-anchor="middle" x="741.5" y="-502" font-family="Helvetica,sans-Serif" font-size="10.00">CKey::Load</text>
</a>
</g>
</g>
<!-- Node82&#45;&gt;Node83 -->
<g id="edge13" class="edge"><title>Node82&#45;&gt;Node83</title>
<path fill="none" stroke="midnightblue" d="M620.54,-516.955C649.688,-513.929 683.115,-510.458 707.267,-507.95"/>
<polygon fill="midnightblue" stroke="midnightblue" points="620.016,-513.49 610.431,-518.004 620.739,-520.453 620.016,-513.49"/>
</g>
<!-- Node90 -->
<g id="node15" class="node"><title>Node90</title>
<g id="a_node15"><a xlink:href="key_8h.html#a55cc40f04bf887c1000667caccb0684a" target="_top" xlink:title="Check that required EC support is available at runtime. ">
<polygon fill="white" stroke="black" points="685,-647 685,-666 798,-666 798,-647 685,-647"/>
<text text-anchor="middle" x="741.5" y="-654" font-family="Helvetica,sans-Serif" font-size="10.00">ECC_InitSanityCheck</text>
</a>
</g>
</g>
<!-- Node82&#45;&gt;Node90 -->
<g id="edge15" class="edge"><title>Node82&#45;&gt;Node90</title>
<path fill="none" stroke="midnightblue" d="M619.006,-536.556C621.857,-538.299 624.547,-540.27 627,-542.5 660.413,-572.869 629.189,-607.575 663,-637.5 669.224,-643.009 676.788,-646.979 684.722,-649.829"/>
<polygon fill="midnightblue" stroke="midnightblue" points="620.54,-533.41 610.042,-531.982 617.359,-539.645 620.54,-533.41"/>
</g>
<!-- Node92 -->
<g id="node17" class="node"><title>Node92</title>
<g id="a_node17"><a xlink:href="crypter_8cpp.html#a706e11496e7a89bd65def6cce072ca77" target="_top" xlink:title="DecryptKey">
<polygon fill="white" stroke="black" points="707.5,-457 707.5,-476 775.5,-476 775.5,-457 707.5,-457"/>
<text text-anchor="middle" x="741.5" y="-464" font-family="Helvetica,sans-Serif" font-size="10.00">DecryptKey</text>
</a>
</g>
</g>
<!-- Node82&#45;&gt;Node92 -->
<g id="edge18" class="edge"><title>Node82&#45;&gt;Node92</title>
<path fill="none" stroke="midnightblue" d="M591.517,-510.217C612.041,-502.461 638.815,-492.798 663,-485.5 677.456,-481.138 693.652,-477.046 707.485,-473.785"/>
<polygon fill="midnightblue" stroke="midnightblue" points="590.079,-507.019 581.982,-513.852 592.573,-513.56 590.079,-507.019"/>
</g>
<!-- Node109 -->
<g id="node20" class="node"><title>Node109</title>
<g id="a_node20"><a xlink:href="rpcdump_8cpp.html#ace3f8652191a347b888627b8e0a1d17c" target="_top" xlink:title="importprivkey">
<polygon fill="white" stroke="black" points="704,-419 704,-438 779,-438 779,-419 704,-419"/>
<text text-anchor="middle" x="741.5" y="-426" font-family="Helvetica,sans-Serif" font-size="10.00">importprivkey</text>
</a>
</g>
</g>
<!-- Node82&#45;&gt;Node109 -->
<g id="edge21" class="edge"><title>Node82&#45;&gt;Node109</title>
<path fill="none" stroke="midnightblue" d="M575.696,-507C595.697,-489.717 629.463,-462.976 663,-447.5 675.704,-441.637 690.447,-437.443 703.643,-434.514"/>
<polygon fill="midnightblue" stroke="midnightblue" points="573.202,-504.533 568.008,-513.767 577.827,-509.787 573.202,-504.533"/>
</g>
<!-- Node110 -->
<g id="node21" class="node"><title>Node110</title>
<g id="a_node21"><a xlink:href="rpcdump_8cpp.html#a71dce63ec2a80b836bab5f31fef8da46" target="_top" xlink:title="importwallet">
<polygon fill="white" stroke="black" points="707,-381 707,-400 776,-400 776,-381 707,-381"/>
<text text-anchor="middle" x="741.5" y="-388" font-family="Helvetica,sans-Serif" font-size="10.00">importwallet</text>
</a>
</g>
</g>
<!-- Node82&#45;&gt;Node110 -->
<g id="edge22" class="edge"><title>Node82&#45;&gt;Node110</title>
<path fill="none" stroke="midnightblue" d="M569.099,-505.419C586.394,-479.979 621.404,-433.998 663,-409.5 676.25,-401.696 692.58,-397.088 706.828,-394.371"/>
<polygon fill="midnightblue" stroke="midnightblue" points="566.161,-503.516 563.549,-513.784 571.994,-507.386 566.161,-503.516"/>
</g>
<!-- Node111 -->
<g id="node22" class="node"><title>Node111</title>
<g id="a_node22"><a xlink:href="rpcdump_8cpp.html#accfe82c51846b7751eaae727e7f56631" target="_top" xlink:title="importelectrumwallet">
<polygon fill="white" stroke="black" points="688,-609 688,-628 795,-628 795,-609 688,-609"/>
<text text-anchor="middle" x="741.5" y="-616" font-family="Helvetica,sans-Serif" font-size="10.00">importelectrumwallet</text>
</a>
</g>
</g>
<!-- Node82&#45;&gt;Node111 -->
<g id="edge23" class="edge"><title>Node82&#45;&gt;Node111</title>
<path fill="none" stroke="midnightblue" d="M618.938,-537.413C621.761,-538.936 624.468,-540.626 627,-542.5 651.084,-560.326 638.683,-581.994 663,-599.5 670.308,-604.761 678.901,-608.575 687.656,-611.338"/>
<polygon fill="midnightblue" stroke="midnightblue" points="620.148,-534.117 609.602,-533.095 617.209,-540.47 620.148,-534.117"/>
</g>
<!-- Node112 -->
<g id="node23" class="node"><title>Node112</title>
<g id="a_node23"><a xlink:href="group__map_wallet.html#ga8495da27a11e957d31d7cf6e60c7422d" target="_top" xlink:title="keystore implementation Generate a new key ">
<polygon fill="white" stroke="black" points="674,-571 674,-590 809,-590 809,-571 674,-571"/>
<text text-anchor="middle" x="741.5" y="-578" font-family="Helvetica,sans-Serif" font-size="10.00">CWallet::GenerateNewKey</text>
</a>
</g>
</g>
<!-- Node82&#45;&gt;Node112 -->
<g id="edge24" class="edge"><title>Node82&#45;&gt;Node112</title>
<path fill="none" stroke="midnightblue" d="M608.34,-536.007C614.693,-537.976 621.045,-540.147 627,-542.5 643.826,-549.147 646.087,-555.076 663,-561.5 672.713,-565.189 683.386,-568.348 693.624,-570.97"/>
<polygon fill="midnightblue" stroke="midnightblue" points="608.996,-532.552 598.414,-533.084 607.018,-539.267 608.996,-532.552"/>
</g>
<!-- Node113 -->
<g id="node24" class="node"><title>Node113</title>
<g id="a_node24"><a xlink:href="group__map_wallet.html#ga76beb4aa57afa52c8fca1f84784f29f0" target="_top" xlink:title="CWallet::DeriveNewChildKey">
<polygon fill="white" stroke="black" points="668.5,-533 668.5,-552 814.5,-552 814.5,-533 668.5,-533"/>
<text text-anchor="middle" x="741.5" y="-540" font-family="Helvetica,sans-Serif" font-size="10.00">CWallet::DeriveNewChildKey</text>
</a>
</g>
</g>
<!-- Node82&#45;&gt;Node113 -->
<g id="edge25" class="edge"><title>Node82&#45;&gt;Node113</title>
<path fill="none" stroke="midnightblue" d="M620.378,-530.028C635.811,-531.631 652.452,-533.358 668.286,-535.002"/>
<polygon fill="midnightblue" stroke="midnightblue" points="620.739,-526.547 610.431,-528.996 620.016,-533.51 620.739,-526.547"/>
</g>
<!-- Node84 -->
<g id="node14" class="node"><title>Node84</title>
<g id="a_node14"><a xlink:href="walletdb_8cpp.html#ad1f171cf096f5479805a06fc20480343" target="_top" xlink:title="ReadKeyValue">
<polygon fill="white" stroke="red" points="895.5,-514 895.5,-533 977.5,-533 977.5,-514 895.5,-514"/>
<text text-anchor="middle" x="936.5" y="-521" font-family="Helvetica,sans-Serif" font-size="10.00">ReadKeyValue</text>
</a>
</g>
</g>
<!-- Node83&#45;&gt;Node84 -->
<g id="edge14" class="edge"><title>Node83&#45;&gt;Node84</title>
<path fill="none" stroke="midnightblue" d="M785.884,-508.771C818.703,-512.002 863.428,-516.405 895.411,-519.553"/>
<polygon fill="midnightblue" stroke="midnightblue" points="785.973,-505.263 775.678,-507.766 785.287,-512.229 785.973,-505.263"/>
</g>
<!-- Node91 -->
<g id="node16" class="node"><title>Node91</title>
<g id="a_node16"><a xlink:href="init_8cpp.html#a878797b40fb8eb0d7f330a41d7742d11" target="_top" xlink:title="Sanity checks Ensure that Dash Core is running in a usable environment with all necessary library sup...">
<polygon fill="white" stroke="black" points="893.5,-647 893.5,-666 979.5,-666 979.5,-647 893.5,-647"/>
<text text-anchor="middle" x="936.5" y="-654" font-family="Helvetica,sans-Serif" font-size="10.00">InitSanityCheck</text>
</a>
</g>
</g>
<!-- Node90&#45;&gt;Node91 -->
<g id="edge16" class="edge"><title>Node90&#45;&gt;Node91</title>
<path fill="none" stroke="midnightblue" d="M808.258,-656.5C836.463,-656.5 868.58,-656.5 893.49,-656.5"/>
<polygon fill="midnightblue" stroke="midnightblue" points="808.065,-653 798.065,-656.5 808.065,-660 808.065,-653"/>
</g>
<!-- Node91&#45;&gt;Node78 -->
<g id="edge17" class="edge"><title>Node91&#45;&gt;Node78</title>
<path fill="none" stroke="midnightblue" d="M989.77,-663.544C1011.2,-666.431 1035.04,-669.644 1052.61,-672.012"/>
<polygon fill="midnightblue" stroke="midnightblue" points="990.183,-660.068 979.805,-662.201 989.248,-667.005 990.183,-660.068"/>
</g>
<!-- Node93 -->
<g id="node18" class="node"><title>Node93</title>
<g id="a_node18"><a xlink:href="class_c_crypto_key_store.html#a0717bc91b52f267df77e61870211ca62" target="_top" xlink:title="CCryptoKeyStore::Unlock">
<polygon fill="white" stroke="red" points="871,-438 871,-457 1002,-457 1002,-438 871,-438"/>
<text text-anchor="middle" x="936.5" y="-445" font-family="Helvetica,sans-Serif" font-size="10.00">CCryptoKeyStore::Unlock</text>
</a>
</g>
</g>
<!-- Node92&#45;&gt;Node93 -->
<g id="edge19" class="edge"><title>Node92&#45;&gt;Node93</title>
<path fill="none" stroke="midnightblue" d="M785.945,-462.223C810.961,-459.76 842.88,-456.618 870.8,-453.869"/>
<polygon fill="midnightblue" stroke="midnightblue" points="785.287,-458.771 775.678,-463.234 785.973,-465.737 785.287,-458.771"/>
</g>
<!-- Node103 -->
<g id="node19" class="node"><title>Node103</title>
<g id="a_node19"><a xlink:href="class_c_crypto_key_store.html#af46ec271fffb65a113702ba40a3738c8" target="_top" xlink:title="CCryptoKeyStore::GetKey">
<polygon fill="white" stroke="red" points="870,-476 870,-495 1003,-495 1003,-476 870,-476"/>
<text text-anchor="middle" x="936.5" y="-483" font-family="Helvetica,sans-Serif" font-size="10.00">CCryptoKeyStore::GetKey</text>
</a>
</g>
</g>
<!-- Node92&#45;&gt;Node103 -->
<g id="edge20" class="edge"><title>Node92&#45;&gt;Node103</title>
<path fill="none" stroke="midnightblue" d="M785.812,-470.764C810.494,-473.194 841.927,-476.288 869.611,-479.013"/>
<polygon fill="midnightblue" stroke="midnightblue" points="785.973,-467.263 775.678,-469.766 785.287,-474.229 785.973,-467.263"/>
</g>
<!-- Node116 -->
<g id="node27" class="node"><title>Node116</title>
<g id="a_node27"><a xlink:href="bench__sign_8c.html#a840291bc02cba5474a4cb46a9b9566fe" target="_top" xlink:title="main">
<polygon fill="white" stroke="black" points="537.5,-678 537.5,-697 575.5,-697 575.5,-678 537.5,-678"/>
<text text-anchor="middle" x="556.5" y="-685" font-family="Helvetica,sans-Serif" font-size="10.00">main</text>
</a>
</g>
</g>
<!-- Node115&#45;&gt;Node116 -->
<g id="edge28" class="edge"><title>Node115&#45;&gt;Node116</title>
<path fill="none" stroke="midnightblue" d="M432.389,-659.233C466.237,-667.005 512.018,-677.516 537.129,-683.282"/>
<polygon fill="midnightblue" stroke="midnightblue" points="432.833,-655.744 422.303,-656.917 431.266,-662.566 432.833,-655.744"/>
</g>
<!-- Node119 -->
<g id="node30" class="node"><title>Node119</title>
<g id="a_node30"><a xlink:href="recovery_2tests__impl_8h.html#a3a06f71955483e9502f3c408857407f2" target="_top" xlink:title="run_recovery_tests">
<polygon fill="white" stroke="black" points="506.5,-640 506.5,-659 606.5,-659 606.5,-640 506.5,-640"/>
<text text-anchor="middle" x="556.5" y="-647" font-family="Helvetica,sans-Serif" font-size="10.00">run_recovery_tests</text>
</a>
</g>
</g>
<!-- Node118&#45;&gt;Node119 -->
<g id="edge31" class="edge"><title>Node118&#45;&gt;Node119</title>
<path fill="none" stroke="midnightblue" d="M452.702,-622.17C475.33,-628.186 500.086,-634.768 519.633,-639.964"/>
<polygon fill="midnightblue" stroke="midnightblue" points="453.384,-618.73 442.82,-619.543 451.585,-625.495 453.384,-618.73"/>
</g>
<!-- Node119&#45;&gt;Node72 -->
<g id="edge32" class="edge"><title>Node119&#45;&gt;Node72</title>
<path fill="none" stroke="midnightblue" d="M616.238,-662.591C620.001,-664.323 623.627,-666.283 627,-668.5 648.403,-682.567 643.991,-696.334 663,-713.5 681.419,-730.134 705.945,-744.955 722.43,-754.06"/>
<polygon fill="midnightblue" stroke="midnightblue" points="617.254,-659.227 606.67,-658.736 614.638,-665.72 617.254,-659.227"/>
</g>
<!-- Node121 -->
<g id="node32" class="node"><title>Node121</title>
<g id="a_node32"><a xlink:href="tests_8c.html#ab05096657be701bf9ca8616475bb9491" target="_top" xlink:title="run_ecdsa_end_to_end">
<polygon fill="white" stroke="black" points="498,-754 498,-773 615,-773 615,-754 498,-754"/>
<text text-anchor="middle" x="556.5" y="-761" font-family="Helvetica,sans-Serif" font-size="10.00">run_ecdsa_end_to_end</text>
</a>
</g>
</g>
<!-- Node120&#45;&gt;Node121 -->
<g id="edge35" class="edge"><title>Node120&#45;&gt;Node121</title>
<path fill="none" stroke="midnightblue" d="M459.401,-763.5C472.165,-763.5 485.365,-763.5 497.741,-763.5"/>
<polygon fill="midnightblue" stroke="midnightblue" points="459.282,-760 449.282,-763.5 459.282,-767 459.282,-760"/>
</g>
<!-- Node121&#45;&gt;Node72 -->
<g id="edge36" class="edge"><title>Node121&#45;&gt;Node72</title>
<path fill="none" stroke="midnightblue" d="M625.277,-763.5C660.024,-763.5 699.674,-763.5 722.232,-763.5"/>
<polygon fill="midnightblue" stroke="midnightblue" points="625.151,-760 615.151,-763.5 625.151,-767 625.151,-760"/>
</g>
<!-- Node123 -->
<g id="node34" class="node"><title>Node123</title>
<g id="a_node34"><a xlink:href="tests_8c.html#ad6c8109b62ea1d0ed1b382678a2a08b1" target="_top" xlink:title="run_ecdsa_edge_cases">
<polygon fill="white" stroke="black" points="497,-716 497,-735 616,-735 616,-716 497,-716"/>
<text text-anchor="middle" x="556.5" y="-723" font-family="Helvetica,sans-Serif" font-size="10.00">run_ecdsa_edge_cases</text>
</a>
</g>
</g>
<!-- Node122&#45;&gt;Node123 -->
<g id="edge38" class="edge"><title>Node122&#45;&gt;Node123</title>
<path fill="none" stroke="midnightblue" d="M460.36,-725.5C472.566,-725.5 485.139,-725.5 496.986,-725.5"/>
<polygon fill="midnightblue" stroke="midnightblue" points="460.218,-722 450.217,-725.5 460.217,-729 460.218,-722"/>
</g>
<!-- Node123&#45;&gt;Node72 -->
<g id="edge39" class="edge"><title>Node123&#45;&gt;Node72</title>
<path fill="none" stroke="midnightblue" d="M613.908,-737.213C651.123,-744.941 697.466,-754.564 722.473,-759.757"/>
<polygon fill="midnightblue" stroke="midnightblue" points="614.181,-733.695 603.679,-735.089 612.758,-740.549 614.181,-733.695"/>
</g>
<!-- Node124&#45;&gt;Node118 -->
<g id="edge56" class="edge"><title>Node124&#45;&gt;Node118</title>
<path fill="none" stroke="midnightblue" d="M302.422,-605.5C313.487,-605.5 324.784,-605.5 335.388,-605.5"/>
<polygon fill="midnightblue" stroke="midnightblue" points="302.351,-602 292.351,-605.5 302.351,-609 302.351,-602"/>
</g>
<!-- Node125 -->
<g id="node36" class="node"><title>Node125</title>
<g id="a_node36"><a xlink:href="class_c_key.html#afe77d80889aa68e92e6882e75424cfb8" target="_top" xlink:title="Create a compact signature (65 bytes), which allows reconstructing the used public key...">
<polygon fill="white" stroke="black" points="335.5,-324 335.5,-343 442.5,-343 442.5,-324 335.5,-324"/>
<text text-anchor="middle" x="389" y="-331" font-family="Helvetica,sans-Serif" font-size="10.00">CKey::SignCompact</text>
</a>
</g>
</g>
<!-- Node124&#45;&gt;Node125 -->
<g id="edge41" class="edge"><title>Node124&#45;&gt;Node125</title>
<path fill="none" stroke="midnightblue" d="M246.973,-581.78C279.43,-524.639 360.873,-381.258 382.601,-343.004"/>
<polygon fill="midnightblue" stroke="midnightblue" points="243.922,-580.065 242.027,-590.489 250.009,-583.522 243.922,-580.065"/>
</g>
<!-- Node126 -->
<g id="node37" class="node"><title>Node126</title>
<g id="a_node37"><a xlink:href="class_c_hash_signer.html#a283dca9acf09fcfa28cc4541ab211466" target="_top" xlink:title="Sign the hash, returns true if successful. ">
<polygon fill="white" stroke="black" points="494.5,-348 494.5,-367 618.5,-367 618.5,-348 494.5,-348"/>
<text text-anchor="middle" x="556.5" y="-355" font-family="Helvetica,sans-Serif" font-size="10.00">CHashSigner::SignHash</text>
</a>
</g>
</g>
<!-- Node125&#45;&gt;Node126 -->
<g id="edge42" class="edge"><title>Node125&#45;&gt;Node126</title>
<path fill="none" stroke="midnightblue" d="M452.991,-342.635C466.515,-344.596 480.787,-346.665 494.244,-348.617"/>
<polygon fill="midnightblue" stroke="midnightblue" points="453.219,-339.131 442.82,-341.16 452.214,-346.059 453.219,-339.131"/>
</g>
<!-- Node105 -->
<g id="node49" class="node"><title>Node105</title>
<g id="a_node49"><a xlink:href="class_sign_verify_message_dialog.html#a2ef91b4ace68d63ab1c1d3cc6c13b5f9" target="_top" xlink:title="SignVerifyMessageDialog\l::on_signMessageButton\l_SM_clicked">
<polygon fill="white" stroke="black" points="492,-288 492,-329 621,-329 621,-288 492,-288"/>
<text text-anchor="start" x="500" y="-317" font-family="Helvetica,sans-Serif" font-size="10.00">SignVerifyMessageDialog</text>
<text text-anchor="start" x="500" y="-306" font-family="Helvetica,sans-Serif" font-size="10.00">::on_signMessageButton</text>
<text text-anchor="middle" x="556.5" y="-295" font-family="Helvetica,sans-Serif" font-size="10.00">_SM_clicked</text>
</a>
</g>
</g>
<!-- Node125&#45;&gt;Node105 -->
<g id="edge54" class="edge"><title>Node125&#45;&gt;Node105</title>
<path fill="none" stroke="midnightblue" d="M452.892,-324C465.661,-322.071 479.1,-320.041 491.893,-318.108"/>
<polygon fill="midnightblue" stroke="midnightblue" points="452.185,-320.567 442.82,-325.521 453.231,-327.488 452.185,-320.567"/>
</g>
<!-- Node108 -->
<g id="node50" class="node"><title>Node108</title>
<g id="a_node50"><a xlink:href="rpcwallet_8cpp.html#a95d30866deb9a289859518f21b6ec721" target="_top" xlink:title="signmessage">
<polygon fill="white" stroke="black" points="519.5,-250 519.5,-269 593.5,-269 593.5,-250 519.5,-250"/>
<text text-anchor="middle" x="556.5" y="-257" font-family="Helvetica,sans-Serif" font-size="10.00">signmessage</text>
</a>
</g>
</g>
<!-- Node125&#45;&gt;Node108 -->
<g id="edge55" class="edge"><title>Node125&#45;&gt;Node108</title>
<path fill="none" stroke="midnightblue" d="M412.566,-318.379C431.508,-306.232 459.626,-289.451 486,-278.5 496.513,-274.135 508.333,-270.472 519.204,-267.564"/>
<polygon fill="midnightblue" stroke="midnightblue" points="410.522,-315.533 404.052,-323.923 414.342,-321.399 410.522,-315.533"/>
</g>
<!-- Node127 -->
<g id="node38" class="node"><title>Node127</title>
<g id="a_node38"><a xlink:href="class_c_message_signer.html#a667ae72604fd6a0da8d9d53c55523ff0" target="_top" xlink:title="Sign the message, returns true if successful. ">
<polygon fill="white" stroke="red" points="663,-219 663,-238 820,-238 820,-219 663,-219"/>
<text text-anchor="middle" x="741.5" y="-226" font-family="Helvetica,sans-Serif" font-size="10.00">CMessageSigner::SignMessage</text>
</a>
</g>
</g>
<!-- Node126&#45;&gt;Node127 -->
<g id="edge43" class="edge"><title>Node126&#45;&gt;Node127</title>
<path fill="none" stroke="midnightblue" d="M614.653,-344.441C618.939,-342.693 623.105,-340.721 627,-338.5 674.673,-311.312 717.132,-259.466 733.426,-238.085"/>
<polygon fill="midnightblue" stroke="midnightblue" points="613.327,-341.199 605.139,-347.923 615.732,-347.773 613.327,-341.199"/>
</g>
<!-- Node128 -->
<g id="node39" class="node"><title>Node128</title>
<g id="a_node39"><a xlink:href="class_c_governance_object.html#a1ac3561fed7eb1837d55516a8a2646ba" target="_top" xlink:title="CGovernanceObject::Sign">
<polygon fill="white" stroke="red" points="871,-175 871,-194 1002,-194 1002,-175 871,-175"/>
<text text-anchor="middle" x="936.5" y="-182" font-family="Helvetica,sans-Serif" font-size="10.00">CGovernanceObject::Sign</text>
</a>
</g>
</g>
<!-- Node127&#45;&gt;Node128 -->
<g id="edge44" class="edge"><title>Node127&#45;&gt;Node128</title>
<path fill="none" stroke="midnightblue" d="M794.189,-216.716C825.345,-209.613 864.511,-200.684 893.704,-194.029"/>
<polygon fill="midnightblue" stroke="midnightblue" points="793.35,-213.317 784.378,-218.953 794.906,-220.142 793.35,-213.317"/>
</g>
<!-- Node130 -->
<g id="node40" class="node"><title>Node130</title>
<g id="a_node40"><a xlink:href="class_c_governance_vote.html#ad8c4ed6faefac545b39e208debd36b9b" target="_top" xlink:title="CGovernanceVote::Sign">
<polygon fill="white" stroke="red" points="875.5,-137 875.5,-156 997.5,-156 997.5,-137 875.5,-137"/>
<text text-anchor="middle" x="936.5" y="-144" font-family="Helvetica,sans-Serif" font-size="10.00">CGovernanceVote::Sign</text>
</a>
</g>
</g>
<!-- Node127&#45;&gt;Node130 -->
<g id="edge45" class="edge"><title>Node127&#45;&gt;Node130</title>
<path fill="none" stroke="midnightblue" d="M765.359,-213.36C787.658,-199.194 822.952,-178.343 856,-165.5 865.523,-161.799 875.979,-158.677 886.088,-156.101"/>
<polygon fill="midnightblue" stroke="midnightblue" points="763.433,-210.437 756.922,-218.796 767.224,-216.322 763.433,-210.437"/>
</g>
<!-- Node131 -->
<g id="node41" class="node"><title>Node131</title>
<g id="a_node41"><a xlink:href="class_c_tx_lock_vote.html#a043595d6c0fcece35a440cdc7ba3c2af" target="_top" xlink:title="CTxLockVote::Sign">
<polygon fill="white" stroke="red" points="885.5,-99 885.5,-118 987.5,-118 987.5,-99 885.5,-99"/>
<text text-anchor="middle" x="936.5" y="-106" font-family="Helvetica,sans-Serif" font-size="10.00">CTxLockVote::Sign</text>
</a>
</g>
</g>
<!-- Node127&#45;&gt;Node131 -->
<g id="edge46" class="edge"><title>Node127&#45;&gt;Node131</title>
<path fill="none" stroke="midnightblue" d="M757.215,-210.854C777.201,-188.067 815.149,-148.814 856,-127.5 865.059,-122.774 875.31,-119.203 885.367,-116.512"/>
<polygon fill="midnightblue" stroke="midnightblue" points="754.328,-208.843 750.466,-218.709 759.638,-213.405 754.328,-208.843"/>
</g>
<!-- Node160 -->
<g id="node42" class="node"><title>Node160</title>
<g id="a_node42"><a xlink:href="class_c_masternode_payment_vote.html#a7e3cb1b9bbd3c03500facbea2a66de5d" target="_top" xlink:title="CMasternodePaymentVote\l::Sign">
<polygon fill="white" stroke="black" points="869.5,-49.5 869.5,-79.5 1003.5,-79.5 1003.5,-49.5 869.5,-49.5"/>
<text text-anchor="start" x="877.5" y="-67.5" font-family="Helvetica,sans-Serif" font-size="10.00">CMasternodePaymentVote</text>
<text text-anchor="middle" x="936.5" y="-56.5" font-family="Helvetica,sans-Serif" font-size="10.00">::Sign</text>
</a>
</g>
</g>
<!-- Node127&#45;&gt;Node160 -->
<g id="edge47" class="edge"><title>Node127&#45;&gt;Node160</title>
<path fill="none" stroke="midnightblue" d="M752.815,-209.852C770.225,-180.069 808.26,-121.837 856,-89.5 861.63,-85.6864 867.873,-82.4305 874.313,-79.6559"/>
<polygon fill="midnightblue" stroke="midnightblue" points="749.634,-208.363 747.717,-218.783 755.714,-211.833 749.634,-208.363"/>
</g>
<!-- Node161 -->
<g id="node43" class="node"><title>Node161</title>
<g id="a_node43"><a xlink:href="class_c_masternode_broadcast.html#a2603223b2d8123005944d5e8fdb97ff9" target="_top" xlink:title="CMasternodeBroadcast\l::Sign">
<polygon fill="white" stroke="black" points="877,-0.5 877,-30.5 996,-30.5 996,-0.5 877,-0.5"/>
<text text-anchor="start" x="885" y="-18.5" font-family="Helvetica,sans-Serif" font-size="10.00">CMasternodeBroadcast</text>
<text text-anchor="middle" x="936.5" y="-7.5" font-family="Helvetica,sans-Serif" font-size="10.00">::Sign</text>
</a>
</g>
</g>
<!-- Node127&#45;&gt;Node161 -->
<g id="edge48" class="edge"><title>Node127&#45;&gt;Node161</title>
<path fill="none" stroke="midnightblue" d="M748.778,-209.098C762.163,-170.814 797.18,-85.3005 856,-39.5 862.143,-34.7169 869.231,-30.8838 876.593,-27.8128"/>
<polygon fill="midnightblue" stroke="midnightblue" points="745.327,-208.377 745.444,-218.971 751.959,-210.616 745.327,-208.377"/>
</g>
<!-- Node162 -->
<g id="node44" class="node"><title>Node162</title>
<g id="a_node44"><a xlink:href="class_c_masternode_ping.html#aec087812841840e98833673a88abcf07" target="_top" xlink:title="CMasternodePing::Sign">
<polygon fill="white" stroke="red" points="876.5,-400 876.5,-419 996.5,-419 996.5,-400 876.5,-400"/>
<text text-anchor="middle" x="936.5" y="-407" font-family="Helvetica,sans-Serif" font-size="10.00">CMasternodePing::Sign</text>
</a>
</g>
</g>
<!-- Node127&#45;&gt;Node162 -->
<g id="edge49" class="edge"><title>Node127&#45;&gt;Node162</title>
<path fill="none" stroke="midnightblue" d="M750.485,-247.585C765.737,-281.619 802.342,-352.664 856,-389.5 862.336,-393.85 869.536,-397.254 876.954,-399.919"/>
<polygon fill="midnightblue" stroke="midnightblue" points="753.64,-246.064 746.442,-238.29 747.221,-248.856 753.64,-246.064"/>
</g>
<!-- Node178 -->
<g id="node45" class="node"><title>Node178</title>
<g id="a_node45"><a xlink:href="class_c_masternode_man.html#a96f55c43bf50fcb9bfc9d045f8f6756e" target="_top" xlink:title="CMasternodeMan::SendVerify\lReply">
<polygon fill="white" stroke="red" points="862.5,-350.5 862.5,-380.5 1010.5,-380.5 1010.5,-350.5 862.5,-350.5"/>
<text text-anchor="start" x="870.5" y="-368.5" font-family="Helvetica,sans-Serif" font-size="10.00">CMasternodeMan::SendVerify</text>
<text text-anchor="middle" x="936.5" y="-357.5" font-family="Helvetica,sans-Serif" font-size="10.00">Reply</text>
</a>
</g>
</g>
<!-- Node127&#45;&gt;Node178 -->
<g id="edge50" class="edge"><title>Node127&#45;&gt;Node178</title>
<path fill="none" stroke="midnightblue" d="M755.89,-246.229C775.345,-270.808 813.749,-315.075 856,-340.5 862.322,-344.305 869.281,-347.585 876.371,-350.4"/>
<polygon fill="midnightblue" stroke="midnightblue" points="758.504,-243.889 749.607,-238.135 752.974,-248.181 758.504,-243.889"/>
</g>
<!-- Node179 -->
<g id="node46" class="node"><title>Node179</title>
<g id="a_node46"><a xlink:href="class_c_masternode_man.html#a9a96a97210dd939754ef496efdf7fe70" target="_top" xlink:title="CMasternodeMan::ProcessVerify\lReply">
<polygon fill="white" stroke="red" points="856,-301.5 856,-331.5 1017,-331.5 1017,-301.5 856,-301.5"/>
<text text-anchor="start" x="864" y="-319.5" font-family="Helvetica,sans-Serif" font-size="10.00">CMasternodeMan::ProcessVerify</text>
<text text-anchor="middle" x="936.5" y="-308.5" font-family="Helvetica,sans-Serif" font-size="10.00">Reply</text>
</a>
</g>
</g>
<!-- Node127&#45;&gt;Node179 -->
<g id="edge51" class="edge"><title>Node127&#45;&gt;Node179</title>
<path fill="none" stroke="midnightblue" d="M765.946,-243.359C788.416,-257.149 823.604,-277.585 856,-291.5 864.375,-295.097 873.443,-298.438 882.355,-301.431"/>
<polygon fill="midnightblue" stroke="midnightblue" points="767.767,-240.37 757.424,-238.072 764.076,-246.318 767.767,-240.37"/>
</g>
<!-- Node180 -->
<g id="node47" class="node"><title>Node180</title>
<g id="a_node47"><a xlink:href="class_c_darksend_queue.html#a8bc4c6d19ac1aca978cfe4342be729ed" target="_top" xlink:title="Sign this mixing transaction. ">
<polygon fill="white" stroke="red" points="876.5,-263 876.5,-282 996.5,-282 996.5,-263 876.5,-263"/>
<text text-anchor="middle" x="936.5" y="-270" font-family="Helvetica,sans-Serif" font-size="10.00">CDarksendQueue::Sign</text>
</a>
</g>
</g>
<!-- Node127&#45;&gt;Node180 -->
<g id="edge52" class="edge"><title>Node127&#45;&gt;Node180</title>
<path fill="none" stroke="midnightblue" d="M794.189,-240.284C825.345,-247.387 864.511,-256.316 893.704,-262.971"/>
<polygon fill="midnightblue" stroke="midnightblue" points="794.906,-236.858 784.378,-238.047 793.35,-243.683 794.906,-236.858"/>
</g>
<!-- Node185 -->
<g id="node48" class="node"><title>Node185</title>
<g id="a_node48"><a xlink:href="class_c_darksend_broadcast_tx.html#a32311f7649758f709e1aae4ed7d64953" target="_top" xlink:title="CDarksendBroadcastTx\l::Sign">
<polygon fill="white" stroke="red" points="875.5,-213.5 875.5,-243.5 997.5,-243.5 997.5,-213.5 875.5,-213.5"/>
<text text-anchor="start" x="883.5" y="-231.5" font-family="Helvetica,sans-Serif" font-size="10.00">CDarksendBroadcastTx</text>
<text text-anchor="middle" x="936.5" y="-220.5" font-family="Helvetica,sans-Serif" font-size="10.00">::Sign</text>
</a>
</g>
</g>
<!-- Node127&#45;&gt;Node185 -->
<g id="edge53" class="edge"><title>Node127&#45;&gt;Node185</title>
<path fill="none" stroke="midnightblue" d="M830.18,-228.5C845.509,-228.5 861.137,-228.5 875.5,-228.5"/>
<polygon fill="midnightblue" stroke="midnightblue" points="830.166,-225 820.166,-228.5 830.166,-232 830.166,-225"/>
</g>
</g>
</svg>
        <g id="navigator" transform="translate(0 0)" fill="#404254">
                <rect fill="#f2f5e9" fill-opacity="0.5" stroke="#606060" stroke-width=".5" x="0" y="0" width="60" height="60"/>
                <use id="zoomplus" xlink:href="#zoomPlus" x="17" y="9" onmousedown="handleZoom(evt,'in')"/>
                <use id="zoomminus" xlink:href="#zoomMin" x="42" y="9" onmousedown="handleZoom(evt,'out')"/>
                <use id="reset" xlink:href="#resetDef" x="30" y="36" onmousedown="handleReset()"/>
                <g id="arrowUp" xlink:href="#dirArrow" transform="translate(30 24)" onmousedown="handlePan(0,-1)">
                  <use xlink:href="#rim" fill="#404040">
                        <set attributeName="fill" to="#808080" begin="arrowUp.mouseover" end="arrowUp.mouseout"/>
                  </use>
                  <path fill="none" stroke="white" stroke-width="1.5" d="M0,-3.0v7 M-2.5,-0.5L0,-3.0L2.5,-0.5"/>
                </g>
                <g id="arrowRight" xlink:href="#dirArrow" transform="rotate(90) translate(36 -43)" onmousedown="handlePan(1,0)">
                  <use xlink:href="#rim" fill="#404040">
                        <set attributeName="fill" to="#808080" begin="arrowRight.mouseover" end="arrowRight.mouseout"/>
                  </use>
                  <path fill="none" stroke="white" stroke-width="1.5" d="M0,-3.0v7 M-2.5,-0.5L0,-3.0L2.5,-0.5"/>
                </g>
                <g id="arrowDown" xlink:href="#dirArrow" transform="rotate(180) translate(-30 -48)" onmousedown="handlePan(0,1)">
                  <use xlink:href="#rim" fill="#404040">
                        <set attributeName="fill" to="#808080" begin="arrowDown.mouseover" end="arrowDown.mouseout"/>
                  </use>
                  <path fill="none" stroke="white" stroke-width="1.5" d="M0,-3.0v7 M-2.5,-0.5L0,-3.0L2.5,-0.5"/>
                </g>
                <g id="arrowLeft" xlink:href="#dirArrow" transform="rotate(270) translate(-36 17)" onmousedown="handlePan(-1,0)">
                  <use xlink:href="#rim" fill="#404040">
                        <set attributeName="fill" to="#808080" begin="arrowLeft.mouseover" end="arrowLeft.mouseout"/>
                  </use>
                  <path fill="none" stroke="white" stroke-width="1.5" d="M0,-3.0v7 M-2.5,-0.5L0,-3.0L2.5,-0.5"/>
                </g>
        </g>
        <svg viewBox="0 0 15 15" width="100%" height="30px" preserveAspectRatio="xMaxYMin meet">
         <g id="arrow_out" transform="scale(0.3 0.3)">
          <a xlink:href="ecdsa_8h_a5bf6905e00ae8571465a52e3165c6e6e_icgraph_org.svg" target="_base">
           <rect id="button" ry="5" rx="5" y="6" x="6" height="38" width="38"
                fill="#f2f5e9" fill-opacity="0.5" stroke="#606060" stroke-width="1.0"/>
           <path id="arrow"
             d="M 11.500037,31.436501 C 11.940474,20.09759 22.043105,11.32322 32.158766,21.979434 L 37.068811,17.246167 C 37.068811,17.246167 37.088388,32 37.088388,32 L 22.160133,31.978069 C 22.160133,31.978069 26.997745,27.140456 26.997745,27.140456 C 18.528582,18.264221 13.291696,25.230495 11.500037,31.436501 z"
             style="fill:#404040;"/>
          </a>
         </g>
        </svg>
</svg>
