<?xml version="1.0" encoding="UTF-8" standalone="no"?>
<!DOCTYPE svg PUBLIC "-//W3C//DTD SVG 1.1//EN"
 "http://www.w3.org/Graphics/SVG/1.1/DTD/svg11.dtd">
<!-- Generated by graphviz version 2.38.0 (20140413.2041)
 -->
<!-- Title: secp256k1_ecmult_const Pages: 1 -->
<!--zoomable 824 -->
<svg id="main" version="1.1" xmlns="http://www.w3.org/2000/svg" xmlns:xlink="http://www.w3.org/1999/xlink" xml:space="preserve" onload="init(evt)">
<style type="text/css"><![CDATA[
.edge:hover path { stroke: red; }
.edge:hover polygon { stroke: red; fill: red; }
]]></style>
<script type="text/javascript"><![CDATA[
var edges = document.getElementsByTagName('g');
if (edges && edges.length) {
  for (var i=0;i<edges.length;i++) {
    if (edges[i].id.substr(0,4)=='edge') {
      edges[i].setAttribute('class','edge');
    }
  }
}
]]></script>
        <defs>
                <circle id="rim" cx="0" cy="0" r="7"/>
                <circle id="rim2" cx="0" cy="0" r="3.5"/>
                <g id="zoomPlus">
                        <use xlink:href="#rim" fill="#404040">
                                <set attributeName="fill" to="#808080" begin="zoomplus.mouseover" end="zoomplus.mouseout"/>
                        </use>
                        <path d="M-4,0h8M0,-4v8" fill="none" stroke="white" stroke-width="1.5" pointer-events="none"/>
                </g>
                <g id="zoomMin">
                        <use xlink:href="#rim" fill="#404040">
                                <set attributeName="fill" to="#808080" begin="zoomminus.mouseover" end="zoomminus.mouseout"/>
                        </use>
                        <path d="M-4,0h8" fill="none" stroke="white" stroke-width="1.5" pointer-events="none"/>
                </g>
                <g id="dirArrow">
                        <path fill="none" stroke="white" stroke-width="1.5" d="M0,-3.0v7 M-2.5,-0.5L0,-3.0L2.5,-0.5"/>
                </g>
               <g id="resetDef">
                       <use xlink:href="#rim2" fill="#404040">
                               <set attributeName="fill" to="#808080" begin="reset.mouseover" end="reset.mouseout"/>
                       </use>
               </g>
        </defs>

<script type="text/javascript">
var viewWidth = 808;
var viewHeight = 824;
var sectionId = 'dynsection-2';
</script>
<script xlink:href="svgpan.js"/>
<svg id="graph" class="graph">
<g id="viewport">
<title>secp256k1_ecmult_const</title>
<polygon fill="white" stroke="none" points="-4,4 -4,-820 804,-820 804,4 -4,4"/>
<!-- Node0 -->
<g id="node1" class="node"><title>Node0</title>
<polygon fill="#bfbfbf" stroke="black" points="0,-461.5 0,-480.5 128,-480.5 128,-461.5 0,-461.5"/>
<text text-anchor="middle" x="64" y="-468.5" font-family="Helvetica,sans-Serif" font-size="10.00">secp256k1_ecmult_const</text>
</g>
<!-- Node1 -->
<g id="node2" class="node"><title>Node1</title>
<g id="a_node2"><a xlink:href="ecmult__impl_8h.html#a33fe27d5aa383017999f80a1cdd8d8ca" target="_top" xlink:title="Fill a table &#39;pre&#39; with precomputed odd multiples of a. ">
<polygon fill="white" stroke="black" points="179,-708.5 179,-749.5 302,-749.5 302,-708.5 179,-708.5"/>
<text text-anchor="start" x="187" y="-737.5" font-family="Helvetica,sans-Serif" font-size="10.00">secp256k1_ecmult_odd</text>
<text text-anchor="start" x="187" y="-726.5" font-family="Helvetica,sans-Serif" font-size="10.00">_multiples_table_globalz</text>
<text text-anchor="middle" x="240.5" y="-715.5" font-family="Helvetica,sans-Serif" font-size="10.00">_windowa</text>
</a>
</g>
</g>
<!-- Node0&#45;&gt;Node1 -->
<g id="edge1" class="edge"><title>Node0&#45;&gt;Node1</title>
<path fill="none" stroke="midnightblue" d="M66.7958,-480.855C73.4679,-514.861 99.8317,-628.779 164,-694 167.163,-697.215 170.678,-700.167 174.411,-702.871"/>
<polygon fill="midnightblue" stroke="midnightblue" points="172.594,-705.865 182.881,-708.403 176.422,-700.004 172.594,-705.865"/>
</g>
<!-- Node3 -->
<g id="node4" class="node"><title>Node3</title>
<g id="a_node4"><a xlink:href="group_8h.html#a033aa434a4d0838f649ad757dd44db46" target="_top" xlink:title="Set r equal to the double of a. ">
<polygon fill="white" stroke="black" points="529,-678.5 529,-697.5 663,-697.5 663,-678.5 529,-678.5"/>
<text text-anchor="middle" x="596" y="-685.5" font-family="Helvetica,sans-Serif" font-size="10.00">secp256k1_gej_double_var</text>
</a>
</g>
</g>
<!-- Node0&#45;&gt;Node3 -->
<g id="edge19" class="edge"><title>Node0&#45;&gt;Node3</title>
<path fill="none" stroke="midnightblue" d="M66.8433,-480.872C73.3786,-512.775 98.6558,-613.489 164,-656 220.587,-692.814 410.573,-693.685 518.464,-690.953"/>
<polygon fill="midnightblue" stroke="midnightblue" points="518.74,-694.447 528.642,-690.678 518.551,-687.449 518.74,-694.447"/>
</g>
<!-- Node6 -->
<g id="node7" class="node"><title>Node6</title>
<g id="a_node7"><a xlink:href="field_8h.html#a542b97d2574d9687c563d002587cf9a2" target="_top" xlink:title="Sets a field element to be the product of two others. ">
<polygon fill="white" stroke="black" points="702,-758.5 702,-777.5 800,-777.5 800,-758.5 702,-758.5"/>
<text text-anchor="middle" x="751" y="-765.5" font-family="Helvetica,sans-Serif" font-size="10.00">secp256k1_fe_mul</text>
</a>
</g>
</g>
<!-- Node0&#45;&gt;Node6 -->
<g id="edge10" class="edge"><title>Node0&#45;&gt;Node6</title>
<path fill="none" stroke="midnightblue" d="M67.9543,-480.653C77.0263,-508.448 107.359,-588.86 164,-623 259.942,-680.829 566.599,-617.342 666,-669 700.652,-687.008 726.874,-725.984 740.206,-749.3"/>
<polygon fill="midnightblue" stroke="midnightblue" points="737.23,-751.152 745.117,-758.227 743.363,-747.778 737.23,-751.152"/>
</g>
<!-- Node9 -->
<g id="node10" class="node"><title>Node9</title>
<g id="a_node10"><a xlink:href="field_8h.html#a0aaec7df2f708a451a8e1f41a943d8b1" target="_top" xlink:title="Weakly normalize a field element: reduce it magnitude to 1, but don&#39;t fully normalize. ">
<polygon fill="white" stroke="black" points="164,-594.5 164,-613.5 317,-613.5 317,-594.5 164,-594.5"/>
<text text-anchor="middle" x="240.5" y="-601.5" font-family="Helvetica,sans-Serif" font-size="10.00">secp256k1_fe_normalize_weak</text>
</a>
</g>
</g>
<!-- Node0&#45;&gt;Node9 -->
<g id="edge11" class="edge"><title>Node0&#45;&gt;Node9</title>
<path fill="none" stroke="midnightblue" d="M70.5297,-480.705C83.6821,-502.867 119.113,-557.41 164,-585 167.562,-587.19 171.367,-589.128 175.302,-590.843"/>
<polygon fill="midnightblue" stroke="midnightblue" points="174.081,-594.123 184.67,-594.453 176.598,-587.591 174.081,-594.123"/>
</g>
<!-- Node10 -->
<g id="node11" class="node"><title>Node10</title>
<g id="a_node11"><a xlink:href="group_8h.html#a8c1e7f328284d9ba56404bb8d99bf765" target="_top" xlink:title="Convert a group element back from the storage type. ">
<polygon fill="white" stroke="black" points="169.5,-556.5 169.5,-575.5 311.5,-575.5 311.5,-556.5 169.5,-556.5"/>
<text text-anchor="middle" x="240.5" y="-563.5" font-family="Helvetica,sans-Serif" font-size="10.00">secp256k1_ge_from_storage</text>
</a>
</g>
</g>
<!-- Node0&#45;&gt;Node10 -->
<g id="edge12" class="edge"><title>Node0&#45;&gt;Node10</title>
<path fill="none" stroke="midnightblue" d="M74.75,-480.741C91.5132,-496.935 127.526,-529.353 164,-547 168.943,-549.392 174.218,-551.502 179.596,-553.362"/>
<polygon fill="midnightblue" stroke="midnightblue" points="178.747,-556.764 189.337,-556.443 180.858,-550.09 178.747,-556.764"/>
</g>
<!-- Node11 -->
<g id="node12" class="node"><title>Node11</title>
<g id="a_node12"><a xlink:href="group_8h.html#abcb34de0cfdf82a125e059f4f98de1d9" target="_top" xlink:title="secp256k1_ge_neg">
<polygon fill="white" stroke="black" points="190,-518.5 190,-537.5 291,-537.5 291,-518.5 190,-518.5"/>
<text text-anchor="middle" x="240.5" y="-525.5" font-family="Helvetica,sans-Serif" font-size="10.00">secp256k1_ge_neg</text>
</a>
</g>
</g>
<!-- Node0&#45;&gt;Node11 -->
<g id="edge13" class="edge"><title>Node0&#45;&gt;Node11</title>
<path fill="none" stroke="midnightblue" d="M87.532,-480.538C107.422,-488.743 137.321,-500.556 164,-509 171.696,-511.436 179.909,-513.769 187.981,-515.915"/>
<polygon fill="midnightblue" stroke="midnightblue" points="187.153,-519.316 197.711,-518.434 188.907,-512.539 187.153,-519.316"/>
</g>
<!-- Node12 -->
<g id="node13" class="node"><title>Node12</title>
<g id="a_node13"><a xlink:href="group_8h.html#aa511eebf8cd7419763f06555ed4fb62d" target="_top" xlink:title="Set a group element equal to another which is given in jacobian coordinates. ">
<polygon fill="white" stroke="black" points="182.5,-480.5 182.5,-499.5 298.5,-499.5 298.5,-480.5 182.5,-480.5"/>
<text text-anchor="middle" x="240.5" y="-487.5" font-family="Helvetica,sans-Serif" font-size="10.00">secp256k1_ge_set_gej</text>
</a>
</g>
</g>
<!-- Node0&#45;&gt;Node12 -->
<g id="edge14" class="edge"><title>Node0&#45;&gt;Node12</title>
<path fill="none" stroke="midnightblue" d="M128.492,-477.913C142.685,-479.459 157.787,-481.103 172.131,-482.665"/>
<polygon fill="midnightblue" stroke="midnightblue" points="172.098,-486.182 182.418,-483.785 172.855,-479.223 172.098,-486.182"/>
</g>
<!-- Node13 -->
<g id="node14" class="node"><title>Node13</title>
<g id="a_node14"><a xlink:href="group_8h.html#a9a5ec01f9c5a8fcbae1a83217cd96069" target="_top" xlink:title="If flag is true, set *r equal to *a; otherwise leave it. ">
<polygon fill="white" stroke="black" points="167.5,-442.5 167.5,-461.5 313.5,-461.5 313.5,-442.5 167.5,-442.5"/>
<text text-anchor="middle" x="240.5" y="-449.5" font-family="Helvetica,sans-Serif" font-size="10.00">secp256k1_ge_storage_cmov</text>
</a>
</g>
</g>
<!-- Node0&#45;&gt;Node13 -->
<g id="edge15" class="edge"><title>Node0&#45;&gt;Node13</title>
<path fill="none" stroke="midnightblue" d="M128.492,-464.087C137.894,-463.063 147.695,-461.996 157.41,-460.938"/>
<polygon fill="midnightblue" stroke="midnightblue" points="157.921,-464.403 167.483,-459.841 157.163,-457.444 157.921,-464.403"/>
</g>
<!-- Node14 -->
<g id="node15" class="node"><title>Node14</title>
<g id="a_node15"><a xlink:href="group_8h.html#ad6499ae629f998e50d8614869ee3c67f" target="_top" xlink:title="Convert a group element to the storage type. ">
<polygon fill="white" stroke="black" points="175,-404.5 175,-423.5 306,-423.5 306,-404.5 175,-404.5"/>
<text text-anchor="middle" x="240.5" y="-411.5" font-family="Helvetica,sans-Serif" font-size="10.00">secp256k1_ge_to_storage</text>
</a>
</g>
</g>
<!-- Node0&#45;&gt;Node14 -->
<g id="edge16" class="edge"><title>Node0&#45;&gt;Node14</title>
<path fill="none" stroke="midnightblue" d="M87.532,-461.462C107.422,-453.257 137.321,-441.444 164,-433 171.696,-430.564 179.909,-428.231 187.981,-426.085"/>
<polygon fill="midnightblue" stroke="midnightblue" points="188.907,-429.461 197.711,-423.566 187.153,-422.684 188.907,-429.461"/>
</g>
<!-- Node15 -->
<g id="node16" class="node"><title>Node15</title>
<g id="a_node16"><a xlink:href="group_8h.html#a586b55d5921edcd68799f584c0a3c58d" target="_top" xlink:title="Set r equal to the sum of a and b (with b given in affine coordinates, and not infinity). ">
<polygon fill="white" stroke="black" points="181,-366.5 181,-385.5 300,-385.5 300,-366.5 181,-366.5"/>
<text text-anchor="middle" x="240.5" y="-373.5" font-family="Helvetica,sans-Serif" font-size="10.00">secp256k1_gej_add_ge</text>
</a>
</g>
</g>
<!-- Node0&#45;&gt;Node15 -->
<g id="edge17" class="edge"><title>Node0&#45;&gt;Node15</title>
<path fill="none" stroke="midnightblue" d="M74.75,-461.259C91.5132,-445.065 127.526,-412.647 164,-395 168.943,-392.608 174.218,-390.498 179.596,-388.638"/>
<polygon fill="midnightblue" stroke="midnightblue" points="180.858,-391.91 189.337,-385.557 178.747,-385.236 180.858,-391.91"/>
</g>
<!-- Node16 -->
<g id="node17" class="node"><title>Node16</title>
<g id="a_node17"><a xlink:href="group_8h.html#a4424d01156ea843dad5a8d27b2feec4f" target="_top" xlink:title="Set r equal to the double of a. ">
<polygon fill="white" stroke="black" points="182.5,-317 182.5,-347 298.5,-347 298.5,-317 182.5,-317"/>
<text text-anchor="start" x="190.5" y="-335" font-family="Helvetica,sans-Serif" font-size="10.00">secp256k1_gej_double</text>
<text text-anchor="middle" x="240.5" y="-324" font-family="Helvetica,sans-Serif" font-size="10.00">_nonzero</text>
</a>
</g>
</g>
<!-- Node0&#45;&gt;Node16 -->
<g id="edge18" class="edge"><title>Node0&#45;&gt;Node16</title>
<path fill="none" stroke="midnightblue" d="M70.8762,-461.194C84.4876,-439.298 120.371,-386.069 164,-357 167.052,-354.966 170.284,-353.086 173.625,-351.348"/>
<polygon fill="midnightblue" stroke="midnightblue" points="175.127,-354.509 182.676,-347.075 172.139,-348.179 175.127,-354.509"/>
</g>
<!-- Node17 -->
<g id="node18" class="node"><title>Node17</title>
<g id="a_node18"><a xlink:href="group_8h.html#ad5f813e26afb239f03e83f0e61e05498" target="_top" xlink:title="Set a group element (jacobian) equal to another which is given in affine coordinates. ">
<polygon fill="white" stroke="black" points="182.5,-278.5 182.5,-297.5 298.5,-297.5 298.5,-278.5 182.5,-278.5"/>
<text text-anchor="middle" x="240.5" y="-285.5" font-family="Helvetica,sans-Serif" font-size="10.00">secp256k1_gej_set_ge</text>
</a>
</g>
</g>
<!-- Node0&#45;&gt;Node17 -->
<g id="edge20" class="edge"><title>Node0&#45;&gt;Node17</title>
<path fill="none" stroke="midnightblue" d="M67.8728,-461.449C76.9151,-433.087 107.593,-348.745 164,-307 166.857,-304.886 169.924,-303.005 173.127,-301.333"/>
<polygon fill="midnightblue" stroke="midnightblue" points="174.763,-304.435 182.455,-297.15 171.898,-298.048 174.763,-304.435"/>
</g>
<!-- Node18 -->
<g id="node19" class="node"><title>Node18</title>
<g id="a_node19"><a xlink:href="scalar_8h.html#a3f0ac84fe49a1c1f51212582a2c149d4" target="_top" xlink:title="Check whether a scalar equals zero. ">
<polygon fill="white" stroke="black" points="355.5,-278.5 355.5,-297.5 487.5,-297.5 487.5,-278.5 355.5,-278.5"/>
<text text-anchor="middle" x="421.5" y="-285.5" font-family="Helvetica,sans-Serif" font-size="10.00">secp256k1_scalar_is_zero</text>
</a>
</g>
</g>
<!-- Node0&#45;&gt;Node18 -->
<g id="edge21" class="edge"><title>Node0&#45;&gt;Node18</title>
<path fill="none" stroke="midnightblue" d="M66.1858,-461.486C70.9551,-427.804 92.086,-313.841 164,-269 196.46,-248.76 300.364,-264.123 365.541,-276.498"/>
<polygon fill="midnightblue" stroke="midnightblue" points="365.17,-279.991 375.652,-278.453 366.498,-273.119 365.17,-279.991"/>
</g>
<!-- Node19 -->
<g id="node20" class="node"><title>Node19</title>
<g id="a_node20"><a xlink:href="ecmult__const__impl_8h.html#ac252ac4f8c905ddc178ce056bd45b8ec" target="_top" xlink:title="Convert a number to WNAF notation. ">
<polygon fill="white" stroke="black" points="181,-164.5 181,-183.5 300,-183.5 300,-164.5 181,-164.5"/>
<text text-anchor="middle" x="240.5" y="-171.5" font-family="Helvetica,sans-Serif" font-size="10.00">secp256k1_wnaf_const</text>
</a>
</g>
</g>
<!-- Node0&#45;&gt;Node19 -->
<g id="edge22" class="edge"><title>Node0&#45;&gt;Node19</title>
<path fill="none" stroke="midnightblue" d="M67.3074,-461.195C75.6508,-427.251 106.817,-312.644 164,-236 178.035,-217.189 198.956,-200.599 215.218,-189.325"/>
<polygon fill="midnightblue" stroke="midnightblue" points="217.35,-192.11 223.701,-183.629 213.448,-186.299 217.35,-192.11"/>
</g>
<!-- Node2 -->
<g id="node3" class="node"><title>Node2</title>
<g id="a_node3"><a xlink:href="ecmult__impl_8h.html#a5008191228d03c7325ea86aa8baaf4dc" target="_top" xlink:title="Fill a table &#39;prej&#39; with precomputed odd multiples of a. ">
<polygon fill="white" stroke="black" points="362,-758 362,-788 481,-788 481,-758 362,-758"/>
<text text-anchor="start" x="370" y="-776" font-family="Helvetica,sans-Serif" font-size="10.00">secp256k1_ecmult_odd</text>
<text text-anchor="middle" x="421.5" y="-765" font-family="Helvetica,sans-Serif" font-size="10.00">_multiples_table</text>
</a>
</g>
</g>
<!-- Node1&#45;&gt;Node2 -->
<g id="edge2" class="edge"><title>Node1&#45;&gt;Node2</title>
<path fill="none" stroke="midnightblue" d="M302.101,-743.896C318.06,-747.819 335.391,-752.079 351.745,-756.099"/>
<polygon fill="midnightblue" stroke="midnightblue" points="351.234,-759.578 361.78,-758.566 352.905,-752.78 351.234,-759.578"/>
</g>
<!-- Node8 -->
<g id="node9" class="node"><title>Node8</title>
<g id="a_node9"><a xlink:href="group_8h.html#a5391d63ab98be9202d5f14611133fe35" target="_top" xlink:title="Bring a batch inputs given in jacobian coordinates (with known z&#45;ratios) to the same global z &quot;denomi...">
<polygon fill="white" stroke="black" points="363.5,-709 363.5,-739 479.5,-739 479.5,-709 363.5,-709"/>
<text text-anchor="start" x="371.5" y="-727" font-family="Helvetica,sans-Serif" font-size="10.00">secp256k1_ge_globalz</text>
<text text-anchor="middle" x="421.5" y="-716" font-family="Helvetica,sans-Serif" font-size="10.00">_set_table_gej</text>
</a>
</g>
</g>
<!-- Node1&#45;&gt;Node8 -->
<g id="edge9" class="edge"><title>Node1&#45;&gt;Node8</title>
<path fill="none" stroke="midnightblue" d="M302.101,-727.307C318.48,-726.85 336.305,-726.352 353.034,-725.885"/>
<polygon fill="midnightblue" stroke="midnightblue" points="353.388,-729.376 363.286,-725.598 353.193,-722.379 353.388,-729.376"/>
</g>
<!-- Node2&#45;&gt;Node3 -->
<g id="edge3" class="edge"><title>Node2&#45;&gt;Node3</title>
<path fill="none" stroke="midnightblue" d="M473.157,-757.979C479.037,-755.375 484.788,-752.392 490,-749 509.498,-736.309 506.377,-723.497 526,-711 532.078,-707.129 538.874,-703.842 545.767,-701.069"/>
<polygon fill="midnightblue" stroke="midnightblue" points="546.997,-704.346 555.167,-697.601 544.574,-697.779 546.997,-704.346"/>
</g>
<!-- Node4 -->
<g id="node5" class="node"><title>Node4</title>
<g id="a_node5"><a xlink:href="group__impl_8h.html#a6492f6aad16e545239c0ec52780d2e1f" target="_top" xlink:title="secp256k1_ge_set_gej_zinv">
<polygon fill="white" stroke="black" points="526,-796.5 526,-815.5 666,-815.5 666,-796.5 526,-796.5"/>
<text text-anchor="middle" x="596" y="-803.5" font-family="Helvetica,sans-Serif" font-size="10.00">secp256k1_ge_set_gej_zinv</text>
</a>
</g>
</g>
<!-- Node2&#45;&gt;Node4 -->
<g id="edge4" class="edge"><title>Node2&#45;&gt;Node4</title>
<path fill="none" stroke="midnightblue" d="M481.382,-784.264C498.761,-787.589 517.793,-791.23 535.227,-794.565"/>
<polygon fill="midnightblue" stroke="midnightblue" points="534.803,-798.047 545.282,-796.489 536.118,-791.172 534.803,-798.047"/>
</g>
<!-- Node2&#45;&gt;Node6 -->
<g id="edge8" class="edge"><title>Node2&#45;&gt;Node6</title>
<path fill="none" stroke="midnightblue" d="M481.05,-772.106C540.496,-771.199 632.019,-769.801 691.461,-768.894"/>
<polygon fill="midnightblue" stroke="midnightblue" points="691.862,-772.388 701.807,-768.736 691.755,-765.389 691.862,-772.388"/>
</g>
<!-- Node7 -->
<g id="node8" class="node"><title>Node7</title>
<g id="a_node8"><a xlink:href="group_8h.html#a4d0338f50b08d082caa32f8e72707b55" target="_top" xlink:title="Set r equal to the sum of a and b (with b given in affine coordinates). ">
<polygon fill="white" stroke="black" points="527.5,-720.5 527.5,-739.5 664.5,-739.5 664.5,-720.5 527.5,-720.5"/>
<text text-anchor="middle" x="596" y="-727.5" font-family="Helvetica,sans-Serif" font-size="10.00">secp256k1_gej_add_ge_var</text>
</a>
</g>
</g>
<!-- Node2&#45;&gt;Node7 -->
<g id="edge7" class="edge"><title>Node2&#45;&gt;Node7</title>
<path fill="none" stroke="midnightblue" d="M481.382,-758.322C502.673,-753.015 526.447,-747.089 546.722,-742.034"/>
<polygon fill="midnightblue" stroke="midnightblue" points="547.814,-745.369 556.671,-739.555 546.121,-738.577 547.814,-745.369"/>
</g>
<!-- Node5 -->
<g id="node6" class="node"><title>Node5</title>
<g id="a_node6"><a xlink:href="field_8h.html#a6cbe550ca5eb35e683b1c8d68d8de26b" target="_top" xlink:title="Sets a field element to be the square of another. ">
<polygon fill="white" stroke="black" points="703,-796.5 703,-815.5 799,-815.5 799,-796.5 703,-796.5"/>
<text text-anchor="middle" x="751" y="-803.5" font-family="Helvetica,sans-Serif" font-size="10.00">secp256k1_fe_sqr</text>
</a>
</g>
</g>
<!-- Node4&#45;&gt;Node5 -->
<g id="edge5" class="edge"><title>Node4&#45;&gt;Node5</title>
<path fill="none" stroke="midnightblue" d="M666.337,-806C675.106,-806 684.002,-806 692.558,-806"/>
<polygon fill="midnightblue" stroke="midnightblue" points="692.794,-809.5 702.794,-806 692.794,-802.5 692.794,-809.5"/>
</g>
<!-- Node4&#45;&gt;Node6 -->
<g id="edge6" class="edge"><title>Node4&#45;&gt;Node6</title>
<path fill="none" stroke="midnightblue" d="M635.608,-796.411C655.707,-791.419 680.475,-785.268 701.819,-779.967"/>
<polygon fill="midnightblue" stroke="midnightblue" points="702.808,-783.327 711.669,-777.52 701.12,-776.534 702.808,-783.327"/>
</g>
<!-- Node19&#45;&gt;Node18 -->
<g id="edge30" class="edge"><title>Node19&#45;&gt;Node18</title>
<path fill="none" stroke="midnightblue" d="M253.698,-183.68C268.767,-195.713 295.095,-216.991 317,-236 333.393,-250.226 334.038,-258.439 353,-269 356.997,-271.226 361.275,-273.208 365.665,-274.969"/>
<polygon fill="midnightblue" stroke="midnightblue" points="364.796,-278.377 375.39,-278.483 367.174,-271.793 364.796,-278.377"/>
</g>
<!-- Node20 -->
<g id="node21" class="node"><title>Node20</title>
<g id="a_node21"><a xlink:href="scalar_8h.html#aab66620cbbe49bec3c7c02f4a1219c05" target="_top" xlink:title="Check whether a scalar is higher than the group order divided by 2. ">
<polygon fill="white" stroke="black" points="356,-240.5 356,-259.5 487,-259.5 487,-240.5 356,-240.5"/>
<text text-anchor="middle" x="421.5" y="-247.5" font-family="Helvetica,sans-Serif" font-size="10.00">secp256k1_scalar_is_high</text>
</a>
</g>
</g>
<!-- Node19&#45;&gt;Node20 -->
<g id="edge23" class="edge"><title>Node19&#45;&gt;Node20</title>
<path fill="none" stroke="midnightblue" d="M257.65,-183.55C278.927,-195.826 317.779,-217.198 353,-231 358.951,-233.332 365.3,-235.507 371.633,-237.49"/>
<polygon fill="midnightblue" stroke="midnightblue" points="370.93,-240.933 381.514,-240.445 372.936,-234.227 370.93,-240.933"/>
</g>
<!-- Node21 -->
<g id="node22" class="node"><title>Node21</title>
<g id="a_node22"><a xlink:href="scalar_8h.html#aa3f1c1d4536adf835ee256878c222968" target="_top" xlink:title="Compute the complement of a scalar (modulo the group order). ">
<polygon fill="white" stroke="black" points="356.5,-202.5 356.5,-221.5 486.5,-221.5 486.5,-202.5 356.5,-202.5"/>
<text text-anchor="middle" x="421.5" y="-209.5" font-family="Helvetica,sans-Serif" font-size="10.00">secp256k1_scalar_negate</text>
</a>
</g>
</g>
<!-- Node19&#45;&gt;Node21 -->
<g id="edge24" class="edge"><title>Node19&#45;&gt;Node21</title>
<path fill="none" stroke="midnightblue" d="M286.669,-183.589C310.716,-188.694 340.474,-195.011 365.819,-200.392"/>
<polygon fill="midnightblue" stroke="midnightblue" points="365.147,-203.827 375.656,-202.48 366.6,-196.98 365.147,-203.827"/>
</g>
<!-- Node22 -->
<g id="node23" class="node"><title>Node22</title>
<g id="a_node23"><a xlink:href="scalar_8h.html#aa1118b3273d3c9d15541f29373b93e97" target="_top" xlink:title="Check whether a scalar equals one. ">
<polygon fill="white" stroke="black" points="357,-164.5 357,-183.5 486,-183.5 486,-164.5 357,-164.5"/>
<text text-anchor="middle" x="421.5" y="-171.5" font-family="Helvetica,sans-Serif" font-size="10.00">secp256k1_scalar_is_one</text>
</a>
</g>
</g>
<!-- Node19&#45;&gt;Node22 -->
<g id="edge25" class="edge"><title>Node19&#45;&gt;Node22</title>
<path fill="none" stroke="midnightblue" d="M300.111,-174C314.999,-174 331.187,-174 346.722,-174"/>
<polygon fill="midnightblue" stroke="midnightblue" points="346.816,-177.5 356.816,-174 346.816,-170.5 346.816,-177.5"/>
</g>
<!-- Node23 -->
<g id="node24" class="node"><title>Node23</title>
<g id="a_node24"><a xlink:href="scalar_8h.html#ad6596a0249548deb678f0b630204254f" target="_top" xlink:title="Conditionally add a power of two to a scalar. ">
<polygon fill="white" stroke="black" points="353,-126.5 353,-145.5 490,-145.5 490,-126.5 353,-126.5"/>
<text text-anchor="middle" x="421.5" y="-133.5" font-family="Helvetica,sans-Serif" font-size="10.00">secp256k1_scalar_cadd_bit</text>
</a>
</g>
</g>
<!-- Node19&#45;&gt;Node23 -->
<g id="edge26" class="edge"><title>Node19&#45;&gt;Node23</title>
<path fill="none" stroke="midnightblue" d="M286.669,-164.411C310.716,-159.306 340.474,-152.989 365.819,-147.608"/>
<polygon fill="midnightblue" stroke="midnightblue" points="366.6,-151.02 375.656,-145.52 365.147,-144.173 366.6,-151.02"/>
</g>
<!-- Node24 -->
<g id="node25" class="node"><title>Node24</title>
<g id="a_node25"><a xlink:href="scalar_8h.html#a520b78be2bca742daa8d5efa5c343291" target="_top" xlink:title="Conditionally negate a number, in constant time. ">
<polygon fill="white" stroke="black" points="360.5,-77 360.5,-107 482.5,-107 482.5,-77 360.5,-77"/>
<text text-anchor="start" x="368.5" y="-95" font-family="Helvetica,sans-Serif" font-size="10.00">secp256k1_scalar_cond</text>
<text text-anchor="middle" x="421.5" y="-84" font-family="Helvetica,sans-Serif" font-size="10.00">_negate</text>
</a>
</g>
</g>
<!-- Node19&#45;&gt;Node24 -->
<g id="edge27" class="edge"><title>Node19&#45;&gt;Node24</title>
<path fill="none" stroke="midnightblue" d="M258.577,-164.471C280.197,-152.594 318.76,-132.03 353,-117 357.742,-114.919 362.717,-112.856 367.726,-110.861"/>
<polygon fill="midnightblue" stroke="midnightblue" points="369.295,-114.006 377.347,-107.119 366.758,-107.482 369.295,-114.006"/>
</g>
<!-- Node25 -->
<g id="node26" class="node"><title>Node25</title>
<g id="a_node26"><a xlink:href="scalar_8h.html#a3eb65cf9bfad7c430cbb3dc26d494a95" target="_top" xlink:title="Check whether a scalar, considered as an nonnegative integer, is even. ">
<polygon fill="white" stroke="black" points="354.5,-38.5 354.5,-57.5 488.5,-57.5 488.5,-38.5 354.5,-38.5"/>
<text text-anchor="middle" x="421.5" y="-45.5" font-family="Helvetica,sans-Serif" font-size="10.00">secp256k1_scalar_is_even</text>
</a>
</g>
</g>
<!-- Node19&#45;&gt;Node25 -->
<g id="edge28" class="edge"><title>Node19&#45;&gt;Node25</title>
<path fill="none" stroke="midnightblue" d="M248.729,-164.391C264.987,-143.461 306.656,-93.5096 353,-67 356.91,-64.7634 361.1,-62.7765 365.407,-61.0137"/>
<polygon fill="midnightblue" stroke="midnightblue" points="366.781,-64.2376 374.96,-57.5029 364.366,-57.6673 366.781,-64.2376"/>
</g>
<!-- Node26 -->
<g id="node27" class="node"><title>Node26</title>
<g id="a_node27"><a xlink:href="scalar_8h.html#ae9fcdf1db22cb93c2a2f06b0a9c957d3" target="_top" xlink:title="Shift a scalar right by some amount strictly between 0 and 16, returning the low bits that were shift...">
<polygon fill="white" stroke="black" points="356.5,-0.5 356.5,-19.5 486.5,-19.5 486.5,-0.5 356.5,-0.5"/>
<text text-anchor="middle" x="421.5" y="-7.5" font-family="Helvetica,sans-Serif" font-size="10.00">secp256k1_scalar_shr_int</text>
</a>
</g>
</g>
<!-- Node19&#45;&gt;Node26 -->
<g id="edge29" class="edge"><title>Node19&#45;&gt;Node26</title>
<path fill="none" stroke="midnightblue" d="M246.207,-164.145C259.257,-137.905 298.556,-65.8352 353,-29 356.053,-26.9342 359.329,-25.0913 362.731,-23.4475"/>
<polygon fill="midnightblue" stroke="midnightblue" points="364.119,-26.6608 371.968,-19.5446 361.394,-20.2128 364.119,-26.6608"/>
</g>
</g>
</svg>
        <g id="navigator" transform="translate(0 0)" fill="#404254">
                <rect fill="#f2f5e9" fill-opacity="0.5" stroke="#606060" stroke-width=".5" x="0" y="0" width="60" height="60"/>
                <use id="zoomplus" xlink:href="#zoomPlus" x="17" y="9" onmousedown="handleZoom(evt,'in')"/>
                <use id="zoomminus" xlink:href="#zoomMin" x="42" y="9" onmousedown="handleZoom(evt,'out')"/>
                <use id="reset" xlink:href="#resetDef" x="30" y="36" onmousedown="handleReset()"/>
                <g id="arrowUp" xlink:href="#dirArrow" transform="translate(30 24)" onmousedown="handlePan(0,-1)">
                  <use xlink:href="#rim" fill="#404040">
                        <set attributeName="fill" to="#808080" begin="arrowUp.mouseover" end="arrowUp.mouseout"/>
                  </use>
                  <path fill="none" stroke="white" stroke-width="1.5" d="M0,-3.0v7 M-2.5,-0.5L0,-3.0L2.5,-0.5"/>
                </g>
                <g id="arrowRight" xlink:href="#dirArrow" transform="rotate(90) translate(36 -43)" onmousedown="handlePan(1,0)">
                  <use xlink:href="#rim" fill="#404040">
                        <set attributeName="fill" to="#808080" begin="arrowRight.mouseover" end="arrowRight.mouseout"/>
                  </use>
                  <path fill="none" stroke="white" stroke-width="1.5" d="M0,-3.0v7 M-2.5,-0.5L0,-3.0L2.5,-0.5"/>
                </g>
                <g id="arrowDown" xlink:href="#dirArrow" transform="rotate(180) translate(-30 -48)" onmousedown="handlePan(0,1)">
                  <use xlink:href="#rim" fill="#404040">
                        <set attributeName="fill" to="#808080" begin="arrowDown.mouseover" end="arrowDown.mouseout"/>
                  </use>
                  <path fill="none" stroke="white" stroke-width="1.5" d="M0,-3.0v7 M-2.5,-0.5L0,-3.0L2.5,-0.5"/>
                </g>
                <g id="arrowLeft" xlink:href="#dirArrow" transform="rotate(270) translate(-36 17)" onmousedown="handlePan(-1,0)">
                  <use xlink:href="#rim" fill="#404040">
                        <set attributeName="fill" to="#808080" begin="arrowLeft.mouseover" end="arrowLeft.mouseout"/>
                  </use>
                  <path fill="none" stroke="white" stroke-width="1.5" d="M0,-3.0v7 M-2.5,-0.5L0,-3.0L2.5,-0.5"/>
                </g>
        </g>
        <svg viewBox="0 0 15 15" width="100%" height="30px" preserveAspectRatio="xMaxYMin meet">
         <g id="arrow_out" transform="scale(0.3 0.3)">
          <a xlink:href="ecmult__const__impl_8h_a89f4e02fa2a4630ae0c5e302457f7931_cgraph_org.svg" target="_base">
           <rect id="button" ry="5" rx="5" y="6" x="6" height="38" width="38"
                fill="#f2f5e9" fill-opacity="0.5" stroke="#606060" stroke-width="1.0"/>
           <path id="arrow"
             d="M 11.500037,31.436501 C 11.940474,20.09759 22.043105,11.32322 32.158766,21.979434 L 37.068811,17.246167 C 37.068811,17.246167 37.088388,32 37.088388,32 L 22.160133,31.978069 C 22.160133,31.978069 26.997745,27.140456 26.997745,27.140456 C 18.528582,18.264221 13.291696,25.230495 11.500037,31.436501 z"
             style="fill:#404040;"/>
          </a>
         </g>
        </svg>
</svg>
