<?xml version="1.0" encoding="UTF-8" standalone="no"?>
<!DOCTYPE svg PUBLIC "-//W3C//DTD SVG 1.1//EN"
 "http://www.w3.org/Graphics/SVG/1.1/DTD/svg11.dtd">
<!-- Generated by graphviz version 2.38.0 (20140413.2041)
 -->
<!-- Title: secp256k1_fe_inv Pages: 1 -->
<svg width="338pt" height="154pt"
 viewBox="0.00 0.00 338.00 153.50" xmlns="http://www.w3.org/2000/svg" xmlns:xlink="http://www.w3.org/1999/xlink">
<g id="graph0" class="graph" transform="scale(1 1) rotate(0) translate(4 149.5)">
<title>secp256k1_fe_inv</title>
<polygon fill="white" stroke="none" points="-4,4 -4,-149.5 334,-149.5 334,4 -4,4"/>
<!-- Node547 -->
<g id="node1" class="node"><title>Node547</title>
<polygon fill="#bfbfbf" stroke="black" points="0,-69 0,-88 95,-88 95,-69 0,-69"/>
<text text-anchor="middle" x="47.5" y="-76" font-family="Helvetica,sans-Serif" font-size="10.00">secp256k1_fe_inv</text>
</g>
<!-- Node548 -->
<g id="node2" class="node"><title>Node548</title>
<g id="a_node2"><a xlink:href="bench__internal_8c.html#aadfd2513d7e62f1bea711ca496f8a3c2" target="_top" xlink:title="bench_field_inverse">
<polygon fill="white" stroke="black" points="142,-126 142,-145 245,-145 245,-126 142,-126"/>
<text text-anchor="middle" x="193.5" y="-133" font-family="Helvetica,sans-Serif" font-size="10.00">bench_field_inverse</text>
</a>
</g>
</g>
<!-- Node547&#45;&gt;Node548 -->
<g id="edge1" class="edge"><title>Node547&#45;&gt;Node548</title>
<path fill="none" stroke="midnightblue" d="M76.7211,-92.6228C92.4754,-100.22 112.585,-109.45 131,-116.5 139.871,-119.896 149.631,-123.132 158.712,-125.939"/>
<polygon fill="midnightblue" stroke="midnightblue" points="78.0506,-89.3771 67.5286,-88.1373 74.9809,-95.6681 78.0506,-89.3771"/>
</g>
<!-- Node550 -->
<g id="node4" class="node"><title>Node550</title>
<g id="a_node4"><a xlink:href="tests_8c.html#ad636c10e982fafdb8f6ddeb3d1424b2d" target="_top" xlink:title="run_field_inv">
<polygon fill="white" stroke="black" points="158,-88 158,-107 229,-107 229,-88 158,-88"/>
<text text-anchor="middle" x="193.5" y="-95" font-family="Helvetica,sans-Serif" font-size="10.00">run_field_inv</text>
</a>
</g>
</g>
<!-- Node547&#45;&gt;Node550 -->
<g id="edge3" class="edge"><title>Node547&#45;&gt;Node550</title>
<path fill="none" stroke="midnightblue" d="M105.492,-86.0197C123.189,-88.3547 142.151,-90.8568 157.842,-92.9271"/>
<polygon fill="midnightblue" stroke="midnightblue" points="105.625,-82.507 95.2527,-84.6688 104.709,-89.4469 105.625,-82.507"/>
</g>
<!-- Node552 -->
<g id="node6" class="node"><title>Node552</title>
<g id="a_node6"><a xlink:href="group__impl_8h.html#aa511eebf8cd7419763f06555ed4fb62d" target="_top" xlink:title="secp256k1_ge_set_gej">
<polygon fill="white" stroke="black" points="135.5,-50 135.5,-69 251.5,-69 251.5,-50 135.5,-50"/>
<text text-anchor="middle" x="193.5" y="-57" font-family="Helvetica,sans-Serif" font-size="10.00">secp256k1_ge_set_gej</text>
</a>
</g>
</g>
<!-- Node547&#45;&gt;Node552 -->
<g id="edge5" class="edge"><title>Node547&#45;&gt;Node552</title>
<path fill="none" stroke="midnightblue" d="M105.372,-70.9961C115.252,-69.6925 125.53,-68.3363 135.416,-67.0319"/>
<polygon fill="midnightblue" stroke="midnightblue" points="104.709,-67.5531 95.2527,-72.3312 105.625,-74.493 104.709,-67.5531"/>
</g>
<!-- Node553 -->
<g id="node7" class="node"><title>Node553</title>
<g id="a_node7"><a xlink:href="group__impl_8h.html#a1cf9611464711ed63bde94d92ecc70de" target="_top" xlink:title="secp256k1_ge_set_table\l_gej_var">
<polygon fill="white" stroke="black" points="131,-0.5 131,-30.5 256,-30.5 256,-0.5 131,-0.5"/>
<text text-anchor="start" x="139" y="-18.5" font-family="Helvetica,sans-Serif" font-size="10.00">secp256k1_ge_set_table</text>
<text text-anchor="middle" x="193.5" y="-7.5" font-family="Helvetica,sans-Serif" font-size="10.00">_gej_var</text>
</a>
</g>
</g>
<!-- Node547&#45;&gt;Node553 -->
<g id="edge6" class="edge"><title>Node547&#45;&gt;Node553</title>
<path fill="none" stroke="midnightblue" d="M77.9223,-64.553C93.6027,-57.2204 113.266,-48.184 131,-40.5 138.614,-37.2008 146.81,-33.7798 154.659,-30.5666"/>
<polygon fill="midnightblue" stroke="midnightblue" points="76.2907,-61.4525 68.7266,-68.8711 79.266,-67.7887 76.2907,-61.4525"/>
</g>
<!-- Node549 -->
<g id="node3" class="node"><title>Node549</title>
<g id="a_node3"><a xlink:href="bench__internal_8c.html#a3c04138a5bfe5d72780bb7e82a18e627" target="_top" xlink:title="main">
<polygon fill="white" stroke="black" points="292,-126 292,-145 330,-145 330,-126 292,-126"/>
<text text-anchor="middle" x="311" y="-133" font-family="Helvetica,sans-Serif" font-size="10.00">main</text>
</a>
</g>
</g>
<!-- Node548&#45;&gt;Node549 -->
<g id="edge2" class="edge"><title>Node548&#45;&gt;Node549</title>
<path fill="none" stroke="midnightblue" d="M255.332,-135.5C268.639,-135.5 281.727,-135.5 291.759,-135.5"/>
<polygon fill="midnightblue" stroke="midnightblue" points="255.16,-132 245.16,-135.5 255.16,-139 255.16,-132"/>
</g>
<!-- Node551 -->
<g id="node5" class="node"><title>Node551</title>
<g id="a_node5"><a xlink:href="tests_8c.html#a3c04138a5bfe5d72780bb7e82a18e627" target="_top" xlink:title="main">
<polygon fill="white" stroke="black" points="292,-88 292,-107 330,-107 330,-88 292,-88"/>
<text text-anchor="middle" x="311" y="-95" font-family="Helvetica,sans-Serif" font-size="10.00">main</text>
</a>
</g>
</g>
<!-- Node550&#45;&gt;Node551 -->
<g id="edge4" class="edge"><title>Node550&#45;&gt;Node551</title>
<path fill="none" stroke="midnightblue" d="M239.358,-97.5C257.635,-97.5 277.728,-97.5 291.796,-97.5"/>
<polygon fill="midnightblue" stroke="midnightblue" points="239.154,-94.0001 229.154,-97.5 239.154,-101 239.154,-94.0001"/>
</g>
</g>
</svg>
