<?xml version="1.0" encoding="UTF-8" standalone="no"?>
<!DOCTYPE svg PUBLIC "-//W3C//DTD SVG 1.1//EN"
 "http://www.w3.org/Graphics/SVG/1.1/DTD/svg11.dtd">
<!-- Generated by graphviz version 2.38.0 (20140413.2041)
 -->
<!-- Title: src/governance/governance&#45;validators.h Pages: 1 -->
<svg width="659pt" height="106pt"
 viewBox="0.00 0.00 658.50 106.00" xmlns="http://www.w3.org/2000/svg" xmlns:xlink="http://www.w3.org/1999/xlink">
<g id="graph0" class="graph" transform="scale(1 1) rotate(0) translate(4 102)">
<title>src/governance/governance&#45;validators.h</title>
<polygon fill="white" stroke="none" points="-4,4 -4,-102 654.5,-102 654.5,4 -4,4"/>
<!-- Node10 -->
<g id="node1" class="node"><title>Node10</title>
<polygon fill="#bfbfbf" stroke="black" points="256,-67.5 256,-97.5 405,-97.5 405,-67.5 256,-67.5"/>
<text text-anchor="start" x="264" y="-85.5" font-family="Helvetica,sans-Serif" font-size="10.00">src/governance/governance</text>
<text text-anchor="middle" x="330.5" y="-74.5" font-family="Helvetica,sans-Serif" font-size="10.00">&#45;validators.h</text>
</g>
<!-- Node11 -->
<g id="node2" class="node"><title>Node11</title>
<g id="a_node2"><a xlink:href="governance-object_8cpp.html" target="_top" xlink:title="src/governance/governance\l&#45;object.cpp">
<polygon fill="white" stroke="black" points="0,-0.5 0,-30.5 149,-30.5 149,-0.5 0,-0.5"/>
<text text-anchor="start" x="8" y="-18.5" font-family="Helvetica,sans-Serif" font-size="10.00">src/governance/governance</text>
<text text-anchor="middle" x="74.5" y="-7.5" font-family="Helvetica,sans-Serif" font-size="10.00">&#45;object.cpp</text>
</a>
</g>
</g>
<!-- Node10&#45;&gt;Node11 -->
<g id="edge1" class="edge"><title>Node10&#45;&gt;Node11</title>
<path fill="none" stroke="midnightblue" d="M265.454,-64.9844C223.639,-54.3674 169.89,-40.7201 130.075,-30.6109"/>
<polygon fill="midnightblue" stroke="midnightblue" points="264.713,-68.4073 275.267,-67.476 266.436,-61.6226 264.713,-68.4073"/>
</g>
<!-- Node12 -->
<g id="node3" class="node"><title>Node12</title>
<g id="a_node3"><a xlink:href="governance-validators_8cpp.html" target="_top" xlink:title="src/governance/governance\l&#45;validators.cpp">
<polygon fill="white" stroke="black" points="167,-0.5 167,-30.5 316,-30.5 316,-0.5 167,-0.5"/>
<text text-anchor="start" x="175" y="-18.5" font-family="Helvetica,sans-Serif" font-size="10.00">src/governance/governance</text>
<text text-anchor="middle" x="241.5" y="-7.5" font-family="Helvetica,sans-Serif" font-size="10.00">&#45;validators.cpp</text>
</a>
</g>
</g>
<!-- Node10&#45;&gt;Node12 -->
<g id="edge2" class="edge"><title>Node10&#45;&gt;Node12</title>
<path fill="none" stroke="midnightblue" d="M303.048,-61.4511C289.357,-51.4517 273.129,-39.5995 260.774,-30.5765"/>
<polygon fill="midnightblue" stroke="midnightblue" points="301.048,-64.3245 311.188,-67.396 305.177,-58.6716 301.048,-64.3245"/>
</g>
<!-- Node13 -->
<g id="node4" class="node"><title>Node13</title>
<g id="a_node4"><a xlink:href="governance_2governance_8cpp.html" target="_top" xlink:title="src/governance/governance.cpp">
<polygon fill="white" stroke="black" points="334.5,-6 334.5,-25 504.5,-25 504.5,-6 334.5,-6"/>
<text text-anchor="middle" x="419.5" y="-13" font-family="Helvetica,sans-Serif" font-size="10.00">src/governance/governance.cpp</text>
</a>
</g>
</g>
<!-- Node10&#45;&gt;Node13 -->
<g id="edge3" class="edge"><title>Node10&#45;&gt;Node13</title>
<path fill="none" stroke="midnightblue" d="M358.151,-61.3056C374.863,-49.0999 395.296,-34.1772 407.852,-25.007"/>
<polygon fill="midnightblue" stroke="midnightblue" points="355.823,-58.6716 349.812,-67.396 359.952,-64.3245 355.823,-58.6716"/>
</g>
<!-- Node14 -->
<g id="node5" class="node"><title>Node14</title>
<g id="a_node5"><a xlink:href="rpc_2governance_8cpp.html" target="_top" xlink:title="src/rpc/governance.cpp">
<polygon fill="white" stroke="black" points="522.5,-6 522.5,-25 650.5,-25 650.5,-6 522.5,-6"/>
<text text-anchor="middle" x="586.5" y="-13" font-family="Helvetica,sans-Serif" font-size="10.00">src/rpc/governance.cpp</text>
</a>
</g>
</g>
<!-- Node10&#45;&gt;Node14 -->
<g id="edge4" class="edge"><title>Node10&#45;&gt;Node14</title>
<path fill="none" stroke="midnightblue" d="M395.524,-64.9899C445.694,-52.2516 513.054,-35.1484 552.91,-25.0287"/>
<polygon fill="midnightblue" stroke="midnightblue" points="394.564,-61.6226 385.733,-67.476 396.287,-68.4073 394.564,-61.6226"/>
</g>
</g>
</svg>
