<?xml version="1.0" encoding="UTF-8" standalone="no"?>
<!DOCTYPE svg PUBLIC "-//W3C//DTD SVG 1.1//EN"
 "http://www.w3.org/Graphics/SVG/1.1/DTD/svg11.dtd">
<!-- Generated by graphviz version 2.38.0 (20140413.2041)
 -->
<!-- Title: groestl_big_close Pages: 1 -->
<svg width="412pt" height="104pt"
 viewBox="0.00 0.00 412.00 104.00" xmlns="http://www.w3.org/2000/svg" xmlns:xlink="http://www.w3.org/1999/xlink">
<g id="graph0" class="graph" transform="scale(1 1) rotate(0) translate(4 100)">
<title>groestl_big_close</title>
<polygon fill="white" stroke="none" points="-4,4 -4,-100 408,-100 408,4 -4,4"/>
<!-- Node0 -->
<g id="node1" class="node"><title>Node0</title>
<polygon fill="#bfbfbf" stroke="black" points="0,-38.5 0,-57.5 92,-57.5 92,-38.5 0,-38.5"/>
<text text-anchor="middle" x="46" y="-45.5" font-family="Helvetica,sans-Serif" font-size="10.00">groestl_big_close</text>
</g>
<!-- Node1 -->
<g id="node2" class="node"><title>Node1</title>
<g id="a_node2"><a xlink:href="groestl_8c.html#a71cadf2507f9deaf21828e7e578c4899" target="_top" xlink:title="groestl_big_core">
<polygon fill="white" stroke="black" points="128,-76.5 128,-95.5 216,-95.5 216,-76.5 128,-76.5"/>
<text text-anchor="middle" x="172" y="-83.5" font-family="Helvetica,sans-Serif" font-size="10.00">groestl_big_core</text>
</a>
</g>
</g>
<!-- Node0&#45;&gt;Node1 -->
<g id="edge1" class="edge"><title>Node0&#45;&gt;Node1</title>
<path fill="none" stroke="midnightblue" d="M78.2904,-57.589C94.0039,-62.4044 113.238,-68.2988 130.106,-73.468"/>
<polygon fill="midnightblue" stroke="midnightblue" points="129.133,-76.8304 139.72,-76.4141 131.184,-70.1376 129.133,-76.8304"/>
</g>
<!-- Node2 -->
<g id="node3" class="node"><title>Node2</title>
<g id="a_node3"><a xlink:href="glibc__compat_8cpp.html#a0f46826ab0466591e136db24394923cf" target="_top" xlink:title="memcpy">
<polygon fill="white" stroke="black" points="252,-57.5 252,-76.5 306,-76.5 306,-57.5 252,-57.5"/>
<text text-anchor="middle" x="279" y="-64.5" font-family="Helvetica,sans-Serif" font-size="10.00">memcpy</text>
</a>
</g>
</g>
<!-- Node0&#45;&gt;Node2 -->
<g id="edge5" class="edge"><title>Node0&#45;&gt;Node2</title>
<path fill="none" stroke="midnightblue" d="M92.0875,-51.7085C135.719,-55.2972 201.028,-60.669 241.497,-63.9976"/>
<polygon fill="midnightblue" stroke="midnightblue" points="241.464,-67.5066 251.717,-64.8382 242.038,-60.5302 241.464,-67.5066"/>
</g>
<!-- Node4 -->
<g id="node5" class="node"><title>Node4</title>
<g id="a_node5"><a xlink:href="groestl_8c.html#a447e5baeac911f322f2c8fcda28a197e" target="_top" xlink:title="groestl_big_init">
<polygon fill="white" stroke="black" points="131,-0.5 131,-19.5 213,-19.5 213,-0.5 131,-0.5"/>
<text text-anchor="middle" x="172" y="-7.5" font-family="Helvetica,sans-Serif" font-size="10.00">groestl_big_init</text>
</a>
</g>
</g>
<!-- Node0&#45;&gt;Node4 -->
<g id="edge4" class="edge"><title>Node0&#45;&gt;Node4</title>
<path fill="none" stroke="midnightblue" d="M78.2904,-38.411C94.0039,-33.5956 113.238,-27.7012 130.106,-22.532"/>
<polygon fill="midnightblue" stroke="midnightblue" points="131.184,-25.8624 139.72,-19.5859 129.133,-19.1696 131.184,-25.8624"/>
</g>
<!-- Node1&#45;&gt;Node2 -->
<g id="edge2" class="edge"><title>Node1&#45;&gt;Node2</title>
<path fill="none" stroke="midnightblue" d="M216.01,-78.2172C224.532,-76.6751 233.399,-75.0706 241.672,-73.5736"/>
<polygon fill="midnightblue" stroke="midnightblue" points="242.546,-76.9723 251.763,-71.7476 241.3,-70.0842 242.546,-76.9723"/>
</g>
<!-- Node3 -->
<g id="node4" class="node"><title>Node3</title>
<g id="a_node4"><a xlink:href="glibc__compat_8cpp.html#a9778d49e9029dd75bc53ecbbf9f5e9a1" target="_top" xlink:title="memmove">
<polygon fill="white" stroke="black" points="342,-57.5 342,-76.5 404,-76.5 404,-57.5 342,-57.5"/>
<text text-anchor="middle" x="373" y="-64.5" font-family="Helvetica,sans-Serif" font-size="10.00">memmove</text>
</a>
</g>
</g>
<!-- Node2&#45;&gt;Node3 -->
<g id="edge3" class="edge"><title>Node2&#45;&gt;Node3</title>
<path fill="none" stroke="midnightblue" d="M306.117,-67C314.136,-67 323.152,-67 331.881,-67"/>
<polygon fill="midnightblue" stroke="midnightblue" points="331.92,-70.5001 341.92,-67 331.919,-63.5001 331.92,-70.5001"/>
</g>
</g>
</svg>
