<?xml version="1.0" encoding="UTF-8" standalone="no"?>
<!DOCTYPE svg PUBLIC "-//W3C//DTD SVG 1.1//EN"
 "http://www.w3.org/Graphics/SVG/1.1/DTD/svg11.dtd">
<!-- Generated by graphviz version 2.38.0 (20140413.2041)
 -->
<!-- Title: sph_groestl256_close Pages: 1 -->
<svg width="580pt" height="104pt"
 viewBox="0.00 0.00 580.00 104.00" xmlns="http://www.w3.org/2000/svg" xmlns:xlink="http://www.w3.org/1999/xlink">
<g id="graph0" class="graph" transform="scale(1 1) rotate(0) translate(4 100)">
<title>sph_groestl256_close</title>
<polygon fill="white" stroke="none" points="-4,4 -4,-100 576,-100 576,4 -4,4"/>
<!-- Node457 -->
<g id="node1" class="node"><title>Node457</title>
<polygon fill="#bfbfbf" stroke="black" points="0,-38.5 0,-57.5 111,-57.5 111,-38.5 0,-38.5"/>
<text text-anchor="middle" x="55.5" y="-45.5" font-family="Helvetica,sans-Serif" font-size="10.00">sph_groestl256_close</text>
</g>
<!-- Node458 -->
<g id="node2" class="node"><title>Node458</title>
<g id="a_node2"><a xlink:href="groestl_8c.html#a46bbe998f3f41d565b4a17118205a54a" target="_top" xlink:title="groestl_small_close">
<polygon fill="white" stroke="black" points="147,-38.5 147,-57.5 250,-57.5 250,-38.5 147,-38.5"/>
<text text-anchor="middle" x="198.5" y="-45.5" font-family="Helvetica,sans-Serif" font-size="10.00">groestl_small_close</text>
</a>
</g>
</g>
<!-- Node457&#45;&gt;Node458 -->
<g id="edge1" class="edge"><title>Node457&#45;&gt;Node458</title>
<path fill="none" stroke="midnightblue" d="M111.014,-48C119.389,-48 128.081,-48 136.583,-48"/>
<polygon fill="midnightblue" stroke="midnightblue" points="136.826,-51.5001 146.826,-48 136.826,-44.5001 136.826,-51.5001"/>
</g>
<!-- Node459 -->
<g id="node3" class="node"><title>Node459</title>
<g id="a_node3"><a xlink:href="groestl_8c.html#acef6f126e7d38aa881886f4068e9d7ea" target="_top" xlink:title="groestl_small_core">
<polygon fill="white" stroke="black" points="286,-76.5 286,-95.5 384,-95.5 384,-76.5 286,-76.5"/>
<text text-anchor="middle" x="335" y="-83.5" font-family="Helvetica,sans-Serif" font-size="10.00">groestl_small_core</text>
</a>
</g>
</g>
<!-- Node458&#45;&gt;Node459 -->
<g id="edge2" class="edge"><title>Node458&#45;&gt;Node459</title>
<path fill="none" stroke="midnightblue" d="M233.44,-57.589C250.723,-62.4719 271.933,-68.4643 290.411,-73.685"/>
<polygon fill="midnightblue" stroke="midnightblue" points="289.496,-77.0633 300.071,-76.4141 291.399,-70.327 289.496,-77.0633"/>
</g>
<!-- Node460 -->
<g id="node4" class="node"><title>Node460</title>
<g id="a_node4"><a xlink:href="glibc__compat_8cpp.html#a0f46826ab0466591e136db24394923cf" target="_top" xlink:title="memcpy">
<polygon fill="white" stroke="black" points="420,-57.5 420,-76.5 474,-76.5 474,-57.5 420,-57.5"/>
<text text-anchor="middle" x="447" y="-64.5" font-family="Helvetica,sans-Serif" font-size="10.00">memcpy</text>
</a>
</g>
</g>
<!-- Node458&#45;&gt;Node460 -->
<g id="edge6" class="edge"><title>Node458&#45;&gt;Node460</title>
<path fill="none" stroke="midnightblue" d="M250.276,-51.9138C297.829,-55.5791 367.706,-60.9652 409.833,-64.2123"/>
<polygon fill="midnightblue" stroke="midnightblue" points="409.675,-67.7104 419.914,-64.9894 410.213,-60.7311 409.675,-67.7104"/>
</g>
<!-- Node462 -->
<g id="node6" class="node"><title>Node462</title>
<g id="a_node6"><a xlink:href="groestl_8c.html#a0746d8f7a92b24ba7b6583b12c990750" target="_top" xlink:title="groestl_small_init">
<polygon fill="white" stroke="black" points="289,-0.5 289,-19.5 381,-19.5 381,-0.5 289,-0.5"/>
<text text-anchor="middle" x="335" y="-7.5" font-family="Helvetica,sans-Serif" font-size="10.00">groestl_small_init</text>
</a>
</g>
</g>
<!-- Node458&#45;&gt;Node462 -->
<g id="edge5" class="edge"><title>Node458&#45;&gt;Node462</title>
<path fill="none" stroke="midnightblue" d="M233.44,-38.411C250.723,-33.5281 271.933,-27.5357 290.411,-22.315"/>
<polygon fill="midnightblue" stroke="midnightblue" points="291.399,-25.673 300.071,-19.5859 289.496,-18.9367 291.399,-25.673"/>
</g>
<!-- Node459&#45;&gt;Node460 -->
<g id="edge3" class="edge"><title>Node459&#45;&gt;Node460</title>
<path fill="none" stroke="midnightblue" d="M384.248,-77.6663C392.852,-76.18 401.681,-74.6551 409.874,-73.24"/>
<polygon fill="midnightblue" stroke="midnightblue" points="410.588,-76.6685 419.847,-71.5174 409.397,-69.7706 410.588,-76.6685"/>
</g>
<!-- Node461 -->
<g id="node5" class="node"><title>Node461</title>
<g id="a_node5"><a xlink:href="glibc__compat_8cpp.html#a9778d49e9029dd75bc53ecbbf9f5e9a1" target="_top" xlink:title="memmove">
<polygon fill="white" stroke="black" points="510,-57.5 510,-76.5 572,-76.5 572,-57.5 510,-57.5"/>
<text text-anchor="middle" x="541" y="-64.5" font-family="Helvetica,sans-Serif" font-size="10.00">memmove</text>
</a>
</g>
</g>
<!-- Node460&#45;&gt;Node461 -->
<g id="edge4" class="edge"><title>Node460&#45;&gt;Node461</title>
<path fill="none" stroke="midnightblue" d="M474.117,-67C482.136,-67 491.152,-67 499.881,-67"/>
<polygon fill="midnightblue" stroke="midnightblue" points="499.92,-70.5001 509.92,-67 499.919,-63.5001 499.92,-70.5001"/>
</g>
</g>
</svg>
