<?xml version="1.0" encoding="UTF-8" standalone="no"?>
<!DOCTYPE svg PUBLIC "-//W3C//DTD SVG 1.1//EN"
 "http://www.w3.org/Graphics/SVG/1.1/DTD/svg11.dtd">
<!-- Generated by graphviz version 2.38.0 (20140413.2041)
 -->
<!-- Title: CWallet::Verify Pages: 1 -->
<svg width="897pt" height="1084pt"
 viewBox="0.00 0.00 897.00 1084.00" xmlns="http://www.w3.org/2000/svg" xmlns:xlink="http://www.w3.org/1999/xlink">
<g id="graph0" class="graph" transform="scale(1 1) rotate(0) translate(4 1080)">
<title>CWallet::Verify</title>
<polygon fill="white" stroke="none" points="-4,4 -4,-1080 893,-1080 893,4 -4,4"/>
<!-- Node3418 -->
<g id="node1" class="node"><title>Node3418</title>
<polygon fill="#bfbfbf" stroke="black" points="0,-798.5 0,-817.5 83,-817.5 83,-798.5 0,-798.5"/>
<text text-anchor="middle" x="41.5" y="-805.5" font-family="Helvetica,sans-Serif" font-size="10.00">CWallet::Verify</text>
</g>
<!-- Node3419 -->
<g id="node2" class="node"><title>Node3419</title>
<g id="a_node2"><a xlink:href="util_8h.html#aad133bb6103b53cebf03fd01e2f11ba1" target="_top" xlink:title="Translation function: Call Translate signal on UI interface, which returns a boost::optional result...">
<polygon fill="white" stroke="black" points="159,-922.5 159,-941.5 188,-941.5 188,-922.5 159,-922.5"/>
<text text-anchor="middle" x="173.5" y="-929.5" font-family="Helvetica,sans-Serif" font-size="10.00">_</text>
</a>
</g>
</g>
<!-- Node3418&#45;&gt;Node3419 -->
<g id="edge1" class="edge"><title>Node3418&#45;&gt;Node3419</title>
<path fill="none" stroke="midnightblue" d="M47.6018,-817.522C58.4125,-836.915 85.4115,-881.404 119,-908 127.885,-915.035 139.16,-920.49 149.066,-924.409"/>
<polygon fill="midnightblue" stroke="midnightblue" points="148.142,-927.798 158.736,-927.939 150.542,-921.222 148.142,-927.798"/>
</g>
<!-- Node3420 -->
<g id="node3" class="node"><title>Node3420</title>
<g id="a_node3"><a xlink:href="util_8cpp.html#a64d956f1dda7f9a80ab5d594532b906d" target="_top" xlink:title="Return boolean argument or default value. ">
<polygon fill="white" stroke="black" points="282,-922.5 282,-941.5 349,-941.5 349,-922.5 282,-922.5"/>
<text text-anchor="middle" x="315.5" y="-929.5" font-family="Helvetica,sans-Serif" font-size="10.00">GetBoolArg</text>
</a>
</g>
</g>
<!-- Node3418&#45;&gt;Node3420 -->
<g id="edge2" class="edge"><title>Node3418&#45;&gt;Node3420</title>
<path fill="none" stroke="midnightblue" d="M50.9182,-817.686C64.0456,-832.206 90.8247,-859.553 119,-875 145.32,-889.43 222.735,-909.795 271.884,-921.873"/>
<polygon fill="midnightblue" stroke="midnightblue" points="271.069,-925.277 281.614,-924.246 272.728,-918.476 271.069,-925.277"/>
</g>
<!-- Node3423 -->
<g id="node6" class="node"><title>Node3423</title>
<g id="a_node6"><a xlink:href="util_8cpp.html#ab83866a054745d4b30a3948a1b44beba" target="_top" xlink:title="GetDataDir">
<polygon fill="white" stroke="black" points="614,-798.5 614,-817.5 680,-817.5 680,-798.5 614,-798.5"/>
<text text-anchor="middle" x="647" y="-805.5" font-family="Helvetica,sans-Serif" font-size="10.00">GetDataDir</text>
</a>
</g>
</g>
<!-- Node3418&#45;&gt;Node3423 -->
<g id="edge6" class="edge"><title>Node3418&#45;&gt;Node3423</title>
<path fill="none" stroke="midnightblue" d="M83.0344,-808C192.356,-808 492.5,-808 603.769,-808"/>
<polygon fill="midnightblue" stroke="midnightblue" points="603.935,-811.5 613.934,-808 603.934,-804.5 603.935,-811.5"/>
</g>
<!-- Node3427 -->
<g id="node10" class="node"><title>Node3427</title>
<g id="a_node10"><a xlink:href="utiltime_8cpp.html#a46fac5fba8ba905b5f9acb364f5d8c6f" target="_top" xlink:title="For unit testing. ">
<polygon fill="white" stroke="black" points="789,-722.5 789,-741.5 843,-741.5 843,-722.5 789,-722.5"/>
<text text-anchor="middle" x="816" y="-729.5" font-family="Helvetica,sans-Serif" font-size="10.00">GetTime</text>
</a>
</g>
</g>
<!-- Node3418&#45;&gt;Node3427 -->
<g id="edge10" class="edge"><title>Node3418&#45;&gt;Node3427</title>
<path fill="none" stroke="midnightblue" d="M83.2641,-798.704C136.244,-787.454 231.774,-770 314.5,-770 314.5,-770 314.5,-770 478,-770 588.203,-770 717.407,-749.686 778.916,-738.764"/>
<polygon fill="midnightblue" stroke="midnightblue" points="779.673,-742.184 788.895,-736.968 778.433,-735.294 779.673,-742.184"/>
</g>
<!-- Node3428 -->
<g id="node11" class="node"><title>Node3428</title>
<g id="a_node11"><a xlink:href="class_c_d_b_env.html#aaaef61cd032e25144c06e405fb7f93cf" target="_top" xlink:title="CDBEnv::Open">
<polygon fill="white" stroke="black" points="131,-846.5 131,-865.5 216,-865.5 216,-846.5 131,-846.5"/>
<text text-anchor="middle" x="173.5" y="-853.5" font-family="Helvetica,sans-Serif" font-size="10.00">CDBEnv::Open</text>
</a>
</g>
</g>
<!-- Node3418&#45;&gt;Node3428 -->
<g id="edge11" class="edge"><title>Node3418&#45;&gt;Node3428</title>
<path fill="none" stroke="midnightblue" d="M68.495,-817.598C88.1571,-824.858 115.376,-834.908 137.036,-842.906"/>
<polygon fill="midnightblue" stroke="midnightblue" points="135.957,-846.238 146.55,-846.418 138.381,-839.671 135.957,-846.238"/>
</g>
<!-- Node3443 -->
<g id="node21" class="node"><title>Node3443</title>
<g id="a_node21"><a xlink:href="class_c_wallet_d_b.html#af9fa539659473e1484dc280ec01c0b70" target="_top" xlink:title="CWalletDB::Recover">
<polygon fill="white" stroke="black" points="119,-684.5 119,-703.5 228,-703.5 228,-684.5 119,-684.5"/>
<text text-anchor="middle" x="173.5" y="-691.5" font-family="Helvetica,sans-Serif" font-size="10.00">CWalletDB::Recover</text>
</a>
</g>
</g>
<!-- Node3418&#45;&gt;Node3443 -->
<g id="edge23" class="edge"><title>Node3418&#45;&gt;Node3443</title>
<path fill="none" stroke="midnightblue" d="M53.5837,-798.28C75.8418,-778.762 126.192,-734.609 153.698,-710.488"/>
<polygon fill="midnightblue" stroke="midnightblue" points="156.233,-712.92 161.444,-703.695 151.618,-707.657 156.233,-712.92"/>
</g>
<!-- Node3606 -->
<g id="node50" class="node"><title>Node3606</title>
<g id="a_node50"><a xlink:href="class_c_d_b_env.html#a3b051e81f5cb7d5ba71e2742bb6e47fa" target="_top" xlink:title="CDBEnv::Verify">
<polygon fill="white" stroke="black" points="130,-646.5 130,-665.5 217,-665.5 217,-646.5 130,-646.5"/>
<text text-anchor="middle" x="173.5" y="-653.5" font-family="Helvetica,sans-Serif" font-size="10.00">CDBEnv::Verify</text>
</a>
</g>
</g>
<!-- Node3418&#45;&gt;Node3606 -->
<g id="edge55" class="edge"><title>Node3418&#45;&gt;Node3606</title>
<path fill="none" stroke="midnightblue" d="M45.4052,-798.431C53.234,-774.22 77.0603,-709.971 119,-675 121.02,-673.315 123.201,-671.776 125.486,-670.369"/>
<polygon fill="midnightblue" stroke="midnightblue" points="127.446,-673.294 134.703,-665.575 124.216,-667.084 127.446,-673.294"/>
</g>
<!-- Node3421 -->
<g id="node4" class="node"><title>Node3421</title>
<g id="a_node4"><a xlink:href="util_8cpp.html#adcbab0c1a0f7f85a15bcf661621a08f5" target="_top" xlink:title="Interpret string as boolean, for argument parsing. ">
<polygon fill="white" stroke="black" points="441,-1014.5 441,-1033.5 513,-1033.5 513,-1014.5 441,-1014.5"/>
<text text-anchor="middle" x="477" y="-1021.5" font-family="Helvetica,sans-Serif" font-size="10.00">InterpretBool</text>
</a>
</g>
</g>
<!-- Node3420&#45;&gt;Node3421 -->
<g id="edge3" class="edge"><title>Node3420&#45;&gt;Node3421</title>
<path fill="none" stroke="midnightblue" d="M333.268,-941.672C361.222,-957.796 417.52,-990.269 450.441,-1009.26"/>
<polygon fill="midnightblue" stroke="midnightblue" points="449.046,-1012.49 459.457,-1014.46 452.543,-1006.43 449.046,-1012.49"/>
</g>
<!-- Node3422 -->
<g id="node5" class="node"><title>Node3422</title>
<g id="a_node5"><a xlink:href="utilstrencodings_8cpp.html#aa5ce96ec36f4413f820cec9c1831c070" target="_top" xlink:title="atoi">
<polygon fill="white" stroke="black" points="631,-1038.5 631,-1057.5 663,-1057.5 663,-1038.5 631,-1038.5"/>
<text text-anchor="middle" x="647" y="-1045.5" font-family="Helvetica,sans-Serif" font-size="10.00">atoi</text>
</a>
</g>
</g>
<!-- Node3421&#45;&gt;Node3422 -->
<g id="edge4" class="edge"><title>Node3421&#45;&gt;Node3422</title>
<path fill="none" stroke="midnightblue" d="M513.218,-1029.03C545.468,-1033.64 592.399,-1040.34 620.968,-1044.42"/>
<polygon fill="midnightblue" stroke="midnightblue" points="620.555,-1047.9 630.949,-1045.85 621.545,-1040.97 620.555,-1047.9"/>
</g>
<!-- Node3422&#45;&gt;Node3422 -->
<g id="edge5" class="edge"><title>Node3422&#45;&gt;Node3422</title>
<path fill="none" stroke="midnightblue" d="M630.729,-1052.82C605.975,-1062.59 611.398,-1076 647,-1076 677.317,-1076 685.75,-1066.27 672.3,-1057.35"/>
<polygon fill="midnightblue" stroke="midnightblue" points="673.778,-1054.18 663.271,-1052.82 670.635,-1060.43 673.778,-1054.18"/>
</g>
<!-- Node3424 -->
<g id="node7" class="node"><title>Node3424</title>
<g id="a_node7"><a xlink:href="chainparamsbase_8cpp.html#a06ef5bfd0efb53d13bbf4276726e84ab" target="_top" xlink:title="Return the currently selected parameters. ">
<polygon fill="white" stroke="black" points="779.5,-760.5 779.5,-779.5 852.5,-779.5 852.5,-760.5 779.5,-760.5"/>
<text text-anchor="middle" x="816" y="-767.5" font-family="Helvetica,sans-Serif" font-size="10.00">BaseParams</text>
</a>
</g>
</g>
<!-- Node3423&#45;&gt;Node3424 -->
<g id="edge7" class="edge"><title>Node3423&#45;&gt;Node3424</title>
<path fill="none" stroke="midnightblue" d="M680.199,-800.673C705.524,-794.911 741.127,-786.809 769.385,-780.38"/>
<polygon fill="midnightblue" stroke="midnightblue" points="770.456,-783.725 779.43,-778.094 768.903,-776.9 770.456,-783.725"/>
</g>
<!-- Node3425 -->
<g id="node8" class="node"><title>Node3425</title>
<g id="a_node8"><a xlink:href="class_c_base_chain_params.html#a4b142e94ae27f860522dd5efef41fb67" target="_top" xlink:title="CBaseChainParams::DataDir">
<polygon fill="white" stroke="black" points="743,-836.5 743,-855.5 889,-855.5 889,-836.5 743,-836.5"/>
<text text-anchor="middle" x="816" y="-843.5" font-family="Helvetica,sans-Serif" font-size="10.00">CBaseChainParams::DataDir</text>
</a>
</g>
</g>
<!-- Node3423&#45;&gt;Node3425 -->
<g id="edge8" class="edge"><title>Node3423&#45;&gt;Node3425</title>
<path fill="none" stroke="midnightblue" d="M680.199,-815.327C703.648,-820.662 735.909,-828.003 762.991,-834.166"/>
<polygon fill="midnightblue" stroke="midnightblue" points="762.561,-837.657 773.088,-836.463 764.114,-830.832 762.561,-837.657"/>
</g>
<!-- Node3426 -->
<g id="node9" class="node"><title>Node3426</title>
<g id="a_node9"><a xlink:href="util_8cpp.html#ab272995de020a3bcbf743be630e485c6" target="_top" xlink:title="GetDefaultDataDir">
<polygon fill="white" stroke="black" points="767,-798.5 767,-817.5 865,-817.5 865,-798.5 767,-798.5"/>
<text text-anchor="middle" x="816" y="-805.5" font-family="Helvetica,sans-Serif" font-size="10.00">GetDefaultDataDir</text>
</a>
</g>
</g>
<!-- Node3423&#45;&gt;Node3426 -->
<g id="edge9" class="edge"><title>Node3423&#45;&gt;Node3426</title>
<path fill="none" stroke="midnightblue" d="M680.199,-808C701.871,-808 731.07,-808 756.751,-808"/>
<polygon fill="midnightblue" stroke="midnightblue" points="756.767,-811.5 766.767,-808 756.767,-804.5 756.767,-811.5"/>
</g>
<!-- Node3428&#45;&gt;Node3420 -->
<g id="edge13" class="edge"><title>Node3428&#45;&gt;Node3420</title>
<path fill="none" stroke="midnightblue" d="M200.141,-865.527C209.27,-869.422 219.41,-874.35 228,-880 246.134,-891.928 245.506,-901.638 264,-913 267.18,-914.954 270.594,-916.759 274.091,-918.416"/>
<polygon fill="midnightblue" stroke="midnightblue" points="272.873,-921.702 283.441,-922.452 275.647,-915.275 272.873,-921.702"/>
</g>
<!-- Node3429 -->
<g id="node12" class="node"><title>Node3429</title>
<g id="a_node12"><a xlink:href="util_8cpp.html#a4458ca67cacd593b21c8e1386d192064" target="_top" xlink:title="Ignores exceptions thrown by Boost&#39;s create_directory if the requested directory exists. ">
<polygon fill="white" stroke="black" points="265.5,-884.5 265.5,-903.5 365.5,-903.5 365.5,-884.5 265.5,-884.5"/>
<text text-anchor="middle" x="315.5" y="-891.5" font-family="Helvetica,sans-Serif" font-size="10.00">TryCreateDirectory</text>
</a>
</g>
</g>
<!-- Node3428&#45;&gt;Node3429 -->
<g id="edge12" class="edge"><title>Node3428&#45;&gt;Node3429</title>
<path fill="none" stroke="midnightblue" d="M209.828,-865.589C227.901,-870.494 250.098,-876.52 269.395,-881.757"/>
<polygon fill="midnightblue" stroke="midnightblue" points="268.616,-885.172 279.183,-884.414 270.449,-878.417 268.616,-885.172"/>
</g>
<!-- Node3430 -->
<g id="node13" class="node"><title>Node3430</title>
<g id="a_node13"><a xlink:href="util_8h.html#af8985880cf4ef26df0a5aa2ffcb76662" target="_top" xlink:title="error">
<polygon fill="white" stroke="black" points="297.5,-846.5 297.5,-865.5 333.5,-865.5 333.5,-846.5 297.5,-846.5"/>
<text text-anchor="middle" x="315.5" y="-853.5" font-family="Helvetica,sans-Serif" font-size="10.00">error</text>
</a>
</g>
</g>
<!-- Node3428&#45;&gt;Node3430 -->
<g id="edge14" class="edge"><title>Node3428&#45;&gt;Node3430</title>
<path fill="none" stroke="midnightblue" d="M216.126,-856C239.082,-856 266.939,-856 287.142,-856"/>
<polygon fill="midnightblue" stroke="midnightblue" points="287.219,-859.5 297.219,-856 287.219,-852.5 287.219,-859.5"/>
</g>
<!-- Node3431 -->
<g id="node14" class="node"><title>Node3431</title>
<g id="a_node14"><a xlink:href="namespacetinyformat_1_1detail.html#aa4b0590b3e34562c2d252a2086cec7ba" target="_top" xlink:title="tinyformat::detail\l::format">
<polygon fill="white" stroke="black" points="432.5,-941 432.5,-971 521.5,-971 521.5,-941 432.5,-941"/>
<text text-anchor="start" x="440.5" y="-959" font-family="Helvetica,sans-Serif" font-size="10.00">tinyformat::detail</text>
<text text-anchor="middle" x="477" y="-948" font-family="Helvetica,sans-Serif" font-size="10.00">::format</text>
</a>
</g>
</g>
<!-- Node3430&#45;&gt;Node3431 -->
<g id="edge15" class="edge"><title>Node3430&#45;&gt;Node3431</title>
<path fill="none" stroke="midnightblue" d="M333.856,-861.193C343.85,-864.507 356.475,-869.257 367,-875 397.878,-891.848 429.787,-916.569 451.037,-934.265"/>
<polygon fill="midnightblue" stroke="midnightblue" points="449.009,-937.133 458.909,-940.906 453.522,-931.782 449.009,-937.133"/>
</g>
<!-- Node3434 -->
<g id="node16" class="node"><title>Node3434</title>
<g id="a_node16"><a xlink:href="util_8h.html#afd4c3002b2797c0560adddb6af3ca1da" target="_top" xlink:title="Send a string to the log output. ">
<polygon fill="white" stroke="black" points="444.5,-855.5 444.5,-874.5 509.5,-874.5 509.5,-855.5 444.5,-855.5"/>
<text text-anchor="middle" x="477" y="-862.5" font-family="Helvetica,sans-Serif" font-size="10.00">LogPrintStr</text>
</a>
</g>
</g>
<!-- Node3430&#45;&gt;Node3434 -->
<g id="edge17" class="edge"><title>Node3430&#45;&gt;Node3434</title>
<path fill="none" stroke="midnightblue" d="M333.569,-856.963C357.355,-858.305 401.235,-860.781 434.031,-862.632"/>
<polygon fill="midnightblue" stroke="midnightblue" points="434.068,-866.139 444.249,-863.208 434.463,-859.151 434.068,-866.139"/>
</g>
<!-- Node3432 -->
<g id="node15" class="node"><title>Node3432</title>
<g id="a_node15"><a xlink:href="classtinyformat_1_1detail_1_1_format_iterator.html#a46377a804f72dbad1e508d2fbaa18ce9" target="_top" xlink:title="tinyformat::detail\l::FormatIterator::finish">
<polygon fill="white" stroke="red" points="590.5,-989 590.5,-1019 703.5,-1019 703.5,-989 590.5,-989"/>
<text text-anchor="start" x="598.5" y="-1007" font-family="Helvetica,sans-Serif" font-size="10.00">tinyformat::detail</text>
<text text-anchor="middle" x="647" y="-996" font-family="Helvetica,sans-Serif" font-size="10.00">::FormatIterator::finish</text>
</a>
</g>
</g>
<!-- Node3431&#45;&gt;Node3432 -->
<g id="edge16" class="edge"><title>Node3431&#45;&gt;Node3432</title>
<path fill="none" stroke="midnightblue" d="M521.701,-968.486C540.586,-973.882 563.031,-980.295 583.618,-986.176"/>
<polygon fill="midnightblue" stroke="midnightblue" points="582.66,-989.543 593.237,-988.925 584.584,-982.812 582.66,-989.543"/>
</g>
<!-- Node3434&#45;&gt;Node3423 -->
<g id="edge20" class="edge"><title>Node3434&#45;&gt;Node3423</title>
<path fill="none" stroke="midnightblue" d="M504.815,-855.451C526.841,-847.656 558.878,-836.428 587,-827 593.16,-824.935 599.696,-822.787 606.088,-820.71"/>
<polygon fill="midnightblue" stroke="midnightblue" points="607.5,-823.932 615.94,-817.527 605.348,-817.271 607.5,-823.932"/>
</g>
<!-- Node3435 -->
<g id="node17" class="node"><title>Node3435</title>
<g id="a_node17"><a xlink:href="util_8cpp.html#a751ff5f21d880737811136b5e0bcea12" target="_top" xlink:title="DebugPrintInit">
<polygon fill="white" stroke="black" points="607.5,-912.5 607.5,-931.5 686.5,-931.5 686.5,-912.5 607.5,-912.5"/>
<text text-anchor="middle" x="647" y="-919.5" font-family="Helvetica,sans-Serif" font-size="10.00">DebugPrintInit</text>
</a>
</g>
</g>
<!-- Node3434&#45;&gt;Node3435 -->
<g id="edge18" class="edge"><title>Node3434&#45;&gt;Node3435</title>
<path fill="none" stroke="midnightblue" d="M504.815,-874.549C526.841,-882.344 558.878,-893.572 587,-903 593.16,-905.065 599.696,-907.213 606.088,-909.29"/>
<polygon fill="midnightblue" stroke="midnightblue" points="605.348,-912.729 615.94,-912.473 607.5,-906.068 605.348,-912.729"/>
</g>
<!-- Node3436 -->
<g id="node18" class="node"><title>Node3436</title>
<g id="a_node18"><a xlink:href="util_8cpp.html#a7c125ce70fa6b09e1de0c4a404fc2b6f" target="_top" xlink:title="FileWriteStr">
<polygon fill="white" stroke="black" points="613,-874.5 613,-893.5 681,-893.5 681,-874.5 613,-874.5"/>
<text text-anchor="middle" x="647" y="-881.5" font-family="Helvetica,sans-Serif" font-size="10.00">FileWriteStr</text>
</a>
</g>
</g>
<!-- Node3434&#45;&gt;Node3436 -->
<g id="edge19" class="edge"><title>Node3434&#45;&gt;Node3436</title>
<path fill="none" stroke="midnightblue" d="M509.6,-868.574C535.842,-871.542 573.446,-875.794 602.526,-879.083"/>
<polygon fill="midnightblue" stroke="midnightblue" points="602.488,-882.601 612.818,-880.247 603.275,-875.646 602.488,-882.601"/>
</g>
<!-- Node3437 -->
<g id="node19" class="node"><title>Node3437</title>
<g id="a_node19"><a xlink:href="util_8cpp.html#af0c31e37a5891e021f9b339696398a28" target="_top" xlink:title="fStartedNewLine is a state variable held by the calling context that will suppress printing of the th...">
<polygon fill="white" stroke="red" points="596.5,-836.5 596.5,-855.5 697.5,-855.5 697.5,-836.5 596.5,-836.5"/>
<text text-anchor="middle" x="647" y="-843.5" font-family="Helvetica,sans-Serif" font-size="10.00">LogThreadNameStr</text>
</a>
</g>
</g>
<!-- Node3434&#45;&gt;Node3437 -->
<g id="edge21" class="edge"><title>Node3434&#45;&gt;Node3437</title>
<path fill="none" stroke="midnightblue" d="M509.6,-861.426C531.165,-858.987 560.402,-855.681 586.277,-852.754"/>
<polygon fill="midnightblue" stroke="midnightblue" points="586.834,-856.214 596.377,-851.612 586.047,-849.258 586.834,-856.214"/>
</g>
<!-- Node3439 -->
<g id="node20" class="node"><title>Node3439</title>
<g id="a_node20"><a xlink:href="util_8cpp.html#a8e80ae045580407e9f2028dc5f7b954c" target="_top" xlink:title="fStartedNewLine is a state variable held by the calling context that will suppress printing of the ti...">
<polygon fill="white" stroke="red" points="600,-950.5 600,-969.5 694,-969.5 694,-950.5 600,-950.5"/>
<text text-anchor="middle" x="647" y="-957.5" font-family="Helvetica,sans-Serif" font-size="10.00">LogTimestampStr</text>
</a>
</g>
</g>
<!-- Node3434&#45;&gt;Node3439 -->
<g id="edge22" class="edge"><title>Node3434&#45;&gt;Node3439</title>
<path fill="none" stroke="midnightblue" d="M489.369,-874.665C508.435,-890.458 548.555,-921.942 587,-941 591.351,-943.157 596.001,-945.143 600.71,-946.953"/>
<polygon fill="midnightblue" stroke="midnightblue" points="599.786,-950.34 610.38,-950.417 602.146,-943.75 599.786,-950.34"/>
</g>
<!-- Node3443&#45;&gt;Node3427 -->
<g id="edge24" class="edge"><title>Node3443&#45;&gt;Node3427</title>
<path fill="none" stroke="midnightblue" d="M212.141,-703.518C228.038,-707.139 246.814,-710.896 264,-713 456.863,-736.613 690.322,-734.725 778.725,-732.93"/>
<polygon fill="midnightblue" stroke="midnightblue" points="778.852,-736.429 788.775,-732.714 778.701,-729.43 778.852,-736.429"/>
</g>
<!-- Node3444 -->
<g id="node22" class="node"><title>Node3444</title>
<g id="a_node22"><a xlink:href="class_c_d_b_env.html#ad1a7c8aabbea282347acece998883905" target="_top" xlink:title="CDBEnv::Salvage">
<polygon fill="white" stroke="black" points="267,-684.5 267,-703.5 364,-703.5 364,-684.5 267,-684.5"/>
<text text-anchor="middle" x="315.5" y="-691.5" font-family="Helvetica,sans-Serif" font-size="10.00">CDBEnv::Salvage</text>
</a>
</g>
</g>
<!-- Node3443&#45;&gt;Node3444 -->
<g id="edge25" class="edge"><title>Node3443&#45;&gt;Node3444</title>
<path fill="none" stroke="midnightblue" d="M228.227,-694C237.514,-694 247.206,-694 256.598,-694"/>
<polygon fill="midnightblue" stroke="midnightblue" points="256.638,-697.5 266.638,-694 256.638,-690.5 256.638,-697.5"/>
</g>
<!-- Node3447 -->
<g id="node25" class="node"><title>Node3447</title>
<g id="a_node25"><a xlink:href="class_c_d_b_env.html#a5f1daab338b2098ea693efad6edefb9b" target="_top" xlink:title="CDBEnv::TxnBegin">
<polygon fill="white" stroke="black" points="264,-342.5 264,-361.5 367,-361.5 367,-342.5 264,-342.5"/>
<text text-anchor="middle" x="315.5" y="-349.5" font-family="Helvetica,sans-Serif" font-size="10.00">CDBEnv::TxnBegin</text>
</a>
</g>
</g>
<!-- Node3443&#45;&gt;Node3447 -->
<g id="edge28" class="edge"><title>Node3443&#45;&gt;Node3447</title>
<path fill="none" stroke="midnightblue" d="M216.702,-684.373C221.011,-681.923 224.925,-678.852 228,-675 312.884,-568.671 180.109,-478.114 264,-371 264.939,-369.802 265.961,-368.679 267.054,-367.627"/>
<polygon fill="midnightblue" stroke="midnightblue" points="269.164,-370.419 275.126,-361.661 265.004,-364.79 269.164,-370.419"/>
</g>
<!-- Node3448 -->
<g id="node26" class="node"><title>Node3448</title>
<g id="a_node26"><a xlink:href="walletdb_8cpp.html#ad1f171cf096f5479805a06fc20480343" target="_top" xlink:title="ReadKeyValue">
<polygon fill="white" stroke="black" points="274.5,-380.5 274.5,-399.5 356.5,-399.5 356.5,-380.5 274.5,-380.5"/>
<text text-anchor="middle" x="315.5" y="-387.5" font-family="Helvetica,sans-Serif" font-size="10.00">ReadKeyValue</text>
</a>
</g>
</g>
<!-- Node3443&#45;&gt;Node3448 -->
<g id="edge29" class="edge"><title>Node3443&#45;&gt;Node3448</title>
<path fill="none" stroke="midnightblue" d="M214.999,-684.371C219.82,-681.922 224.325,-678.85 228,-675 301.365,-598.136 312.684,-461.034 314.295,-409.927"/>
<polygon fill="midnightblue" stroke="midnightblue" points="317.801,-409.693 314.519,-399.619 310.802,-409.54 317.801,-409.693"/>
</g>
<!-- Node3605 -->
<g id="node49" class="node"><title>Node3605</title>
<g id="a_node49"><a xlink:href="walletdb_8cpp.html#a46e85dcfea881e75391f118eefd4cacc" target="_top" xlink:title="IsKeyType">
<polygon fill="white" stroke="black" points="283.5,-304.5 283.5,-323.5 347.5,-323.5 347.5,-304.5 283.5,-304.5"/>
<text text-anchor="middle" x="315.5" y="-311.5" font-family="Helvetica,sans-Serif" font-size="10.00">IsKeyType</text>
</a>
</g>
</g>
<!-- Node3443&#45;&gt;Node3605 -->
<g id="edge54" class="edge"><title>Node3443&#45;&gt;Node3605</title>
<path fill="none" stroke="midnightblue" d="M216.751,-684.412C221.051,-681.955 224.95,-678.871 228,-675 322.577,-554.937 170.544,-453.938 264,-333 266.782,-329.4 270.325,-326.483 274.241,-324.118"/>
<polygon fill="midnightblue" stroke="midnightblue" points="275.769,-327.267 283.259,-319.774 272.731,-320.961 275.769,-327.267"/>
</g>
<!-- Node3445 -->
<g id="node23" class="node"><title>Node3445</title>
<g id="a_node23"><a xlink:href="utilstrencodings_8cpp.html#abea395175fbc4a788ed0f0a41710b8a7" target="_top" xlink:title="ParseHex">
<polygon fill="white" stroke="black" points="447,-684.5 447,-703.5 507,-703.5 507,-684.5 447,-684.5"/>
<text text-anchor="middle" x="477" y="-691.5" font-family="Helvetica,sans-Serif" font-size="10.00">ParseHex</text>
</a>
</g>
</g>
<!-- Node3444&#45;&gt;Node3445 -->
<g id="edge26" class="edge"><title>Node3444&#45;&gt;Node3445</title>
<path fill="none" stroke="midnightblue" d="M364.355,-694C387.382,-694 414.655,-694 436.482,-694"/>
<polygon fill="midnightblue" stroke="midnightblue" points="436.716,-697.5 446.716,-694 436.716,-690.5 436.716,-697.5"/>
</g>
<!-- Node3446 -->
<g id="node24" class="node"><title>Node3446</title>
<g id="a_node24"><a xlink:href="utilstrencodings_8cpp.html#aa59e8a8c5a39cb5041f93bb95dd02119" target="_top" xlink:title="HexDigit">
<polygon fill="white" stroke="black" points="619.5,-684.5 619.5,-703.5 674.5,-703.5 674.5,-684.5 619.5,-684.5"/>
<text text-anchor="middle" x="647" y="-691.5" font-family="Helvetica,sans-Serif" font-size="10.00">HexDigit</text>
</a>
</g>
</g>
<!-- Node3445&#45;&gt;Node3446 -->
<g id="edge27" class="edge"><title>Node3445&#45;&gt;Node3446</title>
<path fill="none" stroke="midnightblue" d="M507.263,-694C535.519,-694 578.411,-694 609.018,-694"/>
<polygon fill="midnightblue" stroke="midnightblue" points="609.287,-697.5 619.287,-694 609.287,-690.5 609.287,-697.5"/>
</g>
<!-- Node3449 -->
<g id="node27" class="node"><title>Node3449</title>
<g id="a_node27"><a xlink:href="group__map_wallet.html#ga5dd4c302f7ead99d078a113077eac045" target="_top" xlink:title="CWallet::AddToWallet">
<polygon fill="white" stroke="red" points="420,-114.5 420,-133.5 534,-133.5 534,-114.5 420,-114.5"/>
<text text-anchor="middle" x="477" y="-121.5" font-family="Helvetica,sans-Serif" font-size="10.00">CWallet::AddToWallet</text>
</a>
</g>
</g>
<!-- Node3448&#45;&gt;Node3449 -->
<g id="edge30" class="edge"><title>Node3448&#45;&gt;Node3449</title>
<path fill="none" stroke="midnightblue" d="M355.734,-380.227C360.012,-377.802 363.923,-374.776 367,-371 431.807,-291.474 334.1,-219.008 403,-143 405.404,-140.348 408.126,-138.046 411.072,-136.05"/>
<polygon fill="midnightblue" stroke="midnightblue" points="412.815,-139.085 419.885,-131.193 409.437,-132.954 412.815,-139.085"/>
</g>
<!-- Node3458 -->
<g id="node32" class="node"><title>Node3458</title>
<g id="a_node32"><a xlink:href="classbase__blob.html#aba89c6722866a5850882a509d27d7bbd" target="_top" xlink:title="base_blob::IsNull">
<polygon fill="white" stroke="black" points="601,-76.5 601,-95.5 693,-95.5 693,-76.5 601,-76.5"/>
<text text-anchor="middle" x="647" y="-83.5" font-family="Helvetica,sans-Serif" font-size="10.00">base_blob::IsNull</text>
</a>
</g>
</g>
<!-- Node3448&#45;&gt;Node3458 -->
<g id="edge41" class="edge"><title>Node3448&#45;&gt;Node3458</title>
<path fill="none" stroke="midnightblue" d="M355.813,-380.291C360.079,-377.856 363.965,-374.81 367,-371 441.339,-277.693 316.293,-186.942 403,-105 429.074,-80.3585 527.213,-80.0241 590.514,-82.6076"/>
<polygon fill="midnightblue" stroke="midnightblue" points="590.598,-86.1147 600.743,-83.0625 590.909,-79.1216 590.598,-86.1147"/>
</g>
<!-- Node3480 -->
<g id="node33" class="node"><title>Node3480</title>
<g id="a_node33"><a xlink:href="validation_8cpp.html#a3d8c4ba3a0c2b7a05cab21c95a886fbe" target="_top" xlink:title="Context&#45;independent validity checks. ">
<polygon fill="white" stroke="red" points="429,-38.5 429,-57.5 525,-57.5 525,-38.5 429,-38.5"/>
<text text-anchor="middle" x="477" y="-45.5" font-family="Helvetica,sans-Serif" font-size="10.00">CheckTransaction</text>
</a>
</g>
</g>
<!-- Node3448&#45;&gt;Node3480 -->
<g id="edge37" class="edge"><title>Node3448&#45;&gt;Node3480</title>
<path fill="none" stroke="midnightblue" d="M355.867,-380.333C360.124,-377.891 363.993,-374.832 367,-371 449.633,-265.704 318.163,-175.528 403,-72 407.431,-66.5923 413.108,-62.3928 419.333,-59.1336"/>
<polygon fill="midnightblue" stroke="midnightblue" points="421.013,-62.2191 428.767,-54.9999 418.203,-55.8076 421.013,-62.2191"/>
</g>
<!-- Node3485 -->
<g id="node34" class="node"><title>Node3485</title>
<g id="a_node34"><a xlink:href="class_c_data_stream.html#ab2633ac67f098dad30d03291741c2e42" target="_top" xlink:title="CDataStream::empty">
<polygon fill="white" stroke="black" points="422,-0.5 422,-19.5 532,-19.5 532,-0.5 422,-0.5"/>
<text text-anchor="middle" x="477" y="-7.5" font-family="Helvetica,sans-Serif" font-size="10.00">CDataStream::empty</text>
</a>
</g>
</g>
<!-- Node3448&#45;&gt;Node3485 -->
<g id="edge38" class="edge"><title>Node3448&#45;&gt;Node3485</title>
<path fill="none" stroke="midnightblue" d="M355.922,-380.376C360.169,-377.927 364.022,-374.854 367,-371 460.456,-250.062 303.313,-144.856 403,-29 405.835,-25.7055 409.161,-22.9459 412.805,-20.6378"/>
<polygon fill="midnightblue" stroke="midnightblue" points="414.492,-23.7058 421.798,-16.0326 411.302,-17.4752 414.492,-23.7058"/>
</g>
<!-- Node3486 -->
<g id="node35" class="node"><title>Node3486</title>
<g id="a_node35"><a xlink:href="class_c_bitcoin_address.html#a1e44de10dfc84d1fd2e15150f1e22b8e" target="_top" xlink:title="CBitcoinAddress::Get">
<polygon fill="white" stroke="red" points="421,-646.5 421,-665.5 533,-665.5 533,-646.5 421,-646.5"/>
<text text-anchor="middle" x="477" y="-653.5" font-family="Helvetica,sans-Serif" font-size="10.00">CBitcoinAddress::Get</text>
</a>
</g>
</g>
<!-- Node3448&#45;&gt;Node3486 -->
<g id="edge39" class="edge"><title>Node3448&#45;&gt;Node3486</title>
<path fill="none" stroke="midnightblue" d="M316.8,-399.511C318.489,-436.147 329.641,-569.438 403,-637 405.633,-639.424 408.535,-641.548 411.619,-643.407"/>
<polygon fill="midnightblue" stroke="midnightblue" points="410.215,-646.618 420.722,-647.976 413.355,-640.362 410.215,-646.618"/>
</g>
<!-- Node3491 -->
<g id="node36" class="node"><title>Node3491</title>
<g id="a_node36"><a xlink:href="hash_8h.html#ab3f6c437460137530d86e09c2c102e99" target="_top" xlink:title="Compute the 256&#45;bit hash of an object. ">
<polygon fill="white" stroke="red" points="457,-608.5 457,-627.5 497,-627.5 497,-608.5 457,-608.5"/>
<text text-anchor="middle" x="477" y="-615.5" font-family="Helvetica,sans-Serif" font-size="10.00">Hash</text>
</a>
</g>
</g>
<!-- Node3448&#45;&gt;Node3491 -->
<g id="edge40" class="edge"><title>Node3448&#45;&gt;Node3491</title>
<path fill="none" stroke="midnightblue" d="M317.491,-399.633C321.43,-432.801 339.035,-543.293 403,-599 415,-609.451 432.054,-614.261 446.661,-616.431"/>
<polygon fill="midnightblue" stroke="midnightblue" points="446.425,-619.927 456.758,-617.587 447.221,-612.972 446.425,-619.927"/>
</g>
<!-- Node3503 -->
<g id="node37" class="node"><title>Node3503</title>
<g id="a_node37"><a xlink:href="class_c_validation_state.html#a7dc31c88ba63ad17a954f247d21b550c" target="_top" xlink:title="CValidationState::IsValid">
<polygon fill="white" stroke="black" points="414,-570.5 414,-589.5 540,-589.5 540,-570.5 414,-570.5"/>
<text text-anchor="middle" x="477" y="-577.5" font-family="Helvetica,sans-Serif" font-size="10.00">CValidationState::IsValid</text>
</a>
</g>
</g>
<!-- Node3448&#45;&gt;Node3503 -->
<g id="edge42" class="edge"><title>Node3448&#45;&gt;Node3503</title>
<path fill="none" stroke="midnightblue" d="M318.513,-399.909C325.025,-429.343 348.351,-516.938 403,-561 405.171,-562.751 407.486,-564.341 409.906,-565.787"/>
<polygon fill="midnightblue" stroke="midnightblue" points="408.555,-569.026 419.059,-570.411 411.712,-562.778 408.555,-569.026"/>
</g>
<!-- Node3504 -->
<g id="node38" class="node"><title>Node3504</title>
<g id="a_node38"><a xlink:href="class_c_key.html#a141751588f8bfe5f1b6fc27f4e64b63f" target="_top" xlink:title="Load private key and check that public key matches. ">
<polygon fill="white" stroke="red" points="443,-532.5 443,-551.5 511,-551.5 511,-532.5 443,-532.5"/>
<text text-anchor="middle" x="477" y="-539.5" font-family="Helvetica,sans-Serif" font-size="10.00">CKey::Load</text>
</a>
</g>
</g>
<!-- Node3448&#45;&gt;Node3504 -->
<g id="edge43" class="edge"><title>Node3448&#45;&gt;Node3504</title>
<path fill="none" stroke="midnightblue" d="M319.977,-399.802C329.279,-424.561 357.188,-489.99 403,-523 411.776,-529.324 422.489,-533.545 432.975,-536.362"/>
<polygon fill="midnightblue" stroke="midnightblue" points="432.357,-539.811 442.889,-538.655 433.935,-532.991 432.357,-539.811"/>
</g>
<!-- Node3551 -->
<g id="node39" class="node"><title>Node3551</title>
<g id="a_node39"><a xlink:href="group__map_wallet.html#ga01fbd78238d4ef833d059f12a7e8ac9f" target="_top" xlink:title="Adds an encrypted key to the store, without saving it to disk (used by LoadWallet) ...">
<polygon fill="white" stroke="red" points="411.5,-494.5 411.5,-513.5 542.5,-513.5 542.5,-494.5 411.5,-494.5"/>
<text text-anchor="middle" x="477" y="-501.5" font-family="Helvetica,sans-Serif" font-size="10.00">CWallet::LoadCryptedKey</text>
</a>
</g>
</g>
<!-- Node3448&#45;&gt;Node3551 -->
<g id="edge44" class="edge"><title>Node3448&#45;&gt;Node3551</title>
<path fill="none" stroke="midnightblue" d="M322.552,-399.78C335.069,-419.162 365.77,-462.51 403,-485 406.594,-487.171 410.433,-489.096 414.399,-490.803"/>
<polygon fill="midnightblue" stroke="midnightblue" points="413.237,-494.106 423.828,-494.403 415.734,-487.567 413.237,-494.106"/>
</g>
<!-- Node3562 -->
<g id="node40" class="node"><title>Node3562</title>
<g id="a_node40"><a xlink:href="group__map_wallet.html#gadbf0abef9da8102f000d4afd5cec5bbc" target="_top" xlink:title="CWallet::LoadCScript">
<polygon fill="white" stroke="red" points="421,-456.5 421,-475.5 533,-475.5 533,-456.5 421,-456.5"/>
<text text-anchor="middle" x="477" y="-463.5" font-family="Helvetica,sans-Serif" font-size="10.00">CWallet::LoadCScript</text>
</a>
</g>
</g>
<!-- Node3448&#45;&gt;Node3562 -->
<g id="edge45" class="edge"><title>Node3448&#45;&gt;Node3562</title>
<path fill="none" stroke="midnightblue" d="M328.363,-399.666C344.382,-412.267 374.245,-434.206 403,-447 408.442,-449.421 414.255,-451.582 420.135,-453.499"/>
<polygon fill="midnightblue" stroke="midnightblue" points="419.455,-456.949 430.04,-456.496 421.482,-450.249 419.455,-456.949"/>
</g>
<!-- Node3569 -->
<g id="node41" class="node"><title>Node3569</title>
<g id="a_node41"><a xlink:href="class_c_wallet.html#a0d78de06c0b02f773b7ecbb21d42aada" target="_top" xlink:title="Adds a destination data tuple to the store, without saving it to disk. ">
<polygon fill="white" stroke="black" points="416.5,-418.5 416.5,-437.5 537.5,-437.5 537.5,-418.5 416.5,-418.5"/>
<text text-anchor="middle" x="477" y="-425.5" font-family="Helvetica,sans-Serif" font-size="10.00">CWallet::LoadDestData</text>
</a>
</g>
</g>
<!-- Node3448&#45;&gt;Node3569 -->
<g id="edge46" class="edge"><title>Node3448&#45;&gt;Node3569</title>
<path fill="none" stroke="midnightblue" d="M356.749,-399.589C377.796,-404.604 403.755,-410.788 426.073,-416.105"/>
<polygon fill="midnightblue" stroke="midnightblue" points="425.502,-419.567 436.041,-418.48 427.124,-412.758 425.502,-419.567"/>
</g>
<!-- Node3570 -->
<g id="node42" class="node"><title>Node3570</title>
<g id="a_node42"><a xlink:href="group__map_wallet.html#ga9772c25246d1058eccd2063bb40c44dc" target="_top" xlink:title="loads a HDPubKey into the wallets memory ">
<polygon fill="white" stroke="red" points="413,-380.5 413,-399.5 541,-399.5 541,-380.5 413,-380.5"/>
<text text-anchor="middle" x="477" y="-387.5" font-family="Helvetica,sans-Serif" font-size="10.00">CWallet::LoadHDPubKey</text>
</a>
</g>
</g>
<!-- Node3448&#45;&gt;Node3570 -->
<g id="edge47" class="edge"><title>Node3448&#45;&gt;Node3570</title>
<path fill="none" stroke="midnightblue" d="M356.749,-390C370.678,-390 386.758,-390 402.511,-390"/>
<polygon fill="midnightblue" stroke="midnightblue" points="402.79,-393.5 412.79,-390 402.79,-386.5 402.79,-393.5"/>
</g>
<!-- Node3571 -->
<g id="node43" class="node"><title>Node3571</title>
<g id="a_node43"><a xlink:href="class_c_wallet.html#a439bab81d7989f91a4f0909960516eea" target="_top" xlink:title="Adds a key to the store, without saving it to disk (used by LoadWallet) ">
<polygon fill="white" stroke="red" points="429,-342.5 429,-361.5 525,-361.5 525,-342.5 429,-342.5"/>
<text text-anchor="middle" x="477" y="-349.5" font-family="Helvetica,sans-Serif" font-size="10.00">CWallet::LoadKey</text>
</a>
</g>
</g>
<!-- Node3448&#45;&gt;Node3571 -->
<g id="edge48" class="edge"><title>Node3448&#45;&gt;Node3571</title>
<path fill="none" stroke="midnightblue" d="M356.749,-380.411C377.796,-375.396 403.755,-369.212 426.073,-363.895"/>
<polygon fill="midnightblue" stroke="midnightblue" points="427.124,-367.242 436.041,-361.52 425.502,-360.433 427.124,-367.242"/>
</g>
<!-- Node3582 -->
<g id="node44" class="node"><title>Node3582</title>
<g id="a_node44"><a xlink:href="group__map_wallet.html#ga21e6580474514f838dfe1446890085a4" target="_top" xlink:title="Load metadata (used by LoadWallet) ">
<polygon fill="white" stroke="red" points="408.5,-304.5 408.5,-323.5 545.5,-323.5 545.5,-304.5 408.5,-304.5"/>
<text text-anchor="middle" x="477" y="-311.5" font-family="Helvetica,sans-Serif" font-size="10.00">CWallet::LoadKeyMetadata</text>
</a>
</g>
</g>
<!-- Node3448&#45;&gt;Node3582 -->
<g id="edge49" class="edge"><title>Node3448&#45;&gt;Node3582</title>
<path fill="none" stroke="midnightblue" d="M348.555,-380.445C354.928,-377.866 361.381,-374.731 367,-371 386.381,-358.131 382.969,-344.832 403,-333 406.679,-330.827 410.605,-328.9 414.657,-327.19"/>
<polygon fill="midnightblue" stroke="midnightblue" points="416.144,-330.37 424.28,-323.584 413.688,-323.815 416.144,-330.37"/>
</g>
<!-- Node3583 -->
<g id="node45" class="node"><title>Node3583</title>
<g id="a_node45"><a xlink:href="class_c_wallet.html#a0b8829faa902835e18a793c71662df09" target="_top" xlink:title="CWallet::LoadKeyPool">
<polygon fill="white" stroke="red" points="419,-266.5 419,-285.5 535,-285.5 535,-266.5 419,-266.5"/>
<text text-anchor="middle" x="477" y="-273.5" font-family="Helvetica,sans-Serif" font-size="10.00">CWallet::LoadKeyPool</text>
</a>
</g>
</g>
<!-- Node3448&#45;&gt;Node3583 -->
<g id="edge50" class="edge"><title>Node3448&#45;&gt;Node3583</title>
<path fill="none" stroke="midnightblue" d="M352.447,-380.459C357.729,-377.975 362.796,-374.87 367,-371 394.496,-345.684 374.21,-318.835 403,-295 405.074,-293.283 407.286,-291.719 409.6,-290.295"/>
<polygon fill="midnightblue" stroke="midnightblue" points="411.677,-293.162 418.958,-285.465 408.467,-286.941 411.677,-293.162"/>
</g>
<!-- Node3584 -->
<g id="node46" class="node"><title>Node3584</title>
<g id="a_node46"><a xlink:href="group__map_wallet.html#gad6580f1844fc639389e1c6a1e2787ee6" target="_top" xlink:title="Adds a watch&#45;only address to the store, without saving it to disk (used by LoadWallet) ...">
<polygon fill="white" stroke="red" points="413,-228.5 413,-247.5 541,-247.5 541,-228.5 413,-228.5"/>
<text text-anchor="middle" x="477" y="-235.5" font-family="Helvetica,sans-Serif" font-size="10.00">CWallet::LoadWatchOnly</text>
</a>
</g>
</g>
<!-- Node3448&#45;&gt;Node3584 -->
<g id="edge51" class="edge"><title>Node3448&#45;&gt;Node3584</title>
<path fill="none" stroke="midnightblue" d="M353.947,-380.433C358.787,-377.968 363.328,-374.876 367,-371 403.543,-332.429 364.479,-293.596 403,-257 404.659,-255.424 406.431,-253.975 408.293,-252.643"/>
<polygon fill="midnightblue" stroke="midnightblue" points="410.138,-255.618 416.966,-247.517 406.576,-249.592 410.138,-255.618"/>
</g>
<!-- Node3599 -->
<g id="node47" class="node"><title>Node3599</title>
<g id="a_node47"><a xlink:href="group__map_wallet.html#ga60b3bce6e7e2c091287085b2facb08d0" target="_top" xlink:title="CWallet::SetCryptedHDChain">
<polygon fill="white" stroke="red" points="403,-190.5 403,-209.5 551,-209.5 551,-190.5 403,-190.5"/>
<text text-anchor="middle" x="477" y="-197.5" font-family="Helvetica,sans-Serif" font-size="10.00">CWallet::SetCryptedHDChain</text>
</a>
</g>
</g>
<!-- Node3448&#45;&gt;Node3599 -->
<g id="edge52" class="edge"><title>Node3448&#45;&gt;Node3599</title>
<path fill="none" stroke="midnightblue" d="M354.713,-380.407C359.324,-377.95 363.596,-374.867 367,-371 412.869,-318.886 354.454,-268.629 403,-219 404.408,-217.561 405.91,-216.226 407.49,-214.988"/>
<polygon fill="midnightblue" stroke="midnightblue" points="409.422,-217.907 415.962,-209.572 405.651,-212.009 409.422,-217.907"/>
</g>
<!-- Node3603 -->
<g id="node48" class="node"><title>Node3603</title>
<g id="a_node48"><a xlink:href="group__map_wallet.html#gac129c3bbc19abfc6986fefab1ce35aa0" target="_top" xlink:title="CWallet::SetHDChain">
<polygon fill="white" stroke="red" points="420.5,-152.5 420.5,-171.5 533.5,-171.5 533.5,-152.5 420.5,-152.5"/>
<text text-anchor="middle" x="477" y="-159.5" font-family="Helvetica,sans-Serif" font-size="10.00">CWallet::SetHDChain</text>
</a>
</g>
</g>
<!-- Node3448&#45;&gt;Node3603 -->
<g id="edge53" class="edge"><title>Node3448&#45;&gt;Node3603</title>
<path fill="none" stroke="midnightblue" d="M355.127,-380.412C359.616,-377.956 363.745,-374.872 367,-371 422.309,-305.214 344.308,-243.786 403,-181 405.49,-178.336 408.302,-176.027 411.336,-174.027"/>
<polygon fill="midnightblue" stroke="midnightblue" points="413.235,-176.981 420.394,-169.171 409.927,-170.811 413.235,-176.981"/>
</g>
<!-- Node3450 -->
<g id="node28" class="node"><title>Node3450</title>
<g id="a_node28"><a xlink:href="class_c_wallet_tx.html#ab0ee7347584bff886dc24b9f63ff023c" target="_top" xlink:title="CWalletTx::BindWallet">
<polygon fill="white" stroke="red" points="589,-114.5 589,-133.5 705,-133.5 705,-114.5 589,-114.5"/>
<text text-anchor="middle" x="647" y="-121.5" font-family="Helvetica,sans-Serif" font-size="10.00">CWalletTx::BindWallet</text>
</a>
</g>
</g>
<!-- Node3449&#45;&gt;Node3450 -->
<g id="edge31" class="edge"><title>Node3449&#45;&gt;Node3450</title>
<path fill="none" stroke="midnightblue" d="M534.409,-124C548.66,-124 564.103,-124 578.826,-124"/>
<polygon fill="midnightblue" stroke="midnightblue" points="578.881,-127.5 588.881,-124 578.881,-120.5 578.881,-127.5"/>
</g>
<!-- Node3452 -->
<g id="node29" class="node"><title>Node3452</title>
<g id="a_node29"><a xlink:href="timedata_8cpp.html#a09f81b9c7650f898cf3cf305b87547e6" target="_top" xlink:title="GetAdjustedTime">
<polygon fill="white" stroke="red" points="601,-152.5 601,-171.5 693,-171.5 693,-152.5 601,-152.5"/>
<text text-anchor="middle" x="647" y="-159.5" font-family="Helvetica,sans-Serif" font-size="10.00">GetAdjustedTime</text>
</a>
</g>
</g>
<!-- Node3449&#45;&gt;Node3452 -->
<g id="edge32" class="edge"><title>Node3449&#45;&gt;Node3452</title>
<path fill="none" stroke="midnightblue" d="M520.393,-133.589C542.763,-138.649 570.398,-144.9 594.047,-150.249"/>
<polygon fill="midnightblue" stroke="midnightblue" points="593.386,-153.687 603.911,-152.48 594.93,-146.86 593.386,-153.687"/>
</g>
<!-- Node3454 -->
<g id="node30" class="node"><title>Node3454</title>
<g id="a_node30"><a xlink:href="util_8cpp.html#a24f685720bf40370e5bd2a192ad50cd8" target="_top" xlink:title="Return string argument or default value. ">
<polygon fill="white" stroke="black" points="623.5,-228.5 623.5,-247.5 670.5,-247.5 670.5,-228.5 623.5,-228.5"/>
<text text-anchor="middle" x="647" y="-235.5" font-family="Helvetica,sans-Serif" font-size="10.00">GetArg</text>
</a>
</g>
</g>
<!-- Node3449&#45;&gt;Node3454 -->
<g id="edge34" class="edge"><title>Node3449&#45;&gt;Node3454</title>
<path fill="none" stroke="midnightblue" d="M534.305,-133.152C540.332,-135.686 546.057,-138.908 551,-143 579.79,-166.835 558.9,-194.356 587,-219 594.427,-225.514 604.114,-229.799 613.485,-232.616"/>
<polygon fill="midnightblue" stroke="midnightblue" points="612.854,-236.067 623.407,-235.134 614.575,-229.282 612.854,-236.067"/>
</g>
<!-- Node3455 -->
<g id="node31" class="node"><title>Node3455</title>
<g id="a_node31"><a xlink:href="class_c_transaction.html#a7efd1379de830341417c0bfa23a149aa" target="_top" xlink:title="CTransaction::GetHash">
<polygon fill="white" stroke="black" points="587,-190.5 587,-209.5 707,-209.5 707,-190.5 587,-190.5"/>
<text text-anchor="middle" x="647" y="-197.5" font-family="Helvetica,sans-Serif" font-size="10.00">CTransaction::GetHash</text>
</a>
</g>
</g>
<!-- Node3449&#45;&gt;Node3455 -->
<g id="edge35" class="edge"><title>Node3449&#45;&gt;Node3455</title>
<path fill="none" stroke="midnightblue" d="M529.72,-133.584C537.136,-136.049 544.46,-139.137 551,-143 571.031,-154.832 567.314,-168.603 587,-181 590.193,-183.011 593.618,-184.827 597.151,-186.464"/>
<polygon fill="midnightblue" stroke="midnightblue" points="596.095,-189.815 606.674,-190.392 598.764,-183.343 596.095,-189.815"/>
</g>
<!-- Node3449&#45;&gt;Node3458 -->
<g id="edge36" class="edge"><title>Node3449&#45;&gt;Node3458</title>
<path fill="none" stroke="midnightblue" d="M520.393,-114.411C542.763,-109.351 570.398,-103.1 594.047,-97.7512"/>
<polygon fill="midnightblue" stroke="midnightblue" points="594.93,-101.14 603.911,-95.5201 593.386,-94.3125 594.93,-101.14"/>
</g>
<!-- Node3452&#45;&gt;Node3427 -->
<g id="edge33" class="edge"><title>Node3452&#45;&gt;Node3427</title>
<path fill="none" stroke="midnightblue" d="M693.023,-170.706C698.284,-173.299 703.14,-176.656 707,-181 779.57,-262.681 807.86,-623.824 813.772,-712.356"/>
<polygon fill="midnightblue" stroke="midnightblue" points="810.282,-712.628 814.423,-722.381 817.268,-712.175 810.282,-712.628"/>
</g>
</g>
</svg>
