<?xml version="1.0" encoding="UTF-8" standalone="no"?>
<!DOCTYPE svg PUBLIC "-//W3C//DTD SVG 1.1//EN"
 "http://www.w3.org/Graphics/SVG/1.1/DTD/svg11.dtd">
<!-- Generated by graphviz version 2.38.0 (20140413.2041)
 -->
<!-- Title: CWallet::CommitTransaction Pages: 1 -->
<!--zoomable 280 -->
<svg id="main" version="1.1" xmlns="http://www.w3.org/2000/svg" xmlns:xlink="http://www.w3.org/1999/xlink" xml:space="preserve" onload="init(evt)">
<style type="text/css"><![CDATA[
.edge:hover path { stroke: red; }
.edge:hover polygon { stroke: red; fill: red; }
]]></style>
<script type="text/javascript"><![CDATA[
var edges = document.getElementsByTagName('g');
if (edges && edges.length) {
  for (var i=0;i<edges.length;i++) {
    if (edges[i].id.substr(0,4)=='edge') {
      edges[i].setAttribute('class','edge');
    }
  }
}
]]></script>
        <defs>
                <circle id="rim" cx="0" cy="0" r="7"/>
                <circle id="rim2" cx="0" cy="0" r="3.5"/>
                <g id="zoomPlus">
                        <use xlink:href="#rim" fill="#404040">
                                <set attributeName="fill" to="#808080" begin="zoomplus.mouseover" end="zoomplus.mouseout"/>
                        </use>
                        <path d="M-4,0h8M0,-4v8" fill="none" stroke="white" stroke-width="1.5" pointer-events="none"/>
                </g>
                <g id="zoomMin">
                        <use xlink:href="#rim" fill="#404040">
                                <set attributeName="fill" to="#808080" begin="zoomminus.mouseover" end="zoomminus.mouseout"/>
                        </use>
                        <path d="M-4,0h8" fill="none" stroke="white" stroke-width="1.5" pointer-events="none"/>
                </g>
                <g id="dirArrow">
                        <path fill="none" stroke="white" stroke-width="1.5" d="M0,-3.0v7 M-2.5,-0.5L0,-3.0L2.5,-0.5"/>
                </g>
               <g id="resetDef">
                       <use xlink:href="#rim2" fill="#404040">
                               <set attributeName="fill" to="#808080" begin="reset.mouseover" end="reset.mouseout"/>
                       </use>
               </g>
        </defs>

<script type="text/javascript">
var viewWidth = 614;
var viewHeight = 280;
var sectionId = 'dynsection-7';
</script>
<script xlink:href="svgpan.js"/>
<svg id="graph" class="graph">
<g id="viewport">
<title>CWallet::CommitTransaction</title>
<polygon fill="white" stroke="none" points="-4,4 -4,-275.5 610,-275.5 610,4 -4,4"/>
<!-- Node578 -->
<g id="node1" class="node"><title>Node578</title>
<polygon fill="#bfbfbf" stroke="black" points="0,-136.5 0,-155.5 143,-155.5 143,-136.5 0,-136.5"/>
<text text-anchor="middle" x="71.5" y="-143.5" font-family="Helvetica,sans-Serif" font-size="10.00">CWallet::CommitTransaction</text>
</g>
<!-- Node579 -->
<g id="node2" class="node"><title>Node579</title>
<g id="a_node2"><a xlink:href="class_c_private_send_client.html#a1318eb1f8e5a845036cfe99f0b3f8b36" target="_top" xlink:title="CPrivateSendClient\l::CreateDenominated">
<polygon fill="white" stroke="black" points="187.5,-241 187.5,-271 297.5,-271 297.5,-241 187.5,-241"/>
<text text-anchor="start" x="195.5" y="-259" font-family="Helvetica,sans-Serif" font-size="10.00">CPrivateSendClient</text>
<text text-anchor="middle" x="242.5" y="-248" font-family="Helvetica,sans-Serif" font-size="10.00">::CreateDenominated</text>
</a>
</g>
</g>
<!-- Node578&#45;&gt;Node579 -->
<g id="edge1" class="edge"><title>Node578&#45;&gt;Node579</title>
<path fill="none" stroke="midnightblue" d="M89.7882,-162.475C109.94,-181.014 144.856,-211.13 179,-231 185.262,-234.644 192.157,-237.99 199.011,-240.968"/>
<polygon fill="midnightblue" stroke="midnightblue" points="92.0402,-159.789 82.34,-155.528 87.2658,-164.908 92.0402,-159.789"/>
</g>
<!-- Node580 -->
<g id="node3" class="node"><title>Node580</title>
<g id="a_node3"><a xlink:href="server_8h.html#a0fa637689f8c63fc6adebeb9458430db" target="_top" xlink:title="gobject">
<polygon fill="white" stroke="black" points="218.5,-202.5 218.5,-221.5 266.5,-221.5 266.5,-202.5 218.5,-202.5"/>
<text text-anchor="middle" x="242.5" y="-209.5" font-family="Helvetica,sans-Serif" font-size="10.00">gobject</text>
</a>
</g>
</g>
<!-- Node578&#45;&gt;Node580 -->
<g id="edge2" class="edge"><title>Node578&#45;&gt;Node580</title>
<path fill="none" stroke="midnightblue" d="M101.334,-159.856C122.542,-169.768 152.218,-183.061 179,-193 191.865,-197.775 206.532,-202.28 218.422,-205.705"/>
<polygon fill="midnightblue" stroke="midnightblue" points="102.764,-156.661 92.2259,-155.564 99.7796,-162.993 102.764,-156.661"/>
</g>
<!-- Node581 -->
<g id="node4" class="node"><title>Node581</title>
<g id="a_node4"><a xlink:href="class_c_private_send_client.html#ad603beaa1644f6e6cfb8ca7d1400d46e" target="_top" xlink:title="CPrivateSendClient\l::MakeCollateralAmounts">
<polygon fill="white" stroke="black" points="179,-153 179,-183 306,-183 306,-153 179,-153"/>
<text text-anchor="start" x="187" y="-171" font-family="Helvetica,sans-Serif" font-size="10.00">CPrivateSendClient</text>
<text text-anchor="middle" x="242.5" y="-160" font-family="Helvetica,sans-Serif" font-size="10.00">::MakeCollateralAmounts</text>
</a>
</g>
</g>
<!-- Node578&#45;&gt;Node581 -->
<g id="edge3" class="edge"><title>Node578&#45;&gt;Node581</title>
<path fill="none" stroke="midnightblue" d="M153.256,-156.513C161.868,-157.634 170.532,-158.762 178.89,-159.85"/>
<polygon fill="midnightblue" stroke="midnightblue" points="153.56,-153.023 143.192,-155.203 152.656,-159.964 153.56,-153.023"/>
</g>
<!-- Node582 -->
<g id="node5" class="node"><title>Node582</title>
<g id="a_node5"><a xlink:href="class_wallet_model.html#a53443aca544c824550f21e5f87e4ec39" target="_top" xlink:title="WalletModel::sendCoins">
<polygon fill="white" stroke="black" points="181,-114.5 181,-133.5 304,-133.5 304,-114.5 181,-114.5"/>
<text text-anchor="middle" x="242.5" y="-121.5" font-family="Helvetica,sans-Serif" font-size="10.00">WalletModel::sendCoins</text>
</a>
</g>
</g>
<!-- Node578&#45;&gt;Node582 -->
<g id="edge4" class="edge"><title>Node578&#45;&gt;Node582</title>
<path fill="none" stroke="midnightblue" d="M153.205,-135.494C162.474,-134.287 171.804,-133.073 180.748,-131.909"/>
<polygon fill="midnightblue" stroke="midnightblue" points="152.656,-132.036 143.192,-136.797 153.56,-138.977 152.656,-132.036"/>
</g>
<!-- Node585 -->
<g id="node8" class="node"><title>Node585</title>
<g id="a_node8"><a xlink:href="rpcwallet_8cpp.html#a02c1a7b5244896e62bc5ae698f7a76c9" target="_top" xlink:title="sendmany">
<polygon fill="white" stroke="black" points="211.5,-76.5 211.5,-95.5 273.5,-95.5 273.5,-76.5 211.5,-76.5"/>
<text text-anchor="middle" x="242.5" y="-83.5" font-family="Helvetica,sans-Serif" font-size="10.00">sendmany</text>
</a>
</g>
</g>
<!-- Node578&#45;&gt;Node585 -->
<g id="edge7" class="edge"><title>Node578&#45;&gt;Node585</title>
<path fill="none" stroke="midnightblue" d="M105.401,-132.626C126.333,-124.294 154.093,-113.568 179,-105 189.51,-101.385 201.132,-97.7531 211.475,-94.6474"/>
<polygon fill="midnightblue" stroke="midnightblue" points="103.99,-129.421 96.0076,-136.387 106.592,-135.919 103.99,-129.421"/>
</g>
<!-- Node586 -->
<g id="node9" class="node"><title>Node586</title>
<g id="a_node9"><a xlink:href="rpcwallet_8cpp.html#a1ce48c3b465b38c532d3a3bc9664ba16" target="_top" xlink:title="SendMoney">
<polygon fill="white" stroke="black" points="208.5,-38.5 208.5,-57.5 276.5,-57.5 276.5,-38.5 208.5,-38.5"/>
<text text-anchor="middle" x="242.5" y="-45.5" font-family="Helvetica,sans-Serif" font-size="10.00">SendMoney</text>
</a>
</g>
</g>
<!-- Node578&#45;&gt;Node586 -->
<g id="edge8" class="edge"><title>Node578&#45;&gt;Node586</title>
<path fill="none" stroke="midnightblue" d="M90.3588,-129.704C110.543,-112.047 145.029,-84.1143 179,-67 188.115,-62.4077 198.546,-58.6961 208.241,-55.8134"/>
<polygon fill="midnightblue" stroke="midnightblue" points="88.0181,-127.101 82.8694,-136.361 92.6688,-132.333 88.0181,-127.101"/>
</g>
<!-- Node583 -->
<g id="node6" class="node"><title>Node583</title>
<g id="a_node6"><a xlink:href="class_send_coins_dialog.html#aab03626a859f22a68760b235a1df6bc9" target="_top" xlink:title="SendCoinsDialog::send">
<polygon fill="white" stroke="black" points="342,-114.5 342,-133.5 461,-133.5 461,-114.5 342,-114.5"/>
<text text-anchor="middle" x="401.5" y="-121.5" font-family="Helvetica,sans-Serif" font-size="10.00">SendCoinsDialog::send</text>
</a>
</g>
</g>
<!-- Node582&#45;&gt;Node583 -->
<g id="edge5" class="edge"><title>Node582&#45;&gt;Node583</title>
<path fill="none" stroke="midnightblue" d="M314.435,-124C323.575,-124 332.853,-124 341.768,-124"/>
<polygon fill="midnightblue" stroke="midnightblue" points="314.2,-120.5 304.2,-124 314.2,-127.5 314.2,-120.5"/>
</g>
<!-- Node584 -->
<g id="node7" class="node"><title>Node584</title>
<g id="a_node7"><a xlink:href="class_send_coins_dialog.html#a2cab7cf9ea5040b9e2189297f7d3c764" target="_top" xlink:title="SendCoinsDialog::on\l_sendButton_clicked">
<polygon fill="white" stroke="black" points="497,-109 497,-139 606,-139 606,-109 497,-109"/>
<text text-anchor="start" x="505" y="-127" font-family="Helvetica,sans-Serif" font-size="10.00">SendCoinsDialog::on</text>
<text text-anchor="middle" x="551.5" y="-116" font-family="Helvetica,sans-Serif" font-size="10.00">_sendButton_clicked</text>
</a>
</g>
</g>
<!-- Node583&#45;&gt;Node584 -->
<g id="edge6" class="edge"><title>Node583&#45;&gt;Node584</title>
<path fill="none" stroke="midnightblue" d="M471.585,-124C479.979,-124 488.456,-124 496.584,-124"/>
<polygon fill="midnightblue" stroke="midnightblue" points="471.419,-120.5 461.419,-124 471.419,-127.5 471.419,-120.5"/>
</g>
<!-- Node587 -->
<g id="node10" class="node"><title>Node587</title>
<g id="a_node10"><a xlink:href="rpcwallet_8cpp.html#a13ae0f230ba6d349466070da38ee85f4" target="_top" xlink:title="instantsendtoaddress">
<polygon fill="white" stroke="black" points="346.5,-76.5 346.5,-95.5 456.5,-95.5 456.5,-76.5 346.5,-76.5"/>
<text text-anchor="middle" x="401.5" y="-83.5" font-family="Helvetica,sans-Serif" font-size="10.00">instantsendtoaddress</text>
</a>
</g>
</g>
<!-- Node586&#45;&gt;Node587 -->
<g id="edge9" class="edge"><title>Node586&#45;&gt;Node587</title>
<path fill="none" stroke="midnightblue" d="M286.748,-58.4676C310.018,-64.0998 338.504,-70.9945 361.148,-76.4754"/>
<polygon fill="midnightblue" stroke="midnightblue" points="287.338,-55.0096 276.796,-56.0588 285.692,-61.8131 287.338,-55.0096"/>
</g>
<!-- Node588 -->
<g id="node11" class="node"><title>Node588</title>
<g id="a_node11"><a xlink:href="rpcwallet_8cpp.html#a887e8b6785b39cba59fe24ea952a4f10" target="_top" xlink:title="sendfrom">
<polygon fill="white" stroke="black" points="373,-38.5 373,-57.5 430,-57.5 430,-38.5 373,-38.5"/>
<text text-anchor="middle" x="401.5" y="-45.5" font-family="Helvetica,sans-Serif" font-size="10.00">sendfrom</text>
</a>
</g>
</g>
<!-- Node586&#45;&gt;Node588 -->
<g id="edge10" class="edge"><title>Node586&#45;&gt;Node588</title>
<path fill="none" stroke="midnightblue" d="M286.92,-48C314.355,-48 348.987,-48 372.754,-48"/>
<polygon fill="midnightblue" stroke="midnightblue" points="286.796,-44.5001 276.796,-48 286.796,-51.5001 286.796,-44.5001"/>
</g>
<!-- Node589 -->
<g id="node12" class="node"><title>Node589</title>
<g id="a_node12"><a xlink:href="rpcwallet_8cpp.html#a36f0a0b6cd58a61c125bbe7a39ed1368" target="_top" xlink:title="sendtoaddress">
<polygon fill="white" stroke="black" points="361.5,-0.5 361.5,-19.5 441.5,-19.5 441.5,-0.5 361.5,-0.5"/>
<text text-anchor="middle" x="401.5" y="-7.5" font-family="Helvetica,sans-Serif" font-size="10.00">sendtoaddress</text>
</a>
</g>
</g>
<!-- Node586&#45;&gt;Node589 -->
<g id="edge11" class="edge"><title>Node586&#45;&gt;Node589</title>
<path fill="none" stroke="midnightblue" d="M286.785,-37.5233C310.146,-31.8691 338.755,-24.9447 361.432,-19.4558"/>
<polygon fill="midnightblue" stroke="midnightblue" points="285.692,-34.1869 276.796,-39.9412 287.338,-40.9904 285.692,-34.1869"/>
</g>
</g>
</svg>
        <g id="navigator" transform="translate(0 0)" fill="#404254">
                <rect fill="#f2f5e9" fill-opacity="0.5" stroke="#606060" stroke-width=".5" x="0" y="0" width="60" height="60"/>
                <use id="zoomplus" xlink:href="#zoomPlus" x="17" y="9" onmousedown="handleZoom(evt,'in')"/>
                <use id="zoomminus" xlink:href="#zoomMin" x="42" y="9" onmousedown="handleZoom(evt,'out')"/>
                <use id="reset" xlink:href="#resetDef" x="30" y="36" onmousedown="handleReset()"/>
                <g id="arrowUp" xlink:href="#dirArrow" transform="translate(30 24)" onmousedown="handlePan(0,-1)">
                  <use xlink:href="#rim" fill="#404040">
                        <set attributeName="fill" to="#808080" begin="arrowUp.mouseover" end="arrowUp.mouseout"/>
                  </use>
                  <path fill="none" stroke="white" stroke-width="1.5" d="M0,-3.0v7 M-2.5,-0.5L0,-3.0L2.5,-0.5"/>
                </g>
                <g id="arrowRight" xlink:href="#dirArrow" transform="rotate(90) translate(36 -43)" onmousedown="handlePan(1,0)">
                  <use xlink:href="#rim" fill="#404040">
                        <set attributeName="fill" to="#808080" begin="arrowRight.mouseover" end="arrowRight.mouseout"/>
                  </use>
                  <path fill="none" stroke="white" stroke-width="1.5" d="M0,-3.0v7 M-2.5,-0.5L0,-3.0L2.5,-0.5"/>
                </g>
                <g id="arrowDown" xlink:href="#dirArrow" transform="rotate(180) translate(-30 -48)" onmousedown="handlePan(0,1)">
                  <use xlink:href="#rim" fill="#404040">
                        <set attributeName="fill" to="#808080" begin="arrowDown.mouseover" end="arrowDown.mouseout"/>
                  </use>
                  <path fill="none" stroke="white" stroke-width="1.5" d="M0,-3.0v7 M-2.5,-0.5L0,-3.0L2.5,-0.5"/>
                </g>
                <g id="arrowLeft" xlink:href="#dirArrow" transform="rotate(270) translate(-36 17)" onmousedown="handlePan(-1,0)">
                  <use xlink:href="#rim" fill="#404040">
                        <set attributeName="fill" to="#808080" begin="arrowLeft.mouseover" end="arrowLeft.mouseout"/>
                  </use>
                  <path fill="none" stroke="white" stroke-width="1.5" d="M0,-3.0v7 M-2.5,-0.5L0,-3.0L2.5,-0.5"/>
                </g>
        </g>
        <svg viewBox="0 0 15 15" width="100%" height="30px" preserveAspectRatio="xMaxYMin meet">
         <g id="arrow_out" transform="scale(0.3 0.3)">
          <a xlink:href="group___actions_gad95b72403a23ad9f9079a08b0ed1646a_icgraph_org.svg" target="_base">
           <rect id="button" ry="5" rx="5" y="6" x="6" height="38" width="38"
                fill="#f2f5e9" fill-opacity="0.5" stroke="#606060" stroke-width="1.0"/>
           <path id="arrow"
             d="M 11.500037,31.436501 C 11.940474,20.09759 22.043105,11.32322 32.158766,21.979434 L 37.068811,17.246167 C 37.068811,17.246167 37.088388,32 37.088388,32 L 22.160133,31.978069 C 22.160133,31.978069 26.997745,27.140456 26.997745,27.140456 C 18.528582,18.264221 13.291696,25.230495 11.500037,31.436501 z"
             style="fill:#404040;"/>
          </a>
         </g>
        </svg>
</svg>
