<?xml version="1.0" encoding="UTF-8" standalone="no"?>
<!DOCTYPE svg PUBLIC "-//W3C//DTD SVG 1.1//EN"
 "http://www.w3.org/Graphics/SVG/1.1/DTD/svg11.dtd">
<!-- Generated by graphviz version 2.38.0 (20140413.2041)
 -->
<!-- Title: CWallet::GetImmatureWatchOnlyBalance Pages: 1 -->
<!--zoomable 209 -->
<svg id="main" version="1.1" xmlns="http://www.w3.org/2000/svg" xmlns:xlink="http://www.w3.org/1999/xlink" xml:space="preserve" onload="init(evt)">
<style type="text/css"><![CDATA[
.edge:hover path { stroke: red; }
.edge:hover polygon { stroke: red; fill: red; }
]]></style>
<script type="text/javascript"><![CDATA[
var edges = document.getElementsByTagName('g');
if (edges && edges.length) {
  for (var i=0;i<edges.length;i++) {
    if (edges[i].id.substr(0,4)=='edge') {
      edges[i].setAttribute('class','edge');
    }
  }
}
]]></script>
        <defs>
                <circle id="rim" cx="0" cy="0" r="7"/>
                <circle id="rim2" cx="0" cy="0" r="3.5"/>
                <g id="zoomPlus">
                        <use xlink:href="#rim" fill="#404040">
                                <set attributeName="fill" to="#808080" begin="zoomplus.mouseover" end="zoomplus.mouseout"/>
                        </use>
                        <path d="M-4,0h8M0,-4v8" fill="none" stroke="white" stroke-width="1.5" pointer-events="none"/>
                </g>
                <g id="zoomMin">
                        <use xlink:href="#rim" fill="#404040">
                                <set attributeName="fill" to="#808080" begin="zoomminus.mouseover" end="zoomminus.mouseout"/>
                        </use>
                        <path d="M-4,0h8" fill="none" stroke="white" stroke-width="1.5" pointer-events="none"/>
                </g>
                <g id="dirArrow">
                        <path fill="none" stroke="white" stroke-width="1.5" d="M0,-3.0v7 M-2.5,-0.5L0,-3.0L2.5,-0.5"/>
                </g>
               <g id="resetDef">
                       <use xlink:href="#rim2" fill="#404040">
                               <set attributeName="fill" to="#808080" begin="reset.mouseover" end="reset.mouseout"/>
                       </use>
               </g>
        </defs>

<script type="text/javascript">
var viewWidth = 1078;
var viewHeight = 209;
var sectionId = 'dynsection-40';
</script>
<script xlink:href="svgpan.js"/>
<svg id="graph" class="graph">
<g id="viewport">
<title>CWallet::GetImmatureWatchOnlyBalance</title>
<polygon fill="white" stroke="none" points="-4,4 -4,-204.5 1074,-204.5 1074,4 -4,4"/>
<!-- Node1228 -->
<g id="node1" class="node"><title>Node1228</title>
<polygon fill="#bfbfbf" stroke="black" points="0,-118.5 0,-148.5 143,-148.5 143,-118.5 0,-118.5"/>
<text text-anchor="start" x="8" y="-136.5" font-family="Helvetica,sans-Serif" font-size="10.00">CWallet::GetImmatureWatch</text>
<text text-anchor="middle" x="71.5" y="-125.5" font-family="Helvetica,sans-Serif" font-size="10.00">OnlyBalance</text>
</g>
<!-- Node1229 -->
<g id="node2" class="node"><title>Node1229</title>
<g id="a_node2"><a xlink:href="class_wallet_model.html#a9da743fbe881d4928eeafc48f50ef3d5" target="_top" xlink:title="WalletModel::getWatchImmature\lBalance">
<polygon fill="white" stroke="black" points="179,-118.5 179,-148.5 339,-148.5 339,-118.5 179,-118.5"/>
<text text-anchor="start" x="187" y="-136.5" font-family="Helvetica,sans-Serif" font-size="10.00">WalletModel::getWatchImmature</text>
<text text-anchor="middle" x="259" y="-125.5" font-family="Helvetica,sans-Serif" font-size="10.00">Balance</text>
</a>
</g>
</g>
<!-- Node1228&#45;&gt;Node1229 -->
<g id="edge1" class="edge"><title>Node1228&#45;&gt;Node1229</title>
<path fill="none" stroke="midnightblue" d="M153.386,-133.5C161.84,-133.5 170.428,-133.5 178.863,-133.5"/>
<polygon fill="midnightblue" stroke="midnightblue" points="153.159,-130 143.159,-133.5 153.159,-137 153.159,-130"/>
</g>
<!-- Node1230 -->
<g id="node3" class="node"><title>Node1230</title>
<g id="a_node3"><a xlink:href="class_overview_page.html#a2ed52a3a87e9c74fee38fa873c9bc71f" target="_top" xlink:title="OverviewPage::setWalletModel">
<polygon fill="white" stroke="black" points="387.5,-181 387.5,-200 541.5,-200 541.5,-181 387.5,-181"/>
<text text-anchor="middle" x="464.5" y="-188" font-family="Helvetica,sans-Serif" font-size="10.00">OverviewPage::setWalletModel</text>
</a>
</g>
</g>
<!-- Node1229&#45;&gt;Node1230 -->
<g id="edge2" class="edge"><title>Node1229&#45;&gt;Node1230</title>
<path fill="none" stroke="midnightblue" d="M321.712,-151.389C338.945,-156.335 357.69,-161.67 375,-166.5 392.327,-171.335 411.601,-176.578 427.727,-180.926"/>
<polygon fill="midnightblue" stroke="midnightblue" points="322.341,-147.928 311.763,-148.528 320.406,-154.655 322.341,-147.928"/>
</g>
<!-- Node1233 -->
<g id="node6" class="node"><title>Node1233</title>
<g id="a_node6"><a xlink:href="class_send_coins_dialog.html#a73a6c1b1850a334ee652ac167713a2aa" target="_top" xlink:title="SendCoinsDialog::setModel">
<polygon fill="white" stroke="black" points="594,-143 594,-162 732,-162 732,-143 594,-143"/>
<text text-anchor="middle" x="663" y="-150" font-family="Helvetica,sans-Serif" font-size="10.00">SendCoinsDialog::setModel</text>
</a>
</g>
</g>
<!-- Node1229&#45;&gt;Node1233 -->
<g id="edge5" class="edge"><title>Node1229&#45;&gt;Node1233</title>
<path fill="none" stroke="midnightblue" d="M349.637,-137.737C423.451,-141.225 526.544,-146.098 593.776,-149.275"/>
<polygon fill="midnightblue" stroke="midnightblue" points="349.576,-134.23 339.422,-137.254 349.246,-141.222 349.576,-134.23"/>
</g>
<!-- Node1234 -->
<g id="node7" class="node"><title>Node1234</title>
<g id="a_node7"><a xlink:href="class_send_coins_dialog.html#a74815ad8502b126200b6fd2e59e9f042" target="_top" xlink:title="SendCoinsDialog::updateDisplayUnit">
<polygon fill="white" stroke="black" points="375,-105 375,-124 554,-124 554,-105 375,-105"/>
<text text-anchor="middle" x="464.5" y="-112" font-family="Helvetica,sans-Serif" font-size="10.00">SendCoinsDialog::updateDisplayUnit</text>
</a>
</g>
</g>
<!-- Node1229&#45;&gt;Node1234 -->
<g id="edge7" class="edge"><title>Node1229&#45;&gt;Node1234</title>
<path fill="none" stroke="midnightblue" d="M349.413,-125.152C357.795,-124.369 366.291,-123.576 374.667,-122.794"/>
<polygon fill="midnightblue" stroke="midnightblue" points="348.892,-121.685 339.261,-126.1 349.543,-128.655 348.892,-121.685"/>
</g>
<!-- Node1236 -->
<g id="node9" class="node"><title>Node1236</title>
<g id="a_node9"><a xlink:href="class_wallet_model.html#adcc4eb8cd71cb4de223621866bb7fb7d" target="_top" xlink:title="WalletModel::checkBalance\lChanged">
<polygon fill="white" stroke="black" points="395.5,-44.5 395.5,-74.5 533.5,-74.5 533.5,-44.5 395.5,-44.5"/>
<text text-anchor="start" x="403.5" y="-62.5" font-family="Helvetica,sans-Serif" font-size="10.00">WalletModel::checkBalance</text>
<text text-anchor="middle" x="464.5" y="-51.5" font-family="Helvetica,sans-Serif" font-size="10.00">Changed</text>
</a>
</g>
</g>
<!-- Node1229&#45;&gt;Node1236 -->
<g id="edge10" class="edge"><title>Node1229&#45;&gt;Node1236</title>
<path fill="none" stroke="midnightblue" d="M311.51,-114.769C345.806,-102.298 390.268,-86.1297 422.232,-74.5067"/>
<polygon fill="midnightblue" stroke="midnightblue" points="309.874,-111.64 301.672,-118.346 312.266,-118.218 309.874,-111.64"/>
</g>
<!-- Node1231 -->
<g id="node4" class="node"><title>Node1231</title>
<g id="a_node4"><a xlink:href="class_wallet_view.html#a0a37ff693a4f9c1e5ddc23f9cd3913be" target="_top" xlink:title="Set the wallet model. ">
<polygon fill="white" stroke="black" points="772,-162 772,-181 912,-181 912,-162 772,-162"/>
<text text-anchor="middle" x="842" y="-169" font-family="Helvetica,sans-Serif" font-size="10.00">WalletView::setWalletModel</text>
</a>
</g>
</g>
<!-- Node1230&#45;&gt;Node1231 -->
<g id="edge3" class="edge"><title>Node1230&#45;&gt;Node1231</title>
<path fill="none" stroke="midnightblue" d="M552.027,-186.122C618.818,-182.742 709.988,-178.129 771.937,-174.995"/>
<polygon fill="midnightblue" stroke="midnightblue" points="551.751,-182.631 541.941,-186.632 552.105,-189.622 551.751,-182.631"/>
</g>
<!-- Node1232 -->
<g id="node5" class="node"><title>Node1232</title>
<g id="a_node5"><a xlink:href="class_wallet_frame.html#aa199c3f27654199d84c365cf86167d86" target="_top" xlink:title="WalletFrame::addWallet">
<polygon fill="white" stroke="black" points="948,-162 948,-181 1070,-181 1070,-162 948,-162"/>
<text text-anchor="middle" x="1009" y="-169" font-family="Helvetica,sans-Serif" font-size="10.00">WalletFrame::addWallet</text>
</a>
</g>
</g>
<!-- Node1231&#45;&gt;Node1232 -->
<g id="edge4" class="edge"><title>Node1231&#45;&gt;Node1232</title>
<path fill="none" stroke="midnightblue" d="M922.146,-171.5C930.813,-171.5 939.528,-171.5 947.91,-171.5"/>
<polygon fill="midnightblue" stroke="midnightblue" points="922.019,-168 912.019,-171.5 922.019,-175 922.019,-168"/>
</g>
<!-- Node1233&#45;&gt;Node1231 -->
<g id="edge6" class="edge"><title>Node1233&#45;&gt;Node1231</title>
<path fill="none" stroke="midnightblue" d="M742.376,-160.913C752.24,-161.972 762.273,-163.049 771.978,-164.091"/>
<polygon fill="midnightblue" stroke="midnightblue" points="742.496,-157.406 732.18,-159.819 741.749,-164.366 742.496,-157.406"/>
</g>
<!-- Node1234&#45;&gt;Node1233 -->
<g id="edge9" class="edge"><title>Node1234&#45;&gt;Node1233</title>
<path fill="none" stroke="midnightblue" d="M524.912,-125.989C552.95,-131.411 586.016,-137.806 612.648,-142.956"/>
<polygon fill="midnightblue" stroke="midnightblue" points="525.314,-122.502 514.832,-124.04 523.985,-129.375 525.314,-122.502"/>
</g>
<!-- Node1235 -->
<g id="node8" class="node"><title>Node1235</title>
<g id="a_node8"><a xlink:href="class_send_coins_dialog.html#affacd36b4df87a68e2fe706ef388c0a6" target="_top" xlink:title="SendCoinsDialog::SendCoins\lDialog">
<polygon fill="white" stroke="black" points="590,-93.5 590,-123.5 736,-123.5 736,-93.5 590,-93.5"/>
<text text-anchor="start" x="598" y="-111.5" font-family="Helvetica,sans-Serif" font-size="10.00">SendCoinsDialog::SendCoins</text>
<text text-anchor="middle" x="663" y="-100.5" font-family="Helvetica,sans-Serif" font-size="10.00">Dialog</text>
</a>
</g>
</g>
<!-- Node1234&#45;&gt;Node1235 -->
<g id="edge8" class="edge"><title>Node1234&#45;&gt;Node1235</title>
<path fill="none" stroke="midnightblue" d="M564.333,-111.482C572.922,-111.22 581.505,-110.958 589.819,-110.704"/>
<polygon fill="midnightblue" stroke="midnightblue" points="564.153,-107.986 554.264,-111.79 564.367,-114.983 564.153,-107.986"/>
</g>
<!-- Node1237 -->
<g id="node10" class="node"><title>Node1237</title>
<g id="a_node10"><a xlink:href="class_wallet_model.html#a51469b2d95cfd4bc0a14ee456fca7b95" target="_top" xlink:title="WalletModel::pollBalance\lChanged">
<polygon fill="white" stroke="black" points="599.5,-44.5 599.5,-74.5 726.5,-74.5 726.5,-44.5 599.5,-44.5"/>
<text text-anchor="start" x="607.5" y="-62.5" font-family="Helvetica,sans-Serif" font-size="10.00">WalletModel::pollBalance</text>
<text text-anchor="middle" x="663" y="-51.5" font-family="Helvetica,sans-Serif" font-size="10.00">Changed</text>
</a>
</g>
</g>
<!-- Node1236&#45;&gt;Node1237 -->
<g id="edge11" class="edge"><title>Node1236&#45;&gt;Node1237</title>
<path fill="none" stroke="midnightblue" d="M543.786,-59.5C562.199,-59.5 581.589,-59.5 599.218,-59.5"/>
<polygon fill="midnightblue" stroke="midnightblue" points="543.675,-56.0001 533.675,-59.5 543.675,-63.0001 543.675,-56.0001"/>
</g>
<!-- Node1239 -->
<g id="node12" class="node"><title>Node1239</title>
<g id="a_node12"><a xlink:href="class_wallet_model.html#a53443aca544c824550f21e5f87e4ec39" target="_top" xlink:title="WalletModel::sendCoins">
<polygon fill="white" stroke="black" points="601.5,-6 601.5,-25 724.5,-25 724.5,-6 601.5,-6"/>
<text text-anchor="middle" x="663" y="-13" font-family="Helvetica,sans-Serif" font-size="10.00">WalletModel::sendCoins</text>
</a>
</g>
</g>
<!-- Node1236&#45;&gt;Node1239 -->
<g id="edge13" class="edge"><title>Node1236&#45;&gt;Node1239</title>
<path fill="none" stroke="midnightblue" d="M542.498,-42.2588C568.702,-36.3911 597.026,-30.049 619.518,-25.0124"/>
<polygon fill="midnightblue" stroke="midnightblue" points="541.568,-38.8802 532.575,-44.4808 543.098,-45.711 541.568,-38.8802"/>
</g>
<!-- Node1238 -->
<g id="node11" class="node"><title>Node1238</title>
<g id="a_node11"><a xlink:href="class_wallet_model.html#a36282857c97bcaad796a2b5c7398245c" target="_top" xlink:title="WalletModel::WalletModel">
<polygon fill="white" stroke="black" points="776.5,-50 776.5,-69 907.5,-69 907.5,-50 776.5,-50"/>
<text text-anchor="middle" x="842" y="-57" font-family="Helvetica,sans-Serif" font-size="10.00">WalletModel::WalletModel</text>
</a>
</g>
</g>
<!-- Node1237&#45;&gt;Node1238 -->
<g id="edge12" class="edge"><title>Node1237&#45;&gt;Node1238</title>
<path fill="none" stroke="midnightblue" d="M737.166,-59.5C750.114,-59.5 763.512,-59.5 776.209,-59.5"/>
<polygon fill="midnightblue" stroke="midnightblue" points="736.902,-56.0001 726.902,-59.5 736.902,-63.0001 736.902,-56.0001"/>
</g>
<!-- Node1240 -->
<g id="node13" class="node"><title>Node1240</title>
<g id="a_node13"><a xlink:href="class_send_coins_dialog.html#aab03626a859f22a68760b235a1df6bc9" target="_top" xlink:title="SendCoinsDialog::send">
<polygon fill="white" stroke="black" points="782.5,-6 782.5,-25 901.5,-25 901.5,-6 782.5,-6"/>
<text text-anchor="middle" x="842" y="-13" font-family="Helvetica,sans-Serif" font-size="10.00">SendCoinsDialog::send</text>
</a>
</g>
</g>
<!-- Node1239&#45;&gt;Node1240 -->
<g id="edge14" class="edge"><title>Node1239&#45;&gt;Node1240</title>
<path fill="none" stroke="midnightblue" d="M735.093,-15.5C750.783,-15.5 767.234,-15.5 782.365,-15.5"/>
<polygon fill="midnightblue" stroke="midnightblue" points="734.913,-12.0001 724.913,-15.5 734.913,-19.0001 734.913,-12.0001"/>
</g>
<!-- Node1241 -->
<g id="node14" class="node"><title>Node1241</title>
<g id="a_node14"><a xlink:href="class_send_coins_dialog.html#a2cab7cf9ea5040b9e2189297f7d3c764" target="_top" xlink:title="SendCoinsDialog::on\l_sendButton_clicked">
<polygon fill="white" stroke="black" points="954.5,-0.5 954.5,-30.5 1063.5,-30.5 1063.5,-0.5 954.5,-0.5"/>
<text text-anchor="start" x="962.5" y="-18.5" font-family="Helvetica,sans-Serif" font-size="10.00">SendCoinsDialog::on</text>
<text text-anchor="middle" x="1009" y="-7.5" font-family="Helvetica,sans-Serif" font-size="10.00">_sendButton_clicked</text>
</a>
</g>
</g>
<!-- Node1240&#45;&gt;Node1241 -->
<g id="edge15" class="edge"><title>Node1240&#45;&gt;Node1241</title>
<path fill="none" stroke="midnightblue" d="M911.825,-15.5C925.985,-15.5 940.698,-15.5 954.231,-15.5"/>
<polygon fill="midnightblue" stroke="midnightblue" points="911.637,-12.0001 901.637,-15.5 911.637,-19.0001 911.637,-12.0001"/>
</g>
</g>
</svg>
        <g id="navigator" transform="translate(0 0)" fill="#404254">
                <rect fill="#f2f5e9" fill-opacity="0.5" stroke="#606060" stroke-width=".5" x="0" y="0" width="60" height="60"/>
                <use id="zoomplus" xlink:href="#zoomPlus" x="17" y="9" onmousedown="handleZoom(evt,'in')"/>
                <use id="zoomminus" xlink:href="#zoomMin" x="42" y="9" onmousedown="handleZoom(evt,'out')"/>
                <use id="reset" xlink:href="#resetDef" x="30" y="36" onmousedown="handleReset()"/>
                <g id="arrowUp" xlink:href="#dirArrow" transform="translate(30 24)" onmousedown="handlePan(0,-1)">
                  <use xlink:href="#rim" fill="#404040">
                        <set attributeName="fill" to="#808080" begin="arrowUp.mouseover" end="arrowUp.mouseout"/>
                  </use>
                  <path fill="none" stroke="white" stroke-width="1.5" d="M0,-3.0v7 M-2.5,-0.5L0,-3.0L2.5,-0.5"/>
                </g>
                <g id="arrowRight" xlink:href="#dirArrow" transform="rotate(90) translate(36 -43)" onmousedown="handlePan(1,0)">
                  <use xlink:href="#rim" fill="#404040">
                        <set attributeName="fill" to="#808080" begin="arrowRight.mouseover" end="arrowRight.mouseout"/>
                  </use>
                  <path fill="none" stroke="white" stroke-width="1.5" d="M0,-3.0v7 M-2.5,-0.5L0,-3.0L2.5,-0.5"/>
                </g>
                <g id="arrowDown" xlink:href="#dirArrow" transform="rotate(180) translate(-30 -48)" onmousedown="handlePan(0,1)">
                  <use xlink:href="#rim" fill="#404040">
                        <set attributeName="fill" to="#808080" begin="arrowDown.mouseover" end="arrowDown.mouseout"/>
                  </use>
                  <path fill="none" stroke="white" stroke-width="1.5" d="M0,-3.0v7 M-2.5,-0.5L0,-3.0L2.5,-0.5"/>
                </g>
                <g id="arrowLeft" xlink:href="#dirArrow" transform="rotate(270) translate(-36 17)" onmousedown="handlePan(-1,0)">
                  <use xlink:href="#rim" fill="#404040">
                        <set attributeName="fill" to="#808080" begin="arrowLeft.mouseover" end="arrowLeft.mouseout"/>
                  </use>
                  <path fill="none" stroke="white" stroke-width="1.5" d="M0,-3.0v7 M-2.5,-0.5L0,-3.0L2.5,-0.5"/>
                </g>
        </g>
        <svg viewBox="0 0 15 15" width="100%" height="30px" preserveAspectRatio="xMaxYMin meet">
         <g id="arrow_out" transform="scale(0.3 0.3)">
          <a xlink:href="group___actions_ga1372ba886aaeda65bf28758c9ccb65b4_icgraph_org.svg" target="_base">
           <rect id="button" ry="5" rx="5" y="6" x="6" height="38" width="38"
                fill="#f2f5e9" fill-opacity="0.5" stroke="#606060" stroke-width="1.0"/>
           <path id="arrow"
             d="M 11.500037,31.436501 C 11.940474,20.09759 22.043105,11.32322 32.158766,21.979434 L 37.068811,17.246167 C 37.068811,17.246167 37.088388,32 37.088388,32 L 22.160133,31.978069 C 22.160133,31.978069 26.997745,27.140456 26.997745,27.140456 C 18.528582,18.264221 13.291696,25.230495 11.500037,31.436501 z"
             style="fill:#404040;"/>
          </a>
         </g>
        </svg>
</svg>
