<?xml version="1.0" encoding="UTF-8" standalone="no"?>
<!DOCTYPE svg PUBLIC "-//W3C//DTD SVG 1.1//EN"
 "http://www.w3.org/Graphics/SVG/1.1/DTD/svg11.dtd">
<!-- Generated by graphviz version 2.38.0 (20140413.2041)
 -->
<!-- Title: secp256k1_ge_set_gej_var Pages: 1 -->
<svg width="1548pt" height="892pt"
 viewBox="0.00 0.00 1548.00 892.00" xmlns="http://www.w3.org/2000/svg" xmlns:xlink="http://www.w3.org/1999/xlink">
<g id="graph0" class="graph" transform="scale(1 1) rotate(0) translate(4 888)">
<title>secp256k1_ge_set_gej_var</title>
<polygon fill="white" stroke="none" points="-4,4 -4,-888 1544,-888 1544,4 -4,4"/>
<!-- Node44 -->
<g id="node1" class="node"><title>Node44</title>
<polygon fill="#bfbfbf" stroke="black" points="0,-165.5 0,-184.5 135,-184.5 135,-165.5 0,-165.5"/>
<text text-anchor="middle" x="67.5" y="-172.5" font-family="Helvetica,sans-Serif" font-size="10.00">secp256k1_ge_set_gej_var</text>
</g>
<!-- Node45 -->
<g id="node2" class="node"><title>Node45</title>
<g id="a_node2"><a xlink:href="recovery_2main__impl_8h.html#a1a831ed991717749ed9d200bb9d3f03b" target="_top" xlink:title="secp256k1_ecdsa_sig\l_recover">
<polygon fill="white" stroke="black" points="176,-247 176,-277 289,-277 289,-247 176,-247"/>
<text text-anchor="start" x="184" y="-265" font-family="Helvetica,sans-Serif" font-size="10.00">secp256k1_ecdsa_sig</text>
<text text-anchor="middle" x="232.5" y="-254" font-family="Helvetica,sans-Serif" font-size="10.00">_recover</text>
</a>
</g>
</g>
<!-- Node44&#45;&gt;Node45 -->
<g id="edge1" class="edge"><title>Node44&#45;&gt;Node45</title>
<path fill="none" stroke="midnightblue" d="M95.5649,-189.446C125.351,-205.344 173.009,-230.781 203.257,-246.926"/>
<polygon fill="midnightblue" stroke="midnightblue" points="97.0367,-186.264 86.5666,-184.643 93.7406,-192.439 97.0367,-186.264"/>
</g>
<!-- Node149 -->
<g id="node46" class="node"><title>Node149</title>
<g id="a_node46"><a xlink:href="schnorr__impl_8h.html#ad8ac32b20746524ea3b97ab609117daa" target="_top" xlink:title="secp256k1_schnorr_sig\l_verify">
<polygon fill="white" stroke="black" points="173,-97 173,-127 292,-127 292,-97 173,-97"/>
<text text-anchor="start" x="181" y="-115" font-family="Helvetica,sans-Serif" font-size="10.00">secp256k1_schnorr_sig</text>
<text text-anchor="middle" x="232.5" y="-104" font-family="Helvetica,sans-Serif" font-size="10.00">_verify</text>
</a>
</g>
</g>
<!-- Node44&#45;&gt;Node149 -->
<g id="edge50" class="edge"><title>Node44&#45;&gt;Node149</title>
<path fill="none" stroke="midnightblue" d="M102.781,-161.75C129.008,-151.613 165.195,-137.627 192.522,-127.065"/>
<polygon fill="midnightblue" stroke="midnightblue" points="101.322,-158.562 93.2562,-165.432 103.846,-165.091 101.322,-158.562"/>
</g>
<!-- Node150 -->
<g id="node47" class="node"><title>Node150</title>
<g id="a_node47"><a xlink:href="tests_8c.html#a3084bb11900a5e4d33115904d0ceb847" target="_top" xlink:title="test_ge">
<polygon fill="white" stroke="black" points="208,-184.5 208,-203.5 257,-203.5 257,-184.5 208,-184.5"/>
<text text-anchor="middle" x="232.5" y="-191.5" font-family="Helvetica,sans-Serif" font-size="10.00">test_ge</text>
</a>
</g>
</g>
<!-- Node44&#45;&gt;Node150 -->
<g id="edge51" class="edge"><title>Node44&#45;&gt;Node150</title>
<path fill="none" stroke="midnightblue" d="M145.274,-183.949C167.936,-186.591 191.087,-189.289 207.687,-191.224"/>
<polygon fill="midnightblue" stroke="midnightblue" points="145.607,-180.464 135.269,-182.783 144.796,-187.417 145.607,-180.464"/>
</g>
<!-- Node152 -->
<g id="node49" class="node"><title>Node152</title>
<g id="a_node49"><a xlink:href="schnorr_2tests__impl_8h.html#ac01f457db870f54e7034a59bcf51f5fb" target="_top" xlink:title="test_schnorr_sign_verify">
<polygon fill="white" stroke="black" points="171,-146.5 171,-165.5 294,-165.5 294,-146.5 171,-146.5"/>
<text text-anchor="middle" x="232.5" y="-153.5" font-family="Helvetica,sans-Serif" font-size="10.00">test_schnorr_sign_verify</text>
</a>
</g>
</g>
<!-- Node44&#45;&gt;Node152 -->
<g id="edge54" class="edge"><title>Node44&#45;&gt;Node152</title>
<path fill="none" stroke="midnightblue" d="M145.287,-166.049C153.868,-165.049 162.519,-164.041 170.857,-163.069"/>
<polygon fill="midnightblue" stroke="midnightblue" points="144.796,-162.583 135.269,-167.217 145.607,-169.536 144.796,-162.583"/>
</g>
<!-- Node46 -->
<g id="node3" class="node"><title>Node46</title>
<g id="a_node3"><a xlink:href="recovery_2main__impl_8h.html#a75f3e32e9a25eac9e8f9d3a5a8b0dc94" target="_top" xlink:title="Recover an ECDSA public key from a signature. ">
<polygon fill="white" stroke="black" points="330,-277.5 330,-296.5 463,-296.5 463,-277.5 330,-277.5"/>
<text text-anchor="middle" x="396.5" y="-284.5" font-family="Helvetica,sans-Serif" font-size="10.00">secp256k1_ecdsa_recover</text>
</a>
</g>
</g>
<!-- Node45&#45;&gt;Node46 -->
<g id="edge2" class="edge"><title>Node45&#45;&gt;Node46</title>
<path fill="none" stroke="midnightblue" d="M299.175,-272.135C310.62,-273.901 322.488,-275.733 333.82,-277.481"/>
<polygon fill="midnightblue" stroke="midnightblue" points="299.668,-268.67 289.251,-270.604 298.6,-275.588 299.668,-268.67"/>
</g>
<!-- Node47 -->
<g id="node4" class="node"><title>Node47</title>
<g id="a_node4"><a xlink:href="class_c_pub_key.html#a169505e735a02db385486b0affeb565c" target="_top" xlink:title="Recover a public key from a compact signature. ">
<polygon fill="white" stroke="black" points="499,-371.5 499,-390.5 640,-390.5 640,-371.5 499,-371.5"/>
<text text-anchor="middle" x="569.5" y="-378.5" font-family="Helvetica,sans-Serif" font-size="10.00">CPubKey::RecoverCompact</text>
</a>
</g>
</g>
<!-- Node46&#45;&gt;Node47 -->
<g id="edge3" class="edge"><title>Node46&#45;&gt;Node47</title>
<path fill="none" stroke="midnightblue" d="M420.105,-302.268C440.336,-315.631 471.034,-335.172 499,-350 513.941,-357.922 531.316,-365.672 544.956,-371.441"/>
<polygon fill="midnightblue" stroke="midnightblue" points="421.857,-299.23 411.593,-296.602 417.978,-305.057 421.857,-299.23"/>
</g>
<!-- Node143 -->
<g id="node40" class="node"><title>Node143</title>
<g id="a_node40"><a xlink:href="bench__recover_8c.html#a6bbc6888c36d93d55e5410b25121db10" target="_top" xlink:title="bench_recover">
<polygon fill="white" stroke="black" points="529.5,-321.5 529.5,-340.5 609.5,-340.5 609.5,-321.5 529.5,-321.5"/>
<text text-anchor="middle" x="569.5" y="-328.5" font-family="Helvetica,sans-Serif" font-size="10.00">bench_recover</text>
</a>
</g>
</g>
<!-- Node46&#45;&gt;Node143 -->
<g id="edge43" class="edge"><title>Node46&#45;&gt;Node143</title>
<path fill="none" stroke="midnightblue" d="M444.376,-299.062C471.801,-306.118 505.939,-314.902 531.468,-321.471"/>
<polygon fill="midnightblue" stroke="midnightblue" points="445.161,-295.65 434.604,-296.547 443.417,-302.429 445.161,-295.65"/>
</g>
<!-- Node145 -->
<g id="node42" class="node"><title>Node145</title>
<g id="a_node42"><a xlink:href="recovery_2tests__impl_8h.html#a70649882936497184992dfaa06b1106f" target="_top" xlink:title="test_ecdsa_recovery\l_end_to_end">
<polygon fill="white" stroke="black" points="516,-272 516,-302 623,-302 623,-272 516,-272"/>
<text text-anchor="start" x="524" y="-290" font-family="Helvetica,sans-Serif" font-size="10.00">test_ecdsa_recovery</text>
<text text-anchor="middle" x="569.5" y="-279" font-family="Helvetica,sans-Serif" font-size="10.00">_end_to_end</text>
</a>
</g>
</g>
<!-- Node46&#45;&gt;Node145 -->
<g id="edge45" class="edge"><title>Node46&#45;&gt;Node145</title>
<path fill="none" stroke="midnightblue" d="M473.444,-287C487.736,-287 502.388,-287 515.777,-287"/>
<polygon fill="midnightblue" stroke="midnightblue" points="473.124,-283.5 463.124,-287 473.124,-290.5 473.124,-283.5"/>
</g>
<!-- Node148 -->
<g id="node45" class="node"><title>Node148</title>
<g id="a_node45"><a xlink:href="recovery_2tests__impl_8h.html#ad6d3138600637a7c940bc40a22795e46" target="_top" xlink:title="test_ecdsa_recovery\l_edge_cases">
<polygon fill="white" stroke="black" points="516,-223 516,-253 623,-253 623,-223 516,-223"/>
<text text-anchor="start" x="524" y="-241" font-family="Helvetica,sans-Serif" font-size="10.00">test_ecdsa_recovery</text>
<text text-anchor="middle" x="569.5" y="-230" font-family="Helvetica,sans-Serif" font-size="10.00">_edge_cases</text>
</a>
</g>
</g>
<!-- Node46&#45;&gt;Node148 -->
<g id="edge48" class="edge"><title>Node46&#45;&gt;Node148</title>
<path fill="none" stroke="midnightblue" d="M440.654,-274.634C463.55,-268.074 491.865,-259.96 516.024,-253.037"/>
<polygon fill="midnightblue" stroke="midnightblue" points="439.525,-271.317 430.876,-277.436 441.454,-278.046 439.525,-271.317"/>
</g>
<!-- Node48 -->
<g id="node5" class="node"><title>Node48</title>
<g id="a_node5"><a xlink:href="class_c_hash_signer.html#a941bca56ae42ff938656c805a1ddc78e" target="_top" xlink:title="Verify the hash signature, returns true if succcessful. ">
<polygon fill="white" stroke="black" points="676.5,-444.5 676.5,-463.5 806.5,-463.5 806.5,-444.5 676.5,-444.5"/>
<text text-anchor="middle" x="741.5" y="-451.5" font-family="Helvetica,sans-Serif" font-size="10.00">CHashSigner::VerifyHash</text>
</a>
</g>
</g>
<!-- Node47&#45;&gt;Node48 -->
<g id="edge4" class="edge"><title>Node47&#45;&gt;Node48</title>
<path fill="none" stroke="midnightblue" d="M595.763,-395.627C616.755,-407.363 647.662,-423.689 676,-435 684.782,-438.505 694.464,-441.695 703.597,-444.417"/>
<polygon fill="midnightblue" stroke="midnightblue" points="597.289,-392.469 586.861,-390.592 593.843,-398.562 597.289,-392.469"/>
</g>
<!-- Node141 -->
<g id="node38" class="node"><title>Node141</title>
<g id="a_node38"><a xlink:href="class_sign_verify_message_dialog.html#ae37dec200b27f23c409221511447ae1e" target="_top" xlink:title="SignVerifyMessageDialog\l::on_verifyMessageButton\l_VM_clicked">
<polygon fill="white" stroke="black" points="676,-384.5 676,-425.5 807,-425.5 807,-384.5 676,-384.5"/>
<text text-anchor="start" x="684" y="-413.5" font-family="Helvetica,sans-Serif" font-size="10.00">SignVerifyMessageDialog</text>
<text text-anchor="start" x="684" y="-402.5" font-family="Helvetica,sans-Serif" font-size="10.00">::on_verifyMessageButton</text>
<text text-anchor="middle" x="741.5" y="-391.5" font-family="Helvetica,sans-Serif" font-size="10.00">_VM_clicked</text>
</a>
</g>
</g>
<!-- Node47&#45;&gt;Node141 -->
<g id="edge41" class="edge"><title>Node47&#45;&gt;Node141</title>
<path fill="none" stroke="midnightblue" d="M648.152,-391.963C657.406,-393.269 666.778,-394.592 675.823,-395.869"/>
<polygon fill="midnightblue" stroke="midnightblue" points="648.568,-388.487 638.177,-390.554 647.589,-395.418 648.568,-388.487"/>
</g>
<!-- Node142 -->
<g id="node39" class="node"><title>Node142</title>
<g id="a_node39"><a xlink:href="server_8h.html#a395e3289609c817a2605bd14d45ae641" target="_top" xlink:title="verifymessage">
<polygon fill="white" stroke="black" points="701.5,-346.5 701.5,-365.5 781.5,-365.5 781.5,-346.5 701.5,-346.5"/>
<text text-anchor="middle" x="741.5" y="-353.5" font-family="Helvetica,sans-Serif" font-size="10.00">verifymessage</text>
</a>
</g>
</g>
<!-- Node47&#45;&gt;Node142 -->
<g id="edge42" class="edge"><title>Node47&#45;&gt;Node142</title>
<path fill="none" stroke="midnightblue" d="M645.223,-370.011C664.451,-367.184 684.39,-364.251 701.028,-361.805"/>
<polygon fill="midnightblue" stroke="midnightblue" points="644.639,-366.559 635.255,-371.477 645.658,-373.485 644.639,-366.559"/>
</g>
<!-- Node49 -->
<g id="node6" class="node"><title>Node49</title>
<g id="a_node6"><a xlink:href="class_c_message_signer.html#ab4189ffcd1472cac33f99a425faa4cec" target="_top" xlink:title="Verify the message signature, returns true if succcessful. ">
<polygon fill="white" stroke="black" points="843,-444.5 843,-463.5 1006,-463.5 1006,-444.5 843,-444.5"/>
<text text-anchor="middle" x="924.5" y="-451.5" font-family="Helvetica,sans-Serif" font-size="10.00">CMessageSigner::VerifyMessage</text>
</a>
</g>
</g>
<!-- Node48&#45;&gt;Node49 -->
<g id="edge5" class="edge"><title>Node48&#45;&gt;Node49</title>
<path fill="none" stroke="midnightblue" d="M816.57,-454C825.187,-454 834.009,-454 842.71,-454"/>
<polygon fill="midnightblue" stroke="midnightblue" points="816.569,-450.5 806.569,-454 816.569,-457.5 816.569,-450.5"/>
</g>
<!-- Node50 -->
<g id="node7" class="node"><title>Node50</title>
<g id="a_node7"><a xlink:href="class_c_dark_send_relay.html#a92b95682e2acbe5570b79cb7c3793388" target="_top" xlink:title="CDarkSendRelay::Sign">
<polygon fill="white" stroke="black" points="1067.5,-864.5 1067.5,-883.5 1186.5,-883.5 1186.5,-864.5 1067.5,-864.5"/>
<text text-anchor="middle" x="1127" y="-871.5" font-family="Helvetica,sans-Serif" font-size="10.00">CDarkSendRelay::Sign</text>
</a>
</g>
</g>
<!-- Node49&#45;&gt;Node50 -->
<g id="edge6" class="edge"><title>Node49&#45;&gt;Node50</title>
<path fill="none" stroke="midnightblue" d="M924.768,-473.69C923.495,-538.691 928.717,-748.349 1042,-855 1049.08,-861.662 1057.97,-866.166 1067.31,-869.178"/>
<polygon fill="midnightblue" stroke="midnightblue" points="928.269,-473.692 925.045,-463.6 921.272,-473.5 928.269,-473.692"/>
</g>
<!-- Node51 -->
<g id="node8" class="node"><title>Node51</title>
<g id="a_node8"><a xlink:href="class_c_dark_send_relay.html#a3d32d1ec983946dc12ff277d0e68365e" target="_top" xlink:title="CDarkSendRelay::VerifyMessage">
<polygon fill="white" stroke="black" points="1045,-826.5 1045,-845.5 1209,-845.5 1209,-826.5 1045,-826.5"/>
<text text-anchor="middle" x="1127" y="-833.5" font-family="Helvetica,sans-Serif" font-size="10.00">CDarkSendRelay::VerifyMessage</text>
</a>
</g>
</g>
<!-- Node49&#45;&gt;Node51 -->
<g id="edge7" class="edge"><title>Node49&#45;&gt;Node51</title>
<path fill="none" stroke="midnightblue" d="M925.465,-473.813C926.495,-534.929 938.354,-722.106 1042,-817 1046.19,-820.837 1050.99,-823.953 1056.12,-826.478"/>
<polygon fill="midnightblue" stroke="midnightblue" points="928.964,-473.595 925.379,-463.625 921.964,-473.654 928.964,-473.595"/>
</g>
<!-- Node52 -->
<g id="node9" class="node"><title>Node52</title>
<g id="a_node9"><a xlink:href="class_c_governance_object.html#a1ac3561fed7eb1837d55516a8a2646ba" target="_top" xlink:title="CGovernanceObject::Sign">
<polygon fill="white" stroke="black" points="1061.5,-788.5 1061.5,-807.5 1192.5,-807.5 1192.5,-788.5 1061.5,-788.5"/>
<text text-anchor="middle" x="1127" y="-795.5" font-family="Helvetica,sans-Serif" font-size="10.00">CGovernanceObject::Sign</text>
</a>
</g>
</g>
<!-- Node49&#45;&gt;Node52 -->
<g id="edge8" class="edge"><title>Node49&#45;&gt;Node52</title>
<path fill="none" stroke="midnightblue" d="M926.301,-473.604C929.728,-530.275 947.732,-695.562 1042,-779 1047.6,-783.955 1054.21,-787.699 1061.24,-790.516"/>
<polygon fill="midnightblue" stroke="midnightblue" points="929.791,-473.307 925.781,-463.5 922.8,-473.667 929.791,-473.307"/>
</g>
<!-- Node54 -->
<g id="node11" class="node"><title>Node54</title>
<g id="a_node11"><a xlink:href="class_c_governance_object.html#ad41e5a106cd3980c726014aa99ea4536" target="_top" xlink:title="CGovernanceObject::\lCheckSignature">
<polygon fill="white" stroke="black" points="1071.5,-701 1071.5,-731 1182.5,-731 1182.5,-701 1071.5,-701"/>
<text text-anchor="start" x="1079.5" y="-719" font-family="Helvetica,sans-Serif" font-size="10.00">CGovernanceObject::</text>
<text text-anchor="middle" x="1127" y="-708" font-family="Helvetica,sans-Serif" font-size="10.00">CheckSignature</text>
</a>
</g>
</g>
<!-- Node49&#45;&gt;Node54 -->
<g id="edge10" class="edge"><title>Node49&#45;&gt;Node54</title>
<path fill="none" stroke="midnightblue" d="M929.579,-473.902C939.946,-519.373 971.622,-631.529 1042,-691 1050.37,-698.071 1060.67,-703.142 1071.16,-706.779"/>
<polygon fill="midnightblue" stroke="midnightblue" points="932.939,-472.879 927.392,-463.851 926.099,-474.367 932.939,-472.879"/>
</g>
<!-- Node56 -->
<g id="node13" class="node"><title>Node56</title>
<g id="a_node13"><a xlink:href="class_c_governance_vote.html#ad8c4ed6faefac545b39e208debd36b9b" target="_top" xlink:title="CGovernanceVote::Sign">
<polygon fill="white" stroke="black" points="1066,-750.5 1066,-769.5 1188,-769.5 1188,-750.5 1066,-750.5"/>
<text text-anchor="middle" x="1127" y="-757.5" font-family="Helvetica,sans-Serif" font-size="10.00">CGovernanceVote::Sign</text>
</a>
</g>
</g>
<!-- Node49&#45;&gt;Node56 -->
<g id="edge12" class="edge"><title>Node49&#45;&gt;Node56</title>
<path fill="none" stroke="midnightblue" d="M927.359,-473.735C933.383,-526.02 957.209,-669.026 1042,-741 1048.84,-746.805 1057.09,-750.933 1065.71,-753.851"/>
<polygon fill="midnightblue" stroke="midnightblue" points="930.836,-473.331 926.303,-463.754 923.874,-474.067 930.836,-473.331"/>
</g>
<!-- Node57 -->
<g id="node14" class="node"><title>Node57</title>
<g id="a_node14"><a xlink:href="class_c_governance_vote.html#a6f6a2973b21926522fa2f1311d370b94" target="_top" xlink:title="CGovernanceVote::IsValid">
<polygon fill="white" stroke="black" points="1060.5,-662.5 1060.5,-681.5 1193.5,-681.5 1193.5,-662.5 1060.5,-662.5"/>
<text text-anchor="middle" x="1127" y="-669.5" font-family="Helvetica,sans-Serif" font-size="10.00">CGovernanceVote::IsValid</text>
</a>
</g>
</g>
<!-- Node49&#45;&gt;Node57 -->
<g id="edge14" class="edge"><title>Node49&#45;&gt;Node57</title>
<path fill="none" stroke="midnightblue" d="M931.081,-473.451C943.696,-513.74 978.376,-606.435 1042,-653 1047.55,-657.062 1053.82,-660.278 1060.37,-662.82"/>
<polygon fill="midnightblue" stroke="midnightblue" points="934.4,-472.331 928.163,-463.766 927.697,-474.351 934.4,-472.331"/>
</g>
<!-- Node58 -->
<g id="node15" class="node"><title>Node58</title>
<g id="a_node15"><a xlink:href="class_c_tx_lock_vote.html#aca06d0758d607cd7461a3f800d9d4f20" target="_top" xlink:title="CTxLockVote::CheckSignature">
<polygon fill="white" stroke="black" points="1051,-586.5 1051,-605.5 1203,-605.5 1203,-586.5 1051,-586.5"/>
<text text-anchor="middle" x="1127" y="-593.5" font-family="Helvetica,sans-Serif" font-size="10.00">CTxLockVote::CheckSignature</text>
</a>
</g>
</g>
<!-- Node49&#45;&gt;Node58 -->
<g id="edge15" class="edge"><title>Node49&#45;&gt;Node58</title>
<path fill="none" stroke="midnightblue" d="M937.541,-472.437C956.399,-499.752 995.584,-550.578 1042,-577 1048.76,-580.846 1056.23,-583.914 1063.86,-586.361"/>
<polygon fill="midnightblue" stroke="midnightblue" points="940.233,-470.169 931.74,-463.835 934.43,-474.083 940.233,-470.169"/>
</g>
<!-- Node92 -->
<g id="node18" class="node"><title>Node92</title>
<g id="a_node18"><a xlink:href="class_c_tx_lock_vote.html#a043595d6c0fcece35a440cdc7ba3c2af" target="_top" xlink:title="CTxLockVote::Sign">
<polygon fill="white" stroke="black" points="1076,-624.5 1076,-643.5 1178,-643.5 1178,-624.5 1076,-624.5"/>
<text text-anchor="middle" x="1127" y="-631.5" font-family="Helvetica,sans-Serif" font-size="10.00">CTxLockVote::Sign</text>
</a>
</g>
</g>
<!-- Node49&#45;&gt;Node92 -->
<g id="edge18" class="edge"><title>Node49&#45;&gt;Node92</title>
<path fill="none" stroke="midnightblue" d="M933.751,-473.216C949.494,-507.46 987.201,-578.828 1042,-615 1051.98,-621.589 1063.93,-625.916 1075.64,-628.75"/>
<polygon fill="midnightblue" stroke="midnightblue" points="936.847,-471.566 929.576,-463.861 930.455,-474.419 936.847,-471.566"/>
</g>
<!-- Node93 -->
<g id="node19" class="node"><title>Node93</title>
<g id="a_node19"><a xlink:href="class_c_masternode_payment_vote.html#a7e3cb1b9bbd3c03500facbea2a66de5d" target="_top" xlink:title="CMasternodePaymentVote\l::Sign">
<polygon fill="white" stroke="black" points="1060,-537 1060,-567 1194,-567 1194,-537 1060,-537"/>
<text text-anchor="start" x="1068" y="-555" font-family="Helvetica,sans-Serif" font-size="10.00">CMasternodePaymentVote</text>
<text text-anchor="middle" x="1127" y="-544" font-family="Helvetica,sans-Serif" font-size="10.00">::Sign</text>
</a>
</g>
</g>
<!-- Node49&#45;&gt;Node93 -->
<g id="edge20" class="edge"><title>Node49&#45;&gt;Node93</title>
<path fill="none" stroke="midnightblue" d="M946.215,-469.77C968.736,-486.274 1006.3,-511.968 1042,-528 1049.33,-531.293 1057.23,-534.251 1065.14,-536.872"/>
<polygon fill="midnightblue" stroke="midnightblue" points="948.196,-466.882 938.082,-463.728 944.022,-472.501 948.196,-466.882"/>
</g>
<!-- Node94 -->
<g id="node20" class="node"><title>Node94</title>
<g id="a_node20"><a xlink:href="class_c_masternode_payment_vote.html#a07da3b083404cef1b60ed8b1305e4f0c" target="_top" xlink:title="CMasternodePaymentVote\l::CheckSignature">
<polygon fill="white" stroke="black" points="1060,-488 1060,-518 1194,-518 1194,-488 1060,-488"/>
<text text-anchor="start" x="1068" y="-506" font-family="Helvetica,sans-Serif" font-size="10.00">CMasternodePaymentVote</text>
<text text-anchor="middle" x="1127" y="-495" font-family="Helvetica,sans-Serif" font-size="10.00">::CheckSignature</text>
</a>
</g>
</g>
<!-- Node49&#45;&gt;Node94 -->
<g id="edge21" class="edge"><title>Node49&#45;&gt;Node94</title>
<path fill="none" stroke="midnightblue" d="M974.66,-466.014C1001.75,-472.635 1035.64,-480.916 1064.47,-487.963"/>
<polygon fill="midnightblue" stroke="midnightblue" points="975.179,-462.538 964.634,-463.564 973.518,-469.338 975.179,-462.538"/>
</g>
<!-- Node95 -->
<g id="node21" class="node"><title>Node95</title>
<g id="a_node21"><a xlink:href="class_c_masternode_broadcast.html#a2603223b2d8123005944d5e8fdb97ff9" target="_top" xlink:title="CMasternodeBroadcast\l::Sign">
<polygon fill="white" stroke="black" points="1067.5,-439 1067.5,-469 1186.5,-469 1186.5,-439 1067.5,-439"/>
<text text-anchor="start" x="1075.5" y="-457" font-family="Helvetica,sans-Serif" font-size="10.00">CMasternodeBroadcast</text>
<text text-anchor="middle" x="1127" y="-446" font-family="Helvetica,sans-Serif" font-size="10.00">::Sign</text>
</a>
</g>
</g>
<!-- Node49&#45;&gt;Node95 -->
<g id="edge22" class="edge"><title>Node49&#45;&gt;Node95</title>
<path fill="none" stroke="midnightblue" d="M1016.33,-454C1033.66,-454 1051.37,-454 1067.36,-454"/>
<polygon fill="midnightblue" stroke="midnightblue" points="1016.18,-450.5 1006.18,-454 1016.18,-457.5 1016.18,-450.5"/>
</g>
<!-- Node120 -->
<g id="node24" class="node"><title>Node120</title>
<g id="a_node24"><a xlink:href="class_c_masternode_broadcast.html#a12769e5247ac34008e887ba6bb04496a" target="_top" xlink:title="CMasternodeBroadcast\l::CheckSignature">
<polygon fill="white" stroke="black" points="1067.5,-351 1067.5,-381 1186.5,-381 1186.5,-351 1067.5,-351"/>
<text text-anchor="start" x="1075.5" y="-369" font-family="Helvetica,sans-Serif" font-size="10.00">CMasternodeBroadcast</text>
<text text-anchor="middle" x="1127" y="-358" font-family="Helvetica,sans-Serif" font-size="10.00">::CheckSignature</text>
</a>
</g>
</g>
<!-- Node49&#45;&gt;Node120 -->
<g id="edge25" class="edge"><title>Node49&#45;&gt;Node120</title>
<path fill="none" stroke="midnightblue" d="M949.573,-439.07C972.641,-425.23 1008.76,-404.759 1042,-391 1050.72,-387.392 1060.14,-384.065 1069.41,-381.095"/>
<polygon fill="midnightblue" stroke="midnightblue" points="947.557,-436.199 940.823,-444.378 951.188,-442.184 947.557,-436.199"/>
</g>
<!-- Node122 -->
<g id="node27" class="node"><title>Node122</title>
<g id="a_node27"><a xlink:href="class_c_masternode_ping.html#aec087812841840e98833673a88abcf07" target="_top" xlink:title="CMasternodePing::Sign">
<polygon fill="white" stroke="black" points="1067,-400.5 1067,-419.5 1187,-419.5 1187,-400.5 1067,-400.5"/>
<text text-anchor="middle" x="1127" y="-407.5" font-family="Helvetica,sans-Serif" font-size="10.00">CMasternodePing::Sign</text>
</a>
</g>
</g>
<!-- Node49&#45;&gt;Node122 -->
<g id="edge29" class="edge"><title>Node49&#45;&gt;Node122</title>
<path fill="none" stroke="midnightblue" d="M978.778,-442.308C1011.21,-435.19 1052.12,-426.213 1082.58,-419.529"/>
<polygon fill="midnightblue" stroke="midnightblue" points="978.023,-438.89 969.006,-444.453 979.523,-445.728 978.023,-438.89"/>
</g>
<!-- Node124 -->
<g id="node29" class="node"><title>Node124</title>
<g id="a_node29"><a xlink:href="class_c_masternode_ping.html#abceb3c43f2596257fec39fa8a4669f93" target="_top" xlink:title="CMasternodePing::CheckSignature">
<polygon fill="white" stroke="black" points="1042,-312.5 1042,-331.5 1212,-331.5 1212,-312.5 1042,-312.5"/>
<text text-anchor="middle" x="1127" y="-319.5" font-family="Helvetica,sans-Serif" font-size="10.00">CMasternodePing::CheckSignature</text>
</a>
</g>
</g>
<!-- Node49&#45;&gt;Node124 -->
<g id="edge32" class="edge"><title>Node49&#45;&gt;Node124</title>
<path fill="none" stroke="midnightblue" d="M938.81,-436.236C958.519,-411.242 997.916,-366.067 1042,-342 1050.03,-337.618 1059,-334.189 1068.01,-331.507"/>
<polygon fill="midnightblue" stroke="midnightblue" points="935.806,-434.399 932.467,-444.454 941.348,-438.676 935.806,-434.399"/>
</g>
<!-- Node126 -->
<g id="node31" class="node"><title>Node126</title>
<g id="a_node31"><a xlink:href="class_c_masternode_man.html#a96f55c43bf50fcb9bfc9d045f8f6756e" target="_top" xlink:title="CMasternodeMan::SendVerify\lReply">
<polygon fill="white" stroke="red" points="1053,-263 1053,-293 1201,-293 1201,-263 1053,-263"/>
<text text-anchor="start" x="1061" y="-281" font-family="Helvetica,sans-Serif" font-size="10.00">CMasternodeMan::SendVerify</text>
<text text-anchor="middle" x="1127" y="-270" font-family="Helvetica,sans-Serif" font-size="10.00">Reply</text>
</a>
</g>
</g>
<!-- Node49&#45;&gt;Node126 -->
<g id="edge34" class="edge"><title>Node49&#45;&gt;Node126</title>
<path fill="none" stroke="midnightblue" d="M935.014,-434.994C952.034,-402.932 990.761,-338.165 1042,-303 1047.65,-299.126 1053.9,-295.841 1060.38,-293.058"/>
<polygon fill="midnightblue" stroke="midnightblue" points="931.75,-433.685 930.262,-444.175 937.967,-436.903 931.75,-433.685"/>
</g>
<!-- Node127 -->
<g id="node32" class="node"><title>Node127</title>
<g id="a_node32"><a xlink:href="class_c_masternode_man.html#a9a96a97210dd939754ef496efdf7fe70" target="_top" xlink:title="CMasternodeMan::ProcessVerify\lReply">
<polygon fill="white" stroke="red" points="1046.5,-214 1046.5,-244 1207.5,-244 1207.5,-214 1046.5,-214"/>
<text text-anchor="start" x="1054.5" y="-232" font-family="Helvetica,sans-Serif" font-size="10.00">CMasternodeMan::ProcessVerify</text>
<text text-anchor="middle" x="1127" y="-221" font-family="Helvetica,sans-Serif" font-size="10.00">Reply</text>
</a>
</g>
</g>
<!-- Node49&#45;&gt;Node127 -->
<g id="edge35" class="edge"><title>Node49&#45;&gt;Node127</title>
<path fill="none" stroke="midnightblue" d="M931.307,-434.789C944.348,-394.936 979.788,-302.915 1042,-254 1046.9,-250.144 1052.39,-246.882 1058.15,-244.123"/>
<polygon fill="midnightblue" stroke="midnightblue" points="927.958,-433.772 928.281,-444.362 934.632,-435.882 927.958,-433.772"/>
</g>
<!-- Node128 -->
<g id="node33" class="node"><title>Node128</title>
<g id="a_node33"><a xlink:href="class_c_masternode_man.html#a0731112eab2636186ca00f01bedd723e" target="_top" xlink:title="CMasternodeMan::ProcessVerify\lBroadcast">
<polygon fill="white" stroke="red" points="1046.5,-165 1046.5,-195 1207.5,-195 1207.5,-165 1046.5,-165"/>
<text text-anchor="start" x="1054.5" y="-183" font-family="Helvetica,sans-Serif" font-size="10.00">CMasternodeMan::ProcessVerify</text>
<text text-anchor="middle" x="1127" y="-172" font-family="Helvetica,sans-Serif" font-size="10.00">Broadcast</text>
</a>
</g>
</g>
<!-- Node49&#45;&gt;Node128 -->
<g id="edge36" class="edge"><title>Node49&#45;&gt;Node128</title>
<path fill="none" stroke="midnightblue" d="M929.005,-434.381C938.42,-387.499 968.683,-268.175 1042,-205 1046.5,-201.126 1051.57,-197.853 1056.94,-195.087"/>
<polygon fill="midnightblue" stroke="midnightblue" points="925.525,-433.95 927.09,-444.428 932.401,-435.261 925.525,-433.95"/>
</g>
<!-- Node129 -->
<g id="node34" class="node"><title>Node129</title>
<g id="a_node34"><a xlink:href="class_c_darksend_queue.html#a5d672b52114eef6e5cb4b469118f1815" target="_top" xlink:title="Check if we have a valid Masternode address. ">
<polygon fill="white" stroke="red" points="1042,-126.5 1042,-145.5 1212,-145.5 1212,-126.5 1042,-126.5"/>
<text text-anchor="middle" x="1127" y="-133.5" font-family="Helvetica,sans-Serif" font-size="10.00">CDarksendQueue::CheckSignature</text>
</a>
</g>
</g>
<!-- Node49&#45;&gt;Node129 -->
<g id="edge37" class="edge"><title>Node49&#45;&gt;Node129</title>
<path fill="none" stroke="midnightblue" d="M931.895,-434.662C952.87,-371.71 1019.52,-175.559 1042,-156 1046.98,-151.671 1052.72,-148.239 1058.83,-145.524"/>
<polygon fill="midnightblue" stroke="midnightblue" points="928.561,-433.597 928.731,-444.191 935.204,-435.803 928.561,-433.597"/>
</g>
<!-- Node135 -->
<g id="node35" class="node"><title>Node135</title>
<g id="a_node35"><a xlink:href="class_c_darksend_broadcast_tx.html#a9ad4625dc786673e99999cb0c81842c9" target="_top" xlink:title="CDarksendBroadcastTx\l::CheckSignature">
<polygon fill="white" stroke="red" points="1066,-77 1066,-107 1188,-107 1188,-77 1066,-77"/>
<text text-anchor="start" x="1074" y="-95" font-family="Helvetica,sans-Serif" font-size="10.00">CDarksendBroadcastTx</text>
<text text-anchor="middle" x="1127" y="-84" font-family="Helvetica,sans-Serif" font-size="10.00">::CheckSignature</text>
</a>
</g>
</g>
<!-- Node49&#45;&gt;Node135 -->
<g id="edge38" class="edge"><title>Node49&#45;&gt;Node135</title>
<path fill="none" stroke="midnightblue" d="M931.932,-434.627C955.474,-363.817 1035.9,-122.841 1042,-117 1048.7,-110.582 1056.98,-105.802 1065.71,-102.246"/>
<polygon fill="midnightblue" stroke="midnightblue" points="928.494,-433.875 928.662,-444.468 935.137,-436.082 928.494,-433.875"/>
</g>
<!-- Node139 -->
<g id="node36" class="node"><title>Node139</title>
<g id="a_node36"><a xlink:href="class_c_spork_message.html#aa41c57e7ac23f5687be8d1679081f1d7" target="_top" xlink:title="CSporkMessage::Sign">
<polygon fill="white" stroke="black" points="1069.5,-38.5 1069.5,-57.5 1184.5,-57.5 1184.5,-38.5 1069.5,-38.5"/>
<text text-anchor="middle" x="1127" y="-45.5" font-family="Helvetica,sans-Serif" font-size="10.00">CSporkMessage::Sign</text>
</a>
</g>
</g>
<!-- Node49&#45;&gt;Node139 -->
<g id="edge39" class="edge"><title>Node49&#45;&gt;Node139</title>
<path fill="none" stroke="midnightblue" d="M932.421,-435.022C947.053,-394.549 981.767,-296.622 1006,-213 1024.6,-148.809 994.288,-113.799 1042,-67 1049.47,-59.671 1059.14,-54.9295 1069.24,-51.9084"/>
<polygon fill="midnightblue" stroke="midnightblue" points="929.123,-433.851 929.002,-444.445 935.703,-436.239 929.123,-433.851"/>
</g>
<!-- Node140 -->
<g id="node37" class="node"><title>Node140</title>
<g id="a_node37"><a xlink:href="class_c_spork_message.html#ad32681a192c7a5a1214cd38ee7d16296" target="_top" xlink:title="CSporkMessage::CheckSignature">
<polygon fill="white" stroke="black" points="1044.5,-0.5 1044.5,-19.5 1209.5,-19.5 1209.5,-0.5 1044.5,-0.5"/>
<text text-anchor="middle" x="1127" y="-7.5" font-family="Helvetica,sans-Serif" font-size="10.00">CSporkMessage::CheckSignature</text>
</a>
</g>
</g>
<!-- Node49&#45;&gt;Node140 -->
<g id="edge40" class="edge"><title>Node49&#45;&gt;Node140</title>
<path fill="none" stroke="midnightblue" d="M932.742,-435.111C947.986,-394.807 983.804,-297.185 1006,-213 1027.24,-132.425 983.946,-88.777 1042,-29 1045.65,-25.2459 1049.86,-22.1632 1054.43,-19.6385"/>
<polygon fill="midnightblue" stroke="midnightblue" points="929.457,-433.901 929.172,-444.492 936,-436.39 929.457,-433.901"/>
</g>
<!-- Node53 -->
<g id="node10" class="node"><title>Node53</title>
<g id="a_node10"><a xlink:href="server_8h.html#a0fa637689f8c63fc6adebeb9458430db" target="_top" xlink:title="gobject">
<polygon fill="white" stroke="black" points="1297,-769.5 1297,-788.5 1345,-788.5 1345,-769.5 1297,-769.5"/>
<text text-anchor="middle" x="1321" y="-776.5" font-family="Helvetica,sans-Serif" font-size="10.00">gobject</text>
</a>
</g>
</g>
<!-- Node52&#45;&gt;Node53 -->
<g id="edge9" class="edge"><title>Node52&#45;&gt;Node53</title>
<path fill="none" stroke="midnightblue" d="M1202.99,-790.579C1236.48,-787.265 1273.55,-783.597 1296.81,-781.295"/>
<polygon fill="midnightblue" stroke="midnightblue" points="1202.34,-787.126 1192.73,-791.594 1203.03,-794.092 1202.34,-787.126"/>
</g>
<!-- Node55 -->
<g id="node12" class="node"><title>Node55</title>
<g id="a_node12"><a xlink:href="class_c_governance_object.html#adba6b4211c5b255df0e30fee56ff3f97" target="_top" xlink:title="CGovernanceObject::\lIsValidLocally">
<polygon fill="white" stroke="black" points="1265.5,-701 1265.5,-731 1376.5,-731 1376.5,-701 1265.5,-701"/>
<text text-anchor="start" x="1273.5" y="-719" font-family="Helvetica,sans-Serif" font-size="10.00">CGovernanceObject::</text>
<text text-anchor="middle" x="1321" y="-708" font-family="Helvetica,sans-Serif" font-size="10.00">IsValidLocally</text>
</a>
</g>
</g>
<!-- Node54&#45;&gt;Node55 -->
<g id="edge11" class="edge"><title>Node54&#45;&gt;Node55</title>
<path fill="none" stroke="midnightblue" d="M1192.77,-716C1216.34,-716 1242.74,-716 1265.36,-716"/>
<polygon fill="midnightblue" stroke="midnightblue" points="1192.51,-712.5 1182.51,-716 1192.51,-719.5 1192.51,-712.5"/>
</g>
<!-- Node56&#45;&gt;Node53 -->
<g id="edge13" class="edge"><title>Node56&#45;&gt;Node53</title>
<path fill="none" stroke="midnightblue" d="M1198.3,-766.957C1232.87,-770.378 1272.25,-774.274 1296.61,-776.686"/>
<polygon fill="midnightblue" stroke="midnightblue" points="1198.52,-763.461 1188.22,-765.96 1197.83,-770.427 1198.52,-763.461"/>
</g>
<!-- Node59 -->
<g id="node16" class="node"><title>Node59</title>
<g id="a_node16"><a xlink:href="class_c_instant_send.html#a4b27db90b09bb5f7918229ef40985fdd" target="_top" xlink:title="CInstantSend::Vote">
<polygon fill="white" stroke="red" points="1269.5,-624.5 1269.5,-643.5 1372.5,-643.5 1372.5,-624.5 1269.5,-624.5"/>
<text text-anchor="middle" x="1321" y="-631.5" font-family="Helvetica,sans-Serif" font-size="10.00">CInstantSend::Vote</text>
</a>
</g>
</g>
<!-- Node58&#45;&gt;Node59 -->
<g id="edge16" class="edge"><title>Node58&#45;&gt;Node59</title>
<path fill="none" stroke="midnightblue" d="M1186.3,-607.538C1213.68,-612.958 1245.93,-619.341 1271.9,-624.48"/>
<polygon fill="midnightblue" stroke="midnightblue" points="1186.94,-604.097 1176.45,-605.589 1185.58,-610.964 1186.94,-604.097"/>
</g>
<!-- Node91 -->
<g id="node17" class="node"><title>Node91</title>
<g id="a_node17"><a xlink:href="class_c_tx_lock_vote.html#a6f2d5203dd1ce7b281754cedaf1194b5" target="_top" xlink:title="CTxLockVote::IsValid">
<polygon fill="white" stroke="red" points="1264.5,-586.5 1264.5,-605.5 1377.5,-605.5 1377.5,-586.5 1264.5,-586.5"/>
<text text-anchor="middle" x="1321" y="-593.5" font-family="Helvetica,sans-Serif" font-size="10.00">CTxLockVote::IsValid</text>
</a>
</g>
</g>
<!-- Node58&#45;&gt;Node91 -->
<g id="edge17" class="edge"><title>Node58&#45;&gt;Node91</title>
<path fill="none" stroke="midnightblue" d="M1213.19,-596C1230.52,-596 1248.33,-596 1264.32,-596"/>
<polygon fill="midnightblue" stroke="midnightblue" points="1213.06,-592.5 1203.06,-596 1213.06,-599.5 1213.06,-592.5"/>
</g>
<!-- Node92&#45;&gt;Node59 -->
<g id="edge19" class="edge"><title>Node92&#45;&gt;Node59</title>
<path fill="none" stroke="midnightblue" d="M1188.54,-634C1214.49,-634 1244.46,-634 1269.22,-634"/>
<polygon fill="midnightblue" stroke="midnightblue" points="1188.45,-630.5 1178.45,-634 1188.45,-637.5 1188.45,-630.5"/>
</g>
<!-- Node96 -->
<g id="node22" class="node"><title>Node96</title>
<g id="a_node22"><a xlink:href="class_c_masternode_broadcast.html#a37a3b6efad5d288b993fe2d9118f0393" target="_top" xlink:title="Create Masternode broadcast, needs to be relayed manually after that. ">
<polygon fill="white" stroke="red" points="1261.5,-444 1261.5,-474 1380.5,-474 1380.5,-444 1261.5,-444"/>
<text text-anchor="start" x="1269.5" y="-462" font-family="Helvetica,sans-Serif" font-size="10.00">CMasternodeBroadcast</text>
<text text-anchor="middle" x="1321" y="-451" font-family="Helvetica,sans-Serif" font-size="10.00">::Create</text>
</a>
</g>
</g>
<!-- Node95&#45;&gt;Node96 -->
<g id="edge23" class="edge"><title>Node95&#45;&gt;Node96</title>
<path fill="none" stroke="midnightblue" d="M1196.85,-455.793C1217.97,-456.343 1241.01,-456.943 1261.38,-457.473"/>
<polygon fill="midnightblue" stroke="midnightblue" points="1196.74,-452.289 1186.65,-455.527 1196.56,-459.287 1196.74,-452.289"/>
</g>
<!-- Node109 -->
<g id="node23" class="node"><title>Node109</title>
<g id="a_node23"><a xlink:href="server_8h.html#a7ae813efd78b542bd5e3cddb01174777" target="_top" xlink:title="masternodebroadcast">
<polygon fill="white" stroke="black" points="1430,-402.5 1430,-421.5 1540,-421.5 1540,-402.5 1430,-402.5"/>
<text text-anchor="middle" x="1485" y="-409.5" font-family="Helvetica,sans-Serif" font-size="10.00">masternodebroadcast</text>
</a>
</g>
</g>
<!-- Node96&#45;&gt;Node109 -->
<g id="edge24" class="edge"><title>Node96&#45;&gt;Node109</title>
<path fill="none" stroke="midnightblue" d="M1383.4,-441.186C1406.41,-434.511 1431.66,-427.186 1451.11,-421.543"/>
<polygon fill="midnightblue" stroke="midnightblue" points="1382.33,-437.852 1373.7,-444 1384.28,-444.575 1382.33,-437.852"/>
</g>
<!-- Node120&#45;&gt;Node109 -->
<g id="edge28" class="edge"><title>Node120&#45;&gt;Node109</title>
<path fill="none" stroke="midnightblue" d="M1196.7,-367.284C1250.7,-369.224 1327.63,-374.05 1394,-386 1415.29,-389.833 1438.75,-396.701 1456.38,-402.416"/>
<polygon fill="midnightblue" stroke="midnightblue" points="1196.66,-363.781 1186.55,-366.943 1196.43,-370.777 1196.66,-363.781"/>
</g>
<!-- Node107 -->
<g id="node25" class="node"><title>Node107</title>
<g id="a_node25"><a xlink:href="class_c_masternode_broadcast.html#a42077f16c601f9804bc3b24fd602993c" target="_top" xlink:title="CMasternodeBroadcast\l::Update">
<polygon fill="white" stroke="red" points="1261.5,-307 1261.5,-337 1380.5,-337 1380.5,-307 1261.5,-307"/>
<text text-anchor="start" x="1269.5" y="-325" font-family="Helvetica,sans-Serif" font-size="10.00">CMasternodeBroadcast</text>
<text text-anchor="middle" x="1321" y="-314" font-family="Helvetica,sans-Serif" font-size="10.00">::Update</text>
</a>
</g>
</g>
<!-- Node120&#45;&gt;Node107 -->
<g id="edge26" class="edge"><title>Node120&#45;&gt;Node107</title>
<path fill="none" stroke="midnightblue" d="M1196.56,-350.289C1217.76,-345.43 1240.91,-340.124 1261.38,-335.434"/>
<polygon fill="midnightblue" stroke="midnightblue" points="1195.62,-346.914 1186.65,-352.559 1197.18,-353.737 1195.62,-346.914"/>
</g>
<!-- Node121 -->
<g id="node26" class="node"><title>Node121</title>
<g id="a_node26"><a xlink:href="class_c_masternode_broadcast.html#ad3e6be4a6f0206e5d8e6dcb427d169ce" target="_top" xlink:title="CMasternodeBroadcast\l::CheckOutpoint">
<polygon fill="white" stroke="red" points="1261.5,-258 1261.5,-288 1380.5,-288 1380.5,-258 1261.5,-258"/>
<text text-anchor="start" x="1269.5" y="-276" font-family="Helvetica,sans-Serif" font-size="10.00">CMasternodeBroadcast</text>
<text text-anchor="middle" x="1321" y="-265" font-family="Helvetica,sans-Serif" font-size="10.00">::CheckOutpoint</text>
</a>
</g>
</g>
<!-- Node120&#45;&gt;Node121 -->
<g id="edge27" class="edge"><title>Node120&#45;&gt;Node121</title>
<path fill="none" stroke="midnightblue" d="M1196.3,-349.482C1201.8,-347.024 1207.11,-344.213 1212,-341 1232.83,-327.309 1227.49,-312.155 1248,-298 1253.55,-294.167 1259.75,-290.87 1266.12,-288.046"/>
<polygon fill="midnightblue" stroke="midnightblue" points="1194.85,-346.291 1186.9,-353.295 1197.49,-352.777 1194.85,-346.291"/>
</g>
<!-- Node122&#45;&gt;Node96 -->
<g id="edge31" class="edge"><title>Node122&#45;&gt;Node96</title>
<path fill="none" stroke="midnightblue" d="M1178.92,-421.877C1189.85,-424.495 1201.32,-427.295 1212,-430 1229.31,-434.385 1248.13,-439.364 1265.14,-443.943"/>
<polygon fill="midnightblue" stroke="midnightblue" points="1179.61,-418.444 1169.07,-419.532 1177.99,-425.253 1179.61,-418.444"/>
</g>
<!-- Node123 -->
<g id="node28" class="node"><title>Node123</title>
<g id="a_node28"><a xlink:href="class_c_active_masternode.html#a4307b0f6c795d2ed80993824d458aca0" target="_top" xlink:title="Ping Masternode. ">
<polygon fill="white" stroke="red" points="1266,-395 1266,-425 1376,-425 1376,-395 1266,-395"/>
<text text-anchor="start" x="1274" y="-413" font-family="Helvetica,sans-Serif" font-size="10.00">CActiveMasternode::</text>
<text text-anchor="middle" x="1321" y="-402" font-family="Helvetica,sans-Serif" font-size="10.00">SendMasternodePing</text>
</a>
</g>
</g>
<!-- Node122&#45;&gt;Node123 -->
<g id="edge30" class="edge"><title>Node122&#45;&gt;Node123</title>
<path fill="none" stroke="midnightblue" d="M1197.37,-410C1219.94,-410 1244.64,-410 1265.92,-410"/>
<polygon fill="midnightblue" stroke="midnightblue" points="1197.17,-406.5 1187.17,-410 1197.17,-413.5 1197.17,-406.5"/>
</g>
<!-- Node125 -->
<g id="node30" class="node"><title>Node125</title>
<g id="a_node30"><a xlink:href="class_c_masternode_ping.html#a31094f33b96d13bf21b5609917be5d45" target="_top" xlink:title="CMasternodePing::CheckAnd\lUpdate">
<polygon fill="white" stroke="red" points="1248,-209 1248,-239 1394,-239 1394,-209 1248,-209"/>
<text text-anchor="start" x="1256" y="-227" font-family="Helvetica,sans-Serif" font-size="10.00">CMasternodePing::CheckAnd</text>
<text text-anchor="middle" x="1321" y="-216" font-family="Helvetica,sans-Serif" font-size="10.00">Update</text>
</a>
</g>
</g>
<!-- Node124&#45;&gt;Node125 -->
<g id="edge33" class="edge"><title>Node124&#45;&gt;Node125</title>
<path fill="none" stroke="midnightblue" d="M1202.75,-308.424C1205.98,-306.811 1209.08,-305.01 1212,-303 1235.76,-286.651 1225.19,-266.651 1248,-249 1252.92,-245.194 1258.46,-241.943 1264.22,-239.172"/>
<polygon fill="midnightblue" stroke="midnightblue" points="1201.18,-305.294 1193.4,-312.49 1203.97,-311.713 1201.18,-305.294"/>
</g>
<!-- Node144 -->
<g id="node41" class="node"><title>Node144</title>
<g id="a_node41"><a xlink:href="bench__recover_8c.html#a840291bc02cba5474a4cb46a9b9566fe" target="_top" xlink:title="main">
<polygon fill="white" stroke="black" points="722.5,-308.5 722.5,-327.5 760.5,-327.5 760.5,-308.5 722.5,-308.5"/>
<text text-anchor="middle" x="741.5" y="-315.5" font-family="Helvetica,sans-Serif" font-size="10.00">main</text>
</a>
</g>
</g>
<!-- Node143&#45;&gt;Node144 -->
<g id="edge44" class="edge"><title>Node143&#45;&gt;Node144</title>
<path fill="none" stroke="midnightblue" d="M619.853,-327.226C654.299,-324.592 698.284,-321.228 722.494,-319.377"/>
<polygon fill="midnightblue" stroke="midnightblue" points="619.205,-323.765 609.501,-328.018 619.739,-330.745 619.205,-323.765"/>
</g>
<!-- Node146 -->
<g id="node43" class="node"><title>Node146</title>
<g id="a_node43"><a xlink:href="recovery_2tests__impl_8h.html#a3a06f71955483e9502f3c408857407f2" target="_top" xlink:title="run_recovery_tests">
<polygon fill="white" stroke="black" points="691.5,-228.5 691.5,-247.5 791.5,-247.5 791.5,-228.5 691.5,-228.5"/>
<text text-anchor="middle" x="741.5" y="-235.5" font-family="Helvetica,sans-Serif" font-size="10.00">run_recovery_tests</text>
</a>
</g>
</g>
<!-- Node145&#45;&gt;Node146 -->
<g id="edge46" class="edge"><title>Node145&#45;&gt;Node146</title>
<path fill="none" stroke="midnightblue" d="M632.799,-269.043C658.117,-261.746 686.335,-253.612 707.534,-247.502"/>
<polygon fill="midnightblue" stroke="midnightblue" points="631.532,-265.766 622.893,-271.899 633.471,-272.492 631.532,-265.766"/>
</g>
<!-- Node147 -->
<g id="node44" class="node"><title>Node147</title>
<g id="a_node44"><a xlink:href="tests_8c.html#a3c04138a5bfe5d72780bb7e82a18e627" target="_top" xlink:title="main">
<polygon fill="white" stroke="black" points="905.5,-184.5 905.5,-203.5 943.5,-203.5 943.5,-184.5 905.5,-184.5"/>
<text text-anchor="middle" x="924.5" y="-191.5" font-family="Helvetica,sans-Serif" font-size="10.00">main</text>
</a>
</g>
</g>
<!-- Node146&#45;&gt;Node147 -->
<g id="edge47" class="edge"><title>Node146&#45;&gt;Node147</title>
<path fill="none" stroke="midnightblue" d="M791.533,-226.08C829.115,-216.944 878.87,-204.849 905.254,-198.436"/>
<polygon fill="midnightblue" stroke="midnightblue" points="790.665,-222.689 781.774,-228.453 792.318,-229.491 790.665,-222.689"/>
</g>
<!-- Node148&#45;&gt;Node146 -->
<g id="edge49" class="edge"><title>Node148&#45;&gt;Node146</title>
<path fill="none" stroke="midnightblue" d="M633.495,-238C652.631,-238 673.365,-238 691.441,-238"/>
<polygon fill="midnightblue" stroke="midnightblue" points="633.357,-234.5 623.357,-238 633.357,-241.5 633.357,-234.5"/>
</g>
<!-- Node151 -->
<g id="node48" class="node"><title>Node151</title>
<g id="a_node48"><a xlink:href="tests_8c.html#aa7ad70a73e9a44f0b9486ffe6f46ca39" target="_top" xlink:title="run_ge">
<polygon fill="white" stroke="black" points="373.5,-184.5 373.5,-203.5 419.5,-203.5 419.5,-184.5 373.5,-184.5"/>
<text text-anchor="middle" x="396.5" y="-191.5" font-family="Helvetica,sans-Serif" font-size="10.00">run_ge</text>
</a>
</g>
</g>
<!-- Node150&#45;&gt;Node151 -->
<g id="edge52" class="edge"><title>Node150&#45;&gt;Node151</title>
<path fill="none" stroke="midnightblue" d="M267.252,-194C299.163,-194 346.118,-194 373.475,-194"/>
<polygon fill="midnightblue" stroke="midnightblue" points="267.056,-190.5 257.056,-194 267.056,-197.5 267.056,-190.5"/>
</g>
<!-- Node151&#45;&gt;Node147 -->
<g id="edge53" class="edge"><title>Node151&#45;&gt;Node147</title>
<path fill="none" stroke="midnightblue" d="M429.822,-194C529.287,-194 828.706,-194 905.431,-194"/>
<polygon fill="midnightblue" stroke="midnightblue" points="429.766,-190.5 419.766,-194 429.766,-197.5 429.766,-190.5"/>
</g>
<!-- Node153 -->
<g id="node50" class="node"><title>Node153</title>
<g id="a_node50"><a xlink:href="schnorr_2tests__impl_8h.html#a6b31cc8facecda629cf588196a4c936b" target="_top" xlink:title="run_schnorr_tests">
<polygon fill="white" stroke="black" points="349,-146.5 349,-165.5 444,-165.5 444,-146.5 349,-146.5"/>
<text text-anchor="middle" x="396.5" y="-153.5" font-family="Helvetica,sans-Serif" font-size="10.00">run_schnorr_tests</text>
</a>
</g>
</g>
<!-- Node152&#45;&gt;Node153 -->
<g id="edge55" class="edge"><title>Node152&#45;&gt;Node153</title>
<path fill="none" stroke="midnightblue" d="M304.56,-156C319.546,-156 334.994,-156 348.808,-156"/>
<polygon fill="midnightblue" stroke="midnightblue" points="304.284,-152.5 294.284,-156 304.284,-159.5 304.284,-152.5"/>
</g>
<!-- Node153&#45;&gt;Node147 -->
<g id="edge56" class="edge"><title>Node153&#45;&gt;Node147</title>
<path fill="none" stroke="midnightblue" d="M454.363,-160.108C571.336,-168.559 833.937,-187.53 905.303,-192.685"/>
<polygon fill="midnightblue" stroke="midnightblue" points="454.405,-156.602 444.179,-159.372 453.901,-163.584 454.405,-156.602"/>
</g>
</g>
</svg>
