<?xml version="1.0" encoding="UTF-8" standalone="no"?>
<!DOCTYPE svg PUBLIC "-//W3C//DTD SVG 1.1//EN"
 "http://www.w3.org/Graphics/SVG/1.1/DTD/svg11.dtd">
<!-- Generated by graphviz version 2.38.0 (20140413.2041)
 -->
<!-- Title: CWallet::GetUnconfirmedWatchOnlyBalance Pages: 1 -->
<!--zoomable 209 -->
<svg id="main" version="1.1" xmlns="http://www.w3.org/2000/svg" xmlns:xlink="http://www.w3.org/1999/xlink" xml:space="preserve" onload="init(evt)">
<style type="text/css"><![CDATA[
.edge:hover path { stroke: red; }
.edge:hover polygon { stroke: red; fill: red; }
]]></style>
<script type="text/javascript"><![CDATA[
var edges = document.getElementsByTagName('g');
if (edges && edges.length) {
  for (var i=0;i<edges.length;i++) {
    if (edges[i].id.substr(0,4)=='edge') {
      edges[i].setAttribute('class','edge');
    }
  }
}
]]></script>
        <defs>
                <circle id="rim" cx="0" cy="0" r="7"/>
                <circle id="rim2" cx="0" cy="0" r="3.5"/>
                <g id="zoomPlus">
                        <use xlink:href="#rim" fill="#404040">
                                <set attributeName="fill" to="#808080" begin="zoomplus.mouseover" end="zoomplus.mouseout"/>
                        </use>
                        <path d="M-4,0h8M0,-4v8" fill="none" stroke="white" stroke-width="1.5" pointer-events="none"/>
                </g>
                <g id="zoomMin">
                        <use xlink:href="#rim" fill="#404040">
                                <set attributeName="fill" to="#808080" begin="zoomminus.mouseover" end="zoomminus.mouseout"/>
                        </use>
                        <path d="M-4,0h8" fill="none" stroke="white" stroke-width="1.5" pointer-events="none"/>
                </g>
                <g id="dirArrow">
                        <path fill="none" stroke="white" stroke-width="1.5" d="M0,-3.0v7 M-2.5,-0.5L0,-3.0L2.5,-0.5"/>
                </g>
               <g id="resetDef">
                       <use xlink:href="#rim2" fill="#404040">
                               <set attributeName="fill" to="#808080" begin="reset.mouseover" end="reset.mouseout"/>
                       </use>
               </g>
        </defs>

<script type="text/javascript">
var viewWidth = 1107;
var viewHeight = 209;
var sectionId = 'dynsection-61';
</script>
<script xlink:href="svgpan.js"/>
<svg id="graph" class="graph">
<g id="viewport">
<title>CWallet::GetUnconfirmedWatchOnlyBalance</title>
<polygon fill="white" stroke="none" points="-4,4 -4,-204.5 1103,-204.5 1103,4 -4,4"/>
<!-- Node1656 -->
<g id="node1" class="node"><title>Node1656</title>
<polygon fill="#bfbfbf" stroke="black" points="0,-118.5 0,-148.5 158,-148.5 158,-118.5 0,-118.5"/>
<text text-anchor="start" x="8" y="-136.5" font-family="Helvetica,sans-Serif" font-size="10.00">CWallet::GetUnconfirmedWatch</text>
<text text-anchor="middle" x="79" y="-125.5" font-family="Helvetica,sans-Serif" font-size="10.00">OnlyBalance</text>
</g>
<!-- Node1657 -->
<g id="node2" class="node"><title>Node1657</title>
<g id="a_node2"><a xlink:href="class_wallet_model.html#a691b35afd9aff056e1398fd057691ff1" target="_top" xlink:title="WalletModel::getWatchUnconfirmed\lBalance">
<polygon fill="white" stroke="black" points="194,-118.5 194,-148.5 368,-148.5 368,-118.5 194,-118.5"/>
<text text-anchor="start" x="202" y="-136.5" font-family="Helvetica,sans-Serif" font-size="10.00">WalletModel::getWatchUnconfirmed</text>
<text text-anchor="middle" x="281" y="-125.5" font-family="Helvetica,sans-Serif" font-size="10.00">Balance</text>
</a>
</g>
</g>
<!-- Node1656&#45;&gt;Node1657 -->
<g id="edge1" class="edge"><title>Node1656&#45;&gt;Node1657</title>
<path fill="none" stroke="midnightblue" d="M168.439,-133.5C176.905,-133.5 185.483,-133.5 193.927,-133.5"/>
<polygon fill="midnightblue" stroke="midnightblue" points="168.185,-130 158.185,-133.5 168.184,-137 168.185,-130"/>
</g>
<!-- Node1658 -->
<g id="node3" class="node"><title>Node1658</title>
<g id="a_node3"><a xlink:href="class_overview_page.html#a2ed52a3a87e9c74fee38fa873c9bc71f" target="_top" xlink:title="OverviewPage::setWalletModel">
<polygon fill="white" stroke="black" points="416.5,-181 416.5,-200 570.5,-200 570.5,-181 416.5,-181"/>
<text text-anchor="middle" x="493.5" y="-188" font-family="Helvetica,sans-Serif" font-size="10.00">OverviewPage::setWalletModel</text>
</a>
</g>
</g>
<!-- Node1657&#45;&gt;Node1658 -->
<g id="edge2" class="edge"><title>Node1657&#45;&gt;Node1658</title>
<path fill="none" stroke="midnightblue" d="M347.577,-151.257C383.768,-161.057 427.29,-172.842 457.134,-180.923"/>
<polygon fill="midnightblue" stroke="midnightblue" points="348.149,-147.786 337.582,-148.551 346.319,-154.543 348.149,-147.786"/>
</g>
<!-- Node1661 -->
<g id="node6" class="node"><title>Node1661</title>
<g id="a_node6"><a xlink:href="class_send_coins_dialog.html#a73a6c1b1850a334ee652ac167713a2aa" target="_top" xlink:title="SendCoinsDialog::setModel">
<polygon fill="white" stroke="black" points="623,-143 623,-162 761,-162 761,-143 623,-143"/>
<text text-anchor="middle" x="692" y="-150" font-family="Helvetica,sans-Serif" font-size="10.00">SendCoinsDialog::setModel</text>
</a>
</g>
</g>
<!-- Node1657&#45;&gt;Node1661 -->
<g id="edge5" class="edge"><title>Node1657&#45;&gt;Node1661</title>
<path fill="none" stroke="midnightblue" d="M378.65,-137.99C453.758,-141.479 556.056,-146.231 622.798,-149.332"/>
<polygon fill="midnightblue" stroke="midnightblue" points="378.39,-134.474 368.239,-137.506 378.065,-141.467 378.39,-134.474"/>
</g>
<!-- Node1662 -->
<g id="node7" class="node"><title>Node1662</title>
<g id="a_node7"><a xlink:href="class_send_coins_dialog.html#a74815ad8502b126200b6fd2e59e9f042" target="_top" xlink:title="SendCoinsDialog::updateDisplayUnit">
<polygon fill="white" stroke="black" points="404,-105 404,-124 583,-124 583,-105 404,-105"/>
<text text-anchor="middle" x="493.5" y="-112" font-family="Helvetica,sans-Serif" font-size="10.00">SendCoinsDialog::updateDisplayUnit</text>
</a>
</g>
</g>
<!-- Node1657&#45;&gt;Node1662 -->
<g id="edge7" class="edge"><title>Node1657&#45;&gt;Node1662</title>
<path fill="none" stroke="midnightblue" d="M378.434,-124.796C386.845,-124.037 395.332,-123.27 403.678,-122.517"/>
<polygon fill="midnightblue" stroke="midnightblue" points="377.871,-121.332 368.226,-125.717 378.5,-128.304 377.871,-121.332"/>
</g>
<!-- Node1664 -->
<g id="node9" class="node"><title>Node1664</title>
<g id="a_node9"><a xlink:href="class_wallet_model.html#adcc4eb8cd71cb4de223621866bb7fb7d" target="_top" xlink:title="WalletModel::checkBalance\lChanged">
<polygon fill="white" stroke="black" points="424.5,-44.5 424.5,-74.5 562.5,-74.5 562.5,-44.5 424.5,-44.5"/>
<text text-anchor="start" x="432.5" y="-62.5" font-family="Helvetica,sans-Serif" font-size="10.00">WalletModel::checkBalance</text>
<text text-anchor="middle" x="493.5" y="-51.5" font-family="Helvetica,sans-Serif" font-size="10.00">Changed</text>
</a>
</g>
</g>
<!-- Node1657&#45;&gt;Node1664 -->
<g id="edge10" class="edge"><title>Node1657&#45;&gt;Node1664</title>
<path fill="none" stroke="midnightblue" d="M334.568,-115.02C370.102,-102.528 416.431,-86.2416 449.708,-74.5431"/>
<polygon fill="midnightblue" stroke="midnightblue" points="333.125,-111.817 324.852,-118.436 335.446,-118.421 333.125,-111.817"/>
</g>
<!-- Node1659 -->
<g id="node4" class="node"><title>Node1659</title>
<g id="a_node4"><a xlink:href="class_wallet_view.html#a0a37ff693a4f9c1e5ddc23f9cd3913be" target="_top" xlink:title="Set the wallet model. ">
<polygon fill="white" stroke="black" points="801,-162 801,-181 941,-181 941,-162 801,-162"/>
<text text-anchor="middle" x="871" y="-169" font-family="Helvetica,sans-Serif" font-size="10.00">WalletView::setWalletModel</text>
</a>
</g>
</g>
<!-- Node1658&#45;&gt;Node1659 -->
<g id="edge3" class="edge"><title>Node1658&#45;&gt;Node1659</title>
<path fill="none" stroke="midnightblue" d="M581.027,-186.122C647.818,-182.742 738.988,-178.129 800.937,-174.995"/>
<polygon fill="midnightblue" stroke="midnightblue" points="580.751,-182.631 570.941,-186.632 581.105,-189.622 580.751,-182.631"/>
</g>
<!-- Node1660 -->
<g id="node5" class="node"><title>Node1660</title>
<g id="a_node5"><a xlink:href="class_wallet_frame.html#aa199c3f27654199d84c365cf86167d86" target="_top" xlink:title="WalletFrame::addWallet">
<polygon fill="white" stroke="black" points="977,-162 977,-181 1099,-181 1099,-162 977,-162"/>
<text text-anchor="middle" x="1038" y="-169" font-family="Helvetica,sans-Serif" font-size="10.00">WalletFrame::addWallet</text>
</a>
</g>
</g>
<!-- Node1659&#45;&gt;Node1660 -->
<g id="edge4" class="edge"><title>Node1659&#45;&gt;Node1660</title>
<path fill="none" stroke="midnightblue" d="M951.146,-171.5C959.813,-171.5 968.528,-171.5 976.91,-171.5"/>
<polygon fill="midnightblue" stroke="midnightblue" points="951.019,-168 941.019,-171.5 951.019,-175 951.019,-168"/>
</g>
<!-- Node1661&#45;&gt;Node1659 -->
<g id="edge6" class="edge"><title>Node1661&#45;&gt;Node1659</title>
<path fill="none" stroke="midnightblue" d="M771.376,-160.913C781.24,-161.972 791.273,-163.049 800.978,-164.091"/>
<polygon fill="midnightblue" stroke="midnightblue" points="771.496,-157.406 761.18,-159.819 770.749,-164.366 771.496,-157.406"/>
</g>
<!-- Node1662&#45;&gt;Node1661 -->
<g id="edge9" class="edge"><title>Node1662&#45;&gt;Node1661</title>
<path fill="none" stroke="midnightblue" d="M553.912,-125.989C581.95,-131.411 615.016,-137.806 641.648,-142.956"/>
<polygon fill="midnightblue" stroke="midnightblue" points="554.314,-122.502 543.832,-124.04 552.985,-129.375 554.314,-122.502"/>
</g>
<!-- Node1663 -->
<g id="node8" class="node"><title>Node1663</title>
<g id="a_node8"><a xlink:href="class_send_coins_dialog.html#affacd36b4df87a68e2fe706ef388c0a6" target="_top" xlink:title="SendCoinsDialog::SendCoins\lDialog">
<polygon fill="white" stroke="black" points="619,-93.5 619,-123.5 765,-123.5 765,-93.5 619,-93.5"/>
<text text-anchor="start" x="627" y="-111.5" font-family="Helvetica,sans-Serif" font-size="10.00">SendCoinsDialog::SendCoins</text>
<text text-anchor="middle" x="692" y="-100.5" font-family="Helvetica,sans-Serif" font-size="10.00">Dialog</text>
</a>
</g>
</g>
<!-- Node1662&#45;&gt;Node1663 -->
<g id="edge8" class="edge"><title>Node1662&#45;&gt;Node1663</title>
<path fill="none" stroke="midnightblue" d="M593.333,-111.482C601.922,-111.22 610.505,-110.958 618.819,-110.704"/>
<polygon fill="midnightblue" stroke="midnightblue" points="593.153,-107.986 583.264,-111.79 593.367,-114.983 593.153,-107.986"/>
</g>
<!-- Node1665 -->
<g id="node10" class="node"><title>Node1665</title>
<g id="a_node10"><a xlink:href="class_wallet_model.html#a51469b2d95cfd4bc0a14ee456fca7b95" target="_top" xlink:title="WalletModel::pollBalance\lChanged">
<polygon fill="white" stroke="black" points="628.5,-44.5 628.5,-74.5 755.5,-74.5 755.5,-44.5 628.5,-44.5"/>
<text text-anchor="start" x="636.5" y="-62.5" font-family="Helvetica,sans-Serif" font-size="10.00">WalletModel::pollBalance</text>
<text text-anchor="middle" x="692" y="-51.5" font-family="Helvetica,sans-Serif" font-size="10.00">Changed</text>
</a>
</g>
</g>
<!-- Node1664&#45;&gt;Node1665 -->
<g id="edge11" class="edge"><title>Node1664&#45;&gt;Node1665</title>
<path fill="none" stroke="midnightblue" d="M572.786,-59.5C591.199,-59.5 610.589,-59.5 628.218,-59.5"/>
<polygon fill="midnightblue" stroke="midnightblue" points="572.675,-56.0001 562.675,-59.5 572.675,-63.0001 572.675,-56.0001"/>
</g>
<!-- Node1667 -->
<g id="node12" class="node"><title>Node1667</title>
<g id="a_node12"><a xlink:href="class_wallet_model.html#a53443aca544c824550f21e5f87e4ec39" target="_top" xlink:title="WalletModel::sendCoins">
<polygon fill="white" stroke="black" points="630.5,-6 630.5,-25 753.5,-25 753.5,-6 630.5,-6"/>
<text text-anchor="middle" x="692" y="-13" font-family="Helvetica,sans-Serif" font-size="10.00">WalletModel::sendCoins</text>
</a>
</g>
</g>
<!-- Node1664&#45;&gt;Node1667 -->
<g id="edge13" class="edge"><title>Node1664&#45;&gt;Node1667</title>
<path fill="none" stroke="midnightblue" d="M571.498,-42.2588C597.702,-36.3911 626.026,-30.049 648.518,-25.0124"/>
<polygon fill="midnightblue" stroke="midnightblue" points="570.568,-38.8802 561.575,-44.4808 572.098,-45.711 570.568,-38.8802"/>
</g>
<!-- Node1666 -->
<g id="node11" class="node"><title>Node1666</title>
<g id="a_node11"><a xlink:href="class_wallet_model.html#a36282857c97bcaad796a2b5c7398245c" target="_top" xlink:title="WalletModel::WalletModel">
<polygon fill="white" stroke="black" points="805.5,-50 805.5,-69 936.5,-69 936.5,-50 805.5,-50"/>
<text text-anchor="middle" x="871" y="-57" font-family="Helvetica,sans-Serif" font-size="10.00">WalletModel::WalletModel</text>
</a>
</g>
</g>
<!-- Node1665&#45;&gt;Node1666 -->
<g id="edge12" class="edge"><title>Node1665&#45;&gt;Node1666</title>
<path fill="none" stroke="midnightblue" d="M766.166,-59.5C779.114,-59.5 792.512,-59.5 805.209,-59.5"/>
<polygon fill="midnightblue" stroke="midnightblue" points="765.902,-56.0001 755.902,-59.5 765.902,-63.0001 765.902,-56.0001"/>
</g>
<!-- Node1668 -->
<g id="node13" class="node"><title>Node1668</title>
<g id="a_node13"><a xlink:href="class_send_coins_dialog.html#aab03626a859f22a68760b235a1df6bc9" target="_top" xlink:title="SendCoinsDialog::send">
<polygon fill="white" stroke="black" points="811.5,-6 811.5,-25 930.5,-25 930.5,-6 811.5,-6"/>
<text text-anchor="middle" x="871" y="-13" font-family="Helvetica,sans-Serif" font-size="10.00">SendCoinsDialog::send</text>
</a>
</g>
</g>
<!-- Node1667&#45;&gt;Node1668 -->
<g id="edge14" class="edge"><title>Node1667&#45;&gt;Node1668</title>
<path fill="none" stroke="midnightblue" d="M764.093,-15.5C779.783,-15.5 796.234,-15.5 811.365,-15.5"/>
<polygon fill="midnightblue" stroke="midnightblue" points="763.913,-12.0001 753.913,-15.5 763.913,-19.0001 763.913,-12.0001"/>
</g>
<!-- Node1669 -->
<g id="node14" class="node"><title>Node1669</title>
<g id="a_node14"><a xlink:href="class_send_coins_dialog.html#a2cab7cf9ea5040b9e2189297f7d3c764" target="_top" xlink:title="SendCoinsDialog::on\l_sendButton_clicked">
<polygon fill="white" stroke="black" points="983.5,-0.5 983.5,-30.5 1092.5,-30.5 1092.5,-0.5 983.5,-0.5"/>
<text text-anchor="start" x="991.5" y="-18.5" font-family="Helvetica,sans-Serif" font-size="10.00">SendCoinsDialog::on</text>
<text text-anchor="middle" x="1038" y="-7.5" font-family="Helvetica,sans-Serif" font-size="10.00">_sendButton_clicked</text>
</a>
</g>
</g>
<!-- Node1668&#45;&gt;Node1669 -->
<g id="edge15" class="edge"><title>Node1668&#45;&gt;Node1669</title>
<path fill="none" stroke="midnightblue" d="M940.825,-15.5C954.985,-15.5 969.698,-15.5 983.231,-15.5"/>
<polygon fill="midnightblue" stroke="midnightblue" points="940.637,-12.0001 930.637,-15.5 940.637,-19.0001 940.637,-12.0001"/>
</g>
</g>
</svg>
        <g id="navigator" transform="translate(0 0)" fill="#404254">
                <rect fill="#f2f5e9" fill-opacity="0.5" stroke="#606060" stroke-width=".5" x="0" y="0" width="60" height="60"/>
                <use id="zoomplus" xlink:href="#zoomPlus" x="17" y="9" onmousedown="handleZoom(evt,'in')"/>
                <use id="zoomminus" xlink:href="#zoomMin" x="42" y="9" onmousedown="handleZoom(evt,'out')"/>
                <use id="reset" xlink:href="#resetDef" x="30" y="36" onmousedown="handleReset()"/>
                <g id="arrowUp" xlink:href="#dirArrow" transform="translate(30 24)" onmousedown="handlePan(0,-1)">
                  <use xlink:href="#rim" fill="#404040">
                        <set attributeName="fill" to="#808080" begin="arrowUp.mouseover" end="arrowUp.mouseout"/>
                  </use>
                  <path fill="none" stroke="white" stroke-width="1.5" d="M0,-3.0v7 M-2.5,-0.5L0,-3.0L2.5,-0.5"/>
                </g>
                <g id="arrowRight" xlink:href="#dirArrow" transform="rotate(90) translate(36 -43)" onmousedown="handlePan(1,0)">
                  <use xlink:href="#rim" fill="#404040">
                        <set attributeName="fill" to="#808080" begin="arrowRight.mouseover" end="arrowRight.mouseout"/>
                  </use>
                  <path fill="none" stroke="white" stroke-width="1.5" d="M0,-3.0v7 M-2.5,-0.5L0,-3.0L2.5,-0.5"/>
                </g>
                <g id="arrowDown" xlink:href="#dirArrow" transform="rotate(180) translate(-30 -48)" onmousedown="handlePan(0,1)">
                  <use xlink:href="#rim" fill="#404040">
                        <set attributeName="fill" to="#808080" begin="arrowDown.mouseover" end="arrowDown.mouseout"/>
                  </use>
                  <path fill="none" stroke="white" stroke-width="1.5" d="M0,-3.0v7 M-2.5,-0.5L0,-3.0L2.5,-0.5"/>
                </g>
                <g id="arrowLeft" xlink:href="#dirArrow" transform="rotate(270) translate(-36 17)" onmousedown="handlePan(-1,0)">
                  <use xlink:href="#rim" fill="#404040">
                        <set attributeName="fill" to="#808080" begin="arrowLeft.mouseover" end="arrowLeft.mouseout"/>
                  </use>
                  <path fill="none" stroke="white" stroke-width="1.5" d="M0,-3.0v7 M-2.5,-0.5L0,-3.0L2.5,-0.5"/>
                </g>
        </g>
        <svg viewBox="0 0 15 15" width="100%" height="30px" preserveAspectRatio="xMaxYMin meet">
         <g id="arrow_out" transform="scale(0.3 0.3)">
          <a xlink:href="group___actions_gab0c110f14f0429f9de594b2293837621_icgraph_org.svg" target="_base">
           <rect id="button" ry="5" rx="5" y="6" x="6" height="38" width="38"
                fill="#f2f5e9" fill-opacity="0.5" stroke="#606060" stroke-width="1.0"/>
           <path id="arrow"
             d="M 11.500037,31.436501 C 11.940474,20.09759 22.043105,11.32322 32.158766,21.979434 L 37.068811,17.246167 C 37.068811,17.246167 37.088388,32 37.088388,32 L 22.160133,31.978069 C 22.160133,31.978069 26.997745,27.140456 26.997745,27.140456 C 18.528582,18.264221 13.291696,25.230495 11.500037,31.436501 z"
             style="fill:#404040;"/>
          </a>
         </g>
        </svg>
</svg>
