<?xml version="1.0" encoding="UTF-8" standalone="no"?>
<!DOCTYPE svg PUBLIC "-//W3C//DTD SVG 1.1//EN"
 "http://www.w3.org/Graphics/SVG/1.1/DTD/svg11.dtd">
<!-- Generated by graphviz version 2.38.0 (20140413.2041)
 -->
<!-- Title: CWallet::ScanForWalletTransactions Pages: 1 -->
<svg width="549pt" height="237pt"
 viewBox="0.00 0.00 549.00 237.00" xmlns="http://www.w3.org/2000/svg" xmlns:xlink="http://www.w3.org/1999/xlink">
<g id="graph0" class="graph" transform="scale(1 1) rotate(0) translate(4 233)">
<title>CWallet::ScanForWalletTransactions</title>
<polygon fill="white" stroke="none" points="-4,4 -4,-233 545,-233 545,4 -4,4"/>
<!-- Node3248 -->
<g id="node1" class="node"><title>Node3248</title>
<polygon fill="#bfbfbf" stroke="black" points="0,-95.5 0,-114.5 179,-114.5 179,-95.5 0,-95.5"/>
<text text-anchor="middle" x="89.5" y="-102.5" font-family="Helvetica,sans-Serif" font-size="10.00">CWallet::ScanForWalletTransactions</text>
</g>
<!-- Node3249 -->
<g id="node2" class="node"><title>Node3249</title>
<g id="a_node2"><a xlink:href="init_8h.html#a6f0784aa332573f949b0975205572b28" target="_top" xlink:title="Initialize Dash Core. ">
<polygon fill="white" stroke="black" points="242,-190.5 242,-209.5 295,-209.5 295,-190.5 242,-190.5"/>
<text text-anchor="middle" x="268.5" y="-197.5" font-family="Helvetica,sans-Serif" font-size="10.00">AppInit2</text>
</a>
</g>
</g>
<!-- Node3248&#45;&gt;Node3249 -->
<g id="edge1" class="edge"><title>Node3248&#45;&gt;Node3249</title>
<path fill="none" stroke="midnightblue" d="M112.656,-120.413C136.975,-136.875 177.552,-163.019 215,-181 223.563,-185.112 233.264,-188.86 241.976,-191.92"/>
<polygon fill="midnightblue" stroke="midnightblue" points="114.403,-117.368 104.172,-114.616 110.453,-123.148 114.403,-117.368"/>
</g>
<!-- Node3253 -->
<g id="node6" class="node"><title>Node3253</title>
<g id="a_node6"><a xlink:href="rpcdump_8cpp.html#ac1c1bdd8d9afbd38348c2249102d2372" target="_top" xlink:title="importaddress">
<polygon fill="white" stroke="black" points="229.5,-152.5 229.5,-171.5 307.5,-171.5 307.5,-152.5 229.5,-152.5"/>
<text text-anchor="middle" x="268.5" y="-159.5" font-family="Helvetica,sans-Serif" font-size="10.00">importaddress</text>
</a>
</g>
</g>
<!-- Node3248&#45;&gt;Node3253 -->
<g id="edge5" class="edge"><title>Node3248&#45;&gt;Node3253</title>
<path fill="none" stroke="midnightblue" d="M129.8,-117.656C162.427,-128.163 208.132,-142.882 237.778,-152.428"/>
<polygon fill="midnightblue" stroke="midnightblue" points="130.717,-114.274 120.126,-114.541 128.572,-120.937 130.717,-114.274"/>
</g>
<!-- Node3254 -->
<g id="node7" class="node"><title>Node3254</title>
<g id="a_node7"><a xlink:href="rpcdump_8cpp.html#accfe82c51846b7751eaae727e7f56631" target="_top" xlink:title="importelectrumwallet">
<polygon fill="white" stroke="black" points="215,-114.5 215,-133.5 322,-133.5 322,-114.5 215,-114.5"/>
<text text-anchor="middle" x="268.5" y="-121.5" font-family="Helvetica,sans-Serif" font-size="10.00">importelectrumwallet</text>
</a>
</g>
</g>
<!-- Node3248&#45;&gt;Node3254 -->
<g id="edge6" class="edge"><title>Node3248&#45;&gt;Node3254</title>
<path fill="none" stroke="midnightblue" d="M189.427,-115.619C198.053,-116.545 206.544,-117.457 214.568,-118.318"/>
<polygon fill="midnightblue" stroke="midnightblue" points="189.576,-112.115 179.259,-114.528 188.829,-119.075 189.576,-112.115"/>
</g>
<!-- Node3255 -->
<g id="node8" class="node"><title>Node3255</title>
<g id="a_node8"><a xlink:href="rpcdump_8cpp.html#ace3f8652191a347b888627b8e0a1d17c" target="_top" xlink:title="importprivkey">
<polygon fill="white" stroke="black" points="231,-76.5 231,-95.5 306,-95.5 306,-76.5 231,-76.5"/>
<text text-anchor="middle" x="268.5" y="-83.5" font-family="Helvetica,sans-Serif" font-size="10.00">importprivkey</text>
</a>
</g>
</g>
<!-- Node3248&#45;&gt;Node3255 -->
<g id="edge7" class="edge"><title>Node3248&#45;&gt;Node3255</title>
<path fill="none" stroke="midnightblue" d="M189.523,-94.3704C204.287,-92.7855 218.655,-91.2433 230.951,-89.9233"/>
<polygon fill="midnightblue" stroke="midnightblue" points="188.829,-90.9248 179.259,-95.4722 189.576,-97.8848 188.829,-90.9248"/>
</g>
<!-- Node3256 -->
<g id="node9" class="node"><title>Node3256</title>
<g id="a_node9"><a xlink:href="rpcdump_8cpp.html#a289efe60311d54a0921b837fc9c9839c" target="_top" xlink:title="importpubkey">
<polygon fill="white" stroke="black" points="231,-38.5 231,-57.5 306,-57.5 306,-38.5 231,-38.5"/>
<text text-anchor="middle" x="268.5" y="-45.5" font-family="Helvetica,sans-Serif" font-size="10.00">importpubkey</text>
</a>
</g>
</g>
<!-- Node3248&#45;&gt;Node3256 -->
<g id="edge8" class="edge"><title>Node3248&#45;&gt;Node3256</title>
<path fill="none" stroke="midnightblue" d="M129.8,-92.3442C162.427,-81.837 208.132,-67.1184 237.778,-57.5716"/>
<polygon fill="midnightblue" stroke="midnightblue" points="128.572,-89.0626 120.126,-95.4595 130.717,-95.7256 128.572,-89.0626"/>
</g>
<!-- Node3257 -->
<g id="node10" class="node"><title>Node3257</title>
<g id="a_node10"><a xlink:href="rpcdump_8cpp.html#a71dce63ec2a80b836bab5f31fef8da46" target="_top" xlink:title="importwallet">
<polygon fill="white" stroke="black" points="234,-0.5 234,-19.5 303,-19.5 303,-0.5 234,-0.5"/>
<text text-anchor="middle" x="268.5" y="-7.5" font-family="Helvetica,sans-Serif" font-size="10.00">importwallet</text>
</a>
</g>
</g>
<!-- Node3248&#45;&gt;Node3257 -->
<g id="edge9" class="edge"><title>Node3248&#45;&gt;Node3257</title>
<path fill="none" stroke="midnightblue" d="M112.656,-89.5865C136.975,-73.1248 177.552,-46.9812 215,-29 222.253,-25.5176 230.321,-22.2961 237.914,-19.5323"/>
<polygon fill="midnightblue" stroke="midnightblue" points="110.453,-86.8525 104.172,-95.3844 114.403,-92.6318 110.453,-86.8525"/>
</g>
<!-- Node3250 -->
<g id="node3" class="node"><title>Node3250</title>
<g id="a_node3"><a xlink:href="dashd_8cpp.html#ac59316b767e6984e1285f0531275286b" target="_top" xlink:title="AppInit">
<polygon fill="white" stroke="black" points="389,-209.5 389,-228.5 436,-228.5 436,-209.5 389,-209.5"/>
<text text-anchor="middle" x="412.5" y="-216.5" font-family="Helvetica,sans-Serif" font-size="10.00">AppInit</text>
</a>
</g>
</g>
<!-- Node3249&#45;&gt;Node3250 -->
<g id="edge2" class="edge"><title>Node3249&#45;&gt;Node3250</title>
<path fill="none" stroke="midnightblue" d="M305.155,-204.771C331.384,-208.28 366.253,-212.946 388.787,-215.961"/>
<polygon fill="midnightblue" stroke="midnightblue" points="305.591,-201.298 295.215,-203.441 304.663,-208.236 305.591,-201.298"/>
</g>
<!-- Node3252 -->
<g id="node5" class="node"><title>Node3252</title>
<g id="a_node5"><a xlink:href="class_bitcoin_core.html#af34ca069cda1d4362dcc109b4397fb62" target="_top" xlink:title="BitcoinCore::initialize">
<polygon fill="white" stroke="black" points="358,-171.5 358,-190.5 467,-190.5 467,-171.5 358,-171.5"/>
<text text-anchor="middle" x="412.5" y="-178.5" font-family="Helvetica,sans-Serif" font-size="10.00">BitcoinCore::initialize</text>
</a>
</g>
</g>
<!-- Node3249&#45;&gt;Node3252 -->
<g id="edge4" class="edge"><title>Node3249&#45;&gt;Node3252</title>
<path fill="none" stroke="midnightblue" d="M305.163,-195.228C321.072,-193.1 340.158,-190.546 357.742,-188.193"/>
<polygon fill="midnightblue" stroke="midnightblue" points="304.663,-191.764 295.215,-196.559 305.591,-198.702 304.663,-191.764"/>
</g>
<!-- Node3251 -->
<g id="node4" class="node"><title>Node3251</title>
<g id="a_node4"><a xlink:href="dashd_8cpp.html#a0ddf1224851353fc92bfbff6f499fa97" target="_top" xlink:title="main">
<polygon fill="white" stroke="black" points="503,-209.5 503,-228.5 541,-228.5 541,-209.5 503,-209.5"/>
<text text-anchor="middle" x="522" y="-216.5" font-family="Helvetica,sans-Serif" font-size="10.00">main</text>
</a>
</g>
</g>
<!-- Node3250&#45;&gt;Node3251 -->
<g id="edge3" class="edge"><title>Node3250&#45;&gt;Node3251</title>
<path fill="none" stroke="midnightblue" d="M446.151,-219C464.729,-219 487.304,-219 502.773,-219"/>
<polygon fill="midnightblue" stroke="midnightblue" points="446.036,-215.5 436.036,-219 446.035,-222.5 446.036,-215.5"/>
</g>
</g>
</svg>
