<?xml version="1.0" encoding="UTF-8" standalone="no"?>
<!DOCTYPE svg PUBLIC "-//W3C//DTD SVG 1.1//EN"
 "http://www.w3.org/Graphics/SVG/1.1/DTD/svg11.dtd">
<!-- Generated by graphviz version 2.38.0 (20140413.2041)
 -->
<!-- Title: CWallet::GetUnconfirmedBalance Pages: 1 -->
<svg width="1517pt" height="496pt"
 viewBox="0.00 0.00 1517.00 496.00" xmlns="http://www.w3.org/2000/svg" xmlns:xlink="http://www.w3.org/1999/xlink">
<g id="graph0" class="graph" transform="scale(1 1) rotate(0) translate(4 492)">
<title>CWallet::GetUnconfirmedBalance</title>
<polygon fill="white" stroke="none" points="-4,4 -4,-492 1513,-492 1513,4 -4,4"/>
<!-- Node1564 -->
<g id="node1" class="node"><title>Node1564</title>
<polygon fill="#bfbfbf" stroke="black" points="0,-136.5 0,-155.5 164,-155.5 164,-136.5 0,-136.5"/>
<text text-anchor="middle" x="82" y="-143.5" font-family="Helvetica,sans-Serif" font-size="10.00">CWallet::GetUnconfirmedBalance</text>
</g>
<!-- Node1565 -->
<g id="node2" class="node"><title>Node1565</title>
<g id="a_node2"><a xlink:href="group__map_wallet.html#gaf3c82ba365c720dd3d929b86bf432ef6" target="_top" xlink:title="CWalletTx::GetAvailableCredit">
<polygon fill="white" stroke="black" points="200,-240.5 200,-259.5 351,-259.5 351,-240.5 200,-240.5"/>
<text text-anchor="middle" x="275.5" y="-247.5" font-family="Helvetica,sans-Serif" font-size="10.00">CWalletTx::GetAvailableCredit</text>
</a>
</g>
</g>
<!-- Node1564&#45;&gt;Node1565 -->
<g id="edge1" class="edge"><title>Node1564&#45;&gt;Node1565</title>
<path fill="none" stroke="midnightblue" d="M100.673,-155.598C134.447,-173.94 208.322,-214.06 248.02,-235.619"/>
<polygon fill="midnightblue" stroke="midnightblue" points="246.412,-238.729 256.87,-240.426 249.753,-232.577 246.412,-238.729"/>
</g>
<!-- Node1567 -->
<g id="node4" class="node"><title>Node1567</title>
<g id="a_node4"><a xlink:href="class_c_merkle_tx.html#a5bf3a355593ecce5799de92d013149b1" target="_top" xlink:title="Return depth of transaction in blockchain: &lt;0 : conflicts with a transaction this deep in the blockch...">
<polygon fill="white" stroke="black" points="204.5,-153 204.5,-183 346.5,-183 346.5,-153 204.5,-153"/>
<text text-anchor="start" x="212.5" y="-171" font-family="Helvetica,sans-Serif" font-size="10.00">CMerkleTx::GetDepthInMain</text>
<text text-anchor="middle" x="275.5" y="-160" font-family="Helvetica,sans-Serif" font-size="10.00">Chain</text>
</a>
</g>
</g>
<!-- Node1564&#45;&gt;Node1567 -->
<g id="edge3" class="edge"><title>Node1564&#45;&gt;Node1567</title>
<path fill="none" stroke="midnightblue" d="M164.213,-155.33C174.125,-156.469 184.249,-157.632 194.147,-158.769"/>
<polygon fill="midnightblue" stroke="midnightblue" points="194.028,-162.278 204.363,-159.942 194.827,-155.324 194.028,-162.278"/>
</g>
<!-- Node1595 -->
<g id="node32" class="node"><title>Node1595</title>
<g id="a_node32"><a xlink:href="group__map_wallet.html#gae4af382e1eeba62ee7e84100c7234f23" target="_top" xlink:title="CWalletTx::InMempool">
<polygon fill="white" stroke="black" points="217,-114.5 217,-133.5 334,-133.5 334,-114.5 217,-114.5"/>
<text text-anchor="middle" x="275.5" y="-121.5" font-family="Helvetica,sans-Serif" font-size="10.00">CWalletTx::InMempool</text>
</a>
</g>
</g>
<!-- Node1564&#45;&gt;Node1595 -->
<g id="edge32" class="edge"><title>Node1564&#45;&gt;Node1595</title>
<path fill="none" stroke="midnightblue" d="M164.213,-136.67C178.348,-135.046 192.915,-133.373 206.644,-131.795"/>
<polygon fill="midnightblue" stroke="midnightblue" points="207.423,-135.229 216.959,-130.611 206.624,-128.275 207.423,-135.229"/>
</g>
<!-- Node1596 -->
<g id="node33" class="node"><title>Node1596</title>
<g id="a_node33"><a xlink:href="group__map_wallet.html#ga71efb0d5b5def8ae00a1d74b8741bfcb" target="_top" xlink:title="CWalletTx::IsTrusted">
<polygon fill="white" stroke="black" points="220.5,-76.5 220.5,-95.5 330.5,-95.5 330.5,-76.5 220.5,-76.5"/>
<text text-anchor="middle" x="275.5" y="-83.5" font-family="Helvetica,sans-Serif" font-size="10.00">CWalletTx::IsTrusted</text>
</a>
</g>
</g>
<!-- Node1564&#45;&gt;Node1596 -->
<g id="edge34" class="edge"><title>Node1564&#45;&gt;Node1596</title>
<path fill="none" stroke="midnightblue" d="M108.352,-136.395C131.909,-127.643 168.064,-114.648 200,-105 207.903,-102.612 216.336,-100.269 224.582,-98.0889"/>
<polygon fill="midnightblue" stroke="midnightblue" points="225.697,-101.416 234.499,-95.5176 223.94,-94.6396 225.697,-101.416"/>
</g>
<!-- Node1566 -->
<g id="node3" class="node"><title>Node1566</title>
<g id="a_node3"><a xlink:href="amount_8h.html#a12db56a9a1c931941f0943ecbb278aae" target="_top" xlink:title="MoneyRange">
<polygon fill="white" stroke="black" points="426,-278.5 426,-297.5 500,-297.5 500,-278.5 426,-278.5"/>
<text text-anchor="middle" x="463" y="-285.5" font-family="Helvetica,sans-Serif" font-size="10.00">MoneyRange</text>
</a>
</g>
</g>
<!-- Node1565&#45;&gt;Node1566 -->
<g id="edge2" class="edge"><title>Node1565&#45;&gt;Node1566</title>
<path fill="none" stroke="midnightblue" d="M323.309,-259.589C351.604,-265.385 387.53,-272.745 415.728,-278.521"/>
<polygon fill="midnightblue" stroke="midnightblue" points="415.239,-281.994 425.738,-280.572 416.644,-275.136 415.239,-281.994"/>
</g>
<!-- Node1568 -->
<g id="node5" class="node"><title>Node1568</title>
<g id="a_node5"><a xlink:href="class_c_chain.html#af1786dc229c215dea7f727c11df2c8dc" target="_top" xlink:title="Efficiently check whether a block is present in this chain. ">
<polygon fill="white" stroke="black" points="415.5,-240.5 415.5,-259.5 510.5,-259.5 510.5,-240.5 415.5,-240.5"/>
<text text-anchor="middle" x="463" y="-247.5" font-family="Helvetica,sans-Serif" font-size="10.00">CChain::Contains</text>
</a>
</g>
</g>
<!-- Node1567&#45;&gt;Node1568 -->
<g id="edge4" class="edge"><title>Node1567&#45;&gt;Node1568</title>
<path fill="none" stroke="midnightblue" d="M299.357,-183.077C321.13,-196.885 355.208,-217.082 387,-230 393.945,-232.822 401.412,-235.362 408.848,-237.609"/>
<polygon fill="midnightblue" stroke="midnightblue" points="407.98,-241.001 418.557,-240.393 409.91,-234.272 407.98,-241.001"/>
</g>
<!-- Node1569 -->
<g id="node6" class="node"><title>Node1569</title>
<g id="a_node6"><a xlink:href="class_c_chain.html#ad4758bc8872ce065a9579f77c3171d40" target="_top" xlink:title="Return the maximal height in the chain. ">
<polygon fill="white" stroke="black" points="617,-152.5 617,-171.5 701,-171.5 701,-152.5 617,-152.5"/>
<text text-anchor="middle" x="659" y="-159.5" font-family="Helvetica,sans-Serif" font-size="10.00">CChain::Height</text>
</a>
</g>
</g>
<!-- Node1567&#45;&gt;Node1569 -->
<g id="edge5" class="edge"><title>Node1567&#45;&gt;Node1569</title>
<path fill="none" stroke="midnightblue" d="M346.918,-166.893C422.124,-165.71 539.509,-163.864 606.515,-162.81"/>
<polygon fill="midnightblue" stroke="midnightblue" points="606.878,-166.305 616.822,-162.648 606.768,-159.305 606.878,-166.305"/>
</g>
<!-- Node1570 -->
<g id="node7" class="node"><title>Node1570</title>
<g id="a_node7"><a xlink:href="class_c_tx_mem_pool.html#a8b7a13b5289ab839d4460f41a7da9789" target="_top" xlink:title="CTxMemPool::exists">
<polygon fill="white" stroke="black" points="408.5,-114.5 408.5,-133.5 517.5,-133.5 517.5,-114.5 408.5,-114.5"/>
<text text-anchor="middle" x="463" y="-121.5" font-family="Helvetica,sans-Serif" font-size="10.00">CTxMemPool::exists</text>
</a>
</g>
</g>
<!-- Node1567&#45;&gt;Node1570 -->
<g id="edge6" class="edge"><title>Node1567&#45;&gt;Node1570</title>
<path fill="none" stroke="midnightblue" d="M339.82,-152.981C363.393,-147.389 389.796,-141.126 412.01,-135.857"/>
<polygon fill="midnightblue" stroke="midnightblue" points="412.974,-139.226 421.897,-133.512 411.359,-132.415 412.974,-139.226"/>
</g>
<!-- Node1571 -->
<g id="node8" class="node"><title>Node1571</title>
<g id="a_node8"><a xlink:href="class_c_instant_send.html#a2b5bebbef6c466ee34706eeb9f53d4a7" target="_top" xlink:title="CInstantSend::IsLockedInstant\lSendTransaction">
<polygon fill="white" stroke="black" points="387,-191 387,-221 539,-221 539,-191 387,-191"/>
<text text-anchor="start" x="395" y="-209" font-family="Helvetica,sans-Serif" font-size="10.00">CInstantSend::IsLockedInstant</text>
<text text-anchor="middle" x="463" y="-198" font-family="Helvetica,sans-Serif" font-size="10.00">SendTransaction</text>
</a>
</g>
</g>
<!-- Node1567&#45;&gt;Node1571 -->
<g id="edge7" class="edge"><title>Node1567&#45;&gt;Node1571</title>
<path fill="none" stroke="midnightblue" d="M346.63,-182.366C357.156,-184.522 368.095,-186.763 378.861,-188.969"/>
<polygon fill="midnightblue" stroke="midnightblue" points="378.182,-192.402 388.681,-190.981 379.587,-185.545 378.182,-192.402"/>
</g>
<!-- Node1572 -->
<g id="node9" class="node"><title>Node1572</title>
<g id="a_node9"><a xlink:href="class_c_spork_manager.html#a97d20d530b500c013e8bc8649ee13daf" target="_top" xlink:title="CSporkManager::IsSporkActive">
<polygon fill="white" stroke="black" points="581.5,-193.5 581.5,-212.5 736.5,-212.5 736.5,-193.5 581.5,-193.5"/>
<text text-anchor="middle" x="659" y="-200.5" font-family="Helvetica,sans-Serif" font-size="10.00">CSporkManager::IsSporkActive</text>
</a>
</g>
</g>
<!-- Node1571&#45;&gt;Node1572 -->
<g id="edge8" class="edge"><title>Node1571&#45;&gt;Node1572</title>
<path fill="none" stroke="midnightblue" d="M539.005,-204.84C549.51,-204.678 560.377,-204.51 571.079,-204.344"/>
<polygon fill="midnightblue" stroke="midnightblue" points="571.327,-207.841 581.272,-204.187 571.219,-200.842 571.327,-207.841"/>
</g>
<!-- Node1594 -->
<g id="node31" class="node"><title>Node1594</title>
<g id="a_node31"><a xlink:href="class_c_instant_send.html#a944921efd152fb5772182269409902e3" target="_top" xlink:title="CInstantSend::GetLockedOut\lPointTxHash">
<polygon fill="white" stroke="black" points="586,-232 586,-262 732,-262 732,-232 586,-232"/>
<text text-anchor="start" x="594" y="-250" font-family="Helvetica,sans-Serif" font-size="10.00">CInstantSend::GetLockedOut</text>
<text text-anchor="middle" x="659" y="-239" font-family="Helvetica,sans-Serif" font-size="10.00">PointTxHash</text>
</a>
</g>
</g>
<!-- Node1571&#45;&gt;Node1594 -->
<g id="edge31" class="edge"><title>Node1571&#45;&gt;Node1594</title>
<path fill="none" stroke="midnightblue" d="M535.137,-221.034C548.712,-223.903 563.016,-226.926 576.875,-229.855"/>
<polygon fill="midnightblue" stroke="midnightblue" points="576.364,-233.324 586.872,-231.968 577.812,-226.476 576.364,-233.324"/>
</g>
<!-- Node1573 -->
<g id="node10" class="node"><title>Node1573</title>
<g id="a_node10"><a xlink:href="util_8h.html#aab1f837a2366f424bdc996fdf6352171" target="_top" xlink:title="Zero&#45;arg versions of logging and error, these are not covered by TINYFORMAT_FOREACH_ARGNUM. ">
<polygon fill="white" stroke="black" points="823,-197.5 823,-216.5 876,-216.5 876,-197.5 823,-197.5"/>
<text text-anchor="middle" x="849.5" y="-204.5" font-family="Helvetica,sans-Serif" font-size="10.00">LogPrint</text>
</a>
</g>
</g>
<!-- Node1572&#45;&gt;Node1573 -->
<g id="edge9" class="edge"><title>Node1572&#45;&gt;Node1573</title>
<path fill="none" stroke="midnightblue" d="M736.67,-204.627C762.829,-205.182 790.861,-205.777 812.316,-206.232"/>
<polygon fill="midnightblue" stroke="midnightblue" points="812.514,-209.737 822.587,-206.45 812.663,-202.739 812.514,-209.737"/>
</g>
<!-- Node1591 -->
<g id="node28" class="node"><title>Node1591</title>
<g id="a_node28"><a xlink:href="timedata_8cpp.html#a09f81b9c7650f898cf3cf305b87547e6" target="_top" xlink:title="GetAdjustedTime">
<polygon fill="white" stroke="black" points="803.5,-114.5 803.5,-133.5 895.5,-133.5 895.5,-114.5 803.5,-114.5"/>
<text text-anchor="middle" x="849.5" y="-121.5" font-family="Helvetica,sans-Serif" font-size="10.00">GetAdjustedTime</text>
</a>
</g>
</g>
<!-- Node1572&#45;&gt;Node1591 -->
<g id="edge28" class="edge"><title>Node1572&#45;&gt;Node1591</title>
<path fill="none" stroke="midnightblue" d="M703.704,-193.479C716.565,-190.128 730.527,-185.942 743,-181 772.204,-169.429 803.633,-151.696 824.519,-139.085"/>
<polygon fill="midnightblue" stroke="midnightblue" points="826.627,-141.898 833.327,-133.691 822.971,-135.928 826.627,-141.898"/>
</g>
<!-- Node1574 -->
<g id="node11" class="node"><title>Node1574</title>
<g id="a_node11"><a xlink:href="namespacetinyformat_1_1detail.html#aa4b0590b3e34562c2d252a2086cec7ba" target="_top" xlink:title="tinyformat::detail\l::format">
<polygon fill="white" stroke="black" points="963,-153 963,-183 1052,-183 1052,-153 963,-153"/>
<text text-anchor="start" x="971" y="-171" font-family="Helvetica,sans-Serif" font-size="10.00">tinyformat::detail</text>
<text text-anchor="middle" x="1007.5" y="-160" font-family="Helvetica,sans-Serif" font-size="10.00">::format</text>
</a>
</g>
</g>
<!-- Node1573&#45;&gt;Node1574 -->
<g id="edge10" class="edge"><title>Node1573&#45;&gt;Node1574</title>
<path fill="none" stroke="midnightblue" d="M876.26,-200.56C897.133,-195.342 927.241,-187.815 953.253,-181.312"/>
<polygon fill="midnightblue" stroke="midnightblue" points="954.141,-184.698 962.993,-178.877 952.443,-177.907 954.141,-184.698"/>
</g>
<!-- Node1577 -->
<g id="node14" class="node"><title>Node1577</title>
<g id="a_node14"><a xlink:href="util_8h.html#a343d2a13efe00125f78d25dafb0a8d98" target="_top" xlink:title="Return true if log accepts specified category. ">
<polygon fill="white" stroke="black" points="956,-202.5 956,-221.5 1059,-221.5 1059,-202.5 956,-202.5"/>
<text text-anchor="middle" x="1007.5" y="-209.5" font-family="Helvetica,sans-Serif" font-size="10.00">LogAcceptCategory</text>
</a>
</g>
</g>
<!-- Node1573&#45;&gt;Node1577 -->
<g id="edge13" class="edge"><title>Node1573&#45;&gt;Node1577</title>
<path fill="none" stroke="midnightblue" d="M876.26,-207.826C895.115,-208.43 921.507,-209.276 945.607,-210.048"/>
<polygon fill="midnightblue" stroke="midnightblue" points="945.66,-213.552 955.767,-210.374 945.884,-206.555 945.66,-213.552"/>
</g>
<!-- Node1579 -->
<g id="node16" class="node"><title>Node1579</title>
<g id="a_node16"><a xlink:href="util_8h.html#afd4c3002b2797c0560adddb6af3ca1da" target="_top" xlink:title="Send a string to the log output. ">
<polygon fill="white" stroke="black" points="975,-297.5 975,-316.5 1040,-316.5 1040,-297.5 975,-297.5"/>
<text text-anchor="middle" x="1007.5" y="-304.5" font-family="Helvetica,sans-Serif" font-size="10.00">LogPrintStr</text>
</a>
</g>
</g>
<!-- Node1573&#45;&gt;Node1579 -->
<g id="edge15" class="edge"><title>Node1573&#45;&gt;Node1579</title>
<path fill="none" stroke="midnightblue" d="M865.458,-216.588C892.644,-234.015 950.347,-271.004 982.892,-291.867"/>
<polygon fill="midnightblue" stroke="midnightblue" points="981.05,-294.844 991.358,-297.294 984.828,-288.95 981.05,-294.844"/>
</g>
<!-- Node1575 -->
<g id="node12" class="node"><title>Node1575</title>
<g id="a_node12"><a xlink:href="classtinyformat_1_1detail_1_1_format_iterator.html#a46377a804f72dbad1e508d2fbaa18ce9" target="_top" xlink:title="tinyformat::detail\l::FormatIterator::finish">
<polygon fill="white" stroke="black" points="1095,-153 1095,-183 1208,-183 1208,-153 1095,-153"/>
<text text-anchor="start" x="1103" y="-171" font-family="Helvetica,sans-Serif" font-size="10.00">tinyformat::detail</text>
<text text-anchor="middle" x="1151.5" y="-160" font-family="Helvetica,sans-Serif" font-size="10.00">::FormatIterator::finish</text>
</a>
</g>
</g>
<!-- Node1574&#45;&gt;Node1575 -->
<g id="edge11" class="edge"><title>Node1574&#45;&gt;Node1575</title>
<path fill="none" stroke="midnightblue" d="M1052.26,-168C1062.56,-168 1073.75,-168 1084.78,-168"/>
<polygon fill="midnightblue" stroke="midnightblue" points="1084.82,-171.5 1094.82,-168 1084.82,-164.5 1084.82,-171.5"/>
</g>
<!-- Node1576 -->
<g id="node13" class="node"><title>Node1576</title>
<g id="a_node13"><a xlink:href="classtinyformat_1_1detail_1_1_format_iterator.html#af3bbb8259ac0593ec2268ef5863311d5" target="_top" xlink:title="tinyformat::detail\l::FormatIterator::printFormat\lStringLiteral">
<polygon fill="white" stroke="black" points="1247,-147.5 1247,-188.5 1387,-188.5 1387,-147.5 1247,-147.5"/>
<text text-anchor="start" x="1255" y="-176.5" font-family="Helvetica,sans-Serif" font-size="10.00">tinyformat::detail</text>
<text text-anchor="start" x="1255" y="-165.5" font-family="Helvetica,sans-Serif" font-size="10.00">::FormatIterator::printFormat</text>
<text text-anchor="middle" x="1317" y="-154.5" font-family="Helvetica,sans-Serif" font-size="10.00">StringLiteral</text>
</a>
</g>
</g>
<!-- Node1575&#45;&gt;Node1576 -->
<g id="edge12" class="edge"><title>Node1575&#45;&gt;Node1576</title>
<path fill="none" stroke="midnightblue" d="M1208.31,-168C1217.51,-168 1227.2,-168 1236.84,-168"/>
<polygon fill="midnightblue" stroke="midnightblue" points="1236.85,-171.5 1246.85,-168 1236.85,-164.5 1236.85,-171.5"/>
</g>
<!-- Node1578 -->
<g id="node15" class="node"><title>Node1578</title>
<g id="a_node15"><a xlink:href="util_8cpp.html#a1db3aa900bfa259ae1fe04068f2accfc" target="_top" xlink:title="GetThreadName">
<polygon fill="white" stroke="black" points="1272.5,-243.5 1272.5,-262.5 1361.5,-262.5 1361.5,-243.5 1272.5,-243.5"/>
<text text-anchor="middle" x="1317" y="-250.5" font-family="Helvetica,sans-Serif" font-size="10.00">GetThreadName</text>
</a>
</g>
</g>
<!-- Node1577&#45;&gt;Node1578 -->
<g id="edge14" class="edge"><title>Node1577&#45;&gt;Node1578</title>
<path fill="none" stroke="midnightblue" d="M1059.1,-215.331C1099.54,-218.35 1157.59,-223.486 1208,-231 1226.43,-233.747 1246.47,-237.588 1264.22,-241.293"/>
<polygon fill="midnightblue" stroke="midnightblue" points="1263.87,-244.797 1274.38,-243.449 1265.33,-237.949 1263.87,-244.797"/>
</g>
<!-- Node1580 -->
<g id="node17" class="node"><title>Node1580</title>
<g id="a_node17"><a xlink:href="util_8cpp.html#a751ff5f21d880737811136b5e0bcea12" target="_top" xlink:title="DebugPrintInit">
<polygon fill="white" stroke="black" points="1112,-278.5 1112,-297.5 1191,-297.5 1191,-278.5 1112,-278.5"/>
<text text-anchor="middle" x="1151.5" y="-285.5" font-family="Helvetica,sans-Serif" font-size="10.00">DebugPrintInit</text>
</a>
</g>
</g>
<!-- Node1579&#45;&gt;Node1580 -->
<g id="edge16" class="edge"><title>Node1579&#45;&gt;Node1580</title>
<path fill="none" stroke="midnightblue" d="M1040.01,-302.783C1058.19,-300.352 1081.42,-297.243 1101.89,-294.504"/>
<polygon fill="midnightblue" stroke="midnightblue" points="1102.54,-297.948 1111.99,-293.153 1101.61,-291.01 1102.54,-297.948"/>
</g>
<!-- Node1581 -->
<g id="node18" class="node"><title>Node1581</title>
<g id="a_node18"><a xlink:href="util_8cpp.html#a7c125ce70fa6b09e1de0c4a404fc2b6f" target="_top" xlink:title="FileWriteStr">
<polygon fill="white" stroke="black" points="1117.5,-240.5 1117.5,-259.5 1185.5,-259.5 1185.5,-240.5 1117.5,-240.5"/>
<text text-anchor="middle" x="1151.5" y="-247.5" font-family="Helvetica,sans-Serif" font-size="10.00">FileWriteStr</text>
</a>
</g>
</g>
<!-- Node1579&#45;&gt;Node1581 -->
<g id="edge17" class="edge"><title>Node1579&#45;&gt;Node1581</title>
<path fill="none" stroke="midnightblue" d="M1028.92,-297.449C1046.32,-289.45 1072.08,-277.94 1095,-269 1100.28,-266.941 1105.88,-264.881 1111.42,-262.915"/>
<polygon fill="midnightblue" stroke="midnightblue" points="1112.94,-266.092 1121.24,-259.503 1110.65,-259.48 1112.94,-266.092"/>
</g>
<!-- Node1582 -->
<g id="node19" class="node"><title>Node1582</title>
<g id="a_node19"><a xlink:href="util_8cpp.html#ab83866a054745d4b30a3948a1b44beba" target="_top" xlink:title="GetDataDir">
<polygon fill="white" stroke="black" points="1118.5,-411.5 1118.5,-430.5 1184.5,-430.5 1184.5,-411.5 1118.5,-411.5"/>
<text text-anchor="middle" x="1151.5" y="-418.5" font-family="Helvetica,sans-Serif" font-size="10.00">GetDataDir</text>
</a>
</g>
</g>
<!-- Node1579&#45;&gt;Node1582 -->
<g id="edge18" class="edge"><title>Node1579&#45;&gt;Node1582</title>
<path fill="none" stroke="midnightblue" d="M1018.54,-316.539C1034.32,-331.362 1066.11,-360.553 1095,-383 1105.17,-390.9 1116.87,-399.043 1126.9,-405.755"/>
<polygon fill="midnightblue" stroke="midnightblue" points="1125.28,-408.878 1135.55,-411.469 1129.14,-403.037 1125.28,-408.878"/>
</g>
<!-- Node1586 -->
<g id="node23" class="node"><title>Node1586</title>
<g id="a_node23"><a xlink:href="util_8cpp.html#af0c31e37a5891e021f9b339696398a28" target="_top" xlink:title="fStartedNewLine is a state variable held by the calling context that will suppress printing of the th...">
<polygon fill="white" stroke="black" points="1101,-316.5 1101,-335.5 1202,-335.5 1202,-316.5 1101,-316.5"/>
<text text-anchor="middle" x="1151.5" y="-323.5" font-family="Helvetica,sans-Serif" font-size="10.00">LogThreadNameStr</text>
</a>
</g>
</g>
<!-- Node1579&#45;&gt;Node1586 -->
<g id="edge22" class="edge"><title>Node1579&#45;&gt;Node1586</title>
<path fill="none" stroke="midnightblue" d="M1040.01,-311.217C1054.97,-313.218 1073.36,-315.678 1090.81,-318.013"/>
<polygon fill="midnightblue" stroke="midnightblue" points="1090.57,-321.512 1100.94,-319.369 1091.5,-314.574 1090.57,-321.512"/>
</g>
<!-- Node1587 -->
<g id="node24" class="node"><title>Node1587</title>
<g id="a_node24"><a xlink:href="util_8cpp.html#a8e80ae045580407e9f2028dc5f7b954c" target="_top" xlink:title="fStartedNewLine is a state variable held by the calling context that will suppress printing of the ti...">
<polygon fill="white" stroke="black" points="1104.5,-354.5 1104.5,-373.5 1198.5,-373.5 1198.5,-354.5 1104.5,-354.5"/>
<text text-anchor="middle" x="1151.5" y="-361.5" font-family="Helvetica,sans-Serif" font-size="10.00">LogTimestampStr</text>
</a>
</g>
</g>
<!-- Node1579&#45;&gt;Node1587 -->
<g id="edge24" class="edge"><title>Node1579&#45;&gt;Node1587</title>
<path fill="none" stroke="midnightblue" d="M1028.92,-316.551C1046.32,-324.55 1072.08,-336.06 1095,-345 1100.28,-347.059 1105.88,-349.119 1111.42,-351.085"/>
<polygon fill="midnightblue" stroke="midnightblue" points="1110.65,-354.52 1121.24,-354.497 1112.94,-347.908 1110.65,-354.52"/>
</g>
<!-- Node1583 -->
<g id="node20" class="node"><title>Node1583</title>
<g id="a_node20"><a xlink:href="chainparamsbase_8cpp.html#a06ef5bfd0efb53d13bbf4276726e84ab" target="_top" xlink:title="Return the currently selected parameters. ">
<polygon fill="white" stroke="black" points="1280.5,-430.5 1280.5,-449.5 1353.5,-449.5 1353.5,-430.5 1280.5,-430.5"/>
<text text-anchor="middle" x="1317" y="-437.5" font-family="Helvetica,sans-Serif" font-size="10.00">BaseParams</text>
</a>
</g>
</g>
<!-- Node1582&#45;&gt;Node1583 -->
<g id="edge19" class="edge"><title>Node1582&#45;&gt;Node1583</title>
<path fill="none" stroke="midnightblue" d="M1184.8,-424.754C1209.23,-427.592 1243.09,-431.527 1270.29,-434.688"/>
<polygon fill="midnightblue" stroke="midnightblue" points="1270.02,-438.18 1280.36,-435.858 1270.83,-431.227 1270.02,-438.18"/>
</g>
<!-- Node1584 -->
<g id="node21" class="node"><title>Node1584</title>
<g id="a_node21"><a xlink:href="class_c_base_chain_params.html#a4b142e94ae27f860522dd5efef41fb67" target="_top" xlink:title="CBaseChainParams::DataDir">
<polygon fill="white" stroke="black" points="1244,-392.5 1244,-411.5 1390,-411.5 1390,-392.5 1244,-392.5"/>
<text text-anchor="middle" x="1317" y="-399.5" font-family="Helvetica,sans-Serif" font-size="10.00">CBaseChainParams::DataDir</text>
</a>
</g>
</g>
<!-- Node1582&#45;&gt;Node1584 -->
<g id="edge20" class="edge"><title>Node1582&#45;&gt;Node1584</title>
<path fill="none" stroke="midnightblue" d="M1184.8,-417.246C1198.96,-415.601 1216.29,-413.587 1233.65,-411.569"/>
<polygon fill="midnightblue" stroke="midnightblue" points="1234.33,-415.014 1243.86,-410.383 1233.52,-408.061 1234.33,-415.014"/>
</g>
<!-- Node1585 -->
<g id="node22" class="node"><title>Node1585</title>
<g id="a_node22"><a xlink:href="util_8cpp.html#ab272995de020a3bcbf743be630e485c6" target="_top" xlink:title="GetDefaultDataDir">
<polygon fill="white" stroke="black" points="1268,-468.5 1268,-487.5 1366,-487.5 1366,-468.5 1268,-468.5"/>
<text text-anchor="middle" x="1317" y="-475.5" font-family="Helvetica,sans-Serif" font-size="10.00">GetDefaultDataDir</text>
</a>
</g>
</g>
<!-- Node1582&#45;&gt;Node1585 -->
<g id="edge21" class="edge"><title>Node1582&#45;&gt;Node1585</title>
<path fill="none" stroke="midnightblue" d="M1173.27,-430.575C1191.62,-438.804 1219.23,-450.631 1244,-459 1251.07,-461.388 1258.61,-463.665 1266.05,-465.76"/>
<polygon fill="midnightblue" stroke="midnightblue" points="1265.16,-469.144 1275.73,-468.402 1267,-462.391 1265.16,-469.144"/>
</g>
<!-- Node1586&#45;&gt;Node1578 -->
<g id="edge23" class="edge"><title>Node1586&#45;&gt;Node1578</title>
<path fill="none" stroke="midnightblue" d="M1182.73,-316.469C1191.01,-313.639 1199.92,-310.384 1208,-307 1236.63,-295.004 1268.28,-278.817 1289.87,-267.302"/>
<polygon fill="midnightblue" stroke="midnightblue" points="1291.6,-270.344 1298.75,-262.526 1288.29,-264.179 1291.6,-270.344"/>
</g>
<!-- Node1588 -->
<g id="node25" class="node"><title>Node1588</title>
<g id="a_node25"><a xlink:href="utiltime_8cpp.html#a749bc6776c8ec72d7c5e4dea56aee415" target="_top" xlink:title="DateTimeStrFormat">
<polygon fill="white" stroke="black" points="1265.5,-316.5 1265.5,-335.5 1368.5,-335.5 1368.5,-316.5 1265.5,-316.5"/>
<text text-anchor="middle" x="1317" y="-323.5" font-family="Helvetica,sans-Serif" font-size="10.00">DateTimeStrFormat</text>
</a>
</g>
</g>
<!-- Node1587&#45;&gt;Node1588 -->
<g id="edge25" class="edge"><title>Node1587&#45;&gt;Node1588</title>
<path fill="none" stroke="midnightblue" d="M1193.76,-354.411C1215.43,-349.374 1242.18,-343.156 1265.13,-337.823"/>
<polygon fill="midnightblue" stroke="midnightblue" points="1266.09,-341.193 1275.04,-335.52 1264.51,-334.375 1266.09,-341.193"/>
</g>
<!-- Node1589 -->
<g id="node26" class="node"><title>Node1589</title>
<g id="a_node26"><a xlink:href="utiltime_8cpp.html#a474bed4c01c8a1d18330dceccf865e1e" target="_top" xlink:title="Return a time useful for the debug log. ">
<polygon fill="white" stroke="black" points="1267.5,-354.5 1267.5,-373.5 1366.5,-373.5 1366.5,-354.5 1267.5,-354.5"/>
<text text-anchor="middle" x="1317" y="-361.5" font-family="Helvetica,sans-Serif" font-size="10.00">GetLogTimeMicros</text>
</a>
</g>
</g>
<!-- Node1587&#45;&gt;Node1589 -->
<g id="edge26" class="edge"><title>Node1587&#45;&gt;Node1589</title>
<path fill="none" stroke="midnightblue" d="M1198.92,-364C1217.08,-364 1238.13,-364 1257.33,-364"/>
<polygon fill="midnightblue" stroke="midnightblue" points="1257.47,-367.5 1267.47,-364 1257.47,-360.5 1257.47,-367.5"/>
</g>
<!-- Node1590 -->
<g id="node27" class="node"><title>Node1590</title>
<g id="a_node27"><a xlink:href="utiltime_8cpp.html#a0c5a06b50cd805b1923552114494c029" target="_top" xlink:title="GetTimeMicros">
<polygon fill="white" stroke="black" points="1426,-354.5 1426,-373.5 1509,-373.5 1509,-354.5 1426,-354.5"/>
<text text-anchor="middle" x="1467.5" y="-361.5" font-family="Helvetica,sans-Serif" font-size="10.00">GetTimeMicros</text>
</a>
</g>
</g>
<!-- Node1589&#45;&gt;Node1590 -->
<g id="edge27" class="edge"><title>Node1589&#45;&gt;Node1590</title>
<path fill="none" stroke="midnightblue" d="M1366.62,-364C1382.31,-364 1399.73,-364 1415.57,-364"/>
<polygon fill="midnightblue" stroke="midnightblue" points="1415.72,-367.5 1425.72,-364 1415.72,-360.5 1415.72,-367.5"/>
</g>
<!-- Node1592 -->
<g id="node29" class="node"><title>Node1592</title>
<g id="a_node29"><a xlink:href="utiltime_8cpp.html#a46fac5fba8ba905b5f9acb364f5d8c6f" target="_top" xlink:title="For unit testing. ">
<polygon fill="white" stroke="black" points="980.5,-76.5 980.5,-95.5 1034.5,-95.5 1034.5,-76.5 980.5,-76.5"/>
<text text-anchor="middle" x="1007.5" y="-83.5" font-family="Helvetica,sans-Serif" font-size="10.00">GetTime</text>
</a>
</g>
</g>
<!-- Node1591&#45;&gt;Node1592 -->
<g id="edge29" class="edge"><title>Node1591&#45;&gt;Node1592</title>
<path fill="none" stroke="midnightblue" d="M889.865,-114.411C914.665,-108.37 946.435,-100.631 970.553,-94.7564"/>
<polygon fill="midnightblue" stroke="midnightblue" points="971.491,-98.1304 980.378,-92.363 969.834,-91.3292 971.491,-98.1304"/>
</g>
<!-- Node1593 -->
<g id="node30" class="node"><title>Node1593</title>
<g id="a_node30"><a xlink:href="timedata_8cpp.html#a50ca5344c75631267633f15cfe5e983e" target="_top" xlink:title="&quot;Never go to sea with two chronometers; take one or three.&quot; Our three time sources are: ...">
<polygon fill="white" stroke="black" points="967,-114.5 967,-133.5 1048,-133.5 1048,-114.5 967,-114.5"/>
<text text-anchor="middle" x="1007.5" y="-121.5" font-family="Helvetica,sans-Serif" font-size="10.00">GetTimeOffset</text>
</a>
</g>
</g>
<!-- Node1591&#45;&gt;Node1593 -->
<g id="edge30" class="edge"><title>Node1591&#45;&gt;Node1593</title>
<path fill="none" stroke="midnightblue" d="M895.622,-124C914.691,-124 936.969,-124 956.534,-124"/>
<polygon fill="midnightblue" stroke="midnightblue" points="956.785,-127.5 966.785,-124 956.785,-120.5 956.785,-127.5"/>
</g>
<!-- Node1595&#45;&gt;Node1570 -->
<g id="edge33" class="edge"><title>Node1595&#45;&gt;Node1570</title>
<path fill="none" stroke="midnightblue" d="M334.177,-124C354.559,-124 377.591,-124 398.433,-124"/>
<polygon fill="midnightblue" stroke="midnightblue" points="398.468,-127.5 408.468,-124 398.468,-120.5 398.468,-127.5"/>
</g>
<!-- Node1597 -->
<g id="node34" class="node"><title>Node1597</title>
<g id="a_node34"><a xlink:href="validation_8cpp.html#a7e254ea66e047c3d3ed0bedc5997fc4f" target="_top" xlink:title="Check if transaction will be final in the next block to be created. ">
<polygon fill="white" stroke="black" points="424.5,-76.5 424.5,-95.5 501.5,-95.5 501.5,-76.5 424.5,-76.5"/>
<text text-anchor="middle" x="463" y="-83.5" font-family="Helvetica,sans-Serif" font-size="10.00">CheckFinalTx</text>
</a>
</g>
</g>
<!-- Node1596&#45;&gt;Node1597 -->
<g id="edge35" class="edge"><title>Node1596&#45;&gt;Node1597</title>
<path fill="none" stroke="midnightblue" d="M330.653,-86C357.064,-86 388.557,-86 414.084,-86"/>
<polygon fill="midnightblue" stroke="midnightblue" points="414.267,-89.5001 424.267,-86 414.267,-82.5001 414.267,-89.5001"/>
</g>
<!-- Node1597&#45;&gt;Node1569 -->
<g id="edge39" class="edge"><title>Node1597&#45;&gt;Node1569</title>
<path fill="none" stroke="midnightblue" d="M501.588,-91.7206C513.99,-94.5835 527.535,-98.8104 539,-105 558.099,-115.311 556.075,-127.372 575,-138 584.813,-143.511 596.004,-147.853 606.922,-151.239"/>
<polygon fill="midnightblue" stroke="midnightblue" points="606.246,-154.686 616.824,-154.084 608.18,-147.958 606.246,-154.686"/>
</g>
<!-- Node1597&#45;&gt;Node1591 -->
<g id="edge36" class="edge"><title>Node1597&#45;&gt;Node1591</title>
<path fill="none" stroke="midnightblue" d="M501.624,-93.4046C523.053,-97.3791 550.444,-102.053 575,-105 650.252,-114.031 737.707,-119.179 793.069,-121.779"/>
<polygon fill="midnightblue" stroke="midnightblue" points="793.211,-125.29 803.361,-122.251 793.532,-118.297 793.211,-125.29"/>
</g>
<!-- Node1598 -->
<g id="node35" class="node"><title>Node1598</title>
<g id="a_node35"><a xlink:href="class_c_block_index.html#aa9bd0ab02cf8b9c866618cee3a5a0583" target="_top" xlink:title="CBlockIndex::GetMedianTimePast">
<polygon fill="white" stroke="black" points="575,-0.5 575,-19.5 743,-19.5 743,-0.5 575,-0.5"/>
<text text-anchor="middle" x="659" y="-7.5" font-family="Helvetica,sans-Serif" font-size="10.00">CBlockIndex::GetMedianTimePast</text>
</a>
</g>
</g>
<!-- Node1597&#45;&gt;Node1598 -->
<g id="edge37" class="edge"><title>Node1597&#45;&gt;Node1598</title>
<path fill="none" stroke="midnightblue" d="M479.609,-76.393C500.592,-63.856 539.384,-41.9894 575,-29 582.049,-26.4291 589.566,-24.1308 597.088,-22.098"/>
<polygon fill="midnightblue" stroke="midnightblue" points="598.119,-25.4469 606.94,-19.578 596.384,-18.6653 598.119,-25.4469"/>
</g>
<!-- Node1600 -->
<g id="node37" class="node"><title>Node1600</title>
<g id="a_node37"><a xlink:href="validation_8cpp.html#adc332cd7ac94e639bb4239618341be19" target="_top" xlink:title="Check if transaction is final and can be included in a block with the specified height and time...">
<polygon fill="white" stroke="black" points="630.5,-76.5 630.5,-95.5 687.5,-95.5 687.5,-76.5 630.5,-76.5"/>
<text text-anchor="middle" x="659" y="-83.5" font-family="Helvetica,sans-Serif" font-size="10.00">IsFinalTx</text>
</a>
</g>
</g>
<!-- Node1597&#45;&gt;Node1600 -->
<g id="edge40" class="edge"><title>Node1597&#45;&gt;Node1600</title>
<path fill="none" stroke="midnightblue" d="M501.866,-86C536.042,-86 586.056,-86 620.209,-86"/>
<polygon fill="midnightblue" stroke="midnightblue" points="620.264,-89.5001 630.264,-86 620.264,-82.5001 620.264,-89.5001"/>
</g>
<!-- Node1601 -->
<g id="node38" class="node"><title>Node1601</title>
<g id="a_node38"><a xlink:href="class_c_chain.html#a578545bde95163bee37b1be28e7b2755" target="_top" xlink:title="Returns the index entry for the tip of this chain, or NULL if none. ">
<polygon fill="white" stroke="black" points="624.5,-38.5 624.5,-57.5 693.5,-57.5 693.5,-38.5 624.5,-38.5"/>
<text text-anchor="middle" x="659" y="-45.5" font-family="Helvetica,sans-Serif" font-size="10.00">CChain::Tip</text>
</a>
</g>
</g>
<!-- Node1597&#45;&gt;Node1601 -->
<g id="edge41" class="edge"><title>Node1597&#45;&gt;Node1601</title>
<path fill="none" stroke="midnightblue" d="M501.866,-78.583C534.143,-72.2606 580.548,-63.1711 614.376,-56.545"/>
<polygon fill="midnightblue" stroke="midnightblue" points="615.3,-59.9306 624.44,-54.5735 613.954,-53.0611 615.3,-59.9306"/>
</g>
<!-- Node1599 -->
<g id="node36" class="node"><title>Node1599</title>
<g id="a_node36"><a xlink:href="class_c_block_index.html#a9fe0d4463c07c466f66252e8eec25f5c" target="_top" xlink:title="CBlockIndex::GetBlockTime">
<polygon fill="white" stroke="black" points="779,-0.5 779,-19.5 920,-19.5 920,-0.5 779,-0.5"/>
<text text-anchor="middle" x="849.5" y="-7.5" font-family="Helvetica,sans-Serif" font-size="10.00">CBlockIndex::GetBlockTime</text>
</a>
</g>
</g>
<!-- Node1598&#45;&gt;Node1599 -->
<g id="edge38" class="edge"><title>Node1598&#45;&gt;Node1599</title>
<path fill="none" stroke="midnightblue" d="M743.228,-10C751.712,-10 760.317,-10 768.762,-10"/>
<polygon fill="midnightblue" stroke="midnightblue" points="768.966,-13.5001 778.966,-10 768.966,-6.5001 768.966,-13.5001"/>
</g>
</g>
</svg>
