<?xml version="1.0" encoding="UTF-8" standalone="no"?>
<!DOCTYPE svg PUBLIC "-//W3C//DTD SVG 1.1//EN"
 "http://www.w3.org/Graphics/SVG/1.1/DTD/svg11.dtd">
<!-- Generated by graphviz version 2.38.0 (20140413.2041)
 -->
<!-- Title: secp256k1_sha256_write Pages: 1 -->
<svg width="641pt" height="137pt"
 viewBox="0.00 0.00 641.00 137.00" xmlns="http://www.w3.org/2000/svg" xmlns:xlink="http://www.w3.org/1999/xlink">
<g id="graph0" class="graph" transform="scale(1 1) rotate(0) translate(4 133)">
<title>secp256k1_sha256_write</title>
<polygon fill="white" stroke="none" points="-4,4 -4,-133 637,-133 637,4 -4,4"/>
<!-- Node79 -->
<g id="node1" class="node"><title>Node79</title>
<polygon fill="#bfbfbf" stroke="black" points="0,-63 0,-82 127,-82 127,-63 0,-63"/>
<text text-anchor="middle" x="63.5" y="-70" font-family="Helvetica,sans-Serif" font-size="10.00">secp256k1_sha256_write</text>
</g>
<!-- Node80 -->
<g id="node2" class="node"><title>Node80</title>
<g id="a_node2"><a xlink:href="hash__impl_8h.html#a6f85fe02b7546db62cc03adb03613d16" target="_top" xlink:title="secp256k1_hmac_sha256\l_finalize">
<polygon fill="white" stroke="black" points="336,-98.5 336,-128.5 466,-128.5 466,-98.5 336,-98.5"/>
<text text-anchor="start" x="344" y="-116.5" font-family="Helvetica,sans-Serif" font-size="10.00">secp256k1_hmac_sha256</text>
<text text-anchor="middle" x="401" y="-105.5" font-family="Helvetica,sans-Serif" font-size="10.00">_finalize</text>
</a>
</g>
</g>
<!-- Node79&#45;&gt;Node80 -->
<g id="edge1" class="edge"><title>Node79&#45;&gt;Node80</title>
<path fill="none" stroke="midnightblue" d="M92.2727,-86.2781C111.585,-95.0857 138.212,-105.722 163,-110.5 220.679,-121.618 287.724,-121.27 335.756,-118.786"/>
<polygon fill="midnightblue" stroke="midnightblue" points="93.6954,-83.0796 83.155,-82.0076 90.7263,-89.4187 93.6954,-83.0796"/>
</g>
<!-- Node83 -->
<g id="node5" class="node"><title>Node83</title>
<g id="a_node5"><a xlink:href="hash__impl_8h.html#a078ac2e7574c2c3d1eb1ccc0950e84d0" target="_top" xlink:title="secp256k1_hmac_sha256\l_initialize">
<polygon fill="white" stroke="black" points="336,-49.5 336,-79.5 466,-79.5 466,-49.5 336,-49.5"/>
<text text-anchor="start" x="344" y="-67.5" font-family="Helvetica,sans-Serif" font-size="10.00">secp256k1_hmac_sha256</text>
<text text-anchor="middle" x="401" y="-56.5" font-family="Helvetica,sans-Serif" font-size="10.00">_initialize</text>
</a>
</g>
</g>
<!-- Node79&#45;&gt;Node83 -->
<g id="edge4" class="edge"><title>Node79&#45;&gt;Node83</title>
<path fill="none" stroke="midnightblue" d="M137.237,-70.7656C196.424,-69.3543 279.154,-67.3816 335.884,-66.0288"/>
<polygon fill="midnightblue" stroke="midnightblue" points="137.125,-67.2672 127.211,-71.0046 137.292,-74.2652 137.125,-67.2672"/>
</g>
<!-- Node84 -->
<g id="node6" class="node"><title>Node84</title>
<g id="a_node6"><a xlink:href="hash__impl_8h.html#a985f5f05c10dca7f592541d95c84081f" target="_top" xlink:title="secp256k1_hmac_sha256\l_write">
<polygon fill="white" stroke="black" points="336,-0.5 336,-30.5 466,-30.5 466,-0.5 336,-0.5"/>
<text text-anchor="start" x="344" y="-18.5" font-family="Helvetica,sans-Serif" font-size="10.00">secp256k1_hmac_sha256</text>
<text text-anchor="middle" x="401" y="-7.5" font-family="Helvetica,sans-Serif" font-size="10.00">_write</text>
</a>
</g>
</g>
<!-- Node79&#45;&gt;Node84 -->
<g id="edge7" class="edge"><title>Node79&#45;&gt;Node84</title>
<path fill="none" stroke="midnightblue" d="M130.699,-61.2531C190.211,-51.1422 277.066,-36.3859 335.919,-26.3871"/>
<polygon fill="midnightblue" stroke="midnightblue" points="129.928,-57.8339 120.655,-62.9595 131.1,-64.735 129.928,-57.8339"/>
</g>
<!-- Node85 -->
<g id="node7" class="node"><title>Node85</title>
<g id="a_node7"><a xlink:href="hash__impl_8h.html#ab88a555e2b13d6d06e20a6a459abae08" target="_top" xlink:title="secp256k1_sha256_finalize">
<polygon fill="white" stroke="black" points="163,-82 163,-101 300,-101 300,-82 163,-82"/>
<text text-anchor="middle" x="231.5" y="-89" font-family="Helvetica,sans-Serif" font-size="10.00">secp256k1_sha256_finalize</text>
</a>
</g>
</g>
<!-- Node79&#45;&gt;Node85 -->
<g id="edge10" class="edge"><title>Node79&#45;&gt;Node85</title>
<path fill="none" stroke="midnightblue" d="M137.208,-80.822C145.762,-81.8011 154.463,-82.797 162.942,-83.7675"/>
<polygon fill="midnightblue" stroke="midnightblue" points="137.591,-77.343 127.257,-79.6831 136.795,-84.2976 137.591,-77.343"/>
</g>
<!-- Node81 -->
<g id="node3" class="node"><title>Node81</title>
<g id="a_node3"><a xlink:href="hash__impl_8h.html#a993c3261472ef00e4738e0fe7a99b7cb" target="_top" xlink:title="secp256k1_rfc6979_hmac\l_sha256_generate">
<polygon fill="white" stroke="black" points="502,-73.5 502,-103.5 633,-103.5 633,-73.5 502,-73.5"/>
<text text-anchor="start" x="510" y="-91.5" font-family="Helvetica,sans-Serif" font-size="10.00">secp256k1_rfc6979_hmac</text>
<text text-anchor="middle" x="567.5" y="-80.5" font-family="Helvetica,sans-Serif" font-size="10.00">_sha256_generate</text>
</a>
</g>
</g>
<!-- Node80&#45;&gt;Node81 -->
<g id="edge2" class="edge"><title>Node80&#45;&gt;Node81</title>
<path fill="none" stroke="midnightblue" d="M476.067,-102.244C484.648,-100.94 493.349,-99.6172 501.791,-98.3341"/>
<polygon fill="midnightblue" stroke="midnightblue" points="475.432,-98.7999 466.071,-103.763 476.483,-105.72 475.432,-98.7999"/>
</g>
<!-- Node82 -->
<g id="node4" class="node"><title>Node82</title>
<g id="a_node4"><a xlink:href="hash__impl_8h.html#a9dd561651b3373fe94e80295dfdd43a7" target="_top" xlink:title="secp256k1_rfc6979_hmac\l_sha256_initialize">
<polygon fill="white" stroke="black" points="502,-24.5 502,-54.5 633,-54.5 633,-24.5 502,-24.5"/>
<text text-anchor="start" x="510" y="-42.5" font-family="Helvetica,sans-Serif" font-size="10.00">secp256k1_rfc6979_hmac</text>
<text text-anchor="middle" x="567.5" y="-31.5" font-family="Helvetica,sans-Serif" font-size="10.00">_sha256_initialize</text>
</a>
</g>
</g>
<!-- Node80&#45;&gt;Node82 -->
<g id="edge3" class="edge"><title>Node80&#45;&gt;Node82</title>
<path fill="none" stroke="midnightblue" d="M455.925,-94.4004C459.376,-92.8346 462.762,-91.1978 466,-89.5 483.252,-80.455 484.798,-73.6397 502,-64.5 508.788,-60.8937 516.213,-57.528 523.532,-54.5081"/>
<polygon fill="midnightblue" stroke="midnightblue" points="454.496,-91.2049 446.694,-98.3729 457.263,-97.6348 454.496,-91.2049"/>
</g>
<!-- Node83&#45;&gt;Node81 -->
<g id="edge5" class="edge"><title>Node83&#45;&gt;Node81</title>
<path fill="none" stroke="midnightblue" d="M476.067,-75.3061C484.648,-76.558 493.349,-77.8275 501.791,-79.0592"/>
<polygon fill="midnightblue" stroke="midnightblue" points="476.472,-71.8282 466.071,-73.8477 475.461,-78.7549 476.472,-71.8282"/>
</g>
<!-- Node83&#45;&gt;Node82 -->
<g id="edge6" class="edge"><title>Node83&#45;&gt;Node82</title>
<path fill="none" stroke="midnightblue" d="M476.067,-53.2437C484.648,-51.9395 493.349,-50.6172 501.791,-49.3341"/>
<polygon fill="midnightblue" stroke="midnightblue" points="475.432,-49.7999 466.071,-54.7628 476.483,-56.7204 475.432,-49.7999"/>
</g>
<!-- Node84&#45;&gt;Node81 -->
<g id="edge8" class="edge"><title>Node84&#45;&gt;Node81</title>
<path fill="none" stroke="midnightblue" d="M453.585,-34.5198C457.837,-36.4277 462.024,-38.4292 466,-40.5 483.055,-49.3833 484.874,-55.755 502,-64.5 508.278,-67.7058 515.088,-70.7087 521.852,-73.432"/>
<polygon fill="midnightblue" stroke="midnightblue" points="454.803,-31.2335 444.233,-30.5017 452.04,-37.665 454.803,-31.2335"/>
</g>
<!-- Node84&#45;&gt;Node82 -->
<g id="edge9" class="edge"><title>Node84&#45;&gt;Node82</title>
<path fill="none" stroke="midnightblue" d="M476.067,-26.3061C484.648,-27.558 493.349,-28.8275 501.791,-30.0592"/>
<polygon fill="midnightblue" stroke="midnightblue" points="476.472,-22.8282 466.071,-24.8477 475.461,-29.7549 476.472,-22.8282"/>
</g>
<!-- Node85&#45;&gt;Node80 -->
<g id="edge11" class="edge"><title>Node85&#45;&gt;Node80</title>
<path fill="none" stroke="midnightblue" d="M310.188,-101.704C318.795,-102.834 327.488,-103.976 335.901,-105.081"/>
<polygon fill="midnightblue" stroke="midnightblue" points="310.517,-98.217 300.146,-100.385 309.605,-105.157 310.517,-98.217"/>
</g>
<!-- Node85&#45;&gt;Node83 -->
<g id="edge12" class="edge"><title>Node85&#45;&gt;Node83</title>
<path fill="none" stroke="midnightblue" d="M301.77,-80.334C313.032,-78.5188 324.653,-76.6455 335.786,-74.8508"/>
<polygon fill="midnightblue" stroke="midnightblue" points="300.87,-76.9339 291.554,-81.9808 301.984,-83.8447 300.87,-76.9339"/>
</g>
</g>
</svg>
