<?xml version="1.0" encoding="UTF-8" standalone="no"?>
<!DOCTYPE svg PUBLIC "-//W3C//DTD SVG 1.1//EN"
 "http://www.w3.org/Graphics/SVG/1.1/DTD/svg11.dtd">
<!-- Generated by graphviz version 2.38.0 (20140413.2041)
 -->
<!-- Title: Graphical Class Hierarchy Pages: 1 -->
<svg width="235pt" height="522pt"
 viewBox="0.00 0.00 235.00 522.00" xmlns="http://www.w3.org/2000/svg" xmlns:xlink="http://www.w3.org/1999/xlink">
<g id="graph0" class="graph" transform="scale(1 1) rotate(0) translate(4 518)">
<title>Graphical Class Hierarchy</title>
<polygon fill="white" stroke="none" points="-4,4 -4,-518 231,-518 231,4 -4,4"/>
<!-- Node355 -->
<g id="node1" class="node"><title>Node355</title>
<polygon fill="white" stroke="#bfbfbf" points="0,-247.5 0,-266.5 54,-266.5 54,-247.5 0,-247.5"/>
<text text-anchor="middle" x="27" y="-254.5" font-family="Helvetica,sans-Serif" font-size="10.00">QDialog</text>
</g>
<!-- Node0 -->
<g id="node2" class="node"><title>Node0</title>
<g id="a_node2"><a xlink:href="class_address_book_page.html" target="_top" xlink:title="Widget that shows a list of sending or receiving addresses. ">
<polygon fill="white" stroke="black" points="107,-494.5 107,-513.5 210,-513.5 210,-494.5 107,-494.5"/>
<text text-anchor="middle" x="158.5" y="-501.5" font-family="Helvetica,sans-Serif" font-size="10.00">AddressBookPage</text>
</a>
</g>
</g>
<!-- Node355&#45;&gt;Node0 -->
<g id="edge1" class="edge"><title>Node355&#45;&gt;Node0</title>
<path fill="none" stroke="midnightblue" d="M27.3068,-277.121C26.9345,-321.198 32.4771,-426.964 90,-485 94.7136,-489.756 100.517,-493.345 106.726,-496.049"/>
<polygon fill="midnightblue" stroke="midnightblue" points="30.8113,-276.93 27.5154,-266.861 23.8127,-276.787 30.8113,-276.93"/>
</g>
<!-- Node357 -->
<g id="node3" class="node"><title>Node357</title>
<g id="a_node3"><a xlink:href="class_ask_passphrase_dialog.html" target="_top" xlink:title="Multifunctional dialog to ask for passphrases. ">
<polygon fill="white" stroke="black" points="99,-456.5 99,-475.5 218,-475.5 218,-456.5 99,-456.5"/>
<text text-anchor="middle" x="158.5" y="-463.5" font-family="Helvetica,sans-Serif" font-size="10.00">AskPassphraseDialog</text>
</a>
</g>
</g>
<!-- Node355&#45;&gt;Node357 -->
<g id="edge2" class="edge"><title>Node355&#45;&gt;Node357</title>
<path fill="none" stroke="midnightblue" d="M28.6048,-276.87C30.8779,-315.364 41.4509,-400.404 90,-447 94.0403,-450.878 98.808,-453.975 103.911,-456.448"/>
<polygon fill="midnightblue" stroke="midnightblue" points="32.0845,-276.343 28.133,-266.512 25.0918,-276.661 32.0845,-276.343"/>
</g>
<!-- Node358 -->
<g id="node4" class="node"><title>Node358</title>
<g id="a_node4"><a xlink:href="class_coin_control_dialog.html" target="_top" xlink:title="CoinControlDialog">
<polygon fill="white" stroke="black" points="107.5,-418.5 107.5,-437.5 209.5,-437.5 209.5,-418.5 107.5,-418.5"/>
<text text-anchor="middle" x="158.5" y="-425.5" font-family="Helvetica,sans-Serif" font-size="10.00">CoinControlDialog</text>
</a>
</g>
</g>
<!-- Node355&#45;&gt;Node358 -->
<g id="edge3" class="edge"><title>Node355&#45;&gt;Node358</title>
<path fill="none" stroke="midnightblue" d="M30.4979,-276.927C35.638,-309.408 50.448,-373.68 90,-409 94.9942,-413.46 100.958,-416.88 107.245,-419.502"/>
<polygon fill="midnightblue" stroke="midnightblue" points="33.9392,-276.267 29.0583,-266.863 27.0097,-277.258 33.9392,-276.267"/>
</g>
<!-- Node359 -->
<g id="node5" class="node"><title>Node359</title>
<g id="a_node5"><a xlink:href="class_edit_address_dialog.html" target="_top" xlink:title="Dialog for editing an address and associated information. ">
<polygon fill="white" stroke="black" points="106.5,-380.5 106.5,-399.5 210.5,-399.5 210.5,-380.5 106.5,-380.5"/>
<text text-anchor="middle" x="158.5" y="-387.5" font-family="Helvetica,sans-Serif" font-size="10.00">EditAddressDialog</text>
</a>
</g>
</g>
<!-- Node355&#45;&gt;Node359 -->
<g id="edge4" class="edge"><title>Node355&#45;&gt;Node359</title>
<path fill="none" stroke="midnightblue" d="M33.3171,-276.249C41.35,-301.723 59.0293,-346.285 90,-371 94.853,-374.873 100.451,-377.957 106.305,-380.412"/>
<polygon fill="midnightblue" stroke="midnightblue" points="36.6576,-275.203 30.4544,-266.614 29.9475,-277.196 36.6576,-275.203"/>
</g>
<!-- Node360 -->
<g id="node6" class="node"><title>Node360</title>
<g id="a_node6"><a xlink:href="class_help_message_dialog.html" target="_top" xlink:title="&quot;Help message&quot; dialog box ">
<polygon fill="white" stroke="black" points="103,-342.5 103,-361.5 214,-361.5 214,-342.5 103,-342.5"/>
<text text-anchor="middle" x="158.5" y="-349.5" font-family="Helvetica,sans-Serif" font-size="10.00">HelpMessageDialog</text>
</a>
</g>
</g>
<!-- Node355&#45;&gt;Node360 -->
<g id="edge5" class="edge"><title>Node355&#45;&gt;Node360</title>
<path fill="none" stroke="midnightblue" d="M38.283,-275.193C49.0129,-292.552 67.4131,-318.187 90,-333 95.9046,-336.872 102.598,-339.965 109.421,-342.433"/>
<polygon fill="midnightblue" stroke="midnightblue" points="41.249,-273.333 33.1332,-266.522 35.2304,-276.907 41.249,-273.333"/>
</g>
<!-- Node361 -->
<g id="node7" class="node"><title>Node361</title>
<g id="a_node7"><a xlink:href="class_intro.html" target="_top" xlink:title="Introduction screen (pre&#45;GUI startup). ">
<polygon fill="white" stroke="black" points="139.5,-304.5 139.5,-323.5 177.5,-323.5 177.5,-304.5 139.5,-304.5"/>
<text text-anchor="middle" x="158.5" y="-311.5" font-family="Helvetica,sans-Serif" font-size="10.00">Intro</text>
</a>
</g>
</g>
<!-- Node355&#45;&gt;Node361 -->
<g id="edge6" class="edge"><title>Node355&#45;&gt;Node361</title>
<path fill="none" stroke="midnightblue" d="M49.716,-272.355C61.2619,-279.982 75.9434,-288.855 90,-295 106.063,-302.022 125.413,-307.156 139.269,-310.304"/>
<polygon fill="midnightblue" stroke="midnightblue" points="51.4415,-269.296 41.2004,-266.582 47.5133,-275.09 51.4415,-269.296"/>
</g>
<!-- Node362 -->
<g id="node8" class="node"><title>Node362</title>
<g id="a_node8"><a xlink:href="class_open_u_r_i_dialog.html" target="_top" xlink:title="OpenURIDialog">
<polygon fill="white" stroke="black" points="114.5,-266.5 114.5,-285.5 202.5,-285.5 202.5,-266.5 114.5,-266.5"/>
<text text-anchor="middle" x="158.5" y="-273.5" font-family="Helvetica,sans-Serif" font-size="10.00">OpenURIDialog</text>
</a>
</g>
</g>
<!-- Node355&#45;&gt;Node362 -->
<g id="edge7" class="edge"><title>Node355&#45;&gt;Node362</title>
<path fill="none" stroke="midnightblue" d="M64.438,-262.346C79.9213,-264.618 98.0941,-267.284 114.252,-269.655"/>
<polygon fill="midnightblue" stroke="midnightblue" points="64.6084,-258.834 54.2063,-260.845 63.5922,-265.76 64.6084,-258.834"/>
</g>
<!-- Node363 -->
<g id="node9" class="node"><title>Node363</title>
<g id="a_node9"><a xlink:href="class_options_dialog.html" target="_top" xlink:title="Preferences dialog. ">
<polygon fill="white" stroke="black" points="117,-228.5 117,-247.5 200,-247.5 200,-228.5 117,-228.5"/>
<text text-anchor="middle" x="158.5" y="-235.5" font-family="Helvetica,sans-Serif" font-size="10.00">OptionsDialog</text>
</a>
</g>
</g>
<!-- Node355&#45;&gt;Node363 -->
<g id="edge8" class="edge"><title>Node355&#45;&gt;Node363</title>
<path fill="none" stroke="midnightblue" d="M64.4322,-251.655C80.7346,-249.263 100.02,-246.433 116.795,-243.972"/>
<polygon fill="midnightblue" stroke="midnightblue" points="63.5922,-248.24 54.2063,-253.155 64.6084,-255.166 63.5922,-248.24"/>
</g>
<!-- Node364 -->
<g id="node10" class="node"><title>Node364</title>
<g id="a_node10"><a xlink:href="class_q_r_dialog.html" target="_top" xlink:title="QRDialog">
<polygon fill="white" stroke="black" points="128.5,-190.5 128.5,-209.5 188.5,-209.5 188.5,-190.5 128.5,-190.5"/>
<text text-anchor="middle" x="158.5" y="-197.5" font-family="Helvetica,sans-Serif" font-size="10.00">QRDialog</text>
</a>
</g>
</g>
<!-- Node355&#45;&gt;Node364 -->
<g id="edge9" class="edge"><title>Node355&#45;&gt;Node364</title>
<path fill="none" stroke="midnightblue" d="M49.716,-241.645C61.2619,-234.018 75.9434,-225.145 90,-219 102.159,-213.685 116.201,-209.451 128.318,-206.342"/>
<polygon fill="midnightblue" stroke="midnightblue" points="47.5133,-238.91 41.2004,-247.418 51.4415,-244.704 47.5133,-238.91"/>
</g>
<!-- Node365 -->
<g id="node11" class="node"><title>Node365</title>
<g id="a_node11"><a xlink:href="class_receive_coins_dialog.html" target="_top" xlink:title="Dialog for requesting payment of bitcoins. ">
<polygon fill="white" stroke="black" points="104,-152.5 104,-171.5 213,-171.5 213,-152.5 104,-152.5"/>
<text text-anchor="middle" x="158.5" y="-159.5" font-family="Helvetica,sans-Serif" font-size="10.00">ReceiveCoinsDialog</text>
</a>
</g>
</g>
<!-- Node355&#45;&gt;Node365 -->
<g id="edge10" class="edge"><title>Node355&#45;&gt;Node365</title>
<path fill="none" stroke="midnightblue" d="M38.283,-238.807C49.0129,-221.448 67.4131,-195.813 90,-181 95.9046,-177.128 102.598,-174.035 109.421,-171.567"/>
<polygon fill="midnightblue" stroke="midnightblue" points="35.2304,-237.093 33.1332,-247.478 41.249,-240.667 35.2304,-237.093"/>
</g>
<!-- Node366 -->
<g id="node12" class="node"><title>Node366</title>
<g id="a_node12"><a xlink:href="class_receive_request_dialog.html" target="_top" xlink:title="ReceiveRequestDialog">
<polygon fill="white" stroke="black" points="98,-114.5 98,-133.5 219,-133.5 219,-114.5 98,-114.5"/>
<text text-anchor="middle" x="158.5" y="-121.5" font-family="Helvetica,sans-Serif" font-size="10.00">ReceiveRequestDialog</text>
</a>
</g>
</g>
<!-- Node355&#45;&gt;Node366 -->
<g id="edge11" class="edge"><title>Node355&#45;&gt;Node366</title>
<path fill="none" stroke="midnightblue" d="M33.3171,-237.751C41.35,-212.277 59.0293,-167.715 90,-143 94.853,-139.127 100.451,-136.043 106.305,-133.588"/>
<polygon fill="midnightblue" stroke="midnightblue" points="29.9475,-236.804 30.4544,-247.386 36.6576,-238.797 29.9475,-236.804"/>
</g>
<!-- Node367 -->
<g id="node13" class="node"><title>Node367</title>
<g id="a_node13"><a xlink:href="class_send_coins_dialog.html" target="_top" xlink:title="Dialog for sending bitcoins. ">
<polygon fill="white" stroke="black" points="109.5,-76.5 109.5,-95.5 207.5,-95.5 207.5,-76.5 109.5,-76.5"/>
<text text-anchor="middle" x="158.5" y="-83.5" font-family="Helvetica,sans-Serif" font-size="10.00">SendCoinsDialog</text>
</a>
</g>
</g>
<!-- Node355&#45;&gt;Node367 -->
<g id="edge12" class="edge"><title>Node355&#45;&gt;Node367</title>
<path fill="none" stroke="midnightblue" d="M30.4979,-237.073C35.638,-204.592 50.448,-140.32 90,-105 95.5391,-100.054 102.271,-96.3856 109.313,-93.6677"/>
<polygon fill="midnightblue" stroke="midnightblue" points="27.0097,-236.742 29.0583,-247.137 33.9392,-237.733 27.0097,-236.742"/>
</g>
<!-- Node368 -->
<g id="node14" class="node"><title>Node368</title>
<g id="a_node14"><a xlink:href="class_sign_verify_message_dialog.html" target="_top" xlink:title="SignVerifyMessageDialog">
<polygon fill="white" stroke="black" points="90,-38.5 90,-57.5 227,-57.5 227,-38.5 90,-38.5"/>
<text text-anchor="middle" x="158.5" y="-45.5" font-family="Helvetica,sans-Serif" font-size="10.00">SignVerifyMessageDialog</text>
</a>
</g>
</g>
<!-- Node355&#45;&gt;Node368 -->
<g id="edge13" class="edge"><title>Node355&#45;&gt;Node368</title>
<path fill="none" stroke="midnightblue" d="M28.6048,-237.13C30.8779,-198.636 41.4509,-113.596 90,-67 94.0403,-63.1222 98.808,-60.0245 103.911,-57.5518"/>
<polygon fill="midnightblue" stroke="midnightblue" points="25.0918,-237.339 28.133,-247.488 32.0845,-237.657 25.0918,-237.339"/>
</g>
<!-- Node369 -->
<g id="node15" class="node"><title>Node369</title>
<g id="a_node15"><a xlink:href="class_transaction_desc_dialog.html" target="_top" xlink:title="Dialog showing transaction details. ">
<polygon fill="white" stroke="black" points="96,-0.5 96,-19.5 221,-19.5 221,-0.5 96,-0.5"/>
<text text-anchor="middle" x="158.5" y="-7.5" font-family="Helvetica,sans-Serif" font-size="10.00">TransactionDescDialog</text>
</a>
</g>
</g>
<!-- Node355&#45;&gt;Node369 -->
<g id="edge14" class="edge"><title>Node355&#45;&gt;Node369</title>
<path fill="none" stroke="midnightblue" d="M27.3068,-236.879C26.9345,-192.802 32.4771,-87.0356 90,-29 93.8566,-25.1091 98.443,-21.999 103.384,-19.5154"/>
<polygon fill="midnightblue" stroke="midnightblue" points="23.8127,-237.213 27.5154,-247.139 30.8113,-237.07 23.8127,-237.213"/>
</g>
</g>
</svg>
