<?xml version="1.0" encoding="UTF-8" standalone="no"?>
<!DOCTYPE svg PUBLIC "-//W3C//DTD SVG 1.1//EN"
 "http://www.w3.org/Graphics/SVG/1.1/DTD/svg11.dtd">
<!-- Generated by graphviz version 2.38.0 (20140413.2041)
 -->
<!-- Title: Graphical Class Hierarchy Pages: 1 -->
<svg width="222pt" height="104pt"
 viewBox="0.00 0.00 222.00 104.00" xmlns="http://www.w3.org/2000/svg" xmlns:xlink="http://www.w3.org/1999/xlink">
<g id="graph0" class="graph" transform="scale(1 1) rotate(0) translate(4 100)">
<title>Graphical Class Hierarchy</title>
<polygon fill="white" stroke="none" points="-4,4 -4,-100 218,-100 218,4 -4,4"/>
<!-- Node0 -->
<g id="node1" class="node"><title>Node0</title>
<g id="a_node1"><a xlink:href="d1/d4f/class_c_chain_params.html" target="_top" xlink:title="CChainParams defines various tweakable parameters of a given instance of the Dash system...">
<polygon fill="white" stroke="black" points="0,-38.5 0,-57.5 83,-57.5 83,-38.5 0,-38.5"/>
<text text-anchor="middle" x="41.5" y="-45.5" font-family="Helvetica,sans-Serif" font-size="10.00">CChainParams</text>
</a>
</g>
</g>
<!-- Node1 -->
<g id="node2" class="node"><title>Node1</title>
<g id="a_node2"><a xlink:href="da/d94/class_c_main_params.html" target="_top" xlink:title="Main network. ">
<polygon fill="white" stroke="black" points="127,-76.5 127,-95.5 206,-95.5 206,-76.5 127,-76.5"/>
<text text-anchor="middle" x="166.5" y="-83.5" font-family="Helvetica,sans-Serif" font-size="10.00">CMainParams</text>
</a>
</g>
</g>
<!-- Node0&#45;&gt;Node1 -->
<g id="edge1" class="edge"><title>Node0&#45;&gt;Node1</title>
<path fill="none" stroke="midnightblue" d="M83.5445,-60.6804C100.164,-65.8148 119.032,-71.6441 134.472,-76.4141"/>
<polygon fill="midnightblue" stroke="midnightblue" points="84.1257,-57.1968 73.5381,-57.589 82.0594,-63.8849 84.1257,-57.1968"/>
</g>
<!-- Node2 -->
<g id="node3" class="node"><title>Node2</title>
<g id="a_node3"><a xlink:href="db/de5/class_c_reg_test_params.html" target="_top" xlink:title="Regression test. ">
<polygon fill="white" stroke="black" points="119,-38.5 119,-57.5 214,-57.5 214,-38.5 119,-38.5"/>
<text text-anchor="middle" x="166.5" y="-45.5" font-family="Helvetica,sans-Serif" font-size="10.00">CRegTestParams</text>
</a>
</g>
</g>
<!-- Node0&#45;&gt;Node2 -->
<g id="edge2" class="edge"><title>Node0&#45;&gt;Node2</title>
<path fill="none" stroke="midnightblue" d="M93.2979,-48C101.797,-48 110.578,-48 118.963,-48"/>
<polygon fill="midnightblue" stroke="midnightblue" points="93.1157,-44.5001 83.1157,-48 93.1157,-51.5001 93.1157,-44.5001"/>
</g>
<!-- Node3 -->
<g id="node4" class="node"><title>Node3</title>
<g id="a_node4"><a xlink:href="d1/dfc/class_c_test_net_params.html" target="_top" xlink:title="Testnet (v3) ">
<polygon fill="white" stroke="black" points="120,-0.5 120,-19.5 213,-19.5 213,-0.5 120,-0.5"/>
<text text-anchor="middle" x="166.5" y="-7.5" font-family="Helvetica,sans-Serif" font-size="10.00">CTestNetParams</text>
</a>
</g>
</g>
<!-- Node0&#45;&gt;Node3 -->
<g id="edge3" class="edge"><title>Node0&#45;&gt;Node3</title>
<path fill="none" stroke="midnightblue" d="M83.5445,-35.3196C100.164,-30.1852 119.032,-24.3559 134.472,-19.5859"/>
<polygon fill="midnightblue" stroke="midnightblue" points="82.0594,-32.1151 73.5381,-38.411 84.1257,-38.8032 82.0594,-32.1151"/>
</g>
</g>
</svg>
