<?xml version="1.0" encoding="UTF-8" standalone="no"?>
<!DOCTYPE svg PUBLIC "-//W3C//DTD SVG 1.1//EN"
 "http://www.w3.org/Graphics/SVG/1.1/DTD/svg11.dtd">
<!-- Generated by graphviz version 2.38.0 (20140413.2041)
 -->
<!-- Title: Graphical Class Hierarchy Pages: 1 -->
<svg width="223pt" height="66pt"
 viewBox="0.00 0.00 223.00 66.00" xmlns="http://www.w3.org/2000/svg" xmlns:xlink="http://www.w3.org/1999/xlink">
<g id="graph0" class="graph" transform="scale(1 1) rotate(0) translate(4 62)">
<title>Graphical Class Hierarchy</title>
<polygon fill="white" stroke="none" points="-4,4 -4,-62 219,-62 219,4 -4,4"/>
<!-- Node111 -->
<g id="node1" class="node"><title>Node111</title>
<polygon fill="white" stroke="#bfbfbf" points="0,-19.5 0,-38.5 91,-38.5 91,-19.5 0,-19.5"/>
<text text-anchor="middle" x="45.5" y="-26.5" font-family="Helvetica,sans-Serif" font-size="10.00">QStackedWidget</text>
</g>
<!-- Node0 -->
<g id="node2" class="node"><title>Node0</title>
<g id="a_node2"><a xlink:href="class_send_coins_entry.html" target="_top" xlink:title="A single entry in the dialog for sending bitcoins. ">
<polygon fill="white" stroke="black" points="127,-38.5 127,-57.5 215,-57.5 215,-38.5 127,-38.5"/>
<text text-anchor="middle" x="171" y="-45.5" font-family="Helvetica,sans-Serif" font-size="10.00">SendCoinsEntry</text>
</a>
</g>
</g>
<!-- Node111&#45;&gt;Node0 -->
<g id="edge1" class="edge"><title>Node111&#45;&gt;Node0</title>
<path fill="none" stroke="midnightblue" d="M101.048,-37.392C109.642,-38.7142 118.425,-40.0655 126.719,-41.3414"/>
<polygon fill="midnightblue" stroke="midnightblue" points="101.502,-33.9208 91.0863,-35.8594 100.438,-40.8394 101.502,-33.9208"/>
</g>
<!-- Node113 -->
<g id="node3" class="node"><title>Node113</title>
<g id="a_node3"><a xlink:href="class_wallet_view.html" target="_top" xlink:title="WalletView">
<polygon fill="white" stroke="black" points="138,-0.5 138,-19.5 204,-19.5 204,-0.5 138,-0.5"/>
<text text-anchor="middle" x="171" y="-7.5" font-family="Helvetica,sans-Serif" font-size="10.00">WalletView</text>
</a>
</g>
</g>
<!-- Node111&#45;&gt;Node113 -->
<g id="edge2" class="edge"><title>Node111&#45;&gt;Node113</title>
<path fill="none" stroke="midnightblue" d="M101.048,-20.608C113.628,-18.6726 126.613,-16.675 137.874,-14.9424"/>
<polygon fill="midnightblue" stroke="midnightblue" points="100.438,-17.1606 91.0863,-22.1406 101.502,-24.0792 100.438,-17.1606"/>
</g>
</g>
</svg>
