<?xml version="1.0" encoding="UTF-8" standalone="no"?>
<!DOCTYPE svg PUBLIC "-//W3C//DTD SVG 1.1//EN"
 "http://www.w3.org/Graphics/SVG/1.1/DTD/svg11.dtd">
<!-- Generated by graphviz version 2.38.0 (20140413.2041)
 -->
<!-- Title: Graphical Class Hierarchy Pages: 1 -->
<svg width="276pt" height="61pt"
 viewBox="0.00 0.00 276.00 61.00" xmlns="http://www.w3.org/2000/svg" xmlns:xlink="http://www.w3.org/1999/xlink">
<g id="graph0" class="graph" transform="scale(1 1) rotate(0) translate(4 57)">
<title>Graphical Class Hierarchy</title>
<polygon fill="white" stroke="none" points="-4,4 -4,-57 272,-57 272,4 -4,4"/>
<!-- Node0 -->
<g id="node1" class="node"><title>Node0</title>
<g id="a_node1"><a xlink:href="structimmer_1_1detail_1_1rbts_1_1visitor__base.html" target="_top" xlink:title="immer::detail::rbts\l::visitor_base\&lt; slice\l_left_visitor\&lt; NodeT,\l Collapse \&gt; \&gt;">
<polygon fill="white" stroke="black" points="0,-0.5 0,-52.5 116,-52.5 116,-0.5 0,-0.5"/>
<text text-anchor="start" x="8" y="-40.5" font-family="Helvetica,sans-Serif" font-size="10.00">immer::detail::rbts</text>
<text text-anchor="start" x="8" y="-29.5" font-family="Helvetica,sans-Serif" font-size="10.00">::visitor_base&lt; slice</text>
<text text-anchor="start" x="8" y="-18.5" font-family="Helvetica,sans-Serif" font-size="10.00">_left_visitor&lt; NodeT,</text>
<text text-anchor="middle" x="58" y="-7.5" font-family="Helvetica,sans-Serif" font-size="10.00"> Collapse &gt; &gt;</text>
</a>
</g>
</g>
<!-- Node1 -->
<g id="node2" class="node"><title>Node1</title>
<g id="a_node2"><a xlink:href="structimmer_1_1detail_1_1rbts_1_1slice__left__visitor.html" target="_top" xlink:title="immer::detail::rbts\l::slice_left_visitor\l\&lt; NodeT, Collapse \&gt;">
<polygon fill="white" stroke="black" points="152,-6 152,-47 268,-47 268,-6 152,-6"/>
<text text-anchor="start" x="160" y="-35" font-family="Helvetica,sans-Serif" font-size="10.00">immer::detail::rbts</text>
<text text-anchor="start" x="160" y="-24" font-family="Helvetica,sans-Serif" font-size="10.00">::slice_left_visitor</text>
<text text-anchor="middle" x="210" y="-13" font-family="Helvetica,sans-Serif" font-size="10.00">&lt; NodeT, Collapse &gt;</text>
</a>
</g>
</g>
<!-- Node0&#45;&gt;Node1 -->
<g id="edge1" class="edge"><title>Node0&#45;&gt;Node1</title>
<path fill="none" stroke="midnightblue" d="M126.311,-26.5C134.728,-26.5 143.277,-26.5 151.525,-26.5"/>
<polygon fill="midnightblue" stroke="midnightblue" points="126.137,-23.0001 116.136,-26.5 126.136,-30.0001 126.137,-23.0001"/>
</g>
</g>
</svg>
