<?xml version="1.0" encoding="UTF-8" standalone="no"?>
<!DOCTYPE svg PUBLIC "-//W3C//DTD SVG 1.1//EN"
 "http://www.w3.org/Graphics/SVG/1.1/DTD/svg11.dtd">
<!-- Generated by graphviz version 2.38.0 (20140413.2041)
 -->
<!-- Title: Graphical Class Hierarchy Pages: 1 -->
<svg width="269pt" height="142pt"
 viewBox="0.00 0.00 269.00 142.00" xmlns="http://www.w3.org/2000/svg" xmlns:xlink="http://www.w3.org/1999/xlink">
<g id="graph0" class="graph" transform="scale(1 1) rotate(0) translate(4 138)">
<title>Graphical Class Hierarchy</title>
<polygon fill="white" stroke="none" points="-4,4 -4,-138 265,-138 265,4 -4,4"/>
<!-- Node309 -->
<g id="node1" class="node"><title>Node309</title>
<polygon fill="white" stroke="#bfbfbf" points="0,-57.5 0,-76.5 66,-76.5 66,-57.5 0,-57.5"/>
<text text-anchor="middle" x="33" y="-64.5" font-family="Helvetica,sans-Serif" font-size="10.00">QValidator</text>
</g>
<!-- Node0 -->
<g id="node2" class="node"><title>Node0</title>
<g id="a_node2"><a xlink:href="class_amount_validator.html" target="_top" xlink:title="Amount widget validator, checks for valid CAmount value. ">
<polygon fill="white" stroke="black" points="133,-114.5 133,-133.5 230,-133.5 230,-114.5 133,-114.5"/>
<text text-anchor="middle" x="181.5" y="-121.5" font-family="Helvetica,sans-Serif" font-size="10.00">AmountValidator</text>
</a>
</g>
</g>
<!-- Node309&#45;&gt;Node0 -->
<g id="edge1" class="edge"><title>Node309&#45;&gt;Node0</title>
<path fill="none" stroke="midnightblue" d="M56.9153,-81.8732C69.7521,-89.6671 86.2953,-98.8448 102,-105 111.791,-108.838 122.583,-112.057 132.949,-114.692"/>
<polygon fill="midnightblue" stroke="midnightblue" points="58.6279,-78.8166 48.2882,-76.5056 54.93,-84.7601 58.6279,-78.8166"/>
</g>
<!-- Node311 -->
<g id="node3" class="node"><title>Node311</title>
<g id="a_node3"><a xlink:href="class_bitcoin_address_check_validator.html" target="_top" xlink:title="Bitcoin address widget validator, checks for a valid bitcoin address. ">
<polygon fill="white" stroke="black" points="102,-76.5 102,-95.5 261,-95.5 261,-76.5 102,-76.5"/>
<text text-anchor="middle" x="181.5" y="-83.5" font-family="Helvetica,sans-Serif" font-size="10.00">BitcoinAddressCheckValidator</text>
</a>
</g>
</g>
<!-- Node309&#45;&gt;Node311 -->
<g id="edge2" class="edge"><title>Node309&#45;&gt;Node311</title>
<path fill="none" stroke="midnightblue" d="M76.2443,-72.4788C85.9041,-73.7316 96.4461,-75.0988 106.995,-76.4669"/>
<polygon fill="midnightblue" stroke="midnightblue" points="76.5172,-68.9849 66.15,-71.1696 75.6168,-75.9268 76.5172,-68.9849"/>
</g>
<!-- Node312 -->
<g id="node4" class="node"><title>Node312</title>
<g id="a_node4"><a xlink:href="class_bitcoin_address_entry_validator.html" target="_top" xlink:title="Base58 entry widget validator, checks for valid characters and removes some whitespace. ">
<polygon fill="white" stroke="black" points="104,-38.5 104,-57.5 259,-57.5 259,-38.5 104,-38.5"/>
<text text-anchor="middle" x="181.5" y="-45.5" font-family="Helvetica,sans-Serif" font-size="10.00">BitcoinAddressEntryValidator</text>
</a>
</g>
</g>
<!-- Node309&#45;&gt;Node312 -->
<g id="edge3" class="edge"><title>Node309&#45;&gt;Node312</title>
<path fill="none" stroke="midnightblue" d="M76.2443,-61.5212C85.9041,-60.2684 96.4461,-58.9012 106.995,-57.5331"/>
<polygon fill="midnightblue" stroke="midnightblue" points="75.6168,-58.0732 66.15,-62.8304 76.5172,-65.0151 75.6168,-58.0732"/>
</g>
<!-- Node313 -->
<g id="node5" class="node"><title>Node313</title>
<g id="a_node5"><a xlink:href="class_proxy_address_validator.html" target="_top" xlink:title="Proxy address widget validator, checks for a valid proxy address. ">
<polygon fill="white" stroke="black" points="119.5,-0.5 119.5,-19.5 243.5,-19.5 243.5,-0.5 119.5,-0.5"/>
<text text-anchor="middle" x="181.5" y="-7.5" font-family="Helvetica,sans-Serif" font-size="10.00">ProxyAddressValidator</text>
</a>
</g>
</g>
<!-- Node309&#45;&gt;Node313 -->
<g id="edge4" class="edge"><title>Node309&#45;&gt;Node313</title>
<path fill="none" stroke="midnightblue" d="M56.9153,-52.1268C69.7521,-44.3329 86.2953,-35.1552 102,-29 111.53,-25.2648 122.008,-22.1149 132.119,-19.5201"/>
<polygon fill="midnightblue" stroke="midnightblue" points="54.93,-49.2399 48.2882,-57.4944 58.6279,-55.1834 54.93,-49.2399"/>
</g>
</g>
</svg>
