<?xml version="1.0" encoding="UTF-8" standalone="no"?>
<!DOCTYPE svg PUBLIC "-//W3C//DTD SVG 1.1//EN"
 "http://www.w3.org/Graphics/SVG/1.1/DTD/svg11.dtd">
<!-- Generated by graphviz version 2.38.0 (20140413.2041)
 -->
<!-- Title: Graphical Class Hierarchy Pages: 1 -->
<svg width="283pt" height="66pt"
 viewBox="0.00 0.00 283.00 66.00" xmlns="http://www.w3.org/2000/svg" xmlns:xlink="http://www.w3.org/1999/xlink">
<g id="graph0" class="graph" transform="scale(1 1) rotate(0) translate(4 62)">
<title>Graphical Class Hierarchy</title>
<polygon fill="white" stroke="none" points="-4,4 -4,-62 279,-62 279,4 -4,4"/>
<!-- Node0 -->
<g id="node1" class="node"><title>Node0</title>
<g id="a_node1"><a xlink:href="db/d50/classbase__blob.html" target="_top" xlink:title="base_blob\&lt; 160 \&gt;">
<polygon fill="white" stroke="black" points="0,-19.5 0,-38.5 95,-38.5 95,-19.5 0,-19.5"/>
<text text-anchor="middle" x="47.5" y="-26.5" font-family="Helvetica,sans-Serif" font-size="10.00">base_blob&lt; 160 &gt;</text>
</a>
</g>
</g>
<!-- Node1 -->
<g id="node2" class="node"><title>Node1</title>
<g id="a_node2"><a xlink:href="d3/d99/classuint160.html" target="_top" xlink:title="160&#45;bit opaque blob. ">
<polygon fill="white" stroke="black" points="131,-19.5 131,-38.5 179,-38.5 179,-19.5 131,-19.5"/>
<text text-anchor="middle" x="155" y="-26.5" font-family="Helvetica,sans-Serif" font-size="10.00">uint160</text>
</a>
</g>
</g>
<!-- Node0&#45;&gt;Node1 -->
<g id="edge1" class="edge"><title>Node0&#45;&gt;Node1</title>
<path fill="none" stroke="midnightblue" d="M105.27,-29C114.285,-29 123.143,-29 130.782,-29"/>
<polygon fill="midnightblue" stroke="midnightblue" points="105.081,-25.5001 95.0809,-29 105.081,-32.5001 105.081,-25.5001"/>
</g>
<!-- Node2 -->
<g id="node3" class="node"><title>Node2</title>
<g id="a_node3"><a xlink:href="dd/d88/class_c_key_i_d.html" target="_top" xlink:title="secp256k1: const unsigned int PRIVATE_KEY_SIZE = 279; const unsigned int PUBLIC_KEY_SIZE = 65; const ...">
<polygon fill="white" stroke="black" points="219,-38.5 219,-57.5 271,-57.5 271,-38.5 219,-38.5"/>
<text text-anchor="middle" x="245" y="-45.5" font-family="Helvetica,sans-Serif" font-size="10.00">CKeyID</text>
</a>
</g>
</g>
<!-- Node1&#45;&gt;Node2 -->
<g id="edge2" class="edge"><title>Node1&#45;&gt;Node2</title>
<path fill="none" stroke="midnightblue" d="M189.041,-36.1338C198.92,-38.2669 209.587,-40.5699 218.871,-42.5744"/>
<polygon fill="midnightblue" stroke="midnightblue" points="189.634,-32.6814 179.121,-33.992 188.157,-39.5237 189.634,-32.6814"/>
</g>
<!-- Node3 -->
<g id="node4" class="node"><title>Node3</title>
<g id="a_node4"><a xlink:href="d2/d21/class_c_script_i_d.html" target="_top" xlink:title="A reference to a CScript: the Hash160 of its serialization (see script.h) ">
<polygon fill="white" stroke="black" points="215,-0.5 215,-19.5 275,-19.5 275,-0.5 215,-0.5"/>
<text text-anchor="middle" x="245" y="-7.5" font-family="Helvetica,sans-Serif" font-size="10.00">CScriptID</text>
</a>
</g>
</g>
<!-- Node1&#45;&gt;Node3 -->
<g id="edge3" class="edge"><title>Node1&#45;&gt;Node3</title>
<path fill="none" stroke="midnightblue" d="M189.038,-21.8668C197.476,-20.0449 206.489,-18.099 214.724,-16.3209"/>
<polygon fill="midnightblue" stroke="midnightblue" points="188.157,-18.4763 179.121,-24.008 189.634,-25.3186 188.157,-18.4763"/>
</g>
</g>
</svg>
