<?xml version="1.0" encoding="UTF-8" standalone="no"?>
<!DOCTYPE svg PUBLIC "-//W3C//DTD SVG 1.1//EN"
 "http://www.w3.org/Graphics/SVG/1.1/DTD/svg11.dtd">
<!-- Generated by graphviz version 2.38.0 (20140413.2041)
 -->
<!-- Title: src/keystore.h Pages: 1 -->
<svg width="2969pt" height="319pt"
 viewBox="0.00 0.00 2969.00 319.00" xmlns="http://www.w3.org/2000/svg" xmlns:xlink="http://www.w3.org/1999/xlink">
<g id="graph0" class="graph" transform="scale(1 1) rotate(0) translate(4 315)">
<title>src/keystore.h</title>
<polygon fill="white" stroke="none" points="-4,4 -4,-315 2965,-315 2965,4 -4,4"/>
<!-- Node63 -->
<g id="node1" class="node"><title>Node63</title>
<polygon fill="#bfbfbf" stroke="black" points="2415.5,-291.5 2415.5,-310.5 2494.5,-310.5 2494.5,-291.5 2415.5,-291.5"/>
<text text-anchor="middle" x="2455" y="-298.5" font-family="Helvetica,sans-Serif" font-size="10.00">src/keystore.h</text>
</g>
<!-- Node64 -->
<g id="node2" class="node"><title>Node64</title>
<g id="a_node2"><a xlink:href="dash-tx_8cpp.html" target="_top" xlink:title="src/dash&#45;tx.cpp">
<polygon fill="white" stroke="black" points="0,-235.5 0,-254.5 84,-254.5 84,-235.5 0,-235.5"/>
<text text-anchor="middle" x="42" y="-242.5" font-family="Helvetica,sans-Serif" font-size="10.00">src/dash&#45;tx.cpp</text>
</a>
</g>
</g>
<!-- Node63&#45;&gt;Node64 -->
<g id="edge1" class="edge"><title>Node63&#45;&gt;Node64</title>
<path fill="none" stroke="midnightblue" d="M2405.47,-300.001C2109.23,-299.867 568.855,-297.122 98,-255 93.4884,-254.596 88.7901,-254.047 84.1177,-253.418"/>
<polygon fill="midnightblue" stroke="midnightblue" points="2405.48,-303.501 2415.48,-300.005 2405.48,-296.501 2405.48,-303.501"/>
</g>
<!-- Node65 -->
<g id="node3" class="node"><title>Node65</title>
<g id="a_node3"><a xlink:href="crypter_8h.html" target="_top" xlink:title="src/wallet/crypter.h">
<polygon fill="white" stroke="black" points="1915,-235.5 1915,-254.5 2015,-254.5 2015,-235.5 1915,-235.5"/>
<text text-anchor="middle" x="1965" y="-242.5" font-family="Helvetica,sans-Serif" font-size="10.00">src/wallet/crypter.h</text>
</a>
</g>
</g>
<!-- Node63&#45;&gt;Node65 -->
<g id="edge2" class="edge"><title>Node63&#45;&gt;Node65</title>
<path fill="none" stroke="midnightblue" d="M2405.23,-294.515C2311.38,-284.173 2109.26,-261.898 2015.13,-251.525"/>
<polygon fill="midnightblue" stroke="midnightblue" points="2404.99,-298.01 2415.32,-295.627 2405.76,-291.052 2404.99,-298.01"/>
</g>
<!-- Node73 -->
<g id="node11" class="node"><title>Node73</title>
<g id="a_node11"><a xlink:href="walletmodel_8cpp.html" target="_top" xlink:title="src/qt/walletmodel.cpp">
<polygon fill="white" stroke="black" points="2342.5,-0.5 2342.5,-19.5 2457.5,-19.5 2457.5,-0.5 2342.5,-0.5"/>
<text text-anchor="middle" x="2400" y="-7.5" font-family="Helvetica,sans-Serif" font-size="10.00">src/qt/walletmodel.cpp</text>
</a>
</g>
</g>
<!-- Node63&#45;&gt;Node73 -->
<g id="edge33" class="edge"><title>Node63&#45;&gt;Node73</title>
<path fill="none" stroke="midnightblue" d="M2445.41,-282.4C2434.74,-261.15 2419,-224.018 2419,-190 2419,-190 2419,-190 2419,-126.5 2419,-86.06 2407.52,-38.6992 2402.41,-19.6136"/>
<polygon fill="midnightblue" stroke="midnightblue" points="2442.41,-284.228 2450.14,-291.473 2448.62,-280.988 2442.41,-284.228"/>
</g>
<!-- Node74 -->
<g id="node12" class="node"><title>Node74</title>
<g id="a_node12"><a xlink:href="wallet_8cpp.html" target="_top" xlink:title="src/wallet/wallet.cpp">
<polygon fill="white" stroke="black" points="97,-0.5 97,-19.5 203,-19.5 203,-0.5 97,-0.5"/>
<text text-anchor="middle" x="150" y="-7.5" font-family="Helvetica,sans-Serif" font-size="10.00">src/wallet/wallet.cpp</text>
</a>
</g>
</g>
<!-- Node63&#45;&gt;Node74 -->
<g id="edge36" class="edge"><title>Node63&#45;&gt;Node74</title>
<path fill="none" stroke="midnightblue" d="M2405.32,-299.007C2066.72,-292.079 112,-249.512 112,-190 112,-190 112,-190 112,-126.5 112,-84.7033 134.732,-38.4681 145.032,-19.6633"/>
<polygon fill="midnightblue" stroke="midnightblue" points="2405.25,-302.506 2415.32,-299.211 2405.39,-295.507 2405.25,-302.506"/>
</g>
<!-- Node91 -->
<g id="node29" class="node"><title>Node91</title>
<g id="a_node29"><a xlink:href="keystore_8cpp.html" target="_top" xlink:title="src/keystore.cpp">
<polygon fill="white" stroke="black" points="2447.5,-235.5 2447.5,-254.5 2536.5,-254.5 2536.5,-235.5 2447.5,-235.5"/>
<text text-anchor="middle" x="2492" y="-242.5" font-family="Helvetica,sans-Serif" font-size="10.00">src/keystore.cpp</text>
</a>
</g>
</g>
<!-- Node63&#45;&gt;Node91 -->
<g id="edge32" class="edge"><title>Node63&#45;&gt;Node91</title>
<path fill="none" stroke="midnightblue" d="M2466.95,-282.566C2473.31,-273.275 2480.87,-262.248 2486,-254.751"/>
<polygon fill="midnightblue" stroke="midnightblue" points="2463.87,-280.855 2461.11,-291.083 2469.65,-284.812 2463.87,-280.855"/>
</g>
<!-- Node92 -->
<g id="node30" class="node"><title>Node92</title>
<g id="a_node30"><a xlink:href="rawtransaction_8cpp.html" target="_top" xlink:title="src/rpc/rawtransaction.cpp">
<polygon fill="white" stroke="black" points="2555,-235.5 2555,-254.5 2687,-254.5 2687,-235.5 2555,-235.5"/>
<text text-anchor="middle" x="2621" y="-242.5" font-family="Helvetica,sans-Serif" font-size="10.00">src/rpc/rawtransaction.cpp</text>
</a>
</g>
</g>
<!-- Node63&#45;&gt;Node92 -->
<g id="edge34" class="edge"><title>Node63&#45;&gt;Node92</title>
<path fill="none" stroke="midnightblue" d="M2490.95,-288.304C2522.23,-278.129 2566.82,-263.625 2594.82,-254.516"/>
<polygon fill="midnightblue" stroke="midnightblue" points="2489.73,-285.022 2481.3,-291.444 2491.9,-291.678 2489.73,-285.022"/>
</g>
<!-- Node93 -->
<g id="node31" class="node"><title>Node93</title>
<g id="a_node31"><a xlink:href="sign_8cpp.html" target="_top" xlink:title="src/script/sign.cpp">
<polygon fill="white" stroke="black" points="2705.5,-235.5 2705.5,-254.5 2802.5,-254.5 2802.5,-235.5 2705.5,-235.5"/>
<text text-anchor="middle" x="2754" y="-242.5" font-family="Helvetica,sans-Serif" font-size="10.00">src/script/sign.cpp</text>
</a>
</g>
</g>
<!-- Node63&#45;&gt;Node93 -->
<g id="edge35" class="edge"><title>Node63&#45;&gt;Node93</title>
<path fill="none" stroke="midnightblue" d="M2504.77,-291.011C2560.94,-280.868 2651.62,-264.49 2706.73,-254.537"/>
<polygon fill="midnightblue" stroke="midnightblue" points="2503.92,-287.608 2494.7,-292.829 2505.17,-294.496 2503.92,-287.608"/>
</g>
<!-- Node94 -->
<g id="node32" class="node"><title>Node94</title>
<g id="a_node32"><a xlink:href="wallet__ismine_8cpp.html" target="_top" xlink:title="src/wallet/wallet_ismine.cpp">
<polygon fill="white" stroke="black" points="2821,-235.5 2821,-254.5 2961,-254.5 2961,-235.5 2821,-235.5"/>
<text text-anchor="middle" x="2891" y="-242.5" font-family="Helvetica,sans-Serif" font-size="10.00">src/wallet/wallet_ismine.cpp</text>
</a>
</g>
</g>
<!-- Node63&#45;&gt;Node94 -->
<g id="edge37" class="edge"><title>Node63&#45;&gt;Node94</title>
<path fill="none" stroke="midnightblue" d="M2504.91,-293.819C2582.96,-284.151 2734.12,-265.43 2822.37,-254.5"/>
<polygon fill="midnightblue" stroke="midnightblue" points="2504.34,-290.362 2494.85,-295.065 2505.2,-297.309 2504.34,-290.362"/>
</g>
<!-- Node66 -->
<g id="node4" class="node"><title>Node66</title>
<g id="a_node4"><a xlink:href="keepass_8cpp.html" target="_top" xlink:title="src/keepass.cpp">
<polygon fill="white" stroke="black" points="1861.5,-179.5 1861.5,-198.5 1950.5,-198.5 1950.5,-179.5 1861.5,-179.5"/>
<text text-anchor="middle" x="1906" y="-186.5" font-family="Helvetica,sans-Serif" font-size="10.00">src/keepass.cpp</text>
</a>
</g>
</g>
<!-- Node65&#45;&gt;Node66 -->
<g id="edge3" class="edge"><title>Node65&#45;&gt;Node66</title>
<path fill="none" stroke="midnightblue" d="M1948.11,-228.537C1937.59,-218.909 1924.43,-206.869 1915.65,-198.834"/>
<polygon fill="midnightblue" stroke="midnightblue" points="1945.78,-231.154 1955.52,-235.324 1950.51,-225.99 1945.78,-231.154"/>
</g>
<!-- Node67 -->
<g id="node5" class="node"><title>Node67</title>
<g id="a_node5"><a xlink:href="wallet_8h.html" target="_top" xlink:title="src/wallet/wallet.h">
<polygon fill="white" stroke="black" points="1435.5,-179.5 1435.5,-198.5 1530.5,-198.5 1530.5,-179.5 1435.5,-179.5"/>
<text text-anchor="middle" x="1483" y="-186.5" font-family="Helvetica,sans-Serif" font-size="10.00">src/wallet/wallet.h</text>
</a>
</g>
</g>
<!-- Node65&#45;&gt;Node67 -->
<g id="edge4" class="edge"><title>Node65&#45;&gt;Node67</title>
<path fill="none" stroke="midnightblue" d="M1904.84,-237.26C1807.85,-226.394 1618.89,-205.225 1530.6,-195.333"/>
<polygon fill="midnightblue" stroke="midnightblue" points="1904.45,-240.739 1914.78,-238.374 1905.23,-233.782 1904.45,-240.739"/>
</g>
<!-- Node90 -->
<g id="node28" class="node"><title>Node90</title>
<g id="a_node28"><a xlink:href="crypter_8cpp.html" target="_top" xlink:title="src/wallet/crypter.cpp">
<polygon fill="white" stroke="black" points="1969,-179.5 1969,-198.5 2079,-198.5 2079,-179.5 1969,-179.5"/>
<text text-anchor="middle" x="2024" y="-186.5" font-family="Helvetica,sans-Serif" font-size="10.00">src/wallet/crypter.cpp</text>
</a>
</g>
</g>
<!-- Node65&#45;&gt;Node90 -->
<g id="edge31" class="edge"><title>Node65&#45;&gt;Node90</title>
<path fill="none" stroke="midnightblue" d="M1981.89,-228.537C1992.41,-218.909 2005.57,-206.869 2014.35,-198.834"/>
<polygon fill="midnightblue" stroke="midnightblue" points="1979.49,-225.99 1974.48,-235.324 1984.22,-231.154 1979.49,-225.99"/>
</g>
<!-- Node68 -->
<g id="node6" class="node"><title>Node68</title>
<g id="a_node6"><a xlink:href="privatesend-client_8h.html" target="_top" xlink:title="src/privatesend&#45;client.h">
<polygon fill="white" stroke="black" points="1972,-56.5 1972,-75.5 2090,-75.5 2090,-56.5 1972,-56.5"/>
<text text-anchor="middle" x="2031" y="-63.5" font-family="Helvetica,sans-Serif" font-size="10.00">src/privatesend&#45;client.h</text>
</a>
</g>
</g>
<!-- Node67&#45;&gt;Node68 -->
<g id="edge5" class="edge"><title>Node67&#45;&gt;Node68</title>
<path fill="none" stroke="midnightblue" d="M1540.6,-186.916C1720.33,-183.256 2260.43,-170.043 2286,-143 2345.19,-80.3987 2182.8,-68.6736 2090.27,-66.9212"/>
<polygon fill="midnightblue" stroke="midnightblue" points="1540.47,-183.418 1530.54,-187.119 1540.61,-190.417 1540.47,-183.418"/>
</g>
<!-- Node70 -->
<g id="node8" class="node"><title>Node70</title>
<g id="a_node8"><a xlink:href="coincontroldialog_8cpp.html" target="_top" xlink:title="src/qt/coincontroldialog.cpp">
<polygon fill="white" stroke="black" points="2188,-0.5 2188,-19.5 2324,-19.5 2324,-0.5 2188,-0.5"/>
<text text-anchor="middle" x="2256" y="-7.5" font-family="Helvetica,sans-Serif" font-size="10.00">src/qt/coincontroldialog.cpp</text>
</a>
</g>
</g>
<!-- Node67&#45;&gt;Node70 -->
<g id="edge16" class="edge"><title>Node67&#45;&gt;Node70</title>
<path fill="none" stroke="midnightblue" d="M1540.76,-186.995C1723.69,-183.533 2279.72,-170.76 2306,-143 2340.88,-106.165 2286.66,-42.5942 2264.63,-19.6082"/>
<polygon fill="midnightblue" stroke="midnightblue" points="1540.47,-183.5 1530.54,-187.186 1540.6,-190.498 1540.47,-183.5"/>
</g>
<!-- Node67&#45;&gt;Node73 -->
<g id="edge24" class="edge"><title>Node67&#45;&gt;Node73</title>
<path fill="none" stroke="midnightblue" d="M1540.66,-186.432C1725.28,-181.215 2291.68,-163.6 2325,-143 2371.85,-114.031 2392.19,-44.3824 2398.08,-19.7848"/>
<polygon fill="midnightblue" stroke="midnightblue" points="1540.51,-182.935 1530.61,-186.715 1540.7,-189.932 1540.51,-182.935"/>
</g>
<!-- Node67&#45;&gt;Node74 -->
<g id="edge29" class="edge"><title>Node67&#45;&gt;Node74</title>
<path fill="none" stroke="midnightblue" d="M1425.23,-188.067C1177.62,-188.096 216.353,-185.465 169,-143 133.147,-110.848 143.012,-43.8023 147.972,-19.7906"/>
<polygon fill="midnightblue" stroke="midnightblue" points="1425.46,-191.567 1435.45,-188.064 1425.45,-184.567 1425.46,-191.567"/>
</g>
<!-- Node75 -->
<g id="node13" class="node"><title>Node75</title>
<g id="a_node13"><a xlink:href="privatesend-util_8h.html" target="_top" xlink:title="src/privatesend&#45;util.h">
<polygon fill="white" stroke="black" points="178.5,-118 178.5,-137 285.5,-137 285.5,-118 178.5,-118"/>
<text text-anchor="middle" x="232" y="-125" font-family="Helvetica,sans-Serif" font-size="10.00">src/privatesend&#45;util.h</text>
</a>
</g>
</g>
<!-- Node67&#45;&gt;Node75 -->
<g id="edge12" class="edge"><title>Node67&#45;&gt;Node75</title>
<path fill="none" stroke="midnightblue" d="M1425.44,-187.256C1219.17,-184.366 517.457,-172.545 295,-143 284.764,-141.641 273.749,-139.386 263.836,-137.054"/>
<polygon fill="midnightblue" stroke="midnightblue" points="1425.41,-190.756 1435.46,-187.395 1425.51,-183.757 1425.41,-190.756"/>
</g>
<!-- Node77 -->
<g id="node15" class="node"><title>Node77</title>
<g id="a_node15"><a xlink:href="addresstablemodel_8cpp.html" target="_top" xlink:title="src/qt/addresstablemodel.cpp">
<polygon fill="white" stroke="black" points="303.5,-118 303.5,-137 448.5,-137 448.5,-118 303.5,-118"/>
<text text-anchor="middle" x="376" y="-125" font-family="Helvetica,sans-Serif" font-size="10.00">src/qt/addresstablemodel.cpp</text>
</a>
</g>
</g>
<!-- Node67&#45;&gt;Node77 -->
<g id="edge15" class="edge"><title>Node67&#45;&gt;Node77</title>
<path fill="none" stroke="midnightblue" d="M1424.99,-188.112C1268.45,-187.839 824.497,-183.273 458,-143 444.923,-141.563 430.781,-139.315 417.985,-137.015"/>
<polygon fill="midnightblue" stroke="midnightblue" points="1425.31,-191.612 1435.32,-188.124 1425.32,-184.612 1425.31,-191.612"/>
</g>
<!-- Node78 -->
<g id="node16" class="node"><title>Node78</title>
<g id="a_node16"><a xlink:href="masternodelist_8cpp.html" target="_top" xlink:title="src/qt/masternodelist.cpp">
<polygon fill="white" stroke="black" points="466.5,-118 466.5,-137 593.5,-137 593.5,-118 466.5,-118"/>
<text text-anchor="middle" x="530" y="-125" font-family="Helvetica,sans-Serif" font-size="10.00">src/qt/masternodelist.cpp</text>
</a>
</g>
</g>
<!-- Node67&#45;&gt;Node78 -->
<g id="edge17" class="edge"><title>Node67&#45;&gt;Node78</title>
<path fill="none" stroke="midnightblue" d="M1424.93,-187.934C1283.66,-187.142 911.057,-181.266 603,-143 591.46,-141.566 579.011,-139.349 567.719,-137.075"/>
<polygon fill="midnightblue" stroke="midnightblue" points="1425.08,-191.434 1435.09,-187.984 1425.11,-184.435 1425.08,-191.434"/>
</g>
<!-- Node79 -->
<g id="node17" class="node"><title>Node79</title>
<g id="a_node17"><a xlink:href="paymentserver_8cpp.html" target="_top" xlink:title="src/qt/paymentserver.cpp">
<polygon fill="white" stroke="black" points="612,-118 612,-137 740,-137 740,-118 612,-118"/>
<text text-anchor="middle" x="676" y="-125" font-family="Helvetica,sans-Serif" font-size="10.00">src/qt/paymentserver.cpp</text>
</a>
</g>
</g>
<!-- Node67&#45;&gt;Node79 -->
<g id="edge18" class="edge"><title>Node67&#45;&gt;Node79</title>
<path fill="none" stroke="midnightblue" d="M1425.15,-187.044C1301.01,-184.424 1000.01,-175.026 750,-143 738.443,-141.52 725.978,-139.316 714.633,-137.071"/>
<polygon fill="midnightblue" stroke="midnightblue" points="1425.13,-190.544 1435.2,-187.249 1425.27,-183.546 1425.13,-190.544"/>
</g>
<!-- Node80 -->
<g id="node18" class="node"><title>Node80</title>
<g id="a_node18"><a xlink:href="sendcoinsdialog_8cpp.html" target="_top" xlink:title="src/qt/sendcoinsdialog.cpp">
<polygon fill="white" stroke="black" points="758.5,-118 758.5,-137 891.5,-137 891.5,-118 758.5,-118"/>
<text text-anchor="middle" x="825" y="-125" font-family="Helvetica,sans-Serif" font-size="10.00">src/qt/sendcoinsdialog.cpp</text>
</a>
</g>
</g>
<!-- Node67&#45;&gt;Node80 -->
<g id="edge19" class="edge"><title>Node67&#45;&gt;Node80</title>
<path fill="none" stroke="midnightblue" d="M1425.23,-185.667C1320.4,-180.961 1092.02,-168.527 901,-143 889.284,-141.434 876.642,-139.232 865.095,-137.015"/>
<polygon fill="midnightblue" stroke="midnightblue" points="1425.14,-189.167 1435.28,-186.112 1425.45,-182.173 1425.14,-189.167"/>
</g>
<!-- Node81 -->
<g id="node19" class="node"><title>Node81</title>
<g id="a_node19"><a xlink:href="signverifymessagedialog_8cpp.html" target="_top" xlink:title="src/qt/signverifymessagedialog.cpp">
<polygon fill="white" stroke="black" points="910,-118 910,-137 1080,-137 1080,-118 910,-118"/>
<text text-anchor="middle" x="995" y="-125" font-family="Helvetica,sans-Serif" font-size="10.00">src/qt/signverifymessagedialog.cpp</text>
</a>
</g>
</g>
<!-- Node67&#45;&gt;Node81 -->
<g id="edge20" class="edge"><title>Node67&#45;&gt;Node81</title>
<path fill="none" stroke="midnightblue" d="M1425.36,-182.134C1348.52,-174.15 1208.34,-159.014 1089,-143 1075.74,-141.221 1061.47,-139.116 1048.14,-137.07"/>
<polygon fill="midnightblue" stroke="midnightblue" points="1425.01,-185.616 1435.32,-183.165 1425.73,-178.654 1425.01,-185.616"/>
</g>
<!-- Node82 -->
<g id="node20" class="node"><title>Node82</title>
<g id="a_node20"><a xlink:href="transactiondesc_8cpp.html" target="_top" xlink:title="src/qt/transactiondesc.cpp">
<polygon fill="white" stroke="black" points="1098,-118 1098,-137 1230,-137 1230,-118 1098,-118"/>
<text text-anchor="middle" x="1164" y="-125" font-family="Helvetica,sans-Serif" font-size="10.00">src/qt/transactiondesc.cpp</text>
</a>
</g>
</g>
<!-- Node67&#45;&gt;Node82 -->
<g id="edge21" class="edge"><title>Node67&#45;&gt;Node82</title>
<path fill="none" stroke="midnightblue" d="M1426.33,-177.692C1376.86,-168.659 1303.15,-155.116 1239,-143 1228.97,-141.105 1218.18,-139.038 1208.01,-137.074"/>
<polygon fill="midnightblue" stroke="midnightblue" points="1425.74,-181.14 1436.2,-179.493 1426.99,-174.254 1425.74,-181.14"/>
</g>
<!-- Node83 -->
<g id="node21" class="node"><title>Node83</title>
<g id="a_node21"><a xlink:href="transactionrecord_8cpp.html" target="_top" xlink:title="src/qt/transactionrecord.cpp">
<polygon fill="white" stroke="black" points="1248,-118 1248,-137 1386,-137 1386,-118 1248,-118"/>
<text text-anchor="middle" x="1317" y="-125" font-family="Helvetica,sans-Serif" font-size="10.00">src/qt/transactionrecord.cpp</text>
</a>
</g>
</g>
<!-- Node67&#45;&gt;Node83 -->
<g id="edge22" class="edge"><title>Node67&#45;&gt;Node83</title>
<path fill="none" stroke="midnightblue" d="M1449.75,-176.083C1417.48,-164.517 1369.32,-147.252 1340.74,-137.009"/>
<polygon fill="midnightblue" stroke="midnightblue" points="1448.62,-179.396 1459.22,-179.475 1450.98,-172.806 1448.62,-179.396"/>
</g>
<!-- Node84 -->
<g id="node22" class="node"><title>Node84</title>
<g id="a_node22"><a xlink:href="transactiontablemodel_8cpp.html" target="_top" xlink:title="src/qt/transactiontablemodel.cpp">
<polygon fill="white" stroke="black" points="1404,-118 1404,-137 1562,-137 1562,-118 1404,-118"/>
<text text-anchor="middle" x="1483" y="-125" font-family="Helvetica,sans-Serif" font-size="10.00">src/qt/transactiontablemodel.cpp</text>
</a>
</g>
</g>
<!-- Node67&#45;&gt;Node84 -->
<g id="edge23" class="edge"><title>Node67&#45;&gt;Node84</title>
<path fill="none" stroke="midnightblue" d="M1483,-169.317C1483,-158.496 1483,-145.398 1483,-137.009"/>
<polygon fill="midnightblue" stroke="midnightblue" points="1479.5,-169.475 1483,-179.475 1486.5,-169.475 1479.5,-169.475"/>
</g>
<!-- Node85 -->
<g id="node23" class="node"><title>Node85</title>
<g id="a_node23"><a xlink:href="walletmodeltransaction_8cpp.html" target="_top" xlink:title="src/qt/walletmodeltransaction.cpp">
<polygon fill="white" stroke="black" points="1580.5,-118 1580.5,-137 1743.5,-137 1743.5,-118 1580.5,-118"/>
<text text-anchor="middle" x="1662" y="-125" font-family="Helvetica,sans-Serif" font-size="10.00">src/qt/walletmodeltransaction.cpp</text>
</a>
</g>
</g>
<!-- Node67&#45;&gt;Node85 -->
<g id="edge25" class="edge"><title>Node67&#45;&gt;Node85</title>
<path fill="none" stroke="midnightblue" d="M1518.4,-176.232C1553.2,-164.666 1605.45,-147.297 1636.4,-137.009"/>
<polygon fill="midnightblue" stroke="midnightblue" points="1517.03,-172.999 1508.65,-179.475 1519.24,-179.642 1517.03,-172.999"/>
</g>
<!-- Node86 -->
<g id="node24" class="node"><title>Node86</title>
<g id="a_node24"><a xlink:href="rpcdump_8cpp.html" target="_top" xlink:title="src/wallet/rpcdump.cpp">
<polygon fill="white" stroke="black" points="1762,-118 1762,-137 1880,-137 1880,-118 1762,-118"/>
<text text-anchor="middle" x="1821" y="-125" font-family="Helvetica,sans-Serif" font-size="10.00">src/wallet/rpcdump.cpp</text>
</a>
</g>
</g>
<!-- Node67&#45;&gt;Node86 -->
<g id="edge26" class="edge"><title>Node67&#45;&gt;Node86</title>
<path fill="none" stroke="midnightblue" d="M1541.12,-179.086C1595.89,-170.504 1680.19,-156.823 1753,-143 1762.61,-141.176 1772.94,-139.055 1782.58,-137.007"/>
<polygon fill="midnightblue" stroke="midnightblue" points="1540.25,-175.68 1530.91,-180.681 1541.33,-182.596 1540.25,-175.68"/>
</g>
<!-- Node87 -->
<g id="node25" class="node"><title>Node87</title>
<g id="a_node25"><a xlink:href="rpcwallet_8cpp.html" target="_top" xlink:title="src/wallet/rpcwallet.cpp">
<polygon fill="white" stroke="black" points="1898.5,-118 1898.5,-137 2017.5,-137 2017.5,-118 1898.5,-118"/>
<text text-anchor="middle" x="1958" y="-125" font-family="Helvetica,sans-Serif" font-size="10.00">src/wallet/rpcwallet.cpp</text>
</a>
</g>
</g>
<!-- Node67&#45;&gt;Node87 -->
<g id="edge27" class="edge"><title>Node67&#45;&gt;Node87</title>
<path fill="none" stroke="midnightblue" d="M1540.93,-183.355C1619.92,-176.617 1765.69,-162.743 1889,-143 1899.27,-141.355 1910.33,-139.204 1920.52,-137.064"/>
<polygon fill="midnightblue" stroke="midnightblue" points="1540.37,-179.889 1530.7,-184.219 1540.96,-186.864 1540.37,-179.889"/>
</g>
<!-- Node88 -->
<g id="node26" class="node"><title>Node88</title>
<g id="a_node26"><a xlink:href="wallet__tests_8cpp.html" target="_top" xlink:title="src/wallet/test/wallet\l_tests.cpp">
<polygon fill="white" stroke="black" points="2035.5,-112.5 2035.5,-142.5 2142.5,-142.5 2142.5,-112.5 2035.5,-112.5"/>
<text text-anchor="start" x="2043.5" y="-130.5" font-family="Helvetica,sans-Serif" font-size="10.00">src/wallet/test/wallet</text>
<text text-anchor="middle" x="2089" y="-119.5" font-family="Helvetica,sans-Serif" font-size="10.00">_tests.cpp</text>
</a>
</g>
</g>
<!-- Node67&#45;&gt;Node88 -->
<g id="edge28" class="edge"><title>Node67&#45;&gt;Node88</title>
<path fill="none" stroke="midnightblue" d="M1540.74,-186.016C1640.45,-181.969 1851.14,-170.683 2027,-143 2029.73,-142.57 2032.52,-142.086 2035.33,-141.562"/>
<polygon fill="midnightblue" stroke="midnightblue" points="1540.43,-182.526 1530.58,-186.419 1540.71,-189.52 1540.43,-182.526"/>
</g>
<!-- Node89 -->
<g id="node27" class="node"><title>Node89</title>
<g id="a_node27"><a xlink:href="walletdb_8cpp.html" target="_top" xlink:title="src/wallet/walletdb.cpp">
<polygon fill="white" stroke="black" points="2161,-118 2161,-137 2277,-137 2277,-118 2161,-118"/>
<text text-anchor="middle" x="2219" y="-125" font-family="Helvetica,sans-Serif" font-size="10.00">src/wallet/walletdb.cpp</text>
</a>
</g>
</g>
<!-- Node67&#45;&gt;Node89 -->
<g id="edge30" class="edge"><title>Node67&#45;&gt;Node89</title>
<path fill="none" stroke="midnightblue" d="M1540.8,-186.948C1657.08,-184.208 1927.38,-174.687 2152,-143 2162.49,-141.52 2173.78,-139.317 2184.05,-137.072"/>
<polygon fill="midnightblue" stroke="midnightblue" points="1540.62,-183.451 1530.7,-187.178 1540.78,-190.45 1540.62,-183.451"/>
</g>
<!-- Node69 -->
<g id="node7" class="node"><title>Node69</title>
<g id="a_node7"><a xlink:href="privatesend-client_8cpp.html" target="_top" xlink:title="src/privatesend&#45;client.cpp">
<polygon fill="white" stroke="black" points="1894,-0.5 1894,-19.5 2022,-19.5 2022,-0.5 1894,-0.5"/>
<text text-anchor="middle" x="1958" y="-7.5" font-family="Helvetica,sans-Serif" font-size="10.00">src/privatesend&#45;client.cpp</text>
</a>
</g>
</g>
<!-- Node68&#45;&gt;Node69 -->
<g id="edge6" class="edge"><title>Node68&#45;&gt;Node69</title>
<path fill="none" stroke="midnightblue" d="M2010.86,-50.1008C1997.72,-40.3824 1981.02,-28.0269 1969.94,-19.8339"/>
<polygon fill="midnightblue" stroke="midnightblue" points="2009.15,-53.1907 2019.27,-56.324 2013.31,-47.5631 2009.15,-53.1907"/>
</g>
<!-- Node68&#45;&gt;Node70 -->
<g id="edge7" class="edge"><title>Node68&#45;&gt;Node70</title>
<path fill="none" stroke="midnightblue" d="M2076.47,-54.0884C2118.97,-43.8865 2181.58,-28.8612 2220.51,-19.5164"/>
<polygon fill="midnightblue" stroke="midnightblue" points="2075.56,-50.7064 2066.65,-56.4435 2077.19,-57.5131 2075.56,-50.7064"/>
</g>
<!-- Node71 -->
<g id="node9" class="node"><title>Node71</title>
<g id="a_node9"><a xlink:href="darksendconfig_8cpp.html" target="_top" xlink:title="src/qt/darksendconfig.cpp">
<polygon fill="white" stroke="black" points="2040.5,-0.5 2040.5,-19.5 2169.5,-19.5 2169.5,-0.5 2040.5,-0.5"/>
<text text-anchor="middle" x="2105" y="-7.5" font-family="Helvetica,sans-Serif" font-size="10.00">src/qt/darksendconfig.cpp</text>
</a>
</g>
</g>
<!-- Node68&#45;&gt;Node71 -->
<g id="edge8" class="edge"><title>Node68&#45;&gt;Node71</title>
<path fill="none" stroke="midnightblue" d="M2051.03,-50.3804C2064.41,-40.6204 2081.56,-28.1057 2092.89,-19.8339"/>
<polygon fill="midnightblue" stroke="midnightblue" points="2048.9,-47.602 2042.89,-56.324 2053.03,-53.2565 2048.9,-47.602"/>
</g>
<!-- Node72 -->
<g id="node10" class="node"><title>Node72</title>
<g id="a_node10"><a xlink:href="overviewpage_8cpp.html" target="_top" xlink:title="src/qt/overviewpage.cpp">
<polygon fill="white" stroke="black" points="1752.5,-0.5 1752.5,-19.5 1875.5,-19.5 1875.5,-0.5 1752.5,-0.5"/>
<text text-anchor="middle" x="1814" y="-7.5" font-family="Helvetica,sans-Serif" font-size="10.00">src/qt/overviewpage.cpp</text>
</a>
</g>
</g>
<!-- Node68&#45;&gt;Node72 -->
<g id="edge9" class="edge"><title>Node68&#45;&gt;Node72</title>
<path fill="none" stroke="midnightblue" d="M1986.89,-54.0237C1945.9,-43.8232 1885.7,-28.8414 1848.22,-19.5164"/>
<polygon fill="midnightblue" stroke="midnightblue" points="1986.07,-57.425 1996.62,-56.4435 1987.76,-50.6322 1986.07,-57.425"/>
</g>
<!-- Node68&#45;&gt;Node73 -->
<g id="edge10" class="edge"><title>Node68&#45;&gt;Node73</title>
<path fill="none" stroke="midnightblue" d="M2099.5,-54.975C2169.42,-44.7431 2276.73,-29.0392 2342.41,-19.4275"/>
<polygon fill="midnightblue" stroke="midnightblue" points="2098.86,-51.5323 2089.47,-56.4435 2099.87,-58.4586 2098.86,-51.5323"/>
</g>
<!-- Node68&#45;&gt;Node74 -->
<g id="edge11" class="edge"><title>Node68&#45;&gt;Node74</title>
<path fill="none" stroke="midnightblue" d="M1961.52,-63.0053C1660.16,-54.3539 469.432,-20.1703 203.052,-12.523"/>
<polygon fill="midnightblue" stroke="midnightblue" points="1961.76,-66.5137 1971.86,-63.3022 1961.97,-59.5166 1961.76,-66.5137"/>
</g>
<!-- Node75&#45;&gt;Node68 -->
<g id="edge13" class="edge"><title>Node75&#45;&gt;Node68</title>
<path fill="none" stroke="midnightblue" d="M273.646,-115.681C280.729,-114.197 288.043,-112.882 295,-112 629.802,-69.5673 1706.67,-66.9357 1971.67,-66.9434"/>
<polygon fill="midnightblue" stroke="midnightblue" points="272.5,-112.351 263.504,-117.947 274.026,-119.183 272.5,-112.351"/>
</g>
<!-- Node76 -->
<g id="node14" class="node"><title>Node76</title>
<g id="a_node14"><a xlink:href="privatesend-util_8cpp.html" target="_top" xlink:title="src/privatesend&#45;util.cpp">
<polygon fill="white" stroke="black" points="178,-56.5 178,-75.5 296,-75.5 296,-56.5 178,-56.5"/>
<text text-anchor="middle" x="237" y="-63.5" font-family="Helvetica,sans-Serif" font-size="10.00">src/privatesend&#45;util.cpp</text>
</a>
</g>
</g>
<!-- Node75&#45;&gt;Node76 -->
<g id="edge14" class="edge"><title>Node75&#45;&gt;Node76</title>
<path fill="none" stroke="midnightblue" d="M233.57,-107.817C234.479,-96.9962 235.58,-83.898 236.285,-75.5091"/>
<polygon fill="midnightblue" stroke="midnightblue" points="230.066,-107.717 232.716,-117.975 237.042,-108.303 230.066,-107.717"/>
</g>
</g>
</svg>
