<?xml version="1.0" encoding="UTF-8" standalone="no"?>
<!DOCTYPE svg PUBLIC "-//W3C//DTD SVG 1.1//EN"
 "http://www.w3.org/Graphics/SVG/1.1/DTD/svg11.dtd">
<!-- Generated by graphviz version 2.38.0 (20140413.2041)
 -->
<!-- Title: ec_privkey_import_der Pages: 1 -->
<svg width="446pt" height="142pt"
 viewBox="0.00 0.00 446.00 142.00" xmlns="http://www.w3.org/2000/svg" xmlns:xlink="http://www.w3.org/1999/xlink">
<g id="graph0" class="graph" transform="scale(1 1) rotate(0) translate(4 138)">
<title>ec_privkey_import_der</title>
<polygon fill="white" stroke="none" points="-4,4 -4,-138 442,-138 442,4 -4,4"/>
<!-- Node23 -->
<g id="node1" class="node"><title>Node23</title>
<polygon fill="#bfbfbf" stroke="black" points="0,-76.5 0,-95.5 115,-95.5 115,-76.5 0,-76.5"/>
<text text-anchor="middle" x="57.5" y="-83.5" font-family="Helvetica,sans-Serif" font-size="10.00">ec_privkey_import_der</text>
</g>
<!-- Node24 -->
<g id="node2" class="node"><title>Node24</title>
<g id="a_node2"><a xlink:href="glibc__compat_8cpp.html#a0f46826ab0466591e136db24394923cf" target="_top" xlink:title="memcpy">
<polygon fill="white" stroke="black" points="182,-106.5 182,-125.5 236,-125.5 236,-106.5 182,-106.5"/>
<text text-anchor="middle" x="209" y="-113.5" font-family="Helvetica,sans-Serif" font-size="10.00">memcpy</text>
</a>
</g>
</g>
<!-- Node23&#45;&gt;Node24 -->
<g id="edge1" class="edge"><title>Node23&#45;&gt;Node24</title>
<path fill="none" stroke="midnightblue" d="M106.214,-95.5747C127.462,-99.8386 152.079,-104.778 171.781,-108.732"/>
<polygon fill="midnightblue" stroke="midnightblue" points="171.099,-112.165 181.592,-110.701 172.476,-105.302 171.099,-112.165"/>
</g>
<!-- Node26 -->
<g id="node4" class="node"><title>Node26</title>
<g id="a_node4"><a xlink:href="secp256k1_8h.html#a366f922fc0c787351e82ff8e3a95f652" target="_top" xlink:title="Verify an ECDSA secret key. ">
<polygon fill="white" stroke="black" points="151,-41 151,-71 267,-71 267,-41 151,-41"/>
<text text-anchor="start" x="159" y="-59" font-family="Helvetica,sans-Serif" font-size="10.00">secp256k1_ec_seckey</text>
<text text-anchor="middle" x="209" y="-48" font-family="Helvetica,sans-Serif" font-size="10.00">_verify</text>
</a>
</g>
</g>
<!-- Node23&#45;&gt;Node26 -->
<g id="edge3" class="edge"><title>Node23&#45;&gt;Node26</title>
<path fill="none" stroke="midnightblue" d="M106.214,-76.4253C117.185,-74.2237 129.055,-71.8419 140.682,-69.5086"/>
<polygon fill="midnightblue" stroke="midnightblue" points="141.693,-72.8756 150.809,-67.4765 140.316,-66.0124 141.693,-72.8756"/>
</g>
<!-- Node25 -->
<g id="node3" class="node"><title>Node25</title>
<g id="a_node3"><a xlink:href="glibc__compat_8cpp.html#a9778d49e9029dd75bc53ecbbf9f5e9a1" target="_top" xlink:title="memmove">
<polygon fill="white" stroke="black" points="339.5,-114.5 339.5,-133.5 401.5,-133.5 401.5,-114.5 339.5,-114.5"/>
<text text-anchor="middle" x="370.5" y="-121.5" font-family="Helvetica,sans-Serif" font-size="10.00">memmove</text>
</a>
</g>
</g>
<!-- Node24&#45;&gt;Node25 -->
<g id="edge2" class="edge"><title>Node24&#45;&gt;Node25</title>
<path fill="none" stroke="midnightblue" d="M236.338,-117.321C261.555,-118.586 299.959,-120.512 329.055,-121.971"/>
<polygon fill="midnightblue" stroke="midnightblue" points="329.149,-125.48 339.312,-122.486 329.5,-118.489 329.149,-125.48"/>
</g>
<!-- Node27 -->
<g id="node5" class="node"><title>Node27</title>
<g id="a_node5"><a xlink:href="scalar_8h.html#a25cc2d45ae1d1765d07c3313cdf46fa0" target="_top" xlink:title="Set a scalar from a big endian byte array. ">
<polygon fill="white" stroke="black" points="303,-76.5 303,-95.5 438,-95.5 438,-76.5 303,-76.5"/>
<text text-anchor="middle" x="370.5" y="-83.5" font-family="Helvetica,sans-Serif" font-size="10.00">secp256k1_scalar_set_b32</text>
</a>
</g>
</g>
<!-- Node26&#45;&gt;Node27 -->
<g id="edge4" class="edge"><title>Node26&#45;&gt;Node27</title>
<path fill="none" stroke="midnightblue" d="M267.133,-66.746C280.727,-69.303 295.278,-72.0397 309.017,-74.6239"/>
<polygon fill="midnightblue" stroke="midnightblue" points="308.378,-78.065 318.853,-76.4738 309.672,-71.1856 308.378,-78.065"/>
</g>
<!-- Node28 -->
<g id="node6" class="node"><title>Node28</title>
<g id="a_node6"><a xlink:href="scalar_8h.html#a3f0ac84fe49a1c1f51212582a2c149d4" target="_top" xlink:title="Check whether a scalar equals zero. ">
<polygon fill="white" stroke="black" points="304.5,-38.5 304.5,-57.5 436.5,-57.5 436.5,-38.5 304.5,-38.5"/>
<text text-anchor="middle" x="370.5" y="-45.5" font-family="Helvetica,sans-Serif" font-size="10.00">secp256k1_scalar_is_zero</text>
</a>
</g>
</g>
<!-- Node26&#45;&gt;Node28 -->
<g id="edge5" class="edge"><title>Node26&#45;&gt;Node28</title>
<path fill="none" stroke="midnightblue" d="M267.133,-53.1344C275.9,-52.6947 285.066,-52.2349 294.155,-51.7791"/>
<polygon fill="midnightblue" stroke="midnightblue" points="294.546,-55.2639 304.358,-51.2673 294.196,-48.2727 294.546,-55.2639"/>
</g>
<!-- Node29 -->
<g id="node7" class="node"><title>Node29</title>
<g id="a_node7"><a xlink:href="scalar_8h.html#ad8fb9bc2a828903963bf37806d8edd11" target="_top" xlink:title="Clear a scalar to prevent the leak of sensitive data. ">
<polygon fill="white" stroke="black" points="309.5,-0.5 309.5,-19.5 431.5,-19.5 431.5,-0.5 309.5,-0.5"/>
<text text-anchor="middle" x="370.5" y="-7.5" font-family="Helvetica,sans-Serif" font-size="10.00">secp256k1_scalar_clear</text>
</a>
</g>
</g>
<!-- Node26&#45;&gt;Node29 -->
<g id="edge6" class="edge"><title>Node26&#45;&gt;Node29</title>
<path fill="none" stroke="midnightblue" d="M261.64,-40.9654C275.101,-37.0581 289.591,-32.8621 303,-29 310.545,-26.827 318.574,-24.5244 326.348,-22.3002"/>
<polygon fill="midnightblue" stroke="midnightblue" points="327.35,-25.6541 336.003,-19.5406 325.426,-18.9237 327.35,-25.6541"/>
</g>
</g>
</svg>
