<?xml version="1.0" encoding="UTF-8" standalone="no"?>
<!DOCTYPE svg PUBLIC "-//W3C//DTD SVG 1.1//EN"
 "http://www.w3.org/Graphics/SVG/1.1/DTD/svg11.dtd">
<!-- Generated by graphviz version 2.38.0 (20140413.2041)
 -->
<!-- Title: src/messagesigner.h Pages: 1 -->
<!--zoomable 95 -->
<svg id="main" version="1.1" xmlns="http://www.w3.org/2000/svg" xmlns:xlink="http://www.w3.org/1999/xlink" xml:space="preserve" onload="init(evt)">
<style type="text/css"><![CDATA[
.edge:hover path { stroke: red; }
.edge:hover polygon { stroke: red; fill: red; }
]]></style>
<script type="text/javascript"><![CDATA[
var edges = document.getElementsByTagName('g');
if (edges && edges.length) {
  for (var i=0;i<edges.length;i++) {
    if (edges[i].id.substr(0,4)=='edge') {
      edges[i].setAttribute('class','edge');
    }
  }
}
]]></script>
        <defs>
                <circle id="rim" cx="0" cy="0" r="7"/>
                <circle id="rim2" cx="0" cy="0" r="3.5"/>
                <g id="zoomPlus">
                        <use xlink:href="#rim" fill="#404040">
                                <set attributeName="fill" to="#808080" begin="zoomplus.mouseover" end="zoomplus.mouseout"/>
                        </use>
                        <path d="M-4,0h8M0,-4v8" fill="none" stroke="white" stroke-width="1.5" pointer-events="none"/>
                </g>
                <g id="zoomMin">
                        <use xlink:href="#rim" fill="#404040">
                                <set attributeName="fill" to="#808080" begin="zoomminus.mouseover" end="zoomminus.mouseout"/>
                        </use>
                        <path d="M-4,0h8" fill="none" stroke="white" stroke-width="1.5" pointer-events="none"/>
                </g>
                <g id="dirArrow">
                        <path fill="none" stroke="white" stroke-width="1.5" d="M0,-3.0v7 M-2.5,-0.5L0,-3.0L2.5,-0.5"/>
                </g>
               <g id="resetDef">
                       <use xlink:href="#rim2" fill="#404040">
                               <set attributeName="fill" to="#808080" begin="reset.mouseover" end="reset.mouseout"/>
                       </use>
               </g>
        </defs>

<script type="text/javascript">
var viewWidth = 1611;
var viewHeight = 95;
var sectionId = 'dynsection-1';
</script>
<script xlink:href="svgpan.js"/>
<svg id="graph" class="graph">
<g id="viewport">
<title>src/messagesigner.h</title>
<polygon fill="white" stroke="none" points="-4,4 -4,-91 1607,-91 1607,4 -4,4"/>
<!-- Node66 -->
<g id="node1" class="node"><title>Node66</title>
<polygon fill="#bfbfbf" stroke="black" points="768,-67.5 768,-86.5 884,-86.5 884,-67.5 768,-67.5"/>
<text text-anchor="middle" x="826" y="-74.5" font-family="Helvetica,sans-Serif" font-size="10.00">src/messagesigner.h</text>
</g>
<!-- Node67 -->
<g id="node2" class="node"><title>Node67</title>
<g id="a_node2"><a xlink:href="providertx_8cpp.html" target="_top" xlink:title="src/evo/providertx.cpp">
<polygon fill="white" stroke="black" points="0,-6 0,-25 122,-25 122,-6 0,-6"/>
<text text-anchor="middle" x="61" y="-13" font-family="Helvetica,sans-Serif" font-size="10.00">src/evo/providertx.cpp</text>
</a>
</g>
</g>
<!-- Node66&#45;&gt;Node67 -->
<g id="edge1" class="edge"><title>Node66&#45;&gt;Node67</title>
<path fill="none" stroke="midnightblue" d="M757.416,-74.729C632.363,-71.7083 359.136,-61.8605 131,-31 120.054,-29.5193 108.258,-27.3156 97.527,-25.0706"/>
<polygon fill="midnightblue" stroke="midnightblue" points="757.528,-78.2325 767.607,-74.9678 757.692,-71.2344 757.528,-78.2325"/>
</g>
<!-- Node68 -->
<g id="node3" class="node"><title>Node68</title>
<g id="a_node3"><a xlink:href="governance-object_8cpp.html" target="_top" xlink:title="src/governance/governance\l&#45;object.cpp">
<polygon fill="white" stroke="black" points="140.5,-0.5 140.5,-30.5 289.5,-30.5 289.5,-0.5 140.5,-0.5"/>
<text text-anchor="start" x="148.5" y="-18.5" font-family="Helvetica,sans-Serif" font-size="10.00">src/governance/governance</text>
<text text-anchor="middle" x="215" y="-7.5" font-family="Helvetica,sans-Serif" font-size="10.00">&#45;object.cpp</text>
</a>
</g>
</g>
<!-- Node66&#45;&gt;Node68 -->
<g id="edge2" class="edge"><title>Node66&#45;&gt;Node68</title>
<path fill="none" stroke="midnightblue" d="M757.557,-72.0955C656.685,-65.9047 462.283,-52.3087 298,-31 295.244,-30.6425 292.439,-30.2582 289.609,-29.853"/>
<polygon fill="midnightblue" stroke="midnightblue" points="757.42,-75.5936 767.614,-72.7072 757.845,-68.6065 757.42,-75.5936"/>
</g>
<!-- Node69 -->
<g id="node4" class="node"><title>Node69</title>
<g id="a_node4"><a xlink:href="governance-vote_8cpp.html" target="_top" xlink:title="src/governance/governance\l&#45;vote.cpp">
<polygon fill="white" stroke="black" points="307.5,-0.5 307.5,-30.5 456.5,-30.5 456.5,-0.5 307.5,-0.5"/>
<text text-anchor="start" x="315.5" y="-18.5" font-family="Helvetica,sans-Serif" font-size="10.00">src/governance/governance</text>
<text text-anchor="middle" x="382" y="-7.5" font-family="Helvetica,sans-Serif" font-size="10.00">&#45;vote.cpp</text>
</a>
</g>
</g>
<!-- Node66&#45;&gt;Node69 -->
<g id="edge3" class="edge"><title>Node66&#45;&gt;Node69</title>
<path fill="none" stroke="midnightblue" d="M757.536,-68.4032C685.017,-60.1318 567.244,-46.0577 466,-31 462.926,-30.5428 459.791,-30.0631 456.626,-29.5675"/>
<polygon fill="midnightblue" stroke="midnightblue" points="757.569,-71.9294 767.9,-69.5809 758.359,-64.9741 757.569,-71.9294"/>
</g>
<!-- Node70 -->
<g id="node5" class="node"><title>Node70</title>
<g id="a_node5"><a xlink:href="governance_2governance_8cpp.html" target="_top" xlink:title="src/governance/governance.cpp">
<polygon fill="white" stroke="black" points="475,-6 475,-25 645,-25 645,-6 475,-6"/>
<text text-anchor="middle" x="560" y="-13" font-family="Helvetica,sans-Serif" font-size="10.00">src/governance/governance.cpp</text>
</a>
</g>
</g>
<!-- Node66&#45;&gt;Node70 -->
<g id="edge4" class="edge"><title>Node66&#45;&gt;Node70</title>
<path fill="none" stroke="midnightblue" d="M777.979,-65.2584C726.378,-53.716 645.413,-35.6056 598.041,-25.0091"/>
<polygon fill="midnightblue" stroke="midnightblue" points="777.366,-68.7077 787.889,-67.4751 778.894,-61.8765 777.366,-68.7077"/>
</g>
<!-- Node71 -->
<g id="node6" class="node"><title>Node71</title>
<g id="a_node6"><a xlink:href="init_8cpp.html" target="_top" xlink:title="src/init.cpp">
<polygon fill="white" stroke="black" points="663,-6 663,-25 731,-25 731,-6 663,-6"/>
<text text-anchor="middle" x="697" y="-13" font-family="Helvetica,sans-Serif" font-size="10.00">src/init.cpp</text>
</a>
</g>
</g>
<!-- Node66&#45;&gt;Node71 -->
<g id="edge5" class="edge"><title>Node66&#45;&gt;Node71</title>
<path fill="none" stroke="midnightblue" d="M798.193,-63.1742C773.161,-51.6287 737.082,-34.9875 715.448,-25.0091"/>
<polygon fill="midnightblue" stroke="midnightblue" points="796.971,-66.4649 807.517,-67.4751 799.903,-60.1085 796.971,-66.4649"/>
</g>
<!-- Node72 -->
<g id="node7" class="node"><title>Node72</title>
<g id="a_node7"><a xlink:href="masternode-payments_8cpp.html" target="_top" xlink:title="src/masternode/masternode\l&#45;payments.cpp">
<polygon fill="white" stroke="black" points="749,-0.5 749,-30.5 903,-30.5 903,-0.5 749,-0.5"/>
<text text-anchor="start" x="757" y="-18.5" font-family="Helvetica,sans-Serif" font-size="10.00">src/masternode/masternode</text>
<text text-anchor="middle" x="826" y="-7.5" font-family="Helvetica,sans-Serif" font-size="10.00">&#45;payments.cpp</text>
</a>
</g>
</g>
<!-- Node66&#45;&gt;Node72 -->
<g id="edge6" class="edge"><title>Node66&#45;&gt;Node72</title>
<path fill="none" stroke="midnightblue" d="M826,-57.2349C826,-48.5864 826,-38.4969 826,-30.523"/>
<polygon fill="midnightblue" stroke="midnightblue" points="822.5,-57.4751 826,-67.4751 829.5,-57.4751 822.5,-57.4751"/>
</g>
<!-- Node73 -->
<g id="node8" class="node"><title>Node73</title>
<g id="a_node8"><a xlink:href="messagesigner_8cpp.html" target="_top" xlink:title="src/messagesigner.cpp">
<polygon fill="white" stroke="black" points="921.5,-6 921.5,-25 1048.5,-25 1048.5,-6 921.5,-6"/>
<text text-anchor="middle" x="985" y="-13" font-family="Helvetica,sans-Serif" font-size="10.00">src/messagesigner.cpp</text>
</a>
</g>
</g>
<!-- Node66&#45;&gt;Node73 -->
<g id="edge7" class="edge"><title>Node66&#45;&gt;Node73</title>
<path fill="none" stroke="midnightblue" d="M858.247,-63.9329C889.15,-52.3683 935.007,-35.2083 962.261,-25.0091"/>
<polygon fill="midnightblue" stroke="midnightblue" points="856.92,-60.6923 848.781,-67.4751 859.373,-67.2483 856.92,-60.6923"/>
</g>
<!-- Node74 -->
<g id="node9" class="node"><title>Node74</title>
<g id="a_node9"><a xlink:href="privatesend_2privatesend_8cpp.html" target="_top" xlink:title="src/privatesend/privatesend.cpp">
<polygon fill="white" stroke="black" points="1067,-6 1067,-25 1237,-25 1237,-6 1067,-6"/>
<text text-anchor="middle" x="1152" y="-13" font-family="Helvetica,sans-Serif" font-size="10.00">src/privatesend/privatesend.cpp</text>
</a>
</g>
</g>
<!-- Node66&#45;&gt;Node74 -->
<g id="edge8" class="edge"><title>Node66&#45;&gt;Node74</title>
<path fill="none" stroke="midnightblue" d="M882.889,-65.6169C946.022,-54.0942 1046.72,-35.716 1105.38,-25.0091"/>
<polygon fill="midnightblue" stroke="midnightblue" points="881.917,-62.2364 872.708,-67.4751 883.174,-69.1227 881.917,-62.2364"/>
</g>
<!-- Node75 -->
<g id="node10" class="node"><title>Node75</title>
<g id="a_node10"><a xlink:href="rpc_2governance_8cpp.html" target="_top" xlink:title="src/rpc/governance.cpp">
<polygon fill="white" stroke="black" points="1255,-6 1255,-25 1383,-25 1383,-6 1255,-6"/>
<text text-anchor="middle" x="1319" y="-13" font-family="Helvetica,sans-Serif" font-size="10.00">src/rpc/governance.cpp</text>
</a>
</g>
</g>
<!-- Node66&#45;&gt;Node75 -->
<g id="edge9" class="edge"><title>Node66&#45;&gt;Node75</title>
<path fill="none" stroke="midnightblue" d="M894.4,-70.562C977.725,-63.5023 1122.65,-49.8205 1246,-31 1256.86,-29.3434 1268.55,-27.1884 1279.33,-25.0485"/>
<polygon fill="midnightblue" stroke="midnightblue" points="893.973,-67.0855 884.301,-71.4107 894.559,-74.0609 893.973,-67.0855"/>
</g>
<!-- Node76 -->
<g id="node11" class="node"><title>Node76</title>
<g id="a_node11"><a xlink:href="rpcevo_8cpp.html" target="_top" xlink:title="src/rpc/rpcevo.cpp">
<polygon fill="white" stroke="black" points="1401,-6 1401,-25 1505,-25 1505,-6 1401,-6"/>
<text text-anchor="middle" x="1453" y="-13" font-family="Helvetica,sans-Serif" font-size="10.00">src/rpc/rpcevo.cpp</text>
</a>
</g>
</g>
<!-- Node66&#45;&gt;Node76 -->
<g id="edge10" class="edge"><title>Node66&#45;&gt;Node76</title>
<path fill="none" stroke="midnightblue" d="M894.191,-73.9679C1000.93,-70.0265 1213.72,-59.1047 1392,-31 1401.57,-29.4914 1411.86,-27.2792 1421.21,-25.035"/>
<polygon fill="midnightblue" stroke="midnightblue" points="894.065,-70.4701 884.197,-74.3279 894.317,-77.4656 894.065,-70.4701"/>
</g>
<!-- Node77 -->
<g id="node12" class="node"><title>Node77</title>
<g id="a_node12"><a xlink:href="spork_8cpp.html" target="_top" xlink:title="src/spork.cpp">
<polygon fill="white" stroke="black" points="1523,-6 1523,-25 1603,-25 1603,-6 1523,-6"/>
<text text-anchor="middle" x="1563" y="-13" font-family="Helvetica,sans-Serif" font-size="10.00">src/spork.cpp</text>
</a>
</g>
</g>
<!-- Node66&#45;&gt;Node77 -->
<g id="edge11" class="edge"><title>Node66&#45;&gt;Node77</title>
<path fill="none" stroke="midnightblue" d="M894.184,-76.5333C1018.44,-76.4023 1289.64,-71.0192 1514,-31 1521.95,-29.5824 1530.44,-27.3404 1538.08,-25.0393"/>
<polygon fill="midnightblue" stroke="midnightblue" points="894.057,-73.0334 884.057,-76.5325 894.057,-80.0334 894.057,-73.0334"/>
</g>
</g>
</svg>
        <g id="navigator" transform="translate(0 0)" fill="#404254">
                <rect fill="#f2f5e9" fill-opacity="0.5" stroke="#606060" stroke-width=".5" x="0" y="0" width="60" height="60"/>
                <use id="zoomplus" xlink:href="#zoomPlus" x="17" y="9" onmousedown="handleZoom(evt,'in')"/>
                <use id="zoomminus" xlink:href="#zoomMin" x="42" y="9" onmousedown="handleZoom(evt,'out')"/>
                <use id="reset" xlink:href="#resetDef" x="30" y="36" onmousedown="handleReset()"/>
                <g id="arrowUp" xlink:href="#dirArrow" transform="translate(30 24)" onmousedown="handlePan(0,-1)">
                  <use xlink:href="#rim" fill="#404040">
                        <set attributeName="fill" to="#808080" begin="arrowUp.mouseover" end="arrowUp.mouseout"/>
                  </use>
                  <path fill="none" stroke="white" stroke-width="1.5" d="M0,-3.0v7 M-2.5,-0.5L0,-3.0L2.5,-0.5"/>
                </g>
                <g id="arrowRight" xlink:href="#dirArrow" transform="rotate(90) translate(36 -43)" onmousedown="handlePan(1,0)">
                  <use xlink:href="#rim" fill="#404040">
                        <set attributeName="fill" to="#808080" begin="arrowRight.mouseover" end="arrowRight.mouseout"/>
                  </use>
                  <path fill="none" stroke="white" stroke-width="1.5" d="M0,-3.0v7 M-2.5,-0.5L0,-3.0L2.5,-0.5"/>
                </g>
                <g id="arrowDown" xlink:href="#dirArrow" transform="rotate(180) translate(-30 -48)" onmousedown="handlePan(0,1)">
                  <use xlink:href="#rim" fill="#404040">
                        <set attributeName="fill" to="#808080" begin="arrowDown.mouseover" end="arrowDown.mouseout"/>
                  </use>
                  <path fill="none" stroke="white" stroke-width="1.5" d="M0,-3.0v7 M-2.5,-0.5L0,-3.0L2.5,-0.5"/>
                </g>
                <g id="arrowLeft" xlink:href="#dirArrow" transform="rotate(270) translate(-36 17)" onmousedown="handlePan(-1,0)">
                  <use xlink:href="#rim" fill="#404040">
                        <set attributeName="fill" to="#808080" begin="arrowLeft.mouseover" end="arrowLeft.mouseout"/>
                  </use>
                  <path fill="none" stroke="white" stroke-width="1.5" d="M0,-3.0v7 M-2.5,-0.5L0,-3.0L2.5,-0.5"/>
                </g>
        </g>
        <svg viewBox="0 0 15 15" width="100%" height="30px" preserveAspectRatio="xMaxYMin meet">
         <g id="arrow_out" transform="scale(0.3 0.3)">
          <a xlink:href="messagesigner_8h__dep__incl_org.svg" target="_base">
           <rect id="button" ry="5" rx="5" y="6" x="6" height="38" width="38"
                fill="#f2f5e9" fill-opacity="0.5" stroke="#606060" stroke-width="1.0"/>
           <path id="arrow"
             d="M 11.500037,31.436501 C 11.940474,20.09759 22.043105,11.32322 32.158766,21.979434 L 37.068811,17.246167 C 37.068811,17.246167 37.088388,32 37.088388,32 L 22.160133,31.978069 C 22.160133,31.978069 26.997745,27.140456 26.997745,27.140456 C 18.528582,18.264221 13.291696,25.230495 11.500037,31.436501 z"
             style="fill:#404040;"/>
          </a>
         </g>
        </svg>
</svg>
