<?xml version="1.0" encoding="UTF-8" standalone="no"?>
<!DOCTYPE svg PUBLIC "-//W3C//DTD SVG 1.1//EN"
 "http://www.w3.org/Graphics/SVG/1.1/DTD/svg11.dtd">
<!-- Generated by graphviz version 2.38.0 (20140413.2041)
 -->
<!-- Title: MapPort Pages: 1 -->
<!--zoomable 117 -->
<svg id="main" version="1.1" xmlns="http://www.w3.org/2000/svg" xmlns:xlink="http://www.w3.org/1999/xlink" xml:space="preserve" onload="init(evt)">
<style type="text/css"><![CDATA[
.edge:hover path { stroke: red; }
.edge:hover polygon { stroke: red; fill: red; }
]]></style>
<script type="text/javascript"><![CDATA[
var edges = document.getElementsByTagName('g');
if (edges && edges.length) {
  for (var i=0;i<edges.length;i++) {
    if (edges[i].id.substr(0,4)=='edge') {
      edges[i].setAttribute('class','edge');
    }
  }
}
]]></script>
        <defs>
                <circle id="rim" cx="0" cy="0" r="7"/>
                <circle id="rim2" cx="0" cy="0" r="3.5"/>
                <g id="zoomPlus">
                        <use xlink:href="#rim" fill="#404040">
                                <set attributeName="fill" to="#808080" begin="zoomplus.mouseover" end="zoomplus.mouseout"/>
                        </use>
                        <path d="M-4,0h8M0,-4v8" fill="none" stroke="white" stroke-width="1.5" pointer-events="none"/>
                </g>
                <g id="zoomMin">
                        <use xlink:href="#rim" fill="#404040">
                                <set attributeName="fill" to="#808080" begin="zoomminus.mouseover" end="zoomminus.mouseout"/>
                        </use>
                        <path d="M-4,0h8" fill="none" stroke="white" stroke-width="1.5" pointer-events="none"/>
                </g>
                <g id="dirArrow">
                        <path fill="none" stroke="white" stroke-width="1.5" d="M0,-3.0v7 M-2.5,-0.5L0,-3.0L2.5,-0.5"/>
                </g>
               <g id="resetDef">
                       <use xlink:href="#rim2" fill="#404040">
                               <set attributeName="fill" to="#808080" begin="reset.mouseover" end="reset.mouseout"/>
                       </use>
               </g>
        </defs>

<script type="text/javascript">
var viewWidth = 585;
var viewHeight = 117;
var sectionId = 'dynsection-27';
</script>
<script xlink:href="svgpan.js"/>
<svg id="graph" class="graph">
<g id="viewport">
<title>MapPort</title>
<polygon fill="white" stroke="none" points="-4,4 -4,-112.649 581,-112.649 581,4 -4,4"/>
<!-- Node527 -->
<g id="node1" class="node"><title>Node527</title>
<polygon fill="#bfbfbf" stroke="black" points="0,-38.5 0,-57.5 53,-57.5 53,-38.5 0,-38.5"/>
<text text-anchor="middle" x="26.5" y="-45.5" font-family="Helvetica,sans-Serif" font-size="10.00">MapPort</text>
</g>
<!-- Node528 -->
<g id="node2" class="node"><title>Node528</title>
<g id="a_node2"><a xlink:href="init_8h.html#a6f0784aa332573f949b0975205572b28" target="_top" xlink:title="Initialize Dash Core. ">
<polygon fill="white" stroke="black" points="121,-76.5 121,-95.5 174,-95.5 174,-76.5 121,-76.5"/>
<text text-anchor="middle" x="147.5" y="-83.5" font-family="Helvetica,sans-Serif" font-size="10.00">AppInit2</text>
</a>
</g>
</g>
<!-- Node527&#45;&gt;Node528 -->
<g id="edge1" class="edge"><title>Node527&#45;&gt;Node528</title>
<path fill="none" stroke="midnightblue" d="M62.6217,-59.2153C81.2033,-65.149 103.62,-72.3073 120.603,-77.7304"/>
<polygon fill="midnightblue" stroke="midnightblue" points="63.6193,-55.8598 53.0285,-56.152 61.4899,-62.5281 63.6193,-55.8598"/>
</g>
<!-- Node532 -->
<g id="node6" class="node"><title>Node532</title>
<g id="a_node6"><a xlink:href="init_8h.html#a5cb3db83cb0ba2e421f651a1ee1f2cfe" target="_top" xlink:title="Preparing steps before shutting down or restarting the wallet. ">
<polygon fill="white" stroke="black" points="100.5,-38.5 100.5,-57.5 194.5,-57.5 194.5,-38.5 100.5,-38.5"/>
<text text-anchor="middle" x="147.5" y="-45.5" font-family="Helvetica,sans-Serif" font-size="10.00">PrepareShutdown</text>
</a>
</g>
</g>
<!-- Node527&#45;&gt;Node532 -->
<g id="edge5" class="edge"><title>Node527&#45;&gt;Node532</title>
<path fill="none" stroke="midnightblue" d="M63.2672,-48C74.9322,-48 88.0528,-48 100.368,-48"/>
<polygon fill="midnightblue" stroke="midnightblue" points="63.0285,-44.5001 53.0285,-48 63.0285,-51.5001 63.0285,-44.5001"/>
</g>
<!-- Node536 -->
<g id="node10" class="node"><title>Node536</title>
<g id="a_node10"><a xlink:href="class_options_model.html#a3102b457f4d46efac8ecb03b3d536b62" target="_top" xlink:title="OptionsModel::setData">
<polygon fill="white" stroke="black" points="89,-0.5 89,-19.5 206,-19.5 206,-0.5 89,-0.5"/>
<text text-anchor="middle" x="147.5" y="-7.5" font-family="Helvetica,sans-Serif" font-size="10.00">OptionsModel::setData</text>
</a>
</g>
</g>
<!-- Node527&#45;&gt;Node536 -->
<g id="edge10" class="edge"><title>Node527&#45;&gt;Node536</title>
<path fill="none" stroke="midnightblue" d="M62.6534,-36.7746C79.727,-31.3225 100.033,-24.8383 116.385,-19.6166"/>
<polygon fill="midnightblue" stroke="midnightblue" points="61.4899,-33.4719 53.0285,-39.848 63.6193,-40.1402 61.4899,-33.4719"/>
</g>
<!-- Node529 -->
<g id="node3" class="node"><title>Node529</title>
<g id="a_node3"><a xlink:href="dashd_8cpp.html#ac59316b767e6984e1285f0531275286b" target="_top" xlink:title="AppInit">
<polygon fill="white" stroke="black" points="421.5,-76.5 421.5,-95.5 468.5,-95.5 468.5,-76.5 421.5,-76.5"/>
<text text-anchor="middle" x="445" y="-83.5" font-family="Helvetica,sans-Serif" font-size="10.00">AppInit</text>
</a>
</g>
</g>
<!-- Node528&#45;&gt;Node529 -->
<g id="edge2" class="edge"><title>Node528&#45;&gt;Node529</title>
<path fill="none" stroke="midnightblue" d="M183.822,-94.9192C201.216,-98.8638 222.574,-103.046 242,-105 290.201,-109.848 302.801,-109.873 351,-105 375.266,-102.547 402.557,-96.5796 421.266,-91.9816"/>
<polygon fill="midnightblue" stroke="midnightblue" points="184.618,-91.511 174.084,-92.6428 183.025,-98.3272 184.618,-91.511"/>
</g>
<!-- Node531 -->
<g id="node5" class="node"><title>Node531</title>
<g id="a_node5"><a xlink:href="class_bitcoin_core.html#af34ca069cda1d4362dcc109b4397fb62" target="_top" xlink:title="BitcoinCore::initialize">
<polygon fill="white" stroke="black" points="242,-76.5 242,-95.5 351,-95.5 351,-76.5 242,-76.5"/>
<text text-anchor="middle" x="296.5" y="-83.5" font-family="Helvetica,sans-Serif" font-size="10.00">BitcoinCore::initialize</text>
</a>
</g>
</g>
<!-- Node528&#45;&gt;Node531 -->
<g id="edge4" class="edge"><title>Node528&#45;&gt;Node531</title>
<path fill="none" stroke="midnightblue" d="M184.329,-86C201.624,-86 222.732,-86 241.89,-86"/>
<polygon fill="midnightblue" stroke="midnightblue" points="184.105,-82.5001 174.105,-86 184.105,-89.5001 184.105,-82.5001"/>
</g>
<!-- Node530 -->
<g id="node4" class="node"><title>Node530</title>
<g id="a_node4"><a xlink:href="dashd_8cpp.html#a0ddf1224851353fc92bfbff6f499fa97" target="_top" xlink:title="main">
<polygon fill="white" stroke="black" points="539,-76.5 539,-95.5 577,-95.5 577,-76.5 539,-76.5"/>
<text text-anchor="middle" x="558" y="-83.5" font-family="Helvetica,sans-Serif" font-size="10.00">main</text>
</a>
</g>
</g>
<!-- Node529&#45;&gt;Node530 -->
<g id="edge3" class="edge"><title>Node529&#45;&gt;Node530</title>
<path fill="none" stroke="midnightblue" d="M478.767,-86C498.334,-86 522.459,-86 538.703,-86"/>
<polygon fill="midnightblue" stroke="midnightblue" points="478.73,-82.5001 468.73,-86 478.73,-89.5001 478.73,-82.5001"/>
</g>
<!-- Node533 -->
<g id="node7" class="node"><title>Node533</title>
<g id="a_node7"><a xlink:href="class_bitcoin_core.html#ac2271844c89ebc4c611e7617ce6202e3" target="_top" xlink:title="BitcoinCore::restart">
<polygon fill="white" stroke="black" points="246,-38.5 246,-57.5 347,-57.5 347,-38.5 246,-38.5"/>
<text text-anchor="middle" x="296.5" y="-45.5" font-family="Helvetica,sans-Serif" font-size="10.00">BitcoinCore::restart</text>
</a>
</g>
</g>
<!-- Node532&#45;&gt;Node533 -->
<g id="edge6" class="edge"><title>Node532&#45;&gt;Node533</title>
<path fill="none" stroke="midnightblue" d="M204.79,-48C218.359,-48 232.757,-48 245.99,-48"/>
<polygon fill="midnightblue" stroke="midnightblue" points="204.608,-44.5001 194.608,-48 204.608,-51.5001 204.608,-44.5001"/>
</g>
<!-- Node534 -->
<g id="node8" class="node"><title>Node534</title>
<g id="a_node8"><a xlink:href="init_8h.html#ac5f038c2b480cf9ef5e19e3eba8dbaf9" target="_top" xlink:title="Shutdown is split into 2 parts: Part 1: shut down everything but the main wallet instance (done in Pr...">
<polygon fill="white" stroke="black" points="266.5,-0.5 266.5,-19.5 326.5,-19.5 326.5,-0.5 266.5,-0.5"/>
<text text-anchor="middle" x="296.5" y="-7.5" font-family="Helvetica,sans-Serif" font-size="10.00">Shutdown</text>
</a>
</g>
</g>
<!-- Node532&#45;&gt;Node534 -->
<g id="edge7" class="edge"><title>Node532&#45;&gt;Node534</title>
<path fill="none" stroke="midnightblue" d="M195.291,-35.9043C218.586,-29.8826 246.023,-22.79 266.293,-17.5502"/>
<polygon fill="midnightblue" stroke="midnightblue" points="194.4,-32.5195 185.594,-38.411 196.152,-39.2968 194.4,-32.5195"/>
</g>
<!-- Node534&#45;&gt;Node529 -->
<g id="edge8" class="edge"><title>Node534&#45;&gt;Node529</title>
<path fill="none" stroke="midnightblue" d="M336.173,-22.6455C341.228,-24.614 346.285,-26.748 351,-29 380.563,-43.1186 412.641,-64.1858 430.334,-76.3625"/>
<polygon fill="midnightblue" stroke="midnightblue" points="337.139,-19.2709 326.546,-19.0768 334.706,-25.8344 337.139,-19.2709"/>
</g>
<!-- Node535 -->
<g id="node9" class="node"><title>Node535</title>
<g id="a_node9"><a xlink:href="class_bitcoin_core.html#a94f3f4622ba698e321f3a2e0e686129f" target="_top" xlink:title="BitcoinCore::shutdown">
<polygon fill="white" stroke="black" points="387,-0.5 387,-19.5 503,-19.5 503,-0.5 387,-0.5"/>
<text text-anchor="middle" x="445" y="-7.5" font-family="Helvetica,sans-Serif" font-size="10.00">BitcoinCore::shutdown</text>
</a>
</g>
</g>
<!-- Node534&#45;&gt;Node535 -->
<g id="edge9" class="edge"><title>Node534&#45;&gt;Node535</title>
<path fill="none" stroke="midnightblue" d="M336.966,-10C352.308,-10 370.182,-10 386.879,-10"/>
<polygon fill="midnightblue" stroke="midnightblue" points="336.794,-6.5001 326.794,-10 336.794,-13.5001 336.794,-6.5001"/>
</g>
</g>
</svg>
        <g id="navigator" transform="translate(0 0)" fill="#404254">
                <rect fill="#f2f5e9" fill-opacity="0.5" stroke="#606060" stroke-width=".5" x="0" y="0" width="60" height="60"/>
                <use id="zoomplus" xlink:href="#zoomPlus" x="17" y="9" onmousedown="handleZoom(evt,'in')"/>
                <use id="zoomminus" xlink:href="#zoomMin" x="42" y="9" onmousedown="handleZoom(evt,'out')"/>
                <use id="reset" xlink:href="#resetDef" x="30" y="36" onmousedown="handleReset()"/>
                <g id="arrowUp" xlink:href="#dirArrow" transform="translate(30 24)" onmousedown="handlePan(0,-1)">
                  <use xlink:href="#rim" fill="#404040">
                        <set attributeName="fill" to="#808080" begin="arrowUp.mouseover" end="arrowUp.mouseout"/>
                  </use>
                  <path fill="none" stroke="white" stroke-width="1.5" d="M0,-3.0v7 M-2.5,-0.5L0,-3.0L2.5,-0.5"/>
                </g>
                <g id="arrowRight" xlink:href="#dirArrow" transform="rotate(90) translate(36 -43)" onmousedown="handlePan(1,0)">
                  <use xlink:href="#rim" fill="#404040">
                        <set attributeName="fill" to="#808080" begin="arrowRight.mouseover" end="arrowRight.mouseout"/>
                  </use>
                  <path fill="none" stroke="white" stroke-width="1.5" d="M0,-3.0v7 M-2.5,-0.5L0,-3.0L2.5,-0.5"/>
                </g>
                <g id="arrowDown" xlink:href="#dirArrow" transform="rotate(180) translate(-30 -48)" onmousedown="handlePan(0,1)">
                  <use xlink:href="#rim" fill="#404040">
                        <set attributeName="fill" to="#808080" begin="arrowDown.mouseover" end="arrowDown.mouseout"/>
                  </use>
                  <path fill="none" stroke="white" stroke-width="1.5" d="M0,-3.0v7 M-2.5,-0.5L0,-3.0L2.5,-0.5"/>
                </g>
                <g id="arrowLeft" xlink:href="#dirArrow" transform="rotate(270) translate(-36 17)" onmousedown="handlePan(-1,0)">
                  <use xlink:href="#rim" fill="#404040">
                        <set attributeName="fill" to="#808080" begin="arrowLeft.mouseover" end="arrowLeft.mouseout"/>
                  </use>
                  <path fill="none" stroke="white" stroke-width="1.5" d="M0,-3.0v7 M-2.5,-0.5L0,-3.0L2.5,-0.5"/>
                </g>
        </g>
        <svg viewBox="0 0 15 15" width="100%" height="30px" preserveAspectRatio="xMaxYMin meet">
         <g id="arrow_out" transform="scale(0.3 0.3)">
          <a xlink:href="net_8cpp_a93e4e6fbe288b6e882e697918695f88e_icgraph_org.svg" target="_base">
           <rect id="button" ry="5" rx="5" y="6" x="6" height="38" width="38"
                fill="#f2f5e9" fill-opacity="0.5" stroke="#606060" stroke-width="1.0"/>
           <path id="arrow"
             d="M 11.500037,31.436501 C 11.940474,20.09759 22.043105,11.32322 32.158766,21.979434 L 37.068811,17.246167 C 37.068811,17.246167 37.088388,32 37.088388,32 L 22.160133,31.978069 C 22.160133,31.978069 26.997745,27.140456 26.997745,27.140456 C 18.528582,18.264221 13.291696,25.230495 11.500037,31.436501 z"
             style="fill:#404040;"/>
          </a>
         </g>
        </svg>
</svg>
