<?xml version="1.0" encoding="UTF-8" standalone="no"?>
<!DOCTYPE svg PUBLIC "-//W3C//DTD SVG 1.1//EN"
 "http://www.w3.org/Graphics/SVG/1.1/DTD/svg11.dtd">
<!-- Generated by graphviz version 2.38.0 (20140413.2041)
 -->
<!-- Title: src/netaddress.cpp Pages: 1 -->
<svg width="2894pt" height="364pt"
 viewBox="0.00 0.00 2893.50 364.00" xmlns="http://www.w3.org/2000/svg" xmlns:xlink="http://www.w3.org/1999/xlink">
<g id="graph0" class="graph" transform="scale(1 1) rotate(0) translate(4 360)">
<title>src/netaddress.cpp</title>
<polygon fill="white" stroke="none" points="-4,4 -4,-360 2889.5,-360 2889.5,4 -4,4"/>
<!-- Node0 -->
<g id="node1" class="node"><title>Node0</title>
<polygon fill="#bfbfbf" stroke="black" points="823.5,-336.5 823.5,-355.5 931.5,-355.5 931.5,-336.5 823.5,-336.5"/>
<text text-anchor="middle" x="877.5" y="-343.5" font-family="Helvetica,sans-Serif" font-size="10.00">src/netaddress.cpp</text>
</g>
<!-- Node1 -->
<g id="node2" class="node"><title>Node1</title>
<g id="a_node2"><a xlink:href="netaddress_8h.html" target="_top" xlink:title="netaddress.h">
<polygon fill="white" stroke="black" points="837.5,-224.5 837.5,-243.5 917.5,-243.5 917.5,-224.5 837.5,-224.5"/>
<text text-anchor="middle" x="877.5" y="-231.5" font-family="Helvetica,sans-Serif" font-size="10.00">netaddress.h</text>
</a>
</g>
</g>
<!-- Node0&#45;&gt;Node1 -->
<g id="edge1" class="edge"><title>Node0&#45;&gt;Node1</title>
<path fill="none" stroke="midnightblue" d="M877.5,-336.368C877.5,-318.617 877.5,-277.666 877.5,-253.597"/>
<polygon fill="midnightblue" stroke="midnightblue" points="881,-253.591 877.5,-243.591 874,-253.591 881,-253.591"/>
</g>
<!-- Node40 -->
<g id="node28" class="node"><title>Node40</title>
<g id="a_node28"><a xlink:href="netbase_8h.html" target="_top" xlink:title="netbase.h">
<polygon fill="white" stroke="black" points="777,-280.5 777,-299.5 842,-299.5 842,-280.5 777,-280.5"/>
<text text-anchor="middle" x="809.5" y="-287.5" font-family="Helvetica,sans-Serif" font-size="10.00">netbase.h</text>
</a>
</g>
</g>
<!-- Node0&#45;&gt;Node40 -->
<g id="edge35" class="edge"><title>Node0&#45;&gt;Node40</title>
<path fill="none" stroke="midnightblue" d="M866.575,-336.324C856.325,-328.185 840.779,-315.839 828.499,-306.087"/>
<polygon fill="midnightblue" stroke="midnightblue" points="830.632,-303.312 820.624,-299.834 826.279,-308.794 830.632,-303.312"/>
</g>
<!-- Node41 -->
<g id="node29" class="node"><title>Node41</title>
<g id="a_node29"><a xlink:href="hash_8h.html" target="_top" xlink:title="hash.h">
<polygon fill="white" stroke="black" points="1712,-224.5 1712,-243.5 1761,-243.5 1761,-224.5 1712,-224.5"/>
<text text-anchor="middle" x="1736.5" y="-231.5" font-family="Helvetica,sans-Serif" font-size="10.00">hash.h</text>
</a>
</g>
</g>
<!-- Node0&#45;&gt;Node41 -->
<g id="edge42" class="edge"><title>Node0&#45;&gt;Node41</title>
<path fill="none" stroke="midnightblue" d="M931.56,-338.077C1092.99,-317.405 1568.58,-256.503 1701.59,-239.471"/>
<polygon fill="midnightblue" stroke="midnightblue" points="1702.15,-242.927 1711.63,-238.185 1701.26,-235.984 1702.15,-242.927"/>
</g>
<!-- Node62 -->
<g id="node46" class="node"><title>Node62</title>
<g id="a_node46"><a xlink:href="utilstrencodings_8h.html" target="_top" xlink:title="utilstrencodings.h">
<polygon fill="white" stroke="black" points="581,-168.5 581,-187.5 682,-187.5 682,-168.5 581,-168.5"/>
<text text-anchor="middle" x="631.5" y="-175.5" font-family="Helvetica,sans-Serif" font-size="10.00">utilstrencodings.h</text>
</a>
</g>
</g>
<!-- Node0&#45;&gt;Node62 -->
<g id="edge69" class="edge"><title>Node0&#45;&gt;Node62</title>
<path fill="none" stroke="midnightblue" d="M849.12,-336.36C826.127,-328.677 793.41,-316.162 767.5,-300 718.354,-269.345 669.869,-220.563 646.29,-195.323"/>
<polygon fill="midnightblue" stroke="midnightblue" points="648.636,-192.704 639.283,-187.726 643.49,-197.45 648.636,-192.704"/>
</g>
<!-- Node63 -->
<g id="node47" class="node"><title>Node63</title>
<g id="a_node47"><a xlink:href="tinyformat_8h.html" target="_top" xlink:title="tinyformat.h">
<polygon fill="white" stroke="black" points="2744,-168.5 2744,-187.5 2819,-187.5 2819,-168.5 2744,-168.5"/>
<text text-anchor="middle" x="2781.5" y="-175.5" font-family="Helvetica,sans-Serif" font-size="10.00">tinyformat.h</text>
</a>
</g>
</g>
<!-- Node0&#45;&gt;Node63 -->
<g id="edge73" class="edge"><title>Node0&#45;&gt;Node63</title>
<path fill="none" stroke="midnightblue" d="M931.701,-342.583C1154.07,-332.212 2018.09,-287.48 2733.9,-188.096"/>
<polygon fill="midnightblue" stroke="midnightblue" points="2734.48,-191.549 2743.9,-186.703 2733.51,-184.616 2734.48,-191.549"/>
</g>
<!-- Node2 -->
<g id="node3" class="node"><title>Node2</title>
<g id="a_node3"><a xlink:href="compat_8h.html" target="_top" xlink:title="compat.h">
<polygon fill="white" stroke="black" points="569.5,-56.5 569.5,-75.5 631.5,-75.5 631.5,-56.5 569.5,-56.5"/>
<text text-anchor="middle" x="600.5" y="-63.5" font-family="Helvetica,sans-Serif" font-size="10.00">compat.h</text>
</a>
</g>
</g>
<!-- Node1&#45;&gt;Node2 -->
<g id="edge2" class="edge"><title>Node1&#45;&gt;Node2</title>
<path fill="none" stroke="midnightblue" d="M837.47,-233.292C762.499,-232.893 605.414,-227.266 571.5,-188 545.72,-158.152 571.463,-109.332 588.35,-83.7843"/>
<polygon fill="midnightblue" stroke="midnightblue" points="591.265,-85.7228 594.059,-75.5031 585.502,-81.7497 591.265,-85.7228"/>
</g>
<!-- Node18 -->
<g id="node19" class="node"><title>Node18</title>
<g id="a_node19"><a xlink:href="serialize_8h.html" target="_top" xlink:title="serialize.h">
<polygon fill="white" stroke="red" points="1041,-168.5 1041,-187.5 1106,-187.5 1106,-168.5 1041,-168.5"/>
<text text-anchor="middle" x="1073.5" y="-175.5" font-family="Helvetica,sans-Serif" font-size="10.00">serialize.h</text>
</a>
</g>
</g>
<!-- Node1&#45;&gt;Node18 -->
<g id="edge18" class="edge"><title>Node1&#45;&gt;Node18</title>
<path fill="none" stroke="midnightblue" d="M908.557,-224.444C942.103,-215.201 995.697,-200.436 1032.64,-190.257"/>
<polygon fill="midnightblue" stroke="midnightblue" points="1033.88,-193.547 1042.59,-187.516 1032.02,-186.798 1033.88,-193.547"/>
</g>
<!-- Node21 -->
<g id="node21" class="node"><title>Node21</title>
<polygon fill="white" stroke="#bfbfbf" points="974,-56.5 974,-75.5 1027,-75.5 1027,-56.5 974,-56.5"/>
<text text-anchor="middle" x="1000.5" y="-63.5" font-family="Helvetica,sans-Serif" font-size="10.00">stdint.h</text>
</g>
<!-- Node1&#45;&gt;Node21 -->
<g id="edge32" class="edge"><title>Node1&#45;&gt;Node21</title>
<path fill="none" stroke="midnightblue" d="M858.823,-224.449C818.826,-205.011 731.357,-155.791 767.5,-112 791.93,-82.4001 904.214,-72.0497 963.535,-68.608"/>
<polygon fill="midnightblue" stroke="midnightblue" points="963.821,-72.0977 973.616,-68.0602 963.441,-65.1081 963.821,-72.0977"/>
</g>
<!-- Node30 -->
<g id="node25" class="node"><title>Node30</title>
<polygon fill="white" stroke="#bfbfbf" points="842.5,-112.5 842.5,-131.5 886.5,-131.5 886.5,-112.5 842.5,-112.5"/>
<text text-anchor="middle" x="864.5" y="-119.5" font-family="Helvetica,sans-Serif" font-size="10.00">string</text>
</g>
<!-- Node1&#45;&gt;Node30 -->
<g id="edge33" class="edge"><title>Node1&#45;&gt;Node30</title>
<path fill="none" stroke="midnightblue" d="M876.48,-224.368C874.382,-206.617 869.542,-165.666 866.698,-141.597"/>
<polygon fill="midnightblue" stroke="midnightblue" points="870.165,-141.112 865.515,-131.591 863.213,-141.933 870.165,-141.112"/>
</g>
<!-- Node35 -->
<g id="node26" class="node"><title>Node35</title>
<polygon fill="white" stroke="#bfbfbf" points="777,-112.5 777,-131.5 824,-131.5 824,-112.5 777,-112.5"/>
<text text-anchor="middle" x="800.5" y="-119.5" font-family="Helvetica,sans-Serif" font-size="10.00">vector</text>
</g>
<!-- Node1&#45;&gt;Node35 -->
<g id="edge34" class="edge"><title>Node1&#45;&gt;Node35</title>
<path fill="none" stroke="midnightblue" d="M871.458,-224.368C858.751,-206.215 829.061,-163.802 812.393,-139.99"/>
<polygon fill="midnightblue" stroke="midnightblue" points="815.116,-137.777 806.514,-131.591 809.381,-141.791 815.116,-137.777"/>
</g>
<!-- Node3 -->
<g id="node4" class="node"><title>Node3</title>
<polygon fill="white" stroke="#bfbfbf" points="1153.5,-0.5 1153.5,-19.5 1221.5,-19.5 1221.5,-0.5 1153.5,-0.5"/>
<text text-anchor="middle" x="1187.5" y="-7.5" font-family="Helvetica,sans-Serif" font-size="10.00">type_traits</text>
</g>
<!-- Node2&#45;&gt;Node3 -->
<g id="edge3" class="edge"><title>Node2&#45;&gt;Node3</title>
<path fill="none" stroke="midnightblue" d="M631.614,-62.8224C712.397,-57.0569 935.41,-40.4286 1120.5,-20 1127.88,-19.1856 1135.7,-18.2243 1143.3,-17.2383"/>
<polygon fill="midnightblue" stroke="midnightblue" points="1144,-20.6757 1153.45,-15.89 1143.08,-13.7365 1144,-20.6757"/>
</g>
<!-- Node4 -->
<g id="node5" class="node"><title>Node4</title>
<polygon fill="white" stroke="#bfbfbf" points="971.5,-0.5 971.5,-19.5 1017.5,-19.5 1017.5,-0.5 971.5,-0.5"/>
<text text-anchor="middle" x="994.5" y="-7.5" font-family="Helvetica,sans-Serif" font-size="10.00">fcntl.h</text>
</g>
<!-- Node2&#45;&gt;Node4 -->
<g id="edge4" class="edge"><title>Node2&#45;&gt;Node4</title>
<path fill="none" stroke="midnightblue" d="M631.642,-62.6202C692.868,-57.6204 833.307,-44.5659 961.194,-19.7683"/>
<polygon fill="midnightblue" stroke="midnightblue" points="962.026,-23.1717 971.162,-17.8062 960.674,-16.3035 962.026,-23.1717"/>
</g>
<!-- Node5 -->
<g id="node6" class="node"><title>Node5</title>
<polygon fill="white" stroke="#bfbfbf" points="1035.5,-0.5 1035.5,-19.5 1111.5,-19.5 1111.5,-0.5 1035.5,-0.5"/>
<text text-anchor="middle" x="1073.5" y="-7.5" font-family="Helvetica,sans-Serif" font-size="10.00">sys/mman.h</text>
</g>
<!-- Node2&#45;&gt;Node5 -->
<g id="edge5" class="edge"><title>Node2&#45;&gt;Node5</title>
<path fill="none" stroke="midnightblue" d="M631.615,-62.6143C700.606,-57.1318 871.802,-42.467 1025.25,-20.0738"/>
<polygon fill="midnightblue" stroke="midnightblue" points="1025.94,-23.5089 1035.33,-18.5877 1024.92,-16.5838 1025.94,-23.5089"/>
</g>
<!-- Node6 -->
<g id="node7" class="node"><title>Node6</title>
<polygon fill="white" stroke="#bfbfbf" points="0,-0.5 0,-19.5 73,-19.5 73,-0.5 0,-0.5"/>
<text text-anchor="middle" x="36.5" y="-7.5" font-family="Helvetica,sans-Serif" font-size="10.00">sys/select.h</text>
</g>
<!-- Node2&#45;&gt;Node6 -->
<g id="edge6" class="edge"><title>Node2&#45;&gt;Node6</title>
<path fill="none" stroke="midnightblue" d="M569.425,-63.458C490.14,-59.2778 273.756,-46.3265 83.0235,-19.9155"/>
<polygon fill="midnightblue" stroke="midnightblue" points="83.4877,-16.4465 73.0989,-18.5257 82.5168,-23.3788 83.4877,-16.4465"/>
</g>
<!-- Node7 -->
<g id="node8" class="node"><title>Node7</title>
<polygon fill="white" stroke="#bfbfbf" points="91.5,-0.5 91.5,-19.5 167.5,-19.5 167.5,-0.5 91.5,-0.5"/>
<text text-anchor="middle" x="129.5" y="-7.5" font-family="Helvetica,sans-Serif" font-size="10.00">sys/socket.h</text>
</g>
<!-- Node2&#45;&gt;Node7 -->
<g id="edge7" class="edge"><title>Node2&#45;&gt;Node7</title>
<path fill="none" stroke="midnightblue" d="M569.268,-62.5838C500.428,-57.066 330.28,-42.3757 177.698,-20.0665"/>
<polygon fill="midnightblue" stroke="midnightblue" points="178.078,-16.5849 167.674,-18.5861 177.055,-23.5097 178.078,-16.5849"/>
</g>
<!-- Node8 -->
<g id="node9" class="node"><title>Node8</title>
<polygon fill="white" stroke="#bfbfbf" points="186,-0.5 186,-19.5 257,-19.5 257,-0.5 186,-0.5"/>
<text text-anchor="middle" x="221.5" y="-7.5" font-family="Helvetica,sans-Serif" font-size="10.00">sys/types.h</text>
</g>
<!-- Node2&#45;&gt;Node8 -->
<g id="edge8" class="edge"><title>Node2&#45;&gt;Node8</title>
<path fill="none" stroke="midnightblue" d="M569.449,-61.5466C511.796,-54.9801 384.114,-39.7144 266.865,-20.1394"/>
<polygon fill="midnightblue" stroke="midnightblue" points="267.445,-16.688 257.003,-18.4784 266.282,-23.5908 267.445,-16.688"/>
</g>
<!-- Node9 -->
<g id="node10" class="node"><title>Node9</title>
<polygon fill="white" stroke="#bfbfbf" points="275,-0.5 275,-19.5 324,-19.5 324,-0.5 275,-0.5"/>
<text text-anchor="middle" x="299.5" y="-7.5" font-family="Helvetica,sans-Serif" font-size="10.00">net/if.h</text>
</g>
<!-- Node2&#45;&gt;Node9 -->
<g id="edge9" class="edge"><title>Node2&#45;&gt;Node9</title>
<path fill="none" stroke="midnightblue" d="M569.356,-60.8019C520.956,-54.055 424.602,-39.7355 334.161,-20.2047"/>
<polygon fill="midnightblue" stroke="midnightblue" points="334.817,-16.7657 324.3,-18.0491 333.322,-23.6042 334.817,-16.7657"/>
</g>
<!-- Node10 -->
<g id="node11" class="node"><title>Node10</title>
<polygon fill="white" stroke="#bfbfbf" points="342,-0.5 342,-19.5 413,-19.5 413,-0.5 342,-0.5"/>
<text text-anchor="middle" x="377.5" y="-7.5" font-family="Helvetica,sans-Serif" font-size="10.00">netinet/in.h</text>
</g>
<!-- Node2&#45;&gt;Node10 -->
<g id="edge10" class="edge"><title>Node2&#45;&gt;Node10</title>
<path fill="none" stroke="midnightblue" d="M569.493,-57.4915C531.299,-48.2429 466.124,-32.4606 422.444,-21.8833"/>
<polygon fill="midnightblue" stroke="midnightblue" points="423.193,-18.4637 412.65,-19.5118 421.546,-25.267 423.193,-18.4637"/>
</g>
<!-- Node11 -->
<g id="node12" class="node"><title>Node11</title>
<polygon fill="white" stroke="#bfbfbf" points="431,-0.5 431,-19.5 508,-19.5 508,-0.5 431,-0.5"/>
<text text-anchor="middle" x="469.5" y="-7.5" font-family="Helvetica,sans-Serif" font-size="10.00">netinet/tcp.h</text>
</g>
<!-- Node2&#45;&gt;Node11 -->
<g id="edge11" class="edge"><title>Node2&#45;&gt;Node11</title>
<path fill="none" stroke="midnightblue" d="M579.743,-56.4435C558.184,-47.5566 524.237,-33.5632 499.706,-23.4514"/>
<polygon fill="midnightblue" stroke="midnightblue" points="500.739,-20.0917 490.16,-19.5164 498.072,-26.5634 500.739,-20.0917"/>
</g>
<!-- Node12 -->
<g id="node13" class="node"><title>Node12</title>
<polygon fill="white" stroke="#bfbfbf" points="526.5,-0.5 526.5,-19.5 594.5,-19.5 594.5,-0.5 526.5,-0.5"/>
<text text-anchor="middle" x="560.5" y="-7.5" font-family="Helvetica,sans-Serif" font-size="10.00">arpa/inet.h</text>
</g>
<!-- Node2&#45;&gt;Node12 -->
<g id="edge12" class="edge"><title>Node2&#45;&gt;Node12</title>
<path fill="none" stroke="midnightblue" d="M593.895,-56.083C588.245,-48.4554 579.955,-37.2645 573.049,-27.9408"/>
<polygon fill="midnightblue" stroke="midnightblue" points="575.747,-25.7034 566.982,-19.7511 570.122,-29.87 575.747,-25.7034"/>
</g>
<!-- Node13 -->
<g id="node14" class="node"><title>Node13</title>
<polygon fill="white" stroke="#bfbfbf" points="612.5,-0.5 612.5,-19.5 670.5,-19.5 670.5,-0.5 612.5,-0.5"/>
<text text-anchor="middle" x="641.5" y="-7.5" font-family="Helvetica,sans-Serif" font-size="10.00">ifaddrs.h</text>
</g>
<!-- Node2&#45;&gt;Node13 -->
<g id="edge13" class="edge"><title>Node2&#45;&gt;Node13</title>
<path fill="none" stroke="midnightblue" d="M607.27,-56.083C613.062,-48.4554 621.558,-37.2645 628.638,-27.9408"/>
<polygon fill="midnightblue" stroke="midnightblue" points="631.596,-29.8321 634.856,-19.7511 626.021,-25.5991 631.596,-29.8321"/>
</g>
<!-- Node14 -->
<g id="node15" class="node"><title>Node14</title>
<polygon fill="white" stroke="#bfbfbf" points="689,-0.5 689,-19.5 740,-19.5 740,-0.5 689,-0.5"/>
<text text-anchor="middle" x="714.5" y="-7.5" font-family="Helvetica,sans-Serif" font-size="10.00">limits.h</text>
</g>
<!-- Node2&#45;&gt;Node14 -->
<g id="edge14" class="edge"><title>Node2&#45;&gt;Node14</title>
<path fill="none" stroke="midnightblue" d="M618.564,-56.4435C637.075,-47.6751 666.081,-33.9355 687.355,-23.8579"/>
<polygon fill="midnightblue" stroke="midnightblue" points="688.982,-26.9604 696.521,-19.5164 685.985,-20.6343 688.982,-26.9604"/>
</g>
<!-- Node15 -->
<g id="node16" class="node"><title>Node15</title>
<polygon fill="white" stroke="#bfbfbf" points="758,-0.5 758,-19.5 811,-19.5 811,-0.5 758,-0.5"/>
<text text-anchor="middle" x="784.5" y="-7.5" font-family="Helvetica,sans-Serif" font-size="10.00">netdb.h</text>
</g>
<!-- Node2&#45;&gt;Node15 -->
<g id="edge15" class="edge"><title>Node2&#45;&gt;Node15</title>
<path fill="none" stroke="midnightblue" d="M629.655,-56.4435C661.751,-47.0241 713.395,-31.8679 748.118,-21.6774"/>
<polygon fill="midnightblue" stroke="midnightblue" points="749.261,-24.9895 757.871,-18.8151 747.29,-18.2728 749.261,-24.9895"/>
</g>
<!-- Node16 -->
<g id="node17" class="node"><title>Node16</title>
<polygon fill="white" stroke="#bfbfbf" points="829,-0.5 829,-19.5 884,-19.5 884,-0.5 829,-0.5"/>
<text text-anchor="middle" x="856.5" y="-7.5" font-family="Helvetica,sans-Serif" font-size="10.00">unistd.h</text>
</g>
<!-- Node2&#45;&gt;Node16 -->
<g id="edge16" class="edge"><title>Node2&#45;&gt;Node16</title>
<path fill="none" stroke="midnightblue" d="M631.765,-58.943C672.498,-50.9715 746.16,-36.2831 818.861,-20.0803"/>
<polygon fill="midnightblue" stroke="midnightblue" points="819.651,-23.4901 828.645,-17.8892 818.122,-16.6593 819.651,-23.4901"/>
</g>
<!-- Node17 -->
<g id="node18" class="node"><title>Node17</title>
<polygon fill="white" stroke="#bfbfbf" points="902,-0.5 902,-19.5 953,-19.5 953,-0.5 902,-0.5"/>
<text text-anchor="middle" x="927.5" y="-7.5" font-family="Helvetica,sans-Serif" font-size="10.00">errno.h</text>
</g>
<!-- Node2&#45;&gt;Node17 -->
<g id="edge17" class="edge"><title>Node2&#45;&gt;Node17</title>
<path fill="none" stroke="midnightblue" d="M631.795,-61.2091C683.712,-54.6978 791.075,-40.2916 891.905,-19.9333"/>
<polygon fill="midnightblue" stroke="midnightblue" points="892.857,-23.3111 901.954,-17.8797 891.455,-16.4529 892.857,-23.3111"/>
</g>
<!-- Node19 -->
<g id="node20" class="node"><title>Node19</title>
<g id="a_node20"><a xlink:href="endian_8h.html" target="_top" xlink:title="compat/endian.h">
<polygon fill="white" stroke="red" points="1028.5,-112.5 1028.5,-131.5 1126.5,-131.5 1126.5,-112.5 1028.5,-112.5"/>
<text text-anchor="middle" x="1077.5" y="-119.5" font-family="Helvetica,sans-Serif" font-size="10.00">compat/endian.h</text>
</a>
</g>
</g>
<!-- Node18&#45;&gt;Node19 -->
<g id="edge19" class="edge"><title>Node18&#45;&gt;Node19</title>
<path fill="none" stroke="midnightblue" d="M1074.16,-168.083C1074.68,-161.006 1075.44,-150.861 1076.09,-141.986"/>
<polygon fill="midnightblue" stroke="midnightblue" points="1079.6,-141.982 1076.85,-131.751 1072.62,-141.465 1079.6,-141.982"/>
</g>
<!-- Node18&#45;&gt;Node21 -->
<g id="edge24" class="edge"><title>Node18&#45;&gt;Node21</title>
<path fill="none" stroke="midnightblue" d="M1059.04,-168.435C1046.8,-160.469 1029.67,-147.514 1019.5,-132 1010.34,-118.019 1005.49,-99.5167 1002.99,-85.8286"/>
<polygon fill="midnightblue" stroke="midnightblue" points="1006.41,-85.0071 1001.4,-75.6678 999.491,-86.0884 1006.41,-85.0071"/>
</g>
<!-- Node22 -->
<g id="node22" class="node"><title>Node22</title>
<polygon fill="white" stroke="#bfbfbf" points="1662.5,-112.5 1662.5,-131.5 1724.5,-131.5 1724.5,-112.5 1662.5,-112.5"/>
<text text-anchor="middle" x="1693.5" y="-119.5" font-family="Helvetica,sans-Serif" font-size="10.00">algorithm</text>
</g>
<!-- Node18&#45;&gt;Node22 -->
<g id="edge21" class="edge"><title>Node18&#45;&gt;Node22</title>
<path fill="none" stroke="midnightblue" d="M1106.17,-173.108C1120.66,-171.438 1137.92,-169.525 1153.5,-168 1339.48,-149.794 1561.95,-132.748 1652.32,-126.023"/>
<polygon fill="midnightblue" stroke="midnightblue" points="1652.71,-129.504 1662.43,-125.274 1652.19,-122.524 1652.71,-129.504"/>
</g>
<!-- Node23 -->
<g id="node23" class="node"><title>Node23</title>
<polygon fill="white" stroke="#bfbfbf" points="1382.5,-56.5 1382.5,-75.5 1438.5,-75.5 1438.5,-56.5 1382.5,-56.5"/>
<text text-anchor="middle" x="1410.5" y="-63.5" font-family="Helvetica,sans-Serif" font-size="10.00">assert.h</text>
</g>
<!-- Node18&#45;&gt;Node23 -->
<g id="edge22" class="edge"><title>Node18&#45;&gt;Node23</title>
<path fill="none" stroke="midnightblue" d="M1106.09,-173.323C1184.82,-164.314 1379.72,-141.203 1390.5,-132 1403.81,-120.637 1408.41,-100.643 1409.93,-85.8212"/>
<polygon fill="midnightblue" stroke="midnightblue" points="1413.43,-85.9281 1410.58,-75.7237 1406.44,-85.4778 1413.43,-85.9281"/>
</g>
<!-- Node24 -->
<g id="node24" class="node"><title>Node24</title>
<polygon fill="white" stroke="#bfbfbf" points="942.5,-112.5 942.5,-131.5 972.5,-131.5 972.5,-112.5 942.5,-112.5"/>
<text text-anchor="middle" x="957.5" y="-119.5" font-family="Helvetica,sans-Serif" font-size="10.00">ios</text>
</g>
<!-- Node18&#45;&gt;Node24 -->
<g id="edge23" class="edge"><title>Node18&#45;&gt;Node24</title>
<path fill="none" stroke="midnightblue" d="M1055.12,-168.444C1035.4,-159.262 1003.97,-144.631 982.119,-134.46"/>
<polygon fill="midnightblue" stroke="midnightblue" points="983.374,-131.184 972.831,-130.137 980.42,-137.53 983.374,-131.184"/>
</g>
<!-- Node18&#45;&gt;Node30 -->
<g id="edge25" class="edge"><title>Node18&#45;&gt;Node30</title>
<path fill="none" stroke="midnightblue" d="M1040.84,-168.562C1001.43,-158.379 935.582,-141.366 896.475,-131.261"/>
<polygon fill="midnightblue" stroke="midnightblue" points="897.226,-127.841 886.669,-128.728 895.475,-134.618 897.226,-127.841"/>
</g>
<!-- Node18&#45;&gt;Node35 -->
<g id="edge26" class="edge"><title>Node18&#45;&gt;Node35</title>
<path fill="none" stroke="midnightblue" d="M1040.96,-169.923C1037.77,-169.259 1034.57,-168.608 1031.5,-168 946.845,-151.238 922.426,-151.727 834.142,-131.977"/>
<polygon fill="midnightblue" stroke="midnightblue" points="834.757,-128.528 824.231,-129.736 833.213,-135.355 834.757,-128.528"/>
</g>
<!-- Node36 -->
<g id="node27" class="node"><title>Node36</title>
<g id="a_node27"><a xlink:href="prevector_8h.html" target="_top" xlink:title="prevector.h">
<polygon fill="white" stroke="red" points="1311,-112.5 1311,-131.5 1382,-131.5 1382,-112.5 1311,-112.5"/>
<text text-anchor="middle" x="1346.5" y="-119.5" font-family="Helvetica,sans-Serif" font-size="10.00">prevector.h</text>
</a>
</g>
</g>
<!-- Node18&#45;&gt;Node36 -->
<g id="edge27" class="edge"><title>Node18&#45;&gt;Node36</title>
<path fill="none" stroke="midnightblue" d="M1106.16,-170.54C1154.66,-160.947 1245.9,-142.9 1300.94,-132.012"/>
<polygon fill="midnightblue" stroke="midnightblue" points="1301.65,-135.44 1310.78,-130.066 1300.29,-128.573 1301.65,-135.44"/>
</g>
<!-- Node19&#45;&gt;Node21 -->
<g id="edge20" class="edge"><title>Node19&#45;&gt;Node21</title>
<path fill="none" stroke="midnightblue" d="M1065.13,-112.324C1053.34,-104.058 1035.37,-91.4527 1021.36,-81.6322"/>
<polygon fill="midnightblue" stroke="midnightblue" points="1023.04,-78.5307 1012.84,-75.6545 1019.02,-84.2619 1023.04,-78.5307"/>
</g>
<!-- Node36&#45;&gt;Node2 -->
<g id="edge31" class="edge"><title>Node36&#45;&gt;Node2</title>
<path fill="none" stroke="midnightblue" d="M1310.99,-116.832C1296.3,-115.191 1279.09,-113.374 1263.5,-112 1028.51,-91.293 745.926,-74.9556 641.7,-69.2183"/>
<polygon fill="midnightblue" stroke="midnightblue" points="641.779,-65.7174 631.602,-68.6649 641.395,-72.707 641.779,-65.7174"/>
</g>
<!-- Node36&#45;&gt;Node3 -->
<g id="edge30" class="edge"><title>Node36&#45;&gt;Node3</title>
<path fill="none" stroke="midnightblue" d="M1334.02,-112.368C1306.86,-93.5728 1242.09,-48.7684 1208.51,-25.5334"/>
<polygon fill="midnightblue" stroke="midnightblue" points="1210.13,-22.4025 1199.92,-19.5914 1206.15,-28.1592 1210.13,-22.4025"/>
</g>
<!-- Node36&#45;&gt;Node21 -->
<g id="edge29" class="edge"><title>Node36&#45;&gt;Node21</title>
<path fill="none" stroke="midnightblue" d="M1310.74,-114.441C1305.96,-113.6 1301.11,-112.765 1296.5,-112 1203.29,-96.528 1093.2,-80.3386 1037.21,-72.2522"/>
<polygon fill="midnightblue" stroke="midnightblue" points="1037.47,-68.7541 1027.07,-70.792 1036.47,-75.6826 1037.47,-68.7541"/>
</g>
<!-- Node36&#45;&gt;Node23 -->
<g id="edge28" class="edge"><title>Node36&#45;&gt;Node23</title>
<path fill="none" stroke="midnightblue" d="M1356.78,-112.324C1366.34,-104.263 1380.78,-92.0765 1392.28,-82.3695"/>
<polygon fill="midnightblue" stroke="midnightblue" points="1394.64,-84.9577 1400.03,-75.8339 1390.13,-79.6076 1394.64,-84.9577"/>
</g>
<!-- Node40&#45;&gt;Node1 -->
<g id="edge37" class="edge"><title>Node40&#45;&gt;Node1</title>
<path fill="none" stroke="midnightblue" d="M820.425,-280.324C830.675,-272.185 846.221,-259.839 858.501,-250.087"/>
<polygon fill="midnightblue" stroke="midnightblue" points="860.721,-252.794 866.376,-243.834 856.368,-247.312 860.721,-252.794"/>
</g>
<!-- Node40&#45;&gt;Node2 -->
<g id="edge36" class="edge"><title>Node40&#45;&gt;Node2</title>
<path fill="none" stroke="midnightblue" d="M776.91,-286.962C719.457,-282.707 603.474,-270.945 574.5,-244 529.803,-202.432 569.053,-120.376 589.704,-84.4915"/>
<polygon fill="midnightblue" stroke="midnightblue" points="592.849,-86.0509 594.95,-75.6666 586.832,-82.474 592.849,-86.0509"/>
</g>
<!-- Node40&#45;&gt;Node18 -->
<g id="edge38" class="edge"><title>Node40&#45;&gt;Node18</title>
<path fill="none" stroke="midnightblue" d="M832.942,-280.371C856.66,-271.549 894.317,-257.295 926.5,-244 968.44,-226.675 1016.41,-205.132 1045.83,-191.721"/>
<polygon fill="midnightblue" stroke="midnightblue" points="1047.42,-194.843 1055.06,-187.503 1044.51,-188.476 1047.42,-194.843"/>
</g>
<!-- Node40&#45;&gt;Node21 -->
<g id="edge39" class="edge"><title>Node40&#45;&gt;Node21</title>
<path fill="none" stroke="midnightblue" d="M776.887,-285.816C700.615,-276.987 520.766,-247.385 571.5,-168 614.095,-101.351 867.701,-76.479 963.705,-69.3758"/>
<polygon fill="midnightblue" stroke="midnightblue" points="964.094,-72.857 973.818,-68.6506 963.593,-65.875 964.094,-72.857"/>
</g>
<!-- Node40&#45;&gt;Node30 -->
<g id="edge40" class="edge"><title>Node40&#45;&gt;Node30</title>
<path fill="none" stroke="midnightblue" d="M811.92,-280.119C815.383,-267.556 822.048,-243.908 828.5,-224 837.986,-194.729 850.23,-161.15 857.717,-141.03"/>
<polygon fill="midnightblue" stroke="midnightblue" points="861.023,-142.181 861.248,-131.589 854.466,-139.729 861.023,-142.181"/>
</g>
<!-- Node40&#45;&gt;Node35 -->
<g id="edge41" class="edge"><title>Node40&#45;&gt;Node35</title>
<path fill="none" stroke="midnightblue" d="M805.9,-280.222C802.444,-271.285 797.467,-256.942 795.5,-244 790.044,-208.095 794.227,-165.555 797.526,-141.68"/>
<polygon fill="midnightblue" stroke="midnightblue" points="801.02,-141.976 799.028,-131.57 794.096,-140.947 801.02,-141.976"/>
</g>
<!-- Node41&#45;&gt;Node18 -->
<g id="edge49" class="edge"><title>Node41&#45;&gt;Node18</title>
<path fill="none" stroke="midnightblue" d="M1711.75,-232.225C1628.2,-229.391 1349.07,-218.129 1120.5,-188 1119.03,-187.807 1117.54,-187.597 1116.04,-187.373"/>
<polygon fill="midnightblue" stroke="midnightblue" points="1116.47,-183.897 1106.04,-185.738 1115.34,-190.806 1116.47,-183.897"/>
</g>
<!-- Node41&#45;&gt;Node35 -->
<g id="edge68" class="edge"><title>Node41&#45;&gt;Node35</title>
<path fill="none" stroke="midnightblue" d="M1711.83,-233.103C1592.42,-233.377 1073.88,-231.972 919.5,-188 881.891,-177.288 842.985,-153.11 820.301,-137.451"/>
<polygon fill="midnightblue" stroke="midnightblue" points="822.083,-134.425 811.894,-131.522 818.048,-140.146 822.083,-134.425"/>
</g>
<!-- Node41&#45;&gt;Node36 -->
<g id="edge48" class="edge"><title>Node41&#45;&gt;Node36</title>
<path fill="none" stroke="midnightblue" d="M1761.07,-232.62C1896.29,-230.413 2544.82,-218.268 2573.5,-188 2579.61,-181.548 2579.67,-174.4 2573.5,-168 2568.27,-162.577 1614.56,-131.612 1392.38,-124.47"/>
<polygon fill="midnightblue" stroke="midnightblue" points="1392.17,-120.961 1382.06,-124.138 1391.94,-127.957 1392.17,-120.961"/>
</g>
<!-- Node42 -->
<g id="node30" class="node"><title>Node42</title>
<g id="a_node30"><a xlink:href="ripemd160_8h.html" target="_top" xlink:title="crypto/ripemd160.h">
<polygon fill="white" stroke="red" points="1144.5,-112.5 1144.5,-131.5 1254.5,-131.5 1254.5,-112.5 1144.5,-112.5"/>
<text text-anchor="middle" x="1199.5" y="-119.5" font-family="Helvetica,sans-Serif" font-size="10.00">crypto/ripemd160.h</text>
</a>
</g>
</g>
<!-- Node41&#45;&gt;Node42 -->
<g id="edge43" class="edge"><title>Node41&#45;&gt;Node42</title>
<path fill="none" stroke="midnightblue" d="M1711.85,-233.02C1605.8,-232.853 1191.95,-229.53 1153.5,-188 1138.81,-172.133 1159.24,-151.391 1177.36,-137.654"/>
<polygon fill="midnightblue" stroke="midnightblue" points="1179.82,-140.198 1185.91,-131.525 1175.74,-134.509 1179.82,-140.198"/>
</g>
<!-- Node43 -->
<g id="node31" class="node"><title>Node43</title>
<g id="a_node31"><a xlink:href="sha256_8h.html" target="_top" xlink:title="crypto/sha256.h">
<polygon fill="white" stroke="red" points="928.5,-168.5 928.5,-187.5 1022.5,-187.5 1022.5,-168.5 928.5,-168.5"/>
<text text-anchor="middle" x="975.5" y="-175.5" font-family="Helvetica,sans-Serif" font-size="10.00">crypto/sha256.h</text>
</a>
</g>
</g>
<!-- Node41&#45;&gt;Node43 -->
<g id="edge45" class="edge"><title>Node41&#45;&gt;Node43</title>
<path fill="none" stroke="midnightblue" d="M1711.76,-232.277C1621.98,-229.476 1304.77,-218.013 1032.58,-188.01"/>
<polygon fill="midnightblue" stroke="midnightblue" points="1032.83,-184.517 1022.51,-186.889 1032.06,-191.474 1032.83,-184.517"/>
</g>
<!-- Node44 -->
<g id="node32" class="node"><title>Node44</title>
<g id="a_node32"><a xlink:href="uint256_8h.html" target="_top" xlink:title="uint256.h">
<polygon fill="white" stroke="red" points="1806.5,-168.5 1806.5,-187.5 1868.5,-187.5 1868.5,-168.5 1806.5,-168.5"/>
<text text-anchor="middle" x="1837.5" y="-175.5" font-family="Helvetica,sans-Serif" font-size="10.00">uint256.h</text>
</a>
</g>
</g>
<!-- Node41&#45;&gt;Node44 -->
<g id="edge50" class="edge"><title>Node41&#45;&gt;Node44</title>
<path fill="none" stroke="midnightblue" d="M1752.73,-224.324C1768.85,-215.703 1793.8,-202.364 1812.46,-192.386"/>
<polygon fill="midnightblue" stroke="midnightblue" points="1814.14,-195.456 1821.31,-187.655 1810.84,-189.283 1814.14,-195.456"/>
</g>
<!-- Node48 -->
<g id="node34" class="node"><title>Node48</title>
<g id="a_node34"><a xlink:href="version_8h.html" target="_top" xlink:title="version.h">
<polygon fill="white" stroke="black" points="1886.5,-168.5 1886.5,-187.5 1946.5,-187.5 1946.5,-168.5 1886.5,-168.5"/>
<text text-anchor="middle" x="1916.5" y="-175.5" font-family="Helvetica,sans-Serif" font-size="10.00">version.h</text>
</a>
</g>
</g>
<!-- Node41&#45;&gt;Node48 -->
<g id="edge56" class="edge"><title>Node41&#45;&gt;Node48</title>
<path fill="none" stroke="midnightblue" d="M1761.15,-225.605C1791.3,-216.561 1842.67,-201.15 1878.03,-190.541"/>
<polygon fill="midnightblue" stroke="midnightblue" points="1879.42,-193.777 1888,-187.551 1877.41,-187.072 1879.42,-193.777"/>
</g>
<!-- Node49 -->
<g id="node35" class="node"><title>Node49</title>
<g id="a_node35"><a xlink:href="sph__blake_8h.html" target="_top" xlink:title="BLAKE interface. ">
<polygon fill="white" stroke="red" points="1964,-168.5 1964,-187.5 2071,-187.5 2071,-168.5 1964,-168.5"/>
<text text-anchor="middle" x="2017.5" y="-175.5" font-family="Helvetica,sans-Serif" font-size="10.00">crypto/sph_blake.h</text>
</a>
</g>
</g>
<!-- Node41&#45;&gt;Node49 -->
<g id="edge57" class="edge"><title>Node41&#45;&gt;Node49</title>
<path fill="none" stroke="midnightblue" d="M1761.44,-228.208C1806.45,-219.558 1902.23,-201.151 1963.05,-189.464"/>
<polygon fill="midnightblue" stroke="midnightblue" points="1964.07,-192.831 1973.23,-187.507 1962.75,-185.957 1964.07,-192.831"/>
</g>
<!-- Node52 -->
<g id="node36" class="node"><title>Node52</title>
<g id="a_node36"><a xlink:href="sph__bmw_8h.html" target="_top" xlink:title="BMW interface. ">
<polygon fill="white" stroke="red" points="2089,-168.5 2089,-187.5 2192,-187.5 2192,-168.5 2089,-168.5"/>
<text text-anchor="middle" x="2140.5" y="-175.5" font-family="Helvetica,sans-Serif" font-size="10.00">crypto/sph_bmw.h</text>
</a>
</g>
</g>
<!-- Node41&#45;&gt;Node52 -->
<g id="edge58" class="edge"><title>Node41&#45;&gt;Node52</title>
<path fill="none" stroke="midnightblue" d="M1761.06,-229.916C1815.9,-222.997 1952.76,-205.572 2078.72,-188.089"/>
<polygon fill="midnightblue" stroke="midnightblue" points="2079.5,-191.514 2088.92,-186.669 2078.54,-184.581 2079.5,-191.514"/>
</g>
<!-- Node53 -->
<g id="node37" class="node"><title>Node53</title>
<g id="a_node37"><a xlink:href="sph__groestl_8h.html" target="_top" xlink:title="Groestl interface. ">
<polygon fill="white" stroke="red" points="2210.5,-168.5 2210.5,-187.5 2324.5,-187.5 2324.5,-168.5 2210.5,-168.5"/>
<text text-anchor="middle" x="2267.5" y="-175.5" font-family="Helvetica,sans-Serif" font-size="10.00">crypto/sph_groestl.h</text>
</a>
</g>
</g>
<!-- Node41&#45;&gt;Node53 -->
<g id="edge59" class="edge"><title>Node41&#45;&gt;Node53</title>
<path fill="none" stroke="midnightblue" d="M1761.18,-230.929C1830.51,-225.042 2032.87,-207.381 2200.5,-188 2200.6,-187.988 2200.7,-187.976 2200.81,-187.965"/>
<polygon fill="midnightblue" stroke="midnightblue" points="2200.99,-191.468 2210.5,-186.802 2200.15,-184.518 2200.99,-191.468"/>
</g>
<!-- Node54 -->
<g id="node38" class="node"><title>Node54</title>
<g id="a_node38"><a xlink:href="sph__jh_8h.html" target="_top" xlink:title="JH interface. ">
<polygon fill="white" stroke="red" points="2343,-168.5 2343,-187.5 2432,-187.5 2432,-168.5 2343,-168.5"/>
<text text-anchor="middle" x="2387.5" y="-175.5" font-family="Helvetica,sans-Serif" font-size="10.00">crypto/sph_jh.h</text>
</a>
</g>
</g>
<!-- Node41&#45;&gt;Node54 -->
<g id="edge60" class="edge"><title>Node41&#45;&gt;Node54</title>
<path fill="none" stroke="midnightblue" d="M1761.03,-231.943C1841.41,-228.314 2104.3,-215.127 2332.6,-187.995"/>
<polygon fill="midnightblue" stroke="midnightblue" points="2333.24,-191.443 2342.76,-186.776 2332.41,-184.492 2333.24,-191.443"/>
</g>
<!-- Node55 -->
<g id="node39" class="node"><title>Node55</title>
<g id="a_node39"><a xlink:href="sph__keccak_8h.html" target="_top" xlink:title="Keccak interface. ">
<polygon fill="white" stroke="red" points="2450.5,-168.5 2450.5,-187.5 2564.5,-187.5 2564.5,-168.5 2450.5,-168.5"/>
<text text-anchor="middle" x="2507.5" y="-175.5" font-family="Helvetica,sans-Serif" font-size="10.00">crypto/sph_keccak.h</text>
</a>
</g>
</g>
<!-- Node41&#45;&gt;Node55 -->
<g id="edge61" class="edge"><title>Node41&#45;&gt;Node55</title>
<path fill="none" stroke="midnightblue" d="M1761.18,-232.046C1850.75,-228.453 2167.26,-214.617 2440.06,-187.965"/>
<polygon fill="midnightblue" stroke="midnightblue" points="2440.54,-191.435 2450.15,-186.971 2439.85,-184.468 2440.54,-191.435"/>
</g>
<!-- Node56 -->
<g id="node40" class="node"><title>Node56</title>
<g id="a_node40"><a xlink:href="sph__skein_8h.html" target="_top" xlink:title="Skein interface. ">
<polygon fill="white" stroke="red" points="2620.5,-168.5 2620.5,-187.5 2726.5,-187.5 2726.5,-168.5 2620.5,-168.5"/>
<text text-anchor="middle" x="2673.5" y="-175.5" font-family="Helvetica,sans-Serif" font-size="10.00">crypto/sph_skein.h</text>
</a>
</g>
</g>
<!-- Node41&#45;&gt;Node56 -->
<g id="edge62" class="edge"><title>Node41&#45;&gt;Node56</title>
<path fill="none" stroke="midnightblue" d="M1761.12,-232.464C1864.36,-230.063 2272.55,-219.013 2606.5,-188 2607.61,-187.897 2608.73,-187.789 2609.86,-187.677"/>
<polygon fill="midnightblue" stroke="midnightblue" points="2610.58,-191.119 2620.15,-186.567 2609.83,-184.159 2610.58,-191.119"/>
</g>
<!-- Node57 -->
<g id="node41" class="node"><title>Node57</title>
<g id="a_node41"><a xlink:href="sph__luffa_8h.html" target="_top" xlink:title="Luffa interface. ">
<polygon fill="white" stroke="red" points="1163,-168.5 1163,-187.5 1264,-187.5 1264,-168.5 1163,-168.5"/>
<text text-anchor="middle" x="1213.5" y="-175.5" font-family="Helvetica,sans-Serif" font-size="10.00">crypto/sph_luffa.h</text>
</a>
</g>
</g>
<!-- Node41&#45;&gt;Node57 -->
<g id="edge63" class="edge"><title>Node41&#45;&gt;Node57</title>
<path fill="none" stroke="midnightblue" d="M1711.86,-231.059C1643.96,-225.615 1448.26,-209.279 1274.32,-188.039"/>
<polygon fill="midnightblue" stroke="midnightblue" points="1274.57,-184.543 1264.21,-186.796 1273.71,-191.491 1274.57,-184.543"/>
</g>
<!-- Node58 -->
<g id="node42" class="node"><title>Node58</title>
<g id="a_node42"><a xlink:href="sph__cubehash_8h.html" target="_top" xlink:title="CubeHash interface. ">
<polygon fill="white" stroke="red" points="1282.5,-168.5 1282.5,-187.5 1410.5,-187.5 1410.5,-168.5 1282.5,-168.5"/>
<text text-anchor="middle" x="1346.5" y="-175.5" font-family="Helvetica,sans-Serif" font-size="10.00">crypto/sph_cubehash.h</text>
</a>
</g>
</g>
<!-- Node41&#45;&gt;Node58 -->
<g id="edge64" class="edge"><title>Node41&#45;&gt;Node58</title>
<path fill="none" stroke="midnightblue" d="M1711.81,-229.581C1653.77,-221.545 1506.87,-201.205 1418.04,-188.905"/>
<polygon fill="midnightblue" stroke="midnightblue" points="1418.42,-185.425 1408.03,-187.52 1417.46,-192.359 1418.42,-185.425"/>
</g>
<!-- Node59 -->
<g id="node43" class="node"><title>Node59</title>
<g id="a_node43"><a xlink:href="sph__shavite_8h.html" target="_top" xlink:title="SHAvite&#45;3 interface. ">
<polygon fill="white" stroke="red" points="1428.5,-168.5 1428.5,-187.5 1544.5,-187.5 1544.5,-168.5 1428.5,-168.5"/>
<text text-anchor="middle" x="1486.5" y="-175.5" font-family="Helvetica,sans-Serif" font-size="10.00">crypto/sph_shavite.h</text>
</a>
</g>
</g>
<!-- Node41&#45;&gt;Node59 -->
<g id="edge65" class="edge"><title>Node41&#45;&gt;Node59</title>
<path fill="none" stroke="midnightblue" d="M1711.62,-227.625C1670.77,-218.803 1588.78,-201.093 1535.83,-189.656"/>
<polygon fill="midnightblue" stroke="midnightblue" points="1536.49,-186.217 1525.98,-187.527 1535.01,-193.059 1536.49,-186.217"/>
</g>
<!-- Node60 -->
<g id="node44" class="node"><title>Node60</title>
<g id="a_node44"><a xlink:href="sph__simd_8h.html" target="_top" xlink:title="SIMD interface. ">
<polygon fill="white" stroke="red" points="1562.5,-168.5 1562.5,-187.5 1666.5,-187.5 1666.5,-168.5 1562.5,-168.5"/>
<text text-anchor="middle" x="1614.5" y="-175.5" font-family="Helvetica,sans-Serif" font-size="10.00">crypto/sph_simd.h</text>
</a>
</g>
</g>
<!-- Node41&#45;&gt;Node60 -->
<g id="edge66" class="edge"><title>Node41&#45;&gt;Node60</title>
<path fill="none" stroke="midnightblue" d="M1717.17,-224.444C1697.18,-215.596 1665.76,-201.687 1642.94,-191.586"/>
<polygon fill="midnightblue" stroke="midnightblue" points="1644.3,-188.363 1633.74,-187.516 1641.47,-194.764 1644.3,-188.363"/>
</g>
<!-- Node61 -->
<g id="node45" class="node"><title>Node61</title>
<g id="a_node45"><a xlink:href="sph__echo_8h.html" target="_top" xlink:title="ECHO interface. ">
<polygon fill="white" stroke="red" points="1684.5,-168.5 1684.5,-187.5 1788.5,-187.5 1788.5,-168.5 1684.5,-168.5"/>
<text text-anchor="middle" x="1736.5" y="-175.5" font-family="Helvetica,sans-Serif" font-size="10.00">crypto/sph_echo.h</text>
</a>
</g>
</g>
<!-- Node41&#45;&gt;Node61 -->
<g id="edge67" class="edge"><title>Node41&#45;&gt;Node61</title>
<path fill="none" stroke="midnightblue" d="M1736.5,-224.083C1736.5,-217.006 1736.5,-206.861 1736.5,-197.986"/>
<polygon fill="midnightblue" stroke="midnightblue" points="1740,-197.751 1736.5,-187.751 1733,-197.751 1740,-197.751"/>
</g>
<!-- Node42&#45;&gt;Node21 -->
<g id="edge44" class="edge"><title>Node42&#45;&gt;Node21</title>
<path fill="none" stroke="midnightblue" d="M1167.97,-112.444C1132.41,-102.793 1074.65,-87.122 1037.12,-76.9377"/>
<polygon fill="midnightblue" stroke="midnightblue" points="1037.68,-73.4614 1027.11,-74.2203 1035.84,-80.2171 1037.68,-73.4614"/>
</g>
<!-- Node43&#45;&gt;Node21 -->
<g id="edge46" class="edge"><title>Node43&#45;&gt;Node21</title>
<path fill="none" stroke="midnightblue" d="M963.046,-168.452C946.951,-156.286 922.252,-133.105 933.5,-112 941.05,-97.8339 955.261,-87.3348 968.658,-80.0576"/>
<polygon fill="midnightblue" stroke="midnightblue" points="970.334,-83.1329 977.712,-75.5289 967.202,-76.8724 970.334,-83.1329"/>
</g>
<!-- Node43&#45;&gt;Node30 -->
<g id="edge47" class="edge"><title>Node43&#45;&gt;Node30</title>
<path fill="none" stroke="midnightblue" d="M957.666,-168.324C939.784,-159.625 912.025,-146.12 891.454,-136.113"/>
<polygon fill="midnightblue" stroke="midnightblue" points="892.813,-132.882 882.29,-131.655 889.751,-139.177 892.813,-132.882"/>
</g>
<!-- Node44&#45;&gt;Node21 -->
<g id="edge53" class="edge"><title>Node44&#45;&gt;Node21</title>
<path fill="none" stroke="midnightblue" d="M1806.14,-169.48C1803.23,-168.923 1800.32,-168.417 1797.5,-168 1578.86,-135.652 1514.01,-192.755 1301.5,-132 1283.15,-126.754 1281.57,-118.13 1263.5,-112 1185.52,-85.554 1089.03,-74.1381 1037.34,-69.6301"/>
<polygon fill="midnightblue" stroke="midnightblue" points="1037.56,-66.1372 1027.31,-68.7942 1036.98,-73.113 1037.56,-66.1372"/>
</g>
<!-- Node44&#45;&gt;Node23 -->
<g id="edge51" class="edge"><title>Node44&#45;&gt;Node23</title>
<path fill="none" stroke="midnightblue" d="M1806.19,-169.561C1769.54,-160.8 1707.02,-145.702 1653.5,-132 1580.78,-113.384 1496.16,-90.4632 1448.41,-77.411"/>
<polygon fill="midnightblue" stroke="midnightblue" points="1449.08,-73.9663 1438.51,-74.7028 1447.23,-80.7181 1449.08,-73.9663"/>
</g>
<!-- Node44&#45;&gt;Node30 -->
<g id="edge54" class="edge"><title>Node44&#45;&gt;Node30</title>
<path fill="none" stroke="midnightblue" d="M1806.15,-169.388C1803.24,-168.85 1800.32,-168.373 1797.5,-168 1416.48,-117.614 1316.42,-164.887 933.5,-132 921.428,-130.963 908.224,-129.357 896.628,-127.787"/>
<polygon fill="midnightblue" stroke="midnightblue" points="896.898,-124.291 886.509,-126.373 895.929,-131.224 896.898,-124.291"/>
</g>
<!-- Node44&#45;&gt;Node35 -->
<g id="edge55" class="edge"><title>Node44&#45;&gt;Node35</title>
<path fill="none" stroke="midnightblue" d="M1806.15,-169.375C1803.24,-168.839 1800.32,-168.367 1797.5,-168 1375.66,-113.141 1259.13,-195.523 834.248,-131.683"/>
<polygon fill="midnightblue" stroke="midnightblue" points="834.566,-128.191 824.153,-130.147 833.513,-135.111 834.566,-128.191"/>
</g>
<!-- Node46 -->
<g id="node33" class="node"><title>Node46</title>
<polygon fill="white" stroke="#bfbfbf" points="2202.5,-112.5 2202.5,-131.5 2266.5,-131.5 2266.5,-112.5 2202.5,-112.5"/>
<text text-anchor="middle" x="2234.5" y="-119.5" font-family="Helvetica,sans-Serif" font-size="10.00">stdexcept</text>
</g>
<!-- Node44&#45;&gt;Node46 -->
<g id="edge52" class="edge"><title>Node44&#45;&gt;Node46</title>
<path fill="none" stroke="midnightblue" d="M1868.89,-169.639C1871.79,-169.048 1874.7,-168.491 1877.5,-168 1990.52,-148.209 2125.14,-133.652 2192.18,-127.007"/>
<polygon fill="midnightblue" stroke="midnightblue" points="2192.73,-130.469 2202.34,-126.009 2192.05,-123.503 2192.73,-130.469"/>
</g>
<!-- Node62&#45;&gt;Node21 -->
<g id="edge70" class="edge"><title>Node62&#45;&gt;Node21</title>
<path fill="none" stroke="midnightblue" d="M641.865,-168.458C659.632,-154.297 697.568,-126.124 734.5,-112 812.671,-82.1051 911.313,-72.0193 963.762,-68.654"/>
<polygon fill="midnightblue" stroke="midnightblue" points="964.148,-72.1373 973.923,-68.0499 963.733,-65.1497 964.148,-72.1373"/>
</g>
<!-- Node62&#45;&gt;Node30 -->
<g id="edge71" class="edge"><title>Node62&#45;&gt;Node30</title>
<path fill="none" stroke="midnightblue" d="M672.844,-168.425C711.52,-160.252 771.108,-147.272 832.326,-131.93"/>
<polygon fill="midnightblue" stroke="midnightblue" points="833.322,-135.289 842.162,-129.448 831.609,-128.502 833.322,-135.289"/>
</g>
<!-- Node62&#45;&gt;Node35 -->
<g id="edge72" class="edge"><title>Node62&#45;&gt;Node35</title>
<path fill="none" stroke="midnightblue" d="M658.279,-168.444C687.757,-159.024 735.188,-143.869 767.08,-133.679"/>
<polygon fill="midnightblue" stroke="midnightblue" points="768.386,-136.936 776.846,-130.558 766.255,-130.268 768.386,-136.936"/>
</g>
<!-- Node63&#45;&gt;Node22 -->
<g id="edge74" class="edge"><title>Node63&#45;&gt;Node22</title>
<path fill="none" stroke="midnightblue" d="M2743.92,-169.17C2741.08,-168.725 2738.25,-168.326 2735.5,-168 2536.58,-144.381 1903.16,-127.975 1734.88,-123.957"/>
<polygon fill="midnightblue" stroke="midnightblue" points="1734.78,-120.453 1724.7,-123.715 1734.62,-127.451 1734.78,-120.453"/>
</g>
<!-- Node63&#45;&gt;Node46 -->
<g id="edge78" class="edge"><title>Node63&#45;&gt;Node46</title>
<path fill="none" stroke="midnightblue" d="M2743.9,-169.314C2741.06,-168.835 2738.24,-168.39 2735.5,-168 2566.4,-143.929 2363.24,-130.371 2276.78,-125.313"/>
<polygon fill="midnightblue" stroke="midnightblue" points="2276.76,-121.807 2266.58,-124.725 2276.36,-128.795 2276.76,-121.807"/>
</g>
<!-- Node64 -->
<g id="node48" class="node"><title>Node64</title>
<polygon fill="white" stroke="#bfbfbf" points="2681.5,-112.5 2681.5,-131.5 2733.5,-131.5 2733.5,-112.5 2681.5,-112.5"/>
<text text-anchor="middle" x="2707.5" y="-119.5" font-family="Helvetica,sans-Serif" font-size="10.00">cassert</text>
</g>
<!-- Node63&#45;&gt;Node64 -->
<g id="edge75" class="edge"><title>Node63&#45;&gt;Node64</title>
<path fill="none" stroke="midnightblue" d="M2769.61,-168.324C2758.35,-160.107 2741.21,-147.602 2727.79,-137.807"/>
<polygon fill="midnightblue" stroke="midnightblue" points="2729.75,-134.901 2719.61,-131.834 2725.62,-140.556 2729.75,-134.901"/>
</g>
<!-- Node65 -->
<g id="node49" class="node"><title>Node65</title>
<polygon fill="white" stroke="#bfbfbf" points="2752,-112.5 2752,-131.5 2811,-131.5 2811,-112.5 2752,-112.5"/>
<text text-anchor="middle" x="2781.5" y="-119.5" font-family="Helvetica,sans-Serif" font-size="10.00">iostream</text>
</g>
<!-- Node63&#45;&gt;Node65 -->
<g id="edge76" class="edge"><title>Node63&#45;&gt;Node65</title>
<path fill="none" stroke="midnightblue" d="M2781.5,-168.083C2781.5,-161.006 2781.5,-150.861 2781.5,-141.986"/>
<polygon fill="midnightblue" stroke="midnightblue" points="2785,-141.751 2781.5,-131.751 2778,-141.751 2785,-141.751"/>
</g>
<!-- Node66 -->
<g id="node50" class="node"><title>Node66</title>
<polygon fill="white" stroke="#bfbfbf" points="2829.5,-112.5 2829.5,-131.5 2885.5,-131.5 2885.5,-112.5 2829.5,-112.5"/>
<text text-anchor="middle" x="2857.5" y="-119.5" font-family="Helvetica,sans-Serif" font-size="10.00">sstream</text>
</g>
<!-- Node63&#45;&gt;Node66 -->
<g id="edge77" class="edge"><title>Node63&#45;&gt;Node66</title>
<path fill="none" stroke="midnightblue" d="M2793.71,-168.324C2805.28,-160.107 2822.88,-147.602 2836.66,-137.807"/>
<polygon fill="midnightblue" stroke="midnightblue" points="2838.94,-140.479 2845.07,-131.834 2834.89,-134.773 2838.94,-140.479"/>
</g>
</g>
</svg>
