<?xml version="1.0" encoding="UTF-8" standalone="no"?>
<!DOCTYPE svg PUBLIC "-//W3C//DTD SVG 1.1//EN"
 "http://www.w3.org/Graphics/SVG/1.1/DTD/svg11.dtd">
<!-- Generated by graphviz version 2.38.0 (20140413.2041)
 -->
<!-- Title: src/qt/notificator.cpp Pages: 1 -->
<svg width="940pt" height="140pt"
 viewBox="0.00 0.00 940.00 140.00" xmlns="http://www.w3.org/2000/svg" xmlns:xlink="http://www.w3.org/1999/xlink">
<g id="graph0" class="graph" transform="scale(1 1) rotate(0) translate(4 136)">
<title>src/qt/notificator.cpp</title>
<polygon fill="white" stroke="none" points="-4,4 -4,-136 936,-136 936,4 -4,4"/>
<!-- Node0 -->
<g id="node1" class="node"><title>Node0</title>
<polygon fill="#bfbfbf" stroke="black" points="394.5,-112.5 394.5,-131.5 500.5,-131.5 500.5,-112.5 394.5,-112.5"/>
<text text-anchor="middle" x="447.5" y="-119.5" font-family="Helvetica,sans-Serif" font-size="10.00">src/qt/notificator.cpp</text>
</g>
<!-- Node1 -->
<g id="node2" class="node"><title>Node1</title>
<g id="a_node2"><a xlink:href="notificator_8h.html" target="_top" xlink:title="notificator.h">
<polygon fill="white" stroke="black" points="49.5,-56.5 49.5,-75.5 117.5,-75.5 117.5,-56.5 49.5,-56.5"/>
<text text-anchor="middle" x="83.5" y="-63.5" font-family="Helvetica,sans-Serif" font-size="10.00">notificator.h</text>
</a>
</g>
</g>
<!-- Node0&#45;&gt;Node1 -->
<g id="edge1" class="edge"><title>Node0&#45;&gt;Node1</title>
<path fill="none" stroke="midnightblue" d="M394.222,-114.642C332.454,-107.022 227.372,-93.2973 127.668,-76.1084"/>
<polygon fill="midnightblue" stroke="midnightblue" points="128.18,-72.6449 117.728,-74.3798 126.98,-79.5414 128.18,-72.6449"/>
</g>
<!-- Node2 -->
<g id="node3" class="node"><title>Node2</title>
<polygon fill="white" stroke="#bfbfbf" points="0,-0.5 0,-19.5 43,-19.5 43,-0.5 0,-0.5"/>
<text text-anchor="middle" x="21.5" y="-7.5" font-family="Helvetica,sans-Serif" font-size="10.00">QIcon</text>
</g>
<!-- Node0&#45;&gt;Node2 -->
<g id="edge6" class="edge"><title>Node0&#45;&gt;Node2</title>
<path fill="none" stroke="midnightblue" d="M394.109,-118.369C289.868,-112.765 67.0795,-98.3089 40.5,-76 27.1524,-64.797 22.8916,-44.7775 21.6699,-29.9061"/>
<polygon fill="midnightblue" stroke="midnightblue" points="25.1602,-29.6066 21.2278,-19.7686 18.1669,-29.9116 25.1602,-29.6066"/>
</g>
<!-- Node4 -->
<g id="node5" class="node"><title>Node4</title>
<polygon fill="white" stroke="#bfbfbf" points="135.5,-56.5 135.5,-75.5 207.5,-75.5 207.5,-56.5 135.5,-56.5"/>
<text text-anchor="middle" x="171.5" y="-63.5" font-family="Helvetica,sans-Serif" font-size="10.00">QApplication</text>
</g>
<!-- Node0&#45;&gt;Node4 -->
<g id="edge4" class="edge"><title>Node0&#45;&gt;Node4</title>
<path fill="none" stroke="midnightblue" d="M403.203,-112.439C358.782,-103.839 288.14,-90.1204 217.771,-76.244"/>
<polygon fill="midnightblue" stroke="midnightblue" points="218.335,-72.7878 207.846,-74.2854 216.979,-79.6554 218.335,-72.7878"/>
</g>
<!-- Node5 -->
<g id="node6" class="node"><title>Node5</title>
<polygon fill="white" stroke="#bfbfbf" points="225.5,-56.5 225.5,-75.5 293.5,-75.5 293.5,-56.5 225.5,-56.5"/>
<text text-anchor="middle" x="259.5" y="-63.5" font-family="Helvetica,sans-Serif" font-size="10.00">QByteArray</text>
</g>
<!-- Node0&#45;&gt;Node5 -->
<g id="edge5" class="edge"><title>Node0&#45;&gt;Node5</title>
<path fill="none" stroke="midnightblue" d="M417.711,-112.444C385.671,-103.241 334.567,-88.5617 299.147,-78.3879"/>
<polygon fill="midnightblue" stroke="midnightblue" points="299.727,-74.9132 289.15,-75.5164 297.795,-81.6412 299.727,-74.9132"/>
</g>
<!-- Node6 -->
<g id="node7" class="node"><title>Node6</title>
<polygon fill="white" stroke="#bfbfbf" points="312,-56.5 312,-75.5 389,-75.5 389,-56.5 312,-56.5"/>
<text text-anchor="middle" x="350.5" y="-63.5" font-family="Helvetica,sans-Serif" font-size="10.00">QImageWriter</text>
</g>
<!-- Node0&#45;&gt;Node6 -->
<g id="edge7" class="edge"><title>Node0&#45;&gt;Node6</title>
<path fill="none" stroke="midnightblue" d="M431.915,-112.324C416.501,-103.743 392.688,-90.486 374.79,-80.5224"/>
<polygon fill="midnightblue" stroke="midnightblue" points="376.486,-77.4606 366.046,-75.6545 373.081,-83.5767 376.486,-77.4606"/>
</g>
<!-- Node7 -->
<g id="node8" class="node"><title>Node7</title>
<polygon fill="white" stroke="#bfbfbf" points="407,-56.5 407,-75.5 488,-75.5 488,-56.5 407,-56.5"/>
<text text-anchor="middle" x="447.5" y="-63.5" font-family="Helvetica,sans-Serif" font-size="10.00">QMessageBox</text>
</g>
<!-- Node0&#45;&gt;Node7 -->
<g id="edge8" class="edge"><title>Node0&#45;&gt;Node7</title>
<path fill="none" stroke="midnightblue" d="M447.5,-112.083C447.5,-105.006 447.5,-94.8611 447.5,-85.9865"/>
<polygon fill="midnightblue" stroke="midnightblue" points="451,-85.751 447.5,-75.7511 444,-85.7511 451,-85.751"/>
</g>
<!-- Node8 -->
<g id="node9" class="node"><title>Node8</title>
<polygon fill="white" stroke="#bfbfbf" points="506.5,-56.5 506.5,-75.5 574.5,-75.5 574.5,-56.5 506.5,-56.5"/>
<text text-anchor="middle" x="540.5" y="-63.5" font-family="Helvetica,sans-Serif" font-size="10.00">QMetaType</text>
</g>
<!-- Node0&#45;&gt;Node8 -->
<g id="edge9" class="edge"><title>Node0&#45;&gt;Node8</title>
<path fill="none" stroke="midnightblue" d="M462.442,-112.324C477.085,-103.822 499.634,-90.7288 516.738,-80.7975"/>
<polygon fill="midnightblue" stroke="midnightblue" points="518.705,-83.7027 525.595,-75.6545 515.19,-77.6491 518.705,-83.7027"/>
</g>
<!-- Node9 -->
<g id="node10" class="node"><title>Node9</title>
<polygon fill="white" stroke="#bfbfbf" points="593,-56.5 593,-75.5 640,-75.5 640,-56.5 593,-56.5"/>
<text text-anchor="middle" x="616.5" y="-63.5" font-family="Helvetica,sans-Serif" font-size="10.00">QStyle</text>
</g>
<!-- Node0&#45;&gt;Node9 -->
<g id="edge10" class="edge"><title>Node0&#45;&gt;Node9</title>
<path fill="none" stroke="midnightblue" d="M474.279,-112.444C503.757,-103.024 551.188,-87.869 583.08,-77.6785"/>
<polygon fill="midnightblue" stroke="midnightblue" points="584.386,-80.9357 592.846,-74.558 582.255,-74.2678 584.386,-80.9357"/>
</g>
<!-- Node10 -->
<g id="node11" class="node"><title>Node10</title>
<polygon fill="white" stroke="#bfbfbf" points="658.5,-56.5 658.5,-75.5 754.5,-75.5 754.5,-56.5 658.5,-56.5"/>
<text text-anchor="middle" x="706.5" y="-63.5" font-family="Helvetica,sans-Serif" font-size="10.00">QSystemTrayIcon</text>
</g>
<!-- Node0&#45;&gt;Node10 -->
<g id="edge11" class="edge"><title>Node0&#45;&gt;Node10</title>
<path fill="none" stroke="midnightblue" d="M488.539,-112.444C533.816,-103.004 606.727,-87.802 655.606,-77.6111"/>
<polygon fill="midnightblue" stroke="midnightblue" points="656.578,-80.9839 665.653,-75.5164 655.149,-74.1312 656.578,-80.9839"/>
</g>
<!-- Node11 -->
<g id="node12" class="node"><title>Node11</title>
<polygon fill="white" stroke="#bfbfbf" points="772.5,-56.5 772.5,-75.5 858.5,-75.5 858.5,-56.5 772.5,-56.5"/>
<text text-anchor="middle" x="815.5" y="-63.5" font-family="Helvetica,sans-Serif" font-size="10.00">QTemporaryFile</text>
</g>
<!-- Node0&#45;&gt;Node11 -->
<g id="edge12" class="edge"><title>Node0&#45;&gt;Node11</title>
<path fill="none" stroke="midnightblue" d="M500.689,-113.92C561.461,-105.72 664.163,-91.5276 762.294,-76.1524"/>
<polygon fill="midnightblue" stroke="midnightblue" points="763.052,-79.5762 772.386,-74.5643 761.964,-72.6613 763.052,-79.5762"/>
</g>
<!-- Node12 -->
<g id="node13" class="node"><title>Node12</title>
<polygon fill="white" stroke="#bfbfbf" points="877,-56.5 877,-75.5 932,-75.5 932,-56.5 877,-56.5"/>
<text text-anchor="middle" x="904.5" y="-63.5" font-family="Helvetica,sans-Serif" font-size="10.00">QVariant</text>
</g>
<!-- Node0&#45;&gt;Node12 -->
<g id="edge13" class="edge"><title>Node0&#45;&gt;Node12</title>
<path fill="none" stroke="midnightblue" d="M500.523,-117.572C578.622,-112.027 729.285,-99.4454 866.823,-75.8927"/>
<polygon fill="midnightblue" stroke="midnightblue" points="867.448,-79.3367 876.702,-74.1779 866.251,-72.4398 867.448,-79.3367"/>
</g>
<!-- Node1&#45;&gt;Node2 -->
<g id="edge2" class="edge"><title>Node1&#45;&gt;Node2</title>
<path fill="none" stroke="midnightblue" d="M73.5386,-56.324C64.3734,-48.3414 50.5628,-36.3128 39.4718,-26.6529"/>
<polygon fill="midnightblue" stroke="midnightblue" points="41.4822,-23.7624 31.6426,-19.8339 36.8847,-29.041 41.4822,-23.7624"/>
</g>
<!-- Node3 -->
<g id="node4" class="node"><title>Node3</title>
<polygon fill="white" stroke="#bfbfbf" points="61,-0.5 61,-19.5 114,-19.5 114,-0.5 61,-0.5"/>
<text text-anchor="middle" x="87.5" y="-7.5" font-family="Helvetica,sans-Serif" font-size="10.00">QObject</text>
</g>
<!-- Node1&#45;&gt;Node3 -->
<g id="edge3" class="edge"><title>Node1&#45;&gt;Node3</title>
<path fill="none" stroke="midnightblue" d="M84.1605,-56.083C84.6848,-49.0059 85.4362,-38.8611 86.0936,-29.9865"/>
<polygon fill="midnightblue" stroke="midnightblue" points="89.6034,-29.9823 86.8518,-19.7511 82.6225,-29.4652 89.6034,-29.9823"/>
</g>
</g>
</svg>
