<?xml version="1.0" encoding="UTF-8" standalone="no"?>
<!DOCTYPE svg PUBLIC "-//W3C//DTD SVG 1.1//EN"
 "http://www.w3.org/Graphics/SVG/1.1/DTD/svg11.dtd">
<!-- Generated by graphviz version 2.38.0 (20140413.2041)
 -->
<!-- Title: src/qt/overviewpage.h Pages: 1 -->
<svg width="272pt" height="84pt"
 viewBox="0.00 0.00 271.50 84.00" xmlns="http://www.w3.org/2000/svg" xmlns:xlink="http://www.w3.org/1999/xlink">
<g id="graph0" class="graph" transform="scale(1 1) rotate(0) translate(4 80)">
<title>src/qt/overviewpage.h</title>
<polygon fill="white" stroke="none" points="-4,4 -4,-80 267.5,-80 267.5,4 -4,4"/>
<!-- Node5 -->
<g id="node1" class="node"><title>Node5</title>
<polygon fill="#bfbfbf" stroke="black" points="75.5,-56.5 75.5,-75.5 196.5,-75.5 196.5,-56.5 75.5,-56.5"/>
<text text-anchor="middle" x="136" y="-63.5" font-family="Helvetica,sans-Serif" font-size="10.00">src/qt/overviewpage.h</text>
</g>
<!-- Node6 -->
<g id="node2" class="node"><title>Node6</title>
<g id="a_node2"><a xlink:href="overviewpage_8cpp.html" target="_top" xlink:title="src/qt/overviewpage.cpp">
<polygon fill="white" stroke="black" points="0,-0.5 0,-19.5 132,-19.5 132,-0.5 0,-0.5"/>
<text text-anchor="middle" x="66" y="-7.5" font-family="Helvetica,sans-Serif" font-size="10.00">src/qt/overviewpage.cpp</text>
</a>
</g>
</g>
<!-- Node5&#45;&gt;Node6 -->
<g id="edge1" class="edge"><title>Node5&#45;&gt;Node6</title>
<path fill="none" stroke="midnightblue" d="M116.686,-50.1008C104.088,-40.3824 88.0719,-28.0269 77.4513,-19.8339"/>
<polygon fill="midnightblue" stroke="midnightblue" points="114.698,-52.9871 124.753,-56.324 118.973,-47.4446 114.698,-52.9871"/>
</g>
<!-- Node7 -->
<g id="node3" class="node"><title>Node7</title>
<g id="a_node3"><a xlink:href="walletview_8cpp.html" target="_top" xlink:title="src/qt/walletview.cpp">
<polygon fill="white" stroke="black" points="150.5,-0.5 150.5,-19.5 263.5,-19.5 263.5,-0.5 150.5,-0.5"/>
<text text-anchor="middle" x="207" y="-7.5" font-family="Helvetica,sans-Serif" font-size="10.00">src/qt/walletview.cpp</text>
</a>
</g>
</g>
<!-- Node5&#45;&gt;Node7 -->
<g id="edge2" class="edge"><title>Node5&#45;&gt;Node7</title>
<path fill="none" stroke="midnightblue" d="M155.59,-50.1008C168.368,-40.3824 184.613,-28.0269 195.385,-19.8339"/>
<polygon fill="midnightblue" stroke="midnightblue" points="153.248,-47.4844 147.407,-56.324 157.486,-53.0561 153.248,-47.4844"/>
</g>
</g>
</svg>
