<?xml version="1.0" encoding="UTF-8" standalone="no"?>
<!DOCTYPE svg PUBLIC "-//W3C//DTD SVG 1.1//EN"
 "http://www.w3.org/Graphics/SVG/1.1/DTD/svg11.dtd">
<!-- Generated by graphviz version 2.38.0 (20140413.2041)
 -->
<!-- Title: src/qt/paymentserver.h Pages: 1 -->
<svg width="451pt" height="84pt"
 viewBox="0.00 0.00 450.50 84.00" xmlns="http://www.w3.org/2000/svg" xmlns:xlink="http://www.w3.org/1999/xlink">
<g id="graph0" class="graph" transform="scale(1 1) rotate(0) translate(4 80)">
<title>src/qt/paymentserver.h</title>
<polygon fill="white" stroke="none" points="-4,4 -4,-80 446.5,-80 446.5,4 -4,4"/>
<!-- Node92 -->
<g id="node1" class="node"><title>Node92</title>
<polygon fill="#bfbfbf" stroke="black" points="164.5,-56.5 164.5,-75.5 292.5,-75.5 292.5,-56.5 164.5,-56.5"/>
<text text-anchor="middle" x="228.5" y="-63.5" font-family="Helvetica,sans-Serif" font-size="10.00">src/qt/paymentserver.h</text>
</g>
<!-- Node93 -->
<g id="node2" class="node"><title>Node93</title>
<g id="a_node2"><a xlink:href="paymentserver_8cpp.html" target="_top" xlink:title="src/qt/paymentserver.cpp">
<polygon fill="white" stroke="black" points="0,-0.5 0,-19.5 139,-19.5 139,-0.5 0,-0.5"/>
<text text-anchor="middle" x="69.5" y="-7.5" font-family="Helvetica,sans-Serif" font-size="10.00">src/qt/paymentserver.cpp</text>
</a>
</g>
</g>
<!-- Node92&#45;&gt;Node93 -->
<g id="edge1" class="edge"><title>Node92&#45;&gt;Node93</title>
<path fill="none" stroke="midnightblue" d="M193.673,-53.172C163.734,-43.0039 121.279,-28.5852 94.5762,-19.5164"/>
<polygon fill="midnightblue" stroke="midnightblue" points="192.712,-56.5417 203.306,-56.4435 194.963,-49.9136 192.712,-56.5417"/>
</g>
<!-- Node94 -->
<g id="node3" class="node"><title>Node94</title>
<g id="a_node3"><a xlink:href="transactiondesc_8cpp.html" target="_top" xlink:title="src/qt/transactiondesc.cpp">
<polygon fill="white" stroke="black" points="157,-0.5 157,-19.5 300,-19.5 300,-0.5 157,-0.5"/>
<text text-anchor="middle" x="228.5" y="-7.5" font-family="Helvetica,sans-Serif" font-size="10.00">src/qt/transactiondesc.cpp</text>
</a>
</g>
</g>
<!-- Node92&#45;&gt;Node94 -->
<g id="edge2" class="edge"><title>Node92&#45;&gt;Node94</title>
<path fill="none" stroke="midnightblue" d="M228.5,-45.8045C228.5,-36.9102 228.5,-26.7798 228.5,-19.7511"/>
<polygon fill="midnightblue" stroke="midnightblue" points="225,-46.083 228.5,-56.083 232,-46.083 225,-46.083"/>
</g>
<!-- Node95 -->
<g id="node4" class="node"><title>Node95</title>
<g id="a_node4"><a xlink:href="walletmodel_8cpp.html" target="_top" xlink:title="src/qt/walletmodel.cpp">
<polygon fill="white" stroke="black" points="318.5,-0.5 318.5,-19.5 442.5,-19.5 442.5,-0.5 318.5,-0.5"/>
<text text-anchor="middle" x="380.5" y="-7.5" font-family="Helvetica,sans-Serif" font-size="10.00">src/qt/walletmodel.cpp</text>
</a>
</g>
</g>
<!-- Node92&#45;&gt;Node95 -->
<g id="edge3" class="edge"><title>Node92&#45;&gt;Node95</title>
<path fill="none" stroke="midnightblue" d="M262.168,-53.0392C290.768,-42.8786 331.112,-28.5457 356.528,-19.5164"/>
<polygon fill="midnightblue" stroke="midnightblue" points="260.836,-49.7978 252.585,-56.4435 263.18,-56.3939 260.836,-49.7978"/>
</g>
</g>
</svg>
