<?xml version="1.0" encoding="UTF-8" standalone="no"?>
<!DOCTYPE svg PUBLIC "-//W3C//DTD SVG 1.1//EN"
 "http://www.w3.org/Graphics/SVG/1.1/DTD/svg11.dtd">
<!-- Generated by graphviz version 2.38.0 (20140413.2041)
 -->
<!-- Title: GetNextWorkRequired Pages: 1 -->
<svg width="921pt" height="333pt"
 viewBox="0.00 0.00 921.00 333.15" xmlns="http://www.w3.org/2000/svg" xmlns:xlink="http://www.w3.org/1999/xlink">
<g id="graph0" class="graph" transform="scale(1 1) rotate(0) translate(4 329.155)">
<title>GetNextWorkRequired</title>
<polygon fill="white" stroke="none" points="-4,4 -4,-329.155 917,-329.155 917,4 -4,4"/>
<!-- Node272 -->
<g id="node1" class="node"><title>Node272</title>
<polygon fill="#bfbfbf" stroke="black" points="0,-192.5 0,-211.5 116,-211.5 116,-192.5 0,-192.5"/>
<text text-anchor="middle" x="58" y="-199.5" font-family="Helvetica,sans-Serif" font-size="10.00">GetNextWorkRequired</text>
</g>
<!-- Node273 -->
<g id="node2" class="node"><title>Node273</title>
<g id="a_node2"><a xlink:href="pow_8cpp.html#a0ea04833c9b6ab27d7c0d8f0d3eacf83" target="_top" xlink:title="DarkGravityWave">
<polygon fill="white" stroke="black" points="351,-278.5 351,-297.5 446,-297.5 446,-278.5 351,-278.5"/>
<text text-anchor="middle" x="398.5" y="-285.5" font-family="Helvetica,sans-Serif" font-size="10.00">DarkGravityWave</text>
</a>
</g>
</g>
<!-- Node272&#45;&gt;Node273 -->
<g id="edge1" class="edge"><title>Node272&#45;&gt;Node273</title>
<path fill="none" stroke="midnightblue" d="M80.0358,-211.646C98.6364,-219.864 126.674,-231.502 152,-239 215.551,-257.814 290.502,-271.601 340.721,-279.674"/>
<polygon fill="midnightblue" stroke="midnightblue" points="340.312,-283.152 350.736,-281.26 341.407,-276.239 340.312,-283.152"/>
</g>
<!-- Node283 -->
<g id="node12" class="node"><title>Node283</title>
<g id="a_node12"><a xlink:href="pow_8cpp.html#a2d653c456b2a9cfe2103a4518f3a8221" target="_top" xlink:title="GetNextWorkRequiredBTC">
<polygon fill="white" stroke="black" points="152,-164.5 152,-183.5 288,-183.5 288,-164.5 152,-164.5"/>
<text text-anchor="middle" x="220" y="-171.5" font-family="Helvetica,sans-Serif" font-size="10.00">GetNextWorkRequiredBTC</text>
</a>
</g>
</g>
<!-- Node272&#45;&gt;Node283 -->
<g id="edge12" class="edge"><title>Node272&#45;&gt;Node283</title>
<path fill="none" stroke="midnightblue" d="M113.615,-192.442C126.745,-190.145 140.892,-187.669 154.427,-185.3"/>
<polygon fill="midnightblue" stroke="midnightblue" points="155.384,-188.686 164.631,-183.515 154.177,-181.791 155.384,-188.686"/>
</g>
<!-- Node291 -->
<g id="node20" class="node"><title>Node291</title>
<g id="a_node20"><a xlink:href="pow_8cpp.html#a7dfe5a74605ee9c8d209294c84894575" target="_top" xlink:title="KimotoGravityWell">
<polygon fill="white" stroke="black" points="349.5,-240.5 349.5,-259.5 447.5,-259.5 447.5,-240.5 349.5,-240.5"/>
<text text-anchor="middle" x="398.5" y="-247.5" font-family="Helvetica,sans-Serif" font-size="10.00">KimotoGravityWell</text>
</a>
</g>
</g>
<!-- Node272&#45;&gt;Node291 -->
<g id="edge27" class="edge"><title>Node272&#45;&gt;Node291</title>
<path fill="none" stroke="midnightblue" d="M116.039,-210.088C178.062,-218.883 276.674,-232.867 339.19,-241.732"/>
<polygon fill="midnightblue" stroke="midnightblue" points="338.891,-245.224 349.283,-243.163 339.874,-238.293 338.891,-245.224"/>
</g>
<!-- Node292 -->
<g id="node21" class="node"><title>Node292</title>
<g id="a_node21"><a xlink:href="chainparams_8cpp.html#ace5c5b706d71a324a417dd2db394fd4a" target="_top" xlink:title="Return the currently selected parameters. ">
<polygon fill="white" stroke="black" points="195,-126.5 195,-145.5 245,-145.5 245,-126.5 195,-126.5"/>
<text text-anchor="middle" x="220" y="-133.5" font-family="Helvetica,sans-Serif" font-size="10.00">Params</text>
</a>
</g>
</g>
<!-- Node272&#45;&gt;Node292 -->
<g id="edge32" class="edge"><title>Node272&#45;&gt;Node292</title>
<path fill="none" stroke="midnightblue" d="M75.6917,-192.332C93.9681,-182.042 124.362,-165.788 152,-155 162.498,-150.902 174.234,-147.27 184.914,-144.307"/>
<polygon fill="midnightblue" stroke="midnightblue" points="185.998,-147.64 194.756,-141.678 184.191,-140.877 185.998,-147.64"/>
</g>
<!-- Node274 -->
<g id="node3" class="node"><title>Node274</title>
<g id="a_node3"><a xlink:href="class_c_block_index.html#a9fe0d4463c07c466f66252e8eec25f5c" target="_top" xlink:title="CBlockIndex::GetBlockTime">
<polygon fill="white" stroke="black" points="509,-278.5 509,-297.5 650,-297.5 650,-278.5 509,-278.5"/>
<text text-anchor="middle" x="579.5" y="-285.5" font-family="Helvetica,sans-Serif" font-size="10.00">CBlockIndex::GetBlockTime</text>
</a>
</g>
</g>
<!-- Node273&#45;&gt;Node274 -->
<g id="edge2" class="edge"><title>Node273&#45;&gt;Node274</title>
<path fill="none" stroke="midnightblue" d="M446.063,-288C462.157,-288 480.68,-288 498.674,-288"/>
<polygon fill="midnightblue" stroke="midnightblue" points="498.891,-291.5 508.891,-288 498.891,-284.5 498.891,-291.5"/>
</g>
<!-- Node275 -->
<g id="node4" class="node"><title>Node275</title>
<g id="a_node4"><a xlink:href="classarith__uint256.html#a0eeee9d8f29143ddf1bff2b1ffa8fdc1" target="_top" xlink:title="arith_uint256::GetCompact">
<polygon fill="white" stroke="black" points="512.5,-202.5 512.5,-221.5 646.5,-221.5 646.5,-202.5 512.5,-202.5"/>
<text text-anchor="middle" x="579.5" y="-209.5" font-family="Helvetica,sans-Serif" font-size="10.00">arith_uint256::GetCompact</text>
</a>
</g>
</g>
<!-- Node273&#45;&gt;Node275 -->
<g id="edge3" class="edge"><title>Node273&#45;&gt;Node275</title>
<path fill="none" stroke="midnightblue" d="M446.159,-280.132C455.435,-277.431 464.825,-273.819 473,-269 493.041,-257.185 489.042,-242.954 509,-231 512.622,-228.831 516.497,-226.903 520.495,-225.191"/>
<polygon fill="midnightblue" stroke="midnightblue" points="521.887,-228.407 529.986,-221.576 519.396,-221.865 521.887,-228.407"/>
</g>
<!-- Node278 -->
<g id="node7" class="node"><title>Node278</title>
<g id="a_node7"><a xlink:href="classarith__uint256.html#a458133c9f123519646b07e6143f2164f" target="_top" xlink:title="The &quot;compact&quot; format is a representation of a whole number N using an unsigned 32bit number similar t...">
<polygon fill="white" stroke="black" points="513,-240.5 513,-259.5 646,-259.5 646,-240.5 513,-240.5"/>
<text text-anchor="middle" x="579.5" y="-247.5" font-family="Helvetica,sans-Serif" font-size="10.00">arith_uint256::SetCompact</text>
</a>
</g>
</g>
<!-- Node273&#45;&gt;Node278 -->
<g id="edge7" class="edge"><title>Node273&#45;&gt;Node278</title>
<path fill="none" stroke="midnightblue" d="M444.669,-278.411C468.716,-273.306 498.474,-266.989 523.819,-261.608"/>
<polygon fill="midnightblue" stroke="midnightblue" points="524.6,-265.02 533.656,-259.52 523.147,-258.173 524.6,-265.02"/>
</g>
<!-- Node279 -->
<g id="node8" class="node"><title>Node279</title>
<g id="a_node8"><a xlink:href="arith__uint256_8cpp.html#a6a6e0e2e41ba7e31c4a741eb2426a516" target="_top" xlink:title="UintToArith256">
<polygon fill="white" stroke="black" points="538.5,-164.5 538.5,-183.5 620.5,-183.5 620.5,-164.5 538.5,-164.5"/>
<text text-anchor="middle" x="579.5" y="-171.5" font-family="Helvetica,sans-Serif" font-size="10.00">UintToArith256</text>
</a>
</g>
</g>
<!-- Node273&#45;&gt;Node279 -->
<g id="edge8" class="edge"><title>Node273&#45;&gt;Node279</title>
<path fill="none" stroke="midnightblue" d="M446.344,-282.381C455.917,-279.536 465.381,-275.297 473,-269 501.809,-245.189 480.357,-217.011 509,-193 514.668,-188.249 521.425,-184.679 528.466,-181.998"/>
<polygon fill="midnightblue" stroke="midnightblue" points="529.726,-185.269 538.167,-178.865 527.575,-178.607 529.726,-185.269"/>
</g>
<!-- Node276 -->
<g id="node5" class="node"><title>Node276</title>
<g id="a_node5"><a xlink:href="classbase__uint.html#afe1eacc0b592cf184ac8ee0446997fbe" target="_top" xlink:title="Returns the position of the highest bit set plus one, or zero if the value is zero. ">
<polygon fill="white" stroke="black" points="700.5,-202.5 700.5,-221.5 814.5,-221.5 814.5,-202.5 700.5,-202.5"/>
<text text-anchor="middle" x="757.5" y="-209.5" font-family="Helvetica,sans-Serif" font-size="10.00">base_uint&lt; 256 &gt;::bits</text>
</a>
</g>
</g>
<!-- Node275&#45;&gt;Node276 -->
<g id="edge4" class="edge"><title>Node275&#45;&gt;Node276</title>
<path fill="none" stroke="midnightblue" d="M646.537,-212C660.822,-212 675.932,-212 690.226,-212"/>
<polygon fill="midnightblue" stroke="midnightblue" points="690.467,-215.5 700.467,-212 690.467,-208.5 690.467,-215.5"/>
</g>
<!-- Node277 -->
<g id="node6" class="node"><title>Node277</title>
<g id="a_node6"><a xlink:href="classbase__uint.html#ad8dbf3216dd15a64f1598344ad7a71ea" target="_top" xlink:title="base_uint\&lt; 256 \&gt;::GetLow64">
<polygon fill="white" stroke="black" points="686,-240.5 686,-259.5 829,-259.5 829,-240.5 686,-240.5"/>
<text text-anchor="middle" x="757.5" y="-247.5" font-family="Helvetica,sans-Serif" font-size="10.00">base_uint&lt; 256 &gt;::GetLow64</text>
</a>
</g>
</g>
<!-- Node275&#45;&gt;Node277 -->
<g id="edge5" class="edge"><title>Node275&#45;&gt;Node277</title>
<path fill="none" stroke="midnightblue" d="M646.537,-219.698C673.145,-224.973 702.616,-231.737 724.345,-237.701"/>
<polygon fill="midnightblue" stroke="midnightblue" points="723.468,-241.09 734.045,-240.465 725.387,-234.358 723.468,-241.09"/>
</g>
<!-- Node275&#45;&gt;Node277 -->
<g id="edge6" class="edge"><title>Node275&#45;&gt;Node277</title>
<path fill="none" stroke="midnightblue" d="M603.149,-221.592C621.672,-227.089 649.044,-233.676 675.557,-239.254"/>
<polygon fill="midnightblue" stroke="midnightblue" points="675.155,-242.745 685.656,-241.339 676.57,-235.89 675.155,-242.745"/>
</g>
<!-- Node280 -->
<g id="node9" class="node"><title>Node280</title>
<g id="a_node9"><a xlink:href="classbase__blob.html#aeee68e00ceeacf49086e98b661e017ff" target="_top" xlink:title="base_blob::begin">
<polygon fill="white" stroke="black" points="712.5,-126.5 712.5,-145.5 802.5,-145.5 802.5,-126.5 712.5,-126.5"/>
<text text-anchor="middle" x="757.5" y="-133.5" font-family="Helvetica,sans-Serif" font-size="10.00">base_blob::begin</text>
</a>
</g>
</g>
<!-- Node279&#45;&gt;Node280 -->
<g id="edge9" class="edge"><title>Node279&#45;&gt;Node280</title>
<path fill="none" stroke="midnightblue" d="M620.878,-165.282C645.085,-160.055 676.173,-153.343 702.476,-147.664"/>
<polygon fill="midnightblue" stroke="midnightblue" points="703.262,-151.075 712.298,-145.544 701.785,-144.233 703.262,-151.075"/>
</g>
<!-- Node281 -->
<g id="node10" class="node"><title>Node281</title>
<g id="a_node10"><a xlink:href="common_8h.html#a95b035f2729461d80d2f09d776ea07d2" target="_top" xlink:title="ReadLE32">
<polygon fill="white" stroke="black" points="726.5,-164.5 726.5,-183.5 788.5,-183.5 788.5,-164.5 726.5,-164.5"/>
<text text-anchor="middle" x="757.5" y="-171.5" font-family="Helvetica,sans-Serif" font-size="10.00">ReadLE32</text>
</a>
</g>
</g>
<!-- Node279&#45;&gt;Node281 -->
<g id="edge10" class="edge"><title>Node279&#45;&gt;Node281</title>
<path fill="none" stroke="midnightblue" d="M620.878,-174C649.531,-174 687.822,-174 716.41,-174"/>
<polygon fill="midnightblue" stroke="midnightblue" points="716.467,-177.5 726.467,-174 716.467,-170.5 716.467,-177.5"/>
</g>
<!-- Node282 -->
<g id="node11" class="node"><title>Node282</title>
<g id="a_node11"><a xlink:href="endian_8h.html#a3b4e83868bbf53b2572b736fc146a319" target="_top" xlink:title="le32toh">
<polygon fill="white" stroke="black" points="865,-164.5 865,-183.5 913,-183.5 913,-164.5 865,-164.5"/>
<text text-anchor="middle" x="889" y="-171.5" font-family="Helvetica,sans-Serif" font-size="10.00">le32toh</text>
</a>
</g>
</g>
<!-- Node281&#45;&gt;Node282 -->
<g id="edge11" class="edge"><title>Node281&#45;&gt;Node282</title>
<path fill="none" stroke="midnightblue" d="M788.535,-174C808.387,-174 834.42,-174 854.873,-174"/>
<polygon fill="midnightblue" stroke="midnightblue" points="854.997,-177.5 864.997,-174 854.997,-170.5 854.997,-177.5"/>
</g>
<!-- Node283&#45;&gt;Node274 -->
<g id="edge24" class="edge"><title>Node283&#45;&gt;Node274</title>
<path fill="none" stroke="midnightblue" d="M224.91,-183.827C235.877,-209.852 269.721,-280.383 324,-307 396.166,-342.388 493.85,-318.082 544.65,-300.913"/>
<polygon fill="midnightblue" stroke="midnightblue" points="545.874,-304.193 554.163,-297.594 543.568,-297.584 545.874,-304.193"/>
</g>
<!-- Node283&#45;&gt;Node275 -->
<g id="edge25" class="edge"><title>Node283&#45;&gt;Node275</title>
<path fill="none" stroke="midnightblue" d="M266.723,-183.529C284.532,-186.953 305.155,-190.566 324,-193 383.609,-200.7 451.506,-205.575 502.17,-208.456"/>
<polygon fill="midnightblue" stroke="midnightblue" points="502.209,-211.964 512.388,-209.024 502.597,-204.974 502.209,-211.964"/>
</g>
<!-- Node283&#45;&gt;Node279 -->
<g id="edge26" class="edge"><title>Node283&#45;&gt;Node279</title>
<path fill="none" stroke="midnightblue" d="M262.855,-164.489C281.469,-160.724 303.719,-156.855 324,-155 389.947,-148.968 407.04,-149.108 473,-155 491.207,-156.626 510.974,-159.802 528.423,-163.098"/>
<polygon fill="midnightblue" stroke="midnightblue" points="527.915,-166.565 538.399,-165.042 529.253,-159.694 527.915,-166.565"/>
</g>
<!-- Node284 -->
<g id="node13" class="node"><title>Node284</title>
<g id="a_node13"><a xlink:href="pow_8cpp.html#aeb760adff75ed6ca74ae6b345555bcb4" target="_top" xlink:title="CalculateNextWorkRequired">
<polygon fill="white" stroke="black" points="328,-164.5 328,-183.5 469,-183.5 469,-164.5 328,-164.5"/>
<text text-anchor="middle" x="398.5" y="-171.5" font-family="Helvetica,sans-Serif" font-size="10.00">CalculateNextWorkRequired</text>
</a>
</g>
</g>
<!-- Node283&#45;&gt;Node284 -->
<g id="edge13" class="edge"><title>Node283&#45;&gt;Node284</title>
<path fill="none" stroke="midnightblue" d="M288.231,-174C297.847,-174 307.817,-174 317.647,-174"/>
<polygon fill="midnightblue" stroke="midnightblue" points="317.819,-177.5 327.819,-174 317.819,-170.5 317.819,-177.5"/>
</g>
<!-- Node286 -->
<g id="node15" class="node"><title>Node286</title>
<g id="a_node15"><a xlink:href="struct_consensus_1_1_params.html#a3e7c7ce8a76bf0071c225e549f088532" target="_top" xlink:title="Consensus::Params::\lDifficultyAdjustmentInterval">
<polygon fill="white" stroke="black" points="330,-77 330,-107 467,-107 467,-77 330,-77"/>
<text text-anchor="start" x="338" y="-95" font-family="Helvetica,sans-Serif" font-size="10.00">Consensus::Params::</text>
<text text-anchor="middle" x="398.5" y="-84" font-family="Helvetica,sans-Serif" font-size="10.00">DifficultyAdjustmentInterval</text>
</a>
</g>
</g>
<!-- Node283&#45;&gt;Node286 -->
<g id="edge19" class="edge"><title>Node283&#45;&gt;Node286</title>
<path fill="none" stroke="midnightblue" d="M265.776,-164.45C273.441,-161.941 281.138,-158.831 288,-155 306.952,-144.42 305.665,-133.616 324,-122 330.163,-118.095 336.92,-114.522 343.762,-111.312"/>
<polygon fill="midnightblue" stroke="midnightblue" points="345.382,-114.422 353.097,-107.16 342.538,-108.026 345.382,-114.422"/>
</g>
<!-- Node287 -->
<g id="node16" class="node"><title>Node287</title>
<g id="a_node16"><a xlink:href="class_c_block_index.html#ae1f702384690c6b8302e026a84172ef3" target="_top" xlink:title="Efficiently find an ancestor of this block. ">
<polygon fill="white" stroke="black" points="331.5,-38.5 331.5,-57.5 465.5,-57.5 465.5,-38.5 331.5,-38.5"/>
<text text-anchor="middle" x="398.5" y="-45.5" font-family="Helvetica,sans-Serif" font-size="10.00">CBlockIndex::GetAncestor</text>
</a>
</g>
</g>
<!-- Node283&#45;&gt;Node287 -->
<g id="edge20" class="edge"><title>Node283&#45;&gt;Node287</title>
<path fill="none" stroke="midnightblue" d="M273.248,-164.413C278.613,-161.953 283.673,-158.868 288,-155 319.506,-126.839 292.167,-94.7914 324,-67 325.775,-65.4506 327.66,-64.0249 329.632,-62.7133"/>
<polygon fill="midnightblue" stroke="midnightblue" points="331.702,-65.568 338.755,-57.6624 328.311,-59.4438 331.702,-65.568"/>
</g>
<!-- Node290 -->
<g id="node19" class="node"><title>Node290</title>
<g id="a_node19"><a xlink:href="class_c_block_header.html#abad634d81d4c810390fa2080d79633e8" target="_top" xlink:title="CBlockHeader::GetBlockTime">
<polygon fill="white" stroke="black" points="324,-0.5 324,-19.5 473,-19.5 473,-0.5 324,-0.5"/>
<text text-anchor="middle" x="398.5" y="-7.5" font-family="Helvetica,sans-Serif" font-size="10.00">CBlockHeader::GetBlockTime</text>
</a>
</g>
</g>
<!-- Node283&#45;&gt;Node290 -->
<g id="edge23" class="edge"><title>Node283&#45;&gt;Node290</title>
<path fill="none" stroke="midnightblue" d="M274.669,-164.388C279.582,-161.923 284.149,-158.843 288,-155 329.223,-113.858 282.299,-69.6576 324,-29 325.486,-27.5509 327.068,-26.2081 328.728,-24.9642"/>
<polygon fill="midnightblue" stroke="midnightblue" points="330.896,-27.7405 337.595,-19.5325 327.239,-21.7714 330.896,-27.7405"/>
</g>
<!-- Node284&#45;&gt;Node274 -->
<g id="edge14" class="edge"><title>Node284&#45;&gt;Node274</title>
<path fill="none" stroke="midnightblue" d="M412.999,-183.509C428.127,-194.38 453.133,-213.004 473,-231 490.242,-246.618 489.042,-257.046 509,-269 512.622,-271.169 516.497,-273.097 520.495,-274.809"/>
<polygon fill="midnightblue" stroke="midnightblue" points="519.396,-278.135 529.986,-278.424 521.887,-271.593 519.396,-278.135"/>
</g>
<!-- Node284&#45;&gt;Node275 -->
<g id="edge15" class="edge"><title>Node284&#45;&gt;Node275</title>
<path fill="none" stroke="midnightblue" d="M444.669,-183.589C468.716,-188.694 498.474,-195.011 523.819,-200.392"/>
<polygon fill="midnightblue" stroke="midnightblue" points="523.147,-203.827 533.656,-202.48 524.6,-196.98 523.147,-203.827"/>
</g>
<!-- Node284&#45;&gt;Node278 -->
<g id="edge16" class="edge"><title>Node284&#45;&gt;Node278</title>
<path fill="none" stroke="midnightblue" d="M415.32,-183.611C436.17,-195.953 474.278,-217.397 509,-231 515.038,-233.366 521.481,-235.552 527.917,-237.536"/>
<polygon fill="midnightblue" stroke="midnightblue" points="527.385,-241.027 537.966,-240.481 529.354,-234.31 527.385,-241.027"/>
</g>
<!-- Node284&#45;&gt;Node279 -->
<g id="edge18" class="edge"><title>Node284&#45;&gt;Node279</title>
<path fill="none" stroke="midnightblue" d="M469.219,-174C488.922,-174 509.973,-174 528.286,-174"/>
<polygon fill="midnightblue" stroke="midnightblue" points="528.435,-177.5 538.435,-174 528.435,-170.5 528.435,-177.5"/>
</g>
<!-- Node285 -->
<g id="node14" class="node"><title>Node285</title>
<g id="a_node14"><a xlink:href="classbase__uint.html#acccba4d9d51a0c36261718ca0cbb293b" target="_top" xlink:title="base_uint::ToString">
<polygon fill="white" stroke="black" points="529,-126.5 529,-145.5 630,-145.5 630,-126.5 529,-126.5"/>
<text text-anchor="middle" x="579.5" y="-133.5" font-family="Helvetica,sans-Serif" font-size="10.00">base_uint::ToString</text>
</a>
</g>
</g>
<!-- Node284&#45;&gt;Node285 -->
<g id="edge17" class="edge"><title>Node284&#45;&gt;Node285</title>
<path fill="none" stroke="midnightblue" d="M444.669,-164.411C468.716,-159.306 498.474,-152.989 523.819,-147.608"/>
<polygon fill="midnightblue" stroke="midnightblue" points="524.6,-151.02 533.656,-145.52 523.147,-144.173 524.6,-151.02"/>
</g>
<!-- Node288 -->
<g id="node17" class="node"><title>Node288</title>
<g id="a_node17"><a xlink:href="chain_8cpp.html#ad168714f025f6299a1c80626b6a5bb5a" target="_top" xlink:title="Compute what height to jump back to with the CBlockIndex::pskip pointer. ">
<polygon fill="white" stroke="black" points="539.5,-38.5 539.5,-57.5 619.5,-57.5 619.5,-38.5 539.5,-38.5"/>
<text text-anchor="middle" x="579.5" y="-45.5" font-family="Helvetica,sans-Serif" font-size="10.00">GetSkipHeight</text>
</a>
</g>
</g>
<!-- Node287&#45;&gt;Node288 -->
<g id="edge21" class="edge"><title>Node287&#45;&gt;Node288</title>
<path fill="none" stroke="midnightblue" d="M465.644,-48C486.665,-48 509.533,-48 529.153,-48"/>
<polygon fill="midnightblue" stroke="midnightblue" points="529.388,-51.5001 539.388,-48 529.388,-44.5001 529.388,-51.5001"/>
</g>
<!-- Node289 -->
<g id="node18" class="node"><title>Node289</title>
<g id="a_node18"><a xlink:href="chain_8cpp.html#ae4573d0178546d3f9c518c39ae45fe69" target="_top" xlink:title="Turn the lowest &#39;1&#39; bit in the binary representation of a number into a &#39;0&#39;. ">
<polygon fill="white" stroke="black" points="712,-38.5 712,-57.5 803,-57.5 803,-38.5 712,-38.5"/>
<text text-anchor="middle" x="757.5" y="-45.5" font-family="Helvetica,sans-Serif" font-size="10.00">InvertLowestOne</text>
</a>
</g>
</g>
<!-- Node288&#45;&gt;Node289 -->
<g id="edge22" class="edge"><title>Node288&#45;&gt;Node289</title>
<path fill="none" stroke="midnightblue" d="M619.56,-48C643.699,-48 675.042,-48 701.649,-48"/>
<polygon fill="midnightblue" stroke="midnightblue" points="701.967,-51.5001 711.967,-48 701.967,-44.5001 701.967,-51.5001"/>
</g>
<!-- Node291&#45;&gt;Node274 -->
<g id="edge28" class="edge"><title>Node291&#45;&gt;Node274</title>
<path fill="none" stroke="midnightblue" d="M444.669,-259.589C468.716,-264.694 498.474,-271.011 523.819,-276.392"/>
<polygon fill="midnightblue" stroke="midnightblue" points="523.147,-279.827 533.656,-278.48 524.6,-272.98 523.147,-279.827"/>
</g>
<!-- Node291&#45;&gt;Node275 -->
<g id="edge29" class="edge"><title>Node291&#45;&gt;Node275</title>
<path fill="none" stroke="midnightblue" d="M444.669,-240.411C468.716,-235.306 498.474,-228.989 523.819,-223.608"/>
<polygon fill="midnightblue" stroke="midnightblue" points="524.6,-227.02 533.656,-221.52 523.147,-220.173 524.6,-227.02"/>
</g>
<!-- Node291&#45;&gt;Node278 -->
<g id="edge30" class="edge"><title>Node291&#45;&gt;Node278</title>
<path fill="none" stroke="midnightblue" d="M447.94,-250C464.801,-250 484.143,-250 502.684,-250"/>
<polygon fill="midnightblue" stroke="midnightblue" points="502.88,-253.5 512.88,-250 502.88,-246.5 502.88,-253.5"/>
</g>
<!-- Node291&#45;&gt;Node279 -->
<g id="edge31" class="edge"><title>Node291&#45;&gt;Node279</title>
<path fill="none" stroke="midnightblue" d="M415.32,-240.389C436.17,-228.047 474.278,-206.603 509,-193 515.26,-190.547 521.955,-188.287 528.627,-186.246"/>
<polygon fill="midnightblue" stroke="midnightblue" points="529.711,-189.576 538.331,-183.417 527.751,-182.856 529.711,-189.576"/>
</g>
</g>
</svg>
