<?xml version="1.0" encoding="UTF-8" standalone="no"?>
<!DOCTYPE svg PUBLIC "-//W3C//DTD SVG 1.1//EN"
 "http://www.w3.org/Graphics/SVG/1.1/DTD/svg11.dtd">
<!-- Generated by graphviz version 2.38.0 (20140413.2041)
 -->
<!-- Title: src/privatesend/privatesend&#45;client.h Pages: 1 -->
<svg width="1325pt" height="106pt"
 viewBox="0.00 0.00 1325.00 106.00" xmlns="http://www.w3.org/2000/svg" xmlns:xlink="http://www.w3.org/1999/xlink">
<g id="graph0" class="graph" transform="scale(1 1) rotate(0) translate(4 102)">
<title>src/privatesend/privatesend&#45;client.h</title>
<polygon fill="white" stroke="none" points="-4,4 -4,-102 1321,-102 1321,4 -4,4"/>
<!-- Node191 -->
<g id="node1" class="node"><title>Node191</title>
<polygon fill="#bfbfbf" stroke="black" points="641,-67.5 641,-97.5 790,-97.5 790,-67.5 641,-67.5"/>
<text text-anchor="start" x="649" y="-85.5" font-family="Helvetica,sans-Serif" font-size="10.00">src/privatesend/privatesend</text>
<text text-anchor="middle" x="715.5" y="-74.5" font-family="Helvetica,sans-Serif" font-size="10.00">&#45;client.h</text>
</g>
<!-- Node192 -->
<g id="node2" class="node"><title>Node192</title>
<g id="a_node2"><a xlink:href="privatesend-client_8cpp.html" target="_top" xlink:title="src/privatesend/privatesend\l&#45;client.cpp">
<polygon fill="white" stroke="black" points="0,-0.5 0,-30.5 149,-30.5 149,-0.5 0,-0.5"/>
<text text-anchor="start" x="8" y="-18.5" font-family="Helvetica,sans-Serif" font-size="10.00">src/privatesend/privatesend</text>
<text text-anchor="middle" x="74.5" y="-7.5" font-family="Helvetica,sans-Serif" font-size="10.00">&#45;client.cpp</text>
</a>
</g>
</g>
<!-- Node191&#45;&gt;Node192 -->
<g id="edge1" class="edge"><title>Node191&#45;&gt;Node192</title>
<path fill="none" stroke="midnightblue" d="M630.978,-75.9644C521.633,-68.3158 325.373,-52.9313 158.5,-31 155.419,-30.595 152.278,-30.1589 149.107,-29.6996"/>
<polygon fill="midnightblue" stroke="midnightblue" points="630.742,-79.4563 640.961,-76.658 631.227,-72.4732 630.742,-79.4563"/>
</g>
<!-- Node193 -->
<g id="node3" class="node"><title>Node193</title>
<g id="a_node3"><a xlink:href="coincontroldialog_8cpp.html" target="_top" xlink:title="src/qt/coincontroldialog.cpp">
<polygon fill="white" stroke="black" points="167.5,-6 167.5,-25 315.5,-25 315.5,-6 167.5,-6"/>
<text text-anchor="middle" x="241.5" y="-13" font-family="Helvetica,sans-Serif" font-size="10.00">src/qt/coincontroldialog.cpp</text>
</a>
</g>
</g>
<!-- Node191&#45;&gt;Node193 -->
<g id="edge2" class="edge"><title>Node191&#45;&gt;Node193</title>
<path fill="none" stroke="midnightblue" d="M630.831,-71.6672C551.532,-62.197 429.791,-46.9885 324.5,-31 312.786,-29.2212 300.175,-27.1164 288.408,-25.07"/>
<polygon fill="midnightblue" stroke="midnightblue" points="630.425,-75.1435 640.768,-72.8505 631.252,-68.1926 630.425,-75.1435"/>
</g>
<!-- Node194 -->
<g id="node4" class="node"><title>Node194</title>
<g id="a_node4"><a xlink:href="overviewpage_8cpp.html" target="_top" xlink:title="src/qt/overviewpage.cpp">
<polygon fill="white" stroke="black" points="333.5,-6 333.5,-25 465.5,-25 465.5,-6 333.5,-6"/>
<text text-anchor="middle" x="399.5" y="-13" font-family="Helvetica,sans-Serif" font-size="10.00">src/qt/overviewpage.cpp</text>
</a>
</g>
</g>
<!-- Node191&#45;&gt;Node194 -->
<g id="edge3" class="edge"><title>Node191&#45;&gt;Node194</title>
<path fill="none" stroke="midnightblue" d="M637.164,-65.3865C575.043,-52.6086 490.672,-35.2538 440.962,-25.0287"/>
<polygon fill="midnightblue" stroke="midnightblue" points="636.822,-68.8894 647.322,-67.476 638.232,-62.0329 636.822,-68.8894"/>
</g>
<!-- Node195 -->
<g id="node5" class="node"><title>Node195</title>
<g id="a_node5"><a xlink:href="sendcoinsdialog_8cpp.html" target="_top" xlink:title="src/qt/sendcoinsdialog.cpp">
<polygon fill="white" stroke="black" points="484,-6 484,-25 627,-25 627,-6 484,-6"/>
<text text-anchor="middle" x="555.5" y="-13" font-family="Helvetica,sans-Serif" font-size="10.00">src/qt/sendcoinsdialog.cpp</text>
</a>
</g>
</g>
<!-- Node191&#45;&gt;Node195 -->
<g id="edge4" class="edge"><title>Node191&#45;&gt;Node195</title>
<path fill="none" stroke="midnightblue" d="M671.491,-63.6214C640.522,-51.0403 600.463,-34.7661 576.44,-25.007"/>
<polygon fill="midnightblue" stroke="midnightblue" points="670.2,-66.8748 680.782,-67.396 672.835,-60.3895 670.2,-66.8748"/>
</g>
<!-- Node196 -->
<g id="node6" class="node"><title>Node196</title>
<g id="a_node6"><a xlink:href="transactionview_8cpp.html" target="_top" xlink:title="src/qt/transactionview.cpp">
<polygon fill="white" stroke="black" points="645.5,-6 645.5,-25 785.5,-25 785.5,-6 645.5,-6"/>
<text text-anchor="middle" x="715.5" y="-13" font-family="Helvetica,sans-Serif" font-size="10.00">src/qt/transactionview.cpp</text>
</a>
</g>
</g>
<!-- Node191&#45;&gt;Node196 -->
<g id="edge5" class="edge"><title>Node191&#45;&gt;Node196</title>
<path fill="none" stroke="midnightblue" d="M715.5,-57.2495C715.5,-46.017 715.5,-33.3767 715.5,-25.1945"/>
<polygon fill="midnightblue" stroke="midnightblue" points="712,-57.3959 715.5,-67.396 719,-57.396 712,-57.3959"/>
</g>
<!-- Node197 -->
<g id="node7" class="node"><title>Node197</title>
<g id="a_node7"><a xlink:href="walletmodel_8cpp.html" target="_top" xlink:title="src/qt/walletmodel.cpp">
<polygon fill="white" stroke="black" points="803.5,-6 803.5,-25 927.5,-25 927.5,-6 803.5,-6"/>
<text text-anchor="middle" x="865.5" y="-13" font-family="Helvetica,sans-Serif" font-size="10.00">src/qt/walletmodel.cpp</text>
</a>
</g>
</g>
<!-- Node191&#45;&gt;Node197 -->
<g id="edge6" class="edge"><title>Node191&#45;&gt;Node197</title>
<path fill="none" stroke="midnightblue" d="M757.511,-63.2952C786.438,-50.7602 823.542,-34.682 845.868,-25.007"/>
<polygon fill="midnightblue" stroke="midnightblue" points="755.832,-60.2084 748.048,-67.396 758.615,-66.6313 755.832,-60.2084"/>
</g>
<!-- Node198 -->
<g id="node8" class="node"><title>Node198</title>
<g id="a_node8"><a xlink:href="wallet_2init_8cpp.html" target="_top" xlink:title="src/wallet/init.cpp">
<polygon fill="white" stroke="black" points="945.5,-6 945.5,-25 1043.5,-25 1043.5,-6 945.5,-6"/>
<text text-anchor="middle" x="994.5" y="-13" font-family="Helvetica,sans-Serif" font-size="10.00">src/wallet/init.cpp</text>
</a>
</g>
</g>
<!-- Node191&#45;&gt;Node198 -->
<g id="edge7" class="edge"><title>Node191&#45;&gt;Node198</title>
<path fill="none" stroke="midnightblue" d="M788.294,-65.2571C831.431,-55.5343 887.14,-42.8083 936.5,-31 944.374,-29.1164 952.834,-27.0345 960.792,-25.05"/>
<polygon fill="midnightblue" stroke="midnightblue" points="787.438,-61.862 778.451,-67.4727 788.975,-68.6912 787.438,-61.862"/>
</g>
<!-- Node199 -->
<g id="node9" class="node"><title>Node199</title>
<g id="a_node9"><a xlink:href="rpcwallet_8cpp.html" target="_top" xlink:title="src/wallet/rpcwallet.cpp">
<polygon fill="white" stroke="black" points="1061.5,-6 1061.5,-25 1187.5,-25 1187.5,-6 1061.5,-6"/>
<text text-anchor="middle" x="1124.5" y="-13" font-family="Helvetica,sans-Serif" font-size="10.00">src/wallet/rpcwallet.cpp</text>
</a>
</g>
</g>
<!-- Node191&#45;&gt;Node199 -->
<g id="edge8" class="edge"><title>Node191&#45;&gt;Node199</title>
<path fill="none" stroke="midnightblue" d="M800.565,-69.9519C868.817,-60.3977 967.008,-46.0045 1052.5,-31 1062.67,-29.2146 1073.62,-27.1074 1083.82,-25.0607"/>
<polygon fill="midnightblue" stroke="midnightblue" points="799.717,-66.5363 790.296,-71.3845 800.684,-73.4691 799.717,-66.5363"/>
</g>
<!-- Node200 -->
<g id="node10" class="node"><title>Node200</title>
<g id="a_node10"><a xlink:href="wallet_8cpp.html" target="_top" xlink:title="src/wallet/wallet.cpp">
<polygon fill="white" stroke="black" points="1206,-6 1206,-25 1317,-25 1317,-6 1206,-6"/>
<text text-anchor="middle" x="1261.5" y="-13" font-family="Helvetica,sans-Serif" font-size="10.00">src/wallet/wallet.cpp</text>
</a>
</g>
</g>
<!-- Node191&#45;&gt;Node200 -->
<g id="edge9" class="edge"><title>Node191&#45;&gt;Node200</title>
<path fill="none" stroke="midnightblue" d="M799.993,-75.5831C896.358,-68.1513 1058.44,-53.5695 1196.5,-31 1206.31,-29.3958 1216.87,-27.233 1226.56,-25.068"/>
<polygon fill="midnightblue" stroke="midnightblue" points="799.718,-72.0938 790.013,-76.3453 800.251,-79.0735 799.718,-72.0938"/>
</g>
</g>
</svg>
