<?xml version="1.0" encoding="UTF-8" standalone="no"?>
<!DOCTYPE svg PUBLIC "-//W3C//DTD SVG 1.1//EN"
 "http://www.w3.org/Graphics/SVG/1.1/DTD/svg11.dtd">
<!-- Generated by graphviz version 2.38.0 (20140413.2041)
 -->
<!-- Title: src/qt/qvaluecombobox.cpp Pages: 1 -->
<svg width="164pt" height="140pt"
 viewBox="0.00 0.00 164.00 140.00" xmlns="http://www.w3.org/2000/svg" xmlns:xlink="http://www.w3.org/1999/xlink">
<g id="graph0" class="graph" transform="scale(1 1) rotate(0) translate(4 136)">
<title>src/qt/qvaluecombobox.cpp</title>
<polygon fill="white" stroke="none" points="-4,4 -4,-136 160,-136 160,4 -4,4"/>
<!-- Node0 -->
<g id="node1" class="node"><title>Node0</title>
<polygon fill="#bfbfbf" stroke="black" points="7,-112.5 7,-131.5 156,-131.5 156,-112.5 7,-112.5"/>
<text text-anchor="middle" x="81.5" y="-119.5" font-family="Helvetica,sans-Serif" font-size="10.00">src/qt/qvaluecombobox.cpp</text>
</g>
<!-- Node1 -->
<g id="node2" class="node"><title>Node1</title>
<g id="a_node2"><a xlink:href="qvaluecombobox_8h.html" target="_top" xlink:title="qt/qvaluecombobox.h">
<polygon fill="white" stroke="black" points="21.5,-56.5 21.5,-75.5 141.5,-75.5 141.5,-56.5 21.5,-56.5"/>
<text text-anchor="middle" x="81.5" y="-63.5" font-family="Helvetica,sans-Serif" font-size="10.00">qt/qvaluecombobox.h</text>
</a>
</g>
</g>
<!-- Node0&#45;&gt;Node1 -->
<g id="edge1" class="edge"><title>Node0&#45;&gt;Node1</title>
<path fill="none" stroke="midnightblue" d="M81.5,-112.083C81.5,-105.006 81.5,-94.8611 81.5,-85.9865"/>
<polygon fill="midnightblue" stroke="midnightblue" points="85.0001,-85.751 81.5,-75.7511 78.0001,-85.7511 85.0001,-85.751"/>
</g>
<!-- Node2 -->
<g id="node3" class="node"><title>Node2</title>
<polygon fill="white" stroke="#bfbfbf" points="0,-0.5 0,-19.5 77,-19.5 77,-0.5 0,-0.5"/>
<text text-anchor="middle" x="38.5" y="-7.5" font-family="Helvetica,sans-Serif" font-size="10.00">QComboBox</text>
</g>
<!-- Node1&#45;&gt;Node2 -->
<g id="edge2" class="edge"><title>Node1&#45;&gt;Node2</title>
<path fill="none" stroke="midnightblue" d="M74.3994,-56.083C68.263,-48.3768 59.2303,-37.0333 51.7608,-27.6531"/>
<polygon fill="midnightblue" stroke="midnightblue" points="54.4357,-25.3936 45.4685,-19.7511 48.9598,-29.7542 54.4357,-25.3936"/>
</g>
<!-- Node3 -->
<g id="node4" class="node"><title>Node3</title>
<polygon fill="white" stroke="#bfbfbf" points="95.5,-0.5 95.5,-19.5 153.5,-19.5 153.5,-0.5 95.5,-0.5"/>
<text text-anchor="middle" x="124.5" y="-7.5" font-family="Helvetica,sans-Serif" font-size="10.00">QVariant</text>
</g>
<!-- Node1&#45;&gt;Node3 -->
<g id="edge3" class="edge"><title>Node1&#45;&gt;Node3</title>
<path fill="none" stroke="midnightblue" d="M88.6006,-56.083C94.737,-48.3768 103.77,-37.0333 111.239,-27.6531"/>
<polygon fill="midnightblue" stroke="midnightblue" points="114.04,-29.7542 117.532,-19.7511 108.564,-25.3936 114.04,-29.7542"/>
</g>
</g>
</svg>
