<?xml version="1.0" encoding="UTF-8" standalone="no"?>
<!DOCTYPE svg PUBLIC "-//W3C//DTD SVG 1.1//EN"
 "http://www.w3.org/Graphics/SVG/1.1/DTD/svg11.dtd">
<!-- Generated by graphviz version 2.38.0 (20140413.2041)
 -->
<!-- Title: createrawtransaction Pages: 1 -->
<svg width="937pt" height="978pt"
 viewBox="0.00 0.00 937.00 978.00" xmlns="http://www.w3.org/2000/svg" xmlns:xlink="http://www.w3.org/1999/xlink">
<g id="graph0" class="graph" transform="scale(1 1) rotate(0) translate(4 974)">
<title>createrawtransaction</title>
<polygon fill="white" stroke="none" points="-4,4 -4,-974 933,-974 933,4 -4,4"/>
<!-- Node0 -->
<g id="node1" class="node"><title>Node0</title>
<polygon fill="#bfbfbf" stroke="black" points="0,-361.5 0,-380.5 107,-380.5 107,-361.5 0,-361.5"/>
<text text-anchor="middle" x="53.5" y="-368.5" font-family="Helvetica,sans-Serif" font-size="10.00">createrawtransaction</text>
</g>
<!-- Node1 -->
<g id="node2" class="node"><title>Node1</title>
<g id="a_node2"><a xlink:href="server_8cpp.html#abee2131e97f3e3d0ab3bdc47916e29f4" target="_top" xlink:title="AmountFromValue">
<polygon fill="white" stroke="black" points="155,-836.5 155,-855.5 253,-855.5 253,-836.5 155,-836.5"/>
<text text-anchor="middle" x="204" y="-843.5" font-family="Helvetica,sans-Serif" font-size="10.00">AmountFromValue</text>
</a>
</g>
</g>
<!-- Node0&#45;&gt;Node1 -->
<g id="edge1" class="edge"><title>Node0&#45;&gt;Node1</title>
<path fill="none" stroke="midnightblue" d="M55.1909,-380.624C58.7362,-425.907 77.3499,-621.57 143,-765 154.062,-789.167 173.116,-813.168 186.786,-828.694"/>
<polygon fill="midnightblue" stroke="midnightblue" points="184.442,-831.32 193.742,-836.395 189.636,-826.628 184.442,-831.32"/>
</g>
<!-- Node2 -->
<g id="node3" class="node"><title>Node2</title>
<g id="a_node3"><a xlink:href="class_uni_value.html#ac5271a9bb4ece86f00052bb5603eaa78" target="_top" xlink:title="UniValue::isNum">
<polygon fill="white" stroke="black" points="318.5,-950.5 318.5,-969.5 409.5,-969.5 409.5,-950.5 318.5,-950.5"/>
<text text-anchor="middle" x="364" y="-957.5" font-family="Helvetica,sans-Serif" font-size="10.00">UniValue::isNum</text>
</a>
</g>
</g>
<!-- Node0&#45;&gt;Node2 -->
<g id="edge39" class="edge"><title>Node0&#45;&gt;Node2</title>
<path fill="none" stroke="midnightblue" d="M55.051,-380.685C58.7504,-442.727 81.7132,-784.358 143,-865 182.766,-917.324 257.225,-941.247 308.419,-951.895"/>
<polygon fill="midnightblue" stroke="midnightblue" points="307.842,-955.349 318.331,-953.853 309.198,-948.482 307.842,-955.349"/>
</g>
<!-- Node4 -->
<g id="node5" class="node"><title>Node4</title>
<g id="a_node5"><a xlink:href="rpc_2protocol_8cpp.html#a41a2234c99900304357a44796b2259d5" target="_top" xlink:title="JSONRPCError">
<polygon fill="white" stroke="black" points="476.5,-646.5 476.5,-665.5 562.5,-665.5 562.5,-646.5 476.5,-646.5"/>
<text text-anchor="middle" x="519.5" y="-653.5" font-family="Helvetica,sans-Serif" font-size="10.00">JSONRPCError</text>
</a>
</g>
</g>
<!-- Node0&#45;&gt;Node4 -->
<g id="edge41" class="edge"><title>Node0&#45;&gt;Node4</title>
<path fill="none" stroke="midnightblue" d="M56.6065,-380.547C63.5423,-409.755 88.4102,-498.782 143,-546 168.09,-567.702 373.516,-620.33 469.464,-644.053"/>
<polygon fill="midnightblue" stroke="midnightblue" points="468.679,-647.464 479.227,-646.46 470.355,-640.668 468.679,-647.464"/>
</g>
<!-- Node27 -->
<g id="node16" class="node"><title>Node27</title>
<g id="a_node16"><a xlink:href="core__io_8h.html#a143951d3e5f8c1f57c9825187c426270" target="_top" xlink:title="EncodeHexTx">
<polygon fill="white" stroke="black" points="164.5,-380.5 164.5,-399.5 243.5,-399.5 243.5,-380.5 164.5,-380.5"/>
<text text-anchor="middle" x="204" y="-387.5" font-family="Helvetica,sans-Serif" font-size="10.00">EncodeHexTx</text>
</a>
</g>
</g>
<!-- Node0&#45;&gt;Node27 -->
<g id="edge15" class="edge"><title>Node0&#45;&gt;Node27</title>
<path fill="none" stroke="midnightblue" d="M107.274,-377.752C122.582,-379.711 139.222,-381.84 154.271,-383.765"/>
<polygon fill="midnightblue" stroke="midnightblue" points="154.035,-387.264 164.398,-385.061 154.923,-380.32 154.035,-387.264"/>
</g>
<!-- Node31 -->
<g id="node20" class="node"><title>Node31</title>
<g id="a_node20"><a xlink:href="univalue_8h.html#a33625d562f1ef5f44ceb171d5c8f2a85" target="_top" xlink:title="find_value">
<polygon fill="white" stroke="black" points="333.5,-646.5 333.5,-665.5 394.5,-665.5 394.5,-646.5 333.5,-646.5"/>
<text text-anchor="middle" x="364" y="-653.5" font-family="Helvetica,sans-Serif" font-size="10.00">find_value</text>
</a>
</g>
</g>
<!-- Node0&#45;&gt;Node31 -->
<g id="edge19" class="edge"><title>Node0&#45;&gt;Node31</title>
<path fill="none" stroke="midnightblue" d="M54.3859,-380.591C54.495,-419.392 60.5315,-565.818 143,-632 194.227,-673.11 275.145,-670.017 323.254,-663.425"/>
<polygon fill="midnightblue" stroke="midnightblue" points="323.913,-666.865 333.29,-661.933 322.884,-659.941 323.913,-666.865"/>
</g>
<!-- Node32 -->
<g id="node21" class="node"><title>Node32</title>
<g id="a_node21"><a xlink:href="class_c_bitcoin_address.html#a1e44de10dfc84d1fd2e15150f1e22b8e" target="_top" xlink:title="CBitcoinAddress::Get">
<polygon fill="white" stroke="black" points="148,-342.5 148,-361.5 260,-361.5 260,-342.5 148,-342.5"/>
<text text-anchor="middle" x="204" y="-349.5" font-family="Helvetica,sans-Serif" font-size="10.00">CBitcoinAddress::Get</text>
</a>
</g>
</g>
<!-- Node0&#45;&gt;Node32 -->
<g id="edge20" class="edge"><title>Node0&#45;&gt;Node32</title>
<path fill="none" stroke="midnightblue" d="M107.274,-364.248C117.152,-362.984 127.586,-361.649 137.789,-360.344"/>
<polygon fill="midnightblue" stroke="midnightblue" points="138.411,-363.793 147.885,-359.052 137.522,-356.849 138.411,-363.793"/>
</g>
<!-- Node33 -->
<g id="node22" class="node"><title>Node33</title>
<g id="a_node22"><a xlink:href="class_c_bitcoin_address.html#ab39907ce6895062a8f8bf585270ef13b" target="_top" xlink:title="CBitcoinAddress::IsValid">
<polygon fill="white" stroke="black" points="301,-190.5 301,-209.5 427,-209.5 427,-190.5 301,-190.5"/>
<text text-anchor="middle" x="364" y="-197.5" font-family="Helvetica,sans-Serif" font-size="10.00">CBitcoinAddress::IsValid</text>
</a>
</g>
</g>
<!-- Node0&#45;&gt;Node33 -->
<g id="edge40" class="edge"><title>Node0&#45;&gt;Node33</title>
<path fill="none" stroke="midnightblue" d="M74.998,-361.48C92.7801,-353.396 119.315,-341.747 143,-333 196.275,-313.326 222.218,-332.349 265,-295 293.459,-270.155 272.302,-242.568 301,-218 302.501,-216.715 304.089,-215.522 305.745,-214.414"/>
<polygon fill="midnightblue" stroke="midnightblue" points="307.459,-217.466 314.504,-209.552 304.062,-211.345 307.459,-217.466"/>
</g>
<!-- Node37 -->
<g id="node26" class="node"><title>Node37</title>
<g id="a_node26"><a xlink:href="class_uni_value.html#aa9751b5797cb84d15b9fe4ca217f0b63" target="_top" xlink:title="UniValue::get_array">
<polygon fill="white" stroke="black" points="152.5,-266.5 152.5,-285.5 255.5,-285.5 255.5,-266.5 152.5,-266.5"/>
<text text-anchor="middle" x="204" y="-273.5" font-family="Helvetica,sans-Serif" font-size="10.00">UniValue::get_array</text>
</a>
</g>
</g>
<!-- Node0&#45;&gt;Node37 -->
<g id="edge26" class="edge"><title>Node0&#45;&gt;Node37</title>
<path fill="none" stroke="midnightblue" d="M64.3902,-361.405C80.0211,-346.644 111.867,-318.171 143,-300 149.662,-296.112 157.072,-292.581 164.35,-289.497"/>
<polygon fill="midnightblue" stroke="midnightblue" points="166.134,-292.552 174.107,-285.575 163.524,-286.056 166.134,-292.552"/>
</g>
<!-- Node38 -->
<g id="node27" class="node"><title>Node38</title>
<g id="a_node27"><a xlink:href="class_uni_value.html#af45edc6e67eaa6d1f271ce18e435a376" target="_top" xlink:title="UniValue::get_int">
<polygon fill="white" stroke="black" points="158,-190.5 158,-209.5 250,-209.5 250,-190.5 158,-190.5"/>
<text text-anchor="middle" x="204" y="-197.5" font-family="Helvetica,sans-Serif" font-size="10.00">UniValue::get_int</text>
</a>
</g>
</g>
<!-- Node0&#45;&gt;Node38 -->
<g id="edge27" class="edge"><title>Node0&#45;&gt;Node38</title>
<path fill="none" stroke="midnightblue" d="M57.4379,-361.159C65.9829,-334.23 93.4179,-258.696 143,-219 145.279,-217.175 147.736,-215.525 150.309,-214.032"/>
<polygon fill="midnightblue" stroke="midnightblue" points="151.995,-217.102 159.413,-209.537 148.896,-210.826 151.995,-217.102"/>
</g>
<!-- Node41 -->
<g id="node30" class="node"><title>Node41</title>
<g id="a_node30"><a xlink:href="class_uni_value.html#a34bd3bc2de335486d2060ff907b317d0" target="_top" xlink:title="UniValue::get_int64">
<polygon fill="white" stroke="black" points="153,-228.5 153,-247.5 255,-247.5 255,-228.5 153,-228.5"/>
<text text-anchor="middle" x="204" y="-235.5" font-family="Helvetica,sans-Serif" font-size="10.00">UniValue::get_int64</text>
</a>
</g>
</g>
<!-- Node0&#45;&gt;Node41 -->
<g id="edge30" class="edge"><title>Node0&#45;&gt;Node41</title>
<path fill="none" stroke="midnightblue" d="M59.2783,-361.462C70.6889,-339.651 101.683,-285.796 143,-257 145.866,-255.003 148.951,-253.208 152.157,-251.596"/>
<polygon fill="midnightblue" stroke="midnightblue" points="153.681,-254.75 161.428,-247.523 150.865,-248.341 153.681,-254.75"/>
</g>
<!-- Node43 -->
<g id="node32" class="node"><title>Node43</title>
<g id="a_node32"><a xlink:href="class_uni_value.html#a49a6ac464f3c2d918e7379d3203c7337" target="_top" xlink:title="UniValue::get_obj">
<polygon fill="white" stroke="black" points="157,-152.5 157,-171.5 251,-171.5 251,-152.5 157,-152.5"/>
<text text-anchor="middle" x="204" y="-159.5" font-family="Helvetica,sans-Serif" font-size="10.00">UniValue::get_obj</text>
</a>
</g>
</g>
<!-- Node0&#45;&gt;Node43 -->
<g id="edge33" class="edge"><title>Node0&#45;&gt;Node43</title>
<path fill="none" stroke="midnightblue" d="M56.1405,-361.486C61.9601,-330.634 84.4954,-232.394 143,-181 144.939,-179.296 147.032,-177.745 149.232,-176.333"/>
<polygon fill="midnightblue" stroke="midnightblue" points="151.002,-179.356 158.163,-171.547 147.695,-173.186 151.002,-179.356"/>
</g>
<!-- Node44 -->
<g id="node33" class="node"><title>Node44</title>
<g id="a_node33"><a xlink:href="class_uni_value.html#a6832baa1a837e46e9800e6125e5f8d26" target="_top" xlink:title="UniValue::getKeys">
<polygon fill="white" stroke="black" points="155,-114.5 155,-133.5 253,-133.5 253,-114.5 155,-114.5"/>
<text text-anchor="middle" x="204" y="-121.5" font-family="Helvetica,sans-Serif" font-size="10.00">UniValue::getKeys</text>
</a>
</g>
</g>
<!-- Node0&#45;&gt;Node44 -->
<g id="edge34" class="edge"><title>Node0&#45;&gt;Node44</title>
<path fill="none" stroke="midnightblue" d="M55.3579,-361.127C58.9388,-326.033 75.8095,-206.049 143,-143 144.683,-141.421 146.497,-139.972 148.409,-138.645"/>
<polygon fill="midnightblue" stroke="midnightblue" points="150.365,-141.558 157.314,-133.56 146.894,-135.479 150.365,-141.558"/>
</g>
<!-- Node45 -->
<g id="node34" class="node"><title>Node45</title>
<g id="a_node34"><a xlink:href="standard_8cpp.html#ae40f28d3b46c21033f6ee1f1200d0321" target="_top" xlink:title="GetScriptForDestination">
<polygon fill="white" stroke="black" points="143,-76.5 143,-95.5 265,-95.5 265,-76.5 143,-76.5"/>
<text text-anchor="middle" x="204" y="-83.5" font-family="Helvetica,sans-Serif" font-size="10.00">GetScriptForDestination</text>
</a>
</g>
</g>
<!-- Node0&#45;&gt;Node45 -->
<g id="edge35" class="edge"><title>Node0&#45;&gt;Node45</title>
<path fill="none" stroke="midnightblue" d="M54.7242,-361.419C56.145,-323.234 66.5675,-180.331 143,-105 144.612,-103.411 146.357,-101.955 148.201,-100.62"/>
<polygon fill="midnightblue" stroke="midnightblue" points="150.007,-103.618 156.83,-95.5132 146.442,-97.5942 150.007,-103.618"/>
</g>
<!-- Node46 -->
<g id="node35" class="node"><title>Node46</title>
<g id="a_node35"><a xlink:href="server_8cpp.html#a26bafe3d526ee8cbc84b3c0b0dc3a43b" target="_top" xlink:title="HelpExampleCli">
<polygon fill="white" stroke="black" points="160.5,-38.5 160.5,-57.5 247.5,-57.5 247.5,-38.5 160.5,-38.5"/>
<text text-anchor="middle" x="204" y="-45.5" font-family="Helvetica,sans-Serif" font-size="10.00">HelpExampleCli</text>
</a>
</g>
</g>
<!-- Node0&#45;&gt;Node46 -->
<g id="edge36" class="edge"><title>Node0&#45;&gt;Node46</title>
<path fill="none" stroke="midnightblue" d="M54.2592,-361.24C53.7786,-319.541 57.5342,-154.488 143,-67 145.48,-64.461 148.297,-62.2605 151.325,-60.3533"/>
<polygon fill="midnightblue" stroke="midnightblue" points="153.031,-63.4119 160.315,-55.7181 149.823,-57.1903 153.031,-63.4119"/>
</g>
<!-- Node47 -->
<g id="node36" class="node"><title>Node47</title>
<g id="a_node36"><a xlink:href="server_8cpp.html#a9ef4f8fb114508ceb861a0e8c3e0d26e" target="_top" xlink:title="HelpExampleRpc">
<polygon fill="white" stroke="black" points="157.5,-0.5 157.5,-19.5 250.5,-19.5 250.5,-0.5 157.5,-0.5"/>
<text text-anchor="middle" x="204" y="-7.5" font-family="Helvetica,sans-Serif" font-size="10.00">HelpExampleRpc</text>
</a>
</g>
</g>
<!-- Node0&#45;&gt;Node47 -->
<g id="edge37" class="edge"><title>Node0&#45;&gt;Node47</title>
<path fill="none" stroke="midnightblue" d="M55.7183,-361.442C62.2788,-311.379 94.9002,-79.7425 143,-29 144.776,-27.1266 146.735,-25.4371 148.828,-23.9136"/>
<polygon fill="midnightblue" stroke="midnightblue" points="150.628,-26.9157 157.465,-18.822 147.073,-20.8856 150.628,-26.9157"/>
</g>
<!-- Node48 -->
<g id="node37" class="node"><title>Node48</title>
<g id="a_node37"><a xlink:href="class_uni_value.html#a3661be0f5580daceb23e5338e3a0df22" target="_top" xlink:title="UniValue::isNull">
<polygon fill="white" stroke="black" points="320.5,-570.5 320.5,-589.5 407.5,-589.5 407.5,-570.5 320.5,-570.5"/>
<text text-anchor="middle" x="364" y="-577.5" font-family="Helvetica,sans-Serif" font-size="10.00">UniValue::isNull</text>
</a>
</g>
</g>
<!-- Node0&#45;&gt;Node48 -->
<g id="edge38" class="edge"><title>Node0&#45;&gt;Node48</title>
<path fill="none" stroke="midnightblue" d="M58.3104,-380.555C68.4218,-404.736 98.2565,-468.918 143,-504 192.283,-542.641 262.522,-562.349 310.284,-571.887"/>
<polygon fill="midnightblue" stroke="midnightblue" points="309.639,-575.327 320.119,-573.771 310.956,-568.452 309.639,-575.327"/>
</g>
<!-- Node49 -->
<g id="node38" class="node"><title>Node49</title>
<g id="a_node38"><a xlink:href="server_8cpp.html#a4127509230eb67be5d765b4a95ddf392" target="_top" xlink:title="ParseHashO">
<polygon fill="white" stroke="black" points="167.5,-684.5 167.5,-703.5 240.5,-703.5 240.5,-684.5 167.5,-684.5"/>
<text text-anchor="middle" x="204" y="-691.5" font-family="Helvetica,sans-Serif" font-size="10.00">ParseHashO</text>
</a>
</g>
</g>
<!-- Node0&#45;&gt;Node49 -->
<g id="edge42" class="edge"><title>Node0&#45;&gt;Node49</title>
<path fill="none" stroke="midnightblue" d="M54.4848,-380.721C54.9442,-421.553 62.0491,-581.171 143,-670 147.265,-674.68 152.565,-678.463 158.238,-681.517"/>
<polygon fill="midnightblue" stroke="midnightblue" points="156.817,-684.716 167.362,-685.74 159.757,-678.363 156.817,-684.716"/>
</g>
<!-- Node55 -->
<g id="node44" class="node"><title>Node55</title>
<g id="a_node44"><a xlink:href="server_8cpp.html#aefdb776333651cddcd73ad7a58d36c8e" target="_top" xlink:title="ParseHexV">
<polygon fill="white" stroke="black" points="330.5,-760.5 330.5,-779.5 397.5,-779.5 397.5,-760.5 330.5,-760.5"/>
<text text-anchor="middle" x="364" y="-767.5" font-family="Helvetica,sans-Serif" font-size="10.00">ParseHexV</text>
</a>
</g>
</g>
<!-- Node0&#45;&gt;Node55 -->
<g id="edge51" class="edge"><title>Node0&#45;&gt;Node55</title>
<path fill="none" stroke="midnightblue" d="M55.6705,-380.604C61.9875,-430.905 93.5686,-663.554 143,-713 190.137,-760.151 270.901,-769.891 320.361,-771.064"/>
<polygon fill="midnightblue" stroke="midnightblue" points="320.372,-774.564 330.417,-771.194 320.463,-767.565 320.372,-774.564"/>
</g>
<!-- Node57 -->
<g id="node46" class="node"><title>Node57</title>
<g id="a_node46"><a xlink:href="server_8cpp.html#ac5b4e8e5154ac022c7be81730a527fd1" target="_top" xlink:title="RPCTypeCheck">
<polygon fill="white" stroke="black" points="159.5,-475.5 159.5,-494.5 248.5,-494.5 248.5,-475.5 159.5,-475.5"/>
<text text-anchor="middle" x="204" y="-482.5" font-family="Helvetica,sans-Serif" font-size="10.00">RPCTypeCheck</text>
</a>
</g>
</g>
<!-- Node0&#45;&gt;Node57 -->
<g id="edge58" class="edge"><title>Node0&#45;&gt;Node57</title>
<path fill="none" stroke="midnightblue" d="M66.079,-380.622C82.833,-394.469 114.909,-420.69 143,-442 155.246,-451.289 169.187,-461.313 180.547,-469.344"/>
<polygon fill="midnightblue" stroke="midnightblue" points="178.83,-472.415 189.023,-475.305 182.857,-466.689 178.83,-472.415"/>
</g>
<!-- Node58 -->
<g id="node47" class="node"><title>Node58</title>
<g id="a_node47"><a xlink:href="class_uni_value.html#a5a7394aeb8d5584db7a90c2c041726b1" target="_top" xlink:title="UniValue::size">
<polygon fill="white" stroke="black" points="324,-418.5 324,-437.5 404,-437.5 404,-418.5 324,-418.5"/>
<text text-anchor="middle" x="364" y="-425.5" font-family="Helvetica,sans-Serif" font-size="10.00">UniValue::size</text>
</a>
</g>
</g>
<!-- Node0&#45;&gt;Node58 -->
<g id="edge65" class="edge"><title>Node0&#45;&gt;Node58</title>
<path fill="none" stroke="midnightblue" d="M72.2126,-380.616C89.6696,-389.602 117.375,-402.57 143,-409 200.437,-423.413 268.658,-427.35 313.737,-428.206"/>
<polygon fill="midnightblue" stroke="midnightblue" points="313.784,-431.707 323.834,-428.354 313.886,-424.708 313.784,-431.707"/>
</g>
<!-- Node1&#45;&gt;Node2 -->
<g id="edge2" class="edge"><title>Node1&#45;&gt;Node2</title>
<path fill="none" stroke="midnightblue" d="M214.327,-855.745C236.406,-878.736 290.786,-934.895 301,-941 304.587,-943.144 308.438,-945.066 312.401,-946.785"/>
<polygon fill="midnightblue" stroke="midnightblue" points="311.189,-950.07 321.777,-950.437 313.729,-943.547 311.189,-950.07"/>
</g>
<!-- Node3 -->
<g id="node4" class="node"><title>Node3</title>
<g id="a_node4"><a xlink:href="class_uni_value.html#a8abe13a4663ccfda54ae2440ed445c5a" target="_top" xlink:title="UniValue::isStr">
<polygon fill="white" stroke="black" points="478,-836.5 478,-855.5 561,-855.5 561,-836.5 478,-836.5"/>
<text text-anchor="middle" x="519.5" y="-843.5" font-family="Helvetica,sans-Serif" font-size="10.00">UniValue::isStr</text>
</a>
</g>
</g>
<!-- Node1&#45;&gt;Node3 -->
<g id="edge3" class="edge"><title>Node1&#45;&gt;Node3</title>
<path fill="none" stroke="midnightblue" d="M243.977,-855.51C261.32,-859.275 282.062,-863.144 301,-865 356.733,-870.462 371.293,-870.723 427,-865 441.546,-863.506 457.19,-860.709 471.357,-857.711"/>
<polygon fill="midnightblue" stroke="midnightblue" points="472.359,-861.075 481.375,-855.509 470.856,-854.238 472.359,-861.075"/>
</g>
<!-- Node1&#45;&gt;Node4 -->
<g id="edge4" class="edge"><title>Node1&#45;&gt;Node4</title>
<path fill="none" stroke="midnightblue" d="M209.179,-836.198C220.255,-811.438 252.85,-746.008 301,-713 314.696,-703.611 406.275,-681.521 466.152,-667.762"/>
<polygon fill="midnightblue" stroke="midnightblue" points="467.237,-671.105 476.205,-665.462 465.676,-664.281 467.237,-671.105"/>
</g>
<!-- Node23 -->
<g id="node12" class="node"><title>Node23</title>
<g id="a_node12"><a xlink:href="utilstrencodings_8cpp.html#a88871b16821d50d5f98a07312f8f1ffb" target="_top" xlink:title="Parse number as fixed point according to JSON number syntax. ">
<polygon fill="white" stroke="black" points="319.5,-912.5 319.5,-931.5 408.5,-931.5 408.5,-912.5 319.5,-912.5"/>
<text text-anchor="middle" x="364" y="-919.5" font-family="Helvetica,sans-Serif" font-size="10.00">ParseFixedPoint</text>
</a>
</g>
</g>
<!-- Node1&#45;&gt;Node23 -->
<g id="edge11" class="edge"><title>Node1&#45;&gt;Node23</title>
<path fill="none" stroke="midnightblue" d="M221.322,-855.67C240.167,-866.639 272.265,-884.722 301,-898 309.222,-901.799 318.228,-905.524 326.766,-908.864"/>
<polygon fill="midnightblue" stroke="midnightblue" points="325.549,-912.146 336.14,-912.454 328.053,-905.609 325.549,-912.146"/>
</g>
<!-- Node25 -->
<g id="node14" class="node"><title>Node25</title>
<g id="a_node14"><a xlink:href="class_uni_value.html#a4c9a5fa9114affbf31f6e346c032be12" target="_top" xlink:title="UniValue::getValStr">
<polygon fill="white" stroke="black" points="312.5,-836.5 312.5,-855.5 415.5,-855.5 415.5,-836.5 312.5,-836.5"/>
<text text-anchor="middle" x="364" y="-843.5" font-family="Helvetica,sans-Serif" font-size="10.00">UniValue::getValStr</text>
</a>
</g>
</g>
<!-- Node1&#45;&gt;Node25 -->
<g id="edge13" class="edge"><title>Node1&#45;&gt;Node25</title>
<path fill="none" stroke="midnightblue" d="M253.264,-846C268.599,-846 285.766,-846 301.884,-846"/>
<polygon fill="midnightblue" stroke="midnightblue" points="302.295,-849.5 312.295,-846 302.295,-842.5 302.295,-849.5"/>
</g>
<!-- Node26 -->
<g id="node15" class="node"><title>Node26</title>
<g id="a_node15"><a xlink:href="amount_8h.html#a12db56a9a1c931941f0943ecbb278aae" target="_top" xlink:title="MoneyRange">
<polygon fill="white" stroke="black" points="327,-798.5 327,-817.5 401,-817.5 401,-798.5 327,-798.5"/>
<text text-anchor="middle" x="364" y="-805.5" font-family="Helvetica,sans-Serif" font-size="10.00">MoneyRange</text>
</a>
</g>
</g>
<!-- Node1&#45;&gt;Node26 -->
<g id="edge14" class="edge"><title>Node1&#45;&gt;Node26</title>
<path fill="none" stroke="midnightblue" d="M244.87,-836.411C266.849,-831.125 294.234,-824.539 317.102,-819.039"/>
<polygon fill="midnightblue" stroke="midnightblue" points="318.021,-822.418 326.925,-816.676 316.384,-815.612 318.021,-822.418"/>
</g>
<!-- Node5 -->
<g id="node6" class="node"><title>Node5</title>
<g id="a_node6"><a xlink:href="util_8h.html#af8985880cf4ef26df0a5aa2ffcb76662" target="_top" xlink:title="error">
<polygon fill="white" stroke="black" points="621.5,-665.5 621.5,-684.5 657.5,-684.5 657.5,-665.5 621.5,-665.5"/>
<text text-anchor="middle" x="639.5" y="-672.5" font-family="Helvetica,sans-Serif" font-size="10.00">error</text>
</a>
</g>
</g>
<!-- Node4&#45;&gt;Node5 -->
<g id="edge5" class="edge"><title>Node4&#45;&gt;Node5</title>
<path fill="none" stroke="midnightblue" d="M562.767,-662.806C578.893,-665.402 596.836,-668.291 611.209,-670.606"/>
<polygon fill="midnightblue" stroke="midnightblue" points="610.984,-674.115 621.414,-672.249 612.097,-667.204 610.984,-674.115"/>
</g>
<!-- Node22 -->
<g id="node11" class="node"><title>Node22</title>
<g id="a_node11"><a xlink:href="univalue_8h.html#a884f0e316157c5d85f6cff80c442bf1a" target="_top" xlink:title="Pair">
<polygon fill="white" stroke="black" points="622.5,-627.5 622.5,-646.5 656.5,-646.5 656.5,-627.5 622.5,-627.5"/>
<text text-anchor="middle" x="639.5" y="-634.5" font-family="Helvetica,sans-Serif" font-size="10.00">Pair</text>
</a>
</g>
</g>
<!-- Node4&#45;&gt;Node22 -->
<g id="edge10" class="edge"><title>Node4&#45;&gt;Node22</title>
<path fill="none" stroke="midnightblue" d="M562.767,-649.194C579.209,-646.547 597.541,-643.595 612.05,-641.259"/>
<polygon fill="midnightblue" stroke="midnightblue" points="612.989,-644.653 622.305,-639.608 611.876,-637.742 612.989,-644.653"/>
</g>
<!-- Node6 -->
<g id="node7" class="node"><title>Node6</title>
<g id="a_node7"><a xlink:href="util_8h.html#afd4c3002b2797c0560adddb6af3ca1da" target="_top" xlink:title="Send a string to the log output. ">
<polygon fill="white" stroke="red" points="715,-687.5 715,-706.5 780,-706.5 780,-687.5 715,-687.5"/>
<text text-anchor="middle" x="747.5" y="-694.5" font-family="Helvetica,sans-Serif" font-size="10.00">LogPrintStr</text>
</a>
</g>
</g>
<!-- Node5&#45;&gt;Node6 -->
<g id="edge6" class="edge"><title>Node5&#45;&gt;Node6</title>
<path fill="none" stroke="midnightblue" d="M657.531,-678.535C670.325,-681.19 688.415,-684.945 704.945,-688.375"/>
<polygon fill="midnightblue" stroke="midnightblue" points="704.472,-691.852 714.975,-690.457 705.894,-684.998 704.472,-691.852"/>
</g>
<!-- Node19 -->
<g id="node10" class="node"><title>Node19</title>
<g id="a_node10"><a xlink:href="namespacetinyformat_1_1detail.html#aa4b0590b3e34562c2d252a2086cec7ba" target="_top" xlink:title="tinyformat::detail\l::format">
<polygon fill="white" stroke="red" points="703,-638 703,-668 792,-668 792,-638 703,-638"/>
<text text-anchor="start" x="711" y="-656" font-family="Helvetica,sans-Serif" font-size="10.00">tinyformat::detail</text>
<text text-anchor="middle" x="747.5" y="-645" font-family="Helvetica,sans-Serif" font-size="10.00">::format</text>
</a>
</g>
</g>
<!-- Node5&#45;&gt;Node19 -->
<g id="edge9" class="edge"><title>Node5&#45;&gt;Node19</title>
<path fill="none" stroke="midnightblue" d="M657.531,-671.465C667.324,-669.433 680.22,-666.756 693.144,-664.074"/>
<polygon fill="midnightblue" stroke="midnightblue" points="693.902,-667.491 702.982,-662.032 692.479,-660.637 693.902,-667.491"/>
</g>
<!-- Node7 -->
<g id="node8" class="node"><title>Node7</title>
<g id="a_node8"><a xlink:href="util_8cpp.html#af0c31e37a5891e021f9b339696398a28" target="_top" xlink:title="fStartedNewLine is a state variable held by the calling context that will suppress printing of the th...">
<polygon fill="white" stroke="red" points="828,-706.5 828,-725.5 929,-725.5 929,-706.5 828,-706.5"/>
<text text-anchor="middle" x="878.5" y="-713.5" font-family="Helvetica,sans-Serif" font-size="10.00">LogThreadNameStr</text>
</a>
</g>
</g>
<!-- Node6&#45;&gt;Node7 -->
<g id="edge7" class="edge"><title>Node6&#45;&gt;Node7</title>
<path fill="none" stroke="midnightblue" d="M780.057,-701.648C791.357,-703.312 804.502,-705.248 817.41,-707.15"/>
<polygon fill="midnightblue" stroke="midnightblue" points="817.268,-710.666 827.671,-708.661 818.288,-703.741 817.268,-710.666"/>
</g>
<!-- Node9 -->
<g id="node9" class="node"><title>Node9</title>
<g id="a_node9"><a xlink:href="util_8cpp.html#a8e80ae045580407e9f2028dc5f7b954c" target="_top" xlink:title="fStartedNewLine is a state variable held by the calling context that will suppress printing of the ti...">
<polygon fill="white" stroke="red" points="831.5,-668.5 831.5,-687.5 925.5,-687.5 925.5,-668.5 831.5,-668.5"/>
<text text-anchor="middle" x="878.5" y="-675.5" font-family="Helvetica,sans-Serif" font-size="10.00">LogTimestampStr</text>
</a>
</g>
</g>
<!-- Node6&#45;&gt;Node9 -->
<g id="edge8" class="edge"><title>Node6&#45;&gt;Node9</title>
<path fill="none" stroke="midnightblue" d="M780.057,-692.352C792.421,-690.531 806.994,-688.385 821.048,-686.315"/>
<polygon fill="midnightblue" stroke="midnightblue" points="821.768,-689.746 831.152,-684.827 820.748,-682.821 821.768,-689.746"/>
</g>
<!-- Node24 -->
<g id="node13" class="node"><title>Node24</title>
<g id="a_node13"><a xlink:href="utilstrencodings_8cpp.html#aa8fc3d6b0477d2406bdbbac99136c946" target="_top" xlink:title="Helper function for ParseFixedPoint. ">
<polygon fill="white" stroke="black" points="463,-912.5 463,-931.5 576,-931.5 576,-912.5 463,-912.5"/>
<text text-anchor="middle" x="519.5" y="-919.5" font-family="Helvetica,sans-Serif" font-size="10.00">ProcessMantissaDigit</text>
</a>
</g>
</g>
<!-- Node23&#45;&gt;Node24 -->
<g id="edge12" class="edge"><title>Node23&#45;&gt;Node24</title>
<path fill="none" stroke="midnightblue" d="M408.576,-922C422.259,-922 437.684,-922 452.557,-922"/>
<polygon fill="midnightblue" stroke="midnightblue" points="452.737,-925.5 462.737,-922 452.737,-918.5 452.737,-925.5"/>
</g>
<!-- Node28 -->
<g id="node17" class="node"><title>Node28</title>
<g id="a_node17"><a xlink:href="class_c_data_stream.html#a2355d11752d8622badfbc03e9ed192fd" target="_top" xlink:title="CDataStream::begin">
<polygon fill="white" stroke="black" points="311,-380.5 311,-399.5 417,-399.5 417,-380.5 311,-380.5"/>
<text text-anchor="middle" x="364" y="-387.5" font-family="Helvetica,sans-Serif" font-size="10.00">CDataStream::begin</text>
</a>
</g>
</g>
<!-- Node27&#45;&gt;Node28 -->
<g id="edge16" class="edge"><title>Node27&#45;&gt;Node28</title>
<path fill="none" stroke="midnightblue" d="M243.651,-390C260.766,-390 281.334,-390 300.537,-390"/>
<polygon fill="midnightblue" stroke="midnightblue" points="300.73,-393.5 310.73,-390 300.73,-386.5 300.73,-393.5"/>
</g>
<!-- Node29 -->
<g id="node18" class="node"><title>Node29</title>
<g id="a_node18"><a xlink:href="class_c_data_stream.html#a66409dbd4403682fe674e2e71173cab4" target="_top" xlink:title="CDataStream::end">
<polygon fill="white" stroke="black" points="315,-342.5 315,-361.5 413,-361.5 413,-342.5 315,-342.5"/>
<text text-anchor="middle" x="364" y="-349.5" font-family="Helvetica,sans-Serif" font-size="10.00">CDataStream::end</text>
</a>
</g>
</g>
<!-- Node27&#45;&gt;Node29 -->
<g id="edge17" class="edge"><title>Node27&#45;&gt;Node29</title>
<path fill="none" stroke="midnightblue" d="M243.651,-380.704C264.74,-375.632 291.074,-369.299 313.635,-363.873"/>
<polygon fill="midnightblue" stroke="midnightblue" points="314.47,-367.272 323.374,-361.53 312.833,-360.466 314.47,-367.272"/>
</g>
<!-- Node30 -->
<g id="node19" class="node"><title>Node30</title>
<g id="a_node19"><a xlink:href="utilstrencodings_8h.html#ace13a819ca4e98c22847d26b3b357e75" target="_top" xlink:title="HexStr">
<polygon fill="white" stroke="black" points="340.5,-304.5 340.5,-323.5 387.5,-323.5 387.5,-304.5 340.5,-304.5"/>
<text text-anchor="middle" x="364" y="-311.5" font-family="Helvetica,sans-Serif" font-size="10.00">HexStr</text>
</a>
</g>
</g>
<!-- Node27&#45;&gt;Node30 -->
<g id="edge18" class="edge"><title>Node27&#45;&gt;Node30</title>
<path fill="none" stroke="midnightblue" d="M243.73,-380.914C251.095,-378.32 258.518,-375.06 265,-371 284.717,-358.651 281.226,-345.257 301,-333 309.877,-327.497 320.463,-323.488 330.353,-320.612"/>
<polygon fill="midnightblue" stroke="midnightblue" points="331.517,-323.925 340.307,-318.01 329.746,-317.153 331.517,-323.925"/>
</g>
<!-- Node32&#45;&gt;Node33 -->
<g id="edge21" class="edge"><title>Node32&#45;&gt;Node33</title>
<path fill="none" stroke="midnightblue" d="M243.236,-342.376C251.234,-338.913 259.038,-334.251 265,-328 298.76,-292.606 267.043,-259.205 301,-224 304.806,-220.054 309.334,-216.746 314.186,-213.975"/>
<polygon fill="midnightblue" stroke="midnightblue" points="315.756,-217.104 323.181,-209.546 312.663,-210.824 315.756,-217.104"/>
</g>
<!-- Node34 -->
<g id="node23" class="node"><title>Node34</title>
<g id="a_node23"><a xlink:href="chainparams_8cpp.html#ace5c5b706d71a324a417dd2db394fd4a" target="_top" xlink:title="Return the currently selected parameters. ">
<polygon fill="white" stroke="black" points="494.5,-199.5 494.5,-218.5 544.5,-218.5 544.5,-199.5 494.5,-199.5"/>
<text text-anchor="middle" x="519.5" y="-206.5" font-family="Helvetica,sans-Serif" font-size="10.00">Params</text>
</a>
</g>
</g>
<!-- Node32&#45;&gt;Node34 -->
<g id="edge25" class="edge"><title>Node32&#45;&gt;Node34</title>
<path fill="none" stroke="midnightblue" d="M241.069,-342.417C249.617,-338.904 258.213,-334.21 265,-328 291.103,-304.117 273.036,-278.675 301,-257 329.295,-235.069 430.438,-219.752 484.25,-212.955"/>
<polygon fill="midnightblue" stroke="midnightblue" points="484.85,-216.407 494.346,-211.709 483.992,-209.46 484.85,-216.407"/>
</g>
<!-- Node35 -->
<g id="node24" class="node"><title>Node35</title>
<g id="a_node24"><a xlink:href="glibc__compat_8cpp.html#a0f46826ab0466591e136db24394923cf" target="_top" xlink:title="memcpy">
<polygon fill="white" stroke="black" points="337,-266.5 337,-285.5 391,-285.5 391,-266.5 337,-266.5"/>
<text text-anchor="middle" x="364" y="-273.5" font-family="Helvetica,sans-Serif" font-size="10.00">memcpy</text>
</a>
</g>
</g>
<!-- Node32&#45;&gt;Node35 -->
<g id="edge23" class="edge"><title>Node32&#45;&gt;Node35</title>
<path fill="none" stroke="midnightblue" d="M235.023,-342.429C244.941,-338.64 255.787,-333.792 265,-328 283.376,-316.448 282.16,-305.778 301,-295 309.023,-290.41 318.277,-286.81 327.147,-284.037"/>
<polygon fill="midnightblue" stroke="midnightblue" points="328.257,-287.36 336.912,-281.249 326.335,-280.629 328.257,-287.36"/>
</g>
<!-- Node33&#45;&gt;Node34 -->
<g id="edge22" class="edge"><title>Node33&#45;&gt;Node34</title>
<path fill="none" stroke="midnightblue" d="M427.434,-203.661C446.771,-204.794 467.365,-206.002 484.069,-206.981"/>
<polygon fill="midnightblue" stroke="midnightblue" points="484.244,-210.497 494.431,-207.589 484.653,-203.509 484.244,-210.497"/>
</g>
<!-- Node36 -->
<g id="node25" class="node"><title>Node36</title>
<g id="a_node25"><a xlink:href="glibc__compat_8cpp.html#a9778d49e9029dd75bc53ecbbf9f5e9a1" target="_top" xlink:title="memmove">
<polygon fill="white" stroke="black" points="488.5,-266.5 488.5,-285.5 550.5,-285.5 550.5,-266.5 488.5,-266.5"/>
<text text-anchor="middle" x="519.5" y="-273.5" font-family="Helvetica,sans-Serif" font-size="10.00">memmove</text>
</a>
</g>
</g>
<!-- Node35&#45;&gt;Node36 -->
<g id="edge24" class="edge"><title>Node35&#45;&gt;Node36</title>
<path fill="none" stroke="midnightblue" d="M391.039,-276C414.931,-276 450.689,-276 478.256,-276"/>
<polygon fill="midnightblue" stroke="midnightblue" points="478.378,-279.5 488.378,-276 478.378,-272.5 478.378,-279.5"/>
</g>
<!-- Node39 -->
<g id="node28" class="node"><title>Node39</title>
<g id="a_node28"><a xlink:href="utilstrencodings_8cpp.html#a880a215d9e931432b095084c756a49bb" target="_top" xlink:title="Convert string to signed 32&#45;bit integer with strict parse error feedback. ">
<polygon fill="white" stroke="black" points="332,-114.5 332,-133.5 396,-133.5 396,-114.5 332,-114.5"/>
<text text-anchor="middle" x="364" y="-121.5" font-family="Helvetica,sans-Serif" font-size="10.00">ParseInt32</text>
</a>
</g>
</g>
<!-- Node38&#45;&gt;Node39 -->
<g id="edge28" class="edge"><title>Node38&#45;&gt;Node39</title>
<path fill="none" stroke="midnightblue" d="M244.992,-190.463C251.94,-187.945 258.888,-184.828 265,-181 284.717,-168.651 281.226,-155.257 301,-143 307.381,-139.045 314.645,-135.861 321.899,-133.315"/>
<polygon fill="midnightblue" stroke="midnightblue" points="323.215,-136.57 331.7,-130.226 321.11,-129.893 323.215,-136.57"/>
</g>
<!-- Node40 -->
<g id="node29" class="node"><title>Node40</title>
<g id="a_node29"><a xlink:href="utilstrencodings_8cpp.html#a2dc3da13203c8219cee0c696d11c6490" target="_top" xlink:title="ParsePrechecks">
<polygon fill="white" stroke="black" points="475,-142.5 475,-161.5 564,-161.5 564,-142.5 475,-142.5"/>
<text text-anchor="middle" x="519.5" y="-149.5" font-family="Helvetica,sans-Serif" font-size="10.00">ParsePrechecks</text>
</a>
</g>
</g>
<!-- Node39&#45;&gt;Node40 -->
<g id="edge29" class="edge"><title>Node39&#45;&gt;Node40</title>
<path fill="none" stroke="midnightblue" d="M396.063,-129.666C415.828,-133.271 441.948,-138.036 464.984,-142.238"/>
<polygon fill="midnightblue" stroke="midnightblue" points="464.512,-145.71 474.978,-144.061 465.769,-138.823 464.512,-145.71"/>
</g>
<!-- Node42 -->
<g id="node31" class="node"><title>Node42</title>
<g id="a_node31"><a xlink:href="utilstrencodings_8cpp.html#acb4637787cab6998d4a403d0dcdf51e6" target="_top" xlink:title="Convert string to signed 64&#45;bit integer with strict parse error feedback. ">
<polygon fill="white" stroke="black" points="332,-152.5 332,-171.5 396,-171.5 396,-152.5 332,-152.5"/>
<text text-anchor="middle" x="364" y="-159.5" font-family="Helvetica,sans-Serif" font-size="10.00">ParseInt64</text>
</a>
</g>
</g>
<!-- Node41&#45;&gt;Node42 -->
<g id="edge31" class="edge"><title>Node41&#45;&gt;Node42</title>
<path fill="none" stroke="midnightblue" d="M244.992,-228.463C251.94,-225.945 258.888,-222.828 265,-219 284.717,-206.651 281.226,-193.257 301,-181 307.381,-177.045 314.645,-173.861 321.899,-171.315"/>
<polygon fill="midnightblue" stroke="midnightblue" points="323.215,-174.57 331.7,-168.226 321.11,-167.893 323.215,-174.57"/>
</g>
<!-- Node42&#45;&gt;Node40 -->
<g id="edge32" class="edge"><title>Node42&#45;&gt;Node40</title>
<path fill="none" stroke="midnightblue" d="M396.063,-159.976C415.828,-158.689 441.948,-156.987 464.984,-155.486"/>
<polygon fill="midnightblue" stroke="midnightblue" points="465.227,-158.978 474.978,-154.835 464.772,-151.993 465.227,-158.978"/>
</g>
<!-- Node49&#45;&gt;Node31 -->
<g id="edge50" class="edge"><title>Node49&#45;&gt;Node31</title>
<path fill="none" stroke="midnightblue" d="M240.853,-685.377C265.42,-679.469 298.017,-671.629 323.358,-665.534"/>
<polygon fill="midnightblue" stroke="midnightblue" points="324.474,-668.866 333.378,-663.124 322.837,-662.06 324.474,-668.866"/>
</g>
<!-- Node50 -->
<g id="node39" class="node"><title>Node50</title>
<g id="a_node39"><a xlink:href="server_8cpp.html#a3b599dde3c08498ac796a4ad8109c1d5" target="_top" xlink:title="ParseHashV">
<polygon fill="white" stroke="black" points="328,-722.5 328,-741.5 400,-741.5 400,-722.5 328,-722.5"/>
<text text-anchor="middle" x="364" y="-729.5" font-family="Helvetica,sans-Serif" font-size="10.00">ParseHashV</text>
</a>
</g>
</g>
<!-- Node49&#45;&gt;Node50 -->
<g id="edge43" class="edge"><title>Node49&#45;&gt;Node50</title>
<path fill="none" stroke="midnightblue" d="M240.853,-702.623C263.739,-708.127 293.595,-715.308 318.06,-721.192"/>
<polygon fill="midnightblue" stroke="midnightblue" points="317.292,-724.607 327.834,-723.542 318.929,-717.801 317.292,-724.607"/>
</g>
<!-- Node50&#45;&gt;Node3 -->
<g id="edge44" class="edge"><title>Node50&#45;&gt;Node3</title>
<path fill="none" stroke="midnightblue" d="M400.053,-737.341C409.617,-740.154 419.42,-744.447 427,-751 455.274,-775.445 435.127,-802.1 463,-827 464.759,-828.571 466.653,-830.014 468.645,-831.338"/>
<polygon fill="midnightblue" stroke="midnightblue" points="467.428,-834.663 477.877,-836.417 470.803,-828.53 467.428,-834.663"/>
</g>
<!-- Node50&#45;&gt;Node4 -->
<g id="edge48" class="edge"><title>Node50&#45;&gt;Node4</title>
<path fill="none" stroke="midnightblue" d="M396.351,-722.443C406.514,-718.681 417.586,-713.845 427,-708 445.44,-696.551 444.338,-686.083 463,-675 466.448,-672.952 470.148,-671.085 473.942,-669.391"/>
<polygon fill="midnightblue" stroke="midnightblue" points="475.516,-672.53 483.472,-665.534 472.89,-666.041 475.516,-672.53"/>
</g>
<!-- Node51 -->
<g id="node40" class="node"><title>Node51</title>
<g id="a_node40"><a xlink:href="class_uni_value.html#ab3730236f6f0ecccda0bd4f095b08258" target="_top" xlink:title="UniValue::get_str">
<polygon fill="white" stroke="black" points="473.5,-722.5 473.5,-741.5 565.5,-741.5 565.5,-722.5 473.5,-722.5"/>
<text text-anchor="middle" x="519.5" y="-729.5" font-family="Helvetica,sans-Serif" font-size="10.00">UniValue::get_str</text>
</a>
</g>
</g>
<!-- Node50&#45;&gt;Node51 -->
<g id="edge45" class="edge"><title>Node50&#45;&gt;Node51</title>
<path fill="none" stroke="midnightblue" d="M400.216,-732C418.852,-732 442.163,-732 463.153,-732"/>
<polygon fill="midnightblue" stroke="midnightblue" points="463.24,-735.5 473.24,-732 463.24,-728.5 463.24,-735.5"/>
</g>
<!-- Node52 -->
<g id="node41" class="node"><title>Node52</title>
<g id="a_node41"><a xlink:href="utilstrencodings_8cpp.html#aa4e3553d2b2fe693c106f4296685f75c" target="_top" xlink:title="IsHex">
<polygon fill="white" stroke="black" points="498,-760.5 498,-779.5 541,-779.5 541,-760.5 498,-760.5"/>
<text text-anchor="middle" x="519.5" y="-767.5" font-family="Helvetica,sans-Serif" font-size="10.00">IsHex</text>
</a>
</g>
</g>
<!-- Node50&#45;&gt;Node52 -->
<g id="edge46" class="edge"><title>Node50&#45;&gt;Node52</title>
<path fill="none" stroke="midnightblue" d="M400.216,-740.718C426.666,-747.266 462.534,-756.145 487.816,-762.404"/>
<polygon fill="midnightblue" stroke="midnightblue" points="487.063,-765.823 497.611,-764.829 488.745,-759.028 487.063,-765.823"/>
</g>
<!-- Node54 -->
<g id="node43" class="node"><title>Node54</title>
<g id="a_node43"><a xlink:href="classbase__blob.html#a5ec1f681a2830f4e180fe664c0eb4dd0" target="_top" xlink:title="base_blob::SetHex">
<polygon fill="white" stroke="black" points="469.5,-684.5 469.5,-703.5 569.5,-703.5 569.5,-684.5 469.5,-684.5"/>
<text text-anchor="middle" x="519.5" y="-691.5" font-family="Helvetica,sans-Serif" font-size="10.00">base_blob::SetHex</text>
</a>
</g>
</g>
<!-- Node50&#45;&gt;Node54 -->
<g id="edge49" class="edge"><title>Node50&#45;&gt;Node54</title>
<path fill="none" stroke="midnightblue" d="M400.216,-723.282C420.957,-718.148 447.488,-711.579 470.166,-705.965"/>
<polygon fill="midnightblue" stroke="midnightblue" points="471.083,-709.344 479.949,-703.544 469.401,-702.549 471.083,-709.344"/>
</g>
<!-- Node53 -->
<g id="node42" class="node"><title>Node53</title>
<g id="a_node42"><a xlink:href="utilstrencodings_8cpp.html#aa59e8a8c5a39cb5041f93bb95dd02119" target="_top" xlink:title="HexDigit">
<polygon fill="white" stroke="black" points="612,-779.5 612,-798.5 667,-798.5 667,-779.5 612,-779.5"/>
<text text-anchor="middle" x="639.5" y="-786.5" font-family="Helvetica,sans-Serif" font-size="10.00">HexDigit</text>
</a>
</g>
</g>
<!-- Node52&#45;&gt;Node53 -->
<g id="edge47" class="edge"><title>Node52&#45;&gt;Node53</title>
<path fill="none" stroke="midnightblue" d="M541.054,-773.31C557.81,-776.008 581.895,-779.886 601.927,-783.111"/>
<polygon fill="midnightblue" stroke="midnightblue" points="601.543,-786.594 611.973,-784.729 602.656,-779.683 601.543,-786.594"/>
</g>
<!-- Node55&#45;&gt;Node3 -->
<g id="edge52" class="edge"><title>Node55&#45;&gt;Node3</title>
<path fill="none" stroke="midnightblue" d="M397.575,-776.591C407.485,-779.468 418.101,-783.484 427,-789 446.774,-801.257 443.428,-814.424 463,-827 466.141,-829.018 469.52,-830.848 473.005,-832.502"/>
<polygon fill="midnightblue" stroke="midnightblue" points="471.813,-835.798 482.386,-836.478 474.545,-829.353 471.813,-835.798"/>
</g>
<!-- Node55&#45;&gt;Node4 -->
<g id="edge55" class="edge"><title>Node55&#45;&gt;Node4</title>
<path fill="none" stroke="midnightblue" d="M397.802,-765.295C408.062,-762.507 418.824,-758.068 427,-751 455.274,-726.555 435.127,-699.9 463,-675 464.759,-673.429 466.653,-671.986 468.645,-670.662"/>
<polygon fill="midnightblue" stroke="midnightblue" points="470.803,-673.47 477.877,-665.583 467.428,-667.337 470.803,-673.47"/>
</g>
<!-- Node55&#45;&gt;Node51 -->
<g id="edge53" class="edge"><title>Node55&#45;&gt;Node51</title>
<path fill="none" stroke="midnightblue" d="M397.553,-761.941C418.653,-756.718 446.512,-749.821 470.174,-743.964"/>
<polygon fill="midnightblue" stroke="midnightblue" points="471.16,-747.325 480.025,-741.525 469.477,-740.53 471.16,-747.325"/>
</g>
<!-- Node55&#45;&gt;Node52 -->
<g id="edge54" class="edge"><title>Node55&#45;&gt;Node52</title>
<path fill="none" stroke="midnightblue" d="M397.553,-770C424.161,-770 461.519,-770 487.653,-770"/>
<polygon fill="midnightblue" stroke="midnightblue" points="487.758,-773.5 497.758,-770 487.758,-766.5 487.758,-773.5"/>
</g>
<!-- Node56 -->
<g id="node45" class="node"><title>Node56</title>
<g id="a_node45"><a xlink:href="utilstrencodings_8cpp.html#abea395175fbc4a788ed0f0a41710b8a7" target="_top" xlink:title="ParseHex">
<polygon fill="white" stroke="black" points="489.5,-798.5 489.5,-817.5 549.5,-817.5 549.5,-798.5 489.5,-798.5"/>
<text text-anchor="middle" x="519.5" y="-805.5" font-family="Helvetica,sans-Serif" font-size="10.00">ParseHex</text>
</a>
</g>
</g>
<!-- Node55&#45;&gt;Node56 -->
<g id="edge56" class="edge"><title>Node55&#45;&gt;Node56</title>
<path fill="none" stroke="midnightblue" d="M397.553,-778.059C421.454,-783.976 454.029,-792.04 479.351,-798.308"/>
<polygon fill="midnightblue" stroke="midnightblue" points="478.815,-801.781 489.363,-800.787 480.497,-794.986 478.815,-801.781"/>
</g>
<!-- Node56&#45;&gt;Node53 -->
<g id="edge57" class="edge"><title>Node56&#45;&gt;Node53</title>
<path fill="none" stroke="midnightblue" d="M549.669,-803.303C565.381,-800.773 584.923,-797.627 601.674,-794.93"/>
<polygon fill="midnightblue" stroke="midnightblue" points="602.368,-798.363 611.685,-793.318 601.256,-791.452 602.368,-798.363"/>
</g>
<!-- Node57&#45;&gt;Node4 -->
<g id="edge64" class="edge"><title>Node57&#45;&gt;Node4</title>
<path fill="none" stroke="midnightblue" d="M248.606,-482.817C296.131,-482.506 372.642,-488.246 427,-523 470.323,-550.699 498.545,-607.007 511.06,-636.691"/>
<polygon fill="midnightblue" stroke="midnightblue" points="507.962,-638.365 514.959,-646.32 514.45,-635.738 507.962,-638.365"/>
</g>
<!-- Node57&#45;&gt;Node48 -->
<g id="edge62" class="edge"><title>Node57&#45;&gt;Node48</title>
<path fill="none" stroke="midnightblue" d="M219.665,-494.78C232.041,-503.204 250.075,-515.884 265,-528 281.852,-541.68 282.16,-550.222 301,-561 304.738,-563.138 308.743,-565.062 312.851,-566.787"/>
<polygon fill="midnightblue" stroke="midnightblue" points="311.959,-570.192 322.55,-570.46 314.438,-563.645 311.959,-570.192"/>
</g>
<!-- Node57&#45;&gt;Node58 -->
<g id="edge59" class="edge"><title>Node57&#45;&gt;Node58</title>
<path fill="none" stroke="midnightblue" d="M227.696,-475.425C247.028,-467.412 275.626,-455.894 301,-447 307.135,-444.849 313.658,-442.702 320.081,-440.666"/>
<polygon fill="midnightblue" stroke="midnightblue" points="321.512,-443.887 330.021,-437.574 319.433,-437.202 321.512,-443.887"/>
</g>
<!-- Node59 -->
<g id="node48" class="node"><title>Node59</title>
<g id="a_node48"><a xlink:href="class_uni_value.html#a5b33bfd4be1574e610eee5a7cdae77d1" target="_top" xlink:title="UniValue::type">
<polygon fill="white" stroke="black" points="323.5,-456.5 323.5,-475.5 404.5,-475.5 404.5,-456.5 323.5,-456.5"/>
<text text-anchor="middle" x="364" y="-463.5" font-family="Helvetica,sans-Serif" font-size="10.00">UniValue::type</text>
</a>
</g>
</g>
<!-- Node57&#45;&gt;Node59 -->
<g id="edge60" class="edge"><title>Node57&#45;&gt;Node59</title>
<path fill="none" stroke="midnightblue" d="M248.592,-479.758C268.596,-477.352 292.419,-474.488 313.134,-471.997"/>
<polygon fill="midnightblue" stroke="midnightblue" points="313.823,-475.439 323.334,-470.77 312.987,-468.489 313.823,-475.439"/>
</g>
<!-- Node61 -->
<g id="node50" class="node"><title>Node61</title>
<g id="a_node50"><a xlink:href="univalue_8h.html#aa037153cdbc98dd3683ff1918dc70932" target="_top" xlink:title="uvTypeName">
<polygon fill="white" stroke="black" points="326.5,-532.5 326.5,-551.5 401.5,-551.5 401.5,-532.5 326.5,-532.5"/>
<text text-anchor="middle" x="364" y="-539.5" font-family="Helvetica,sans-Serif" font-size="10.00">uvTypeName</text>
</a>
</g>
</g>
<!-- Node57&#45;&gt;Node61 -->
<g id="edge63" class="edge"><title>Node57&#45;&gt;Node61</title>
<path fill="none" stroke="midnightblue" d="M231.446,-494.541C257.535,-503.953 297.621,-518.414 326.687,-528.9"/>
<polygon fill="midnightblue" stroke="midnightblue" points="325.874,-532.327 336.468,-532.428 328.249,-525.742 325.874,-532.327"/>
</g>
<!-- Node60 -->
<g id="node49" class="node"><title>Node60</title>
<g id="a_node49"><a xlink:href="class_uni_value.html#a2dbc9c5aa9d209338b0bef650f3d1987" target="_top" xlink:title="UniValue::getType">
<polygon fill="white" stroke="black" points="470.5,-456.5 470.5,-475.5 568.5,-475.5 568.5,-456.5 470.5,-456.5"/>
<text text-anchor="middle" x="519.5" y="-463.5" font-family="Helvetica,sans-Serif" font-size="10.00">UniValue::getType</text>
</a>
</g>
</g>
<!-- Node59&#45;&gt;Node60 -->
<g id="edge61" class="edge"><title>Node59&#45;&gt;Node60</title>
<path fill="none" stroke="midnightblue" d="M404.53,-466C421.469,-466 441.599,-466 460.194,-466"/>
<polygon fill="midnightblue" stroke="midnightblue" points="460.336,-469.5 470.336,-466 460.336,-462.5 460.336,-469.5"/>
</g>
</g>
</svg>
