<?xml version="1.0" encoding="UTF-8" standalone="no"?>
<!DOCTYPE svg PUBLIC "-//W3C//DTD SVG 1.1//EN"
 "http://www.w3.org/Graphics/SVG/1.1/DTD/svg11.dtd">
<!-- Generated by graphviz version 2.38.0 (20140413.2041)
 -->
<!-- Title: SignalsOptInRBF Pages: 1 -->
<!--zoomable 104 -->
<svg id="main" version="1.1" xmlns="http://www.w3.org/2000/svg" xmlns:xlink="http://www.w3.org/1999/xlink" xml:space="preserve" onload="init(evt)">
<style type="text/css"><![CDATA[
.edge:hover path { stroke: red; }
.edge:hover polygon { stroke: red; fill: red; }
]]></style>
<script type="text/javascript"><![CDATA[
var edges = document.getElementsByTagName('g');
if (edges && edges.length) {
  for (var i=0;i<edges.length;i++) {
    if (edges[i].id.substr(0,4)=='edge') {
      edges[i].setAttribute('class','edge');
    }
  }
}
]]></script>
        <defs>
                <circle id="rim" cx="0" cy="0" r="7"/>
                <circle id="rim2" cx="0" cy="0" r="3.5"/>
                <g id="zoomPlus">
                        <use xlink:href="#rim" fill="#404040">
                                <set attributeName="fill" to="#808080" begin="zoomplus.mouseover" end="zoomplus.mouseout"/>
                        </use>
                        <path d="M-4,0h8M0,-4v8" fill="none" stroke="white" stroke-width="1.5" pointer-events="none"/>
                </g>
                <g id="zoomMin">
                        <use xlink:href="#rim" fill="#404040">
                                <set attributeName="fill" to="#808080" begin="zoomminus.mouseover" end="zoomminus.mouseout"/>
                        </use>
                        <path d="M-4,0h8" fill="none" stroke="white" stroke-width="1.5" pointer-events="none"/>
                </g>
                <g id="dirArrow">
                        <path fill="none" stroke="white" stroke-width="1.5" d="M0,-3.0v7 M-2.5,-0.5L0,-3.0L2.5,-0.5"/>
                </g>
               <g id="resetDef">
                       <use xlink:href="#rim2" fill="#404040">
                               <set attributeName="fill" to="#808080" begin="reset.mouseover" end="reset.mouseout"/>
                       </use>
               </g>
        </defs>

<script type="text/javascript">
var viewWidth = 580;
var viewHeight = 104;
var sectionId = 'dynsection-4';
</script>
<script xlink:href="svgpan.js"/>
<svg id="graph" class="graph">
<g id="viewport">
<title>SignalsOptInRBF</title>
<polygon fill="white" stroke="none" points="-4,4 -4,-100 576,-100 576,4 -4,4"/>
<!-- Node15 -->
<g id="node1" class="node"><title>Node15</title>
<polygon fill="#bfbfbf" stroke="black" points="0,-19.5 0,-38.5 93,-38.5 93,-19.5 0,-19.5"/>
<text text-anchor="middle" x="46.5" y="-26.5" font-family="Helvetica,sans-Serif" font-size="10.00">SignalsOptInRBF</text>
</g>
<!-- Node16 -->
<g id="node2" class="node"><title>Node16</title>
<g id="a_node2"><a xlink:href="rbf_8h.html#ad58f52df4182b1368d277a98838d74e3" target="_top" xlink:title="IsRBFOptIn">
<polygon fill="white" stroke="black" points="129,-38.5 129,-57.5 198,-57.5 198,-38.5 129,-38.5"/>
<text text-anchor="middle" x="163.5" y="-45.5" font-family="Helvetica,sans-Serif" font-size="10.00">IsRBFOptIn</text>
</a>
</g>
</g>
<!-- Node15&#45;&gt;Node16 -->
<g id="edge1" class="edge"><title>Node15&#45;&gt;Node16</title>
<path fill="none" stroke="midnightblue" d="M103.157,-38.1955C111.964,-39.6506 120.829,-41.1153 128.924,-42.4527"/>
<polygon fill="midnightblue" stroke="midnightblue" points="103.718,-34.7409 93.2815,-36.5639 102.577,-41.6472 103.718,-34.7409"/>
</g>
<!-- Node17 -->
<g id="node3" class="node"><title>Node17</title>
<g id="a_node3"><a xlink:href="rpcwallet_8cpp.html#a7050d2b7e907f8148f13878e8dcea550" target="_top" xlink:title="WalletTxToJSON">
<polygon fill="white" stroke="black" points="234,-19.5 234,-38.5 328,-38.5 328,-19.5 234,-19.5"/>
<text text-anchor="middle" x="281" y="-26.5" font-family="Helvetica,sans-Serif" font-size="10.00">WalletTxToJSON</text>
</a>
</g>
</g>
<!-- Node15&#45;&gt;Node17 -->
<g id="edge8" class="edge"><title>Node15&#45;&gt;Node17</title>
<path fill="none" stroke="midnightblue" d="M103.247,-29C143.103,-29 196.112,-29 233.652,-29"/>
<polygon fill="midnightblue" stroke="midnightblue" points="103.157,-25.5001 93.1571,-29 103.157,-32.5001 103.157,-25.5001"/>
</g>
<!-- Node16&#45;&gt;Node17 -->
<g id="edge2" class="edge"><title>Node16&#45;&gt;Node17</title>
<path fill="none" stroke="midnightblue" d="M208.111,-40.8259C216.432,-39.457 225.171,-38.0195 233.577,-36.6367"/>
<polygon fill="midnightblue" stroke="midnightblue" points="207.517,-37.3765 198.218,-42.4533 208.653,-44.2836 207.517,-37.3765"/>
</g>
<!-- Node18 -->
<g id="node4" class="node"><title>Node18</title>
<g id="a_node4"><a xlink:href="rpcwallet_8cpp.html#a447dca7ee91980470c66526c2ef7ce22" target="_top" xlink:title="ListTransactions">
<polygon fill="white" stroke="black" points="364,-38.5 364,-57.5 453,-57.5 453,-38.5 364,-38.5"/>
<text text-anchor="middle" x="408.5" y="-45.5" font-family="Helvetica,sans-Serif" font-size="10.00">ListTransactions</text>
</a>
</g>
</g>
<!-- Node17&#45;&gt;Node18 -->
<g id="edge3" class="edge"><title>Node17&#45;&gt;Node18</title>
<path fill="none" stroke="midnightblue" d="M338.095,-37.4925C346.781,-38.8074 355.638,-40.1484 363.991,-41.413"/>
<polygon fill="midnightblue" stroke="midnightblue" points="338.43,-34.0034 328.019,-35.967 337.382,-40.9245 338.43,-34.0034"/>
</g>
<!-- Node21 -->
<g id="node7" class="node"><title>Node21</title>
<g id="a_node7"><a xlink:href="rpcwallet_8cpp.html#a0eb27b54e47a747381313eda4f2adc53" target="_top" xlink:title="gettransaction">
<polygon fill="white" stroke="black" points="491.5,-0.5 491.5,-19.5 569.5,-19.5 569.5,-0.5 491.5,-0.5"/>
<text text-anchor="middle" x="530.5" y="-7.5" font-family="Helvetica,sans-Serif" font-size="10.00">gettransaction</text>
</a>
</g>
</g>
<!-- Node17&#45;&gt;Node21 -->
<g id="edge7" class="edge"><title>Node17&#45;&gt;Node21</title>
<path fill="none" stroke="midnightblue" d="M338.236,-24.6829C384.983,-21.0943 450.251,-16.0838 491.176,-12.942"/>
<polygon fill="midnightblue" stroke="midnightblue" points="337.965,-21.1933 328.263,-25.4485 338.501,-28.1727 337.965,-21.1933"/>
</g>
<!-- Node19 -->
<g id="node5" class="node"><title>Node19</title>
<g id="a_node5"><a xlink:href="rpcwallet_8cpp.html#a91cfa30b65b1e277b212689b4c2df396" target="_top" xlink:title="listtransactions">
<polygon fill="white" stroke="black" points="489,-76.5 489,-95.5 572,-95.5 572,-76.5 489,-76.5"/>
<text text-anchor="middle" x="530.5" y="-83.5" font-family="Helvetica,sans-Serif" font-size="10.00">listtransactions</text>
</a>
</g>
</g>
<!-- Node18&#45;&gt;Node19 -->
<g id="edge4" class="edge"><title>Node18&#45;&gt;Node19</title>
<path fill="none" stroke="midnightblue" d="M449.543,-60.6804C465.757,-65.8148 484.166,-71.6441 499.229,-76.4141"/>
<polygon fill="midnightblue" stroke="midnightblue" points="450.371,-57.2713 439.781,-57.589 448.258,-63.9447 450.371,-57.2713"/>
</g>
<!-- Node20 -->
<g id="node6" class="node"><title>Node20</title>
<g id="a_node6"><a xlink:href="rpcwallet_8cpp.html#a8cd2e69314a540d77b79ee5ae37344f2" target="_top" xlink:title="listsinceblock">
<polygon fill="white" stroke="black" points="492.5,-38.5 492.5,-57.5 568.5,-57.5 568.5,-38.5 492.5,-38.5"/>
<text text-anchor="middle" x="530.5" y="-45.5" font-family="Helvetica,sans-Serif" font-size="10.00">listsinceblock</text>
</a>
</g>
</g>
<!-- Node18&#45;&gt;Node20 -->
<g id="edge5" class="edge"><title>Node18&#45;&gt;Node20</title>
<path fill="none" stroke="midnightblue" d="M463.285,-48C473.12,-48 483.181,-48 492.394,-48"/>
<polygon fill="midnightblue" stroke="midnightblue" points="463.162,-44.5001 453.162,-48 463.162,-51.5001 463.162,-44.5001"/>
</g>
<!-- Node18&#45;&gt;Node21 -->
<g id="edge6" class="edge"><title>Node18&#45;&gt;Node21</title>
<path fill="none" stroke="midnightblue" d="M449.543,-35.3196C465.757,-30.1852 484.166,-24.3559 499.229,-19.5859"/>
<polygon fill="midnightblue" stroke="midnightblue" points="448.258,-32.0553 439.781,-38.411 450.371,-38.7287 448.258,-32.0553"/>
</g>
</g>
</svg>
        <g id="navigator" transform="translate(0 0)" fill="#404254">
                <rect fill="#f2f5e9" fill-opacity="0.5" stroke="#606060" stroke-width=".5" x="0" y="0" width="60" height="60"/>
                <use id="zoomplus" xlink:href="#zoomPlus" x="17" y="9" onmousedown="handleZoom(evt,'in')"/>
                <use id="zoomminus" xlink:href="#zoomMin" x="42" y="9" onmousedown="handleZoom(evt,'out')"/>
                <use id="reset" xlink:href="#resetDef" x="30" y="36" onmousedown="handleReset()"/>
                <g id="arrowUp" xlink:href="#dirArrow" transform="translate(30 24)" onmousedown="handlePan(0,-1)">
                  <use xlink:href="#rim" fill="#404040">
                        <set attributeName="fill" to="#808080" begin="arrowUp.mouseover" end="arrowUp.mouseout"/>
                  </use>
                  <path fill="none" stroke="white" stroke-width="1.5" d="M0,-3.0v7 M-2.5,-0.5L0,-3.0L2.5,-0.5"/>
                </g>
                <g id="arrowRight" xlink:href="#dirArrow" transform="rotate(90) translate(36 -43)" onmousedown="handlePan(1,0)">
                  <use xlink:href="#rim" fill="#404040">
                        <set attributeName="fill" to="#808080" begin="arrowRight.mouseover" end="arrowRight.mouseout"/>
                  </use>
                  <path fill="none" stroke="white" stroke-width="1.5" d="M0,-3.0v7 M-2.5,-0.5L0,-3.0L2.5,-0.5"/>
                </g>
                <g id="arrowDown" xlink:href="#dirArrow" transform="rotate(180) translate(-30 -48)" onmousedown="handlePan(0,1)">
                  <use xlink:href="#rim" fill="#404040">
                        <set attributeName="fill" to="#808080" begin="arrowDown.mouseover" end="arrowDown.mouseout"/>
                  </use>
                  <path fill="none" stroke="white" stroke-width="1.5" d="M0,-3.0v7 M-2.5,-0.5L0,-3.0L2.5,-0.5"/>
                </g>
                <g id="arrowLeft" xlink:href="#dirArrow" transform="rotate(270) translate(-36 17)" onmousedown="handlePan(-1,0)">
                  <use xlink:href="#rim" fill="#404040">
                        <set attributeName="fill" to="#808080" begin="arrowLeft.mouseover" end="arrowLeft.mouseout"/>
                  </use>
                  <path fill="none" stroke="white" stroke-width="1.5" d="M0,-3.0v7 M-2.5,-0.5L0,-3.0L2.5,-0.5"/>
                </g>
        </g>
        <svg viewBox="0 0 15 15" width="100%" height="30px" preserveAspectRatio="xMaxYMin meet">
         <g id="arrow_out" transform="scale(0.3 0.3)">
          <a xlink:href="rbf_8h_a65695ad9c85ce6b262f53aa40e254fd0_icgraph_org.svg" target="_base">
           <rect id="button" ry="5" rx="5" y="6" x="6" height="38" width="38"
                fill="#f2f5e9" fill-opacity="0.5" stroke="#606060" stroke-width="1.0"/>
           <path id="arrow"
             d="M 11.500037,31.436501 C 11.940474,20.09759 22.043105,11.32322 32.158766,21.979434 L 37.068811,17.246167 C 37.068811,17.246167 37.088388,32 37.088388,32 L 22.160133,31.978069 C 22.160133,31.978069 26.997745,27.140456 26.997745,27.140456 C 18.528582,18.264221 13.291696,25.230495 11.500037,31.436501 z"
             style="fill:#404040;"/>
          </a>
         </g>
        </svg>
</svg>
