<?xml version="1.0" encoding="UTF-8" standalone="no"?>
<!DOCTYPE svg PUBLIC "-//W3C//DTD SVG 1.1//EN"
 "http://www.w3.org/Graphics/SVG/1.1/DTD/svg11.dtd">
<!-- Generated by graphviz version 2.38.0 (20140413.2041)
 -->
<!-- Title: src/immer/detail/rbts/node.hpp Pages: 1 -->
<svg width="609pt" height="240pt"
 viewBox="0.00 0.00 608.50 240.00" xmlns="http://www.w3.org/2000/svg" xmlns:xlink="http://www.w3.org/1999/xlink">
<g id="graph0" class="graph" transform="scale(1 1) rotate(0) translate(4 236)">
<title>src/immer/detail/rbts/node.hpp</title>
<polygon fill="white" stroke="none" points="-4,4 -4,-236 604.5,-236 604.5,4 -4,4"/>
<!-- Node16 -->
<g id="node1" class="node"><title>Node16</title>
<polygon fill="#bfbfbf" stroke="black" points="263.5,-201.5 263.5,-231.5 379.5,-231.5 379.5,-201.5 263.5,-201.5"/>
<text text-anchor="start" x="271.5" y="-219.5" font-family="Helvetica,sans-Serif" font-size="10.00">src/immer/detail/rbts</text>
<text text-anchor="middle" x="321.5" y="-208.5" font-family="Helvetica,sans-Serif" font-size="10.00">/node.hpp</text>
</g>
<!-- Node17 -->
<g id="node2" class="node"><title>Node17</title>
<g id="a_node2"><a xlink:href="rbtree_8hpp.html" target="_top" xlink:title="src/immer/detail/rbts\l/rbtree.hpp">
<polygon fill="white" stroke="black" points="130.5,-134.5 130.5,-164.5 246.5,-164.5 246.5,-134.5 130.5,-134.5"/>
<text text-anchor="start" x="138.5" y="-152.5" font-family="Helvetica,sans-Serif" font-size="10.00">src/immer/detail/rbts</text>
<text text-anchor="middle" x="188.5" y="-141.5" font-family="Helvetica,sans-Serif" font-size="10.00">/rbtree.hpp</text>
</a>
</g>
</g>
<!-- Node16&#45;&gt;Node17 -->
<g id="edge1" class="edge"><title>Node16&#45;&gt;Node17</title>
<path fill="none" stroke="midnightblue" d="M283.63,-196.992C262.549,-186.689 236.723,-174.068 217.303,-164.577"/>
<polygon fill="midnightblue" stroke="midnightblue" points="282.12,-200.15 292.641,-201.396 285.193,-193.86 282.12,-200.15"/>
</g>
<!-- Node21 -->
<g id="node6" class="node"><title>Node21</title>
<g id="a_node6"><a xlink:href="rrbtree_8hpp.html" target="_top" xlink:title="src/immer/detail/rbts\l/rrbtree.hpp">
<polygon fill="white" stroke="black" points="353.5,-134.5 353.5,-164.5 469.5,-164.5 469.5,-134.5 353.5,-134.5"/>
<text text-anchor="start" x="361.5" y="-152.5" font-family="Helvetica,sans-Serif" font-size="10.00">src/immer/detail/rbts</text>
<text text-anchor="middle" x="411.5" y="-141.5" font-family="Helvetica,sans-Serif" font-size="10.00">/rrbtree.hpp</text>
</a>
</g>
</g>
<!-- Node16&#45;&gt;Node21 -->
<g id="edge7" class="edge"><title>Node16&#45;&gt;Node21</title>
<path fill="none" stroke="midnightblue" d="M349.26,-195.451C363.105,-185.452 379.516,-173.6 392.009,-164.577"/>
<polygon fill="midnightblue" stroke="midnightblue" points="347.086,-192.704 341.029,-201.396 351.185,-198.378 347.086,-192.704"/>
</g>
<!-- Node18 -->
<g id="node3" class="node"><title>Node18</title>
<g id="a_node3"><a xlink:href="rbtree__iterator_8hpp.html" target="_top" xlink:title="src/immer/detail/rbts\l/rbtree_iterator.hpp">
<polygon fill="white" stroke="black" points="87.5,-67.5 87.5,-97.5 203.5,-97.5 203.5,-67.5 87.5,-67.5"/>
<text text-anchor="start" x="95.5" y="-85.5" font-family="Helvetica,sans-Serif" font-size="10.00">src/immer/detail/rbts</text>
<text text-anchor="middle" x="145.5" y="-74.5" font-family="Helvetica,sans-Serif" font-size="10.00">/rbtree_iterator.hpp</text>
</a>
</g>
</g>
<!-- Node17&#45;&gt;Node18 -->
<g id="edge2" class="edge"><title>Node17&#45;&gt;Node18</title>
<path fill="none" stroke="midnightblue" d="M173.527,-125.867C167.304,-116.459 160.274,-105.833 154.812,-97.5765"/>
<polygon fill="midnightblue" stroke="midnightblue" points="170.733,-127.987 179.17,-134.396 176.571,-124.125 170.733,-127.987"/>
</g>
<!-- Node19 -->
<g id="node4" class="node"><title>Node19</title>
<g id="a_node4"><a xlink:href="vector_8hpp.html" target="_top" xlink:title="src/immer/vector.hpp">
<polygon fill="white" stroke="black" points="0,-6 0,-25 119,-25 119,-6 0,-6"/>
<text text-anchor="middle" x="59.5" y="-13" font-family="Helvetica,sans-Serif" font-size="10.00">src/immer/vector.hpp</text>
</a>
</g>
</g>
<!-- Node17&#45;&gt;Node19 -->
<g id="edge5" class="edge"><title>Node17&#45;&gt;Node19</title>
<path fill="none" stroke="midnightblue" d="M124.251,-130.565C107.233,-123.008 90.3304,-112.489 78.5,-98 60.8575,-76.3926 58.9912,-41.3525 59.1608,-25.183"/>
<polygon fill="midnightblue" stroke="midnightblue" points="123.107,-133.88 133.685,-134.466 125.781,-127.411 123.107,-133.88"/>
</g>
<!-- Node20 -->
<g id="node5" class="node"><title>Node20</title>
<g id="a_node5"><a xlink:href="vector__transient_8hpp.html" target="_top" xlink:title="src/immer/vector_transient.hpp">
<polygon fill="white" stroke="black" points="137,-6 137,-25 304,-25 304,-6 137,-6"/>
<text text-anchor="middle" x="220.5" y="-13" font-family="Helvetica,sans-Serif" font-size="10.00">src/immer/vector_transient.hpp</text>
</a>
</g>
</g>
<!-- Node17&#45;&gt;Node20 -->
<g id="edge6" class="edge"><title>Node17&#45;&gt;Node20</title>
<path fill="none" stroke="midnightblue" d="M201.585,-125.312C205.742,-116.947 209.925,-107.277 212.5,-98 219.649,-72.2452 220.612,-40.3642 220.62,-25.2447"/>
<polygon fill="midnightblue" stroke="midnightblue" points="198.348,-123.947 196.813,-134.43 204.551,-127.193 198.348,-123.947"/>
</g>
<!-- Node18&#45;&gt;Node19 -->
<g id="edge3" class="edge"><title>Node18&#45;&gt;Node19</title>
<path fill="none" stroke="midnightblue" d="M118.83,-61.3425C102.781,-49.2128 83.1685,-34.389 71.0035,-25.1945"/>
<polygon fill="midnightblue" stroke="midnightblue" points="116.751,-64.1585 126.839,-67.396 120.972,-58.5741 116.751,-64.1585"/>
</g>
<!-- Node18&#45;&gt;Node20 -->
<g id="edge4" class="edge"><title>Node18&#45;&gt;Node20</title>
<path fill="none" stroke="midnightblue" d="M169.532,-60.6722C183.38,-48.6707 200.054,-34.2203 210.468,-25.1945"/>
<polygon fill="midnightblue" stroke="midnightblue" points="167.039,-58.2017 161.774,-67.396 171.623,-63.4915 167.039,-58.2017"/>
</g>
<!-- Node22 -->
<g id="node7" class="node"><title>Node22</title>
<g id="a_node7"><a xlink:href="rrbtree__iterator_8hpp.html" target="_top" xlink:title="src/immer/detail/rbts\l/rrbtree_iterator.hpp">
<polygon fill="white" stroke="black" points="396.5,-67.5 396.5,-97.5 512.5,-97.5 512.5,-67.5 396.5,-67.5"/>
<text text-anchor="start" x="404.5" y="-85.5" font-family="Helvetica,sans-Serif" font-size="10.00">src/immer/detail/rbts</text>
<text text-anchor="middle" x="454.5" y="-74.5" font-family="Helvetica,sans-Serif" font-size="10.00">/rrbtree_iterator.hpp</text>
</a>
</g>
</g>
<!-- Node21&#45;&gt;Node22 -->
<g id="edge8" class="edge"><title>Node21&#45;&gt;Node22</title>
<path fill="none" stroke="midnightblue" d="M426.473,-125.867C432.696,-116.459 439.726,-105.833 445.188,-97.5765"/>
<polygon fill="midnightblue" stroke="midnightblue" points="423.429,-124.125 420.83,-134.396 429.267,-127.987 423.429,-124.125"/>
</g>
<!-- Node23 -->
<g id="node8" class="node"><title>Node23</title>
<g id="a_node8"><a xlink:href="flex__vector_8hpp.html" target="_top" xlink:title="src/immer/flex_vector.hpp">
<polygon fill="white" stroke="black" points="322.5,-6 322.5,-25 462.5,-25 462.5,-6 322.5,-6"/>
<text text-anchor="middle" x="392.5" y="-13" font-family="Helvetica,sans-Serif" font-size="10.00">src/immer/flex_vector.hpp</text>
</a>
</g>
</g>
<!-- Node21&#45;&gt;Node23 -->
<g id="edge11" class="edge"><title>Node21&#45;&gt;Node23</title>
<path fill="none" stroke="midnightblue" d="M397.718,-125.077C393.58,-116.807 389.588,-107.256 387.5,-98 381.637,-72.0023 387.082,-40.2352 390.388,-25.1933"/>
<polygon fill="midnightblue" stroke="midnightblue" points="394.74,-126.93 402.538,-134.103 400.915,-123.633 394.74,-126.93"/>
</g>
<!-- Node24 -->
<g id="node9" class="node"><title>Node24</title>
<g id="a_node9"><a xlink:href="flex__vector__transient_8hpp.html" target="_top" xlink:title="src/immer/flex_vector\l_transient.hpp">
<polygon fill="white" stroke="black" points="480.5,-0.5 480.5,-30.5 600.5,-30.5 600.5,-0.5 480.5,-0.5"/>
<text text-anchor="start" x="488.5" y="-18.5" font-family="Helvetica,sans-Serif" font-size="10.00">src/immer/flex_vector</text>
<text text-anchor="middle" x="540.5" y="-7.5" font-family="Helvetica,sans-Serif" font-size="10.00">_transient.hpp</text>
</a>
</g>
</g>
<!-- Node21&#45;&gt;Node24 -->
<g id="edge12" class="edge"><title>Node21&#45;&gt;Node24</title>
<path fill="none" stroke="midnightblue" d="M475.749,-130.565C492.767,-123.008 509.67,-112.489 521.5,-98 537.397,-78.5308 540.485,-48.156 540.816,-30.5064"/>
<polygon fill="midnightblue" stroke="midnightblue" points="474.219,-127.411 466.315,-134.466 476.893,-133.88 474.219,-127.411"/>
</g>
<!-- Node22&#45;&gt;Node23 -->
<g id="edge9" class="edge"><title>Node22&#45;&gt;Node23</title>
<path fill="none" stroke="midnightblue" d="M433.989,-59.9967C422.672,-48.1323 409.241,-34.0516 400.793,-25.1945"/>
<polygon fill="midnightblue" stroke="midnightblue" points="431.612,-62.5756 441.047,-67.396 436.677,-57.7441 431.612,-62.5756"/>
</g>
<!-- Node22&#45;&gt;Node24 -->
<g id="edge10" class="edge"><title>Node22&#45;&gt;Node24</title>
<path fill="none" stroke="midnightblue" d="M481.401,-61.1677C494.552,-51.2283 510.05,-39.5144 521.876,-30.5765"/>
<polygon fill="midnightblue" stroke="midnightblue" points="479.028,-58.5741 473.161,-67.396 483.249,-64.1585 479.028,-58.5741"/>
</g>
</g>
</svg>
