<?xml version="1.0" encoding="UTF-8" standalone="no"?>
<!DOCTYPE svg PUBLIC "-//W3C//DTD SVG 1.1//EN"
 "http://www.w3.org/Graphics/SVG/1.1/DTD/svg11.dtd">
<!-- Generated by graphviz version 2.38.0 (20140413.2041)
 -->
<!-- Title: listreceivedbyaddress Pages: 1 -->
<svg width="959pt" height="887pt"
 viewBox="0.00 0.00 959.00 886.50" xmlns="http://www.w3.org/2000/svg" xmlns:xlink="http://www.w3.org/1999/xlink">
<g id="graph0" class="graph" transform="scale(1 1) rotate(0) translate(4 882.5)">
<title>listreceivedbyaddress</title>
<polygon fill="white" stroke="none" points="-4,4 -4,-882.5 955,-882.5 955,4 -4,4"/>
<!-- Node2502 -->
<g id="node1" class="node"><title>Node2502</title>
<polygon fill="#bfbfbf" stroke="black" points="0,-227.5 0,-246.5 111,-246.5 111,-227.5 0,-227.5"/>
<text text-anchor="middle" x="55.5" y="-234.5" font-family="Helvetica,sans-Serif" font-size="10.00">listreceivedbyaddress</text>
</g>
<!-- Node2503 -->
<g id="node2" class="node"><title>Node2503</title>
<g id="a_node2"><a xlink:href="rpcwallet_8cpp.html#ac9a5dd7d31080f8d2551dce06d3be0e1" target="_top" xlink:title="EnsureWalletIsAvailable">
<polygon fill="white" stroke="black" points="147,-527.5 147,-546.5 270,-546.5 270,-527.5 147,-527.5"/>
<text text-anchor="middle" x="208.5" y="-534.5" font-family="Helvetica,sans-Serif" font-size="10.00">EnsureWalletIsAvailable</text>
</a>
</g>
</g>
<!-- Node2502&#45;&gt;Node2503 -->
<g id="edge1" class="edge"><title>Node2502&#45;&gt;Node2503</title>
<path fill="none" stroke="midnightblue" d="M61.353,-246.642C82.7825,-289.217 169.145,-460.798 198.034,-518.193"/>
<polygon fill="midnightblue" stroke="midnightblue" points="194.967,-519.885 202.589,-527.243 201.219,-516.737 194.967,-519.885"/>
</g>
<!-- Node2523 -->
<g id="node8" class="node"><title>Node2523</title>
<g id="a_node8"><a xlink:href="server_8cpp.html#a26bafe3d526ee8cbc84b3c0b0dc3a43b" target="_top" xlink:title="HelpExampleCli">
<polygon fill="white" stroke="black" points="165,-189.5 165,-208.5 252,-208.5 252,-189.5 165,-189.5"/>
<text text-anchor="middle" x="208.5" y="-196.5" font-family="Helvetica,sans-Serif" font-size="10.00">HelpExampleCli</text>
</a>
</g>
</g>
<!-- Node2502&#45;&gt;Node2523 -->
<g id="edge7" class="edge"><title>Node2502&#45;&gt;Node2523</title>
<path fill="none" stroke="midnightblue" d="M94.6037,-227.411C114.44,-222.419 138.884,-216.268 159.948,-210.967"/>
<polygon fill="midnightblue" stroke="midnightblue" points="160.827,-214.355 169.67,-208.52 159.118,-207.566 160.827,-214.355"/>
</g>
<!-- Node2524 -->
<g id="node9" class="node"><title>Node2524</title>
<g id="a_node9"><a xlink:href="server_8cpp.html#a9ef4f8fb114508ceb861a0e8c3e0d26e" target="_top" xlink:title="HelpExampleRpc">
<polygon fill="white" stroke="black" points="162,-151.5 162,-170.5 255,-170.5 255,-151.5 162,-151.5"/>
<text text-anchor="middle" x="208.5" y="-158.5" font-family="Helvetica,sans-Serif" font-size="10.00">HelpExampleRpc</text>
</a>
</g>
</g>
<!-- Node2502&#45;&gt;Node2524 -->
<g id="edge8" class="edge"><title>Node2502&#45;&gt;Node2524</title>
<path fill="none" stroke="midnightblue" d="M69.3813,-227.376C86.405,-215.021 117.675,-193.562 147,-180 151.75,-177.803 156.821,-175.768 161.931,-173.908"/>
<polygon fill="midnightblue" stroke="midnightblue" points="163.403,-177.104 171.731,-170.555 161.137,-170.481 163.403,-177.104"/>
</g>
<!-- Node2525 -->
<g id="node10" class="node"><title>Node2525</title>
<g id="a_node10"><a xlink:href="rpcwallet_8cpp.html#aefd4d50a614de931b7d82712676ac9a5" target="_top" xlink:title="ListReceived">
<polygon fill="white" stroke="black" points="171.5,-265.5 171.5,-284.5 245.5,-284.5 245.5,-265.5 171.5,-265.5"/>
<text text-anchor="middle" x="208.5" y="-272.5" font-family="Helvetica,sans-Serif" font-size="10.00">ListReceived</text>
</a>
</g>
</g>
<!-- Node2502&#45;&gt;Node2525 -->
<g id="edge9" class="edge"><title>Node2502&#45;&gt;Node2525</title>
<path fill="none" stroke="midnightblue" d="M94.6037,-246.589C114.968,-251.714 140.188,-258.061 161.623,-263.455"/>
<polygon fill="midnightblue" stroke="midnightblue" points="160.936,-266.891 171.488,-265.937 162.644,-260.103 160.936,-266.891"/>
</g>
<!-- Node2596 -->
<g id="node47" class="node"><title>Node2596</title>
<g id="a_node47"><a xlink:href="class_uni_value.html#a5a7394aeb8d5584db7a90c2c041726b1" target="_top" xlink:title="UniValue::size">
<polygon fill="white" stroke="black" points="337,-0.5 337,-19.5 417,-19.5 417,-0.5 337,-0.5"/>
<text text-anchor="middle" x="377" y="-7.5" font-family="Helvetica,sans-Serif" font-size="10.00">UniValue::size</text>
</a>
</g>
</g>
<!-- Node2502&#45;&gt;Node2596 -->
<g id="edge56" class="edge"><title>Node2502&#45;&gt;Node2596</title>
<path fill="none" stroke="midnightblue" d="M97.5594,-246.531C145.265,-254.966 223.375,-260.204 270,-218 333.396,-160.616 247.902,-91.7422 306,-29 311.657,-22.891 319.061,-18.6702 326.932,-15.7698"/>
<polygon fill="midnightblue" stroke="midnightblue" points="328.105,-19.0721 336.68,-12.8485 326.096,-12.3667 328.105,-19.0721"/>
</g>
<!-- Node2504 -->
<g id="node3" class="node"><title>Node2504</title>
<g id="a_node3"><a xlink:href="rpc_2protocol_8cpp.html#a41a2234c99900304357a44796b2259d5" target="_top" xlink:title="JSONRPCError">
<polygon fill="white" stroke="black" points="334,-771.5 334,-790.5 420,-790.5 420,-771.5 334,-771.5"/>
<text text-anchor="middle" x="377" y="-778.5" font-family="Helvetica,sans-Serif" font-size="10.00">JSONRPCError</text>
</a>
</g>
</g>
<!-- Node2503&#45;&gt;Node2504 -->
<g id="edge2" class="edge"><title>Node2503&#45;&gt;Node2504</title>
<path fill="none" stroke="midnightblue" d="M213.229,-546.8C224.372,-575.319 259.554,-659.979 306,-719 320.015,-736.81 339.561,-753.633 354.438,-765.249"/>
<polygon fill="midnightblue" stroke="midnightblue" points="352.505,-768.177 362.58,-771.455 356.749,-762.609 352.505,-768.177"/>
</g>
<!-- Node2505 -->
<g id="node4" class="node"><title>Node2505</title>
<g id="a_node4"><a xlink:href="util_8h.html#af8985880cf4ef26df0a5aa2ffcb76662" target="_top" xlink:title="error">
<polygon fill="white" stroke="black" points="550,-809.5 550,-828.5 586,-828.5 586,-809.5 550,-809.5"/>
<text text-anchor="middle" x="568" y="-816.5" font-family="Helvetica,sans-Serif" font-size="10.00">error</text>
</a>
</g>
</g>
<!-- Node2504&#45;&gt;Node2505 -->
<g id="edge3" class="edge"><title>Node2504&#45;&gt;Node2505</title>
<path fill="none" stroke="midnightblue" d="M420.415,-789.528C456.827,-796.849 508.24,-807.186 539.504,-813.472"/>
<polygon fill="midnightblue" stroke="midnightblue" points="539.171,-816.975 549.665,-815.515 540.551,-810.112 539.171,-816.975"/>
</g>
<!-- Node2522 -->
<g id="node7" class="node"><title>Node2522</title>
<g id="a_node7"><a xlink:href="univalue_8h.html#a884f0e316157c5d85f6cff80c442bf1a" target="_top" xlink:title="Pair">
<polygon fill="white" stroke="black" points="551,-771.5 551,-790.5 585,-790.5 585,-771.5 551,-771.5"/>
<text text-anchor="middle" x="568" y="-778.5" font-family="Helvetica,sans-Serif" font-size="10.00">Pair</text>
</a>
</g>
</g>
<!-- Node2504&#45;&gt;Node2522 -->
<g id="edge6" class="edge"><title>Node2504&#45;&gt;Node2522</title>
<path fill="none" stroke="midnightblue" d="M420.415,-781C457.216,-781 509.342,-781 540.5,-781"/>
<polygon fill="midnightblue" stroke="midnightblue" points="540.588,-784.5 550.588,-781 540.588,-777.5 540.588,-784.5"/>
</g>
<!-- Node2506 -->
<g id="node5" class="node"><title>Node2506</title>
<g id="a_node5"><a xlink:href="namespacetinyformat_1_1detail.html#aa4b0590b3e34562c2d252a2086cec7ba" target="_top" xlink:title="tinyformat::detail\l::format">
<polygon fill="white" stroke="red" points="714,-848 714,-878 803,-878 803,-848 714,-848"/>
<text text-anchor="start" x="722" y="-866" font-family="Helvetica,sans-Serif" font-size="10.00">tinyformat::detail</text>
<text text-anchor="middle" x="758.5" y="-855" font-family="Helvetica,sans-Serif" font-size="10.00">::format</text>
</a>
</g>
</g>
<!-- Node2505&#45;&gt;Node2506 -->
<g id="edge4" class="edge"><title>Node2505&#45;&gt;Node2506</title>
<path fill="none" stroke="midnightblue" d="M586.061,-822.982C612.461,-829.145 664.319,-841.25 704.119,-850.54"/>
<polygon fill="midnightblue" stroke="midnightblue" points="703.421,-853.971 713.955,-852.836 705.012,-847.154 703.421,-853.971"/>
</g>
<!-- Node2509 -->
<g id="node6" class="node"><title>Node2509</title>
<g id="a_node6"><a xlink:href="util_8h.html#afd4c3002b2797c0560adddb6af3ca1da" target="_top" xlink:title="Send a string to the log output. ">
<polygon fill="white" stroke="red" points="726,-809.5 726,-828.5 791,-828.5 791,-809.5 726,-809.5"/>
<text text-anchor="middle" x="758.5" y="-816.5" font-family="Helvetica,sans-Serif" font-size="10.00">LogPrintStr</text>
</a>
</g>
</g>
<!-- Node2505&#45;&gt;Node2509 -->
<g id="edge5" class="edge"><title>Node2505&#45;&gt;Node2509</title>
<path fill="none" stroke="midnightblue" d="M586.061,-819C615.073,-819 674.829,-819 715.541,-819"/>
<polygon fill="midnightblue" stroke="midnightblue" points="715.707,-822.5 725.707,-819 715.707,-815.5 715.707,-822.5"/>
</g>
<!-- Node2525&#45;&gt;Node2522 -->
<g id="edge50" class="edge"><title>Node2525&#45;&gt;Node2522</title>
<path fill="none" stroke="midnightblue" d="M211.945,-284.717C220.195,-317.525 247.733,-427.219 270,-518 286.23,-584.166 264.294,-613.13 306,-667 365.469,-743.814 487.38,-769.87 540.867,-777.834"/>
<polygon fill="midnightblue" stroke="midnightblue" points="540.517,-781.319 550.905,-779.233 541.484,-774.386 540.517,-781.319"/>
</g>
<!-- Node2526 -->
<g id="node11" class="node"><title>Node2526</title>
<g id="a_node11"><a xlink:href="validation_8cpp.html#a7e254ea66e047c3d3ed0bedc5997fc4f" target="_top" xlink:title="Check if transaction will be final in the next block to be created. ">
<polygon fill="white" stroke="black" points="338.5,-638.5 338.5,-657.5 415.5,-657.5 415.5,-638.5 338.5,-638.5"/>
<text text-anchor="middle" x="377" y="-645.5" font-family="Helvetica,sans-Serif" font-size="10.00">CheckFinalTx</text>
</a>
</g>
</g>
<!-- Node2525&#45;&gt;Node2526 -->
<g id="edge10" class="edge"><title>Node2525&#45;&gt;Node2526</title>
<path fill="none" stroke="midnightblue" d="M212.259,-284.91C222.32,-320.409 258.926,-444.144 306,-539 322.721,-572.693 347.472,-608.886 362.623,-629.931"/>
<polygon fill="midnightblue" stroke="midnightblue" points="359.945,-632.199 368.662,-638.221 365.603,-628.077 359.945,-632.199"/>
</g>
<!-- Node2535 -->
<g id="node20" class="node"><title>Node2535</title>
<g id="a_node20"><a xlink:href="standard_8cpp.html#a951f7e601746ae076afdf3169ecca2fc" target="_top" xlink:title="ExtractDestination">
<polygon fill="white" stroke="black" points="328,-398.5 328,-417.5 426,-417.5 426,-398.5 328,-398.5"/>
<text text-anchor="middle" x="377" y="-405.5" font-family="Helvetica,sans-Serif" font-size="10.00">ExtractDestination</text>
</a>
</g>
</g>
<!-- Node2525&#45;&gt;Node2535 -->
<g id="edge19" class="edge"><title>Node2525&#45;&gt;Node2535</title>
<path fill="none" stroke="midnightblue" d="M214.86,-284.65C227.616,-306.7 262.027,-361.02 306,-389 309.808,-391.423 313.922,-393.54 318.182,-395.389"/>
<polygon fill="midnightblue" stroke="midnightblue" points="317.087,-398.718 327.677,-399.025 319.589,-392.18 317.087,-398.718"/>
</g>
<!-- Node2578 -->
<g id="node32" class="node"><title>Node2578</title>
<g id="a_node32"><a xlink:href="class_c_bitcoin_address.html#a1e44de10dfc84d1fd2e15150f1e22b8e" target="_top" xlink:title="CBitcoinAddress::Get">
<polygon fill="white" stroke="black" points="321,-360.5 321,-379.5 433,-379.5 433,-360.5 321,-360.5"/>
<text text-anchor="middle" x="377" y="-367.5" font-family="Helvetica,sans-Serif" font-size="10.00">CBitcoinAddress::Get</text>
</a>
</g>
</g>
<!-- Node2525&#45;&gt;Node2578 -->
<g id="edge33" class="edge"><title>Node2525&#45;&gt;Node2578</title>
<path fill="none" stroke="midnightblue" d="M218.988,-284.682C235.305,-300.787 270.375,-333.079 306,-351 310.593,-353.31 315.501,-355.367 320.508,-357.192"/>
<polygon fill="midnightblue" stroke="midnightblue" points="319.605,-360.581 330.199,-360.423 321.819,-353.94 319.605,-360.581"/>
</g>
<!-- Node2581 -->
<g id="node36" class="node"><title>Node2581</title>
<g id="a_node36"><a xlink:href="class_uni_value.html#ae8a27d40aa1b1322ea95ff4fb2dec2b1" target="_top" xlink:title="UniValue::get_bool">
<polygon fill="white" stroke="black" points="327.5,-322.5 327.5,-341.5 426.5,-341.5 426.5,-322.5 327.5,-322.5"/>
<text text-anchor="middle" x="377" y="-329.5" font-family="Helvetica,sans-Serif" font-size="10.00">UniValue::get_bool</text>
</a>
</g>
</g>
<!-- Node2525&#45;&gt;Node2581 -->
<g id="edge38" class="edge"><title>Node2525&#45;&gt;Node2581</title>
<path fill="none" stroke="midnightblue" d="M231.86,-284.617C251.256,-292.762 280.192,-304.445 306,-313 313.147,-315.369 320.775,-317.668 328.269,-319.801"/>
<polygon fill="midnightblue" stroke="midnightblue" points="327.419,-323.197 337.991,-322.5 329.292,-316.452 327.419,-323.197"/>
</g>
<!-- Node2582 -->
<g id="node37" class="node"><title>Node2582</title>
<g id="a_node37"><a xlink:href="class_c_merkle_tx.html#a5bf3a355593ecce5799de92d013149b1" target="_top" xlink:title="Return depth of transaction in blockchain: &lt;0 : conflicts with a transaction this deep in the blockch...">
<polygon fill="white" stroke="black" points="306,-500 306,-530 448,-530 448,-500 306,-500"/>
<text text-anchor="start" x="314" y="-518" font-family="Helvetica,sans-Serif" font-size="10.00">CMerkleTx::GetDepthInMain</text>
<text text-anchor="middle" x="377" y="-507" font-family="Helvetica,sans-Serif" font-size="10.00">Chain</text>
</a>
</g>
</g>
<!-- Node2525&#45;&gt;Node2582 -->
<g id="edge39" class="edge"><title>Node2525&#45;&gt;Node2582</title>
<path fill="none" stroke="midnightblue" d="M215.249,-284.837C229.695,-309.377 269.011,-375.058 306,-427 322.154,-449.685 342.042,-474.414 356.485,-491.865"/>
<polygon fill="midnightblue" stroke="midnightblue" points="354.009,-494.361 363.098,-499.806 359.388,-489.882 354.009,-494.361"/>
</g>
<!-- Node2590 -->
<g id="node41" class="node"><title>Node2590</title>
<g id="a_node41"><a xlink:href="class_c_transaction.html#a7efd1379de830341417c0bfa23a149aa" target="_top" xlink:title="CTransaction::GetHash">
<polygon fill="white" stroke="black" points="317,-284.5 317,-303.5 437,-303.5 437,-284.5 317,-284.5"/>
<text text-anchor="middle" x="377" y="-291.5" font-family="Helvetica,sans-Serif" font-size="10.00">CTransaction::GetHash</text>
</a>
</g>
</g>
<!-- Node2525&#45;&gt;Node2590 -->
<g id="edge44" class="edge"><title>Node2525&#45;&gt;Node2590</title>
<path fill="none" stroke="midnightblue" d="M245.628,-279.123C263.464,-281.158 285.602,-283.684 306.543,-286.074"/>
<polygon fill="midnightblue" stroke="midnightblue" points="306.371,-289.577 316.703,-287.233 307.164,-282.622 306.371,-289.577"/>
</g>
<!-- Node2591 -->
<g id="node42" class="node"><title>Node2591</title>
<g id="a_node42"><a xlink:href="classbase__blob.html#ad7263503f949fb3c6c520ebb1f28e378" target="_top" xlink:title="base_blob::GetHex">
<polygon fill="white" stroke="black" points="326.5,-246.5 326.5,-265.5 427.5,-265.5 427.5,-246.5 326.5,-246.5"/>
<text text-anchor="middle" x="377" y="-253.5" font-family="Helvetica,sans-Serif" font-size="10.00">base_blob::GetHex</text>
</a>
</g>
</g>
<!-- Node2525&#45;&gt;Node2591 -->
<g id="edge45" class="edge"><title>Node2525&#45;&gt;Node2591</title>
<path fill="none" stroke="midnightblue" d="M245.628,-270.877C266.299,-268.518 292.749,-265.5 316.416,-262.799"/>
<polygon fill="midnightblue" stroke="midnightblue" points="316.825,-266.276 326.363,-261.664 316.031,-259.321 316.825,-266.276"/>
</g>
<!-- Node2592 -->
<g id="node43" class="node"><title>Node2592</title>
<g id="a_node43"><a xlink:href="class_c_transaction.html#a96256e8ac1bf79ad9c057e48c41132dd" target="_top" xlink:title="CTransaction::IsCoinBase">
<polygon fill="white" stroke="black" points="311,-208.5 311,-227.5 443,-227.5 443,-208.5 311,-208.5"/>
<text text-anchor="middle" x="377" y="-215.5" font-family="Helvetica,sans-Serif" font-size="10.00">CTransaction::IsCoinBase</text>
</a>
</g>
</g>
<!-- Node2525&#45;&gt;Node2592 -->
<g id="edge46" class="edge"><title>Node2525&#45;&gt;Node2592</title>
<path fill="none" stroke="midnightblue" d="M233.625,-265.424C261.005,-254.566 302.368,-238.204 306,-237 313.147,-234.631 320.775,-232.332 328.269,-230.199"/>
<polygon fill="midnightblue" stroke="midnightblue" points="329.292,-233.548 337.991,-227.5 327.419,-226.803 329.292,-233.548"/>
</g>
<!-- Node2593 -->
<g id="node44" class="node"><title>Node2593</title>
<g id="a_node44"><a xlink:href="wallet__ismine_8cpp.html#adc59cf67d903c1ba1ef225561b85bfce" target="_top" xlink:title="IsMine">
<polygon fill="white" stroke="black" points="354,-152.5 354,-171.5 400,-171.5 400,-152.5 354,-152.5"/>
<text text-anchor="middle" x="377" y="-159.5" font-family="Helvetica,sans-Serif" font-size="10.00">IsMine</text>
</a>
</g>
</g>
<!-- Node2525&#45;&gt;Node2593 -->
<g id="edge47" class="edge"><title>Node2525&#45;&gt;Node2593</title>
<path fill="none" stroke="midnightblue" d="M243.724,-265.428C252.851,-261.847 262.303,-257.116 270,-251 292.007,-233.513 284.974,-217.656 306,-199 317.225,-189.04 331.607,-180.846 344.411,-174.723"/>
<polygon fill="midnightblue" stroke="midnightblue" points="346.16,-177.773 353.817,-170.45 343.265,-171.4 346.16,-177.773"/>
</g>
<!-- Node2595 -->
<g id="node46" class="node"><title>Node2595</title>
<g id="a_node46"><a xlink:href="class_uni_value.html#a944cd1b59b040cd24c9f46b55a68d49a" target="_top" xlink:title="UniValue::push_back">
<polygon fill="white" stroke="black" points="322,-114.5 322,-133.5 432,-133.5 432,-114.5 322,-114.5"/>
<text text-anchor="middle" x="377" y="-121.5" font-family="Helvetica,sans-Serif" font-size="10.00">UniValue::push_back</text>
</a>
</g>
</g>
<!-- Node2525&#45;&gt;Node2595 -->
<g id="edge51" class="edge"><title>Node2525&#45;&gt;Node2595</title>
<path fill="none" stroke="midnightblue" d="M245.586,-266.522C254.514,-262.969 263.401,-257.979 270,-251 304.763,-214.237 269.223,-177.748 306,-143 308.145,-140.973 310.484,-139.158 312.964,-137.533"/>
<polygon fill="midnightblue" stroke="midnightblue" points="314.737,-140.553 321.858,-132.709 311.399,-134.4 314.737,-140.553"/>
</g>
<!-- Node2525&#45;&gt;Node2596 -->
<g id="edge52" class="edge"><title>Node2525&#45;&gt;Node2596</title>
<path fill="none" stroke="midnightblue" d="M245.736,-267.45C254.882,-263.889 263.842,-258.663 270,-251 332.614,-173.086 239.1,-103.267 306,-29 311.632,-22.7474 319.094,-18.4645 327.047,-15.549"/>
<polygon fill="midnightblue" stroke="midnightblue" points="328.306,-18.8264 336.9,-12.6304 326.318,-12.1146 328.306,-18.8264"/>
</g>
<!-- Node2597 -->
<g id="node48" class="node"><title>Node2597</title>
<g id="a_node48"><a xlink:href="class_c_base58_data.html#a7dc91af403ca02694b3247b15604e220" target="_top" xlink:title="CBase58Data::ToString">
<polygon fill="white" stroke="black" points="316.5,-76.5 316.5,-95.5 437.5,-95.5 437.5,-76.5 316.5,-76.5"/>
<text text-anchor="middle" x="377" y="-83.5" font-family="Helvetica,sans-Serif" font-size="10.00">CBase58Data::ToString</text>
</a>
</g>
</g>
<!-- Node2525&#45;&gt;Node2597 -->
<g id="edge53" class="edge"><title>Node2525&#45;&gt;Node2597</title>
<path fill="none" stroke="midnightblue" d="M245.652,-266.993C254.687,-263.433 263.611,-258.322 270,-251 313.94,-200.643 259.296,-152.805 306,-105 307.419,-103.548 308.937,-102.203 310.536,-100.958"/>
<polygon fill="midnightblue" stroke="midnightblue" points="312.54,-103.832 319.12,-95.5281 308.798,-97.9157 312.54,-103.832"/>
</g>
<!-- Node2604 -->
<g id="node50" class="node"><title>Node2604</title>
<g id="a_node50"><a xlink:href="server_8cpp.html#a513e384f1d458abddd1bf9be05125947" target="_top" xlink:title="ValueFromAmount">
<polygon fill="white" stroke="black" points="328,-38.5 328,-57.5 426,-57.5 426,-38.5 328,-38.5"/>
<text text-anchor="middle" x="377" y="-45.5" font-family="Helvetica,sans-Serif" font-size="10.00">ValueFromAmount</text>
</a>
</g>
</g>
<!-- Node2525&#45;&gt;Node2604 -->
<g id="edge55" class="edge"><title>Node2525&#45;&gt;Node2604</title>
<path fill="none" stroke="midnightblue" d="M245.574,-267.318C254.719,-263.756 263.718,-258.562 270,-251 323.245,-186.902 249.232,-128 306,-67 309.607,-63.124 313.918,-60.0087 318.603,-57.5088"/>
<polygon fill="midnightblue" stroke="midnightblue" points="320.219,-60.6228 327.99,-53.4215 317.424,-54.2048 320.219,-60.6228"/>
</g>
<!-- Node2527 -->
<g id="node12" class="node"><title>Node2527</title>
<g id="a_node12"><a xlink:href="timedata_8cpp.html#a09f81b9c7650f898cf3cf305b87547e6" target="_top" xlink:title="GetAdjustedTime">
<polygon fill="white" stroke="black" points="522,-733.5 522,-752.5 614,-752.5 614,-733.5 522,-733.5"/>
<text text-anchor="middle" x="568" y="-740.5" font-family="Helvetica,sans-Serif" font-size="10.00">GetAdjustedTime</text>
</a>
</g>
</g>
<!-- Node2526&#45;&gt;Node2527 -->
<g id="edge11" class="edge"><title>Node2526&#45;&gt;Node2527</title>
<path fill="none" stroke="midnightblue" d="M395.573,-657.548C410.106,-665.733 431.036,-678.2 448,-691 465.326,-704.073 464.783,-713.91 484,-724 492.645,-728.539 502.355,-732.001 512.004,-734.639"/>
<polygon fill="midnightblue" stroke="midnightblue" points="511.444,-738.106 521.991,-737.101 513.119,-731.309 511.444,-738.106"/>
</g>
<!-- Node2530 -->
<g id="node15" class="node"><title>Node2530</title>
<g id="a_node15"><a xlink:href="class_c_block_index.html#aa9bd0ab02cf8b9c866618cee3a5a0583" target="_top" xlink:title="CBlockIndex::GetMedianTimePast">
<polygon fill="white" stroke="black" points="484,-695.5 484,-714.5 652,-714.5 652,-695.5 484,-695.5"/>
<text text-anchor="middle" x="568" y="-702.5" font-family="Helvetica,sans-Serif" font-size="10.00">CBlockIndex::GetMedianTimePast</text>
</a>
</g>
</g>
<!-- Node2526&#45;&gt;Node2530 -->
<g id="edge14" class="edge"><title>Node2526&#45;&gt;Node2530</title>
<path fill="none" stroke="midnightblue" d="M402.148,-657.588C423.459,-665.824 455.48,-677.656 484,-686 492.556,-688.503 501.687,-690.881 510.646,-693.055"/>
<polygon fill="midnightblue" stroke="midnightblue" points="510.113,-696.525 520.65,-695.417 511.722,-689.712 510.113,-696.525"/>
</g>
<!-- Node2532 -->
<g id="node17" class="node"><title>Node2532</title>
<g id="a_node17"><a xlink:href="class_c_chain.html#ad4758bc8872ce065a9579f77c3171d40" target="_top" xlink:title="Return the maximal height in the chain. ">
<polygon fill="white" stroke="black" points="526,-581.5 526,-600.5 610,-600.5 610,-581.5 526,-581.5"/>
<text text-anchor="middle" x="568" y="-588.5" font-family="Helvetica,sans-Serif" font-size="10.00">CChain::Height</text>
</a>
</g>
</g>
<!-- Node2526&#45;&gt;Node2532 -->
<g id="edge16" class="edge"><title>Node2526&#45;&gt;Node2532</title>
<path fill="none" stroke="midnightblue" d="M402.148,-638.412C423.459,-630.176 455.48,-618.344 484,-610 494.214,-607.012 505.247,-604.201 515.831,-601.706"/>
<polygon fill="midnightblue" stroke="midnightblue" points="516.838,-605.065 525.8,-599.413 515.27,-598.243 516.838,-605.065"/>
</g>
<!-- Node2533 -->
<g id="node18" class="node"><title>Node2533</title>
<g id="a_node18"><a xlink:href="validation_8cpp.html#adc332cd7ac94e639bb4239618341be19" target="_top" xlink:title="Check if transaction is final and can be included in a block with the specified height and time...">
<polygon fill="white" stroke="black" points="539.5,-657.5 539.5,-676.5 596.5,-676.5 596.5,-657.5 539.5,-657.5"/>
<text text-anchor="middle" x="568" y="-664.5" font-family="Helvetica,sans-Serif" font-size="10.00">IsFinalTx</text>
</a>
</g>
</g>
<!-- Node2526&#45;&gt;Node2533 -->
<g id="edge17" class="edge"><title>Node2526&#45;&gt;Node2533</title>
<path fill="none" stroke="midnightblue" d="M415.793,-651.799C448.745,-655.112 496.296,-659.892 529.239,-663.204"/>
<polygon fill="midnightblue" stroke="midnightblue" points="529.084,-666.706 539.384,-664.224 529.784,-659.741 529.084,-666.706"/>
</g>
<!-- Node2534 -->
<g id="node19" class="node"><title>Node2534</title>
<g id="a_node19"><a xlink:href="class_c_chain.html#a578545bde95163bee37b1be28e7b2755" target="_top" xlink:title="Returns the index entry for the tip of this chain, or NULL if none. ">
<polygon fill="white" stroke="black" points="533.5,-619.5 533.5,-638.5 602.5,-638.5 602.5,-619.5 533.5,-619.5"/>
<text text-anchor="middle" x="568" y="-626.5" font-family="Helvetica,sans-Serif" font-size="10.00">CChain::Tip</text>
</a>
</g>
</g>
<!-- Node2526&#45;&gt;Node2534 -->
<g id="edge18" class="edge"><title>Node2526&#45;&gt;Node2534</title>
<path fill="none" stroke="midnightblue" d="M415.793,-644.201C446.801,-641.083 490.736,-636.667 523.262,-633.397"/>
<polygon fill="midnightblue" stroke="midnightblue" points="523.79,-636.862 533.39,-632.379 523.09,-629.897 523.79,-636.862"/>
</g>
<!-- Node2528 -->
<g id="node13" class="node"><title>Node2528</title>
<g id="a_node13"><a xlink:href="utiltime_8cpp.html#a46fac5fba8ba905b5f9acb364f5d8c6f" target="_top" xlink:title="For unit testing. ">
<polygon fill="white" stroke="black" points="731.5,-771.5 731.5,-790.5 785.5,-790.5 785.5,-771.5 731.5,-771.5"/>
<text text-anchor="middle" x="758.5" y="-778.5" font-family="Helvetica,sans-Serif" font-size="10.00">GetTime</text>
</a>
</g>
</g>
<!-- Node2527&#45;&gt;Node2528 -->
<g id="edge12" class="edge"><title>Node2527&#45;&gt;Node2528</title>
<path fill="none" stroke="midnightblue" d="M614.15,-752.102C647.03,-758.73 690.97,-767.588 721.499,-773.742"/>
<polygon fill="midnightblue" stroke="midnightblue" points="720.808,-777.173 731.302,-775.719 722.191,-770.312 720.808,-777.173"/>
</g>
<!-- Node2529 -->
<g id="node14" class="node"><title>Node2529</title>
<g id="a_node14"><a xlink:href="timedata_8cpp.html#a50ca5344c75631267633f15cfe5e983e" target="_top" xlink:title="&quot;Never go to sea with two chronometers; take one or three.&quot; Our three time sources are: ...">
<polygon fill="white" stroke="black" points="718,-733.5 718,-752.5 799,-752.5 799,-733.5 718,-733.5"/>
<text text-anchor="middle" x="758.5" y="-740.5" font-family="Helvetica,sans-Serif" font-size="10.00">GetTimeOffset</text>
</a>
</g>
</g>
<!-- Node2527&#45;&gt;Node2529 -->
<g id="edge13" class="edge"><title>Node2527&#45;&gt;Node2529</title>
<path fill="none" stroke="midnightblue" d="M614.15,-743C642.282,-743 678.51,-743 707.508,-743"/>
<polygon fill="midnightblue" stroke="midnightblue" points="707.835,-746.5 717.835,-743 707.835,-739.5 707.835,-746.5"/>
</g>
<!-- Node2531 -->
<g id="node16" class="node"><title>Node2531</title>
<g id="a_node16"><a xlink:href="class_c_block_index.html#a9fe0d4463c07c466f66252e8eec25f5c" target="_top" xlink:title="CBlockIndex::GetBlockTime">
<polygon fill="white" stroke="black" points="688,-695.5 688,-714.5 829,-714.5 829,-695.5 688,-695.5"/>
<text text-anchor="middle" x="758.5" y="-702.5" font-family="Helvetica,sans-Serif" font-size="10.00">CBlockIndex::GetBlockTime</text>
</a>
</g>
</g>
<!-- Node2530&#45;&gt;Node2531 -->
<g id="edge15" class="edge"><title>Node2530&#45;&gt;Node2531</title>
<path fill="none" stroke="midnightblue" d="M652.228,-705C660.712,-705 669.317,-705 677.762,-705"/>
<polygon fill="midnightblue" stroke="midnightblue" points="677.966,-708.5 687.966,-705 677.966,-701.5 677.966,-708.5"/>
</g>
<!-- Node2536 -->
<g id="node21" class="node"><title>Node2536</title>
<g id="a_node21"><a xlink:href="class_c_pub_key.html#a2675f7e6f72eff68e7a5227289feb021" target="_top" xlink:title="Get the KeyID of this public key (hash of its serialization) ">
<polygon fill="white" stroke="black" points="522.5,-417.5 522.5,-436.5 613.5,-436.5 613.5,-417.5 522.5,-417.5"/>
<text text-anchor="middle" x="568" y="-424.5" font-family="Helvetica,sans-Serif" font-size="10.00">CPubKey::GetID</text>
</a>
</g>
</g>
<!-- Node2535&#45;&gt;Node2536 -->
<g id="edge20" class="edge"><title>Node2535&#45;&gt;Node2536</title>
<path fill="none" stroke="midnightblue" d="M426.182,-412.844C452.463,-415.486 485.094,-418.766 512.325,-421.504"/>
<polygon fill="midnightblue" stroke="midnightblue" points="512.172,-425.006 522.472,-422.524 512.873,-418.041 512.172,-425.006"/>
</g>
<!-- Node2558 -->
<g id="node24" class="node"><title>Node2558</title>
<g id="a_node24"><a xlink:href="class_c_pub_key.html#a4fa94293cf8577fd039b9a133f6c7f30" target="_top" xlink:title="CPubKey::IsValid">
<polygon fill="white" stroke="black" points="520.5,-379.5 520.5,-398.5 615.5,-398.5 615.5,-379.5 520.5,-379.5"/>
<text text-anchor="middle" x="568" y="-386.5" font-family="Helvetica,sans-Serif" font-size="10.00">CPubKey::IsValid</text>
</a>
</g>
</g>
<!-- Node2535&#45;&gt;Node2558 -->
<g id="edge23" class="edge"><title>Node2535&#45;&gt;Node2558</title>
<path fill="none" stroke="midnightblue" d="M426.182,-403.156C451.784,-400.583 483.412,-397.403 510.204,-394.71"/>
<polygon fill="midnightblue" stroke="midnightblue" points="510.613,-398.186 520.213,-393.703 509.913,-391.221 510.613,-398.186"/>
</g>
<!-- Node2559 -->
<g id="node25" class="node"><title>Node2559</title>
<g id="a_node25"><a xlink:href="standard_8cpp.html#a6ee6be50bff44464e905680c6fcee6dc" target="_top" xlink:title="Return public keys or hashes from scriptPubKey, for &#39;standard&#39; transaction types. ...">
<polygon fill="white" stroke="red" points="546,-341.5 546,-360.5 590,-360.5 590,-341.5 546,-341.5"/>
<text text-anchor="middle" x="568" y="-348.5" font-family="Helvetica,sans-Serif" font-size="10.00">Solver</text>
</a>
</g>
</g>
<!-- Node2535&#45;&gt;Node2559 -->
<g id="edge25" class="edge"><title>Node2535&#45;&gt;Node2559</title>
<path fill="none" stroke="midnightblue" d="M419.211,-398.439C428.794,-395.771 438.862,-392.601 448,-389 464.832,-382.368 467.038,-376.294 484,-370 500.553,-363.858 519.727,-359.311 535.473,-356.208"/>
<polygon fill="midnightblue" stroke="midnightblue" points="536.565,-359.565 545.752,-354.289 535.28,-352.684 536.565,-359.565"/>
</g>
<!-- Node2537 -->
<g id="node22" class="node"><title>Node2537</title>
<g id="a_node22"><a xlink:href="hash_8h.html#a4490f70ddae16e9e48460a0416a48a6b" target="_top" xlink:title="Compute the 160&#45;bit hash an object. ">
<polygon fill="white" stroke="red" points="730.5,-493.5 730.5,-512.5 786.5,-512.5 786.5,-493.5 730.5,-493.5"/>
<text text-anchor="middle" x="758.5" y="-500.5" font-family="Helvetica,sans-Serif" font-size="10.00">Hash160</text>
</a>
</g>
</g>
<!-- Node2536&#45;&gt;Node2537 -->
<g id="edge21" class="edge"><title>Node2536&#45;&gt;Node2537</title>
<path fill="none" stroke="midnightblue" d="M613.863,-432.286C626.757,-435.098 640.446,-439.404 652,-446 672.204,-457.534 668.042,-472.046 688,-484 697.859,-489.905 709.593,-494.019 720.587,-496.867"/>
<polygon fill="midnightblue" stroke="midnightblue" points="719.867,-500.292 730.399,-499.141 721.448,-493.473 719.867,-500.292"/>
</g>
<!-- Node2556 -->
<g id="node23" class="node"><title>Node2556</title>
<g id="a_node23"><a xlink:href="class_c_pub_key.html#a6bb28fcf0a5f799c69f5b7269363b309" target="_top" xlink:title="Simple read&#45;only vector&#45;like interface to the pubkey data. ">
<polygon fill="white" stroke="red" points="717,-455.5 717,-474.5 800,-474.5 800,-455.5 717,-455.5"/>
<text text-anchor="middle" x="758.5" y="-462.5" font-family="Helvetica,sans-Serif" font-size="10.00">CPubKey::size</text>
</a>
</g>
</g>
<!-- Node2536&#45;&gt;Node2556 -->
<g id="edge22" class="edge"><title>Node2536&#45;&gt;Node2556</title>
<path fill="none" stroke="midnightblue" d="M613.672,-436.005C641.622,-441.64 677.705,-448.914 706.737,-454.767"/>
<polygon fill="midnightblue" stroke="midnightblue" points="706.193,-458.227 716.687,-456.772 707.576,-451.365 706.193,-458.227"/>
</g>
<!-- Node2558&#45;&gt;Node2556 -->
<g id="edge24" class="edge"><title>Node2558&#45;&gt;Node2556</title>
<path fill="none" stroke="midnightblue" d="M615.734,-395.288C627.988,-398.102 640.875,-402.159 652,-408 671.217,-418.09 669.352,-429.892 688,-441 695.173,-445.273 703.218,-448.929 711.22,-452.004"/>
<polygon fill="midnightblue" stroke="midnightblue" points="710.304,-455.394 720.899,-455.471 712.664,-448.804 710.304,-455.394"/>
</g>
<!-- Node2560 -->
<g id="node26" class="node"><title>Node2560</title>
<g id="a_node26"><a xlink:href="classprevector.html#aa9210cbe708412a70868d6e0bca844c9" target="_top" xlink:title="prevector::begin">
<polygon fill="white" stroke="red" points="865,-398.5 865,-417.5 951,-417.5 951,-398.5 865,-398.5"/>
<text text-anchor="middle" x="908" y="-405.5" font-family="Helvetica,sans-Serif" font-size="10.00">prevector::begin</text>
</a>
</g>
</g>
<!-- Node2559&#45;&gt;Node2560 -->
<g id="edge26" class="edge"><title>Node2559&#45;&gt;Node2560</title>
<path fill="none" stroke="midnightblue" d="M590.002,-352.421C607.557,-354.373 632.743,-359.007 652,-370 672.204,-381.534 666.629,-398.808 688,-408 741.253,-430.906 808.756,-426.527 854.645,-419.239"/>
<polygon fill="midnightblue" stroke="midnightblue" points="855.393,-422.662 864.671,-417.546 854.227,-415.76 855.393,-422.662"/>
</g>
<!-- Node2565 -->
<g id="node27" class="node"><title>Node2565</title>
<g id="a_node27"><a xlink:href="class_c_script.html#a7b2baf842621f07c4939408acf63377c" target="_top" xlink:title="CScript::clear">
<polygon fill="white" stroke="black" points="720,-341.5 720,-360.5 797,-360.5 797,-341.5 720,-341.5"/>
<text text-anchor="middle" x="758.5" y="-348.5" font-family="Helvetica,sans-Serif" font-size="10.00">CScript::clear</text>
</a>
</g>
</g>
<!-- Node2559&#45;&gt;Node2565 -->
<g id="edge27" class="edge"><title>Node2559&#45;&gt;Node2565</title>
<path fill="none" stroke="midnightblue" d="M590.257,-351C618.948,-351 670.892,-351 709.304,-351"/>
<polygon fill="midnightblue" stroke="midnightblue" points="709.749,-354.5 719.749,-351 709.749,-347.5 709.749,-354.5"/>
</g>
<!-- Node2566 -->
<g id="node28" class="node"><title>Node2566</title>
<g id="a_node28"><a xlink:href="class_c_script.html#a7f975fca06b3e9a17da8ba23c7647e2e" target="_top" xlink:title="Encode/decode small integers: ">
<polygon fill="white" stroke="black" points="700.5,-303.5 700.5,-322.5 816.5,-322.5 816.5,-303.5 700.5,-303.5"/>
<text text-anchor="middle" x="758.5" y="-310.5" font-family="Helvetica,sans-Serif" font-size="10.00">CScript::DecodeOP_N</text>
</a>
</g>
</g>
<!-- Node2559&#45;&gt;Node2566 -->
<g id="edge28" class="edge"><title>Node2559&#45;&gt;Node2566</title>
<path fill="none" stroke="midnightblue" d="M590.257,-346.715C616.66,-341.392 662.754,-332.1 699.874,-324.617"/>
<polygon fill="midnightblue" stroke="midnightblue" points="700.971,-327.966 710.082,-322.559 699.587,-321.104 700.971,-327.966"/>
</g>
<!-- Node2567 -->
<g id="node29" class="node"><title>Node2567</title>
<g id="a_node29"><a xlink:href="classprevector.html#aab7f6e13a3cac85cc340fc6b90c5365c" target="_top" xlink:title="prevector::end">
<polygon fill="white" stroke="red" points="719,-265.5 719,-284.5 798,-284.5 798,-265.5 719,-265.5"/>
<text text-anchor="middle" x="758.5" y="-272.5" font-family="Helvetica,sans-Serif" font-size="10.00">prevector::end</text>
</a>
</g>
</g>
<!-- Node2559&#45;&gt;Node2567 -->
<g id="edge29" class="edge"><title>Node2559&#45;&gt;Node2567</title>
<path fill="none" stroke="midnightblue" d="M590.166,-347.662C607.593,-344.279 632.513,-337.944 652,-327 670.925,-316.372 668.998,-304.49 688,-294 694.475,-290.426 701.666,-287.489 708.897,-285.086"/>
<polygon fill="midnightblue" stroke="midnightblue" points="710.152,-288.363 718.719,-282.13 708.135,-281.66 710.152,-288.363"/>
</g>
<!-- Node2569 -->
<g id="node30" class="node"><title>Node2569</title>
<g id="a_node30"><a xlink:href="classprevector.html#acb71926f63896b2bd6f4da4ffe515d19" target="_top" xlink:title="prevector::front">
<polygon fill="white" stroke="red" points="717,-227.5 717,-246.5 800,-246.5 800,-227.5 717,-227.5"/>
<text text-anchor="middle" x="758.5" y="-234.5" font-family="Helvetica,sans-Serif" font-size="10.00">prevector::front</text>
</a>
</g>
</g>
<!-- Node2559&#45;&gt;Node2569 -->
<g id="edge30" class="edge"><title>Node2559&#45;&gt;Node2569</title>
<path fill="none" stroke="midnightblue" d="M590.269,-349.534C608.47,-347.274 634.437,-341.54 652,-327 679.253,-304.438 660.583,-278.362 688,-256 693.665,-251.38 700.365,-247.879 707.332,-245.227"/>
<polygon fill="midnightblue" stroke="midnightblue" points="708.496,-248.529 716.927,-242.112 706.335,-241.871 708.496,-248.529"/>
</g>
<!-- Node2570 -->
<g id="node31" class="node"><title>Node2570</title>
<g id="a_node31"><a xlink:href="class_c_script.html#a94635ed93d8d244ec3acfa83f9ecfe5f" target="_top" xlink:title="CScript::GetOp">
<polygon fill="white" stroke="red" points="716.5,-379.5 716.5,-398.5 800.5,-398.5 800.5,-379.5 716.5,-379.5"/>
<text text-anchor="middle" x="758.5" y="-386.5" font-family="Helvetica,sans-Serif" font-size="10.00">CScript::GetOp</text>
</a>
</g>
</g>
<!-- Node2559&#45;&gt;Node2570 -->
<g id="edge31" class="edge"><title>Node2559&#45;&gt;Node2570</title>
<path fill="none" stroke="midnightblue" d="M590.257,-355.285C618.275,-360.933 668.469,-371.052 706.58,-378.735"/>
<polygon fill="midnightblue" stroke="midnightblue" points="705.989,-382.186 716.483,-380.731 707.372,-375.324 705.989,-382.186"/>
</g>
<!-- Node2570&#45;&gt;Node2560 -->
<g id="edge32" class="edge"><title>Node2570&#45;&gt;Node2560</title>
<path fill="none" stroke="midnightblue" d="M800.587,-394.293C817.332,-396.45 836.893,-398.969 854.644,-401.256"/>
<polygon fill="midnightblue" stroke="midnightblue" points="854.486,-404.764 864.851,-402.571 855.38,-397.822 854.486,-404.764"/>
</g>
<!-- Node2579 -->
<g id="node33" class="node"><title>Node2579</title>
<g id="a_node33"><a xlink:href="class_c_bitcoin_address.html#ab39907ce6895062a8f8bf585270ef13b" target="_top" xlink:title="CBitcoinAddress::IsValid">
<polygon fill="white" stroke="black" points="505,-265.5 505,-284.5 631,-284.5 631,-265.5 505,-265.5"/>
<text text-anchor="middle" x="568" y="-272.5" font-family="Helvetica,sans-Serif" font-size="10.00">CBitcoinAddress::IsValid</text>
</a>
</g>
</g>
<!-- Node2578&#45;&gt;Node2579 -->
<g id="edge34" class="edge"><title>Node2578&#45;&gt;Node2579</title>
<path fill="none" stroke="midnightblue" d="M429.959,-360.371C436.355,-357.923 442.549,-354.851 448,-351 470.956,-334.779 461.178,-315.409 484,-299 490.029,-294.665 496.829,-291.11 503.877,-288.194"/>
<polygon fill="midnightblue" stroke="midnightblue" points="505.428,-291.352 513.593,-284.601 503,-284.787 505.428,-291.352"/>
</g>
<!-- Node2580 -->
<g id="node34" class="node"><title>Node2580</title>
<g id="a_node34"><a xlink:href="chainparams_8cpp.html#ace5c5b706d71a324a417dd2db394fd4a" target="_top" xlink:title="Return the currently selected parameters. ">
<polygon fill="white" stroke="black" points="733.5,-189.5 733.5,-208.5 783.5,-208.5 783.5,-189.5 733.5,-189.5"/>
<text text-anchor="middle" x="758.5" y="-196.5" font-family="Helvetica,sans-Serif" font-size="10.00">Params</text>
</a>
</g>
</g>
<!-- Node2578&#45;&gt;Node2580 -->
<g id="edge37" class="edge"><title>Node2578&#45;&gt;Node2580</title>
<path fill="none" stroke="midnightblue" d="M419.211,-360.439C428.794,-357.771 438.862,-354.601 448,-351 464.832,-344.368 467.03,-338.272 484,-332 555.805,-305.46 592.255,-341.864 652,-294 681.169,-270.631 659.357,-242.011 688,-218 697.886,-209.713 711.085,-205.019 723.324,-202.369"/>
<polygon fill="midnightblue" stroke="midnightblue" points="724.056,-205.793 733.285,-200.589 722.825,-198.903 724.056,-205.793"/>
</g>
<!-- Node2544 -->
<g id="node35" class="node"><title>Node2544</title>
<g id="a_node35"><a xlink:href="glibc__compat_8cpp.html#a0f46826ab0466591e136db24394923cf" target="_top" xlink:title="memcpy">
<polygon fill="white" stroke="red" points="541,-227.5 541,-246.5 595,-246.5 595,-227.5 541,-227.5"/>
<text text-anchor="middle" x="568" y="-234.5" font-family="Helvetica,sans-Serif" font-size="10.00">memcpy</text>
</a>
</g>
</g>
<!-- Node2578&#45;&gt;Node2544 -->
<g id="edge36" class="edge"><title>Node2578&#45;&gt;Node2544</title>
<path fill="none" stroke="midnightblue" d="M433.023,-360.638C438.483,-358.134 443.617,-354.977 448,-351 481.441,-320.661 449.959,-285.664 484,-256 496.799,-244.847 514.818,-239.877 530.798,-237.787"/>
<polygon fill="midnightblue" stroke="midnightblue" points="531.319,-241.252 540.929,-236.793 530.636,-234.286 531.319,-241.252"/>
</g>
<!-- Node2579&#45;&gt;Node2580 -->
<g id="edge35" class="edge"><title>Node2579&#45;&gt;Node2580</title>
<path fill="none" stroke="midnightblue" d="M629.965,-265.433C637.652,-262.975 645.196,-259.884 652,-256 672.204,-244.466 668.042,-229.954 688,-218 698.707,-211.587 711.625,-207.287 723.404,-204.427"/>
<polygon fill="midnightblue" stroke="midnightblue" points="724.345,-207.804 733.378,-202.267 722.864,-200.963 724.345,-207.804"/>
</g>
<!-- Node2582&#45;&gt;Node2532 -->
<g id="edge41" class="edge"><title>Node2582&#45;&gt;Node2532</title>
<path fill="none" stroke="midnightblue" d="M401.547,-530.05C422.473,-542.834 454.267,-560.835 484,-572 494.068,-575.78 505.116,-578.947 515.775,-581.542"/>
<polygon fill="midnightblue" stroke="midnightblue" points="515.3,-585.025 525.831,-583.858 516.871,-578.203 515.3,-585.025"/>
</g>
<!-- Node2583 -->
<g id="node38" class="node"><title>Node2583</title>
<g id="a_node38"><a xlink:href="class_c_chain.html#af1786dc229c215dea7f727c11df2c8dc" target="_top" xlink:title="Efficiently check whether a block is present in this chain. ">
<polygon fill="white" stroke="black" points="520.5,-543.5 520.5,-562.5 615.5,-562.5 615.5,-543.5 520.5,-543.5"/>
<text text-anchor="middle" x="568" y="-550.5" font-family="Helvetica,sans-Serif" font-size="10.00">CChain::Contains</text>
</a>
</g>
</g>
<!-- Node2582&#45;&gt;Node2583 -->
<g id="edge40" class="edge"><title>Node2582&#45;&gt;Node2583</title>
<path fill="none" stroke="midnightblue" d="M448.108,-529.096C468.594,-533.215 490.722,-537.664 510.27,-541.594"/>
<polygon fill="midnightblue" stroke="midnightblue" points="509.74,-545.057 520.234,-543.597 511.12,-538.195 509.74,-545.057"/>
</g>
<!-- Node2584 -->
<g id="node39" class="node"><title>Node2584</title>
<g id="a_node39"><a xlink:href="class_c_tx_mem_pool.html#a8b7a13b5289ab839d4460f41a7da9789" target="_top" xlink:title="CTxMemPool::exists">
<polygon fill="white" stroke="black" points="513.5,-505.5 513.5,-524.5 622.5,-524.5 622.5,-505.5 513.5,-505.5"/>
<text text-anchor="middle" x="568" y="-512.5" font-family="Helvetica,sans-Serif" font-size="10.00">CTxMemPool::exists</text>
</a>
</g>
</g>
<!-- Node2582&#45;&gt;Node2584 -->
<g id="edge42" class="edge"><title>Node2582&#45;&gt;Node2584</title>
<path fill="none" stroke="midnightblue" d="M448.108,-515C466.111,-515 485.381,-515 503.054,-515"/>
<polygon fill="midnightblue" stroke="midnightblue" points="503.254,-518.5 513.254,-515 503.253,-511.5 503.254,-518.5"/>
</g>
<!-- Node2585 -->
<g id="node40" class="node"><title>Node2585</title>
<g id="a_node40"><a xlink:href="class_c_instant_send.html#a2b5bebbef6c466ee34706eeb9f53d4a7" target="_top" xlink:title="CInstantSend::IsLockedInstant\lSendTransaction">
<polygon fill="white" stroke="red" points="492,-456 492,-486 644,-486 644,-456 492,-456"/>
<text text-anchor="start" x="500" y="-474" font-family="Helvetica,sans-Serif" font-size="10.00">CInstantSend::IsLockedInstant</text>
<text text-anchor="middle" x="568" y="-463" font-family="Helvetica,sans-Serif" font-size="10.00">SendTransaction</text>
</a>
</g>
</g>
<!-- Node2582&#45;&gt;Node2585 -->
<g id="edge43" class="edge"><title>Node2582&#45;&gt;Node2585</title>
<path fill="none" stroke="midnightblue" d="M442.514,-499.981C458.543,-496.249 475.856,-492.219 492.328,-488.384"/>
<polygon fill="midnightblue" stroke="midnightblue" points="493.51,-491.703 502.456,-486.026 491.922,-484.885 493.51,-491.703"/>
</g>
<!-- Node2593&#45;&gt;Node2593 -->
<g id="edge49" class="edge"><title>Node2593&#45;&gt;Node2593</title>
<path fill="none" stroke="midnightblue" d="M353.875,-170.026C337.464,-179.28 345.172,-190 377,-190 401.368,-190 411.598,-183.716 407.69,-176.617"/>
<polygon fill="midnightblue" stroke="midnightblue" points="409.964,-173.957 400.125,-170.026 405.365,-179.234 409.964,-173.957"/>
</g>
<!-- Node2594 -->
<g id="node45" class="node"><title>Node2594</title>
<g id="a_node45"><a xlink:href="standard_8cpp.html#ae40f28d3b46c21033f6ee1f1200d0321" target="_top" xlink:title="GetScriptForDestination">
<polygon fill="white" stroke="black" points="507,-152.5 507,-171.5 629,-171.5 629,-152.5 507,-152.5"/>
<text text-anchor="middle" x="568" y="-159.5" font-family="Helvetica,sans-Serif" font-size="10.00">GetScriptForDestination</text>
</a>
</g>
</g>
<!-- Node2593&#45;&gt;Node2594 -->
<g id="edge48" class="edge"><title>Node2593&#45;&gt;Node2594</title>
<path fill="none" stroke="midnightblue" d="M400.051,-162C423.612,-162 462.191,-162 496.331,-162"/>
<polygon fill="midnightblue" stroke="midnightblue" points="496.762,-165.5 506.762,-162 496.762,-158.5 496.762,-165.5"/>
</g>
<!-- Node2598 -->
<g id="node49" class="node"><title>Node2598</title>
<g id="a_node49"><a xlink:href="base58_8cpp.html#ace9a5807ee51604f33044339f073ec76" target="_top" xlink:title="Encode a byte vector into a base58&#45;encoded string, including checksum. ">
<polygon fill="white" stroke="red" points="512.5,-76.5 512.5,-95.5 623.5,-95.5 623.5,-76.5 512.5,-76.5"/>
<text text-anchor="middle" x="568" y="-83.5" font-family="Helvetica,sans-Serif" font-size="10.00">EncodeBase58Check</text>
</a>
</g>
</g>
<!-- Node2597&#45;&gt;Node2598 -->
<g id="edge54" class="edge"><title>Node2597&#45;&gt;Node2598</title>
<path fill="none" stroke="midnightblue" d="M437.541,-86C458.091,-86 481.209,-86 502.161,-86"/>
<polygon fill="midnightblue" stroke="midnightblue" points="502.253,-89.5001 512.253,-86 502.253,-82.5001 502.253,-89.5001"/>
</g>
</g>
</svg>
