<?xml version="1.0" encoding="UTF-8" standalone="no"?>
<!DOCTYPE svg PUBLIC "-//W3C//DTD SVG 1.1//EN"
 "http://www.w3.org/Graphics/SVG/1.1/DTD/svg11.dtd">
<!-- Generated by graphviz version 2.38.0 (20140413.2041)
 -->
<!-- Title: EnsureWalletIsUnlocked Pages: 1 -->
<!--zoomable 560 -->
<svg id="main" version="1.1" xmlns="http://www.w3.org/2000/svg" xmlns:xlink="http://www.w3.org/1999/xlink" xml:space="preserve" onload="init(evt)">
<style type="text/css"><![CDATA[
.edge:hover path { stroke: red; }
.edge:hover polygon { stroke: red; fill: red; }
]]></style>
<script type="text/javascript"><![CDATA[
var edges = document.getElementsByTagName('g');
if (edges && edges.length) {
  for (var i=0;i<edges.length;i++) {
    if (edges[i].id.substr(0,4)=='edge') {
      edges[i].setAttribute('class','edge');
    }
  }
}
]]></script>
        <defs>
                <circle id="rim" cx="0" cy="0" r="7"/>
                <circle id="rim2" cx="0" cy="0" r="3.5"/>
                <g id="zoomPlus">
                        <use xlink:href="#rim" fill="#404040">
                                <set attributeName="fill" to="#808080" begin="zoomplus.mouseover" end="zoomplus.mouseout"/>
                        </use>
                        <path d="M-4,0h8M0,-4v8" fill="none" stroke="white" stroke-width="1.5" pointer-events="none"/>
                </g>
                <g id="zoomMin">
                        <use xlink:href="#rim" fill="#404040">
                                <set attributeName="fill" to="#808080" begin="zoomminus.mouseover" end="zoomminus.mouseout"/>
                        </use>
                        <path d="M-4,0h8" fill="none" stroke="white" stroke-width="1.5" pointer-events="none"/>
                </g>
                <g id="dirArrow">
                        <path fill="none" stroke="white" stroke-width="1.5" d="M0,-3.0v7 M-2.5,-0.5L0,-3.0L2.5,-0.5"/>
                </g>
               <g id="resetDef">
                       <use xlink:href="#rim2" fill="#404040">
                               <set attributeName="fill" to="#808080" begin="reset.mouseover" end="reset.mouseout"/>
                       </use>
               </g>
        </defs>

<script type="text/javascript">
var viewWidth = 279;
var viewHeight = 560;
var sectionId = 'dynsection-14';
</script>
<script xlink:href="svgpan.js"/>
<svg id="graph" class="graph">
<g id="viewport">
<title>EnsureWalletIsUnlocked</title>
<polygon fill="white" stroke="none" points="-4,4 -4,-556 275,-556 275,4 -4,4"/>
<!-- Node471 -->
<g id="node1" class="node"><title>Node471</title>
<polygon fill="#bfbfbf" stroke="black" points="0,-266.5 0,-285.5 125,-285.5 125,-266.5 0,-266.5"/>
<text text-anchor="middle" x="62.5" y="-273.5" font-family="Helvetica,sans-Serif" font-size="10.00">EnsureWalletIsUnlocked</text>
</g>
<!-- Node472 -->
<g id="node2" class="node"><title>Node472</title>
<g id="a_node2"><a xlink:href="rpcdump_8cpp.html#aaccd90d5e7e92572b085d10ad92623de" target="_top" xlink:title="dumphdinfo">
<polygon fill="white" stroke="black" points="182.5,-532.5 182.5,-551.5 249.5,-551.5 249.5,-532.5 182.5,-532.5"/>
<text text-anchor="middle" x="216" y="-539.5" font-family="Helvetica,sans-Serif" font-size="10.00">dumphdinfo</text>
</a>
</g>
</g>
<!-- Node471&#45;&gt;Node472 -->
<g id="edge1" class="edge"><title>Node471&#45;&gt;Node472</title>
<path fill="none" stroke="midnightblue" d="M65.7409,-295.786C72.0201,-342.086 93.9589,-458.436 161,-523 166.942,-528.722 174.707,-532.731 182.488,-535.536"/>
<polygon fill="midnightblue" stroke="midnightblue" points="69.1806,-295.086 64.464,-285.599 62.2349,-295.956 69.1806,-295.086"/>
</g>
<!-- Node473 -->
<g id="node3" class="node"><title>Node473</title>
<g id="a_node3"><a xlink:href="rpcdump_8cpp.html#adab6603310ec229d92dd1e85c861c6a8" target="_top" xlink:title="dumpprivkey">
<polygon fill="white" stroke="black" points="180,-494.5 180,-513.5 252,-513.5 252,-494.5 180,-494.5"/>
<text text-anchor="middle" x="216" y="-501.5" font-family="Helvetica,sans-Serif" font-size="10.00">dumpprivkey</text>
</a>
</g>
</g>
<!-- Node471&#45;&gt;Node473 -->
<g id="edge2" class="edge"><title>Node471&#45;&gt;Node473</title>
<path fill="none" stroke="midnightblue" d="M67.3442,-295.781C76.3389,-336.873 102.573,-432.045 161,-485 166.376,-489.872 173.076,-493.511 179.909,-496.223"/>
<polygon fill="midnightblue" stroke="midnightblue" points="70.7557,-294.995 65.2934,-285.917 63.9022,-296.42 70.7557,-294.995"/>
</g>
<!-- Node474 -->
<g id="node4" class="node"><title>Node474</title>
<g id="a_node4"><a xlink:href="rpcdump_8cpp.html#a84626901983e76a517c35e461a9a9442" target="_top" xlink:title="dumpwallet">
<polygon fill="white" stroke="black" points="183,-456.5 183,-475.5 249,-475.5 249,-456.5 183,-456.5"/>
<text text-anchor="middle" x="216" y="-463.5" font-family="Helvetica,sans-Serif" font-size="10.00">dumpwallet</text>
</a>
</g>
</g>
<!-- Node471&#45;&gt;Node474 -->
<g id="edge3" class="edge"><title>Node471&#45;&gt;Node474</title>
<path fill="none" stroke="midnightblue" d="M69.4323,-295.265C81.2099,-330.403 110.829,-405.129 161,-447 167.257,-452.222 175.046,-456.048 182.743,-458.836"/>
<polygon fill="midnightblue" stroke="midnightblue" points="72.7508,-294.151 66.347,-285.711 66.0896,-296.303 72.7508,-294.151"/>
</g>
<!-- Node475 -->
<g id="node5" class="node"><title>Node475</title>
<g id="a_node5"><a xlink:href="rpcdump_8cpp.html#accfe82c51846b7751eaae727e7f56631" target="_top" xlink:title="importelectrumwallet">
<polygon fill="white" stroke="black" points="162.5,-418.5 162.5,-437.5 269.5,-437.5 269.5,-418.5 162.5,-418.5"/>
<text text-anchor="middle" x="216" y="-425.5" font-family="Helvetica,sans-Serif" font-size="10.00">importelectrumwallet</text>
</a>
</g>
</g>
<!-- Node471&#45;&gt;Node475 -->
<g id="edge4" class="edge"><title>Node471&#45;&gt;Node475</title>
<path fill="none" stroke="midnightblue" d="M72.5999,-294.86C87.3258,-323.485 119.018,-377.856 161,-409 166.188,-412.849 172.223,-415.968 178.34,-418.48"/>
<polygon fill="midnightblue" stroke="midnightblue" points="75.5573,-292.948 67.9546,-285.569 69.2963,-296.078 75.5573,-292.948"/>
</g>
<!-- Node476 -->
<g id="node6" class="node"><title>Node476</title>
<g id="a_node6"><a xlink:href="rpcdump_8cpp.html#ace3f8652191a347b888627b8e0a1d17c" target="_top" xlink:title="importprivkey">
<polygon fill="white" stroke="black" points="178.5,-380.5 178.5,-399.5 253.5,-399.5 253.5,-380.5 178.5,-380.5"/>
<text text-anchor="middle" x="216" y="-387.5" font-family="Helvetica,sans-Serif" font-size="10.00">importprivkey</text>
</a>
</g>
</g>
<!-- Node471&#45;&gt;Node476 -->
<g id="edge5" class="edge"><title>Node471&#45;&gt;Node476</title>
<path fill="none" stroke="midnightblue" d="M77.4024,-293.6C94.8776,-314.665 126.759,-349.753 161,-371 166.996,-374.72 173.819,-377.839 180.55,-380.403"/>
<polygon fill="midnightblue" stroke="midnightblue" points="80.0555,-291.315 71.0312,-285.764 74.6243,-295.731 80.0555,-291.315"/>
</g>
<!-- Node477 -->
<g id="node7" class="node"><title>Node477</title>
<g id="a_node7"><a xlink:href="rpcdump_8cpp.html#a71dce63ec2a80b836bab5f31fef8da46" target="_top" xlink:title="importwallet">
<polygon fill="white" stroke="black" points="181.5,-342.5 181.5,-361.5 250.5,-361.5 250.5,-342.5 181.5,-342.5"/>
<text text-anchor="middle" x="216" y="-349.5" font-family="Helvetica,sans-Serif" font-size="10.00">importwallet</text>
</a>
</g>
</g>
<!-- Node471&#45;&gt;Node477 -->
<g id="edge6" class="edge"><title>Node471&#45;&gt;Node477</title>
<path fill="none" stroke="midnightblue" d="M86.3313,-291.029C105.676,-303.348 134.428,-320.695 161,-333 168.485,-336.466 176.793,-339.682 184.603,-342.446"/>
<polygon fill="midnightblue" stroke="midnightblue" points="88.1966,-288.067 77.8943,-285.595 84.4061,-293.952 88.1966,-288.067"/>
</g>
<!-- Node478 -->
<g id="node8" class="node"><title>Node478</title>
<g id="a_node8"><a xlink:href="rpcwallet_8cpp.html#a13ae0f230ba6d349466070da38ee85f4" target="_top" xlink:title="instantsendtoaddress">
<polygon fill="white" stroke="black" points="161,-304.5 161,-323.5 271,-323.5 271,-304.5 161,-304.5"/>
<text text-anchor="middle" x="216" y="-311.5" font-family="Helvetica,sans-Serif" font-size="10.00">instantsendtoaddress</text>
</a>
</g>
</g>
<!-- Node471&#45;&gt;Node478 -->
<g id="edge7" class="edge"><title>Node471&#45;&gt;Node478</title>
<path fill="none" stroke="midnightblue" d="M111.502,-288.04C132.667,-293.349 157.186,-299.499 177.045,-304.48"/>
<polygon fill="midnightblue" stroke="midnightblue" points="112.281,-284.627 101.73,-285.589 110.578,-291.417 112.281,-284.627"/>
</g>
<!-- Node479 -->
<g id="node9" class="node"><title>Node479</title>
<g id="a_node9"><a xlink:href="rpcwallet_8cpp.html#a9a9995b663381ea6801adba2fac555b3" target="_top" xlink:title="keypoolrefill">
<polygon fill="white" stroke="black" points="182,-266.5 182,-285.5 250,-285.5 250,-266.5 182,-266.5"/>
<text text-anchor="middle" x="216" y="-273.5" font-family="Helvetica,sans-Serif" font-size="10.00">keypoolrefill</text>
</a>
</g>
</g>
<!-- Node471&#45;&gt;Node479 -->
<g id="edge8" class="edge"><title>Node471&#45;&gt;Node479</title>
<path fill="none" stroke="midnightblue" d="M135.176,-276C151.419,-276 167.914,-276 181.659,-276"/>
<polygon fill="midnightblue" stroke="midnightblue" points="135.121,-272.5 125.121,-276 135.121,-279.5 135.121,-272.5"/>
</g>
<!-- Node480 -->
<g id="node10" class="node"><title>Node480</title>
<g id="a_node10"><a xlink:href="server_8h.html#adc51a168fd3ea207996ae4f8d9d6c6ea" target="_top" xlink:title="masternode">
<polygon fill="white" stroke="black" points="182,-228.5 182,-247.5 250,-247.5 250,-228.5 182,-228.5"/>
<text text-anchor="middle" x="216" y="-235.5" font-family="Helvetica,sans-Serif" font-size="10.00">masternode</text>
</a>
</g>
</g>
<!-- Node471&#45;&gt;Node480 -->
<g id="edge9" class="edge"><title>Node471&#45;&gt;Node480</title>
<path fill="none" stroke="midnightblue" d="M111.612,-263.932C134.524,-258.185 161.346,-251.458 181.928,-246.295"/>
<polygon fill="midnightblue" stroke="midnightblue" points="110.578,-260.583 101.73,-266.411 112.281,-267.373 110.578,-260.583"/>
</g>
<!-- Node481 -->
<g id="node11" class="node"><title>Node481</title>
<g id="a_node11"><a xlink:href="server_8h.html#a7ae813efd78b542bd5e3cddb01174777" target="_top" xlink:title="masternodebroadcast">
<polygon fill="white" stroke="black" points="161,-190.5 161,-209.5 271,-209.5 271,-190.5 161,-190.5"/>
<text text-anchor="middle" x="216" y="-197.5" font-family="Helvetica,sans-Serif" font-size="10.00">masternodebroadcast</text>
</a>
</g>
</g>
<!-- Node471&#45;&gt;Node481 -->
<g id="edge10" class="edge"><title>Node471&#45;&gt;Node481</title>
<path fill="none" stroke="midnightblue" d="M86.3313,-260.971C105.676,-248.652 134.428,-231.305 161,-219 168.485,-215.534 176.793,-212.318 184.603,-209.554"/>
<polygon fill="midnightblue" stroke="midnightblue" points="84.4061,-258.048 77.8943,-266.405 88.1966,-263.933 84.4061,-258.048"/>
</g>
<!-- Node482 -->
<g id="node12" class="node"><title>Node482</title>
<g id="a_node12"><a xlink:href="rpcwallet_8cpp.html#a887e8b6785b39cba59fe24ea952a4f10" target="_top" xlink:title="sendfrom">
<polygon fill="white" stroke="black" points="187.5,-152.5 187.5,-171.5 244.5,-171.5 244.5,-152.5 187.5,-152.5"/>
<text text-anchor="middle" x="216" y="-159.5" font-family="Helvetica,sans-Serif" font-size="10.00">sendfrom</text>
</a>
</g>
</g>
<!-- Node471&#45;&gt;Node482 -->
<g id="edge11" class="edge"><title>Node471&#45;&gt;Node482</title>
<path fill="none" stroke="midnightblue" d="M77.4024,-258.4C94.8776,-237.335 126.759,-202.247 161,-181 169.022,-176.022 178.527,-172.122 187.309,-169.186"/>
<polygon fill="midnightblue" stroke="midnightblue" points="74.6243,-256.269 71.0312,-266.236 80.0555,-260.685 74.6243,-256.269"/>
</g>
<!-- Node483 -->
<g id="node13" class="node"><title>Node483</title>
<g id="a_node13"><a xlink:href="rpcwallet_8cpp.html#a02c1a7b5244896e62bc5ae698f7a76c9" target="_top" xlink:title="sendmany">
<polygon fill="white" stroke="black" points="185,-114.5 185,-133.5 247,-133.5 247,-114.5 185,-114.5"/>
<text text-anchor="middle" x="216" y="-121.5" font-family="Helvetica,sans-Serif" font-size="10.00">sendmany</text>
</a>
</g>
</g>
<!-- Node471&#45;&gt;Node483 -->
<g id="edge12" class="edge"><title>Node471&#45;&gt;Node483</title>
<path fill="none" stroke="midnightblue" d="M72.5999,-257.14C87.3258,-228.515 119.018,-174.144 161,-143 168.024,-137.789 176.6,-133.916 184.831,-131.076"/>
<polygon fill="midnightblue" stroke="midnightblue" points="69.2963,-255.922 67.9546,-266.431 75.5573,-259.052 69.2963,-255.922"/>
</g>
<!-- Node484 -->
<g id="node14" class="node"><title>Node484</title>
<g id="a_node14"><a xlink:href="rpcwallet_8cpp.html#a36f0a0b6cd58a61c125bbe7a39ed1368" target="_top" xlink:title="sendtoaddress">
<polygon fill="white" stroke="black" points="176,-76.5 176,-95.5 256,-95.5 256,-76.5 176,-76.5"/>
<text text-anchor="middle" x="216" y="-83.5" font-family="Helvetica,sans-Serif" font-size="10.00">sendtoaddress</text>
</a>
</g>
</g>
<!-- Node471&#45;&gt;Node484 -->
<g id="edge13" class="edge"><title>Node471&#45;&gt;Node484</title>
<path fill="none" stroke="midnightblue" d="M69.4323,-256.735C81.2099,-221.597 110.829,-146.871 161,-105 165.654,-101.116 171.157,-98.0035 176.839,-95.5164"/>
<polygon fill="midnightblue" stroke="midnightblue" points="66.0896,-255.697 66.347,-266.289 72.7508,-257.849 66.0896,-255.697"/>
</g>
<!-- Node485 -->
<g id="node15" class="node"><title>Node485</title>
<g id="a_node15"><a xlink:href="rpcwallet_8cpp.html#a95d30866deb9a289859518f21b6ec721" target="_top" xlink:title="signmessage">
<polygon fill="white" stroke="black" points="179,-38.5 179,-57.5 253,-57.5 253,-38.5 179,-38.5"/>
<text text-anchor="middle" x="216" y="-45.5" font-family="Helvetica,sans-Serif" font-size="10.00">signmessage</text>
</a>
</g>
</g>
<!-- Node471&#45;&gt;Node485 -->
<g id="edge14" class="edge"><title>Node471&#45;&gt;Node485</title>
<path fill="none" stroke="midnightblue" d="M67.3442,-256.219C76.3389,-215.127 102.573,-119.955 161,-67 166.081,-62.3948 172.346,-58.8918 178.788,-56.2314"/>
<polygon fill="midnightblue" stroke="midnightblue" points="63.9022,-255.58 65.2934,-266.083 70.7557,-257.005 63.9022,-255.58"/>
</g>
<!-- Node486 -->
<g id="node16" class="node"><title>Node486</title>
<g id="a_node16"><a xlink:href="server_8h.html#a20a66f1d55549861fea58975ebe5c3fd" target="_top" xlink:title="signrawtransaction">
<polygon fill="white" stroke="black" points="167,-0.5 167,-19.5 265,-19.5 265,-0.5 167,-0.5"/>
<text text-anchor="middle" x="216" y="-7.5" font-family="Helvetica,sans-Serif" font-size="10.00">signrawtransaction</text>
</a>
</g>
</g>
<!-- Node471&#45;&gt;Node486 -->
<g id="edge15" class="edge"><title>Node471&#45;&gt;Node486</title>
<path fill="none" stroke="midnightblue" d="M65.7409,-256.214C72.0201,-209.914 93.9589,-93.5642 161,-29 165.009,-25.1394 169.848,-22.0586 174.962,-19.6012"/>
<polygon fill="midnightblue" stroke="midnightblue" points="62.2349,-256.044 64.464,-266.401 69.1806,-256.914 62.2349,-256.044"/>
</g>
</g>
</svg>
        <g id="navigator" transform="translate(0 0)" fill="#404254">
                <rect fill="#f2f5e9" fill-opacity="0.5" stroke="#606060" stroke-width=".5" x="0" y="0" width="60" height="60"/>
                <use id="zoomplus" xlink:href="#zoomPlus" x="17" y="9" onmousedown="handleZoom(evt,'in')"/>
                <use id="zoomminus" xlink:href="#zoomMin" x="42" y="9" onmousedown="handleZoom(evt,'out')"/>
                <use id="reset" xlink:href="#resetDef" x="30" y="36" onmousedown="handleReset()"/>
                <g id="arrowUp" xlink:href="#dirArrow" transform="translate(30 24)" onmousedown="handlePan(0,-1)">
                  <use xlink:href="#rim" fill="#404040">
                        <set attributeName="fill" to="#808080" begin="arrowUp.mouseover" end="arrowUp.mouseout"/>
                  </use>
                  <path fill="none" stroke="white" stroke-width="1.5" d="M0,-3.0v7 M-2.5,-0.5L0,-3.0L2.5,-0.5"/>
                </g>
                <g id="arrowRight" xlink:href="#dirArrow" transform="rotate(90) translate(36 -43)" onmousedown="handlePan(1,0)">
                  <use xlink:href="#rim" fill="#404040">
                        <set attributeName="fill" to="#808080" begin="arrowRight.mouseover" end="arrowRight.mouseout"/>
                  </use>
                  <path fill="none" stroke="white" stroke-width="1.5" d="M0,-3.0v7 M-2.5,-0.5L0,-3.0L2.5,-0.5"/>
                </g>
                <g id="arrowDown" xlink:href="#dirArrow" transform="rotate(180) translate(-30 -48)" onmousedown="handlePan(0,1)">
                  <use xlink:href="#rim" fill="#404040">
                        <set attributeName="fill" to="#808080" begin="arrowDown.mouseover" end="arrowDown.mouseout"/>
                  </use>
                  <path fill="none" stroke="white" stroke-width="1.5" d="M0,-3.0v7 M-2.5,-0.5L0,-3.0L2.5,-0.5"/>
                </g>
                <g id="arrowLeft" xlink:href="#dirArrow" transform="rotate(270) translate(-36 17)" onmousedown="handlePan(-1,0)">
                  <use xlink:href="#rim" fill="#404040">
                        <set attributeName="fill" to="#808080" begin="arrowLeft.mouseover" end="arrowLeft.mouseout"/>
                  </use>
                  <path fill="none" stroke="white" stroke-width="1.5" d="M0,-3.0v7 M-2.5,-0.5L0,-3.0L2.5,-0.5"/>
                </g>
        </g>
        <svg viewBox="0 0 15 15" width="100%" height="30px" preserveAspectRatio="xMaxYMin meet">
         <g id="arrow_out" transform="scale(0.3 0.3)">
          <a xlink:href="rpcwallet_8cpp_a8f837f6d506b9719cef93188db00fd3c_icgraph_org.svg" target="_base">
           <rect id="button" ry="5" rx="5" y="6" x="6" height="38" width="38"
                fill="#f2f5e9" fill-opacity="0.5" stroke="#606060" stroke-width="1.0"/>
           <path id="arrow"
             d="M 11.500037,31.436501 C 11.940474,20.09759 22.043105,11.32322 32.158766,21.979434 L 37.068811,17.246167 C 37.068811,17.246167 37.088388,32 37.088388,32 L 22.160133,31.978069 C 22.160133,31.978069 26.997745,27.140456 26.997745,27.140456 C 18.528582,18.264221 13.291696,25.230495 11.500037,31.436501 z"
             style="fill:#404040;"/>
          </a>
         </g>
        </svg>
</svg>
