<?xml version="1.0" encoding="UTF-8" standalone="no"?>
<!DOCTYPE svg PUBLIC "-//W3C//DTD SVG 1.1//EN"
 "http://www.w3.org/Graphics/SVG/1.1/DTD/svg11.dtd">
<!-- Generated by graphviz version 2.38.0 (20140413.2041)
 -->
<!-- Title: src/secp256k1/src/scalar.h Pages: 1 -->
<svg width="1204pt" height="363pt"
 viewBox="0.00 0.00 1203.50 363.00" xmlns="http://www.w3.org/2000/svg" xmlns:xlink="http://www.w3.org/1999/xlink">
<g id="graph0" class="graph" transform="scale(1 1) rotate(0) translate(4 359)">
<title>src/secp256k1/src/scalar.h</title>
<polygon fill="white" stroke="none" points="-4,4 -4,-359 1199.5,-359 1199.5,4 -4,4"/>
<!-- Node2 -->
<g id="node1" class="node"><title>Node2</title>
<polygon fill="#bfbfbf" stroke="black" points="511,-335.5 511,-354.5 654,-354.5 654,-335.5 511,-335.5"/>
<text text-anchor="middle" x="582.5" y="-342.5" font-family="Helvetica,sans-Serif" font-size="10.00">src/secp256k1/src/scalar.h</text>
</g>
<!-- Node3 -->
<g id="node2" class="node"><title>Node3</title>
<g id="a_node2"><a xlink:href="scalar__impl_8h.html" target="_top" xlink:title="src/secp256k1/src/scalar\l_impl.h">
<polygon fill="white" stroke="black" points="297.5,-134.5 297.5,-164.5 431.5,-164.5 431.5,-134.5 297.5,-134.5"/>
<text text-anchor="start" x="305.5" y="-152.5" font-family="Helvetica,sans-Serif" font-size="10.00">src/secp256k1/src/scalar</text>
<text text-anchor="middle" x="364.5" y="-141.5" font-family="Helvetica,sans-Serif" font-size="10.00">_impl.h</text>
</a>
</g>
</g>
<!-- Node2&#45;&gt;Node3 -->
<g id="edge1" class="edge"><title>Node2&#45;&gt;Node3</title>
<path fill="none" stroke="midnightblue" d="M500.611,-336.292C452.059,-329.937 389.96,-318.652 337.5,-299 282.824,-278.518 253.4,-282.733 224.5,-232 204.246,-196.444 252.239,-174.978 297.445,-163.071"/>
<polygon fill="midnightblue" stroke="midnightblue" points="500.398,-339.793 510.758,-337.574 501.275,-332.848 500.398,-339.793"/>
</g>
<!-- Node10 -->
<g id="node9" class="node"><title>Node10</title>
<g id="a_node9"><a xlink:href="ecmult__impl_8h.html" target="_top" xlink:title="src/secp256k1/src/ecmult\l_impl.h">
<polygon fill="white" stroke="black" points="234,-201.5 234,-231.5 373,-231.5 373,-201.5 234,-201.5"/>
<text text-anchor="start" x="242" y="-219.5" font-family="Helvetica,sans-Serif" font-size="10.00">src/secp256k1/src/ecmult</text>
<text text-anchor="middle" x="303.5" y="-208.5" font-family="Helvetica,sans-Serif" font-size="10.00">_impl.h</text>
</a>
</g>
</g>
<!-- Node2&#45;&gt;Node10 -->
<g id="edge10" class="edge"><title>Node2&#45;&gt;Node10</title>
<path fill="none" stroke="midnightblue" d="M500.414,-337.396C461.446,-331.472 415.44,-320.249 378.5,-299 349.331,-282.221 324.994,-250.297 312.513,-231.775"/>
<polygon fill="midnightblue" stroke="midnightblue" points="500.286,-340.913 510.68,-338.861 501.275,-333.983 500.286,-340.913"/>
</g>
<!-- Node11 -->
<g id="node10" class="node"><title>Node11</title>
<g id="a_node10"><a xlink:href="ecmult__const__impl_8h.html" target="_top" xlink:title="src/secp256k1/src/ecmult\l_const_impl.h">
<polygon fill="white" stroke="black" points="98,-134.5 98,-164.5 237,-164.5 237,-134.5 98,-134.5"/>
<text text-anchor="start" x="106" y="-152.5" font-family="Helvetica,sans-Serif" font-size="10.00">src/secp256k1/src/ecmult</text>
<text text-anchor="middle" x="167.5" y="-141.5" font-family="Helvetica,sans-Serif" font-size="10.00">_const_impl.h</text>
</a>
</g>
</g>
<!-- Node2&#45;&gt;Node11 -->
<g id="edge27" class="edge"><title>Node2&#45;&gt;Node11</title>
<path fill="none" stroke="midnightblue" d="M500.728,-341.104C416.126,-336.685 290.944,-325.729 251.5,-299 202.95,-266.1 179.251,-195.259 171.005,-164.847"/>
<polygon fill="midnightblue" stroke="midnightblue" points="500.672,-344.606 510.835,-341.611 501.023,-337.614 500.672,-344.606"/>
</g>
<!-- Node13 -->
<g id="node12" class="node"><title>Node13</title>
<g id="a_node12"><a xlink:href="ecmult_8h.html" target="_top" xlink:title="src/secp256k1/src/ecmult.h">
<polygon fill="white" stroke="black" points="387.5,-274 387.5,-293 535.5,-293 535.5,-274 387.5,-274"/>
<text text-anchor="middle" x="461.5" y="-281" font-family="Helvetica,sans-Serif" font-size="10.00">src/secp256k1/src/ecmult.h</text>
</a>
</g>
</g>
<!-- Node2&#45;&gt;Node13 -->
<g id="edge18" class="edge"><title>Node2&#45;&gt;Node13</title>
<path fill="none" stroke="midnightblue" d="M556.105,-331.021C532.639,-319.482 499.007,-302.943 478.804,-293.009"/>
<polygon fill="midnightblue" stroke="midnightblue" points="554.645,-334.203 565.164,-335.475 557.734,-327.922 554.645,-334.203"/>
</g>
<!-- Node14 -->
<g id="node13" class="node"><title>Node14</title>
<g id="a_node13"><a xlink:href="ecdsa__impl_8h.html" target="_top" xlink:title="src/secp256k1/src/ecdsa\l_impl.h">
<polygon fill="white" stroke="black" points="534.5,-134.5 534.5,-164.5 668.5,-164.5 668.5,-134.5 534.5,-134.5"/>
<text text-anchor="start" x="542.5" y="-152.5" font-family="Helvetica,sans-Serif" font-size="10.00">src/secp256k1/src/ecdsa</text>
<text text-anchor="middle" x="601.5" y="-141.5" font-family="Helvetica,sans-Serif" font-size="10.00">_impl.h</text>
</a>
</g>
</g>
<!-- Node2&#45;&gt;Node14 -->
<g id="edge38" class="edge"><title>Node2&#45;&gt;Node14</title>
<path fill="none" stroke="midnightblue" d="M584.355,-325.106C588.155,-286.406 596.748,-198.89 600.113,-164.63"/>
<polygon fill="midnightblue" stroke="midnightblue" points="580.835,-325.142 583.341,-335.436 587.801,-325.826 580.835,-325.142"/>
</g>
<!-- Node15 -->
<g id="node14" class="node"><title>Node15</title>
<g id="a_node14"><a xlink:href="ecdsa_8h.html" target="_top" xlink:title="src/secp256k1/src/ecdsa.h">
<polygon fill="white" stroke="black" points="430,-207 430,-226 573,-226 573,-207 430,-207"/>
<text text-anchor="middle" x="501.5" y="-214" font-family="Helvetica,sans-Serif" font-size="10.00">src/secp256k1/src/ecdsa.h</text>
</a>
</g>
</g>
<!-- Node2&#45;&gt;Node15 -->
<g id="edge39" class="edge"><title>Node2&#45;&gt;Node15</title>
<path fill="none" stroke="midnightblue" d="M574.986,-326.001C568.033,-310.164 556.92,-286.771 544.5,-268 534.08,-252.25 519.363,-235.955 510.131,-226.276"/>
<polygon fill="midnightblue" stroke="midnightblue" points="571.769,-327.381 578.926,-335.193 578.203,-324.623 571.769,-327.381"/>
</g>
<!-- Node16 -->
<g id="node15" class="node"><title>Node16</title>
<g id="a_node15"><a xlink:href="eckey_8h.html" target="_top" xlink:title="src/secp256k1/src/eckey.h">
<polygon fill="white" stroke="black" points="864,-207 864,-226 1005,-226 1005,-207 864,-207"/>
<text text-anchor="middle" x="934.5" y="-214" font-family="Helvetica,sans-Serif" font-size="10.00">src/secp256k1/src/eckey.h</text>
</a>
</g>
</g>
<!-- Node2&#45;&gt;Node16 -->
<g id="edge40" class="edge"><title>Node2&#45;&gt;Node16</title>
<path fill="none" stroke="midnightblue" d="M664.197,-336.515C710.01,-330.298 767.433,-319.076 815.5,-299 860.326,-280.278 905.552,-243.128 924.829,-226.231"/>
<polygon fill="midnightblue" stroke="midnightblue" points="663.476,-333.079 654.011,-337.841 664.38,-340.021 663.476,-333.079"/>
</g>
<!-- Node17 -->
<g id="node16" class="node"><title>Node17</title>
<g id="a_node16"><a xlink:href="eckey__impl_8h.html" target="_top" xlink:title="src/secp256k1/src/eckey\l_impl.h">
<polygon fill="white" stroke="black" points="817.5,-134.5 817.5,-164.5 951.5,-164.5 951.5,-134.5 817.5,-134.5"/>
<text text-anchor="start" x="825.5" y="-152.5" font-family="Helvetica,sans-Serif" font-size="10.00">src/secp256k1/src/eckey</text>
<text text-anchor="middle" x="884.5" y="-141.5" font-family="Helvetica,sans-Serif" font-size="10.00">_impl.h</text>
</a>
</g>
</g>
<!-- Node2&#45;&gt;Node17 -->
<g id="edge41" class="edge"><title>Node2&#45;&gt;Node17</title>
<path fill="none" stroke="midnightblue" d="M664.292,-335.592C778.497,-321.856 976.106,-290.128 1014.5,-232 1036.01,-199.437 990.326,-177.453 947.311,-164.604"/>
<polygon fill="midnightblue" stroke="midnightblue" points="663.706,-332.136 654.186,-336.786 664.528,-339.088 663.706,-332.136"/>
</g>
<!-- Node18 -->
<g id="node17" class="node"><title>Node18</title>
<g id="a_node17"><a xlink:href="ecmult__const_8h.html" target="_top" xlink:title="src/secp256k1/src/ecmult\l_const.h">
<polygon fill="white" stroke="black" points="0,-201.5 0,-231.5 139,-231.5 139,-201.5 0,-201.5"/>
<text text-anchor="start" x="8" y="-219.5" font-family="Helvetica,sans-Serif" font-size="10.00">src/secp256k1/src/ecmult</text>
<text text-anchor="middle" x="69.5" y="-208.5" font-family="Helvetica,sans-Serif" font-size="10.00">_const.h</text>
</a>
</g>
</g>
<!-- Node2&#45;&gt;Node18 -->
<g id="edge28" class="edge"><title>Node2&#45;&gt;Node18</title>
<path fill="none" stroke="midnightblue" d="M500.618,-341.746C393.724,-337.725 213.221,-326.926 153.5,-299 120.921,-283.766 93.2369,-250.637 79.2533,-231.641"/>
<polygon fill="midnightblue" stroke="midnightblue" points="500.605,-345.248 510.726,-342.114 500.86,-338.252 500.605,-345.248"/>
</g>
<!-- Node19 -->
<g id="node18" class="node"><title>Node19</title>
<g id="a_node18"><a xlink:href="ecmult__gen__impl_8h.html" target="_top" xlink:title="src/secp256k1/src/ecmult\l_gen_impl.h">
<polygon fill="white" stroke="black" points="668,-201.5 668,-231.5 807,-231.5 807,-201.5 668,-201.5"/>
<text text-anchor="start" x="676" y="-219.5" font-family="Helvetica,sans-Serif" font-size="10.00">src/secp256k1/src/ecmult</text>
<text text-anchor="middle" x="737.5" y="-208.5" font-family="Helvetica,sans-Serif" font-size="10.00">_gen_impl.h</text>
</a>
</g>
</g>
<!-- Node2&#45;&gt;Node19 -->
<g id="edge30" class="edge"><title>Node2&#45;&gt;Node19</title>
<path fill="none" stroke="midnightblue" d="M596.704,-327.873C611.332,-311.746 635.217,-286.716 658.5,-268 675.501,-254.334 696.349,-241.138 712.359,-231.665"/>
<polygon fill="midnightblue" stroke="midnightblue" points="594.015,-325.63 589.951,-335.414 599.229,-330.3 594.015,-325.63"/>
</g>
<!-- Node20 -->
<g id="node19" class="node"><title>Node20</title>
<g id="a_node19"><a xlink:href="ecmult__gen_8h.html" target="_top" xlink:title="src/secp256k1/src/ecmult\l_gen.h">
<polygon fill="white" stroke="black" points="668,-268.5 668,-298.5 807,-298.5 807,-268.5 668,-268.5"/>
<text text-anchor="start" x="676" y="-286.5" font-family="Helvetica,sans-Serif" font-size="10.00">src/secp256k1/src/ecmult</text>
<text text-anchor="middle" x="737.5" y="-275.5" font-family="Helvetica,sans-Serif" font-size="10.00">_gen.h</text>
</a>
</g>
</g>
<!-- Node2&#45;&gt;Node20 -->
<g id="edge33" class="edge"><title>Node2&#45;&gt;Node20</title>
<path fill="none" stroke="midnightblue" d="M614.158,-331.847C639.337,-322.182 674.596,-308.647 700.97,-298.523"/>
<polygon fill="midnightblue" stroke="midnightblue" points="612.789,-328.624 604.708,-335.475 615.298,-335.159 612.789,-328.624"/>
</g>
<!-- Node21 -->
<g id="node20" class="node"><title>Node21</title>
<g id="a_node20"><a xlink:href="scalar__low__impl_8h.html" target="_top" xlink:title="src/secp256k1/src/scalar\l_low_impl.h">
<polygon fill="white" stroke="black" points="1061.5,-268.5 1061.5,-298.5 1195.5,-298.5 1195.5,-268.5 1061.5,-268.5"/>
<text text-anchor="start" x="1069.5" y="-286.5" font-family="Helvetica,sans-Serif" font-size="10.00">src/secp256k1/src/scalar</text>
<text text-anchor="middle" x="1128.5" y="-275.5" font-family="Helvetica,sans-Serif" font-size="10.00">_low_impl.h</text>
</a>
</g>
</g>
<!-- Node2&#45;&gt;Node21 -->
<g id="edge42" class="edge"><title>Node2&#45;&gt;Node21</title>
<path fill="none" stroke="midnightblue" d="M664.198,-338.099C757.244,-330.914 913.713,-317.418 1047.5,-299 1052.03,-298.377 1056.69,-297.682 1061.38,-296.945"/>
<polygon fill="midnightblue" stroke="midnightblue" points="663.709,-334.627 654.005,-338.881 664.244,-341.606 663.709,-334.627"/>
</g>
<!-- Node4 -->
<g id="node3" class="node"><title>Node4</title>
<g id="a_node3"><a xlink:href="bench__ecmult_8c.html" target="_top" xlink:title="src/secp256k1/src/bench\l_ecmult.c">
<polygon fill="white" stroke="black" points="382,-0.5 382,-30.5 517,-30.5 517,-0.5 382,-0.5"/>
<text text-anchor="start" x="390" y="-18.5" font-family="Helvetica,sans-Serif" font-size="10.00">src/secp256k1/src/bench</text>
<text text-anchor="middle" x="449.5" y="-7.5" font-family="Helvetica,sans-Serif" font-size="10.00">_ecmult.c</text>
</a>
</g>
</g>
<!-- Node3&#45;&gt;Node4 -->
<g id="edge2" class="edge"><title>Node3&#45;&gt;Node4</title>
<path fill="none" stroke="midnightblue" d="M379.096,-125.834C396.719,-98.4659 425.813,-53.2842 440.469,-30.5247"/>
<polygon fill="midnightblue" stroke="midnightblue" points="376.068,-124.071 373.596,-134.374 381.953,-127.861 376.068,-124.071"/>
</g>
<!-- Node5 -->
<g id="node4" class="node"><title>Node5</title>
<g id="a_node4"><a xlink:href="secp256k1_8c.html" target="_top" xlink:title="src/secp256k1/src/secp256k1.c">
<polygon fill="white" stroke="black" points="619.5,-73 619.5,-92 785.5,-92 785.5,-73 619.5,-73"/>
<text text-anchor="middle" x="702.5" y="-80" font-family="Helvetica,sans-Serif" font-size="10.00">src/secp256k1/src/secp256k1.c</text>
</a>
</g>
</g>
<!-- Node3&#45;&gt;Node5 -->
<g id="edge3" class="edge"><title>Node3&#45;&gt;Node5</title>
<path fill="none" stroke="midnightblue" d="M441.76,-133.642C508.672,-120.775 603.115,-102.612 658.062,-92.0458"/>
<polygon fill="midnightblue" stroke="midnightblue" points="440.841,-130.255 431.682,-135.58 442.163,-137.129 440.841,-130.255"/>
</g>
<!-- Node6 -->
<g id="node5" class="node"><title>Node6</title>
<g id="a_node5"><a xlink:href="bench__internal_8c.html" target="_top" xlink:title="src/secp256k1/src/bench\l_internal.c">
<polygon fill="white" stroke="black" points="211,-0.5 211,-30.5 346,-30.5 346,-0.5 211,-0.5"/>
<text text-anchor="start" x="219" y="-18.5" font-family="Helvetica,sans-Serif" font-size="10.00">src/secp256k1/src/bench</text>
<text text-anchor="middle" x="278.5" y="-7.5" font-family="Helvetica,sans-Serif" font-size="10.00">_internal.c</text>
</a>
</g>
</g>
<!-- Node3&#45;&gt;Node6 -->
<g id="edge8" class="edge"><title>Node3&#45;&gt;Node6</title>
<path fill="none" stroke="midnightblue" d="M349.732,-125.834C331.902,-98.4659 302.465,-53.2842 287.637,-30.5247"/>
<polygon fill="midnightblue" stroke="midnightblue" points="346.905,-127.906 355.296,-134.374 352.77,-124.084 346.905,-127.906"/>
</g>
<!-- Node9 -->
<g id="node8" class="node"><title>Node9</title>
<g id="a_node8"><a xlink:href="gen__context_8c.html" target="_top" xlink:title="src/secp256k1/src/gen\l_context.c">
<polygon fill="white" stroke="black" points="477.5,-67.5 477.5,-97.5 601.5,-97.5 601.5,-67.5 477.5,-67.5"/>
<text text-anchor="start" x="485.5" y="-85.5" font-family="Helvetica,sans-Serif" font-size="10.00">src/secp256k1/src/gen</text>
<text text-anchor="middle" x="539.5" y="-74.5" font-family="Helvetica,sans-Serif" font-size="10.00">_context.c</text>
</a>
</g>
</g>
<!-- Node3&#45;&gt;Node9 -->
<g id="edge9" class="edge"><title>Node3&#45;&gt;Node9</title>
<path fill="none" stroke="midnightblue" d="M412.104,-130.819C440.233,-120.371 475.361,-107.323 501.602,-97.5765"/>
<polygon fill="midnightblue" stroke="midnightblue" points="410.628,-127.633 402.472,-134.396 413.065,-134.195 410.628,-127.633"/>
</g>
<!-- Node5&#45;&gt;Node4 -->
<g id="edge4" class="edge"><title>Node5&#45;&gt;Node4</title>
<path fill="none" stroke="midnightblue" d="M659.327,-70.4081C616.492,-59.4032 550.698,-42.4995 504.223,-30.5592"/>
<polygon fill="midnightblue" stroke="midnightblue" points="658.608,-73.837 669.165,-72.9355 660.35,-67.0572 658.608,-73.837"/>
</g>
<!-- Node5&#45;&gt;Node6 -->
<g id="edge5" class="edge"><title>Node5&#45;&gt;Node6</title>
<path fill="none" stroke="midnightblue" d="M638.439,-71.3511C629.069,-69.8819 619.536,-68.3955 610.5,-67 504.772,-50.6722 478.254,-47.1548 372.5,-31 363.93,-29.6909 354.922,-28.3089 346.016,-26.939"/>
<polygon fill="midnightblue" stroke="midnightblue" points="638.088,-74.8389 648.51,-72.9334 639.174,-67.9237 638.088,-74.8389"/>
</g>
<!-- Node7 -->
<g id="node6" class="node"><title>Node7</title>
<g id="a_node6"><a xlink:href="tests_8c.html" target="_top" xlink:title="src/secp256k1/src/tests.c">
<polygon fill="white" stroke="black" points="584.5,-6 584.5,-25 722.5,-25 722.5,-6 584.5,-6"/>
<text text-anchor="middle" x="653.5" y="-13" font-family="Helvetica,sans-Serif" font-size="10.00">src/secp256k1/src/tests.c</text>
</a>
</g>
</g>
<!-- Node5&#45;&gt;Node7 -->
<g id="edge6" class="edge"><title>Node5&#45;&gt;Node7</title>
<path fill="none" stroke="midnightblue" d="M689.612,-64.4037C680.09,-51.7729 667.525,-35.1041 660.004,-25.1273"/>
<polygon fill="midnightblue" stroke="midnightblue" points="687.077,-66.8554 695.892,-72.7338 692.667,-62.6417 687.077,-66.8554"/>
</g>
<!-- Node8 -->
<g id="node7" class="node"><title>Node8</title>
<g id="a_node7"><a xlink:href="tests__exhaustive_8c.html" target="_top" xlink:title="src/secp256k1/src/tests\l_exhaustive.c">
<polygon fill="white" stroke="black" points="740.5,-0.5 740.5,-30.5 870.5,-30.5 870.5,-0.5 740.5,-0.5"/>
<text text-anchor="start" x="748.5" y="-18.5" font-family="Helvetica,sans-Serif" font-size="10.00">src/secp256k1/src/tests</text>
<text text-anchor="middle" x="805.5" y="-7.5" font-family="Helvetica,sans-Serif" font-size="10.00">_exhaustive.c</text>
</a>
</g>
</g>
<!-- Node5&#45;&gt;Node8 -->
<g id="edge7" class="edge"><title>Node5&#45;&gt;Node8</title>
<path fill="none" stroke="midnightblue" d="M725.235,-67.1526C742.472,-56.2748 766.039,-41.4029 783.174,-30.589"/>
<polygon fill="midnightblue" stroke="midnightblue" points="722.98,-64.437 716.391,-72.7338 726.716,-70.3568 722.98,-64.437"/>
</g>
<!-- Node10&#45;&gt;Node4 -->
<g id="edge11" class="edge"><title>Node10&#45;&gt;Node4</title>
<path fill="none" stroke="midnightblue" d="M383.082,-202.901C405.031,-195.48 426.605,-183.698 440.5,-165 470.541,-124.574 460.038,-59.5727 453.328,-30.8906"/>
<polygon fill="midnightblue" stroke="midnightblue" points="381.854,-199.617 373.336,-205.917 383.924,-206.304 381.854,-199.617"/>
</g>
<!-- Node10&#45;&gt;Node5 -->
<g id="edge12" class="edge"><title>Node10&#45;&gt;Node5</title>
<path fill="none" stroke="midnightblue" d="M374.093,-198.76C405.209,-190.312 441.822,-178.888 473.5,-165 498.142,-154.197 500.8,-144.67 525.5,-134 570.383,-114.612 624.84,-100.36 661.395,-92.0309"/>
<polygon fill="midnightblue" stroke="midnightblue" points="372.957,-195.44 364.196,-201.398 374.76,-202.204 372.957,-195.44"/>
</g>
<!-- Node10&#45;&gt;Node6 -->
<g id="edge17" class="edge"><title>Node10&#45;&gt;Node6</title>
<path fill="none" stroke="midnightblue" d="M295.149,-191.369C292.606,-183.102 290.071,-173.734 288.5,-165 279.716,-116.172 278.483,-57.0546 278.416,-30.5478"/>
<polygon fill="midnightblue" stroke="midnightblue" points="291.895,-192.682 298.301,-201.121 298.555,-190.529 291.895,-192.682"/>
</g>
<!-- Node10&#45;&gt;Node11 -->
<g id="edge13" class="edge"><title>Node10&#45;&gt;Node11</title>
<path fill="none" stroke="midnightblue" d="M264.776,-196.992C243.219,-186.689 216.811,-174.068 196.952,-164.577"/>
<polygon fill="midnightblue" stroke="midnightblue" points="263.458,-200.242 273.99,-201.396 266.477,-193.926 263.458,-200.242"/>
</g>
<!-- Node11&#45;&gt;Node5 -->
<g id="edge14" class="edge"><title>Node11&#45;&gt;Node5</title>
<path fill="none" stroke="midnightblue" d="M247.175,-138.861C260.953,-137.22 275.14,-135.547 288.5,-134 431.547,-117.433 467.785,-117.215 610.5,-98 623.64,-96.2308 637.802,-94.1074 650.982,-92.038"/>
<polygon fill="midnightblue" stroke="midnightblue" points="246.747,-135.387 237.232,-140.048 247.576,-142.338 246.747,-135.387"/>
</g>
<!-- Node11&#45;&gt;Node6 -->
<g id="edge15" class="edge"><title>Node11&#45;&gt;Node6</title>
<path fill="none" stroke="midnightblue" d="M118.619,-129.707C105.157,-122.01 92.1614,-111.629 84.5,-98 77.7488,-85.9897 76.0736,-77.9006 84.5,-67 100.091,-46.8305 161.371,-33.2074 210.941,-25.2435"/>
<polygon fill="midnightblue" stroke="midnightblue" points="117.004,-132.812 127.481,-134.385 120.271,-126.622 117.004,-132.812"/>
</g>
<!-- Node12 -->
<g id="node11" class="node"><title>Node12</title>
<g id="a_node11"><a xlink:href="ecdh_2main__impl_8h.html" target="_top" xlink:title="src/secp256k1/src/modules\l/ecdh/main_impl.h">
<polygon fill="white" stroke="black" points="94,-67.5 94,-97.5 241,-97.5 241,-67.5 94,-67.5"/>
<text text-anchor="start" x="102" y="-85.5" font-family="Helvetica,sans-Serif" font-size="10.00">src/secp256k1/src/modules</text>
<text text-anchor="middle" x="167.5" y="-74.5" font-family="Helvetica,sans-Serif" font-size="10.00">/ecdh/main_impl.h</text>
</a>
</g>
</g>
<!-- Node11&#45;&gt;Node12 -->
<g id="edge16" class="edge"><title>Node11&#45;&gt;Node12</title>
<path fill="none" stroke="midnightblue" d="M167.5,-124.108C167.5,-115.154 167.5,-105.323 167.5,-97.5765"/>
<polygon fill="midnightblue" stroke="midnightblue" points="164,-124.396 167.5,-134.396 171,-124.396 164,-124.396"/>
</g>
<!-- Node13&#45;&gt;Node10 -->
<g id="edge19" class="edge"><title>Node13&#45;&gt;Node10</title>
<path fill="none" stroke="midnightblue" d="M431.256,-270.058C404.491,-259.047 365.465,-242.992 337.599,-231.528"/>
<polygon fill="midnightblue" stroke="midnightblue" points="429.939,-273.301 440.519,-273.869 432.602,-266.827 429.939,-273.301"/>
</g>
<!-- Node13&#45;&gt;Node14 -->
<g id="edge20" class="edge"><title>Node13&#45;&gt;Node14</title>
<path fill="none" stroke="midnightblue" d="M443.577,-266.744C426.236,-249.576 404.72,-221.786 420.5,-201 427.848,-191.321 487.958,-175.802 536.923,-164.519"/>
<polygon fill="midnightblue" stroke="midnightblue" points="441.419,-269.52 451.101,-273.821 446.215,-264.421 441.419,-269.52"/>
</g>
<!-- Node13&#45;&gt;Node15 -->
<g id="edge22" class="edge"><title>Node13&#45;&gt;Node15</title>
<path fill="none" stroke="midnightblue" d="M472.248,-265.035C479.992,-252.45 490.111,-236.007 496.191,-226.127"/>
<polygon fill="midnightblue" stroke="midnightblue" points="469.155,-263.383 466.895,-273.734 475.116,-267.052 469.155,-263.383"/>
</g>
<!-- Node13&#45;&gt;Node16 -->
<g id="edge24" class="edge"><title>Node13&#45;&gt;Node16</title>
<path fill="none" stroke="midnightblue" d="M533.946,-272.544C626.502,-259.825 785.136,-238.026 872.415,-226.032"/>
<polygon fill="midnightblue" stroke="midnightblue" points="533.253,-269.107 523.823,-273.936 534.206,-276.041 533.253,-269.107"/>
</g>
<!-- Node14&#45;&gt;Node5 -->
<g id="edge21" class="edge"><title>Node14&#45;&gt;Node5</title>
<path fill="none" stroke="midnightblue" d="M631.839,-128.975C650.991,-116.649 674.771,-101.345 689.281,-92.007"/>
<polygon fill="midnightblue" stroke="midnightblue" points="629.93,-126.041 623.415,-134.396 633.719,-131.927 629.93,-126.041"/>
</g>
<!-- Node15&#45;&gt;Node14 -->
<g id="edge23" class="edge"><title>Node15&#45;&gt;Node14</title>
<path fill="none" stroke="midnightblue" d="M523.573,-201.153C540.308,-190.275 563.188,-175.403 579.825,-164.589"/>
<polygon fill="midnightblue" stroke="midnightblue" points="521.463,-198.349 514.986,-206.734 525.278,-204.218 521.463,-198.349"/>
</g>
<!-- Node16&#45;&gt;Node17 -->
<g id="edge25" class="edge"><title>Node16&#45;&gt;Node17</title>
<path fill="none" stroke="midnightblue" d="M921.556,-198.673C913.418,-188.094 903.04,-174.602 895.338,-164.589"/>
<polygon fill="midnightblue" stroke="midnightblue" points="918.885,-200.942 927.757,-206.734 924.434,-196.674 918.885,-200.942"/>
</g>
<!-- Node17&#45;&gt;Node5 -->
<g id="edge26" class="edge"><title>Node17&#45;&gt;Node5</title>
<path fill="none" stroke="midnightblue" d="M835.349,-130.946C800,-118.321 753.881,-101.85 726.32,-92.007"/>
<polygon fill="midnightblue" stroke="midnightblue" points="834.414,-134.329 845.009,-134.396 836.768,-127.736 834.414,-134.329"/>
</g>
<!-- Node18&#45;&gt;Node11 -->
<g id="edge29" class="edge"><title>Node18&#45;&gt;Node11</title>
<path fill="none" stroke="midnightblue" d="M99.3016,-195.734C114.466,-185.676 132.545,-173.685 146.277,-164.577"/>
<polygon fill="midnightblue" stroke="midnightblue" points="97.1635,-192.952 90.7645,-201.396 101.033,-198.785 97.1635,-192.952"/>
</g>
<!-- Node19&#45;&gt;Node5 -->
<g id="edge31" class="edge"><title>Node19&#45;&gt;Node5</title>
<path fill="none" stroke="midnightblue" d="M731.088,-191.317C723.149,-161.376 710.033,-111.911 704.78,-92.0973"/>
<polygon fill="midnightblue" stroke="midnightblue" points="727.808,-192.605 733.754,-201.374 734.574,-190.811 727.808,-192.605"/>
</g>
<!-- Node19&#45;&gt;Node9 -->
<g id="edge32" class="edge"><title>Node19&#45;&gt;Node9</title>
<path fill="none" stroke="midnightblue" d="M725.618,-192.617C715.145,-174.462 698.327,-149.62 677.5,-134 654.947,-117.086 626.153,-105.364 600.706,-97.5042"/>
<polygon fill="midnightblue" stroke="midnightblue" points="722.59,-194.373 730.504,-201.417 728.71,-190.975 722.59,-194.373"/>
</g>
<!-- Node20&#45;&gt;Node14 -->
<g id="edge35" class="edge"><title>Node20&#45;&gt;Node14</title>
<path fill="none" stroke="midnightblue" d="M700.997,-263.26C686.826,-254.785 671.027,-244.017 658.5,-232 637.193,-211.56 618.919,-182.063 609.132,-164.728"/>
<polygon fill="midnightblue" stroke="midnightblue" points="699.616,-266.505 710.024,-268.488 703.125,-260.448 699.616,-266.505"/>
</g>
<!-- Node20&#45;&gt;Node16 -->
<g id="edge36" class="edge"><title>Node20&#45;&gt;Node16</title>
<path fill="none" stroke="midnightblue" d="M790.213,-265.108C828.538,-252.462 878.757,-235.892 908.717,-226.007"/>
<polygon fill="midnightblue" stroke="midnightblue" points="788.646,-261.939 780.246,-268.396 790.839,-268.586 788.646,-261.939"/>
</g>
<!-- Node20&#45;&gt;Node17 -->
<g id="edge37" class="edge"><title>Node20&#45;&gt;Node17</title>
<path fill="none" stroke="midnightblue" d="M772.339,-262.985C786.408,-254.349 802.384,-243.537 815.5,-232 839.304,-211.062 862.094,-181.732 874.604,-164.563"/>
<polygon fill="midnightblue" stroke="midnightblue" points="770.196,-260.189 763.418,-268.332 773.795,-266.193 770.196,-260.189"/>
</g>
<!-- Node20&#45;&gt;Node19 -->
<g id="edge34" class="edge"><title>Node20&#45;&gt;Node19</title>
<path fill="none" stroke="midnightblue" d="M737.5,-258.108C737.5,-249.154 737.5,-239.323 737.5,-231.577"/>
<polygon fill="midnightblue" stroke="midnightblue" points="734,-258.396 737.5,-268.396 741,-258.396 734,-258.396"/>
</g>
</g>
</svg>
