<?xml version="1.0" encoding="UTF-8" standalone="no"?>
<!DOCTYPE svg PUBLIC "-//W3C//DTD SVG 1.1//EN"
 "http://www.w3.org/Graphics/SVG/1.1/DTD/svg11.dtd">
<!-- Generated by graphviz version 2.38.0 (20140413.2041)
 -->
<!-- Title: secp256k1_scalar_inverse Pages: 1 -->
<svg width="542pt" height="180pt"
 viewBox="0.00 0.00 542.00 180.00" xmlns="http://www.w3.org/2000/svg" xmlns:xlink="http://www.w3.org/1999/xlink">
<g id="graph0" class="graph" transform="scale(1 1) rotate(0) translate(4 176)">
<title>secp256k1_scalar_inverse</title>
<polygon fill="white" stroke="none" points="-4,4 -4,-176 538,-176 538,4 -4,4"/>
<!-- Node603 -->
<g id="node1" class="node"><title>Node603</title>
<polygon fill="#bfbfbf" stroke="black" points="0,-76.5 0,-95.5 132,-95.5 132,-76.5 0,-76.5"/>
<text text-anchor="middle" x="66" y="-83.5" font-family="Helvetica,sans-Serif" font-size="10.00">secp256k1_scalar_inverse</text>
</g>
<!-- Node604 -->
<g id="node2" class="node"><title>Node604</title>
<g id="a_node2"><a xlink:href="bench__internal_8c.html#a3514e9903b441b8d32d09a56ea1ab203" target="_top" xlink:title="bench_scalar_inverse">
<polygon fill="white" stroke="black" points="181,-152.5 181,-171.5 292,-171.5 292,-152.5 181,-152.5"/>
<text text-anchor="middle" x="236.5" y="-159.5" font-family="Helvetica,sans-Serif" font-size="10.00">bench_scalar_inverse</text>
</a>
</g>
</g>
<!-- Node603&#45;&gt;Node604 -->
<g id="edge1" class="edge"><title>Node603&#45;&gt;Node604</title>
<path fill="none" stroke="midnightblue" d="M92.6838,-100.436C112.827,-111.459 141.751,-126.637 168,-138 180.213,-143.287 194.009,-148.347 205.931,-152.446"/>
<polygon fill="midnightblue" stroke="midnightblue" points="94.266,-97.3116 83.8198,-95.5431 90.8831,-103.44 94.266,-97.3116"/>
</g>
<!-- Node606 -->
<g id="node4" class="node"><title>Node606</title>
<g id="a_node4"><a xlink:href="tests_8c.html#afc29a3cda8faeba097ce967f24fcb9d1" target="_top" xlink:title="run_scalar_tests">
<polygon fill="white" stroke="black" points="356,-76.5 356,-95.5 445,-95.5 445,-76.5 356,-76.5"/>
<text text-anchor="middle" x="400.5" y="-83.5" font-family="Helvetica,sans-Serif" font-size="10.00">run_scalar_tests</text>
</a>
</g>
</g>
<!-- Node603&#45;&gt;Node606 -->
<g id="edge3" class="edge"><title>Node603&#45;&gt;Node606</title>
<path fill="none" stroke="midnightblue" d="M118.185,-97.5384C134.063,-100.601 151.678,-103.478 168,-105 228.626,-110.653 244.41,-111.031 305,-105 323.651,-103.144 344.07,-99.2749 361.14,-95.5099"/>
<polygon fill="midnightblue" stroke="midnightblue" points="118.525,-94.0371 108.033,-95.5109 117.154,-100.902 118.525,-94.0371"/>
</g>
<!-- Node608 -->
<g id="node6" class="node"><title>Node608</title>
<g id="a_node6"><a xlink:href="tests_8c.html#a0ac2e9ed5b8ba27e48fba5150cebfa82" target="_top" xlink:title="scalar_test">
<polygon fill="white" stroke="black" points="204,-76.5 204,-95.5 269,-95.5 269,-76.5 204,-76.5"/>
<text text-anchor="middle" x="236.5" y="-83.5" font-family="Helvetica,sans-Serif" font-size="10.00">scalar_test</text>
</a>
</g>
</g>
<!-- Node603&#45;&gt;Node608 -->
<g id="edge5" class="edge"><title>Node603&#45;&gt;Node608</title>
<path fill="none" stroke="midnightblue" d="M142.356,-86C164.019,-86 186.476,-86 203.91,-86"/>
<polygon fill="midnightblue" stroke="midnightblue" points="142.147,-82.5001 132.146,-86 142.146,-89.5001 142.147,-82.5001"/>
</g>
<!-- Node609 -->
<g id="node7" class="node"><title>Node609</title>
<g id="a_node7"><a xlink:href="ecdsa__impl_8h.html#a3eaa1b23550fa2ccf948e67f2c87a330" target="_top" xlink:title="secp256k1_ecdsa_sig_sign">
<polygon fill="white" stroke="black" points="168,-38.5 168,-57.5 305,-57.5 305,-38.5 168,-38.5"/>
<text text-anchor="middle" x="236.5" y="-45.5" font-family="Helvetica,sans-Serif" font-size="10.00">secp256k1_ecdsa_sig_sign</text>
</a>
</g>
</g>
<!-- Node603&#45;&gt;Node609 -->
<g id="edge7" class="edge"><title>Node603&#45;&gt;Node609</title>
<path fill="none" stroke="midnightblue" d="M119.431,-74.1757C143.187,-68.8184 170.899,-62.5689 193.286,-57.5201"/>
<polygon fill="midnightblue" stroke="midnightblue" points="118.505,-70.7967 109.52,-76.411 120.045,-77.6252 118.505,-70.7967"/>
</g>
<!-- Node610 -->
<g id="node8" class="node"><title>Node610</title>
<g id="a_node8"><a xlink:href="tests_8c.html#abbcb27d1eb13654db9b2e281ffce021e" target="_top" xlink:title="test_ecdsa_edge_cases">
<polygon fill="white" stroke="black" points="175.5,-0.5 175.5,-19.5 297.5,-19.5 297.5,-0.5 175.5,-0.5"/>
<text text-anchor="middle" x="236.5" y="-7.5" font-family="Helvetica,sans-Serif" font-size="10.00">test_ecdsa_edge_cases</text>
</a>
</g>
</g>
<!-- Node603&#45;&gt;Node610 -->
<g id="edge8" class="edge"><title>Node603&#45;&gt;Node610</title>
<path fill="none" stroke="midnightblue" d="M90.1813,-70.7929C110.147,-58.2222 140.074,-40.6128 168,-29 176.656,-25.4006 186.211,-22.2476 195.342,-19.598"/>
<polygon fill="midnightblue" stroke="midnightblue" points="88.0362,-68.0099 81.4924,-76.3424 91.8041,-73.9093 88.0362,-68.0099"/>
</g>
<!-- Node605 -->
<g id="node3" class="node"><title>Node605</title>
<g id="a_node3"><a xlink:href="bench__internal_8c.html#a3c04138a5bfe5d72780bb7e82a18e627" target="_top" xlink:title="main">
<polygon fill="white" stroke="black" points="381.5,-152.5 381.5,-171.5 419.5,-171.5 419.5,-152.5 381.5,-152.5"/>
<text text-anchor="middle" x="400.5" y="-159.5" font-family="Helvetica,sans-Serif" font-size="10.00">main</text>
</a>
</g>
</g>
<!-- Node604&#45;&gt;Node605 -->
<g id="edge2" class="edge"><title>Node604&#45;&gt;Node605</title>
<path fill="none" stroke="midnightblue" d="M302.642,-162C330.994,-162 362.044,-162 381.153,-162"/>
<polygon fill="midnightblue" stroke="midnightblue" points="302.346,-158.5 292.346,-162 302.346,-165.5 302.346,-158.5"/>
</g>
<!-- Node607 -->
<g id="node5" class="node"><title>Node607</title>
<g id="a_node5"><a xlink:href="tests_8c.html#a3c04138a5bfe5d72780bb7e82a18e627" target="_top" xlink:title="main">
<polygon fill="white" stroke="black" points="496,-57.5 496,-76.5 534,-76.5 534,-57.5 496,-57.5"/>
<text text-anchor="middle" x="515" y="-64.5" font-family="Helvetica,sans-Serif" font-size="10.00">main</text>
</a>
</g>
</g>
<!-- Node606&#45;&gt;Node607 -->
<g id="edge4" class="edge"><title>Node606&#45;&gt;Node607</title>
<path fill="none" stroke="midnightblue" d="M455.375,-76.9011C470.023,-74.4272 484.886,-71.917 495.981,-70.0431"/>
<polygon fill="midnightblue" stroke="midnightblue" points="454.595,-73.4832 445.318,-78.5997 455.761,-80.3854 454.595,-73.4832"/>
</g>
<!-- Node608&#45;&gt;Node606 -->
<g id="edge6" class="edge"><title>Node608&#45;&gt;Node606</title>
<path fill="none" stroke="midnightblue" d="M279.435,-86C302.851,-86 331.994,-86 355.704,-86"/>
<polygon fill="midnightblue" stroke="midnightblue" points="279.12,-82.5001 269.12,-86 279.12,-89.5001 279.12,-82.5001"/>
</g>
<!-- Node611 -->
<g id="node9" class="node"><title>Node611</title>
<g id="a_node9"><a xlink:href="tests_8c.html#ad6c8109b62ea1d0ed1b382678a2a08b1" target="_top" xlink:title="run_ecdsa_edge_cases">
<polygon fill="white" stroke="black" points="341,-19.5 341,-38.5 460,-38.5 460,-19.5 341,-19.5"/>
<text text-anchor="middle" x="400.5" y="-26.5" font-family="Helvetica,sans-Serif" font-size="10.00">run_ecdsa_edge_cases</text>
</a>
</g>
</g>
<!-- Node610&#45;&gt;Node611 -->
<g id="edge9" class="edge"><title>Node610&#45;&gt;Node611</title>
<path fill="none" stroke="midnightblue" d="M307.813,-18.2465C318.798,-19.535 330.05,-20.8547 340.742,-22.1087"/>
<polygon fill="midnightblue" stroke="midnightblue" points="308.162,-14.7637 297.823,-17.0749 307.347,-21.716 308.162,-14.7637"/>
</g>
<!-- Node611&#45;&gt;Node607 -->
<g id="edge10" class="edge"><title>Node611&#45;&gt;Node607</title>
<path fill="none" stroke="midnightblue" d="M439.498,-41.8348C458.52,-48.2602 480.666,-55.7406 495.839,-60.8656"/>
<polygon fill="midnightblue" stroke="midnightblue" points="440.483,-38.4733 429.889,-38.589 438.243,-45.1052 440.483,-38.4733"/>
</g>
</g>
</svg>
