<?xml version="1.0" encoding="UTF-8" standalone="no"?>
<!DOCTYPE svg PUBLIC "-//W3C//DTD SVG 1.1//EN"
 "http://www.w3.org/Graphics/SVG/1.1/DTD/svg11.dtd">
<!-- Generated by graphviz version 2.38.0 (20140413.2041)
 -->
<!-- Title: secp256k1_scalar_order_get_num Pages: 1 -->
<svg width="430pt" height="53pt"
 viewBox="0.00 0.00 430.00 52.50" xmlns="http://www.w3.org/2000/svg" xmlns:xlink="http://www.w3.org/1999/xlink">
<g id="graph0" class="graph" transform="scale(1 1) rotate(0) translate(4 48.5)">
<title>secp256k1_scalar_order_get_num</title>
<polygon fill="white" stroke="none" points="-4,4 -4,-48.5 426,-48.5 426,4 -4,4"/>
<!-- Node1600 -->
<g id="node1" class="node"><title>Node1600</title>
<polygon fill="#bfbfbf" stroke="black" points="0,-14 0,-44 122,-44 122,-14 0,-14"/>
<text text-anchor="start" x="8" y="-32" font-family="Helvetica,sans-Serif" font-size="10.00">secp256k1_scalar_order</text>
<text text-anchor="middle" x="61" y="-21" font-family="Helvetica,sans-Serif" font-size="10.00">_get_num</text>
</g>
<!-- Node1601 -->
<g id="node2" class="node"><title>Node1601</title>
<g id="a_node2"><a xlink:href="tests_8c.html#afc29a3cda8faeba097ce967f24fcb9d1" target="_top" xlink:title="run_scalar_tests">
<polygon fill="white" stroke="black" points="259,-19.5 259,-38.5 348,-38.5 348,-19.5 259,-19.5"/>
<text text-anchor="middle" x="303.5" y="-26.5" font-family="Helvetica,sans-Serif" font-size="10.00">run_scalar_tests</text>
</a>
</g>
</g>
<!-- Node1600&#45;&gt;Node1601 -->
<g id="edge1" class="edge"><title>Node1600&#45;&gt;Node1601</title>
<path fill="none" stroke="midnightblue" d="M132.245,-29C173.13,-29 223.399,-29 258.678,-29"/>
<polygon fill="midnightblue" stroke="midnightblue" points="132.068,-25.5001 122.068,-29 132.068,-32.5001 132.068,-25.5001"/>
</g>
<!-- Node1603 -->
<g id="node4" class="node"><title>Node1603</title>
<g id="a_node4"><a xlink:href="tests_8c.html#a0ac2e9ed5b8ba27e48fba5150cebfa82" target="_top" xlink:title="scalar_test">
<polygon fill="white" stroke="black" points="158,-0.5 158,-19.5 223,-19.5 223,-0.5 158,-0.5"/>
<text text-anchor="middle" x="190.5" y="-7.5" font-family="Helvetica,sans-Serif" font-size="10.00">scalar_test</text>
</a>
</g>
</g>
<!-- Node1600&#45;&gt;Node1603 -->
<g id="edge3" class="edge"><title>Node1600&#45;&gt;Node1603</title>
<path fill="none" stroke="midnightblue" d="M132.193,-18.5398C141.176,-17.2012 149.986,-15.8883 157.901,-14.7088"/>
<polygon fill="midnightblue" stroke="midnightblue" points="131.391,-15.1206 122.017,-20.0564 132.423,-22.0441 131.391,-15.1206"/>
</g>
<!-- Node1602 -->
<g id="node3" class="node"><title>Node1602</title>
<g id="a_node3"><a xlink:href="tests_8c.html#a3c04138a5bfe5d72780bb7e82a18e627" target="_top" xlink:title="main">
<polygon fill="white" stroke="black" points="384,-19.5 384,-38.5 422,-38.5 422,-19.5 384,-19.5"/>
<text text-anchor="middle" x="403" y="-26.5" font-family="Helvetica,sans-Serif" font-size="10.00">main</text>
</a>
</g>
</g>
<!-- Node1601&#45;&gt;Node1602 -->
<g id="edge2" class="edge"><title>Node1601&#45;&gt;Node1602</title>
<path fill="none" stroke="midnightblue" d="M358.171,-29C367.409,-29 376.409,-29 383.825,-29"/>
<polygon fill="midnightblue" stroke="midnightblue" points="358.117,-25.5001 348.117,-29 358.117,-32.5001 358.117,-25.5001"/>
</g>
<!-- Node1603&#45;&gt;Node1601 -->
<g id="edge4" class="edge"><title>Node1603&#45;&gt;Node1601</title>
<path fill="none" stroke="midnightblue" d="M233.026,-17.1081C241.472,-18.5537 250.379,-20.0783 258.894,-21.5359"/>
<polygon fill="midnightblue" stroke="midnightblue" points="233.458,-13.6312 223.011,-15.3938 232.277,-20.5309 233.458,-13.6312"/>
</g>
</g>
</svg>
