<?xml version="1.0" encoding="UTF-8" standalone="no"?>
<!DOCTYPE svg PUBLIC "-//W3C//DTD SVG 1.1//EN"
 "http://www.w3.org/Graphics/SVG/1.1/DTD/svg11.dtd">
<!-- Generated by graphviz version 2.38.0 (20140413.2041)
 -->
<!-- Title: secp256k1_schnorr_verify Pages: 1 -->
<svg width="511pt" height="104pt"
 viewBox="0.00 0.00 511.00 104.00" xmlns="http://www.w3.org/2000/svg" xmlns:xlink="http://www.w3.org/1999/xlink">
<g id="graph0" class="graph" transform="scale(1 1) rotate(0) translate(4 100)">
<title>secp256k1_schnorr_verify</title>
<polygon fill="white" stroke="none" points="-4,4 -4,-100 507,-100 507,4 -4,4"/>
<!-- Node92 -->
<g id="node1" class="node"><title>Node92</title>
<polygon fill="#bfbfbf" stroke="black" points="0,-38.5 0,-57.5 131,-57.5 131,-38.5 0,-38.5"/>
<text text-anchor="middle" x="65.5" y="-45.5" font-family="Helvetica,sans-Serif" font-size="10.00">secp256k1_schnorr_verify</text>
</g>
<!-- Node93 -->
<g id="node2" class="node"><title>Node93</title>
<g id="a_node2"><a xlink:href="bench__schnorr__verify_8c.html#a45550cf8aad65472340a81f6f05c6546" target="_top" xlink:title="benchmark_schnorr_verify">
<polygon fill="white" stroke="black" points="167,-76.5 167,-95.5 298,-95.5 298,-76.5 167,-76.5"/>
<text text-anchor="middle" x="232.5" y="-83.5" font-family="Helvetica,sans-Serif" font-size="10.00">benchmark_schnorr_verify</text>
</a>
</g>
</g>
<!-- Node92&#45;&gt;Node93 -->
<g id="edge1" class="edge"><title>Node92&#45;&gt;Node93</title>
<path fill="none" stroke="midnightblue" d="M118.154,-59.8961C141.346,-65.2374 168.338,-71.4537 190.163,-76.4799"/>
<polygon fill="midnightblue" stroke="midnightblue" points="118.667,-56.4226 108.136,-57.589 117.096,-63.2441 118.667,-56.4226"/>
</g>
<!-- Node95 -->
<g id="node4" class="node"><title>Node95</title>
<g id="a_node4"><a xlink:href="schnorr_2tests__impl_8h.html#a0fadfae101d2df588a044f55eafcc0e6" target="_top" xlink:title="test_schnorr_end_to_end">
<polygon fill="white" stroke="black" points="169.5,-38.5 169.5,-57.5 295.5,-57.5 295.5,-38.5 169.5,-38.5"/>
<text text-anchor="middle" x="232.5" y="-45.5" font-family="Helvetica,sans-Serif" font-size="10.00">test_schnorr_end_to_end</text>
</a>
</g>
</g>
<!-- Node92&#45;&gt;Node95 -->
<g id="edge3" class="edge"><title>Node92&#45;&gt;Node95</title>
<path fill="none" stroke="midnightblue" d="M141.338,-48C150.714,-48 160.224,-48 169.377,-48"/>
<polygon fill="midnightblue" stroke="midnightblue" points="141.239,-44.5001 131.239,-48 141.239,-51.5001 141.239,-44.5001"/>
</g>
<!-- Node98 -->
<g id="node7" class="node"><title>Node98</title>
<g id="a_node7"><a xlink:href="schnorr_2tests__impl_8h.html#a7c79e0204a103b99844bdf1b2ac4cb57" target="_top" xlink:title="test_schnorr_threshold">
<polygon fill="white" stroke="black" points="174.5,-0.5 174.5,-19.5 290.5,-19.5 290.5,-0.5 174.5,-0.5"/>
<text text-anchor="middle" x="232.5" y="-7.5" font-family="Helvetica,sans-Serif" font-size="10.00">test_schnorr_threshold</text>
</a>
</g>
</g>
<!-- Node92&#45;&gt;Node98 -->
<g id="edge6" class="edge"><title>Node92&#45;&gt;Node98</title>
<path fill="none" stroke="midnightblue" d="M118.154,-36.1039C141.346,-30.7626 168.338,-24.5463 190.163,-19.5201"/>
<polygon fill="midnightblue" stroke="midnightblue" points="117.096,-32.7559 108.136,-38.411 118.667,-39.5774 117.096,-32.7559"/>
</g>
<!-- Node94 -->
<g id="node3" class="node"><title>Node94</title>
<g id="a_node3"><a xlink:href="bench__schnorr__verify_8c.html#a840291bc02cba5474a4cb46a9b9566fe" target="_top" xlink:title="main">
<polygon fill="white" stroke="black" points="362.5,-76.5 362.5,-95.5 400.5,-95.5 400.5,-76.5 362.5,-76.5"/>
<text text-anchor="middle" x="381.5" y="-83.5" font-family="Helvetica,sans-Serif" font-size="10.00">main</text>
</a>
</g>
</g>
<!-- Node93&#45;&gt;Node94 -->
<g id="edge2" class="edge"><title>Node93&#45;&gt;Node94</title>
<path fill="none" stroke="midnightblue" d="M308.587,-86C328.708,-86 348.67,-86 362.438,-86"/>
<polygon fill="midnightblue" stroke="midnightblue" points="308.404,-82.5001 298.404,-86 308.404,-89.5001 308.404,-82.5001"/>
</g>
<!-- Node96 -->
<g id="node5" class="node"><title>Node96</title>
<g id="a_node5"><a xlink:href="schnorr_2tests__impl_8h.html#a6b31cc8facecda629cf588196a4c936b" target="_top" xlink:title="run_schnorr_tests">
<polygon fill="white" stroke="black" points="334,-19.5 334,-38.5 429,-38.5 429,-19.5 334,-19.5"/>
<text text-anchor="middle" x="381.5" y="-26.5" font-family="Helvetica,sans-Serif" font-size="10.00">run_schnorr_tests</text>
</a>
</g>
</g>
<!-- Node95&#45;&gt;Node96 -->
<g id="edge4" class="edge"><title>Node95&#45;&gt;Node96</title>
<path fill="none" stroke="midnightblue" d="M306.01,-38.628C315.416,-37.4123 324.843,-36.1938 333.676,-35.0521"/>
<polygon fill="midnightblue" stroke="midnightblue" points="305.31,-35.1892 295.841,-39.9423 306.207,-42.1315 305.31,-35.1892"/>
</g>
<!-- Node97 -->
<g id="node6" class="node"><title>Node97</title>
<g id="a_node6"><a xlink:href="tests_8c.html#a3c04138a5bfe5d72780bb7e82a18e627" target="_top" xlink:title="main">
<polygon fill="white" stroke="black" points="465,-19.5 465,-38.5 503,-38.5 503,-19.5 465,-19.5"/>
<text text-anchor="middle" x="484" y="-26.5" font-family="Helvetica,sans-Serif" font-size="10.00">main</text>
</a>
</g>
</g>
<!-- Node96&#45;&gt;Node97 -->
<g id="edge5" class="edge"><title>Node96&#45;&gt;Node97</title>
<path fill="none" stroke="midnightblue" d="M439.352,-29C448.636,-29 457.614,-29 464.989,-29"/>
<polygon fill="midnightblue" stroke="midnightblue" points="439.219,-25.5001 429.219,-29 439.219,-32.5001 439.219,-25.5001"/>
</g>
<!-- Node98&#45;&gt;Node96 -->
<g id="edge7" class="edge"><title>Node98&#45;&gt;Node96</title>
<path fill="none" stroke="midnightblue" d="M300.842,-18.7041C311.915,-20.1353 323.176,-21.5907 333.609,-22.9393"/>
<polygon fill="midnightblue" stroke="midnightblue" points="301.121,-15.2111 290.755,-17.4003 300.224,-22.1534 301.121,-15.2111"/>
</g>
</g>
</svg>
