<?xml version="1.0" encoding="UTF-8" standalone="no"?>
<!DOCTYPE svg PUBLIC "-//W3C//DTD SVG 1.1//EN"
 "http://www.w3.org/Graphics/SVG/1.1/DTD/svg11.dtd">
<!-- Generated by graphviz version 2.38.0 (20140413.2041)
 -->
<!-- Title: secp256k1_ecdh Pages: 1 -->
<!--zoomable 446 -->
<svg id="main" version="1.1" xmlns="http://www.w3.org/2000/svg" xmlns:xlink="http://www.w3.org/1999/xlink" xml:space="preserve" onload="init(evt)">
<style type="text/css"><![CDATA[
.edge:hover path { stroke: red; }
.edge:hover polygon { stroke: red; fill: red; }
]]></style>
<script type="text/javascript"><![CDATA[
var edges = document.getElementsByTagName('g');
if (edges && edges.length) {
  for (var i=0;i<edges.length;i++) {
    if (edges[i].id.substr(0,4)=='edge') {
      edges[i].setAttribute('class','edge');
    }
  }
}
]]></script>
        <defs>
                <circle id="rim" cx="0" cy="0" r="7"/>
                <circle id="rim2" cx="0" cy="0" r="3.5"/>
                <g id="zoomPlus">
                        <use xlink:href="#rim" fill="#404040">
                                <set attributeName="fill" to="#808080" begin="zoomplus.mouseover" end="zoomplus.mouseout"/>
                        </use>
                        <path d="M-4,0h8M0,-4v8" fill="none" stroke="white" stroke-width="1.5" pointer-events="none"/>
                </g>
                <g id="zoomMin">
                        <use xlink:href="#rim" fill="#404040">
                                <set attributeName="fill" to="#808080" begin="zoomminus.mouseover" end="zoomminus.mouseout"/>
                        </use>
                        <path d="M-4,0h8" fill="none" stroke="white" stroke-width="1.5" pointer-events="none"/>
                </g>
                <g id="dirArrow">
                        <path fill="none" stroke="white" stroke-width="1.5" d="M0,-3.0v7 M-2.5,-0.5L0,-3.0L2.5,-0.5"/>
                </g>
               <g id="resetDef">
                       <use xlink:href="#rim2" fill="#404040">
                               <set attributeName="fill" to="#808080" begin="reset.mouseover" end="reset.mouseout"/>
                       </use>
               </g>
        </defs>

<script type="text/javascript">
var viewWidth = 551;
var viewHeight = 446;
var sectionId = 'dynsection-2';
</script>
<script xlink:href="svgpan.js"/>
<svg id="graph" class="graph">
<g id="viewport">
<title>secp256k1_ecdh</title>
<polygon fill="white" stroke="none" points="-4,4 -4,-442 547,-442 547,4 -4,4"/>
<!-- Node0 -->
<g id="node1" class="node"><title>Node0</title>
<polygon fill="#bfbfbf" stroke="black" points="0,-209.5 0,-228.5 90,-228.5 90,-209.5 0,-209.5"/>
<text text-anchor="middle" x="45" y="-216.5" font-family="Helvetica,sans-Serif" font-size="10.00">secp256k1_ecdh</text>
</g>
<!-- Node1 -->
<g id="node2" class="node"><title>Node1</title>
<g id="a_node2"><a xlink:href="ecmult__const_8h.html#a91d964b6d73b3bc6dbb913b4b2307288" target="_top" xlink:title="secp256k1_ecmult_const">
<polygon fill="white" stroke="black" points="132.5,-418.5 132.5,-437.5 260.5,-437.5 260.5,-418.5 132.5,-418.5"/>
<text text-anchor="middle" x="196.5" y="-425.5" font-family="Helvetica,sans-Serif" font-size="10.00">secp256k1_ecmult_const</text>
</a>
</g>
</g>
<!-- Node0&#45;&gt;Node1 -->
<g id="edge1" class="edge"><title>Node0&#45;&gt;Node1</title>
<path fill="none" stroke="midnightblue" d="M47.1019,-228.588C51.1952,-259.666 68.3955,-358.521 126,-409 127.934,-410.695 130.007,-412.241 132.182,-413.649"/>
<polygon fill="midnightblue" stroke="midnightblue" points="130.549,-416.746 141.009,-418.434 133.885,-410.592 130.549,-416.746"/>
</g>
<!-- Node2 -->
<g id="node3" class="node"><title>Node2</title>
<g id="a_node3"><a xlink:href="field_8h.html#abb1017649be14b9ac1823be3c573e542" target="_top" xlink:title="Convert a field element to a 32&#45;byte big endian value. ">
<polygon fill="white" stroke="black" points="138,-380.5 138,-399.5 255,-399.5 255,-380.5 138,-380.5"/>
<text text-anchor="middle" x="196.5" y="-387.5" font-family="Helvetica,sans-Serif" font-size="10.00">secp256k1_fe_get_b32</text>
</a>
</g>
</g>
<!-- Node0&#45;&gt;Node2 -->
<g id="edge2" class="edge"><title>Node0&#45;&gt;Node2</title>
<path fill="none" stroke="midnightblue" d="M48.1855,-228.543C54.8347,-255.36 77.4042,-331.976 126,-371 128.286,-372.836 130.736,-374.494 133.3,-375.993"/>
<polygon fill="midnightblue" stroke="midnightblue" points="131.877,-379.194 142.391,-380.499 134.985,-372.922 131.877,-379.194"/>
</g>
<!-- Node3 -->
<g id="node4" class="node"><title>Node3</title>
<g id="a_node4"><a xlink:href="field_8h.html#a4657d3eea1cc59c7a20cc2d19663bf02" target="_top" xlink:title="Check the &quot;oddness&quot; of a field element. ">
<polygon fill="white" stroke="black" points="141,-342.5 141,-361.5 252,-361.5 252,-342.5 141,-342.5"/>
<text text-anchor="middle" x="196.5" y="-349.5" font-family="Helvetica,sans-Serif" font-size="10.00">secp256k1_fe_is_odd</text>
</a>
</g>
</g>
<!-- Node0&#45;&gt;Node3 -->
<g id="edge3" class="edge"><title>Node0&#45;&gt;Node3</title>
<path fill="none" stroke="midnightblue" d="M49.9863,-228.654C59.6006,-250.71 86.246,-305.045 126,-333 128.849,-335.003 131.9,-336.796 135.077,-338.399"/>
<polygon fill="midnightblue" stroke="midnightblue" points="133.729,-341.63 144.293,-342.437 136.538,-335.218 133.729,-341.63"/>
</g>
<!-- Node4 -->
<g id="node5" class="node"><title>Node4</title>
<g id="a_node5"><a xlink:href="field_8h.html#a8e925e94d5a7330d2ae68f6642d0c7b9" target="_top" xlink:title="Field element module. ">
<polygon fill="white" stroke="black" points="134,-304.5 134,-323.5 259,-323.5 259,-304.5 134,-304.5"/>
<text text-anchor="middle" x="196.5" y="-311.5" font-family="Helvetica,sans-Serif" font-size="10.00">secp256k1_fe_normalize</text>
</a>
</g>
</g>
<!-- Node0&#45;&gt;Node4 -->
<g id="edge4" class="edge"><title>Node0&#45;&gt;Node4</title>
<path fill="none" stroke="midnightblue" d="M53.5011,-228.753C66.4908,-244.964 94.7931,-277.408 126,-295 129.969,-297.237 134.215,-299.222 138.579,-300.982"/>
<polygon fill="midnightblue" stroke="midnightblue" points="137.667,-304.374 148.261,-304.484 140.048,-297.791 137.667,-304.374"/>
</g>
<!-- Node5 -->
<g id="node6" class="node"><title>Node5</title>
<g id="a_node6"><a xlink:href="group_8h.html#aa511eebf8cd7419763f06555ed4fb62d" target="_top" xlink:title="Set a group element equal to another which is given in jacobian coordinates. ">
<polygon fill="white" stroke="black" points="138.5,-266.5 138.5,-285.5 254.5,-285.5 254.5,-266.5 138.5,-266.5"/>
<text text-anchor="middle" x="196.5" y="-273.5" font-family="Helvetica,sans-Serif" font-size="10.00">secp256k1_ge_set_gej</text>
</a>
</g>
</g>
<!-- Node0&#45;&gt;Node5 -->
<g id="edge5" class="edge"><title>Node0&#45;&gt;Node5</title>
<path fill="none" stroke="midnightblue" d="M63.7183,-228.532C79.6753,-236.844 103.943,-248.819 126,-257 132.383,-259.367 139.192,-261.587 145.959,-263.614"/>
<polygon fill="midnightblue" stroke="midnightblue" points="145.21,-267.04 155.788,-266.442 147.146,-260.313 145.21,-267.04"/>
</g>
<!-- Node6 -->
<g id="node7" class="node"><title>Node6</title>
<g id="a_node7"><a xlink:href="secp256k1_8c.html#a9966ec041e71010d1593ae2211ffb843" target="_top" xlink:title="secp256k1_pubkey_load">
<polygon fill="white" stroke="black" points="134.5,-228.5 134.5,-247.5 258.5,-247.5 258.5,-228.5 134.5,-228.5"/>
<text text-anchor="middle" x="196.5" y="-235.5" font-family="Helvetica,sans-Serif" font-size="10.00">secp256k1_pubkey_load</text>
</a>
</g>
</g>
<!-- Node0&#45;&gt;Node6 -->
<g id="edge6" class="edge"><title>Node0&#45;&gt;Node6</title>
<path fill="none" stroke="midnightblue" d="M90.0463,-224.598C100.772,-225.961 112.518,-227.454 124.153,-228.933"/>
<polygon fill="midnightblue" stroke="midnightblue" points="123.96,-232.436 134.322,-230.225 124.843,-225.492 123.96,-232.436"/>
</g>
<!-- Node13 -->
<g id="node14" class="node"><title>Node13</title>
<g id="a_node14"><a xlink:href="scalar_8h.html#ad8fb9bc2a828903963bf37806d8edd11" target="_top" xlink:title="Clear a scalar to prevent the leak of sensitive data. ">
<polygon fill="white" stroke="black" points="135.5,-190.5 135.5,-209.5 257.5,-209.5 257.5,-190.5 135.5,-190.5"/>
<text text-anchor="middle" x="196.5" y="-197.5" font-family="Helvetica,sans-Serif" font-size="10.00">secp256k1_scalar_clear</text>
</a>
</g>
</g>
<!-- Node0&#45;&gt;Node13 -->
<g id="edge13" class="edge"><title>Node0&#45;&gt;Node13</title>
<path fill="none" stroke="midnightblue" d="M90.0463,-213.402C101.149,-211.991 113.346,-210.441 125.382,-208.911"/>
<polygon fill="midnightblue" stroke="midnightblue" points="125.947,-212.368 135.426,-207.635 125.065,-205.424 125.947,-212.368"/>
</g>
<!-- Node14 -->
<g id="node15" class="node"><title>Node14</title>
<g id="a_node15"><a xlink:href="scalar_8h.html#a3f0ac84fe49a1c1f51212582a2c149d4" target="_top" xlink:title="Check whether a scalar equals zero. ">
<polygon fill="white" stroke="black" points="130.5,-152.5 130.5,-171.5 262.5,-171.5 262.5,-152.5 130.5,-152.5"/>
<text text-anchor="middle" x="196.5" y="-159.5" font-family="Helvetica,sans-Serif" font-size="10.00">secp256k1_scalar_is_zero</text>
</a>
</g>
</g>
<!-- Node0&#45;&gt;Node14 -->
<g id="edge14" class="edge"><title>Node0&#45;&gt;Node14</title>
<path fill="none" stroke="midnightblue" d="M63.7183,-209.468C79.6753,-201.156 103.943,-189.181 126,-181 132.383,-178.633 139.192,-176.413 145.959,-174.386"/>
<polygon fill="midnightblue" stroke="midnightblue" points="147.146,-177.687 155.788,-171.558 145.21,-170.96 147.146,-177.687"/>
</g>
<!-- Node15 -->
<g id="node16" class="node"><title>Node15</title>
<g id="a_node16"><a xlink:href="scalar_8h.html#a25cc2d45ae1d1765d07c3313cdf46fa0" target="_top" xlink:title="Set a scalar from a big endian byte array. ">
<polygon fill="white" stroke="black" points="129,-114.5 129,-133.5 264,-133.5 264,-114.5 129,-114.5"/>
<text text-anchor="middle" x="196.5" y="-121.5" font-family="Helvetica,sans-Serif" font-size="10.00">secp256k1_scalar_set_b32</text>
</a>
</g>
</g>
<!-- Node0&#45;&gt;Node15 -->
<g id="edge15" class="edge"><title>Node0&#45;&gt;Node15</title>
<path fill="none" stroke="midnightblue" d="M53.5011,-209.247C66.4908,-193.036 94.7931,-160.592 126,-143 129.969,-140.763 134.215,-138.778 138.579,-137.018"/>
<polygon fill="midnightblue" stroke="midnightblue" points="140.048,-140.209 148.261,-133.516 137.667,-133.626 140.048,-140.209"/>
</g>
<!-- Node16 -->
<g id="node17" class="node"><title>Node16</title>
<g id="a_node17"><a xlink:href="secp256k1_2src_2hash_8h.html#ab88a555e2b13d6d06e20a6a459abae08" target="_top" xlink:title="secp256k1_sha256_finalize">
<polygon fill="white" stroke="black" points="128,-76.5 128,-95.5 265,-95.5 265,-76.5 128,-76.5"/>
<text text-anchor="middle" x="196.5" y="-83.5" font-family="Helvetica,sans-Serif" font-size="10.00">secp256k1_sha256_finalize</text>
</a>
</g>
</g>
<!-- Node0&#45;&gt;Node16 -->
<g id="edge16" class="edge"><title>Node0&#45;&gt;Node16</title>
<path fill="none" stroke="midnightblue" d="M49.9863,-209.346C59.6006,-187.29 86.246,-132.955 126,-105 128.849,-102.997 131.9,-101.204 135.077,-99.6006"/>
<polygon fill="midnightblue" stroke="midnightblue" points="136.538,-102.782 144.293,-95.5629 133.729,-96.3698 136.538,-102.782"/>
</g>
<!-- Node17 -->
<g id="node18" class="node"><title>Node17</title>
<g id="a_node18"><a xlink:href="secp256k1_2src_2hash_8h.html#abcb6a95ed605c2bfb19eda1ced4a8f7e" target="_top" xlink:title="secp256k1_sha256_initialize">
<polygon fill="white" stroke="black" points="126,-38.5 126,-57.5 267,-57.5 267,-38.5 126,-38.5"/>
<text text-anchor="middle" x="196.5" y="-45.5" font-family="Helvetica,sans-Serif" font-size="10.00">secp256k1_sha256_initialize</text>
</a>
</g>
</g>
<!-- Node0&#45;&gt;Node17 -->
<g id="edge17" class="edge"><title>Node0&#45;&gt;Node17</title>
<path fill="none" stroke="midnightblue" d="M48.1855,-209.457C54.8347,-182.64 77.4042,-106.024 126,-67 128.286,-65.1643 130.736,-63.5055 133.3,-62.0066"/>
<polygon fill="midnightblue" stroke="midnightblue" points="134.985,-65.078 142.391,-57.5015 131.877,-58.8059 134.985,-65.078"/>
</g>
<!-- Node18 -->
<g id="node19" class="node"><title>Node18</title>
<g id="a_node19"><a xlink:href="secp256k1_2src_2hash_8h.html#adfccd8d918a52e1cec42ea89a4c3f8ab" target="_top" xlink:title="secp256k1_sha256_write">
<polygon fill="white" stroke="black" points="133,-0.5 133,-19.5 260,-19.5 260,-0.5 133,-0.5"/>
<text text-anchor="middle" x="196.5" y="-7.5" font-family="Helvetica,sans-Serif" font-size="10.00">secp256k1_sha256_write</text>
</a>
</g>
</g>
<!-- Node0&#45;&gt;Node18 -->
<g id="edge18" class="edge"><title>Node0&#45;&gt;Node18</title>
<path fill="none" stroke="midnightblue" d="M47.1019,-209.412C51.1952,-178.334 68.3955,-79.4789 126,-29 127.934,-27.3048 130.007,-25.7594 132.182,-24.3506"/>
<polygon fill="midnightblue" stroke="midnightblue" points="133.885,-27.4085 141.009,-19.5662 130.549,-21.2543 133.885,-27.4085"/>
</g>
<!-- Node7 -->
<g id="node8" class="node"><title>Node7</title>
<g id="a_node8"><a xlink:href="glibc__compat_8cpp.html#a0f46826ab0466591e136db24394923cf" target="_top" xlink:title="memcpy">
<polygon fill="white" stroke="black" points="347,-304.5 347,-323.5 401,-323.5 401,-304.5 347,-304.5"/>
<text text-anchor="middle" x="374" y="-311.5" font-family="Helvetica,sans-Serif" font-size="10.00">memcpy</text>
</a>
</g>
</g>
<!-- Node6&#45;&gt;Node7 -->
<g id="edge7" class="edge"><title>Node6&#45;&gt;Node7</title>
<path fill="none" stroke="midnightblue" d="M246.014,-247.576C253.323,-250.051 260.561,-253.144 267,-257 286.958,-268.954 283.031,-283.064 303,-295 313.179,-301.084 325.341,-305.263 336.651,-308.115"/>
<polygon fill="midnightblue" stroke="midnightblue" points="336.191,-311.599 346.716,-310.378 337.727,-304.77 336.191,-311.599"/>
</g>
<!-- Node9 -->
<g id="node10" class="node"><title>Node9</title>
<g id="a_node10"><a xlink:href="group_8h.html#a8c1e7f328284d9ba56404bb8d99bf765" target="_top" xlink:title="Convert a group element back from the storage type. ">
<polygon fill="white" stroke="black" points="303,-266.5 303,-285.5 445,-285.5 445,-266.5 303,-266.5"/>
<text text-anchor="middle" x="374" y="-273.5" font-family="Helvetica,sans-Serif" font-size="10.00">secp256k1_ge_from_storage</text>
</a>
</g>
</g>
<!-- Node6&#45;&gt;Node9 -->
<g id="edge9" class="edge"><title>Node6&#45;&gt;Node9</title>
<path fill="none" stroke="midnightblue" d="M241.786,-247.589C265.258,-252.671 294.281,-258.955 319.058,-264.32"/>
<polygon fill="midnightblue" stroke="midnightblue" points="318.518,-267.784 329.032,-266.48 320,-260.943 318.518,-267.784"/>
</g>
<!-- Node10 -->
<g id="node11" class="node"><title>Node10</title>
<g id="a_node11"><a xlink:href="field_8h.html#a5c86a65052e3b135919c00fe2233a43d" target="_top" xlink:title="Set a field element equal to 32&#45;byte big endian value. ">
<polygon fill="white" stroke="black" points="315.5,-228.5 315.5,-247.5 432.5,-247.5 432.5,-228.5 315.5,-228.5"/>
<text text-anchor="middle" x="374" y="-235.5" font-family="Helvetica,sans-Serif" font-size="10.00">secp256k1_fe_set_b32</text>
</a>
</g>
</g>
<!-- Node6&#45;&gt;Node10 -->
<g id="edge10" class="edge"><title>Node6&#45;&gt;Node10</title>
<path fill="none" stroke="midnightblue" d="M258.881,-238C273.819,-238 289.881,-238 305.102,-238"/>
<polygon fill="midnightblue" stroke="midnightblue" points="305.482,-241.5 315.482,-238 305.482,-234.5 305.482,-241.5"/>
</g>
<!-- Node11 -->
<g id="node12" class="node"><title>Node11</title>
<g id="a_node12"><a xlink:href="group_8h.html#a34ab3d1a9a0a7ff0ed1cedff9db5f73c" target="_top" xlink:title="Set a group element equal to the point with given X and Y coordinates. ">
<polygon fill="white" stroke="black" points="317,-190.5 317,-209.5 431,-209.5 431,-190.5 317,-190.5"/>
<text text-anchor="middle" x="374" y="-197.5" font-family="Helvetica,sans-Serif" font-size="10.00">secp256k1_ge_set_xy</text>
</a>
</g>
</g>
<!-- Node6&#45;&gt;Node11 -->
<g id="edge11" class="edge"><title>Node6&#45;&gt;Node11</title>
<path fill="none" stroke="midnightblue" d="M241.786,-228.411C265.258,-223.329 294.281,-217.045 319.058,-211.68"/>
<polygon fill="midnightblue" stroke="midnightblue" points="320,-215.057 329.032,-209.52 318.518,-208.216 320,-215.057"/>
</g>
<!-- Node12 -->
<g id="node13" class="node"><title>Node12</title>
<g id="a_node13"><a xlink:href="field_8h.html#a619ec4805df6cc54d70e6682ceebd098" target="_top" xlink:title="Verify whether a field element is zero. ">
<polygon fill="white" stroke="black" points="317,-152.5 317,-171.5 431,-171.5 431,-152.5 317,-152.5"/>
<text text-anchor="middle" x="374" y="-159.5" font-family="Helvetica,sans-Serif" font-size="10.00">secp256k1_fe_is_zero</text>
</a>
</g>
</g>
<!-- Node6&#45;&gt;Node12 -->
<g id="edge12" class="edge"><title>Node6&#45;&gt;Node12</title>
<path fill="none" stroke="midnightblue" d="M246.014,-228.424C253.323,-225.949 260.561,-222.856 267,-219 286.958,-207.046 283.031,-192.936 303,-181 306.648,-178.82 310.551,-176.884 314.578,-175.166"/>
<polygon fill="midnightblue" stroke="midnightblue" points="316.028,-178.359 324.138,-171.541 313.547,-171.814 316.028,-178.359"/>
</g>
<!-- Node8 -->
<g id="node9" class="node"><title>Node8</title>
<g id="a_node9"><a xlink:href="glibc__compat_8cpp.html#a9778d49e9029dd75bc53ecbbf9f5e9a1" target="_top" xlink:title="memmove">
<polygon fill="white" stroke="black" points="481,-304.5 481,-323.5 543,-323.5 543,-304.5 481,-304.5"/>
<text text-anchor="middle" x="512" y="-311.5" font-family="Helvetica,sans-Serif" font-size="10.00">memmove</text>
</a>
</g>
</g>
<!-- Node7&#45;&gt;Node8 -->
<g id="edge8" class="edge"><title>Node7&#45;&gt;Node8</title>
<path fill="none" stroke="midnightblue" d="M401.222,-314C420.813,-314 447.957,-314 470.351,-314"/>
<polygon fill="midnightblue" stroke="midnightblue" points="470.585,-317.5 480.585,-314 470.585,-310.5 470.585,-317.5"/>
</g>
</g>
</svg>
        <g id="navigator" transform="translate(0 0)" fill="#404254">
                <rect fill="#f2f5e9" fill-opacity="0.5" stroke="#606060" stroke-width=".5" x="0" y="0" width="60" height="60"/>
                <use id="zoomplus" xlink:href="#zoomPlus" x="17" y="9" onmousedown="handleZoom(evt,'in')"/>
                <use id="zoomminus" xlink:href="#zoomMin" x="42" y="9" onmousedown="handleZoom(evt,'out')"/>
                <use id="reset" xlink:href="#resetDef" x="30" y="36" onmousedown="handleReset()"/>
                <g id="arrowUp" xlink:href="#dirArrow" transform="translate(30 24)" onmousedown="handlePan(0,-1)">
                  <use xlink:href="#rim" fill="#404040">
                        <set attributeName="fill" to="#808080" begin="arrowUp.mouseover" end="arrowUp.mouseout"/>
                  </use>
                  <path fill="none" stroke="white" stroke-width="1.5" d="M0,-3.0v7 M-2.5,-0.5L0,-3.0L2.5,-0.5"/>
                </g>
                <g id="arrowRight" xlink:href="#dirArrow" transform="rotate(90) translate(36 -43)" onmousedown="handlePan(1,0)">
                  <use xlink:href="#rim" fill="#404040">
                        <set attributeName="fill" to="#808080" begin="arrowRight.mouseover" end="arrowRight.mouseout"/>
                  </use>
                  <path fill="none" stroke="white" stroke-width="1.5" d="M0,-3.0v7 M-2.5,-0.5L0,-3.0L2.5,-0.5"/>
                </g>
                <g id="arrowDown" xlink:href="#dirArrow" transform="rotate(180) translate(-30 -48)" onmousedown="handlePan(0,1)">
                  <use xlink:href="#rim" fill="#404040">
                        <set attributeName="fill" to="#808080" begin="arrowDown.mouseover" end="arrowDown.mouseout"/>
                  </use>
                  <path fill="none" stroke="white" stroke-width="1.5" d="M0,-3.0v7 M-2.5,-0.5L0,-3.0L2.5,-0.5"/>
                </g>
                <g id="arrowLeft" xlink:href="#dirArrow" transform="rotate(270) translate(-36 17)" onmousedown="handlePan(-1,0)">
                  <use xlink:href="#rim" fill="#404040">
                        <set attributeName="fill" to="#808080" begin="arrowLeft.mouseover" end="arrowLeft.mouseout"/>
                  </use>
                  <path fill="none" stroke="white" stroke-width="1.5" d="M0,-3.0v7 M-2.5,-0.5L0,-3.0L2.5,-0.5"/>
                </g>
        </g>
        <svg viewBox="0 0 15 15" width="100%" height="30px" preserveAspectRatio="xMaxYMin meet">
         <g id="arrow_out" transform="scale(0.3 0.3)">
          <a xlink:href="secp256k1__ecdh_8h_a4b0ce331dd8a723475e934aa6461b75a_cgraph_org.svg" target="_base">
           <rect id="button" ry="5" rx="5" y="6" x="6" height="38" width="38"
                fill="#f2f5e9" fill-opacity="0.5" stroke="#606060" stroke-width="1.0"/>
           <path id="arrow"
             d="M 11.500037,31.436501 C 11.940474,20.09759 22.043105,11.32322 32.158766,21.979434 L 37.068811,17.246167 C 37.068811,17.246167 37.088388,32 37.088388,32 L 22.160133,31.978069 C 22.160133,31.978069 26.997745,27.140456 26.997745,27.140456 C 18.528582,18.264221 13.291696,25.230495 11.500037,31.436501 z"
             style="fill:#404040;"/>
          </a>
         </g>
        </svg>
</svg>
