<?xml version="1.0" encoding="UTF-8" standalone="no"?>
<!DOCTYPE svg PUBLIC "-//W3C//DTD SVG 1.1//EN"
 "http://www.w3.org/Graphics/SVG/1.1/DTD/svg11.dtd">
<!-- Generated by graphviz version 2.38.0 (20140413.2041)
 -->
<!-- Title: src/secp256k1/src/hash.h Pages: 1 -->
<!--zoomable 296 -->
<svg id="main" version="1.1" xmlns="http://www.w3.org/2000/svg" xmlns:xlink="http://www.w3.org/1999/xlink" xml:space="preserve" onload="init(evt)">
<style type="text/css"><![CDATA[
.edge:hover path { stroke: red; }
.edge:hover polygon { stroke: red; fill: red; }
]]></style>
<script type="text/javascript"><![CDATA[
var edges = document.getElementsByTagName('g');
if (edges && edges.length) {
  for (var i=0;i<edges.length;i++) {
    if (edges[i].id.substr(0,4)=='edge') {
      edges[i].setAttribute('class','edge');
    }
  }
}
]]></script>
        <defs>
                <circle id="rim" cx="0" cy="0" r="7"/>
                <circle id="rim2" cx="0" cy="0" r="3.5"/>
                <g id="zoomPlus">
                        <use xlink:href="#rim" fill="#404040">
                                <set attributeName="fill" to="#808080" begin="zoomplus.mouseover" end="zoomplus.mouseout"/>
                        </use>
                        <path d="M-4,0h8M0,-4v8" fill="none" stroke="white" stroke-width="1.5" pointer-events="none"/>
                </g>
                <g id="zoomMin">
                        <use xlink:href="#rim" fill="#404040">
                                <set attributeName="fill" to="#808080" begin="zoomminus.mouseover" end="zoomminus.mouseout"/>
                        </use>
                        <path d="M-4,0h8" fill="none" stroke="white" stroke-width="1.5" pointer-events="none"/>
                </g>
                <g id="dirArrow">
                        <path fill="none" stroke="white" stroke-width="1.5" d="M0,-3.0v7 M-2.5,-0.5L0,-3.0L2.5,-0.5"/>
                </g>
               <g id="resetDef">
                       <use xlink:href="#rim2" fill="#404040">
                               <set attributeName="fill" to="#808080" begin="reset.mouseover" end="reset.mouseout"/>
                       </use>
               </g>
        </defs>

<script type="text/javascript">
var viewWidth = 916;
var viewHeight = 296;
var sectionId = 'dynsection-1';
</script>
<script xlink:href="svgpan.js"/>
<svg id="graph" class="graph">
<g id="viewport">
<title>src/secp256k1/src/hash.h</title>
<polygon fill="white" stroke="none" points="-4,4 -4,-292 912,-292 912,4 -4,4"/>
<!-- Node3 -->
<g id="node1" class="node"><title>Node3</title>
<polygon fill="#bfbfbf" stroke="black" points="444,-268.5 444,-287.5 573,-287.5 573,-268.5 444,-268.5"/>
<text text-anchor="middle" x="508.5" y="-275.5" font-family="Helvetica,sans-Serif" font-size="10.00">src/secp256k1/src/hash.h</text>
</g>
<!-- Node4 -->
<g id="node2" class="node"><title>Node4</title>
<g id="a_node2"><a xlink:href="merkle_8cpp.html" target="_top" xlink:title="src/consensus/merkle.cpp">
<polygon fill="white" stroke="black" points="0,-207 0,-226 131,-226 131,-207 0,-207"/>
<text text-anchor="middle" x="65.5" y="-214" font-family="Helvetica,sans-Serif" font-size="10.00">src/consensus/merkle.cpp</text>
</a>
</g>
</g>
<!-- Node3&#45;&gt;Node4 -->
<g id="edge1" class="edge"><title>Node3&#45;&gt;Node4</title>
<path fill="none" stroke="midnightblue" d="M433.607,-269.38C359.098,-261.437 241.605,-247.936 140.5,-232 129.627,-230.286 117.92,-228.16 107.064,-226.068"/>
<polygon fill="midnightblue" stroke="midnightblue" points="433.516,-272.89 443.829,-270.463 434.254,-265.929 433.516,-272.89"/>
</g>
<!-- Node5 -->
<g id="node3" class="node"><title>Node5</title>
<g id="a_node3"><a xlink:href="block_8cpp.html" target="_top" xlink:title="src/primitives/block.cpp">
<polygon fill="white" stroke="black" points="149.5,-207 149.5,-226 269.5,-226 269.5,-207 149.5,-207"/>
<text text-anchor="middle" x="209.5" y="-214" font-family="Helvetica,sans-Serif" font-size="10.00">src/primitives/block.cpp</text>
</a>
</g>
</g>
<!-- Node3&#45;&gt;Node5 -->
<g id="edge2" class="edge"><title>Node3&#45;&gt;Node5</title>
<path fill="none" stroke="midnightblue" d="M454.297,-266.511C407.876,-257.488 339.257,-244.06 279.5,-232 270.011,-230.085 259.806,-227.991 250.202,-226.004"/>
<polygon fill="midnightblue" stroke="midnightblue" points="453.661,-269.952 464.145,-268.423 454.996,-263.081 453.661,-269.952"/>
</g>
<!-- Node6 -->
<g id="node4" class="node"><title>Node6</title>
<g id="a_node4"><a xlink:href="transaction_8cpp.html" target="_top" xlink:title="src/primitives/transaction.cpp">
<polygon fill="white" stroke="black" points="288,-207 288,-226 433,-226 433,-207 288,-207"/>
<text text-anchor="middle" x="360.5" y="-214" font-family="Helvetica,sans-Serif" font-size="10.00">src/primitives/transaction.cpp</text>
</a>
</g>
</g>
<!-- Node3&#45;&gt;Node6 -->
<g id="edge3" class="edge"><title>Node3&#45;&gt;Node6</title>
<path fill="none" stroke="midnightblue" d="M477.734,-264.631C448.981,-253.072 406.815,-236.12 381.665,-226.009"/>
<polygon fill="midnightblue" stroke="midnightblue" points="476.711,-267.992 487.295,-268.475 479.322,-261.498 476.711,-267.992"/>
</g>
<!-- Node7 -->
<g id="node5" class="node"><title>Node7</title>
<g id="a_node5"><a xlink:href="blockchain_8cpp.html" target="_top" xlink:title="src/rpc/blockchain.cpp">
<polygon fill="white" stroke="black" points="451,-207 451,-226 566,-226 566,-207 451,-207"/>
<text text-anchor="middle" x="508.5" y="-214" font-family="Helvetica,sans-Serif" font-size="10.00">src/rpc/blockchain.cpp</text>
</a>
</g>
</g>
<!-- Node3&#45;&gt;Node7 -->
<g id="edge4" class="edge"><title>Node3&#45;&gt;Node7</title>
<path fill="none" stroke="midnightblue" d="M508.5,-258.317C508.5,-247.496 508.5,-234.398 508.5,-226.009"/>
<polygon fill="midnightblue" stroke="midnightblue" points="505,-258.475 508.5,-268.475 512,-258.475 505,-258.475"/>
</g>
<!-- Node8 -->
<g id="node6" class="node"><title>Node8</title>
<g id="a_node6"><a xlink:href="hash__impl_8h.html" target="_top" xlink:title="src/secp256k1/src/hash\l_impl.h">
<polygon fill="white" stroke="black" points="584,-201.5 584,-231.5 705,-231.5 705,-201.5 584,-201.5"/>
<text text-anchor="start" x="592" y="-219.5" font-family="Helvetica,sans-Serif" font-size="10.00">src/secp256k1/src/hash</text>
<text text-anchor="middle" x="644.5" y="-208.5" font-family="Helvetica,sans-Serif" font-size="10.00">_impl.h</text>
</a>
</g>
</g>
<!-- Node3&#45;&gt;Node8 -->
<g id="edge5" class="edge"><title>Node3&#45;&gt;Node8</title>
<path fill="none" stroke="midnightblue" d="M537.162,-264.461C559.19,-254.823 589.614,-241.513 612.447,-231.523"/>
<polygon fill="midnightblue" stroke="midnightblue" points="535.744,-261.26 527.985,-268.475 538.55,-267.673 535.744,-261.26"/>
</g>
<!-- Node14 -->
<g id="node12" class="node"><title>Node14</title>
<g id="a_node12"><a xlink:href="testrand__impl_8h.html" target="_top" xlink:title="src/secp256k1/src/testrand\l_impl.h">
<polygon fill="white" stroke="black" points="773,-134.5 773,-164.5 908,-164.5 908,-134.5 773,-134.5"/>
<text text-anchor="start" x="781" y="-152.5" font-family="Helvetica,sans-Serif" font-size="10.00">src/secp256k1/src/testrand</text>
<text text-anchor="middle" x="840.5" y="-141.5" font-family="Helvetica,sans-Serif" font-size="10.00">_impl.h</text>
</a>
</g>
</g>
<!-- Node3&#45;&gt;Node14 -->
<g id="edge13" class="edge"><title>Node3&#45;&gt;Node14</title>
<path fill="none" stroke="midnightblue" d="M583.18,-269.046C623.52,-262.719 673.346,-251.543 714.5,-232 734.501,-222.502 735.21,-213.48 753.5,-201 773.119,-187.613 796.447,-174.197 814.006,-164.562"/>
<polygon fill="midnightblue" stroke="midnightblue" points="582.51,-265.607 573.14,-270.552 583.548,-272.53 582.51,-265.607"/>
</g>
<!-- Node15 -->
<g id="node13" class="node"><title>Node15</title>
<g id="a_node13"><a xlink:href="db_8cpp.html" target="_top" xlink:title="src/wallet/db.cpp">
<polygon fill="white" stroke="black" points="762,-207 762,-226 853,-226 853,-207 762,-207"/>
<text text-anchor="middle" x="807.5" y="-214" font-family="Helvetica,sans-Serif" font-size="10.00">src/wallet/db.cpp</text>
</a>
</g>
</g>
<!-- Node3&#45;&gt;Node15 -->
<g id="edge15" class="edge"><title>Node3&#45;&gt;Node15</title>
<path fill="none" stroke="midnightblue" d="M568.084,-266.652C616.538,-258.028 686.608,-245.081 747.5,-232 755.987,-230.177 765.11,-228.056 773.617,-226.008"/>
<polygon fill="midnightblue" stroke="midnightblue" points="567.319,-263.233 558.083,-268.425 568.541,-270.126 567.319,-263.233"/>
</g>
<!-- Node9 -->
<g id="node7" class="node"><title>Node9</title>
<g id="a_node7"><a xlink:href="bench__internal_8c.html" target="_top" xlink:title="src/secp256k1/src/bench\l_internal.c">
<polygon fill="white" stroke="black" points="484.5,-0.5 484.5,-30.5 610.5,-30.5 610.5,-0.5 484.5,-0.5"/>
<text text-anchor="start" x="492.5" y="-18.5" font-family="Helvetica,sans-Serif" font-size="10.00">src/secp256k1/src/bench</text>
<text text-anchor="middle" x="547.5" y="-7.5" font-family="Helvetica,sans-Serif" font-size="10.00">_internal.c</text>
</a>
</g>
</g>
<!-- Node8&#45;&gt;Node9 -->
<g id="edge6" class="edge"><title>Node8&#45;&gt;Node9</title>
<path fill="none" stroke="midnightblue" d="M609.91,-195.96C578.389,-175.956 533.886,-141.653 514.5,-98 504.153,-74.7013 521.349,-47.1176 534.556,-30.7543"/>
<polygon fill="midnightblue" stroke="midnightblue" points="608.48,-199.19 618.829,-201.461 612.155,-193.232 608.48,-199.19"/>
</g>
<!-- Node10 -->
<g id="node8" class="node"><title>Node10</title>
<g id="a_node8"><a xlink:href="ecmult__gen__impl_8h.html" target="_top" xlink:title="src/secp256k1/src/ecmult\l_gen_impl.h">
<polygon fill="white" stroke="black" points="626,-134.5 626,-164.5 755,-164.5 755,-134.5 626,-134.5"/>
<text text-anchor="start" x="634" y="-152.5" font-family="Helvetica,sans-Serif" font-size="10.00">src/secp256k1/src/ecmult</text>
<text text-anchor="middle" x="690.5" y="-141.5" font-family="Helvetica,sans-Serif" font-size="10.00">_gen_impl.h</text>
</a>
</g>
</g>
<!-- Node8&#45;&gt;Node10 -->
<g id="edge7" class="edge"><title>Node8&#45;&gt;Node10</title>
<path fill="none" stroke="midnightblue" d="M660.312,-193.157C667.02,-183.679 674.635,-172.919 680.538,-164.577"/>
<polygon fill="midnightblue" stroke="midnightblue" points="657.401,-191.211 654.481,-201.396 663.115,-195.255 657.401,-191.211"/>
</g>
<!-- Node11 -->
<g id="node9" class="node"><title>Node11</title>
<g id="a_node9"><a xlink:href="secp256k1_8c.html" target="_top" xlink:title="src/secp256k1/src/secp256k1.c">
<polygon fill="white" stroke="black" points="523,-73 523,-92 678,-92 678,-73 523,-73"/>
<text text-anchor="middle" x="600.5" y="-80" font-family="Helvetica,sans-Serif" font-size="10.00">src/secp256k1/src/secp256k1.c</text>
</a>
</g>
</g>
<!-- Node8&#45;&gt;Node11 -->
<g id="edge12" class="edge"><title>Node8&#45;&gt;Node11</title>
<path fill="none" stroke="midnightblue" d="M630.458,-192.574C625.781,-184.146 620.902,-174.37 617.5,-165 608.225,-139.459 603.405,-107.478 601.498,-92.2899"/>
<polygon fill="midnightblue" stroke="midnightblue" points="627.534,-194.51 635.564,-201.423 633.598,-191.012 627.534,-194.51"/>
</g>
<!-- Node10&#45;&gt;Node11 -->
<g id="edge8" class="edge"><title>Node10&#45;&gt;Node11</title>
<path fill="none" stroke="midnightblue" d="M662.539,-128.306C645.638,-116.1 624.976,-101.177 612.279,-92.007"/>
<polygon fill="midnightblue" stroke="midnightblue" points="660.815,-131.378 670.971,-134.396 664.914,-125.704 660.815,-131.378"/>
</g>
<!-- Node13 -->
<g id="node11" class="node"><title>Node13</title>
<g id="a_node11"><a xlink:href="gen__context_8c.html" target="_top" xlink:title="src/secp256k1/src/gen\l_context.c">
<polygon fill="white" stroke="black" points="696.5,-67.5 696.5,-97.5 812.5,-97.5 812.5,-67.5 696.5,-67.5"/>
<text text-anchor="start" x="704.5" y="-85.5" font-family="Helvetica,sans-Serif" font-size="10.00">src/secp256k1/src/gen</text>
<text text-anchor="middle" x="754.5" y="-74.5" font-family="Helvetica,sans-Serif" font-size="10.00">_context.c</text>
</a>
</g>
</g>
<!-- Node10&#45;&gt;Node13 -->
<g id="edge11" class="edge"><title>Node10&#45;&gt;Node13</title>
<path fill="none" stroke="midnightblue" d="M711.645,-127.024C721.181,-117.34 732.175,-106.174 740.64,-97.5765"/>
<polygon fill="midnightblue" stroke="midnightblue" points="708.909,-124.815 704.387,-134.396 713.897,-129.726 708.909,-124.815"/>
</g>
<!-- Node11&#45;&gt;Node9 -->
<g id="edge9" class="edge"><title>Node11&#45;&gt;Node9</title>
<path fill="none" stroke="midnightblue" d="M586.779,-64.6729C578.153,-54.0939 567.152,-40.6019 558.988,-30.589"/>
<polygon fill="midnightblue" stroke="midnightblue" points="584.32,-67.1954 593.352,-72.7338 589.745,-62.7718 584.32,-67.1954"/>
</g>
<!-- Node12 -->
<g id="node10" class="node"><title>Node12</title>
<g id="a_node10"><a xlink:href="tests_8c.html" target="_top" xlink:title="src/secp256k1/src/tests.c">
<polygon fill="white" stroke="black" points="701.5,-6 701.5,-25 831.5,-25 831.5,-6 701.5,-6"/>
<text text-anchor="middle" x="766.5" y="-13" font-family="Helvetica,sans-Serif" font-size="10.00">src/secp256k1/src/tests.c</text>
</a>
</g>
</g>
<!-- Node11&#45;&gt;Node12 -->
<g id="edge10" class="edge"><title>Node11&#45;&gt;Node12</title>
<path fill="none" stroke="midnightblue" d="M632.157,-69.1041C665.116,-56.1984 715.864,-36.3272 744.63,-25.0637"/>
<polygon fill="midnightblue" stroke="midnightblue" points="630.579,-65.9633 622.544,-72.8685 633.131,-72.4814 630.579,-65.9633"/>
</g>
<!-- Node14&#45;&gt;Node12 -->
<g id="edge14" class="edge"><title>Node14&#45;&gt;Node12</title>
<path fill="none" stroke="midnightblue" d="M838.624,-124.084C836.441,-107.115 831.717,-84.4961 821.5,-67 811.172,-49.313 792.642,-34.2219 779.968,-25.2598"/>
<polygon fill="midnightblue" stroke="midnightblue" points="835.175,-124.74 839.725,-134.308 842.134,-123.991 835.175,-124.74"/>
</g>
</g>
</svg>
        <g id="navigator" transform="translate(0 0)" fill="#404254">
                <rect fill="#f2f5e9" fill-opacity="0.5" stroke="#606060" stroke-width=".5" x="0" y="0" width="60" height="60"/>
                <use id="zoomplus" xlink:href="#zoomPlus" x="17" y="9" onmousedown="handleZoom(evt,'in')"/>
                <use id="zoomminus" xlink:href="#zoomMin" x="42" y="9" onmousedown="handleZoom(evt,'out')"/>
                <use id="reset" xlink:href="#resetDef" x="30" y="36" onmousedown="handleReset()"/>
                <g id="arrowUp" xlink:href="#dirArrow" transform="translate(30 24)" onmousedown="handlePan(0,-1)">
                  <use xlink:href="#rim" fill="#404040">
                        <set attributeName="fill" to="#808080" begin="arrowUp.mouseover" end="arrowUp.mouseout"/>
                  </use>
                  <path fill="none" stroke="white" stroke-width="1.5" d="M0,-3.0v7 M-2.5,-0.5L0,-3.0L2.5,-0.5"/>
                </g>
                <g id="arrowRight" xlink:href="#dirArrow" transform="rotate(90) translate(36 -43)" onmousedown="handlePan(1,0)">
                  <use xlink:href="#rim" fill="#404040">
                        <set attributeName="fill" to="#808080" begin="arrowRight.mouseover" end="arrowRight.mouseout"/>
                  </use>
                  <path fill="none" stroke="white" stroke-width="1.5" d="M0,-3.0v7 M-2.5,-0.5L0,-3.0L2.5,-0.5"/>
                </g>
                <g id="arrowDown" xlink:href="#dirArrow" transform="rotate(180) translate(-30 -48)" onmousedown="handlePan(0,1)">
                  <use xlink:href="#rim" fill="#404040">
                        <set attributeName="fill" to="#808080" begin="arrowDown.mouseover" end="arrowDown.mouseout"/>
                  </use>
                  <path fill="none" stroke="white" stroke-width="1.5" d="M0,-3.0v7 M-2.5,-0.5L0,-3.0L2.5,-0.5"/>
                </g>
                <g id="arrowLeft" xlink:href="#dirArrow" transform="rotate(270) translate(-36 17)" onmousedown="handlePan(-1,0)">
                  <use xlink:href="#rim" fill="#404040">
                        <set attributeName="fill" to="#808080" begin="arrowLeft.mouseover" end="arrowLeft.mouseout"/>
                  </use>
                  <path fill="none" stroke="white" stroke-width="1.5" d="M0,-3.0v7 M-2.5,-0.5L0,-3.0L2.5,-0.5"/>
                </g>
        </g>
        <svg viewBox="0 0 15 15" width="100%" height="30px" preserveAspectRatio="xMaxYMin meet">
         <g id="arrow_out" transform="scale(0.3 0.3)">
          <a xlink:href="secp256k1_2src_2hash_8h__dep__incl_org.svg" target="_base">
           <rect id="button" ry="5" rx="5" y="6" x="6" height="38" width="38"
                fill="#f2f5e9" fill-opacity="0.5" stroke="#606060" stroke-width="1.0"/>
           <path id="arrow"
             d="M 11.500037,31.436501 C 11.940474,20.09759 22.043105,11.32322 32.158766,21.979434 L 37.068811,17.246167 C 37.068811,17.246167 37.088388,32 37.088388,32 L 22.160133,31.978069 C 22.160133,31.978069 26.997745,27.140456 26.997745,27.140456 C 18.528582,18.264221 13.291696,25.230495 11.500037,31.436501 z"
             style="fill:#404040;"/>
          </a>
         </g>
        </svg>
</svg>
