<?xml version="1.0" encoding="UTF-8" standalone="no"?>
<!DOCTYPE svg PUBLIC "-//W3C//DTD SVG 1.1//EN"
 "http://www.w3.org/Graphics/SVG/1.1/DTD/svg11.dtd">
<!-- Generated by graphviz version 2.38.0 (20140413.2041)
 -->
<!-- Title: secp256k1_callback_call Pages: 1 -->
<svg width="1021pt" height="495pt"
 viewBox="0.00 0.00 1021.00 495.00" xmlns="http://www.w3.org/2000/svg" xmlns:xlink="http://www.w3.org/1999/xlink">
<g id="graph0" class="graph" transform="scale(1 1) rotate(0) translate(4 491)">
<title>secp256k1_callback_call</title>
<polygon fill="white" stroke="none" points="-4,4 -4,-491 1017,-491 1017,4 -4,4"/>
<!-- Node28 -->
<g id="node1" class="node"><title>Node28</title>
<polygon fill="#bfbfbf" stroke="black" points="0,-238 0,-257 125,-257 125,-238 0,-238"/>
<text text-anchor="middle" x="62.5" y="-245" font-family="Helvetica,sans-Serif" font-size="10.00">secp256k1_callback_call</text>
</g>
<!-- Node29 -->
<g id="node2" class="node"><title>Node29</title>
<g id="a_node2"><a xlink:href="secp256k1_2src_2util_8h.html#a20790114658c559e5048a38694708c3e" target="_top" xlink:title="checked_malloc">
<polygon fill="white" stroke="black" points="161,-197 161,-216 248,-216 248,-197 161,-197"/>
<text text-anchor="middle" x="204.5" y="-204" font-family="Helvetica,sans-Serif" font-size="10.00">checked_malloc</text>
</a>
</g>
</g>
<!-- Node28&#45;&gt;Node29 -->
<g id="edge1" class="edge"><title>Node28&#45;&gt;Node29</title>
<path fill="none" stroke="midnightblue" d="M105.838,-235.101C126.656,-229.004 151.365,-221.768 170.72,-216.1"/>
<polygon fill="midnightblue" stroke="midnightblue" points="104.584,-231.821 95.9707,-237.991 106.551,-238.539 104.584,-231.821"/>
</g>
<!-- Node33 -->
<g id="node6" class="node"><title>Node33</title>
<g id="a_node6"><a xlink:href="secp256k1_8c.html#a2d23dd6eb961e47720ec8db63da8044b" target="_top" xlink:title="Create a secp256k1 context object. ">
<polygon fill="white" stroke="black" points="288.5,-323 288.5,-342 422.5,-342 422.5,-323 288.5,-323"/>
<text text-anchor="middle" x="355.5" y="-330" font-family="Helvetica,sans-Serif" font-size="10.00">secp256k1_context_create</text>
</a>
</g>
</g>
<!-- Node28&#45;&gt;Node33 -->
<g id="edge29" class="edge"><title>Node28&#45;&gt;Node33</title>
<path fill="none" stroke="midnightblue" d="M104.248,-260.064C148.427,-273.599 221.064,-295.604 284,-313.5 295.096,-316.655 307.211,-319.968 318.219,-322.928"/>
<polygon fill="midnightblue" stroke="midnightblue" points="105.047,-256.648 94.4601,-257.061 102.994,-263.34 105.047,-256.648"/>
</g>
<!-- Node30 -->
<g id="node3" class="node"><title>Node30</title>
<g id="a_node3"><a xlink:href="secp256k1_8c.html#a6c00dac7dd6dc157d019e47d73882ab7" target="_top" xlink:title="Copies a secp256k1 context object. ">
<polygon fill="white" stroke="black" points="290.5,-285 290.5,-304 420.5,-304 420.5,-285 290.5,-285"/>
<text text-anchor="middle" x="355.5" y="-292" font-family="Helvetica,sans-Serif" font-size="10.00">secp256k1_context_clone</text>
</a>
</g>
</g>
<!-- Node29&#45;&gt;Node30 -->
<g id="edge2" class="edge"><title>Node29&#45;&gt;Node30</title>
<path fill="none" stroke="midnightblue" d="M221.036,-223.705C235.823,-239.098 259.411,-261.222 284,-274.5 291.948,-278.792 300.91,-282.242 309.713,-284.986"/>
<polygon fill="midnightblue" stroke="midnightblue" points="223.539,-221.257 214.148,-216.352 218.43,-226.043 223.539,-221.257"/>
</g>
<!-- Node29&#45;&gt;Node33 -->
<g id="edge5" class="edge"><title>Node29&#45;&gt;Node33</title>
<path fill="none" stroke="midnightblue" d="M216.912,-224.965C234.151,-252.308 266.657,-301.621 284,-313.5 289.647,-317.368 296.049,-320.45 302.636,-322.905"/>
<polygon fill="midnightblue" stroke="midnightblue" points="219.769,-222.932 211.501,-216.307 213.833,-226.642 219.769,-222.932"/>
</g>
<!-- Node48 -->
<g id="node21" class="node"><title>Node48</title>
<g id="a_node21"><a xlink:href="ecmult__impl_8h.html#acc2494f319c79f6cc15982f43e7a6f00" target="_top" xlink:title="secp256k1_ecmult_context\l_build">
<polygon fill="white" stroke="black" points="469,-99.5 469,-129.5 605,-129.5 605,-99.5 469,-99.5"/>
<text text-anchor="start" x="477" y="-117.5" font-family="Helvetica,sans-Serif" font-size="10.00">secp256k1_ecmult_context</text>
<text text-anchor="middle" x="537" y="-106.5" font-family="Helvetica,sans-Serif" font-size="10.00">_build</text>
</a>
</g>
</g>
<!-- Node29&#45;&gt;Node48 -->
<g id="edge22" class="edge"><title>Node29&#45;&gt;Node48</title>
<path fill="none" stroke="midnightblue" d="M258.039,-208.885C303.905,-209.314 371.609,-205.901 427,-186.5 462.959,-173.905 498.664,-146.833 518.963,-129.709"/>
<polygon fill="midnightblue" stroke="midnightblue" points="258.075,-205.385 248.021,-208.727 257.965,-212.384 258.075,-205.385"/>
</g>
<!-- Node49 -->
<g id="node22" class="node"><title>Node49</title>
<g id="a_node22"><a xlink:href="ecmult__impl_8h.html#a95a3e0c69a07d94a248cdb06328966f6" target="_top" xlink:title="secp256k1_ecmult_context\l_clone">
<polygon fill="white" stroke="black" points="287.5,-147.5 287.5,-177.5 423.5,-177.5 423.5,-147.5 287.5,-147.5"/>
<text text-anchor="start" x="295.5" y="-165.5" font-family="Helvetica,sans-Serif" font-size="10.00">secp256k1_ecmult_context</text>
<text text-anchor="middle" x="355.5" y="-154.5" font-family="Helvetica,sans-Serif" font-size="10.00">_clone</text>
</a>
</g>
</g>
<!-- Node29&#45;&gt;Node49 -->
<g id="edge23" class="edge"><title>Node29&#45;&gt;Node49</title>
<path fill="none" stroke="midnightblue" d="M247.678,-194.045C265.037,-188.919 285.299,-182.935 303.483,-177.565"/>
<polygon fill="midnightblue" stroke="midnightblue" points="246.43,-190.764 237.831,-196.953 248.413,-197.477 246.43,-190.764"/>
</g>
<!-- Node50 -->
<g id="node23" class="node"><title>Node50</title>
<g id="a_node23"><a xlink:href="ecmult__gen__impl_8h.html#afaf90b2a6554053187cdc89df0dafd21" target="_top" xlink:title="secp256k1_ecmult_gen\l_context_build">
<polygon fill="white" stroke="black" points="296,-98.5 296,-128.5 415,-128.5 415,-98.5 296,-98.5"/>
<text text-anchor="start" x="304" y="-116.5" font-family="Helvetica,sans-Serif" font-size="10.00">secp256k1_ecmult_gen</text>
<text text-anchor="middle" x="355.5" y="-105.5" font-family="Helvetica,sans-Serif" font-size="10.00">_context_build</text>
</a>
</g>
</g>
<!-- Node29&#45;&gt;Node50 -->
<g id="edge24" class="edge"><title>Node29&#45;&gt;Node50</title>
<path fill="none" stroke="midnightblue" d="M221.153,-189.327C236.02,-173.906 259.66,-151.585 284,-137.5 289.819,-134.133 296.183,-131.143 302.63,-128.516"/>
<polygon fill="midnightblue" stroke="midnightblue" points="218.532,-187.005 214.221,-196.683 223.626,-191.806 218.532,-187.005"/>
</g>
<!-- Node51 -->
<g id="node24" class="node"><title>Node51</title>
<g id="a_node24"><a xlink:href="ecmult__gen__impl_8h.html#aab03a4f94d775718656aabc6b14cfbee" target="_top" xlink:title="secp256k1_ecmult_gen\l_context_clone">
<polygon fill="white" stroke="black" points="296,-49.5 296,-79.5 415,-79.5 415,-49.5 296,-49.5"/>
<text text-anchor="start" x="304" y="-67.5" font-family="Helvetica,sans-Serif" font-size="10.00">secp256k1_ecmult_gen</text>
<text text-anchor="middle" x="355.5" y="-56.5" font-family="Helvetica,sans-Serif" font-size="10.00">_context_clone</text>
</a>
</g>
</g>
<!-- Node29&#45;&gt;Node51 -->
<g id="edge25" class="edge"><title>Node29&#45;&gt;Node51</title>
<path fill="none" stroke="midnightblue" d="M213.52,-187.163C225.266,-161.125 249.553,-115.011 284,-88.5 288.406,-85.1091 293.321,-82.1803 298.449,-79.6538"/>
<polygon fill="midnightblue" stroke="midnightblue" points="210.161,-186.111 209.386,-196.677 216.581,-188.901 210.161,-186.111"/>
</g>
<!-- Node52 -->
<g id="node25" class="node"><title>Node52</title>
<g id="a_node25"><a xlink:href="ecmult__impl_8h.html#a72a05df0626a92692be8ca5e68c19a56" target="_top" xlink:title="secp256k1_ecmult_odd\l_multiples_table_storage_var">
<polygon fill="white" stroke="black" points="284,-0.5 284,-30.5 427,-30.5 427,-0.5 284,-0.5"/>
<text text-anchor="start" x="292" y="-18.5" font-family="Helvetica,sans-Serif" font-size="10.00">secp256k1_ecmult_odd</text>
<text text-anchor="middle" x="355.5" y="-7.5" font-family="Helvetica,sans-Serif" font-size="10.00">_multiples_table_storage_var</text>
</a>
</g>
</g>
<!-- Node29&#45;&gt;Node52 -->
<g id="edge26" class="edge"><title>Node29&#45;&gt;Node52</title>
<path fill="none" stroke="midnightblue" d="M209.48,-186.737C217.48,-152.029 238.753,-79.9722 284,-39.5 287.855,-36.0521 292.226,-33.0957 296.858,-30.5614"/>
<polygon fill="midnightblue" stroke="midnightblue" points="206.039,-186.091 207.336,-196.606 212.879,-187.577 206.039,-186.091"/>
</g>
<!-- Node53 -->
<g id="node26" class="node"><title>Node53</title>
<g id="a_node26"><a xlink:href="group__impl_8h.html#ada58b0cf328a74cfdd1f8b35083668a1" target="_top" xlink:title="secp256k1_ge_set_all\l_gej_var">
<polygon fill="white" stroke="black" points="299,-235.5 299,-265.5 412,-265.5 412,-235.5 299,-235.5"/>
<text text-anchor="start" x="307" y="-253.5" font-family="Helvetica,sans-Serif" font-size="10.00">secp256k1_ge_set_all</text>
<text text-anchor="middle" x="355.5" y="-242.5" font-family="Helvetica,sans-Serif" font-size="10.00">_gej_var</text>
</a>
</g>
</g>
<!-- Node29&#45;&gt;Node53 -->
<g id="edge28" class="edge"><title>Node29&#45;&gt;Node53</title>
<path fill="none" stroke="midnightblue" d="M247.678,-218.955C265.037,-224.081 285.299,-230.065 303.483,-235.435"/>
<polygon fill="midnightblue" stroke="midnightblue" points="248.413,-215.523 237.831,-216.047 246.43,-222.236 248.413,-215.523"/>
</g>
<!-- Node31 -->
<g id="node4" class="node"><title>Node31</title>
<g id="a_node4"><a xlink:href="tests_8c.html#a2f9713526b1e988694c6e2026a6fce69" target="_top" xlink:title="run_context_tests">
<polygon fill="white" stroke="black" points="489.5,-228 489.5,-247 584.5,-247 584.5,-228 489.5,-228"/>
<text text-anchor="middle" x="537" y="-235" font-family="Helvetica,sans-Serif" font-size="10.00">run_context_tests</text>
</a>
</g>
</g>
<!-- Node30&#45;&gt;Node31 -->
<g id="edge3" class="edge"><title>Node30&#45;&gt;Node31</title>
<path fill="none" stroke="midnightblue" d="M404.759,-282.112C412.281,-279.809 419.907,-277.251 427,-274.5 443.678,-268.031 446.253,-262.787 463,-256.5 472.563,-252.91 483.076,-249.744 493.071,-247.076"/>
<polygon fill="midnightblue" stroke="midnightblue" points="403.587,-278.809 394.982,-284.99 405.563,-285.524 403.587,-278.809"/>
</g>
<!-- Node32 -->
<g id="node5" class="node"><title>Node32</title>
<g id="a_node5"><a xlink:href="tests_8c.html#a3c04138a5bfe5d72780bb7e82a18e627" target="_top" xlink:title="main">
<polygon fill="white" stroke="black" points="701.5,-190 701.5,-209 739.5,-209 739.5,-190 701.5,-190"/>
<text text-anchor="middle" x="720.5" y="-197" font-family="Helvetica,sans-Serif" font-size="10.00">main</text>
</a>
</g>
</g>
<!-- Node31&#45;&gt;Node32 -->
<g id="edge4" class="edge"><title>Node31&#45;&gt;Node32</title>
<path fill="none" stroke="midnightblue" d="M593.888,-225.799C630.586,-218.116 676.253,-208.554 701.172,-203.337"/>
<polygon fill="midnightblue" stroke="midnightblue" points="592.871,-222.436 583.8,-227.911 594.305,-229.287 592.871,-222.436"/>
</g>
<!-- Node33&#45;&gt;Node31 -->
<g id="edge21" class="edge"><title>Node33&#45;&gt;Node31</title>
<path fill="none" stroke="midnightblue" d="M418.542,-318.785C421.506,-317.211 424.347,-315.456 427,-313.5 451.116,-295.718 438.808,-274.178 463,-256.5 470.719,-250.86 479.971,-246.891 489.255,-244.1"/>
<polygon fill="midnightblue" stroke="midnightblue" points="416.989,-315.646 409.348,-322.986 419.899,-322.013 416.989,-315.646"/>
</g>
<!-- Node34 -->
<g id="node7" class="node"><title>Node34</title>
<g id="a_node7"><a xlink:href="bench__internal_8c.html#a0d6ae07fc12e8c74ebdcb49871cbfc0e" target="_top" xlink:title="bench_context_sign">
<polygon fill="white" stroke="black" points="485,-380 485,-399 589,-399 589,-380 485,-380"/>
<text text-anchor="middle" x="537" y="-387" font-family="Helvetica,sans-Serif" font-size="10.00">bench_context_sign</text>
</a>
</g>
</g>
<!-- Node33&#45;&gt;Node34 -->
<g id="edge6" class="edge"><title>Node33&#45;&gt;Node34</title>
<path fill="none" stroke="midnightblue" d="M390.888,-345.639C411.624,-353.343 438.653,-363.004 463,-370.5 473.889,-373.853 485.808,-377.121 496.799,-379.975"/>
<polygon fill="midnightblue" stroke="midnightblue" points="391.846,-342.26 381.254,-342.032 389.392,-348.816 391.846,-342.26"/>
</g>
<!-- Node36 -->
<g id="node9" class="node"><title>Node36</title>
<g id="a_node9"><a xlink:href="bench__internal_8c.html#a0267a6fcf26df5e2625c0f93eed876a9" target="_top" xlink:title="bench_context_verify">
<polygon fill="white" stroke="black" points="482,-342 482,-361 592,-361 592,-342 482,-342"/>
<text text-anchor="middle" x="537" y="-349" font-family="Helvetica,sans-Serif" font-size="10.00">bench_context_verify</text>
</a>
</g>
</g>
<!-- Node33&#45;&gt;Node36 -->
<g id="edge8" class="edge"><title>Node33&#45;&gt;Node36</title>
<path fill="none" stroke="midnightblue" d="M432.747,-340.571C449.247,-342.317 466.371,-344.13 481.817,-345.765"/>
<polygon fill="midnightblue" stroke="midnightblue" points="432.887,-337.066 422.574,-339.494 432.15,-344.027 432.887,-337.066"/>
</g>
<!-- Node37 -->
<g id="node10" class="node"><title>Node37</title>
<g id="a_node10"><a xlink:href="bench__ecdh_8c.html#a2afcc388be168d338b21eb22c4991df0" target="_top" xlink:title="bench_ecdh_setup">
<polygon fill="white" stroke="black" points="488,-304 488,-323 586,-323 586,-304 488,-304"/>
<text text-anchor="middle" x="537" y="-311" font-family="Helvetica,sans-Serif" font-size="10.00">bench_ecdh_setup</text>
</a>
</g>
</g>
<!-- Node33&#45;&gt;Node37 -->
<g id="edge10" class="edge"><title>Node33&#45;&gt;Node37</title>
<path fill="none" stroke="midnightblue" d="M432.56,-324.449C451.263,-322.469 470.778,-320.404 487.753,-318.607"/>
<polygon fill="midnightblue" stroke="midnightblue" points="432.15,-320.973 422.574,-325.506 432.887,-327.934 432.15,-320.973"/>
</g>
<!-- Node39 -->
<g id="node12" class="node"><title>Node39</title>
<g id="a_node12"><a xlink:href="key_8h.html#a5ee69136607b1012d64a045ee44ccae2" target="_top" xlink:title="Initialize the elliptic curve support. ">
<polygon fill="white" stroke="black" points="504.5,-266 504.5,-285 569.5,-285 569.5,-266 504.5,-266"/>
<text text-anchor="middle" x="537" y="-273" font-family="Helvetica,sans-Serif" font-size="10.00">ECC_Start</text>
</a>
</g>
</g>
<!-- Node33&#45;&gt;Node39 -->
<g id="edge12" class="edge"><title>Node33&#45;&gt;Node39</title>
<path fill="none" stroke="midnightblue" d="M407.615,-320.173C414.211,-318.161 420.817,-315.93 427,-313.5 443.838,-306.883 446.133,-301.044 463,-294.5 476.186,-289.384 491.238,-285.203 504.236,-282.079"/>
<polygon fill="midnightblue" stroke="midnightblue" points="406.635,-316.813 398.007,-322.962 408.586,-323.535 406.635,-316.813"/>
</g>
<!-- Node46 -->
<g id="node19" class="node"><title>Node46</title>
<g id="a_node19"><a xlink:href="class_e_c_c_verify_handle.html#a01404b41eee891c1dea4b58db02e56fb" target="_top" xlink:title="ECCVerifyHandle::ECCVerify\lHandle">
<polygon fill="white" stroke="black" points="463,-456.5 463,-486.5 611,-486.5 611,-456.5 463,-456.5"/>
<text text-anchor="start" x="471" y="-474.5" font-family="Helvetica,sans-Serif" font-size="10.00">ECCVerifyHandle::ECCVerify</text>
<text text-anchor="middle" x="537" y="-463.5" font-family="Helvetica,sans-Serif" font-size="10.00">Handle</text>
</a>
</g>
</g>
<!-- Node33&#45;&gt;Node46 -->
<g id="edge19" class="edge"><title>Node33&#45;&gt;Node46</title>
<path fill="none" stroke="midnightblue" d="M368.828,-350.45C386.802,-375.354 422.505,-420.276 463,-446.5 468.847,-450.286 475.331,-453.566 481.951,-456.389"/>
<polygon fill="midnightblue" stroke="midnightblue" points="371.663,-348.397 363.032,-342.252 365.947,-352.438 371.663,-348.397"/>
</g>
<!-- Node47 -->
<g id="node20" class="node"><title>Node47</title>
<g id="a_node20"><a xlink:href="bench__recover_8c.html#a840291bc02cba5474a4cb46a9b9566fe" target="_top" xlink:title="main">
<polygon fill="white" stroke="black" points="518,-418 518,-437 556,-437 556,-418 518,-418"/>
<text text-anchor="middle" x="537" y="-425" font-family="Helvetica,sans-Serif" font-size="10.00">main</text>
</a>
</g>
</g>
<!-- Node33&#45;&gt;Node47 -->
<g id="edge20" class="edge"><title>Node33&#45;&gt;Node47</title>
<path fill="none" stroke="midnightblue" d="M374.941,-348.898C395.192,-366.095 429.329,-392.763 463,-408.5 480.796,-416.818 502.8,-421.911 517.971,-424.703"/>
<polygon fill="midnightblue" stroke="midnightblue" points="377.008,-346.059 367.153,-342.168 372.431,-351.355 377.008,-346.059"/>
</g>
<!-- Node35 -->
<g id="node8" class="node"><title>Node35</title>
<g id="a_node8"><a xlink:href="bench__internal_8c.html#a3c04138a5bfe5d72780bb7e82a18e627" target="_top" xlink:title="main">
<polygon fill="white" stroke="black" points="701.5,-380 701.5,-399 739.5,-399 739.5,-380 701.5,-380"/>
<text text-anchor="middle" x="720.5" y="-387" font-family="Helvetica,sans-Serif" font-size="10.00">main</text>
</a>
</g>
</g>
<!-- Node34&#45;&gt;Node35 -->
<g id="edge7" class="edge"><title>Node34&#45;&gt;Node35</title>
<path fill="none" stroke="midnightblue" d="M599.407,-389.5C635.166,-389.5 677.737,-389.5 701.38,-389.5"/>
<polygon fill="midnightblue" stroke="midnightblue" points="599.041,-386 589.041,-389.5 599.041,-393 599.041,-386"/>
</g>
<!-- Node36&#45;&gt;Node35 -->
<g id="edge9" class="edge"><title>Node36&#45;&gt;Node35</title>
<path fill="none" stroke="midnightblue" d="M593.888,-363.201C630.586,-370.884 676.253,-380.446 701.172,-385.663"/>
<polygon fill="midnightblue" stroke="midnightblue" points="594.305,-359.713 583.8,-361.089 592.871,-366.564 594.305,-359.713"/>
</g>
<!-- Node38 -->
<g id="node11" class="node"><title>Node38</title>
<g id="a_node11"><a xlink:href="bench__ecdh_8c.html#a840291bc02cba5474a4cb46a9b9566fe" target="_top" xlink:title="main">
<polygon fill="white" stroke="black" points="701.5,-342 701.5,-361 739.5,-361 739.5,-342 701.5,-342"/>
<text text-anchor="middle" x="720.5" y="-349" font-family="Helvetica,sans-Serif" font-size="10.00">main</text>
</a>
</g>
</g>
<!-- Node37&#45;&gt;Node38 -->
<g id="edge11" class="edge"><title>Node37&#45;&gt;Node38</title>
<path fill="none" stroke="midnightblue" d="M593.888,-325.201C630.586,-332.884 676.253,-342.446 701.172,-347.663"/>
<polygon fill="midnightblue" stroke="midnightblue" points="594.305,-321.713 583.8,-323.089 592.871,-328.564 594.305,-321.713"/>
</g>
<!-- Node40 -->
<g id="node13" class="node"><title>Node40</title>
<g id="a_node13"><a xlink:href="init_8h.html#a6f0784aa332573f949b0975205572b28" target="_top" xlink:title="Initialize Dash Core. ">
<polygon fill="white" stroke="black" points="694,-304 694,-323 747,-323 747,-304 694,-304"/>
<text text-anchor="middle" x="720.5" y="-311" font-family="Helvetica,sans-Serif" font-size="10.00">AppInit2</text>
</a>
</g>
</g>
<!-- Node39&#45;&gt;Node40 -->
<g id="edge13" class="edge"><title>Node39&#45;&gt;Node40</title>
<path fill="none" stroke="midnightblue" d="M579.592,-284.208C614.786,-291.576 664.108,-301.903 693.814,-308.122"/>
<polygon fill="midnightblue" stroke="midnightblue" points="580.12,-280.743 569.615,-282.119 578.685,-287.594 580.12,-280.743"/>
</g>
<!-- Node44 -->
<g id="node17" class="node"><title>Node44</title>
<g id="a_node17"><a xlink:href="bench__dash_8cpp.html#a3c04138a5bfe5d72780bb7e82a18e627" target="_top" xlink:title="main">
<polygon fill="white" stroke="black" points="701.5,-266 701.5,-285 739.5,-285 739.5,-266 701.5,-266"/>
<text text-anchor="middle" x="720.5" y="-273" font-family="Helvetica,sans-Serif" font-size="10.00">main</text>
</a>
</g>
</g>
<!-- Node39&#45;&gt;Node44 -->
<g id="edge17" class="edge"><title>Node39&#45;&gt;Node44</title>
<path fill="none" stroke="midnightblue" d="M579.972,-275.5C618.382,-275.5 673.378,-275.5 701.475,-275.5"/>
<polygon fill="midnightblue" stroke="midnightblue" points="579.615,-272 569.615,-275.5 579.615,-279 579.615,-272"/>
</g>
<!-- Node45 -->
<g id="node18" class="node"><title>Node45</title>
<g id="a_node18"><a xlink:href="class_secp256k1_init.html#a2b66e52b456b58659cb3c4b3adab862b" target="_top" xlink:title="Secp256k1Init::Secp256k1Init">
<polygon fill="white" stroke="black" points="647,-228 647,-247 794,-247 794,-228 647,-228"/>
<text text-anchor="middle" x="720.5" y="-235" font-family="Helvetica,sans-Serif" font-size="10.00">Secp256k1Init::Secp256k1Init</text>
</a>
</g>
</g>
<!-- Node39&#45;&gt;Node45 -->
<g id="edge18" class="edge"><title>Node39&#45;&gt;Node45</title>
<path fill="none" stroke="midnightblue" d="M579.554,-266.8C607.732,-260.9 644.98,-253.102 673.963,-247.034"/>
<polygon fill="midnightblue" stroke="midnightblue" points="578.685,-263.406 569.615,-268.881 580.12,-270.257 578.685,-263.406"/>
</g>
<!-- Node41 -->
<g id="node14" class="node"><title>Node41</title>
<g id="a_node14"><a xlink:href="dashd_8cpp.html#ac59316b767e6984e1285f0531275286b" target="_top" xlink:title="AppInit">
<polygon fill="white" stroke="black" points="861,-323 861,-342 908,-342 908,-323 861,-323"/>
<text text-anchor="middle" x="884.5" y="-330" font-family="Helvetica,sans-Serif" font-size="10.00">AppInit</text>
</a>
</g>
</g>
<!-- Node40&#45;&gt;Node41 -->
<g id="edge14" class="edge"><title>Node40&#45;&gt;Node41</title>
<path fill="none" stroke="midnightblue" d="M757.319,-317.701C788.906,-321.406 833.972,-326.691 860.826,-329.841"/>
<polygon fill="midnightblue" stroke="midnightblue" points="757.509,-314.199 747.169,-316.511 756.694,-321.152 757.509,-314.199"/>
</g>
<!-- Node43 -->
<g id="node16" class="node"><title>Node43</title>
<g id="a_node16"><a xlink:href="class_bitcoin_core.html#af34ca069cda1d4362dcc109b4397fb62" target="_top" xlink:title="BitcoinCore::initialize">
<polygon fill="white" stroke="black" points="830,-285 830,-304 939,-304 939,-285 830,-285"/>
<text text-anchor="middle" x="884.5" y="-292" font-family="Helvetica,sans-Serif" font-size="10.00">BitcoinCore::initialize</text>
</a>
</g>
</g>
<!-- Node40&#45;&gt;Node43 -->
<g id="edge16" class="edge"><title>Node40&#45;&gt;Node43</title>
<path fill="none" stroke="midnightblue" d="M757.378,-309.292C778.64,-306.798 805.993,-303.59 829.788,-300.8"/>
<polygon fill="midnightblue" stroke="midnightblue" points="756.694,-305.848 747.169,-310.489 757.509,-312.801 756.694,-305.848"/>
</g>
<!-- Node42 -->
<g id="node15" class="node"><title>Node42</title>
<g id="a_node15"><a xlink:href="dashd_8cpp.html#a0ddf1224851353fc92bfbff6f499fa97" target="_top" xlink:title="main">
<polygon fill="white" stroke="black" points="975,-323 975,-342 1013,-342 1013,-323 975,-323"/>
<text text-anchor="middle" x="994" y="-330" font-family="Helvetica,sans-Serif" font-size="10.00">main</text>
</a>
</g>
</g>
<!-- Node41&#45;&gt;Node42 -->
<g id="edge15" class="edge"><title>Node41&#45;&gt;Node42</title>
<path fill="none" stroke="midnightblue" d="M918.151,-332.5C936.729,-332.5 959.304,-332.5 974.773,-332.5"/>
<polygon fill="midnightblue" stroke="midnightblue" points="918.036,-329 908.036,-332.5 918.035,-336 918.036,-329"/>
</g>
<!-- Node52&#45;&gt;Node48 -->
<g id="edge27" class="edge"><title>Node52&#45;&gt;Node48</title>
<path fill="none" stroke="midnightblue" d="M415.987,-34.42C419.761,-36.0277 423.462,-37.723 427,-39.5 460.87,-56.5093 496.36,-82.7491 517.312,-99.2547"/>
<polygon fill="midnightblue" stroke="midnightblue" points="417.091,-31.0917 406.508,-30.6074 414.479,-37.5861 417.091,-31.0917"/>
</g>
</g>
</svg>
