<?xml version="1.0" encoding="UTF-8" standalone="no"?>
<!DOCTYPE svg PUBLIC "-//W3C//DTD SVG 1.1//EN"
 "http://www.w3.org/Graphics/SVG/1.1/DTD/svg11.dtd">
<!-- Generated by graphviz version 2.38.0 (20140413.2041)
 -->
<!-- Title: secp256k1_ec_pubkey_serialize Pages: 1 -->
<!--zoomable 180 -->
<svg id="main" version="1.1" xmlns="http://www.w3.org/2000/svg" xmlns:xlink="http://www.w3.org/1999/xlink" xml:space="preserve" onload="init(evt)">
<style type="text/css"><![CDATA[
.edge:hover path { stroke: red; }
.edge:hover polygon { stroke: red; fill: red; }
]]></style>
<script type="text/javascript"><![CDATA[
var edges = document.getElementsByTagName('g');
if (edges && edges.length) {
  for (var i=0;i<edges.length;i++) {
    if (edges[i].id.substr(0,4)=='edge') {
      edges[i].setAttribute('class','edge');
    }
  }
}
]]></script>
        <defs>
                <circle id="rim" cx="0" cy="0" r="7"/>
                <circle id="rim2" cx="0" cy="0" r="3.5"/>
                <g id="zoomPlus">
                        <use xlink:href="#rim" fill="#404040">
                                <set attributeName="fill" to="#808080" begin="zoomplus.mouseover" end="zoomplus.mouseout"/>
                        </use>
                        <path d="M-4,0h8M0,-4v8" fill="none" stroke="white" stroke-width="1.5" pointer-events="none"/>
                </g>
                <g id="zoomMin">
                        <use xlink:href="#rim" fill="#404040">
                                <set attributeName="fill" to="#808080" begin="zoomminus.mouseover" end="zoomminus.mouseout"/>
                        </use>
                        <path d="M-4,0h8" fill="none" stroke="white" stroke-width="1.5" pointer-events="none"/>
                </g>
                <g id="dirArrow">
                        <path fill="none" stroke="white" stroke-width="1.5" d="M0,-3.0v7 M-2.5,-0.5L0,-3.0L2.5,-0.5"/>
                </g>
               <g id="resetDef">
                       <use xlink:href="#rim2" fill="#404040">
                               <set attributeName="fill" to="#808080" begin="reset.mouseover" end="reset.mouseout"/>
                       </use>
               </g>
        </defs>

<script type="text/javascript">
var viewWidth = 568;
var viewHeight = 180;
var sectionId = 'dynsection-28';
</script>
<script xlink:href="svgpan.js"/>
<svg id="graph" class="graph">
<g id="viewport">
<title>secp256k1_ec_pubkey_serialize</title>
<polygon fill="white" stroke="none" points="-4,4 -4,-176 564,-176 564,4 -4,4"/>
<!-- Node361 -->
<g id="node1" class="node"><title>Node361</title>
<polygon fill="#bfbfbf" stroke="black" points="0,-93 0,-123 116,-123 116,-93 0,-93"/>
<text text-anchor="start" x="8" y="-111" font-family="Helvetica,sans-Serif" font-size="10.00">secp256k1_ec_pubkey</text>
<text text-anchor="middle" x="58" y="-100" font-family="Helvetica,sans-Serif" font-size="10.00">_serialize</text>
</g>
<!-- Node362 -->
<g id="node2" class="node"><title>Node362</title>
<g id="a_node2"><a xlink:href="eckey_8h.html#ae1f52342d70928f16c8e606da59e6aa6" target="_top" xlink:title="secp256k1_eckey_pubkey\l_serialize">
<polygon fill="white" stroke="black" points="152,-115 152,-145 284,-145 284,-115 152,-115"/>
<text text-anchor="start" x="160" y="-133" font-family="Helvetica,sans-Serif" font-size="10.00">secp256k1_eckey_pubkey</text>
<text text-anchor="middle" x="218" y="-122" font-family="Helvetica,sans-Serif" font-size="10.00">_serialize</text>
</a>
</g>
</g>
<!-- Node361&#45;&gt;Node362 -->
<g id="edge1" class="edge"><title>Node361&#45;&gt;Node362</title>
<path fill="none" stroke="midnightblue" d="M116.042,-115.943C124.428,-117.11 133.173,-118.328 141.855,-119.537"/>
<polygon fill="midnightblue" stroke="midnightblue" points="141.607,-123.036 151.994,-120.949 142.573,-116.103 141.607,-123.036"/>
</g>
<!-- Node363 -->
<g id="node3" class="node"><title>Node363</title>
<g id="a_node3"><a xlink:href="secp256k1_8c.html#a9966ec041e71010d1593ae2211ffb843" target="_top" xlink:title="secp256k1_pubkey_load">
<polygon fill="white" stroke="black" points="156,-76.5 156,-95.5 280,-95.5 280,-76.5 156,-76.5"/>
<text text-anchor="middle" x="218" y="-83.5" font-family="Helvetica,sans-Serif" font-size="10.00">secp256k1_pubkey_load</text>
</a>
</g>
</g>
<!-- Node361&#45;&gt;Node363 -->
<g id="edge2" class="edge"><title>Node361&#45;&gt;Node363</title>
<path fill="none" stroke="midnightblue" d="M116.042,-100.057C125.721,-98.7098 135.877,-97.2956 145.865,-95.9049"/>
<polygon fill="midnightblue" stroke="midnightblue" points="146.35,-99.3712 155.772,-94.5255 145.385,-92.4381 146.35,-99.3712"/>
</g>
<!-- Node364 -->
<g id="node4" class="node"><title>Node364</title>
<g id="a_node4"><a xlink:href="glibc__compat_8cpp.html#a0f46826ab0466591e136db24394923cf" target="_top" xlink:title="memcpy">
<polygon fill="white" stroke="black" points="364,-152.5 364,-171.5 418,-171.5 418,-152.5 364,-152.5"/>
<text text-anchor="middle" x="391" y="-159.5" font-family="Helvetica,sans-Serif" font-size="10.00">memcpy</text>
</a>
</g>
</g>
<!-- Node363&#45;&gt;Node364 -->
<g id="edge3" class="edge"><title>Node363&#45;&gt;Node364</title>
<path fill="none" stroke="midnightblue" d="M260.911,-95.5038C268.894,-98.2396 276.949,-101.689 284,-106 303.575,-117.969 300.228,-131.36 320,-143 330.219,-149.016 342.392,-153.177 353.699,-156.034"/>
<polygon fill="midnightblue" stroke="midnightblue" points="353.233,-159.517 363.758,-158.306 354.775,-152.689 353.233,-159.517"/>
</g>
<!-- Node366 -->
<g id="node6" class="node"><title>Node366</title>
<g id="a_node6"><a xlink:href="group_8h.html#a8c1e7f328284d9ba56404bb8d99bf765" target="_top" xlink:title="Convert a group element back from the storage type. ">
<polygon fill="white" stroke="black" points="320,-114.5 320,-133.5 462,-133.5 462,-114.5 320,-114.5"/>
<text text-anchor="middle" x="391" y="-121.5" font-family="Helvetica,sans-Serif" font-size="10.00">secp256k1_ge_from_storage</text>
</a>
</g>
</g>
<!-- Node363&#45;&gt;Node366 -->
<g id="edge5" class="edge"><title>Node363&#45;&gt;Node366</title>
<path fill="none" stroke="midnightblue" d="M262.151,-95.589C284.919,-100.649 313.048,-106.9 337.119,-112.249"/>
<polygon fill="midnightblue" stroke="midnightblue" points="336.639,-115.727 347.16,-114.48 338.157,-108.894 336.639,-115.727"/>
</g>
<!-- Node367 -->
<g id="node7" class="node"><title>Node367</title>
<g id="a_node7"><a xlink:href="field_8h.html#a5c86a65052e3b135919c00fe2233a43d" target="_top" xlink:title="Set a field element equal to 32&#45;byte big endian value. ">
<polygon fill="white" stroke="black" points="332.5,-76.5 332.5,-95.5 449.5,-95.5 449.5,-76.5 332.5,-76.5"/>
<text text-anchor="middle" x="391" y="-83.5" font-family="Helvetica,sans-Serif" font-size="10.00">secp256k1_fe_set_b32</text>
</a>
</g>
</g>
<!-- Node363&#45;&gt;Node367 -->
<g id="edge6" class="edge"><title>Node363&#45;&gt;Node367</title>
<path fill="none" stroke="midnightblue" d="M280.252,-86C293.769,-86 308.167,-86 321.936,-86"/>
<polygon fill="midnightblue" stroke="midnightblue" points="322.317,-89.5001 332.317,-86 322.317,-82.5001 322.317,-89.5001"/>
</g>
<!-- Node368 -->
<g id="node8" class="node"><title>Node368</title>
<g id="a_node8"><a xlink:href="group_8h.html#a34ab3d1a9a0a7ff0ed1cedff9db5f73c" target="_top" xlink:title="Set a group element equal to the point with given X and Y coordinates. ">
<polygon fill="white" stroke="black" points="334,-38.5 334,-57.5 448,-57.5 448,-38.5 334,-38.5"/>
<text text-anchor="middle" x="391" y="-45.5" font-family="Helvetica,sans-Serif" font-size="10.00">secp256k1_ge_set_xy</text>
</a>
</g>
</g>
<!-- Node363&#45;&gt;Node368 -->
<g id="edge7" class="edge"><title>Node363&#45;&gt;Node368</title>
<path fill="none" stroke="midnightblue" d="M262.151,-76.411C284.919,-71.3513 313.048,-65.1004 337.119,-59.7512"/>
<polygon fill="midnightblue" stroke="midnightblue" points="338.157,-63.1061 347.16,-57.5201 336.639,-56.2728 338.157,-63.1061"/>
</g>
<!-- Node369 -->
<g id="node9" class="node"><title>Node369</title>
<g id="a_node9"><a xlink:href="field_8h.html#a619ec4805df6cc54d70e6682ceebd098" target="_top" xlink:title="Verify whether a field element is zero. ">
<polygon fill="white" stroke="black" points="334,-0.5 334,-19.5 448,-19.5 448,-0.5 334,-0.5"/>
<text text-anchor="middle" x="391" y="-7.5" font-family="Helvetica,sans-Serif" font-size="10.00">secp256k1_fe_is_zero</text>
</a>
</g>
</g>
<!-- Node363&#45;&gt;Node369 -->
<g id="edge8" class="edge"><title>Node363&#45;&gt;Node369</title>
<path fill="none" stroke="midnightblue" d="M233.473,-76.2958C252.577,-63.8533 287.589,-42.3007 320,-29 325.81,-26.6156 332.014,-24.4391 338.236,-22.48"/>
<polygon fill="midnightblue" stroke="midnightblue" points="339.39,-25.7883 347.977,-19.5817 337.394,-19.079 339.39,-25.7883"/>
</g>
<!-- Node365 -->
<g id="node5" class="node"><title>Node365</title>
<g id="a_node5"><a xlink:href="glibc__compat_8cpp.html#a9778d49e9029dd75bc53ecbbf9f5e9a1" target="_top" xlink:title="memmove">
<polygon fill="white" stroke="black" points="498,-152.5 498,-171.5 560,-171.5 560,-152.5 498,-152.5"/>
<text text-anchor="middle" x="529" y="-159.5" font-family="Helvetica,sans-Serif" font-size="10.00">memmove</text>
</a>
</g>
</g>
<!-- Node364&#45;&gt;Node365 -->
<g id="edge4" class="edge"><title>Node364&#45;&gt;Node365</title>
<path fill="none" stroke="midnightblue" d="M418.222,-162C437.813,-162 464.957,-162 487.351,-162"/>
<polygon fill="midnightblue" stroke="midnightblue" points="487.585,-165.5 497.585,-162 487.585,-158.5 487.585,-165.5"/>
</g>
</g>
</svg>
        <g id="navigator" transform="translate(0 0)" fill="#404254">
                <rect fill="#f2f5e9" fill-opacity="0.5" stroke="#606060" stroke-width=".5" x="0" y="0" width="60" height="60"/>
                <use id="zoomplus" xlink:href="#zoomPlus" x="17" y="9" onmousedown="handleZoom(evt,'in')"/>
                <use id="zoomminus" xlink:href="#zoomMin" x="42" y="9" onmousedown="handleZoom(evt,'out')"/>
                <use id="reset" xlink:href="#resetDef" x="30" y="36" onmousedown="handleReset()"/>
                <g id="arrowUp" xlink:href="#dirArrow" transform="translate(30 24)" onmousedown="handlePan(0,-1)">
                  <use xlink:href="#rim" fill="#404040">
                        <set attributeName="fill" to="#808080" begin="arrowUp.mouseover" end="arrowUp.mouseout"/>
                  </use>
                  <path fill="none" stroke="white" stroke-width="1.5" d="M0,-3.0v7 M-2.5,-0.5L0,-3.0L2.5,-0.5"/>
                </g>
                <g id="arrowRight" xlink:href="#dirArrow" transform="rotate(90) translate(36 -43)" onmousedown="handlePan(1,0)">
                  <use xlink:href="#rim" fill="#404040">
                        <set attributeName="fill" to="#808080" begin="arrowRight.mouseover" end="arrowRight.mouseout"/>
                  </use>
                  <path fill="none" stroke="white" stroke-width="1.5" d="M0,-3.0v7 M-2.5,-0.5L0,-3.0L2.5,-0.5"/>
                </g>
                <g id="arrowDown" xlink:href="#dirArrow" transform="rotate(180) translate(-30 -48)" onmousedown="handlePan(0,1)">
                  <use xlink:href="#rim" fill="#404040">
                        <set attributeName="fill" to="#808080" begin="arrowDown.mouseover" end="arrowDown.mouseout"/>
                  </use>
                  <path fill="none" stroke="white" stroke-width="1.5" d="M0,-3.0v7 M-2.5,-0.5L0,-3.0L2.5,-0.5"/>
                </g>
                <g id="arrowLeft" xlink:href="#dirArrow" transform="rotate(270) translate(-36 17)" onmousedown="handlePan(-1,0)">
                  <use xlink:href="#rim" fill="#404040">
                        <set attributeName="fill" to="#808080" begin="arrowLeft.mouseover" end="arrowLeft.mouseout"/>
                  </use>
                  <path fill="none" stroke="white" stroke-width="1.5" d="M0,-3.0v7 M-2.5,-0.5L0,-3.0L2.5,-0.5"/>
                </g>
        </g>
        <svg viewBox="0 0 15 15" width="100%" height="30px" preserveAspectRatio="xMaxYMin meet">
         <g id="arrow_out" transform="scale(0.3 0.3)">
          <a xlink:href="secp256k1_8c_a3b0440ba2ccd06e9262b94b41b680df1_cgraph_org.svg" target="_base">
           <rect id="button" ry="5" rx="5" y="6" x="6" height="38" width="38"
                fill="#f2f5e9" fill-opacity="0.5" stroke="#606060" stroke-width="1.0"/>
           <path id="arrow"
             d="M 11.500037,31.436501 C 11.940474,20.09759 22.043105,11.32322 32.158766,21.979434 L 37.068811,17.246167 C 37.068811,17.246167 37.088388,32 37.088388,32 L 22.160133,31.978069 C 22.160133,31.978069 26.997745,27.140456 26.997745,27.140456 C 18.528582,18.264221 13.291696,25.230495 11.500037,31.436501 z"
             style="fill:#404040;"/>
          </a>
         </g>
        </svg>
</svg>
