<?xml version="1.0" encoding="UTF-8" standalone="no"?>
<!DOCTYPE svg PUBLIC "-//W3C//DTD SVG 1.1//EN"
 "http://www.w3.org/Graphics/SVG/1.1/DTD/svg11.dtd">
<!-- Generated by graphviz version 2.38.0 (20140413.2041)
 -->
<!-- Title: secp256k1_ecdsa_signature_parse_der Pages: 1 -->
<svg width="535pt" height="192pt"
 viewBox="0.00 0.00 535.00 191.50" xmlns="http://www.w3.org/2000/svg" xmlns:xlink="http://www.w3.org/1999/xlink">
<g id="graph0" class="graph" transform="scale(1 1) rotate(0) translate(4 187.5)">
<title>secp256k1_ecdsa_signature_parse_der</title>
<polygon fill="white" stroke="none" points="-4,4 -4,-187.5 531,-187.5 531,4 -4,4"/>
<!-- Node1063 -->
<g id="node1" class="node"><title>Node1063</title>
<polygon fill="#bfbfbf" stroke="black" points="0,-82.5 0,-112.5 140,-112.5 140,-82.5 0,-82.5"/>
<text text-anchor="start" x="8" y="-100.5" font-family="Helvetica,sans-Serif" font-size="10.00">secp256k1_ecdsa_signature</text>
<text text-anchor="middle" x="70" y="-89.5" font-family="Helvetica,sans-Serif" font-size="10.00">_parse_der</text>
</g>
<!-- Node1064 -->
<g id="node2" class="node"><title>Node1064</title>
<g id="a_node2"><a xlink:href="bench__verify_8c.html#aad3aa8194973c32b12fa5d7eb1b0a462" target="_top" xlink:title="benchmark_verify">
<polygon fill="white" stroke="black" points="190,-164 190,-183 284,-183 284,-164 190,-164"/>
<text text-anchor="middle" x="237" y="-171" font-family="Helvetica,sans-Serif" font-size="10.00">benchmark_verify</text>
</a>
</g>
</g>
<!-- Node1063&#45;&gt;Node1064 -->
<g id="edge1" class="edge"><title>Node1063&#45;&gt;Node1064</title>
<path fill="none" stroke="midnightblue" d="M104.605,-117.879C124.82,-129.592 151.336,-144.014 176,-154.5 184.245,-158.006 193.365,-161.215 201.952,-163.958"/>
<polygon fill="midnightblue" stroke="midnightblue" points="106.187,-114.749 95.7899,-112.712 102.647,-120.788 106.187,-114.749"/>
</g>
<!-- Node1066 -->
<g id="node4" class="node"><title>Node1066</title>
<g id="a_node4"><a xlink:href="tests_8c.html#a1cb741ffd2cea46124f7abc2c506717a" target="_top" xlink:title="test_ecdsa_der_parse">
<polygon fill="white" stroke="black" points="180.5,-126 180.5,-145 293.5,-145 293.5,-126 180.5,-126"/>
<text text-anchor="middle" x="237" y="-133" font-family="Helvetica,sans-Serif" font-size="10.00">test_ecdsa_der_parse</text>
</a>
</g>
</g>
<!-- Node1063&#45;&gt;Node1066 -->
<g id="edge3" class="edge"><title>Node1063&#45;&gt;Node1066</title>
<path fill="none" stroke="midnightblue" d="M145.967,-114.765C162.652,-118.608 179.75,-122.546 194.503,-125.943"/>
<polygon fill="midnightblue" stroke="midnightblue" points="146.743,-111.352 136.212,-112.519 145.172,-118.174 146.743,-111.352"/>
</g>
<!-- Node1069 -->
<g id="node7" class="node"><title>Node1069</title>
<g id="a_node7"><a xlink:href="tests_8c.html#abbcb27d1eb13654db9b2e281ffce021e" target="_top" xlink:title="test_ecdsa_edge_cases">
<polygon fill="white" stroke="black" points="176,-88 176,-107 298,-107 298,-88 176,-88"/>
<text text-anchor="middle" x="237" y="-95" font-family="Helvetica,sans-Serif" font-size="10.00">test_ecdsa_edge_cases</text>
</a>
</g>
</g>
<!-- Node1063&#45;&gt;Node1069 -->
<g id="edge6" class="edge"><title>Node1063&#45;&gt;Node1069</title>
<path fill="none" stroke="midnightblue" d="M150.146,-97.5C158.813,-97.5 167.528,-97.5 175.91,-97.5"/>
<polygon fill="midnightblue" stroke="midnightblue" points="150.019,-94.0001 140.019,-97.5 150.019,-101 150.019,-94.0001"/>
</g>
<!-- Node1071 -->
<g id="node9" class="node"><title>Node1071</title>
<g id="a_node9"><a xlink:href="tests_8c.html#a3fc9dc1908215215a68690ea1bfa8bcd" target="_top" xlink:title="test_ecdsa_end_to_end">
<polygon fill="white" stroke="black" points="177,-50 177,-69 297,-69 297,-50 177,-50"/>
<text text-anchor="middle" x="237" y="-57" font-family="Helvetica,sans-Serif" font-size="10.00">test_ecdsa_end_to_end</text>
</a>
</g>
</g>
<!-- Node1063&#45;&gt;Node1071 -->
<g id="edge9" class="edge"><title>Node1063&#45;&gt;Node1071</title>
<path fill="none" stroke="midnightblue" d="M145.967,-80.2348C162.652,-76.3924 179.75,-72.4545 194.503,-69.0568"/>
<polygon fill="midnightblue" stroke="midnightblue" points="145.172,-76.8263 136.212,-82.4814 146.743,-83.6478 145.172,-76.8263"/>
</g>
<!-- Node1073 -->
<g id="node11" class="node"><title>Node1073</title>
<g id="a_node11"><a xlink:href="recovery_2tests__impl_8h.html#ad6d3138600637a7c940bc40a22795e46" target="_top" xlink:title="test_ecdsa_recovery\l_edge_cases">
<polygon fill="white" stroke="black" points="183.5,-0.5 183.5,-30.5 290.5,-30.5 290.5,-0.5 183.5,-0.5"/>
<text text-anchor="start" x="191.5" y="-18.5" font-family="Helvetica,sans-Serif" font-size="10.00">test_ecdsa_recovery</text>
<text text-anchor="middle" x="237" y="-7.5" font-family="Helvetica,sans-Serif" font-size="10.00">_edge_cases</text>
</a>
</g>
</g>
<!-- Node1063&#45;&gt;Node1073 -->
<g id="edge12" class="edge"><title>Node1063&#45;&gt;Node1073</title>
<path fill="none" stroke="midnightblue" d="M105.785,-77.4507C126.013,-66.0876 152.146,-51.9073 176,-40.5 183.126,-37.0921 190.842,-33.6787 198.291,-30.5176"/>
<polygon fill="midnightblue" stroke="midnightblue" points="103.919,-74.4851 96.9361,-82.4533 107.364,-80.5788 103.919,-74.4851"/>
</g>
<!-- Node1065 -->
<g id="node3" class="node"><title>Node1065</title>
<g id="a_node3"><a xlink:href="bench__verify_8c.html#a840291bc02cba5474a4cb46a9b9566fe" target="_top" xlink:title="main">
<polygon fill="white" stroke="black" points="374.5,-164 374.5,-183 412.5,-183 412.5,-164 374.5,-164"/>
<text text-anchor="middle" x="393.5" y="-171" font-family="Helvetica,sans-Serif" font-size="10.00">main</text>
</a>
</g>
</g>
<!-- Node1064&#45;&gt;Node1065 -->
<g id="edge2" class="edge"><title>Node1064&#45;&gt;Node1065</title>
<path fill="none" stroke="midnightblue" d="M294.512,-173.5C322.65,-173.5 354.752,-173.5 374.318,-173.5"/>
<polygon fill="midnightblue" stroke="midnightblue" points="294.355,-170 284.355,-173.5 294.355,-177 294.355,-170"/>
</g>
<!-- Node1067 -->
<g id="node5" class="node"><title>Node1067</title>
<g id="a_node5"><a xlink:href="tests_8c.html#aed8d29b89e89ae8bf370483684b1f7d2" target="_top" xlink:title="run_ecdsa_der_parse">
<polygon fill="white" stroke="black" points="338.5,-126 338.5,-145 448.5,-145 448.5,-126 338.5,-126"/>
<text text-anchor="middle" x="393.5" y="-133" font-family="Helvetica,sans-Serif" font-size="10.00">run_ecdsa_der_parse</text>
</a>
</g>
</g>
<!-- Node1066&#45;&gt;Node1067 -->
<g id="edge4" class="edge"><title>Node1066&#45;&gt;Node1067</title>
<path fill="none" stroke="midnightblue" d="M303.791,-135.5C315.316,-135.5 327.19,-135.5 338.355,-135.5"/>
<polygon fill="midnightblue" stroke="midnightblue" points="303.778,-132 293.778,-135.5 303.778,-139 303.778,-132"/>
</g>
<!-- Node1068 -->
<g id="node6" class="node"><title>Node1068</title>
<g id="a_node6"><a xlink:href="tests_8c.html#a3c04138a5bfe5d72780bb7e82a18e627" target="_top" xlink:title="main">
<polygon fill="white" stroke="black" points="489,-69 489,-88 527,-88 527,-69 489,-69"/>
<text text-anchor="middle" x="508" y="-76" font-family="Helvetica,sans-Serif" font-size="10.00">main</text>
</a>
</g>
</g>
<!-- Node1067&#45;&gt;Node1068 -->
<g id="edge5" class="edge"><title>Node1067&#45;&gt;Node1068</title>
<path fill="none" stroke="midnightblue" d="M439.414,-122.449C444.082,-120.64 448.69,-118.655 453,-116.5 468.79,-108.605 485.124,-96.4576 495.634,-88.0307"/>
<polygon fill="midnightblue" stroke="midnightblue" points="438.044,-119.223 429.828,-125.912 440.422,-125.807 438.044,-119.223"/>
</g>
<!-- Node1070 -->
<g id="node8" class="node"><title>Node1070</title>
<g id="a_node8"><a xlink:href="tests_8c.html#ad6c8109b62ea1d0ed1b382678a2a08b1" target="_top" xlink:title="run_ecdsa_edge_cases">
<polygon fill="white" stroke="black" points="334,-88 334,-107 453,-107 453,-88 334,-88"/>
<text text-anchor="middle" x="393.5" y="-95" font-family="Helvetica,sans-Serif" font-size="10.00">run_ecdsa_edge_cases</text>
</a>
</g>
</g>
<!-- Node1069&#45;&gt;Node1070 -->
<g id="edge7" class="edge"><title>Node1069&#45;&gt;Node1070</title>
<path fill="none" stroke="midnightblue" d="M308.426,-97.5C316.896,-97.5 325.477,-97.5 333.756,-97.5"/>
<polygon fill="midnightblue" stroke="midnightblue" points="308.176,-94.0001 298.176,-97.5 308.176,-101 308.176,-94.0001"/>
</g>
<!-- Node1070&#45;&gt;Node1068 -->
<g id="edge8" class="edge"><title>Node1070&#45;&gt;Node1068</title>
<path fill="none" stroke="midnightblue" d="M461.203,-86.2347C471.222,-84.5425 480.783,-82.9277 488.553,-81.6155"/>
<polygon fill="midnightblue" stroke="midnightblue" points="460.357,-82.8278 451.08,-87.9443 461.523,-89.7301 460.357,-82.8278"/>
</g>
<!-- Node1072 -->
<g id="node10" class="node"><title>Node1072</title>
<g id="a_node10"><a xlink:href="tests_8c.html#ab05096657be701bf9ca8616475bb9491" target="_top" xlink:title="run_ecdsa_end_to_end">
<polygon fill="white" stroke="black" points="335,-50 335,-69 452,-69 452,-50 335,-50"/>
<text text-anchor="middle" x="393.5" y="-57" font-family="Helvetica,sans-Serif" font-size="10.00">run_ecdsa_end_to_end</text>
</a>
</g>
</g>
<!-- Node1071&#45;&gt;Node1072 -->
<g id="edge10" class="edge"><title>Node1071&#45;&gt;Node1072</title>
<path fill="none" stroke="midnightblue" d="M307.531,-59.5C316.68,-59.5 325.974,-59.5 334.894,-59.5"/>
<polygon fill="midnightblue" stroke="midnightblue" points="307.292,-56.0001 297.292,-59.5 307.292,-63.0001 307.292,-56.0001"/>
</g>
<!-- Node1072&#45;&gt;Node1068 -->
<g id="edge11" class="edge"><title>Node1072&#45;&gt;Node1068</title>
<path fill="none" stroke="midnightblue" d="M461.203,-70.7653C471.222,-72.4575 480.783,-74.0723 488.553,-75.3845"/>
<polygon fill="midnightblue" stroke="midnightblue" points="461.523,-67.2699 451.08,-69.0557 460.357,-74.1722 461.523,-67.2699"/>
</g>
<!-- Node1074 -->
<g id="node12" class="node"><title>Node1074</title>
<g id="a_node12"><a xlink:href="recovery_2tests__impl_8h.html#a3a06f71955483e9502f3c408857407f2" target="_top" xlink:title="run_recovery_tests">
<polygon fill="white" stroke="black" points="343.5,-9 343.5,-28 443.5,-28 443.5,-9 343.5,-9"/>
<text text-anchor="middle" x="393.5" y="-16" font-family="Helvetica,sans-Serif" font-size="10.00">run_recovery_tests</text>
</a>
</g>
</g>
<!-- Node1073&#45;&gt;Node1074 -->
<g id="edge13" class="edge"><title>Node1073&#45;&gt;Node1074</title>
<path fill="none" stroke="midnightblue" d="M300.901,-16.7214C315.059,-16.9963 329.883,-17.2841 343.381,-17.5462"/>
<polygon fill="midnightblue" stroke="midnightblue" points="300.804,-13.2189 290.738,-16.524 300.668,-20.2176 300.804,-13.2189"/>
</g>
<!-- Node1074&#45;&gt;Node1068 -->
<g id="edge14" class="edge"><title>Node1074&#45;&gt;Node1068</title>
<path fill="none" stroke="midnightblue" d="M433.763,-31.6898C440.313,-34.3343 446.942,-37.2963 453,-40.5 468.403,-48.646 484.552,-60.5151 495.131,-68.8143"/>
<polygon fill="midnightblue" stroke="midnightblue" points="434.888,-28.3729 424.298,-28.0513 432.376,-34.9067 434.888,-28.3729"/>
</g>
</g>
</svg>
