<?xml version="1.0" encoding="UTF-8" standalone="no"?>
<!DOCTYPE svg PUBLIC "-//W3C//DTD SVG 1.1//EN"
 "http://www.w3.org/Graphics/SVG/1.1/DTD/svg11.dtd">
<!-- Generated by graphviz version 2.38.0 (20140413.2041)
 -->
<!-- Title: Unserialize Pages: 1 -->
<svg width="411pt" height="142pt"
 viewBox="0.00 0.00 411.00 142.00" xmlns="http://www.w3.org/2000/svg" xmlns:xlink="http://www.w3.org/1999/xlink">
<g id="graph0" class="graph" transform="scale(1 1) rotate(0) translate(4 138)">
<title>Unserialize</title>
<polygon fill="white" stroke="none" points="-4,4 -4,-138 407,-138 407,4 -4,4"/>
<!-- Node1059 -->
<g id="node1" class="node"><title>Node1059</title>
<polygon fill="#bfbfbf" stroke="black" points="0,-57.5 0,-76.5 65,-76.5 65,-57.5 0,-57.5"/>
<text text-anchor="middle" x="32.5" y="-64.5" font-family="Helvetica,sans-Serif" font-size="10.00">Unserialize</text>
</g>
<!-- Node1060 -->
<g id="node2" class="node"><title>Node1060</title>
<g id="a_node2"><a xlink:href="serialize_8h.html#ae3fd928949b7361accfec79c314aa90f" target="_top" xlink:title="ReadCompactSize">
<polygon fill="white" stroke="black" points="101,-57.5 101,-76.5 200,-76.5 200,-57.5 101,-57.5"/>
<text text-anchor="middle" x="150.5" y="-64.5" font-family="Helvetica,sans-Serif" font-size="10.00">ReadCompactSize</text>
</a>
</g>
</g>
<!-- Node1059&#45;&gt;Node1060 -->
<g id="edge1" class="edge"><title>Node1059&#45;&gt;Node1060</title>
<path fill="none" stroke="midnightblue" d="M65.1975,-67C73.1047,-67 81.8393,-67 90.6013,-67"/>
<polygon fill="midnightblue" stroke="midnightblue" points="90.8518,-70.5001 100.852,-67 90.8517,-63.5001 90.8518,-70.5001"/>
</g>
<!-- Node1061 -->
<g id="node3" class="node"><title>Node1061</title>
<g id="a_node3"><a xlink:href="serialize_8h.html#a9d79b9c324578a126d1a393047cec9a4" target="_top" xlink:title="ser_readdata16">
<polygon fill="white" stroke="black" points="236,-114.5 236,-133.5 319,-133.5 319,-114.5 236,-114.5"/>
<text text-anchor="middle" x="277.5" y="-121.5" font-family="Helvetica,sans-Serif" font-size="10.00">ser_readdata16</text>
</a>
</g>
</g>
<!-- Node1060&#45;&gt;Node1061 -->
<g id="edge2" class="edge"><title>Node1060&#45;&gt;Node1061</title>
<path fill="none" stroke="midnightblue" d="M172.422,-76.5405C192.612,-85.7472 223.396,-99.7847 246.253,-110.207"/>
<polygon fill="midnightblue" stroke="midnightblue" points="244.959,-113.464 255.51,-114.428 247.863,-107.095 244.959,-113.464"/>
</g>
<!-- Node1063 -->
<g id="node5" class="node"><title>Node1063</title>
<g id="a_node5"><a xlink:href="serialize_8h.html#ac0bbdc7ba802bbaafbf0cf7774b291d6" target="_top" xlink:title="ser_readdata32">
<polygon fill="white" stroke="black" points="236,-76.5 236,-95.5 319,-95.5 319,-76.5 236,-76.5"/>
<text text-anchor="middle" x="277.5" y="-83.5" font-family="Helvetica,sans-Serif" font-size="10.00">ser_readdata32</text>
</a>
</g>
</g>
<!-- Node1060&#45;&gt;Node1063 -->
<g id="edge4" class="edge"><title>Node1060&#45;&gt;Node1063</title>
<path fill="none" stroke="midnightblue" d="M200.186,-74.4003C208.569,-75.6744 217.3,-77.0016 225.736,-78.2838"/>
<polygon fill="midnightblue" stroke="midnightblue" points="225.423,-81.7764 235.835,-79.8189 226.475,-74.8559 225.423,-81.7764"/>
</g>
<!-- Node1065 -->
<g id="node7" class="node"><title>Node1065</title>
<g id="a_node7"><a xlink:href="serialize_8h.html#aa69ce8c2279c2779e04d7b24babe10fc" target="_top" xlink:title="ser_readdata64">
<polygon fill="white" stroke="black" points="236,-38.5 236,-57.5 319,-57.5 319,-38.5 236,-38.5"/>
<text text-anchor="middle" x="277.5" y="-45.5" font-family="Helvetica,sans-Serif" font-size="10.00">ser_readdata64</text>
</a>
</g>
</g>
<!-- Node1060&#45;&gt;Node1065 -->
<g id="edge6" class="edge"><title>Node1060&#45;&gt;Node1065</title>
<path fill="none" stroke="midnightblue" d="M200.186,-59.5997C208.569,-58.3256 217.3,-56.9984 225.736,-55.7162"/>
<polygon fill="midnightblue" stroke="midnightblue" points="226.475,-59.1441 235.835,-54.1811 225.423,-52.2236 226.475,-59.1441"/>
</g>
<!-- Node1067 -->
<g id="node9" class="node"><title>Node1067</title>
<g id="a_node9"><a xlink:href="serialize_8h.html#a1d1f53d2d72386236484546b49409188" target="_top" xlink:title="ser_readdata8">
<polygon fill="white" stroke="black" points="238.5,-0.5 238.5,-19.5 316.5,-19.5 316.5,-0.5 238.5,-0.5"/>
<text text-anchor="middle" x="277.5" y="-7.5" font-family="Helvetica,sans-Serif" font-size="10.00">ser_readdata8</text>
</a>
</g>
</g>
<!-- Node1060&#45;&gt;Node1067 -->
<g id="edge8" class="edge"><title>Node1060&#45;&gt;Node1067</title>
<path fill="none" stroke="midnightblue" d="M172.422,-57.4595C192.612,-48.2528 223.396,-34.2153 246.253,-23.7926"/>
<polygon fill="midnightblue" stroke="midnightblue" points="247.863,-26.9052 255.51,-19.5716 244.959,-20.5362 247.863,-26.9052"/>
</g>
<!-- Node1062 -->
<g id="node4" class="node"><title>Node1062</title>
<g id="a_node4"><a xlink:href="endian_8h.html#a43af2810e0abe8dcaefe0920e64a99f4" target="_top" xlink:title="le16toh">
<polygon fill="white" stroke="black" points="355,-114.5 355,-133.5 403,-133.5 403,-114.5 355,-114.5"/>
<text text-anchor="middle" x="379" y="-121.5" font-family="Helvetica,sans-Serif" font-size="10.00">le16toh</text>
</a>
</g>
</g>
<!-- Node1061&#45;&gt;Node1062 -->
<g id="edge3" class="edge"><title>Node1061&#45;&gt;Node1062</title>
<path fill="none" stroke="midnightblue" d="M319.258,-124C327.691,-124 336.481,-124 344.615,-124"/>
<polygon fill="midnightblue" stroke="midnightblue" points="344.843,-127.5 354.843,-124 344.843,-120.5 344.843,-127.5"/>
</g>
<!-- Node1064 -->
<g id="node6" class="node"><title>Node1064</title>
<g id="a_node6"><a xlink:href="endian_8h.html#a3b4e83868bbf53b2572b736fc146a319" target="_top" xlink:title="le32toh">
<polygon fill="white" stroke="black" points="355,-76.5 355,-95.5 403,-95.5 403,-76.5 355,-76.5"/>
<text text-anchor="middle" x="379" y="-83.5" font-family="Helvetica,sans-Serif" font-size="10.00">le32toh</text>
</a>
</g>
</g>
<!-- Node1063&#45;&gt;Node1064 -->
<g id="edge5" class="edge"><title>Node1063&#45;&gt;Node1064</title>
<path fill="none" stroke="midnightblue" d="M319.258,-86C327.691,-86 336.481,-86 344.615,-86"/>
<polygon fill="midnightblue" stroke="midnightblue" points="344.843,-89.5001 354.843,-86 344.843,-82.5001 344.843,-89.5001"/>
</g>
<!-- Node1066 -->
<g id="node8" class="node"><title>Node1066</title>
<g id="a_node8"><a xlink:href="endian_8h.html#afc03933561fbd136419c5e9649f975df" target="_top" xlink:title="le64toh">
<polygon fill="white" stroke="black" points="355,-38.5 355,-57.5 403,-57.5 403,-38.5 355,-38.5"/>
<text text-anchor="middle" x="379" y="-45.5" font-family="Helvetica,sans-Serif" font-size="10.00">le64toh</text>
</a>
</g>
</g>
<!-- Node1065&#45;&gt;Node1066 -->
<g id="edge7" class="edge"><title>Node1065&#45;&gt;Node1066</title>
<path fill="none" stroke="midnightblue" d="M319.258,-48C327.691,-48 336.481,-48 344.615,-48"/>
<polygon fill="midnightblue" stroke="midnightblue" points="344.843,-51.5001 354.843,-48 344.843,-44.5001 344.843,-51.5001"/>
</g>
</g>
</svg>
