<?xml version="1.0" encoding="UTF-8" standalone="no"?>
<!DOCTYPE svg PUBLIC "-//W3C//DTD SVG 1.1//EN"
 "http://www.w3.org/Graphics/SVG/1.1/DTD/svg11.dtd">
<!-- Generated by graphviz version 2.38.0 (20140413.2041)
 -->
<!-- Title: ser_readdata64 Pages: 1 -->
<!--zoomable 288 -->
<svg id="main" version="1.1" xmlns="http://www.w3.org/2000/svg" xmlns:xlink="http://www.w3.org/1999/xlink" xml:space="preserve" onload="init(evt)">
<style type="text/css"><![CDATA[
.edge:hover path { stroke: red; }
.edge:hover polygon { stroke: red; fill: red; }
]]></style>
<script type="text/javascript"><![CDATA[
var edges = document.getElementsByTagName('g');
if (edges && edges.length) {
  for (var i=0;i<edges.length;i++) {
    if (edges[i].id.substr(0,4)=='edge') {
      edges[i].setAttribute('class','edge');
    }
  }
}
]]></script>
        <defs>
                <circle id="rim" cx="0" cy="0" r="7"/>
                <circle id="rim2" cx="0" cy="0" r="3.5"/>
                <g id="zoomPlus">
                        <use xlink:href="#rim" fill="#404040">
                                <set attributeName="fill" to="#808080" begin="zoomplus.mouseover" end="zoomplus.mouseout"/>
                        </use>
                        <path d="M-4,0h8M0,-4v8" fill="none" stroke="white" stroke-width="1.5" pointer-events="none"/>
                </g>
                <g id="zoomMin">
                        <use xlink:href="#rim" fill="#404040">
                                <set attributeName="fill" to="#808080" begin="zoomminus.mouseover" end="zoomminus.mouseout"/>
                        </use>
                        <path d="M-4,0h8" fill="none" stroke="white" stroke-width="1.5" pointer-events="none"/>
                </g>
                <g id="dirArrow">
                        <path fill="none" stroke="white" stroke-width="1.5" d="M0,-3.0v7 M-2.5,-0.5L0,-3.0L2.5,-0.5"/>
                </g>
               <g id="resetDef">
                       <use xlink:href="#rim2" fill="#404040">
                               <set attributeName="fill" to="#808080" begin="reset.mouseover" end="reset.mouseout"/>
                       </use>
               </g>
        </defs>

<script type="text/javascript">
var viewWidth = 1178;
var viewHeight = 288;
var sectionId = 'dynsection-31';
</script>
<script xlink:href="svgpan.js"/>
<svg id="graph" class="graph">
<g id="viewport">
<title>ser_readdata64</title>
<polygon fill="white" stroke="none" points="-4,4 -4,-283.97 1174,-283.97 1174,4 -4,4"/>
<!-- Node561 -->
<g id="node1" class="node"><title>Node561</title>
<polygon fill="#bfbfbf" stroke="black" points="0,-95.5 0,-114.5 83,-114.5 83,-95.5 0,-95.5"/>
<text text-anchor="middle" x="41.5" y="-102.5" font-family="Helvetica,sans-Serif" font-size="10.00">ser_readdata64</text>
</g>
<!-- Node562 -->
<g id="node2" class="node"><title>Node562</title>
<g id="a_node2"><a xlink:href="serialize_8h.html#ae3fd928949b7361accfec79c314aa90f" target="_top" xlink:title="ReadCompactSize">
<polygon fill="white" stroke="black" points="119,-114.5 119,-133.5 218,-133.5 218,-114.5 119,-114.5"/>
<text text-anchor="middle" x="168.5" y="-121.5" font-family="Helvetica,sans-Serif" font-size="10.00">ReadCompactSize</text>
</a>
</g>
</g>
<!-- Node561&#45;&gt;Node562 -->
<g id="edge1" class="edge"><title>Node561&#45;&gt;Node562</title>
<path fill="none" stroke="midnightblue" d="M93.2108,-112.708C101.67,-113.994 110.429,-115.325 118.836,-116.603"/>
<polygon fill="midnightblue" stroke="midnightblue" points="93.4964,-109.211 83.0839,-111.169 92.4444,-116.132 93.4964,-109.211"/>
</g>
<!-- Node582 -->
<g id="node22" class="node"><title>Node582</title>
<g id="a_node22"><a xlink:href="serialize_8h.html#a7ee443a9c5c2edf478ff8d371589f768" target="_top" xlink:title="Unserialize">
<polygon fill="white" stroke="black" points="136,-76.5 136,-95.5 201,-95.5 201,-76.5 136,-76.5"/>
<text text-anchor="middle" x="168.5" y="-83.5" font-family="Helvetica,sans-Serif" font-size="10.00">Unserialize</text>
</a>
</g>
</g>
<!-- Node561&#45;&gt;Node582 -->
<g id="edge22" class="edge"><title>Node561&#45;&gt;Node582</title>
<path fill="none" stroke="midnightblue" d="M93.3503,-97.2708C107.719,-95.0868 122.939,-92.7733 135.826,-90.8145"/>
<polygon fill="midnightblue" stroke="midnightblue" points="92.4444,-93.8682 83.0839,-98.8312 93.4964,-100.789 92.4444,-93.8682"/>
</g>
<!-- Node563 -->
<g id="node3" class="node"><title>Node563</title>
<g id="a_node3"><a xlink:href="net__processing_8cpp.html#a193d0ece6e2f2f7ee37352ac9720bb83" target="_top" xlink:title="ProcessMessage">
<polygon fill="white" stroke="black" points="272,-228.5 272,-247.5 364,-247.5 364,-228.5 272,-228.5"/>
<text text-anchor="middle" x="318" y="-235.5" font-family="Helvetica,sans-Serif" font-size="10.00">ProcessMessage</text>
</a>
</g>
</g>
<!-- Node562&#45;&gt;Node563 -->
<g id="edge2" class="edge"><title>Node562&#45;&gt;Node563</title>
<path fill="none" stroke="midnightblue" d="M181.029,-142.174C195.532,-163.593 222.4,-198.818 254,-219 260.066,-222.874 266.961,-225.992 273.911,-228.491"/>
<polygon fill="midnightblue" stroke="midnightblue" points="183.85,-140.093 175.428,-133.665 178.003,-143.942 183.85,-140.093"/>
</g>
<!-- Node575 -->
<g id="node15" class="node"><title>Node575</title>
<g id="a_node15"><a xlink:href="class_c_pub_key.html#a1cfd8e3c711f5298eecdacd5979f6e6c" target="_top" xlink:title="CPubKey::Unserialize">
<polygon fill="white" stroke="black" points="261.5,-190.5 261.5,-209.5 374.5,-209.5 374.5,-190.5 261.5,-190.5"/>
<text text-anchor="middle" x="318" y="-197.5" font-family="Helvetica,sans-Serif" font-size="10.00">CPubKey::Unserialize</text>
</a>
</g>
</g>
<!-- Node562&#45;&gt;Node575 -->
<g id="edge15" class="edge"><title>Node562&#45;&gt;Node575</title>
<path fill="none" stroke="midnightblue" d="M189.411,-139.966C205.909,-152.554 230.395,-169.796 254,-181 261.74,-184.674 270.353,-187.826 278.662,-190.447"/>
<polygon fill="midnightblue" stroke="midnightblue" points="191.165,-136.897 181.123,-133.52 186.868,-142.422 191.165,-136.897"/>
</g>
<!-- Node576 -->
<g id="node16" class="node"><title>Node576</title>
<g id="a_node16"><a xlink:href="struct_c_ext_key.html#ac91216c4c37bd7190a88c2452e8b1735" target="_top" xlink:title="CExtKey::Unserialize">
<polygon fill="white" stroke="black" points="262.5,-152.5 262.5,-171.5 373.5,-171.5 373.5,-152.5 262.5,-152.5"/>
<text text-anchor="middle" x="318" y="-159.5" font-family="Helvetica,sans-Serif" font-size="10.00">CExtKey::Unserialize</text>
</a>
</g>
</g>
<!-- Node562&#45;&gt;Node576 -->
<g id="edge16" class="edge"><title>Node562&#45;&gt;Node576</title>
<path fill="none" stroke="midnightblue" d="M216.514,-136.112C237.057,-141.404 260.8,-147.521 280.047,-152.48"/>
<polygon fill="midnightblue" stroke="midnightblue" points="217.277,-132.695 206.72,-133.589 215.531,-139.473 217.277,-132.695"/>
</g>
<!-- Node577 -->
<g id="node17" class="node"><title>Node577</title>
<g id="a_node17"><a xlink:href="struct_c_ext_pub_key.html#a929ebe0d428cc3e8d9827568e65038ac" target="_top" xlink:title="CExtPubKey::Unserialize">
<polygon fill="white" stroke="black" points="254,-114.5 254,-133.5 382,-133.5 382,-114.5 254,-114.5"/>
<text text-anchor="middle" x="318" y="-121.5" font-family="Helvetica,sans-Serif" font-size="10.00">CExtPubKey::Unserialize</text>
</a>
</g>
</g>
<!-- Node562&#45;&gt;Node577 -->
<g id="edge17" class="edge"><title>Node562&#45;&gt;Node577</title>
<path fill="none" stroke="midnightblue" d="M228.299,-124C236.709,-124 245.39,-124 253.878,-124"/>
<polygon fill="midnightblue" stroke="midnightblue" points="228.206,-120.5 218.206,-124 228.206,-127.5 228.206,-120.5"/>
</g>
<!-- Node578 -->
<g id="node18" class="node"><title>Node578</title>
<g id="a_node18"><a xlink:href="class_limited_string.html#a21ec9b742da8f8ff7b9a8b89131f943b" target="_top" xlink:title="LimitedString::Unserialize">
<polygon fill="white" stroke="black" points="254,-76.5 254,-95.5 382,-95.5 382,-76.5 254,-76.5"/>
<text text-anchor="middle" x="318" y="-83.5" font-family="Helvetica,sans-Serif" font-size="10.00">LimitedString::Unserialize</text>
</a>
</g>
</g>
<!-- Node562&#45;&gt;Node578 -->
<g id="edge18" class="edge"><title>Node562&#45;&gt;Node578</title>
<path fill="none" stroke="midnightblue" d="M216.514,-111.888C237.057,-106.596 260.8,-100.479 280.047,-95.5201"/>
<polygon fill="midnightblue" stroke="midnightblue" points="215.531,-108.527 206.72,-114.411 217.277,-115.305 215.531,-108.527"/>
</g>
<!-- Node579 -->
<g id="node19" class="node"><title>Node579</title>
<g id="a_node19"><a xlink:href="serialize_8h.html#aa688c53c27044d715917e33769b4f415" target="_top" xlink:title="Unserialize">
<polygon fill="white" stroke="black" points="285.5,-38.5 285.5,-57.5 350.5,-57.5 350.5,-38.5 285.5,-38.5"/>
<text text-anchor="middle" x="318" y="-45.5" font-family="Helvetica,sans-Serif" font-size="10.00">Unserialize</text>
</a>
</g>
</g>
<!-- Node562&#45;&gt;Node579 -->
<g id="edge19" class="edge"><title>Node562&#45;&gt;Node579</title>
<path fill="none" stroke="midnightblue" d="M209.286,-110.116C212.32,-108.549 215.263,-106.844 218,-105 237.294,-92.0006 234.199,-79.2129 254,-67 263.432,-61.1828 274.761,-57.0461 285.195,-54.1516"/>
<polygon fill="midnightblue" stroke="midnightblue" points="207.626,-107.028 200.025,-114.409 210.57,-113.379 207.626,-107.028"/>
</g>
<!-- Node580 -->
<g id="node20" class="node"><title>Node580</title>
<g id="a_node20"><a xlink:href="serialize_8h.html#a4f2ad9aaa1793ca2880eb29110a1be4b" target="_top" xlink:title="Unserialize_impl">
<polygon fill="white" stroke="black" points="273.5,-0.5 273.5,-19.5 362.5,-19.5 362.5,-0.5 273.5,-0.5"/>
<text text-anchor="middle" x="318" y="-7.5" font-family="Helvetica,sans-Serif" font-size="10.00">Unserialize_impl</text>
</a>
</g>
</g>
<!-- Node562&#45;&gt;Node580 -->
<g id="edge20" class="edge"><title>Node562&#45;&gt;Node580</title>
<path fill="none" stroke="midnightblue" d="M212.623,-109.306C214.528,-107.986 216.335,-106.554 218,-105 245.324,-79.4987 225.672,-53.3816 254,-29 259.542,-24.2305 266.25,-20.6582 273.195,-17.9827"/>
<polygon fill="midnightblue" stroke="midnightblue" points="210.703,-106.372 203.782,-114.394 214.195,-112.439 210.703,-106.372"/>
</g>
<!-- Node564 -->
<g id="node4" class="node"><title>Node564</title>
<g id="a_node4"><a xlink:href="net__processing_8h.html#a7fa42e7ffd6e6ba5b7537af248e30fc8" target="_top" xlink:title="Process protocol messages received from a given node. ">
<polygon fill="white" stroke="black" points="418,-228.5 418,-247.5 516,-247.5 516,-228.5 418,-228.5"/>
<text text-anchor="middle" x="467" y="-235.5" font-family="Helvetica,sans-Serif" font-size="10.00">ProcessMessages</text>
</a>
</g>
</g>
<!-- Node563&#45;&gt;Node564 -->
<g id="edge3" class="edge"><title>Node563&#45;&gt;Node564</title>
<path fill="none" stroke="midnightblue" d="M374.476,-238C388.726,-238 403.938,-238 417.786,-238"/>
<polygon fill="midnightblue" stroke="midnightblue" points="374.304,-234.5 364.304,-238 374.304,-241.5 374.304,-234.5"/>
</g>
<!-- Node565 -->
<g id="node5" class="node"><title>Node565</title>
<g id="a_node5"><a xlink:href="net__processing_8h.html#ab02615ff65f91d69f8d786ec900baa8a" target="_top" xlink:title="Register with a network node to receive its signals. ">
<polygon fill="white" stroke="black" points="556,-247.5 556,-266.5 665,-266.5 665,-247.5 556,-247.5"/>
<text text-anchor="middle" x="610.5" y="-254.5" font-family="Helvetica,sans-Serif" font-size="10.00">RegisterNodeSignals</text>
</a>
</g>
</g>
<!-- Node564&#45;&gt;Node565 -->
<g id="edge4" class="edge"><title>Node564&#45;&gt;Node565</title>
<path fill="none" stroke="midnightblue" d="M526.265,-245.824C535.971,-247.127 546,-248.473 555.59,-249.761"/>
<polygon fill="midnightblue" stroke="midnightblue" points="526.677,-242.348 516.301,-244.486 525.746,-249.285 526.677,-242.348"/>
</g>
<!-- Node570 -->
<g id="node10" class="node"><title>Node570</title>
<g id="a_node10"><a xlink:href="net__processing_8h.html#a3ef0cc6e9d9d6435ee2a5569244d6ebd" target="_top" xlink:title="Unregister a network node. ">
<polygon fill="white" stroke="black" points="552,-209.5 552,-228.5 669,-228.5 669,-209.5 552,-209.5"/>
<text text-anchor="middle" x="610.5" y="-216.5" font-family="Helvetica,sans-Serif" font-size="10.00">UnregisterNodeSignals</text>
</a>
</g>
</g>
<!-- Node564&#45;&gt;Node570 -->
<g id="edge9" class="edge"><title>Node564&#45;&gt;Node570</title>
<path fill="none" stroke="midnightblue" d="M526.343,-230.166C534.7,-229.044 543.295,-227.89 551.642,-226.769"/>
<polygon fill="midnightblue" stroke="midnightblue" points="525.746,-226.715 516.301,-231.514 526.677,-233.652 525.746,-226.715"/>
</g>
<!-- Node566 -->
<g id="node6" class="node"><title>Node566</title>
<g id="a_node6"><a xlink:href="init_8h.html#a6f0784aa332573f949b0975205572b28" target="_top" xlink:title="Initialize Dash Core. ">
<polygon fill="white" stroke="black" points="725.5,-247.5 725.5,-266.5 778.5,-266.5 778.5,-247.5 725.5,-247.5"/>
<text text-anchor="middle" x="752" y="-254.5" font-family="Helvetica,sans-Serif" font-size="10.00">AppInit2</text>
</a>
</g>
</g>
<!-- Node565&#45;&gt;Node566 -->
<g id="edge5" class="edge"><title>Node565&#45;&gt;Node566</title>
<path fill="none" stroke="midnightblue" d="M675.375,-257C693.095,-257 711.324,-257 725.444,-257"/>
<polygon fill="midnightblue" stroke="midnightblue" points="675.035,-253.5 665.035,-257 675.035,-260.5 675.035,-253.5"/>
</g>
<!-- Node567 -->
<g id="node7" class="node"><title>Node567</title>
<g id="a_node7"><a xlink:href="dashd_8cpp.html#ac59316b767e6984e1285f0531275286b" target="_top" xlink:title="AppInit">
<polygon fill="white" stroke="black" points="1014.5,-247.5 1014.5,-266.5 1061.5,-266.5 1061.5,-247.5 1014.5,-247.5"/>
<text text-anchor="middle" x="1038" y="-254.5" font-family="Helvetica,sans-Serif" font-size="10.00">AppInit</text>
</a>
</g>
</g>
<!-- Node566&#45;&gt;Node567 -->
<g id="edge6" class="edge"><title>Node566&#45;&gt;Node567</title>
<path fill="none" stroke="midnightblue" d="M788.527,-267.091C802.837,-270.666 819.578,-274.237 835,-276 883.131,-281.503 895.801,-280.873 944,-276 968.266,-273.547 995.557,-267.58 1014.27,-262.982"/>
<polygon fill="midnightblue" stroke="midnightblue" points="789.148,-263.636 778.59,-264.512 787.39,-270.412 789.148,-263.636"/>
</g>
<!-- Node569 -->
<g id="node9" class="node"><title>Node569</title>
<g id="a_node9"><a xlink:href="class_bitcoin_core.html#af34ca069cda1d4362dcc109b4397fb62" target="_top" xlink:title="BitcoinCore::initialize">
<polygon fill="white" stroke="black" points="835,-247.5 835,-266.5 944,-266.5 944,-247.5 835,-247.5"/>
<text text-anchor="middle" x="889.5" y="-254.5" font-family="Helvetica,sans-Serif" font-size="10.00">BitcoinCore::initialize</text>
</a>
</g>
</g>
<!-- Node566&#45;&gt;Node569 -->
<g id="edge8" class="edge"><title>Node566&#45;&gt;Node569</title>
<path fill="none" stroke="midnightblue" d="M789.012,-257C803.027,-257 819.384,-257 834.739,-257"/>
<polygon fill="midnightblue" stroke="midnightblue" points="788.805,-253.5 778.805,-257 788.805,-260.5 788.805,-253.5"/>
</g>
<!-- Node568 -->
<g id="node8" class="node"><title>Node568</title>
<g id="a_node8"><a xlink:href="dashd_8cpp.html#a0ddf1224851353fc92bfbff6f499fa97" target="_top" xlink:title="main">
<polygon fill="white" stroke="black" points="1132,-247.5 1132,-266.5 1170,-266.5 1170,-247.5 1132,-247.5"/>
<text text-anchor="middle" x="1151" y="-254.5" font-family="Helvetica,sans-Serif" font-size="10.00">main</text>
</a>
</g>
</g>
<!-- Node567&#45;&gt;Node568 -->
<g id="edge7" class="edge"><title>Node567&#45;&gt;Node568</title>
<path fill="none" stroke="midnightblue" d="M1071.77,-257C1091.33,-257 1115.46,-257 1131.7,-257"/>
<polygon fill="midnightblue" stroke="midnightblue" points="1071.73,-253.5 1061.73,-257 1071.73,-260.5 1071.73,-253.5"/>
</g>
<!-- Node571 -->
<g id="node11" class="node"><title>Node571</title>
<g id="a_node11"><a xlink:href="init_8h.html#a5cb3db83cb0ba2e421f651a1ee1f2cfe" target="_top" xlink:title="Preparing steps before shutting down or restarting the wallet. ">
<polygon fill="white" stroke="black" points="705,-209.5 705,-228.5 799,-228.5 799,-209.5 705,-209.5"/>
<text text-anchor="middle" x="752" y="-216.5" font-family="Helvetica,sans-Serif" font-size="10.00">PrepareShutdown</text>
</a>
</g>
</g>
<!-- Node570&#45;&gt;Node571 -->
<g id="edge10" class="edge"><title>Node570&#45;&gt;Node571</title>
<path fill="none" stroke="midnightblue" d="M679.134,-219C687.773,-219 696.454,-219 704.648,-219"/>
<polygon fill="midnightblue" stroke="midnightblue" points="679.045,-215.5 669.045,-219 679.045,-222.5 679.045,-215.5"/>
</g>
<!-- Node572 -->
<g id="node12" class="node"><title>Node572</title>
<g id="a_node12"><a xlink:href="class_bitcoin_core.html#ac2271844c89ebc4c611e7617ce6202e3" target="_top" xlink:title="BitcoinCore::restart">
<polygon fill="white" stroke="black" points="839,-209.5 839,-228.5 940,-228.5 940,-209.5 839,-209.5"/>
<text text-anchor="middle" x="889.5" y="-216.5" font-family="Helvetica,sans-Serif" font-size="10.00">BitcoinCore::restart</text>
</a>
</g>
</g>
<!-- Node571&#45;&gt;Node572 -->
<g id="edge11" class="edge"><title>Node571&#45;&gt;Node572</title>
<path fill="none" stroke="midnightblue" d="M809.285,-219C819.061,-219 829.164,-219 838.75,-219"/>
<polygon fill="midnightblue" stroke="midnightblue" points="809.252,-215.5 799.252,-219 809.252,-222.5 809.252,-215.5"/>
</g>
<!-- Node573 -->
<g id="node13" class="node"><title>Node573</title>
<g id="a_node13"><a xlink:href="init_8h.html#ac5f038c2b480cf9ef5e19e3eba8dbaf9" target="_top" xlink:title="Shutdown is split into 2 parts: Part 1: shut down everything but the main wallet instance (done in Pr...">
<polygon fill="white" stroke="black" points="859.5,-171.5 859.5,-190.5 919.5,-190.5 919.5,-171.5 859.5,-171.5"/>
<text text-anchor="middle" x="889.5" y="-178.5" font-family="Helvetica,sans-Serif" font-size="10.00">Shutdown</text>
</a>
</g>
</g>
<!-- Node571&#45;&gt;Node573 -->
<g id="edge12" class="edge"><title>Node571&#45;&gt;Node573</title>
<path fill="none" stroke="midnightblue" d="M796.93,-206.68C817.39,-200.942 841.171,-194.273 859.369,-189.169"/>
<polygon fill="midnightblue" stroke="midnightblue" points="795.876,-203.341 787.192,-209.411 797.766,-210.081 795.876,-203.341"/>
</g>
<!-- Node573&#45;&gt;Node567 -->
<g id="edge13" class="edge"><title>Node573&#45;&gt;Node567</title>
<path fill="none" stroke="midnightblue" d="M929.173,-193.646C934.228,-195.614 939.285,-197.748 944,-200 973.563,-214.119 1005.64,-235.186 1023.33,-247.362"/>
<polygon fill="midnightblue" stroke="midnightblue" points="930.139,-190.271 919.546,-190.077 927.706,-196.834 930.139,-190.271"/>
</g>
<!-- Node574 -->
<g id="node14" class="node"><title>Node574</title>
<g id="a_node14"><a xlink:href="class_bitcoin_core.html#a94f3f4622ba698e321f3a2e0e686129f" target="_top" xlink:title="BitcoinCore::shutdown">
<polygon fill="white" stroke="black" points="980,-171.5 980,-190.5 1096,-190.5 1096,-171.5 980,-171.5"/>
<text text-anchor="middle" x="1038" y="-178.5" font-family="Helvetica,sans-Serif" font-size="10.00">BitcoinCore::shutdown</text>
</a>
</g>
</g>
<!-- Node573&#45;&gt;Node574 -->
<g id="edge14" class="edge"><title>Node573&#45;&gt;Node574</title>
<path fill="none" stroke="midnightblue" d="M929.966,-181C945.308,-181 963.182,-181 979.879,-181"/>
<polygon fill="midnightblue" stroke="midnightblue" points="929.794,-177.5 919.794,-181 929.794,-184.5 929.794,-177.5"/>
</g>
<!-- Node581 -->
<g id="node21" class="node"><title>Node581</title>
<g id="a_node21"><a xlink:href="serialize_8h.html#a8d18ce7bf2e4c40f627d2a291e8a087b" target="_top" xlink:title="Unserialize">
<polygon fill="white" stroke="black" points="434.5,-0.5 434.5,-19.5 499.5,-19.5 499.5,-0.5 434.5,-0.5"/>
<text text-anchor="middle" x="467" y="-7.5" font-family="Helvetica,sans-Serif" font-size="10.00">Unserialize</text>
</a>
</g>
</g>
<!-- Node580&#45;&gt;Node581 -->
<g id="edge21" class="edge"><title>Node580&#45;&gt;Node581</title>
<path fill="none" stroke="midnightblue" d="M372.948,-10C393.596,-10 416.464,-10 434.363,-10"/>
<polygon fill="midnightblue" stroke="midnightblue" points="372.707,-6.5001 362.707,-10 372.707,-13.5001 372.707,-6.5001"/>
</g>
</g>
</svg>
        <g id="navigator" transform="translate(0 0)" fill="#404254">
                <rect fill="#f2f5e9" fill-opacity="0.5" stroke="#606060" stroke-width=".5" x="0" y="0" width="60" height="60"/>
                <use id="zoomplus" xlink:href="#zoomPlus" x="17" y="9" onmousedown="handleZoom(evt,'in')"/>
                <use id="zoomminus" xlink:href="#zoomMin" x="42" y="9" onmousedown="handleZoom(evt,'out')"/>
                <use id="reset" xlink:href="#resetDef" x="30" y="36" onmousedown="handleReset()"/>
                <g id="arrowUp" xlink:href="#dirArrow" transform="translate(30 24)" onmousedown="handlePan(0,-1)">
                  <use xlink:href="#rim" fill="#404040">
                        <set attributeName="fill" to="#808080" begin="arrowUp.mouseover" end="arrowUp.mouseout"/>
                  </use>
                  <path fill="none" stroke="white" stroke-width="1.5" d="M0,-3.0v7 M-2.5,-0.5L0,-3.0L2.5,-0.5"/>
                </g>
                <g id="arrowRight" xlink:href="#dirArrow" transform="rotate(90) translate(36 -43)" onmousedown="handlePan(1,0)">
                  <use xlink:href="#rim" fill="#404040">
                        <set attributeName="fill" to="#808080" begin="arrowRight.mouseover" end="arrowRight.mouseout"/>
                  </use>
                  <path fill="none" stroke="white" stroke-width="1.5" d="M0,-3.0v7 M-2.5,-0.5L0,-3.0L2.5,-0.5"/>
                </g>
                <g id="arrowDown" xlink:href="#dirArrow" transform="rotate(180) translate(-30 -48)" onmousedown="handlePan(0,1)">
                  <use xlink:href="#rim" fill="#404040">
                        <set attributeName="fill" to="#808080" begin="arrowDown.mouseover" end="arrowDown.mouseout"/>
                  </use>
                  <path fill="none" stroke="white" stroke-width="1.5" d="M0,-3.0v7 M-2.5,-0.5L0,-3.0L2.5,-0.5"/>
                </g>
                <g id="arrowLeft" xlink:href="#dirArrow" transform="rotate(270) translate(-36 17)" onmousedown="handlePan(-1,0)">
                  <use xlink:href="#rim" fill="#404040">
                        <set attributeName="fill" to="#808080" begin="arrowLeft.mouseover" end="arrowLeft.mouseout"/>
                  </use>
                  <path fill="none" stroke="white" stroke-width="1.5" d="M0,-3.0v7 M-2.5,-0.5L0,-3.0L2.5,-0.5"/>
                </g>
        </g>
        <svg viewBox="0 0 15 15" width="100%" height="30px" preserveAspectRatio="xMaxYMin meet">
         <g id="arrow_out" transform="scale(0.3 0.3)">
          <a xlink:href="serialize_8h_aa69ce8c2279c2779e04d7b24babe10fc_icgraph_org.svg" target="_base">
           <rect id="button" ry="5" rx="5" y="6" x="6" height="38" width="38"
                fill="#f2f5e9" fill-opacity="0.5" stroke="#606060" stroke-width="1.0"/>
           <path id="arrow"
             d="M 11.500037,31.436501 C 11.940474,20.09759 22.043105,11.32322 32.158766,21.979434 L 37.068811,17.246167 C 37.068811,17.246167 37.088388,32 37.088388,32 L 22.160133,31.978069 C 22.160133,31.978069 26.997745,27.140456 26.997745,27.140456 C 18.528582,18.264221 13.291696,25.230495 11.500037,31.436501 z"
             style="fill:#404040;"/>
          </a>
         </g>
        </svg>
</svg>
