<?xml version="1.0" encoding="UTF-8" standalone="no"?>
<!DOCTYPE svg PUBLIC "-//W3C//DTD SVG 1.1//EN"
 "http://www.w3.org/Graphics/SVG/1.1/DTD/svg11.dtd">
<!-- Generated by graphviz version 2.38.0 (20140413.2041)
 -->
<!-- Title: src/crypto/sha256.cpp Pages: 1 -->
<svg width="470pt" height="252pt"
 viewBox="0.00 0.00 470.32 252.00" xmlns="http://www.w3.org/2000/svg" xmlns:xlink="http://www.w3.org/1999/xlink">
<g id="graph0" class="graph" transform="scale(1 1) rotate(0) translate(4 248)">
<title>src/crypto/sha256.cpp</title>
<polygon fill="white" stroke="none" points="-4,4 -4,-248 466.324,-248 466.324,4 -4,4"/>
<!-- Node0 -->
<g id="node1" class="node"><title>Node0</title>
<polygon fill="#bfbfbf" stroke="black" points="249.324,-224.5 249.324,-243.5 371.324,-243.5 371.324,-224.5 249.324,-224.5"/>
<text text-anchor="middle" x="310.324" y="-231.5" font-family="Helvetica,sans-Serif" font-size="10.00">src/crypto/sha256.cpp</text>
</g>
<!-- Node1 -->
<g id="node2" class="node"><title>Node1</title>
<g id="a_node2"><a xlink:href="sha256_8h.html" target="_top" xlink:title="crypto/sha256.h">
<polygon fill="white" stroke="black" points="24.3244,-168.5 24.3244,-187.5 118.324,-187.5 118.324,-168.5 24.3244,-168.5"/>
<text text-anchor="middle" x="71.3244" y="-175.5" font-family="Helvetica,sans-Serif" font-size="10.00">crypto/sha256.h</text>
</a>
</g>
</g>
<!-- Node0&#45;&gt;Node1 -->
<g id="edge1" class="edge"><title>Node0&#45;&gt;Node1</title>
<path fill="none" stroke="midnightblue" d="M272.454,-224.444C230.849,-215.043 163.955,-199.929 118.856,-189.739"/>
<polygon fill="midnightblue" stroke="midnightblue" points="119.543,-186.306 109.018,-187.516 118,-193.134 119.543,-186.306"/>
</g>
<!-- Node5 -->
<g id="node6" class="node"><title>Node5</title>
<g id="a_node6"><a xlink:href="common_8h.html" target="_top" xlink:title="crypto/common.h">
<polygon fill="white" stroke="black" points="180.824,-168.5 180.824,-187.5 281.824,-187.5 281.824,-168.5 180.824,-168.5"/>
<text text-anchor="middle" x="231.324" y="-175.5" font-family="Helvetica,sans-Serif" font-size="10.00">crypto/common.h</text>
</a>
</g>
</g>
<!-- Node0&#45;&gt;Node5 -->
<g id="edge5" class="edge"><title>Node0&#45;&gt;Node5</title>
<path fill="none" stroke="midnightblue" d="M297.632,-224.324C285.423,-215.979 266.746,-203.212 252.322,-193.352"/>
<polygon fill="midnightblue" stroke="midnightblue" points="254.216,-190.408 243.986,-187.655 250.266,-196.187 254.216,-190.408"/>
</g>
<!-- Node6 -->
<g id="node7" class="node"><title>Node6</title>
<polygon fill="white" stroke="#bfbfbf" points="297.824,-112.5 297.824,-131.5 350.824,-131.5 350.824,-112.5 297.824,-112.5"/>
<text text-anchor="middle" x="324.324" y="-119.5" font-family="Helvetica,sans-Serif" font-size="10.00">string.h</text>
</g>
<!-- Node0&#45;&gt;Node6 -->
<g id="edge13" class="edge"><title>Node0&#45;&gt;Node6</title>
<path fill="none" stroke="midnightblue" d="M311.423,-224.368C313.682,-206.617 318.894,-165.666 321.958,-141.597"/>
<polygon fill="midnightblue" stroke="midnightblue" points="325.44,-141.953 323.231,-131.591 318.496,-141.069 325.44,-141.953"/>
</g>
<!-- Node9 -->
<g id="node10" class="node"><title>Node9</title>
<polygon fill="white" stroke="#bfbfbf" points="338.324,-168.5 338.324,-187.5 394.324,-187.5 394.324,-168.5 338.324,-168.5"/>
<text text-anchor="middle" x="366.324" y="-175.5" font-family="Helvetica,sans-Serif" font-size="10.00">assert.h</text>
</g>
<!-- Node0&#45;&gt;Node9 -->
<g id="edge12" class="edge"><title>Node0&#45;&gt;Node9</title>
<path fill="none" stroke="midnightblue" d="M319.322,-224.324C327.519,-216.42 339.83,-204.548 349.796,-194.938"/>
<polygon fill="midnightblue" stroke="midnightblue" points="352.394,-197.295 357.163,-187.834 347.535,-192.256 352.394,-197.295"/>
</g>
<!-- Node10 -->
<g id="node11" class="node"><title>Node10</title>
<polygon fill="white" stroke="#bfbfbf" points="412.324,-168.5 412.324,-187.5 462.324,-187.5 462.324,-168.5 412.324,-168.5"/>
<text text-anchor="middle" x="437.324" y="-175.5" font-family="Helvetica,sans-Serif" font-size="10.00">atomic</text>
</g>
<!-- Node0&#45;&gt;Node10 -->
<g id="edge14" class="edge"><title>Node0&#45;&gt;Node10</title>
<path fill="none" stroke="midnightblue" d="M330.448,-224.444C351.349,-215.557 384.259,-201.563 408.041,-191.451"/>
<polygon fill="midnightblue" stroke="midnightblue" points="409.462,-194.65 417.295,-187.516 406.723,-188.208 409.462,-194.65"/>
</g>
<!-- Node2 -->
<g id="node3" class="node"><title>Node2</title>
<polygon fill="white" stroke="#bfbfbf" points="146.824,-0.5 146.824,-19.5 199.824,-19.5 199.824,-0.5 146.824,-0.5"/>
<text text-anchor="middle" x="173.324" y="-7.5" font-family="Helvetica,sans-Serif" font-size="10.00">stdint.h</text>
</g>
<!-- Node1&#45;&gt;Node2 -->
<g id="edge2" class="edge"><title>Node1&#45;&gt;Node2</title>
<path fill="none" stroke="midnightblue" d="M49.6778,-168.483C24.9035,-157.364 -10.5685,-136.414 3.32445,-112 31.8724,-61.833 96.2528,-33.9958 137.083,-20.7971"/>
<polygon fill="midnightblue" stroke="midnightblue" points="138.153,-24.1298 146.669,-17.8265 136.081,-17.4434 138.153,-24.1298"/>
</g>
<!-- Node3 -->
<g id="node4" class="node"><title>Node3</title>
<polygon fill="white" stroke="#bfbfbf" points="12.8244,-112.5 12.8244,-131.5 63.8244,-131.5 63.8244,-112.5 12.8244,-112.5"/>
<text text-anchor="middle" x="38.3244" y="-119.5" font-family="Helvetica,sans-Serif" font-size="10.00">stdlib.h</text>
</g>
<!-- Node1&#45;&gt;Node3 -->
<g id="edge3" class="edge"><title>Node1&#45;&gt;Node3</title>
<path fill="none" stroke="midnightblue" d="M65.8752,-168.083C61.31,-160.613 54.656,-149.724 49.031,-140.52"/>
<polygon fill="midnightblue" stroke="midnightblue" points="51.8734,-138.459 43.6723,-131.751 45.9004,-142.109 51.8734,-138.459"/>
</g>
<!-- Node4 -->
<g id="node5" class="node"><title>Node4</title>
<polygon fill="white" stroke="#bfbfbf" points="82.3244,-112.5 82.3244,-131.5 126.324,-131.5 126.324,-112.5 82.3244,-112.5"/>
<text text-anchor="middle" x="104.324" y="-119.5" font-family="Helvetica,sans-Serif" font-size="10.00">string</text>
</g>
<!-- Node1&#45;&gt;Node4 -->
<g id="edge4" class="edge"><title>Node1&#45;&gt;Node4</title>
<path fill="none" stroke="midnightblue" d="M76.7737,-168.083C81.3389,-160.613 87.9929,-149.724 93.6179,-140.52"/>
<polygon fill="midnightblue" stroke="midnightblue" points="96.7485,-142.109 98.9766,-131.751 90.7755,-138.459 96.7485,-142.109"/>
</g>
<!-- Node5&#45;&gt;Node2 -->
<g id="edge6" class="edge"><title>Node5&#45;&gt;Node2</title>
<path fill="none" stroke="midnightblue" d="M212.935,-168.471C199.223,-160.997 181.51,-148.71 173.324,-132 157.137,-98.9532 163.103,-54.4775 168.483,-29.6868"/>
<polygon fill="midnightblue" stroke="midnightblue" points="171.928,-30.3316 170.833,-19.7934 165.117,-28.7142 171.928,-30.3316"/>
</g>
<!-- Node5&#45;&gt;Node6 -->
<g id="edge7" class="edge"><title>Node5&#45;&gt;Node6</title>
<path fill="none" stroke="midnightblue" d="M246.267,-168.324C260.91,-159.822 283.458,-146.729 300.562,-136.797"/>
<polygon fill="midnightblue" stroke="midnightblue" points="302.529,-139.703 309.419,-131.655 299.014,-133.649 302.529,-139.703"/>
</g>
<!-- Node7 -->
<g id="node8" class="node"><title>Node7</title>
<g id="a_node8"><a xlink:href="endian_8h.html" target="_top" xlink:title="compat/endian.h">
<polygon fill="white" stroke="black" points="182.324,-112.5 182.324,-131.5 280.324,-131.5 280.324,-112.5 182.324,-112.5"/>
<text text-anchor="middle" x="231.324" y="-119.5" font-family="Helvetica,sans-Serif" font-size="10.00">compat/endian.h</text>
</a>
</g>
</g>
<!-- Node5&#45;&gt;Node7 -->
<g id="edge8" class="edge"><title>Node5&#45;&gt;Node7</title>
<path fill="none" stroke="midnightblue" d="M231.324,-168.083C231.324,-161.006 231.324,-150.861 231.324,-141.986"/>
<polygon fill="midnightblue" stroke="midnightblue" points="234.825,-141.751 231.324,-131.751 227.825,-141.751 234.825,-141.751"/>
</g>
<!-- Node7&#45;&gt;Node2 -->
<g id="edge11" class="edge"><title>Node7&#45;&gt;Node2</title>
<path fill="none" stroke="midnightblue" d="M226.773,-112.368C217.286,-94.376 195.233,-52.5503 182.619,-28.6267"/>
<polygon fill="midnightblue" stroke="midnightblue" points="185.615,-26.8047 177.854,-19.5914 179.423,-30.0696 185.615,-26.8047"/>
</g>
<!-- Node8 -->
<g id="node9" class="node"><title>Node8</title>
<g id="a_node9"><a xlink:href="byteswap_8h.html" target="_top" xlink:title="compat/byteswap.h">
<polygon fill="white" stroke="black" points="220.324,-56.5 220.324,-75.5 330.324,-75.5 330.324,-56.5 220.324,-56.5"/>
<text text-anchor="middle" x="275.324" y="-63.5" font-family="Helvetica,sans-Serif" font-size="10.00">compat/byteswap.h</text>
</a>
</g>
</g>
<!-- Node7&#45;&gt;Node8 -->
<g id="edge9" class="edge"><title>Node7&#45;&gt;Node8</title>
<path fill="none" stroke="midnightblue" d="M238.59,-112.083C244.869,-104.377 254.112,-93.0333 261.755,-83.6531"/>
<polygon fill="midnightblue" stroke="midnightblue" points="264.591,-85.7143 268.194,-75.7511 259.164,-81.2926 264.591,-85.7143"/>
</g>
<!-- Node8&#45;&gt;Node2 -->
<g id="edge10" class="edge"><title>Node8&#45;&gt;Node2</title>
<path fill="none" stroke="midnightblue" d="M258.936,-56.324C242.653,-47.7034 217.457,-34.3643 198.608,-24.3855"/>
<polygon fill="midnightblue" stroke="midnightblue" points="200.147,-21.2402 189.672,-19.6545 196.872,-27.4267 200.147,-21.2402"/>
</g>
</g>
</svg>
