<?xml version="1.0" encoding="UTF-8" standalone="no"?>
<!DOCTYPE svg PUBLIC "-//W3C//DTD SVG 1.1//EN"
 "http://www.w3.org/Graphics/SVG/1.1/DTD/svg11.dtd">
<!-- Generated by graphviz version 2.38.0 (20140413.2041)
 -->
<!-- Title: src/crypto/sph_cubehash.h Pages: 1 -->
<svg width="150pt" height="140pt"
 viewBox="0.00 0.00 150.00 140.00" xmlns="http://www.w3.org/2000/svg" xmlns:xlink="http://www.w3.org/1999/xlink">
<g id="graph0" class="graph" transform="scale(1 1) rotate(0) translate(4 136)">
<title>src/crypto/sph_cubehash.h</title>
<polygon fill="white" stroke="none" points="-4,4 -4,-136 146,-136 146,4 -4,4"/>
<!-- Node0 -->
<g id="node1" class="node"><title>Node0</title>
<polygon fill="#bfbfbf" stroke="black" points="0,-112.5 0,-131.5 134,-131.5 134,-112.5 0,-112.5"/>
<text text-anchor="middle" x="67" y="-119.5" font-family="Helvetica,sans-Serif" font-size="10.00">src/crypto/sph_cubehash.h</text>
</g>
<!-- Node1 -->
<g id="node2" class="node"><title>Node1</title>
<polygon fill="white" stroke="#bfbfbf" points="2,-56.5 2,-75.5 54,-75.5 54,-56.5 2,-56.5"/>
<text text-anchor="middle" x="28" y="-63.5" font-family="Helvetica,sans-Serif" font-size="10.00">stddef.h</text>
</g>
<!-- Node0&#45;&gt;Node1 -->
<g id="edge1" class="edge"><title>Node0&#45;&gt;Node1</title>
<path fill="none" stroke="midnightblue" d="M60.5599,-112.083C55.0511,-104.455 46.9688,-93.2645 40.235,-83.9408"/>
<polygon fill="midnightblue" stroke="midnightblue" points="43.0126,-81.8087 34.3202,-75.7511 37.3378,-85.9071 43.0126,-81.8087"/>
</g>
<!-- Node2 -->
<g id="node3" class="node"><title>Node2</title>
<g id="a_node3"><a xlink:href="sph__types_8h.html" target="_top" xlink:title="Basic type definitions. ">
<polygon fill="white" stroke="black" points="72,-56.5 72,-75.5 142,-75.5 142,-56.5 72,-56.5"/>
<text text-anchor="middle" x="107" y="-63.5" font-family="Helvetica,sans-Serif" font-size="10.00">sph_types.h</text>
</a>
</g>
</g>
<!-- Node0&#45;&gt;Node2 -->
<g id="edge2" class="edge"><title>Node0&#45;&gt;Node2</title>
<path fill="none" stroke="midnightblue" d="M73.6052,-112.083C79.2552,-104.455 87.5448,-93.2645 94.4512,-83.9408"/>
<polygon fill="midnightblue" stroke="midnightblue" points="97.3779,-85.87 100.518,-75.7511 91.7529,-81.7034 97.3779,-85.87"/>
</g>
<!-- Node3 -->
<g id="node4" class="node"><title>Node3</title>
<polygon fill="white" stroke="#bfbfbf" points="83,-0.5 83,-19.5 131,-19.5 131,-0.5 83,-0.5"/>
<text text-anchor="middle" x="107" y="-7.5" font-family="Helvetica,sans-Serif" font-size="10.00">limits.h</text>
</g>
<!-- Node2&#45;&gt;Node3 -->
<g id="edge3" class="edge"><title>Node2&#45;&gt;Node3</title>
<path fill="none" stroke="midnightblue" d="M107,-56.083C107,-49.0059 107,-38.8611 107,-29.9865"/>
<polygon fill="midnightblue" stroke="midnightblue" points="110.5,-29.751 107,-19.7511 103.5,-29.7511 110.5,-29.751"/>
</g>
</g>
</svg>
