<?xml version="1.0" encoding="UTF-8" standalone="no"?>
<!DOCTYPE svg PUBLIC "-//W3C//DTD SVG 1.1//EN"
 "http://www.w3.org/Graphics/SVG/1.1/DTD/svg11.dtd">
<!-- Generated by graphviz version 2.38.0 (20140413.2041)
 -->
<!-- Title: immer::unsafe_free_list_heap&lt; Size, Limit, Base &gt; Pages: 1 -->
<svg width="385pt" height="72pt"
 viewBox="0.00 0.00 385.00 72.00" xmlns="http://www.w3.org/2000/svg" xmlns:xlink="http://www.w3.org/1999/xlink">
<g id="graph0" class="graph" transform="scale(1 1) rotate(0) translate(4 68)">
<title>immer::unsafe_free_list_heap&lt; Size, Limit, Base &gt;</title>
<polygon fill="white" stroke="none" points="-4,4 -4,-68 381,-68 381,4 -4,4"/>
<!-- Node0 -->
<g id="node1" class="node"><title>Node0</title>
<polygon fill="#bfbfbf" stroke="black" points="249,-11.5 249,-52.5 377,-52.5 377,-11.5 249,-11.5"/>
<text text-anchor="start" x="257" y="-40.5" font-family="Helvetica,sans-Serif" font-size="10.00">immer::unsafe_free</text>
<text text-anchor="start" x="257" y="-29.5" font-family="Helvetica,sans-Serif" font-size="10.00">_list_heap&lt; Size, Limit,</text>
<text text-anchor="middle" x="313" y="-18.5" font-family="Helvetica,sans-Serif" font-size="10.00"> Base &gt;</text>
</g>
<!-- Node1 -->
<g id="node2" class="node"><title>Node1</title>
<g id="a_node2"><a xlink:href="classimmer_1_1detail_1_1unsafe__free__list__heap__impl.html" target="_top" xlink:title="immer::detail::unsafe\l_free_list_heap_impl\l\&lt; detail::unsafe_free\l_list_storage, Size, Limit,\l Base \&gt;">
<polygon fill="white" stroke="black" points="77,-0.5 77,-63.5 213,-63.5 213,-0.5 77,-0.5"/>
<text text-anchor="start" x="85" y="-51.5" font-family="Helvetica,sans-Serif" font-size="10.00">immer::detail::unsafe</text>
<text text-anchor="start" x="85" y="-40.5" font-family="Helvetica,sans-Serif" font-size="10.00">_free_list_heap_impl</text>
<text text-anchor="start" x="85" y="-29.5" font-family="Helvetica,sans-Serif" font-size="10.00">&lt; detail::unsafe_free</text>
<text text-anchor="start" x="85" y="-18.5" font-family="Helvetica,sans-Serif" font-size="10.00">_list_storage, Size, Limit,</text>
<text text-anchor="middle" x="145" y="-7.5" font-family="Helvetica,sans-Serif" font-size="10.00"> Base &gt;</text>
</a>
</g>
</g>
<!-- Node1&#45;&gt;Node0 -->
<g id="edge1" class="edge"><title>Node1&#45;&gt;Node0</title>
<path fill="none" stroke="midnightblue" d="M223.07,-32C231.666,-32 240.347,-32 248.742,-32"/>
<polygon fill="midnightblue" stroke="midnightblue" points="223.04,-28.5001 213.04,-32 223.04,-35.5001 223.04,-28.5001"/>
</g>
<!-- Node2 -->
<g id="node3" class="node"><title>Node2</title>
<polygon fill="white" stroke="#bfbfbf" points="0,-22.5 0,-41.5 41,-41.5 41,-22.5 0,-22.5"/>
<text text-anchor="middle" x="20.5" y="-29.5" font-family="Helvetica,sans-Serif" font-size="10.00">Base</text>
</g>
<!-- Node2&#45;&gt;Node1 -->
<g id="edge2" class="edge"><title>Node2&#45;&gt;Node1</title>
<path fill="none" stroke="#8b1a1a" d="M51.2394,-32C59.1016,-32 67.9158,-32 76.8994,-32"/>
<polygon fill="#8b1a1a" stroke="#8b1a1a" points="51.1818,-28.5001 41.1817,-32 51.1817,-35.5001 51.1818,-28.5001"/>
</g>
</g>
</svg>
