<?xml version="1.0" encoding="UTF-8" standalone="no"?>
<!DOCTYPE svg PUBLIC "-//W3C//DTD SVG 1.1//EN"
 "http://www.w3.org/Graphics/SVG/1.1/DTD/svg11.dtd">
<!-- Generated by graphviz version 2.38.0 (20140413.2041)
 -->
<!-- Title: secp256k1_strauss_state Pages: 1 -->
<svg width="384pt" height="195pt"
 viewBox="0.00 0.00 384.09 195.00" xmlns="http://www.w3.org/2000/svg" xmlns:xlink="http://www.w3.org/1999/xlink">
<g id="graph0" class="graph" transform="scale(1 1) rotate(0) translate(4 191)">
<title>secp256k1_strauss_state</title>
<polygon fill="white" stroke="none" points="-4,4 -4,-191 380.09,-191 380.09,4 -4,4"/>
<!-- Node1 -->
<g id="node1" class="node"><title>Node1</title>
<polygon fill="#bfbfbf" stroke="black" points="54.59,-0.5 54.59,-19.5 193.59,-19.5 193.59,-0.5 54.59,-0.5"/>
<text text-anchor="middle" x="124.09" y="-7.5" font-family="Helvetica,sans-Serif" font-size="10.00">secp256k1_strauss_state</text>
</g>
<!-- Node2 -->
<g id="node2" class="node"><title>Node2</title>
<g id="a_node2"><a xlink:href="structsecp256k1__fe.html" target="_top" xlink:title="secp256k1_fe">
<polygon fill="white" stroke="black" points="30.59,-167.5 30.59,-186.5 113.59,-186.5 113.59,-167.5 30.59,-167.5"/>
<text text-anchor="middle" x="72.09" y="-174.5" font-family="Helvetica,sans-Serif" font-size="10.00">secp256k1_fe</text>
</a>
</g>
</g>
<!-- Node2&#45;&gt;Node1 -->
<g id="edge1" class="edge"><title>Node2&#45;&gt;Node1</title>
<path fill="none" stroke="#9a32cd" stroke-dasharray="5,2" d="M51.8763,-161.314C25.4743,-140.275 -15.0336,-100.406 6.09001,-67 22.3295,-41.3177 53.8987,-27.1783 80.2999,-19.5344"/>
<polygon fill="#9a32cd" stroke="#9a32cd" points="49.7961,-164.129 59.8568,-167.451 54.0634,-158.581 49.7961,-164.129"/>
<text text-anchor="middle" x="12.59" y="-80" font-family="Helvetica,sans-Serif" font-size="10.00"> zr</text>
</g>
<!-- Node3 -->
<g id="node3" class="node"><title>Node3</title>
<g id="a_node3"><a xlink:href="structsecp256k1__gej.html" target="_top" xlink:title="A group element of the secp256k1 curve, in jacobian coordinates. ">
<polygon fill="white" stroke="black" points="28.09,-73 28.09,-92 116.09,-92 116.09,-73 28.09,-73"/>
<text text-anchor="middle" x="72.09" y="-80" font-family="Helvetica,sans-Serif" font-size="10.00">secp256k1_gej</text>
</a>
</g>
</g>
<!-- Node2&#45;&gt;Node3 -->
<g id="edge3" class="edge"><title>Node2&#45;&gt;Node3</title>
<path fill="none" stroke="#9a32cd" stroke-dasharray="5,2" d="M72.09,-157.444C72.09,-137.538 72.09,-106.8 72.09,-92.0157"/>
<polygon fill="#9a32cd" stroke="#9a32cd" points="68.5901,-157.464 72.09,-167.464 75.5901,-157.464 68.5901,-157.464"/>
<text text-anchor="middle" x="76.59" y="-141" font-family="Helvetica,sans-Serif" font-size="10.00"> x</text>
<text text-anchor="middle" x="76.59" y="-130" font-family="Helvetica,sans-Serif" font-size="10.00">y</text>
<text text-anchor="middle" x="76.59" y="-119" font-family="Helvetica,sans-Serif" font-size="10.00">z</text>
</g>
<!-- Node4 -->
<g id="node4" class="node"><title>Node4</title>
<g id="a_node4"><a xlink:href="structsecp256k1__ge.html" target="_top" xlink:title="A group element of the secp256k1 curve, in affine coordinates. ">
<polygon fill="white" stroke="black" points="134.09,-73 134.09,-92 220.09,-92 220.09,-73 134.09,-73"/>
<text text-anchor="middle" x="177.09" y="-80" font-family="Helvetica,sans-Serif" font-size="10.00">secp256k1_ge</text>
</a>
</g>
</g>
<!-- Node2&#45;&gt;Node4 -->
<g id="edge5" class="edge"><title>Node2&#45;&gt;Node4</title>
<path fill="none" stroke="#9a32cd" stroke-dasharray="5,2" d="M89.4909,-160.671C111.798,-141.019 149.704,-107.626 167.423,-92.0157"/>
<polygon fill="#9a32cd" stroke="#9a32cd" points="86.97,-158.227 81.78,-167.464 91.5972,-163.48 86.97,-158.227"/>
<text text-anchor="middle" x="145.59" y="-135.5" font-family="Helvetica,sans-Serif" font-size="10.00"> x</text>
<text text-anchor="middle" x="145.59" y="-124.5" font-family="Helvetica,sans-Serif" font-size="10.00">y</text>
</g>
<!-- Node3&#45;&gt;Node1 -->
<g id="edge2" class="edge"><title>Node3&#45;&gt;Node1</title>
<path fill="none" stroke="#9a32cd" stroke-dasharray="5,2" d="M84.6327,-64.495C95.0508,-50.3705 109.448,-30.8505 117.662,-19.7154"/>
<polygon fill="#9a32cd" stroke="#9a32cd" points="81.5855,-62.73 78.4662,-72.8553 87.2189,-66.8852 81.5855,-62.73"/>
<text text-anchor="middle" x="114.09" y="-41" font-family="Helvetica,sans-Serif" font-size="10.00"> prej</text>
</g>
<!-- Node4&#45;&gt;Node1 -->
<g id="edge4" class="edge"><title>Node4&#45;&gt;Node1</title>
<path fill="none" stroke="#9a32cd" stroke-dasharray="5,2" d="M164.306,-64.495C153.688,-50.3705 139.013,-30.8505 130.642,-19.7154"/>
<polygon fill="#9a32cd" stroke="#9a32cd" points="161.784,-66.9653 170.591,-72.8553 167.38,-62.7589 161.784,-66.9653"/>
<text text-anchor="middle" x="168.59" y="-41" font-family="Helvetica,sans-Serif" font-size="10.00"> pre_a</text>
</g>
<!-- Node5 -->
<g id="node5" class="node"><title>Node5</title>
<g id="a_node5"><a xlink:href="structsecp256k1__strauss__point__state.html" target="_top" xlink:title="secp256k1_strauss_point\l_state">
<polygon fill="white" stroke="black" points="238.09,-67.5 238.09,-97.5 376.09,-97.5 376.09,-67.5 238.09,-67.5"/>
<text text-anchor="start" x="246.09" y="-85.5" font-family="Helvetica,sans-Serif" font-size="10.00">secp256k1_strauss_point</text>
<text text-anchor="middle" x="307.09" y="-74.5" font-family="Helvetica,sans-Serif" font-size="10.00">_state</text>
</a>
</g>
</g>
<!-- Node5&#45;&gt;Node1 -->
<g id="edge6" class="edge"><title>Node5&#45;&gt;Node1</title>
<path fill="none" stroke="#9a32cd" stroke-dasharray="5,2" d="M260.997,-63.7429C224.303,-49.6065 174.557,-30.4423 146.241,-19.5336"/>
<polygon fill="#9a32cd" stroke="#9a32cd" points="259.907,-67.0738 270.497,-67.4027 262.424,-60.5417 259.907,-67.0738"/>
<text text-anchor="middle" x="227.59" y="-41" font-family="Helvetica,sans-Serif" font-size="10.00"> ps</text>
</g>
</g>
</svg>
