<?xml version="1.0" encoding="UTF-8" standalone="no"?>
<!DOCTYPE svg PUBLIC "-//W3C//DTD SVG 1.1//EN"
 "http://www.w3.org/Graphics/SVG/1.1/DTD/svg11.dtd">
<!-- Generated by graphviz version 2.38.0 (20140413.2041)
 -->
<!-- Title: PerBlockConnectTrace Pages: 1 -->
<svg width="236pt" height="232pt"
 viewBox="0.00 0.00 236.00 232.00" xmlns="http://www.w3.org/2000/svg" xmlns:xlink="http://www.w3.org/1999/xlink">
<g id="graph0" class="graph" transform="scale(1 1) rotate(0) translate(4 228)">
<title>PerBlockConnectTrace</title>
<polygon fill="white" stroke="none" points="-4,4 -4,-228 232,-228 232,4 -4,4"/>
<!-- Node1 -->
<g id="node1" class="node"><title>Node1</title>
<polygon fill="#bfbfbf" stroke="black" points="51,-0.5 51,-19.5 173,-19.5 173,-0.5 51,-0.5"/>
<text text-anchor="middle" x="112" y="-7.5" font-family="Helvetica,sans-Serif" font-size="10.00">PerBlockConnectTrace</text>
</g>
<!-- Node2 -->
<g id="node2" class="node"><title>Node2</title>
<g id="a_node2"><a xlink:href="class_c_block_index.html" target="_top" xlink:title="The block chain is a tree shaped structure starting with the genesis block at the root...">
<polygon fill="white" stroke="black" points="75,-68.5 75,-87.5 149,-87.5 149,-68.5 75,-68.5"/>
<text text-anchor="middle" x="112" y="-75.5" font-family="Helvetica,sans-Serif" font-size="10.00">CBlockIndex</text>
</a>
</g>
</g>
<!-- Node2&#45;&gt;Node1 -->
<g id="edge1" class="edge"><title>Node2&#45;&gt;Node1</title>
<path fill="none" stroke="#9a32cd" stroke-dasharray="5,2" d="M112,-58.0413C112,-45.4724 112,-29.5631 112,-19.8411"/>
<polygon fill="#9a32cd" stroke="#9a32cd" points="108.5,-58.3716 112,-68.3717 115.5,-58.3717 108.5,-58.3716"/>
<text text-anchor="middle" x="129.5" y="-41" font-family="Helvetica,sans-Serif" font-size="10.00"> pindex</text>
</g>
<!-- Node2&#45;&gt;Node2 -->
<g id="edge2" class="edge"><title>Node2&#45;&gt;Node2</title>
<path fill="none" stroke="#9a32cd" stroke-dasharray="5,2" d="M159.186,-83.2299C163.957,-82.192 167,-80.4487 167,-78 167,-74.082 159.21,-71.97 149.015,-71.6639"/>
<polygon fill="#9a32cd" stroke="#9a32cd" points="158.578,-79.7752 149.015,-84.3361 159.335,-86.7342 158.578,-79.7752"/>
<text text-anchor="middle" x="181" y="-81" font-family="Helvetica,sans-Serif" font-size="10.00"> pskip</text>
<text text-anchor="middle" x="181" y="-70" font-family="Helvetica,sans-Serif" font-size="10.00">pprev</text>
</g>
<!-- Node3 -->
<g id="node3" class="node"><title>Node3</title>
<g id="a_node3"><a xlink:href="classuint256.html" target="_top" xlink:title="256&#45;bit opaque blob. ">
<polygon fill="white" stroke="black" points="28.5,-147.5 28.5,-166.5 81.5,-166.5 81.5,-147.5 28.5,-147.5"/>
<text text-anchor="middle" x="55" y="-154.5" font-family="Helvetica,sans-Serif" font-size="10.00">uint256</text>
</a>
</g>
</g>
<!-- Node3&#45;&gt;Node2 -->
<g id="edge3" class="edge"><title>Node3&#45;&gt;Node2</title>
<path fill="none" stroke="#9a32cd" stroke-dasharray="5,2" d="M55.3063,-136.922C56.3013,-127.206 58.8583,-115.65 65,-107 71.0485,-98.4811 80.5768,-92.1135 89.4776,-87.6212"/>
<polygon fill="#9a32cd" stroke="#9a32cd" points="51.7954,-137.021 54.7344,-147.2 58.7846,-137.41 51.7954,-137.021"/>
<text text-anchor="middle" x="103" y="-121" font-family="Helvetica,sans-Serif" font-size="10.00"> phashBlock</text>
<text text-anchor="middle" x="103" y="-110" font-family="Helvetica,sans-Serif" font-size="10.00">hashMerkleRoot</text>
</g>
<!-- Node4 -->
<g id="node4" class="node"><title>Node4</title>
<g id="a_node4"><a xlink:href="classbase__blob.html" target="_top" xlink:title="base_blob\&lt; 256 \&gt;">
<polygon fill="white" stroke="black" points="0,-204.5 0,-223.5 106,-223.5 106,-204.5 0,-204.5"/>
<text text-anchor="middle" x="53" y="-211.5" font-family="Helvetica,sans-Serif" font-size="10.00">base_blob&lt; 256 &gt;</text>
</a>
</g>
</g>
<!-- Node4&#45;&gt;Node3 -->
<g id="edge4" class="edge"><title>Node4&#45;&gt;Node3</title>
<path fill="none" stroke="midnightblue" d="M53.6867,-194.117C54.0248,-184.817 54.4162,-174.056 54.6831,-166.715"/>
<polygon fill="midnightblue" stroke="midnightblue" points="50.1783,-194.286 53.3125,-204.406 57.1737,-194.54 50.1783,-194.286"/>
</g>
<!-- Node5 -->
<g id="node5" class="node"><title>Node5</title>
<g id="a_node5"><a xlink:href="classarith__uint256.html" target="_top" xlink:title="256&#45;bit unsigned big integer. ">
<polygon fill="white" stroke="black" points="135,-147.5 135,-166.5 215,-166.5 215,-147.5 135,-147.5"/>
<text text-anchor="middle" x="175" y="-154.5" font-family="Helvetica,sans-Serif" font-size="10.00">arith_uint256</text>
</a>
</g>
</g>
<!-- Node5&#45;&gt;Node2 -->
<g id="edge5" class="edge"><title>Node5&#45;&gt;Node2</title>
<path fill="none" stroke="#9a32cd" stroke-dasharray="5,2" d="M164.14,-138.614C157.821,-128.964 149.452,-116.938 141,-107 135.106,-100.069 127.72,-92.9573 121.877,-87.6352"/>
<polygon fill="#9a32cd" stroke="#9a32cd" points="161.366,-140.772 169.704,-147.308 167.262,-136.998 161.366,-140.772"/>
<text text-anchor="middle" x="186.5" y="-115.5" font-family="Helvetica,sans-Serif" font-size="10.00"> nChainWork</text>
</g>
<!-- Node6 -->
<g id="node6" class="node"><title>Node6</title>
<g id="a_node6"><a xlink:href="classbase__uint.html" target="_top" xlink:title="base_uint\&lt; 256 \&gt;">
<polygon fill="white" stroke="black" points="124,-204.5 124,-223.5 228,-223.5 228,-204.5 124,-204.5"/>
<text text-anchor="middle" x="176" y="-211.5" font-family="Helvetica,sans-Serif" font-size="10.00">base_uint&lt; 256 &gt;</text>
</a>
</g>
</g>
<!-- Node6&#45;&gt;Node5 -->
<g id="edge6" class="edge"><title>Node6&#45;&gt;Node5</title>
<path fill="none" stroke="midnightblue" d="M175.657,-194.117C175.488,-184.817 175.292,-174.056 175.158,-166.715"/>
<polygon fill="midnightblue" stroke="midnightblue" points="172.162,-194.472 175.844,-204.406 179.161,-194.344 172.162,-194.472"/>
</g>
</g>
</svg>
