<?xml version="1.0" encoding="UTF-8" standalone="no"?>
<!DOCTYPE svg PUBLIC "-//W3C//DTD SVG 1.1//EN"
 "http://www.w3.org/Graphics/SVG/1.1/DTD/svg11.dtd">
<!-- Generated by graphviz version 2.38.0 (20140413.2041)
 -->
<!-- Title: src/sync.h Pages: 1 -->
<svg width="346pt" height="84pt"
 viewBox="0.00 0.00 346.00 84.00" xmlns="http://www.w3.org/2000/svg" xmlns:xlink="http://www.w3.org/1999/xlink">
<g id="graph0" class="graph" transform="scale(1 1) rotate(0) translate(4 80)">
<title>src/sync.h</title>
<polygon fill="white" stroke="none" points="-4,4 -4,-80 342,-80 342,4 -4,4"/>
<!-- Node0 -->
<g id="node1" class="node"><title>Node0</title>
<polygon fill="#bfbfbf" stroke="black" points="169,-56.5 169,-75.5 234,-75.5 234,-56.5 169,-56.5"/>
<text text-anchor="middle" x="201.5" y="-63.5" font-family="Helvetica,sans-Serif" font-size="10.00">src/sync.h</text>
</g>
<!-- Node1 -->
<g id="node2" class="node"><title>Node1</title>
<g id="a_node2"><a xlink:href="threadsafety_8h.html" target="_top" xlink:title="threadsafety.h">
<polygon fill="white" stroke="black" points="0,-0.5 0,-19.5 85,-19.5 85,-0.5 0,-0.5"/>
<text text-anchor="middle" x="42.5" y="-7.5" font-family="Helvetica,sans-Serif" font-size="10.00">threadsafety.h</text>
</a>
</g>
</g>
<!-- Node0&#45;&gt;Node1 -->
<g id="edge1" class="edge"><title>Node0&#45;&gt;Node1</title>
<path fill="none" stroke="midnightblue" d="M176.306,-56.4435C149.557,-47.3591 107.097,-32.9388 77.1948,-22.7831"/>
<polygon fill="midnightblue" stroke="midnightblue" points="78.1705,-19.4182 67.5762,-19.5164 75.9194,-26.0464 78.1705,-19.4182"/>
</g>
<!-- Node2 -->
<g id="node3" class="node"><title>Node2</title>
<polygon fill="white" stroke="#bfbfbf" points="103,-0.5 103,-19.5 206,-19.5 206,-0.5 103,-0.5"/>
<text text-anchor="middle" x="154.5" y="-7.5" font-family="Helvetica,sans-Serif" font-size="10.00">condition_variable</text>
</g>
<!-- Node0&#45;&gt;Node2 -->
<g id="edge2" class="edge"><title>Node0&#45;&gt;Node2</title>
<path fill="none" stroke="midnightblue" d="M193.739,-56.083C186.963,-48.2982 176.957,-36.8015 168.745,-27.3665"/>
<polygon fill="midnightblue" stroke="midnightblue" points="171.322,-24.9963 162.117,-19.7511 166.042,-29.592 171.322,-24.9963"/>
</g>
<!-- Node3 -->
<g id="node4" class="node"><title>Node3</title>
<polygon fill="white" stroke="#bfbfbf" points="224.5,-0.5 224.5,-19.5 272.5,-19.5 272.5,-0.5 224.5,-0.5"/>
<text text-anchor="middle" x="248.5" y="-7.5" font-family="Helvetica,sans-Serif" font-size="10.00">thread</text>
</g>
<!-- Node0&#45;&gt;Node3 -->
<g id="edge3" class="edge"><title>Node0&#45;&gt;Node3</title>
<path fill="none" stroke="midnightblue" d="M209.261,-56.083C216.037,-48.2982 226.043,-36.8015 234.255,-27.3665"/>
<polygon fill="midnightblue" stroke="midnightblue" points="236.958,-29.592 240.883,-19.7511 231.678,-24.9963 236.958,-29.592"/>
</g>
<!-- Node4 -->
<g id="node5" class="node"><title>Node4</title>
<polygon fill="white" stroke="#bfbfbf" points="291,-0.5 291,-19.5 338,-19.5 338,-0.5 291,-0.5"/>
<text text-anchor="middle" x="314.5" y="-7.5" font-family="Helvetica,sans-Serif" font-size="10.00">mutex</text>
</g>
<!-- Node0&#45;&gt;Node4 -->
<g id="edge4" class="edge"><title>Node0&#45;&gt;Node4</title>
<path fill="none" stroke="midnightblue" d="M219.405,-56.4435C237.754,-47.6751 266.505,-33.9355 287.594,-23.8579"/>
<polygon fill="midnightblue" stroke="midnightblue" points="289.165,-26.9862 296.679,-19.5164 286.147,-20.6703 289.165,-26.9862"/>
</g>
</g>
</svg>
