<?xml version="1.0" encoding="UTF-8" standalone="no"?>
<!DOCTYPE svg PUBLIC "-//W3C//DTD SVG 1.1//EN"
 "http://www.w3.org/Graphics/SVG/1.1/DTD/svg11.dtd">
<!-- Generated by graphviz version 2.38.0 (20140413.2041)
 -->
<!-- Title: InterruptTorControl Pages: 1 -->
<svg width="504pt" height="81pt"
 viewBox="0.00 0.00 504.00 80.95" xmlns="http://www.w3.org/2000/svg" xmlns:xlink="http://www.w3.org/1999/xlink">
<g id="graph0" class="graph" transform="scale(1 1) rotate(0) translate(4 76.9548)">
<title>InterruptTorControl</title>
<polygon fill="white" stroke="none" points="-4,4 -4,-76.9548 500,-76.9548 500,4 -4,4"/>
<!-- Node10 -->
<g id="node1" class="node"><title>Node10</title>
<polygon fill="#bfbfbf" stroke="black" points="0,-38.5 0,-57.5 98,-57.5 98,-38.5 0,-38.5"/>
<text text-anchor="middle" x="49" y="-45.5" font-family="Helvetica,sans-Serif" font-size="10.00">InterruptTorControl</text>
</g>
<!-- Node11 -->
<g id="node2" class="node"><title>Node11</title>
<g id="a_node2"><a xlink:href="init_8h.html#ae516465349aa26318144d70d08185b65" target="_top" xlink:title="Interrupt threads. ">
<polygon fill="white" stroke="black" points="134,-38.5 134,-57.5 187,-57.5 187,-38.5 134,-38.5"/>
<text text-anchor="middle" x="160.5" y="-45.5" font-family="Helvetica,sans-Serif" font-size="10.00">Interrupt</text>
</a>
</g>
</g>
<!-- Node10&#45;&gt;Node11 -->
<g id="edge1" class="edge"><title>Node10&#45;&gt;Node11</title>
<path fill="none" stroke="midnightblue" d="M108.167,-48C117.147,-48 126.003,-48 133.766,-48"/>
<polygon fill="midnightblue" stroke="midnightblue" points="108.028,-44.5001 98.0283,-48 108.028,-51.5001 108.028,-44.5001"/>
</g>
<!-- Node12 -->
<g id="node3" class="node"><title>Node12</title>
<g id="a_node3"><a xlink:href="dashd_8cpp.html#ac59316b767e6984e1285f0531275286b" target="_top" xlink:title="AppInit">
<polygon fill="white" stroke="black" points="375,-38.5 375,-57.5 422,-57.5 422,-38.5 375,-38.5"/>
<text text-anchor="middle" x="398.5" y="-45.5" font-family="Helvetica,sans-Serif" font-size="10.00">AppInit</text>
</a>
</g>
</g>
<!-- Node11&#45;&gt;Node12 -->
<g id="edge2" class="edge"><title>Node11&#45;&gt;Node12</title>
<path fill="none" stroke="midnightblue" d="M196.272,-60.7225C204.89,-63.3226 214.184,-65.6693 223,-67 273.978,-74.6952 288.079,-75.062 339,-67 351.129,-65.0797 364.166,-61.0505 374.848,-57.1946"/>
<polygon fill="midnightblue" stroke="midnightblue" points="197.126,-57.3209 186.535,-57.5995 194.988,-63.9865 197.126,-57.3209"/>
</g>
<!-- Node14 -->
<g id="node5" class="node"><title>Node14</title>
<g id="a_node5"><a xlink:href="class_bitcoin_core.html#a94f3f4622ba698e321f3a2e0e686129f" target="_top" xlink:title="BitcoinCore::shutdown">
<polygon fill="white" stroke="black" points="223,-38.5 223,-57.5 339,-57.5 339,-38.5 223,-38.5"/>
<text text-anchor="middle" x="281" y="-45.5" font-family="Helvetica,sans-Serif" font-size="10.00">BitcoinCore::shutdown</text>
</a>
</g>
</g>
<!-- Node11&#45;&gt;Node14 -->
<g id="edge4" class="edge"><title>Node11&#45;&gt;Node14</title>
<path fill="none" stroke="midnightblue" d="M197.314,-48C205.345,-48 214.061,-48 222.721,-48"/>
<polygon fill="midnightblue" stroke="midnightblue" points="197.213,-44.5001 187.213,-48 197.213,-51.5001 197.213,-44.5001"/>
</g>
<!-- Node15 -->
<g id="node6" class="node"><title>Node15</title>
<g id="a_node6"><a xlink:href="dashd_8cpp.html#a6435fba5a749975164947d0d771223ab" target="_top" xlink:title="WaitForShutdown">
<polygon fill="white" stroke="black" points="233.5,-0.5 233.5,-19.5 328.5,-19.5 328.5,-0.5 233.5,-0.5"/>
<text text-anchor="middle" x="281" y="-7.5" font-family="Helvetica,sans-Serif" font-size="10.00">WaitForShutdown</text>
</a>
</g>
</g>
<!-- Node11&#45;&gt;Node15 -->
<g id="edge5" class="edge"><title>Node11&#45;&gt;Node15</title>
<path fill="none" stroke="midnightblue" d="M196.798,-36.6808C213.789,-31.2322 233.94,-24.7703 250.155,-19.5706"/>
<polygon fill="midnightblue" stroke="midnightblue" points="195.666,-33.3681 187.213,-39.7546 197.804,-40.0337 195.666,-33.3681"/>
</g>
<!-- Node13 -->
<g id="node4" class="node"><title>Node13</title>
<g id="a_node4"><a xlink:href="dashd_8cpp.html#a0ddf1224851353fc92bfbff6f499fa97" target="_top" xlink:title="main">
<polygon fill="white" stroke="black" points="458,-38.5 458,-57.5 496,-57.5 496,-38.5 458,-38.5"/>
<text text-anchor="middle" x="477" y="-45.5" font-family="Helvetica,sans-Serif" font-size="10.00">main</text>
</a>
</g>
</g>
<!-- Node12&#45;&gt;Node13 -->
<g id="edge3" class="edge"><title>Node12&#45;&gt;Node13</title>
<path fill="none" stroke="midnightblue" d="M432.131,-48C440.988,-48 450.256,-48 457.98,-48"/>
<polygon fill="midnightblue" stroke="midnightblue" points="432.039,-44.5001 422.039,-48 432.039,-51.5001 432.039,-44.5001"/>
</g>
<!-- Node15&#45;&gt;Node12 -->
<g id="edge6" class="edge"><title>Node15&#45;&gt;Node12</title>
<path fill="none" stroke="midnightblue" d="M320.805,-22.767C338.796,-28.6861 359.545,-35.5128 374.922,-40.5717"/>
<polygon fill="midnightblue" stroke="midnightblue" points="321.738,-19.3896 311.146,-19.589 319.551,-26.039 321.738,-19.3896"/>
</g>
</g>
</svg>
