<?xml version="1.0" encoding="UTF-8" standalone="no"?>
<!DOCTYPE svg PUBLIC "-//W3C//DTD SVG 1.1//EN"
 "http://www.w3.org/Graphics/SVG/1.1/DTD/svg11.dtd">
<!-- Generated by graphviz version 2.38.0 (20140413.2041)
 -->
<!-- Title: src/qt/transactionfilterproxy.h Pages: 1 -->
<svg width="453pt" height="84pt"
 viewBox="0.00 0.00 453.00 84.00" xmlns="http://www.w3.org/2000/svg" xmlns:xlink="http://www.w3.org/1999/xlink">
<g id="graph0" class="graph" transform="scale(1 1) rotate(0) translate(4 80)">
<title>src/qt/transactionfilterproxy.h</title>
<polygon fill="white" stroke="none" points="-4,4 -4,-80 449,-80 449,4 -4,4"/>
<!-- Node22 -->
<g id="node1" class="node"><title>Node22</title>
<polygon fill="#bfbfbf" stroke="black" points="147,-56.5 147,-75.5 290,-75.5 290,-56.5 147,-56.5"/>
<text text-anchor="middle" x="218.5" y="-63.5" font-family="Helvetica,sans-Serif" font-size="10.00">src/qt/transactionfilterproxy.h</text>
</g>
<!-- Node23 -->
<g id="node2" class="node"><title>Node23</title>
<g id="a_node2"><a xlink:href="overviewpage_8cpp.html" target="_top" xlink:title="src/qt/overviewpage.cpp">
<polygon fill="white" stroke="black" points="0,-0.5 0,-19.5 123,-19.5 123,-0.5 0,-0.5"/>
<text text-anchor="middle" x="61.5" y="-7.5" font-family="Helvetica,sans-Serif" font-size="10.00">src/qt/overviewpage.cpp</text>
</a>
</g>
</g>
<!-- Node22&#45;&gt;Node23 -->
<g id="edge1" class="edge"><title>Node22&#45;&gt;Node23</title>
<path fill="none" stroke="midnightblue" d="M184.111,-53.172C154.548,-43.0039 112.627,-28.5852 86.2607,-19.5164"/>
<polygon fill="midnightblue" stroke="midnightblue" points="183.028,-56.5007 193.623,-56.4435 185.305,-49.8813 183.028,-56.5007"/>
</g>
<!-- Node24 -->
<g id="node3" class="node"><title>Node24</title>
<g id="a_node3"><a xlink:href="transactionfilterproxy_8cpp.html" target="_top" xlink:title="src/qt/transactionfilterproxy.cpp">
<polygon fill="white" stroke="black" points="141.5,-0.5 141.5,-19.5 295.5,-19.5 295.5,-0.5 141.5,-0.5"/>
<text text-anchor="middle" x="218.5" y="-7.5" font-family="Helvetica,sans-Serif" font-size="10.00">src/qt/transactionfilterproxy.cpp</text>
</a>
</g>
</g>
<!-- Node22&#45;&gt;Node24 -->
<g id="edge2" class="edge"><title>Node22&#45;&gt;Node24</title>
<path fill="none" stroke="midnightblue" d="M218.5,-45.8045C218.5,-36.9102 218.5,-26.7798 218.5,-19.7511"/>
<polygon fill="midnightblue" stroke="midnightblue" points="215,-46.083 218.5,-56.083 222,-46.083 215,-46.083"/>
</g>
<!-- Node25 -->
<g id="node4" class="node"><title>Node25</title>
<g id="a_node4"><a xlink:href="transactionview_8cpp.html" target="_top" xlink:title="src/qt/transactionview.cpp">
<polygon fill="white" stroke="black" points="314,-0.5 314,-19.5 445,-19.5 445,-0.5 314,-0.5"/>
<text text-anchor="middle" x="379.5" y="-7.5" font-family="Helvetica,sans-Serif" font-size="10.00">src/qt/transactionview.cpp</text>
</a>
</g>
</g>
<!-- Node22&#45;&gt;Node25 -->
<g id="edge3" class="edge"><title>Node22&#45;&gt;Node25</title>
<path fill="none" stroke="midnightblue" d="M253.765,-53.172C284.081,-43.0039 327.07,-28.5852 354.108,-19.5164"/>
<polygon fill="midnightblue" stroke="midnightblue" points="252.379,-49.9452 244.011,-56.4435 254.605,-56.5819 252.379,-49.9452"/>
</g>
</g>
</svg>
