<?xml version="1.0" encoding="UTF-8" standalone="no"?>
<!DOCTYPE svg PUBLIC "-//W3C//DTD SVG 1.1//EN"
 "http://www.w3.org/Graphics/SVG/1.1/DTD/svg11.dtd">
<!-- Generated by graphviz version 2.38.0 (20140413.2041)
 -->
<!-- Title: src/qt/transactiontablemodel.h Pages: 1 -->
<svg width="1141pt" height="84pt"
 viewBox="0.00 0.00 1140.50 84.00" xmlns="http://www.w3.org/2000/svg" xmlns:xlink="http://www.w3.org/1999/xlink">
<g id="graph0" class="graph" transform="scale(1 1) rotate(0) translate(4 80)">
<title>src/qt/transactiontablemodel.h</title>
<polygon fill="white" stroke="none" points="-4,4 -4,-80 1136.5,-80 1136.5,4 -4,4"/>
<!-- Node8 -->
<g id="node1" class="node"><title>Node8</title>
<polygon fill="#bfbfbf" stroke="black" points="531,-56.5 531,-75.5 695,-75.5 695,-56.5 531,-56.5"/>
<text text-anchor="middle" x="613" y="-63.5" font-family="Helvetica,sans-Serif" font-size="10.00">src/qt/transactiontablemodel.h</text>
</g>
<!-- Node9 -->
<g id="node2" class="node"><title>Node9</title>
<g id="a_node2"><a xlink:href="overviewpage_8cpp.html" target="_top" xlink:title="src/qt/overviewpage.cpp">
<polygon fill="white" stroke="black" points="0,-0.5 0,-19.5 132,-19.5 132,-0.5 0,-0.5"/>
<text text-anchor="middle" x="66" y="-7.5" font-family="Helvetica,sans-Serif" font-size="10.00">src/qt/overviewpage.cpp</text>
</a>
</g>
</g>
<!-- Node8&#45;&gt;Node9 -->
<g id="edge1" class="edge"><title>Node8&#45;&gt;Node9</title>
<path fill="none" stroke="midnightblue" d="M520.482,-56.8509C425.27,-48.3069 272.676,-34.1753 141,-20 138.131,-19.6912 135.202,-19.369 132.243,-19.038"/>
<polygon fill="midnightblue" stroke="midnightblue" points="520.385,-60.3561 530.657,-57.7623 521.009,-53.384 520.385,-60.3561"/>
</g>
<!-- Node10 -->
<g id="node3" class="node"><title>Node10</title>
<g id="a_node3"><a xlink:href="transactiondescdialog_8cpp.html" target="_top" xlink:title="src/qt/transactiondescdialog.cpp">
<polygon fill="white" stroke="black" points="150,-0.5 150,-19.5 322,-19.5 322,-0.5 150,-0.5"/>
<text text-anchor="middle" x="236" y="-7.5" font-family="Helvetica,sans-Serif" font-size="10.00">src/qt/transactiondescdialog.cpp</text>
</a>
</g>
</g>
<!-- Node8&#45;&gt;Node10 -->
<g id="edge2" class="edge"><title>Node8&#45;&gt;Node10</title>
<path fill="none" stroke="midnightblue" d="M543.041,-54.9794C471.828,-44.7791 362.624,-29.1372 295.457,-19.5164"/>
<polygon fill="midnightblue" stroke="midnightblue" points="542.868,-58.4902 553.263,-56.4435 543.861,-51.5609 542.868,-58.4902"/>
</g>
<!-- Node11 -->
<g id="node4" class="node"><title>Node11</title>
<g id="a_node4"><a xlink:href="transactionfilterproxy_8cpp.html" target="_top" xlink:title="src/qt/transactionfilterproxy.cpp">
<polygon fill="white" stroke="black" points="340.5,-0.5 340.5,-19.5 507.5,-19.5 507.5,-0.5 340.5,-0.5"/>
<text text-anchor="middle" x="424" y="-7.5" font-family="Helvetica,sans-Serif" font-size="10.00">src/qt/transactionfilterproxy.cpp</text>
</a>
</g>
</g>
<!-- Node8&#45;&gt;Node11 -->
<g id="edge3" class="edge"><title>Node8&#45;&gt;Node11</title>
<path fill="none" stroke="midnightblue" d="M572.987,-53.5677C537.333,-43.381 485.962,-28.7034 453.808,-19.5164"/>
<polygon fill="midnightblue" stroke="midnightblue" points="572.476,-57.0616 583.052,-56.4435 574.399,-50.3309 572.476,-57.0616"/>
</g>
<!-- Node12 -->
<g id="node5" class="node"><title>Node12</title>
<g id="a_node5"><a xlink:href="transactiontablemodel_8cpp.html" target="_top" xlink:title="src/qt/transactiontablemodel.cpp">
<polygon fill="white" stroke="black" points="525.5,-0.5 525.5,-19.5 700.5,-19.5 700.5,-0.5 525.5,-0.5"/>
<text text-anchor="middle" x="613" y="-7.5" font-family="Helvetica,sans-Serif" font-size="10.00">src/qt/transactiontablemodel.cpp</text>
</a>
</g>
</g>
<!-- Node8&#45;&gt;Node12 -->
<g id="edge4" class="edge"><title>Node8&#45;&gt;Node12</title>
<path fill="none" stroke="midnightblue" d="M613,-45.8045C613,-36.9102 613,-26.7798 613,-19.7511"/>
<polygon fill="midnightblue" stroke="midnightblue" points="609.5,-46.083 613,-56.083 616.5,-46.083 609.5,-46.083"/>
</g>
<!-- Node13 -->
<g id="node6" class="node"><title>Node13</title>
<g id="a_node6"><a xlink:href="transactionview_8cpp.html" target="_top" xlink:title="src/qt/transactionview.cpp">
<polygon fill="white" stroke="black" points="719,-0.5 719,-19.5 859,-19.5 859,-0.5 719,-0.5"/>
<text text-anchor="middle" x="789" y="-7.5" font-family="Helvetica,sans-Serif" font-size="10.00">src/qt/transactionview.cpp</text>
</a>
</g>
</g>
<!-- Node8&#45;&gt;Node13 -->
<g id="edge5" class="edge"><title>Node8&#45;&gt;Node13</title>
<path fill="none" stroke="midnightblue" d="M650.689,-53.4363C683.872,-43.2551 731.428,-28.664 761.243,-19.5164"/>
<polygon fill="midnightblue" stroke="midnightblue" points="649.421,-50.1642 640.888,-56.4435 651.475,-56.8563 649.421,-50.1642"/>
</g>
<!-- Node14 -->
<g id="node7" class="node"><title>Node14</title>
<g id="a_node7"><a xlink:href="walletmodel_8cpp.html" target="_top" xlink:title="src/qt/walletmodel.cpp">
<polygon fill="white" stroke="black" points="877,-0.5 877,-19.5 1001,-19.5 1001,-0.5 877,-0.5"/>
<text text-anchor="middle" x="939" y="-7.5" font-family="Helvetica,sans-Serif" font-size="10.00">src/qt/walletmodel.cpp</text>
</a>
</g>
</g>
<!-- Node8&#45;&gt;Node14 -->
<g id="edge6" class="edge"><title>Node8&#45;&gt;Node14</title>
<path fill="none" stroke="midnightblue" d="M674.634,-54.7907C736.234,-44.587 829.862,-29.078 887.586,-19.5164"/>
<polygon fill="midnightblue" stroke="midnightblue" points="673.949,-51.3563 664.656,-56.4435 675.093,-58.2622 673.949,-51.3563"/>
</g>
<!-- Node15 -->
<g id="node8" class="node"><title>Node15</title>
<g id="a_node8"><a xlink:href="walletview_8cpp.html" target="_top" xlink:title="src/qt/walletview.cpp">
<polygon fill="white" stroke="black" points="1019.5,-0.5 1019.5,-19.5 1132.5,-19.5 1132.5,-0.5 1019.5,-0.5"/>
<text text-anchor="middle" x="1076" y="-7.5" font-family="Helvetica,sans-Serif" font-size="10.00">src/qt/walletview.cpp</text>
</a>
</g>
</g>
<!-- Node8&#45;&gt;Node15 -->
<g id="edge7" class="edge"><title>Node8&#45;&gt;Node15</title>
<path fill="none" stroke="midnightblue" d="M703.008,-55.3855C783.519,-46.6456 904.718,-33.1435 1010,-20 1013.1,-19.6132 1016.28,-19.2079 1019.49,-18.7922"/>
<polygon fill="midnightblue" stroke="midnightblue" points="702.47,-51.9233 692.906,-56.4804 703.225,-58.8825 702.47,-51.9233"/>
</g>
</g>
</svg>
