<?xml version="1.0" encoding="UTF-8" standalone="no"?>
<!DOCTYPE svg PUBLIC "-//W3C//DTD SVG 1.1//EN"
 "http://www.w3.org/Graphics/SVG/1.1/DTD/svg11.dtd">
<!-- Generated by graphviz version 2.38.0 (20140413.2041)
 -->
<!-- Title: src/immer/refcount/unsafe_refcount_policy.hpp Pages: 1 -->
<svg width="288pt" height="106pt"
 viewBox="0.00 0.00 287.50 106.00" xmlns="http://www.w3.org/2000/svg" xmlns:xlink="http://www.w3.org/1999/xlink">
<g id="graph0" class="graph" transform="scale(1 1) rotate(0) translate(4 102)">
<title>src/immer/refcount/unsafe_refcount_policy.hpp</title>
<polygon fill="white" stroke="none" points="-4,4 -4,-102 283.5,-102 283.5,4 -4,4"/>
<!-- Node0 -->
<g id="node1" class="node"><title>Node0</title>
<polygon fill="#bfbfbf" stroke="black" points="120,-67.5 120,-97.5 269,-97.5 269,-67.5 120,-67.5"/>
<text text-anchor="start" x="128" y="-85.5" font-family="Helvetica,sans-Serif" font-size="10.00">src/immer/refcount</text>
<text text-anchor="middle" x="194.5" y="-74.5" font-family="Helvetica,sans-Serif" font-size="10.00">/unsafe_refcount_policy.hpp</text>
</g>
<!-- Node1 -->
<g id="node2" class="node"><title>Node1</title>
<g id="a_node2"><a xlink:href="no__refcount__policy_8hpp.html" target="_top" xlink:title="immer/refcount/no_refcount\l_policy.hpp">
<polygon fill="white" stroke="black" points="0,-0.5 0,-30.5 151,-30.5 151,-0.5 0,-0.5"/>
<text text-anchor="start" x="8" y="-18.5" font-family="Helvetica,sans-Serif" font-size="10.00">immer/refcount/no_refcount</text>
<text text-anchor="middle" x="75.5" y="-7.5" font-family="Helvetica,sans-Serif" font-size="10.00">_policy.hpp</text>
</a>
</g>
</g>
<!-- Node0&#45;&gt;Node1 -->
<g id="edge1" class="edge"><title>Node0&#45;&gt;Node1</title>
<path fill="none" stroke="midnightblue" d="M168.679,-67.396C151.525,-58.0265 128.804,-45.6155 110.092,-35.395"/>
<polygon fill="midnightblue" stroke="midnightblue" points="111.725,-32.2986 101.271,-30.5765 108.369,-38.4419 111.725,-32.2986"/>
</g>
<!-- Node2 -->
<g id="node3" class="node"><title>Node2</title>
<polygon fill="white" stroke="#bfbfbf" points="169.5,-6 169.5,-25 219.5,-25 219.5,-6 169.5,-6"/>
<text text-anchor="middle" x="194.5" y="-13" font-family="Helvetica,sans-Serif" font-size="10.00">atomic</text>
</g>
<!-- Node0&#45;&gt;Node2 -->
<g id="edge2" class="edge"><title>Node0&#45;&gt;Node2</title>
<path fill="none" stroke="midnightblue" d="M194.5,-67.396C194.5,-58.0638 194.5,-45.7143 194.5,-35.5173"/>
<polygon fill="midnightblue" stroke="midnightblue" points="198,-35.1945 194.5,-25.1945 191,-35.1946 198,-35.1945"/>
</g>
<!-- Node3 -->
<g id="node4" class="node"><title>Node3</title>
<polygon fill="white" stroke="#bfbfbf" points="237.5,-6 237.5,-25 279.5,-25 279.5,-6 237.5,-6"/>
<text text-anchor="middle" x="258.5" y="-13" font-family="Helvetica,sans-Serif" font-size="10.00">utility</text>
</g>
<!-- Node0&#45;&gt;Node3 -->
<g id="edge3" class="edge"><title>Node0&#45;&gt;Node3</title>
<path fill="none" stroke="midnightblue" d="M208.387,-67.396C218.465,-57.1607 232.116,-43.2959 242.626,-32.622"/>
<polygon fill="midnightblue" stroke="midnightblue" points="245.417,-34.7759 249.939,-25.1945 240.429,-29.8646 245.417,-34.7759"/>
</g>
</g>
</svg>
