<?xml version="1.0" encoding="UTF-8" standalone="no"?>
<!DOCTYPE svg PUBLIC "-//W3C//DTD SVG 1.1//EN"
 "http://www.w3.org/Graphics/SVG/1.1/DTD/svg11.dtd">
<!-- Generated by graphviz version 2.38.0 (20140413.2041)
 -->
<!-- Title: itostr Pages: 1 -->
<!--zoomable 313 -->
<svg id="main" version="1.1" xmlns="http://www.w3.org/2000/svg" xmlns:xlink="http://www.w3.org/1999/xlink" xml:space="preserve" onload="init(evt)">
<style type="text/css"><![CDATA[
.edge:hover path { stroke: red; }
.edge:hover polygon { stroke: red; fill: red; }
]]></style>
<script type="text/javascript"><![CDATA[
var edges = document.getElementsByTagName('g');
if (edges && edges.length) {
  for (var i=0;i<edges.length;i++) {
    if (edges[i].id.substr(0,4)=='edge') {
      edges[i].setAttribute('class','edge');
    }
  }
}
]]></script>
        <defs>
                <circle id="rim" cx="0" cy="0" r="7"/>
                <circle id="rim2" cx="0" cy="0" r="3.5"/>
                <g id="zoomPlus">
                        <use xlink:href="#rim" fill="#404040">
                                <set attributeName="fill" to="#808080" begin="zoomplus.mouseover" end="zoomplus.mouseout"/>
                        </use>
                        <path d="M-4,0h8M0,-4v8" fill="none" stroke="white" stroke-width="1.5" pointer-events="none"/>
                </g>
                <g id="zoomMin">
                        <use xlink:href="#rim" fill="#404040">
                                <set attributeName="fill" to="#808080" begin="zoomminus.mouseover" end="zoomminus.mouseout"/>
                        </use>
                        <path d="M-4,0h8" fill="none" stroke="white" stroke-width="1.5" pointer-events="none"/>
                </g>
                <g id="dirArrow">
                        <path fill="none" stroke="white" stroke-width="1.5" d="M0,-3.0v7 M-2.5,-0.5L0,-3.0L2.5,-0.5"/>
                </g>
               <g id="resetDef">
                       <use xlink:href="#rim2" fill="#404040">
                               <set attributeName="fill" to="#808080" begin="reset.mouseover" end="reset.mouseout"/>
                       </use>
               </g>
        </defs>

<script type="text/javascript">
var viewWidth = 1123;
var viewHeight = 313;
var sectionId = 'dynsection-17';
</script>
<script xlink:href="svgpan.js"/>
<svg id="graph" class="graph">
<g id="viewport">
<title>itostr</title>
<polygon fill="white" stroke="none" points="-4,4 -4,-309 1119,-309 1119,4 -4,4"/>
<!-- Node782 -->
<g id="node1" class="node"><title>Node782</title>
<polygon fill="#bfbfbf" stroke="black" points="0,-173.5 0,-192.5 38,-192.5 38,-173.5 0,-173.5"/>
<text text-anchor="middle" x="19" y="-180.5" font-family="Helvetica,sans-Serif" font-size="10.00">itostr</text>
</g>
<!-- Node783 -->
<g id="node2" class="node"><title>Node783</title>
<g id="a_node2"><a xlink:href="rpcwallet_8cpp.html#a9a9995b663381ea6801adba2fac555b3" target="_top" xlink:title="keypoolrefill">
<polygon fill="white" stroke="black" points="92.5,-271.5 92.5,-290.5 160.5,-290.5 160.5,-271.5 92.5,-271.5"/>
<text text-anchor="middle" x="126.5" y="-278.5" font-family="Helvetica,sans-Serif" font-size="10.00">keypoolrefill</text>
</a>
</g>
</g>
<!-- Node782&#45;&gt;Node783 -->
<g id="edge1" class="edge"><title>Node782&#45;&gt;Node783</title>
<path fill="none" stroke="midnightblue" d="M28.6003,-201.808C37.6044,-219.585 53.3153,-245.869 74,-262 79.4109,-266.22 85.8518,-269.569 92.3155,-272.203"/>
<polygon fill="midnightblue" stroke="midnightblue" points="31.6978,-200.174 24.1928,-192.695 25.3961,-203.222 31.6978,-200.174"/>
</g>
<!-- Node784 -->
<g id="node3" class="node"><title>Node784</title>
<g id="a_node3"><a xlink:href="net__processing_8cpp.html#a193d0ece6e2f2f7ee37352ac9720bb83" target="_top" xlink:title="ProcessMessage">
<polygon fill="white" stroke="black" points="80.5,-233.5 80.5,-252.5 172.5,-252.5 172.5,-233.5 80.5,-233.5"/>
<text text-anchor="middle" x="126.5" y="-240.5" font-family="Helvetica,sans-Serif" font-size="10.00">ProcessMessage</text>
</a>
</g>
</g>
<!-- Node782&#45;&gt;Node784 -->
<g id="edge2" class="edge"><title>Node782&#45;&gt;Node784</title>
<path fill="none" stroke="midnightblue" d="M41.6507,-198.527C51.3338,-205.183 63.0206,-212.829 74,-219 83.2869,-224.22 93.9039,-229.307 103.076,-233.444"/>
<polygon fill="midnightblue" stroke="midnightblue" points="43.6015,-195.621 33.3991,-192.764 39.593,-201.359 43.6015,-195.621"/>
</g>
<!-- Node796 -->
<g id="node15" class="node"><title>Node796</title>
<g id="a_node15"><a xlink:href="class_c_kee_pass_integrator.html#afa60ab851124a59bc592b6aa4e56cc8a" target="_top" xlink:title="CKeePassIntegrator\l::rpcAssociate">
<polygon fill="white" stroke="black" points="216,-190 216,-220 321,-220 321,-190 216,-190"/>
<text text-anchor="start" x="224" y="-208" font-family="Helvetica,sans-Serif" font-size="10.00">CKeePassIntegrator</text>
<text text-anchor="middle" x="268.5" y="-197" font-family="Helvetica,sans-Serif" font-size="10.00">::rpcAssociate</text>
</a>
</g>
</g>
<!-- Node782&#45;&gt;Node796 -->
<g id="edge15" class="edge"><title>Node782&#45;&gt;Node796</title>
<path fill="none" stroke="midnightblue" d="M48.2365,-185.51C88.986,-189.132 164.967,-195.886 215.897,-200.413"/>
<polygon fill="midnightblue" stroke="midnightblue" points="48.4699,-182.017 38.1993,-184.618 47.8501,-188.989 48.4699,-182.017"/>
</g>
<!-- Node798 -->
<g id="node17" class="node"><title>Node798</title>
<g id="a_node17"><a xlink:href="class_c_kee_pass_integrator.html#a4421154fd4be37e766e183448d3b9bc7" target="_top" xlink:title="CKeePassIntegrator\l::rpcGetLogins">
<polygon fill="white" stroke="black" points="74,-97 74,-127 179,-127 179,-97 74,-97"/>
<text text-anchor="start" x="82" y="-115" font-family="Helvetica,sans-Serif" font-size="10.00">CKeePassIntegrator</text>
<text text-anchor="middle" x="126.5" y="-104" font-family="Helvetica,sans-Serif" font-size="10.00">::rpcGetLogins</text>
</a>
</g>
</g>
<!-- Node782&#45;&gt;Node798 -->
<g id="edge17" class="edge"><title>Node782&#45;&gt;Node798</title>
<path fill="none" stroke="midnightblue" d="M37.1437,-166.429C47.3397,-157.091 60.8212,-145.611 74,-137 79.4081,-133.466 85.3901,-130.116 91.3058,-127.082"/>
<polygon fill="midnightblue" stroke="midnightblue" points="34.6466,-163.972 29.7396,-173.362 39.4313,-169.082 34.6466,-163.972"/>
</g>
<!-- Node813 -->
<g id="node32" class="node"><title>Node813</title>
<g id="a_node32"><a xlink:href="class_c_kee_pass_integrator.html#a8a3f16f74df52aeb75662205507ae951" target="_top" xlink:title="CKeePassIntegrator\l::rpcSetLogin">
<polygon fill="white" stroke="black" points="74,-146 74,-176 179,-176 179,-146 74,-146"/>
<text text-anchor="start" x="82" y="-164" font-family="Helvetica,sans-Serif" font-size="10.00">CKeePassIntegrator</text>
<text text-anchor="middle" x="126.5" y="-153" font-family="Helvetica,sans-Serif" font-size="10.00">::rpcSetLogin</text>
</a>
</g>
</g>
<!-- Node782&#45;&gt;Node813 -->
<g id="edge36" class="edge"><title>Node782&#45;&gt;Node813</title>
<path fill="none" stroke="midnightblue" d="M48.426,-177.072C56.2803,-175.434 65.0558,-173.604 73.7931,-171.782"/>
<polygon fill="midnightblue" stroke="midnightblue" points="47.4516,-173.7 38.3767,-179.168 48.8806,-180.553 47.4516,-173.7"/>
</g>
<!-- Node814 -->
<g id="node33" class="node"><title>Node814</title>
<g id="a_node33"><a xlink:href="server_8h.html#ae13fce5b0e4a07b7d116242b3a0e39b8" target="_top" xlink:title="setgenerate">
<polygon fill="white" stroke="black" points="92.5,-58.5 92.5,-77.5 160.5,-77.5 160.5,-58.5 92.5,-58.5"/>
<text text-anchor="middle" x="126.5" y="-65.5" font-family="Helvetica,sans-Serif" font-size="10.00">setgenerate</text>
</a>
</g>
</g>
<!-- Node782&#45;&gt;Node814 -->
<g id="edge38" class="edge"><title>Node782&#45;&gt;Node814</title>
<path fill="none" stroke="midnightblue" d="M26.2561,-163.7C34.1566,-142.182 49.7242,-107.694 74,-87 79.2943,-82.4868 85.7569,-79.0025 92.291,-76.3274"/>
<polygon fill="midnightblue" stroke="midnightblue" points="22.8736,-162.771 22.9033,-173.366 29.4871,-165.065 22.8736,-162.771"/>
</g>
<!-- Node785 -->
<g id="node4" class="node"><title>Node785</title>
<g id="a_node4"><a xlink:href="net__processing_8h.html#a7fa42e7ffd6e6ba5b7537af248e30fc8" target="_top" xlink:title="Process protocol messages received from a given node. ">
<polygon fill="white" stroke="black" points="219.5,-239.5 219.5,-258.5 317.5,-258.5 317.5,-239.5 219.5,-239.5"/>
<text text-anchor="middle" x="268.5" y="-246.5" font-family="Helvetica,sans-Serif" font-size="10.00">ProcessMessages</text>
</a>
</g>
</g>
<!-- Node784&#45;&gt;Node785 -->
<g id="edge3" class="edge"><title>Node784&#45;&gt;Node785</title>
<path fill="none" stroke="midnightblue" d="M182.901,-245.374C194.878,-245.888 207.451,-246.426 219.133,-246.927"/>
<polygon fill="midnightblue" stroke="midnightblue" points="182.708,-241.863 172.568,-244.931 182.408,-248.857 182.708,-241.863"/>
</g>
<!-- Node786 -->
<g id="node5" class="node"><title>Node786</title>
<g id="a_node5"><a xlink:href="net__processing_8h.html#ab02615ff65f91d69f8d786ec900baa8a" target="_top" xlink:title="Register with a network node to receive its signals. ">
<polygon fill="white" stroke="black" points="389,-266.5 389,-285.5 498,-285.5 498,-266.5 389,-266.5"/>
<text text-anchor="middle" x="443.5" y="-273.5" font-family="Helvetica,sans-Serif" font-size="10.00">RegisterNodeSignals</text>
</a>
</g>
</g>
<!-- Node785&#45;&gt;Node786 -->
<g id="edge4" class="edge"><title>Node785&#45;&gt;Node786</title>
<path fill="none" stroke="midnightblue" d="M327.78,-258.096C347.508,-261.175 369.434,-264.597 388.789,-267.617"/>
<polygon fill="midnightblue" stroke="midnightblue" points="328.11,-254.605 317.69,-256.521 327.031,-261.521 328.11,-254.605"/>
</g>
<!-- Node791 -->
<g id="node10" class="node"><title>Node791</title>
<g id="a_node10"><a xlink:href="net__processing_8h.html#a3ef0cc6e9d9d6435ee2a5569244d6ebd" target="_top" xlink:title="Unregister a network node. ">
<polygon fill="white" stroke="black" points="385,-228.5 385,-247.5 502,-247.5 502,-228.5 385,-228.5"/>
<text text-anchor="middle" x="443.5" y="-235.5" font-family="Helvetica,sans-Serif" font-size="10.00">UnregisterNodeSignals</text>
</a>
</g>
</g>
<!-- Node785&#45;&gt;Node791 -->
<g id="edge9" class="edge"><title>Node785&#45;&gt;Node791</title>
<path fill="none" stroke="midnightblue" d="M327.685,-245.3C346.074,-244.131 366.383,-242.84 384.743,-241.672"/>
<polygon fill="midnightblue" stroke="midnightblue" points="327.448,-241.808 317.69,-245.936 327.892,-248.794 327.448,-241.808"/>
</g>
<!-- Node787 -->
<g id="node6" class="node"><title>Node787</title>
<g id="a_node6"><a xlink:href="init_8h.html#a6f0784aa332573f949b0975205572b28" target="_top" xlink:title="Initialize Dash Core. ">
<polygon fill="white" stroke="black" points="619.5,-266.5 619.5,-285.5 672.5,-285.5 672.5,-266.5 619.5,-266.5"/>
<text text-anchor="middle" x="646" y="-273.5" font-family="Helvetica,sans-Serif" font-size="10.00">AppInit2</text>
</a>
</g>
</g>
<!-- Node786&#45;&gt;Node787 -->
<g id="edge5" class="edge"><title>Node786&#45;&gt;Node787</title>
<path fill="none" stroke="midnightblue" d="M508.588,-276C546.117,-276 591.455,-276 619.253,-276"/>
<polygon fill="midnightblue" stroke="midnightblue" points="508.23,-272.5 498.23,-276 508.23,-279.5 508.23,-272.5"/>
</g>
<!-- Node788 -->
<g id="node7" class="node"><title>Node788</title>
<g id="a_node7"><a xlink:href="dashd_8cpp.html#ac59316b767e6984e1285f0531275286b" target="_top" xlink:title="AppInit">
<polygon fill="white" stroke="black" points="955.5,-285.5 955.5,-304.5 1002.5,-304.5 1002.5,-285.5 955.5,-285.5"/>
<text text-anchor="middle" x="979" y="-292.5" font-family="Helvetica,sans-Serif" font-size="10.00">AppInit</text>
</a>
</g>
</g>
<!-- Node787&#45;&gt;Node788 -->
<g id="edge6" class="edge"><title>Node787&#45;&gt;Node788</title>
<path fill="none" stroke="midnightblue" d="M682.587,-283.366C705.446,-287.715 735.837,-292.79 763,-295 832.943,-300.69 916.108,-298.023 955.355,-296.204"/>
<polygon fill="midnightblue" stroke="midnightblue" points="683.138,-279.908 672.653,-281.432 681.8,-286.779 683.138,-279.908"/>
</g>
<!-- Node790 -->
<g id="node9" class="node"><title>Node790</title>
<g id="a_node9"><a xlink:href="class_bitcoin_core.html#af34ca069cda1d4362dcc109b4397fb62" target="_top" xlink:title="BitcoinCore::initialize">
<polygon fill="white" stroke="black" points="767.5,-266.5 767.5,-285.5 876.5,-285.5 876.5,-266.5 767.5,-266.5"/>
<text text-anchor="middle" x="822" y="-273.5" font-family="Helvetica,sans-Serif" font-size="10.00">BitcoinCore::initialize</text>
</a>
</g>
</g>
<!-- Node787&#45;&gt;Node790 -->
<g id="edge8" class="edge"><title>Node787&#45;&gt;Node790</title>
<path fill="none" stroke="midnightblue" d="M682.882,-276C707.193,-276 739.757,-276 767.159,-276"/>
<polygon fill="midnightblue" stroke="midnightblue" points="682.674,-272.5 672.674,-276 682.674,-279.5 682.674,-272.5"/>
</g>
<!-- Node789 -->
<g id="node8" class="node"><title>Node789</title>
<g id="a_node8"><a xlink:href="dashd_8cpp.html#a0ddf1224851353fc92bfbff6f499fa97" target="_top" xlink:title="main">
<polygon fill="white" stroke="black" points="1077,-285.5 1077,-304.5 1115,-304.5 1115,-285.5 1077,-285.5"/>
<text text-anchor="middle" x="1096" y="-292.5" font-family="Helvetica,sans-Serif" font-size="10.00">main</text>
</a>
</g>
</g>
<!-- Node788&#45;&gt;Node789 -->
<g id="edge7" class="edge"><title>Node788&#45;&gt;Node789</title>
<path fill="none" stroke="midnightblue" d="M1012.74,-295C1033.55,-295 1059.7,-295 1076.86,-295"/>
<polygon fill="midnightblue" stroke="midnightblue" points="1012.72,-291.5 1002.72,-295 1012.72,-298.5 1012.72,-291.5"/>
</g>
<!-- Node792 -->
<g id="node11" class="node"><title>Node792</title>
<g id="a_node11"><a xlink:href="init_8h.html#a5cb3db83cb0ba2e421f651a1ee1f2cfe" target="_top" xlink:title="Preparing steps before shutting down or restarting the wallet. ">
<polygon fill="white" stroke="black" points="599,-228.5 599,-247.5 693,-247.5 693,-228.5 599,-228.5"/>
<text text-anchor="middle" x="646" y="-235.5" font-family="Helvetica,sans-Serif" font-size="10.00">PrepareShutdown</text>
</a>
</g>
</g>
<!-- Node791&#45;&gt;Node792 -->
<g id="edge10" class="edge"><title>Node791&#45;&gt;Node792</title>
<path fill="none" stroke="midnightblue" d="M512.497,-238C540.911,-238 573.193,-238 598.78,-238"/>
<polygon fill="midnightblue" stroke="midnightblue" points="512.224,-234.5 502.224,-238 512.224,-241.5 512.224,-234.5"/>
</g>
<!-- Node793 -->
<g id="node12" class="node"><title>Node793</title>
<g id="a_node12"><a xlink:href="class_bitcoin_core.html#ac2271844c89ebc4c611e7617ce6202e3" target="_top" xlink:title="BitcoinCore::restart">
<polygon fill="white" stroke="black" points="771.5,-190.5 771.5,-209.5 872.5,-209.5 872.5,-190.5 771.5,-190.5"/>
<text text-anchor="middle" x="822" y="-197.5" font-family="Helvetica,sans-Serif" font-size="10.00">BitcoinCore::restart</text>
</a>
</g>
</g>
<!-- Node792&#45;&gt;Node793 -->
<g id="edge11" class="edge"><title>Node792&#45;&gt;Node793</title>
<path fill="none" stroke="midnightblue" d="M700.814,-226.247C725.418,-220.874 754.187,-214.591 777.408,-209.52"/>
<polygon fill="midnightblue" stroke="midnightblue" points="699.93,-222.858 690.908,-228.411 701.424,-229.697 699.93,-222.858"/>
</g>
<!-- Node794 -->
<g id="node13" class="node"><title>Node794</title>
<g id="a_node13"><a xlink:href="init_8h.html#ac5f038c2b480cf9ef5e19e3eba8dbaf9" target="_top" xlink:title="Shutdown is split into 2 parts: Part 1: shut down everything but the main wallet instance (done in Pr...">
<polygon fill="white" stroke="black" points="792,-228.5 792,-247.5 852,-247.5 852,-228.5 792,-228.5"/>
<text text-anchor="middle" x="822" y="-235.5" font-family="Helvetica,sans-Serif" font-size="10.00">Shutdown</text>
</a>
</g>
</g>
<!-- Node792&#45;&gt;Node794 -->
<g id="edge12" class="edge"><title>Node792&#45;&gt;Node794</title>
<path fill="none" stroke="midnightblue" d="M703.357,-238C732.863,-238 767.76,-238 791.843,-238"/>
<polygon fill="midnightblue" stroke="midnightblue" points="703.172,-234.5 693.172,-238 703.172,-241.5 703.172,-234.5"/>
</g>
<!-- Node794&#45;&gt;Node788 -->
<g id="edge13" class="edge"><title>Node794&#45;&gt;Node788</title>
<path fill="none" stroke="midnightblue" d="M861.888,-250.402C868.294,-252.541 874.849,-254.79 881,-257 906.701,-266.236 935.831,-277.797 955.403,-285.727"/>
<polygon fill="midnightblue" stroke="midnightblue" points="862.615,-246.956 852.022,-247.15 860.424,-253.604 862.615,-246.956"/>
</g>
<!-- Node795 -->
<g id="node14" class="node"><title>Node795</title>
<g id="a_node14"><a xlink:href="class_bitcoin_core.html#a94f3f4622ba698e321f3a2e0e686129f" target="_top" xlink:title="BitcoinCore::shutdown">
<polygon fill="white" stroke="black" points="921,-228.5 921,-247.5 1037,-247.5 1037,-228.5 921,-228.5"/>
<text text-anchor="middle" x="979" y="-235.5" font-family="Helvetica,sans-Serif" font-size="10.00">BitcoinCore::shutdown</text>
</a>
</g>
</g>
<!-- Node794&#45;&gt;Node795 -->
<g id="edge14" class="edge"><title>Node794&#45;&gt;Node795</title>
<path fill="none" stroke="midnightblue" d="M862.645,-238C880.289,-238 901.404,-238 920.717,-238"/>
<polygon fill="midnightblue" stroke="midnightblue" points="862.154,-234.5 852.154,-238 862.154,-241.5 862.154,-234.5"/>
</g>
<!-- Node797 -->
<g id="node16" class="node"><title>Node797</title>
<g id="a_node16"><a xlink:href="rpcwallet_8cpp.html#a62a9c35d11a270620170701f577ae19f" target="_top" xlink:title="keepass">
<polygon fill="white" stroke="black" points="417,-190.5 417,-209.5 470,-209.5 470,-190.5 417,-190.5"/>
<text text-anchor="middle" x="443.5" y="-197.5" font-family="Helvetica,sans-Serif" font-size="10.00">keepass</text>
</a>
</g>
</g>
<!-- Node796&#45;&gt;Node797 -->
<g id="edge16" class="edge"><title>Node796&#45;&gt;Node797</title>
<path fill="none" stroke="midnightblue" d="M331.576,-203.206C360.879,-202.359 394.256,-201.394 416.676,-200.746"/>
<polygon fill="midnightblue" stroke="midnightblue" points="331.3,-199.712 321.406,-203.5 331.503,-206.709 331.3,-199.712"/>
</g>
<!-- Node799 -->
<g id="node18" class="node"><title>Node799</title>
<g id="a_node18"><a xlink:href="class_c_kee_pass_integrator.html#ae985d304459dde24548acaff08e75a42" target="_top" xlink:title="CKeePassIntegrator\l::retrievePassphrase">
<polygon fill="white" stroke="black" points="215,-92 215,-122 322,-122 322,-92 215,-92"/>
<text text-anchor="start" x="223" y="-110" font-family="Helvetica,sans-Serif" font-size="10.00">CKeePassIntegrator</text>
<text text-anchor="middle" x="268.5" y="-99" font-family="Helvetica,sans-Serif" font-size="10.00">::retrievePassphrase</text>
</a>
</g>
</g>
<!-- Node798&#45;&gt;Node799 -->
<g id="edge18" class="edge"><title>Node798&#45;&gt;Node799</title>
<path fill="none" stroke="midnightblue" d="M189.375,-109.79C197.781,-109.49 206.346,-109.184 214.575,-108.89"/>
<polygon fill="midnightblue" stroke="midnightblue" points="189.102,-106.298 179.233,-110.152 189.352,-113.293 189.102,-106.298"/>
</g>
<!-- Node809 -->
<g id="node28" class="node"><title>Node809</title>
<g id="a_node28"><a xlink:href="class_c_kee_pass_integrator.html#a8f0f9765dfaaf14fc9b2b780b5332c24" target="_top" xlink:title="CKeePassIntegrator\l::updatePassphrase">
<polygon fill="white" stroke="black" points="216,-141 216,-171 321,-171 321,-141 216,-141"/>
<text text-anchor="start" x="224" y="-159" font-family="Helvetica,sans-Serif" font-size="10.00">CKeePassIntegrator</text>
<text text-anchor="middle" x="268.5" y="-148" font-family="Helvetica,sans-Serif" font-size="10.00">::updatePassphrase</text>
</a>
</g>
</g>
<!-- Node798&#45;&gt;Node809 -->
<g id="edge29" class="edge"><title>Node798&#45;&gt;Node809</title>
<path fill="none" stroke="midnightblue" d="M185.159,-130.121C196.56,-133.704 208.411,-137.429 219.452,-140.899"/>
<polygon fill="midnightblue" stroke="midnightblue" points="185.878,-126.679 175.288,-127.019 183.779,-133.357 185.878,-126.679"/>
</g>
<!-- Node800 -->
<g id="node19" class="node"><title>Node800</title>
<g id="a_node19"><a xlink:href="group__map_wallet.html#ga7d19286b74feeb6219af749a1fa5330b" target="_top" xlink:title="CWallet::Unlock">
<polygon fill="white" stroke="black" points="399,-38.5 399,-57.5 488,-57.5 488,-38.5 399,-38.5"/>
<text text-anchor="middle" x="443.5" y="-45.5" font-family="Helvetica,sans-Serif" font-size="10.00">CWallet::Unlock</text>
</a>
</g>
</g>
<!-- Node799&#45;&gt;Node800 -->
<g id="edge19" class="edge"><title>Node799&#45;&gt;Node800</title>
<path fill="none" stroke="midnightblue" d="M323.166,-88.6976C353.372,-78.3963 389.85,-65.9558 414.46,-57.5626"/>
<polygon fill="midnightblue" stroke="midnightblue" points="321.938,-85.4186 313.603,-91.9592 324.197,-92.0439 321.938,-85.4186"/>
</g>
<!-- Node806 -->
<g id="node25" class="node"><title>Node806</title>
<g id="a_node25"><a xlink:href="group__map_wallet.html#ga4abcec3066e7c462f4564c159fc15031" target="_top" xlink:title="CWallet::ChangeWalletPassphrase">
<polygon fill="white" stroke="black" points="358,-105.5 358,-124.5 529,-124.5 529,-105.5 358,-105.5"/>
<text text-anchor="middle" x="443.5" y="-112.5" font-family="Helvetica,sans-Serif" font-size="10.00">CWallet::ChangeWalletPassphrase</text>
</a>
</g>
</g>
<!-- Node799&#45;&gt;Node806 -->
<g id="edge25" class="edge"><title>Node799&#45;&gt;Node806</title>
<path fill="none" stroke="midnightblue" d="M332.558,-109.916C340.769,-110.296 349.285,-110.689 357.778,-111.082"/>
<polygon fill="midnightblue" stroke="midnightblue" points="332.497,-106.409 322.346,-109.444 332.173,-113.402 332.497,-106.409"/>
</g>
<!-- Node801 -->
<g id="node20" class="node"><title>Node801</title>
<g id="a_node20"><a xlink:href="class_wallet_model.html#aefc0dde78489bcc7e06690b27acdaf4d" target="_top" xlink:title="WalletModel::setWalletLocked">
<polygon fill="white" stroke="black" points="571.5,-38.5 571.5,-57.5 720.5,-57.5 720.5,-38.5 571.5,-38.5"/>
<text text-anchor="middle" x="646" y="-45.5" font-family="Helvetica,sans-Serif" font-size="10.00">WalletModel::setWalletLocked</text>
</a>
</g>
</g>
<!-- Node800&#45;&gt;Node801 -->
<g id="edge20" class="edge"><title>Node800&#45;&gt;Node801</title>
<path fill="none" stroke="midnightblue" d="M498.017,-48C520.472,-48 546.957,-48 571.215,-48"/>
<polygon fill="midnightblue" stroke="midnightblue" points="498.006,-44.5001 488.006,-48 498.005,-51.5001 498.006,-44.5001"/>
</g>
<!-- Node805 -->
<g id="node24" class="node"><title>Node805</title>
<g id="a_node24"><a xlink:href="rpcwallet_8cpp.html#a001d7bf0dae09484298af47da1c84df6" target="_top" xlink:title="walletpassphrase">
<polygon fill="white" stroke="black" points="600,-0.5 600,-19.5 692,-19.5 692,-0.5 600,-0.5"/>
<text text-anchor="middle" x="646" y="-7.5" font-family="Helvetica,sans-Serif" font-size="10.00">walletpassphrase</text>
</a>
</g>
</g>
<!-- Node800&#45;&gt;Node805 -->
<g id="edge24" class="edge"><title>Node800&#45;&gt;Node805</title>
<path fill="none" stroke="midnightblue" d="M498.018,-37.8569C529.8,-31.8334 569.654,-24.28 599.842,-18.5587"/>
<polygon fill="midnightblue" stroke="midnightblue" points="497.179,-34.4536 488.006,-39.7546 498.482,-41.3312 497.179,-34.4536"/>
</g>
<!-- Node802 -->
<g id="node21" class="node"><title>Node802</title>
<g id="a_node21"><a xlink:href="class_ask_passphrase_dialog.html#ac2f176af3693b73870d26ef0bfc6cbb9" target="_top" xlink:title="AskPassphraseDialog\l::accept">
<polygon fill="white" stroke="black" points="765.5,-109 765.5,-139 878.5,-139 878.5,-109 765.5,-109"/>
<text text-anchor="start" x="773.5" y="-127" font-family="Helvetica,sans-Serif" font-size="10.00">AskPassphraseDialog</text>
<text text-anchor="middle" x="822" y="-116" font-family="Helvetica,sans-Serif" font-size="10.00">::accept</text>
</a>
</g>
</g>
<!-- Node801&#45;&gt;Node802 -->
<g id="edge21" class="edge"><title>Node801&#45;&gt;Node802</title>
<path fill="none" stroke="midnightblue" d="M707.474,-60.2201C714.159,-62.2003 720.788,-64.4528 727,-67 753.841,-78.0061 781.947,-96.0372 800.353,-108.871"/>
<polygon fill="midnightblue" stroke="midnightblue" points="708.256,-56.8049 697.685,-57.5112 706.389,-63.5514 708.256,-56.8049"/>
</g>
<!-- Node803 -->
<g id="node22" class="node"><title>Node803</title>
<g id="a_node22"><a xlink:href="class_wallet_view.html#ae76bd29c36d1cfa9bc986924a0454eeb" target="_top" xlink:title="Lock wallet. ">
<polygon fill="white" stroke="black" points="763,-38.5 763,-57.5 881,-57.5 881,-38.5 763,-38.5"/>
<text text-anchor="middle" x="822" y="-45.5" font-family="Helvetica,sans-Serif" font-size="10.00">WalletView::lockWallet</text>
</a>
</g>
</g>
<!-- Node801&#45;&gt;Node803 -->
<g id="edge22" class="edge"><title>Node801&#45;&gt;Node803</title>
<path fill="none" stroke="midnightblue" d="M730.846,-48C741.639,-48 752.497,-48 762.754,-48"/>
<polygon fill="midnightblue" stroke="midnightblue" points="730.539,-44.5001 720.539,-48 730.539,-51.5001 730.539,-44.5001"/>
</g>
<!-- Node804 -->
<g id="node23" class="node"><title>Node804</title>
<g id="a_node23"><a xlink:href="class_wallet_frame.html#a0b94aa3ff7ae9ea4d3e31b038d8b9b25" target="_top" xlink:title="Lock wallet. ">
<polygon fill="white" stroke="black" points="917,-38.5 917,-57.5 1041,-57.5 1041,-38.5 917,-38.5"/>
<text text-anchor="middle" x="979" y="-45.5" font-family="Helvetica,sans-Serif" font-size="10.00">WalletFrame::lockWallet</text>
</a>
</g>
</g>
<!-- Node803&#45;&gt;Node804 -->
<g id="edge23" class="edge"><title>Node803&#45;&gt;Node804</title>
<path fill="none" stroke="midnightblue" d="M891.417,-48C899.912,-48 908.554,-48 916.928,-48"/>
<polygon fill="midnightblue" stroke="midnightblue" points="891.157,-44.5001 881.157,-48 891.157,-51.5001 891.157,-44.5001"/>
</g>
<!-- Node807 -->
<g id="node26" class="node"><title>Node807</title>
<g id="a_node26"><a xlink:href="class_wallet_model.html#a67ebff3f267b5c9973c0465184c085a4" target="_top" xlink:title="WalletModel::changePassphrase">
<polygon fill="white" stroke="black" points="566,-114.5 566,-133.5 726,-133.5 726,-114.5 566,-114.5"/>
<text text-anchor="middle" x="646" y="-121.5" font-family="Helvetica,sans-Serif" font-size="10.00">WalletModel::changePassphrase</text>
</a>
</g>
</g>
<!-- Node806&#45;&gt;Node807 -->
<g id="edge26" class="edge"><title>Node806&#45;&gt;Node807</title>
<path fill="none" stroke="midnightblue" d="M539.289,-119.255C548.226,-119.656 557.22,-120.06 565.988,-120.453"/>
<polygon fill="midnightblue" stroke="midnightblue" points="539.386,-115.756 529.239,-118.804 539.072,-122.749 539.386,-115.756"/>
</g>
<!-- Node808 -->
<g id="node27" class="node"><title>Node808</title>
<g id="a_node27"><a xlink:href="rpcwallet_8cpp.html#a63c3c88d86ea99e2c171b68a874fe8fe" target="_top" xlink:title="walletpassphrasechange">
<polygon fill="white" stroke="black" points="584,-76.5 584,-95.5 708,-95.5 708,-76.5 584,-76.5"/>
<text text-anchor="middle" x="646" y="-83.5" font-family="Helvetica,sans-Serif" font-size="10.00">walletpassphrasechange</text>
</a>
</g>
</g>
<!-- Node806&#45;&gt;Node808 -->
<g id="edge28" class="edge"><title>Node806&#45;&gt;Node808</title>
<path fill="none" stroke="midnightblue" d="M520.551,-104C541.448,-100.978 563.838,-97.7392 583.784,-94.8541"/>
<polygon fill="midnightblue" stroke="midnightblue" points="519.825,-100.569 510.429,-105.464 520.827,-107.497 519.825,-100.569"/>
</g>
<!-- Node807&#45;&gt;Node802 -->
<g id="edge27" class="edge"><title>Node807&#45;&gt;Node802</title>
<path fill="none" stroke="midnightblue" d="M736.413,-124C746.307,-124 756.159,-124 765.458,-124"/>
<polygon fill="midnightblue" stroke="midnightblue" points="736.108,-120.5 726.108,-124 736.108,-127.5 736.108,-120.5"/>
</g>
<!-- Node809&#45;&gt;Node797 -->
<g id="edge30" class="edge"><title>Node809&#45;&gt;Node797</title>
<path fill="none" stroke="midnightblue" d="M330.665,-173.743C339.806,-176.26 349.135,-178.753 358,-181 377.677,-185.988 400.1,-190.999 416.9,-194.621"/>
<polygon fill="midnightblue" stroke="midnightblue" points="331.423,-170.321 320.851,-171.014 329.547,-177.065 331.423,-170.321"/>
</g>
<!-- Node809&#45;&gt;Node806 -->
<g id="edge31" class="edge"><title>Node809&#45;&gt;Node806</title>
<path fill="none" stroke="midnightblue" d="M331.319,-141.349C354.883,-135.765 381.115,-129.548 402.178,-124.556"/>
<polygon fill="midnightblue" stroke="midnightblue" points="330.329,-137.987 321.406,-143.699 331.943,-144.798 330.329,-137.987"/>
</g>
<!-- Node810 -->
<g id="node29" class="node"><title>Node810</title>
<g id="a_node29"><a xlink:href="group__map_wallet.html#gab34fe5bf771619dcbe22a65f013e5469" target="_top" xlink:title="CWallet::EncryptWallet">
<polygon fill="white" stroke="black" points="384,-152.5 384,-171.5 503,-171.5 503,-152.5 384,-152.5"/>
<text text-anchor="middle" x="443.5" y="-159.5" font-family="Helvetica,sans-Serif" font-size="10.00">CWallet::EncryptWallet</text>
</a>
</g>
</g>
<!-- Node809&#45;&gt;Node810 -->
<g id="edge32" class="edge"><title>Node809&#45;&gt;Node810</title>
<path fill="none" stroke="midnightblue" d="M331.795,-158.161C348.804,-158.75 367.172,-159.387 383.964,-159.97"/>
<polygon fill="midnightblue" stroke="midnightblue" points="331.521,-154.649 321.406,-157.8 331.278,-161.645 331.521,-154.649"/>
</g>
<!-- Node811 -->
<g id="node30" class="node"><title>Node811</title>
<g id="a_node30"><a xlink:href="class_wallet_model.html#a444340830badcd48e3a4dd6b03d9c4d7" target="_top" xlink:title="WalletModel::setWalletEncrypted">
<polygon fill="white" stroke="black" points="565,-190.5 565,-209.5 727,-209.5 727,-190.5 565,-190.5"/>
<text text-anchor="middle" x="646" y="-197.5" font-family="Helvetica,sans-Serif" font-size="10.00">WalletModel::setWalletEncrypted</text>
</a>
</g>
</g>
<!-- Node810&#45;&gt;Node811 -->
<g id="edge33" class="edge"><title>Node810&#45;&gt;Node811</title>
<path fill="none" stroke="midnightblue" d="M504.746,-173.418C533.434,-178.855 567.35,-185.283 594.643,-190.456"/>
<polygon fill="midnightblue" stroke="midnightblue" points="505.313,-169.963 494.836,-171.54 504.009,-176.841 505.313,-169.963"/>
</g>
<!-- Node812 -->
<g id="node31" class="node"><title>Node812</title>
<g id="a_node31"><a xlink:href="rpcwallet_8cpp.html#a080b6ac524f3796a7653dee70513227a" target="_top" xlink:title="encryptwallet">
<polygon fill="white" stroke="black" points="609,-152.5 609,-171.5 683,-171.5 683,-152.5 609,-152.5"/>
<text text-anchor="middle" x="646" y="-159.5" font-family="Helvetica,sans-Serif" font-size="10.00">encryptwallet</text>
</a>
</g>
</g>
<!-- Node810&#45;&gt;Node812 -->
<g id="edge35" class="edge"><title>Node810&#45;&gt;Node812</title>
<path fill="none" stroke="midnightblue" d="M513.262,-162C545.348,-162 582.224,-162 608.785,-162"/>
<polygon fill="midnightblue" stroke="midnightblue" points="513.032,-158.5 503.032,-162 513.032,-165.5 513.032,-158.5"/>
</g>
<!-- Node811&#45;&gt;Node802 -->
<g id="edge34" class="edge"><title>Node811&#45;&gt;Node802</title>
<path fill="none" stroke="midnightblue" d="M707.474,-187.78C714.159,-185.8 720.788,-183.547 727,-181 753.841,-169.994 781.947,-151.963 800.353,-139.129"/>
<polygon fill="midnightblue" stroke="midnightblue" points="706.389,-184.449 697.685,-190.489 708.256,-191.195 706.389,-184.449"/>
</g>
<!-- Node813&#45;&gt;Node809 -->
<g id="edge37" class="edge"><title>Node813&#45;&gt;Node809</title>
<path fill="none" stroke="midnightblue" d="M189.502,-158.786C198.347,-158.47 207.364,-158.148 215.98,-157.84"/>
<polygon fill="midnightblue" stroke="midnightblue" points="189.102,-155.298 179.233,-159.152 189.352,-162.293 189.102,-155.298"/>
</g>
</g>
</svg>
        <g id="navigator" transform="translate(0 0)" fill="#404254">
                <rect fill="#f2f5e9" fill-opacity="0.5" stroke="#606060" stroke-width=".5" x="0" y="0" width="60" height="60"/>
                <use id="zoomplus" xlink:href="#zoomPlus" x="17" y="9" onmousedown="handleZoom(evt,'in')"/>
                <use id="zoomminus" xlink:href="#zoomMin" x="42" y="9" onmousedown="handleZoom(evt,'out')"/>
                <use id="reset" xlink:href="#resetDef" x="30" y="36" onmousedown="handleReset()"/>
                <g id="arrowUp" xlink:href="#dirArrow" transform="translate(30 24)" onmousedown="handlePan(0,-1)">
                  <use xlink:href="#rim" fill="#404040">
                        <set attributeName="fill" to="#808080" begin="arrowUp.mouseover" end="arrowUp.mouseout"/>
                  </use>
                  <path fill="none" stroke="white" stroke-width="1.5" d="M0,-3.0v7 M-2.5,-0.5L0,-3.0L2.5,-0.5"/>
                </g>
                <g id="arrowRight" xlink:href="#dirArrow" transform="rotate(90) translate(36 -43)" onmousedown="handlePan(1,0)">
                  <use xlink:href="#rim" fill="#404040">
                        <set attributeName="fill" to="#808080" begin="arrowRight.mouseover" end="arrowRight.mouseout"/>
                  </use>
                  <path fill="none" stroke="white" stroke-width="1.5" d="M0,-3.0v7 M-2.5,-0.5L0,-3.0L2.5,-0.5"/>
                </g>
                <g id="arrowDown" xlink:href="#dirArrow" transform="rotate(180) translate(-30 -48)" onmousedown="handlePan(0,1)">
                  <use xlink:href="#rim" fill="#404040">
                        <set attributeName="fill" to="#808080" begin="arrowDown.mouseover" end="arrowDown.mouseout"/>
                  </use>
                  <path fill="none" stroke="white" stroke-width="1.5" d="M0,-3.0v7 M-2.5,-0.5L0,-3.0L2.5,-0.5"/>
                </g>
                <g id="arrowLeft" xlink:href="#dirArrow" transform="rotate(270) translate(-36 17)" onmousedown="handlePan(-1,0)">
                  <use xlink:href="#rim" fill="#404040">
                        <set attributeName="fill" to="#808080" begin="arrowLeft.mouseover" end="arrowLeft.mouseout"/>
                  </use>
                  <path fill="none" stroke="white" stroke-width="1.5" d="M0,-3.0v7 M-2.5,-0.5L0,-3.0L2.5,-0.5"/>
                </g>
        </g>
        <svg viewBox="0 0 15 15" width="100%" height="30px" preserveAspectRatio="xMaxYMin meet">
         <g id="arrow_out" transform="scale(0.3 0.3)">
          <a xlink:href="utilstrencodings_8cpp_a565b3ea015b133d01dc52b4ec6e45f07_icgraph_org.svg" target="_base">
           <rect id="button" ry="5" rx="5" y="6" x="6" height="38" width="38"
                fill="#f2f5e9" fill-opacity="0.5" stroke="#606060" stroke-width="1.0"/>
           <path id="arrow"
             d="M 11.500037,31.436501 C 11.940474,20.09759 22.043105,11.32322 32.158766,21.979434 L 37.068811,17.246167 C 37.068811,17.246167 37.088388,32 37.088388,32 L 22.160133,31.978069 C 22.160133,31.978069 26.997745,27.140456 26.997745,27.140456 C 18.528582,18.264221 13.291696,25.230495 11.500037,31.436501 z"
             style="fill:#404040;"/>
          </a>
         </g>
        </svg>
</svg>
