<?xml version="1.0" encoding="UTF-8" standalone="no"?>
<!DOCTYPE svg PUBLIC "-//W3C//DTD SVG 1.1//EN"
 "http://www.w3.org/Graphics/SVG/1.1/DTD/svg11.dtd">
<!-- Generated by graphviz version 2.38.0 (20140413.2041)
 -->
<!-- Title: src/utilmoneystr.h Pages: 1 -->
<svg width="1826pt" height="84pt"
 viewBox="0.00 0.00 1825.50 84.00" xmlns="http://www.w3.org/2000/svg" xmlns:xlink="http://www.w3.org/1999/xlink">
<g id="graph0" class="graph" transform="scale(1 1) rotate(0) translate(4 80)">
<title>src/utilmoneystr.h</title>
<polygon fill="white" stroke="none" points="-4,4 -4,-80 1821.5,-80 1821.5,4 -4,4"/>
<!-- Node20 -->
<g id="node1" class="node"><title>Node20</title>
<polygon fill="#bfbfbf" stroke="black" points="830,-56.5 830,-75.5 925,-75.5 925,-56.5 830,-56.5"/>
<text text-anchor="middle" x="877.5" y="-63.5" font-family="Helvetica,sans-Serif" font-size="10.00">src/utilmoneystr.h</text>
</g>
<!-- Node21 -->
<g id="node2" class="node"><title>Node21</title>
<g id="a_node2"><a xlink:href="core__write_8cpp.html" target="_top" xlink:title="src/core_write.cpp">
<polygon fill="white" stroke="black" points="0,-0.5 0,-19.5 97,-19.5 97,-0.5 0,-0.5"/>
<text text-anchor="middle" x="48.5" y="-7.5" font-family="Helvetica,sans-Serif" font-size="10.00">src/core_write.cpp</text>
</a>
</g>
</g>
<!-- Node20&#45;&gt;Node21 -->
<g id="edge1" class="edge"><title>Node20&#45;&gt;Node21</title>
<path fill="none" stroke="midnightblue" d="M819.913,-63.5797C691.406,-59.9864 371.597,-48.6928 105.5,-20 102.811,-19.71 100.054,-19.3811 97.2756,-19.0246"/>
<polygon fill="midnightblue" stroke="midnightblue" points="819.835,-67.0788 829.928,-63.8548 820.028,-60.0814 819.835,-67.0788"/>
</g>
<!-- Node22 -->
<g id="node3" class="node"><title>Node22</title>
<g id="a_node3"><a xlink:href="dash-tx_8cpp.html" target="_top" xlink:title="src/dash&#45;tx.cpp">
<polygon fill="white" stroke="black" points="114.5,-0.5 114.5,-19.5 198.5,-19.5 198.5,-0.5 114.5,-0.5"/>
<text text-anchor="middle" x="156.5" y="-7.5" font-family="Helvetica,sans-Serif" font-size="10.00">src/dash&#45;tx.cpp</text>
</a>
</g>
</g>
<!-- Node20&#45;&gt;Node22 -->
<g id="edge2" class="edge"><title>Node20&#45;&gt;Node22</title>
<path fill="none" stroke="midnightblue" d="M819.711,-63.2133C703.428,-59.1567 433.023,-47.392 207.5,-20 204.644,-19.6531 201.705,-19.2523 198.748,-18.8165"/>
<polygon fill="midnightblue" stroke="midnightblue" points="819.698,-66.7149 829.813,-63.5598 819.938,-59.719 819.698,-66.7149"/>
</g>
<!-- Node23 -->
<g id="node4" class="node"><title>Node23</title>
<g id="a_node4"><a xlink:href="init_8cpp.html" target="_top" xlink:title="src/init.cpp">
<polygon fill="white" stroke="black" points="217,-0.5 217,-19.5 282,-19.5 282,-0.5 217,-0.5"/>
<text text-anchor="middle" x="249.5" y="-7.5" font-family="Helvetica,sans-Serif" font-size="10.00">src/init.cpp</text>
</a>
</g>
</g>
<!-- Node20&#45;&gt;Node23 -->
<g id="edge3" class="edge"><title>Node20&#45;&gt;Node23</title>
<path fill="none" stroke="midnightblue" d="M819.674,-63.1373C714.215,-59.1685 483.778,-47.855 291.5,-20 288.548,-19.5723 285.493,-19.0586 282.439,-18.4961"/>
<polygon fill="midnightblue" stroke="midnightblue" points="819.666,-66.6392 829.788,-63.5097 819.923,-59.644 819.666,-66.6392"/>
</g>
<!-- Node24 -->
<g id="node5" class="node"><title>Node24</title>
<g id="a_node5"><a xlink:href="miner_8cpp.html" target="_top" xlink:title="src/miner.cpp">
<polygon fill="white" stroke="black" points="300.5,-0.5 300.5,-19.5 376.5,-19.5 376.5,-0.5 300.5,-0.5"/>
<text text-anchor="middle" x="338.5" y="-7.5" font-family="Helvetica,sans-Serif" font-size="10.00">src/miner.cpp</text>
</a>
</g>
</g>
<!-- Node20&#45;&gt;Node24 -->
<g id="edge4" class="edge"><title>Node20&#45;&gt;Node24</title>
<path fill="none" stroke="midnightblue" d="M819.59,-61.5488C727.395,-55.64 541.699,-42.0445 385.5,-20 382.621,-19.5936 379.65,-19.1302 376.667,-18.6328"/>
<polygon fill="midnightblue" stroke="midnightblue" points="819.624,-65.058 829.826,-62.1978 820.067,-58.072 819.624,-65.058"/>
</g>
<!-- Node25 -->
<g id="node6" class="node"><title>Node25</title>
<g id="a_node6"><a xlink:href="net__processing_8cpp.html" target="_top" xlink:title="src/net_processing.cpp">
<polygon fill="white" stroke="black" points="394.5,-0.5 394.5,-19.5 512.5,-19.5 512.5,-0.5 394.5,-0.5"/>
<text text-anchor="middle" x="453.5" y="-7.5" font-family="Helvetica,sans-Serif" font-size="10.00">src/net_processing.cpp</text>
</a>
</g>
</g>
<!-- Node20&#45;&gt;Node25 -->
<g id="edge5" class="edge"><title>Node20&#45;&gt;Node25</title>
<path fill="none" stroke="midnightblue" d="M819.985,-57.8349C749.591,-49.041 626.759,-33.6182 521.5,-20 518.666,-19.6333 515.765,-19.2562 512.835,-18.874"/>
<polygon fill="midnightblue" stroke="midnightblue" points="819.626,-61.3171 829.982,-59.0833 820.493,-54.3711 819.626,-61.3171"/>
</g>
<!-- Node26 -->
<g id="node7" class="node"><title>Node26</title>
<g id="a_node7"><a xlink:href="privatesend-client_8cpp.html" target="_top" xlink:title="src/privatesend&#45;client.cpp">
<polygon fill="white" stroke="black" points="530.5,-0.5 530.5,-19.5 658.5,-19.5 658.5,-0.5 530.5,-0.5"/>
<text text-anchor="middle" x="594.5" y="-7.5" font-family="Helvetica,sans-Serif" font-size="10.00">src/privatesend&#45;client.cpp</text>
</a>
</g>
</g>
<!-- Node20&#45;&gt;Node26 -->
<g id="edge6" class="edge"><title>Node20&#45;&gt;Node26</title>
<path fill="none" stroke="midnightblue" d="M822.667,-54.5371C769.182,-44.3316 688.829,-28.9992 639.132,-19.5164"/>
<polygon fill="midnightblue" stroke="midnightblue" points="822.179,-58.0071 832.658,-56.4435 823.491,-51.1312 822.179,-58.0071"/>
</g>
<!-- Node27 -->
<g id="node8" class="node"><title>Node27</title>
<g id="a_node8"><a xlink:href="privatesend-server_8cpp.html" target="_top" xlink:title="src/privatesend&#45;server.cpp">
<polygon fill="white" stroke="black" points="676.5,-0.5 676.5,-19.5 808.5,-19.5 808.5,-0.5 676.5,-0.5"/>
<text text-anchor="middle" x="742.5" y="-7.5" font-family="Helvetica,sans-Serif" font-size="10.00">src/privatesend&#45;server.cpp</text>
</a>
</g>
</g>
<!-- Node20&#45;&gt;Node27 -->
<g id="edge7" class="edge"><title>Node20&#45;&gt;Node27</title>
<path fill="none" stroke="midnightblue" d="M846.594,-52.6377C821.26,-42.504 786.069,-28.4274 763.791,-19.5164"/>
<polygon fill="midnightblue" stroke="midnightblue" points="845.524,-55.9792 856.109,-56.4435 848.124,-49.4799 845.524,-55.9792"/>
</g>
<!-- Node28 -->
<g id="node9" class="node"><title>Node28</title>
<g id="a_node9"><a xlink:href="privatesend_8cpp.html" target="_top" xlink:title="src/privatesend.cpp">
<polygon fill="white" stroke="black" points="826.5,-0.5 826.5,-19.5 928.5,-19.5 928.5,-0.5 826.5,-0.5"/>
<text text-anchor="middle" x="877.5" y="-7.5" font-family="Helvetica,sans-Serif" font-size="10.00">src/privatesend.cpp</text>
</a>
</g>
</g>
<!-- Node20&#45;&gt;Node28 -->
<g id="edge8" class="edge"><title>Node20&#45;&gt;Node28</title>
<path fill="none" stroke="midnightblue" d="M877.5,-45.8045C877.5,-36.9102 877.5,-26.7798 877.5,-19.7511"/>
<polygon fill="midnightblue" stroke="midnightblue" points="874,-46.083 877.5,-56.083 881,-46.083 874,-46.083"/>
</g>
<!-- Node29 -->
<g id="node10" class="node"><title>Node29</title>
<g id="a_node10"><a xlink:href="rpc_2governance_8cpp.html" target="_top" xlink:title="src/rpc/governance.cpp">
<polygon fill="white" stroke="black" points="947,-0.5 947,-19.5 1066,-19.5 1066,-0.5 947,-0.5"/>
<text text-anchor="middle" x="1006.5" y="-7.5" font-family="Helvetica,sans-Serif" font-size="10.00">src/rpc/governance.cpp</text>
</a>
</g>
</g>
<!-- Node20&#45;&gt;Node29 -->
<g id="edge9" class="edge"><title>Node20&#45;&gt;Node29</title>
<path fill="none" stroke="midnightblue" d="M907.354,-52.503C931.538,-42.3795 964.962,-28.388 986.155,-19.5164"/>
<polygon fill="midnightblue" stroke="midnightblue" points="905.813,-49.3536 897.94,-56.4435 908.516,-55.8106 905.813,-49.3536"/>
</g>
<!-- Node30 -->
<g id="node11" class="node"><title>Node30</title>
<g id="a_node11"><a xlink:href="rpc_2masternode_8cpp.html" target="_top" xlink:title="src/rpc/masternode.cpp">
<polygon fill="white" stroke="black" points="1084,-0.5 1084,-19.5 1203,-19.5 1203,-0.5 1084,-0.5"/>
<text text-anchor="middle" x="1143.5" y="-7.5" font-family="Helvetica,sans-Serif" font-size="10.00">src/rpc/masternode.cpp</text>
</a>
</g>
</g>
<!-- Node20&#45;&gt;Node30 -->
<g id="edge10" class="edge"><title>Node20&#45;&gt;Node30</title>
<path fill="none" stroke="midnightblue" d="M929.668,-54.4096C979.939,-44.2042 1055.03,-28.9597 1101.55,-19.5164"/>
<polygon fill="midnightblue" stroke="midnightblue" points="928.752,-51.0239 919.648,-56.4435 930.145,-57.884 928.752,-51.0239"/>
</g>
<!-- Node31 -->
<g id="node12" class="node"><title>Node31</title>
<g id="a_node12"><a xlink:href="txmempool_8cpp.html" target="_top" xlink:title="src/txmempool.cpp">
<polygon fill="white" stroke="black" points="1221.5,-0.5 1221.5,-19.5 1321.5,-19.5 1321.5,-0.5 1221.5,-0.5"/>
<text text-anchor="middle" x="1271.5" y="-7.5" font-family="Helvetica,sans-Serif" font-size="10.00">src/txmempool.cpp</text>
</a>
</g>
</g>
<!-- Node20&#45;&gt;Node31 -->
<g id="edge11" class="edge"><title>Node20&#45;&gt;Node31</title>
<path fill="none" stroke="midnightblue" d="M935.567,-57.5195C1002.41,-48.8349 1115.46,-33.9182 1212.5,-20 1215.37,-19.5881 1218.32,-19.1587 1221.3,-18.7204"/>
<polygon fill="midnightblue" stroke="midnightblue" points="934.713,-54.101 925.246,-58.8587 935.614,-61.0428 934.713,-54.101"/>
</g>
<!-- Node32 -->
<g id="node13" class="node"><title>Node32</title>
<g id="a_node13"><a xlink:href="utilmoneystr_8cpp.html" target="_top" xlink:title="src/utilmoneystr.cpp">
<polygon fill="white" stroke="black" points="1340,-0.5 1340,-19.5 1445,-19.5 1445,-0.5 1340,-0.5"/>
<text text-anchor="middle" x="1392.5" y="-7.5" font-family="Helvetica,sans-Serif" font-size="10.00">src/utilmoneystr.cpp</text>
</a>
</g>
</g>
<!-- Node20&#45;&gt;Node32 -->
<g id="edge12" class="edge"><title>Node20&#45;&gt;Node32</title>
<path fill="none" stroke="midnightblue" d="M935.291,-60.1007C1021.49,-52.6029 1188.78,-37.3167 1330.5,-20 1333.52,-19.6306 1336.63,-19.2344 1339.76,-18.8216"/>
<polygon fill="midnightblue" stroke="midnightblue" points="934.849,-56.6257 925.188,-60.976 935.453,-63.5996 934.849,-56.6257"/>
</g>
<!-- Node33 -->
<g id="node14" class="node"><title>Node33</title>
<g id="a_node14"><a xlink:href="validation_8cpp.html" target="_top" xlink:title="src/validation.cpp">
<polygon fill="white" stroke="black" points="1463,-0.5 1463,-19.5 1556,-19.5 1556,-0.5 1463,-0.5"/>
<text text-anchor="middle" x="1509.5" y="-7.5" font-family="Helvetica,sans-Serif" font-size="10.00">src/validation.cpp</text>
</a>
</g>
</g>
<!-- Node20&#45;&gt;Node33 -->
<g id="edge13" class="edge"><title>Node20&#45;&gt;Node33</title>
<path fill="none" stroke="midnightblue" d="M935.424,-62.1035C1039.57,-56.5351 1265.23,-42.8249 1454.5,-20 1457.19,-19.6756 1459.95,-19.3146 1462.73,-18.9287"/>
<polygon fill="midnightblue" stroke="midnightblue" points="934.931,-58.6246 925.13,-62.6484 935.301,-65.6148 934.931,-58.6246"/>
</g>
<!-- Node34 -->
<g id="node15" class="node"><title>Node34</title>
<g id="a_node15"><a xlink:href="rpcwallet_8cpp.html" target="_top" xlink:title="src/wallet/rpcwallet.cpp">
<polygon fill="white" stroke="black" points="1574,-0.5 1574,-19.5 1693,-19.5 1693,-0.5 1574,-0.5"/>
<text text-anchor="middle" x="1633.5" y="-7.5" font-family="Helvetica,sans-Serif" font-size="10.00">src/wallet/rpcwallet.cpp</text>
</a>
</g>
</g>
<!-- Node20&#45;&gt;Node34 -->
<g id="edge14" class="edge"><title>Node20&#45;&gt;Node34</title>
<path fill="none" stroke="midnightblue" d="M935.419,-62.51C1053.91,-57.1296 1332.51,-43.013 1565.5,-20 1568.23,-19.7308 1571.01,-19.4373 1573.82,-19.1261"/>
<polygon fill="midnightblue" stroke="midnightblue" points="934.965,-59.0268 925.133,-62.9733 935.28,-66.0197 934.965,-59.0268"/>
</g>
<!-- Node35 -->
<g id="node16" class="node"><title>Node35</title>
<g id="a_node16"><a xlink:href="wallet_8cpp.html" target="_top" xlink:title="src/wallet/wallet.cpp">
<polygon fill="white" stroke="black" points="1711.5,-0.5 1711.5,-19.5 1817.5,-19.5 1817.5,-0.5 1711.5,-0.5"/>
<text text-anchor="middle" x="1764.5" y="-7.5" font-family="Helvetica,sans-Serif" font-size="10.00">src/wallet/wallet.cpp</text>
</a>
</g>
</g>
<!-- Node20&#45;&gt;Node35 -->
<g id="edge15" class="edge"><title>Node20&#45;&gt;Node35</title>
<path fill="none" stroke="midnightblue" d="M935.134,-63.6338C1069.75,-60.0549 1415.24,-48.6261 1702.5,-20 1705.42,-19.7088 1708.42,-19.3789 1711.44,-19.0217"/>
<polygon fill="midnightblue" stroke="midnightblue" points="934.952,-60.1373 925.047,-63.8977 935.135,-67.1349 934.952,-60.1373"/>
</g>
</g>
</svg>
