<?xml version="1.0" encoding="UTF-8" standalone="no"?>
<!DOCTYPE svg PUBLIC "-//W3C//DTD SVG 1.1//EN"
 "http://www.w3.org/Graphics/SVG/1.1/DTD/svg11.dtd">
<!-- Generated by graphviz version 2.38.0 (20140413.2041)
 -->
<!-- Title: src/zmq/zmqnotificationinterface.h Pages: 1 -->
<!--zoomable 420 -->
<svg id="main" version="1.1" xmlns="http://www.w3.org/2000/svg" xmlns:xlink="http://www.w3.org/1999/xlink" xml:space="preserve" onload="init(evt)">
<style type="text/css"><![CDATA[
.edge:hover path { stroke: red; }
.edge:hover polygon { stroke: red; fill: red; }
]]></style>
<script type="text/javascript"><![CDATA[
var edges = document.getElementsByTagName('g');
if (edges && edges.length) {
  for (var i=0;i<edges.length;i++) {
    if (edges[i].id.substr(0,4)=='edge') {
      edges[i].setAttribute('class','edge');
    }
  }
}
]]></script>
        <defs>
                <circle id="rim" cx="0" cy="0" r="7"/>
                <circle id="rim2" cx="0" cy="0" r="3.5"/>
                <g id="zoomPlus">
                        <use xlink:href="#rim" fill="#404040">
                                <set attributeName="fill" to="#808080" begin="zoomplus.mouseover" end="zoomplus.mouseout"/>
                        </use>
                        <path d="M-4,0h8M0,-4v8" fill="none" stroke="white" stroke-width="1.5" pointer-events="none"/>
                </g>
                <g id="zoomMin">
                        <use xlink:href="#rim" fill="#404040">
                                <set attributeName="fill" to="#808080" begin="zoomminus.mouseover" end="zoomminus.mouseout"/>
                        </use>
                        <path d="M-4,0h8" fill="none" stroke="white" stroke-width="1.5" pointer-events="none"/>
                </g>
                <g id="dirArrow">
                        <path fill="none" stroke="white" stroke-width="1.5" d="M0,-3.0v7 M-2.5,-0.5L0,-3.0L2.5,-0.5"/>
                </g>
               <g id="resetDef">
                       <use xlink:href="#rim2" fill="#404040">
                               <set attributeName="fill" to="#808080" begin="reset.mouseover" end="reset.mouseout"/>
                       </use>
               </g>
        </defs>

<script type="text/javascript">
var viewWidth = 2062;
var viewHeight = 420;
var sectionId = 'dynsection-0';
</script>
<script xlink:href="svgpan.js"/>
<svg id="graph" class="graph">
<g id="viewport">
<title>src/zmq/zmqnotificationinterface.h</title>
<polygon fill="white" stroke="none" points="-4,4 -4,-416 2057.75,-416 2057.75,4 -4,4"/>
<!-- Node0 -->
<g id="node1" class="node"><title>Node0</title>
<polygon fill="#bfbfbf" stroke="black" points="719,-392.5 719,-411.5 901,-411.5 901,-392.5 719,-392.5"/>
<text text-anchor="middle" x="810" y="-399.5" font-family="Helvetica,sans-Serif" font-size="10.00">src/zmq/zmqnotificationinterface.h</text>
</g>
<!-- Node1 -->
<g id="node2" class="node"><title>Node1</title>
<g id="a_node2"><a xlink:href="validationinterface_8h.html" target="_top" xlink:title="validationinterface.h">
<polygon fill="white" stroke="black" points="1254.5,-336.5 1254.5,-355.5 1367.5,-355.5 1367.5,-336.5 1254.5,-336.5"/>
<text text-anchor="middle" x="1311" y="-343.5" font-family="Helvetica,sans-Serif" font-size="10.00">validationinterface.h</text>
</a>
</g>
</g>
<!-- Node0&#45;&gt;Node1 -->
<g id="edge1" class="edge"><title>Node0&#45;&gt;Node1</title>
<path fill="none" stroke="midnightblue" d="M889.108,-392.473C987.18,-381.903 1152.58,-364.075 1244.45,-354.173"/>
<polygon fill="midnightblue" stroke="midnightblue" points="1244.9,-357.645 1254.46,-353.094 1244.15,-350.686 1244.9,-357.645"/>
</g>
<!-- Node35 -->
<g id="node36" class="node"><title>Node35</title>
<polygon fill="white" stroke="#bfbfbf" points="720,-112.5 720,-131.5 750,-131.5 750,-112.5 720,-112.5"/>
<text text-anchor="middle" x="735" y="-119.5" font-family="Helvetica,sans-Serif" font-size="10.00">list</text>
</g>
<!-- Node0&#45;&gt;Node35 -->
<g id="edge76" class="edge"><title>Node0&#45;&gt;Node35</title>
<path fill="none" stroke="midnightblue" d="M749.415,-392.496C692.493,-380.687 616,-353.239 616,-291 616,-291 616,-291 616,-233 616,-182.043 675.567,-148.129 710.413,-132.649"/>
<polygon fill="midnightblue" stroke="midnightblue" points="712.094,-135.737 719.929,-128.605 709.356,-129.295 712.094,-135.737"/>
</g>
<!-- Node36 -->
<g id="node37" class="node"><title>Node36</title>
<polygon fill="white" stroke="#bfbfbf" points="768,-112.5 768,-131.5 806,-131.5 806,-112.5 768,-112.5"/>
<text text-anchor="middle" x="787" y="-119.5" font-family="Helvetica,sans-Serif" font-size="10.00">map</text>
</g>
<!-- Node0&#45;&gt;Node36 -->
<g id="edge75" class="edge"><title>Node0&#45;&gt;Node36</title>
<path fill="none" stroke="midnightblue" d="M801.403,-392.465C784.813,-375.039 750,-333.419 750,-291 750,-291 750,-291 750,-233 750,-198.889 766.182,-161.787 777.142,-140.568"/>
<polygon fill="midnightblue" stroke="midnightblue" points="780.359,-141.976 782.01,-131.51 774.193,-138.662 780.359,-141.976"/>
</g>
<!-- Node39 -->
<g id="node40" class="node"><title>Node39</title>
<polygon fill="white" stroke="#bfbfbf" points="1012,-112.5 1012,-131.5 1056,-131.5 1056,-112.5 1012,-112.5"/>
<text text-anchor="middle" x="1034" y="-119.5" font-family="Helvetica,sans-Serif" font-size="10.00">string</text>
</g>
<!-- Node0&#45;&gt;Node39 -->
<g id="edge74" class="edge"><title>Node0&#45;&gt;Node39</title>
<path fill="none" stroke="midnightblue" d="M818.597,-392.465C835.187,-375.039 870,-333.419 870,-291 870,-291 870,-291 870,-233 870,-170.078 954.293,-140.839 1002.02,-129.327"/>
<polygon fill="midnightblue" stroke="midnightblue" points="1002.91,-132.712 1011.88,-127.073 1001.35,-125.888 1002.91,-132.712"/>
</g>
<!-- Node2 -->
<g id="node3" class="node"><title>Node2</title>
<g id="a_node3"><a xlink:href="transaction_8h.html" target="_top" xlink:title="primitives/transaction.h">
<polygon fill="white" stroke="black" points="1189.5,-280.5 1189.5,-299.5 1318.5,-299.5 1318.5,-280.5 1189.5,-280.5"/>
<text text-anchor="middle" x="1254" y="-287.5" font-family="Helvetica,sans-Serif" font-size="10.00">primitives/transaction.h</text>
</a>
</g>
</g>
<!-- Node1&#45;&gt;Node2 -->
<g id="edge2" class="edge"><title>Node1&#45;&gt;Node2</title>
<path fill="none" stroke="midnightblue" d="M1301.84,-336.324C1293.5,-328.42 1280.97,-316.548 1270.82,-306.938"/>
<polygon fill="midnightblue" stroke="midnightblue" points="1272.99,-304.171 1263.32,-299.834 1268.18,-309.252 1272.99,-304.171"/>
</g>
<!-- Node37 -->
<g id="node38" class="node"><title>Node37</title>
<polygon fill="white" stroke="#bfbfbf" points="1976.5,-112.5 1976.5,-131.5 2033.5,-131.5 2033.5,-112.5 1976.5,-112.5"/>
<text text-anchor="middle" x="2005" y="-119.5" font-family="Helvetica,sans-Serif" font-size="10.00">memory</text>
</g>
<!-- Node1&#45;&gt;Node37 -->
<g id="edge73" class="edge"><title>Node1&#45;&gt;Node37</title>
<path fill="none" stroke="midnightblue" d="M1367.65,-336.524C1464.2,-321.53 1666.45,-287.741 1834,-244 1910.56,-224.012 1955.7,-251.43 2003,-188 2012.8,-174.86 2012.13,-155.717 2009.71,-141.607"/>
<polygon fill="midnightblue" stroke="midnightblue" points="2013.08,-140.626 2007.56,-131.581 2006.23,-142.092 2013.08,-140.626"/>
</g>
<!-- Node48 -->
<g id="node49" class="node"><title>Node48</title>
<polygon fill="white" stroke="#bfbfbf" points="1336.5,-280.5 1336.5,-299.5 1399.5,-299.5 1399.5,-280.5 1336.5,-280.5"/>
<text text-anchor="middle" x="1368" y="-287.5" font-family="Helvetica,sans-Serif" font-size="10.00">functional</text>
</g>
<!-- Node1&#45;&gt;Node48 -->
<g id="edge72" class="edge"><title>Node1&#45;&gt;Node48</title>
<path fill="none" stroke="midnightblue" d="M1320.16,-336.324C1328.5,-328.42 1341.03,-316.548 1351.18,-306.938"/>
<polygon fill="midnightblue" stroke="midnightblue" points="1353.82,-309.252 1358.68,-299.834 1349.01,-304.171 1353.82,-309.252"/>
</g>
<!-- Node3 -->
<g id="node4" class="node"><title>Node3</title>
<g id="a_node4"><a xlink:href="amount_8h.html" target="_top" xlink:title="amount.h">
<polygon fill="white" stroke="black" points="778.5,-224.5 778.5,-243.5 841.5,-243.5 841.5,-224.5 778.5,-224.5"/>
<text text-anchor="middle" x="810" y="-231.5" font-family="Helvetica,sans-Serif" font-size="10.00">amount.h</text>
</a>
</g>
</g>
<!-- Node2&#45;&gt;Node3 -->
<g id="edge3" class="edge"><title>Node2&#45;&gt;Node3</title>
<path fill="none" stroke="midnightblue" d="M1189.44,-281.148C1097.1,-269.917 929.877,-249.58 852.006,-240.109"/>
<polygon fill="midnightblue" stroke="midnightblue" points="851.978,-236.58 841.628,-238.847 851.132,-243.528 851.978,-236.58"/>
</g>
<!-- Node5 -->
<g id="node6" class="node"><title>Node5</title>
<g id="a_node6"><a xlink:href="script_8h.html" target="_top" xlink:title="script/script.h">
<polygon fill="white" stroke="black" points="1175.5,-224.5 1175.5,-243.5 1256.5,-243.5 1256.5,-224.5 1175.5,-224.5"/>
<text text-anchor="middle" x="1216" y="-231.5" font-family="Helvetica,sans-Serif" font-size="10.00">script/script.h</text>
</a>
</g>
</g>
<!-- Node2&#45;&gt;Node5 -->
<g id="edge5" class="edge"><title>Node2&#45;&gt;Node5</title>
<path fill="none" stroke="midnightblue" d="M1247.73,-280.083C1242.36,-272.455 1234.48,-261.264 1227.92,-251.941"/>
<polygon fill="midnightblue" stroke="midnightblue" points="1230.78,-249.915 1222.16,-243.751 1225.05,-253.943 1230.78,-249.915"/>
</g>
<!-- Node31 -->
<g id="node32" class="node"><title>Node31</title>
<g id="a_node32"><a xlink:href="serialize_8h.html" target="_top" xlink:title="serialize.h">
<polygon fill="white" stroke="black" points="1275.5,-168.5 1275.5,-187.5 1340.5,-187.5 1340.5,-168.5 1275.5,-168.5"/>
<text text-anchor="middle" x="1308" y="-175.5" font-family="Helvetica,sans-Serif" font-size="10.00">serialize.h</text>
</a>
</g>
</g>
<!-- Node2&#45;&gt;Node31 -->
<g id="edge63" class="edge"><title>Node2&#45;&gt;Node31</title>
<path fill="none" stroke="midnightblue" d="M1258.24,-280.368C1267.07,-262.376 1287.6,-220.55 1299.35,-196.627"/>
<polygon fill="midnightblue" stroke="midnightblue" points="1302.52,-198.11 1303.78,-187.591 1296.23,-195.026 1302.52,-198.11"/>
</g>
<!-- Node46 -->
<g id="node47" class="node"><title>Node46</title>
<g id="a_node47"><a xlink:href="uint256_8h.html" target="_top" xlink:title="uint256.h">
<polygon fill="white" stroke="black" points="1763,-224.5 1763,-243.5 1825,-243.5 1825,-224.5 1763,-224.5"/>
<text text-anchor="middle" x="1794" y="-231.5" font-family="Helvetica,sans-Serif" font-size="10.00">uint256.h</text>
</a>
</g>
</g>
<!-- Node2&#45;&gt;Node46 -->
<g id="edge64" class="edge"><title>Node2&#45;&gt;Node46</title>
<path fill="none" stroke="midnightblue" d="M1318.87,-280.912C1321.61,-280.598 1324.33,-280.293 1327,-280 1483.91,-262.771 1670.88,-245.838 1752.48,-238.627"/>
<polygon fill="midnightblue" stroke="midnightblue" points="1753.16,-242.081 1762.82,-237.716 1752.55,-235.108 1753.16,-242.081"/>
</g>
<!-- Node4 -->
<g id="node5" class="node"><title>Node4</title>
<polygon fill="white" stroke="#bfbfbf" points="1631.5,-0.5 1631.5,-19.5 1684.5,-19.5 1684.5,-0.5 1631.5,-0.5"/>
<text text-anchor="middle" x="1658" y="-7.5" font-family="Helvetica,sans-Serif" font-size="10.00">stdint.h</text>
</g>
<!-- Node3&#45;&gt;Node4 -->
<g id="edge4" class="edge"><title>Node3&#45;&gt;Node4</title>
<path fill="none" stroke="midnightblue" d="M794.079,-224.478C768.542,-209.706 719.698,-176.597 704,-132 691.59,-96.7448 707.643,-74.7079 740,-56 778.735,-33.6043 1454.47,-15.9048 1621.09,-11.8677"/>
<polygon fill="midnightblue" stroke="midnightblue" points="1621.41,-15.3612 1631.32,-11.6216 1621.24,-8.36327 1621.41,-15.3612"/>
</g>
<!-- Node5&#45;&gt;Node4 -->
<g id="edge59" class="edge"><title>Node5&#45;&gt;Node4</title>
<path fill="none" stroke="midnightblue" d="M1175.47,-231.093C1047.69,-224.197 664.418,-196.345 711,-112 733.594,-71.0899 755.451,-70.1236 800,-56 878.974,-30.9624 1467.08,-15.4904 1621.14,-11.8382"/>
<polygon fill="midnightblue" stroke="midnightblue" points="1621.56,-15.3295 1631.47,-11.5957 1621.39,-8.33147 1621.56,-15.3295"/>
</g>
<!-- Node6 -->
<g id="node7" class="node"><title>Node6</title>
<g id="a_node7"><a xlink:href="common_8h.html" target="_top" xlink:title="crypto/common.h">
<polygon fill="white" stroke="black" points="1783.5,-168.5 1783.5,-187.5 1884.5,-187.5 1884.5,-168.5 1783.5,-168.5"/>
<text text-anchor="middle" x="1834" y="-175.5" font-family="Helvetica,sans-Serif" font-size="10.00">crypto/common.h</text>
</a>
</g>
</g>
<!-- Node5&#45;&gt;Node6 -->
<g id="edge6" class="edge"><title>Node5&#45;&gt;Node6</title>
<path fill="none" stroke="midnightblue" d="M1256.79,-229.543C1344.49,-222.095 1557.52,-203.918 1736,-188 1748.03,-186.927 1760.89,-185.76 1773.21,-184.633"/>
<polygon fill="midnightblue" stroke="midnightblue" points="1773.75,-188.098 1783.39,-183.699 1773.12,-181.127 1773.75,-188.098"/>
</g>
<!-- Node7 -->
<g id="node8" class="node"><title>Node7</title>
<polygon fill="white" stroke="#bfbfbf" points="1057.5,-56.5 1057.5,-75.5 1110.5,-75.5 1110.5,-56.5 1057.5,-56.5"/>
<text text-anchor="middle" x="1084" y="-63.5" font-family="Helvetica,sans-Serif" font-size="10.00">string.h</text>
</g>
<!-- Node5&#45;&gt;Node7 -->
<g id="edge60" class="edge"><title>Node5&#45;&gt;Node7</title>
<path fill="none" stroke="midnightblue" d="M1175.28,-226.903C1124.82,-216.925 1040.85,-191.836 1003,-132 988.299,-108.76 1019.87,-90.1397 1047.79,-78.8839"/>
<polygon fill="midnightblue" stroke="midnightblue" points="1049.33,-82.0423 1057.43,-75.2142 1046.84,-75.5 1049.33,-82.0423"/>
</g>
<!-- Node10 -->
<g id="node11" class="node"><title>Node10</title>
<g id="a_node11"><a xlink:href="prevector_8h.html" target="_top" xlink:title="prevector.h">
<polygon fill="white" stroke="black" points="884.5,-112.5 884.5,-131.5 955.5,-131.5 955.5,-112.5 884.5,-112.5"/>
<text text-anchor="middle" x="920" y="-119.5" font-family="Helvetica,sans-Serif" font-size="10.00">prevector.h</text>
</a>
</g>
</g>
<!-- Node5&#45;&gt;Node10 -->
<g id="edge13" class="edge"><title>Node5&#45;&gt;Node10</title>
<path fill="none" stroke="midnightblue" d="M1175.17,-229.106C1114.44,-222.722 1003.82,-208.641 970,-188 951.458,-176.683 937.257,-155.766 928.809,-140.713"/>
<polygon fill="midnightblue" stroke="midnightblue" points="931.876,-139.025 924.101,-131.827 925.691,-142.302 931.876,-139.025"/>
</g>
<!-- Node11 -->
<g id="node12" class="node"><title>Node11</title>
<polygon fill="white" stroke="#bfbfbf" points="1607,-56.5 1607,-75.5 1663,-75.5 1663,-56.5 1607,-56.5"/>
<text text-anchor="middle" x="1635" y="-63.5" font-family="Helvetica,sans-Serif" font-size="10.00">assert.h</text>
</g>
<!-- Node5&#45;&gt;Node11 -->
<g id="edge55" class="edge"><title>Node5&#45;&gt;Node11</title>
<path fill="none" stroke="midnightblue" d="M1256.81,-227.776C1347.74,-215.355 1563.08,-181.356 1615,-132 1627.56,-120.061 1632.29,-100.447 1634.04,-85.8828"/>
<polygon fill="midnightblue" stroke="midnightblue" points="1637.56,-85.7831 1634.9,-75.5281 1630.59,-85.2046 1637.56,-85.7831"/>
</g>
<!-- Node5&#45;&gt;Node31 -->
<g id="edge37" class="edge"><title>Node5&#45;&gt;Node31</title>
<path fill="none" stroke="midnightblue" d="M1230.78,-224.324C1245.27,-215.822 1267.57,-202.729 1284.49,-192.797"/>
<polygon fill="midnightblue" stroke="midnightblue" points="1286.4,-195.735 1293.26,-187.655 1282.86,-189.698 1286.4,-195.735"/>
</g>
<!-- Node34 -->
<g id="node35" class="node"><title>Node34</title>
<polygon fill="white" stroke="#bfbfbf" points="824,-112.5 824,-131.5 866,-131.5 866,-112.5 824,-112.5"/>
<text text-anchor="middle" x="845" y="-119.5" font-family="Helvetica,sans-Serif" font-size="10.00">limits</text>
</g>
<!-- Node5&#45;&gt;Node34 -->
<g id="edge57" class="edge"><title>Node5&#45;&gt;Node34</title>
<path fill="none" stroke="midnightblue" d="M1175.14,-231.411C1120.87,-228.15 1022.8,-218.217 945,-188 913.7,-175.843 881.928,-153.006 862.841,-137.897"/>
<polygon fill="midnightblue" stroke="midnightblue" points="864.988,-135.132 855.012,-131.565 860.586,-140.575 864.988,-135.132"/>
</g>
<!-- Node5&#45;&gt;Node39 -->
<g id="edge61" class="edge"><title>Node5&#45;&gt;Node39</title>
<path fill="none" stroke="midnightblue" d="M1214.85,-224.477C1212.52,-210.6 1205.94,-183.154 1189,-168 1184.31,-163.808 1109.98,-143.367 1065.98,-131.527"/>
<polygon fill="midnightblue" stroke="midnightblue" points="1066.87,-128.141 1056.3,-128.929 1065.05,-134.901 1066.87,-128.141"/>
</g>
<!-- Node43 -->
<g id="node44" class="node"><title>Node43</title>
<polygon fill="white" stroke="#bfbfbf" points="1680.5,-112.5 1680.5,-131.5 1727.5,-131.5 1727.5,-112.5 1680.5,-112.5"/>
<text text-anchor="middle" x="1704" y="-119.5" font-family="Helvetica,sans-Serif" font-size="10.00">vector</text>
</g>
<!-- Node5&#45;&gt;Node43 -->
<g id="edge62" class="edge"><title>Node5&#45;&gt;Node43</title>
<path fill="none" stroke="midnightblue" d="M1256.8,-230.897C1344.22,-225.98 1546.85,-212.272 1611,-188 1640.77,-176.738 1670,-153.802 1687.52,-138.412"/>
<polygon fill="midnightblue" stroke="midnightblue" points="1690.05,-140.845 1695.13,-131.548 1685.36,-135.647 1690.05,-140.845"/>
</g>
<!-- Node44 -->
<g id="node45" class="node"><title>Node44</title>
<polygon fill="white" stroke="#bfbfbf" points="1133.5,-168.5 1133.5,-187.5 1180.5,-187.5 1180.5,-168.5 1133.5,-168.5"/>
<text text-anchor="middle" x="1157" y="-175.5" font-family="Helvetica,sans-Serif" font-size="10.00">climits</text>
</g>
<!-- Node5&#45;&gt;Node44 -->
<g id="edge56" class="edge"><title>Node5&#45;&gt;Node44</title>
<path fill="none" stroke="midnightblue" d="M1206.52,-224.324C1197.8,-216.341 1184.66,-204.313 1174.1,-194.653"/>
<polygon fill="midnightblue" stroke="midnightblue" points="1176.39,-192.004 1166.65,-187.834 1171.67,-197.167 1176.39,-192.004"/>
</g>
<!-- Node45 -->
<g id="node46" class="node"><title>Node45</title>
<polygon fill="white" stroke="#bfbfbf" points="1663,-168.5 1663,-187.5 1727,-187.5 1727,-168.5 1663,-168.5"/>
<text text-anchor="middle" x="1695" y="-175.5" font-family="Helvetica,sans-Serif" font-size="10.00">stdexcept</text>
</g>
<!-- Node5&#45;&gt;Node45 -->
<g id="edge58" class="edge"><title>Node5&#45;&gt;Node45</title>
<path fill="none" stroke="midnightblue" d="M1256.75,-229.991C1333.68,-224.039 1505.48,-209.453 1649,-188 1650.27,-187.811 1651.55,-187.61 1652.85,-187.401"/>
<polygon fill="midnightblue" stroke="midnightblue" points="1653.64,-190.817 1662.89,-185.663 1652.44,-183.92 1653.64,-190.817"/>
</g>
<!-- Node6&#45;&gt;Node4 -->
<g id="edge7" class="edge"><title>Node6&#45;&gt;Node4</title>
<path fill="none" stroke="midnightblue" d="M1851.53,-168.363C1872.04,-156.963 1901.91,-135.563 1891,-112 1856.91,-38.3663 1751.41,-18.4047 1694.8,-13.0005"/>
<polygon fill="midnightblue" stroke="midnightblue" points="1695.08,-9.51238 1684.82,-12.1512 1694.49,-16.4871 1695.08,-9.51238"/>
</g>
<!-- Node6&#45;&gt;Node7 -->
<g id="edge8" class="edge"><title>Node6&#45;&gt;Node7</title>
<path fill="none" stroke="midnightblue" d="M1822.63,-168.278C1801.24,-152.061 1755.51,-118.331 1737,-112 1621.67,-72.5496 1241.08,-67.617 1120.78,-67.0543"/>
<polygon fill="midnightblue" stroke="midnightblue" points="1120.63,-63.5537 1110.62,-67.0144 1120.6,-70.5537 1120.63,-63.5537"/>
</g>
<!-- Node8 -->
<g id="node9" class="node"><title>Node8</title>
<g id="a_node9"><a xlink:href="endian_8h.html" target="_top" xlink:title="compat/endian.h">
<polygon fill="white" stroke="black" points="1784,-112.5 1784,-131.5 1882,-131.5 1882,-112.5 1784,-112.5"/>
<text text-anchor="middle" x="1833" y="-119.5" font-family="Helvetica,sans-Serif" font-size="10.00">compat/endian.h</text>
</a>
</g>
</g>
<!-- Node6&#45;&gt;Node8 -->
<g id="edge9" class="edge"><title>Node6&#45;&gt;Node8</title>
<path fill="none" stroke="midnightblue" d="M1833.83,-168.083C1833.7,-161.006 1833.52,-150.861 1833.35,-141.986"/>
<polygon fill="midnightblue" stroke="midnightblue" points="1836.85,-141.685 1833.16,-131.751 1829.85,-141.814 1836.85,-141.685"/>
</g>
<!-- Node8&#45;&gt;Node4 -->
<g id="edge12" class="edge"><title>Node8&#45;&gt;Node4</title>
<path fill="none" stroke="midnightblue" d="M1831.54,-112.497C1828.72,-98.6488 1821.2,-71.2425 1804,-56 1773.46,-28.9376 1726.89,-18.1501 1694.6,-13.8501"/>
<polygon fill="midnightblue" stroke="midnightblue" points="1694.99,-10.3727 1684.65,-12.6696 1694.17,-17.3239 1694.99,-10.3727"/>
</g>
<!-- Node9 -->
<g id="node10" class="node"><title>Node9</title>
<g id="a_node10"><a xlink:href="byteswap_8h.html" target="_top" xlink:title="compat/byteswap.h">
<polygon fill="white" stroke="black" points="1685,-56.5 1685,-75.5 1795,-75.5 1795,-56.5 1685,-56.5"/>
<text text-anchor="middle" x="1740" y="-63.5" font-family="Helvetica,sans-Serif" font-size="10.00">compat/byteswap.h</text>
</a>
</g>
</g>
<!-- Node8&#45;&gt;Node9 -->
<g id="edge10" class="edge"><title>Node8&#45;&gt;Node9</title>
<path fill="none" stroke="midnightblue" d="M1818.06,-112.324C1803.41,-103.822 1780.87,-90.7288 1763.76,-80.7975"/>
<polygon fill="midnightblue" stroke="midnightblue" points="1765.31,-77.6491 1754.9,-75.6545 1761.8,-83.7027 1765.31,-77.6491"/>
</g>
<!-- Node9&#45;&gt;Node4 -->
<g id="edge11" class="edge"><title>Node9&#45;&gt;Node4</title>
<path fill="none" stroke="midnightblue" d="M1726.83,-56.324C1714.15,-47.979 1694.77,-35.2122 1679.79,-25.3524"/>
<polygon fill="midnightblue" stroke="midnightblue" points="1681.42,-22.2313 1671.14,-19.6545 1677.57,-28.0776 1681.42,-22.2313"/>
</g>
<!-- Node10&#45;&gt;Node4 -->
<g id="edge16" class="edge"><title>Node10&#45;&gt;Node4</title>
<path fill="none" stroke="midnightblue" d="M937.307,-112.48C955.468,-103.508 984.821,-88.9192 1010,-76 1026.98,-67.2875 1029.65,-61.257 1048,-56 1156.64,-24.8698 1506.33,-14.3969 1621.12,-11.751"/>
<polygon fill="midnightblue" stroke="midnightblue" points="1621.25,-15.2491 1631.17,-11.5257 1621.09,-8.25086 1621.25,-15.2491"/>
</g>
<!-- Node10&#45;&gt;Node7 -->
<g id="edge17" class="edge"><title>Node10&#45;&gt;Node7</title>
<path fill="none" stroke="midnightblue" d="M945.986,-112.444C973.696,-103.32 1017.75,-88.8133 1048.62,-78.6509"/>
<polygon fill="midnightblue" stroke="midnightblue" points="1049.73,-81.9684 1058.14,-75.5164 1047.54,-75.3196 1049.73,-81.9684"/>
</g>
<!-- Node10&#45;&gt;Node11 -->
<g id="edge14" class="edge"><title>Node10&#45;&gt;Node11</title>
<path fill="none" stroke="midnightblue" d="M955.515,-116.858C970.201,-115.22 987.409,-113.4 1003,-112 1227.89,-91.8075 1498.47,-75.0647 1596.88,-69.2221"/>
<polygon fill="midnightblue" stroke="midnightblue" points="1597.16,-72.7115 1606.94,-68.6272 1596.75,-65.7237 1597.16,-72.7115"/>
</g>
<!-- Node12 -->
<g id="node13" class="node"><title>Node12</title>
<polygon fill="white" stroke="#bfbfbf" points="879.5,-56.5 879.5,-75.5 930.5,-75.5 930.5,-56.5 879.5,-56.5"/>
<text text-anchor="middle" x="905" y="-63.5" font-family="Helvetica,sans-Serif" font-size="10.00">stdlib.h</text>
</g>
<!-- Node10&#45;&gt;Node12 -->
<g id="edge15" class="edge"><title>Node10&#45;&gt;Node12</title>
<path fill="none" stroke="midnightblue" d="M917.523,-112.083C915.514,-104.849 912.614,-94.4087 910.11,-85.3968"/>
<polygon fill="midnightblue" stroke="midnightblue" points="913.48,-84.4495 907.431,-75.7511 906.735,-86.323 913.48,-84.4495"/>
</g>
<!-- Node13 -->
<g id="node14" class="node"><title>Node13</title>
<polygon fill="white" stroke="#bfbfbf" points="949,-56.5 949,-75.5 1001,-75.5 1001,-56.5 949,-56.5"/>
<text text-anchor="middle" x="975" y="-63.5" font-family="Helvetica,sans-Serif" font-size="10.00">cstddef</text>
</g>
<!-- Node10&#45;&gt;Node13 -->
<g id="edge18" class="edge"><title>Node10&#45;&gt;Node13</title>
<path fill="none" stroke="midnightblue" d="M929.082,-112.083C937.171,-104.141 949.195,-92.3354 958.91,-82.7973"/>
<polygon fill="midnightblue" stroke="midnightblue" points="961.403,-85.2545 966.087,-75.7511 956.499,-80.2595 961.403,-85.2545"/>
</g>
<!-- Node14 -->
<g id="node15" class="node"><title>Node14</title>
<polygon fill="white" stroke="#bfbfbf" points="809,-56.5 809,-75.5 861,-75.5 861,-56.5 809,-56.5"/>
<text text-anchor="middle" x="835" y="-63.5" font-family="Helvetica,sans-Serif" font-size="10.00">iterator</text>
</g>
<!-- Node10&#45;&gt;Node14 -->
<g id="edge19" class="edge"><title>Node10&#45;&gt;Node14</title>
<path fill="none" stroke="midnightblue" d="M906.343,-112.324C893.084,-103.9 872.732,-90.9709 857.154,-81.0741"/>
<polygon fill="midnightblue" stroke="midnightblue" points="858.94,-78.0626 848.623,-75.6545 855.187,-83.9711 858.94,-78.0626"/>
</g>
<!-- Node15 -->
<g id="node16" class="node"><title>Node15</title>
<polygon fill="white" stroke="#bfbfbf" points="0,-0.5 0,-19.5 68,-19.5 68,-0.5 0,-0.5"/>
<text text-anchor="middle" x="34" y="-7.5" font-family="Helvetica,sans-Serif" font-size="10.00">type_traits</text>
</g>
<!-- Node10&#45;&gt;Node15 -->
<g id="edge20" class="edge"><title>Node10&#45;&gt;Node15</title>
<path fill="none" stroke="midnightblue" d="M884.188,-113.551C881.086,-112.993 877.991,-112.467 875,-112 733.59,-89.9459 697.185,-92.3267 555,-76 345.716,-51.9685 289.798,-54.3107 78.0888,-20.0559"/>
<polygon fill="midnightblue" stroke="midnightblue" points="78.648,-16.6009 68.2158,-18.4503 77.5243,-23.5101 78.648,-16.6009"/>
</g>
<!-- Node16 -->
<g id="node17" class="node"><title>Node16</title>
<g id="a_node17"><a xlink:href="compat_8h.html" target="_top" xlink:title="compat.h">
<polygon fill="white" stroke="black" points="564,-56.5 564,-75.5 626,-75.5 626,-56.5 564,-56.5"/>
<text text-anchor="middle" x="595" y="-63.5" font-family="Helvetica,sans-Serif" font-size="10.00">compat.h</text>
</a>
</g>
</g>
<!-- Node10&#45;&gt;Node16 -->
<g id="edge21" class="edge"><title>Node10&#45;&gt;Node16</title>
<path fill="none" stroke="midnightblue" d="M884.162,-113.705C881.066,-113.113 877.98,-112.537 875,-112 790.333,-96.7354 690.795,-81.3435 636.134,-73.1099"/>
<polygon fill="midnightblue" stroke="midnightblue" points="636.55,-69.6331 626.141,-71.6091 635.51,-76.5555 636.55,-69.6331"/>
</g>
<!-- Node16&#45;&gt;Node15 -->
<g id="edge22" class="edge"><title>Node16&#45;&gt;Node15</title>
<path fill="none" stroke="midnightblue" d="M563.905,-63.5985C484.612,-59.7489 268.301,-47.5176 78.3702,-20.0336"/>
<polygon fill="midnightblue" stroke="midnightblue" points="78.6031,-16.5304 68.2013,-18.5436 77.5882,-23.4565 78.6031,-16.5304"/>
</g>
<!-- Node17 -->
<g id="node18" class="node"><title>Node17</title>
<polygon fill="white" stroke="#bfbfbf" points="966,-0.5 966,-19.5 1012,-19.5 1012,-0.5 966,-0.5"/>
<text text-anchor="middle" x="989" y="-7.5" font-family="Helvetica,sans-Serif" font-size="10.00">fcntl.h</text>
</g>
<!-- Node16&#45;&gt;Node17 -->
<g id="edge23" class="edge"><title>Node16&#45;&gt;Node17</title>
<path fill="none" stroke="midnightblue" d="M626.411,-58.3681C630.959,-57.5098 635.592,-56.6906 640,-56 776.513,-34.6114 815.449,-46.1274 955.828,-19.7186"/>
<polygon fill="midnightblue" stroke="midnightblue" points="956.503,-23.1531 965.668,-17.8373 955.188,-16.2776 956.503,-23.1531"/>
</g>
<!-- Node18 -->
<g id="node19" class="node"><title>Node18</title>
<polygon fill="white" stroke="#bfbfbf" points="1030,-0.5 1030,-19.5 1106,-19.5 1106,-0.5 1030,-0.5"/>
<text text-anchor="middle" x="1068" y="-7.5" font-family="Helvetica,sans-Serif" font-size="10.00">sys/mman.h</text>
</g>
<!-- Node16&#45;&gt;Node18 -->
<g id="edge24" class="edge"><title>Node16&#45;&gt;Node18</title>
<path fill="none" stroke="midnightblue" d="M626.399,-58.2905C630.949,-57.4435 635.586,-56.6482 640,-56 805.078,-31.7592 850.884,-43.5501 1019.85,-20.0332"/>
<polygon fill="midnightblue" stroke="midnightblue" points="1020.42,-23.4876 1029.83,-18.6232 1019.44,-16.5564 1020.42,-23.4876"/>
</g>
<!-- Node19 -->
<g id="node20" class="node"><title>Node19</title>
<polygon fill="white" stroke="#bfbfbf" points="1124.5,-0.5 1124.5,-19.5 1197.5,-19.5 1197.5,-0.5 1124.5,-0.5"/>
<text text-anchor="middle" x="1161" y="-7.5" font-family="Helvetica,sans-Serif" font-size="10.00">sys/select.h</text>
</g>
<!-- Node16&#45;&gt;Node19 -->
<g id="edge25" class="edge"><title>Node16&#45;&gt;Node19</title>
<path fill="none" stroke="midnightblue" d="M626.389,-58.2154C630.94,-57.3794 635.58,-56.6072 640,-56 846.469,-27.6363 903.423,-47.7251 1114.25,-19.9229"/>
<polygon fill="midnightblue" stroke="midnightblue" points="1114.96,-23.3591 1124.41,-18.5624 1114.03,-16.4211 1114.96,-23.3591"/>
</g>
<!-- Node20 -->
<g id="node21" class="node"><title>Node20</title>
<polygon fill="white" stroke="#bfbfbf" points="86,-0.5 86,-19.5 162,-19.5 162,-0.5 86,-0.5"/>
<text text-anchor="middle" x="124" y="-7.5" font-family="Helvetica,sans-Serif" font-size="10.00">sys/socket.h</text>
</g>
<!-- Node16&#45;&gt;Node20 -->
<g id="edge26" class="edge"><title>Node16&#45;&gt;Node20</title>
<path fill="none" stroke="midnightblue" d="M563.768,-62.5838C494.928,-57.066 324.78,-42.3757 172.198,-20.0665"/>
<polygon fill="midnightblue" stroke="midnightblue" points="172.578,-16.5849 162.174,-18.5861 171.555,-23.5097 172.578,-16.5849"/>
</g>
<!-- Node21 -->
<g id="node22" class="node"><title>Node21</title>
<polygon fill="white" stroke="#bfbfbf" points="180.5,-0.5 180.5,-19.5 251.5,-19.5 251.5,-0.5 180.5,-0.5"/>
<text text-anchor="middle" x="216" y="-7.5" font-family="Helvetica,sans-Serif" font-size="10.00">sys/types.h</text>
</g>
<!-- Node16&#45;&gt;Node21 -->
<g id="edge27" class="edge"><title>Node16&#45;&gt;Node21</title>
<path fill="none" stroke="midnightblue" d="M563.949,-61.5466C506.296,-54.9801 378.614,-39.7144 261.365,-20.1394"/>
<polygon fill="midnightblue" stroke="midnightblue" points="261.945,-16.688 251.503,-18.4784 260.782,-23.5908 261.945,-16.688"/>
</g>
<!-- Node22 -->
<g id="node23" class="node"><title>Node22</title>
<polygon fill="white" stroke="#bfbfbf" points="269.5,-0.5 269.5,-19.5 318.5,-19.5 318.5,-0.5 269.5,-0.5"/>
<text text-anchor="middle" x="294" y="-7.5" font-family="Helvetica,sans-Serif" font-size="10.00">net/if.h</text>
</g>
<!-- Node16&#45;&gt;Node22 -->
<g id="edge28" class="edge"><title>Node16&#45;&gt;Node22</title>
<path fill="none" stroke="midnightblue" d="M563.856,-60.8019C515.456,-54.055 419.102,-39.7355 328.661,-20.2047"/>
<polygon fill="midnightblue" stroke="midnightblue" points="329.317,-16.7657 318.8,-18.0491 327.822,-23.6042 329.317,-16.7657"/>
</g>
<!-- Node23 -->
<g id="node24" class="node"><title>Node23</title>
<polygon fill="white" stroke="#bfbfbf" points="336.5,-0.5 336.5,-19.5 407.5,-19.5 407.5,-0.5 336.5,-0.5"/>
<text text-anchor="middle" x="372" y="-7.5" font-family="Helvetica,sans-Serif" font-size="10.00">netinet/in.h</text>
</g>
<!-- Node16&#45;&gt;Node23 -->
<g id="edge29" class="edge"><title>Node16&#45;&gt;Node23</title>
<path fill="none" stroke="midnightblue" d="M563.993,-57.4915C525.799,-48.2429 460.624,-32.4606 416.944,-21.8833"/>
<polygon fill="midnightblue" stroke="midnightblue" points="417.693,-18.4637 407.15,-19.5118 416.046,-25.267 417.693,-18.4637"/>
</g>
<!-- Node24 -->
<g id="node25" class="node"><title>Node24</title>
<polygon fill="white" stroke="#bfbfbf" points="425.5,-0.5 425.5,-19.5 502.5,-19.5 502.5,-0.5 425.5,-0.5"/>
<text text-anchor="middle" x="464" y="-7.5" font-family="Helvetica,sans-Serif" font-size="10.00">netinet/tcp.h</text>
</g>
<!-- Node16&#45;&gt;Node24 -->
<g id="edge30" class="edge"><title>Node16&#45;&gt;Node24</title>
<path fill="none" stroke="midnightblue" d="M574.243,-56.4435C552.684,-47.5566 518.737,-33.5632 494.206,-23.4514"/>
<polygon fill="midnightblue" stroke="midnightblue" points="495.239,-20.0917 484.66,-19.5164 492.572,-26.5634 495.239,-20.0917"/>
</g>
<!-- Node25 -->
<g id="node26" class="node"><title>Node25</title>
<polygon fill="white" stroke="#bfbfbf" points="521,-0.5 521,-19.5 589,-19.5 589,-0.5 521,-0.5"/>
<text text-anchor="middle" x="555" y="-7.5" font-family="Helvetica,sans-Serif" font-size="10.00">arpa/inet.h</text>
</g>
<!-- Node16&#45;&gt;Node25 -->
<g id="edge31" class="edge"><title>Node16&#45;&gt;Node25</title>
<path fill="none" stroke="midnightblue" d="M588.395,-56.083C582.745,-48.4554 574.455,-37.2645 567.549,-27.9408"/>
<polygon fill="midnightblue" stroke="midnightblue" points="570.247,-25.7034 561.482,-19.7511 564.622,-29.87 570.247,-25.7034"/>
</g>
<!-- Node26 -->
<g id="node27" class="node"><title>Node26</title>
<polygon fill="white" stroke="#bfbfbf" points="607,-0.5 607,-19.5 665,-19.5 665,-0.5 607,-0.5"/>
<text text-anchor="middle" x="636" y="-7.5" font-family="Helvetica,sans-Serif" font-size="10.00">ifaddrs.h</text>
</g>
<!-- Node16&#45;&gt;Node26 -->
<g id="edge32" class="edge"><title>Node16&#45;&gt;Node26</title>
<path fill="none" stroke="midnightblue" d="M601.77,-56.083C607.562,-48.4554 616.058,-37.2645 623.138,-27.9408"/>
<polygon fill="midnightblue" stroke="midnightblue" points="626.096,-29.8321 629.356,-19.7511 620.521,-25.5991 626.096,-29.8321"/>
</g>
<!-- Node27 -->
<g id="node28" class="node"><title>Node27</title>
<polygon fill="white" stroke="#bfbfbf" points="683.5,-0.5 683.5,-19.5 734.5,-19.5 734.5,-0.5 683.5,-0.5"/>
<text text-anchor="middle" x="709" y="-7.5" font-family="Helvetica,sans-Serif" font-size="10.00">limits.h</text>
</g>
<!-- Node16&#45;&gt;Node27 -->
<g id="edge33" class="edge"><title>Node16&#45;&gt;Node27</title>
<path fill="none" stroke="midnightblue" d="M613.064,-56.4435C631.575,-47.6751 660.581,-33.9355 681.855,-23.8579"/>
<polygon fill="midnightblue" stroke="midnightblue" points="683.482,-26.9604 691.021,-19.5164 680.485,-20.6343 683.482,-26.9604"/>
</g>
<!-- Node28 -->
<g id="node29" class="node"><title>Node28</title>
<polygon fill="white" stroke="#bfbfbf" points="752.5,-0.5 752.5,-19.5 805.5,-19.5 805.5,-0.5 752.5,-0.5"/>
<text text-anchor="middle" x="779" y="-7.5" font-family="Helvetica,sans-Serif" font-size="10.00">netdb.h</text>
</g>
<!-- Node16&#45;&gt;Node28 -->
<g id="edge34" class="edge"><title>Node16&#45;&gt;Node28</title>
<path fill="none" stroke="midnightblue" d="M624.155,-56.4435C656.251,-47.0241 707.895,-31.8679 742.618,-21.6774"/>
<polygon fill="midnightblue" stroke="midnightblue" points="743.761,-24.9895 752.371,-18.8151 741.79,-18.2728 743.761,-24.9895"/>
</g>
<!-- Node29 -->
<g id="node30" class="node"><title>Node29</title>
<polygon fill="white" stroke="#bfbfbf" points="823.5,-0.5 823.5,-19.5 878.5,-19.5 878.5,-0.5 823.5,-0.5"/>
<text text-anchor="middle" x="851" y="-7.5" font-family="Helvetica,sans-Serif" font-size="10.00">unistd.h</text>
</g>
<!-- Node16&#45;&gt;Node29 -->
<g id="edge35" class="edge"><title>Node16&#45;&gt;Node29</title>
<path fill="none" stroke="midnightblue" d="M626.022,-58.7691C673.997,-49.1104 764.919,-30.7109 813.232,-20.094"/>
<polygon fill="midnightblue" stroke="midnightblue" points="814.143,-23.4769 823.145,-17.8892 812.623,-16.6439 814.143,-23.4769"/>
</g>
<!-- Node30 -->
<g id="node31" class="node"><title>Node30</title>
<polygon fill="white" stroke="#bfbfbf" points="896.5,-0.5 896.5,-19.5 947.5,-19.5 947.5,-0.5 896.5,-0.5"/>
<text text-anchor="middle" x="922" y="-7.5" font-family="Helvetica,sans-Serif" font-size="10.00">errno.h</text>
</g>
<!-- Node16&#45;&gt;Node30 -->
<g id="edge36" class="edge"><title>Node16&#45;&gt;Node30</title>
<path fill="none" stroke="midnightblue" d="M626.432,-58.4943C630.977,-57.6174 635.603,-56.7595 640,-56 746.223,-37.6499 776.532,-41.5963 886.625,-19.8704"/>
<polygon fill="midnightblue" stroke="midnightblue" points="887.339,-23.2971 896.458,-17.9042 885.966,-16.4329 887.339,-23.2971"/>
</g>
<!-- Node31&#45;&gt;Node4 -->
<g id="edge47" class="edge"><title>Node31&#45;&gt;Node4</title>
<path fill="none" stroke="midnightblue" d="M1340.5,-174.611C1399.87,-169.691 1522.86,-156.758 1557,-132 1588.07,-109.469 1572.95,-85.0803 1598,-56 1608.43,-43.8927 1622.65,-33.0523 1634.62,-25.0464"/>
<polygon fill="midnightblue" stroke="midnightblue" points="1636.73,-27.8546 1643.25,-19.5028 1632.94,-21.9664 1636.73,-27.8546"/>
</g>
<!-- Node31&#45;&gt;Node7 -->
<g id="edge49" class="edge"><title>Node31&#45;&gt;Node7</title>
<path fill="none" stroke="midnightblue" d="M1275.41,-170.747C1219.18,-159.834 1109.32,-137.907 1103,-132 1090.39,-120.222 1085.99,-100.585 1084.54,-85.9711"/>
<polygon fill="midnightblue" stroke="midnightblue" points="1088.01,-85.341 1083.9,-75.574 1081.02,-85.7696 1088.01,-85.341"/>
</g>
<!-- Node31&#45;&gt;Node8 -->
<g id="edge38" class="edge"><title>Node31&#45;&gt;Node8</title>
<path fill="none" stroke="midnightblue" d="M1340.84,-173.622C1427.48,-164.711 1663.16,-140.469 1773.95,-129.073"/>
<polygon fill="midnightblue" stroke="midnightblue" points="1774.37,-132.549 1783.96,-128.045 1773.65,-125.586 1774.37,-132.549"/>
</g>
<!-- Node31&#45;&gt;Node10 -->
<g id="edge54" class="edge"><title>Node31&#45;&gt;Node10</title>
<path fill="none" stroke="midnightblue" d="M1275.25,-172.443C1206.1,-162.818 1045.04,-140.403 965.754,-129.368"/>
<polygon fill="midnightblue" stroke="midnightblue" points="965.972,-125.865 955.585,-127.953 965.007,-132.798 965.972,-125.865"/>
</g>
<!-- Node31&#45;&gt;Node11 -->
<g id="edge40" class="edge"><title>Node31&#45;&gt;Node11</title>
<path fill="none" stroke="midnightblue" d="M1340.68,-174.991C1405.79,-170.477 1548.93,-157.847 1590,-132 1607.55,-120.951 1620.07,-100.296 1627.37,-85.2257"/>
<polygon fill="midnightblue" stroke="midnightblue" points="1630.67,-86.4262 1631.59,-75.8718 1624.29,-83.5458 1630.67,-86.4262"/>
</g>
<!-- Node32 -->
<g id="node33" class="node"><title>Node32</title>
<polygon fill="white" stroke="#bfbfbf" points="1388,-112.5 1388,-131.5 1450,-131.5 1450,-112.5 1388,-112.5"/>
<text text-anchor="middle" x="1419" y="-119.5" font-family="Helvetica,sans-Serif" font-size="10.00">algorithm</text>
</g>
<!-- Node31&#45;&gt;Node32 -->
<g id="edge39" class="edge"><title>Node31&#45;&gt;Node32</title>
<path fill="none" stroke="midnightblue" d="M1325.83,-168.324C1343.72,-159.625 1371.48,-146.12 1392.05,-136.113"/>
<polygon fill="midnightblue" stroke="midnightblue" points="1393.75,-139.177 1401.21,-131.655 1390.69,-132.882 1393.75,-139.177"/>
</g>
<!-- Node33 -->
<g id="node34" class="node"><title>Node33</title>
<polygon fill="white" stroke="#bfbfbf" points="1468,-112.5 1468,-131.5 1498,-131.5 1498,-112.5 1468,-112.5"/>
<text text-anchor="middle" x="1483" y="-119.5" font-family="Helvetica,sans-Serif" font-size="10.00">ios</text>
</g>
<!-- Node31&#45;&gt;Node33 -->
<g id="edge41" class="edge"><title>Node31&#45;&gt;Node33</title>
<path fill="none" stroke="midnightblue" d="M1338.85,-168.482C1367.53,-160.414 1411.62,-147.638 1458.17,-132.119"/>
<polygon fill="midnightblue" stroke="midnightblue" points="1459.46,-135.378 1467.82,-128.873 1457.23,-128.743 1459.46,-135.378"/>
</g>
<!-- Node31&#45;&gt;Node34 -->
<g id="edge42" class="edge"><title>Node31&#45;&gt;Node34</title>
<path fill="none" stroke="midnightblue" d="M1275.23,-174.398C1191.19,-167.601 968.673,-148.795 876.037,-131.795"/>
<polygon fill="midnightblue" stroke="midnightblue" points="876.663,-128.351 866.181,-129.891 875.335,-135.224 876.663,-128.351"/>
</g>
<!-- Node31&#45;&gt;Node35 -->
<g id="edge43" class="edge"><title>Node31&#45;&gt;Node35</title>
<path fill="none" stroke="midnightblue" d="M1275.34,-174.446C1167.5,-165.995 826.264,-139.137 760.225,-130.925"/>
<polygon fill="midnightblue" stroke="midnightblue" points="760.457,-127.419 750.042,-129.363 759.396,-134.339 760.457,-127.419"/>
</g>
<!-- Node31&#45;&gt;Node36 -->
<g id="edge44" class="edge"><title>Node31&#45;&gt;Node36</title>
<path fill="none" stroke="midnightblue" d="M1275.47,-174.448C1178.03,-166.752 891.184,-143.673 816.273,-131.601"/>
<polygon fill="midnightblue" stroke="midnightblue" points="816.596,-128.103 806.132,-129.762 815.347,-134.99 816.596,-128.103"/>
</g>
<!-- Node31&#45;&gt;Node37 -->
<g id="edge45" class="edge"><title>Node31&#45;&gt;Node37</title>
<path fill="none" stroke="midnightblue" d="M1340.55,-174.507C1429.01,-167.73 1681.25,-148.375 1891,-132 1916.12,-130.039 1944.35,-127.811 1966.43,-126.062"/>
<polygon fill="midnightblue" stroke="midnightblue" points="1966.73,-129.549 1976.42,-125.27 1966.18,-122.571 1966.73,-129.549"/>
</g>
<!-- Node38 -->
<g id="node39" class="node"><title>Node38</title>
<polygon fill="white" stroke="#bfbfbf" points="1516,-112.5 1516,-131.5 1548,-131.5 1548,-112.5 1516,-112.5"/>
<text text-anchor="middle" x="1532" y="-119.5" font-family="Helvetica,sans-Serif" font-size="10.00">set</text>
</g>
<!-- Node31&#45;&gt;Node38 -->
<g id="edge46" class="edge"><title>Node31&#45;&gt;Node38</title>
<path fill="none" stroke="midnightblue" d="M1340.71,-170.889C1378.47,-163.555 1442.55,-150.252 1506.17,-131.961"/>
<polygon fill="midnightblue" stroke="midnightblue" points="1507.34,-135.265 1515.96,-129.104 1505.38,-128.545 1507.34,-135.265"/>
</g>
<!-- Node31&#45;&gt;Node39 -->
<g id="edge48" class="edge"><title>Node31&#45;&gt;Node39</title>
<path fill="none" stroke="midnightblue" d="M1275.39,-170.742C1270.56,-169.82 1265.65,-168.884 1261,-168 1176.13,-151.877 1154.38,-150.484 1070,-132 1068.73,-131.721 1067.43,-131.43 1066.12,-131.13"/>
<polygon fill="midnightblue" stroke="midnightblue" points="1066.58,-127.641 1056.04,-128.727 1064.95,-134.45 1066.58,-127.641"/>
</g>
<!-- Node40 -->
<g id="node41" class="node"><title>Node40</title>
<polygon fill="white" stroke="#bfbfbf" points="1112.5,-112.5 1112.5,-131.5 1205.5,-131.5 1205.5,-112.5 1112.5,-112.5"/>
<text text-anchor="middle" x="1159" y="-119.5" font-family="Helvetica,sans-Serif" font-size="10.00">unordered_map</text>
</g>
<!-- Node31&#45;&gt;Node40 -->
<g id="edge50" class="edge"><title>Node31&#45;&gt;Node40</title>
<path fill="none" stroke="midnightblue" d="M1284.39,-168.444C1259.54,-159.438 1220.23,-145.189 1192.25,-135.049"/>
<polygon fill="midnightblue" stroke="midnightblue" points="1193.09,-131.633 1182.5,-131.516 1190.71,-138.214 1193.09,-131.633"/>
</g>
<!-- Node41 -->
<g id="node42" class="node"><title>Node41</title>
<polygon fill="white" stroke="#bfbfbf" points="1224,-112.5 1224,-131.5 1310,-131.5 1310,-112.5 1224,-112.5"/>
<text text-anchor="middle" x="1267" y="-119.5" font-family="Helvetica,sans-Serif" font-size="10.00">unordered_set</text>
</g>
<!-- Node31&#45;&gt;Node41 -->
<g id="edge51" class="edge"><title>Node31&#45;&gt;Node41</title>
<path fill="none" stroke="midnightblue" d="M1301.23,-168.083C1295.44,-160.455 1286.94,-149.264 1279.86,-139.941"/>
<polygon fill="midnightblue" stroke="midnightblue" points="1282.48,-137.599 1273.64,-131.751 1276.9,-141.832 1282.48,-137.599"/>
</g>
<!-- Node42 -->
<g id="node43" class="node"><title>Node42</title>
<polygon fill="white" stroke="#bfbfbf" points="1328,-112.5 1328,-131.5 1370,-131.5 1370,-112.5 1328,-112.5"/>
<text text-anchor="middle" x="1349" y="-119.5" font-family="Helvetica,sans-Serif" font-size="10.00">utility</text>
</g>
<!-- Node31&#45;&gt;Node42 -->
<g id="edge52" class="edge"><title>Node31&#45;&gt;Node42</title>
<path fill="none" stroke="midnightblue" d="M1314.77,-168.083C1320.56,-160.455 1329.06,-149.264 1336.14,-139.941"/>
<polygon fill="midnightblue" stroke="midnightblue" points="1339.1,-141.832 1342.36,-131.751 1333.52,-137.599 1339.1,-141.832"/>
</g>
<!-- Node31&#45;&gt;Node43 -->
<g id="edge53" class="edge"><title>Node31&#45;&gt;Node43</title>
<path fill="none" stroke="midnightblue" d="M1340.74,-172.535C1414.75,-162.444 1594.31,-137.958 1669.74,-127.672"/>
<polygon fill="midnightblue" stroke="midnightblue" points="1670.65,-131.08 1680.08,-126.261 1669.7,-124.145 1670.65,-131.08"/>
</g>
<!-- Node46&#45;&gt;Node4 -->
<g id="edge68" class="edge"><title>Node46&#45;&gt;Node4</title>
<path fill="none" stroke="midnightblue" d="M1825.2,-230.122C1904.17,-221.605 2101.64,-191.924 2043,-112 2001.41,-55.3169 1782.7,-24.9331 1694.71,-14.8517"/>
<polygon fill="midnightblue" stroke="midnightblue" points="1694.98,-11.3597 1684.65,-13.7225 1694.2,-18.316 1694.98,-11.3597"/>
</g>
<!-- Node46&#45;&gt;Node6 -->
<g id="edge71" class="edge"><title>Node46&#45;&gt;Node6</title>
<path fill="none" stroke="midnightblue" d="M1800.61,-224.083C1806.26,-216.455 1814.54,-205.264 1821.45,-195.941"/>
<polygon fill="midnightblue" stroke="midnightblue" points="1824.38,-197.87 1827.52,-187.751 1818.75,-193.703 1824.38,-197.87"/>
</g>
<!-- Node46&#45;&gt;Node11 -->
<g id="edge65" class="edge"><title>Node46&#45;&gt;Node11</title>
<path fill="none" stroke="midnightblue" d="M1825.16,-228.143C1848.5,-222.695 1878.91,-211.341 1894,-188 1902.85,-174.318 1911.33,-134.755 1891,-112 1858.72,-75.876 1723.56,-85.1962 1676,-76 1675.09,-75.8245 1674.17,-75.6442 1673.25,-75.4602"/>
<polygon fill="midnightblue" stroke="midnightblue" points="1673.69,-71.9785 1663.19,-73.3834 1672.28,-78.8338 1673.69,-71.9785"/>
</g>
<!-- Node46&#45;&gt;Node39 -->
<g id="edge69" class="edge"><title>Node46&#45;&gt;Node39</title>
<path fill="none" stroke="midnightblue" d="M1762.92,-233.189C1680.74,-233.08 1451.3,-228.834 1266,-188 1240.6,-182.403 1235.86,-175.658 1211,-168 1160.94,-152.578 1101.79,-138.322 1066.12,-130.148"/>
<polygon fill="midnightblue" stroke="midnightblue" points="1066.8,-126.714 1056.27,-127.91 1065.25,-133.54 1066.8,-126.714"/>
</g>
<!-- Node46&#45;&gt;Node43 -->
<g id="edge70" class="edge"><title>Node46&#45;&gt;Node43</title>
<path fill="none" stroke="midnightblue" d="M1786.94,-224.368C1771.95,-206.055 1736.77,-163.049 1717.39,-139.362"/>
<polygon fill="midnightblue" stroke="midnightblue" points="1720.07,-137.115 1711.03,-131.591 1714.65,-141.547 1720.07,-137.115"/>
</g>
<!-- Node46&#45;&gt;Node45 -->
<g id="edge67" class="edge"><title>Node46&#45;&gt;Node45</title>
<path fill="none" stroke="midnightblue" d="M1778.09,-224.324C1762.36,-215.743 1738.06,-202.486 1719.79,-192.522"/>
<polygon fill="midnightblue" stroke="midnightblue" points="1721.32,-189.37 1710.87,-187.655 1717.97,-195.516 1721.32,-189.37"/>
</g>
<!-- Node47 -->
<g id="node48" class="node"><title>Node47</title>
<polygon fill="white" stroke="#bfbfbf" points="1944.5,-168.5 1944.5,-187.5 1993.5,-187.5 1993.5,-168.5 1944.5,-168.5"/>
<text text-anchor="middle" x="1969" y="-175.5" font-family="Helvetica,sans-Serif" font-size="10.00">cstring</text>
</g>
<!-- Node46&#45;&gt;Node47 -->
<g id="edge66" class="edge"><title>Node46&#45;&gt;Node47</title>
<path fill="none" stroke="midnightblue" d="M1821.73,-224.444C1852.3,-215.011 1901.51,-199.824 1934.54,-189.634"/>
<polygon fill="midnightblue" stroke="midnightblue" points="1935.71,-192.936 1944.23,-186.643 1933.64,-186.248 1935.71,-192.936"/>
</g>
</g>
</svg>
        <g id="navigator" transform="translate(0 0)" fill="#404254">
                <rect fill="#f2f5e9" fill-opacity="0.5" stroke="#606060" stroke-width=".5" x="0" y="0" width="60" height="60"/>
                <use id="zoomplus" xlink:href="#zoomPlus" x="17" y="9" onmousedown="handleZoom(evt,'in')"/>
                <use id="zoomminus" xlink:href="#zoomMin" x="42" y="9" onmousedown="handleZoom(evt,'out')"/>
                <use id="reset" xlink:href="#resetDef" x="30" y="36" onmousedown="handleReset()"/>
                <g id="arrowUp" xlink:href="#dirArrow" transform="translate(30 24)" onmousedown="handlePan(0,-1)">
                  <use xlink:href="#rim" fill="#404040">
                        <set attributeName="fill" to="#808080" begin="arrowUp.mouseover" end="arrowUp.mouseout"/>
                  </use>
                  <path fill="none" stroke="white" stroke-width="1.5" d="M0,-3.0v7 M-2.5,-0.5L0,-3.0L2.5,-0.5"/>
                </g>
                <g id="arrowRight" xlink:href="#dirArrow" transform="rotate(90) translate(36 -43)" onmousedown="handlePan(1,0)">
                  <use xlink:href="#rim" fill="#404040">
                        <set attributeName="fill" to="#808080" begin="arrowRight.mouseover" end="arrowRight.mouseout"/>
                  </use>
                  <path fill="none" stroke="white" stroke-width="1.5" d="M0,-3.0v7 M-2.5,-0.5L0,-3.0L2.5,-0.5"/>
                </g>
                <g id="arrowDown" xlink:href="#dirArrow" transform="rotate(180) translate(-30 -48)" onmousedown="handlePan(0,1)">
                  <use xlink:href="#rim" fill="#404040">
                        <set attributeName="fill" to="#808080" begin="arrowDown.mouseover" end="arrowDown.mouseout"/>
                  </use>
                  <path fill="none" stroke="white" stroke-width="1.5" d="M0,-3.0v7 M-2.5,-0.5L0,-3.0L2.5,-0.5"/>
                </g>
                <g id="arrowLeft" xlink:href="#dirArrow" transform="rotate(270) translate(-36 17)" onmousedown="handlePan(-1,0)">
                  <use xlink:href="#rim" fill="#404040">
                        <set attributeName="fill" to="#808080" begin="arrowLeft.mouseover" end="arrowLeft.mouseout"/>
                  </use>
                  <path fill="none" stroke="white" stroke-width="1.5" d="M0,-3.0v7 M-2.5,-0.5L0,-3.0L2.5,-0.5"/>
                </g>
        </g>
        <svg viewBox="0 0 15 15" width="100%" height="30px" preserveAspectRatio="xMaxYMin meet">
         <g id="arrow_out" transform="scale(0.3 0.3)">
          <a xlink:href="zmqnotificationinterface_8h__incl_org.svg" target="_base">
           <rect id="button" ry="5" rx="5" y="6" x="6" height="38" width="38"
                fill="#f2f5e9" fill-opacity="0.5" stroke="#606060" stroke-width="1.0"/>
           <path id="arrow"
             d="M 11.500037,31.436501 C 11.940474,20.09759 22.043105,11.32322 32.158766,21.979434 L 37.068811,17.246167 C 37.068811,17.246167 37.088388,32 37.088388,32 L 22.160133,31.978069 C 22.160133,31.978069 26.997745,27.140456 26.997745,27.140456 C 18.528582,18.264221 13.291696,25.230495 11.500037,31.436501 z"
             style="fill:#404040;"/>
          </a>
         </g>
        </svg>
</svg>
