<?xml version="1.0" encoding="UTF-8" standalone="no"?>
<!DOCTYPE svg PUBLIC "-//W3C//DTD SVG 1.1//EN"
 "http://www.w3.org/Graphics/SVG/1.1/DTD/svg11.dtd">
<!-- Generated by graphviz version 2.38.0 (20140413.2041)
 -->
<!-- Title: CBlockPolicyEstimator::processBlock Pages: 1 -->
<!--zoomable 294 -->
<svg id="main" version="1.1" xmlns="http://www.w3.org/2000/svg" xmlns:xlink="http://www.w3.org/1999/xlink" xml:space="preserve" onload="init(evt)">
<style type="text/css"><![CDATA[
.edge:hover path { stroke: red; }
.edge:hover polygon { stroke: red; fill: red; }
]]></style>
<script type="text/javascript"><![CDATA[
var edges = document.getElementsByTagName('g');
if (edges && edges.length) {
  for (var i=0;i<edges.length;i++) {
    if (edges[i].id.substr(0,4)=='edge') {
      edges[i].setAttribute('class','edge');
    }
  }
}
]]></script>
        <defs>
                <circle id="rim" cx="0" cy="0" r="7"/>
                <circle id="rim2" cx="0" cy="0" r="3.5"/>
                <g id="zoomPlus">
                        <use xlink:href="#rim" fill="#404040">
                                <set attributeName="fill" to="#808080" begin="zoomplus.mouseover" end="zoomplus.mouseout"/>
                        </use>
                        <path d="M-4,0h8M0,-4v8" fill="none" stroke="white" stroke-width="1.5" pointer-events="none"/>
                </g>
                <g id="zoomMin">
                        <use xlink:href="#rim" fill="#404040">
                                <set attributeName="fill" to="#808080" begin="zoomminus.mouseover" end="zoomminus.mouseout"/>
                        </use>
                        <path d="M-4,0h8" fill="none" stroke="white" stroke-width="1.5" pointer-events="none"/>
                </g>
                <g id="dirArrow">
                        <path fill="none" stroke="white" stroke-width="1.5" d="M0,-3.0v7 M-2.5,-0.5L0,-3.0L2.5,-0.5"/>
                </g>
               <g id="resetDef">
                       <use xlink:href="#rim2" fill="#404040">
                               <set attributeName="fill" to="#808080" begin="reset.mouseover" end="reset.mouseout"/>
                       </use>
               </g>
        </defs>

<script type="text/javascript">
var viewWidth = 2290;
var viewHeight = 294;
var sectionId = 'dynsection-13';
</script>
<script xlink:href="../../svgpan.js"/>
<svg id="graph" class="graph">
<g id="viewport">
<title>CBlockPolicyEstimator::processBlock</title>
<polygon fill="white" stroke="none" points="-4,4 -4,-290 2286,-290 2286,4 -4,4"/>
<!-- Node301 -->
<g id="node1" class="node"><title>Node301</title>
<polygon fill="#bfbfbf" stroke="black" points="0,-147 0,-177 118,-177 118,-147 0,-147"/>
<text text-anchor="start" x="8" y="-165" font-family="Helvetica,sans-Serif" font-size="10.00">CBlockPolicyEstimator</text>
<text text-anchor="middle" x="59" y="-154" font-family="Helvetica,sans-Serif" font-size="10.00">::processBlock</text>
</g>
<!-- Node302 -->
<g id="node2" class="node"><title>Node302</title>
<g id="a_node2"><a xlink:href="../../db/d98/class_c_tx_mem_pool.html#aea14d073b24e31251465ac3c2279ee65" target="_top" xlink:title="Called when a block is connected. ">
<polygon fill="white" stroke="black" points="154,-152.5 154,-171.5 308,-171.5 308,-152.5 154,-152.5"/>
<text text-anchor="middle" x="231" y="-159.5" font-family="Helvetica,sans-Serif" font-size="10.00">CTxMemPool::removeForBlock</text>
</a>
</g>
</g>
<!-- Node301&#45;&gt;Node302 -->
<g id="edge1" class="edge"><title>Node301&#45;&gt;Node302</title>
<path fill="none" stroke="midnightblue" d="M128.2,-162C136.652,-162 145.335,-162 153.896,-162"/>
<polygon fill="midnightblue" stroke="midnightblue" points="128.029,-158.5 118.029,-162 128.029,-165.5 128.029,-158.5"/>
</g>
<!-- Node303 -->
<g id="node3" class="node"><title>Node303</title>
<g id="a_node3"><a xlink:href="../../dd/d7d/validation_8cpp.html#a9258465a729a68271780a9968e65819a" target="_top" xlink:title="Connect a new block to chainActive. ">
<polygon fill="white" stroke="black" points="344,-152.5 344,-171.5 411,-171.5 411,-152.5 344,-152.5"/>
<text text-anchor="middle" x="377.5" y="-159.5" font-family="Helvetica,sans-Serif" font-size="10.00">ConnectTip</text>
</a>
</g>
</g>
<!-- Node302&#45;&gt;Node303 -->
<g id="edge2" class="edge"><title>Node302&#45;&gt;Node303</title>
<path fill="none" stroke="midnightblue" d="M318.074,-162C327.22,-162 336.059,-162 343.974,-162"/>
<polygon fill="midnightblue" stroke="midnightblue" points="318.059,-158.5 308.058,-162 318.058,-165.5 318.059,-158.5"/>
</g>
<!-- Node304 -->
<g id="node4" class="node"><title>Node304</title>
<g id="a_node4"><a xlink:href="../../dd/d7d/validation_8cpp.html#a345d6616250288efacae87d05528fe8a" target="_top" xlink:title="Try to make some progress towards making pindexMostWork the active block. ">
<polygon fill="white" stroke="black" points="447,-152.5 447,-171.5 566,-171.5 566,-152.5 447,-152.5"/>
<text text-anchor="middle" x="506.5" y="-159.5" font-family="Helvetica,sans-Serif" font-size="10.00">ActivateBestChainStep</text>
</a>
</g>
</g>
<!-- Node303&#45;&gt;Node304 -->
<g id="edge3" class="edge"><title>Node303&#45;&gt;Node304</title>
<path fill="none" stroke="midnightblue" d="M421.266,-162C429.465,-162 438.181,-162 446.781,-162"/>
<polygon fill="midnightblue" stroke="midnightblue" points="421.206,-158.5 411.206,-162 421.206,-165.5 421.206,-158.5"/>
</g>
<!-- Node305 -->
<g id="node5" class="node"><title>Node305</title>
<g id="a_node5"><a xlink:href="../../db/d38/validation_8h.html#ab7be3f1b4119e8df383a4332ddbd344a" target="_top" xlink:title="Find the best known block, and make it the tip of the block chain. ">
<polygon fill="white" stroke="black" points="602,-152.5 602,-171.5 700,-171.5 700,-152.5 602,-152.5"/>
<text text-anchor="middle" x="651" y="-159.5" font-family="Helvetica,sans-Serif" font-size="10.00">ActivateBestChain</text>
</a>
</g>
</g>
<!-- Node304&#45;&gt;Node305 -->
<g id="edge4" class="edge"><title>Node304&#45;&gt;Node305</title>
<path fill="none" stroke="midnightblue" d="M576.327,-162C584.926,-162 593.573,-162 601.765,-162"/>
<polygon fill="midnightblue" stroke="midnightblue" points="576.283,-158.5 566.283,-162 576.283,-165.5 576.283,-158.5"/>
</g>
<!-- Node306 -->
<g id="node6" class="node"><title>Node306</title>
<g id="a_node6"><a xlink:href="../../db/d38/validation_8h.html#aaf2e19311fff6b9cd421a9a9d59f7ff1" target="_top" xlink:title="Initialize a new block tree database + block data on disk. ">
<polygon fill="white" stroke="black" points="753.5,-266.5 753.5,-285.5 832.5,-285.5 832.5,-266.5 753.5,-266.5"/>
<text text-anchor="middle" x="793" y="-273.5" font-family="Helvetica,sans-Serif" font-size="10.00">InitBlockIndex</text>
</a>
</g>
</g>
<!-- Node305&#45;&gt;Node306 -->
<g id="edge5" class="edge"><title>Node305&#45;&gt;Node306</title>
<path fill="none" stroke="midnightblue" d="M663.554,-179.994C678.063,-201.237 704.862,-236.289 736,-257 741.727,-260.809 748.293,-263.926 754.865,-266.452"/>
<polygon fill="midnightblue" stroke="midnightblue" points="666.398,-177.95 657.946,-171.561 660.57,-181.826 666.398,-177.95"/>
</g>
<!-- Node311 -->
<g id="node11" class="node"><title>Node311</title>
<g id="a_node11"><a xlink:href="../../d0/dc9/init_8cpp.html#a0189c34248cd89bbbe20d4d6045bd7c9" target="_top" xlink:title="ThreadImport">
<polygon fill="white" stroke="black" points="926.5,-228.5 926.5,-247.5 1000.5,-247.5 1000.5,-228.5 926.5,-228.5"/>
<text text-anchor="middle" x="963.5" y="-235.5" font-family="Helvetica,sans-Serif" font-size="10.00">ThreadImport</text>
</a>
</g>
</g>
<!-- Node305&#45;&gt;Node311 -->
<g id="edge45" class="edge"><title>Node305&#45;&gt;Node311</title>
<path fill="none" stroke="midnightblue" d="M701.041,-174.004C763.663,-189.331 870.566,-215.498 926.295,-229.138"/>
<polygon fill="midnightblue" stroke="midnightblue" points="701.556,-170.526 691.011,-171.548 699.892,-177.326 701.556,-170.526"/>
</g>
<!-- Node312 -->
<g id="node12" class="node"><title>Node312</title>
<g id="a_node12"><a xlink:href="../../d8/dc3/server_8h.html#a7e43030fb221e28db98accef3fc80232" target="_top" xlink:title="invalidateblock">
<polygon fill="white" stroke="black" points="752.5,-76.5 752.5,-95.5 833.5,-95.5 833.5,-76.5 752.5,-76.5"/>
<text text-anchor="middle" x="793" y="-83.5" font-family="Helvetica,sans-Serif" font-size="10.00">invalidateblock</text>
</a>
</g>
</g>
<!-- Node305&#45;&gt;Node312 -->
<g id="edge12" class="edge"><title>Node305&#45;&gt;Node312</title>
<path fill="none" stroke="midnightblue" d="M672.165,-146.027C688.613,-133.578 712.834,-116.525 736,-105 743.262,-101.387 751.374,-98.195 759.121,-95.5076"/>
<polygon fill="midnightblue" stroke="midnightblue" points="669.67,-143.531 663.883,-152.406 673.941,-149.077 669.67,-143.531"/>
</g>
<!-- Node313 -->
<g id="node13" class="node"><title>Node313</title>
<g id="a_node13"><a xlink:href="../../db/d38/validation_8h.html#a2233339a13d09038cf2e46f4d0144be4" target="_top" xlink:title="Import blocks from an external file. ">
<polygon fill="white" stroke="black" points="736,-228.5 736,-247.5 850,-247.5 850,-228.5 736,-228.5"/>
<text text-anchor="middle" x="793" y="-235.5" font-family="Helvetica,sans-Serif" font-size="10.00">LoadExternalBlockFile</text>
</a>
</g>
</g>
<!-- Node305&#45;&gt;Node313 -->
<g id="edge13" class="edge"><title>Node305&#45;&gt;Node313</title>
<path fill="none" stroke="midnightblue" d="M674.668,-177.319C691.273,-188.219 714.559,-202.849 736,-214 746.135,-219.271 757.685,-224.366 767.653,-228.496"/>
<polygon fill="midnightblue" stroke="midnightblue" points="676.453,-174.303 666.185,-171.693 672.584,-180.137 676.453,-174.303"/>
</g>
<!-- Node314 -->
<g id="node14" class="node"><title>Node314</title>
<g id="a_node14"><a xlink:href="../../db/d38/validation_8h.html#ac880446d7f8833dd498df914ccc816a9" target="_top" xlink:title="Process an incoming block. ">
<polygon fill="white" stroke="black" points="1182.5,-152.5 1182.5,-171.5 1280.5,-171.5 1280.5,-152.5 1182.5,-152.5"/>
<text text-anchor="middle" x="1231.5" y="-159.5" font-family="Helvetica,sans-Serif" font-size="10.00">ProcessNewBlock</text>
</a>
</g>
</g>
<!-- Node305&#45;&gt;Node314 -->
<g id="edge15" class="edge"><title>Node305&#45;&gt;Node314</title>
<path fill="none" stroke="midnightblue" d="M710.647,-162C825.203,-162 1076.71,-162 1182.31,-162"/>
<polygon fill="midnightblue" stroke="midnightblue" points="710.328,-158.5 700.328,-162 710.328,-165.5 710.328,-158.5"/>
</g>
<!-- Node329 -->
<g id="node29" class="node"><title>Node329</title>
<g id="a_node29"><a xlink:href="../../d8/dc3/server_8h.html#a29263a4d92c9f0c07c1dfb0a5fad681b" target="_top" xlink:title="reconsiderblock">
<polygon fill="white" stroke="black" points="750.5,-38.5 750.5,-57.5 835.5,-57.5 835.5,-38.5 750.5,-38.5"/>
<text text-anchor="middle" x="793" y="-45.5" font-family="Helvetica,sans-Serif" font-size="10.00">reconsiderblock</text>
</a>
</g>
</g>
<!-- Node305&#45;&gt;Node329 -->
<g id="edge34" class="edge"><title>Node305&#45;&gt;Node329</title>
<path fill="none" stroke="midnightblue" d="M663.554,-144.006C678.063,-122.763 704.862,-87.7108 736,-67 741.727,-63.1905 748.293,-60.0737 754.865,-57.5478"/>
<polygon fill="midnightblue" stroke="midnightblue" points="660.57,-142.174 657.946,-152.439 666.398,-146.05 660.57,-142.174"/>
</g>
<!-- Node330 -->
<g id="node30" class="node"><title>Node330</title>
<g id="a_node30"><a xlink:href="../../db/d38/validation_8h.html#a6b20cdba297d137a4d7a91691cc4457b" target="_top" xlink:title="ReprocessBlocks">
<polygon fill="white" stroke="black" points="746,-114.5 746,-133.5 840,-133.5 840,-114.5 746,-114.5"/>
<text text-anchor="middle" x="793" y="-121.5" font-family="Helvetica,sans-Serif" font-size="10.00">ReprocessBlocks</text>
</a>
</g>
</g>
<!-- Node305&#45;&gt;Node330 -->
<g id="edge35" class="edge"><title>Node305&#45;&gt;Node330</title>
<path fill="none" stroke="midnightblue" d="M697.118,-149.754C716.415,-144.516 738.612,-138.491 756.683,-133.586"/>
<polygon fill="midnightblue" stroke="midnightblue" points="696.062,-146.414 687.328,-152.411 697.896,-153.169 696.062,-146.414"/>
</g>
<!-- Node307 -->
<g id="node7" class="node"><title>Node307</title>
<g id="a_node7"><a xlink:href="../../d8/dc0/init_8h.html#a6f0784aa332573f949b0975205572b28" target="_top" xlink:title="Initialize Dash Core. ">
<polygon fill="white" stroke="black" points="1837.5,-171.5 1837.5,-190.5 1890.5,-190.5 1890.5,-171.5 1837.5,-171.5"/>
<text text-anchor="middle" x="1864" y="-178.5" font-family="Helvetica,sans-Serif" font-size="10.00">AppInit2</text>
</a>
</g>
</g>
<!-- Node306&#45;&gt;Node307 -->
<g id="edge6" class="edge"><title>Node306&#45;&gt;Node307</title>
<path fill="none" stroke="midnightblue" d="M842.96,-276C902.781,-276 1007.08,-276 1096.5,-276 1096.5,-276 1096.5,-276 1557.5,-276 1658.83,-276 1686.65,-267.936 1781,-231 1807.4,-220.667 1834.89,-202.009 1850.39,-190.639"/>
<polygon fill="midnightblue" stroke="midnightblue" points="842.679,-272.5 832.679,-276 842.679,-279.5 842.679,-272.5"/>
</g>
<!-- Node306&#45;&gt;Node311 -->
<g id="edge10" class="edge"><title>Node306&#45;&gt;Node311</title>
<path fill="none" stroke="midnightblue" d="M842.579,-265.045C869.291,-259.02 901.872,-251.673 926.328,-246.157"/>
<polygon fill="midnightblue" stroke="midnightblue" points="841.642,-261.668 832.657,-267.282 843.182,-268.496 841.642,-261.668"/>
</g>
<!-- Node308 -->
<g id="node8" class="node"><title>Node308</title>
<g id="a_node8"><a xlink:href="../../dd/de1/dashd_8cpp.html#ac59316b767e6984e1285f0531275286b" target="_top" xlink:title="AppInit">
<polygon fill="white" stroke="black" points="2126.5,-152.5 2126.5,-171.5 2173.5,-171.5 2173.5,-152.5 2126.5,-152.5"/>
<text text-anchor="middle" x="2150" y="-159.5" font-family="Helvetica,sans-Serif" font-size="10.00">AppInit</text>
</a>
</g>
</g>
<!-- Node307&#45;&gt;Node308 -->
<g id="edge7" class="edge"><title>Node307&#45;&gt;Node308</title>
<path fill="none" stroke="midnightblue" d="M1900.73,-178.609C1960.03,-174.642 2077.11,-166.809 2126.35,-163.516"/>
<polygon fill="midnightblue" stroke="midnightblue" points="1900.45,-175.121 1890.7,-179.28 1900.92,-182.105 1900.45,-175.121"/>
</g>
<!-- Node310 -->
<g id="node10" class="node"><title>Node310</title>
<g id="a_node10"><a xlink:href="../../d2/d76/class_bitcoin_core.html#af34ca069cda1d4362dcc109b4397fb62" target="_top" xlink:title="BitcoinCore::initialize">
<polygon fill="white" stroke="black" points="1947,-133.5 1947,-152.5 2056,-152.5 2056,-133.5 1947,-133.5"/>
<text text-anchor="middle" x="2001.5" y="-140.5" font-family="Helvetica,sans-Serif" font-size="10.00">BitcoinCore::initialize</text>
</a>
</g>
</g>
<!-- Node307&#45;&gt;Node310 -->
<g id="edge9" class="edge"><title>Node307&#45;&gt;Node310</title>
<path fill="none" stroke="midnightblue" d="M1900.66,-170.999C1921.05,-165.28 1946.49,-158.146 1966.59,-152.511"/>
<polygon fill="midnightblue" stroke="midnightblue" points="1899.49,-167.693 1890.81,-173.763 1901.38,-174.433 1899.49,-167.693"/>
</g>
<!-- Node309 -->
<g id="node9" class="node"><title>Node309</title>
<g id="a_node9"><a xlink:href="../../dd/de1/dashd_8cpp.html#a0ddf1224851353fc92bfbff6f499fa97" target="_top" xlink:title="main">
<polygon fill="white" stroke="black" points="2244,-152.5 2244,-171.5 2282,-171.5 2282,-152.5 2244,-152.5"/>
<text text-anchor="middle" x="2263" y="-159.5" font-family="Helvetica,sans-Serif" font-size="10.00">main</text>
</a>
</g>
</g>
<!-- Node308&#45;&gt;Node309 -->
<g id="edge8" class="edge"><title>Node308&#45;&gt;Node309</title>
<path fill="none" stroke="midnightblue" d="M2183.77,-162C2203.33,-162 2227.46,-162 2243.7,-162"/>
<polygon fill="midnightblue" stroke="midnightblue" points="2183.73,-158.5 2173.73,-162 2183.73,-165.5 2183.73,-158.5"/>
</g>
<!-- Node311&#45;&gt;Node307 -->
<g id="edge11" class="edge"><title>Node311&#45;&gt;Node307</title>
<path fill="none" stroke="midnightblue" d="M1010.75,-238C1063.81,-238 1153.44,-238 1230.5,-238 1230.5,-238 1230.5,-238 1557.5,-238 1662.71,-238 1784.89,-204.928 1837.15,-189.167"/>
<polygon fill="midnightblue" stroke="midnightblue" points="1010.64,-234.5 1000.64,-238 1010.64,-241.5 1010.64,-234.5"/>
</g>
<!-- Node313&#45;&gt;Node311 -->
<g id="edge14" class="edge"><title>Node313&#45;&gt;Node311</title>
<path fill="none" stroke="midnightblue" d="M860.316,-238C882.862,-238 907.205,-238 926.474,-238"/>
<polygon fill="midnightblue" stroke="midnightblue" points="860.108,-234.5 850.108,-238 860.108,-241.5 860.108,-234.5"/>
</g>
<!-- Node315 -->
<g id="node15" class="node"><title>Node315</title>
<g id="a_node15"><a xlink:href="../../d8/dc3/server_8h.html#afc5f2c0cbe40a2f876b46df2929cf359" target="_top" xlink:title="generate">
<polygon fill="white" stroke="black" points="1370,-152.5 1370,-171.5 1424,-171.5 1424,-152.5 1370,-152.5"/>
<text text-anchor="middle" x="1397" y="-159.5" font-family="Helvetica,sans-Serif" font-size="10.00">generate</text>
</a>
</g>
</g>
<!-- Node314&#45;&gt;Node315 -->
<g id="edge16" class="edge"><title>Node314&#45;&gt;Node315</title>
<path fill="none" stroke="midnightblue" d="M1290.83,-162C1317.9,-162 1348.7,-162 1369.95,-162"/>
<polygon fill="midnightblue" stroke="midnightblue" points="1290.67,-158.5 1280.67,-162 1290.67,-165.5 1290.67,-158.5"/>
</g>
<!-- Node316 -->
<g id="node16" class="node"><title>Node316</title>
<g id="a_node16"><a xlink:href="../../d6/de3/miner_8cpp.html#abfbc96f613381f93c13c00ebc2f25139" target="_top" xlink:title="ProcessBlockFound">
<polygon fill="white" stroke="black" points="1345,-114.5 1345,-133.5 1449,-133.5 1449,-114.5 1345,-114.5"/>
<text text-anchor="middle" x="1397" y="-121.5" font-family="Helvetica,sans-Serif" font-size="10.00">ProcessBlockFound</text>
</a>
</g>
</g>
<!-- Node314&#45;&gt;Node316 -->
<g id="edge17" class="edge"><title>Node314&#45;&gt;Node316</title>
<path fill="none" stroke="midnightblue" d="M1283.68,-150.104C1306.67,-144.763 1333.41,-138.546 1355.04,-133.52"/>
<polygon fill="midnightblue" stroke="midnightblue" points="1282.71,-146.738 1273.76,-152.411 1284.29,-153.556 1282.71,-146.738"/>
</g>
<!-- Node324 -->
<g id="node24" class="node"><title>Node324</title>
<g id="a_node24"><a xlink:href="../../d2/d83/net__processing_8cpp.html#a193d0ece6e2f2f7ee37352ac9720bb83" target="_top" xlink:title="ProcessMessage">
<polygon fill="white" stroke="black" points="1351,-38.5 1351,-57.5 1443,-57.5 1443,-38.5 1351,-38.5"/>
<text text-anchor="middle" x="1397" y="-45.5" font-family="Helvetica,sans-Serif" font-size="10.00">ProcessMessage</text>
</a>
</g>
</g>
<!-- Node314&#45;&gt;Node324 -->
<g id="edge27" class="edge"><title>Node314&#45;&gt;Node324</title>
<path fill="none" stroke="midnightblue" d="M1254.54,-146.63C1288.74,-122.787 1353.59,-77.5719 1382.03,-57.738"/>
<polygon fill="midnightblue" stroke="midnightblue" points="1252.36,-143.886 1246.16,-152.477 1256.36,-149.628 1252.36,-143.886"/>
</g>
<!-- Node328 -->
<g id="node28" class="node"><title>Node328</title>
<g id="a_node28"><a xlink:href="../../d8/dc3/server_8h.html#a220fade8a685be34364aad455f99f6d6" target="_top" xlink:title="submitblock">
<polygon fill="white" stroke="black" points="1362.5,-190.5 1362.5,-209.5 1431.5,-209.5 1431.5,-190.5 1362.5,-190.5"/>
<text text-anchor="middle" x="1397" y="-197.5" font-family="Helvetica,sans-Serif" font-size="10.00">submitblock</text>
</a>
</g>
</g>
<!-- Node314&#45;&gt;Node328 -->
<g id="edge33" class="edge"><title>Node314&#45;&gt;Node328</title>
<path fill="none" stroke="midnightblue" d="M1283.71,-173.902C1309.39,-179.871 1339.78,-186.933 1362.46,-192.204"/>
<polygon fill="midnightblue" stroke="midnightblue" points="1284.29,-170.444 1273.76,-171.589 1282.71,-177.262 1284.29,-170.444"/>
</g>
<!-- Node317 -->
<g id="node17" class="node"><title>Node317</title>
<g id="a_node17"><a xlink:href="../../d6/de3/miner_8cpp.html#a17c61f964b27cc5060cd7f9b0efb3607" target="_top" xlink:title="BitcoinMiner">
<polygon fill="white" stroke="black" points="1521,-114.5 1521,-133.5 1592,-133.5 1592,-114.5 1521,-114.5"/>
<text text-anchor="middle" x="1556.5" y="-121.5" font-family="Helvetica,sans-Serif" font-size="10.00">BitcoinMiner</text>
</a>
</g>
</g>
<!-- Node316&#45;&gt;Node317 -->
<g id="edge18" class="edge"><title>Node316&#45;&gt;Node317</title>
<path fill="none" stroke="midnightblue" d="M1459.18,-124C1479.98,-124 1502.5,-124 1520.54,-124"/>
<polygon fill="midnightblue" stroke="midnightblue" points="1459.14,-120.5 1449.14,-124 1459.14,-127.5 1459.14,-120.5"/>
</g>
<!-- Node318 -->
<g id="node18" class="node"><title>Node318</title>
<g id="a_node18"><a xlink:href="../../de/d13/miner_8h.html#a5dd1df3c97c260735ad08a808db2115c" target="_top" xlink:title="Run the miner threads. ">
<polygon fill="white" stroke="black" points="1676.5,-95.5 1676.5,-114.5 1768.5,-114.5 1768.5,-95.5 1676.5,-95.5"/>
<text text-anchor="middle" x="1722.5" y="-102.5" font-family="Helvetica,sans-Serif" font-size="10.00">GenerateBitcoins</text>
</a>
</g>
</g>
<!-- Node317&#45;&gt;Node318 -->
<g id="edge19" class="edge"><title>Node317&#45;&gt;Node318</title>
<path fill="none" stroke="midnightblue" d="M1602.48,-118.789C1625.5,-116.122 1653.45,-112.884 1676.48,-110.216"/>
<polygon fill="midnightblue" stroke="midnightblue" points="1601.81,-115.343 1592.28,-119.971 1602.62,-122.296 1601.81,-115.343"/>
</g>
<!-- Node318&#45;&gt;Node307 -->
<g id="edge20" class="edge"><title>Node318&#45;&gt;Node307</title>
<path fill="none" stroke="midnightblue" d="M1767.45,-118.05C1772.1,-119.865 1776.7,-121.852 1781,-124 1807.99,-137.482 1836.17,-158.969 1851.46,-171.352"/>
<polygon fill="midnightblue" stroke="midnightblue" points="1768.5,-114.706 1757.9,-114.571 1766.1,-121.283 1768.5,-114.706"/>
</g>
<!-- Node319 -->
<g id="node19" class="node"><title>Node319</title>
<g id="a_node19"><a xlink:href="../../d8/dc0/init_8h.html#a5cb3db83cb0ba2e421f651a1ee1f2cfe" target="_top" xlink:title="Preparing steps before shutting down or restarting the wallet. ">
<polygon fill="white" stroke="black" points="1817,-57.5 1817,-76.5 1911,-76.5 1911,-57.5 1817,-57.5"/>
<text text-anchor="middle" x="1864" y="-64.5" font-family="Helvetica,sans-Serif" font-size="10.00">PrepareShutdown</text>
</a>
</g>
</g>
<!-- Node318&#45;&gt;Node319 -->
<g id="edge21" class="edge"><title>Node318&#45;&gt;Node319</title>
<path fill="none" stroke="midnightblue" d="M1768.46,-92.7538C1787.68,-87.516 1809.8,-81.4909 1827.81,-76.5859"/>
<polygon fill="midnightblue" stroke="midnightblue" points="1767.43,-89.4057 1758.7,-95.411 1769.27,-96.1596 1767.43,-89.4057"/>
</g>
<!-- Node323 -->
<g id="node23" class="node"><title>Node323</title>
<g id="a_node23"><a xlink:href="../../d8/dc3/server_8h.html#ae13fce5b0e4a07b7d116242b3a0e39b8" target="_top" xlink:title="setgenerate">
<polygon fill="white" stroke="black" points="1830,-95.5 1830,-114.5 1898,-114.5 1898,-95.5 1830,-95.5"/>
<text text-anchor="middle" x="1864" y="-102.5" font-family="Helvetica,sans-Serif" font-size="10.00">setgenerate</text>
</a>
</g>
</g>
<!-- Node318&#45;&gt;Node323 -->
<g id="edge26" class="edge"><title>Node318&#45;&gt;Node323</title>
<path fill="none" stroke="midnightblue" d="M1778.79,-105C1796.08,-105 1814.6,-105 1829.86,-105"/>
<polygon fill="midnightblue" stroke="midnightblue" points="1778.79,-101.5 1768.79,-105 1778.79,-108.5 1778.79,-101.5"/>
</g>
<!-- Node320 -->
<g id="node20" class="node"><title>Node320</title>
<g id="a_node20"><a xlink:href="../../d2/d76/class_bitcoin_core.html#ac2271844c89ebc4c611e7617ce6202e3" target="_top" xlink:title="BitcoinCore::restart">
<polygon fill="white" stroke="black" points="1951,-57.5 1951,-76.5 2052,-76.5 2052,-57.5 1951,-57.5"/>
<text text-anchor="middle" x="2001.5" y="-64.5" font-family="Helvetica,sans-Serif" font-size="10.00">BitcoinCore::restart</text>
</a>
</g>
</g>
<!-- Node319&#45;&gt;Node320 -->
<g id="edge22" class="edge"><title>Node319&#45;&gt;Node320</title>
<path fill="none" stroke="midnightblue" d="M1921.29,-67C1931.06,-67 1941.16,-67 1950.75,-67"/>
<polygon fill="midnightblue" stroke="midnightblue" points="1921.25,-63.5001 1911.25,-67 1921.25,-70.5001 1921.25,-63.5001"/>
</g>
<!-- Node321 -->
<g id="node21" class="node"><title>Node321</title>
<g id="a_node21"><a xlink:href="../../d8/dc0/init_8h.html#ac5f038c2b480cf9ef5e19e3eba8dbaf9" target="_top" xlink:title="Shutdown is split into 2 parts: Part 1: shut down everything but the main wallet instance (done in Pr...">
<polygon fill="white" stroke="black" points="1971.5,-95.5 1971.5,-114.5 2031.5,-114.5 2031.5,-95.5 1971.5,-95.5"/>
<text text-anchor="middle" x="2001.5" y="-102.5" font-family="Helvetica,sans-Serif" font-size="10.00">Shutdown</text>
</a>
</g>
</g>
<!-- Node319&#45;&gt;Node321 -->
<g id="edge23" class="edge"><title>Node319&#45;&gt;Node321</title>
<path fill="none" stroke="midnightblue" d="M1908.93,-79.32C1929.39,-85.0578 1953.17,-91.7269 1971.37,-96.8305"/>
<polygon fill="midnightblue" stroke="midnightblue" points="1909.77,-75.9193 1899.19,-76.589 1907.88,-82.6593 1909.77,-75.9193"/>
</g>
<!-- Node321&#45;&gt;Node308 -->
<g id="edge24" class="edge"><title>Node321&#45;&gt;Node308</title>
<path fill="none" stroke="midnightblue" d="M2039.74,-117.975C2045.21,-119.953 2050.76,-122.001 2056,-124 2080.28,-133.266 2107.8,-144.619 2126.57,-152.49"/>
<polygon fill="midnightblue" stroke="midnightblue" points="2040.68,-114.591 2030.08,-114.519 2038.32,-121.182 2040.68,-114.591"/>
</g>
<!-- Node322 -->
<g id="node22" class="node"><title>Node322</title>
<g id="a_node22"><a xlink:href="../../d2/d76/class_bitcoin_core.html#a94f3f4622ba698e321f3a2e0e686129f" target="_top" xlink:title="BitcoinCore::shutdown">
<polygon fill="white" stroke="black" points="2092,-95.5 2092,-114.5 2208,-114.5 2208,-95.5 2092,-95.5"/>
<text text-anchor="middle" x="2150" y="-102.5" font-family="Helvetica,sans-Serif" font-size="10.00">BitcoinCore::shutdown</text>
</a>
</g>
</g>
<!-- Node321&#45;&gt;Node322 -->
<g id="edge25" class="edge"><title>Node321&#45;&gt;Node322</title>
<path fill="none" stroke="midnightblue" d="M2041.97,-105C2057.31,-105 2075.18,-105 2091.88,-105"/>
<polygon fill="midnightblue" stroke="midnightblue" points="2041.79,-101.5 2031.79,-105 2041.79,-108.5 2041.79,-101.5"/>
</g>
<!-- Node325 -->
<g id="node25" class="node"><title>Node325</title>
<g id="a_node25"><a xlink:href="../../d0/dd8/net__processing_8h.html#a7fa42e7ffd6e6ba5b7537af248e30fc8" target="_top" xlink:title="Process protocol messages received from a given node. ">
<polygon fill="white" stroke="black" points="1507.5,-38.5 1507.5,-57.5 1605.5,-57.5 1605.5,-38.5 1507.5,-38.5"/>
<text text-anchor="middle" x="1556.5" y="-45.5" font-family="Helvetica,sans-Serif" font-size="10.00">ProcessMessages</text>
</a>
</g>
</g>
<!-- Node324&#45;&gt;Node325 -->
<g id="edge28" class="edge"><title>Node324&#45;&gt;Node325</title>
<path fill="none" stroke="midnightblue" d="M1453.28,-48C1470.91,-48 1490.26,-48 1507.33,-48"/>
<polygon fill="midnightblue" stroke="midnightblue" points="1453.13,-44.5001 1443.13,-48 1453.13,-51.5001 1453.13,-44.5001"/>
</g>
<!-- Node326 -->
<g id="node26" class="node"><title>Node326</title>
<g id="a_node26"><a xlink:href="../../d0/dd8/net__processing_8h.html#ab02615ff65f91d69f8d786ec900baa8a" target="_top" xlink:title="Register with a network node to receive its signals. ">
<polygon fill="white" stroke="black" points="1668,-133.5 1668,-152.5 1777,-152.5 1777,-133.5 1668,-133.5"/>
<text text-anchor="middle" x="1722.5" y="-140.5" font-family="Helvetica,sans-Serif" font-size="10.00">RegisterNodeSignals</text>
</a>
</g>
</g>
<!-- Node325&#45;&gt;Node326 -->
<g id="edge29" class="edge"><title>Node325&#45;&gt;Node326</title>
<path fill="none" stroke="midnightblue" d="M1615.16,-59.5528C1619.71,-61.6368 1624.06,-64.0966 1628,-67 1652.12,-84.7821 1640.39,-105.551 1664,-124 1668.97,-127.884 1674.77,-130.991 1680.74,-133.472"/>
<polygon fill="midnightblue" stroke="midnightblue" points="1616.18,-56.1959 1605.6,-55.7813 1613.62,-62.7074 1616.18,-56.1959"/>
</g>
<!-- Node327 -->
<g id="node27" class="node"><title>Node327</title>
<g id="a_node27"><a xlink:href="../../d0/dd8/net__processing_8h.html#a3ef0cc6e9d9d6435ee2a5569244d6ebd" target="_top" xlink:title="Unregister a network node. ">
<polygon fill="white" stroke="black" points="1664,-48.5 1664,-67.5 1781,-67.5 1781,-48.5 1664,-48.5"/>
<text text-anchor="middle" x="1722.5" y="-55.5" font-family="Helvetica,sans-Serif" font-size="10.00">UnregisterNodeSignals</text>
</a>
</g>
</g>
<!-- Node325&#45;&gt;Node327 -->
<g id="edge31" class="edge"><title>Node325&#45;&gt;Node327</title>
<path fill="none" stroke="midnightblue" d="M1615.88,-51.5599C1631.51,-52.5129 1648.39,-53.5422 1663.98,-54.4924"/>
<polygon fill="midnightblue" stroke="midnightblue" points="1616.01,-48.0615 1605.82,-50.9462 1615.59,-55.0485 1616.01,-48.0615"/>
</g>
<!-- Node326&#45;&gt;Node307 -->
<g id="edge30" class="edge"><title>Node326&#45;&gt;Node307</title>
<path fill="none" stroke="midnightblue" d="M1768.53,-155.267C1791.36,-161.486 1818.25,-168.811 1837.49,-174.052"/>
<polygon fill="midnightblue" stroke="midnightblue" points="1769.27,-151.84 1758.7,-152.589 1767.43,-158.594 1769.27,-151.84"/>
</g>
<!-- Node327&#45;&gt;Node319 -->
<g id="edge32" class="edge"><title>Node327&#45;&gt;Node319</title>
<path fill="none" stroke="midnightblue" d="M1791.13,-62.3635C1799.77,-62.9208 1808.45,-63.4809 1816.65,-64.0096"/>
<polygon fill="midnightblue" stroke="midnightblue" points="1791.25,-58.8638 1781.05,-61.7126 1790.8,-65.8493 1791.25,-58.8638"/>
</g>
<!-- Node331 -->
<g id="node31" class="node"><title>Node331</title>
<g id="a_node31"><a xlink:href="../../d2/d5e/class_c_spork_manager.html#ade3cee4d73664c03ceaa900efeedc395" target="_top" xlink:title="CSporkManager::ExecuteSpork">
<polygon fill="white" stroke="black" points="886,-38.5 886,-57.5 1041,-57.5 1041,-38.5 886,-38.5"/>
<text text-anchor="middle" x="963.5" y="-45.5" font-family="Helvetica,sans-Serif" font-size="10.00">CSporkManager::ExecuteSpork</text>
</a>
</g>
</g>
<!-- Node330&#45;&gt;Node331 -->
<g id="edge36" class="edge"><title>Node330&#45;&gt;Node331</title>
<path fill="none" stroke="midnightblue" d="M834.293,-111.098C839.62,-109.169 844.972,-107.114 850,-105 884.716,-90.4029 923.566,-69.69 945.325,-57.6687"/>
<polygon fill="midnightblue" stroke="midnightblue" points="833.091,-107.811 824.811,-114.421 835.406,-114.417 833.091,-107.811"/>
</g>
<!-- Node332 -->
<g id="node32" class="node"><title>Node332</title>
<g id="a_node32"><a xlink:href="../../d8/dc3/server_8h.html#a8f5eff6dda04d2f984da8bafd567f140" target="_top" xlink:title="spork">
<polygon fill="white" stroke="black" points="1077,-38.5 1077,-57.5 1118,-57.5 1118,-38.5 1077,-38.5"/>
<text text-anchor="middle" x="1097.5" y="-45.5" font-family="Helvetica,sans-Serif" font-size="10.00">spork</text>
</a>
</g>
</g>
<!-- Node331&#45;&gt;Node332 -->
<g id="edge37" class="edge"><title>Node331&#45;&gt;Node332</title>
<path fill="none" stroke="midnightblue" d="M1051.31,-48C1060.74,-48 1069.54,-48 1076.83,-48"/>
<polygon fill="midnightblue" stroke="midnightblue" points="1051.28,-44.5001 1041.28,-48 1051.28,-51.5001 1051.28,-44.5001"/>
</g>
<!-- Node333 -->
<g id="node33" class="node"><title>Node333</title>
<g id="a_node33"><a xlink:href="../../d2/d5e/class_c_spork_manager.html#a73b217ee4057d273648c54fee3a702c5" target="_top" xlink:title="CSporkManager::ProcessSpork">
<polygon fill="white" stroke="black" points="1154,-0.5 1154,-19.5 1309,-19.5 1309,-0.5 1154,-0.5"/>
<text text-anchor="middle" x="1231.5" y="-7.5" font-family="Helvetica,sans-Serif" font-size="10.00">CSporkManager::ProcessSpork</text>
</a>
</g>
</g>
<!-- Node331&#45;&gt;Node333 -->
<g id="edge44" class="edge"><title>Node331&#45;&gt;Node333</title>
<path fill="none" stroke="midnightblue" d="M1028.2,-36.7381C1044.12,-34.0631 1061.16,-31.3162 1077,-29 1101.98,-25.347 1129.31,-21.815 1153.89,-18.8076"/>
<polygon fill="midnightblue" stroke="midnightblue" points="1027.2,-33.3572 1017.93,-38.4803 1028.37,-40.2587 1027.2,-33.3572"/>
</g>
<!-- Node332&#45;&gt;Node333 -->
<g id="edge38" class="edge"><title>Node332&#45;&gt;Node333</title>
<path fill="none" stroke="midnightblue" d="M1127.61,-37.5057C1136.07,-34.5989 1145.36,-31.5456 1154,-29 1165.42,-25.6339 1177.91,-22.3613 1189.43,-19.5074"/>
<polygon fill="midnightblue" stroke="midnightblue" points="1126.43,-34.2099 1118.15,-40.8115 1128.74,-40.8185 1126.43,-34.2099"/>
</g>
<!-- Node334 -->
<g id="node34" class="node"><title>Node334</title>
<g id="a_node34"><a xlink:href="../../d2/d5e/class_c_spork_manager.html#a599d088218de9d242e4dc5cb17dd310b" target="_top" xlink:title="CSporkManager::SetPrivKey">
<polygon fill="white" stroke="black" points="1485,-76.5 1485,-95.5 1628,-95.5 1628,-76.5 1485,-76.5"/>
<text text-anchor="middle" x="1556.5" y="-83.5" font-family="Helvetica,sans-Serif" font-size="10.00">CSporkManager::SetPrivKey</text>
</a>
</g>
</g>
<!-- Node332&#45;&gt;Node334 -->
<g id="edge40" class="edge"><title>Node332&#45;&gt;Node334</title>
<path fill="none" stroke="midnightblue" d="M1127.82,-59.7632C1136.16,-62.6294 1145.32,-65.3442 1154,-67 1268.3,-88.8118 1404.05,-90.2699 1484.8,-88.6355"/>
<polygon fill="midnightblue" stroke="midnightblue" points="1128.76,-56.38 1118.17,-56.2531 1126.37,-62.9589 1128.76,-56.38"/>
</g>
<!-- Node335 -->
<g id="node35" class="node"><title>Node335</title>
<g id="a_node35"><a xlink:href="../../d2/d5e/class_c_spork_manager.html#a1277aeae7d50a0473c85a5a062d364cb" target="_top" xlink:title="CSporkManager::UpdateSpork">
<polygon fill="white" stroke="black" points="1156.5,-38.5 1156.5,-57.5 1306.5,-57.5 1306.5,-38.5 1156.5,-38.5"/>
<text text-anchor="middle" x="1231.5" y="-45.5" font-family="Helvetica,sans-Serif" font-size="10.00">CSporkManager::UpdateSpork</text>
</a>
</g>
</g>
<!-- Node332&#45;&gt;Node335 -->
<g id="edge42" class="edge"><title>Node332&#45;&gt;Node335</title>
<path fill="none" stroke="midnightblue" d="M1128.3,-42.2485C1136.76,-41.7275 1146.38,-41.4104 1156.24,-41.2972"/>
<polygon fill="midnightblue" stroke="midnightblue" points="1127.97,-38.7639 1118.26,-43.0175 1128.5,-45.7434 1127.97,-38.7639"/>
</g>
<!-- Node333&#45;&gt;Node324 -->
<g id="edge39" class="edge"><title>Node333&#45;&gt;Node324</title>
<path fill="none" stroke="midnightblue" d="M1283.68,-21.8961C1306.67,-27.2374 1333.41,-33.4537 1355.04,-38.4799"/>
<polygon fill="midnightblue" stroke="midnightblue" points="1284.29,-18.4438 1273.76,-19.589 1282.71,-25.262 1284.29,-18.4438"/>
</g>
<!-- Node334&#45;&gt;Node307 -->
<g id="edge41" class="edge"><title>Node334&#45;&gt;Node307</title>
<path fill="none" stroke="midnightblue" d="M1619.54,-99.7153C1622.51,-101.289 1625.35,-103.044 1628,-105 1652.12,-122.782 1638.48,-146.305 1664,-162 1718.25,-195.36 1796.97,-190.657 1837.21,-185.318"/>
<polygon fill="midnightblue" stroke="midnightblue" points="1620.9,-96.4869 1610.35,-95.5143 1617.99,-102.854 1620.9,-96.4869"/>
</g>
<!-- Node335&#45;&gt;Node332 -->
<g id="edge43" class="edge"><title>Node335&#45;&gt;Node332</title>
<path fill="none" stroke="midnightblue" d="M1146.18,-54.5132C1135.84,-54.2398 1126.16,-53.7296 1118.26,-52.9825"/>
<polygon fill="midnightblue" stroke="midnightblue" points="1146.18,-58.0138 1156.24,-54.7028 1146.31,-51.0151 1146.18,-58.0138"/>
</g>
</g>
</svg>
        <g id="navigator" transform="translate(0 0)" fill="#404254">
                <rect fill="#f2f5e9" fill-opacity="0.5" stroke="#606060" stroke-width=".5" x="0" y="0" width="60" height="60"/>
                <use id="zoomplus" xlink:href="#zoomPlus" x="17" y="9" onmousedown="handleZoom(evt,'in')"/>
                <use id="zoomminus" xlink:href="#zoomMin" x="42" y="9" onmousedown="handleZoom(evt,'out')"/>
                <use id="reset" xlink:href="#resetDef" x="30" y="36" onmousedown="handleReset()"/>
                <g id="arrowUp" xlink:href="#dirArrow" transform="translate(30 24)" onmousedown="handlePan(0,-1)">
                  <use xlink:href="#rim" fill="#404040">
                        <set attributeName="fill" to="#808080" begin="arrowUp.mouseover" end="arrowUp.mouseout"/>
                  </use>
                  <path fill="none" stroke="white" stroke-width="1.5" d="M0,-3.0v7 M-2.5,-0.5L0,-3.0L2.5,-0.5"/>
                </g>
                <g id="arrowRight" xlink:href="#dirArrow" transform="rotate(90) translate(36 -43)" onmousedown="handlePan(1,0)">
                  <use xlink:href="#rim" fill="#404040">
                        <set attributeName="fill" to="#808080" begin="arrowRight.mouseover" end="arrowRight.mouseout"/>
                  </use>
                  <path fill="none" stroke="white" stroke-width="1.5" d="M0,-3.0v7 M-2.5,-0.5L0,-3.0L2.5,-0.5"/>
                </g>
                <g id="arrowDown" xlink:href="#dirArrow" transform="rotate(180) translate(-30 -48)" onmousedown="handlePan(0,1)">
                  <use xlink:href="#rim" fill="#404040">
                        <set attributeName="fill" to="#808080" begin="arrowDown.mouseover" end="arrowDown.mouseout"/>
                  </use>
                  <path fill="none" stroke="white" stroke-width="1.5" d="M0,-3.0v7 M-2.5,-0.5L0,-3.0L2.5,-0.5"/>
                </g>
                <g id="arrowLeft" xlink:href="#dirArrow" transform="rotate(270) translate(-36 17)" onmousedown="handlePan(-1,0)">
                  <use xlink:href="#rim" fill="#404040">
                        <set attributeName="fill" to="#808080" begin="arrowLeft.mouseover" end="arrowLeft.mouseout"/>
                  </use>
                  <path fill="none" stroke="white" stroke-width="1.5" d="M0,-3.0v7 M-2.5,-0.5L0,-3.0L2.5,-0.5"/>
                </g>
        </g>
        <svg viewBox="0 0 15 15" width="100%" height="30px" preserveAspectRatio="xMaxYMin meet">
         <g id="arrow_out" transform="scale(0.3 0.3)">
          <a xlink:href="class_c_block_policy_estimator_a4dbf4773f292c71c51cd17b7eb67dad0_icgraph_org.svg" target="_base">
           <rect id="button" ry="5" rx="5" y="6" x="6" height="38" width="38"
                fill="#f2f5e9" fill-opacity="0.5" stroke="#606060" stroke-width="1.0"/>
           <path id="arrow"
             d="M 11.500037,31.436501 C 11.940474,20.09759 22.043105,11.32322 32.158766,21.979434 L 37.068811,17.246167 C 37.068811,17.246167 37.088388,32 37.088388,32 L 22.160133,31.978069 C 22.160133,31.978069 26.997745,27.140456 26.997745,27.140456 C 18.528582,18.264221 13.291696,25.230495 11.500037,31.436501 z"
             style="fill:#404040;"/>
          </a>
         </g>
        </svg>
</svg>
