<?xml version="1.0" encoding="UTF-8" standalone="no"?>
<!DOCTYPE svg PUBLIC "-//W3C//DTD SVG 1.1//EN"
 "http://www.w3.org/Graphics/SVG/1.1/DTD/svg11.dtd">
<!-- Generated by graphviz version 2.38.0 (20140413.2041)
 -->
<!-- Title: src/masternodeman.h Pages: 1 -->
<svg width="2773pt" height="84pt"
 viewBox="0.00 0.00 2773.00 84.00" xmlns="http://www.w3.org/2000/svg" xmlns:xlink="http://www.w3.org/1999/xlink">
<g id="graph0" class="graph" transform="scale(1 1) rotate(0) translate(4 80)">
<title>src/masternodeman.h</title>
<polygon fill="white" stroke="none" points="-4,4 -4,-80 2769,-80 2769,4 -4,4"/>
<!-- Node121 -->
<g id="node1" class="node"><title>Node121</title>
<polygon fill="#bfbfbf" stroke="black" points="1351,-56.5 1351,-75.5 1462,-75.5 1462,-56.5 1351,-56.5"/>
<text text-anchor="middle" x="1406.5" y="-63.5" font-family="Helvetica,sans-Serif" font-size="10.00">src/masternodeman.h</text>
</g>
<!-- Node122 -->
<g id="node2" class="node"><title>Node122</title>
<g id="a_node2"><a xlink:href="../../d9/d1e/activemasternode_8cpp.html" target="_top" xlink:title="src/activemasternode.cpp">
<polygon fill="white" stroke="black" points="0,-0.5 0,-19.5 129,-19.5 129,-0.5 0,-0.5"/>
<text text-anchor="middle" x="64.5" y="-7.5" font-family="Helvetica,sans-Serif" font-size="10.00">src/activemasternode.cpp</text>
</a>
</g>
</g>
<!-- Node121&#45;&gt;Node122 -->
<g id="edge1" class="edge"><title>Node121&#45;&gt;Node122</title>
<path fill="none" stroke="midnightblue" d="M1340.46,-64.6869C1152.22,-63.3575 596.909,-56.3955 137.5,-20 134.827,-19.7882 132.101,-19.5506 129.349,-19.2929"/>
<polygon fill="midnightblue" stroke="midnightblue" points="1340.71,-68.1887 1350.74,-64.7565 1340.76,-61.1888 1340.71,-68.1887"/>
</g>
<!-- Node123 -->
<g id="node3" class="node"><title>Node123</title>
<g id="a_node3"><a xlink:href="../../dd/d2e/dsnotificationinterface_8cpp.html" target="_top" xlink:title="src/dsnotificationinterface.cpp">
<polygon fill="white" stroke="black" points="147,-0.5 147,-19.5 294,-19.5 294,-0.5 147,-0.5"/>
<text text-anchor="middle" x="220.5" y="-7.5" font-family="Helvetica,sans-Serif" font-size="10.00">src/dsnotificationinterface.cpp</text>
</a>
</g>
</g>
<!-- Node121&#45;&gt;Node123 -->
<g id="edge2" class="edge"><title>Node121&#45;&gt;Node123</title>
<path fill="none" stroke="midnightblue" d="M1340.89,-63.8952C1169.78,-60.6738 695.925,-49.5736 302.5,-20 299.787,-19.796 297.024,-19.5728 294.235,-19.3342"/>
<polygon fill="midnightblue" stroke="midnightblue" points="1340.93,-67.3965 1350.99,-64.0829 1341.06,-60.3977 1340.93,-67.3965"/>
</g>
<!-- Node124 -->
<g id="node4" class="node"><title>Node124</title>
<g id="a_node4"><a xlink:href="../../d3/d50/governance-object_8cpp.html" target="_top" xlink:title="src/governance&#45;object.cpp">
<polygon fill="white" stroke="black" points="312,-0.5 312,-19.5 443,-19.5 443,-0.5 312,-0.5"/>
<text text-anchor="middle" x="377.5" y="-7.5" font-family="Helvetica,sans-Serif" font-size="10.00">src/governance&#45;object.cpp</text>
</a>
</g>
</g>
<!-- Node121&#45;&gt;Node124 -->
<g id="edge3" class="edge"><title>Node121&#45;&gt;Node124</title>
<path fill="none" stroke="midnightblue" d="M1340.46,-63.5285C1185.29,-59.7124 785.44,-47.7921 452.5,-20 449.494,-19.7491 446.423,-19.4706 443.323,-19.1716"/>
<polygon fill="midnightblue" stroke="midnightblue" points="1340.68,-67.0348 1350.76,-63.7788 1340.85,-60.0369 1340.68,-67.0348"/>
</g>
<!-- Node125 -->
<g id="node5" class="node"><title>Node125</title>
<g id="a_node5"><a xlink:href="../../dd/dc8/governance-vote_8cpp.html" target="_top" xlink:title="src/governance&#45;vote.cpp">
<polygon fill="white" stroke="black" points="461.5,-0.5 461.5,-19.5 585.5,-19.5 585.5,-0.5 461.5,-0.5"/>
<text text-anchor="middle" x="523.5" y="-7.5" font-family="Helvetica,sans-Serif" font-size="10.00">src/governance&#45;vote.cpp</text>
</a>
</g>
</g>
<!-- Node121&#45;&gt;Node125 -->
<g id="edge4" class="edge"><title>Node121&#45;&gt;Node125</title>
<path fill="none" stroke="midnightblue" d="M1340.76,-62.9341C1202.44,-58.2403 871.251,-45.1773 594.5,-20 591.654,-19.7411 588.746,-19.456 585.811,-19.1517"/>
<polygon fill="midnightblue" stroke="midnightblue" points="1340.67,-66.4328 1350.78,-63.2708 1340.9,-59.4368 1340.67,-66.4328"/>
</g>
<!-- Node126 -->
<g id="node6" class="node"><title>Node126</title>
<g id="a_node6"><a xlink:href="../../d2/d61/governance_8cpp.html" target="_top" xlink:title="src/governance.cpp">
<polygon fill="white" stroke="black" points="603.5,-0.5 603.5,-19.5 705.5,-19.5 705.5,-0.5 603.5,-0.5"/>
<text text-anchor="middle" x="654.5" y="-7.5" font-family="Helvetica,sans-Serif" font-size="10.00">src/governance.cpp</text>
</a>
</g>
</g>
<!-- Node121&#45;&gt;Node126 -->
<g id="edge5" class="edge"><title>Node121&#45;&gt;Node126</title>
<path fill="none" stroke="midnightblue" d="M1340.73,-62.5637C1217.56,-57.5934 943.871,-44.6168 714.5,-20 711.568,-19.6853 708.559,-19.3317 705.526,-18.9516"/>
<polygon fill="midnightblue" stroke="midnightblue" points="1340.62,-66.0622 1350.75,-62.964 1340.9,-59.0678 1340.62,-66.0622"/>
</g>
<!-- Node127 -->
<g id="node7" class="node"><title>Node127</title>
<g id="a_node7"><a xlink:href="../../d0/dc9/init_8cpp.html" target="_top" xlink:title="src/init.cpp">
<polygon fill="white" stroke="black" points="724,-0.5 724,-19.5 789,-19.5 789,-0.5 724,-0.5"/>
<text text-anchor="middle" x="756.5" y="-7.5" font-family="Helvetica,sans-Serif" font-size="10.00">src/init.cpp</text>
</a>
</g>
</g>
<!-- Node121&#45;&gt;Node127 -->
<g id="edge6" class="edge"><title>Node121&#45;&gt;Node127</title>
<path fill="none" stroke="midnightblue" d="M1340.78,-63.0904C1228.93,-59.1812 994.588,-48.1304 798.5,-20 795.547,-19.5764 792.492,-19.0655 789.438,-18.5048"/>
<polygon fill="midnightblue" stroke="midnightblue" points="1340.78,-66.5923 1350.9,-63.4359 1341.02,-59.5964 1340.78,-66.5923"/>
</g>
<!-- Node128 -->
<g id="node8" class="node"><title>Node128</title>
<g id="a_node8"><a xlink:href="../../db/d72/instantx_8cpp.html" target="_top" xlink:title="src/instantx.cpp">
<polygon fill="white" stroke="black" points="807.5,-0.5 807.5,-19.5 893.5,-19.5 893.5,-0.5 807.5,-0.5"/>
<text text-anchor="middle" x="850.5" y="-7.5" font-family="Helvetica,sans-Serif" font-size="10.00">src/instantx.cpp</text>
</a>
</g>
</g>
<!-- Node121&#45;&gt;Node128 -->
<g id="edge7" class="edge"><title>Node121&#45;&gt;Node128</title>
<path fill="none" stroke="midnightblue" d="M1340.59,-60.8534C1244.15,-54.3923 1059.03,-40.4982 902.5,-20 899.593,-19.6193 896.6,-19.1932 893.589,-18.7389"/>
<polygon fill="midnightblue" stroke="midnightblue" points="1340.56,-64.3592 1350.77,-61.53 1341.03,-57.3747 1340.56,-64.3592"/>
</g>
<!-- Node129 -->
<g id="node9" class="node"><title>Node129</title>
<g id="a_node9"><a xlink:href="../../d8/d43/masternode-payments_8cpp.html" target="_top" xlink:title="src/masternode&#45;payments.cpp">
<polygon fill="white" stroke="black" points="912,-0.5 912,-19.5 1061,-19.5 1061,-0.5 912,-0.5"/>
<text text-anchor="middle" x="986.5" y="-7.5" font-family="Helvetica,sans-Serif" font-size="10.00">src/masternode&#45;payments.cpp</text>
</a>
</g>
</g>
<!-- Node121&#45;&gt;Node129 -->
<g id="edge8" class="edge"><title>Node121&#45;&gt;Node129</title>
<path fill="none" stroke="midnightblue" d="M1340.47,-56.5106C1261.94,-46.4132 1131.6,-29.6555 1052.9,-19.5371"/>
<polygon fill="midnightblue" stroke="midnightblue" points="1340.36,-60.0253 1350.73,-57.8292 1341.26,-53.0825 1340.36,-60.0253"/>
</g>
<!-- Node130 -->
<g id="node10" class="node"><title>Node130</title>
<g id="a_node10"><a xlink:href="../../da/d65/masternode-sync_8cpp.html" target="_top" xlink:title="src/masternode&#45;sync.cpp">
<polygon fill="white" stroke="black" points="1079,-0.5 1079,-19.5 1206,-19.5 1206,-0.5 1079,-0.5"/>
<text text-anchor="middle" x="1142.5" y="-7.5" font-family="Helvetica,sans-Serif" font-size="10.00">src/masternode&#45;sync.cpp</text>
</a>
</g>
</g>
<!-- Node121&#45;&gt;Node130 -->
<g id="edge9" class="edge"><title>Node121&#45;&gt;Node130</title>
<path fill="none" stroke="midnightblue" d="M1354.72,-54.4096C1304.83,-44.2042 1230.3,-28.9597 1184.14,-19.5164"/>
<polygon fill="midnightblue" stroke="midnightblue" points="1354.17,-57.8685 1364.67,-56.4435 1355.57,-51.0105 1354.17,-57.8685"/>
</g>
<!-- Node131 -->
<g id="node11" class="node"><title>Node131</title>
<g id="a_node11"><a xlink:href="../../dc/da3/masternode_8cpp.html" target="_top" xlink:title="src/masternode.cpp">
<polygon fill="white" stroke="black" points="1224,-0.5 1224,-19.5 1327,-19.5 1327,-0.5 1224,-0.5"/>
<text text-anchor="middle" x="1275.5" y="-7.5" font-family="Helvetica,sans-Serif" font-size="10.00">src/masternode.cpp</text>
</a>
</g>
</g>
<!-- Node121&#45;&gt;Node131 -->
<g id="edge10" class="edge"><title>Node121&#45;&gt;Node131</title>
<path fill="none" stroke="midnightblue" d="M1376.18,-52.503C1351.62,-42.3795 1317.68,-28.388 1296.16,-19.5164"/>
<polygon fill="midnightblue" stroke="midnightblue" points="1375.16,-55.8683 1385.74,-56.4435 1377.83,-49.3966 1375.16,-55.8683"/>
</g>
<!-- Node132 -->
<g id="node12" class="node"><title>Node132</title>
<g id="a_node12"><a xlink:href="../../d3/dcb/masternodeman_8cpp.html" target="_top" xlink:title="src/masternodeman.cpp">
<polygon fill="white" stroke="black" points="1345.5,-0.5 1345.5,-19.5 1467.5,-19.5 1467.5,-0.5 1345.5,-0.5"/>
<text text-anchor="middle" x="1406.5" y="-7.5" font-family="Helvetica,sans-Serif" font-size="10.00">src/masternodeman.cpp</text>
</a>
</g>
</g>
<!-- Node121&#45;&gt;Node132 -->
<g id="edge11" class="edge"><title>Node121&#45;&gt;Node132</title>
<path fill="none" stroke="midnightblue" d="M1406.5,-45.8045C1406.5,-36.9102 1406.5,-26.7798 1406.5,-19.7511"/>
<polygon fill="midnightblue" stroke="midnightblue" points="1403,-46.083 1406.5,-56.083 1410,-46.083 1403,-46.083"/>
</g>
<!-- Node133 -->
<g id="node13" class="node"><title>Node133</title>
<g id="a_node13"><a xlink:href="../../dd/d84/net_8cpp.html" target="_top" xlink:title="src/net.cpp">
<polygon fill="white" stroke="black" points="1486,-0.5 1486,-19.5 1551,-19.5 1551,-0.5 1486,-0.5"/>
<text text-anchor="middle" x="1518.5" y="-7.5" font-family="Helvetica,sans-Serif" font-size="10.00">src/net.cpp</text>
</a>
</g>
</g>
<!-- Node121&#45;&gt;Node133 -->
<g id="edge12" class="edge"><title>Node121&#45;&gt;Node133</title>
<path fill="none" stroke="midnightblue" d="M1433.75,-51.8622C1454.52,-41.8492 1482.52,-28.3458 1500.55,-19.6545"/>
<polygon fill="midnightblue" stroke="midnightblue" points="1431.98,-48.8282 1424.49,-56.324 1435.02,-55.1336 1431.98,-48.8282"/>
</g>
<!-- Node134 -->
<g id="node14" class="node"><title>Node134</title>
<g id="a_node14"><a xlink:href="../../d2/d83/net__processing_8cpp.html" target="_top" xlink:title="src/net_processing.cpp">
<polygon fill="white" stroke="black" points="1569.5,-0.5 1569.5,-19.5 1687.5,-19.5 1687.5,-0.5 1569.5,-0.5"/>
<text text-anchor="middle" x="1628.5" y="-7.5" font-family="Helvetica,sans-Serif" font-size="10.00">src/net_processing.cpp</text>
</a>
</g>
</g>
<!-- Node121&#45;&gt;Node134 -->
<g id="edge13" class="edge"><title>Node121&#45;&gt;Node134</title>
<path fill="none" stroke="midnightblue" d="M1451.62,-54.0237C1493.56,-43.8232 1555.15,-28.8414 1593.49,-19.5164"/>
<polygon fill="midnightblue" stroke="midnightblue" points="1450.57,-50.6791 1441.68,-56.4435 1452.22,-57.4808 1450.57,-50.6791"/>
</g>
<!-- Node135 -->
<g id="node15" class="node"><title>Node135</title>
<g id="a_node15"><a xlink:href="../../d1/dc6/privatesend-client_8cpp.html" target="_top" xlink:title="src/privatesend&#45;client.cpp">
<polygon fill="white" stroke="black" points="1705.5,-0.5 1705.5,-19.5 1833.5,-19.5 1833.5,-0.5 1705.5,-0.5"/>
<text text-anchor="middle" x="1769.5" y="-7.5" font-family="Helvetica,sans-Serif" font-size="10.00">src/privatesend&#45;client.cpp</text>
</a>
</g>
</g>
<!-- Node121&#45;&gt;Node135 -->
<g id="edge14" class="edge"><title>Node121&#45;&gt;Node135</title>
<path fill="none" stroke="midnightblue" d="M1472.27,-55.2164C1540.77,-45.0264 1647,-29.2232 1712.18,-19.5268"/>
<polygon fill="midnightblue" stroke="midnightblue" points="1471.4,-51.8064 1462.03,-56.7398 1472.43,-58.7302 1471.4,-51.8064"/>
</g>
<!-- Node136 -->
<g id="node16" class="node"><title>Node136</title>
<g id="a_node16"><a xlink:href="../../d0/d0f/privatesend-server_8cpp.html" target="_top" xlink:title="src/privatesend&#45;server.cpp">
<polygon fill="white" stroke="black" points="1851.5,-0.5 1851.5,-19.5 1983.5,-19.5 1983.5,-0.5 1851.5,-0.5"/>
<text text-anchor="middle" x="1917.5" y="-7.5" font-family="Helvetica,sans-Serif" font-size="10.00">src/privatesend&#45;server.cpp</text>
</a>
</g>
</g>
<!-- Node121&#45;&gt;Node136 -->
<g id="edge15" class="edge"><title>Node121&#45;&gt;Node136</title>
<path fill="none" stroke="midnightblue" d="M1472.35,-58.5466C1557.75,-50.0984 1711.33,-34.6388 1842.5,-20 1845.37,-19.68 1848.3,-19.3486 1851.25,-19.01"/>
<polygon fill="midnightblue" stroke="midnightblue" points="1471.89,-55.0753 1462.28,-59.5416 1472.58,-62.0414 1471.89,-55.0753"/>
</g>
<!-- Node137 -->
<g id="node17" class="node"><title>Node137</title>
<g id="a_node17"><a xlink:href="../../d4/da2/privatesend_8cpp.html" target="_top" xlink:title="src/privatesend.cpp">
<polygon fill="white" stroke="black" points="2001.5,-0.5 2001.5,-19.5 2103.5,-19.5 2103.5,-0.5 2001.5,-0.5"/>
<text text-anchor="middle" x="2052.5" y="-7.5" font-family="Helvetica,sans-Serif" font-size="10.00">src/privatesend.cpp</text>
</a>
</g>
</g>
<!-- Node121&#45;&gt;Node137 -->
<g id="edge16" class="edge"><title>Node121&#45;&gt;Node137</title>
<path fill="none" stroke="midnightblue" d="M1472.53,-61.4887C1581.19,-55.3609 1804.41,-41.3004 1992.5,-20 1995.43,-19.6681 1998.44,-19.3012 2001.47,-18.9108"/>
<polygon fill="midnightblue" stroke="midnightblue" points="1472.17,-58.0035 1462.38,-62.0569 1472.56,-64.9926 1472.17,-58.0035"/>
</g>
<!-- Node138 -->
<g id="node18" class="node"><title>Node138</title>
<g id="a_node18"><a xlink:href="../../d9/d3d/clientmodel_8cpp.html" target="_top" xlink:title="src/qt/clientmodel.cpp">
<polygon fill="white" stroke="black" points="2122,-0.5 2122,-19.5 2235,-19.5 2235,-0.5 2122,-0.5"/>
<text text-anchor="middle" x="2178.5" y="-7.5" font-family="Helvetica,sans-Serif" font-size="10.00">src/qt/clientmodel.cpp</text>
</a>
</g>
</g>
<!-- Node121&#45;&gt;Node138 -->
<g id="edge17" class="edge"><title>Node121&#45;&gt;Node138</title>
<path fill="none" stroke="midnightblue" d="M1472.62,-62.3731C1597.76,-57.0495 1877.74,-43.4579 2112.5,-20 2115.49,-19.7011 2118.56,-19.37 2121.65,-19.0164"/>
<polygon fill="midnightblue" stroke="midnightblue" points="1472.28,-58.8842 1462.44,-62.8025 1472.58,-65.878 1472.28,-58.8842"/>
</g>
<!-- Node139 -->
<g id="node19" class="node"><title>Node139</title>
<g id="a_node19"><a xlink:href="../../d7/d12/masternodelist_8cpp.html" target="_top" xlink:title="src/qt/masternodelist.cpp">
<polygon fill="white" stroke="black" points="2253,-0.5 2253,-19.5 2380,-19.5 2380,-0.5 2253,-0.5"/>
<text text-anchor="middle" x="2316.5" y="-7.5" font-family="Helvetica,sans-Serif" font-size="10.00">src/qt/masternodelist.cpp</text>
</a>
</g>
</g>
<!-- Node121&#45;&gt;Node139 -->
<g id="edge18" class="edge"><title>Node121&#45;&gt;Node139</title>
<path fill="none" stroke="midnightblue" d="M1472.76,-63.035C1614.55,-58.48 1957.81,-45.5835 2244.5,-20 2247.26,-19.7537 2250.08,-19.4832 2252.92,-19.1946"/>
<polygon fill="midnightblue" stroke="midnightblue" points="1472.38,-59.5451 1462.5,-63.3613 1472.6,-66.5416 1472.38,-59.5451"/>
</g>
<!-- Node140 -->
<g id="node20" class="node"><title>Node140</title>
<g id="a_node20"><a xlink:href="../../dd/daa/rpc_2governance_8cpp.html" target="_top" xlink:title="src/rpc/governance.cpp">
<polygon fill="white" stroke="black" points="2398,-0.5 2398,-19.5 2517,-19.5 2517,-0.5 2398,-0.5"/>
<text text-anchor="middle" x="2457.5" y="-7.5" font-family="Helvetica,sans-Serif" font-size="10.00">src/rpc/governance.cpp</text>
</a>
</g>
</g>
<!-- Node121&#45;&gt;Node140 -->
<g id="edge19" class="edge"><title>Node121&#45;&gt;Node140</title>
<path fill="none" stroke="midnightblue" d="M1472.08,-63.9415C1630.19,-60.9662 2044.82,-50.642 2389.5,-20 2392.23,-19.7575 2395.02,-19.4859 2397.83,-19.1924"/>
<polygon fill="midnightblue" stroke="midnightblue" points="1471.97,-60.4428 1462.04,-64.127 1472.1,-67.4416 1471.97,-60.4428"/>
</g>
<!-- Node141 -->
<g id="node21" class="node"><title>Node141</title>
<g id="a_node21"><a xlink:href="../../d0/d80/rpc_2masternode_8cpp.html" target="_top" xlink:title="src/rpc/masternode.cpp">
<polygon fill="white" stroke="black" points="2535,-0.5 2535,-19.5 2654,-19.5 2654,-0.5 2535,-0.5"/>
<text text-anchor="middle" x="2594.5" y="-7.5" font-family="Helvetica,sans-Serif" font-size="10.00">src/rpc/masternode.cpp</text>
</a>
</g>
</g>
<!-- Node121&#45;&gt;Node141 -->
<g id="edge20" class="edge"><title>Node121&#45;&gt;Node141</title>
<path fill="none" stroke="midnightblue" d="M1472.48,-64.4532C1645.64,-62.5625 2127.26,-54.3686 2526.5,-20 2529.23,-19.7651 2532.02,-19.4997 2534.83,-19.2113"/>
<polygon fill="midnightblue" stroke="midnightblue" points="1472.22,-60.9557 1462.26,-64.5613 1472.3,-67.9553 1472.22,-60.9557"/>
</g>
<!-- Node142 -->
<g id="node22" class="node"><title>Node142</title>
<g id="a_node22"><a xlink:href="../../dd/d7d/validation_8cpp.html" target="_top" xlink:title="src/validation.cpp">
<polygon fill="white" stroke="black" points="2672,-0.5 2672,-19.5 2765,-19.5 2765,-0.5 2672,-0.5"/>
<text text-anchor="middle" x="2718.5" y="-7.5" font-family="Helvetica,sans-Serif" font-size="10.00">src/validation.cpp</text>
</a>
</g>
</g>
<!-- Node121&#45;&gt;Node142 -->
<g id="edge21" class="edge"><title>Node121&#45;&gt;Node142</title>
<path fill="none" stroke="midnightblue" d="M1472.33,-65.5686C1659.32,-66.5544 2209.51,-65.089 2663.5,-20 2666.2,-19.7323 2668.96,-19.4154 2671.75,-19.0634"/>
<polygon fill="midnightblue" stroke="midnightblue" points="1472.13,-62.0676 1462.11,-65.5104 1472.09,-69.0675 1472.13,-62.0676"/>
</g>
</g>
</svg>
