<?xml version="1.0" encoding="UTF-8" standalone="no"?>
<!DOCTYPE svg PUBLIC "-//W3C//DTD SVG 1.1//EN"
 "http://www.w3.org/Graphics/SVG/1.1/DTD/svg11.dtd">
<!-- Generated by graphviz version 2.38.0 (20140413.2041)
 -->
<!-- Title: GetMasternodeConfigFile Pages: 1 -->
<svg width="420pt" height="104pt"
 viewBox="0.00 0.00 420.00 104.00" xmlns="http://www.w3.org/2000/svg" xmlns:xlink="http://www.w3.org/1999/xlink">
<g id="graph0" class="graph" transform="scale(1 1) rotate(0) translate(4 100)">
<title>GetMasternodeConfigFile</title>
<polygon fill="white" stroke="none" points="-4,4 -4,-100 416,-100 416,4 -4,4"/>
<!-- Node3507 -->
<g id="node1" class="node"><title>Node3507</title>
<polygon fill="#bfbfbf" stroke="black" points="0,-57.5 0,-76.5 128,-76.5 128,-57.5 0,-57.5"/>
<text text-anchor="middle" x="64" y="-64.5" font-family="Helvetica,sans-Serif" font-size="10.00">GetMasternodeConfigFile</text>
</g>
<!-- Node3508 -->
<g id="node2" class="node"><title>Node3508</title>
<g id="a_node2"><a xlink:href="../../df/d2d/util_8cpp.html#a24f685720bf40370e5bd2a192ad50cd8" target="_top" xlink:title="Return string argument or default value. ">
<polygon fill="white" stroke="black" points="173.5,-76.5 173.5,-95.5 220.5,-95.5 220.5,-76.5 173.5,-76.5"/>
<text text-anchor="middle" x="197" y="-83.5" font-family="Helvetica,sans-Serif" font-size="10.00">GetArg</text>
</a>
</g>
</g>
<!-- Node3507&#45;&gt;Node3508 -->
<g id="edge1" class="edge"><title>Node3507&#45;&gt;Node3508</title>
<path fill="none" stroke="midnightblue" d="M128.198,-76.1661C140.367,-77.9311 152.643,-79.7116 163.342,-81.2633"/>
<polygon fill="midnightblue" stroke="midnightblue" points="163.053,-84.758 173.452,-82.7297 164.058,-77.8305 163.053,-84.758"/>
</g>
<!-- Node3509 -->
<g id="node3" class="node"><title>Node3509</title>
<g id="a_node3"><a xlink:href="../../df/d2d/util_8cpp.html#ab83866a054745d4b30a3948a1b44beba" target="_top" xlink:title="GetDataDir">
<polygon fill="white" stroke="black" points="164,-38.5 164,-57.5 230,-57.5 230,-38.5 164,-38.5"/>
<text text-anchor="middle" x="197" y="-45.5" font-family="Helvetica,sans-Serif" font-size="10.00">GetDataDir</text>
</a>
</g>
</g>
<!-- Node3507&#45;&gt;Node3509 -->
<g id="edge2" class="edge"><title>Node3507&#45;&gt;Node3509</title>
<path fill="none" stroke="midnightblue" d="M128.198,-57.8339C136.846,-56.5795 145.549,-55.3173 153.701,-54.135"/>
<polygon fill="midnightblue" stroke="midnightblue" points="154.292,-57.5859 163.686,-52.6867 153.287,-50.6584 154.292,-57.5859"/>
</g>
<!-- Node3510 -->
<g id="node4" class="node"><title>Node3510</title>
<g id="a_node4"><a xlink:href="../../d9/d44/chainparamsbase_8cpp.html#a06ef5bfd0efb53d13bbf4276726e84ab" target="_top" xlink:title="Return the currently selected parameters. ">
<polygon fill="white" stroke="black" points="302.5,-76.5 302.5,-95.5 375.5,-95.5 375.5,-76.5 302.5,-76.5"/>
<text text-anchor="middle" x="339" y="-83.5" font-family="Helvetica,sans-Serif" font-size="10.00">BaseParams</text>
</a>
</g>
</g>
<!-- Node3509&#45;&gt;Node3510 -->
<g id="edge3" class="edge"><title>Node3509&#45;&gt;Node3510</title>
<path fill="none" stroke="midnightblue" d="M230.143,-57.0839C241.466,-60.2568 254.289,-63.8189 266,-67 274.611,-69.3391 283.813,-71.7981 292.661,-74.1423"/>
<polygon fill="midnightblue" stroke="midnightblue" points="291.888,-77.558 302.45,-76.7276 293.675,-70.79 291.888,-77.558"/>
</g>
<!-- Node3511 -->
<g id="node5" class="node"><title>Node3511</title>
<g id="a_node5"><a xlink:href="../../d2/dfc/class_c_base_chain_params.html#a4b142e94ae27f860522dd5efef41fb67" target="_top" xlink:title="CBaseChainParams::DataDir">
<polygon fill="white" stroke="black" points="266,-38.5 266,-57.5 412,-57.5 412,-38.5 266,-38.5"/>
<text text-anchor="middle" x="339" y="-45.5" font-family="Helvetica,sans-Serif" font-size="10.00">CBaseChainParams::DataDir</text>
</a>
</g>
</g>
<!-- Node3509&#45;&gt;Node3511 -->
<g id="edge4" class="edge"><title>Node3509&#45;&gt;Node3511</title>
<path fill="none" stroke="midnightblue" d="M230.119,-48C237.92,-48 246.619,-48 255.599,-48"/>
<polygon fill="midnightblue" stroke="midnightblue" points="255.825,-51.5001 265.825,-48 255.825,-44.5001 255.825,-51.5001"/>
</g>
<!-- Node3512 -->
<g id="node6" class="node"><title>Node3512</title>
<g id="a_node6"><a xlink:href="../../df/d2d/util_8cpp.html#ab272995de020a3bcbf743be630e485c6" target="_top" xlink:title="GetDefaultDataDir">
<polygon fill="white" stroke="black" points="290,-0.5 290,-19.5 388,-19.5 388,-0.5 290,-0.5"/>
<text text-anchor="middle" x="339" y="-7.5" font-family="Helvetica,sans-Serif" font-size="10.00">GetDefaultDataDir</text>
</a>
</g>
</g>
<!-- Node3509&#45;&gt;Node3512 -->
<g id="edge5" class="edge"><title>Node3509&#45;&gt;Node3512</title>
<path fill="none" stroke="midnightblue" d="M230.143,-38.9161C241.466,-35.7432 254.289,-32.1811 266,-29 274.25,-26.7591 283.041,-24.4082 291.545,-22.1536"/>
<polygon fill="midnightblue" stroke="midnightblue" points="292.571,-25.5027 301.344,-19.5635 290.782,-18.735 292.571,-25.5027"/>
</g>
</g>
</svg>
