<?xml version="1.0" encoding="UTF-8" standalone="no"?>
<!DOCTYPE svg PUBLIC "-//W3C//DTD SVG 1.1//EN"
 "http://www.w3.org/Graphics/SVG/1.1/DTD/svg11.dtd">
<!-- Generated by graphviz version 2.38.0 (20140413.2041)
 -->
<!-- Title: AmountSpinBox::value Pages: 1 -->
<svg width="614pt" height="104pt"
 viewBox="0.00 0.00 614.00 104.00" xmlns="http://www.w3.org/2000/svg" xmlns:xlink="http://www.w3.org/1999/xlink">
<g id="graph0" class="graph" transform="scale(1 1) rotate(0) translate(4 100)">
<title>AmountSpinBox::value</title>
<polygon fill="white" stroke="none" points="-4,4 -4,-100 610,-100 610,4 -4,4"/>
<!-- Node101 -->
<g id="node1" class="node"><title>Node101</title>
<polygon fill="#bfbfbf" stroke="black" points="0,-57.5 0,-76.5 116,-76.5 116,-57.5 0,-57.5"/>
<text text-anchor="middle" x="58" y="-64.5" font-family="Helvetica,sans-Serif" font-size="10.00">AmountSpinBox::value</text>
</g>
<!-- Node102 -->
<g id="node2" class="node"><title>Node102</title>
<g id="a_node2"><a xlink:href="../../df/d9a/class_amount_spin_box.html#a487085fe9dc6d6aaa1d2e2a55852f587" target="_top" xlink:title="Parse a string into a number of base monetary units and return validity. ">
<polygon fill="white" stroke="black" points="152,-57.5 152,-76.5 269,-76.5 269,-57.5 152,-57.5"/>
<text text-anchor="middle" x="210.5" y="-64.5" font-family="Helvetica,sans-Serif" font-size="10.00">AmountSpinBox::parse</text>
</a>
</g>
</g>
<!-- Node101&#45;&gt;Node102 -->
<g id="edge1" class="edge"><title>Node101&#45;&gt;Node102</title>
<path fill="none" stroke="midnightblue" d="M116.327,-67C124.595,-67 133.169,-67 141.619,-67"/>
<polygon fill="midnightblue" stroke="midnightblue" points="141.834,-70.5001 151.834,-67 141.834,-63.5001 141.834,-70.5001"/>
</g>
<!-- Node103 -->
<g id="node3" class="node"><title>Node103</title>
<g id="a_node3"><a xlink:href="../../d3/dd0/class_bitcoin_units.html#a310bc10d6973f335b5757a341909b7fe" target="_top" xlink:title="Return maximum number of base units (Satoshis) ">
<polygon fill="white" stroke="black" points="305,-76.5 305,-95.5 429,-95.5 429,-76.5 305,-76.5"/>
<text text-anchor="middle" x="367" y="-83.5" font-family="Helvetica,sans-Serif" font-size="10.00">BitcoinUnits::maxMoney</text>
</a>
</g>
</g>
<!-- Node102&#45;&gt;Node103 -->
<g id="edge2" class="edge"><title>Node102&#45;&gt;Node103</title>
<path fill="none" stroke="midnightblue" d="M269.03,-74.0749C277.416,-75.1062 286.135,-76.1784 294.754,-77.2383"/>
<polygon fill="midnightblue" stroke="midnightblue" points="294.446,-80.7268 304.799,-78.4736 295.301,-73.7791 294.446,-80.7268"/>
</g>
<!-- Node104 -->
<g id="node4" class="node"><title>Node104</title>
<g id="a_node4"><a xlink:href="../../d3/dd0/class_bitcoin_units.html#a23b5ed29b71bd5039776e8f3a87d668d" target="_top" xlink:title="Parse string to coin amount. ">
<polygon fill="white" stroke="black" points="317,-38.5 317,-57.5 417,-57.5 417,-38.5 317,-38.5"/>
<text text-anchor="middle" x="367" y="-45.5" font-family="Helvetica,sans-Serif" font-size="10.00">BitcoinUnits::parse</text>
</a>
</g>
</g>
<!-- Node102&#45;&gt;Node104 -->
<g id="edge3" class="edge"><title>Node102&#45;&gt;Node104</title>
<path fill="none" stroke="midnightblue" d="M269.03,-59.9251C281.229,-58.4249 294.131,-56.8383 306.405,-55.3289"/>
<polygon fill="midnightblue" stroke="midnightblue" points="307.04,-58.7773 316.538,-54.0828 306.185,-51.8296 307.04,-58.7773"/>
</g>
<!-- Node105 -->
<g id="node5" class="node"><title>Node105</title>
<g id="a_node5"><a xlink:href="../../d3/dd0/class_bitcoin_units.html#a81cbc41480adfb600dad79711d336e5f" target="_top" xlink:title="Is unit ID valid? ">
<polygon fill="white" stroke="black" points="487.5,-76.5 487.5,-95.5 583.5,-95.5 583.5,-76.5 487.5,-76.5"/>
<text text-anchor="middle" x="535.5" y="-83.5" font-family="Helvetica,sans-Serif" font-size="10.00">BitcoinUnits::valid</text>
</a>
</g>
</g>
<!-- Node104&#45;&gt;Node105 -->
<g id="edge4" class="edge"><title>Node104&#45;&gt;Node105</title>
<path fill="none" stroke="midnightblue" d="M410.015,-57.589C432.184,-62.6487 459.573,-68.8996 483.011,-74.2488"/>
<polygon fill="midnightblue" stroke="midnightblue" points="482.259,-77.6671 492.787,-76.4799 483.817,-70.8425 482.259,-77.6671"/>
</g>
<!-- Node106 -->
<g id="node6" class="node"><title>Node106</title>
<g id="a_node6"><a xlink:href="../../d3/dd0/class_bitcoin_units.html#a3f0fc21634520ea06c684ba0d7e25f2f" target="_top" xlink:title="Number of decimals left. ">
<polygon fill="white" stroke="black" points="478,-38.5 478,-57.5 593,-57.5 593,-38.5 478,-38.5"/>
<text text-anchor="middle" x="535.5" y="-45.5" font-family="Helvetica,sans-Serif" font-size="10.00">BitcoinUnits::decimals</text>
</a>
</g>
</g>
<!-- Node104&#45;&gt;Node106 -->
<g id="edge5" class="edge"><title>Node104&#45;&gt;Node106</title>
<path fill="none" stroke="midnightblue" d="M417.055,-48C432.863,-48 450.662,-48 467.533,-48"/>
<polygon fill="midnightblue" stroke="midnightblue" points="467.891,-51.5001 477.891,-48 467.891,-44.5001 467.891,-51.5001"/>
</g>
<!-- Node107 -->
<g id="node7" class="node"><title>Node107</title>
<g id="a_node7"><a xlink:href="../../d3/dd0/class_bitcoin_units.html#a9354c3d913372b03101a23dc9cd18023" target="_top" xlink:title="BitcoinUnits::removeSpaces">
<polygon fill="white" stroke="black" points="465,-0.5 465,-19.5 606,-19.5 606,-0.5 465,-0.5"/>
<text text-anchor="middle" x="535.5" y="-7.5" font-family="Helvetica,sans-Serif" font-size="10.00">BitcoinUnits::removeSpaces</text>
</a>
</g>
</g>
<!-- Node104&#45;&gt;Node107 -->
<g id="edge6" class="edge"><title>Node104&#45;&gt;Node107</title>
<path fill="none" stroke="midnightblue" d="M410.015,-38.411C432.184,-33.3513 459.573,-27.1004 483.011,-21.7512"/>
<polygon fill="midnightblue" stroke="midnightblue" points="483.817,-25.1575 492.787,-19.5201 482.259,-18.3329 483.817,-25.1575"/>
</g>
</g>
</svg>
