<?xml version="1.0" encoding="UTF-8" standalone="no"?>
<!DOCTYPE svg PUBLIC "-//W3C//DTD SVG 1.1//EN"
 "http://www.w3.org/Graphics/SVG/1.1/DTD/svg11.dtd">
<!-- Generated by graphviz version 2.38.0 (20140413.2041)
 -->
<!-- Title: BitcoinGUI::updateNetworkState Pages: 1 -->
<!--zoomable 99 -->
<svg id="main" version="1.1" xmlns="http://www.w3.org/2000/svg" xmlns:xlink="http://www.w3.org/1999/xlink" xml:space="preserve" onload="init(evt)">
<style type="text/css"><![CDATA[
.edge:hover path { stroke: red; }
.edge:hover polygon { stroke: red; fill: red; }
]]></style>
<script type="text/javascript"><![CDATA[
var edges = document.getElementsByTagName('g');
if (edges && edges.length) {
  for (var i=0;i<edges.length;i++) {
    if (edges[i].id.substr(0,4)=='edge') {
      edges[i].setAttribute('class','edge');
    }
  }
}
]]></script>
        <defs>
                <circle id="rim" cx="0" cy="0" r="7"/>
                <circle id="rim2" cx="0" cy="0" r="3.5"/>
                <g id="zoomPlus">
                        <use xlink:href="#rim" fill="#404040">
                                <set attributeName="fill" to="#808080" begin="zoomplus.mouseover" end="zoomplus.mouseout"/>
                        </use>
                        <path d="M-4,0h8M0,-4v8" fill="none" stroke="white" stroke-width="1.5" pointer-events="none"/>
                </g>
                <g id="zoomMin">
                        <use xlink:href="#rim" fill="#404040">
                                <set attributeName="fill" to="#808080" begin="zoomminus.mouseover" end="zoomminus.mouseout"/>
                        </use>
                        <path d="M-4,0h8" fill="none" stroke="white" stroke-width="1.5" pointer-events="none"/>
                </g>
                <g id="dirArrow">
                        <path fill="none" stroke="white" stroke-width="1.5" d="M0,-3.0v7 M-2.5,-0.5L0,-3.0L2.5,-0.5"/>
                </g>
               <g id="resetDef">
                       <use xlink:href="#rim2" fill="#404040">
                               <set attributeName="fill" to="#808080" begin="reset.mouseover" end="reset.mouseout"/>
                       </use>
               </g>
        </defs>

<script type="text/javascript">
var viewWidth = 983;
var viewHeight = 99;
var sectionId = 'dynsection-72';
</script>
<script xlink:href="../../svgpan.js"/>
<svg id="graph" class="graph">
<g id="viewport">
<title>BitcoinGUI::updateNetworkState</title>
<polygon fill="white" stroke="none" points="-4,4 -4,-94.5 979,-94.5 979,4 -4,4"/>
<!-- Node652 -->
<g id="node1" class="node"><title>Node652</title>
<polygon fill="#bfbfbf" stroke="black" points="0,-33 0,-63 137,-63 137,-33 0,-33"/>
<text text-anchor="start" x="8" y="-51" font-family="Helvetica,sans-Serif" font-size="10.00">BitcoinGUI::updateNetwork</text>
<text text-anchor="middle" x="68.5" y="-40" font-family="Helvetica,sans-Serif" font-size="10.00">State</text>
</g>
<!-- Node653 -->
<g id="node2" class="node"><title>Node653</title>
<g id="a_node2"><a xlink:href="../../df/d5a/class_bitcoin_g_u_i.html#a99d71e1f8478ab937ce2522c8d3815e3" target="_top" xlink:title="Set the client model. ">
<polygon fill="white" stroke="black" points="369,-38.5 369,-57.5 505,-57.5 505,-38.5 369,-38.5"/>
<text text-anchor="middle" x="437" y="-45.5" font-family="Helvetica,sans-Serif" font-size="10.00">BitcoinGUI::setClientModel</text>
</a>
</g>
</g>
<!-- Node652&#45;&gt;Node653 -->
<g id="edge1" class="edge"><title>Node652&#45;&gt;Node653</title>
<path fill="none" stroke="midnightblue" d="M147.281,-63.8422C155.928,-65.1367 164.631,-66.2382 173,-67 243.818,-73.4464 262.184,-73.4769 333,-67 353.281,-65.1451 375.531,-61.2765 394.145,-57.5112"/>
<polygon fill="midnightblue" stroke="midnightblue" points="147.603,-60.3497 137.179,-62.2426 146.508,-67.2636 147.603,-60.3497"/>
</g>
<!-- Node659 -->
<g id="node8" class="node"><title>Node659</title>
<g id="a_node8"><a xlink:href="../../df/d5a/class_bitcoin_g_u_i.html#afe40030466c11a4a3aace3c2576d2c60" target="_top" xlink:title="Set network state shown in the UI. ">
<polygon fill="white" stroke="black" points="178.5,-38.5 178.5,-57.5 327.5,-57.5 327.5,-38.5 178.5,-38.5"/>
<text text-anchor="middle" x="253" y="-45.5" font-family="Helvetica,sans-Serif" font-size="10.00">BitcoinGUI::setNetworkActive</text>
</a>
</g>
</g>
<!-- Node652&#45;&gt;Node659 -->
<g id="edge9" class="edge"><title>Node652&#45;&gt;Node659</title>
<path fill="none" stroke="midnightblue" d="M147.356,-48C157.612,-48 168.098,-48 178.282,-48"/>
<polygon fill="midnightblue" stroke="midnightblue" points="147.197,-44.5001 137.197,-48 147.197,-51.5001 147.197,-44.5001"/>
</g>
<!-- Node660 -->
<g id="node9" class="node"><title>Node660</title>
<g id="a_node9"><a xlink:href="../../df/d5a/class_bitcoin_g_u_i.html#ae5b9dc62c6a52764a92cfacbe128626f" target="_top" xlink:title="Set number of connections shown in the UI. ">
<polygon fill="white" stroke="black" points="173,-0.5 173,-19.5 333,-19.5 333,-0.5 173,-0.5"/>
<text text-anchor="middle" x="253" y="-7.5" font-family="Helvetica,sans-Serif" font-size="10.00">BitcoinGUI::setNumConnections</text>
</a>
</g>
</g>
<!-- Node652&#45;&gt;Node660 -->
<g id="edge11" class="edge"><title>Node652&#45;&gt;Node660</title>
<path fill="none" stroke="midnightblue" d="M147.021,-31.8586C167.22,-27.6529 188.337,-23.2559 206.291,-19.5175"/>
<polygon fill="midnightblue" stroke="midnightblue" points="146.273,-28.4391 137.197,-33.9042 147.7,-35.2922 146.273,-28.4391"/>
</g>
<!-- Node654 -->
<g id="node3" class="node"><title>Node654</title>
<g id="a_node3"><a xlink:href="../../d2/d2a/class_bitcoin_application.html#aceb08b4063e4fb264cf11cf7f9edd969" target="_top" xlink:title="BitcoinApplication\l::initializeResult">
<polygon fill="white" stroke="black" points="541,-55 541,-85 636,-85 636,-55 541,-55"/>
<text text-anchor="start" x="549" y="-73" font-family="Helvetica,sans-Serif" font-size="10.00">BitcoinApplication</text>
<text text-anchor="middle" x="588.5" y="-62" font-family="Helvetica,sans-Serif" font-size="10.00">::initializeResult</text>
</a>
</g>
</g>
<!-- Node653&#45;&gt;Node654 -->
<g id="edge2" class="edge"><title>Node653&#45;&gt;Node654</title>
<path fill="none" stroke="midnightblue" d="M512.644,-58.9845C522.21,-60.3921 531.778,-61.8 540.721,-63.1161"/>
<polygon fill="midnightblue" stroke="midnightblue" points="513.106,-55.5148 502.703,-57.5216 512.087,-62.4403 513.106,-55.5148"/>
</g>
<!-- Node658 -->
<g id="node7" class="node"><title>Node658</title>
<g id="a_node7"><a xlink:href="../../d2/d2a/class_bitcoin_application.html#a37c560d4c04d14a6da151b82caf8888f" target="_top" xlink:title="Request core shutdown. ">
<polygon fill="white" stroke="black" points="803,-11 803,-41 901,-41 901,-11 803,-11"/>
<text text-anchor="start" x="811" y="-29" font-family="Helvetica,sans-Serif" font-size="10.00">BitcoinApplication</text>
<text text-anchor="middle" x="852" y="-18" font-family="Helvetica,sans-Serif" font-size="10.00">::requestShutdown</text>
</a>
</g>
</g>
<!-- Node653&#45;&gt;Node658 -->
<g id="edge8" class="edge"><title>Node653&#45;&gt;Node658</title>
<path fill="none" stroke="midnightblue" d="M515.318,-43.8814C599.688,-39.3871 732.14,-32.3315 802.802,-28.5675"/>
<polygon fill="midnightblue" stroke="midnightblue" points="515.074,-40.3893 505.275,-44.4164 515.447,-47.3794 515.074,-40.3893"/>
</g>
<!-- Node655 -->
<g id="node4" class="node"><title>Node655</title>
<g id="a_node4"><a xlink:href="../../d2/d2a/class_bitcoin_application.html#a61afce9356e452c53ad4c83f5ca19df8" target="_top" xlink:title="BitcoinApplication\l::startThread">
<polygon fill="white" stroke="black" points="672,-55 672,-85 767,-85 767,-55 672,-55"/>
<text text-anchor="start" x="680" y="-73" font-family="Helvetica,sans-Serif" font-size="10.00">BitcoinApplication</text>
<text text-anchor="middle" x="719.5" y="-62" font-family="Helvetica,sans-Serif" font-size="10.00">::startThread</text>
</a>
</g>
</g>
<!-- Node654&#45;&gt;Node655 -->
<g id="edge3" class="edge"><title>Node654&#45;&gt;Node655</title>
<path fill="none" stroke="midnightblue" d="M646.101,-70C654.752,-70 663.596,-70 671.996,-70"/>
<polygon fill="midnightblue" stroke="midnightblue" points="646.072,-66.5001 636.072,-70 646.072,-73.5001 646.072,-66.5001"/>
</g>
<!-- Node656 -->
<g id="node5" class="node"><title>Node656</title>
<g id="a_node5"><a xlink:href="../../d2/d2a/class_bitcoin_application.html#ade19c44b87b00b6b19b433caf4c22ba6" target="_top" xlink:title="Request core initialization. ">
<polygon fill="white" stroke="black" points="804.5,-60 804.5,-90 899.5,-90 899.5,-60 804.5,-60"/>
<text text-anchor="start" x="812.5" y="-78" font-family="Helvetica,sans-Serif" font-size="10.00">BitcoinApplication</text>
<text text-anchor="middle" x="852" y="-67" font-family="Helvetica,sans-Serif" font-size="10.00">::requestInitialize</text>
</a>
</g>
</g>
<!-- Node655&#45;&gt;Node656 -->
<g id="edge4" class="edge"><title>Node655&#45;&gt;Node656</title>
<path fill="none" stroke="midnightblue" d="M777.251,-72.1744C786.228,-72.5183 795.424,-72.8707 804.143,-73.2047"/>
<polygon fill="midnightblue" stroke="midnightblue" points="777.372,-68.6765 767.245,-71.791 777.104,-75.6714 777.372,-68.6765"/>
</g>
<!-- Node655&#45;&gt;Node658 -->
<g id="edge6" class="edge"><title>Node655&#45;&gt;Node658</title>
<path fill="none" stroke="midnightblue" d="M774.569,-51.7699C785.096,-48.2204 796.024,-44.5358 806.212,-41.1009"/>
<polygon fill="midnightblue" stroke="midnightblue" points="773.403,-48.4692 765.046,-54.9808 775.64,-55.1023 773.403,-48.4692"/>
</g>
<!-- Node657 -->
<g id="node6" class="node"><title>Node657</title>
<g id="a_node6"><a xlink:href="../../de/d02/dash_8cpp.html#a0ddf1224851353fc92bfbff6f499fa97" target="_top" xlink:title="main">
<polygon fill="white" stroke="black" points="937,-40.5 937,-59.5 975,-59.5 975,-40.5 937,-40.5"/>
<text text-anchor="middle" x="956" y="-47.5" font-family="Helvetica,sans-Serif" font-size="10.00">main</text>
</a>
</g>
</g>
<!-- Node656&#45;&gt;Node657 -->
<g id="edge5" class="edge"><title>Node656&#45;&gt;Node657</title>
<path fill="none" stroke="midnightblue" d="M909.473,-61.1586C919.386,-58.7289 929.021,-56.3675 936.854,-54.4474"/>
<polygon fill="midnightblue" stroke="midnightblue" points="908.402,-57.8174 899.523,-63.5974 910.068,-64.6162 908.402,-57.8174"/>
</g>
<!-- Node658&#45;&gt;Node657 -->
<g id="edge7" class="edge"><title>Node658&#45;&gt;Node657</title>
<path fill="none" stroke="midnightblue" d="M910.919,-39.628C920.366,-41.8508 929.49,-43.9977 936.963,-45.7559"/>
<polygon fill="midnightblue" stroke="midnightblue" points="911.549,-36.1807 901.013,-37.2972 909.946,-42.9947 911.549,-36.1807"/>
</g>
<!-- Node659&#45;&gt;Node653 -->
<g id="edge10" class="edge"><title>Node659&#45;&gt;Node653</title>
<path fill="none" stroke="midnightblue" d="M337.544,-48C348.08,-48 358.75,-48 368.984,-48"/>
<polygon fill="midnightblue" stroke="midnightblue" points="337.502,-44.5001 327.502,-48 337.502,-51.5001 337.502,-44.5001"/>
</g>
<!-- Node660&#45;&gt;Node653 -->
<g id="edge12" class="edge"><title>Node660&#45;&gt;Node653</title>
<path fill="none" stroke="midnightblue" d="M309.946,-21.681C335.756,-27.0699 366.007,-33.3861 390.404,-38.4799"/>
<polygon fill="midnightblue" stroke="midnightblue" points="310.431,-18.2068 299.926,-19.589 309,-25.059 310.431,-18.2068"/>
</g>
</g>
</svg>
        <g id="navigator" transform="translate(0 0)" fill="#404254">
                <rect fill="#f2f5e9" fill-opacity="0.5" stroke="#606060" stroke-width=".5" x="0" y="0" width="60" height="60"/>
                <use id="zoomplus" xlink:href="#zoomPlus" x="17" y="9" onmousedown="handleZoom(evt,'in')"/>
                <use id="zoomminus" xlink:href="#zoomMin" x="42" y="9" onmousedown="handleZoom(evt,'out')"/>
                <use id="reset" xlink:href="#resetDef" x="30" y="36" onmousedown="handleReset()"/>
                <g id="arrowUp" xlink:href="#dirArrow" transform="translate(30 24)" onmousedown="handlePan(0,-1)">
                  <use xlink:href="#rim" fill="#404040">
                        <set attributeName="fill" to="#808080" begin="arrowUp.mouseover" end="arrowUp.mouseout"/>
                  </use>
                  <path fill="none" stroke="white" stroke-width="1.5" d="M0,-3.0v7 M-2.5,-0.5L0,-3.0L2.5,-0.5"/>
                </g>
                <g id="arrowRight" xlink:href="#dirArrow" transform="rotate(90) translate(36 -43)" onmousedown="handlePan(1,0)">
                  <use xlink:href="#rim" fill="#404040">
                        <set attributeName="fill" to="#808080" begin="arrowRight.mouseover" end="arrowRight.mouseout"/>
                  </use>
                  <path fill="none" stroke="white" stroke-width="1.5" d="M0,-3.0v7 M-2.5,-0.5L0,-3.0L2.5,-0.5"/>
                </g>
                <g id="arrowDown" xlink:href="#dirArrow" transform="rotate(180) translate(-30 -48)" onmousedown="handlePan(0,1)">
                  <use xlink:href="#rim" fill="#404040">
                        <set attributeName="fill" to="#808080" begin="arrowDown.mouseover" end="arrowDown.mouseout"/>
                  </use>
                  <path fill="none" stroke="white" stroke-width="1.5" d="M0,-3.0v7 M-2.5,-0.5L0,-3.0L2.5,-0.5"/>
                </g>
                <g id="arrowLeft" xlink:href="#dirArrow" transform="rotate(270) translate(-36 17)" onmousedown="handlePan(-1,0)">
                  <use xlink:href="#rim" fill="#404040">
                        <set attributeName="fill" to="#808080" begin="arrowLeft.mouseover" end="arrowLeft.mouseout"/>
                  </use>
                  <path fill="none" stroke="white" stroke-width="1.5" d="M0,-3.0v7 M-2.5,-0.5L0,-3.0L2.5,-0.5"/>
                </g>
        </g>
        <svg viewBox="0 0 15 15" width="100%" height="30px" preserveAspectRatio="xMaxYMin meet">
         <g id="arrow_out" transform="scale(0.3 0.3)">
          <a xlink:href="class_bitcoin_g_u_i_a6f96b70c5cf881831ff04df0f97c0af1_icgraph_org.svg" target="_base">
           <rect id="button" ry="5" rx="5" y="6" x="6" height="38" width="38"
                fill="#f2f5e9" fill-opacity="0.5" stroke="#606060" stroke-width="1.0"/>
           <path id="arrow"
             d="M 11.500037,31.436501 C 11.940474,20.09759 22.043105,11.32322 32.158766,21.979434 L 37.068811,17.246167 C 37.068811,17.246167 37.088388,32 37.088388,32 L 22.160133,31.978069 C 22.160133,31.978069 26.997745,27.140456 26.997745,27.140456 C 18.528582,18.264221 13.291696,25.230495 11.500037,31.436501 z"
             style="fill:#404040;"/>
          </a>
         </g>
        </svg>
</svg>
