<?xml version="1.0" encoding="UTF-8" standalone="no"?>
<!DOCTYPE svg PUBLIC "-//W3C//DTD SVG 1.1//EN"
 "http://www.w3.org/Graphics/SVG/1.1/DTD/svg11.dtd">
<!-- Generated by graphviz version 2.38.0 (20140413.2041)
 -->
<!-- Title: AddressTableModel::addRow Pages: 1 -->
<svg width="429pt" height="88pt"
 viewBox="0.00 0.00 429.00 88.00" xmlns="http://www.w3.org/2000/svg" xmlns:xlink="http://www.w3.org/1999/xlink">
<g id="graph0" class="graph" transform="scale(1 1) rotate(0) translate(4 84)">
<title>AddressTableModel::addRow</title>
<polygon fill="white" stroke="none" points="-4,4 -4,-84 425,-84 425,4 -4,4"/>
<!-- Node65 -->
<g id="node1" class="node"><title>Node65</title>
<polygon fill="#bfbfbf" stroke="black" points="0,-24.5 0,-54.5 109,-54.5 109,-24.5 0,-24.5"/>
<text text-anchor="start" x="8" y="-42.5" font-family="Helvetica,sans-Serif" font-size="10.00">AddressTableModel::</text>
<text text-anchor="middle" x="54.5" y="-31.5" font-family="Helvetica,sans-Serif" font-size="10.00">addRow</text>
</g>
<!-- Node66 -->
<g id="node2" class="node"><title>Node66</title>
<g id="a_node2"><a xlink:href="../../dc/dca/class_receive_coins_dialog.html#a9db8de31f6889288cb22c061aa51e0cd" target="_top" xlink:title="ReceiveCoinsDialog\l::on_receiveButton_clicked">
<polygon fill="white" stroke="black" points="145,-49.5 145,-79.5 279,-79.5 279,-49.5 145,-49.5"/>
<text text-anchor="start" x="153" y="-67.5" font-family="Helvetica,sans-Serif" font-size="10.00">ReceiveCoinsDialog</text>
<text text-anchor="middle" x="212" y="-56.5" font-family="Helvetica,sans-Serif" font-size="10.00">::on_receiveButton_clicked</text>
</a>
</g>
</g>
<!-- Node65&#45;&gt;Node66 -->
<g id="edge1" class="edge"><title>Node65&#45;&gt;Node66</title>
<path fill="none" stroke="midnightblue" d="M119.164,-49.7354C127.601,-51.0918 136.266,-52.485 144.746,-53.8482"/>
<polygon fill="midnightblue" stroke="midnightblue" points="119.443,-46.2354 109.014,-48.1036 118.332,-53.1466 119.443,-46.2354"/>
</g>
<!-- Node68 -->
<g id="node4" class="node"><title>Node68</title>
<g id="a_node4"><a xlink:href="../../da/db7/class_edit_address_dialog.html#a8494a551799cd1f4c253e557424c206c" target="_top" xlink:title="EditAddressDialog::\lsaveCurrentRow">
<polygon fill="white" stroke="black" points="160,-0.5 160,-30.5 264,-30.5 264,-0.5 160,-0.5"/>
<text text-anchor="start" x="168" y="-18.5" font-family="Helvetica,sans-Serif" font-size="10.00">EditAddressDialog::</text>
<text text-anchor="middle" x="212" y="-7.5" font-family="Helvetica,sans-Serif" font-size="10.00">saveCurrentRow</text>
</a>
</g>
</g>
<!-- Node65&#45;&gt;Node68 -->
<g id="edge3" class="edge"><title>Node65&#45;&gt;Node68</title>
<path fill="none" stroke="midnightblue" d="M119.196,-29.6691C132.696,-27.5855 146.781,-25.4117 159.749,-23.4102"/>
<polygon fill="midnightblue" stroke="midnightblue" points="118.363,-26.2561 109.014,-31.2406 119.431,-33.1742 118.363,-26.2561"/>
</g>
<!-- Node67 -->
<g id="node3" class="node"><title>Node67</title>
<g id="a_node3"><a xlink:href="../../dc/dca/class_receive_coins_dialog.html#abcf17b510c473bf3e94ef12f7f5cfc10" target="_top" xlink:title="ReceiveCoinsDialog\l::keyPressEvent">
<polygon fill="white" stroke="black" points="315,-49.5 315,-79.5 421,-79.5 421,-49.5 315,-49.5"/>
<text text-anchor="start" x="323" y="-67.5" font-family="Helvetica,sans-Serif" font-size="10.00">ReceiveCoinsDialog</text>
<text text-anchor="middle" x="368" y="-56.5" font-family="Helvetica,sans-Serif" font-size="10.00">::keyPressEvent</text>
</a>
</g>
</g>
<!-- Node66&#45;&gt;Node67 -->
<g id="edge2" class="edge"><title>Node66&#45;&gt;Node67</title>
<path fill="none" stroke="midnightblue" d="M289.303,-64.5C297.934,-64.5 306.576,-64.5 314.795,-64.5"/>
<polygon fill="midnightblue" stroke="midnightblue" points="289.204,-61.0001 279.204,-64.5 289.204,-68.0001 289.204,-61.0001"/>
</g>
<!-- Node69 -->
<g id="node5" class="node"><title>Node69</title>
<g id="a_node5"><a xlink:href="../../da/db7/class_edit_address_dialog.html#ac52b71129806bccf6533d0e9441393b6" target="_top" xlink:title="EditAddressDialog::\laccept">
<polygon fill="white" stroke="black" points="316,-0.5 316,-30.5 420,-30.5 420,-0.5 316,-0.5"/>
<text text-anchor="start" x="324" y="-18.5" font-family="Helvetica,sans-Serif" font-size="10.00">EditAddressDialog::</text>
<text text-anchor="middle" x="368" y="-7.5" font-family="Helvetica,sans-Serif" font-size="10.00">accept</text>
</a>
</g>
</g>
<!-- Node68&#45;&gt;Node69 -->
<g id="edge4" class="edge"><title>Node68&#45;&gt;Node69</title>
<path fill="none" stroke="midnightblue" d="M274.604,-15.5C288.317,-15.5 302.709,-15.5 315.944,-15.5"/>
<polygon fill="midnightblue" stroke="midnightblue" points="274.28,-12.0001 264.28,-15.5 274.28,-19.0001 274.28,-12.0001"/>
</g>
</g>
</svg>
