<?xml version="1.0" encoding="UTF-8" standalone="no"?>
<!DOCTYPE svg PUBLIC "-//W3C//DTD SVG 1.1//EN"
 "http://www.w3.org/Graphics/SVG/1.1/DTD/svg11.dtd">
<!-- Generated by graphviz version 2.38.0 (20140413.2041)
 -->
<!-- Title: RecentRequestsTableModel::RecentRequestsTableModel Pages: 1 -->
<!--zoomable 384 -->
<svg id="main" version="1.1" xmlns="http://www.w3.org/2000/svg" xmlns:xlink="http://www.w3.org/1999/xlink" xml:space="preserve" onload="init(evt)">
<style type="text/css"><![CDATA[
.edge:hover path { stroke: red; }
.edge:hover polygon { stroke: red; fill: red; }
]]></style>
<script type="text/javascript"><![CDATA[
var edges = document.getElementsByTagName('g');
if (edges && edges.length) {
  for (var i=0;i<edges.length;i++) {
    if (edges[i].id.substr(0,4)=='edge') {
      edges[i].setAttribute('class','edge');
    }
  }
}
]]></script>
        <defs>
                <circle id="rim" cx="0" cy="0" r="7"/>
                <circle id="rim2" cx="0" cy="0" r="3.5"/>
                <g id="zoomPlus">
                        <use xlink:href="#rim" fill="#404040">
                                <set attributeName="fill" to="#808080" begin="zoomplus.mouseover" end="zoomplus.mouseout"/>
                        </use>
                        <path d="M-4,0h8M0,-4v8" fill="none" stroke="white" stroke-width="1.5" pointer-events="none"/>
                </g>
                <g id="zoomMin">
                        <use xlink:href="#rim" fill="#404040">
                                <set attributeName="fill" to="#808080" begin="zoomminus.mouseover" end="zoomminus.mouseout"/>
                        </use>
                        <path d="M-4,0h8" fill="none" stroke="white" stroke-width="1.5" pointer-events="none"/>
                </g>
                <g id="dirArrow">
                        <path fill="none" stroke="white" stroke-width="1.5" d="M0,-3.0v7 M-2.5,-0.5L0,-3.0L2.5,-0.5"/>
                </g>
               <g id="resetDef">
                       <use xlink:href="#rim2" fill="#404040">
                               <set attributeName="fill" to="#808080" begin="reset.mouseover" end="reset.mouseout"/>
                       </use>
               </g>
        </defs>

<script type="text/javascript">
var viewWidth = 966;
var viewHeight = 384;
var sectionId = 'dynsection-2';
</script>
<script xlink:href="../../svgpan.js"/>
<svg id="graph" class="graph">
<g id="viewport">
<title>RecentRequestsTableModel::RecentRequestsTableModel</title>
<polygon fill="white" stroke="none" points="-4,4 -4,-379.5 962,-379.5 962,4 -4,4"/>
<!-- Node0 -->
<g id="node1" class="node"><title>Node0</title>
<polygon fill="#bfbfbf" stroke="black" points="0,-82.5 0,-112.5 146,-112.5 146,-82.5 0,-82.5"/>
<text text-anchor="start" x="8" y="-100.5" font-family="Helvetica,sans-Serif" font-size="10.00">RecentRequestsTableModel</text>
<text text-anchor="middle" x="73" y="-89.5" font-family="Helvetica,sans-Serif" font-size="10.00">::RecentRequestsTableModel</text>
</g>
<!-- Node1 -->
<g id="node2" class="node"><title>Node1</title>
<g id="a_node2"><a xlink:href="../../d1/d08/class_recent_requests_table_model.html#ae9866ffd5aed0f041437996410928edd" target="_top" xlink:title="RecentRequestsTableModel\l::addNewRequest">
<polygon fill="white" stroke="black" points="182,-175.5 182,-205.5 322,-205.5 322,-175.5 182,-175.5"/>
<text text-anchor="start" x="190" y="-193.5" font-family="Helvetica,sans-Serif" font-size="10.00">RecentRequestsTableModel</text>
<text text-anchor="middle" x="252" y="-182.5" font-family="Helvetica,sans-Serif" font-size="10.00">::addNewRequest</text>
</a>
</g>
</g>
<!-- Node0&#45;&gt;Node1 -->
<g id="edge1" class="edge"><title>Node0&#45;&gt;Node1</title>
<path fill="none" stroke="midnightblue" d="M94.6589,-112.777C115.79,-127.894 149.969,-150.963 182,-166.5 185.723,-168.306 189.618,-170.041 193.58,-171.695"/>
<polygon fill="midnightblue" stroke="midnightblue" points="192.313,-174.958 202.898,-175.399 194.899,-168.453 192.313,-174.958"/>
</g>
<!-- Node15 -->
<g id="node16" class="node"><title>Node15</title>
<g id="a_node16"><a xlink:href="../../d1/d08/class_recent_requests_table_model.html#ab0116f41ff8773ec18e68205b2917301" target="_top" xlink:title="Gets title for amount column including current display unit if optionsModel reference available...">
<polygon fill="white" stroke="black" points="534,-88.5 534,-118.5 674,-118.5 674,-88.5 534,-88.5"/>
<text text-anchor="start" x="542" y="-106.5" font-family="Helvetica,sans-Serif" font-size="10.00">RecentRequestsTableModel</text>
<text text-anchor="middle" x="604" y="-95.5" font-family="Helvetica,sans-Serif" font-size="10.00">::getAmountTitle</text>
</a>
</g>
</g>
<!-- Node0&#45;&gt;Node15 -->
<g id="edge16" class="edge"><title>Node0&#45;&gt;Node15</title>
<path fill="none" stroke="midnightblue" d="M146.17,-98.3186C244.847,-99.4378 421.27,-101.439 523.592,-102.599"/>
<polygon fill="midnightblue" stroke="midnightblue" points="523.827,-106.102 533.866,-102.716 523.907,-99.1026 523.827,-106.102"/>
</g>
<!-- Node16 -->
<g id="node17" class="node"><title>Node16</title>
<g id="a_node17"><a xlink:href="../../d4/d27/class_wallet_model.html#a96d53e56b3f8f07537ea2523f7a7d300" target="_top" xlink:title="WalletModel::getOptionsModel">
<polygon fill="white" stroke="black" points="710,-53 710,-72 860,-72 860,-53 710,-53"/>
<text text-anchor="middle" x="785" y="-60" font-family="Helvetica,sans-Serif" font-size="10.00">WalletModel::getOptionsModel</text>
</a>
</g>
</g>
<!-- Node0&#45;&gt;Node16 -->
<g id="edge21" class="edge"><title>Node0&#45;&gt;Node16</title>
<path fill="none" stroke="midnightblue" d="M146.316,-93.9352C278.553,-87.4164 558.674,-73.6076 699.473,-66.6668"/>
<polygon fill="midnightblue" stroke="midnightblue" points="699.961,-70.1471 709.777,-66.1589 699.617,-63.1556 699.961,-70.1471"/>
</g>
<!-- Node19 -->
<g id="node20" class="node"><title>Node19</title>
<g id="a_node20"><a xlink:href="../../d4/d27/class_wallet_model.html#a0ec10fbe74317b1949ac4ae63451d115" target="_top" xlink:title="WalletModel::loadReceive\lRequests">
<polygon fill="white" stroke="black" points="186.5,-0.5 186.5,-30.5 317.5,-30.5 317.5,-0.5 186.5,-0.5"/>
<text text-anchor="start" x="194.5" y="-18.5" font-family="Helvetica,sans-Serif" font-size="10.00">WalletModel::loadReceive</text>
<text text-anchor="middle" x="252" y="-7.5" font-family="Helvetica,sans-Serif" font-size="10.00">Requests</text>
</a>
</g>
</g>
<!-- Node0&#45;&gt;Node19 -->
<g id="edge22" class="edge"><title>Node0&#45;&gt;Node19</title>
<path fill="none" stroke="midnightblue" d="M104.576,-82.3901C126.12,-71.8388 155.7,-57.5434 182,-45.5 189.853,-41.9038 198.253,-38.1638 206.393,-34.5942"/>
<polygon fill="midnightblue" stroke="midnightblue" points="208.014,-37.706 215.782,-30.501 205.216,-31.2894 208.014,-37.706"/>
</g>
<!-- Node20 -->
<g id="node21" class="node"><title>Node20</title>
<g id="a_node21"><a xlink:href="../../d1/d08/class_recent_requests_table_model.html#a8c4fe82f628df4e3a46809514ba9fe03" target="_top" xlink:title="RecentRequestsTableModel\l::updateDisplayUnit">
<polygon fill="white" stroke="black" points="182,-126.5 182,-156.5 322,-156.5 322,-126.5 182,-126.5"/>
<text text-anchor="start" x="190" y="-144.5" font-family="Helvetica,sans-Serif" font-size="10.00">RecentRequestsTableModel</text>
<text text-anchor="middle" x="252" y="-133.5" font-family="Helvetica,sans-Serif" font-size="10.00">::updateDisplayUnit</text>
</a>
</g>
</g>
<!-- Node0&#45;&gt;Node20 -->
<g id="edge23" class="edge"><title>Node0&#45;&gt;Node20</title>
<path fill="none" stroke="midnightblue" d="M134.418,-112.519C149.288,-116.216 165.337,-120.205 180.632,-124.007"/>
<polygon fill="midnightblue" stroke="midnightblue" points="180.005,-127.458 190.554,-126.474 181.693,-120.665 180.005,-127.458"/>
</g>
<!-- Node2 -->
<g id="node3" class="node"><title>Node2</title>
<g id="a_node3"><a xlink:href="../../d4/d27/class_wallet_model.html#a88d44bc0994c1701386f63b1f266637f" target="_top" xlink:title="WalletModel::saveReceive\lRequest">
<polygon fill="white" stroke="black" points="361,-230.5 361,-260.5 495,-260.5 495,-230.5 361,-230.5"/>
<text text-anchor="start" x="369" y="-248.5" font-family="Helvetica,sans-Serif" font-size="10.00">WalletModel::saveReceive</text>
<text text-anchor="middle" x="428" y="-237.5" font-family="Helvetica,sans-Serif" font-size="10.00">Request</text>
</a>
</g>
</g>
<!-- Node1&#45;&gt;Node2 -->
<g id="edge2" class="edge"><title>Node1&#45;&gt;Node2</title>
<path fill="none" stroke="midnightblue" d="M300.546,-205.529C321.933,-212.289 347.355,-220.325 369.777,-227.412"/>
<polygon fill="midnightblue" stroke="midnightblue" points="368.921,-230.812 379.511,-230.489 371.031,-224.138 368.921,-230.812"/>
</g>
<!-- Node12 -->
<g id="node13" class="node"><title>Node12</title>
<g id="a_node13"><a xlink:href="../../d5/d41/class_c_data_stream.html#aac770a2b809917189c4476ee899b2d8b" target="_top" xlink:title="CDataStream::str">
<polygon fill="white" stroke="black" points="381,-176 381,-195 475,-195 475,-176 381,-176"/>
<text text-anchor="middle" x="428" y="-183" font-family="Helvetica,sans-Serif" font-size="10.00">CDataStream::str</text>
</a>
</g>
</g>
<!-- Node1&#45;&gt;Node12 -->
<g id="edge13" class="edge"><title>Node1&#45;&gt;Node12</title>
<path fill="none" stroke="midnightblue" d="M322.019,-188.517C338.054,-188.056 354.942,-187.571 370.371,-187.127"/>
<polygon fill="midnightblue" stroke="midnightblue" points="370.897,-190.614 380.792,-186.828 370.696,-183.617 370.897,-190.614"/>
</g>
<!-- Node3 -->
<g id="node4" class="node"><title>Node3</title>
<g id="a_node4"><a xlink:href="../../dd/db9/class_c_bitcoin_address.html#a1e44de10dfc84d1fd2e15150f1e22b8e" target="_top" xlink:title="CBitcoinAddress::Get">
<polygon fill="white" stroke="black" points="548,-309 548,-328 660,-328 660,-309 548,-309"/>
<text text-anchor="middle" x="604" y="-316" font-family="Helvetica,sans-Serif" font-size="10.00">CBitcoinAddress::Get</text>
</a>
</g>
</g>
<!-- Node2&#45;&gt;Node3 -->
<g id="edge3" class="edge"><title>Node2&#45;&gt;Node3</title>
<path fill="none" stroke="midnightblue" d="M465.053,-260.626C496.175,-273.683 540.728,-292.375 570.703,-304.95"/>
<polygon fill="midnightblue" stroke="midnightblue" points="569.694,-308.322 580.269,-308.964 572.402,-301.867 569.694,-308.322"/>
</g>
<!-- Node8 -->
<g id="node9" class="node"><title>Node8</title>
<g id="a_node9"><a xlink:href="../../d2/de5/class_c_wallet.html#a9a03cf9972842588178387839f0ded3c" target="_top" xlink:title="Erases a destination data tuple in the store and on disk. ">
<polygon fill="white" stroke="black" points="541.5,-252 541.5,-271 666.5,-271 666.5,-252 541.5,-252"/>
<text text-anchor="middle" x="604" y="-259" font-family="Helvetica,sans-Serif" font-size="10.00">CWallet::EraseDestData</text>
</a>
</g>
</g>
<!-- Node2&#45;&gt;Node8 -->
<g id="edge9" class="edge"><title>Node2&#45;&gt;Node8</title>
<path fill="none" stroke="midnightblue" d="M495.278,-251.595C507.015,-252.674 519.285,-253.802 531.166,-254.895"/>
<polygon fill="midnightblue" stroke="midnightblue" points="531.205,-258.413 541.484,-255.843 531.846,-251.442 531.205,-258.413"/>
</g>
<!-- Node10 -->
<g id="node11" class="node"><title>Node10</title>
<g id="a_node11"><a xlink:href="../../d2/de5/class_c_wallet.html#acbeae89a10e129930e5059d9167697e5" target="_top" xlink:title="Adds a destination data tuple to the store, and saves it to disk. ">
<polygon fill="white" stroke="black" points="545.5,-214 545.5,-233 662.5,-233 662.5,-214 545.5,-214"/>
<text text-anchor="middle" x="604" y="-221" font-family="Helvetica,sans-Serif" font-size="10.00">CWallet::AddDestData</text>
</a>
</g>
</g>
<!-- Node2&#45;&gt;Node10 -->
<g id="edge11" class="edge"><title>Node2&#45;&gt;Node10</title>
<path fill="none" stroke="midnightblue" d="M495.278,-237.12C508.442,-235.456 522.277,-233.706 535.481,-232.037"/>
<polygon fill="midnightblue" stroke="midnightblue" points="535.952,-235.505 545.434,-230.778 535.074,-228.561 535.952,-235.505"/>
</g>
<!-- Node4 -->
<g id="node5" class="node"><title>Node4</title>
<g id="a_node5"><a xlink:href="../../dd/db9/class_c_bitcoin_address.html#ab39907ce6895062a8f8bf585270ef13b" target="_top" xlink:title="CBitcoinAddress::IsValid">
<polygon fill="white" stroke="black" points="722,-280 722,-299 848,-299 848,-280 722,-280"/>
<text text-anchor="middle" x="785" y="-287" font-family="Helvetica,sans-Serif" font-size="10.00">CBitcoinAddress::IsValid</text>
</a>
</g>
</g>
<!-- Node3&#45;&gt;Node4 -->
<g id="edge4" class="edge"><title>Node3&#45;&gt;Node4</title>
<path fill="none" stroke="midnightblue" d="M660.166,-309.562C677.588,-306.74 697.055,-303.586 715.301,-300.63"/>
<polygon fill="midnightblue" stroke="midnightblue" points="715.979,-304.066 725.291,-299.012 714.86,-297.156 715.979,-304.066"/>
</g>
<!-- Node5 -->
<g id="node6" class="node"><title>Node5</title>
<g id="a_node6"><a xlink:href="../../df/dbf/chainparams_8cpp.html#ace5c5b706d71a324a417dd2db394fd4a" target="_top" xlink:title="Return the currently selected parameters. ">
<polygon fill="white" stroke="black" points="902,-280 902,-299 952,-299 952,-280 902,-280"/>
<text text-anchor="middle" x="927" y="-287" font-family="Helvetica,sans-Serif" font-size="10.00">Params</text>
</a>
</g>
</g>
<!-- Node3&#45;&gt;Node5 -->
<g id="edge8" class="edge"><title>Node3&#45;&gt;Node5</title>
<path fill="none" stroke="midnightblue" d="M660.096,-320.147C712,-320.803 791.764,-319.494 860,-308.5 870.595,-306.793 881.897,-303.938 892.101,-300.953"/>
<polygon fill="midnightblue" stroke="midnightblue" points="893.333,-304.236 901.871,-297.962 891.284,-297.543 893.333,-304.236"/>
</g>
<!-- Node6 -->
<g id="node7" class="node"><title>Node6</title>
<g id="a_node7"><a xlink:href="../../d5/d9f/glibc__compat_8cpp.html#a0f46826ab0466591e136db24394923cf" target="_top" xlink:title="memcpy">
<polygon fill="white" stroke="black" points="758,-356 758,-375 812,-375 812,-356 758,-356"/>
<text text-anchor="middle" x="785" y="-363" font-family="Helvetica,sans-Serif" font-size="10.00">memcpy</text>
</a>
</g>
</g>
<!-- Node3&#45;&gt;Node6 -->
<g id="edge6" class="edge"><title>Node3&#45;&gt;Node6</title>
<path fill="none" stroke="midnightblue" d="M641.223,-328.011C672.337,-336.181 716.957,-347.897 748.005,-356.049"/>
<polygon fill="midnightblue" stroke="midnightblue" points="747.414,-359.512 757.975,-358.667 749.192,-352.742 747.414,-359.512"/>
</g>
<!-- Node4&#45;&gt;Node5 -->
<g id="edge5" class="edge"><title>Node4&#45;&gt;Node5</title>
<path fill="none" stroke="midnightblue" d="M848.221,-289.5C863.204,-289.5 878.667,-289.5 891.821,-289.5"/>
<polygon fill="midnightblue" stroke="midnightblue" points="891.821,-293 901.821,-289.5 891.821,-286 891.821,-293"/>
</g>
<!-- Node7 -->
<g id="node8" class="node"><title>Node7</title>
<g id="a_node8"><a xlink:href="../../d5/d9f/glibc__compat_8cpp.html#a9778d49e9029dd75bc53ecbbf9f5e9a1" target="_top" xlink:title="memmove">
<polygon fill="white" stroke="black" points="896,-356 896,-375 958,-375 958,-356 896,-356"/>
<text text-anchor="middle" x="927" y="-363" font-family="Helvetica,sans-Serif" font-size="10.00">memmove</text>
</a>
</g>
</g>
<!-- Node6&#45;&gt;Node7 -->
<g id="edge7" class="edge"><title>Node6&#45;&gt;Node7</title>
<path fill="none" stroke="midnightblue" d="M812.005,-365.5C832.67,-365.5 861.937,-365.5 885.642,-365.5"/>
<polygon fill="midnightblue" stroke="midnightblue" points="885.754,-369 895.754,-365.5 885.754,-362 885.754,-369"/>
</g>
<!-- Node9 -->
<g id="node10" class="node"><title>Node9</title>
<g id="a_node10"><a xlink:href="../../d4/d90/class_c_wallet_d_b.html#a0403a98efe565020f8804eefbc808d90" target="_top" xlink:title="Erase destination data tuple from wallet database. ">
<polygon fill="white" stroke="black" points="715,-242 715,-261 855,-261 855,-242 715,-242"/>
<text text-anchor="middle" x="785" y="-249" font-family="Helvetica,sans-Serif" font-size="10.00">CWalletDB::EraseDestData</text>
</a>
</g>
</g>
<!-- Node8&#45;&gt;Node9 -->
<g id="edge10" class="edge"><title>Node8&#45;&gt;Node9</title>
<path fill="none" stroke="midnightblue" d="M666.602,-258.059C678.89,-257.372 691.959,-256.642 704.745,-255.928"/>
<polygon fill="midnightblue" stroke="midnightblue" points="705.129,-259.412 714.918,-255.359 704.738,-252.423 705.129,-259.412"/>
</g>
<!-- Node11 -->
<g id="node12" class="node"><title>Node11</title>
<g id="a_node12"><a xlink:href="../../d4/d90/class_c_wallet_d_b.html#af0de4949373dc3f0063db673fd8b24aa" target="_top" xlink:title="Write destination data key,value tuple to database. ">
<polygon fill="white" stroke="black" points="716.5,-204 716.5,-223 853.5,-223 853.5,-204 716.5,-204"/>
<text text-anchor="middle" x="785" y="-211" font-family="Helvetica,sans-Serif" font-size="10.00">CWalletDB::WriteDestData</text>
</a>
</g>
</g>
<!-- Node10&#45;&gt;Node11 -->
<g id="edge12" class="edge"><title>Node10&#45;&gt;Node11</title>
<path fill="none" stroke="midnightblue" d="M662.622,-220.281C676.49,-219.506 691.532,-218.666 706.152,-217.849"/>
<polygon fill="midnightblue" stroke="midnightblue" points="706.397,-221.341 716.186,-217.288 706.007,-214.352 706.397,-221.341"/>
</g>
<!-- Node13 -->
<g id="node14" class="node"><title>Node13</title>
<g id="a_node14"><a xlink:href="../../d5/d41/class_c_data_stream.html#a2355d11752d8622badfbc03e9ed192fd" target="_top" xlink:title="CDataStream::begin">
<polygon fill="white" stroke="black" points="551,-138 551,-157 657,-157 657,-138 551,-138"/>
<text text-anchor="middle" x="604" y="-145" font-family="Helvetica,sans-Serif" font-size="10.00">CDataStream::begin</text>
</a>
</g>
</g>
<!-- Node12&#45;&gt;Node13 -->
<g id="edge14" class="edge"><title>Node12&#45;&gt;Node13</title>
<path fill="none" stroke="midnightblue" d="M472.908,-175.911C496.179,-170.829 524.954,-164.545 549.519,-159.18"/>
<polygon fill="midnightblue" stroke="midnightblue" points="550.385,-162.573 559.408,-157.02 548.892,-155.734 550.385,-162.573"/>
</g>
<!-- Node14 -->
<g id="node15" class="node"><title>Node14</title>
<g id="a_node15"><a xlink:href="../../d5/d41/class_c_data_stream.html#a66409dbd4403682fe674e2e71173cab4" target="_top" xlink:title="CDataStream::end">
<polygon fill="white" stroke="black" points="555,-176 555,-195 653,-195 653,-176 555,-176"/>
<text text-anchor="middle" x="604" y="-183" font-family="Helvetica,sans-Serif" font-size="10.00">CDataStream::end</text>
</a>
</g>
</g>
<!-- Node12&#45;&gt;Node14 -->
<g id="edge15" class="edge"><title>Node12&#45;&gt;Node14</title>
<path fill="none" stroke="midnightblue" d="M475.172,-185.5C496.475,-185.5 522.003,-185.5 544.624,-185.5"/>
<polygon fill="midnightblue" stroke="midnightblue" points="544.788,-189 554.788,-185.5 544.788,-182 544.788,-189"/>
</g>
<!-- Node15&#45;&gt;Node16 -->
<g id="edge17" class="edge"><title>Node15&#45;&gt;Node16</title>
<path fill="none" stroke="midnightblue" d="M670.637,-88.4659C691.029,-83.7951 713.204,-78.7158 732.49,-74.2985"/>
<polygon fill="midnightblue" stroke="midnightblue" points="733.32,-77.6989 742.287,-72.0545 731.758,-70.8756 733.32,-77.6989"/>
</g>
<!-- Node17 -->
<g id="node18" class="node"><title>Node17</title>
<g id="a_node18"><a xlink:href="../../d3/dd0/class_bitcoin_units.html#a4cf46136434ed30728608e67e90a9cbe" target="_top" xlink:title="Short name. ">
<polygon fill="white" stroke="black" points="735,-154 735,-173 835,-173 835,-154 735,-154"/>
<text text-anchor="middle" x="785" y="-161" font-family="Helvetica,sans-Serif" font-size="10.00">BitcoinUnits::name</text>
</a>
</g>
</g>
<!-- Node15&#45;&gt;Node17 -->
<g id="edge18" class="edge"><title>Node15&#45;&gt;Node17</title>
<path fill="none" stroke="midnightblue" d="M650.169,-118.641C679.686,-128.535 717.81,-141.313 745.813,-150.7"/>
<polygon fill="midnightblue" stroke="midnightblue" points="745.043,-154.133 755.637,-153.993 747.268,-147.496 745.043,-154.133"/>
</g>
<!-- Node18 -->
<g id="node19" class="node"><title>Node18</title>
<g id="a_node19"><a xlink:href="../../da/d1f/class_options_model.html#a3b6e4d4ef42be3aaba315b8cd14f468e" target="_top" xlink:title="OptionsModel::getDisplayUnit">
<polygon fill="white" stroke="black" points="711.5,-94 711.5,-113 858.5,-113 858.5,-94 711.5,-94"/>
<text text-anchor="middle" x="785" y="-101" font-family="Helvetica,sans-Serif" font-size="10.00">OptionsModel::getDisplayUnit</text>
</a>
</g>
</g>
<!-- Node15&#45;&gt;Node18 -->
<g id="edge20" class="edge"><title>Node15&#45;&gt;Node18</title>
<path fill="none" stroke="midnightblue" d="M674.206,-103.5C683.069,-103.5 692.213,-103.5 701.264,-103.5"/>
<polygon fill="midnightblue" stroke="midnightblue" points="701.424,-107 711.424,-103.5 701.424,-100 701.424,-107"/>
</g>
<!-- Node17&#45;&gt;Node5 -->
<g id="edge19" class="edge"><title>Node17&#45;&gt;Node5</title>
<path fill="none" stroke="midnightblue" d="M819.874,-173.117C833.306,-178.043 848.304,-185.039 860,-194.5 886.031,-215.557 906.149,-249.479 917.015,-270.579"/>
<polygon fill="midnightblue" stroke="midnightblue" points="914.009,-272.394 921.592,-279.794 920.278,-269.281 914.009,-272.394"/>
</g>
<!-- Node21 -->
<g id="node22" class="node"><title>Node21</title>
<g id="a_node22"><a xlink:href="../../d1/d08/class_recent_requests_table_model.html#a8bc224f31142bd2da1c2729010ee84a3" target="_top" xlink:title="Updates the column title to &quot;Amount (DisplayUnit)&quot; and emits headerDataChanged() signal for table hea...">
<polygon fill="white" stroke="black" points="358,-126.5 358,-156.5 498,-156.5 498,-126.5 358,-126.5"/>
<text text-anchor="start" x="366" y="-144.5" font-family="Helvetica,sans-Serif" font-size="10.00">RecentRequestsTableModel</text>
<text text-anchor="middle" x="428" y="-133.5" font-family="Helvetica,sans-Serif" font-size="10.00">::updateAmountColumnTitle</text>
</a>
</g>
</g>
<!-- Node20&#45;&gt;Node21 -->
<g id="edge24" class="edge"><title>Node20&#45;&gt;Node21</title>
<path fill="none" stroke="midnightblue" d="M322.019,-141.5C330.476,-141.5 339.169,-141.5 347.761,-141.5"/>
<polygon fill="midnightblue" stroke="midnightblue" points="347.78,-145 357.779,-141.5 347.779,-138 347.78,-145"/>
</g>
<!-- Node21&#45;&gt;Node15 -->
<g id="edge25" class="edge"><title>Node21&#45;&gt;Node15</title>
<path fill="none" stroke="midnightblue" d="M497.769,-126.481C506.466,-124.582 515.416,-122.627 524.252,-120.698"/>
<polygon fill="midnightblue" stroke="midnightblue" points="525.137,-124.087 534.16,-118.534 523.644,-117.248 525.137,-124.087"/>
</g>
</g>
</svg>
        <g id="navigator" transform="translate(0 0)" fill="#404254">
                <rect fill="#f2f5e9" fill-opacity="0.5" stroke="#606060" stroke-width=".5" x="0" y="0" width="60" height="60"/>
                <use id="zoomplus" xlink:href="#zoomPlus" x="17" y="9" onmousedown="handleZoom(evt,'in')"/>
                <use id="zoomminus" xlink:href="#zoomMin" x="42" y="9" onmousedown="handleZoom(evt,'out')"/>
                <use id="reset" xlink:href="#resetDef" x="30" y="36" onmousedown="handleReset()"/>
                <g id="arrowUp" xlink:href="#dirArrow" transform="translate(30 24)" onmousedown="handlePan(0,-1)">
                  <use xlink:href="#rim" fill="#404040">
                        <set attributeName="fill" to="#808080" begin="arrowUp.mouseover" end="arrowUp.mouseout"/>
                  </use>
                  <path fill="none" stroke="white" stroke-width="1.5" d="M0,-3.0v7 M-2.5,-0.5L0,-3.0L2.5,-0.5"/>
                </g>
                <g id="arrowRight" xlink:href="#dirArrow" transform="rotate(90) translate(36 -43)" onmousedown="handlePan(1,0)">
                  <use xlink:href="#rim" fill="#404040">
                        <set attributeName="fill" to="#808080" begin="arrowRight.mouseover" end="arrowRight.mouseout"/>
                  </use>
                  <path fill="none" stroke="white" stroke-width="1.5" d="M0,-3.0v7 M-2.5,-0.5L0,-3.0L2.5,-0.5"/>
                </g>
                <g id="arrowDown" xlink:href="#dirArrow" transform="rotate(180) translate(-30 -48)" onmousedown="handlePan(0,1)">
                  <use xlink:href="#rim" fill="#404040">
                        <set attributeName="fill" to="#808080" begin="arrowDown.mouseover" end="arrowDown.mouseout"/>
                  </use>
                  <path fill="none" stroke="white" stroke-width="1.5" d="M0,-3.0v7 M-2.5,-0.5L0,-3.0L2.5,-0.5"/>
                </g>
                <g id="arrowLeft" xlink:href="#dirArrow" transform="rotate(270) translate(-36 17)" onmousedown="handlePan(-1,0)">
                  <use xlink:href="#rim" fill="#404040">
                        <set attributeName="fill" to="#808080" begin="arrowLeft.mouseover" end="arrowLeft.mouseout"/>
                  </use>
                  <path fill="none" stroke="white" stroke-width="1.5" d="M0,-3.0v7 M-2.5,-0.5L0,-3.0L2.5,-0.5"/>
                </g>
        </g>
        <svg viewBox="0 0 15 15" width="100%" height="30px" preserveAspectRatio="xMaxYMin meet">
         <g id="arrow_out" transform="scale(0.3 0.3)">
          <a xlink:href="class_recent_requests_table_model_ab3ef691b8c34e6d6e5ae0bdf7953a360_cgraph_org.svg" target="_base">
           <rect id="button" ry="5" rx="5" y="6" x="6" height="38" width="38"
                fill="#f2f5e9" fill-opacity="0.5" stroke="#606060" stroke-width="1.0"/>
           <path id="arrow"
             d="M 11.500037,31.436501 C 11.940474,20.09759 22.043105,11.32322 32.158766,21.979434 L 37.068811,17.246167 C 37.068811,17.246167 37.088388,32 37.088388,32 L 22.160133,31.978069 C 22.160133,31.978069 26.997745,27.140456 26.997745,27.140456 C 18.528582,18.264221 13.291696,25.230495 11.500037,31.436501 z"
             style="fill:#404040;"/>
          </a>
         </g>
        </svg>
</svg>
