<?xml version="1.0" encoding="UTF-8" standalone="no"?>
<!DOCTYPE svg PUBLIC "-//W3C//DTD SVG 1.1//EN"
 "http://www.w3.org/Graphics/SVG/1.1/DTD/svg11.dtd">
<!-- Generated by graphviz version 2.38.0 (20140413.2041)
 -->
<!-- Title: PaymentServer::verifyExpired Pages: 1 -->
<!--zoomable 192 -->
<svg id="main" version="1.1" xmlns="http://www.w3.org/2000/svg" xmlns:xlink="http://www.w3.org/1999/xlink" xml:space="preserve" onload="init(evt)">
<style type="text/css"><![CDATA[
.edge:hover path { stroke: red; }
.edge:hover polygon { stroke: red; fill: red; }
]]></style>
<script type="text/javascript"><![CDATA[
var edges = document.getElementsByTagName('g');
if (edges && edges.length) {
  for (var i=0;i<edges.length;i++) {
    if (edges[i].id.substr(0,4)=='edge') {
      edges[i].setAttribute('class','edge');
    }
  }
}
]]></script>
        <defs>
                <circle id="rim" cx="0" cy="0" r="7"/>
                <circle id="rim2" cx="0" cy="0" r="3.5"/>
                <g id="zoomPlus">
                        <use xlink:href="#rim" fill="#404040">
                                <set attributeName="fill" to="#808080" begin="zoomplus.mouseover" end="zoomplus.mouseout"/>
                        </use>
                        <path d="M-4,0h8M0,-4v8" fill="none" stroke="white" stroke-width="1.5" pointer-events="none"/>
                </g>
                <g id="zoomMin">
                        <use xlink:href="#rim" fill="#404040">
                                <set attributeName="fill" to="#808080" begin="zoomminus.mouseover" end="zoomminus.mouseout"/>
                        </use>
                        <path d="M-4,0h8" fill="none" stroke="white" stroke-width="1.5" pointer-events="none"/>
                </g>
                <g id="dirArrow">
                        <path fill="none" stroke="white" stroke-width="1.5" d="M0,-3.0v7 M-2.5,-0.5L0,-3.0L2.5,-0.5"/>
                </g>
               <g id="resetDef">
                       <use xlink:href="#rim2" fill="#404040">
                               <set attributeName="fill" to="#808080" begin="reset.mouseover" end="reset.mouseout"/>
                       </use>
               </g>
        </defs>

<script type="text/javascript">
var viewWidth = 970;
var viewHeight = 192;
var sectionId = 'dynsection-34';
</script>
<script xlink:href="../../svgpan.js"/>
<svg id="graph" class="graph">
<g id="viewport">
<title>PaymentServer::verifyExpired</title>
<polygon fill="white" stroke="none" points="-4,4 -4,-187.5 966,-187.5 966,4 -4,4"/>
<!-- Node967 -->
<g id="node1" class="node"><title>Node967</title>
<polygon fill="#bfbfbf" stroke="black" points="0,-28 0,-47 147,-47 147,-28 0,-28"/>
<text text-anchor="middle" x="73.5" y="-35" font-family="Helvetica,sans-Serif" font-size="10.00">PaymentServer::verifyExpired</text>
</g>
<!-- Node968 -->
<g id="node2" class="node"><title>Node968</title>
<g id="a_node2"><a xlink:href="../../de/dd5/class_payment_server.html#a19092e1d4d7c6eee3ec9d4390d11a092" target="_top" xlink:title="PaymentServer::processPayment\lRequest">
<polygon fill="white" stroke="black" points="183,-44.5 183,-74.5 347,-74.5 347,-44.5 183,-44.5"/>
<text text-anchor="start" x="191" y="-62.5" font-family="Helvetica,sans-Serif" font-size="10.00">PaymentServer::processPayment</text>
<text text-anchor="middle" x="265" y="-51.5" font-family="Helvetica,sans-Serif" font-size="10.00">Request</text>
</a>
</g>
</g>
<!-- Node967&#45;&gt;Node968 -->
<g id="edge1" class="edge"><title>Node967&#45;&gt;Node968</title>
<path fill="none" stroke="midnightblue" d="M157.182,-47.099C165.733,-48.0916 174.416,-49.0997 182.948,-50.0902"/>
<polygon fill="midnightblue" stroke="midnightblue" points="157.561,-43.6195 147.224,-45.9429 156.753,-50.5728 157.561,-43.6195"/>
</g>
<!-- Node976 -->
<g id="node10" class="node"><title>Node976</title>
<g id="a_node10"><a xlink:href="../../d4/d27/class_wallet_model.html#a53443aca544c824550f21e5f87e4ec39" target="_top" xlink:title="WalletModel::sendCoins">
<polygon fill="white" stroke="black" points="203.5,-6 203.5,-25 326.5,-25 326.5,-6 203.5,-6"/>
<text text-anchor="middle" x="265" y="-13" font-family="Helvetica,sans-Serif" font-size="10.00">WalletModel::sendCoins</text>
</a>
</g>
</g>
<!-- Node967&#45;&gt;Node976 -->
<g id="edge10" class="edge"><title>Node967&#45;&gt;Node976</title>
<path fill="none" stroke="midnightblue" d="M157.337,-27.8831C172.848,-26.0823 188.793,-24.2312 203.471,-22.5271"/>
<polygon fill="midnightblue" stroke="midnightblue" points="156.753,-24.4272 147.224,-29.0571 157.561,-31.3805 156.753,-24.4272"/>
</g>
<!-- Node969 -->
<g id="node3" class="node"><title>Node969</title>
<g id="a_node3"><a xlink:href="../../de/dd5/class_payment_server.html#adf4f844b3ce7f053690fd9260210640d" target="_top" xlink:title="PaymentServer::handleURIOrFile">
<polygon fill="white" stroke="black" points="383,-110 383,-129 546,-129 546,-110 383,-110"/>
<text text-anchor="middle" x="464.5" y="-117" font-family="Helvetica,sans-Serif" font-size="10.00">PaymentServer::handleURIOrFile</text>
</a>
</g>
</g>
<!-- Node968&#45;&gt;Node969 -->
<g id="edge2" class="edge"><title>Node968&#45;&gt;Node969</title>
<path fill="none" stroke="midnightblue" d="M325.258,-77.5025C360.379,-88.1722 403.479,-101.266 432.124,-109.968"/>
<polygon fill="midnightblue" stroke="midnightblue" points="326.168,-74.1211 315.583,-74.5631 324.133,-80.8188 326.168,-74.1211"/>
</g>
<!-- Node974 -->
<g id="node8" class="node"><title>Node974</title>
<g id="a_node8"><a xlink:href="../../de/dd5/class_payment_server.html#a5b8e2e6380142fb7ad631400bcfc6f28" target="_top" xlink:title="PaymentServer::netRequest\lFinished">
<polygon fill="white" stroke="black" points="394.5,-44.5 394.5,-74.5 534.5,-74.5 534.5,-44.5 394.5,-44.5"/>
<text text-anchor="start" x="402.5" y="-62.5" font-family="Helvetica,sans-Serif" font-size="10.00">PaymentServer::netRequest</text>
<text text-anchor="middle" x="464.5" y="-51.5" font-family="Helvetica,sans-Serif" font-size="10.00">Finished</text>
</a>
</g>
</g>
<!-- Node968&#45;&gt;Node974 -->
<g id="edge7" class="edge"><title>Node968&#45;&gt;Node974</title>
<path fill="none" stroke="midnightblue" d="M357.519,-59.5C369.884,-59.5 382.401,-59.5 394.289,-59.5"/>
<polygon fill="midnightblue" stroke="midnightblue" points="357.186,-56.0001 347.186,-59.5 357.186,-63.0001 357.186,-56.0001"/>
</g>
<!-- Node970 -->
<g id="node4" class="node"><title>Node970</title>
<g id="a_node4"><a xlink:href="../../de/dd5/class_payment_server.html#af795e3c318556c833792e530b279efc9" target="_top" xlink:title="PaymentServer::eventFilter">
<polygon fill="white" stroke="black" points="607,-164 607,-183 743,-183 743,-164 607,-164"/>
<text text-anchor="middle" x="675" y="-171" font-family="Helvetica,sans-Serif" font-size="10.00">PaymentServer::eventFilter</text>
</a>
</g>
</g>
<!-- Node969&#45;&gt;Node970 -->
<g id="edge3" class="edge"><title>Node969&#45;&gt;Node970</title>
<path fill="none" stroke="midnightblue" d="M504.53,-132.165C527.042,-139.233 555.961,-147.913 582,-154.5 595.44,-157.9 610.097,-161.136 623.682,-163.943"/>
<polygon fill="midnightblue" stroke="midnightblue" points="505.577,-128.825 494.987,-129.145 503.465,-135.499 505.577,-128.825"/>
</g>
<!-- Node971 -->
<g id="node5" class="node"><title>Node971</title>
<g id="a_node5"><a xlink:href="../../de/dd5/class_payment_server.html#a6ee6e29e1255605582459463d195a651" target="_top" xlink:title="PaymentServer::handleURIConnection">
<polygon fill="white" stroke="black" points="582,-126 582,-145 768,-145 768,-126 582,-126"/>
<text text-anchor="middle" x="675" y="-133" font-family="Helvetica,sans-Serif" font-size="10.00">PaymentServer::handleURIConnection</text>
</a>
</g>
</g>
<!-- Node969&#45;&gt;Node971 -->
<g id="edge4" class="edge"><title>Node969&#45;&gt;Node971</title>
<path fill="none" stroke="midnightblue" d="M556.337,-126.471C564.782,-127.119 573.345,-127.776 581.802,-128.425"/>
<polygon fill="midnightblue" stroke="midnightblue" points="556.35,-122.962 546.112,-125.686 555.814,-129.941 556.35,-122.962"/>
</g>
<!-- Node973 -->
<g id="node7" class="node"><title>Node973</title>
<g id="a_node7"><a xlink:href="../../de/dd5/class_payment_server.html#abb6c65fabbf97ba95381997ca9cd6993" target="_top" xlink:title="PaymentServer::uiReady">
<polygon fill="white" stroke="black" points="820,-69 820,-88 946,-88 946,-69 820,-69"/>
<text text-anchor="middle" x="883" y="-76" font-family="Helvetica,sans-Serif" font-size="10.00">PaymentServer::uiReady</text>
</a>
</g>
</g>
<!-- Node969&#45;&gt;Node973 -->
<g id="edge6" class="edge"><title>Node969&#45;&gt;Node973</title>
<path fill="none" stroke="midnightblue" d="M556.337,-110.558C636.077,-102.708 749.932,-91.5007 819.742,-84.6286"/>
<polygon fill="midnightblue" stroke="midnightblue" points="555.908,-107.083 546.299,-111.546 556.594,-114.05 555.908,-107.083"/>
</g>
<!-- Node972 -->
<g id="node6" class="node"><title>Node972</title>
<g id="a_node6"><a xlink:href="../../de/dd5/class_payment_server.html#a4a66f55c11f4757b121179d5d6988ab2" target="_top" xlink:title="PaymentServer::PaymentServer">
<polygon fill="white" stroke="black" points="804,-126 804,-145 962,-145 962,-126 804,-126"/>
<text text-anchor="middle" x="883" y="-133" font-family="Helvetica,sans-Serif" font-size="10.00">PaymentServer::PaymentServer</text>
</a>
</g>
</g>
<!-- Node971&#45;&gt;Node972 -->
<g id="edge5" class="edge"><title>Node971&#45;&gt;Node972</title>
<path fill="none" stroke="midnightblue" d="M778.22,-135.5C786.809,-135.5 795.405,-135.5 803.769,-135.5"/>
<polygon fill="midnightblue" stroke="midnightblue" points="778.155,-132 768.155,-135.5 778.155,-139 778.155,-132"/>
</g>
<!-- Node975 -->
<g id="node9" class="node"><title>Node975</title>
<g id="a_node9"><a xlink:href="../../de/dd5/class_payment_server.html#a2f94f2c3e12d03199870e17008535302" target="_top" xlink:title="PaymentServer::initNetManager">
<polygon fill="white" stroke="black" points="597,-50 597,-69 753,-69 753,-50 597,-50"/>
<text text-anchor="middle" x="675" y="-57" font-family="Helvetica,sans-Serif" font-size="10.00">PaymentServer::initNetManager</text>
</a>
</g>
</g>
<!-- Node974&#45;&gt;Node975 -->
<g id="edge8" class="edge"><title>Node974&#45;&gt;Node975</title>
<path fill="none" stroke="midnightblue" d="M545.061,-59.5C562.02,-59.5 579.904,-59.5 596.774,-59.5"/>
<polygon fill="midnightblue" stroke="midnightblue" points="544.638,-56.0001 534.638,-59.5 544.638,-63.0001 544.638,-56.0001"/>
</g>
<!-- Node975&#45;&gt;Node973 -->
<g id="edge9" class="edge"><title>Node975&#45;&gt;Node973</title>
<path fill="none" stroke="midnightblue" d="M763.411,-67.5622C782.335,-69.3076 801.978,-71.1193 819.704,-72.7543"/>
<polygon fill="midnightblue" stroke="midnightblue" points="763.572,-64.0623 753.293,-66.629 762.929,-71.0327 763.572,-64.0623"/>
</g>
<!-- Node977 -->
<g id="node11" class="node"><title>Node977</title>
<g id="a_node11"><a xlink:href="../../d6/de6/class_send_coins_dialog.html#aab03626a859f22a68760b235a1df6bc9" target="_top" xlink:title="SendCoinsDialog::send">
<polygon fill="white" stroke="black" points="405,-6 405,-25 524,-25 524,-6 405,-6"/>
<text text-anchor="middle" x="464.5" y="-13" font-family="Helvetica,sans-Serif" font-size="10.00">SendCoinsDialog::send</text>
</a>
</g>
</g>
<!-- Node976&#45;&gt;Node977 -->
<g id="edge11" class="edge"><title>Node976&#45;&gt;Node977</title>
<path fill="none" stroke="midnightblue" d="M336.676,-15.5C358.967,-15.5 383.34,-15.5 404.71,-15.5"/>
<polygon fill="midnightblue" stroke="midnightblue" points="336.599,-12.0001 326.599,-15.5 336.599,-19.0001 336.599,-12.0001"/>
</g>
<!-- Node978 -->
<g id="node12" class="node"><title>Node978</title>
<g id="a_node12"><a xlink:href="../../d6/de6/class_send_coins_dialog.html#a2cab7cf9ea5040b9e2189297f7d3c764" target="_top" xlink:title="SendCoinsDialog::on\l_sendButton_clicked">
<polygon fill="white" stroke="black" points="620.5,-0.5 620.5,-30.5 729.5,-30.5 729.5,-0.5 620.5,-0.5"/>
<text text-anchor="start" x="628.5" y="-18.5" font-family="Helvetica,sans-Serif" font-size="10.00">SendCoinsDialog::on</text>
<text text-anchor="middle" x="675" y="-7.5" font-family="Helvetica,sans-Serif" font-size="10.00">_sendButton_clicked</text>
</a>
</g>
</g>
<!-- Node977&#45;&gt;Node978 -->
<g id="edge12" class="edge"><title>Node977&#45;&gt;Node978</title>
<path fill="none" stroke="midnightblue" d="M534.265,-15.5C562.289,-15.5 594.197,-15.5 620.44,-15.5"/>
<polygon fill="midnightblue" stroke="midnightblue" points="534.134,-12.0001 524.134,-15.5 534.134,-19.0001 534.134,-12.0001"/>
</g>
</g>
</svg>
        <g id="navigator" transform="translate(0 0)" fill="#404254">
                <rect fill="#f2f5e9" fill-opacity="0.5" stroke="#606060" stroke-width=".5" x="0" y="0" width="60" height="60"/>
                <use id="zoomplus" xlink:href="#zoomPlus" x="17" y="9" onmousedown="handleZoom(evt,'in')"/>
                <use id="zoomminus" xlink:href="#zoomMin" x="42" y="9" onmousedown="handleZoom(evt,'out')"/>
                <use id="reset" xlink:href="#resetDef" x="30" y="36" onmousedown="handleReset()"/>
                <g id="arrowUp" xlink:href="#dirArrow" transform="translate(30 24)" onmousedown="handlePan(0,-1)">
                  <use xlink:href="#rim" fill="#404040">
                        <set attributeName="fill" to="#808080" begin="arrowUp.mouseover" end="arrowUp.mouseout"/>
                  </use>
                  <path fill="none" stroke="white" stroke-width="1.5" d="M0,-3.0v7 M-2.5,-0.5L0,-3.0L2.5,-0.5"/>
                </g>
                <g id="arrowRight" xlink:href="#dirArrow" transform="rotate(90) translate(36 -43)" onmousedown="handlePan(1,0)">
                  <use xlink:href="#rim" fill="#404040">
                        <set attributeName="fill" to="#808080" begin="arrowRight.mouseover" end="arrowRight.mouseout"/>
                  </use>
                  <path fill="none" stroke="white" stroke-width="1.5" d="M0,-3.0v7 M-2.5,-0.5L0,-3.0L2.5,-0.5"/>
                </g>
                <g id="arrowDown" xlink:href="#dirArrow" transform="rotate(180) translate(-30 -48)" onmousedown="handlePan(0,1)">
                  <use xlink:href="#rim" fill="#404040">
                        <set attributeName="fill" to="#808080" begin="arrowDown.mouseover" end="arrowDown.mouseout"/>
                  </use>
                  <path fill="none" stroke="white" stroke-width="1.5" d="M0,-3.0v7 M-2.5,-0.5L0,-3.0L2.5,-0.5"/>
                </g>
                <g id="arrowLeft" xlink:href="#dirArrow" transform="rotate(270) translate(-36 17)" onmousedown="handlePan(-1,0)">
                  <use xlink:href="#rim" fill="#404040">
                        <set attributeName="fill" to="#808080" begin="arrowLeft.mouseover" end="arrowLeft.mouseout"/>
                  </use>
                  <path fill="none" stroke="white" stroke-width="1.5" d="M0,-3.0v7 M-2.5,-0.5L0,-3.0L2.5,-0.5"/>
                </g>
        </g>
        <svg viewBox="0 0 15 15" width="100%" height="30px" preserveAspectRatio="xMaxYMin meet">
         <g id="arrow_out" transform="scale(0.3 0.3)">
          <a xlink:href="class_payment_server_a30e543bb181bb74366741459599d2118_icgraph_org.svg" target="_base">
           <rect id="button" ry="5" rx="5" y="6" x="6" height="38" width="38"
                fill="#f2f5e9" fill-opacity="0.5" stroke="#606060" stroke-width="1.0"/>
           <path id="arrow"
             d="M 11.500037,31.436501 C 11.940474,20.09759 22.043105,11.32322 32.158766,21.979434 L 37.068811,17.246167 C 37.068811,17.246167 37.088388,32 37.088388,32 L 22.160133,31.978069 C 22.160133,31.978069 26.997745,27.140456 26.997745,27.140456 C 18.528582,18.264221 13.291696,25.230495 11.500037,31.436501 z"
             style="fill:#404040;"/>
          </a>
         </g>
        </svg>
</svg>
