<?xml version="1.0" encoding="UTF-8" standalone="no"?>
<!DOCTYPE svg PUBLIC "-//W3C//DTD SVG 1.1//EN"
 "http://www.w3.org/Graphics/SVG/1.1/DTD/svg11.dtd">
<!-- Generated by graphviz version 2.38.0 (20140413.2041)
 -->
<!-- Title: CMasternodeConfig::CMasternodeEntry::getTxHash Pages: 1 -->
<!--zoomable 320 -->
<svg id="main" version="1.1" xmlns="http://www.w3.org/2000/svg" xmlns:xlink="http://www.w3.org/1999/xlink" xml:space="preserve" onload="init(evt)">
<style type="text/css"><![CDATA[
.edge:hover path { stroke: red; }
.edge:hover polygon { stroke: red; fill: red; }
]]></style>
<script type="text/javascript"><![CDATA[
var edges = document.getElementsByTagName('g');
if (edges && edges.length) {
  for (var i=0;i<edges.length;i++) {
    if (edges[i].id.substr(0,4)=='edge') {
      edges[i].setAttribute('class','edge');
    }
  }
}
]]></script>
        <defs>
                <circle id="rim" cx="0" cy="0" r="7"/>
                <circle id="rim2" cx="0" cy="0" r="3.5"/>
                <g id="zoomPlus">
                        <use xlink:href="#rim" fill="#404040">
                                <set attributeName="fill" to="#808080" begin="zoomplus.mouseover" end="zoomplus.mouseout"/>
                        </use>
                        <path d="M-4,0h8M0,-4v8" fill="none" stroke="white" stroke-width="1.5" pointer-events="none"/>
                </g>
                <g id="zoomMin">
                        <use xlink:href="#rim" fill="#404040">
                                <set attributeName="fill" to="#808080" begin="zoomminus.mouseover" end="zoomminus.mouseout"/>
                        </use>
                        <path d="M-4,0h8" fill="none" stroke="white" stroke-width="1.5" pointer-events="none"/>
                </g>
                <g id="dirArrow">
                        <path fill="none" stroke="white" stroke-width="1.5" d="M0,-3.0v7 M-2.5,-0.5L0,-3.0L2.5,-0.5"/>
                </g>
               <g id="resetDef">
                       <use xlink:href="#rim2" fill="#404040">
                               <set attributeName="fill" to="#808080" begin="reset.mouseover" end="reset.mouseout"/>
                       </use>
               </g>
        </defs>

<script type="text/javascript">
var viewWidth = 841;
var viewHeight = 320;
var sectionId = 'dynsection-4';
</script>
<script xlink:href="../../svgpan.js"/>
<svg id="graph" class="graph">
<g id="viewport">
<title>CMasternodeConfig::CMasternodeEntry::getTxHash</title>
<polygon fill="white" stroke="none" points="-4,4 -4,-316 837,-316 837,4 -4,4"/>
<!-- Node56 -->
<g id="node1" class="node"><title>Node56</title>
<polygon fill="#bfbfbf" stroke="black" points="0,-154 0,-184 152,-184 152,-154 0,-154"/>
<text text-anchor="start" x="8" y="-172" font-family="Helvetica,sans-Serif" font-size="10.00">CMasternodeConfig::</text>
<text text-anchor="middle" x="76" y="-161" font-family="Helvetica,sans-Serif" font-size="10.00">CMasternodeEntry::getTxHash</text>
</g>
<!-- Node57 -->
<g id="node2" class="node"><title>Node57</title>
<g id="a_node2"><a xlink:href="../../d8/dc0/init_8h.html#a6f0784aa332573f949b0975205572b28" target="_top" xlink:title="Initialize Dash Core. ">
<polygon fill="white" stroke="black" points="227.5,-273.5 227.5,-292.5 280.5,-292.5 280.5,-273.5 227.5,-273.5"/>
<text text-anchor="middle" x="254" y="-280.5" font-family="Helvetica,sans-Serif" font-size="10.00">AppInit2</text>
</a>
</g>
</g>
<!-- Node56&#45;&gt;Node57 -->
<g id="edge1" class="edge"><title>Node56&#45;&gt;Node57</title>
<path fill="none" stroke="midnightblue" d="M97.6405,-191.503C118.505,-212.993 152.637,-244.858 188,-264 200.2,-270.604 214.964,-275.157 227.335,-278.146"/>
<polygon fill="midnightblue" stroke="midnightblue" points="100.011,-188.918 90.5762,-184.098 94.9464,-193.749 100.011,-188.918"/>
</g>
<!-- Node61 -->
<g id="node6" class="node"><title>Node61</title>
<g id="a_node6"><a xlink:href="../../d8/dc3/server_8h.html#a0fa637689f8c63fc6adebeb9458430db" target="_top" xlink:title="gobject">
<polygon fill="white" stroke="black" points="230,-235.5 230,-254.5 278,-254.5 278,-235.5 230,-235.5"/>
<text text-anchor="middle" x="254" y="-242.5" font-family="Helvetica,sans-Serif" font-size="10.00">gobject</text>
</a>
</g>
</g>
<!-- Node56&#45;&gt;Node61 -->
<g id="edge5" class="edge"><title>Node56&#45;&gt;Node61</title>
<path fill="none" stroke="midnightblue" d="M111.572,-188.913C133.082,-200.754 161.589,-215.47 188,-226 201.542,-231.399 217.215,-236.026 229.778,-239.361"/>
<polygon fill="midnightblue" stroke="midnightblue" points="113.247,-185.84 102.807,-184.035 109.843,-191.956 113.247,-185.84"/>
</g>
<!-- Node62 -->
<g id="node7" class="node"><title>Node62</title>
<g id="a_node7"><a xlink:href="../../d8/dc3/server_8h.html#adc51a168fd3ea207996ae4f8d9d6c6ea" target="_top" xlink:title="masternode">
<polygon fill="white" stroke="black" points="220,-197.5 220,-216.5 288,-216.5 288,-197.5 220,-197.5"/>
<text text-anchor="middle" x="254" y="-204.5" font-family="Helvetica,sans-Serif" font-size="10.00">masternode</text>
</a>
</g>
</g>
<!-- Node56&#45;&gt;Node62 -->
<g id="edge6" class="edge"><title>Node56&#45;&gt;Node62</title>
<path fill="none" stroke="midnightblue" d="M156.381,-186.139C178.657,-190.949 201.677,-195.919 219.656,-199.801"/>
<polygon fill="midnightblue" stroke="midnightblue" points="157.073,-182.708 146.56,-184.019 155.596,-189.55 157.073,-182.708"/>
</g>
<!-- Node63 -->
<g id="node8" class="node"><title>Node63</title>
<g id="a_node8"><a xlink:href="../../d8/dc3/server_8h.html#a7ae813efd78b542bd5e3cddb01174777" target="_top" xlink:title="masternodebroadcast">
<polygon fill="white" stroke="black" points="199,-159.5 199,-178.5 309,-178.5 309,-159.5 199,-159.5"/>
<text text-anchor="middle" x="254" y="-166.5" font-family="Helvetica,sans-Serif" font-size="10.00">masternodebroadcast</text>
</a>
</g>
</g>
<!-- Node56&#45;&gt;Node63 -->
<g id="edge7" class="edge"><title>Node56&#45;&gt;Node63</title>
<path fill="none" stroke="midnightblue" d="M162.51,-169C174.886,-169 187.328,-169 198.856,-169"/>
<polygon fill="midnightblue" stroke="midnightblue" points="162.15,-165.5 152.15,-169 162.15,-172.5 162.15,-165.5"/>
</g>
<!-- Node64 -->
<g id="node9" class="node"><title>Node64</title>
<g id="a_node9"><a xlink:href="../../d0/d4c/class_masternode_list.html#ab3a42d1c66f3b28e9843335d8ce0178d" target="_top" xlink:title="MasternodeList::StartAlias">
<polygon fill="white" stroke="black" points="356,-0.5 356,-19.5 488,-19.5 488,-0.5 356,-0.5"/>
<text text-anchor="middle" x="422" y="-7.5" font-family="Helvetica,sans-Serif" font-size="10.00">MasternodeList::StartAlias</text>
</a>
</g>
</g>
<!-- Node56&#45;&gt;Node64 -->
<g id="edge8" class="edge"><title>Node56&#45;&gt;Node64</title>
<path fill="none" stroke="midnightblue" d="M94.5073,-145.797C114.405,-121.13 149.197,-82.8626 188,-62 240.384,-33.8354 307.253,-20.9069 355.907,-14.983"/>
<polygon fill="midnightblue" stroke="midnightblue" points="91.5566,-143.886 88.1081,-153.904 97.0512,-148.223 91.5566,-143.886"/>
</g>
<!-- Node67 -->
<g id="node12" class="node"><title>Node67</title>
<g id="a_node12"><a xlink:href="../../d0/d4c/class_masternode_list.html#a0ebd5301adf7567e6a82550ba6d02ccc" target="_top" xlink:title="MasternodeList::StartAll">
<polygon fill="white" stroke="black" points="361,-129.5 361,-148.5 483,-148.5 483,-129.5 361,-129.5"/>
<text text-anchor="middle" x="422" y="-136.5" font-family="Helvetica,sans-Serif" font-size="10.00">MasternodeList::StartAll</text>
</a>
</g>
</g>
<!-- Node56&#45;&gt;Node67 -->
<g id="edge11" class="edge"><title>Node56&#45;&gt;Node67</title>
<path fill="none" stroke="midnightblue" d="M162.224,-153.327C170.91,-152.056 179.618,-150.912 188,-150 246.577,-143.628 313.835,-140.946 360.984,-139.818"/>
<polygon fill="midnightblue" stroke="midnightblue" points="161.418,-149.909 152.058,-154.873 162.47,-156.83 161.418,-149.909"/>
</g>
<!-- Node70 -->
<g id="node15" class="node"><title>Node70</title>
<g id="a_node15"><a xlink:href="../../d0/d4c/class_masternode_list.html#abfb8462c699669f75f7a8005089bdb0a" target="_top" xlink:title="MasternodeList::updateMy\lNodeList">
<polygon fill="white" stroke="black" points="188,-72 188,-102 320,-102 320,-72 188,-72"/>
<text text-anchor="start" x="196" y="-90" font-family="Helvetica,sans-Serif" font-size="10.00">MasternodeList::updateMy</text>
<text text-anchor="middle" x="254" y="-79" font-family="Helvetica,sans-Serif" font-size="10.00">NodeList</text>
</a>
</g>
</g>
<!-- Node56&#45;&gt;Node70 -->
<g id="edge14" class="edge"><title>Node56&#45;&gt;Node70</title>
<path fill="none" stroke="midnightblue" d="M118.263,-149.602C139.149,-139.8 164.908,-127.738 188,-117 198.481,-112.126 209.925,-106.835 220.249,-102.072"/>
<polygon fill="midnightblue" stroke="midnightblue" points="116.601,-146.515 109.036,-153.933 119.576,-152.852 116.601,-146.515"/>
</g>
<!-- Node58 -->
<g id="node3" class="node"><title>Node58</title>
<g id="a_node3"><a xlink:href="../../dd/de1/dashd_8cpp.html#ac59316b767e6984e1285f0531275286b" target="_top" xlink:title="AppInit">
<polygon fill="white" stroke="black" points="398.5,-292.5 398.5,-311.5 445.5,-311.5 445.5,-292.5 398.5,-292.5"/>
<text text-anchor="middle" x="422" y="-299.5" font-family="Helvetica,sans-Serif" font-size="10.00">AppInit</text>
</a>
</g>
</g>
<!-- Node57&#45;&gt;Node58 -->
<g id="edge2" class="edge"><title>Node57&#45;&gt;Node58</title>
<path fill="none" stroke="midnightblue" d="M290.609,-287.076C323.243,-290.811 370.578,-296.229 398.333,-299.406"/>
<polygon fill="midnightblue" stroke="midnightblue" points="290.907,-283.587 280.574,-285.927 290.111,-290.542 290.907,-283.587"/>
</g>
<!-- Node60 -->
<g id="node5" class="node"><title>Node60</title>
<g id="a_node5"><a xlink:href="../../d2/d76/class_bitcoin_core.html#af34ca069cda1d4362dcc109b4397fb62" target="_top" xlink:title="BitcoinCore::initialize">
<polygon fill="white" stroke="black" points="367.5,-254.5 367.5,-273.5 476.5,-273.5 476.5,-254.5 367.5,-254.5"/>
<text text-anchor="middle" x="422" y="-261.5" font-family="Helvetica,sans-Serif" font-size="10.00">BitcoinCore::initialize</text>
</a>
</g>
</g>
<!-- Node57&#45;&gt;Node60 -->
<g id="edge4" class="edge"><title>Node57&#45;&gt;Node60</title>
<path fill="none" stroke="midnightblue" d="M290.615,-278.924C312.93,-276.369 342.116,-273.029 367.217,-270.156"/>
<polygon fill="midnightblue" stroke="midnightblue" points="290.111,-275.458 280.574,-280.073 290.907,-282.413 290.111,-275.458"/>
</g>
<!-- Node59 -->
<g id="node4" class="node"><title>Node59</title>
<g id="a_node4"><a xlink:href="../../dd/de1/dashd_8cpp.html#a0ddf1224851353fc92bfbff6f499fa97" target="_top" xlink:title="main">
<polygon fill="white" stroke="black" points="563.5,-292.5 563.5,-311.5 601.5,-311.5 601.5,-292.5 563.5,-292.5"/>
<text text-anchor="middle" x="582.5" y="-299.5" font-family="Helvetica,sans-Serif" font-size="10.00">main</text>
</a>
</g>
</g>
<!-- Node58&#45;&gt;Node59 -->
<g id="edge3" class="edge"><title>Node58&#45;&gt;Node59</title>
<path fill="none" stroke="midnightblue" d="M456.082,-302C488.634,-302 537.144,-302 563.267,-302"/>
<polygon fill="midnightblue" stroke="midnightblue" points="455.709,-298.5 445.709,-302 455.709,-305.5 455.709,-298.5"/>
</g>
<!-- Node65 -->
<g id="node10" class="node"><title>Node65</title>
<g id="a_node10"><a xlink:href="../../d0/d4c/class_masternode_list.html#a4370755b1dcdbf4a9396108c2b7ae76a" target="_top" xlink:title="MasternodeList::on\l_startButton_clicked">
<polygon fill="white" stroke="black" points="529.5,-17 529.5,-47 635.5,-47 635.5,-17 529.5,-17"/>
<text text-anchor="start" x="537.5" y="-35" font-family="Helvetica,sans-Serif" font-size="10.00">MasternodeList::on</text>
<text text-anchor="middle" x="582.5" y="-24" font-family="Helvetica,sans-Serif" font-size="10.00">_startButton_clicked</text>
</a>
</g>
</g>
<!-- Node64&#45;&gt;Node65 -->
<g id="edge9" class="edge"><title>Node64&#45;&gt;Node65</title>
<path fill="none" stroke="midnightblue" d="M498.372,-20.4617C508.844,-21.9153 519.407,-23.3814 529.327,-24.7583"/>
<polygon fill="midnightblue" stroke="midnightblue" points="498.769,-16.9834 488.383,-19.0753 497.807,-23.9169 498.769,-16.9834"/>
</g>
<!-- Node66 -->
<g id="node11" class="node"><title>Node66</title>
<g id="a_node11"><a xlink:href="../../d0/d4c/class_masternode_list.html#a257b85a08e7d691d1ecb35472043cf90" target="_top" xlink:title="MasternodeList::MasternodeList">
<polygon fill="white" stroke="black" points="677,-55.5 677,-74.5 833,-74.5 833,-55.5 677,-55.5"/>
<text text-anchor="middle" x="755" y="-62.5" font-family="Helvetica,sans-Serif" font-size="10.00">MasternodeList::MasternodeList</text>
</a>
</g>
</g>
<!-- Node65&#45;&gt;Node66 -->
<g id="edge10" class="edge"><title>Node65&#45;&gt;Node66</title>
<path fill="none" stroke="midnightblue" d="M645.602,-44.0197C665.114,-47.7962 686.376,-51.9114 704.859,-55.4889"/>
<polygon fill="midnightblue" stroke="midnightblue" points="646.065,-40.5445 635.582,-42.0804 644.735,-47.4169 646.065,-40.5445"/>
</g>
<!-- Node68 -->
<g id="node13" class="node"><title>Node68</title>
<g id="a_node13"><a xlink:href="../../d0/d4c/class_masternode_list.html#a12e7d7a66cc6ce787fb5de9babfd7358" target="_top" xlink:title="MasternodeList::on\l_startAllButton_clicked">
<polygon fill="white" stroke="black" points="524,-127 524,-157 641,-157 641,-127 524,-127"/>
<text text-anchor="start" x="532" y="-145" font-family="Helvetica,sans-Serif" font-size="10.00">MasternodeList::on</text>
<text text-anchor="middle" x="582.5" y="-134" font-family="Helvetica,sans-Serif" font-size="10.00">_startAllButton_clicked</text>
</a>
</g>
</g>
<!-- Node67&#45;&gt;Node68 -->
<g id="edge12" class="edge"><title>Node67&#45;&gt;Node68</title>
<path fill="none" stroke="midnightblue" d="M493.463,-140.334C503.643,-140.526 514.018,-140.723 523.907,-140.91"/>
<polygon fill="midnightblue" stroke="midnightblue" points="493.439,-136.833 483.374,-140.143 493.306,-143.831 493.439,-136.833"/>
</g>
<!-- Node69 -->
<g id="node14" class="node"><title>Node69</title>
<g id="a_node14"><a xlink:href="../../d0/d4c/class_masternode_list.html#a559cf1011eede788d0416c7390e25145" target="_top" xlink:title="MasternodeList::on\l_startMissingButton\l_clicked">
<polygon fill="white" stroke="black" points="530.5,-175.5 530.5,-216.5 634.5,-216.5 634.5,-175.5 530.5,-175.5"/>
<text text-anchor="start" x="538.5" y="-204.5" font-family="Helvetica,sans-Serif" font-size="10.00">MasternodeList::on</text>
<text text-anchor="start" x="538.5" y="-193.5" font-family="Helvetica,sans-Serif" font-size="10.00">_startMissingButton</text>
<text text-anchor="middle" x="582.5" y="-182.5" font-family="Helvetica,sans-Serif" font-size="10.00">_clicked</text>
</a>
</g>
</g>
<!-- Node67&#45;&gt;Node69 -->
<g id="edge13" class="edge"><title>Node67&#45;&gt;Node69</title>
<path fill="none" stroke="midnightblue" d="M459.045,-151.963C480.08,-159.527 506.963,-169.195 530.179,-177.544"/>
<polygon fill="midnightblue" stroke="midnightblue" points="460.124,-148.631 449.529,-148.541 457.755,-155.218 460.124,-148.631"/>
</g>
<!-- Node70&#45;&gt;Node64 -->
<g id="edge16" class="edge"><title>Node70&#45;&gt;Node64</title>
<path fill="none" stroke="midnightblue" d="M286.32,-66.4315C305.777,-54.316 331.642,-39.3798 356,-29 364.436,-25.405 373.766,-22.2368 382.662,-19.5691"/>
<polygon fill="midnightblue" stroke="midnightblue" points="284.446,-63.4749 277.859,-71.7731 288.184,-69.394 284.446,-63.4749"/>
</g>
<!-- Node70&#45;&gt;Node66 -->
<g id="edge15" class="edge"><title>Node70&#45;&gt;Node66</title>
<path fill="none" stroke="midnightblue" d="M330.396,-84.2831C376.019,-82.5905 435.361,-80.3029 488,-78 551.629,-75.2164 623.799,-71.6644 676.895,-68.977"/>
<polygon fill="midnightblue" stroke="midnightblue" points="330.153,-80.7896 320.289,-84.6567 330.412,-87.7849 330.153,-80.7896"/>
</g>
<!-- Node70&#45;&gt;Node67 -->
<g id="edge17" class="edge"><title>Node70&#45;&gt;Node67</title>
<path fill="none" stroke="midnightblue" d="M312.844,-105.12C339.027,-113.322 368.9,-122.679 390.606,-129.479"/>
<polygon fill="midnightblue" stroke="midnightblue" points="313.603,-101.69 303.014,-102.041 311.511,-108.37 313.603,-101.69"/>
</g>
<!-- Node71 -->
<g id="node16" class="node"><title>Node71</title>
<g id="a_node16"><a xlink:href="../../d0/d4c/class_masternode_list.html#ac16494ee5cfb2ac1dfed8af6e5b8f443" target="_top" xlink:title="MasternodeList::on\l_UpdateButton_clicked">
<polygon fill="white" stroke="black" points="363,-39 363,-69 481,-69 481,-39 363,-39"/>
<text text-anchor="start" x="371" y="-57" font-family="Helvetica,sans-Serif" font-size="10.00">MasternodeList::on</text>
<text text-anchor="middle" x="422" y="-46" font-family="Helvetica,sans-Serif" font-size="10.00">_UpdateButton_clicked</text>
</a>
</g>
</g>
<!-- Node70&#45;&gt;Node71 -->
<g id="edge18" class="edge"><title>Node70&#45;&gt;Node71</title>
<path fill="none" stroke="midnightblue" d="M330.127,-72.0651C341.092,-69.8854 352.242,-67.6688 362.802,-65.5695"/>
<polygon fill="midnightblue" stroke="midnightblue" points="329.257,-68.6695 320.131,-74.0522 330.622,-75.5352 329.257,-68.6695"/>
</g>
</g>
</svg>
        <g id="navigator" transform="translate(0 0)" fill="#404254">
                <rect fill="#f2f5e9" fill-opacity="0.5" stroke="#606060" stroke-width=".5" x="0" y="0" width="60" height="60"/>
                <use id="zoomplus" xlink:href="#zoomPlus" x="17" y="9" onmousedown="handleZoom(evt,'in')"/>
                <use id="zoomminus" xlink:href="#zoomMin" x="42" y="9" onmousedown="handleZoom(evt,'out')"/>
                <use id="reset" xlink:href="#resetDef" x="30" y="36" onmousedown="handleReset()"/>
                <g id="arrowUp" xlink:href="#dirArrow" transform="translate(30 24)" onmousedown="handlePan(0,-1)">
                  <use xlink:href="#rim" fill="#404040">
                        <set attributeName="fill" to="#808080" begin="arrowUp.mouseover" end="arrowUp.mouseout"/>
                  </use>
                  <path fill="none" stroke="white" stroke-width="1.5" d="M0,-3.0v7 M-2.5,-0.5L0,-3.0L2.5,-0.5"/>
                </g>
                <g id="arrowRight" xlink:href="#dirArrow" transform="rotate(90) translate(36 -43)" onmousedown="handlePan(1,0)">
                  <use xlink:href="#rim" fill="#404040">
                        <set attributeName="fill" to="#808080" begin="arrowRight.mouseover" end="arrowRight.mouseout"/>
                  </use>
                  <path fill="none" stroke="white" stroke-width="1.5" d="M0,-3.0v7 M-2.5,-0.5L0,-3.0L2.5,-0.5"/>
                </g>
                <g id="arrowDown" xlink:href="#dirArrow" transform="rotate(180) translate(-30 -48)" onmousedown="handlePan(0,1)">
                  <use xlink:href="#rim" fill="#404040">
                        <set attributeName="fill" to="#808080" begin="arrowDown.mouseover" end="arrowDown.mouseout"/>
                  </use>
                  <path fill="none" stroke="white" stroke-width="1.5" d="M0,-3.0v7 M-2.5,-0.5L0,-3.0L2.5,-0.5"/>
                </g>
                <g id="arrowLeft" xlink:href="#dirArrow" transform="rotate(270) translate(-36 17)" onmousedown="handlePan(-1,0)">
                  <use xlink:href="#rim" fill="#404040">
                        <set attributeName="fill" to="#808080" begin="arrowLeft.mouseover" end="arrowLeft.mouseout"/>
                  </use>
                  <path fill="none" stroke="white" stroke-width="1.5" d="M0,-3.0v7 M-2.5,-0.5L0,-3.0L2.5,-0.5"/>
                </g>
        </g>
        <svg viewBox="0 0 15 15" width="100%" height="30px" preserveAspectRatio="xMaxYMin meet">
         <g id="arrow_out" transform="scale(0.3 0.3)">
          <a xlink:href="class_c_masternode_config_1_1_c_masternode_entry_a08039c5a3271a278c64a706c4b53d29b_icgraph_org.svg" target="_base">
           <rect id="button" ry="5" rx="5" y="6" x="6" height="38" width="38"
                fill="#f2f5e9" fill-opacity="0.5" stroke="#606060" stroke-width="1.0"/>
           <path id="arrow"
             d="M 11.500037,31.436501 C 11.940474,20.09759 22.043105,11.32322 32.158766,21.979434 L 37.068811,17.246167 C 37.068811,17.246167 37.088388,32 37.088388,32 L 22.160133,31.978069 C 22.160133,31.978069 26.997745,27.140456 26.997745,27.140456 C 18.528582,18.264221 13.291696,25.230495 11.500037,31.436501 z"
             style="fill:#404040;"/>
          </a>
         </g>
        </svg>
</svg>
