<?xml version="1.0" encoding="UTF-8" standalone="no"?>
<!DOCTYPE svg PUBLIC "-//W3C//DTD SVG 1.1//EN"
 "http://www.w3.org/Graphics/SVG/1.1/DTD/svg11.dtd">
<!-- Generated by graphviz version 2.38.0 (20140413.2041)
 -->
<!-- Title: UniValue::isArray Pages: 1 -->
<!--zoomable 370 -->
<svg id="main" version="1.1" xmlns="http://www.w3.org/2000/svg" xmlns:xlink="http://www.w3.org/1999/xlink" xml:space="preserve" onload="init(evt)">
<style type="text/css"><![CDATA[
.edge:hover path { stroke: red; }
.edge:hover polygon { stroke: red; fill: red; }
]]></style>
<script type="text/javascript"><![CDATA[
var edges = document.getElementsByTagName('g');
if (edges && edges.length) {
  for (var i=0;i<edges.length;i++) {
    if (edges[i].id.substr(0,4)=='edge') {
      edges[i].setAttribute('class','edge');
    }
  }
}
]]></script>
        <defs>
                <circle id="rim" cx="0" cy="0" r="7"/>
                <circle id="rim2" cx="0" cy="0" r="3.5"/>
                <g id="zoomPlus">
                        <use xlink:href="#rim" fill="#404040">
                                <set attributeName="fill" to="#808080" begin="zoomplus.mouseover" end="zoomplus.mouseout"/>
                        </use>
                        <path d="M-4,0h8M0,-4v8" fill="none" stroke="white" stroke-width="1.5" pointer-events="none"/>
                </g>
                <g id="zoomMin">
                        <use xlink:href="#rim" fill="#404040">
                                <set attributeName="fill" to="#808080" begin="zoomminus.mouseover" end="zoomminus.mouseout"/>
                        </use>
                        <path d="M-4,0h8" fill="none" stroke="white" stroke-width="1.5" pointer-events="none"/>
                </g>
                <g id="dirArrow">
                        <path fill="none" stroke="white" stroke-width="1.5" d="M0,-3.0v7 M-2.5,-0.5L0,-3.0L2.5,-0.5"/>
                </g>
               <g id="resetDef">
                       <use xlink:href="#rim2" fill="#404040">
                               <set attributeName="fill" to="#808080" begin="reset.mouseover" end="reset.mouseout"/>
                       </use>
               </g>
        </defs>

<script type="text/javascript">
var viewWidth = 1262;
var viewHeight = 370;
var sectionId = 'dynsection-28';
</script>
<script xlink:href="../../svgpan.js"/>
<svg id="graph" class="graph">
<g id="viewport">
<title>UniValue::isArray</title>
<polygon fill="white" stroke="none" points="-4,4 -4,-366 1258,-366 1258,4 -4,4"/>
<!-- Node457 -->
<g id="node1" class="node"><title>Node457</title>
<polygon fill="#bfbfbf" stroke="black" points="0,-152.5 0,-171.5 93,-171.5 93,-152.5 0,-152.5"/>
<text text-anchor="middle" x="46.5" y="-159.5" font-family="Helvetica,sans-Serif" font-size="10.00">UniValue::isArray</text>
</g>
<!-- Node458 -->
<g id="node2" class="node"><title>Node458</title>
<g id="a_node2"><a xlink:href="../../d7/d5f/misc_8cpp.html#a74d1497f1e0ccd2a1da8ed34c0280eea" target="_top" xlink:title="getAddressesFromParams">
<polygon fill="white" stroke="black" points="129,-247.5 129,-266.5 262,-266.5 262,-247.5 129,-247.5"/>
<text text-anchor="middle" x="195.5" y="-254.5" font-family="Helvetica,sans-Serif" font-size="10.00">getAddressesFromParams</text>
</a>
</g>
</g>
<!-- Node457&#45;&gt;Node458 -->
<g id="edge1" class="edge"><title>Node457&#45;&gt;Node458</title>
<path fill="none" stroke="midnightblue" d="M68.8047,-177.642C85.0543,-189.389 108.122,-205.677 129,-219 144.959,-229.184 163.688,-239.935 177.022,-247.392"/>
<polygon fill="midnightblue" stroke="midnightblue" points="70.6823,-174.68 60.5358,-171.63 66.5661,-180.341 70.6823,-174.68"/>
</g>
<!-- Node464 -->
<g id="node8" class="node"><title>Node464</title>
<g id="a_node8"><a xlink:href="../../d8/dc3/server_8h.html#a054ca23f5d86a8ca30138464ba10008c" target="_top" xlink:title="getblocktemplate">
<polygon fill="white" stroke="black" points="150,-190.5 150,-209.5 241,-209.5 241,-190.5 150,-190.5"/>
<text text-anchor="middle" x="195.5" y="-197.5" font-family="Helvetica,sans-Serif" font-size="10.00">getblocktemplate</text>
</a>
</g>
</g>
<!-- Node457&#45;&gt;Node464 -->
<g id="edge7" class="edge"><title>Node457&#45;&gt;Node464</title>
<path fill="none" stroke="midnightblue" d="M94.3548,-174.112C114.828,-179.404 138.49,-185.521 157.672,-190.48"/>
<polygon fill="midnightblue" stroke="midnightblue" points="95.152,-170.703 84.5943,-171.589 93.4001,-177.48 95.152,-170.703"/>
</g>
<!-- Node465 -->
<g id="node9" class="node"><title>Node465</title>
<g id="a_node9"><a xlink:href="../../de/dc5/httprpc_8cpp.html#ac04bf0abd347883115f7c735693cfb44" target="_top" xlink:title="HTTPReq_JSONRPC">
<polygon fill="white" stroke="black" points="592,-114.5 592,-133.5 707,-133.5 707,-114.5 592,-114.5"/>
<text text-anchor="middle" x="649.5" y="-121.5" font-family="Helvetica,sans-Serif" font-size="10.00">HTTPReq_JSONRPC</text>
</a>
</g>
</g>
<!-- Node457&#45;&gt;Node465 -->
<g id="edge8" class="edge"><title>Node457&#45;&gt;Node465</title>
<path fill="none" stroke="midnightblue" d="M103.305,-161.245C197.043,-159.556 391.967,-154.241 556,-138 567.637,-136.848 580.045,-135.236 591.87,-133.515"/>
<polygon fill="midnightblue" stroke="midnightblue" points="103.134,-157.747 93.1966,-161.42 103.256,-164.746 103.134,-157.747"/>
</g>
<!-- Node472 -->
<g id="node16" class="node"><title>Node472</title>
<g id="a_node16"><a xlink:href="../../d8/d22/class_j_s_o_n_request.html#a728d6b823679ab6466c127402f940eea" target="_top" xlink:title="JSONRequest::parse">
<polygon fill="white" stroke="black" points="140.5,-114.5 140.5,-133.5 250.5,-133.5 250.5,-114.5 140.5,-114.5"/>
<text text-anchor="middle" x="195.5" y="-121.5" font-family="Helvetica,sans-Serif" font-size="10.00">JSONRequest::parse</text>
</a>
</g>
</g>
<!-- Node457&#45;&gt;Node472 -->
<g id="edge15" class="edge"><title>Node457&#45;&gt;Node472</title>
<path fill="none" stroke="midnightblue" d="M94.3548,-149.888C114.828,-144.596 138.49,-138.479 157.672,-133.52"/>
<polygon fill="midnightblue" stroke="midnightblue" points="93.4001,-146.52 84.5943,-152.411 95.152,-153.297 93.4001,-146.52"/>
</g>
<!-- Node475 -->
<g id="node19" class="node"><title>Node475</title>
<g id="a_node19"><a xlink:href="../../d8/de1/client_8h.html#a1bb8c6e9b4fd96cde71126b31e39657b" target="_top" xlink:title="Non&#45;RFC4627 JSON parser, accepts internal values (such as numbers, true, false, null) as well as obje...">
<polygon fill="white" stroke="black" points="129,-57.5 129,-76.5 262,-76.5 262,-57.5 129,-57.5"/>
<text text-anchor="middle" x="195.5" y="-64.5" font-family="Helvetica,sans-Serif" font-size="10.00">ParseNonRFCJSONValue</text>
</a>
</g>
</g>
<!-- Node457&#45;&gt;Node475 -->
<g id="edge20" class="edge"><title>Node457&#45;&gt;Node475</title>
<path fill="none" stroke="midnightblue" d="M68.8047,-146.358C85.0543,-134.611 108.122,-118.323 129,-105 144.959,-94.8159 163.688,-84.0655 177.022,-76.6082"/>
<polygon fill="midnightblue" stroke="midnightblue" points="66.5661,-143.659 60.5358,-152.37 70.6823,-149.32 66.5661,-143.659"/>
</g>
<!-- Node459 -->
<g id="node3" class="node"><title>Node459</title>
<g id="a_node3"><a xlink:href="../../d8/dc3/server_8h.html#a05e40b15500611c85e2c821a76ef13ae" target="_top" xlink:title="getaddressbalance">
<polygon fill="white" stroke="black" points="302,-342.5 302,-361.5 400,-361.5 400,-342.5 302,-342.5"/>
<text text-anchor="middle" x="351" y="-349.5" font-family="Helvetica,sans-Serif" font-size="10.00">getaddressbalance</text>
</a>
</g>
</g>
<!-- Node458&#45;&gt;Node459 -->
<g id="edge2" class="edge"><title>Node458&#45;&gt;Node459</title>
<path fill="none" stroke="midnightblue" d="M214.813,-273.337C234.318,-290.082 266.639,-316.009 298,-333 304.676,-336.617 312.184,-339.811 319.374,-342.499"/>
<polygon fill="midnightblue" stroke="midnightblue" points="216.88,-270.495 207.041,-266.565 212.281,-275.773 216.88,-270.495"/>
</g>
<!-- Node460 -->
<g id="node4" class="node"><title>Node460</title>
<g id="a_node4"><a xlink:href="../../d8/dc3/server_8h.html#a17a8c4a749756fbd165c8239de13ffc9" target="_top" xlink:title="getaddressdeltas">
<polygon fill="white" stroke="black" points="305.5,-304.5 305.5,-323.5 396.5,-323.5 396.5,-304.5 305.5,-304.5"/>
<text text-anchor="middle" x="351" y="-311.5" font-family="Helvetica,sans-Serif" font-size="10.00">getaddressdeltas</text>
</a>
</g>
</g>
<!-- Node458&#45;&gt;Node460 -->
<g id="edge3" class="edge"><title>Node458&#45;&gt;Node460</title>
<path fill="none" stroke="midnightblue" d="M231.352,-270.126C250.926,-277.478 275.808,-286.792 298,-295 306.384,-298.101 315.539,-301.456 323.798,-304.472"/>
<polygon fill="midnightblue" stroke="midnightblue" points="232.516,-266.824 221.924,-266.582 230.053,-273.377 232.516,-266.824"/>
</g>
<!-- Node461 -->
<g id="node5" class="node"><title>Node461</title>
<g id="a_node5"><a xlink:href="../../d8/dc3/server_8h.html#aa81a45c9d28650371ee967ce73bc215d" target="_top" xlink:title="getaddressmempool">
<polygon fill="white" stroke="black" points="299,-266.5 299,-285.5 403,-285.5 403,-266.5 299,-266.5"/>
<text text-anchor="middle" x="351" y="-273.5" font-family="Helvetica,sans-Serif" font-size="10.00">getaddressmempool</text>
</a>
</g>
</g>
<!-- Node458&#45;&gt;Node461 -->
<g id="edge4" class="edge"><title>Node458&#45;&gt;Node461</title>
<path fill="none" stroke="midnightblue" d="M272.131,-266.361C281.096,-267.471 290.082,-268.583 298.598,-269.638"/>
<polygon fill="midnightblue" stroke="midnightblue" points="272.397,-262.868 262.043,-265.113 271.537,-269.815 272.397,-262.868"/>
</g>
<!-- Node462 -->
<g id="node6" class="node"><title>Node462</title>
<g id="a_node6"><a xlink:href="../../d8/dc3/server_8h.html#a66c0a18ed8a096076d8efa94ecf87c30" target="_top" xlink:title="getaddresstxids">
<polygon fill="white" stroke="black" points="308,-228.5 308,-247.5 394,-247.5 394,-228.5 308,-228.5"/>
<text text-anchor="middle" x="351" y="-235.5" font-family="Helvetica,sans-Serif" font-size="10.00">getaddresstxids</text>
</a>
</g>
</g>
<!-- Node458&#45;&gt;Node462 -->
<g id="edge5" class="edge"><title>Node458&#45;&gt;Node462</title>
<path fill="none" stroke="midnightblue" d="M272.265,-247.622C284.477,-246.11 296.721,-244.595 307.762,-243.228"/>
<polygon fill="midnightblue" stroke="midnightblue" points="271.537,-244.185 262.043,-248.887 272.397,-251.132 271.537,-244.185"/>
</g>
<!-- Node463 -->
<g id="node7" class="node"><title>Node463</title>
<g id="a_node7"><a xlink:href="../../d8/dc3/server_8h.html#a9fd46cdbb9f6cdfc7a6033e7efd95a73" target="_top" xlink:title="getaddressutxos">
<polygon fill="white" stroke="black" points="306.5,-190.5 306.5,-209.5 395.5,-209.5 395.5,-190.5 306.5,-190.5"/>
<text text-anchor="middle" x="351" y="-197.5" font-family="Helvetica,sans-Serif" font-size="10.00">getaddressutxos</text>
</a>
</g>
</g>
<!-- Node458&#45;&gt;Node463 -->
<g id="edge6" class="edge"><title>Node458&#45;&gt;Node463</title>
<path fill="none" stroke="midnightblue" d="M231.352,-243.874C250.926,-236.522 275.808,-227.208 298,-219 306.384,-215.899 315.539,-212.544 323.798,-209.528"/>
<polygon fill="midnightblue" stroke="midnightblue" points="230.053,-240.623 221.924,-247.418 232.516,-247.176 230.053,-240.623"/>
</g>
<!-- Node466 -->
<g id="node10" class="node"><title>Node466</title>
<g id="a_node10"><a xlink:href="../../df/de8/httprpc_8h.html#a7d820e9f4f9a27793dd7648813b802f6" target="_top" xlink:title="Start HTTP RPC subsystem. ">
<polygon fill="white" stroke="black" points="743,-114.5 743,-133.5 829,-133.5 829,-114.5 743,-114.5"/>
<text text-anchor="middle" x="786" y="-121.5" font-family="Helvetica,sans-Serif" font-size="10.00">StartHTTPRPC</text>
</a>
</g>
</g>
<!-- Node465&#45;&gt;Node466 -->
<g id="edge9" class="edge"><title>Node465&#45;&gt;Node466</title>
<path fill="none" stroke="midnightblue" d="M717.279,-124C725.941,-124 734.614,-124 742.722,-124"/>
<polygon fill="midnightblue" stroke="midnightblue" points="717.15,-120.5 707.15,-124 717.15,-127.5 717.15,-120.5"/>
</g>
<!-- Node467 -->
<g id="node11" class="node"><title>Node467</title>
<g id="a_node11"><a xlink:href="../../d0/dc9/init_8cpp.html#a7769d5957df16d51f1164473c8631aa7" target="_top" xlink:title="AppInitServers">
<polygon fill="white" stroke="black" points="865,-114.5 865,-133.5 946,-133.5 946,-114.5 865,-114.5"/>
<text text-anchor="middle" x="905.5" y="-121.5" font-family="Helvetica,sans-Serif" font-size="10.00">AppInitServers</text>
</a>
</g>
</g>
<!-- Node466&#45;&gt;Node467 -->
<g id="edge10" class="edge"><title>Node466&#45;&gt;Node467</title>
<path fill="none" stroke="midnightblue" d="M839.326,-124C847.834,-124 856.523,-124 864.669,-124"/>
<polygon fill="midnightblue" stroke="midnightblue" points="839.088,-120.5 829.088,-124 839.088,-127.5 839.088,-120.5"/>
</g>
<!-- Node468 -->
<g id="node12" class="node"><title>Node468</title>
<g id="a_node12"><a xlink:href="../../d8/dc0/init_8h.html#a6f0784aa332573f949b0975205572b28" target="_top" xlink:title="Initialize Dash Core. ">
<polygon fill="white" stroke="black" points="982,-114.5 982,-133.5 1035,-133.5 1035,-114.5 982,-114.5"/>
<text text-anchor="middle" x="1008.5" y="-121.5" font-family="Helvetica,sans-Serif" font-size="10.00">AppInit2</text>
</a>
</g>
</g>
<!-- Node467&#45;&gt;Node468 -->
<g id="edge11" class="edge"><title>Node467&#45;&gt;Node468</title>
<path fill="none" stroke="midnightblue" d="M956.146,-124C965.085,-124 974.059,-124 981.949,-124"/>
<polygon fill="midnightblue" stroke="midnightblue" points="956.128,-120.5 946.128,-124 956.128,-127.5 956.128,-120.5"/>
</g>
<!-- Node469 -->
<g id="node13" class="node"><title>Node469</title>
<g id="a_node13"><a xlink:href="../../dd/de1/dashd_8cpp.html#ac59316b767e6984e1285f0531275286b" target="_top" xlink:title="AppInit">
<polygon fill="white" stroke="black" points="1102,-133.5 1102,-152.5 1149,-152.5 1149,-133.5 1102,-133.5"/>
<text text-anchor="middle" x="1125.5" y="-140.5" font-family="Helvetica,sans-Serif" font-size="10.00">AppInit</text>
</a>
</g>
</g>
<!-- Node468&#45;&gt;Node469 -->
<g id="edge12" class="edge"><title>Node468&#45;&gt;Node469</title>
<path fill="none" stroke="midnightblue" d="M1045.14,-129.888C1063.61,-132.941 1085.63,-136.577 1101.78,-139.246"/>
<polygon fill="midnightblue" stroke="midnightblue" points="1045.46,-126.394 1035.02,-128.217 1044.32,-133.3 1045.46,-126.394"/>
</g>
<!-- Node471 -->
<g id="node15" class="node"><title>Node471</title>
<g id="a_node15"><a xlink:href="../../d2/d76/class_bitcoin_core.html#af34ca069cda1d4362dcc109b4397fb62" target="_top" xlink:title="BitcoinCore::initialize">
<polygon fill="white" stroke="black" points="1071,-95.5 1071,-114.5 1180,-114.5 1180,-95.5 1071,-95.5"/>
<text text-anchor="middle" x="1125.5" y="-102.5" font-family="Helvetica,sans-Serif" font-size="10.00">BitcoinCore::initialize</text>
</a>
</g>
</g>
<!-- Node468&#45;&gt;Node471 -->
<g id="edge14" class="edge"><title>Node468&#45;&gt;Node471</title>
<path fill="none" stroke="midnightblue" d="M1044.95,-118.143C1053.13,-116.791 1062.02,-115.323 1070.79,-113.874"/>
<polygon fill="midnightblue" stroke="midnightblue" points="1044.32,-114.7 1035.02,-119.783 1045.46,-121.606 1044.32,-114.7"/>
</g>
<!-- Node470 -->
<g id="node14" class="node"><title>Node470</title>
<g id="a_node14"><a xlink:href="../../dd/de1/dashd_8cpp.html#a0ddf1224851353fc92bfbff6f499fa97" target="_top" xlink:title="main">
<polygon fill="white" stroke="black" points="1216,-133.5 1216,-152.5 1254,-152.5 1254,-133.5 1216,-133.5"/>
<text text-anchor="middle" x="1235" y="-140.5" font-family="Helvetica,sans-Serif" font-size="10.00">main</text>
</a>
</g>
</g>
<!-- Node469&#45;&gt;Node470 -->
<g id="edge13" class="edge"><title>Node469&#45;&gt;Node470</title>
<path fill="none" stroke="midnightblue" d="M1159.15,-143C1177.73,-143 1200.3,-143 1215.77,-143"/>
<polygon fill="midnightblue" stroke="midnightblue" points="1159.04,-139.5 1149.04,-143 1159.04,-146.5 1159.04,-139.5"/>
</g>
<!-- Node472&#45;&gt;Node465 -->
<g id="edge16" class="edge"><title>Node472&#45;&gt;Node465</title>
<path fill="none" stroke="midnightblue" d="M260.757,-124C349.331,-124 507.532,-124 591.881,-124"/>
<polygon fill="midnightblue" stroke="midnightblue" points="260.573,-120.5 250.573,-124 260.573,-127.5 260.573,-120.5"/>
</g>
<!-- Node473 -->
<g id="node17" class="node"><title>Node473</title>
<g id="a_node17"><a xlink:href="../../df/dd7/server_8cpp.html#a1bd3251efe272d5201f044d838936d6b" target="_top" xlink:title="JSONRPCExecOne">
<polygon fill="white" stroke="black" points="298,-76.5 298,-95.5 404,-95.5 404,-76.5 298,-76.5"/>
<text text-anchor="middle" x="351" y="-83.5" font-family="Helvetica,sans-Serif" font-size="10.00">JSONRPCExecOne</text>
</a>
</g>
</g>
<!-- Node472&#45;&gt;Node473 -->
<g id="edge17" class="edge"><title>Node472&#45;&gt;Node473</title>
<path fill="none" stroke="midnightblue" d="M245.135,-111.96C266.58,-106.651 291.423,-100.501 311.544,-95.5201"/>
<polygon fill="midnightblue" stroke="midnightblue" points="244.1,-108.61 235.235,-114.411 245.783,-115.405 244.1,-108.61"/>
</g>
<!-- Node474 -->
<g id="node18" class="node"><title>Node474</title>
<g id="a_node18"><a xlink:href="../../d8/dc3/server_8h.html#a7b64a127788a5ae9692d850929dd8f82" target="_top" xlink:title="JSONRPCExecBatch">
<polygon fill="white" stroke="black" points="441.5,-76.5 441.5,-95.5 554.5,-95.5 554.5,-76.5 441.5,-76.5"/>
<text text-anchor="middle" x="498" y="-83.5" font-family="Helvetica,sans-Serif" font-size="10.00">JSONRPCExecBatch</text>
</a>
</g>
</g>
<!-- Node473&#45;&gt;Node474 -->
<g id="edge18" class="edge"><title>Node473&#45;&gt;Node474</title>
<path fill="none" stroke="midnightblue" d="M414.636,-86C423.505,-86 432.576,-86 441.302,-86"/>
<polygon fill="midnightblue" stroke="midnightblue" points="414.348,-82.5001 404.348,-86 414.348,-89.5001 414.348,-82.5001"/>
</g>
<!-- Node474&#45;&gt;Node465 -->
<g id="edge19" class="edge"><title>Node474&#45;&gt;Node465</title>
<path fill="none" stroke="midnightblue" d="M546.652,-98.1121C567.473,-103.404 591.538,-109.521 611.046,-114.48"/>
<polygon fill="midnightblue" stroke="midnightblue" points="547.279,-94.6604 536.725,-95.589 545.555,-101.445 547.279,-94.6604"/>
</g>
<!-- Node476 -->
<g id="node20" class="node"><title>Node476</title>
<g id="a_node20"><a xlink:href="../../d8/de1/client_8h.html#a1ea35c5db48e1175cdd55e4feb0ca6c8" target="_top" xlink:title="Convert strings to command&#45;specific RPC representation. ">
<polygon fill="white" stroke="black" points="299.5,-38.5 299.5,-57.5 402.5,-57.5 402.5,-38.5 299.5,-38.5"/>
<text text-anchor="middle" x="351" y="-45.5" font-family="Helvetica,sans-Serif" font-size="10.00">RPCConvertValues</text>
</a>
</g>
</g>
<!-- Node475&#45;&gt;Node476 -->
<g id="edge21" class="edge"><title>Node475&#45;&gt;Node476</title>
<path fill="none" stroke="midnightblue" d="M271.972,-57.6581C281.155,-56.5216 290.361,-55.382 299.067,-54.3045"/>
<polygon fill="midnightblue" stroke="midnightblue" points="271.537,-54.1852 262.043,-58.8872 272.397,-61.1322 271.537,-54.1852"/>
</g>
<!-- Node477 -->
<g id="node21" class="node"><title>Node477</title>
<g id="a_node21"><a xlink:href="../../d5/d70/dash-cli_8cpp.html#a4ee23259648a971c9c05aeff8b545a6d" target="_top" xlink:title="CommandLineRPC">
<polygon fill="white" stroke="black" points="447.5,-38.5 447.5,-57.5 548.5,-57.5 548.5,-38.5 447.5,-38.5"/>
<text text-anchor="middle" x="498" y="-45.5" font-family="Helvetica,sans-Serif" font-size="10.00">CommandLineRPC</text>
</a>
</g>
</g>
<!-- Node476&#45;&gt;Node477 -->
<g id="edge22" class="edge"><title>Node476&#45;&gt;Node477</title>
<path fill="none" stroke="midnightblue" d="M412.995,-48C424.344,-48 436.079,-48 447.048,-48"/>
<polygon fill="midnightblue" stroke="midnightblue" points="412.714,-44.5001 402.714,-48 412.714,-51.5001 412.714,-44.5001"/>
</g>
<!-- Node479 -->
<g id="node23" class="node"><title>Node479</title>
<g id="a_node23"><a xlink:href="../../de/dd5/class_r_p_c_executor.html#a26e314b5c74eef7a5d310578e1cdb1eb" target="_top" xlink:title="RPCExecutor::request">
<polygon fill="white" stroke="black" points="440,-0.5 440,-19.5 556,-19.5 556,-0.5 440,-0.5"/>
<text text-anchor="middle" x="498" y="-7.5" font-family="Helvetica,sans-Serif" font-size="10.00">RPCExecutor::request</text>
</a>
</g>
</g>
<!-- Node476&#45;&gt;Node479 -->
<g id="edge24" class="edge"><title>Node476&#45;&gt;Node479</title>
<path fill="none" stroke="midnightblue" d="M398.493,-35.8157C418.624,-30.54 441.838,-24.4562 460.673,-19.5201"/>
<polygon fill="midnightblue" stroke="midnightblue" points="397.376,-32.4902 388.59,-38.411 399.15,-39.2615 397.376,-32.4902"/>
</g>
<!-- Node478 -->
<g id="node22" class="node"><title>Node478</title>
<g id="a_node22"><a xlink:href="../../d5/d70/dash-cli_8cpp.html#a0ddf1224851353fc92bfbff6f499fa97" target="_top" xlink:title="main">
<polygon fill="white" stroke="black" points="630.5,-38.5 630.5,-57.5 668.5,-57.5 668.5,-38.5 630.5,-38.5"/>
<text text-anchor="middle" x="649.5" y="-45.5" font-family="Helvetica,sans-Serif" font-size="10.00">main</text>
</a>
</g>
</g>
<!-- Node477&#45;&gt;Node478 -->
<g id="edge23" class="edge"><title>Node477&#45;&gt;Node478</title>
<path fill="none" stroke="midnightblue" d="M558.824,-48C584.441,-48 612.496,-48 630.283,-48"/>
<polygon fill="midnightblue" stroke="midnightblue" points="558.781,-44.5001 548.781,-48 558.781,-51.5001 558.781,-44.5001"/>
</g>
</g>
</svg>
        <g id="navigator" transform="translate(0 0)" fill="#404254">
                <rect fill="#f2f5e9" fill-opacity="0.5" stroke="#606060" stroke-width=".5" x="0" y="0" width="60" height="60"/>
                <use id="zoomplus" xlink:href="#zoomPlus" x="17" y="9" onmousedown="handleZoom(evt,'in')"/>
                <use id="zoomminus" xlink:href="#zoomMin" x="42" y="9" onmousedown="handleZoom(evt,'out')"/>
                <use id="reset" xlink:href="#resetDef" x="30" y="36" onmousedown="handleReset()"/>
                <g id="arrowUp" xlink:href="#dirArrow" transform="translate(30 24)" onmousedown="handlePan(0,-1)">
                  <use xlink:href="#rim" fill="#404040">
                        <set attributeName="fill" to="#808080" begin="arrowUp.mouseover" end="arrowUp.mouseout"/>
                  </use>
                  <path fill="none" stroke="white" stroke-width="1.5" d="M0,-3.0v7 M-2.5,-0.5L0,-3.0L2.5,-0.5"/>
                </g>
                <g id="arrowRight" xlink:href="#dirArrow" transform="rotate(90) translate(36 -43)" onmousedown="handlePan(1,0)">
                  <use xlink:href="#rim" fill="#404040">
                        <set attributeName="fill" to="#808080" begin="arrowRight.mouseover" end="arrowRight.mouseout"/>
                  </use>
                  <path fill="none" stroke="white" stroke-width="1.5" d="M0,-3.0v7 M-2.5,-0.5L0,-3.0L2.5,-0.5"/>
                </g>
                <g id="arrowDown" xlink:href="#dirArrow" transform="rotate(180) translate(-30 -48)" onmousedown="handlePan(0,1)">
                  <use xlink:href="#rim" fill="#404040">
                        <set attributeName="fill" to="#808080" begin="arrowDown.mouseover" end="arrowDown.mouseout"/>
                  </use>
                  <path fill="none" stroke="white" stroke-width="1.5" d="M0,-3.0v7 M-2.5,-0.5L0,-3.0L2.5,-0.5"/>
                </g>
                <g id="arrowLeft" xlink:href="#dirArrow" transform="rotate(270) translate(-36 17)" onmousedown="handlePan(-1,0)">
                  <use xlink:href="#rim" fill="#404040">
                        <set attributeName="fill" to="#808080" begin="arrowLeft.mouseover" end="arrowLeft.mouseout"/>
                  </use>
                  <path fill="none" stroke="white" stroke-width="1.5" d="M0,-3.0v7 M-2.5,-0.5L0,-3.0L2.5,-0.5"/>
                </g>
        </g>
        <svg viewBox="0 0 15 15" width="100%" height="30px" preserveAspectRatio="xMaxYMin meet">
         <g id="arrow_out" transform="scale(0.3 0.3)">
          <a xlink:href="class_uni_value_a1d2e9479d4fb330a73e0fd41197aec35_icgraph_org.svg" target="_base">
           <rect id="button" ry="5" rx="5" y="6" x="6" height="38" width="38"
                fill="#f2f5e9" fill-opacity="0.5" stroke="#606060" stroke-width="1.0"/>
           <path id="arrow"
             d="M 11.500037,31.436501 C 11.940474,20.09759 22.043105,11.32322 32.158766,21.979434 L 37.068811,17.246167 C 37.068811,17.246167 37.088388,32 37.088388,32 L 22.160133,31.978069 C 22.160133,31.978069 26.997745,27.140456 26.997745,27.140456 C 18.528582,18.264221 13.291696,25.230495 11.500037,31.436501 z"
             style="fill:#404040;"/>
          </a>
         </g>
        </svg>
</svg>
