<?xml version="1.0" encoding="UTF-8" standalone="no"?>
<!DOCTYPE svg PUBLIC "-//W3C//DTD SVG 1.1//EN"
 "http://www.w3.org/Graphics/SVG/1.1/DTD/svg11.dtd">
<!-- Generated by graphviz version 2.38.0 (20140413.2041)
 -->
<!-- Title: CNetFulfilledRequestManager Pages: 1 -->
<svg width="196pt" height="163pt"
 viewBox="0.00 0.00 196.00 163.00" xmlns="http://www.w3.org/2000/svg" xmlns:xlink="http://www.w3.org/1999/xlink">
<g id="graph0" class="graph" transform="scale(1 1) rotate(0) translate(4 159)">
<title>CNetFulfilledRequestManager</title>
<polygon fill="white" stroke="none" points="-4,4 -4,-159 192,-159 192,4 -4,4"/>
<!-- Node1 -->
<g id="node1" class="node"><title>Node1</title>
<polygon fill="#bfbfbf" stroke="black" points="0,-0.5 0,-19.5 148,-19.5 148,-0.5 0,-0.5"/>
<text text-anchor="middle" x="74" y="-7.5" font-family="Helvetica,sans-Serif" font-size="10.00">CNetFulfilledRequestManager</text>
</g>
<!-- Node2 -->
<g id="node2" class="node"><title>Node2</title>
<polygon fill="white" stroke="#bfbfbf" points="15.5,-67.5 15.5,-97.5 132.5,-97.5 132.5,-67.5 15.5,-67.5"/>
<text text-anchor="start" x="23.5" y="-85.5" font-family="Helvetica,sans-Serif" font-size="10.00">AnnotatedMixin&lt; boost</text>
<text text-anchor="middle" x="74" y="-74.5" font-family="Helvetica,sans-Serif" font-size="10.00">::recursive_mutex &gt;</text>
</g>
<!-- Node2&#45;&gt;Node1 -->
<g id="edge1" class="edge"><title>Node2&#45;&gt;Node1</title>
<path fill="none" stroke="#9a32cd" stroke-dasharray="5,2" d="M74,-57.0913C74,-44.2136 74,-29.1974 74,-19.8932"/>
<polygon fill="#9a32cd" stroke="#9a32cd" points="70.5001,-57.2332 74,-67.2333 77.5001,-57.2333 70.5001,-57.2332"/>
<text text-anchor="middle" x="131" y="-41" font-family="Helvetica,sans-Serif" font-size="10.00"> cs_mapFulfilledRequests</text>
</g>
<!-- Node3 -->
<g id="node3" class="node"><title>Node3</title>
<polygon fill="white" stroke="#bfbfbf" points="14.5,-135.5 14.5,-154.5 133.5,-154.5 133.5,-135.5 14.5,-135.5"/>
<text text-anchor="middle" x="74" y="-142.5" font-family="Helvetica,sans-Serif" font-size="10.00">boost::recursive_mutex</text>
</g>
<!-- Node3&#45;&gt;Node2 -->
<g id="edge2" class="edge"><title>Node3&#45;&gt;Node2</title>
<path fill="none" stroke="midnightblue" d="M74,-125.215C74,-116.356 74,-105.958 74,-97.7587"/>
<polygon fill="midnightblue" stroke="midnightblue" points="70.5001,-125.332 74,-135.332 77.5001,-125.332 70.5001,-125.332"/>
</g>
</g>
</svg>
