<?xml version="1.0" encoding="UTF-8" standalone="no"?>
<!DOCTYPE svg PUBLIC "-//W3C//DTD SVG 1.1//EN"
 "http://www.w3.org/Graphics/SVG/1.1/DTD/svg11.dtd">
<!-- Generated by graphviz version 2.38.0 (20140413.2041)
 -->
<!-- Title: src/rpc/client.h Pages: 1 -->
<svg width="332pt" height="84pt"
 viewBox="0.00 0.00 332.00 84.00" xmlns="http://www.w3.org/2000/svg" xmlns:xlink="http://www.w3.org/1999/xlink">
<g id="graph0" class="graph" transform="scale(1 1) rotate(0) translate(4 80)">
<title>src/rpc/client.h</title>
<polygon fill="white" stroke="none" points="-4,4 -4,-80 328,-80 328,4 -4,4"/>
<!-- Node9 -->
<g id="node1" class="node"><title>Node9</title>
<polygon fill="#bfbfbf" stroke="black" points="118.5,-56.5 118.5,-75.5 199.5,-75.5 199.5,-56.5 118.5,-56.5"/>
<text text-anchor="middle" x="159" y="-63.5" font-family="Helvetica,sans-Serif" font-size="10.00">src/rpc/client.h</text>
</g>
<!-- Node10 -->
<g id="node2" class="node"><title>Node10</title>
<g id="a_node2"><a xlink:href="../../d5/d70/dash-cli_8cpp.html" target="_top" xlink:title="src/dash&#45;cli.cpp">
<polygon fill="white" stroke="black" points="0,-0.5 0,-19.5 86,-19.5 86,-0.5 0,-0.5"/>
<text text-anchor="middle" x="43" y="-7.5" font-family="Helvetica,sans-Serif" font-size="10.00">src/dash&#45;cli.cpp</text>
</a>
</g>
</g>
<!-- Node9&#45;&gt;Node10 -->
<g id="edge1" class="edge"><title>Node9&#45;&gt;Node10</title>
<path fill="none" stroke="midnightblue" d="M131.28,-52.096C109.608,-42.0073 80.0979,-28.2697 61.2946,-19.5164"/>
<polygon fill="midnightblue" stroke="midnightblue" points="130.077,-55.3962 140.619,-56.4435 133.031,-49.0501 130.077,-55.3962"/>
</g>
<!-- Node11 -->
<g id="node3" class="node"><title>Node11</title>
<g id="a_node3"><a xlink:href="../../d7/df4/rpcconsole_8cpp.html" target="_top" xlink:title="src/qt/rpcconsole.cpp">
<polygon fill="white" stroke="black" points="104,-0.5 104,-19.5 214,-19.5 214,-0.5 104,-0.5"/>
<text text-anchor="middle" x="159" y="-7.5" font-family="Helvetica,sans-Serif" font-size="10.00">src/qt/rpcconsole.cpp</text>
</a>
</g>
</g>
<!-- Node9&#45;&gt;Node11 -->
<g id="edge2" class="edge"><title>Node9&#45;&gt;Node11</title>
<path fill="none" stroke="midnightblue" d="M159,-45.8045C159,-36.9102 159,-26.7798 159,-19.7511"/>
<polygon fill="midnightblue" stroke="midnightblue" points="155.5,-46.083 159,-56.083 162.5,-46.083 155.5,-46.083"/>
</g>
<!-- Node12 -->
<g id="node4" class="node"><title>Node12</title>
<g id="a_node4"><a xlink:href="../../d9/d95/client_8cpp.html" target="_top" xlink:title="src/rpc/client.cpp">
<polygon fill="white" stroke="black" points="232,-0.5 232,-19.5 324,-19.5 324,-0.5 232,-0.5"/>
<text text-anchor="middle" x="278" y="-7.5" font-family="Helvetica,sans-Serif" font-size="10.00">src/rpc/client.cpp</text>
</a>
</g>
</g>
<!-- Node9&#45;&gt;Node12 -->
<g id="edge3" class="edge"><title>Node9&#45;&gt;Node12</title>
<path fill="none" stroke="midnightblue" d="M187.137,-52.2321C209.396,-42.1312 239.856,-28.3091 259.232,-19.5164"/>
<polygon fill="midnightblue" stroke="midnightblue" points="185.516,-49.124 177.856,-56.4435 188.409,-55.4984 185.516,-49.124"/>
</g>
</g>
</svg>
