<?xml version="1.0" encoding="UTF-8" standalone="no"?>
<!DOCTYPE svg PUBLIC "-//W3C//DTD SVG 1.1//EN"
 "http://www.w3.org/Graphics/SVG/1.1/DTD/svg11.dtd">
<!-- Generated by graphviz version 2.38.0 (20140413.2041)
 -->
<!-- Title: CTxLockVote::GetHash Pages: 1 -->
<!--zoomable 369 -->
<svg id="main" version="1.1" xmlns="http://www.w3.org/2000/svg" xmlns:xlink="http://www.w3.org/1999/xlink" xml:space="preserve" onload="init(evt)">
<style type="text/css"><![CDATA[
.edge:hover path { stroke: red; }
.edge:hover polygon { stroke: red; fill: red; }
]]></style>
<script type="text/javascript"><![CDATA[
var edges = document.getElementsByTagName('g');
if (edges && edges.length) {
  for (var i=0;i<edges.length;i++) {
    if (edges[i].id.substr(0,4)=='edge') {
      edges[i].setAttribute('class','edge');
    }
  }
}
]]></script>
        <defs>
                <circle id="rim" cx="0" cy="0" r="7"/>
                <circle id="rim2" cx="0" cy="0" r="3.5"/>
                <g id="zoomPlus">
                        <use xlink:href="#rim" fill="#404040">
                                <set attributeName="fill" to="#808080" begin="zoomplus.mouseover" end="zoomplus.mouseout"/>
                        </use>
                        <path d="M-4,0h8M0,-4v8" fill="none" stroke="white" stroke-width="1.5" pointer-events="none"/>
                </g>
                <g id="zoomMin">
                        <use xlink:href="#rim" fill="#404040">
                                <set attributeName="fill" to="#808080" begin="zoomminus.mouseover" end="zoomminus.mouseout"/>
                        </use>
                        <path d="M-4,0h8" fill="none" stroke="white" stroke-width="1.5" pointer-events="none"/>
                </g>
                <g id="dirArrow">
                        <path fill="none" stroke="white" stroke-width="1.5" d="M0,-3.0v7 M-2.5,-0.5L0,-3.0L2.5,-0.5"/>
                </g>
               <g id="resetDef">
                       <use xlink:href="#rim2" fill="#404040">
                               <set attributeName="fill" to="#808080" begin="reset.mouseover" end="reset.mouseout"/>
                       </use>
               </g>
        </defs>

<script type="text/javascript">
var viewWidth = 1976;
var viewHeight = 369;
var sectionId = 'dynsection-4';
</script>
<script xlink:href="../../svgpan.js"/>
<svg id="graph" class="graph">
<g id="viewport">
<title>CTxLockVote::GetHash</title>
<polygon fill="white" stroke="none" points="-4,4 -4,-364.636 1972,-364.636 1972,4 -4,4"/>
<!-- Node125 -->
<g id="node1" class="node"><title>Node125</title>
<polygon fill="#bfbfbf" stroke="black" points="0,-156.5 0,-175.5 122,-175.5 122,-156.5 0,-156.5"/>
<text text-anchor="middle" x="61" y="-163.5" font-family="Helvetica,sans-Serif" font-size="10.00">CTxLockVote::GetHash</text>
</g>
<!-- Node126 -->
<g id="node2" class="node"><title>Node126</title>
<g id="a_node2"><a xlink:href="../../d0/dea/class_c_tx_lock_vote.html#a6f2d5203dd1ce7b281754cedaf1194b5" target="_top" xlink:title="CTxLockVote::IsValid">
<polygon fill="white" stroke="black" points="158,-213.5 158,-232.5 271,-232.5 271,-213.5 158,-213.5"/>
<text text-anchor="middle" x="214.5" y="-220.5" font-family="Helvetica,sans-Serif" font-size="10.00">CTxLockVote::IsValid</text>
</a>
</g>
</g>
<!-- Node125&#45;&gt;Node126 -->
<g id="edge1" class="edge"><title>Node125&#45;&gt;Node126</title>
<path fill="none" stroke="midnightblue" d="M96.7267,-179.065C124.574,-189.543 163.014,-204.005 188.06,-213.428"/>
<polygon fill="midnightblue" stroke="midnightblue" points="97.9497,-175.786 87.3577,-175.541 95.4847,-182.338 97.9497,-175.786"/>
</g>
<!-- Node127 -->
<g id="node3" class="node"><title>Node127</title>
<g id="a_node3"><a xlink:href="../../dc/d16/class_c_instant_send.html#aa854169c73e7dac0b460dadf46f54920" target="_top" xlink:title="CInstantSend::ProcessTxLockVote">
<polygon fill="white" stroke="black" points="307,-178.5 307,-197.5 478,-197.5 478,-178.5 307,-178.5"/>
<text text-anchor="middle" x="392.5" y="-185.5" font-family="Helvetica,sans-Serif" font-size="10.00">CInstantSend::ProcessTxLockVote</text>
</a>
</g>
</g>
<!-- Node125&#45;&gt;Node127 -->
<g id="edge37" class="edge"><title>Node125&#45;&gt;Node127</title>
<path fill="none" stroke="midnightblue" d="M132.33,-170.696C183.367,-174.103 252.655,-178.73 306.748,-182.341"/>
<polygon fill="midnightblue" stroke="midnightblue" points="132.263,-167.184 122.052,-170.01 131.797,-174.168 132.263,-167.184"/>
</g>
<!-- Node159 -->
<g id="node35" class="node"><title>Node159</title>
<g id="a_node35"><a xlink:href="../../d0/dea/class_c_tx_lock_vote.html#a3510ff68c18e5e182954d9bae16c3e7d" target="_top" xlink:title="CTxLockVote::Relay">
<polygon fill="white" stroke="black" points="160.5,-137.5 160.5,-156.5 268.5,-156.5 268.5,-137.5 160.5,-137.5"/>
<text text-anchor="middle" x="214.5" y="-144.5" font-family="Helvetica,sans-Serif" font-size="10.00">CTxLockVote::Relay</text>
</a>
</g>
</g>
<!-- Node125&#45;&gt;Node159 -->
<g id="edge38" class="edge"><title>Node125&#45;&gt;Node159</title>
<path fill="none" stroke="midnightblue" d="M132.404,-157.17C141.77,-155.996 151.245,-154.808 160.253,-153.678"/>
<polygon fill="midnightblue" stroke="midnightblue" points="131.799,-153.719 122.312,-158.436 132.67,-160.664 131.799,-153.719"/>
</g>
<!-- Node160 -->
<g id="node36" class="node"><title>Node160</title>
<g id="a_node36"><a xlink:href="../../dc/d16/class_c_instant_send.html#a4b27db90b09bb5f7918229ef40985fdd" target="_top" xlink:title="CInstantSend::Vote">
<polygon fill="white" stroke="black" points="341,-99.5 341,-118.5 444,-118.5 444,-99.5 341,-99.5"/>
<text text-anchor="middle" x="392.5" y="-106.5" font-family="Helvetica,sans-Serif" font-size="10.00">CInstantSend::Vote</text>
</a>
</g>
</g>
<!-- Node125&#45;&gt;Node160 -->
<g id="edge42" class="edge"><title>Node125&#45;&gt;Node160</title>
<path fill="none" stroke="midnightblue" d="M90.4609,-152.154C109.196,-143.692 134.513,-133.476 158,-128 219.791,-113.594 292.982,-109.69 340.733,-108.838"/>
<polygon fill="midnightblue" stroke="midnightblue" points="88.917,-149.012 81.3081,-156.384 91.8539,-155.366 88.917,-149.012"/>
</g>
<!-- Node126&#45;&gt;Node127 -->
<g id="edge2" class="edge"><title>Node126&#45;&gt;Node127</title>
<path fill="none" stroke="midnightblue" d="M273.442,-211.478C296.126,-206.966 321.84,-201.853 343.465,-197.552"/>
<polygon fill="midnightblue" stroke="midnightblue" points="272.718,-208.053 263.593,-213.436 274.083,-214.918 272.718,-208.053"/>
</g>
<!-- Node128 -->
<g id="node4" class="node"><title>Node128</title>
<g id="a_node4"><a xlink:href="../../dc/d16/class_c_instant_send.html#a8b573977400f4666751735d616b8755b" target="_top" xlink:title="CInstantSend::ProcessMessage">
<polygon fill="white" stroke="black" points="700,-224.5 700,-243.5 858,-243.5 858,-224.5 700,-224.5"/>
<text text-anchor="middle" x="779" y="-231.5" font-family="Helvetica,sans-Serif" font-size="10.00">CInstantSend::ProcessMessage</text>
</a>
</g>
</g>
<!-- Node127&#45;&gt;Node128 -->
<g id="edge3" class="edge"><title>Node127&#45;&gt;Node128</title>
<path fill="none" stroke="midnightblue" d="M441.037,-199.829C463.1,-204.913 489.756,-210.483 514,-214 576.092,-223.007 647.025,-228.095 699.718,-230.883"/>
<polygon fill="midnightblue" stroke="midnightblue" points="441.783,-196.409 431.249,-197.536 440.187,-203.224 441.783,-196.409"/>
</g>
<!-- Node141 -->
<g id="node17" class="node"><title>Node141</title>
<g id="a_node17"><a xlink:href="../../dc/d16/class_c_instant_send.html#af7952d257a0e598764fba5d7af351df3" target="_top" xlink:title="CInstantSend::ProcessOrphan\lTxLockVotes">
<polygon fill="white" stroke="black" points="514,-175 514,-205 664,-205 664,-175 514,-175"/>
<text text-anchor="start" x="522" y="-193" font-family="Helvetica,sans-Serif" font-size="10.00">CInstantSend::ProcessOrphan</text>
<text text-anchor="middle" x="589" y="-182" font-family="Helvetica,sans-Serif" font-size="10.00">TxLockVotes</text>
</a>
</g>
</g>
<!-- Node127&#45;&gt;Node141 -->
<g id="edge17" class="edge"><title>Node127&#45;&gt;Node141</title>
<path fill="none" stroke="midnightblue" d="M488.308,-188.975C496.904,-189.063 505.526,-189.152 513.904,-189.238"/>
<polygon fill="midnightblue" stroke="midnightblue" points="488.28,-185.475 478.245,-188.871 488.208,-192.474 488.28,-185.475"/>
</g>
<!-- Node129 -->
<g id="node5" class="node"><title>Node129</title>
<g id="a_node5"><a xlink:href="../../d2/d83/net__processing_8cpp.html#a193d0ece6e2f2f7ee37352ac9720bb83" target="_top" xlink:title="ProcessMessage">
<polygon fill="white" stroke="black" points="934.5,-224.5 934.5,-243.5 1026.5,-243.5 1026.5,-224.5 934.5,-224.5"/>
<text text-anchor="middle" x="980.5" y="-231.5" font-family="Helvetica,sans-Serif" font-size="10.00">ProcessMessage</text>
</a>
</g>
</g>
<!-- Node128&#45;&gt;Node129 -->
<g id="edge4" class="edge"><title>Node128&#45;&gt;Node129</title>
<path fill="none" stroke="midnightblue" d="M868.322,-234C891.108,-234 914.7,-234 934.258,-234"/>
<polygon fill="midnightblue" stroke="midnightblue" points="868.275,-230.5 858.275,-234 868.275,-237.5 868.275,-230.5"/>
</g>
<!-- Node130 -->
<g id="node6" class="node"><title>Node130</title>
<g id="a_node6"><a xlink:href="../../d0/dd8/net__processing_8h.html#a7fa42e7ffd6e6ba5b7537af248e30fc8" target="_top" xlink:title="Process protocol messages received from a given node. ">
<polygon fill="white" stroke="black" points="1142,-290.5 1142,-309.5 1240,-309.5 1240,-290.5 1142,-290.5"/>
<text text-anchor="middle" x="1191" y="-297.5" font-family="Helvetica,sans-Serif" font-size="10.00">ProcessMessages</text>
</a>
</g>
</g>
<!-- Node129&#45;&gt;Node130 -->
<g id="edge5" class="edge"><title>Node129&#45;&gt;Node130</title>
<path fill="none" stroke="midnightblue" d="M1021.36,-246.618C1061.81,-259.421 1123.5,-278.949 1159.98,-290.499"/>
<polygon fill="midnightblue" stroke="midnightblue" points="1022.41,-243.278 1011.82,-243.597 1020.3,-249.952 1022.41,-243.278"/>
</g>
<!-- Node131 -->
<g id="node7" class="node"><title>Node131</title>
<g id="a_node7"><a xlink:href="../../d0/dd8/net__processing_8h.html#ab02615ff65f91d69f8d786ec900baa8a" target="_top" xlink:title="Register with a network node to receive its signals. ">
<polygon fill="white" stroke="black" points="1324,-328.5 1324,-347.5 1433,-347.5 1433,-328.5 1324,-328.5"/>
<text text-anchor="middle" x="1378.5" y="-335.5" font-family="Helvetica,sans-Serif" font-size="10.00">RegisterNodeSignals</text>
</a>
</g>
</g>
<!-- Node130&#45;&gt;Node131 -->
<g id="edge6" class="edge"><title>Node130&#45;&gt;Node131</title>
<path fill="none" stroke="midnightblue" d="M1248.67,-311.61C1275.06,-317.014 1306.05,-323.364 1331.03,-328.48"/>
<polygon fill="midnightblue" stroke="midnightblue" points="1249.31,-308.167 1238.81,-309.589 1247.9,-315.025 1249.31,-308.167"/>
</g>
<!-- Node136 -->
<g id="node12" class="node"><title>Node136</title>
<g id="a_node12"><a xlink:href="../../d0/dd8/net__processing_8h.html#a3ef0cc6e9d9d6435ee2a5569244d6ebd" target="_top" xlink:title="Unregister a network node. ">
<polygon fill="white" stroke="black" points="1320,-290.5 1320,-309.5 1437,-309.5 1437,-290.5 1320,-290.5"/>
<text text-anchor="middle" x="1378.5" y="-297.5" font-family="Helvetica,sans-Serif" font-size="10.00">UnregisterNodeSignals</text>
</a>
</g>
</g>
<!-- Node130&#45;&gt;Node136 -->
<g id="edge11" class="edge"><title>Node130&#45;&gt;Node136</title>
<path fill="none" stroke="midnightblue" d="M1250.53,-300C1272.68,-300 1297.85,-300 1319.92,-300"/>
<polygon fill="midnightblue" stroke="midnightblue" points="1250.25,-296.5 1240.25,-300 1250.25,-303.5 1250.25,-296.5"/>
</g>
<!-- Node132 -->
<g id="node8" class="node"><title>Node132</title>
<g id="a_node8"><a xlink:href="../../d8/dc0/init_8h.html#a6f0784aa332573f949b0975205572b28" target="_top" xlink:title="Initialize Dash Core. ">
<polygon fill="white" stroke="black" points="1511,-328.5 1511,-347.5 1564,-347.5 1564,-328.5 1511,-328.5"/>
<text text-anchor="middle" x="1537.5" y="-335.5" font-family="Helvetica,sans-Serif" font-size="10.00">AppInit2</text>
</a>
</g>
</g>
<!-- Node131&#45;&gt;Node132 -->
<g id="edge7" class="edge"><title>Node131&#45;&gt;Node132</title>
<path fill="none" stroke="midnightblue" d="M1443.12,-338C1466.85,-338 1492.47,-338 1510.85,-338"/>
<polygon fill="midnightblue" stroke="midnightblue" points="1443.09,-334.5 1433.09,-338 1443.09,-341.5 1443.09,-334.5"/>
</g>
<!-- Node133 -->
<g id="node9" class="node"><title>Node133</title>
<g id="a_node9"><a xlink:href="../../dd/de1/dashd_8cpp.html#ac59316b767e6984e1285f0531275286b" target="_top" xlink:title="AppInit">
<polygon fill="white" stroke="black" points="1812.5,-328.5 1812.5,-347.5 1859.5,-347.5 1859.5,-328.5 1812.5,-328.5"/>
<text text-anchor="middle" x="1836" y="-335.5" font-family="Helvetica,sans-Serif" font-size="10.00">AppInit</text>
</a>
</g>
</g>
<!-- Node132&#45;&gt;Node133 -->
<g id="edge8" class="edge"><title>Node132&#45;&gt;Node133</title>
<path fill="none" stroke="midnightblue" d="M1574.21,-346.919C1591.79,-350.864 1613.37,-355.046 1633,-357 1681.21,-361.798 1693.8,-361.873 1742,-357 1766.27,-354.547 1793.56,-348.58 1812.27,-343.982"/>
<polygon fill="midnightblue" stroke="midnightblue" points="1574.89,-343.486 1564.36,-344.643 1573.32,-350.306 1574.89,-343.486"/>
</g>
<!-- Node135 -->
<g id="node11" class="node"><title>Node135</title>
<g id="a_node11"><a xlink:href="../../d2/d76/class_bitcoin_core.html#af34ca069cda1d4362dcc109b4397fb62" target="_top" xlink:title="BitcoinCore::initialize">
<polygon fill="white" stroke="black" points="1633,-328.5 1633,-347.5 1742,-347.5 1742,-328.5 1633,-328.5"/>
<text text-anchor="middle" x="1687.5" y="-335.5" font-family="Helvetica,sans-Serif" font-size="10.00">BitcoinCore::initialize</text>
</a>
</g>
</g>
<!-- Node132&#45;&gt;Node135 -->
<g id="edge10" class="edge"><title>Node132&#45;&gt;Node135</title>
<path fill="none" stroke="midnightblue" d="M1574.62,-338C1592.12,-338 1613.48,-338 1632.83,-338"/>
<polygon fill="midnightblue" stroke="midnightblue" points="1574.28,-334.5 1564.28,-338 1574.28,-341.5 1574.28,-334.5"/>
</g>
<!-- Node134 -->
<g id="node10" class="node"><title>Node134</title>
<g id="a_node10"><a xlink:href="../../dd/de1/dashd_8cpp.html#a0ddf1224851353fc92bfbff6f499fa97" target="_top" xlink:title="main">
<polygon fill="white" stroke="black" points="1930,-328.5 1930,-347.5 1968,-347.5 1968,-328.5 1930,-328.5"/>
<text text-anchor="middle" x="1949" y="-335.5" font-family="Helvetica,sans-Serif" font-size="10.00">main</text>
</a>
</g>
</g>
<!-- Node133&#45;&gt;Node134 -->
<g id="edge9" class="edge"><title>Node133&#45;&gt;Node134</title>
<path fill="none" stroke="midnightblue" d="M1869.77,-338C1889.33,-338 1913.46,-338 1929.7,-338"/>
<polygon fill="midnightblue" stroke="midnightblue" points="1869.73,-334.5 1859.73,-338 1869.73,-341.5 1869.73,-334.5"/>
</g>
<!-- Node137 -->
<g id="node13" class="node"><title>Node137</title>
<g id="a_node13"><a xlink:href="../../d8/dc0/init_8h.html#a5cb3db83cb0ba2e421f651a1ee1f2cfe" target="_top" xlink:title="Preparing steps before shutting down or restarting the wallet. ">
<polygon fill="white" stroke="black" points="1490.5,-290.5 1490.5,-309.5 1584.5,-309.5 1584.5,-290.5 1490.5,-290.5"/>
<text text-anchor="middle" x="1537.5" y="-297.5" font-family="Helvetica,sans-Serif" font-size="10.00">PrepareShutdown</text>
</a>
</g>
</g>
<!-- Node136&#45;&gt;Node137 -->
<g id="edge12" class="edge"><title>Node136&#45;&gt;Node137</title>
<path fill="none" stroke="midnightblue" d="M1447.47,-300C1461.91,-300 1476.83,-300 1490.23,-300"/>
<polygon fill="midnightblue" stroke="midnightblue" points="1447.07,-296.5 1437.07,-300 1447.07,-303.5 1447.07,-296.5"/>
</g>
<!-- Node138 -->
<g id="node14" class="node"><title>Node138</title>
<g id="a_node14"><a xlink:href="../../d2/d76/class_bitcoin_core.html#ac2271844c89ebc4c611e7617ce6202e3" target="_top" xlink:title="BitcoinCore::restart">
<polygon fill="white" stroke="black" points="1637,-290.5 1637,-309.5 1738,-309.5 1738,-290.5 1637,-290.5"/>
<text text-anchor="middle" x="1687.5" y="-297.5" font-family="Helvetica,sans-Serif" font-size="10.00">BitcoinCore::restart</text>
</a>
</g>
</g>
<!-- Node137&#45;&gt;Node138 -->
<g id="edge13" class="edge"><title>Node137&#45;&gt;Node138</title>
<path fill="none" stroke="midnightblue" d="M1594.89,-300C1608.72,-300 1623.43,-300 1636.92,-300"/>
<polygon fill="midnightblue" stroke="midnightblue" points="1594.52,-296.5 1584.52,-300 1594.52,-303.5 1594.52,-296.5"/>
</g>
<!-- Node139 -->
<g id="node15" class="node"><title>Node139</title>
<g id="a_node15"><a xlink:href="../../d8/dc0/init_8h.html#ac5f038c2b480cf9ef5e19e3eba8dbaf9" target="_top" xlink:title="Shutdown is split into 2 parts: Part 1: shut down everything but the main wallet instance (done in Pr...">
<polygon fill="white" stroke="black" points="1657.5,-252.5 1657.5,-271.5 1717.5,-271.5 1717.5,-252.5 1657.5,-252.5"/>
<text text-anchor="middle" x="1687.5" y="-259.5" font-family="Helvetica,sans-Serif" font-size="10.00">Shutdown</text>
</a>
</g>
</g>
<!-- Node137&#45;&gt;Node139 -->
<g id="edge14" class="edge"><title>Node137&#45;&gt;Node139</title>
<path fill="none" stroke="midnightblue" d="M1585.61,-287.904C1609.06,-281.883 1636.69,-274.79 1657.09,-269.55"/>
<polygon fill="midnightblue" stroke="midnightblue" points="1584.66,-284.534 1575.85,-290.411 1586.4,-291.314 1584.66,-284.534"/>
</g>
<!-- Node139&#45;&gt;Node133 -->
<g id="edge15" class="edge"><title>Node139&#45;&gt;Node133</title>
<path fill="none" stroke="midnightblue" d="M1727.17,-274.646C1732.23,-276.614 1737.28,-278.748 1742,-281 1771.56,-295.119 1803.64,-316.186 1821.33,-328.362"/>
<polygon fill="midnightblue" stroke="midnightblue" points="1728.14,-271.271 1717.55,-271.077 1725.71,-277.834 1728.14,-271.271"/>
</g>
<!-- Node140 -->
<g id="node16" class="node"><title>Node140</title>
<g id="a_node16"><a xlink:href="../../d2/d76/class_bitcoin_core.html#a94f3f4622ba698e321f3a2e0e686129f" target="_top" xlink:title="BitcoinCore::shutdown">
<polygon fill="white" stroke="black" points="1778,-252.5 1778,-271.5 1894,-271.5 1894,-252.5 1778,-252.5"/>
<text text-anchor="middle" x="1836" y="-259.5" font-family="Helvetica,sans-Serif" font-size="10.00">BitcoinCore::shutdown</text>
</a>
</g>
</g>
<!-- Node139&#45;&gt;Node140 -->
<g id="edge16" class="edge"><title>Node139&#45;&gt;Node140</title>
<path fill="none" stroke="midnightblue" d="M1727.97,-262C1743.31,-262 1761.18,-262 1777.88,-262"/>
<polygon fill="midnightblue" stroke="midnightblue" points="1727.79,-258.5 1717.79,-262 1727.79,-265.5 1727.79,-258.5"/>
</g>
<!-- Node142 -->
<g id="node18" class="node"><title>Node142</title>
<g id="a_node18"><a xlink:href="../../dc/d16/class_c_instant_send.html#a418ce98b1e4d61b38bd11d02ff36a47d" target="_top" xlink:title="CInstantSend::ProcessTxLock\lRequest">
<polygon fill="white" stroke="black" points="703.5,-131 703.5,-161 854.5,-161 854.5,-131 703.5,-131"/>
<text text-anchor="start" x="711.5" y="-149" font-family="Helvetica,sans-Serif" font-size="10.00">CInstantSend::ProcessTxLock</text>
<text text-anchor="middle" x="779" y="-138" font-family="Helvetica,sans-Serif" font-size="10.00">Request</text>
</a>
</g>
</g>
<!-- Node141&#45;&gt;Node142 -->
<g id="edge18" class="edge"><title>Node141&#45;&gt;Node142</title>
<path fill="none" stroke="midnightblue" d="M664.247,-172.623C680.63,-168.789 697.851,-164.758 713.797,-161.026"/>
<polygon fill="midnightblue" stroke="midnightblue" points="663.112,-169.294 654.173,-174.981 664.708,-176.11 663.112,-169.294"/>
</g>
<!-- Node142&#45;&gt;Node127 -->
<g id="edge20" class="edge"><title>Node142&#45;&gt;Node127</title>
<path fill="none" stroke="midnightblue" d="M693.071,-149.589C641.192,-152.407 573.588,-157.196 514,-165 488.237,-168.374 459.662,-173.756 436.807,-178.465"/>
<polygon fill="midnightblue" stroke="midnightblue" points="693.429,-153.075 703.23,-149.051 693.059,-146.085 693.429,-153.075"/>
</g>
<!-- Node142&#45;&gt;Node129 -->
<g id="edge19" class="edge"><title>Node142&#45;&gt;Node129</title>
<path fill="none" stroke="midnightblue" d="M823.627,-165.244C865.158,-183.563 925.928,-210.369 957.938,-224.489"/>
<polygon fill="midnightblue" stroke="midnightblue" points="824.857,-161.961 814.295,-161.128 822.032,-168.366 824.857,-161.961"/>
</g>
<!-- Node143 -->
<g id="node19" class="node"><title>Node143</title>
<g id="a_node19"><a xlink:href="../../de/db0/group__map_wallet.html#ga8467a8a31cc4dded33cc6cdb0cdabb38" target="_top" xlink:title="CWalletTx::RelayWalletTransaction">
<polygon fill="white" stroke="black" points="894,-136.5 894,-155.5 1067,-155.5 1067,-136.5 894,-136.5"/>
<text text-anchor="middle" x="980.5" y="-143.5" font-family="Helvetica,sans-Serif" font-size="10.00">CWalletTx::RelayWalletTransaction</text>
</a>
</g>
</g>
<!-- Node142&#45;&gt;Node143 -->
<g id="edge21" class="edge"><title>Node142&#45;&gt;Node143</title>
<path fill="none" stroke="midnightblue" d="M864.602,-146C874.313,-146 884.219,-146 893.942,-146"/>
<polygon fill="midnightblue" stroke="midnightblue" points="864.57,-142.5 854.57,-146 864.57,-149.5 864.57,-142.5"/>
</g>
<!-- Node158 -->
<g id="node34" class="node"><title>Node158</title>
<g id="a_node34"><a xlink:href="../../d8/dc3/server_8h.html#a962b2890c7be4b92841eb288e5a2aca5" target="_top" xlink:title="sendrawtransaction">
<polygon fill="white" stroke="black" points="930,-98.5 930,-117.5 1031,-117.5 1031,-98.5 930,-98.5"/>
<text text-anchor="middle" x="980.5" y="-105.5" font-family="Helvetica,sans-Serif" font-size="10.00">sendrawtransaction</text>
</a>
</g>
</g>
<!-- Node142&#45;&gt;Node158 -->
<g id="edge36" class="edge"><title>Node142&#45;&gt;Node158</title>
<path fill="none" stroke="midnightblue" d="M864.684,-129.87C886.89,-125.64 910.114,-121.216 929.819,-117.463"/>
<polygon fill="midnightblue" stroke="midnightblue" points="863.739,-126.487 854.57,-131.796 865.048,-133.363 863.739,-126.487"/>
</g>
<!-- Node144 -->
<g id="node20" class="node"><title>Node144</title>
<g id="a_node20"><a xlink:href="../../dd/d3e/group___actions.html#gad95b72403a23ad9f9079a08b0ed1646a" target="_top" xlink:title="Call after CreateTransaction unless you want to abort. ">
<polygon fill="white" stroke="black" points="1119.5,-136.5 1119.5,-155.5 1262.5,-155.5 1262.5,-136.5 1119.5,-136.5"/>
<text text-anchor="middle" x="1191" y="-143.5" font-family="Helvetica,sans-Serif" font-size="10.00">CWallet::CommitTransaction</text>
</a>
</g>
</g>
<!-- Node143&#45;&gt;Node144 -->
<g id="edge22" class="edge"><title>Node143&#45;&gt;Node144</title>
<path fill="none" stroke="midnightblue" d="M1077.41,-146C1091.49,-146 1105.77,-146 1119.22,-146"/>
<polygon fill="midnightblue" stroke="midnightblue" points="1077.21,-142.5 1067.21,-146 1077.21,-149.5 1077.21,-142.5"/>
</g>
<!-- Node156 -->
<g id="node32" class="node"><title>Node156</title>
<g id="a_node32"><a xlink:href="../../de/db0/group__map_wallet.html#ga5660023a09ecf8107cb2b3df8d3d0e40" target="_top" xlink:title="CWallet::ResendWalletTransactions\lBefore">
<polygon fill="white" stroke="black" points="1103,-52 1103,-82 1279,-82 1279,-52 1103,-52"/>
<text text-anchor="start" x="1111" y="-70" font-family="Helvetica,sans-Serif" font-size="10.00">CWallet::ResendWalletTransactions</text>
<text text-anchor="middle" x="1191" y="-59" font-family="Helvetica,sans-Serif" font-size="10.00">Before</text>
</a>
</g>
</g>
<!-- Node143&#45;&gt;Node156 -->
<g id="edge34" class="edge"><title>Node143&#45;&gt;Node156</title>
<path fill="none" stroke="midnightblue" d="M1043.35,-134.076C1051.39,-131.997 1059.45,-129.64 1067,-127 1101.54,-114.927 1139.04,-95.6668 1163.43,-82.2353"/>
<polygon fill="midnightblue" stroke="midnightblue" points="1042.47,-130.689 1033.59,-136.475 1044.14,-137.487 1042.47,-130.689"/>
</g>
<!-- Node145 -->
<g id="node21" class="node"><title>Node145</title>
<g id="a_node21"><a xlink:href="../../dd/dab/class_c_private_send_client.html#a1318eb1f8e5a845036cfe99f0b3f8b36" target="_top" xlink:title="CPrivateSendClient\l::CreateDenominated">
<polygon fill="white" stroke="black" points="1323.5,-241 1323.5,-271 1433.5,-271 1433.5,-241 1323.5,-241"/>
<text text-anchor="start" x="1331.5" y="-259" font-family="Helvetica,sans-Serif" font-size="10.00">CPrivateSendClient</text>
<text text-anchor="middle" x="1378.5" y="-248" font-family="Helvetica,sans-Serif" font-size="10.00">::CreateDenominated</text>
</a>
</g>
</g>
<!-- Node144&#45;&gt;Node145 -->
<g id="edge23" class="edge"><title>Node144&#45;&gt;Node145</title>
<path fill="none" stroke="midnightblue" d="M1212.16,-162.05C1235.81,-180.362 1276.67,-210.427 1315,-231 1321.59,-234.537 1328.79,-237.868 1335.89,-240.875"/>
<polygon fill="midnightblue" stroke="midnightblue" points="1214.02,-159.056 1203.98,-155.652 1209.7,-164.57 1214.02,-159.056"/>
</g>
<!-- Node146 -->
<g id="node22" class="node"><title>Node146</title>
<g id="a_node22"><a xlink:href="../../d8/dc3/server_8h.html#a0fa637689f8c63fc6adebeb9458430db" target="_top" xlink:title="gobject">
<polygon fill="white" stroke="black" points="1354.5,-202.5 1354.5,-221.5 1402.5,-221.5 1402.5,-202.5 1354.5,-202.5"/>
<text text-anchor="middle" x="1378.5" y="-209.5" font-family="Helvetica,sans-Serif" font-size="10.00">gobject</text>
</a>
</g>
</g>
<!-- Node144&#45;&gt;Node146 -->
<g id="edge24" class="edge"><title>Node144&#45;&gt;Node146</title>
<path fill="none" stroke="midnightblue" d="M1225.97,-159.208C1250.58,-168.652 1284.71,-181.496 1315,-192 1327.92,-196.479 1342.46,-201.154 1354.26,-204.856"/>
<polygon fill="midnightblue" stroke="midnightblue" points="1226.97,-155.84 1216.38,-155.513 1224.45,-162.373 1226.97,-155.84"/>
</g>
<!-- Node147 -->
<g id="node23" class="node"><title>Node147</title>
<g id="a_node23"><a xlink:href="../../dd/dab/class_c_private_send_client.html#ad603beaa1644f6e6cfb8ca7d1400d46e" target="_top" xlink:title="CPrivateSendClient\l::MakeCollateralAmounts">
<polygon fill="white" stroke="black" points="1315,-153 1315,-183 1442,-183 1442,-153 1315,-153"/>
<text text-anchor="start" x="1323" y="-171" font-family="Helvetica,sans-Serif" font-size="10.00">CPrivateSendClient</text>
<text text-anchor="middle" x="1378.5" y="-160" font-family="Helvetica,sans-Serif" font-size="10.00">::MakeCollateralAmounts</text>
</a>
</g>
</g>
<!-- Node144&#45;&gt;Node147 -->
<g id="edge25" class="edge"><title>Node144&#45;&gt;Node147</title>
<path fill="none" stroke="midnightblue" d="M1272.84,-155.588C1286.94,-157.26 1301.42,-158.977 1314.93,-160.58"/>
<polygon fill="midnightblue" stroke="midnightblue" points="1273,-152.082 1262.66,-154.38 1272.18,-159.033 1273,-152.082"/>
</g>
<!-- Node148 -->
<g id="node24" class="node"><title>Node148</title>
<g id="a_node24"><a xlink:href="../../d4/d27/class_wallet_model.html#a53443aca544c824550f21e5f87e4ec39" target="_top" xlink:title="WalletModel::sendCoins">
<polygon fill="white" stroke="black" points="1317,-114.5 1317,-133.5 1440,-133.5 1440,-114.5 1317,-114.5"/>
<text text-anchor="middle" x="1378.5" y="-121.5" font-family="Helvetica,sans-Serif" font-size="10.00">WalletModel::sendCoins</text>
</a>
</g>
</g>
<!-- Node144&#45;&gt;Node148 -->
<g id="edge26" class="edge"><title>Node144&#45;&gt;Node148</title>
<path fill="none" stroke="midnightblue" d="M1272.78,-136.419C1287.53,-134.67 1302.68,-132.873 1316.73,-131.208"/>
<polygon fill="midnightblue" stroke="midnightblue" points="1272.18,-132.967 1262.66,-137.62 1273,-139.918 1272.18,-132.967"/>
</g>
<!-- Node151 -->
<g id="node27" class="node"><title>Node151</title>
<g id="a_node27"><a xlink:href="../../df/d1d/rpcwallet_8cpp.html#a02c1a7b5244896e62bc5ae698f7a76c9" target="_top" xlink:title="sendmany">
<polygon fill="white" stroke="black" points="1347.5,-76.5 1347.5,-95.5 1409.5,-95.5 1409.5,-76.5 1347.5,-76.5"/>
<text text-anchor="middle" x="1378.5" y="-83.5" font-family="Helvetica,sans-Serif" font-size="10.00">sendmany</text>
</a>
</g>
</g>
<!-- Node144&#45;&gt;Node151 -->
<g id="edge29" class="edge"><title>Node144&#45;&gt;Node151</title>
<path fill="none" stroke="midnightblue" d="M1229.82,-133.104C1254.1,-124.895 1286.35,-114.129 1315,-105 1325.48,-101.661 1336.99,-98.1239 1347.25,-95.019"/>
<polygon fill="midnightblue" stroke="midnightblue" points="1228.61,-129.817 1220.27,-136.341 1230.86,-136.447 1228.61,-129.817"/>
</g>
<!-- Node152 -->
<g id="node28" class="node"><title>Node152</title>
<g id="a_node28"><a xlink:href="../../df/d1d/rpcwallet_8cpp.html#a1ce48c3b465b38c532d3a3bc9664ba16" target="_top" xlink:title="SendMoney">
<polygon fill="white" stroke="black" points="1344.5,-38.5 1344.5,-57.5 1412.5,-57.5 1412.5,-38.5 1344.5,-38.5"/>
<text text-anchor="middle" x="1378.5" y="-45.5" font-family="Helvetica,sans-Serif" font-size="10.00">SendMoney</text>
</a>
</g>
</g>
<!-- Node144&#45;&gt;Node152 -->
<g id="edge30" class="edge"><title>Node144&#45;&gt;Node152</title>
<path fill="none" stroke="midnightblue" d="M1215.97,-131.065C1233.5,-120.09 1257.81,-104.756 1279,-91 1295.13,-80.5281 1297.61,-75.2178 1315,-67 1324.23,-62.6381 1334.69,-58.9948 1344.38,-56.104"/>
<polygon fill="midnightblue" stroke="midnightblue" points="1214.1,-128.107 1207.47,-136.376 1217.81,-134.043 1214.1,-128.107"/>
</g>
<!-- Node149 -->
<g id="node25" class="node"><title>Node149</title>
<g id="a_node25"><a xlink:href="../../d6/de6/class_send_coins_dialog.html#aab03626a859f22a68760b235a1df6bc9" target="_top" xlink:title="SendCoinsDialog::send">
<polygon fill="white" stroke="black" points="1478,-114.5 1478,-133.5 1597,-133.5 1597,-114.5 1478,-114.5"/>
<text text-anchor="middle" x="1537.5" y="-121.5" font-family="Helvetica,sans-Serif" font-size="10.00">SendCoinsDialog::send</text>
</a>
</g>
</g>
<!-- Node148&#45;&gt;Node149 -->
<g id="edge27" class="edge"><title>Node148&#45;&gt;Node149</title>
<path fill="none" stroke="midnightblue" d="M1450.43,-124C1459.57,-124 1468.85,-124 1477.77,-124"/>
<polygon fill="midnightblue" stroke="midnightblue" points="1450.2,-120.5 1440.2,-124 1450.2,-127.5 1450.2,-120.5"/>
</g>
<!-- Node150 -->
<g id="node26" class="node"><title>Node150</title>
<g id="a_node26"><a xlink:href="../../d6/de6/class_send_coins_dialog.html#a2cab7cf9ea5040b9e2189297f7d3c764" target="_top" xlink:title="SendCoinsDialog::on\l_sendButton_clicked">
<polygon fill="white" stroke="black" points="1633,-109 1633,-139 1742,-139 1742,-109 1633,-109"/>
<text text-anchor="start" x="1641" y="-127" font-family="Helvetica,sans-Serif" font-size="10.00">SendCoinsDialog::on</text>
<text text-anchor="middle" x="1687.5" y="-116" font-family="Helvetica,sans-Serif" font-size="10.00">_sendButton_clicked</text>
</a>
</g>
</g>
<!-- Node149&#45;&gt;Node150 -->
<g id="edge28" class="edge"><title>Node149&#45;&gt;Node150</title>
<path fill="none" stroke="midnightblue" d="M1607.59,-124C1615.98,-124 1624.46,-124 1632.58,-124"/>
<polygon fill="midnightblue" stroke="midnightblue" points="1607.42,-120.5 1597.42,-124 1607.42,-127.5 1607.42,-120.5"/>
</g>
<!-- Node153 -->
<g id="node29" class="node"><title>Node153</title>
<g id="a_node29"><a xlink:href="../../df/d1d/rpcwallet_8cpp.html#a13ae0f230ba6d349466070da38ee85f4" target="_top" xlink:title="instantsendtoaddress">
<polygon fill="white" stroke="black" points="1482.5,-76.5 1482.5,-95.5 1592.5,-95.5 1592.5,-76.5 1482.5,-76.5"/>
<text text-anchor="middle" x="1537.5" y="-83.5" font-family="Helvetica,sans-Serif" font-size="10.00">instantsendtoaddress</text>
</a>
</g>
</g>
<!-- Node152&#45;&gt;Node153 -->
<g id="edge31" class="edge"><title>Node152&#45;&gt;Node153</title>
<path fill="none" stroke="midnightblue" d="M1422.75,-58.4676C1446.02,-64.0998 1474.5,-70.9945 1497.15,-76.4754"/>
<polygon fill="midnightblue" stroke="midnightblue" points="1423.34,-55.0096 1412.8,-56.0588 1421.69,-61.8131 1423.34,-55.0096"/>
</g>
<!-- Node154 -->
<g id="node30" class="node"><title>Node154</title>
<g id="a_node30"><a xlink:href="../../df/d1d/rpcwallet_8cpp.html#a887e8b6785b39cba59fe24ea952a4f10" target="_top" xlink:title="sendfrom">
<polygon fill="white" stroke="black" points="1509,-38.5 1509,-57.5 1566,-57.5 1566,-38.5 1509,-38.5"/>
<text text-anchor="middle" x="1537.5" y="-45.5" font-family="Helvetica,sans-Serif" font-size="10.00">sendfrom</text>
</a>
</g>
</g>
<!-- Node152&#45;&gt;Node154 -->
<g id="edge32" class="edge"><title>Node152&#45;&gt;Node154</title>
<path fill="none" stroke="midnightblue" d="M1422.92,-48C1450.36,-48 1484.99,-48 1508.75,-48"/>
<polygon fill="midnightblue" stroke="midnightblue" points="1422.8,-44.5001 1412.8,-48 1422.8,-51.5001 1422.8,-44.5001"/>
</g>
<!-- Node155 -->
<g id="node31" class="node"><title>Node155</title>
<g id="a_node31"><a xlink:href="../../df/d1d/rpcwallet_8cpp.html#a36f0a0b6cd58a61c125bbe7a39ed1368" target="_top" xlink:title="sendtoaddress">
<polygon fill="white" stroke="black" points="1497.5,-0.5 1497.5,-19.5 1577.5,-19.5 1577.5,-0.5 1497.5,-0.5"/>
<text text-anchor="middle" x="1537.5" y="-7.5" font-family="Helvetica,sans-Serif" font-size="10.00">sendtoaddress</text>
</a>
</g>
</g>
<!-- Node152&#45;&gt;Node155 -->
<g id="edge33" class="edge"><title>Node152&#45;&gt;Node155</title>
<path fill="none" stroke="midnightblue" d="M1422.79,-37.5233C1446.15,-31.8691 1474.75,-24.9447 1497.43,-19.4558"/>
<polygon fill="midnightblue" stroke="midnightblue" points="1421.69,-34.1869 1412.8,-39.9412 1423.34,-40.9904 1421.69,-34.1869"/>
</g>
<!-- Node157 -->
<g id="node33" class="node"><title>Node157</title>
<g id="a_node33"><a xlink:href="../../df/d1d/rpcwallet_8cpp.html#abaf4c034b4a8144638b5a38784f8f834" target="_top" xlink:title="resendwallettransactions">
<polygon fill="white" stroke="black" points="1316,-0.5 1316,-19.5 1441,-19.5 1441,-0.5 1316,-0.5"/>
<text text-anchor="middle" x="1378.5" y="-7.5" font-family="Helvetica,sans-Serif" font-size="10.00">resendwallettransactions</text>
</a>
</g>
</g>
<!-- Node156&#45;&gt;Node157 -->
<g id="edge35" class="edge"><title>Node156&#45;&gt;Node157</title>
<path fill="none" stroke="midnightblue" d="M1250.28,-48.936C1270.74,-42.6105 1293.88,-35.4722 1315,-29 1325.08,-25.9095 1336.09,-22.5569 1346.02,-19.5406"/>
<polygon fill="midnightblue" stroke="midnightblue" points="1248.99,-45.6706 1240.47,-51.9695 1251.06,-52.358 1248.99,-45.6706"/>
</g>
<!-- Node159&#45;&gt;Node127 -->
<g id="edge41" class="edge"><title>Node159&#45;&gt;Node127</title>
<path fill="none" stroke="midnightblue" d="M266.278,-158.829C293.051,-165.066 325.458,-172.615 350.597,-178.471"/>
<polygon fill="midnightblue" stroke="midnightblue" points="266.854,-155.369 256.32,-156.509 265.265,-162.187 266.854,-155.369"/>
</g>
<!-- Node159&#45;&gt;Node160 -->
<g id="edge39" class="edge"><title>Node159&#45;&gt;Node160</title>
<path fill="none" stroke="midnightblue" d="M269.933,-135.247C294.819,-129.874 323.919,-123.591 347.407,-118.52"/>
<polygon fill="midnightblue" stroke="midnightblue" points="268.948,-131.879 259.912,-137.411 270.426,-138.722 268.948,-131.879"/>
</g>
<!-- Node160&#45;&gt;Node142 -->
<g id="edge40" class="edge"><title>Node160&#45;&gt;Node142</title>
<path fill="none" stroke="midnightblue" d="M454.657,-113.544C509.522,-117.777 592.214,-124.543 664,-132 676.694,-133.319 690.165,-134.853 703.233,-136.413"/>
<polygon fill="midnightblue" stroke="midnightblue" points="454.644,-110.033 444.406,-112.758 454.109,-117.013 454.644,-110.033"/>
</g>
</g>
</svg>
        <g id="navigator" transform="translate(0 0)" fill="#404254">
                <rect fill="#f2f5e9" fill-opacity="0.5" stroke="#606060" stroke-width=".5" x="0" y="0" width="60" height="60"/>
                <use id="zoomplus" xlink:href="#zoomPlus" x="17" y="9" onmousedown="handleZoom(evt,'in')"/>
                <use id="zoomminus" xlink:href="#zoomMin" x="42" y="9" onmousedown="handleZoom(evt,'out')"/>
                <use id="reset" xlink:href="#resetDef" x="30" y="36" onmousedown="handleReset()"/>
                <g id="arrowUp" xlink:href="#dirArrow" transform="translate(30 24)" onmousedown="handlePan(0,-1)">
                  <use xlink:href="#rim" fill="#404040">
                        <set attributeName="fill" to="#808080" begin="arrowUp.mouseover" end="arrowUp.mouseout"/>
                  </use>
                  <path fill="none" stroke="white" stroke-width="1.5" d="M0,-3.0v7 M-2.5,-0.5L0,-3.0L2.5,-0.5"/>
                </g>
                <g id="arrowRight" xlink:href="#dirArrow" transform="rotate(90) translate(36 -43)" onmousedown="handlePan(1,0)">
                  <use xlink:href="#rim" fill="#404040">
                        <set attributeName="fill" to="#808080" begin="arrowRight.mouseover" end="arrowRight.mouseout"/>
                  </use>
                  <path fill="none" stroke="white" stroke-width="1.5" d="M0,-3.0v7 M-2.5,-0.5L0,-3.0L2.5,-0.5"/>
                </g>
                <g id="arrowDown" xlink:href="#dirArrow" transform="rotate(180) translate(-30 -48)" onmousedown="handlePan(0,1)">
                  <use xlink:href="#rim" fill="#404040">
                        <set attributeName="fill" to="#808080" begin="arrowDown.mouseover" end="arrowDown.mouseout"/>
                  </use>
                  <path fill="none" stroke="white" stroke-width="1.5" d="M0,-3.0v7 M-2.5,-0.5L0,-3.0L2.5,-0.5"/>
                </g>
                <g id="arrowLeft" xlink:href="#dirArrow" transform="rotate(270) translate(-36 17)" onmousedown="handlePan(-1,0)">
                  <use xlink:href="#rim" fill="#404040">
                        <set attributeName="fill" to="#808080" begin="arrowLeft.mouseover" end="arrowLeft.mouseout"/>
                  </use>
                  <path fill="none" stroke="white" stroke-width="1.5" d="M0,-3.0v7 M-2.5,-0.5L0,-3.0L2.5,-0.5"/>
                </g>
        </g>
        <svg viewBox="0 0 15 15" width="100%" height="30px" preserveAspectRatio="xMaxYMin meet">
         <g id="arrow_out" transform="scale(0.3 0.3)">
          <a xlink:href="class_c_tx_lock_vote_ad3a0d9828dd5fcab10969a62cbe29302_icgraph_org.svg" target="_base">
           <rect id="button" ry="5" rx="5" y="6" x="6" height="38" width="38"
                fill="#f2f5e9" fill-opacity="0.5" stroke="#606060" stroke-width="1.0"/>
           <path id="arrow"
             d="M 11.500037,31.436501 C 11.940474,20.09759 22.043105,11.32322 32.158766,21.979434 L 37.068811,17.246167 C 37.068811,17.246167 37.088388,32 37.088388,32 L 22.160133,31.978069 C 22.160133,31.978069 26.997745,27.140456 26.997745,27.140456 C 18.528582,18.264221 13.291696,25.230495 11.500037,31.436501 z"
             style="fill:#404040;"/>
          </a>
         </g>
        </svg>
</svg>
