<?xml version="1.0" encoding="UTF-8" standalone="no"?>
<!DOCTYPE svg PUBLIC "-//W3C//DTD SVG 1.1//EN"
 "http://www.w3.org/Graphics/SVG/1.1/DTD/svg11.dtd">
<!-- Generated by graphviz version 2.38.0 (20140413.2041)
 -->
<!-- Title: OpenDebugLog Pages: 1 -->
<svg width="389pt" height="142pt"
 viewBox="0.00 0.00 389.00 142.00" xmlns="http://www.w3.org/2000/svg" xmlns:xlink="http://www.w3.org/1999/xlink">
<g id="graph0" class="graph" transform="scale(1 1) rotate(0) translate(4 138)">
<title>OpenDebugLog</title>
<polygon fill="white" stroke="none" points="-4,4 -4,-138 385,-138 385,4 -4,4"/>
<!-- Node5307 -->
<g id="node1" class="node"><title>Node5307</title>
<polygon fill="#bfbfbf" stroke="black" points="0,-76.5 0,-95.5 84,-95.5 84,-76.5 0,-76.5"/>
<text text-anchor="middle" x="42" y="-83.5" font-family="Helvetica,sans-Serif" font-size="10.00">OpenDebugLog</text>
</g>
<!-- Node5308 -->
<g id="node2" class="node"><title>Node5308</title>
<g id="a_node2"><a xlink:href="../../df/d2d/util_8cpp.html#a751ff5f21d880737811136b5e0bcea12" target="_top" xlink:title="DebugPrintInit">
<polygon fill="white" stroke="black" points="120,-114.5 120,-133.5 199,-133.5 199,-114.5 120,-114.5"/>
<text text-anchor="middle" x="159.5" y="-121.5" font-family="Helvetica,sans-Serif" font-size="10.00">DebugPrintInit</text>
</a>
</g>
</g>
<!-- Node5307&#45;&gt;Node5308 -->
<g id="edge1" class="edge"><title>Node5307&#45;&gt;Node5308</title>
<path fill="none" stroke="midnightblue" d="M72.1455,-95.589C86.5083,-100.314 104.029,-106.079 119.526,-111.177"/>
<polygon fill="midnightblue" stroke="midnightblue" points="118.771,-114.613 129.364,-114.414 120.959,-107.964 118.771,-114.613"/>
</g>
<!-- Node5309 -->
<g id="node3" class="node"><title>Node5309</title>
<g id="a_node3"><a xlink:href="../../df/d2d/util_8cpp.html#a7c125ce70fa6b09e1de0c4a404fc2b6f" target="_top" xlink:title="FileWriteStr">
<polygon fill="white" stroke="black" points="125.5,-76.5 125.5,-95.5 193.5,-95.5 193.5,-76.5 125.5,-76.5"/>
<text text-anchor="middle" x="159.5" y="-83.5" font-family="Helvetica,sans-Serif" font-size="10.00">FileWriteStr</text>
</a>
</g>
</g>
<!-- Node5307&#45;&gt;Node5309 -->
<g id="edge2" class="edge"><title>Node5307&#45;&gt;Node5309</title>
<path fill="none" stroke="midnightblue" d="M84.0462,-86C94.0558,-86 104.798,-86 114.921,-86"/>
<polygon fill="midnightblue" stroke="midnightblue" points="115.19,-89.5001 125.189,-86 115.189,-82.5001 115.19,-89.5001"/>
</g>
<!-- Node5310 -->
<g id="node4" class="node"><title>Node5310</title>
<g id="a_node4"><a xlink:href="../../df/d2d/util_8cpp.html#ab83866a054745d4b30a3948a1b44beba" target="_top" xlink:title="GetDataDir">
<polygon fill="white" stroke="black" points="126.5,-38.5 126.5,-57.5 192.5,-57.5 192.5,-38.5 126.5,-38.5"/>
<text text-anchor="middle" x="159.5" y="-45.5" font-family="Helvetica,sans-Serif" font-size="10.00">GetDataDir</text>
</a>
</g>
</g>
<!-- Node5307&#45;&gt;Node5310 -->
<g id="edge3" class="edge"><title>Node5307&#45;&gt;Node5310</title>
<path fill="none" stroke="midnightblue" d="M72.1455,-76.411C86.5083,-71.6856 104.029,-65.9211 119.526,-60.8226"/>
<polygon fill="midnightblue" stroke="midnightblue" points="120.959,-64.0359 129.364,-57.5859 118.771,-57.3866 120.959,-64.0359"/>
</g>
<!-- Node5311 -->
<g id="node5" class="node"><title>Node5311</title>
<g id="a_node5"><a xlink:href="../../df/d2d/util_8cpp.html#ab272995de020a3bcbf743be630e485c6" target="_top" xlink:title="GetDefaultDataDir">
<polygon fill="white" stroke="black" points="259,-76.5 259,-95.5 357,-95.5 357,-76.5 259,-76.5"/>
<text text-anchor="middle" x="308" y="-83.5" font-family="Helvetica,sans-Serif" font-size="10.00">GetDefaultDataDir</text>
</a>
</g>
</g>
<!-- Node5310&#45;&gt;Node5311 -->
<g id="edge4" class="edge"><title>Node5310&#45;&gt;Node5311</title>
<path fill="none" stroke="midnightblue" d="M192.65,-56.3393C212.517,-61.4925 238.349,-68.1928 260.432,-73.921"/>
<polygon fill="midnightblue" stroke="midnightblue" points="259.722,-77.3524 270.28,-76.4754 261.479,-70.5766 259.722,-77.3524"/>
</g>
<!-- Node5312 -->
<g id="node6" class="node"><title>Node5312</title>
<g id="a_node6"><a xlink:href="../../d9/d44/chainparamsbase_8cpp.html#a06ef5bfd0efb53d13bbf4276726e84ab" target="_top" xlink:title="Return the currently selected parameters. ">
<polygon fill="white" stroke="black" points="271.5,-38.5 271.5,-57.5 344.5,-57.5 344.5,-38.5 271.5,-38.5"/>
<text text-anchor="middle" x="308" y="-45.5" font-family="Helvetica,sans-Serif" font-size="10.00">BaseParams</text>
</a>
</g>
</g>
<!-- Node5310&#45;&gt;Node5312 -->
<g id="edge5" class="edge"><title>Node5310&#45;&gt;Node5312</title>
<path fill="none" stroke="midnightblue" d="M192.65,-48C212.719,-48 238.873,-48 261.102,-48"/>
<polygon fill="midnightblue" stroke="midnightblue" points="261.329,-51.5001 271.329,-48 261.329,-44.5001 261.329,-51.5001"/>
</g>
<!-- Node5313 -->
<g id="node7" class="node"><title>Node5313</title>
<g id="a_node7"><a xlink:href="../../d2/dfc/class_c_base_chain_params.html#a4b142e94ae27f860522dd5efef41fb67" target="_top" xlink:title="CBaseChainParams::DataDir">
<polygon fill="white" stroke="black" points="235,-0.5 235,-19.5 381,-19.5 381,-0.5 235,-0.5"/>
<text text-anchor="middle" x="308" y="-7.5" font-family="Helvetica,sans-Serif" font-size="10.00">CBaseChainParams::DataDir</text>
</a>
</g>
</g>
<!-- Node5310&#45;&gt;Node5313 -->
<g id="edge6" class="edge"><title>Node5310&#45;&gt;Node5313</title>
<path fill="none" stroke="midnightblue" d="M192.65,-39.6607C212.517,-34.5075 238.349,-27.8072 260.432,-22.079"/>
<polygon fill="midnightblue" stroke="midnightblue" points="261.479,-25.4234 270.28,-19.5246 259.722,-18.6476 261.479,-25.4234"/>
</g>
</g>
</svg>
