<?xml version="1.0" encoding="UTF-8" standalone="no"?>
<!DOCTYPE svg PUBLIC "-//W3C//DTD SVG 1.1//EN"
 "http://www.w3.org/Graphics/SVG/1.1/DTD/svg11.dtd">
<!-- Generated by graphviz version 2.38.0 (20140413.2041)
 -->
<!-- Title: CacheMultiMap::Erase Pages: 1 -->
<!--zoomable 350 -->
<svg id="main" version="1.1" xmlns="http://www.w3.org/2000/svg" xmlns:xlink="http://www.w3.org/1999/xlink" xml:space="preserve" onload="init(evt)">
<style type="text/css"><![CDATA[
.edge:hover path { stroke: red; }
.edge:hover polygon { stroke: red; fill: red; }
]]></style>
<script type="text/javascript"><![CDATA[
var edges = document.getElementsByTagName('g');
if (edges && edges.length) {
  for (var i=0;i<edges.length;i++) {
    if (edges[i].id.substr(0,4)=='edge') {
      edges[i].setAttribute('class','edge');
    }
  }
}
]]></script>
        <defs>
                <circle id="rim" cx="0" cy="0" r="7"/>
                <circle id="rim2" cx="0" cy="0" r="3.5"/>
                <g id="zoomPlus">
                        <use xlink:href="#rim" fill="#404040">
                                <set attributeName="fill" to="#808080" begin="zoomplus.mouseover" end="zoomplus.mouseout"/>
                        </use>
                        <path d="M-4,0h8M0,-4v8" fill="none" stroke="white" stroke-width="1.5" pointer-events="none"/>
                </g>
                <g id="zoomMin">
                        <use xlink:href="#rim" fill="#404040">
                                <set attributeName="fill" to="#808080" begin="zoomminus.mouseover" end="zoomminus.mouseout"/>
                        </use>
                        <path d="M-4,0h8" fill="none" stroke="white" stroke-width="1.5" pointer-events="none"/>
                </g>
                <g id="dirArrow">
                        <path fill="none" stroke="white" stroke-width="1.5" d="M0,-3.0v7 M-2.5,-0.5L0,-3.0L2.5,-0.5"/>
                </g>
               <g id="resetDef">
                       <use xlink:href="#rim2" fill="#404040">
                               <set attributeName="fill" to="#808080" begin="reset.mouseover" end="reset.mouseout"/>
                       </use>
               </g>
        </defs>

<script type="text/javascript">
var viewWidth = 2069;
var viewHeight = 350;
var sectionId = 'dynsection-1';
</script>
<script xlink:href="../../svgpan.js"/>
<svg id="graph" class="graph">
<g id="viewport">
<title>CacheMultiMap::Erase</title>
<polygon fill="white" stroke="none" points="-4,4 -4,-346.104 2065,-346.104 2065,4 -4,4"/>
<!-- Node9 -->
<g id="node1" class="node"><title>Node9</title>
<polygon fill="#bfbfbf" stroke="black" points="0,-134.104 0,-153.104 116,-153.104 116,-134.104 0,-134.104"/>
<text text-anchor="middle" x="58" y="-141.104" font-family="Helvetica,sans-Serif" font-size="10.00">CacheMultiMap::Erase</text>
</g>
<!-- Node10 -->
<g id="node2" class="node"><title>Node10</title>
<g id="a_node2"><a xlink:href="../../d7/d9b/class_c_governance_object.html#af3efa713b83a3f0812271d1d0be2b183" target="_top" xlink:title="CGovernanceObject::\lCheckOrphanVotes">
<polygon fill="white" stroke="black" points="153.5,-177.604 153.5,-207.604 264.5,-207.604 264.5,-177.604 153.5,-177.604"/>
<text text-anchor="start" x="161.5" y="-195.604" font-family="Helvetica,sans-Serif" font-size="10.00">CGovernanceObject::</text>
<text text-anchor="middle" x="209" y="-184.604" font-family="Helvetica,sans-Serif" font-size="10.00">CheckOrphanVotes</text>
</a>
</g>
</g>
<!-- Node9&#45;&gt;Node10 -->
<g id="edge1" class="edge"><title>Node9&#45;&gt;Node10</title>
<path fill="none" stroke="midnightblue" d="M97.6799,-156.325C117.436,-162.821 141.602,-170.769 162.275,-177.567"/>
<polygon fill="midnightblue" stroke="midnightblue" points="98.6753,-152.968 88.0824,-153.168 96.4885,-159.617 98.6753,-152.968"/>
</g>
<!-- Node11 -->
<g id="node3" class="node"><title>Node11</title>
<g id="a_node3"><a xlink:href="../../de/d48/class_c_governance_manager.html#aba7b49c4acae5347498e68569bd7cbfe" target="_top" xlink:title="CGovernanceManager\l::CheckOrphanVotes">
<polygon fill="white" stroke="black" points="152,-128.604 152,-158.604 266,-158.604 266,-128.604 152,-128.604"/>
<text text-anchor="start" x="160" y="-146.604" font-family="Helvetica,sans-Serif" font-size="10.00">CGovernanceManager</text>
<text text-anchor="middle" x="209" y="-135.604" font-family="Helvetica,sans-Serif" font-size="10.00">::CheckOrphanVotes</text>
</a>
</g>
</g>
<!-- Node9&#45;&gt;Node11 -->
<g id="edge2" class="edge"><title>Node9&#45;&gt;Node11</title>
<path fill="none" stroke="midnightblue" d="M126.407,-143.604C134.865,-143.604 143.447,-143.604 151.709,-143.604"/>
<polygon fill="midnightblue" stroke="midnightblue" points="126.181,-140.104 116.181,-143.604 126.181,-147.104 126.181,-140.104"/>
</g>
<!-- Node44 -->
<g id="node36" class="node"><title>Node44</title>
<g id="a_node36"><a xlink:href="../../de/d48/class_c_governance_manager.html#a29a90894c8622f45dd16861fb65114c1" target="_top" xlink:title="CGovernanceManager\l::CleanOrphanObjects">
<polygon fill="white" stroke="black" points="152,-38.6043 152,-68.6043 266,-68.6043 266,-38.6043 152,-38.6043"/>
<text text-anchor="start" x="160" y="-56.6043" font-family="Helvetica,sans-Serif" font-size="10.00">CGovernanceManager</text>
<text text-anchor="middle" x="209" y="-45.6043" font-family="Helvetica,sans-Serif" font-size="10.00">::CleanOrphanObjects</text>
</a>
</g>
</g>
<!-- Node9&#45;&gt;Node44 -->
<g id="edge39" class="edge"><title>Node9&#45;&gt;Node44</title>
<path fill="none" stroke="midnightblue" d="M83.5782,-128.758C111.076,-112.149 155.38,-85.388 183.035,-68.6841"/>
<polygon fill="midnightblue" stroke="midnightblue" points="81.6957,-125.807 74.9456,-133.973 85.3149,-131.798 81.6957,-125.807"/>
</g>
<!-- Node12 -->
<g id="node4" class="node"><title>Node12</title>
<g id="a_node4"><a xlink:href="../../de/d48/class_c_governance_manager.html#a411c189171dd09a82de2daf8b12134fd" target="_top" xlink:title="CGovernanceManager\l::AddGovernanceObject">
<polygon fill="white" stroke="black" points="302,-210.604 302,-240.604 423,-240.604 423,-210.604 302,-210.604"/>
<text text-anchor="start" x="310" y="-228.604" font-family="Helvetica,sans-Serif" font-size="10.00">CGovernanceManager</text>
<text text-anchor="middle" x="362.5" y="-217.604" font-family="Helvetica,sans-Serif" font-size="10.00">::AddGovernanceObject</text>
</a>
</g>
</g>
<!-- Node11&#45;&gt;Node12 -->
<g id="edge3" class="edge"><title>Node11&#45;&gt;Node12</title>
<path fill="none" stroke="midnightblue" d="M256.383,-162.874C259.662,-164.422 262.896,-166.007 266,-167.604 291.526,-180.743 319.457,-198.075 338.48,-210.361"/>
<polygon fill="midnightblue" stroke="midnightblue" points="257.643,-159.602 247.093,-158.626 254.732,-165.968 257.643,-159.602"/>
</g>
<!-- Node13 -->
<g id="node5" class="node"><title>Node13</title>
<g id="a_node5"><a xlink:href="../../de/d48/class_c_governance_manager.html#a442507518db0686a860dea18979c7cd6" target="_top" xlink:title="CGovernanceManager\l::ProcessMessage">
<polygon fill="white" stroke="black" points="693.5,-252.604 693.5,-282.604 807.5,-282.604 807.5,-252.604 693.5,-252.604"/>
<text text-anchor="start" x="701.5" y="-270.604" font-family="Helvetica,sans-Serif" font-size="10.00">CGovernanceManager</text>
<text text-anchor="middle" x="750.5" y="-259.604" font-family="Helvetica,sans-Serif" font-size="10.00">::ProcessMessage</text>
</a>
</g>
</g>
<!-- Node12&#45;&gt;Node13 -->
<g id="edge4" class="edge"><title>Node12&#45;&gt;Node13</title>
<path fill="none" stroke="midnightblue" d="M433.254,-240.464C441.899,-242.015 450.635,-243.445 459,-244.604 540.058,-255.837 634.658,-262.057 693.327,-265.115"/>
<polygon fill="midnightblue" stroke="midnightblue" points="433.647,-236.977 423.176,-238.596 432.371,-243.86 433.647,-236.977"/>
</g>
<!-- Node26 -->
<g id="node18" class="node"><title>Node26</title>
<g id="a_node18"><a xlink:href="../../de/d48/class_c_governance_manager.html#a3953c78251f14a8db9ed1b8683c35670" target="_top" xlink:title="CGovernanceManager\l::CheckMasternodeOrphanObjects">
<polygon fill="white" stroke="black" points="459,-161.604 459,-191.604 626,-191.604 626,-161.604 459,-161.604"/>
<text text-anchor="start" x="467" y="-179.604" font-family="Helvetica,sans-Serif" font-size="10.00">CGovernanceManager</text>
<text text-anchor="middle" x="542.5" y="-168.604" font-family="Helvetica,sans-Serif" font-size="10.00">::CheckMasternodeOrphanObjects</text>
</a>
</g>
</g>
<!-- Node12&#45;&gt;Node26 -->
<g id="edge18" class="edge"><title>Node12&#45;&gt;Node26</title>
<path fill="none" stroke="midnightblue" d="M428.238,-207.783C447.457,-202.493 468.31,-196.752 486.823,-191.656"/>
<polygon fill="midnightblue" stroke="midnightblue" points="427.071,-204.474 418.358,-210.503 428.929,-211.223 427.071,-204.474"/>
</g>
<!-- Node39 -->
<g id="node31" class="node"><title>Node39</title>
<g id="a_node31"><a xlink:href="../../de/d48/class_c_governance_manager.html#ac3f4ec182d1b226f8f2190224044e533" target="_top" xlink:title="CGovernanceManager\l::CheckPostponedObjects">
<polygon fill="white" stroke="black" points="477,-302.604 477,-332.604 608,-332.604 608,-302.604 477,-302.604"/>
<text text-anchor="start" x="485" y="-320.604" font-family="Helvetica,sans-Serif" font-size="10.00">CGovernanceManager</text>
<text text-anchor="middle" x="542.5" y="-309.604" font-family="Helvetica,sans-Serif" font-size="10.00">::CheckPostponedObjects</text>
</a>
</g>
</g>
<!-- Node12&#45;&gt;Node39 -->
<g id="edge33" class="edge"><title>Node12&#45;&gt;Node39</title>
<path fill="none" stroke="midnightblue" d="M397.24,-246.148C415.315,-256.868 438.104,-269.936 459,-280.604 474.099,-288.313 491.142,-296.103 505.8,-302.533"/>
<polygon fill="midnightblue" stroke="midnightblue" points="398.633,-242.903 388.253,-240.781 395.044,-248.913 398.633,-242.903"/>
</g>
<!-- Node43 -->
<g id="node35" class="node"><title>Node43</title>
<g id="a_node35"><a xlink:href="../../d8/dc3/server_8h.html#a0fa637689f8c63fc6adebeb9458430db" target="_top" xlink:title="gobject">
<polygon fill="white" stroke="black" points="518.5,-216.104 518.5,-235.104 566.5,-235.104 566.5,-216.104 518.5,-216.104"/>
<text text-anchor="middle" x="542.5" y="-223.104" font-family="Helvetica,sans-Serif" font-size="10.00">gobject</text>
</a>
</g>
</g>
<!-- Node12&#45;&gt;Node43 -->
<g id="edge38" class="edge"><title>Node12&#45;&gt;Node43</title>
<path fill="none" stroke="midnightblue" d="M433.336,-225.604C463.435,-225.604 496.606,-225.604 518.174,-225.604"/>
<polygon fill="midnightblue" stroke="midnightblue" points="433.267,-222.104 423.267,-225.604 433.267,-229.104 433.267,-222.104"/>
</g>
<!-- Node14 -->
<g id="node6" class="node"><title>Node14</title>
<g id="a_node6"><a xlink:href="../../d2/d83/net__processing_8cpp.html#a193d0ece6e2f2f7ee37352ac9720bb83" target="_top" xlink:title="ProcessMessage">
<polygon fill="white" stroke="black" points="1105,-271.104 1105,-290.104 1197,-290.104 1197,-271.104 1105,-271.104"/>
<text text-anchor="middle" x="1151" y="-278.104" font-family="Helvetica,sans-Serif" font-size="10.00">ProcessMessage</text>
</a>
</g>
</g>
<!-- Node13&#45;&gt;Node14 -->
<g id="edge5" class="edge"><title>Node13&#45;&gt;Node14</title>
<path fill="none" stroke="midnightblue" d="M817.874,-269.77C899.165,-272.421 1034.68,-276.842 1104.83,-279.131"/>
<polygon fill="midnightblue" stroke="midnightblue" points="817.859,-266.267 807.75,-269.439 817.631,-273.264 817.859,-266.267"/>
</g>
<!-- Node15 -->
<g id="node7" class="node"><title>Node15</title>
<g id="a_node7"><a xlink:href="../../d0/dd8/net__processing_8h.html#a7fa42e7ffd6e6ba5b7537af248e30fc8" target="_top" xlink:title="Process protocol messages received from a given node. ">
<polygon fill="white" stroke="black" points="1280,-271.104 1280,-290.104 1378,-290.104 1378,-271.104 1280,-271.104"/>
<text text-anchor="middle" x="1329" y="-278.104" font-family="Helvetica,sans-Serif" font-size="10.00">ProcessMessages</text>
</a>
</g>
</g>
<!-- Node14&#45;&gt;Node15 -->
<g id="edge6" class="edge"><title>Node14&#45;&gt;Node15</title>
<path fill="none" stroke="midnightblue" d="M1207.38,-280.604C1230.6,-280.604 1257.35,-280.604 1279.75,-280.604"/>
<polygon fill="midnightblue" stroke="midnightblue" points="1207.32,-277.104 1197.32,-280.604 1207.32,-284.104 1207.32,-277.104"/>
</g>
<!-- Node16 -->
<g id="node8" class="node"><title>Node16</title>
<g id="a_node8"><a xlink:href="../../d0/dd8/net__processing_8h.html#ab02615ff65f91d69f8d786ec900baa8a" target="_top" xlink:title="Register with a network node to receive its signals. ">
<polygon fill="white" stroke="black" points="1447,-274.104 1447,-293.104 1556,-293.104 1556,-274.104 1447,-274.104"/>
<text text-anchor="middle" x="1501.5" y="-281.104" font-family="Helvetica,sans-Serif" font-size="10.00">RegisterNodeSignals</text>
</a>
</g>
</g>
<!-- Node15&#45;&gt;Node16 -->
<g id="edge7" class="edge"><title>Node15&#45;&gt;Node16</title>
<path fill="none" stroke="midnightblue" d="M1388.41,-281.632C1407.37,-281.966 1428.29,-282.334 1446.89,-282.661"/>
<polygon fill="midnightblue" stroke="midnightblue" points="1388.46,-278.133 1378.4,-281.456 1388.34,-285.131 1388.46,-278.133"/>
</g>
<!-- Node21 -->
<g id="node13" class="node"><title>Node21</title>
<g id="a_node13"><a xlink:href="../../d0/dd8/net__processing_8h.html#a3ef0cc6e9d9d6435ee2a5569244d6ebd" target="_top" xlink:title="Unregister a network node. ">
<polygon fill="white" stroke="black" points="1443,-236.104 1443,-255.104 1560,-255.104 1560,-236.104 1443,-236.104"/>
<text text-anchor="middle" x="1501.5" y="-243.104" font-family="Helvetica,sans-Serif" font-size="10.00">UnregisterNodeSignals</text>
</a>
</g>
</g>
<!-- Node15&#45;&gt;Node21 -->
<g id="edge12" class="edge"><title>Node15&#45;&gt;Node21</title>
<path fill="none" stroke="midnightblue" d="M1386.43,-269.021C1408.33,-264.525 1433.11,-259.438 1453.97,-255.157"/>
<polygon fill="midnightblue" stroke="midnightblue" points="1385.68,-265.601 1376.59,-271.04 1387.09,-272.458 1385.68,-265.601"/>
</g>
<!-- Node17 -->
<g id="node9" class="node"><title>Node17</title>
<g id="a_node9"><a xlink:href="../../d8/dc0/init_8h.html#a6f0784aa332573f949b0975205572b28" target="_top" xlink:title="Initialize Dash Core. ">
<polygon fill="white" stroke="black" points="1616.5,-274.104 1616.5,-293.104 1669.5,-293.104 1669.5,-274.104 1616.5,-274.104"/>
<text text-anchor="middle" x="1643" y="-281.104" font-family="Helvetica,sans-Serif" font-size="10.00">AppInit2</text>
</a>
</g>
</g>
<!-- Node16&#45;&gt;Node17 -->
<g id="edge8" class="edge"><title>Node16&#45;&gt;Node17</title>
<path fill="none" stroke="midnightblue" d="M1566.37,-283.604C1584.09,-283.604 1602.32,-283.604 1616.44,-283.604"/>
<polygon fill="midnightblue" stroke="midnightblue" points="1566.04,-280.104 1556.04,-283.604 1566.04,-287.104 1566.04,-280.104"/>
</g>
<!-- Node18 -->
<g id="node10" class="node"><title>Node18</title>
<g id="a_node10"><a xlink:href="../../dd/de1/dashd_8cpp.html#ac59316b767e6984e1285f0531275286b" target="_top" xlink:title="AppInit">
<polygon fill="white" stroke="black" points="1905.5,-293.104 1905.5,-312.104 1952.5,-312.104 1952.5,-293.104 1905.5,-293.104"/>
<text text-anchor="middle" x="1929" y="-300.104" font-family="Helvetica,sans-Serif" font-size="10.00">AppInit</text>
</a>
</g>
</g>
<!-- Node17&#45;&gt;Node18 -->
<g id="edge9" class="edge"><title>Node17&#45;&gt;Node18</title>
<path fill="none" stroke="midnightblue" d="M1679.53,-293.695C1693.84,-297.27 1710.58,-300.841 1726,-302.604 1790.81,-310.014 1868.08,-306.657 1905.49,-304.266"/>
<polygon fill="midnightblue" stroke="midnightblue" points="1680.15,-290.24 1669.59,-291.117 1678.39,-297.016 1680.15,-290.24"/>
</g>
<!-- Node20 -->
<g id="node12" class="node"><title>Node20</title>
<g id="a_node12"><a xlink:href="../../d2/d76/class_bitcoin_core.html#af34ca069cda1d4362dcc109b4397fb62" target="_top" xlink:title="BitcoinCore::initialize">
<polygon fill="white" stroke="black" points="1726,-274.104 1726,-293.104 1835,-293.104 1835,-274.104 1726,-274.104"/>
<text text-anchor="middle" x="1780.5" y="-281.104" font-family="Helvetica,sans-Serif" font-size="10.00">BitcoinCore::initialize</text>
</a>
</g>
</g>
<!-- Node17&#45;&gt;Node20 -->
<g id="edge11" class="edge"><title>Node17&#45;&gt;Node20</title>
<path fill="none" stroke="midnightblue" d="M1680.01,-283.604C1694.03,-283.604 1710.38,-283.604 1725.74,-283.604"/>
<polygon fill="midnightblue" stroke="midnightblue" points="1679.81,-280.104 1669.81,-283.604 1679.81,-287.104 1679.81,-280.104"/>
</g>
<!-- Node19 -->
<g id="node11" class="node"><title>Node19</title>
<g id="a_node11"><a xlink:href="../../dd/de1/dashd_8cpp.html#a0ddf1224851353fc92bfbff6f499fa97" target="_top" xlink:title="main">
<polygon fill="white" stroke="black" points="2023,-293.104 2023,-312.104 2061,-312.104 2061,-293.104 2023,-293.104"/>
<text text-anchor="middle" x="2042" y="-300.104" font-family="Helvetica,sans-Serif" font-size="10.00">main</text>
</a>
</g>
</g>
<!-- Node18&#45;&gt;Node19 -->
<g id="edge10" class="edge"><title>Node18&#45;&gt;Node19</title>
<path fill="none" stroke="midnightblue" d="M1962.77,-302.604C1982.33,-302.604 2006.46,-302.604 2022.7,-302.604"/>
<polygon fill="midnightblue" stroke="midnightblue" points="1962.73,-299.104 1952.73,-302.604 1962.73,-306.104 1962.73,-299.104"/>
</g>
<!-- Node22 -->
<g id="node14" class="node"><title>Node22</title>
<g id="a_node14"><a xlink:href="../../d8/dc0/init_8h.html#a5cb3db83cb0ba2e421f651a1ee1f2cfe" target="_top" xlink:title="Preparing steps before shutting down or restarting the wallet. ">
<polygon fill="white" stroke="black" points="1596,-236.104 1596,-255.104 1690,-255.104 1690,-236.104 1596,-236.104"/>
<text text-anchor="middle" x="1643" y="-243.104" font-family="Helvetica,sans-Serif" font-size="10.00">PrepareShutdown</text>
</a>
</g>
</g>
<!-- Node21&#45;&gt;Node22 -->
<g id="edge13" class="edge"><title>Node21&#45;&gt;Node22</title>
<path fill="none" stroke="midnightblue" d="M1570.13,-245.604C1578.77,-245.604 1587.45,-245.604 1595.65,-245.604"/>
<polygon fill="midnightblue" stroke="midnightblue" points="1570.05,-242.104 1560.05,-245.604 1570.05,-249.104 1570.05,-242.104"/>
</g>
<!-- Node23 -->
<g id="node15" class="node"><title>Node23</title>
<g id="a_node15"><a xlink:href="../../d2/d76/class_bitcoin_core.html#ac2271844c89ebc4c611e7617ce6202e3" target="_top" xlink:title="BitcoinCore::restart">
<polygon fill="white" stroke="black" points="1730,-198.104 1730,-217.104 1831,-217.104 1831,-198.104 1730,-198.104"/>
<text text-anchor="middle" x="1780.5" y="-205.104" font-family="Helvetica,sans-Serif" font-size="10.00">BitcoinCore::restart</text>
</a>
</g>
</g>
<!-- Node22&#45;&gt;Node23 -->
<g id="edge14" class="edge"><title>Node22&#45;&gt;Node23</title>
<path fill="none" stroke="midnightblue" d="M1687.92,-233.286C1706.54,-228.065 1727.91,-222.073 1745.32,-217.19"/>
<polygon fill="midnightblue" stroke="midnightblue" points="1686.88,-229.945 1678.19,-236.015 1688.77,-236.685 1686.88,-229.945"/>
</g>
<!-- Node24 -->
<g id="node16" class="node"><title>Node24</title>
<g id="a_node16"><a xlink:href="../../d8/dc0/init_8h.html#ac5f038c2b480cf9ef5e19e3eba8dbaf9" target="_top" xlink:title="Shutdown is split into 2 parts: Part 1: shut down everything but the main wallet instance (done in Pr...">
<polygon fill="white" stroke="black" points="1750.5,-236.104 1750.5,-255.104 1810.5,-255.104 1810.5,-236.104 1750.5,-236.104"/>
<text text-anchor="middle" x="1780.5" y="-243.104" font-family="Helvetica,sans-Serif" font-size="10.00">Shutdown</text>
</a>
</g>
</g>
<!-- Node22&#45;&gt;Node24 -->
<g id="edge15" class="edge"><title>Node22&#45;&gt;Node24</title>
<path fill="none" stroke="midnightblue" d="M1700.74,-245.604C1717.84,-245.604 1735.9,-245.604 1750.41,-245.604"/>
<polygon fill="midnightblue" stroke="midnightblue" points="1700.25,-242.104 1690.25,-245.604 1700.25,-249.104 1700.25,-242.104"/>
</g>
<!-- Node24&#45;&gt;Node18 -->
<g id="edge16" class="edge"><title>Node24&#45;&gt;Node18</title>
<path fill="none" stroke="midnightblue" d="M1818.74,-258.58C1824.21,-260.557 1829.76,-262.606 1835,-264.604 1859.28,-273.87 1886.8,-285.223 1905.57,-293.094"/>
<polygon fill="midnightblue" stroke="midnightblue" points="1819.68,-255.196 1809.08,-255.123 1817.32,-261.787 1819.68,-255.196"/>
</g>
<!-- Node25 -->
<g id="node17" class="node"><title>Node25</title>
<g id="a_node17"><a xlink:href="../../d2/d76/class_bitcoin_core.html#a94f3f4622ba698e321f3a2e0e686129f" target="_top" xlink:title="BitcoinCore::shutdown">
<polygon fill="white" stroke="black" points="1871,-236.104 1871,-255.104 1987,-255.104 1987,-236.104 1871,-236.104"/>
<text text-anchor="middle" x="1929" y="-243.104" font-family="Helvetica,sans-Serif" font-size="10.00">BitcoinCore::shutdown</text>
</a>
</g>
</g>
<!-- Node24&#45;&gt;Node25 -->
<g id="edge17" class="edge"><title>Node24&#45;&gt;Node25</title>
<path fill="none" stroke="midnightblue" d="M1820.97,-245.604C1836.31,-245.604 1854.18,-245.604 1870.88,-245.604"/>
<polygon fill="midnightblue" stroke="midnightblue" points="1820.79,-242.104 1810.79,-245.604 1820.79,-249.104 1820.79,-242.104"/>
</g>
<!-- Node27 -->
<g id="node19" class="node"><title>Node27</title>
<g id="a_node19"><a xlink:href="../../dc/d6b/class_c_masternode_man.html#a5e27707730f73d111df8bc0fcd819b68" target="_top" xlink:title="Called to notify CGovernanceManager that the masternode index has been updated. ">
<polygon fill="white" stroke="black" points="662,-160.604 662,-190.604 839,-190.604 839,-160.604 662,-160.604"/>
<text text-anchor="start" x="670" y="-178.604" font-family="Helvetica,sans-Serif" font-size="10.00">CMasternodeMan::NotifyMasternode</text>
<text text-anchor="middle" x="750.5" y="-167.604" font-family="Helvetica,sans-Serif" font-size="10.00">Updates</text>
</a>
</g>
</g>
<!-- Node26&#45;&gt;Node27 -->
<g id="edge19" class="edge"><title>Node26&#45;&gt;Node27</title>
<path fill="none" stroke="midnightblue" d="M636.37,-176.153C644.839,-176.112 653.401,-176.071 661.822,-176.03"/>
<polygon fill="midnightblue" stroke="midnightblue" points="636.084,-172.655 626.101,-176.203 636.118,-179.655 636.084,-172.655"/>
</g>
<!-- Node28 -->
<g id="node20" class="node"><title>Node28</title>
<g id="a_node20"><a xlink:href="../../d8/dc3/server_8h.html#adc51a168fd3ea207996ae4f8d9d6c6ea" target="_top" xlink:title="masternode">
<polygon fill="white" stroke="black" points="929,-128.104 929,-147.104 997,-147.104 997,-128.104 929,-128.104"/>
<text text-anchor="middle" x="963" y="-135.104" font-family="Helvetica,sans-Serif" font-size="10.00">masternode</text>
</a>
</g>
</g>
<!-- Node27&#45;&gt;Node28 -->
<g id="edge20" class="edge"><title>Node27&#45;&gt;Node28</title>
<path fill="none" stroke="midnightblue" d="M844.823,-158.757C874.88,-153.331 906.251,-147.668 928.961,-143.569"/>
<polygon fill="midnightblue" stroke="midnightblue" points="843.914,-155.365 834.695,-160.586 845.158,-162.253 843.914,-155.365"/>
</g>
<!-- Node29 -->
<g id="node21" class="node"><title>Node29</title>
<g id="a_node21"><a xlink:href="../../d8/dc3/server_8h.html#a7ae813efd78b542bd5e3cddb01174777" target="_top" xlink:title="masternodebroadcast">
<polygon fill="white" stroke="black" points="908,-40.1043 908,-59.1043 1018,-59.1043 1018,-40.1043 908,-40.1043"/>
<text text-anchor="middle" x="963" y="-47.1043" font-family="Helvetica,sans-Serif" font-size="10.00">masternodebroadcast</text>
</a>
</g>
</g>
<!-- Node27&#45;&gt;Node29 -->
<g id="edge21" class="edge"><title>Node27&#45;&gt;Node29</title>
<path fill="none" stroke="midnightblue" d="M770.936,-153.064C793.453,-128.442 832.889,-89.7035 875,-68.6043 885.09,-63.5487 896.5,-59.8314 907.657,-57.1003"/>
<polygon fill="midnightblue" stroke="midnightblue" points="768.315,-150.744 764.237,-160.522 773.523,-155.421 768.315,-150.744"/>
</g>
<!-- Node30 -->
<g id="node22" class="node"><title>Node30</title>
<g id="a_node22"><a xlink:href="../../dc/d6b/class_c_masternode_man.html#a09302023fe1dca8be33e34d1ece9d27f" target="_top" xlink:title="Check all Masternodes and remove inactive. ">
<polygon fill="white" stroke="black" points="890,-78.6043 890,-108.604 1036,-108.604 1036,-78.6043 890,-78.6043"/>
<text text-anchor="start" x="898" y="-96.6043" font-family="Helvetica,sans-Serif" font-size="10.00">CMasternodeMan::CheckAnd</text>
<text text-anchor="middle" x="963" y="-85.6043" font-family="Helvetica,sans-Serif" font-size="10.00">Remove</text>
</a>
</g>
</g>
<!-- Node27&#45;&gt;Node30 -->
<g id="edge22" class="edge"><title>Node27&#45;&gt;Node30</title>
<path fill="none" stroke="midnightblue" d="M790.045,-155.965C814.086,-144.183 845.887,-129.434 875,-118.604 884.574,-115.043 894.895,-111.678 904.967,-108.64"/>
<polygon fill="midnightblue" stroke="midnightblue" points="788.319,-152.914 780.907,-160.484 791.422,-159.189 788.319,-152.914"/>
</g>
<!-- Node32 -->
<g id="node24" class="node"><title>Node32</title>
<g id="a_node24"><a xlink:href="../../dc/d6b/class_c_masternode_man.html#ae8534b13438b5a2166854a6d35d99bac" target="_top" xlink:title="CMasternodeMan::ProcessMessage">
<polygon fill="white" stroke="black" points="875,-242.104 875,-261.104 1051,-261.104 1051,-242.104 875,-242.104"/>
<text text-anchor="middle" x="963" y="-249.104" font-family="Helvetica,sans-Serif" font-size="10.00">CMasternodeMan::ProcessMessage</text>
</a>
</g>
</g>
<!-- Node27&#45;&gt;Node32 -->
<g id="edge25" class="edge"><title>Node27&#45;&gt;Node32</title>
<path fill="none" stroke="midnightblue" d="M788.847,-195.433C812.906,-207.551 845.156,-222.591 875,-232.604 885.993,-236.293 898.012,-239.451 909.512,-242.072"/>
<polygon fill="midnightblue" stroke="midnightblue" points="790.223,-192.206 779.724,-190.781 787.043,-198.442 790.223,-192.206"/>
</g>
<!-- Node33 -->
<g id="node25" class="node"><title>Node33</title>
<g id="a_node25"><a xlink:href="../../d0/d4c/class_masternode_list.html#ab3a42d1c66f3b28e9843335d8ce0178d" target="_top" xlink:title="MasternodeList::StartAlias">
<polygon fill="white" stroke="black" points="897,-204.104 897,-223.104 1029,-223.104 1029,-204.104 897,-204.104"/>
<text text-anchor="middle" x="963" y="-211.104" font-family="Helvetica,sans-Serif" font-size="10.00">MasternodeList::StartAlias</text>
</a>
</g>
</g>
<!-- Node27&#45;&gt;Node33 -->
<g id="edge27" class="edge"><title>Node27&#45;&gt;Node33</title>
<path fill="none" stroke="midnightblue" d="M844.802,-192.447C866.939,-196.444 889.79,-200.569 909.37,-204.103"/>
<polygon fill="midnightblue" stroke="midnightblue" points="845.158,-188.955 834.695,-190.623 843.914,-195.844 845.158,-188.955"/>
</g>
<!-- Node36 -->
<g id="node28" class="node"><title>Node36</title>
<g id="a_node28"><a xlink:href="../../d0/d4c/class_masternode_list.html#a0ebd5301adf7567e6a82550ba6d02ccc" target="_top" xlink:title="MasternodeList::StartAll">
<polygon fill="white" stroke="black" points="902,-166.104 902,-185.104 1024,-185.104 1024,-166.104 902,-166.104"/>
<text text-anchor="middle" x="963" y="-173.104" font-family="Helvetica,sans-Serif" font-size="10.00">MasternodeList::StartAll</text>
</a>
</g>
</g>
<!-- Node27&#45;&gt;Node36 -->
<g id="edge30" class="edge"><title>Node27&#45;&gt;Node36</title>
<path fill="none" stroke="midnightblue" d="M849.692,-175.604C867.512,-175.604 885.603,-175.604 901.91,-175.604"/>
<polygon fill="midnightblue" stroke="midnightblue" points="849.247,-172.104 839.247,-175.604 849.247,-179.104 849.247,-172.104"/>
</g>
<!-- Node31 -->
<g id="node23" class="node"><title>Node31</title>
<g id="a_node23"><a xlink:href="../../df/d7f/privatesend_8h.html#a8ca12ada145ba86ddcba18018b77db14" target="_top" xlink:title="ThreadCheckPrivateSend">
<polygon fill="white" stroke="black" points="1087,-70.1043 1087,-89.1043 1215,-89.1043 1215,-70.1043 1087,-70.1043"/>
<text text-anchor="middle" x="1151" y="-77.1043" font-family="Helvetica,sans-Serif" font-size="10.00">ThreadCheckPrivateSend</text>
</a>
</g>
</g>
<!-- Node30&#45;&gt;Node31 -->
<g id="edge23" class="edge"><title>Node30&#45;&gt;Node31</title>
<path fill="none" stroke="midnightblue" d="M1046.48,-87.396C1060.06,-86.3741 1073.94,-85.3295 1086.94,-84.3506"/>
<polygon fill="midnightblue" stroke="midnightblue" points="1045.89,-83.9307 1036.18,-88.1715 1046.41,-90.911 1045.89,-83.9307"/>
</g>
<!-- Node31&#45;&gt;Node17 -->
<g id="edge24" class="edge"><title>Node31&#45;&gt;Node17</title>
<path fill="none" stroke="midnightblue" d="M1209.97,-91.3279C1292.83,-110.029 1447.53,-152.301 1560,-226.604 1579.41,-239.429 1576.83,-251.429 1596,-264.604 1602.12,-268.813 1609.33,-272.338 1616.19,-275.164"/>
<polygon fill="midnightblue" stroke="midnightblue" points="1210.5,-87.8618 1199.98,-89.1102 1208.98,-94.6952 1210.5,-87.8618"/>
</g>
<!-- Node32&#45;&gt;Node14 -->
<g id="edge26" class="edge"><title>Node32&#45;&gt;Node14</title>
<path fill="none" stroke="midnightblue" d="M1035.05,-262.681C1058.44,-266.328 1083.79,-270.282 1104.72,-273.545"/>
<polygon fill="midnightblue" stroke="midnightblue" points="1035.58,-259.223 1025.16,-261.14 1034.5,-266.139 1035.58,-259.223"/>
</g>
<!-- Node34 -->
<g id="node26" class="node"><title>Node34</title>
<g id="a_node26"><a xlink:href="../../d0/d4c/class_masternode_list.html#a4370755b1dcdbf4a9396108c2b7ae76a" target="_top" xlink:title="MasternodeList::on\l_startButton_clicked">
<polygon fill="white" stroke="black" points="1098,-216.604 1098,-246.604 1204,-246.604 1204,-216.604 1098,-216.604"/>
<text text-anchor="start" x="1106" y="-234.604" font-family="Helvetica,sans-Serif" font-size="10.00">MasternodeList::on</text>
<text text-anchor="middle" x="1151" y="-223.604" font-family="Helvetica,sans-Serif" font-size="10.00">_startButton_clicked</text>
</a>
</g>
</g>
<!-- Node33&#45;&gt;Node34 -->
<g id="edge28" class="edge"><title>Node33&#45;&gt;Node34</title>
<path fill="none" stroke="midnightblue" d="M1039.22,-220.884C1058.9,-222.788 1079.68,-224.799 1097.86,-226.559"/>
<polygon fill="midnightblue" stroke="midnightblue" points="1039.34,-217.379 1029.05,-219.9 1038.67,-224.347 1039.34,-217.379"/>
</g>
<!-- Node35 -->
<g id="node27" class="node"><title>Node35</title>
<g id="a_node27"><a xlink:href="../../d0/d4c/class_masternode_list.html#a257b85a08e7d691d1ecb35472043cf90" target="_top" xlink:title="MasternodeList::MasternodeList">
<polygon fill="white" stroke="black" points="1251,-222.104 1251,-241.104 1407,-241.104 1407,-222.104 1251,-222.104"/>
<text text-anchor="middle" x="1329" y="-229.104" font-family="Helvetica,sans-Serif" font-size="10.00">MasternodeList::MasternodeList</text>
</a>
</g>
</g>
<!-- Node34&#45;&gt;Node35 -->
<g id="edge29" class="edge"><title>Node34&#45;&gt;Node35</title>
<path fill="none" stroke="midnightblue" d="M1214.47,-231.604C1226.22,-231.604 1238.64,-231.604 1250.79,-231.604"/>
<polygon fill="midnightblue" stroke="midnightblue" points="1214.33,-228.104 1204.33,-231.604 1214.33,-235.104 1214.33,-228.104"/>
</g>
<!-- Node37 -->
<g id="node29" class="node"><title>Node37</title>
<g id="a_node29"><a xlink:href="../../d0/d4c/class_masternode_list.html#a12e7d7a66cc6ce787fb5de9babfd7358" target="_top" xlink:title="MasternodeList::on\l_startAllButton_clicked">
<polygon fill="white" stroke="black" points="1092.5,-108.604 1092.5,-138.604 1209.5,-138.604 1209.5,-108.604 1092.5,-108.604"/>
<text text-anchor="start" x="1100.5" y="-126.604" font-family="Helvetica,sans-Serif" font-size="10.00">MasternodeList::on</text>
<text text-anchor="middle" x="1151" y="-115.604" font-family="Helvetica,sans-Serif" font-size="10.00">_startAllButton_clicked</text>
</a>
</g>
</g>
<!-- Node36&#45;&gt;Node37 -->
<g id="edge31" class="edge"><title>Node36&#45;&gt;Node37</title>
<path fill="none" stroke="midnightblue" d="M1022.08,-163.824C1031.78,-161.598 1041.71,-159.16 1051,-156.604 1069.87,-151.416 1090.43,-144.732 1107.91,-138.738"/>
<polygon fill="midnightblue" stroke="midnightblue" points="1021.08,-160.46 1012.09,-166.062 1022.61,-167.291 1021.08,-160.46"/>
</g>
<!-- Node38 -->
<g id="node30" class="node"><title>Node38</title>
<g id="a_node30"><a xlink:href="../../d0/d4c/class_masternode_list.html#a559cf1011eede788d0416c7390e25145" target="_top" xlink:title="MasternodeList::on\l_startMissingButton\l_clicked">
<polygon fill="white" stroke="black" points="1099,-157.104 1099,-198.104 1203,-198.104 1203,-157.104 1099,-157.104"/>
<text text-anchor="start" x="1107" y="-186.104" font-family="Helvetica,sans-Serif" font-size="10.00">MasternodeList::on</text>
<text text-anchor="start" x="1107" y="-175.104" font-family="Helvetica,sans-Serif" font-size="10.00">_startMissingButton</text>
<text text-anchor="middle" x="1151" y="-164.104" font-family="Helvetica,sans-Serif" font-size="10.00">_clicked</text>
</a>
</g>
</g>
<!-- Node36&#45;&gt;Node38 -->
<g id="edge32" class="edge"><title>Node36&#45;&gt;Node38</title>
<path fill="none" stroke="midnightblue" d="M1034.18,-176.359C1055.66,-176.59 1078.86,-176.839 1098.81,-177.054"/>
<polygon fill="midnightblue" stroke="midnightblue" points="1034.17,-172.859 1024.13,-176.251 1034.09,-179.858 1034.17,-172.859"/>
</g>
<!-- Node40 -->
<g id="node32" class="node"><title>Node40</title>
<g id="a_node32"><a xlink:href="../../de/d48/class_c_governance_manager.html#abefe0f159b050f2c3c3c8f382ecca88d" target="_top" xlink:title="CGovernanceManager\l::UpdatedBlockTip">
<polygon fill="white" stroke="black" points="693.5,-311.604 693.5,-341.604 807.5,-341.604 807.5,-311.604 693.5,-311.604"/>
<text text-anchor="start" x="701.5" y="-329.604" font-family="Helvetica,sans-Serif" font-size="10.00">CGovernanceManager</text>
<text text-anchor="middle" x="750.5" y="-318.604" font-family="Helvetica,sans-Serif" font-size="10.00">::UpdatedBlockTip</text>
</a>
</g>
</g>
<!-- Node39&#45;&gt;Node40 -->
<g id="edge34" class="edge"><title>Node39&#45;&gt;Node40</title>
<path fill="none" stroke="midnightblue" d="M618.228,-320.869C643.065,-321.954 670.278,-323.143 693.456,-324.156"/>
<polygon fill="midnightblue" stroke="midnightblue" points="618.258,-317.367 608.114,-320.427 617.952,-324.361 618.258,-317.367"/>
</g>
<!-- Node41 -->
<g id="node33" class="node"><title>Node41</title>
<g id="a_node33"><a xlink:href="../../d6/dbc/class_c_d_s_notification_interface.html#ac2ced383b75336649c5694e580b18164" target="_top" xlink:title="CDSNotificationInterface\l::UpdatedBlockTip">
<polygon fill="white" stroke="black" points="1088,-311.604 1088,-341.604 1214,-341.604 1214,-311.604 1088,-311.604"/>
<text text-anchor="start" x="1096" y="-329.604" font-family="Helvetica,sans-Serif" font-size="10.00">CDSNotificationInterface</text>
<text text-anchor="middle" x="1151" y="-318.604" font-family="Helvetica,sans-Serif" font-size="10.00">::UpdatedBlockTip</text>
</a>
</g>
</g>
<!-- Node40&#45;&gt;Node41 -->
<g id="edge35" class="edge"><title>Node40&#45;&gt;Node41</title>
<path fill="none" stroke="midnightblue" d="M818.037,-326.604C893.18,-326.604 1014.5,-326.604 1087.81,-326.604"/>
<polygon fill="midnightblue" stroke="midnightblue" points="817.75,-323.104 807.75,-326.604 817.75,-330.104 817.75,-323.104"/>
</g>
<!-- Node42 -->
<g id="node34" class="node"><title>Node42</title>
<g id="a_node34"><a xlink:href="../../d6/dbc/class_c_d_s_notification_interface.html#a2e9dff307e1373bda9ac9445f7f5a3d7" target="_top" xlink:title="CDSNotificationInterface\l::InitializeCurrentBlockTip">
<polygon fill="white" stroke="black" points="1264.5,-310.604 1264.5,-340.604 1393.5,-340.604 1393.5,-310.604 1264.5,-310.604"/>
<text text-anchor="start" x="1272.5" y="-328.604" font-family="Helvetica,sans-Serif" font-size="10.00">CDSNotificationInterface</text>
<text text-anchor="middle" x="1329" y="-317.604" font-family="Helvetica,sans-Serif" font-size="10.00">::InitializeCurrentBlockTip</text>
</a>
</g>
</g>
<!-- Node41&#45;&gt;Node42 -->
<g id="edge36" class="edge"><title>Node41&#45;&gt;Node42</title>
<path fill="none" stroke="midnightblue" d="M1224.14,-326.194C1237.5,-326.119 1251.35,-326.04 1264.43,-325.966"/>
<polygon fill="midnightblue" stroke="midnightblue" points="1224.03,-322.695 1214.05,-326.252 1224.07,-329.695 1224.03,-322.695"/>
</g>
<!-- Node42&#45;&gt;Node17 -->
<g id="edge37" class="edge"><title>Node42&#45;&gt;Node17</title>
<path fill="none" stroke="midnightblue" d="M1403.77,-320.643C1449.04,-317 1508.1,-311.176 1560,-302.604 1579.03,-299.461 1600.24,-294.508 1616.32,-290.447"/>
<polygon fill="midnightblue" stroke="midnightblue" points="1403.44,-317.158 1393.74,-321.432 1403.99,-324.136 1403.44,-317.158"/>
</g>
<!-- Node45 -->
<g id="node37" class="node"><title>Node45</title>
<g id="a_node37"><a xlink:href="../../de/d48/class_c_governance_manager.html#a23de4bbbdff3df077cbc3ea2c1c415d2" target="_top" xlink:title="CGovernanceManager\l::DoMaintenance">
<polygon fill="white" stroke="black" points="305.5,-17.6043 305.5,-47.6043 419.5,-47.6043 419.5,-17.6043 305.5,-17.6043"/>
<text text-anchor="start" x="313.5" y="-35.6043" font-family="Helvetica,sans-Serif" font-size="10.00">CGovernanceManager</text>
<text text-anchor="middle" x="362.5" y="-24.6043" font-family="Helvetica,sans-Serif" font-size="10.00">::DoMaintenance</text>
</a>
</g>
</g>
<!-- Node44&#45;&gt;Node45 -->
<g id="edge40" class="edge"><title>Node44&#45;&gt;Node45</title>
<path fill="none" stroke="midnightblue" d="M276.367,-44.405C286.015,-43.0675 295.87,-41.7015 305.292,-40.3955"/>
<polygon fill="midnightblue" stroke="midnightblue" points="275.838,-40.9447 266.413,-45.7847 276.799,-47.8784 275.838,-40.9447"/>
</g>
<!-- Node45&#45;&gt;Node31 -->
<g id="edge41" class="edge"><title>Node45&#45;&gt;Node31</title>
<path fill="none" stroke="midnightblue" d="M429.831,-22.4022C553.818,-5.51979 828.306,21.4909 1051,-30.6043 1083.49,-38.2052 1117.55,-58.1104 1136.04,-70.0823"/>
<polygon fill="midnightblue" stroke="midnightblue" points="429.161,-18.9614 419.736,-23.8 430.122,-25.8953 429.161,-18.9614"/>
</g>
</g>
</svg>
        <g id="navigator" transform="translate(0 0)" fill="#404254">
                <rect fill="#f2f5e9" fill-opacity="0.5" stroke="#606060" stroke-width=".5" x="0" y="0" width="60" height="60"/>
                <use id="zoomplus" xlink:href="#zoomPlus" x="17" y="9" onmousedown="handleZoom(evt,'in')"/>
                <use id="zoomminus" xlink:href="#zoomMin" x="42" y="9" onmousedown="handleZoom(evt,'out')"/>
                <use id="reset" xlink:href="#resetDef" x="30" y="36" onmousedown="handleReset()"/>
                <g id="arrowUp" xlink:href="#dirArrow" transform="translate(30 24)" onmousedown="handlePan(0,-1)">
                  <use xlink:href="#rim" fill="#404040">
                        <set attributeName="fill" to="#808080" begin="arrowUp.mouseover" end="arrowUp.mouseout"/>
                  </use>
                  <path fill="none" stroke="white" stroke-width="1.5" d="M0,-3.0v7 M-2.5,-0.5L0,-3.0L2.5,-0.5"/>
                </g>
                <g id="arrowRight" xlink:href="#dirArrow" transform="rotate(90) translate(36 -43)" onmousedown="handlePan(1,0)">
                  <use xlink:href="#rim" fill="#404040">
                        <set attributeName="fill" to="#808080" begin="arrowRight.mouseover" end="arrowRight.mouseout"/>
                  </use>
                  <path fill="none" stroke="white" stroke-width="1.5" d="M0,-3.0v7 M-2.5,-0.5L0,-3.0L2.5,-0.5"/>
                </g>
                <g id="arrowDown" xlink:href="#dirArrow" transform="rotate(180) translate(-30 -48)" onmousedown="handlePan(0,1)">
                  <use xlink:href="#rim" fill="#404040">
                        <set attributeName="fill" to="#808080" begin="arrowDown.mouseover" end="arrowDown.mouseout"/>
                  </use>
                  <path fill="none" stroke="white" stroke-width="1.5" d="M0,-3.0v7 M-2.5,-0.5L0,-3.0L2.5,-0.5"/>
                </g>
                <g id="arrowLeft" xlink:href="#dirArrow" transform="rotate(270) translate(-36 17)" onmousedown="handlePan(-1,0)">
                  <use xlink:href="#rim" fill="#404040">
                        <set attributeName="fill" to="#808080" begin="arrowLeft.mouseover" end="arrowLeft.mouseout"/>
                  </use>
                  <path fill="none" stroke="white" stroke-width="1.5" d="M0,-3.0v7 M-2.5,-0.5L0,-3.0L2.5,-0.5"/>
                </g>
        </g>
        <svg viewBox="0 0 15 15" width="100%" height="30px" preserveAspectRatio="xMaxYMin meet">
         <g id="arrow_out" transform="scale(0.3 0.3)">
          <a xlink:href="class_cache_multi_map_ae6acb3a6d79af7d3bec201f40d11fcf2_icgraph_org.svg" target="_base">
           <rect id="button" ry="5" rx="5" y="6" x="6" height="38" width="38"
                fill="#f2f5e9" fill-opacity="0.5" stroke="#606060" stroke-width="1.0"/>
           <path id="arrow"
             d="M 11.500037,31.436501 C 11.940474,20.09759 22.043105,11.32322 32.158766,21.979434 L 37.068811,17.246167 C 37.068811,17.246167 37.088388,32 37.088388,32 L 22.160133,31.978069 C 22.160133,31.978069 26.997745,27.140456 26.997745,27.140456 C 18.528582,18.264221 13.291696,25.230495 11.500037,31.436501 z"
             style="fill:#404040;"/>
          </a>
         </g>
        </svg>
</svg>
