<?xml version="1.0" encoding="UTF-8" standalone="no"?>
<!DOCTYPE svg PUBLIC "-//W3C//DTD SVG 1.1//EN"
 "http://www.w3.org/Graphics/SVG/1.1/DTD/svg11.dtd">
<!-- Generated by graphviz version 2.38.0 (20140413.2041)
 -->
<!-- Title: groestl_small_core Pages: 1 -->
<svg width="400pt" height="176pt"
 viewBox="0.00 0.00 400.00 175.50" xmlns="http://www.w3.org/2000/svg" xmlns:xlink="http://www.w3.org/1999/xlink">
<g id="graph0" class="graph" transform="scale(1 1) rotate(0) translate(4 171.5)">
<title>groestl_small_core</title>
<polygon fill="white" stroke="none" points="-4,4 -4,-171.5 396,-171.5 396,4 -4,4"/>
<!-- Node406 -->
<g id="node1" class="node"><title>Node406</title>
<polygon fill="#bfbfbf" stroke="black" points="0,-38.5 0,-57.5 98,-57.5 98,-38.5 0,-38.5"/>
<text text-anchor="middle" x="49" y="-45.5" font-family="Helvetica,sans-Serif" font-size="10.00">groestl_small_core</text>
</g>
<!-- Node407 -->
<g id="node2" class="node"><title>Node407</title>
<g id="a_node2"><a xlink:href="../../dc/de8/groestl_8c.html#a46bbe998f3f41d565b4a17118205a54a" target="_top" xlink:title="groestl_small_close">
<polygon fill="white" stroke="black" points="134,-76.5 134,-95.5 237,-95.5 237,-76.5 134,-76.5"/>
<text text-anchor="middle" x="185.5" y="-83.5" font-family="Helvetica,sans-Serif" font-size="10.00">groestl_small_close</text>
</a>
</g>
</g>
<!-- Node406&#45;&gt;Node407 -->
<g id="edge1" class="edge"><title>Node406&#45;&gt;Node407</title>
<path fill="none" stroke="midnightblue" d="M93.6004,-60.3183C112.08,-65.5393 133.289,-71.5316 150.571,-76.4141"/>
<polygon fill="midnightblue" stroke="midnightblue" points="94.515,-56.9398 83.94,-57.589 92.6117,-63.6761 94.515,-56.9398"/>
</g>
<!-- Node412 -->
<g id="node7" class="node"><title>Node412</title>
<g id="a_node7"><a xlink:href="../../d9/dac/sph__groestl_8h.html#a1a70661022c2c8fb7d1b65fe29869481" target="_top" xlink:title="Process some data bytes. ">
<polygon fill="white" stroke="black" points="144,-38.5 144,-57.5 227,-57.5 227,-38.5 144,-38.5"/>
<text text-anchor="middle" x="185.5" y="-45.5" font-family="Helvetica,sans-Serif" font-size="10.00">sph_groestl224</text>
</a>
</g>
</g>
<!-- Node406&#45;&gt;Node412 -->
<g id="edge6" class="edge"><title>Node406&#45;&gt;Node412</title>
<path fill="none" stroke="midnightblue" d="M108.494,-48C120.386,-48 132.649,-48 143.762,-48"/>
<polygon fill="midnightblue" stroke="midnightblue" points="108.178,-44.5001 98.1777,-48 108.178,-51.5001 108.178,-44.5001"/>
</g>
<!-- Node413 -->
<g id="node8" class="node"><title>Node413</title>
<g id="a_node8"><a xlink:href="../../d9/dac/sph__groestl_8h.html#a2687e82c816070bed39d0511eff0e451" target="_top" xlink:title="Process some data bytes. ">
<polygon fill="white" stroke="black" points="144,-0.5 144,-19.5 227,-19.5 227,-0.5 144,-0.5"/>
<text text-anchor="middle" x="185.5" y="-7.5" font-family="Helvetica,sans-Serif" font-size="10.00">sph_groestl256</text>
</a>
</g>
</g>
<!-- Node406&#45;&gt;Node413 -->
<g id="edge7" class="edge"><title>Node406&#45;&gt;Node413</title>
<path fill="none" stroke="midnightblue" d="M93.6004,-35.6817C112.08,-30.4607 133.289,-24.4684 150.571,-19.5859"/>
<polygon fill="midnightblue" stroke="midnightblue" points="92.6117,-32.3239 83.94,-38.411 94.515,-39.0602 92.6117,-32.3239"/>
</g>
<!-- Node408 -->
<g id="node3" class="node"><title>Node408</title>
<g id="a_node3"><a xlink:href="../../d9/dac/sph__groestl_8h.html#a0b2638c580a491265e42030791ca3626" target="_top" xlink:title="Add a few additional bits (0 to 7) to the current computation, then terminate it and output the resul...">
<polygon fill="white" stroke="black" points="273,-137 273,-167 392,-167 392,-137 273,-137"/>
<text text-anchor="start" x="281" y="-155" font-family="Helvetica,sans-Serif" font-size="10.00">sph_groestl224_addbits</text>
<text text-anchor="middle" x="332.5" y="-144" font-family="Helvetica,sans-Serif" font-size="10.00">_and_close</text>
</a>
</g>
</g>
<!-- Node407&#45;&gt;Node408 -->
<g id="edge2" class="edge"><title>Node407&#45;&gt;Node408</title>
<path fill="none" stroke="midnightblue" d="M215.573,-100.125C232.296,-108.163 253.747,-118.327 273,-127 280.251,-130.266 288.05,-133.673 295.516,-136.882"/>
<polygon fill="midnightblue" stroke="midnightblue" points="216.853,-96.8564 206.325,-95.6651 213.812,-103.161 216.853,-96.8564"/>
</g>
<!-- Node409 -->
<g id="node4" class="node"><title>Node409</title>
<g id="a_node4"><a xlink:href="../../d9/dac/sph__groestl_8h.html#a0e3679280fb3caafd8bdb4d06321b95b" target="_top" xlink:title="Terminate the current Groestl&#45;224 computation and output the result into the provided buffer...">
<polygon fill="white" stroke="black" points="277,-98.5 277,-117.5 388,-117.5 388,-98.5 277,-98.5"/>
<text text-anchor="middle" x="332.5" y="-105.5" font-family="Helvetica,sans-Serif" font-size="10.00">sph_groestl224_close</text>
</a>
</g>
</g>
<!-- Node407&#45;&gt;Node409 -->
<g id="edge3" class="edge"><title>Node407&#45;&gt;Node409</title>
<path fill="none" stroke="midnightblue" d="M247.234,-95.2149C256.981,-96.6936 267.018,-98.2165 276.617,-99.6729"/>
<polygon fill="midnightblue" stroke="midnightblue" points="247.626,-91.7343 237.214,-93.6945 246.576,-98.6551 247.626,-91.7343"/>
</g>
<!-- Node410 -->
<g id="node5" class="node"><title>Node410</title>
<g id="a_node5"><a xlink:href="../../d9/dac/sph__groestl_8h.html#afbe18dd0412b3726e0ebfa3a54ce62fa" target="_top" xlink:title="Add a few additional bits (0 to 7) to the current computation, then terminate it and output the resul...">
<polygon fill="white" stroke="black" points="273,-49 273,-79 392,-79 392,-49 273,-49"/>
<text text-anchor="start" x="281" y="-67" font-family="Helvetica,sans-Serif" font-size="10.00">sph_groestl256_addbits</text>
<text text-anchor="middle" x="332.5" y="-56" font-family="Helvetica,sans-Serif" font-size="10.00">_and_close</text>
</a>
</g>
</g>
<!-- Node407&#45;&gt;Node410 -->
<g id="edge4" class="edge"><title>Node407&#45;&gt;Node410</title>
<path fill="none" stroke="midnightblue" d="M247.371,-76.7645C255.811,-75.4839 264.467,-74.1705 272.866,-72.8962"/>
<polygon fill="midnightblue" stroke="midnightblue" points="246.576,-73.3449 237.214,-78.3055 247.626,-80.2657 246.576,-73.3449"/>
</g>
<!-- Node411 -->
<g id="node6" class="node"><title>Node411</title>
<g id="a_node6"><a xlink:href="../../d9/dac/sph__groestl_8h.html#a7f5e799b29ea2a3210d5cc4dab78dcb9" target="_top" xlink:title="Terminate the current Groestl&#45;256 computation and output the result into the provided buffer...">
<polygon fill="white" stroke="black" points="277,-10.5 277,-29.5 388,-29.5 388,-10.5 277,-10.5"/>
<text text-anchor="middle" x="332.5" y="-17.5" font-family="Helvetica,sans-Serif" font-size="10.00">sph_groestl256_close</text>
</a>
</g>
</g>
<!-- Node407&#45;&gt;Node411 -->
<g id="edge5" class="edge"><title>Node407&#45;&gt;Node411</title>
<path fill="none" stroke="midnightblue" d="M225.851,-72.5393C229.691,-70.8282 233.469,-68.9772 237,-67 254.686,-57.0968 255.092,-48.4955 273,-39 279.981,-35.2982 287.815,-32.149 295.424,-29.5421"/>
<polygon fill="midnightblue" stroke="midnightblue" points="224.185,-69.4409 216.281,-76.4965 226.859,-75.9098 224.185,-69.4409"/>
</g>
</g>
</svg>
