<?xml version="1.0" encoding="UTF-8" standalone="no"?>
<!DOCTYPE svg PUBLIC "-//W3C//DTD SVG 1.1//EN"
 "http://www.w3.org/Graphics/SVG/1.1/DTD/svg11.dtd">
<!-- Generated by graphviz version 2.38.0 (20140413.2041)
 -->
<!-- Title: src/utilmoneystr.cpp Pages: 1 -->
<!--zoomable 420 -->
<svg id="main" version="1.1" xmlns="http://www.w3.org/2000/svg" xmlns:xlink="http://www.w3.org/1999/xlink" xml:space="preserve" onload="init(evt)">
<style type="text/css"><![CDATA[
.edge:hover path { stroke: red; }
.edge:hover polygon { stroke: red; fill: red; }
]]></style>
<script type="text/javascript"><![CDATA[
var edges = document.getElementsByTagName('g');
if (edges && edges.length) {
  for (var i=0;i<edges.length;i++) {
    if (edges[i].id.substr(0,4)=='edge') {
      edges[i].setAttribute('class','edge');
    }
  }
}
]]></script>
        <defs>
                <circle id="rim" cx="0" cy="0" r="7"/>
                <circle id="rim2" cx="0" cy="0" r="3.5"/>
                <g id="zoomPlus">
                        <use xlink:href="#rim" fill="#404040">
                                <set attributeName="fill" to="#808080" begin="zoomplus.mouseover" end="zoomplus.mouseout"/>
                        </use>
                        <path d="M-4,0h8M0,-4v8" fill="none" stroke="white" stroke-width="1.5" pointer-events="none"/>
                </g>
                <g id="zoomMin">
                        <use xlink:href="#rim" fill="#404040">
                                <set attributeName="fill" to="#808080" begin="zoomminus.mouseover" end="zoomminus.mouseout"/>
                        </use>
                        <path d="M-4,0h8" fill="none" stroke="white" stroke-width="1.5" pointer-events="none"/>
                </g>
                <g id="dirArrow">
                        <path fill="none" stroke="white" stroke-width="1.5" d="M0,-3.0v7 M-2.5,-0.5L0,-3.0L2.5,-0.5"/>
                </g>
               <g id="resetDef">
                       <use xlink:href="#rim2" fill="#404040">
                               <set attributeName="fill" to="#808080" begin="reset.mouseover" end="reset.mouseout"/>
                       </use>
               </g>
        </defs>

<script type="text/javascript">
var viewWidth = 1367;
var viewHeight = 420;
var sectionId = 'dynsection-0';
</script>
<script xlink:href="../../svgpan.js"/>
<svg id="graph" class="graph">
<g id="viewport">
<title>src/utilmoneystr.cpp</title>
<polygon fill="white" stroke="none" points="-4,4 -4,-416 1363,-416 1363,4 -4,4"/>
<!-- Node0 -->
<g id="node1" class="node"><title>Node0</title>
<polygon fill="#bfbfbf" stroke="black" points="789.5,-392.5 789.5,-411.5 894.5,-411.5 894.5,-392.5 789.5,-392.5"/>
<text text-anchor="middle" x="842" y="-399.5" font-family="Helvetica,sans-Serif" font-size="10.00">src/utilmoneystr.cpp</text>
</g>
<!-- Node1 -->
<g id="node2" class="node"><title>Node1</title>
<g id="a_node2"><a xlink:href="../../d0/d03/utilmoneystr_8h.html" target="_top" xlink:title="utilmoneystr.h">
<polygon fill="white" stroke="black" points="603,-336.5 603,-355.5 681,-355.5 681,-336.5 603,-336.5"/>
<text text-anchor="middle" x="642" y="-343.5" font-family="Helvetica,sans-Serif" font-size="10.00">utilmoneystr.h</text>
</a>
</g>
</g>
<!-- Node0&#45;&gt;Node1 -->
<g id="edge1" class="edge"><title>Node0&#45;&gt;Node1</title>
<path fill="none" stroke="midnightblue" d="M810.309,-392.444C775.932,-383.162 720.923,-368.309 683.211,-358.127"/>
<polygon fill="midnightblue" stroke="midnightblue" points="684.109,-354.744 673.542,-355.516 682.284,-361.502 684.109,-354.744"/>
</g>
<!-- Node21 -->
<g id="node22" class="node"><title>Node21</title>
<g id="a_node22"><a xlink:href="../../d0/db6/transaction_8h.html" target="_top" xlink:title="primitives/transaction.h">
<polygon fill="white" stroke="black" points="735,-336.5 735,-355.5 853,-355.5 853,-336.5 735,-336.5"/>
<text text-anchor="middle" x="794" y="-343.5" font-family="Helvetica,sans-Serif" font-size="10.00">primitives/transaction.h</text>
</a>
</g>
</g>
<!-- Node0&#45;&gt;Node21 -->
<g id="edge29" class="edge"><title>Node0&#45;&gt;Node21</title>
<path fill="none" stroke="midnightblue" d="M834.074,-392.083C827.154,-384.298 816.935,-372.801 808.548,-363.367"/>
<polygon fill="midnightblue" stroke="midnightblue" points="811.038,-360.9 801.779,-355.751 805.806,-365.55 811.038,-360.9"/>
</g>
<!-- Node28 -->
<g id="node29" class="node"><title>Node28</title>
<g id="a_node29"><a xlink:href="../../d1/db1/tinyformat_8h.html" target="_top" xlink:title="tinyformat.h">
<polygon fill="white" stroke="black" points="1159,-336.5 1159,-355.5 1227,-355.5 1227,-336.5 1159,-336.5"/>
<text text-anchor="middle" x="1193" y="-343.5" font-family="Helvetica,sans-Serif" font-size="10.00">tinyformat.h</text>
</a>
</g>
</g>
<!-- Node0&#45;&gt;Node28 -->
<g id="edge53" class="edge"><title>Node0&#45;&gt;Node28</title>
<path fill="none" stroke="midnightblue" d="M894.548,-392.916C963.712,-382.275 1084.08,-363.758 1148.8,-353.8"/>
<polygon fill="midnightblue" stroke="midnightblue" points="1149.34,-357.258 1158.69,-352.278 1148.28,-350.339 1149.34,-357.258"/>
</g>
<!-- Node32 -->
<g id="node33" class="node"><title>Node32</title>
<g id="a_node33"><a xlink:href="../../d8/db2/utilstrencodings_8h.html" target="_top" xlink:title="utilstrencodings.h">
<polygon fill="white" stroke="black" points="871.5,-224.5 871.5,-243.5 964.5,-243.5 964.5,-224.5 871.5,-224.5"/>
<text text-anchor="middle" x="918" y="-231.5" font-family="Helvetica,sans-Serif" font-size="10.00">utilstrencodings.h</text>
</a>
</g>
</g>
<!-- Node0&#45;&gt;Node32 -->
<g id="edge58" class="edge"><title>Node0&#45;&gt;Node32</title>
<path fill="none" stroke="midnightblue" d="M846.086,-392.075C858.153,-365.719 893.791,-287.878 909.914,-252.661"/>
<polygon fill="midnightblue" stroke="midnightblue" points="913.097,-254.117 914.077,-243.568 906.732,-251.204 913.097,-254.117"/>
</g>
<!-- Node2 -->
<g id="node3" class="node"><title>Node2</title>
<polygon fill="white" stroke="#bfbfbf" points="787.5,-0.5 787.5,-19.5 836.5,-19.5 836.5,-0.5 787.5,-0.5"/>
<text text-anchor="middle" x="812" y="-7.5" font-family="Helvetica,sans-Serif" font-size="10.00">stdint.h</text>
</g>
<!-- Node1&#45;&gt;Node2 -->
<g id="edge2" class="edge"><title>Node1&#45;&gt;Node2</title>
<path fill="none" stroke="midnightblue" d="M602.806,-342.457C463.419,-332.897 0,-296.489 0,-235 0,-235 0,-235 0,-121 0,-41.3782 621.005,-16.8918 776.853,-12.0003"/>
<polygon fill="midnightblue" stroke="midnightblue" points="777.367,-15.4863 787.255,-11.6815 777.153,-8.48955 777.367,-15.4863"/>
</g>
<!-- Node3 -->
<g id="node4" class="node"><title>Node3</title>
<polygon fill="white" stroke="#bfbfbf" points="649.5,-168.5 649.5,-187.5 690.5,-187.5 690.5,-168.5 649.5,-168.5"/>
<text text-anchor="middle" x="670" y="-175.5" font-family="Helvetica,sans-Serif" font-size="10.00">string</text>
</g>
<!-- Node1&#45;&gt;Node3 -->
<g id="edge3" class="edge"><title>Node1&#45;&gt;Node3</title>
<path fill="none" stroke="midnightblue" d="M643.565,-336.379C645.2,-327.325 647.827,-312.67 650,-300 656.218,-263.751 663.15,-221.331 667.002,-197.571"/>
<polygon fill="midnightblue" stroke="midnightblue" points="670.487,-197.945 668.629,-187.515 663.577,-196.827 670.487,-197.945"/>
</g>
<!-- Node4 -->
<g id="node5" class="node"><title>Node4</title>
<g id="a_node5"><a xlink:href="../../dd/d2f/amount_8h.html" target="_top" xlink:title="amount.h">
<polygon fill="white" stroke="black" points="584.5,-280.5 584.5,-299.5 641.5,-299.5 641.5,-280.5 584.5,-280.5"/>
<text text-anchor="middle" x="613" y="-287.5" font-family="Helvetica,sans-Serif" font-size="10.00">amount.h</text>
</a>
</g>
</g>
<!-- Node1&#45;&gt;Node4 -->
<g id="edge4" class="edge"><title>Node1&#45;&gt;Node4</title>
<path fill="none" stroke="midnightblue" d="M637.211,-336.083C633.242,-328.691 627.475,-317.953 622.565,-308.811"/>
<polygon fill="midnightblue" stroke="midnightblue" points="625.514,-306.905 617.7,-299.751 619.347,-310.217 625.514,-306.905"/>
</g>
<!-- Node4&#45;&gt;Node3 -->
<g id="edge28" class="edge"><title>Node4&#45;&gt;Node3</title>
<path fill="none" stroke="midnightblue" d="M617.473,-280.368C626.796,-262.376 648.469,-220.55 660.866,-196.627"/>
<polygon fill="midnightblue" stroke="midnightblue" points="664.055,-198.081 665.548,-187.591 657.84,-194.86 664.055,-198.081"/>
</g>
<!-- Node5 -->
<g id="node6" class="node"><title>Node5</title>
<g id="a_node6"><a xlink:href="../../df/d9d/serialize_8h.html" target="_top" xlink:title="serialize.h">
<polygon fill="white" stroke="black" points="463.5,-224.5 463.5,-243.5 524.5,-243.5 524.5,-224.5 463.5,-224.5"/>
<text text-anchor="middle" x="494" y="-231.5" font-family="Helvetica,sans-Serif" font-size="10.00">serialize.h</text>
</a>
</g>
</g>
<!-- Node4&#45;&gt;Node5 -->
<g id="edge5" class="edge"><title>Node4&#45;&gt;Node5</title>
<path fill="none" stroke="midnightblue" d="M594.144,-280.444C574.734,-271.636 544.27,-257.812 522.035,-247.722"/>
<polygon fill="midnightblue" stroke="midnightblue" points="523.32,-244.462 512.768,-243.516 520.428,-250.836 523.32,-244.462"/>
</g>
<!-- Node19 -->
<g id="node20" class="node"><title>Node19</title>
<polygon fill="white" stroke="#bfbfbf" points="220,-112.5 220,-131.5 268,-131.5 268,-112.5 220,-112.5"/>
<text text-anchor="middle" x="244" y="-119.5" font-family="Helvetica,sans-Serif" font-size="10.00">stdlib.h</text>
</g>
<!-- Node4&#45;&gt;Node19 -->
<g id="edge27" class="edge"><title>Node4&#45;&gt;Node19</title>
<path fill="none" stroke="midnightblue" d="M584.313,-287.996C484.943,-283.86 158.066,-264.55 95,-188 61.5208,-147.362 155.971,-131.434 209.671,-125.783"/>
<polygon fill="midnightblue" stroke="midnightblue" points="210.208,-129.247 219.818,-124.785 209.523,-122.281 210.208,-129.247"/>
</g>
<!-- Node5&#45;&gt;Node2 -->
<g id="edge17" class="edge"><title>Node5&#45;&gt;Node2</title>
<path fill="none" stroke="midnightblue" d="M463.489,-233.45C363.582,-234.316 54.89,-231.903 95,-168 169.368,-49.5184 643.554,-18.7853 777.063,-12.436"/>
<polygon fill="midnightblue" stroke="midnightblue" points="777.317,-15.9282 787.145,-11.9726 776.995,-8.93555 777.317,-15.9282"/>
</g>
<!-- Node5&#45;&gt;Node3 -->
<g id="edge18" class="edge"><title>Node5&#45;&gt;Node3</title>
<path fill="none" stroke="midnightblue" d="M521.888,-224.444C554.038,-214.579 606.692,-198.424 639.792,-188.268"/>
<polygon fill="midnightblue" stroke="midnightblue" points="640.858,-191.602 649.392,-185.323 638.805,-184.91 640.858,-191.602"/>
</g>
<!-- Node6 -->
<g id="node7" class="node"><title>Node6</title>
<g id="a_node7"><a xlink:href="../../d1/d84/endian_8h.html" target="_top" xlink:title="compat/endian.h">
<polygon fill="white" stroke="black" points="728.5,-112.5 728.5,-131.5 817.5,-131.5 817.5,-112.5 728.5,-112.5"/>
<text text-anchor="middle" x="773" y="-119.5" font-family="Helvetica,sans-Serif" font-size="10.00">compat/endian.h</text>
</a>
</g>
</g>
<!-- Node5&#45;&gt;Node6 -->
<g id="edge6" class="edge"><title>Node5&#45;&gt;Node6</title>
<path fill="none" stroke="midnightblue" d="M502.95,-224.409C518.015,-210.433 549.944,-182.849 582,-168 625.651,-147.781 679.259,-136.175 718.559,-129.833"/>
<polygon fill="midnightblue" stroke="midnightblue" points="719.136,-133.286 728.481,-128.295 718.063,-126.369 719.136,-133.286"/>
</g>
<!-- Node8 -->
<g id="node9" class="node"><title>Node8</title>
<polygon fill="white" stroke="#bfbfbf" points="311,-168.5 311,-187.5 367,-187.5 367,-168.5 311,-168.5"/>
<text text-anchor="middle" x="339" y="-175.5" font-family="Helvetica,sans-Serif" font-size="10.00">algorithm</text>
</g>
<!-- Node5&#45;&gt;Node8 -->
<g id="edge10" class="edge"><title>Node5&#45;&gt;Node8</title>
<path fill="none" stroke="midnightblue" d="M469.44,-224.444C443.477,-215.399 402.332,-201.064 373.203,-190.916"/>
<polygon fill="midnightblue" stroke="midnightblue" points="374.04,-187.501 363.445,-187.516 371.737,-194.112 374.04,-187.501"/>
</g>
<!-- Node9 -->
<g id="node10" class="node"><title>Node9</title>
<polygon fill="white" stroke="#bfbfbf" points="709,-168.5 709,-187.5 761,-187.5 761,-168.5 709,-168.5"/>
<text text-anchor="middle" x="735" y="-175.5" font-family="Helvetica,sans-Serif" font-size="10.00">assert.h</text>
</g>
<!-- Node5&#45;&gt;Node9 -->
<g id="edge11" class="edge"><title>Node5&#45;&gt;Node9</title>
<path fill="none" stroke="midnightblue" d="M524.626,-226.566C562.872,-218.468 630.548,-203.932 698.631,-188.03"/>
<polygon fill="midnightblue" stroke="midnightblue" points="699.739,-191.365 708.675,-185.674 698.14,-184.55 699.739,-191.365"/>
</g>
<!-- Node10 -->
<g id="node11" class="node"><title>Node10</title>
<polygon fill="white" stroke="#bfbfbf" points="384.5,-168.5 384.5,-187.5 413.5,-187.5 413.5,-168.5 384.5,-168.5"/>
<text text-anchor="middle" x="399" y="-175.5" font-family="Helvetica,sans-Serif" font-size="10.00">ios</text>
</g>
<!-- Node5&#45;&gt;Node10 -->
<g id="edge12" class="edge"><title>Node5&#45;&gt;Node10</title>
<path fill="none" stroke="midnightblue" d="M478.737,-224.324C463.602,-215.721 440.199,-202.418 422.655,-192.446"/>
<polygon fill="midnightblue" stroke="midnightblue" points="424.025,-189.199 413.602,-187.3 420.566,-195.284 424.025,-189.199"/>
</g>
<!-- Node11 -->
<g id="node12" class="node"><title>Node11</title>
<polygon fill="white" stroke="#bfbfbf" points="591,-168.5 591,-187.5 631,-187.5 631,-168.5 591,-168.5"/>
<text text-anchor="middle" x="611" y="-175.5" font-family="Helvetica,sans-Serif" font-size="10.00">limits</text>
</g>
<!-- Node5&#45;&gt;Node11 -->
<g id="edge13" class="edge"><title>Node5&#45;&gt;Node11</title>
<path fill="none" stroke="midnightblue" d="M512.539,-224.444C531.623,-215.636 561.575,-201.812 583.436,-191.722"/>
<polygon fill="midnightblue" stroke="midnightblue" points="584.935,-194.885 592.548,-187.516 582.001,-188.529 584.935,-194.885"/>
</g>
<!-- Node12 -->
<g id="node13" class="node"><title>Node12</title>
<polygon fill="white" stroke="#bfbfbf" points="104.5,-168.5 104.5,-187.5 133.5,-187.5 133.5,-168.5 104.5,-168.5"/>
<text text-anchor="middle" x="119" y="-175.5" font-family="Helvetica,sans-Serif" font-size="10.00">list</text>
</g>
<!-- Node5&#45;&gt;Node12 -->
<g id="edge14" class="edge"><title>Node5&#45;&gt;Node12</title>
<path fill="none" stroke="midnightblue" d="M463.394,-231.617C403.334,-228.366 265.9,-218.282 143.803,-187.956"/>
<polygon fill="midnightblue" stroke="midnightblue" points="144.473,-184.515 133.919,-185.448 142.751,-191.3 144.473,-184.515"/>
</g>
<!-- Node13 -->
<g id="node14" class="node"><title>Node13</title>
<polygon fill="white" stroke="#bfbfbf" points="151.5,-168.5 151.5,-187.5 186.5,-187.5 186.5,-168.5 151.5,-168.5"/>
<text text-anchor="middle" x="169" y="-175.5" font-family="Helvetica,sans-Serif" font-size="10.00">map</text>
</g>
<!-- Node5&#45;&gt;Node13 -->
<g id="edge15" class="edge"><title>Node5&#45;&gt;Node13</title>
<path fill="none" stroke="midnightblue" d="M463.207,-230.114C410.459,-224.793 299.38,-211.941 196.519,-187.726"/>
<polygon fill="midnightblue" stroke="midnightblue" points="197.133,-184.274 186.593,-185.347 195.501,-191.081 197.133,-184.274"/>
</g>
<!-- Node14 -->
<g id="node15" class="node"><title>Node14</title>
<polygon fill="white" stroke="#bfbfbf" points="205,-168.5 205,-187.5 235,-187.5 235,-168.5 205,-168.5"/>
<text text-anchor="middle" x="220" y="-175.5" font-family="Helvetica,sans-Serif" font-size="10.00">set</text>
</g>
<!-- Node5&#45;&gt;Node14 -->
<g id="edge16" class="edge"><title>Node5&#45;&gt;Node14</title>
<path fill="none" stroke="midnightblue" d="M463.2,-229.28C417.379,-223.355 328.514,-210.358 244.757,-187.786"/>
<polygon fill="midnightblue" stroke="midnightblue" points="245.669,-184.407 235.099,-185.134 243.815,-191.157 245.669,-184.407"/>
</g>
<!-- Node15 -->
<g id="node16" class="node"><title>Node15</title>
<polygon fill="white" stroke="#bfbfbf" points="522.5,-112.5 522.5,-131.5 571.5,-131.5 571.5,-112.5 522.5,-112.5"/>
<text text-anchor="middle" x="547" y="-119.5" font-family="Helvetica,sans-Serif" font-size="10.00">string.h</text>
</g>
<!-- Node5&#45;&gt;Node15 -->
<g id="edge19" class="edge"><title>Node5&#45;&gt;Node15</title>
<path fill="none" stroke="midnightblue" d="M498.159,-224.368C506.828,-206.376 526.98,-164.55 538.507,-140.627"/>
<polygon fill="midnightblue" stroke="midnightblue" points="541.673,-142.119 542.86,-131.591 535.367,-139.081 541.673,-142.119"/>
</g>
<!-- Node16 -->
<g id="node17" class="node"><title>Node16</title>
<polygon fill="white" stroke="#bfbfbf" points="253,-168.5 253,-187.5 293,-187.5 293,-168.5 253,-168.5"/>
<text text-anchor="middle" x="273" y="-175.5" font-family="Helvetica,sans-Serif" font-size="10.00">utility</text>
</g>
<!-- Node5&#45;&gt;Node16 -->
<g id="edge20" class="edge"><title>Node5&#45;&gt;Node16</title>
<path fill="none" stroke="midnightblue" d="M463.239,-226.493C427.114,-218.699 365.192,-204.863 303.178,-188.179"/>
<polygon fill="midnightblue" stroke="midnightblue" points="303.796,-184.72 293.228,-185.478 301.961,-191.476 303.796,-184.72"/>
</g>
<!-- Node17 -->
<g id="node18" class="node"><title>Node17</title>
<polygon fill="white" stroke="#bfbfbf" points="919,-168.5 919,-187.5 963,-187.5 963,-168.5 919,-168.5"/>
<text text-anchor="middle" x="941" y="-175.5" font-family="Helvetica,sans-Serif" font-size="10.00">vector</text>
</g>
<!-- Node5&#45;&gt;Node17 -->
<g id="edge21" class="edge"><title>Node5&#45;&gt;Node17</title>
<path fill="none" stroke="midnightblue" d="M524.798,-229.42C589.129,-221.92 742.459,-203.935 871,-188 883.414,-186.461 897.06,-184.718 908.98,-183.179"/>
<polygon fill="midnightblue" stroke="midnightblue" points="909.47,-186.645 918.938,-181.889 908.571,-179.703 909.47,-186.645"/>
</g>
<!-- Node18 -->
<g id="node19" class="node"><title>Node18</title>
<g id="a_node19"><a xlink:href="../../de/d05/prevector_8h.html" target="_top" xlink:title="prevector.h">
<polygon fill="white" stroke="black" points="431.5,-168.5 431.5,-187.5 496.5,-187.5 496.5,-168.5 431.5,-168.5"/>
<text text-anchor="middle" x="464" y="-175.5" font-family="Helvetica,sans-Serif" font-size="10.00">prevector.h</text>
</a>
</g>
</g>
<!-- Node5&#45;&gt;Node18 -->
<g id="edge22" class="edge"><title>Node5&#45;&gt;Node18</title>
<path fill="none" stroke="midnightblue" d="M489.046,-224.083C484.896,-216.613 478.847,-205.724 473.733,-196.52"/>
<polygon fill="midnightblue" stroke="midnightblue" points="476.778,-194.793 468.862,-187.751 470.659,-198.192 476.778,-194.793"/>
</g>
<!-- Node6&#45;&gt;Node2 -->
<g id="edge7" class="edge"><title>Node6&#45;&gt;Node2</title>
<path fill="none" stroke="midnightblue" d="M766.022,-112.263C756.714,-99.4713 742.454,-75.0927 752,-56 758.728,-42.5432 771.606,-32.0665 783.712,-24.6212"/>
<polygon fill="midnightblue" stroke="midnightblue" points="785.733,-27.4985 792.704,-19.5195 782.279,-21.4101 785.733,-27.4985"/>
</g>
<!-- Node7 -->
<g id="node8" class="node"><title>Node7</title>
<g id="a_node8"><a xlink:href="../../db/dc9/byteswap_8h.html" target="_top" xlink:title="compat/byteswap.h">
<polygon fill="white" stroke="black" points="761,-56.5 761,-75.5 863,-75.5 863,-56.5 761,-56.5"/>
<text text-anchor="middle" x="812" y="-63.5" font-family="Helvetica,sans-Serif" font-size="10.00">compat/byteswap.h</text>
</a>
</g>
</g>
<!-- Node6&#45;&gt;Node7 -->
<g id="edge8" class="edge"><title>Node6&#45;&gt;Node7</title>
<path fill="none" stroke="midnightblue" d="M779.44,-112.083C784.949,-104.455 793.031,-93.2645 799.765,-83.9408"/>
<polygon fill="midnightblue" stroke="midnightblue" points="802.662,-85.9071 805.68,-75.7511 796.987,-81.8087 802.662,-85.9071"/>
</g>
<!-- Node7&#45;&gt;Node2 -->
<g id="edge9" class="edge"><title>Node7&#45;&gt;Node2</title>
<path fill="none" stroke="midnightblue" d="M812,-56.083C812,-49.0059 812,-38.8611 812,-29.9865"/>
<polygon fill="midnightblue" stroke="midnightblue" points="815.5,-29.751 812,-19.7511 808.5,-29.7511 815.5,-29.751"/>
</g>
<!-- Node18&#45;&gt;Node2 -->
<g id="edge24" class="edge"><title>Node18&#45;&gt;Node2</title>
<path fill="none" stroke="midnightblue" d="M468.445,-168.079C475.827,-154.141 491.917,-127.22 513,-112 596.397,-51.7927 718.269,-25.5744 777.34,-15.8723"/>
<polygon fill="midnightblue" stroke="midnightblue" points="777.949,-19.3196 787.28,-14.2996 776.855,-12.4056 777.949,-19.3196"/>
</g>
<!-- Node18&#45;&gt;Node15 -->
<g id="edge25" class="edge"><title>Node18&#45;&gt;Node15</title>
<path fill="none" stroke="midnightblue" d="M477.335,-168.324C490.162,-159.979 509.785,-147.212 524.94,-137.352"/>
<polygon fill="midnightblue" stroke="midnightblue" points="527.224,-140.042 533.698,-131.655 523.407,-134.174 527.224,-140.042"/>
</g>
<!-- Node18&#45;&gt;Node19 -->
<g id="edge23" class="edge"><title>Node18&#45;&gt;Node19</title>
<path fill="none" stroke="midnightblue" d="M431.064,-168.916C389.956,-158.826 319.994,-141.653 278.272,-131.412"/>
<polygon fill="midnightblue" stroke="midnightblue" points="278.854,-127.951 268.308,-128.967 277.186,-134.75 278.854,-127.951"/>
</g>
<!-- Node20 -->
<g id="node21" class="node"><title>Node20</title>
<polygon fill="white" stroke="#bfbfbf" points="418.5,-112.5 418.5,-131.5 465.5,-131.5 465.5,-112.5 418.5,-112.5"/>
<text text-anchor="middle" x="442" y="-119.5" font-family="Helvetica,sans-Serif" font-size="10.00">iterator</text>
</g>
<!-- Node18&#45;&gt;Node20 -->
<g id="edge26" class="edge"><title>Node18&#45;&gt;Node20</title>
<path fill="none" stroke="midnightblue" d="M460.367,-168.083C457.388,-160.77 453.074,-150.181 449.375,-141.103"/>
<polygon fill="midnightblue" stroke="midnightblue" points="452.58,-139.691 445.565,-131.751 446.097,-142.333 452.58,-139.691"/>
</g>
<!-- Node21&#45;&gt;Node4 -->
<g id="edge30" class="edge"><title>Node21&#45;&gt;Node4</title>
<path fill="none" stroke="midnightblue" d="M765.32,-336.444C734.473,-327.241 685.272,-312.562 651.171,-302.388"/>
<polygon fill="midnightblue" stroke="midnightblue" points="652.129,-299.021 641.546,-299.516 650.128,-305.729 652.129,-299.021"/>
</g>
<!-- Node21&#45;&gt;Node5 -->
<g id="edge44" class="edge"><title>Node21&#45;&gt;Node5</title>
<path fill="none" stroke="midnightblue" d="M777.042,-336.385C750.452,-323.096 697.11,-297.326 650,-280 611.447,-265.821 566.235,-253.203 534.439,-244.963"/>
<polygon fill="midnightblue" stroke="midnightblue" points="535.168,-241.537 524.612,-242.445 533.431,-248.318 535.168,-241.537"/>
</g>
<!-- Node22 -->
<g id="node23" class="node"><title>Node22</title>
<g id="a_node23"><a xlink:href="../../de/d7f/script_8h.html" target="_top" xlink:title="script/script.h">
<polygon fill="white" stroke="black" points="756,-224.5 756,-243.5 832,-243.5 832,-224.5 756,-224.5"/>
<text text-anchor="middle" x="794" y="-231.5" font-family="Helvetica,sans-Serif" font-size="10.00">script/script.h</text>
</a>
</g>
</g>
<!-- Node21&#45;&gt;Node22 -->
<g id="edge31" class="edge"><title>Node21&#45;&gt;Node22</title>
<path fill="none" stroke="midnightblue" d="M794,-336.368C794,-318.617 794,-277.666 794,-253.597"/>
<polygon fill="midnightblue" stroke="midnightblue" points="797.5,-253.591 794,-243.591 790.5,-253.591 797.5,-253.591"/>
</g>
<!-- Node26 -->
<g id="node27" class="node"><title>Node26</title>
<g id="a_node27"><a xlink:href="../../d5/d4d/uint256_8h.html" target="_top" xlink:title="uint256.h">
<polygon fill="white" stroke="black" points="993,-224.5 993,-243.5 1049,-243.5 1049,-224.5 993,-224.5"/>
<text text-anchor="middle" x="1021" y="-231.5" font-family="Helvetica,sans-Serif" font-size="10.00">uint256.h</text>
</a>
</g>
</g>
<!-- Node21&#45;&gt;Node26 -->
<g id="edge45" class="edge"><title>Node21&#45;&gt;Node26</title>
<path fill="none" stroke="midnightblue" d="M811.812,-336.368C851.429,-317.171 947.036,-270.842 994.02,-248.074"/>
<polygon fill="midnightblue" stroke="midnightblue" points="995.798,-251.102 1003.27,-243.591 992.745,-244.803 995.798,-251.102"/>
</g>
<!-- Node22&#45;&gt;Node2 -->
<g id="edge40" class="edge"><title>Node22&#45;&gt;Node2</title>
<path fill="none" stroke="midnightblue" d="M822.318,-224.463C839.676,-217.608 860.516,-206.083 871,-188 900.427,-137.245 898.237,-108.475 872,-56 865.272,-42.5432 852.394,-32.0665 840.288,-24.6212"/>
<polygon fill="midnightblue" stroke="midnightblue" points="841.721,-21.4101 831.296,-19.5195 838.267,-27.4985 841.721,-21.4101"/>
</g>
<!-- Node22&#45;&gt;Node3 -->
<g id="edge42" class="edge"><title>Node22&#45;&gt;Node3</title>
<path fill="none" stroke="midnightblue" d="M774.352,-224.444C754.035,-215.596 722.097,-201.687 698.902,-191.586"/>
<polygon fill="midnightblue" stroke="midnightblue" points="700.122,-188.3 689.556,-187.516 697.327,-194.718 700.122,-188.3"/>
</g>
<!-- Node22&#45;&gt;Node9 -->
<g id="edge36" class="edge"><title>Node22&#45;&gt;Node9</title>
<path fill="none" stroke="midnightblue" d="M784.521,-224.324C775.799,-216.341 762.657,-204.313 752.102,-194.653"/>
<polygon fill="midnightblue" stroke="midnightblue" points="754.392,-192.004 744.652,-187.834 749.666,-197.167 754.392,-192.004"/>
</g>
<!-- Node22&#45;&gt;Node11 -->
<g id="edge38" class="edge"><title>Node22&#45;&gt;Node11</title>
<path fill="none" stroke="midnightblue" d="M764.146,-224.436C735.03,-216.048 689.25,-202.768 640.956,-188.255"/>
<polygon fill="midnightblue" stroke="midnightblue" points="641.853,-184.87 631.268,-185.337 639.834,-191.573 641.853,-184.87"/>
</g>
<!-- Node22&#45;&gt;Node15 -->
<g id="edge41" class="edge"><title>Node22&#45;&gt;Node15</title>
<path fill="none" stroke="midnightblue" d="M793.41,-224.342C791.964,-210.271 786.996,-182.552 770,-168 742.098,-144.109 637.008,-131.179 581.633,-125.894"/>
<polygon fill="midnightblue" stroke="midnightblue" points="581.859,-122.4 571.58,-124.967 581.216,-129.371 581.859,-122.4"/>
</g>
<!-- Node22&#45;&gt;Node17 -->
<g id="edge43" class="edge"><title>Node22&#45;&gt;Node17</title>
<path fill="none" stroke="midnightblue" d="M817.293,-224.444C842.096,-215.332 881.511,-200.853 909.169,-190.693"/>
<polygon fill="midnightblue" stroke="midnightblue" points="910.599,-193.897 918.779,-187.163 908.185,-187.326 910.599,-193.897"/>
</g>
<!-- Node22&#45;&gt;Node18 -->
<g id="edge35" class="edge"><title>Node22&#45;&gt;Node18</title>
<path fill="none" stroke="midnightblue" d="M755.822,-226.753C693.82,-216.607 571.655,-196.616 506.8,-186.004"/>
<polygon fill="midnightblue" stroke="midnightblue" points="507.335,-182.545 496.901,-184.384 506.204,-189.453 507.335,-182.545"/>
</g>
<!-- Node23 -->
<g id="node24" class="node"><title>Node23</title>
<g id="a_node24"><a xlink:href="../../dc/d54/common_8h.html" target="_top" xlink:title="crypto/common.h">
<polygon fill="white" stroke="black" points="981,-168.5 981,-187.5 1073,-187.5 1073,-168.5 981,-168.5"/>
<text text-anchor="middle" x="1027" y="-175.5" font-family="Helvetica,sans-Serif" font-size="10.00">crypto/common.h</text>
</a>
</g>
</g>
<!-- Node22&#45;&gt;Node23 -->
<g id="edge32" class="edge"><title>Node22&#45;&gt;Node23</title>
<path fill="none" stroke="midnightblue" d="M830.92,-224.444C871.395,-215.063 936.421,-199.993 980.384,-189.804"/>
<polygon fill="midnightblue" stroke="midnightblue" points="981.302,-193.184 990.253,-187.516 979.721,-186.365 981.302,-193.184"/>
</g>
<!-- Node24 -->
<g id="node25" class="node"><title>Node24</title>
<polygon fill="white" stroke="#bfbfbf" points="817.5,-168.5 817.5,-187.5 862.5,-187.5 862.5,-168.5 817.5,-168.5"/>
<text text-anchor="middle" x="840" y="-175.5" font-family="Helvetica,sans-Serif" font-size="10.00">climits</text>
</g>
<!-- Node22&#45;&gt;Node24 -->
<g id="edge37" class="edge"><title>Node22&#45;&gt;Node24</title>
<path fill="none" stroke="midnightblue" d="M801.596,-224.083C808.227,-216.298 818.021,-204.801 826.058,-195.367"/>
<polygon fill="midnightblue" stroke="midnightblue" points="828.725,-197.633 832.545,-187.751 823.396,-193.094 828.725,-197.633"/>
</g>
<!-- Node25 -->
<g id="node26" class="node"><title>Node25</title>
<polygon fill="white" stroke="#bfbfbf" points="1167.5,-168.5 1167.5,-187.5 1226.5,-187.5 1226.5,-168.5 1167.5,-168.5"/>
<text text-anchor="middle" x="1197" y="-175.5" font-family="Helvetica,sans-Serif" font-size="10.00">stdexcept</text>
</g>
<!-- Node22&#45;&gt;Node25 -->
<g id="edge39" class="edge"><title>Node22&#45;&gt;Node25</title>
<path fill="none" stroke="midnightblue" d="M832.277,-227.871C908.65,-217.637 1079.28,-194.773 1157.03,-184.356"/>
<polygon fill="midnightblue" stroke="midnightblue" points="1157.92,-187.768 1167.36,-182.971 1156.99,-180.83 1157.92,-187.768"/>
</g>
<!-- Node23&#45;&gt;Node2 -->
<g id="edge33" class="edge"><title>Node23&#45;&gt;Node2</title>
<path fill="none" stroke="midnightblue" d="M1020.09,-168.403C1002.65,-147.12 954.671,-91.1596 905,-56 886.175,-42.6747 862.798,-31.3825 844.191,-23.4428"/>
<polygon fill="midnightblue" stroke="midnightblue" points="845.523,-20.2061 834.945,-19.6035 842.838,-26.6709 845.523,-20.2061"/>
</g>
<!-- Node23&#45;&gt;Node6 -->
<g id="edge34" class="edge"><title>Node23&#45;&gt;Node6</title>
<path fill="none" stroke="midnightblue" d="M986.753,-168.444C942.35,-159.004 870.847,-143.802 822.912,-133.611"/>
<polygon fill="midnightblue" stroke="midnightblue" points="823.568,-130.173 813.059,-131.516 822.112,-137.02 823.568,-130.173"/>
</g>
<!-- Node26&#45;&gt;Node2 -->
<g id="edge49" class="edge"><title>Node26&#45;&gt;Node2</title>
<path fill="none" stroke="midnightblue" d="M1049.37,-224.495C1066.75,-217.653 1087.6,-206.13 1098,-188 1114.98,-158.411 1067.69,-117.058 1063,-112 1034.49,-81.2201 1024.9,-73.9986 987,-56 941.091,-34.1984 883.203,-21.9687 846.883,-15.9273"/>
<polygon fill="midnightblue" stroke="midnightblue" points="847.217,-12.4363 836.79,-14.3158 846.113,-19.3488 847.217,-12.4363"/>
</g>
<!-- Node26&#45;&gt;Node3 -->
<g id="edge50" class="edge"><title>Node26&#45;&gt;Node3</title>
<path fill="none" stroke="midnightblue" d="M992.871,-227.462C986.358,-226.253 979.447,-225.029 973,-224 855.332,-205.224 821.437,-213.213 700.559,-187.778"/>
<polygon fill="midnightblue" stroke="midnightblue" points="701.055,-184.305 690.544,-185.636 699.591,-191.15 701.055,-184.305"/>
</g>
<!-- Node26&#45;&gt;Node9 -->
<g id="edge46" class="edge"><title>Node26&#45;&gt;Node9</title>
<path fill="none" stroke="midnightblue" d="M992.795,-227.674C940.656,-217.83 829.26,-196.797 771.47,-185.886"/>
<polygon fill="midnightblue" stroke="midnightblue" points="771.805,-182.387 761.329,-183.971 770.506,-189.266 771.805,-182.387"/>
</g>
<!-- Node26&#45;&gt;Node17 -->
<g id="edge51" class="edge"><title>Node26&#45;&gt;Node17</title>
<path fill="none" stroke="midnightblue" d="M1008.15,-224.324C995.784,-215.979 976.87,-203.212 962.263,-193.352"/>
<polygon fill="midnightblue" stroke="midnightblue" points="964.068,-190.348 953.821,-187.655 960.152,-196.15 964.068,-190.348"/>
</g>
<!-- Node26&#45;&gt;Node23 -->
<g id="edge52" class="edge"><title>Node26&#45;&gt;Node23</title>
<path fill="none" stroke="midnightblue" d="M1021.99,-224.083C1022.79,-216.927 1023.93,-206.635 1024.92,-197.691"/>
<polygon fill="midnightblue" stroke="midnightblue" points="1028.4,-198.076 1026.03,-187.751 1021.44,-197.303 1028.4,-198.076"/>
</g>
<!-- Node26&#45;&gt;Node25 -->
<g id="edge48" class="edge"><title>Node26&#45;&gt;Node25</title>
<path fill="none" stroke="midnightblue" d="M1048.89,-224.444C1078.75,-215.28 1126.31,-200.688 1159.46,-190.519"/>
<polygon fill="midnightblue" stroke="midnightblue" points="1160.71,-193.796 1169.24,-187.516 1158.66,-187.104 1160.71,-193.796"/>
</g>
<!-- Node27 -->
<g id="node28" class="node"><title>Node27</title>
<polygon fill="white" stroke="#bfbfbf" points="1245,-168.5 1245,-187.5 1291,-187.5 1291,-168.5 1245,-168.5"/>
<text text-anchor="middle" x="1268" y="-175.5" font-family="Helvetica,sans-Serif" font-size="10.00">cstring</text>
</g>
<!-- Node26&#45;&gt;Node27 -->
<g id="edge47" class="edge"><title>Node26&#45;&gt;Node27</title>
<path fill="none" stroke="midnightblue" d="M1049.31,-227.71C1088.79,-220.196 1162.8,-205.612 1235.23,-188.058"/>
<polygon fill="midnightblue" stroke="midnightblue" points="1236.09,-191.451 1244.98,-185.677 1234.43,-184.651 1236.09,-191.451"/>
</g>
<!-- Node28&#45;&gt;Node25 -->
<g id="edge57" class="edge"><title>Node28&#45;&gt;Node25</title>
<path fill="none" stroke="midnightblue" d="M1183.44,-336.45C1174.91,-328.12 1163.01,-314.604 1158,-300 1145.35,-263.12 1168.73,-219.519 1184.44,-196.035"/>
<polygon fill="midnightblue" stroke="midnightblue" points="1187.51,-197.745 1190.38,-187.545 1181.78,-193.731 1187.51,-197.745"/>
</g>
<!-- Node29 -->
<g id="node30" class="node"><title>Node29</title>
<polygon fill="white" stroke="#bfbfbf" points="1237.5,-280.5 1237.5,-299.5 1286.5,-299.5 1286.5,-280.5 1237.5,-280.5"/>
<text text-anchor="middle" x="1262" y="-287.5" font-family="Helvetica,sans-Serif" font-size="10.00">cassert</text>
</g>
<!-- Node28&#45;&gt;Node29 -->
<g id="edge54" class="edge"><title>Node28&#45;&gt;Node29</title>
<path fill="none" stroke="midnightblue" d="M1204.09,-336.324C1214.49,-328.185 1230.26,-315.839 1242.72,-306.087"/>
<polygon fill="midnightblue" stroke="midnightblue" points="1244.99,-308.753 1250.71,-299.834 1240.68,-303.241 1244.99,-308.753"/>
</g>
<!-- Node30 -->
<g id="node31" class="node"><title>Node30</title>
<polygon fill="white" stroke="#bfbfbf" points="1305,-280.5 1305,-299.5 1359,-299.5 1359,-280.5 1305,-280.5"/>
<text text-anchor="middle" x="1332" y="-287.5" font-family="Helvetica,sans-Serif" font-size="10.00">iostream</text>
</g>
<!-- Node28&#45;&gt;Node30 -->
<g id="edge55" class="edge"><title>Node28&#45;&gt;Node30</title>
<path fill="none" stroke="midnightblue" d="M1215.02,-336.444C1238.1,-327.478 1274.56,-313.314 1300.64,-303.183"/>
<polygon fill="midnightblue" stroke="midnightblue" points="1302.02,-306.4 1310.08,-299.516 1299.49,-299.875 1302.02,-306.4"/>
</g>
<!-- Node31 -->
<g id="node32" class="node"><title>Node31</title>
<polygon fill="white" stroke="#bfbfbf" points="1167,-280.5 1167,-299.5 1219,-299.5 1219,-280.5 1167,-280.5"/>
<text text-anchor="middle" x="1193" y="-287.5" font-family="Helvetica,sans-Serif" font-size="10.00">sstream</text>
</g>
<!-- Node28&#45;&gt;Node31 -->
<g id="edge56" class="edge"><title>Node28&#45;&gt;Node31</title>
<path fill="none" stroke="midnightblue" d="M1193,-336.083C1193,-329.006 1193,-318.861 1193,-309.986"/>
<polygon fill="midnightblue" stroke="midnightblue" points="1196.5,-309.751 1193,-299.751 1189.5,-309.751 1196.5,-309.751"/>
</g>
<!-- Node32&#45;&gt;Node2 -->
<g id="edge59" class="edge"><title>Node32&#45;&gt;Node2</title>
<path fill="none" stroke="midnightblue" d="M964.663,-226.553C1007.95,-219.503 1067.77,-206.664 1082,-188 1087.39,-180.932 1086,-175.94 1082,-168 1035.56,-75.7418 908.75,-33.8555 846.879,-18.4583"/>
<polygon fill="midnightblue" stroke="midnightblue" points="847.362,-14.9749 836.822,-16.0474 845.73,-21.7821 847.362,-14.9749"/>
</g>
<!-- Node32&#45;&gt;Node3 -->
<g id="edge60" class="edge"><title>Node32&#45;&gt;Node3</title>
<path fill="none" stroke="midnightblue" d="M871.377,-224.605C829.216,-216.739 765.26,-204.125 700.558,-187.955"/>
<polygon fill="midnightblue" stroke="midnightblue" points="701.143,-184.493 690.591,-185.437 699.429,-191.28 701.143,-184.493"/>
</g>
<!-- Node32&#45;&gt;Node17 -->
<g id="edge61" class="edge"><title>Node32&#45;&gt;Node17</title>
<path fill="none" stroke="midnightblue" d="M921.798,-224.083C924.913,-216.77 929.423,-206.181 933.289,-197.103"/>
<polygon fill="midnightblue" stroke="midnightblue" points="936.574,-198.323 937.273,-187.751 930.134,-195.58 936.574,-198.323"/>
</g>
</g>
</svg>
        <g id="navigator" transform="translate(0 0)" fill="#404254">
                <rect fill="#f2f5e9" fill-opacity="0.5" stroke="#606060" stroke-width=".5" x="0" y="0" width="60" height="60"/>
                <use id="zoomplus" xlink:href="#zoomPlus" x="17" y="9" onmousedown="handleZoom(evt,'in')"/>
                <use id="zoomminus" xlink:href="#zoomMin" x="42" y="9" onmousedown="handleZoom(evt,'out')"/>
                <use id="reset" xlink:href="#resetDef" x="30" y="36" onmousedown="handleReset()"/>
                <g id="arrowUp" xlink:href="#dirArrow" transform="translate(30 24)" onmousedown="handlePan(0,-1)">
                  <use xlink:href="#rim" fill="#404040">
                        <set attributeName="fill" to="#808080" begin="arrowUp.mouseover" end="arrowUp.mouseout"/>
                  </use>
                  <path fill="none" stroke="white" stroke-width="1.5" d="M0,-3.0v7 M-2.5,-0.5L0,-3.0L2.5,-0.5"/>
                </g>
                <g id="arrowRight" xlink:href="#dirArrow" transform="rotate(90) translate(36 -43)" onmousedown="handlePan(1,0)">
                  <use xlink:href="#rim" fill="#404040">
                        <set attributeName="fill" to="#808080" begin="arrowRight.mouseover" end="arrowRight.mouseout"/>
                  </use>
                  <path fill="none" stroke="white" stroke-width="1.5" d="M0,-3.0v7 M-2.5,-0.5L0,-3.0L2.5,-0.5"/>
                </g>
                <g id="arrowDown" xlink:href="#dirArrow" transform="rotate(180) translate(-30 -48)" onmousedown="handlePan(0,1)">
                  <use xlink:href="#rim" fill="#404040">
                        <set attributeName="fill" to="#808080" begin="arrowDown.mouseover" end="arrowDown.mouseout"/>
                  </use>
                  <path fill="none" stroke="white" stroke-width="1.5" d="M0,-3.0v7 M-2.5,-0.5L0,-3.0L2.5,-0.5"/>
                </g>
                <g id="arrowLeft" xlink:href="#dirArrow" transform="rotate(270) translate(-36 17)" onmousedown="handlePan(-1,0)">
                  <use xlink:href="#rim" fill="#404040">
                        <set attributeName="fill" to="#808080" begin="arrowLeft.mouseover" end="arrowLeft.mouseout"/>
                  </use>
                  <path fill="none" stroke="white" stroke-width="1.5" d="M0,-3.0v7 M-2.5,-0.5L0,-3.0L2.5,-0.5"/>
                </g>
        </g>
        <svg viewBox="0 0 15 15" width="100%" height="30px" preserveAspectRatio="xMaxYMin meet">
         <g id="arrow_out" transform="scale(0.3 0.3)">
          <a xlink:href="utilmoneystr_8cpp__incl_org.svg" target="_base">
           <rect id="button" ry="5" rx="5" y="6" x="6" height="38" width="38"
                fill="#f2f5e9" fill-opacity="0.5" stroke="#606060" stroke-width="1.0"/>
           <path id="arrow"
             d="M 11.500037,31.436501 C 11.940474,20.09759 22.043105,11.32322 32.158766,21.979434 L 37.068811,17.246167 C 37.068811,17.246167 37.088388,32 37.088388,32 L 22.160133,31.978069 C 22.160133,31.978069 26.997745,27.140456 26.997745,27.140456 C 18.528582,18.264221 13.291696,25.230495 11.500037,31.436501 z"
             style="fill:#404040;"/>
          </a>
         </g>
        </svg>
</svg>
