<?xml version="1.0" encoding="UTF-8" standalone="no"?>
<!DOCTYPE svg PUBLIC "-//W3C//DTD SVG 1.1//EN"
 "http://www.w3.org/Graphics/SVG/1.1/DTD/svg11.dtd">
<!-- Generated by graphviz version 2.38.0 (20140413.2041)
 -->
<!-- Title: Misbehaving Pages: 1 -->
<!--zoomable 556 -->
<svg id="main" version="1.1" xmlns="http://www.w3.org/2000/svg" xmlns:xlink="http://www.w3.org/1999/xlink" xml:space="preserve" onload="init(evt)">
<style type="text/css"><![CDATA[
.edge:hover path { stroke: red; }
.edge:hover polygon { stroke: red; fill: red; }
]]></style>
<script type="text/javascript"><![CDATA[
var edges = document.getElementsByTagName('g');
if (edges && edges.length) {
  for (var i=0;i<edges.length;i++) {
    if (edges[i].id.substr(0,4)=='edge') {
      edges[i].setAttribute('class','edge');
    }
  }
}
]]></script>
        <defs>
                <circle id="rim" cx="0" cy="0" r="7"/>
                <circle id="rim2" cx="0" cy="0" r="3.5"/>
                <g id="zoomPlus">
                        <use xlink:href="#rim" fill="#404040">
                                <set attributeName="fill" to="#808080" begin="zoomplus.mouseover" end="zoomplus.mouseout"/>
                        </use>
                        <path d="M-4,0h8M0,-4v8" fill="none" stroke="white" stroke-width="1.5" pointer-events="none"/>
                </g>
                <g id="zoomMin">
                        <use xlink:href="#rim" fill="#404040">
                                <set attributeName="fill" to="#808080" begin="zoomminus.mouseover" end="zoomminus.mouseout"/>
                        </use>
                        <path d="M-4,0h8" fill="none" stroke="white" stroke-width="1.5" pointer-events="none"/>
                </g>
                <g id="dirArrow">
                        <path fill="none" stroke="white" stroke-width="1.5" d="M0,-3.0v7 M-2.5,-0.5L0,-3.0L2.5,-0.5"/>
                </g>
               <g id="resetDef">
                       <use xlink:href="#rim2" fill="#404040">
                               <set attributeName="fill" to="#808080" begin="reset.mouseover" end="reset.mouseout"/>
                       </use>
               </g>
        </defs>

<script type="text/javascript">
var viewWidth = 1706;
var viewHeight = 556;
var sectionId = 'dynsection-4';
</script>
<script xlink:href="../../svgpan.js"/>
<svg id="graph" class="graph">
<g id="viewport">
<title>Misbehaving</title>
<polygon fill="white" stroke="none" points="-4,4 -4,-551.5 1702,-551.5 1702,4 -4,4"/>
<!-- Node6 -->
<g id="node1" class="node"><title>Node6</title>
<polygon fill="#bfbfbf" stroke="black" points="0,-214 0,-233 71,-233 71,-214 0,-214"/>
<text text-anchor="middle" x="35.5" y="-221" font-family="Helvetica,sans-Serif" font-size="10.00">Misbehaving</text>
</g>
<!-- Node7 -->
<g id="node2" class="node"><title>Node7</title>
<g id="a_node2"><a xlink:href="../../dd/dab/class_peer_logic_validation.html#a421240c55e42e34728ca3ec9ee4e0248" target="_top" xlink:title="PeerLogicValidation\l::BlockChecked">
<polygon fill="white" stroke="black" points="139,-429.5 139,-459.5 242,-459.5 242,-429.5 139,-429.5"/>
<text text-anchor="start" x="147" y="-447.5" font-family="Helvetica,sans-Serif" font-size="10.00">PeerLogicValidation</text>
<text text-anchor="middle" x="190.5" y="-436.5" font-family="Helvetica,sans-Serif" font-size="10.00">::BlockChecked</text>
</a>
</g>
</g>
<!-- Node6&#45;&gt;Node7 -->
<g id="edge1" class="edge"><title>Node6&#45;&gt;Node7</title>
<path fill="none" stroke="midnightblue" d="M37.804,-243.339C41.4858,-282.887 55.3679,-371.904 107,-420.5 115.798,-428.781 127.288,-434.224 138.886,-437.797"/>
<polygon fill="midnightblue" stroke="midnightblue" points="41.2922,-243.052 36.9992,-233.366 34.3149,-243.615 41.2922,-243.052"/>
</g>
<!-- Node8 -->
<g id="node3" class="node"><title>Node8</title>
<g id="a_node3"><a xlink:href="../../de/d48/class_c_governance_manager.html#a3953c78251f14a8db9ed1b8683c35670" target="_top" xlink:title="CGovernanceManager\l::CheckMasternodeOrphanObjects">
<polygon fill="white" stroke="black" points="107,-380.5 107,-410.5 274,-410.5 274,-380.5 107,-380.5"/>
<text text-anchor="start" x="115" y="-398.5" font-family="Helvetica,sans-Serif" font-size="10.00">CGovernanceManager</text>
<text text-anchor="middle" x="190.5" y="-387.5" font-family="Helvetica,sans-Serif" font-size="10.00">::CheckMasternodeOrphanObjects</text>
</a>
</g>
</g>
<!-- Node6&#45;&gt;Node8 -->
<g id="edge2" class="edge"><title>Node6&#45;&gt;Node8</title>
<path fill="none" stroke="midnightblue" d="M41.2039,-243.133C49.4547,-273.497 69.3491,-331.848 107,-365.5 113.818,-371.594 121.972,-376.479 130.461,-380.388"/>
<polygon fill="midnightblue" stroke="midnightblue" points="44.5585,-242.125 38.6796,-233.311 37.7788,-243.867 44.5585,-242.125"/>
</g>
<!-- Node18 -->
<g id="node13" class="node"><title>Node18</title>
<g id="a_node13"><a xlink:href="../../dc/d6b/class_c_masternode_man.html#ae8534b13438b5a2166854a6d35d99bac" target="_top" xlink:title="CMasternodeMan::ProcessMessage">
<polygon fill="white" stroke="black" points="523,-235 523,-254 699,-254 699,-235 523,-235"/>
<text text-anchor="middle" x="611" y="-242" font-family="Helvetica,sans-Serif" font-size="10.00">CMasternodeMan::ProcessMessage</text>
</a>
</g>
</g>
<!-- Node6&#45;&gt;Node18 -->
<g id="edge30" class="edge"><title>Node6&#45;&gt;Node18</title>
<path fill="none" stroke="midnightblue" d="M59.2501,-238.286C72.6453,-246.335 90.2075,-255.79 107,-261.5 267.5,-316.074 320.625,-327.024 487,-294.5 526.59,-286.761 569.531,-266.237 592.741,-254.025"/>
<polygon fill="midnightblue" stroke="midnightblue" points="61.0489,-235.283 50.7028,-233.001 57.3674,-241.237 61.0489,-235.283"/>
</g>
<!-- Node19 -->
<g id="node14" class="node"><title>Node19</title>
<g id="a_node14"><a xlink:href="../../d2/d83/net__processing_8cpp.html#a193d0ece6e2f2f7ee37352ac9720bb83" target="_top" xlink:title="ProcessMessage">
<polygon fill="white" stroke="black" points="747.5,-186 747.5,-205 839.5,-205 839.5,-186 747.5,-186"/>
<text text-anchor="middle" x="793.5" y="-193" font-family="Helvetica,sans-Serif" font-size="10.00">ProcessMessage</text>
</a>
</g>
</g>
<!-- Node6&#45;&gt;Node19 -->
<g id="edge35" class="edge"><title>Node6&#45;&gt;Node19</title>
<path fill="none" stroke="midnightblue" d="M47.7547,-241.616C59.9472,-259.473 81.1624,-285.865 107,-298.5 258.909,-372.786 319.213,-338.533 487,-317.5 583.476,-305.406 610.993,-304.836 699,-263.5 732.246,-247.885 765.74,-219.846 782.138,-205.125"/>
<polygon fill="midnightblue" stroke="midnightblue" points="50.632,-239.621 42.2245,-233.174 44.7765,-243.457 50.632,-239.621"/>
</g>
<!-- Node33 -->
<g id="node28" class="node"><title>Node33</title>
<g id="a_node28"><a xlink:href="../../d8/d24/class_c_masternode_payment_vote.html#a1a71aea4fa595413ae19377afc8e4de6" target="_top" xlink:title="CMasternodePaymentVote\l::IsValid">
<polygon fill="white" stroke="black" points="123.5,-0.5 123.5,-30.5 257.5,-30.5 257.5,-0.5 123.5,-0.5"/>
<text text-anchor="start" x="131.5" y="-18.5" font-family="Helvetica,sans-Serif" font-size="10.00">CMasternodePaymentVote</text>
<text text-anchor="middle" x="190.5" y="-7.5" font-family="Helvetica,sans-Serif" font-size="10.00">::IsValid</text>
</a>
</g>
</g>
<!-- Node6&#45;&gt;Node33 -->
<g id="edge29" class="edge"><title>Node6&#45;&gt;Node33</title>
<path fill="none" stroke="midnightblue" d="M38.4587,-203.85C43.2307,-166.553 58.8523,-85.2334 107,-40.5 111.824,-36.0178 117.427,-32.3379 123.399,-29.3168"/>
<polygon fill="midnightblue" stroke="midnightblue" points="34.9658,-203.589 37.3021,-213.923 41.9201,-204.388 34.9658,-203.589"/>
</g>
<!-- Node34 -->
<g id="node29" class="node"><title>Node34</title>
<g id="a_node29"><a xlink:href="../../dc/d9a/class_c_masternode_payments.html#ab422d617badf70979aeda0cb745714ad" target="_top" xlink:title="CMasternodePayments\l::ProcessMessage">
<polygon fill="white" stroke="black" points="339,-107.5 339,-137.5 458,-137.5 458,-107.5 339,-107.5"/>
<text text-anchor="start" x="347" y="-125.5" font-family="Helvetica,sans-Serif" font-size="10.00">CMasternodePayments</text>
<text text-anchor="middle" x="398.5" y="-114.5" font-family="Helvetica,sans-Serif" font-size="10.00">::ProcessMessage</text>
</a>
</g>
</g>
<!-- Node6&#45;&gt;Node34 -->
<g id="edge31" class="edge"><title>Node6&#45;&gt;Node34</title>
<path fill="none" stroke="midnightblue" d="M60.8443,-208.66C74.0982,-201.117 91.014,-192.337 107,-186.5 184.86,-158.072 279.278,-140.134 338.887,-130.706"/>
<polygon fill="midnightblue" stroke="midnightblue" points="58.7807,-205.812 51.9063,-213.874 62.3077,-211.858 58.7807,-205.812"/>
</g>
<!-- Node35 -->
<g id="node30" class="node"><title>Node35</title>
<g id="a_node30"><a xlink:href="../../de/d48/class_c_governance_manager.html#a442507518db0686a860dea18979c7cd6" target="_top" xlink:title="CGovernanceManager\l::ProcessMessage">
<polygon fill="white" stroke="black" points="133.5,-88.5 133.5,-118.5 247.5,-118.5 247.5,-88.5 133.5,-88.5"/>
<text text-anchor="start" x="141.5" y="-106.5" font-family="Helvetica,sans-Serif" font-size="10.00">CGovernanceManager</text>
<text text-anchor="middle" x="190.5" y="-95.5" font-family="Helvetica,sans-Serif" font-size="10.00">::ProcessMessage</text>
</a>
</g>
</g>
<!-- Node6&#45;&gt;Node35 -->
<g id="edge33" class="edge"><title>Node6&#45;&gt;Node35</title>
<path fill="none" stroke="midnightblue" d="M46.6552,-205.072C58.6409,-184.89 80.352,-152.829 107,-133.5 115.266,-127.505 124.856,-122.592 134.511,-118.607"/>
<polygon fill="midnightblue" stroke="midnightblue" points="43.5203,-203.503 41.5736,-213.917 49.5899,-206.99 43.5203,-203.503"/>
</g>
<!-- Node36 -->
<g id="node31" class="node"><title>Node36</title>
<g id="a_node31"><a xlink:href="../../d2/d5e/class_c_spork_manager.html#a73b217ee4057d273648c54fee3a702c5" target="_top" xlink:title="CSporkManager::ProcessSpork">
<polygon fill="white" stroke="black" points="113,-50 113,-69 268,-69 268,-50 113,-50"/>
<text text-anchor="middle" x="190.5" y="-57" font-family="Helvetica,sans-Serif" font-size="10.00">CSporkManager::ProcessSpork</text>
</a>
</g>
</g>
<!-- Node6&#45;&gt;Node36 -->
<g id="edge36" class="edge"><title>Node6&#45;&gt;Node36</title>
<path fill="none" stroke="midnightblue" d="M40.3817,-203.796C47.6585,-172.278 66.4298,-110.794 107,-78.5 111.83,-74.6555 117.295,-71.561 123.058,-69.074"/>
<polygon fill="midnightblue" stroke="midnightblue" points="36.8805,-203.431 38.2017,-213.943 43.7243,-204.901 36.8805,-203.431"/>
</g>
<!-- Node37 -->
<g id="node32" class="node"><title>Node37</title>
<g id="a_node32"><a xlink:href="../../dc/d6b/class_c_masternode_man.html#a0731112eab2636186ca00f01bedd723e" target="_top" xlink:title="CMasternodeMan::ProcessVerify\lBroadcast">
<polygon fill="white" stroke="black" points="318,-254.5 318,-284.5 479,-284.5 479,-254.5 318,-254.5"/>
<text text-anchor="start" x="326" y="-272.5" font-family="Helvetica,sans-Serif" font-size="10.00">CMasternodeMan::ProcessVerify</text>
<text text-anchor="middle" x="398.5" y="-261.5" font-family="Helvetica,sans-Serif" font-size="10.00">Broadcast</text>
</a>
</g>
</g>
<!-- Node6&#45;&gt;Node37 -->
<g id="edge38" class="edge"><title>Node6&#45;&gt;Node37</title>
<path fill="none" stroke="midnightblue" d="M81.07,-232.201C89.6572,-233.741 98.5943,-235.249 107,-236.5 178.041,-247.072 259.3,-256.039 317.778,-261.945"/>
<polygon fill="midnightblue" stroke="midnightblue" points="81.6702,-228.753 71.2031,-230.393 80.4084,-235.638 81.6702,-228.753"/>
</g>
<!-- Node38 -->
<g id="node33" class="node"><title>Node38</title>
<g id="a_node33"><a xlink:href="../../dc/d6b/class_c_masternode_man.html#a9a96a97210dd939754ef496efdf7fe70" target="_top" xlink:title="CMasternodeMan::ProcessVerify\lReply">
<polygon fill="white" stroke="black" points="318,-205.5 318,-235.5 479,-235.5 479,-205.5 318,-205.5"/>
<text text-anchor="start" x="326" y="-223.5" font-family="Helvetica,sans-Serif" font-size="10.00">CMasternodeMan::ProcessVerify</text>
<text text-anchor="middle" x="398.5" y="-212.5" font-family="Helvetica,sans-Serif" font-size="10.00">Reply</text>
</a>
</g>
</g>
<!-- Node6&#45;&gt;Node38 -->
<g id="edge40" class="edge"><title>Node6&#45;&gt;Node38</title>
<path fill="none" stroke="midnightblue" d="M81.2242,-223.128C140.196,-222.638 244.975,-221.768 317.692,-221.163"/>
<polygon fill="midnightblue" stroke="midnightblue" points="81.0847,-219.629 71.1142,-223.212 81.143,-226.629 81.0847,-219.629"/>
</g>
<!-- Node39 -->
<g id="node34" class="node"><title>Node39</title>
<g id="a_node34"><a xlink:href="../../dc/d6b/class_c_masternode_man.html#a96f55c43bf50fcb9bfc9d045f8f6756e" target="_top" xlink:title="CMasternodeMan::SendVerify\lReply">
<polygon fill="white" stroke="black" points="324.5,-156.5 324.5,-186.5 472.5,-186.5 472.5,-156.5 324.5,-156.5"/>
<text text-anchor="start" x="332.5" y="-174.5" font-family="Helvetica,sans-Serif" font-size="10.00">CMasternodeMan::SendVerify</text>
<text text-anchor="middle" x="398.5" y="-163.5" font-family="Helvetica,sans-Serif" font-size="10.00">Reply</text>
</a>
</g>
</g>
<!-- Node6&#45;&gt;Node39 -->
<g id="edge42" class="edge"><title>Node6&#45;&gt;Node39</title>
<path fill="none" stroke="midnightblue" d="M81.1628,-217.067C141.981,-208.306 251.601,-192.516 324.47,-182.02"/>
<polygon fill="midnightblue" stroke="midnightblue" points="80.513,-213.624 71.1142,-218.514 81.5111,-220.552 80.513,-213.624"/>
</g>
<!-- Node9 -->
<g id="node4" class="node"><title>Node9</title>
<g id="a_node4"><a xlink:href="../../dc/d6b/class_c_masternode_man.html#a5e27707730f73d111df8bc0fcd819b68" target="_top" xlink:title="Called to notify CGovernanceManager that the masternode index has been updated. ">
<polygon fill="white" stroke="black" points="310,-396.5 310,-426.5 487,-426.5 487,-396.5 310,-396.5"/>
<text text-anchor="start" x="318" y="-414.5" font-family="Helvetica,sans-Serif" font-size="10.00">CMasternodeMan::NotifyMasternode</text>
<text text-anchor="middle" x="398.5" y="-403.5" font-family="Helvetica,sans-Serif" font-size="10.00">Updates</text>
</a>
</g>
</g>
<!-- Node8&#45;&gt;Node9 -->
<g id="edge3" class="edge"><title>Node8&#45;&gt;Node9</title>
<path fill="none" stroke="midnightblue" d="M284.091,-402.692C292.651,-403.356 301.308,-404.029 309.822,-404.69"/>
<polygon fill="midnightblue" stroke="midnightblue" points="284.342,-399.201 274.101,-401.916 283.8,-406.18 284.342,-399.201"/>
</g>
<!-- Node10 -->
<g id="node5" class="node"><title>Node10</title>
<g id="a_node5"><a xlink:href="../../d8/dc3/server_8h.html#adc51a168fd3ea207996ae4f8d9d6c6ea" target="_top" xlink:title="masternode">
<polygon fill="white" stroke="black" points="577,-528 577,-547 645,-547 645,-528 577,-528"/>
<text text-anchor="middle" x="611" y="-535" font-family="Helvetica,sans-Serif" font-size="10.00">masternode</text>
</a>
</g>
</g>
<!-- Node9&#45;&gt;Node10 -->
<g id="edge4" class="edge"><title>Node9&#45;&gt;Node10</title>
<path fill="none" stroke="midnightblue" d="M418.936,-434.04C441.453,-458.662 480.889,-497.401 523,-518.5 539.725,-526.88 560.076,-531.583 576.888,-534.213"/>
<polygon fill="midnightblue" stroke="midnightblue" points="421.523,-431.683 412.237,-426.582 416.315,-436.36 421.523,-431.683"/>
</g>
<!-- Node11 -->
<g id="node6" class="node"><title>Node11</title>
<g id="a_node6"><a xlink:href="../../d8/dc3/server_8h.html#a7ae813efd78b542bd5e3cddb01174777" target="_top" xlink:title="masternodebroadcast">
<polygon fill="white" stroke="black" points="556,-490 556,-509 666,-509 666,-490 556,-490"/>
<text text-anchor="middle" x="611" y="-497" font-family="Helvetica,sans-Serif" font-size="10.00">masternodebroadcast</text>
</a>
</g>
</g>
<!-- Node9&#45;&gt;Node11 -->
<g id="edge5" class="edge"><title>Node9&#45;&gt;Node11</title>
<path fill="none" stroke="midnightblue" d="M430.152,-431.995C454.417,-447.371 489.659,-467.864 523,-480.5 533.409,-484.445 544.845,-487.674 555.906,-490.277"/>
<polygon fill="midnightblue" stroke="midnightblue" points="432.038,-429.046 421.733,-426.585 428.254,-434.935 432.038,-429.046"/>
</g>
<!-- Node12 -->
<g id="node7" class="node"><title>Node12</title>
<g id="a_node7"><a xlink:href="../../dc/d6b/class_c_masternode_man.html#a09302023fe1dca8be33e34d1ece9d27f" target="_top" xlink:title="Check all Masternodes and remove inactive. ">
<polygon fill="white" stroke="black" points="538,-440.5 538,-470.5 684,-470.5 684,-440.5 538,-440.5"/>
<text text-anchor="start" x="546" y="-458.5" font-family="Helvetica,sans-Serif" font-size="10.00">CMasternodeMan::CheckAnd</text>
<text text-anchor="middle" x="611" y="-447.5" font-family="Helvetica,sans-Serif" font-size="10.00">Remove</text>
</a>
</g>
</g>
<!-- Node9&#45;&gt;Node12 -->
<g id="edge6" class="edge"><title>Node9&#45;&gt;Node12</title>
<path fill="none" stroke="midnightblue" d="M481.336,-428.606C500.066,-432.521 519.838,-436.654 538.113,-440.474"/>
<polygon fill="midnightblue" stroke="midnightblue" points="481.858,-425.139 471.353,-426.519 480.426,-431.991 481.858,-425.139"/>
</g>
<!-- Node9&#45;&gt;Node18 -->
<g id="edge12" class="edge"><title>Node9&#45;&gt;Node18</title>
<path fill="none" stroke="midnightblue" d="M426.607,-389.995C472.735,-353.399 564.714,-280.428 597.794,-254.183"/>
<polygon fill="midnightblue" stroke="midnightblue" points="424.21,-387.428 418.552,-396.385 428.561,-392.912 424.21,-387.428"/>
</g>
<!-- Node27 -->
<g id="node22" class="node"><title>Node27</title>
<g id="a_node22"><a xlink:href="../../d0/d4c/class_masternode_list.html#ab3a42d1c66f3b28e9843335d8ce0178d" target="_top" xlink:title="MasternodeList::StartAlias">
<polygon fill="white" stroke="black" points="545,-402 545,-421 677,-421 677,-402 545,-402"/>
<text text-anchor="middle" x="611" y="-409" font-family="Helvetica,sans-Serif" font-size="10.00">MasternodeList::StartAlias</text>
</a>
</g>
</g>
<!-- Node9&#45;&gt;Node27 -->
<g id="edge23" class="edge"><title>Node9&#45;&gt;Node27</title>
<path fill="none" stroke="midnightblue" d="M497.251,-411.5C513.39,-411.5 529.765,-411.5 544.849,-411.5"/>
<polygon fill="midnightblue" stroke="midnightblue" points="497.247,-408 487.247,-411.5 497.247,-415 497.247,-408"/>
</g>
<!-- Node30 -->
<g id="node25" class="node"><title>Node30</title>
<g id="a_node25"><a xlink:href="../../d0/d4c/class_masternode_list.html#a0ebd5301adf7567e6a82550ba6d02ccc" target="_top" xlink:title="MasternodeList::StartAll">
<polygon fill="white" stroke="black" points="550,-364 550,-383 672,-383 672,-364 550,-364"/>
<text text-anchor="middle" x="611" y="-371" font-family="Helvetica,sans-Serif" font-size="10.00">MasternodeList::StartAll</text>
</a>
</g>
</g>
<!-- Node9&#45;&gt;Node30 -->
<g id="edge26" class="edge"><title>Node9&#45;&gt;Node30</title>
<path fill="none" stroke="midnightblue" d="M492.802,-394.657C514.939,-390.661 537.79,-386.536 557.37,-383.001"/>
<polygon fill="midnightblue" stroke="midnightblue" points="491.914,-391.26 482.695,-396.481 493.158,-398.149 491.914,-391.26"/>
</g>
<!-- Node13 -->
<g id="node8" class="node"><title>Node13</title>
<g id="a_node8"><a xlink:href="../../df/d7f/privatesend_8h.html#a8ca12ada145ba86ddcba18018b77db14" target="_top" xlink:title="ThreadCheckPrivateSend">
<polygon fill="white" stroke="black" points="902,-443 902,-462 1030,-462 1030,-443 902,-443"/>
<text text-anchor="middle" x="966" y="-450" font-family="Helvetica,sans-Serif" font-size="10.00">ThreadCheckPrivateSend</text>
</a>
</g>
</g>
<!-- Node12&#45;&gt;Node13 -->
<g id="edge7" class="edge"><title>Node12&#45;&gt;Node13</title>
<path fill="none" stroke="midnightblue" d="M694.647,-454.798C758.004,-454.259 844.112,-453.527 901.974,-453.036"/>
<polygon fill="midnightblue" stroke="midnightblue" points="694.256,-451.301 684.287,-454.886 694.316,-458.3 694.256,-451.301"/>
</g>
<!-- Node14 -->
<g id="node9" class="node"><title>Node14</title>
<g id="a_node9"><a xlink:href="../../d8/dc0/init_8h.html#a6f0784aa332573f949b0975205572b28" target="_top" xlink:title="Initialize Dash Core. ">
<polygon fill="white" stroke="black" points="1253.5,-354 1253.5,-373 1306.5,-373 1306.5,-354 1253.5,-354"/>
<text text-anchor="middle" x="1280" y="-361" font-family="Helvetica,sans-Serif" font-size="10.00">AppInit2</text>
</a>
</g>
</g>
<!-- Node13&#45;&gt;Node14 -->
<g id="edge8" class="edge"><title>Node13&#45;&gt;Node14</title>
<path fill="none" stroke="midnightblue" d="M1010.07,-440.214C1076.03,-421.399 1200.02,-386.03 1253.44,-370.79"/>
<polygon fill="midnightblue" stroke="midnightblue" points="1009.05,-436.866 1000.39,-442.975 1010.97,-443.598 1009.05,-436.866"/>
</g>
<!-- Node15 -->
<g id="node10" class="node"><title>Node15</title>
<g id="a_node10"><a xlink:href="../../dd/de1/dashd_8cpp.html#ac59316b767e6984e1285f0531275286b" target="_top" xlink:title="AppInit">
<polygon fill="white" stroke="black" points="1542.5,-360 1542.5,-379 1589.5,-379 1589.5,-360 1542.5,-360"/>
<text text-anchor="middle" x="1566" y="-367" font-family="Helvetica,sans-Serif" font-size="10.00">AppInit</text>
</a>
</g>
</g>
<!-- Node14&#45;&gt;Node15 -->
<g id="edge9" class="edge"><title>Node14&#45;&gt;Node15</title>
<path fill="none" stroke="midnightblue" d="M1316.8,-366.69C1331.15,-367.819 1347.85,-368.946 1363,-369.5 1428.01,-371.875 1504.87,-370.808 1542.27,-370.04"/>
<polygon fill="midnightblue" stroke="midnightblue" points="1317.08,-363.201 1306.83,-365.875 1316.51,-370.177 1317.08,-363.201"/>
</g>
<!-- Node17 -->
<g id="node12" class="node"><title>Node17</title>
<g id="a_node12"><a xlink:href="../../d2/d76/class_bitcoin_core.html#af34ca069cda1d4362dcc109b4397fb62" target="_top" xlink:title="BitcoinCore::initialize">
<polygon fill="white" stroke="black" points="1363,-341 1363,-360 1472,-360 1472,-341 1363,-341"/>
<text text-anchor="middle" x="1417.5" y="-348" font-family="Helvetica,sans-Serif" font-size="10.00">BitcoinCore::initialize</text>
</a>
</g>
</g>
<!-- Node14&#45;&gt;Node17 -->
<g id="edge11" class="edge"><title>Node14&#45;&gt;Node17</title>
<path fill="none" stroke="midnightblue" d="M1317.01,-360.045C1331.03,-358.7 1347.38,-357.131 1362.74,-355.658"/>
<polygon fill="midnightblue" stroke="midnightblue" points="1316.43,-356.585 1306.81,-361.024 1317.09,-363.553 1316.43,-356.585"/>
</g>
<!-- Node16 -->
<g id="node11" class="node"><title>Node16</title>
<g id="a_node11"><a xlink:href="../../dd/de1/dashd_8cpp.html#a0ddf1224851353fc92bfbff6f499fa97" target="_top" xlink:title="main">
<polygon fill="white" stroke="black" points="1660,-360 1660,-379 1698,-379 1698,-360 1660,-360"/>
<text text-anchor="middle" x="1679" y="-367" font-family="Helvetica,sans-Serif" font-size="10.00">main</text>
</a>
</g>
</g>
<!-- Node15&#45;&gt;Node16 -->
<g id="edge10" class="edge"><title>Node15&#45;&gt;Node16</title>
<path fill="none" stroke="midnightblue" d="M1599.77,-369.5C1619.33,-369.5 1643.46,-369.5 1659.7,-369.5"/>
<polygon fill="midnightblue" stroke="midnightblue" points="1599.73,-366 1589.73,-369.5 1599.73,-373 1599.73,-366"/>
</g>
<!-- Node18&#45;&gt;Node19 -->
<g id="edge13" class="edge"><title>Node18&#45;&gt;Node19</title>
<path fill="none" stroke="midnightblue" d="M656.943,-232.299C687.985,-223.872 728.684,-212.824 757.358,-205.04"/>
<polygon fill="midnightblue" stroke="midnightblue" points="655.964,-228.938 647.231,-234.936 657.798,-235.694 655.964,-228.938"/>
</g>
<!-- Node20 -->
<g id="node15" class="node"><title>Node20</title>
<g id="a_node15"><a xlink:href="../../d0/dd8/net__processing_8h.html#a7fa42e7ffd6e6ba5b7537af248e30fc8" target="_top" xlink:title="Process protocol messages received from a given node. ">
<polygon fill="white" stroke="black" points="917,-278 917,-297 1015,-297 1015,-278 917,-278"/>
<text text-anchor="middle" x="966" y="-285" font-family="Helvetica,sans-Serif" font-size="10.00">ProcessMessages</text>
</a>
</g>
</g>
<!-- Node19&#45;&gt;Node20 -->
<g id="edge14" class="edge"><title>Node19&#45;&gt;Node20</title>
<path fill="none" stroke="midnightblue" d="M821.652,-210.151C856.914,-229.178 917.47,-261.853 947.316,-277.958"/>
<polygon fill="midnightblue" stroke="midnightblue" points="822.887,-206.84 812.424,-205.172 819.563,-213.001 822.887,-206.84"/>
</g>
<!-- Node21 -->
<g id="node16" class="node"><title>Node21</title>
<g id="a_node16"><a xlink:href="../../d0/dd8/net__processing_8h.html#ab02615ff65f91d69f8d786ec900baa8a" target="_top" xlink:title="Register with a network node to receive its signals. ">
<polygon fill="white" stroke="black" points="1084,-329 1084,-348 1193,-348 1193,-329 1084,-329"/>
<text text-anchor="middle" x="1138.5" y="-336" font-family="Helvetica,sans-Serif" font-size="10.00">RegisterNodeSignals</text>
</a>
</g>
</g>
<!-- Node20&#45;&gt;Node21 -->
<g id="edge15" class="edge"><title>Node20&#45;&gt;Node21</title>
<path fill="none" stroke="midnightblue" d="M1008.79,-300.001C1038.66,-308.934 1078.23,-320.771 1105.57,-328.95"/>
<polygon fill="midnightblue" stroke="midnightblue" points="1009.65,-296.605 999.07,-297.093 1007.65,-303.312 1009.65,-296.605"/>
</g>
<!-- Node22 -->
<g id="node17" class="node"><title>Node22</title>
<g id="a_node17"><a xlink:href="../../d0/dd8/net__processing_8h.html#a3ef0cc6e9d9d6435ee2a5569244d6ebd" target="_top" xlink:title="Unregister a network node. ">
<polygon fill="white" stroke="black" points="1080,-278 1080,-297 1197,-297 1197,-278 1080,-278"/>
<text text-anchor="middle" x="1138.5" y="-285" font-family="Helvetica,sans-Serif" font-size="10.00">UnregisterNodeSignals</text>
</a>
</g>
</g>
<!-- Node20&#45;&gt;Node22 -->
<g id="edge17" class="edge"><title>Node20&#45;&gt;Node22</title>
<path fill="none" stroke="midnightblue" d="M1025.53,-287.5C1043.12,-287.5 1062.39,-287.5 1079.91,-287.5"/>
<polygon fill="midnightblue" stroke="midnightblue" points="1025.4,-284 1015.4,-287.5 1025.4,-291 1025.4,-284"/>
</g>
<!-- Node21&#45;&gt;Node14 -->
<g id="edge16" class="edge"><title>Node21&#45;&gt;Node14</title>
<path fill="none" stroke="midnightblue" d="M1202.5,-349.791C1220.43,-353.004 1238.96,-356.324 1253.29,-358.893"/>
<polygon fill="midnightblue" stroke="midnightblue" points="1203.1,-346.342 1192.64,-348.023 1201.86,-353.232 1203.1,-346.342"/>
</g>
<!-- Node23 -->
<g id="node18" class="node"><title>Node23</title>
<g id="a_node18"><a xlink:href="../../d8/dc0/init_8h.html#a5cb3db83cb0ba2e421f651a1ee1f2cfe" target="_top" xlink:title="Preparing steps before shutting down or restarting the wallet. ">
<polygon fill="white" stroke="black" points="1233,-278 1233,-297 1327,-297 1327,-278 1233,-278"/>
<text text-anchor="middle" x="1280" y="-285" font-family="Helvetica,sans-Serif" font-size="10.00">PrepareShutdown</text>
</a>
</g>
</g>
<!-- Node22&#45;&gt;Node23 -->
<g id="edge18" class="edge"><title>Node22&#45;&gt;Node23</title>
<path fill="none" stroke="midnightblue" d="M1207.13,-287.5C1215.77,-287.5 1224.45,-287.5 1232.65,-287.5"/>
<polygon fill="midnightblue" stroke="midnightblue" points="1207.05,-284 1197.05,-287.5 1207.05,-291 1207.05,-284"/>
</g>
<!-- Node24 -->
<g id="node19" class="node"><title>Node24</title>
<g id="a_node19"><a xlink:href="../../d2/d76/class_bitcoin_core.html#ac2271844c89ebc4c611e7617ce6202e3" target="_top" xlink:title="BitcoinCore::restart">
<polygon fill="white" stroke="black" points="1367,-265 1367,-284 1468,-284 1468,-265 1367,-265"/>
<text text-anchor="middle" x="1417.5" y="-272" font-family="Helvetica,sans-Serif" font-size="10.00">BitcoinCore::restart</text>
</a>
</g>
</g>
<!-- Node23&#45;&gt;Node24 -->
<g id="edge19" class="edge"><title>Node23&#45;&gt;Node24</title>
<path fill="none" stroke="midnightblue" d="M1337.29,-282.1C1347.06,-281.162 1357.16,-280.193 1366.75,-279.273"/>
<polygon fill="midnightblue" stroke="midnightblue" points="1336.87,-278.623 1327.25,-283.062 1337.54,-285.591 1336.87,-278.623"/>
</g>
<!-- Node25 -->
<g id="node20" class="node"><title>Node25</title>
<g id="a_node20"><a xlink:href="../../d8/dc0/init_8h.html#ac5f038c2b480cf9ef5e19e3eba8dbaf9" target="_top" xlink:title="Shutdown is split into 2 parts: Part 1: shut down everything but the main wallet instance (done in Pr...">
<polygon fill="white" stroke="black" points="1387.5,-303 1387.5,-322 1447.5,-322 1447.5,-303 1387.5,-303"/>
<text text-anchor="middle" x="1417.5" y="-310" font-family="Helvetica,sans-Serif" font-size="10.00">Shutdown</text>
</a>
</g>
</g>
<!-- Node23&#45;&gt;Node25 -->
<g id="edge20" class="edge"><title>Node23&#45;&gt;Node25</title>
<path fill="none" stroke="midnightblue" d="M1337.25,-297.879C1354.5,-301.06 1372.76,-304.43 1387.41,-307.133"/>
<polygon fill="midnightblue" stroke="midnightblue" points="1337.72,-294.406 1327.25,-296.034 1336.45,-301.29 1337.72,-294.406"/>
</g>
<!-- Node25&#45;&gt;Node15 -->
<g id="edge21" class="edge"><title>Node25&#45;&gt;Node15</title>
<path fill="none" stroke="midnightblue" d="M1455.74,-325.475C1461.21,-327.453 1466.76,-329.501 1472,-331.5 1496.28,-340.766 1523.8,-352.119 1542.57,-359.99"/>
<polygon fill="midnightblue" stroke="midnightblue" points="1456.68,-322.091 1446.08,-322.019 1454.32,-328.682 1456.68,-322.091"/>
</g>
<!-- Node26 -->
<g id="node21" class="node"><title>Node26</title>
<g id="a_node21"><a xlink:href="../../d2/d76/class_bitcoin_core.html#a94f3f4622ba698e321f3a2e0e686129f" target="_top" xlink:title="BitcoinCore::shutdown">
<polygon fill="white" stroke="black" points="1508,-303 1508,-322 1624,-322 1624,-303 1508,-303"/>
<text text-anchor="middle" x="1566" y="-310" font-family="Helvetica,sans-Serif" font-size="10.00">BitcoinCore::shutdown</text>
</a>
</g>
</g>
<!-- Node25&#45;&gt;Node26 -->
<g id="edge22" class="edge"><title>Node25&#45;&gt;Node26</title>
<path fill="none" stroke="midnightblue" d="M1457.97,-312.5C1473.31,-312.5 1491.18,-312.5 1507.88,-312.5"/>
<polygon fill="midnightblue" stroke="midnightblue" points="1457.79,-309 1447.79,-312.5 1457.79,-316 1457.79,-309"/>
</g>
<!-- Node28 -->
<g id="node23" class="node"><title>Node28</title>
<g id="a_node23"><a xlink:href="../../d0/d4c/class_masternode_list.html#a4370755b1dcdbf4a9396108c2b7ae76a" target="_top" xlink:title="MasternodeList::on\l_startButton_clicked">
<polygon fill="white" stroke="black" points="740.5,-396.5 740.5,-426.5 846.5,-426.5 846.5,-396.5 740.5,-396.5"/>
<text text-anchor="start" x="748.5" y="-414.5" font-family="Helvetica,sans-Serif" font-size="10.00">MasternodeList::on</text>
<text text-anchor="middle" x="793.5" y="-403.5" font-family="Helvetica,sans-Serif" font-size="10.00">_startButton_clicked</text>
</a>
</g>
</g>
<!-- Node27&#45;&gt;Node28 -->
<g id="edge24" class="edge"><title>Node27&#45;&gt;Node28</title>
<path fill="none" stroke="midnightblue" d="M687.537,-411.5C705.346,-411.5 723.939,-411.5 740.443,-411.5"/>
<polygon fill="midnightblue" stroke="midnightblue" points="687.165,-408 677.165,-411.5 687.165,-415 687.165,-408"/>
</g>
<!-- Node29 -->
<g id="node24" class="node"><title>Node29</title>
<g id="a_node24"><a xlink:href="../../d0/d4c/class_masternode_list.html#a257b85a08e7d691d1ecb35472043cf90" target="_top" xlink:title="MasternodeList::MasternodeList">
<polygon fill="white" stroke="black" points="888,-402 888,-421 1044,-421 1044,-402 888,-402"/>
<text text-anchor="middle" x="966" y="-409" font-family="Helvetica,sans-Serif" font-size="10.00">MasternodeList::MasternodeList</text>
</a>
</g>
</g>
<!-- Node28&#45;&gt;Node29 -->
<g id="edge25" class="edge"><title>Node28&#45;&gt;Node29</title>
<path fill="none" stroke="midnightblue" d="M856.874,-411.5C866.935,-411.5 877.454,-411.5 887.813,-411.5"/>
<polygon fill="midnightblue" stroke="midnightblue" points="856.582,-408 846.582,-411.5 856.582,-415 856.582,-408"/>
</g>
<!-- Node31 -->
<g id="node26" class="node"><title>Node31</title>
<g id="a_node26"><a xlink:href="../../d0/d4c/class_masternode_list.html#a12e7d7a66cc6ce787fb5de9babfd7358" target="_top" xlink:title="MasternodeList::on\l_startAllButton_clicked">
<polygon fill="white" stroke="black" points="735,-347.5 735,-377.5 852,-377.5 852,-347.5 735,-347.5"/>
<text text-anchor="start" x="743" y="-365.5" font-family="Helvetica,sans-Serif" font-size="10.00">MasternodeList::on</text>
<text text-anchor="middle" x="793.5" y="-354.5" font-family="Helvetica,sans-Serif" font-size="10.00">_startAllButton_clicked</text>
</a>
</g>
</g>
<!-- Node30&#45;&gt;Node31 -->
<g id="edge27" class="edge"><title>Node30&#45;&gt;Node31</title>
<path fill="none" stroke="midnightblue" d="M682.211,-369.221C699.617,-368.16 718.071,-367.036 734.801,-366.016"/>
<polygon fill="midnightblue" stroke="midnightblue" points="681.872,-365.735 672.104,-369.837 682.298,-372.722 681.872,-365.735"/>
</g>
<!-- Node32 -->
<g id="node27" class="node"><title>Node32</title>
<g id="a_node27"><a xlink:href="../../d0/d4c/class_masternode_list.html#a559cf1011eede788d0416c7390e25145" target="_top" xlink:title="MasternodeList::on\l_startMissingButton\l_clicked">
<polygon fill="white" stroke="black" points="741.5,-288 741.5,-329 845.5,-329 845.5,-288 741.5,-288"/>
<text text-anchor="start" x="749.5" y="-317" font-family="Helvetica,sans-Serif" font-size="10.00">MasternodeList::on</text>
<text text-anchor="start" x="749.5" y="-306" font-family="Helvetica,sans-Serif" font-size="10.00">_startMissingButton</text>
<text text-anchor="middle" x="793.5" y="-295" font-family="Helvetica,sans-Serif" font-size="10.00">_clicked</text>
</a>
</g>
</g>
<!-- Node30&#45;&gt;Node32 -->
<g id="edge28" class="edge"><title>Node30&#45;&gt;Node32</title>
<path fill="none" stroke="midnightblue" d="M661.131,-361.276C673.595,-357.813 686.883,-353.803 699,-349.5 715.703,-343.569 733.624,-336.015 749.262,-329.012"/>
<polygon fill="midnightblue" stroke="midnightblue" points="660.084,-357.934 651.351,-363.932 661.918,-364.689 660.084,-357.934"/>
</g>
<!-- Node34&#45;&gt;Node19 -->
<g id="edge32" class="edge"><title>Node34&#45;&gt;Node19</title>
<path fill="none" stroke="midnightblue" d="M468.351,-135.289C548.613,-150.198 678.966,-174.411 747.351,-187.113"/>
<polygon fill="midnightblue" stroke="midnightblue" points="468.807,-131.814 458.336,-133.429 467.529,-138.696 468.807,-131.814"/>
</g>
<!-- Node35&#45;&gt;Node19 -->
<g id="edge34" class="edge"><title>Node35&#45;&gt;Node19</title>
<path fill="none" stroke="midnightblue" d="M257.921,-99.544C274.894,-98.6961 293.117,-97.9271 310,-97.5 483.986,-93.0981 536.264,-80.7952 699,-142.5 729.009,-153.879 760.901,-173.892 778.599,-185.801"/>
<polygon fill="midnightblue" stroke="midnightblue" points="257.344,-96.0691 247.538,-100.08 257.705,-103.06 257.344,-96.0691"/>
</g>
<!-- Node36&#45;&gt;Node19 -->
<g id="edge37" class="edge"><title>Node36&#45;&gt;Node19</title>
<path fill="none" stroke="midnightblue" d="M259.909,-48.6782C361.337,-35.9211 555.098,-24.3648 699,-93.5 742.306,-114.306 775.014,-164.858 787.252,-185.98"/>
<polygon fill="midnightblue" stroke="midnightblue" points="259.257,-45.2335 249.792,-49.9936 260.159,-52.1751 259.257,-45.2335"/>
</g>
<!-- Node37&#45;&gt;Node18 -->
<g id="edge39" class="edge"><title>Node37&#45;&gt;Node18</title>
<path fill="none" stroke="midnightblue" d="M489.324,-258.832C502.827,-257.228 516.677,-255.584 529.957,-254.006"/>
<polygon fill="midnightblue" stroke="midnightblue" points="488.598,-255.394 479.081,-260.049 489.424,-262.345 488.598,-255.394"/>
</g>
<!-- Node38&#45;&gt;Node18 -->
<g id="edge41" class="edge"><title>Node38&#45;&gt;Node18</title>
<path fill="none" stroke="midnightblue" d="M489.341,-230.743C501.654,-232.147 514.254,-233.584 526.448,-234.974"/>
<polygon fill="midnightblue" stroke="midnightblue" points="489.413,-227.229 479.081,-229.573 488.62,-234.184 489.413,-227.229"/>
</g>
<!-- Node39&#45;&gt;Node18 -->
<g id="edge43" class="edge"><title>Node39&#45;&gt;Node18</title>
<path fill="none" stroke="midnightblue" d="M468.176,-189.552C474.568,-191.468 480.923,-193.463 487,-195.5 522.961,-207.553 563.663,-224.425 588.055,-234.896"/>
<polygon fill="midnightblue" stroke="midnightblue" points="468.716,-186.063 458.136,-186.612 466.749,-192.781 468.716,-186.063"/>
</g>
</g>
</svg>
        <g id="navigator" transform="translate(0 0)" fill="#404254">
                <rect fill="#f2f5e9" fill-opacity="0.5" stroke="#606060" stroke-width=".5" x="0" y="0" width="60" height="60"/>
                <use id="zoomplus" xlink:href="#zoomPlus" x="17" y="9" onmousedown="handleZoom(evt,'in')"/>
                <use id="zoomminus" xlink:href="#zoomMin" x="42" y="9" onmousedown="handleZoom(evt,'out')"/>
                <use id="reset" xlink:href="#resetDef" x="30" y="36" onmousedown="handleReset()"/>
                <g id="arrowUp" xlink:href="#dirArrow" transform="translate(30 24)" onmousedown="handlePan(0,-1)">
                  <use xlink:href="#rim" fill="#404040">
                        <set attributeName="fill" to="#808080" begin="arrowUp.mouseover" end="arrowUp.mouseout"/>
                  </use>
                  <path fill="none" stroke="white" stroke-width="1.5" d="M0,-3.0v7 M-2.5,-0.5L0,-3.0L2.5,-0.5"/>
                </g>
                <g id="arrowRight" xlink:href="#dirArrow" transform="rotate(90) translate(36 -43)" onmousedown="handlePan(1,0)">
                  <use xlink:href="#rim" fill="#404040">
                        <set attributeName="fill" to="#808080" begin="arrowRight.mouseover" end="arrowRight.mouseout"/>
                  </use>
                  <path fill="none" stroke="white" stroke-width="1.5" d="M0,-3.0v7 M-2.5,-0.5L0,-3.0L2.5,-0.5"/>
                </g>
                <g id="arrowDown" xlink:href="#dirArrow" transform="rotate(180) translate(-30 -48)" onmousedown="handlePan(0,1)">
                  <use xlink:href="#rim" fill="#404040">
                        <set attributeName="fill" to="#808080" begin="arrowDown.mouseover" end="arrowDown.mouseout"/>
                  </use>
                  <path fill="none" stroke="white" stroke-width="1.5" d="M0,-3.0v7 M-2.5,-0.5L0,-3.0L2.5,-0.5"/>
                </g>
                <g id="arrowLeft" xlink:href="#dirArrow" transform="rotate(270) translate(-36 17)" onmousedown="handlePan(-1,0)">
                  <use xlink:href="#rim" fill="#404040">
                        <set attributeName="fill" to="#808080" begin="arrowLeft.mouseover" end="arrowLeft.mouseout"/>
                  </use>
                  <path fill="none" stroke="white" stroke-width="1.5" d="M0,-3.0v7 M-2.5,-0.5L0,-3.0L2.5,-0.5"/>
                </g>
        </g>
        <svg viewBox="0 0 15 15" width="100%" height="30px" preserveAspectRatio="xMaxYMin meet">
         <g id="arrow_out" transform="scale(0.3 0.3)">
          <a xlink:href="net__processing_8h_a4b04650c6aa3e5b02921ba992658d647_icgraph_org.svg" target="_base">
           <rect id="button" ry="5" rx="5" y="6" x="6" height="38" width="38"
                fill="#f2f5e9" fill-opacity="0.5" stroke="#606060" stroke-width="1.0"/>
           <path id="arrow"
             d="M 11.500037,31.436501 C 11.940474,20.09759 22.043105,11.32322 32.158766,21.979434 L 37.068811,17.246167 C 37.068811,17.246167 37.088388,32 37.088388,32 L 22.160133,31.978069 C 22.160133,31.978069 26.997745,27.140456 26.997745,27.140456 C 18.528582,18.264221 13.291696,25.230495 11.500037,31.436501 z"
             style="fill:#404040;"/>
          </a>
         </g>
        </svg>
</svg>
