<?xml version="1.0" encoding="UTF-8" standalone="no"?>
<!DOCTYPE svg PUBLIC "-//W3C//DTD SVG 1.1//EN"
 "http://www.w3.org/Graphics/SVG/1.1/DTD/svg11.dtd">
<!-- Generated by graphviz version 2.38.0 (20140413.2041)
 -->
<!-- Title: tinyformat::detail::FormatIterator::accept Pages: 1 -->
<svg width="475pt" height="257pt"
 viewBox="0.00 0.00 475.00 257.00" xmlns="http://www.w3.org/2000/svg" xmlns:xlink="http://www.w3.org/1999/xlink">
<g id="graph0" class="graph" transform="scale(1 1) rotate(0) translate(4 253)">
<title>tinyformat::detail::FormatIterator::accept</title>
<polygon fill="white" stroke="none" points="-4,4 -4,-253 471,-253 471,4 -4,4"/>
<!-- Node8 -->
<g id="node1" class="node"><title>Node8</title>
<polygon fill="#bfbfbf" stroke="black" points="0,-120 0,-150 119,-150 119,-120 0,-120"/>
<text text-anchor="start" x="8" y="-138" font-family="Helvetica,sans-Serif" font-size="10.00">tinyformat::detail</text>
<text text-anchor="middle" x="59.5" y="-127" font-family="Helvetica,sans-Serif" font-size="10.00">::FormatIterator::accept</text>
</g>
<!-- Node9 -->
<g id="node2" class="node"><title>Node9</title>
<g id="a_node2"><a xlink:href="../../d8/d42/classtinyformat_1_1detail_1_1_format_iterator.html#a048d56660908fe084fc9930bad352c8e" target="_top" xlink:title="tinyformat::detail\l::FormatIterator::formatCString\lTruncate">
<polygon fill="white" stroke="black" points="155,-207.5 155,-248.5 306,-248.5 306,-207.5 155,-207.5"/>
<text text-anchor="start" x="163" y="-236.5" font-family="Helvetica,sans-Serif" font-size="10.00">tinyformat::detail</text>
<text text-anchor="start" x="163" y="-225.5" font-family="Helvetica,sans-Serif" font-size="10.00">::FormatIterator::formatCString</text>
<text text-anchor="middle" x="230.5" y="-214.5" font-family="Helvetica,sans-Serif" font-size="10.00">Truncate</text>
</a>
</g>
</g>
<!-- Node8&#45;&gt;Node9 -->
<g id="edge1" class="edge"><title>Node8&#45;&gt;Node9</title>
<path fill="none" stroke="midnightblue" d="M80.3985,-150.022C99.0269,-163.653 127.968,-183.74 155,-198 158.44,-199.814 162.014,-201.59 165.653,-203.313"/>
<polygon fill="midnightblue" stroke="midnightblue" points="164.241,-206.515 174.792,-207.48 167.146,-200.146 164.241,-206.515"/>
</g>
<!-- Node10 -->
<g id="node3" class="node"><title>Node10</title>
<g id="a_node3"><a xlink:href="../../dc/dd4/namespacetinyformat.html#adc03c92f312158ae351d38ac867b9296" target="_top" xlink:title="tinyformat::formatValue">
<polygon fill="white" stroke="black" points="171,-169.5 171,-188.5 290,-188.5 290,-169.5 171,-169.5"/>
<text text-anchor="middle" x="230.5" y="-176.5" font-family="Helvetica,sans-Serif" font-size="10.00">tinyformat::formatValue</text>
</a>
</g>
</g>
<!-- Node8&#45;&gt;Node10 -->
<g id="edge2" class="edge"><title>Node8&#45;&gt;Node10</title>
<path fill="none" stroke="midnightblue" d="M116.945,-150.021C129.469,-153.329 142.681,-156.8 155,-160 163.73,-162.268 173.041,-164.662 182.019,-166.958"/>
<polygon fill="midnightblue" stroke="midnightblue" points="181.41,-170.415 191.965,-169.497 183.142,-163.632 181.41,-170.415"/>
</g>
<!-- Node11 -->
<g id="node4" class="node"><title>Node11</title>
<g id="a_node4"><a xlink:href="../../d6/d32/structtinyformat_1_1detail_1_1convert_to_int.html#a1e1c0d85c6afc3bb21d2bc9458b3feb1" target="_top" xlink:title="tinyformat::detail\l::convertToInt::invoke">
<polygon fill="white" stroke="black" points="174.5,-120 174.5,-150 286.5,-150 286.5,-120 174.5,-120"/>
<text text-anchor="start" x="182.5" y="-138" font-family="Helvetica,sans-Serif" font-size="10.00">tinyformat::detail</text>
<text text-anchor="middle" x="230.5" y="-127" font-family="Helvetica,sans-Serif" font-size="10.00">::convertToInt::invoke</text>
</a>
</g>
</g>
<!-- Node8&#45;&gt;Node11 -->
<g id="edge3" class="edge"><title>Node8&#45;&gt;Node11</title>
<path fill="none" stroke="midnightblue" d="M119.134,-135C133.696,-135 149.393,-135 164.251,-135"/>
<polygon fill="midnightblue" stroke="midnightblue" points="164.379,-138.5 174.379,-135 164.379,-131.5 164.379,-138.5"/>
</g>
<!-- Node12 -->
<g id="node5" class="node"><title>Node12</title>
<g id="a_node5"><a xlink:href="../../d8/d42/classtinyformat_1_1detail_1_1_format_iterator.html#af3bbb8259ac0593ec2268ef5863311d5" target="_top" xlink:title="tinyformat::detail\l::FormatIterator::printFormat\lStringLiteral">
<polygon fill="white" stroke="black" points="160.5,-60.5 160.5,-101.5 300.5,-101.5 300.5,-60.5 160.5,-60.5"/>
<text text-anchor="start" x="168.5" y="-89.5" font-family="Helvetica,sans-Serif" font-size="10.00">tinyformat::detail</text>
<text text-anchor="start" x="168.5" y="-78.5" font-family="Helvetica,sans-Serif" font-size="10.00">::FormatIterator::printFormat</text>
<text text-anchor="middle" x="230.5" y="-67.5" font-family="Helvetica,sans-Serif" font-size="10.00">StringLiteral</text>
</a>
</g>
</g>
<!-- Node8&#45;&gt;Node12 -->
<g id="edge4" class="edge"><title>Node8&#45;&gt;Node12</title>
<path fill="none" stroke="midnightblue" d="M107.576,-119.958C122.517,-115.184 139.414,-109.785 155.764,-104.561"/>
<polygon fill="midnightblue" stroke="midnightblue" points="156.849,-107.888 165.309,-101.511 154.718,-101.221 156.849,-107.888"/>
</g>
<!-- Node13 -->
<g id="node6" class="node"><title>Node13</title>
<g id="a_node6"><a xlink:href="../../d8/d42/classtinyformat_1_1detail_1_1_format_iterator.html#a42ed39c6771b424bc084b32c5836e83e" target="_top" xlink:title="tinyformat::detail\l::FormatIterator::streamState\lFromFormat">
<polygon fill="white" stroke="black" points="159,-0.5 159,-41.5 302,-41.5 302,-0.5 159,-0.5"/>
<text text-anchor="start" x="167" y="-29.5" font-family="Helvetica,sans-Serif" font-size="10.00">tinyformat::detail</text>
<text text-anchor="start" x="167" y="-18.5" font-family="Helvetica,sans-Serif" font-size="10.00">::FormatIterator::streamState</text>
<text text-anchor="middle" x="230.5" y="-7.5" font-family="Helvetica,sans-Serif" font-size="10.00">FromFormat</text>
</a>
</g>
</g>
<!-- Node8&#45;&gt;Node13 -->
<g id="edge5" class="edge"><title>Node8&#45;&gt;Node13</title>
<path fill="none" stroke="midnightblue" d="M74.2833,-119.907C91.6475,-101.608 123.093,-70.7707 155,-51 157.641,-49.3636 160.386,-47.7849 163.198,-46.266"/>
<polygon fill="midnightblue" stroke="midnightblue" points="165.022,-49.2659 172.358,-41.6223 161.856,-43.0224 165.022,-49.2659"/>
</g>
<!-- Node14 -->
<g id="node7" class="node"><title>Node14</title>
<g id="a_node7"><a xlink:href="../../d8/d42/classtinyformat_1_1detail_1_1_format_iterator.html#a4fab0ac9b2555c20c304da12668020ff" target="_top" xlink:title="tinyformat::detail\l::FormatIterator::parseInt\lAndAdvance">
<polygon fill="white" stroke="black" points="342,-0.5 342,-41.5 467,-41.5 467,-0.5 342,-0.5"/>
<text text-anchor="start" x="350" y="-29.5" font-family="Helvetica,sans-Serif" font-size="10.00">tinyformat::detail</text>
<text text-anchor="start" x="350" y="-18.5" font-family="Helvetica,sans-Serif" font-size="10.00">::FormatIterator::parseInt</text>
<text text-anchor="middle" x="404.5" y="-7.5" font-family="Helvetica,sans-Serif" font-size="10.00">AndAdvance</text>
</a>
</g>
</g>
<!-- Node13&#45;&gt;Node14 -->
<g id="edge6" class="edge"><title>Node13&#45;&gt;Node14</title>
<path fill="none" stroke="midnightblue" d="M302.452,-21C312.034,-21 321.873,-21 331.474,-21"/>
<polygon fill="midnightblue" stroke="midnightblue" points="331.774,-24.5001 341.774,-21 331.774,-17.5001 331.774,-24.5001"/>
</g>
</g>
</svg>
