<?xml version="1.0" encoding="UTF-8" standalone="no"?>
<!DOCTYPE svg PUBLIC "-//W3C//DTD SVG 1.1//EN"
 "http://www.w3.org/Graphics/SVG/1.1/DTD/svg11.dtd">
<!-- Generated by graphviz version 2.38.0 (20140413.2041)
 -->
<!-- Title: RPCConsole::updateNetworkState Pages: 1 -->
<svg width="1184pt" height="99pt"
 viewBox="0.00 0.00 1184.00 98.50" xmlns="http://www.w3.org/2000/svg" xmlns:xlink="http://www.w3.org/1999/xlink">
<g id="graph0" class="graph" transform="scale(1 1) rotate(0) translate(4 94.5)">
<title>RPCConsole::updateNetworkState</title>
<polygon fill="white" stroke="none" points="-4,4 -4,-94.5 1180,-94.5 1180,4 -4,4"/>
<!-- Node523 -->
<g id="node1" class="node"><title>Node523</title>
<polygon fill="#bfbfbf" stroke="black" points="0,-33 0,-63 146,-63 146,-33 0,-33"/>
<text text-anchor="start" x="8" y="-51" font-family="Helvetica,sans-Serif" font-size="10.00">RPCConsole::updateNetwork</text>
<text text-anchor="middle" x="73" y="-40" font-family="Helvetica,sans-Serif" font-size="10.00">State</text>
</g>
<!-- Node524 -->
<g id="node2" class="node"><title>Node524</title>
<g id="a_node2"><a xlink:href="../../d7/de8/class_r_p_c_console.html#a355349a33664a07628e9ca22a60f5fa7" target="_top" xlink:title="RPCConsole::setClientModel">
<polygon fill="white" stroke="black" points="388,-38.5 388,-57.5 534,-57.5 534,-38.5 388,-38.5"/>
<text text-anchor="middle" x="461" y="-45.5" font-family="Helvetica,sans-Serif" font-size="10.00">RPCConsole::setClientModel</text>
</a>
</g>
</g>
<!-- Node523&#45;&gt;Node524 -->
<g id="edge1" class="edge"><title>Node523&#45;&gt;Node524</title>
<path fill="none" stroke="midnightblue" d="M156.237,-63.9935C164.908,-65.2226 173.617,-66.2682 182,-67 257.269,-73.5705 276.731,-73.5705 352,-67 373.242,-65.1458 396.569,-61.2773 416.091,-57.5119"/>
<polygon fill="midnightblue" stroke="midnightblue" points="156.505,-60.4946 146.097,-62.474 155.468,-67.4174 156.505,-60.4946"/>
</g>
<!-- Node531 -->
<g id="node9" class="node"><title>Node531</title>
<g id="a_node9"><a xlink:href="../../d7/de8/class_r_p_c_console.html#acb43211055d842769637a2de7e0a6c4d" target="_top" xlink:title="Set network state shown in the UI. ">
<polygon fill="white" stroke="black" points="188,-38.5 188,-57.5 346,-57.5 346,-38.5 188,-38.5"/>
<text text-anchor="middle" x="267" y="-45.5" font-family="Helvetica,sans-Serif" font-size="10.00">RPCConsole::setNetworkActive</text>
</a>
</g>
</g>
<!-- Node523&#45;&gt;Node531 -->
<g id="edge10" class="edge"><title>Node523&#45;&gt;Node531</title>
<path fill="none" stroke="midnightblue" d="M156.365,-48C166.782,-48 177.418,-48 187.768,-48"/>
<polygon fill="midnightblue" stroke="midnightblue" points="156.04,-44.5001 146.04,-48 156.04,-51.5001 156.04,-44.5001"/>
</g>
<!-- Node532 -->
<g id="node10" class="node"><title>Node532</title>
<g id="a_node10"><a xlink:href="../../d7/de8/class_r_p_c_console.html#aa4546cb7812dd35704de8bf09a6ceb60" target="_top" xlink:title="Set number of connections shown in the UI. ">
<polygon fill="white" stroke="black" points="182,-0.5 182,-19.5 352,-19.5 352,-0.5 182,-0.5"/>
<text text-anchor="middle" x="267" y="-7.5" font-family="Helvetica,sans-Serif" font-size="10.00">RPCConsole::setNumConnections</text>
</a>
</g>
</g>
<!-- Node523&#45;&gt;Node532 -->
<g id="edge12" class="edge"><title>Node523&#45;&gt;Node532</title>
<path fill="none" stroke="midnightblue" d="M155.962,-31.7783C177.027,-27.6091 199.014,-23.2576 217.747,-19.5501"/>
<polygon fill="midnightblue" stroke="midnightblue" points="155.17,-28.3671 146.04,-33.7421 156.529,-35.2339 155.17,-28.3671"/>
</g>
<!-- Node525 -->
<g id="node3" class="node"><title>Node525</title>
<g id="a_node3"><a xlink:href="../../df/d5a/class_bitcoin_g_u_i.html#a99d71e1f8478ab937ce2522c8d3815e3" target="_top" xlink:title="Set the client model. ">
<polygon fill="white" stroke="black" points="570,-38.5 570,-57.5 706,-57.5 706,-38.5 570,-38.5"/>
<text text-anchor="middle" x="638" y="-45.5" font-family="Helvetica,sans-Serif" font-size="10.00">BitcoinGUI::setClientModel</text>
</a>
</g>
</g>
<!-- Node524&#45;&gt;Node525 -->
<g id="edge2" class="edge"><title>Node524&#45;&gt;Node525</title>
<path fill="none" stroke="midnightblue" d="M544.19,-48C552.753,-48 561.384,-48 569.753,-48"/>
<polygon fill="midnightblue" stroke="midnightblue" points="544.19,-44.5001 534.19,-48 544.19,-51.5001 544.19,-44.5001"/>
</g>
<!-- Node526 -->
<g id="node4" class="node"><title>Node526</title>
<g id="a_node4"><a xlink:href="../../d2/d2a/class_bitcoin_application.html#aceb08b4063e4fb264cf11cf7f9edd969" target="_top" xlink:title="BitcoinApplication\l::initializeResult">
<polygon fill="white" stroke="black" points="742,-55 742,-85 837,-85 837,-55 742,-55"/>
<text text-anchor="start" x="750" y="-73" font-family="Helvetica,sans-Serif" font-size="10.00">BitcoinApplication</text>
<text text-anchor="middle" x="789.5" y="-62" font-family="Helvetica,sans-Serif" font-size="10.00">::initializeResult</text>
</a>
</g>
</g>
<!-- Node525&#45;&gt;Node526 -->
<g id="edge3" class="edge"><title>Node525&#45;&gt;Node526</title>
<path fill="none" stroke="midnightblue" d="M713.644,-58.9845C723.21,-60.3921 732.778,-61.8 741.721,-63.1161"/>
<polygon fill="midnightblue" stroke="midnightblue" points="714.106,-55.5148 703.703,-57.5216 713.087,-62.4403 714.106,-55.5148"/>
</g>
<!-- Node530 -->
<g id="node8" class="node"><title>Node530</title>
<g id="a_node8"><a xlink:href="../../d2/d2a/class_bitcoin_application.html#a37c560d4c04d14a6da151b82caf8888f" target="_top" xlink:title="Request core shutdown. ">
<polygon fill="white" stroke="black" points="1004,-11 1004,-41 1102,-41 1102,-11 1004,-11"/>
<text text-anchor="start" x="1012" y="-29" font-family="Helvetica,sans-Serif" font-size="10.00">BitcoinApplication</text>
<text text-anchor="middle" x="1053" y="-18" font-family="Helvetica,sans-Serif" font-size="10.00">::requestShutdown</text>
</a>
</g>
</g>
<!-- Node525&#45;&gt;Node530 -->
<g id="edge9" class="edge"><title>Node525&#45;&gt;Node530</title>
<path fill="none" stroke="midnightblue" d="M716.318,-43.8814C800.688,-39.3871 933.14,-32.3315 1003.8,-28.5675"/>
<polygon fill="midnightblue" stroke="midnightblue" points="716.074,-40.3893 706.275,-44.4164 716.447,-47.3794 716.074,-40.3893"/>
</g>
<!-- Node527 -->
<g id="node5" class="node"><title>Node527</title>
<g id="a_node5"><a xlink:href="../../d2/d2a/class_bitcoin_application.html#a61afce9356e452c53ad4c83f5ca19df8" target="_top" xlink:title="BitcoinApplication\l::startThread">
<polygon fill="white" stroke="black" points="873,-55 873,-85 968,-85 968,-55 873,-55"/>
<text text-anchor="start" x="881" y="-73" font-family="Helvetica,sans-Serif" font-size="10.00">BitcoinApplication</text>
<text text-anchor="middle" x="920.5" y="-62" font-family="Helvetica,sans-Serif" font-size="10.00">::startThread</text>
</a>
</g>
</g>
<!-- Node526&#45;&gt;Node527 -->
<g id="edge4" class="edge"><title>Node526&#45;&gt;Node527</title>
<path fill="none" stroke="midnightblue" d="M847.101,-70C855.752,-70 864.596,-70 872.996,-70"/>
<polygon fill="midnightblue" stroke="midnightblue" points="847.072,-66.5001 837.072,-70 847.072,-73.5001 847.072,-66.5001"/>
</g>
<!-- Node528 -->
<g id="node6" class="node"><title>Node528</title>
<g id="a_node6"><a xlink:href="../../d2/d2a/class_bitcoin_application.html#ade19c44b87b00b6b19b433caf4c22ba6" target="_top" xlink:title="Request core initialization. ">
<polygon fill="white" stroke="black" points="1005.5,-60 1005.5,-90 1100.5,-90 1100.5,-60 1005.5,-60"/>
<text text-anchor="start" x="1013.5" y="-78" font-family="Helvetica,sans-Serif" font-size="10.00">BitcoinApplication</text>
<text text-anchor="middle" x="1053" y="-67" font-family="Helvetica,sans-Serif" font-size="10.00">::requestInitialize</text>
</a>
</g>
</g>
<!-- Node527&#45;&gt;Node528 -->
<g id="edge5" class="edge"><title>Node527&#45;&gt;Node528</title>
<path fill="none" stroke="midnightblue" d="M978.251,-72.1744C987.228,-72.5183 996.424,-72.8707 1005.14,-73.2047"/>
<polygon fill="midnightblue" stroke="midnightblue" points="978.372,-68.6765 968.245,-71.791 978.104,-75.6714 978.372,-68.6765"/>
</g>
<!-- Node527&#45;&gt;Node530 -->
<g id="edge7" class="edge"><title>Node527&#45;&gt;Node530</title>
<path fill="none" stroke="midnightblue" d="M975.569,-51.7699C986.096,-48.2204 997.024,-44.5358 1007.21,-41.1009"/>
<polygon fill="midnightblue" stroke="midnightblue" points="974.403,-48.4692 966.046,-54.9808 976.64,-55.1023 974.403,-48.4692"/>
</g>
<!-- Node529 -->
<g id="node7" class="node"><title>Node529</title>
<g id="a_node7"><a xlink:href="../../de/d02/dash_8cpp.html#a0ddf1224851353fc92bfbff6f499fa97" target="_top" xlink:title="main">
<polygon fill="white" stroke="black" points="1138,-40.5 1138,-59.5 1176,-59.5 1176,-40.5 1138,-40.5"/>
<text text-anchor="middle" x="1157" y="-47.5" font-family="Helvetica,sans-Serif" font-size="10.00">main</text>
</a>
</g>
</g>
<!-- Node528&#45;&gt;Node529 -->
<g id="edge6" class="edge"><title>Node528&#45;&gt;Node529</title>
<path fill="none" stroke="midnightblue" d="M1110.47,-61.1586C1120.39,-58.7289 1130.02,-56.3675 1137.85,-54.4474"/>
<polygon fill="midnightblue" stroke="midnightblue" points="1109.4,-57.8174 1100.52,-63.5974 1111.07,-64.6162 1109.4,-57.8174"/>
</g>
<!-- Node530&#45;&gt;Node529 -->
<g id="edge8" class="edge"><title>Node530&#45;&gt;Node529</title>
<path fill="none" stroke="midnightblue" d="M1111.92,-39.628C1121.37,-41.8508 1130.49,-43.9977 1137.96,-45.7559"/>
<polygon fill="midnightblue" stroke="midnightblue" points="1112.55,-36.1807 1102.01,-37.2972 1110.95,-42.9947 1112.55,-36.1807"/>
</g>
<!-- Node531&#45;&gt;Node524 -->
<g id="edge11" class="edge"><title>Node531&#45;&gt;Node524</title>
<path fill="none" stroke="midnightblue" d="M356.199,-48C366.798,-48 377.525,-48 387.858,-48"/>
<polygon fill="midnightblue" stroke="midnightblue" points="356.094,-44.5001 346.094,-48 356.094,-51.5001 356.094,-44.5001"/>
</g>
<!-- Node532&#45;&gt;Node524 -->
<g id="edge13" class="edge"><title>Node532&#45;&gt;Node524</title>
<path fill="none" stroke="midnightblue" d="M326.298,-21.5381C353.683,-26.958 385.933,-33.341 411.899,-38.4799"/>
<polygon fill="midnightblue" stroke="midnightblue" points="326.939,-18.0972 316.45,-19.589 325.58,-24.964 326.939,-18.0972"/>
</g>
</g>
</svg>
