<?xml version="1.0" encoding="UTF-8" standalone="no"?>
<!DOCTYPE svg PUBLIC "-//W3C//DTD SVG 1.1//EN"
 "http://www.w3.org/Graphics/SVG/1.1/DTD/svg11.dtd">
<!-- Generated by graphviz version 2.38.0 (20140413.2041)
 -->
<!-- Title: RPCConsole::hideEvent Pages: 1 -->
<svg width="300pt" height="88pt"
 viewBox="0.00 0.00 300.00 88.00" xmlns="http://www.w3.org/2000/svg" xmlns:xlink="http://www.w3.org/1999/xlink">
<g id="graph0" class="graph" transform="scale(1 1) rotate(0) translate(4 84)">
<title>RPCConsole::hideEvent</title>
<polygon fill="white" stroke="none" points="-4,4 -4,-84 296,-84 296,4 -4,4"/>
<!-- Node166 -->
<g id="node1" class="node"><title>Node166</title>
<polygon fill="#bfbfbf" stroke="black" points="0,-30 0,-49 124,-49 124,-30 0,-30"/>
<text text-anchor="middle" x="62" y="-37" font-family="Helvetica,sans-Serif" font-size="10.00">RPCConsole::hideEvent</text>
</g>
<!-- Node167 -->
<g id="node2" class="node"><title>Node167</title>
<g id="a_node2"><a xlink:href="../../df/d25/class_client_model.html#a643fc112ce94f50ac7187ecdf3c75360" target="_top" xlink:title="ClientModel::getPeerTable\lModel">
<polygon fill="white" stroke="black" points="160,-49.5 160,-79.5 292,-79.5 292,-49.5 160,-49.5"/>
<text text-anchor="start" x="168" y="-67.5" font-family="Helvetica,sans-Serif" font-size="10.00">ClientModel::getPeerTable</text>
<text text-anchor="middle" x="226" y="-56.5" font-family="Helvetica,sans-Serif" font-size="10.00">Model</text>
</a>
</g>
</g>
<!-- Node166&#45;&gt;Node167 -->
<g id="edge1" class="edge"><title>Node166&#45;&gt;Node167</title>
<path fill="none" stroke="midnightblue" d="M124.245,-48.9514C132.617,-50.2434 141.289,-51.5817 149.873,-52.9063"/>
<polygon fill="midnightblue" stroke="midnightblue" points="149.468,-56.3852 159.885,-54.4514 150.536,-49.4671 149.468,-56.3852"/>
</g>
<!-- Node168 -->
<g id="node3" class="node"><title>Node168</title>
<g id="a_node3"><a xlink:href="../../d7/d25/class_peer_table_model.html#a2a738ac95fc16e0e1db9693eadc4f8b4" target="_top" xlink:title="PeerTableModel::stopAuto\lRefresh">
<polygon fill="white" stroke="black" points="160,-0.5 160,-30.5 292,-30.5 292,-0.5 160,-0.5"/>
<text text-anchor="start" x="168" y="-18.5" font-family="Helvetica,sans-Serif" font-size="10.00">PeerTableModel::stopAuto</text>
<text text-anchor="middle" x="226" y="-7.5" font-family="Helvetica,sans-Serif" font-size="10.00">Refresh</text>
</a>
</g>
</g>
<!-- Node166&#45;&gt;Node168 -->
<g id="edge2" class="edge"><title>Node166&#45;&gt;Node168</title>
<path fill="none" stroke="midnightblue" d="M124.245,-30.4266C132.617,-29.1863 141.289,-27.9016 149.873,-26.63"/>
<polygon fill="midnightblue" stroke="midnightblue" points="150.506,-30.0744 159.885,-25.1466 149.48,-23.15 150.506,-30.0744"/>
</g>
</g>
</svg>
