<?xml version="1.0" encoding="UTF-8" standalone="no"?>
<!DOCTYPE svg PUBLIC "-//W3C//DTD SVG 1.1//EN"
 "http://www.w3.org/Graphics/SVG/1.1/DTD/svg11.dtd">
<!-- Generated by graphviz version 2.38.0 (20140413.2041)
 -->
<!-- Title: RPCConsole::setNumConnections Pages: 1 -->
<svg width="1002pt" height="88pt"
 viewBox="0.00 0.00 1002.00 88.00" xmlns="http://www.w3.org/2000/svg" xmlns:xlink="http://www.w3.org/1999/xlink">
<g id="graph0" class="graph" transform="scale(1 1) rotate(0) translate(4 84)">
<title>RPCConsole::setNumConnections</title>
<polygon fill="white" stroke="none" points="-4,4 -4,-84 998,-84 998,4 -4,4"/>
<!-- Node421 -->
<g id="node1" class="node"><title>Node421</title>
<polygon fill="#bfbfbf" stroke="black" points="0,-28 0,-47 170,-47 170,-28 0,-28"/>
<text text-anchor="middle" x="85" y="-35" font-family="Helvetica,sans-Serif" font-size="10.00">RPCConsole::setNumConnections</text>
</g>
<!-- Node422 -->
<g id="node2" class="node"><title>Node422</title>
<g id="a_node2"><a xlink:href="../../d7/de8/class_r_p_c_console.html#a355349a33664a07628e9ca22a60f5fa7" target="_top" xlink:title="RPCConsole::setClientModel">
<polygon fill="white" stroke="black" points="206,-28 206,-47 352,-47 352,-28 206,-28"/>
<text text-anchor="middle" x="279" y="-35" font-family="Helvetica,sans-Serif" font-size="10.00">RPCConsole::setClientModel</text>
</a>
</g>
</g>
<!-- Node421&#45;&gt;Node422 -->
<g id="edge1" class="edge"><title>Node421&#45;&gt;Node422</title>
<path fill="none" stroke="midnightblue" d="M180.287,-37.5C188.889,-37.5 197.51,-37.5 205.872,-37.5"/>
<polygon fill="midnightblue" stroke="midnightblue" points="180.214,-34.0001 170.214,-37.5 180.214,-41.0001 180.214,-34.0001"/>
</g>
<!-- Node423 -->
<g id="node3" class="node"><title>Node423</title>
<g id="a_node3"><a xlink:href="../../df/d5a/class_bitcoin_g_u_i.html#a99d71e1f8478ab937ce2522c8d3815e3" target="_top" xlink:title="Set the client model. ">
<polygon fill="white" stroke="black" points="388,-28 388,-47 524,-47 524,-28 388,-28"/>
<text text-anchor="middle" x="456" y="-35" font-family="Helvetica,sans-Serif" font-size="10.00">BitcoinGUI::setClientModel</text>
</a>
</g>
</g>
<!-- Node422&#45;&gt;Node423 -->
<g id="edge2" class="edge"><title>Node422&#45;&gt;Node423</title>
<path fill="none" stroke="midnightblue" d="M362.19,-37.5C370.753,-37.5 379.384,-37.5 387.753,-37.5"/>
<polygon fill="midnightblue" stroke="midnightblue" points="362.19,-34.0001 352.19,-37.5 362.19,-41.0001 362.19,-34.0001"/>
</g>
<!-- Node424 -->
<g id="node4" class="node"><title>Node424</title>
<g id="a_node4"><a xlink:href="../../d2/d2a/class_bitcoin_application.html#aceb08b4063e4fb264cf11cf7f9edd969" target="_top" xlink:title="BitcoinApplication\l::initializeResult">
<polygon fill="white" stroke="black" points="560,-44.5 560,-74.5 655,-74.5 655,-44.5 560,-44.5"/>
<text text-anchor="start" x="568" y="-62.5" font-family="Helvetica,sans-Serif" font-size="10.00">BitcoinApplication</text>
<text text-anchor="middle" x="607.5" y="-51.5" font-family="Helvetica,sans-Serif" font-size="10.00">::initializeResult</text>
</a>
</g>
</g>
<!-- Node423&#45;&gt;Node424 -->
<g id="edge3" class="edge"><title>Node423&#45;&gt;Node424</title>
<path fill="none" stroke="midnightblue" d="M531.644,-48.4845C541.21,-49.8921 550.778,-51.3 559.721,-52.6161"/>
<polygon fill="midnightblue" stroke="midnightblue" points="532.106,-45.0148 521.703,-47.0216 531.087,-51.9403 532.106,-45.0148"/>
</g>
<!-- Node428 -->
<g id="node8" class="node"><title>Node428</title>
<g id="a_node8"><a xlink:href="../../d2/d2a/class_bitcoin_application.html#a37c560d4c04d14a6da151b82caf8888f" target="_top" xlink:title="Request core shutdown. ">
<polygon fill="white" stroke="black" points="822,-0.5 822,-30.5 920,-30.5 920,-0.5 822,-0.5"/>
<text text-anchor="start" x="830" y="-18.5" font-family="Helvetica,sans-Serif" font-size="10.00">BitcoinApplication</text>
<text text-anchor="middle" x="871" y="-7.5" font-family="Helvetica,sans-Serif" font-size="10.00">::requestShutdown</text>
</a>
</g>
</g>
<!-- Node423&#45;&gt;Node428 -->
<g id="edge9" class="edge"><title>Node423&#45;&gt;Node428</title>
<path fill="none" stroke="midnightblue" d="M534.318,-33.3814C618.688,-28.8871 751.14,-21.8315 821.802,-18.0675"/>
<polygon fill="midnightblue" stroke="midnightblue" points="534.074,-29.8893 524.275,-33.9164 534.447,-36.8794 534.074,-29.8893"/>
</g>
<!-- Node425 -->
<g id="node5" class="node"><title>Node425</title>
<g id="a_node5"><a xlink:href="../../d2/d2a/class_bitcoin_application.html#a61afce9356e452c53ad4c83f5ca19df8" target="_top" xlink:title="BitcoinApplication\l::startThread">
<polygon fill="white" stroke="black" points="691,-44.5 691,-74.5 786,-74.5 786,-44.5 691,-44.5"/>
<text text-anchor="start" x="699" y="-62.5" font-family="Helvetica,sans-Serif" font-size="10.00">BitcoinApplication</text>
<text text-anchor="middle" x="738.5" y="-51.5" font-family="Helvetica,sans-Serif" font-size="10.00">::startThread</text>
</a>
</g>
</g>
<!-- Node424&#45;&gt;Node425 -->
<g id="edge4" class="edge"><title>Node424&#45;&gt;Node425</title>
<path fill="none" stroke="midnightblue" d="M665.101,-59.5C673.752,-59.5 682.596,-59.5 690.996,-59.5"/>
<polygon fill="midnightblue" stroke="midnightblue" points="665.072,-56.0001 655.072,-59.5 665.072,-63.0001 665.072,-56.0001"/>
</g>
<!-- Node426 -->
<g id="node6" class="node"><title>Node426</title>
<g id="a_node6"><a xlink:href="../../d2/d2a/class_bitcoin_application.html#ade19c44b87b00b6b19b433caf4c22ba6" target="_top" xlink:title="Request core initialization. ">
<polygon fill="white" stroke="black" points="823.5,-49.5 823.5,-79.5 918.5,-79.5 918.5,-49.5 823.5,-49.5"/>
<text text-anchor="start" x="831.5" y="-67.5" font-family="Helvetica,sans-Serif" font-size="10.00">BitcoinApplication</text>
<text text-anchor="middle" x="871" y="-56.5" font-family="Helvetica,sans-Serif" font-size="10.00">::requestInitialize</text>
</a>
</g>
</g>
<!-- Node425&#45;&gt;Node426 -->
<g id="edge5" class="edge"><title>Node425&#45;&gt;Node426</title>
<path fill="none" stroke="midnightblue" d="M796.251,-61.6744C805.228,-62.0183 814.424,-62.3707 823.143,-62.7047"/>
<polygon fill="midnightblue" stroke="midnightblue" points="796.372,-58.1765 786.245,-61.291 796.104,-65.1714 796.372,-58.1765"/>
</g>
<!-- Node425&#45;&gt;Node428 -->
<g id="edge7" class="edge"><title>Node425&#45;&gt;Node428</title>
<path fill="none" stroke="midnightblue" d="M793.569,-41.2699C804.096,-37.7204 815.024,-34.0358 825.212,-30.6009"/>
<polygon fill="midnightblue" stroke="midnightblue" points="792.403,-37.9692 784.046,-44.4808 794.64,-44.6023 792.403,-37.9692"/>
</g>
<!-- Node427 -->
<g id="node7" class="node"><title>Node427</title>
<g id="a_node7"><a xlink:href="../../de/d02/dash_8cpp.html#a0ddf1224851353fc92bfbff6f499fa97" target="_top" xlink:title="main">
<polygon fill="white" stroke="black" points="956,-30 956,-49 994,-49 994,-30 956,-30"/>
<text text-anchor="middle" x="975" y="-37" font-family="Helvetica,sans-Serif" font-size="10.00">main</text>
</a>
</g>
</g>
<!-- Node426&#45;&gt;Node427 -->
<g id="edge6" class="edge"><title>Node426&#45;&gt;Node427</title>
<path fill="none" stroke="midnightblue" d="M928.473,-50.6586C938.386,-48.2289 948.021,-45.8675 955.854,-43.9474"/>
<polygon fill="midnightblue" stroke="midnightblue" points="927.402,-47.3174 918.523,-53.0974 929.068,-54.1162 927.402,-47.3174"/>
</g>
<!-- Node428&#45;&gt;Node427 -->
<g id="edge8" class="edge"><title>Node428&#45;&gt;Node427</title>
<path fill="none" stroke="midnightblue" d="M929.919,-29.128C939.366,-31.3508 948.49,-33.4977 955.963,-35.2559"/>
<polygon fill="midnightblue" stroke="midnightblue" points="930.549,-25.6807 920.013,-26.7972 928.946,-32.4947 930.549,-25.6807"/>
</g>
</g>
</svg>
