<?xml version="1.0" encoding="UTF-8" standalone="no"?>
<!DOCTYPE svg PUBLIC "-//W3C//DTD SVG 1.1//EN"
 "http://www.w3.org/Graphics/SVG/1.1/DTD/svg11.dtd">
<!-- Generated by graphviz version 2.38.0 (20140413.2041)
 -->
<!-- Title: RPCConsole::peerLayoutAboutToChange Pages: 1 -->
<svg width="986pt" height="88pt"
 viewBox="0.00 0.00 986.00 88.00" xmlns="http://www.w3.org/2000/svg" xmlns:xlink="http://www.w3.org/1999/xlink">
<g id="graph0" class="graph" transform="scale(1 1) rotate(0) translate(4 84)">
<title>RPCConsole::peerLayoutAboutToChange</title>
<polygon fill="white" stroke="none" points="-4,4 -4,-84 982,-84 982,4 -4,4"/>
<!-- Node214 -->
<g id="node1" class="node"><title>Node214</title>
<polygon fill="#bfbfbf" stroke="black" points="0,-22.5 0,-52.5 154,-52.5 154,-22.5 0,-22.5"/>
<text text-anchor="start" x="8" y="-40.5" font-family="Helvetica,sans-Serif" font-size="10.00">RPCConsole::peerLayoutAbout</text>
<text text-anchor="middle" x="77" y="-29.5" font-family="Helvetica,sans-Serif" font-size="10.00">ToChange</text>
</g>
<!-- Node215 -->
<g id="node2" class="node"><title>Node215</title>
<g id="a_node2"><a xlink:href="../../d7/de8/class_r_p_c_console.html#a355349a33664a07628e9ca22a60f5fa7" target="_top" xlink:title="RPCConsole::setClientModel">
<polygon fill="white" stroke="black" points="190,-28 190,-47 336,-47 336,-28 190,-28"/>
<text text-anchor="middle" x="263" y="-35" font-family="Helvetica,sans-Serif" font-size="10.00">RPCConsole::setClientModel</text>
</a>
</g>
</g>
<!-- Node214&#45;&gt;Node215 -->
<g id="edge1" class="edge"><title>Node214&#45;&gt;Node215</title>
<path fill="none" stroke="midnightblue" d="M164.441,-37.5C172.904,-37.5 181.43,-37.5 189.731,-37.5"/>
<polygon fill="midnightblue" stroke="midnightblue" points="164.168,-34.0001 154.168,-37.5 164.168,-41.0001 164.168,-34.0001"/>
</g>
<!-- Node216 -->
<g id="node3" class="node"><title>Node216</title>
<g id="a_node3"><a xlink:href="../../df/d5a/class_bitcoin_g_u_i.html#a99d71e1f8478ab937ce2522c8d3815e3" target="_top" xlink:title="Set the client model. ">
<polygon fill="white" stroke="black" points="372,-28 372,-47 508,-47 508,-28 372,-28"/>
<text text-anchor="middle" x="440" y="-35" font-family="Helvetica,sans-Serif" font-size="10.00">BitcoinGUI::setClientModel</text>
</a>
</g>
</g>
<!-- Node215&#45;&gt;Node216 -->
<g id="edge2" class="edge"><title>Node215&#45;&gt;Node216</title>
<path fill="none" stroke="midnightblue" d="M346.19,-37.5C354.753,-37.5 363.384,-37.5 371.753,-37.5"/>
<polygon fill="midnightblue" stroke="midnightblue" points="346.19,-34.0001 336.19,-37.5 346.19,-41.0001 346.19,-34.0001"/>
</g>
<!-- Node217 -->
<g id="node4" class="node"><title>Node217</title>
<g id="a_node4"><a xlink:href="../../d2/d2a/class_bitcoin_application.html#aceb08b4063e4fb264cf11cf7f9edd969" target="_top" xlink:title="BitcoinApplication\l::initializeResult">
<polygon fill="white" stroke="black" points="544,-44.5 544,-74.5 639,-74.5 639,-44.5 544,-44.5"/>
<text text-anchor="start" x="552" y="-62.5" font-family="Helvetica,sans-Serif" font-size="10.00">BitcoinApplication</text>
<text text-anchor="middle" x="591.5" y="-51.5" font-family="Helvetica,sans-Serif" font-size="10.00">::initializeResult</text>
</a>
</g>
</g>
<!-- Node216&#45;&gt;Node217 -->
<g id="edge3" class="edge"><title>Node216&#45;&gt;Node217</title>
<path fill="none" stroke="midnightblue" d="M515.644,-48.4845C525.21,-49.8921 534.778,-51.3 543.721,-52.6161"/>
<polygon fill="midnightblue" stroke="midnightblue" points="516.106,-45.0148 505.703,-47.0216 515.087,-51.9403 516.106,-45.0148"/>
</g>
<!-- Node221 -->
<g id="node8" class="node"><title>Node221</title>
<g id="a_node8"><a xlink:href="../../d2/d2a/class_bitcoin_application.html#a37c560d4c04d14a6da151b82caf8888f" target="_top" xlink:title="Request core shutdown. ">
<polygon fill="white" stroke="black" points="806,-0.5 806,-30.5 904,-30.5 904,-0.5 806,-0.5"/>
<text text-anchor="start" x="814" y="-18.5" font-family="Helvetica,sans-Serif" font-size="10.00">BitcoinApplication</text>
<text text-anchor="middle" x="855" y="-7.5" font-family="Helvetica,sans-Serif" font-size="10.00">::requestShutdown</text>
</a>
</g>
</g>
<!-- Node216&#45;&gt;Node221 -->
<g id="edge9" class="edge"><title>Node216&#45;&gt;Node221</title>
<path fill="none" stroke="midnightblue" d="M518.318,-33.3814C602.688,-28.8871 735.14,-21.8315 805.802,-18.0675"/>
<polygon fill="midnightblue" stroke="midnightblue" points="518.074,-29.8893 508.275,-33.9164 518.447,-36.8794 518.074,-29.8893"/>
</g>
<!-- Node218 -->
<g id="node5" class="node"><title>Node218</title>
<g id="a_node5"><a xlink:href="../../d2/d2a/class_bitcoin_application.html#a61afce9356e452c53ad4c83f5ca19df8" target="_top" xlink:title="BitcoinApplication\l::startThread">
<polygon fill="white" stroke="black" points="675,-44.5 675,-74.5 770,-74.5 770,-44.5 675,-44.5"/>
<text text-anchor="start" x="683" y="-62.5" font-family="Helvetica,sans-Serif" font-size="10.00">BitcoinApplication</text>
<text text-anchor="middle" x="722.5" y="-51.5" font-family="Helvetica,sans-Serif" font-size="10.00">::startThread</text>
</a>
</g>
</g>
<!-- Node217&#45;&gt;Node218 -->
<g id="edge4" class="edge"><title>Node217&#45;&gt;Node218</title>
<path fill="none" stroke="midnightblue" d="M649.101,-59.5C657.752,-59.5 666.596,-59.5 674.996,-59.5"/>
<polygon fill="midnightblue" stroke="midnightblue" points="649.072,-56.0001 639.072,-59.5 649.072,-63.0001 649.072,-56.0001"/>
</g>
<!-- Node219 -->
<g id="node6" class="node"><title>Node219</title>
<g id="a_node6"><a xlink:href="../../d2/d2a/class_bitcoin_application.html#ade19c44b87b00b6b19b433caf4c22ba6" target="_top" xlink:title="Request core initialization. ">
<polygon fill="white" stroke="black" points="807.5,-49.5 807.5,-79.5 902.5,-79.5 902.5,-49.5 807.5,-49.5"/>
<text text-anchor="start" x="815.5" y="-67.5" font-family="Helvetica,sans-Serif" font-size="10.00">BitcoinApplication</text>
<text text-anchor="middle" x="855" y="-56.5" font-family="Helvetica,sans-Serif" font-size="10.00">::requestInitialize</text>
</a>
</g>
</g>
<!-- Node218&#45;&gt;Node219 -->
<g id="edge5" class="edge"><title>Node218&#45;&gt;Node219</title>
<path fill="none" stroke="midnightblue" d="M780.251,-61.6744C789.228,-62.0183 798.424,-62.3707 807.143,-62.7047"/>
<polygon fill="midnightblue" stroke="midnightblue" points="780.372,-58.1765 770.245,-61.291 780.104,-65.1714 780.372,-58.1765"/>
</g>
<!-- Node218&#45;&gt;Node221 -->
<g id="edge7" class="edge"><title>Node218&#45;&gt;Node221</title>
<path fill="none" stroke="midnightblue" d="M777.569,-41.2699C788.096,-37.7204 799.024,-34.0358 809.212,-30.6009"/>
<polygon fill="midnightblue" stroke="midnightblue" points="776.403,-37.9692 768.046,-44.4808 778.64,-44.6023 776.403,-37.9692"/>
</g>
<!-- Node220 -->
<g id="node7" class="node"><title>Node220</title>
<g id="a_node7"><a xlink:href="../../de/d02/dash_8cpp.html#a0ddf1224851353fc92bfbff6f499fa97" target="_top" xlink:title="main">
<polygon fill="white" stroke="black" points="940,-30 940,-49 978,-49 978,-30 940,-30"/>
<text text-anchor="middle" x="959" y="-37" font-family="Helvetica,sans-Serif" font-size="10.00">main</text>
</a>
</g>
</g>
<!-- Node219&#45;&gt;Node220 -->
<g id="edge6" class="edge"><title>Node219&#45;&gt;Node220</title>
<path fill="none" stroke="midnightblue" d="M912.473,-50.6586C922.386,-48.2289 932.021,-45.8675 939.854,-43.9474"/>
<polygon fill="midnightblue" stroke="midnightblue" points="911.402,-47.3174 902.523,-53.0974 913.068,-54.1162 911.402,-47.3174"/>
</g>
<!-- Node221&#45;&gt;Node220 -->
<g id="edge8" class="edge"><title>Node221&#45;&gt;Node220</title>
<path fill="none" stroke="midnightblue" d="M913.919,-29.128C923.366,-31.3508 932.49,-33.4977 939.963,-35.2559"/>
<polygon fill="midnightblue" stroke="midnightblue" points="914.549,-25.6807 904.013,-26.7972 912.946,-32.4947 914.549,-25.6807"/>
</g>
</g>
</svg>
