<?xml version="1.0" encoding="UTF-8" standalone="no"?>
<!DOCTYPE svg PUBLIC "-//W3C//DTD SVG 1.1//EN"
 "http://www.w3.org/Graphics/SVG/1.1/DTD/svg11.dtd">
<!-- Generated by graphviz version 2.38.0 (20140413.2041)
 -->
<!-- Title: CMerkleTx Pages: 1 -->
<svg width="218pt" height="211pt"
 viewBox="0.00 0.00 218.00 211.00" xmlns="http://www.w3.org/2000/svg" xmlns:xlink="http://www.w3.org/1999/xlink">
<g id="graph0" class="graph" transform="scale(1 1) rotate(0) translate(4 207)">
<title>CMerkleTx</title>
<polygon fill="white" stroke="none" points="-4,4 -4,-207 214,-207 214,4 -4,4"/>
<!-- Node3 -->
<g id="node1" class="node"><title>Node3</title>
<polygon fill="#bfbfbf" stroke="black" points="40,-0.5 40,-19.5 105,-19.5 105,-0.5 40,-0.5"/>
<text text-anchor="middle" x="72.5" y="-7.5" font-family="Helvetica,sans-Serif" font-size="10.00">CMerkleTx</text>
</g>
<!-- Node4 -->
<g id="node2" class="node"><title>Node4</title>
<g id="a_node2"><a xlink:href="../../df/d43/class_c_transaction.html" target="_top" xlink:title="The basic transaction that is broadcasted on the network and contained in blocks. ...">
<polygon fill="white" stroke="black" points="135,-58.5 135,-77.5 210,-77.5 210,-58.5 135,-58.5"/>
<text text-anchor="middle" x="172.5" y="-65.5" font-family="Helvetica,sans-Serif" font-size="10.00">CTransaction</text>
</a>
</g>
</g>
<!-- Node4&#45;&gt;Node3 -->
<g id="edge1" class="edge"><title>Node4&#45;&gt;Node3</title>
<path fill="none" stroke="midnightblue" d="M148.425,-53.5177C129.588,-42.9694 103.966,-28.621 87.8308,-19.5852"/>
<polygon fill="midnightblue" stroke="midnightblue" points="146.877,-56.6625 157.312,-58.4948 150.297,-50.5549 146.877,-56.6625"/>
</g>
<!-- Node5 -->
<g id="node3" class="node"><title>Node5</title>
<g id="a_node3"><a xlink:href="../../d2/d86/classuint256.html" target="_top" xlink:title="256&#45;bit opaque blob. ">
<polygon fill="white" stroke="black" points="23.5,-126.5 23.5,-145.5 71.5,-145.5 71.5,-126.5 23.5,-126.5"/>
<text text-anchor="middle" x="47.5" y="-133.5" font-family="Helvetica,sans-Serif" font-size="10.00">uint256</text>
</a>
</g>
</g>
<!-- Node5&#45;&gt;Node3 -->
<g id="edge4" class="edge"><title>Node5&#45;&gt;Node3</title>
<path fill="none" stroke="#9a32cd" stroke-dasharray="5,2" d="M42.2848,-116.337C38.6774,-100.266 35.503,-76.6297 41.5,-57 45.9457,-42.448 56.7123,-28.3363 64.3039,-19.6645"/>
<polygon fill="#9a32cd" stroke="#9a32cd" points="38.91,-117.269 44.7439,-126.113 45.6985,-115.561 38.91,-117.269"/>
<text text-anchor="middle" x="84" y="-71" font-family="Helvetica,sans-Serif" font-size="10.00"> hashBlock</text>
<text text-anchor="middle" x="84" y="-60" font-family="Helvetica,sans-Serif" font-size="10.00">ABANDON_HASH</text>
</g>
<!-- Node5&#45;&gt;Node4 -->
<g id="edge2" class="edge"><title>Node5&#45;&gt;Node4</title>
<path fill="none" stroke="#9a32cd" stroke-dasharray="5,2" d="M72.7105,-121.689C97.5944,-108.55 134.91,-88.8475 156.154,-77.6305"/>
<polygon fill="#9a32cd" stroke="#9a32cd" points="71.0504,-118.607 63.8416,-126.372 74.3188,-124.798 71.0504,-118.607"/>
<text text-anchor="middle" x="129" y="-100" font-family="Helvetica,sans-Serif" font-size="10.00"> hash</text>
</g>
<!-- Node6 -->
<g id="node4" class="node"><title>Node6</title>
<g id="a_node4"><a xlink:href="../../db/d50/classbase__blob.html" target="_top" xlink:title="base_blob\&lt; 256 \&gt;">
<polygon fill="white" stroke="black" points="0,-183.5 0,-202.5 95,-202.5 95,-183.5 0,-183.5"/>
<text text-anchor="middle" x="47.5" y="-190.5" font-family="Helvetica,sans-Serif" font-size="10.00">base_blob&lt; 256 &gt;</text>
</a>
</g>
</g>
<!-- Node6&#45;&gt;Node5 -->
<g id="edge3" class="edge"><title>Node6&#45;&gt;Node5</title>
<path fill="none" stroke="midnightblue" d="M47.5,-173.117C47.5,-163.817 47.5,-153.056 47.5,-145.715"/>
<polygon fill="midnightblue" stroke="midnightblue" points="44.0001,-173.406 47.5,-183.406 51.0001,-173.406 44.0001,-173.406"/>
</g>
</g>
</svg>
