<?xml version="1.0" encoding="UTF-8" standalone="no"?>
<!DOCTYPE svg PUBLIC "-//W3C//DTD SVG 1.1//EN"
 "http://www.w3.org/Graphics/SVG/1.1/DTD/svg11.dtd">
<!-- Generated by graphviz version 2.38.0 (20140413.2041)
 -->
<!-- Title: CheckProofOfWork Pages: 1 -->
<!--zoomable 329 -->
<svg id="main" version="1.1" xmlns="http://www.w3.org/2000/svg" xmlns:xlink="http://www.w3.org/1999/xlink" xml:space="preserve" onload="init(evt)">
<style type="text/css"><![CDATA[
.edge:hover path { stroke: red; }
.edge:hover polygon { stroke: red; fill: red; }
]]></style>
<script type="text/javascript"><![CDATA[
var edges = document.getElementsByTagName('g');
if (edges && edges.length) {
  for (var i=0;i<edges.length;i++) {
    if (edges[i].id.substr(0,4)=='edge') {
      edges[i].setAttribute('class','edge');
    }
  }
}
]]></script>
        <defs>
                <circle id="rim" cx="0" cy="0" r="7"/>
                <circle id="rim2" cx="0" cy="0" r="3.5"/>
                <g id="zoomPlus">
                        <use xlink:href="#rim" fill="#404040">
                                <set attributeName="fill" to="#808080" begin="zoomplus.mouseover" end="zoomplus.mouseout"/>
                        </use>
                        <path d="M-4,0h8M0,-4v8" fill="none" stroke="white" stroke-width="1.5" pointer-events="none"/>
                </g>
                <g id="zoomMin">
                        <use xlink:href="#rim" fill="#404040">
                                <set attributeName="fill" to="#808080" begin="zoomminus.mouseover" end="zoomminus.mouseout"/>
                        </use>
                        <path d="M-4,0h8" fill="none" stroke="white" stroke-width="1.5" pointer-events="none"/>
                </g>
                <g id="dirArrow">
                        <path fill="none" stroke="white" stroke-width="1.5" d="M0,-3.0v7 M-2.5,-0.5L0,-3.0L2.5,-0.5"/>
                </g>
               <g id="resetDef">
                       <use xlink:href="#rim2" fill="#404040">
                               <set attributeName="fill" to="#808080" begin="reset.mouseover" end="reset.mouseout"/>
                       </use>
               </g>
        </defs>

<script type="text/javascript">
var viewWidth = 855;
var viewHeight = 329;
var sectionId = 'dynsection-3';
</script>
<script xlink:href="../../svgpan.js"/>
<svg id="graph" class="graph">
<g id="viewport">
<title>CheckProofOfWork</title>
<polygon fill="white" stroke="none" points="-4,4 -4,-325 851,-325 851,4 -4,4"/>
<!-- Node43 -->
<g id="node1" class="node"><title>Node43</title>
<polygon fill="#bfbfbf" stroke="black" points="0,-61.5 0,-80.5 102,-80.5 102,-61.5 0,-61.5"/>
<text text-anchor="middle" x="51" y="-68.5" font-family="Helvetica,sans-Serif" font-size="10.00">CheckProofOfWork</text>
</g>
<!-- Node44 -->
<g id="node2" class="node"><title>Node44</title>
<g id="a_node2"><a xlink:href="../../d8/d3c/util_8h.html#af8985880cf4ef26df0a5aa2ffcb76662" target="_top" xlink:title="error">
<polygon fill="white" stroke="black" points="186.5,-99.5 186.5,-118.5 222.5,-118.5 222.5,-99.5 186.5,-99.5"/>
<text text-anchor="middle" x="204.5" y="-106.5" font-family="Helvetica,sans-Serif" font-size="10.00">error</text>
</a>
</g>
</g>
<!-- Node43&#45;&gt;Node44 -->
<g id="edge1" class="edge"><title>Node43&#45;&gt;Node44</title>
<path fill="none" stroke="midnightblue" d="M90.2298,-80.589C117.108,-87.3307 152.417,-96.1872 176.42,-102.208"/>
<polygon fill="midnightblue" stroke="midnightblue" points="175.717,-105.64 186.269,-104.678 177.421,-98.8501 175.717,-105.64"/>
</g>
<!-- Node61 -->
<g id="node19" class="node"><title>Node61</title>
<g id="a_node19"><a xlink:href="../../d9/de4/classarith__uint256.html#a458133c9f123519646b07e6143f2164f" target="_top" xlink:title="The &quot;compact&quot; format is a representation of a whole number N using an unsigned 32bit number similar t...">
<polygon fill="white" stroke="black" points="138,-61.5 138,-80.5 271,-80.5 271,-61.5 138,-61.5"/>
<text text-anchor="middle" x="204.5" y="-68.5" font-family="Helvetica,sans-Serif" font-size="10.00">arith_uint256::SetCompact</text>
</a>
</g>
</g>
<!-- Node43&#45;&gt;Node61 -->
<g id="edge18" class="edge"><title>Node43&#45;&gt;Node61</title>
<path fill="none" stroke="midnightblue" d="M102.027,-71C110.266,-71 118.966,-71 127.667,-71"/>
<polygon fill="midnightblue" stroke="midnightblue" points="127.855,-74.5001 137.854,-71 127.854,-67.5001 127.855,-74.5001"/>
</g>
<!-- Node62 -->
<g id="node20" class="node"><title>Node62</title>
<g id="a_node20"><a xlink:href="../../d4/db0/arith__uint256_8cpp.html#a6a6e0e2e41ba7e31c4a741eb2426a516" target="_top" xlink:title="UintToArith256">
<polygon fill="white" stroke="black" points="163.5,-23.5 163.5,-42.5 245.5,-42.5 245.5,-23.5 163.5,-23.5"/>
<text text-anchor="middle" x="204.5" y="-30.5" font-family="Helvetica,sans-Serif" font-size="10.00">UintToArith256</text>
</a>
</g>
</g>
<!-- Node43&#45;&gt;Node62 -->
<g id="edge19" class="edge"><title>Node43&#45;&gt;Node62</title>
<path fill="none" stroke="midnightblue" d="M90.2298,-61.411C110.132,-56.4191 134.657,-50.2676 155.791,-44.9666"/>
<polygon fill="midnightblue" stroke="midnightblue" points="156.697,-48.3479 165.545,-42.5201 154.994,-41.5582 156.697,-48.3479"/>
</g>
<!-- Node45 -->
<g id="node3" class="node"><title>Node45</title>
<g id="a_node3"><a xlink:href="../../d8/d3c/util_8h.html#afd4c3002b2797c0560adddb6af3ca1da" target="_top" xlink:title="Send a string to the log output. ">
<polygon fill="white" stroke="black" points="319.5,-168.5 319.5,-187.5 384.5,-187.5 384.5,-168.5 319.5,-168.5"/>
<text text-anchor="middle" x="352" y="-175.5" font-family="Helvetica,sans-Serif" font-size="10.00">LogPrintStr</text>
</a>
</g>
</g>
<!-- Node44&#45;&gt;Node45 -->
<g id="edge2" class="edge"><title>Node44&#45;&gt;Node45</title>
<path fill="none" stroke="midnightblue" d="M222.762,-117.186C247.079,-128.718 291.76,-149.907 321.428,-163.976"/>
<polygon fill="midnightblue" stroke="midnightblue" points="319.953,-167.15 330.488,-168.273 322.953,-160.826 319.953,-167.15"/>
</g>
<!-- Node58 -->
<g id="node16" class="node"><title>Node58</title>
<g id="a_node16"><a xlink:href="../../d8/d1a/namespacetinyformat_1_1detail.html#aa4b0590b3e34562c2d252a2086cec7ba" target="_top" xlink:title="tinyformat::detail\l::format">
<polygon fill="white" stroke="black" points="307.5,-79 307.5,-109 396.5,-109 396.5,-79 307.5,-79"/>
<text text-anchor="start" x="315.5" y="-97" font-family="Helvetica,sans-Serif" font-size="10.00">tinyformat::detail</text>
<text text-anchor="middle" x="352" y="-86" font-family="Helvetica,sans-Serif" font-size="10.00">::format</text>
</a>
</g>
</g>
<!-- Node44&#45;&gt;Node58 -->
<g id="edge15" class="edge"><title>Node44&#45;&gt;Node58</title>
<path fill="none" stroke="midnightblue" d="M222.762,-107.22C241.037,-105.336 270.814,-102.267 297.076,-99.5592"/>
<polygon fill="midnightblue" stroke="midnightblue" points="297.725,-103.011 307.313,-98.5038 297.007,-96.0479 297.725,-103.011"/>
</g>
<!-- Node46 -->
<g id="node4" class="node"><title>Node46</title>
<g id="a_node4"><a xlink:href="../../df/d2d/util_8cpp.html#af0c31e37a5891e021f9b339696398a28" target="_top" xlink:title="fStartedNewLine is a state variable held by the calling context that will suppress printing of the th...">
<polygon fill="white" stroke="black" points="439,-282.5 439,-301.5 540,-301.5 540,-282.5 439,-282.5"/>
<text text-anchor="middle" x="489.5" y="-289.5" font-family="Helvetica,sans-Serif" font-size="10.00">LogThreadNameStr</text>
</a>
</g>
</g>
<!-- Node45&#45;&gt;Node46 -->
<g id="edge3" class="edge"><title>Node45&#45;&gt;Node46</title>
<path fill="none" stroke="midnightblue" d="M362.156,-187.637C376.574,-202.591 405.742,-231.954 433,-254 442.871,-261.984 454.368,-270.04 464.329,-276.667"/>
<polygon fill="midnightblue" stroke="midnightblue" points="462.67,-279.764 472.955,-282.308 466.501,-273.906 462.67,-279.764"/>
</g>
<!-- Node48 -->
<g id="node6" class="node"><title>Node48</title>
<g id="a_node6"><a xlink:href="../../df/d2d/util_8cpp.html#a8e80ae045580407e9f2028dc5f7b954c" target="_top" xlink:title="fStartedNewLine is a state variable held by the calling context that will suppress printing of the ti...">
<polygon fill="white" stroke="black" points="442.5,-225.5 442.5,-244.5 536.5,-244.5 536.5,-225.5 442.5,-225.5"/>
<text text-anchor="middle" x="489.5" y="-232.5" font-family="Helvetica,sans-Serif" font-size="10.00">LogTimestampStr</text>
</a>
</g>
</g>
<!-- Node45&#45;&gt;Node48 -->
<g id="edge5" class="edge"><title>Node45&#45;&gt;Node48</title>
<path fill="none" stroke="midnightblue" d="M371.482,-187.515C387.527,-195.597 411.496,-207.245 433,-216 438.129,-218.088 443.583,-220.146 448.993,-222.093"/>
<polygon fill="midnightblue" stroke="midnightblue" points="448.007,-225.457 458.602,-225.46 450.322,-218.85 448.007,-225.457"/>
</g>
<!-- Node52 -->
<g id="node10" class="node"><title>Node52</title>
<g id="a_node10"><a xlink:href="../../df/d2d/util_8cpp.html#a751ff5f21d880737811136b5e0bcea12" target="_top" xlink:title="DebugPrintInit">
<polygon fill="white" stroke="black" points="450,-187.5 450,-206.5 529,-206.5 529,-187.5 450,-187.5"/>
<text text-anchor="middle" x="489.5" y="-194.5" font-family="Helvetica,sans-Serif" font-size="10.00">DebugPrintInit</text>
</a>
</g>
</g>
<!-- Node45&#45;&gt;Node52 -->
<g id="edge9" class="edge"><title>Node45&#45;&gt;Node52</title>
<path fill="none" stroke="midnightblue" d="M384.769,-182.455C401.137,-184.75 421.452,-187.598 439.754,-190.165"/>
<polygon fill="midnightblue" stroke="midnightblue" points="439.288,-193.634 449.677,-191.556 440.26,-186.701 439.288,-193.634"/>
</g>
<!-- Node53 -->
<g id="node11" class="node"><title>Node53</title>
<g id="a_node11"><a xlink:href="../../df/d2d/util_8cpp.html#ab83866a054745d4b30a3948a1b44beba" target="_top" xlink:title="GetDataDir">
<polygon fill="white" stroke="black" points="456.5,-149.5 456.5,-168.5 522.5,-168.5 522.5,-149.5 456.5,-149.5"/>
<text text-anchor="middle" x="489.5" y="-156.5" font-family="Helvetica,sans-Serif" font-size="10.00">GetDataDir</text>
</a>
</g>
</g>
<!-- Node45&#45;&gt;Node53 -->
<g id="edge10" class="edge"><title>Node45&#45;&gt;Node53</title>
<path fill="none" stroke="midnightblue" d="M384.769,-173.545C403.153,-170.967 426.518,-167.691 446.416,-164.901"/>
<polygon fill="midnightblue" stroke="midnightblue" points="447.044,-168.347 456.461,-163.493 446.072,-161.415 447.044,-168.347"/>
</g>
<!-- Node57 -->
<g id="node15" class="node"><title>Node57</title>
<g id="a_node15"><a xlink:href="../../df/d2d/util_8cpp.html#a7c125ce70fa6b09e1de0c4a404fc2b6f" target="_top" xlink:title="FileWriteStr">
<polygon fill="white" stroke="black" points="455.5,-111.5 455.5,-130.5 523.5,-130.5 523.5,-111.5 455.5,-111.5"/>
<text text-anchor="middle" x="489.5" y="-118.5" font-family="Helvetica,sans-Serif" font-size="10.00">FileWriteStr</text>
</a>
</g>
</g>
<!-- Node45&#45;&gt;Node57 -->
<g id="edge14" class="edge"><title>Node45&#45;&gt;Node57</title>
<path fill="none" stroke="midnightblue" d="M371.482,-168.485C387.527,-160.403 411.496,-148.755 433,-140 438.129,-137.912 443.583,-135.854 448.993,-133.907"/>
<polygon fill="midnightblue" stroke="midnightblue" points="450.322,-137.15 458.602,-130.54 448.007,-130.543 450.322,-137.15"/>
</g>
<!-- Node47 -->
<g id="node5" class="node"><title>Node47</title>
<g id="a_node5"><a xlink:href="../../df/d2d/util_8cpp.html#a1db3aa900bfa259ae1fe04068f2accfc" target="_top" xlink:title="GetThreadName">
<polygon fill="white" stroke="black" points="610.5,-301.5 610.5,-320.5 699.5,-320.5 699.5,-301.5 610.5,-301.5"/>
<text text-anchor="middle" x="655" y="-308.5" font-family="Helvetica,sans-Serif" font-size="10.00">GetThreadName</text>
</a>
</g>
</g>
<!-- Node46&#45;&gt;Node47 -->
<g id="edge4" class="edge"><title>Node46&#45;&gt;Node47</title>
<path fill="none" stroke="midnightblue" d="M540.444,-297.804C559.39,-300.006 581.036,-302.521 600.312,-304.761"/>
<polygon fill="midnightblue" stroke="midnightblue" points="600.11,-308.261 610.447,-305.939 600.918,-301.308 600.11,-308.261"/>
</g>
<!-- Node49 -->
<g id="node7" class="node"><title>Node49</title>
<g id="a_node7"><a xlink:href="../../d6/d3c/utiltime_8cpp.html#a474bed4c01c8a1d18330dceccf865e1e" target="_top" xlink:title="Return a time useful for the debug log. ">
<polygon fill="white" stroke="black" points="605.5,-263.5 605.5,-282.5 704.5,-282.5 704.5,-263.5 605.5,-263.5"/>
<text text-anchor="middle" x="655" y="-270.5" font-family="Helvetica,sans-Serif" font-size="10.00">GetLogTimeMicros</text>
</a>
</g>
</g>
<!-- Node48&#45;&gt;Node49 -->
<g id="edge6" class="edge"><title>Node48&#45;&gt;Node49</title>
<path fill="none" stroke="midnightblue" d="M531.758,-244.589C553.431,-249.626 580.183,-255.844 603.13,-261.177"/>
<polygon fill="midnightblue" stroke="midnightblue" points="602.506,-264.625 613.039,-263.48 604.091,-257.807 602.506,-264.625"/>
</g>
<!-- Node51 -->
<g id="node9" class="node"><title>Node51</title>
<g id="a_node9"><a xlink:href="../../d6/d3c/utiltime_8cpp.html#a749bc6776c8ec72d7c5e4dea56aee415" target="_top" xlink:title="DateTimeStrFormat">
<polygon fill="white" stroke="black" points="603.5,-225.5 603.5,-244.5 706.5,-244.5 706.5,-225.5 603.5,-225.5"/>
<text text-anchor="middle" x="655" y="-232.5" font-family="Helvetica,sans-Serif" font-size="10.00">DateTimeStrFormat</text>
</a>
</g>
</g>
<!-- Node48&#45;&gt;Node51 -->
<g id="edge8" class="edge"><title>Node48&#45;&gt;Node51</title>
<path fill="none" stroke="midnightblue" d="M536.915,-235C554.44,-235 574.647,-235 593.289,-235"/>
<polygon fill="midnightblue" stroke="midnightblue" points="593.457,-238.5 603.457,-235 593.457,-231.5 593.457,-238.5"/>
</g>
<!-- Node50 -->
<g id="node8" class="node"><title>Node50</title>
<g id="a_node8"><a xlink:href="../../d6/d3c/utiltime_8cpp.html#a0c5a06b50cd805b1923552114494c029" target="_top" xlink:title="GetTimeMicros">
<polygon fill="white" stroke="black" points="764,-263.5 764,-282.5 847,-282.5 847,-263.5 764,-263.5"/>
<text text-anchor="middle" x="805.5" y="-270.5" font-family="Helvetica,sans-Serif" font-size="10.00">GetTimeMicros</text>
</a>
</g>
</g>
<!-- Node49&#45;&gt;Node50 -->
<g id="edge7" class="edge"><title>Node49&#45;&gt;Node50</title>
<path fill="none" stroke="midnightblue" d="M704.624,-273C720.306,-273 737.726,-273 753.57,-273"/>
<polygon fill="midnightblue" stroke="midnightblue" points="753.719,-276.5 763.719,-273 753.719,-269.5 753.719,-276.5"/>
</g>
<!-- Node54 -->
<g id="node12" class="node"><title>Node54</title>
<g id="a_node12"><a xlink:href="../../df/d2d/util_8cpp.html#ab272995de020a3bcbf743be630e485c6" target="_top" xlink:title="GetDefaultDataDir">
<polygon fill="white" stroke="black" points="606,-187.5 606,-206.5 704,-206.5 704,-187.5 606,-187.5"/>
<text text-anchor="middle" x="655" y="-194.5" font-family="Helvetica,sans-Serif" font-size="10.00">GetDefaultDataDir</text>
</a>
</g>
</g>
<!-- Node53&#45;&gt;Node54 -->
<g id="edge11" class="edge"><title>Node53&#45;&gt;Node54</title>
<path fill="none" stroke="midnightblue" d="M522.802,-166.508C545.743,-171.839 577.006,-179.105 603.26,-185.207"/>
<polygon fill="midnightblue" stroke="midnightblue" points="602.516,-188.627 613.049,-187.482 604.101,-181.809 602.516,-188.627"/>
</g>
<!-- Node55 -->
<g id="node13" class="node"><title>Node55</title>
<g id="a_node13"><a xlink:href="../../d9/d44/chainparamsbase_8cpp.html#a06ef5bfd0efb53d13bbf4276726e84ab" target="_top" xlink:title="Return the currently selected parameters. ">
<polygon fill="white" stroke="black" points="618.5,-149.5 618.5,-168.5 691.5,-168.5 691.5,-149.5 618.5,-149.5"/>
<text text-anchor="middle" x="655" y="-156.5" font-family="Helvetica,sans-Serif" font-size="10.00">BaseParams</text>
</a>
</g>
</g>
<!-- Node53&#45;&gt;Node55 -->
<g id="edge12" class="edge"><title>Node53&#45;&gt;Node55</title>
<path fill="none" stroke="midnightblue" d="M522.802,-159C547.229,-159 581.09,-159 608.293,-159"/>
<polygon fill="midnightblue" stroke="midnightblue" points="608.359,-162.5 618.359,-159 608.359,-155.5 608.359,-162.5"/>
</g>
<!-- Node56 -->
<g id="node14" class="node"><title>Node56</title>
<g id="a_node14"><a xlink:href="../../d2/dfc/class_c_base_chain_params.html#a4b142e94ae27f860522dd5efef41fb67" target="_top" xlink:title="CBaseChainParams::DataDir">
<polygon fill="white" stroke="black" points="582,-111.5 582,-130.5 728,-130.5 728,-111.5 582,-111.5"/>
<text text-anchor="middle" x="655" y="-118.5" font-family="Helvetica,sans-Serif" font-size="10.00">CBaseChainParams::DataDir</text>
</a>
</g>
</g>
<!-- Node53&#45;&gt;Node56 -->
<g id="edge13" class="edge"><title>Node53&#45;&gt;Node56</title>
<path fill="none" stroke="midnightblue" d="M522.802,-151.492C545.743,-146.161 577.006,-138.895 603.26,-132.793"/>
<polygon fill="midnightblue" stroke="midnightblue" points="604.101,-136.191 613.049,-130.518 602.516,-129.373 604.101,-136.191"/>
</g>
<!-- Node59 -->
<g id="node17" class="node"><title>Node59</title>
<g id="a_node17"><a xlink:href="../../d8/d42/classtinyformat_1_1detail_1_1_format_iterator.html#a46377a804f72dbad1e508d2fbaa18ce9" target="_top" xlink:title="tinyformat::detail\l::FormatIterator::finish">
<polygon fill="white" stroke="black" points="433,-59 433,-89 546,-89 546,-59 433,-59"/>
<text text-anchor="start" x="441" y="-77" font-family="Helvetica,sans-Serif" font-size="10.00">tinyformat::detail</text>
<text text-anchor="middle" x="489.5" y="-66" font-family="Helvetica,sans-Serif" font-size="10.00">::FormatIterator::finish</text>
</a>
</g>
</g>
<!-- Node58&#45;&gt;Node59 -->
<g id="edge16" class="edge"><title>Node58&#45;&gt;Node59</title>
<path fill="none" stroke="midnightblue" d="M396.619,-87.5618C404.938,-86.3339 413.816,-85.0235 422.65,-83.7195"/>
<polygon fill="midnightblue" stroke="midnightblue" points="423.192,-87.1775 432.574,-82.2547 422.17,-80.2525 423.192,-87.1775"/>
</g>
<!-- Node60 -->
<g id="node18" class="node"><title>Node60</title>
<g id="a_node18"><a xlink:href="../../d8/d42/classtinyformat_1_1detail_1_1_format_iterator.html#af3bbb8259ac0593ec2268ef5863311d5" target="_top" xlink:title="tinyformat::detail\l::FormatIterator::printFormat\lStringLiteral">
<polygon fill="white" stroke="black" points="585,-51.5 585,-92.5 725,-92.5 725,-51.5 585,-51.5"/>
<text text-anchor="start" x="593" y="-80.5" font-family="Helvetica,sans-Serif" font-size="10.00">tinyformat::detail</text>
<text text-anchor="start" x="593" y="-69.5" font-family="Helvetica,sans-Serif" font-size="10.00">::FormatIterator::printFormat</text>
<text text-anchor="middle" x="655" y="-58.5" font-family="Helvetica,sans-Serif" font-size="10.00">StringLiteral</text>
</a>
</g>
</g>
<!-- Node59&#45;&gt;Node60 -->
<g id="edge17" class="edge"><title>Node59&#45;&gt;Node60</title>
<path fill="none" stroke="midnightblue" d="M546.31,-73.3173C555.51,-73.2048 565.2,-73.0862 574.841,-72.9683"/>
<polygon fill="midnightblue" stroke="midnightblue" points="574.892,-76.468 584.848,-72.8459 574.806,-69.4686 574.892,-76.468"/>
</g>
<!-- Node63 -->
<g id="node21" class="node"><title>Node63</title>
<g id="a_node21"><a xlink:href="../../db/d50/classbase__blob.html#aeee68e00ceeacf49086e98b661e017ff" target="_top" xlink:title="base_blob::begin">
<polygon fill="white" stroke="black" points="307,-38.5 307,-57.5 397,-57.5 397,-38.5 307,-38.5"/>
<text text-anchor="middle" x="352" y="-45.5" font-family="Helvetica,sans-Serif" font-size="10.00">base_blob::begin</text>
</a>
</g>
</g>
<!-- Node62&#45;&gt;Node63 -->
<g id="edge20" class="edge"><title>Node62&#45;&gt;Node63</title>
<path fill="none" stroke="midnightblue" d="M245.644,-37.1385C261.386,-38.7615 279.698,-40.6492 296.596,-42.3913"/>
<polygon fill="midnightblue" stroke="midnightblue" points="296.593,-45.9095 306.899,-43.4535 297.311,-38.9464 296.593,-45.9095"/>
</g>
<!-- Node64 -->
<g id="node22" class="node"><title>Node64</title>
<g id="a_node22"><a xlink:href="../../dc/d54/common_8h.html#a95b035f2729461d80d2f09d776ea07d2" target="_top" xlink:title="ReadLE32">
<polygon fill="white" stroke="black" points="321,-0.5 321,-19.5 383,-19.5 383,-0.5 321,-0.5"/>
<text text-anchor="middle" x="352" y="-7.5" font-family="Helvetica,sans-Serif" font-size="10.00">ReadLE32</text>
</a>
</g>
</g>
<!-- Node62&#45;&gt;Node64 -->
<g id="edge21" class="edge"><title>Node62&#45;&gt;Node64</title>
<path fill="none" stroke="midnightblue" d="M245.644,-26.6543C265.936,-23.4466 290.496,-19.5643 310.796,-16.3552"/>
<polygon fill="midnightblue" stroke="midnightblue" points="311.349,-19.8114 320.68,-14.7929 310.256,-12.8973 311.349,-19.8114"/>
</g>
<!-- Node65 -->
<g id="node23" class="node"><title>Node65</title>
<g id="a_node23"><a xlink:href="../../d1/d84/endian_8h.html#a3b4e83868bbf53b2572b736fc146a319" target="_top" xlink:title="le32toh">
<polygon fill="white" stroke="black" points="465.5,-0.5 465.5,-19.5 513.5,-19.5 513.5,-0.5 465.5,-0.5"/>
<text text-anchor="middle" x="489.5" y="-7.5" font-family="Helvetica,sans-Serif" font-size="10.00">le32toh</text>
</a>
</g>
</g>
<!-- Node64&#45;&gt;Node65 -->
<g id="edge22" class="edge"><title>Node64&#45;&gt;Node65</title>
<path fill="none" stroke="midnightblue" d="M383.072,-10C404.379,-10 432.976,-10 455.011,-10"/>
<polygon fill="midnightblue" stroke="midnightblue" points="455.24,-13.5001 465.24,-10 455.24,-6.5001 455.24,-13.5001"/>
</g>
</g>
</svg>
        <g id="navigator" transform="translate(0 0)" fill="#404254">
                <rect fill="#f2f5e9" fill-opacity="0.5" stroke="#606060" stroke-width=".5" x="0" y="0" width="60" height="60"/>
                <use id="zoomplus" xlink:href="#zoomPlus" x="17" y="9" onmousedown="handleZoom(evt,'in')"/>
                <use id="zoomminus" xlink:href="#zoomMin" x="42" y="9" onmousedown="handleZoom(evt,'out')"/>
                <use id="reset" xlink:href="#resetDef" x="30" y="36" onmousedown="handleReset()"/>
                <g id="arrowUp" xlink:href="#dirArrow" transform="translate(30 24)" onmousedown="handlePan(0,-1)">
                  <use xlink:href="#rim" fill="#404040">
                        <set attributeName="fill" to="#808080" begin="arrowUp.mouseover" end="arrowUp.mouseout"/>
                  </use>
                  <path fill="none" stroke="white" stroke-width="1.5" d="M0,-3.0v7 M-2.5,-0.5L0,-3.0L2.5,-0.5"/>
                </g>
                <g id="arrowRight" xlink:href="#dirArrow" transform="rotate(90) translate(36 -43)" onmousedown="handlePan(1,0)">
                  <use xlink:href="#rim" fill="#404040">
                        <set attributeName="fill" to="#808080" begin="arrowRight.mouseover" end="arrowRight.mouseout"/>
                  </use>
                  <path fill="none" stroke="white" stroke-width="1.5" d="M0,-3.0v7 M-2.5,-0.5L0,-3.0L2.5,-0.5"/>
                </g>
                <g id="arrowDown" xlink:href="#dirArrow" transform="rotate(180) translate(-30 -48)" onmousedown="handlePan(0,1)">
                  <use xlink:href="#rim" fill="#404040">
                        <set attributeName="fill" to="#808080" begin="arrowDown.mouseover" end="arrowDown.mouseout"/>
                  </use>
                  <path fill="none" stroke="white" stroke-width="1.5" d="M0,-3.0v7 M-2.5,-0.5L0,-3.0L2.5,-0.5"/>
                </g>
                <g id="arrowLeft" xlink:href="#dirArrow" transform="rotate(270) translate(-36 17)" onmousedown="handlePan(-1,0)">
                  <use xlink:href="#rim" fill="#404040">
                        <set attributeName="fill" to="#808080" begin="arrowLeft.mouseover" end="arrowLeft.mouseout"/>
                  </use>
                  <path fill="none" stroke="white" stroke-width="1.5" d="M0,-3.0v7 M-2.5,-0.5L0,-3.0L2.5,-0.5"/>
                </g>
        </g>
        <svg viewBox="0 0 15 15" width="100%" height="30px" preserveAspectRatio="xMaxYMin meet">
         <g id="arrow_out" transform="scale(0.3 0.3)">
          <a xlink:href="pow_8cpp_a4e1129d7ab72643eb7e830f7f72953d7_cgraph_org.svg" target="_base">
           <rect id="button" ry="5" rx="5" y="6" x="6" height="38" width="38"
                fill="#f2f5e9" fill-opacity="0.5" stroke="#606060" stroke-width="1.0"/>
           <path id="arrow"
             d="M 11.500037,31.436501 C 11.940474,20.09759 22.043105,11.32322 32.158766,21.979434 L 37.068811,17.246167 C 37.068811,17.246167 37.088388,32 37.088388,32 L 22.160133,31.978069 C 22.160133,31.978069 26.997745,27.140456 26.997745,27.140456 C 18.528582,18.264221 13.291696,25.230495 11.500037,31.436501 z"
             style="fill:#404040;"/>
          </a>
         </g>
        </svg>
</svg>
