<?xml version="1.0" encoding="UTF-8" standalone="no"?>
<!DOCTYPE svg PUBLIC "-//W3C//DTD SVG 1.1//EN"
 "http://www.w3.org/Graphics/SVG/1.1/DTD/svg11.dtd">
<!-- Generated by graphviz version 2.38.0 (20140413.2041)
 -->
<!-- Title: sph_shavite512_close Pages: 1 -->
<svg width="598pt" height="104pt"
 viewBox="0.00 0.00 598.00 104.00" xmlns="http://www.w3.org/2000/svg" xmlns:xlink="http://www.w3.org/1999/xlink">
<g id="graph0" class="graph" transform="scale(1 1) rotate(0) translate(4 100)">
<title>sph_shavite512_close</title>
<polygon fill="white" stroke="none" points="-4,4 -4,-100 594,-100 594,4 -4,4"/>
<!-- Node804 -->
<g id="node1" class="node"><title>Node804</title>
<polygon fill="#bfbfbf" stroke="black" points="0,-19.5 0,-38.5 113,-38.5 113,-19.5 0,-19.5"/>
<text text-anchor="middle" x="56.5" y="-26.5" font-family="Helvetica,sans-Serif" font-size="10.00">sph_shavite512_close</text>
</g>
<!-- Node805 -->
<g id="node2" class="node"><title>Node805</title>
<g id="a_node2"><a xlink:href="../../db/db4/shavite_8c.html#af7e0a6886a8ae2d8aa9c3479474dee59" target="_top" xlink:title="shavite_big_close">
<polygon fill="white" stroke="black" points="149,-38.5 149,-57.5 244,-57.5 244,-38.5 149,-38.5"/>
<text text-anchor="middle" x="196.5" y="-45.5" font-family="Helvetica,sans-Serif" font-size="10.00">shavite_big_close</text>
</a>
</g>
</g>
<!-- Node804&#45;&gt;Node805 -->
<g id="edge1" class="edge"><title>Node804&#45;&gt;Node805</title>
<path fill="none" stroke="midnightblue" d="M113.232,-36.6733C121.635,-37.8302 130.31,-39.0246 138.734,-40.1845"/>
<polygon fill="midnightblue" stroke="midnightblue" points="138.466,-43.6805 148.85,-41.5772 139.421,-36.7459 138.466,-43.6805"/>
</g>
<!-- Node810 -->
<g id="node7" class="node"><title>Node810</title>
<g id="a_node7"><a xlink:href="../../db/db4/shavite_8c.html#a336e21e96c38601b806c232c939d179f" target="_top" xlink:title="shavite_big_init">
<polygon fill="white" stroke="black" points="154.5,-0.5 154.5,-19.5 238.5,-19.5 238.5,-0.5 154.5,-0.5"/>
<text text-anchor="middle" x="196.5" y="-7.5" font-family="Helvetica,sans-Serif" font-size="10.00">shavite_big_init</text>
</a>
</g>
</g>
<!-- Node804&#45;&gt;Node810 -->
<g id="edge7" class="edge"><title>Node804&#45;&gt;Node810</title>
<path fill="none" stroke="midnightblue" d="M113.232,-21.3267C123.555,-19.9054 134.29,-18.4275 144.465,-17.0266"/>
<polygon fill="midnightblue" stroke="midnightblue" points="144.987,-20.4877 154.417,-15.6564 144.033,-13.5532 144.987,-20.4877"/>
</g>
<!-- Node806 -->
<g id="node3" class="node"><title>Node806</title>
<g id="a_node3"><a xlink:href="../../db/db4/shavite_8c.html#a05f54bc2f9a0ab4b8b092b55eb0e6295" target="_top" xlink:title="c512">
<polygon fill="white" stroke="black" points="288,-76.5 288,-95.5 326,-95.5 326,-76.5 288,-76.5"/>
<text text-anchor="middle" x="307" y="-83.5" font-family="Helvetica,sans-Serif" font-size="10.00">c512</text>
</a>
</g>
</g>
<!-- Node805&#45;&gt;Node806 -->
<g id="edge2" class="edge"><title>Node805&#45;&gt;Node806</title>
<path fill="none" stroke="midnightblue" d="M224.879,-57.589C241.203,-63.3062 261.87,-70.5444 278.258,-76.284"/>
<polygon fill="midnightblue" stroke="midnightblue" points="277.237,-79.6347 287.832,-79.637 279.551,-73.0282 277.237,-79.6347"/>
</g>
<!-- Node809 -->
<g id="node6" class="node"><title>Node809</title>
<g id="a_node6"><a xlink:href="../../d9/d00/sph__types_8h.html#ac2371b8cc05f7846094fb25d2ef48364" target="_top" xlink:title="Encode a 32&#45;bit value into the provided buffer (little endian convention). ">
<polygon fill="white" stroke="black" points="388,-38.5 388,-57.5 459,-57.5 459,-38.5 388,-38.5"/>
<text text-anchor="middle" x="423.5" y="-45.5" font-family="Helvetica,sans-Serif" font-size="10.00">sph_enc32le</text>
</a>
</g>
</g>
<!-- Node805&#45;&gt;Node809 -->
<g id="edge5" class="edge"><title>Node805&#45;&gt;Node809</title>
<path fill="none" stroke="midnightblue" d="M244.12,-48C283.182,-48 338.605,-48 377.272,-48"/>
<polygon fill="midnightblue" stroke="midnightblue" points="377.706,-51.5001 387.706,-48 377.706,-44.5001 377.706,-51.5001"/>
</g>
<!-- Node807 -->
<g id="node4" class="node"><title>Node807</title>
<g id="a_node4"><a xlink:href="../../d9/d00/sph__types_8h.html#aa552d4f0546f0147dc7aa114dfdc534f" target="_top" xlink:title="Decode a 32&#45;bit value from the provided buffer (little endian convention). ">
<polygon fill="white" stroke="black" points="370,-76.5 370,-95.5 477,-95.5 477,-76.5 370,-76.5"/>
<text text-anchor="middle" x="423.5" y="-83.5" font-family="Helvetica,sans-Serif" font-size="10.00">sph_dec32le_aligned</text>
</a>
</g>
</g>
<!-- Node806&#45;&gt;Node807 -->
<g id="edge3" class="edge"><title>Node806&#45;&gt;Node807</title>
<path fill="none" stroke="midnightblue" d="M326.143,-86C335.405,-86 347.282,-86 359.512,-86"/>
<polygon fill="midnightblue" stroke="midnightblue" points="359.819,-89.5001 369.819,-86 359.819,-82.5001 359.819,-89.5001"/>
</g>
<!-- Node808 -->
<g id="node5" class="node"><title>Node808</title>
<g id="a_node5"><a xlink:href="../../d9/d00/sph__types_8h.html#aa1be76f04a226cd4e9bc3ac49b65b49b" target="_top" xlink:title="sph_bswap32">
<polygon fill="white" stroke="black" points="513,-57.5 513,-76.5 590,-76.5 590,-57.5 513,-57.5"/>
<text text-anchor="middle" x="551.5" y="-64.5" font-family="Helvetica,sans-Serif" font-size="10.00">sph_bswap32</text>
</a>
</g>
</g>
<!-- Node807&#45;&gt;Node808 -->
<g id="edge4" class="edge"><title>Node807&#45;&gt;Node808</title>
<path fill="none" stroke="midnightblue" d="M477.205,-78.0524C485.739,-76.7655 494.532,-75.4396 502.934,-74.1726"/>
<polygon fill="midnightblue" stroke="midnightblue" points="503.58,-77.6149 512.946,-72.6628 502.536,-70.6931 503.58,-77.6149"/>
</g>
<!-- Node809&#45;&gt;Node808 -->
<g id="edge6" class="edge"><title>Node809&#45;&gt;Node808</title>
<path fill="none" stroke="midnightblue" d="M459.264,-53.2421C472.628,-55.2574 488.13,-57.5949 502.521,-59.765"/>
<polygon fill="midnightblue" stroke="midnightblue" points="502.347,-63.2783 512.757,-61.3086 503.391,-56.3566 502.347,-63.2783"/>
</g>
<!-- Node811 -->
<g id="node8" class="node"><title>Node811</title>
<g id="a_node8"><a xlink:href="../../d5/d9f/glibc__compat_8cpp.html#a0f46826ab0466591e136db24394923cf" target="_top" xlink:title="memcpy">
<polygon fill="white" stroke="black" points="280,-0.5 280,-19.5 334,-19.5 334,-0.5 280,-0.5"/>
<text text-anchor="middle" x="307" y="-7.5" font-family="Helvetica,sans-Serif" font-size="10.00">memcpy</text>
</a>
</g>
</g>
<!-- Node810&#45;&gt;Node811 -->
<g id="edge8" class="edge"><title>Node810&#45;&gt;Node811</title>
<path fill="none" stroke="midnightblue" d="M238.519,-10C248.763,-10 259.677,-10 269.676,-10"/>
<polygon fill="midnightblue" stroke="midnightblue" points="269.698,-13.5001 279.698,-10 269.698,-6.5001 269.698,-13.5001"/>
</g>
<!-- Node812 -->
<g id="node9" class="node"><title>Node812</title>
<g id="a_node9"><a xlink:href="../../d5/d9f/glibc__compat_8cpp.html#a9778d49e9029dd75bc53ecbbf9f5e9a1" target="_top" xlink:title="memmove">
<polygon fill="white" stroke="black" points="392.5,-0.5 392.5,-19.5 454.5,-19.5 454.5,-0.5 392.5,-0.5"/>
<text text-anchor="middle" x="423.5" y="-7.5" font-family="Helvetica,sans-Serif" font-size="10.00">memmove</text>
</a>
</g>
</g>
<!-- Node811&#45;&gt;Node812 -->
<g id="edge9" class="edge"><title>Node811&#45;&gt;Node812</title>
<path fill="none" stroke="midnightblue" d="M334.269,-10C348.459,-10 366.282,-10 382.189,-10"/>
<polygon fill="midnightblue" stroke="midnightblue" points="382.308,-13.5001 392.308,-10 382.308,-6.5001 382.308,-13.5001"/>
</g>
</g>
</svg>
