<?xml version="1.0" encoding="UTF-8" standalone="no"?>
<!DOCTYPE svg PUBLIC "-//W3C//DTD SVG 1.1//EN"
 "http://www.w3.org/Graphics/SVG/1.1/DTD/svg11.dtd">
<!-- Generated by graphviz version 2.38.0 (20140413.2041)
 -->
<!-- Title: c256 Pages: 1 -->
<svg width="345pt" height="242pt"
 viewBox="0.00 0.00 345.00 242.00" xmlns="http://www.w3.org/2000/svg" xmlns:xlink="http://www.w3.org/1999/xlink">
<g id="graph0" class="graph" transform="scale(1 1) rotate(0) translate(4 238)">
<title>c256</title>
<polygon fill="white" stroke="none" points="-4,4 -4,-238 341,-238 341,4 -4,4"/>
<!-- Node3 -->
<g id="node1" class="node"><title>Node3</title>
<polygon fill="#bfbfbf" stroke="black" points="0,-82.5 0,-101.5 38,-101.5 38,-82.5 0,-82.5"/>
<text text-anchor="middle" x="19" y="-89.5" font-family="Helvetica,sans-Serif" font-size="10.00">c256</text>
</g>
<!-- Node4 -->
<g id="node2" class="node"><title>Node4</title>
<g id="a_node2"><a xlink:href="../../db/db4/shavite_8c.html#a66688e31f3b619a5d9dece19ff41993b" target="_top" xlink:title="shavite_small_close">
<polygon fill="white" stroke="black" points="74,-126.5 74,-145.5 179,-145.5 179,-126.5 74,-126.5"/>
<text text-anchor="middle" x="126.5" y="-133.5" font-family="Helvetica,sans-Serif" font-size="10.00">shavite_small_close</text>
</a>
</g>
</g>
<!-- Node3&#45;&gt;Node4 -->
<g id="edge1" class="edge"><title>Node3&#45;&gt;Node4</title>
<path fill="none" stroke="midnightblue" d="M47.8254,-103.605C64.8885,-110.721 86.4697,-119.722 102.551,-126.429"/>
<polygon fill="midnightblue" stroke="midnightblue" points="48.9534,-100.283 38.3767,-99.6642 46.2589,-106.744 48.9534,-100.283"/>
</g>
<!-- Node9 -->
<g id="node7" class="node"><title>Node9</title>
<g id="a_node7"><a xlink:href="../../db/db4/shavite_8c.html#ab767b64f9c01983c062e1575a87b53f3" target="_top" xlink:title="shavite_small_core">
<polygon fill="white" stroke="black" points="76,-38.5 76,-57.5 177,-57.5 177,-38.5 76,-38.5"/>
<text text-anchor="middle" x="126.5" y="-45.5" font-family="Helvetica,sans-Serif" font-size="10.00">shavite_small_core</text>
</a>
</g>
</g>
<!-- Node3&#45;&gt;Node9 -->
<g id="edge6" class="edge"><title>Node3&#45;&gt;Node9</title>
<path fill="none" stroke="midnightblue" d="M47.8254,-80.3951C64.8885,-73.2787 86.4697,-64.278 102.551,-57.5711"/>
<polygon fill="midnightblue" stroke="midnightblue" points="46.2589,-77.2561 38.3767,-84.3358 48.9534,-83.7168 46.2589,-77.2561"/>
</g>
<!-- Node5 -->
<g id="node3" class="node"><title>Node5</title>
<g id="a_node3"><a xlink:href="../../d0/d2a/sph__shavite_8h.html#ae7e1a1304736b591b2e54c60e58c218d" target="_top" xlink:title="Terminate the current SHAvite&#45;224 computation and output the result into the provided buffer...">
<polygon fill="white" stroke="black" points="219.5,-214.5 219.5,-233.5 332.5,-233.5 332.5,-214.5 219.5,-214.5"/>
<text text-anchor="middle" x="276" y="-221.5" font-family="Helvetica,sans-Serif" font-size="10.00">sph_shavite224_close</text>
</a>
</g>
</g>
<!-- Node4&#45;&gt;Node5 -->
<g id="edge2" class="edge"><title>Node4&#45;&gt;Node5</title>
<path fill="none" stroke="midnightblue" d="M144.51,-152.518C161.241,-167.973 188.116,-190.757 215,-205 222.048,-208.734 229.956,-211.884 237.659,-214.478"/>
<polygon fill="midnightblue" stroke="midnightblue" points="146.834,-149.899 137.156,-145.589 142.034,-154.994 146.834,-149.899"/>
</g>
<!-- Node6 -->
<g id="node4" class="node"><title>Node6</title>
<g id="a_node4"><a xlink:href="../../d0/d2a/sph__shavite_8h.html#a2f7522a5fd82677d2784a157a1751f0e" target="_top" xlink:title="Add a few additional bits (0 to 7) to the current computation, then terminate it and output the resul...">
<polygon fill="white" stroke="black" points="215,-165 215,-195 337,-195 337,-165 215,-165"/>
<text text-anchor="start" x="223" y="-183" font-family="Helvetica,sans-Serif" font-size="10.00">sph_shavite224_addbits</text>
<text text-anchor="middle" x="276" y="-172" font-family="Helvetica,sans-Serif" font-size="10.00">_and_close</text>
</a>
</g>
</g>
<!-- Node4&#45;&gt;Node6 -->
<g id="edge3" class="edge"><title>Node4&#45;&gt;Node6</title>
<path fill="none" stroke="midnightblue" d="M169.253,-148.455C186.437,-153.581 206.496,-159.565 224.497,-164.935"/>
<polygon fill="midnightblue" stroke="midnightblue" points="170.089,-145.052 159.505,-145.547 168.088,-151.76 170.089,-145.052"/>
</g>
<!-- Node7 -->
<g id="node5" class="node"><title>Node7</title>
<g id="a_node5"><a xlink:href="../../d0/d2a/sph__shavite_8h.html#a470d7f6d8021476772ca0a7e41dbe683" target="_top" xlink:title="Terminate the current SHAvite&#45;256 computation and output the result into the provided buffer...">
<polygon fill="white" stroke="black" points="219.5,-126.5 219.5,-145.5 332.5,-145.5 332.5,-126.5 219.5,-126.5"/>
<text text-anchor="middle" x="276" y="-133.5" font-family="Helvetica,sans-Serif" font-size="10.00">sph_shavite256_close</text>
</a>
</g>
</g>
<!-- Node4&#45;&gt;Node7 -->
<g id="edge4" class="edge"><title>Node4&#45;&gt;Node7</title>
<path fill="none" stroke="midnightblue" d="M189.348,-136C199.327,-136 209.604,-136 219.424,-136"/>
<polygon fill="midnightblue" stroke="midnightblue" points="189.088,-132.5 179.088,-136 189.088,-139.5 189.088,-132.5"/>
</g>
<!-- Node8 -->
<g id="node6" class="node"><title>Node8</title>
<g id="a_node6"><a xlink:href="../../d0/d2a/sph__shavite_8h.html#a4364e6fccebec060d834b563e43594d3" target="_top" xlink:title="Add a few additional bits (0 to 7) to the current computation, then terminate it and output the resul...">
<polygon fill="white" stroke="black" points="215,-77 215,-107 337,-107 337,-77 215,-77"/>
<text text-anchor="start" x="223" y="-95" font-family="Helvetica,sans-Serif" font-size="10.00">sph_shavite256_addbits</text>
<text text-anchor="middle" x="276" y="-84" font-family="Helvetica,sans-Serif" font-size="10.00">_and_close</text>
</a>
</g>
</g>
<!-- Node4&#45;&gt;Node8 -->
<g id="edge5" class="edge"><title>Node4&#45;&gt;Node8</title>
<path fill="none" stroke="midnightblue" d="M169.253,-123.545C186.437,-118.419 206.496,-112.435 224.497,-107.065"/>
<polygon fill="midnightblue" stroke="midnightblue" points="168.088,-120.24 159.505,-126.453 170.089,-126.948 168.088,-120.24"/>
</g>
<!-- Node10 -->
<g id="node8" class="node"><title>Node10</title>
<g id="a_node8"><a xlink:href="../../d0/d2a/sph__shavite_8h.html#a51cde08306509091a06a7e7d7b4a47ee" target="_top" xlink:title="Process some data bytes. ">
<polygon fill="white" stroke="black" points="233.5,-38.5 233.5,-57.5 318.5,-57.5 318.5,-38.5 233.5,-38.5"/>
<text text-anchor="middle" x="276" y="-45.5" font-family="Helvetica,sans-Serif" font-size="10.00">sph_shavite224</text>
</a>
</g>
</g>
<!-- Node9&#45;&gt;Node10 -->
<g id="edge7" class="edge"><title>Node9&#45;&gt;Node10</title>
<path fill="none" stroke="midnightblue" d="M187.046,-48C202.531,-48 218.884,-48 233.233,-48"/>
<polygon fill="midnightblue" stroke="midnightblue" points="187.026,-44.5001 177.026,-48 187.026,-51.5001 187.026,-44.5001"/>
</g>
<!-- Node11 -->
<g id="node9" class="node"><title>Node11</title>
<g id="a_node9"><a xlink:href="../../d0/d2a/sph__shavite_8h.html#ae904e5277a0c65894a5c38b2194b25ac" target="_top" xlink:title="Process some data bytes. ">
<polygon fill="white" stroke="black" points="233.5,-0.5 233.5,-19.5 318.5,-19.5 318.5,-0.5 233.5,-0.5"/>
<text text-anchor="middle" x="276" y="-7.5" font-family="Helvetica,sans-Serif" font-size="10.00">sph_shavite256</text>
</a>
</g>
</g>
<!-- Node9&#45;&gt;Node11 -->
<g id="edge8" class="edge"><title>Node9&#45;&gt;Node11</title>
<path fill="none" stroke="midnightblue" d="M174.514,-35.8879C195.057,-30.5956 218.8,-24.4787 238.047,-19.5201"/>
<polygon fill="midnightblue" stroke="midnightblue" points="173.531,-32.5268 164.72,-38.411 175.277,-39.3054 173.531,-32.5268"/>
</g>
</g>
</svg>
