<?xml version="1.0" encoding="UTF-8" standalone="no"?>
<!DOCTYPE svg PUBLIC "-//W3C//DTD SVG 1.1//EN"
 "http://www.w3.org/Graphics/SVG/1.1/DTD/svg11.dtd">
<!-- Generated by graphviz version 2.38.0 (20140413.2041)
 -->
<!-- Title: DarksendConfig::setModel Pages: 1 -->
<svg width="867pt" height="28pt"
 viewBox="0.00 0.00 867.00 28.00" xmlns="http://www.w3.org/2000/svg" xmlns:xlink="http://www.w3.org/1999/xlink">
<g id="graph0" class="graph" transform="scale(1 1) rotate(0) translate(4 24)">
<title>DarksendConfig::setModel</title>
<polygon fill="white" stroke="none" points="-4,4 -4,-24 863,-24 863,4 -4,4"/>
<!-- Node63 -->
<g id="node1" class="node"><title>Node63</title>
<polygon fill="#bfbfbf" stroke="black" points="0,-0.5 0,-19.5 133,-19.5 133,-0.5 0,-0.5"/>
<text text-anchor="middle" x="66.5" y="-7.5" font-family="Helvetica,sans-Serif" font-size="10.00">DarksendConfig::setModel</text>
</g>
<!-- Node64 -->
<g id="node2" class="node"><title>Node64</title>
<g id="a_node2"><a xlink:href="../../d1/d91/class_overview_page.html#adb8782b6d0e6a976d29d249e63e9859b" target="_top" xlink:title="OverviewPage::togglePrivateSend">
<polygon fill="white" stroke="black" points="169,-0.5 169,-19.5 335,-19.5 335,-0.5 169,-0.5"/>
<text text-anchor="middle" x="252" y="-7.5" font-family="Helvetica,sans-Serif" font-size="10.00">OverviewPage::togglePrivateSend</text>
</a>
</g>
</g>
<!-- Node63&#45;&gt;Node64 -->
<g id="edge1" class="edge"><title>Node63&#45;&gt;Node64</title>
<path fill="none" stroke="midnightblue" d="M143.348,-10C151.733,-10 160.301,-10 168.76,-10"/>
<polygon fill="midnightblue" stroke="midnightblue" points="143.229,-6.5001 133.229,-10 143.229,-13.5001 143.229,-6.5001"/>
</g>
<!-- Node65 -->
<g id="node3" class="node"><title>Node65</title>
<g id="a_node3"><a xlink:href="../../d1/d91/class_overview_page.html#a2ed52a3a87e9c74fee38fa873c9bc71f" target="_top" xlink:title="OverviewPage::setWalletModel">
<polygon fill="white" stroke="black" points="371,-0.5 371,-19.5 525,-19.5 525,-0.5 371,-0.5"/>
<text text-anchor="middle" x="448" y="-7.5" font-family="Helvetica,sans-Serif" font-size="10.00">OverviewPage::setWalletModel</text>
</a>
</g>
</g>
<!-- Node64&#45;&gt;Node65 -->
<g id="edge2" class="edge"><title>Node64&#45;&gt;Node65</title>
<path fill="none" stroke="midnightblue" d="M345.54,-10C353.989,-10 362.483,-10 370.765,-10"/>
<polygon fill="midnightblue" stroke="midnightblue" points="345.273,-6.5001 335.273,-10 345.273,-13.5001 345.273,-6.5001"/>
</g>
<!-- Node66 -->
<g id="node4" class="node"><title>Node66</title>
<g id="a_node4"><a xlink:href="../../de/d44/class_wallet_view.html#a0a37ff693a4f9c1e5ddc23f9cd3913be" target="_top" xlink:title="Set the wallet model. ">
<polygon fill="white" stroke="black" points="561,-0.5 561,-19.5 701,-19.5 701,-0.5 561,-0.5"/>
<text text-anchor="middle" x="631" y="-7.5" font-family="Helvetica,sans-Serif" font-size="10.00">WalletView::setWalletModel</text>
</a>
</g>
</g>
<!-- Node65&#45;&gt;Node66 -->
<g id="edge3" class="edge"><title>Node65&#45;&gt;Node66</title>
<path fill="none" stroke="midnightblue" d="M535.241,-10C543.8,-10 552.409,-10 560.763,-10"/>
<polygon fill="midnightblue" stroke="midnightblue" points="535.236,-6.5001 525.236,-10 535.236,-13.5001 535.236,-6.5001"/>
</g>
<!-- Node67 -->
<g id="node5" class="node"><title>Node67</title>
<g id="a_node5"><a xlink:href="../../d9/dff/class_wallet_frame.html#aa199c3f27654199d84c365cf86167d86" target="_top" xlink:title="WalletFrame::addWallet">
<polygon fill="white" stroke="black" points="737,-0.5 737,-19.5 859,-19.5 859,-0.5 737,-0.5"/>
<text text-anchor="middle" x="798" y="-7.5" font-family="Helvetica,sans-Serif" font-size="10.00">WalletFrame::addWallet</text>
</a>
</g>
</g>
<!-- Node66&#45;&gt;Node67 -->
<g id="edge4" class="edge"><title>Node66&#45;&gt;Node67</title>
<path fill="none" stroke="midnightblue" d="M711.146,-10C719.813,-10 728.528,-10 736.91,-10"/>
<polygon fill="midnightblue" stroke="midnightblue" points="711.019,-6.5001 701.019,-10 711.019,-13.5001 711.019,-6.5001"/>
</g>
</g>
</svg>
