<?xml version="1.0" encoding="UTF-8" standalone="no"?>
<!DOCTYPE svg PUBLIC "-//W3C//DTD SVG 1.1//EN"
 "http://www.w3.org/Graphics/SVG/1.1/DTD/svg11.dtd">
<!-- Generated by graphviz version 2.38.0 (20140413.2041)
 -->
<!-- Title: src/net_processing.h Pages: 1 -->
<!--zoomable 196 -->
<svg id="main" version="1.1" xmlns="http://www.w3.org/2000/svg" xmlns:xlink="http://www.w3.org/1999/xlink" xml:space="preserve" onload="init(evt)">
<style type="text/css"><![CDATA[
.edge:hover path { stroke: red; }
.edge:hover polygon { stroke: red; fill: red; }
]]></style>
<script type="text/javascript"><![CDATA[
var edges = document.getElementsByTagName('g');
if (edges && edges.length) {
  for (var i=0;i<edges.length;i++) {
    if (edges[i].id.substr(0,4)=='edge') {
      edges[i].setAttribute('class','edge');
    }
  }
}
]]></script>
        <defs>
                <circle id="rim" cx="0" cy="0" r="7"/>
                <circle id="rim2" cx="0" cy="0" r="3.5"/>
                <g id="zoomPlus">
                        <use xlink:href="#rim" fill="#404040">
                                <set attributeName="fill" to="#808080" begin="zoomplus.mouseover" end="zoomplus.mouseout"/>
                        </use>
                        <path d="M-4,0h8M0,-4v8" fill="none" stroke="white" stroke-width="1.5" pointer-events="none"/>
                </g>
                <g id="zoomMin">
                        <use xlink:href="#rim" fill="#404040">
                                <set attributeName="fill" to="#808080" begin="zoomminus.mouseover" end="zoomminus.mouseout"/>
                        </use>
                        <path d="M-4,0h8" fill="none" stroke="white" stroke-width="1.5" pointer-events="none"/>
                </g>
                <g id="dirArrow">
                        <path fill="none" stroke="white" stroke-width="1.5" d="M0,-3.0v7 M-2.5,-0.5L0,-3.0L2.5,-0.5"/>
                </g>
               <g id="resetDef">
                       <use xlink:href="#rim2" fill="#404040">
                               <set attributeName="fill" to="#808080" begin="reset.mouseover" end="reset.mouseout"/>
                       </use>
               </g>
        </defs>

<script type="text/javascript">
var viewWidth = 1922;
var viewHeight = 196;
var sectionId = 'dynsection-1';
</script>
<script xlink:href="../../svgpan.js"/>
<svg id="graph" class="graph">
<g id="viewport">
<title>src/net_processing.h</title>
<polygon fill="white" stroke="none" points="-4,4 -4,-192 1918,-192 1918,4 -4,4"/>
<!-- Node79 -->
<g id="node1" class="node"><title>Node79</title>
<polygon fill="#bfbfbf" stroke="black" points="1443,-168.5 1443,-187.5 1550,-187.5 1550,-168.5 1443,-168.5"/>
<text text-anchor="middle" x="1496.5" y="-175.5" font-family="Helvetica,sans-Serif" font-size="10.00">src/net_processing.h</text>
</g>
<!-- Node80 -->
<g id="node2" class="node"><title>Node80</title>
<g id="a_node2"><a xlink:href="../../dc/d20/masternode-payments_8h.html" target="_top" xlink:title="src/masternode&#45;payments.h">
<polygon fill="white" stroke="black" points="790.5,-112.5 790.5,-131.5 928.5,-131.5 928.5,-112.5 790.5,-112.5"/>
<text text-anchor="middle" x="859.5" y="-119.5" font-family="Helvetica,sans-Serif" font-size="10.00">src/masternode&#45;payments.h</text>
</a>
</g>
</g>
<!-- Node79&#45;&gt;Node80 -->
<g id="edge1" class="edge"><title>Node79&#45;&gt;Node80</title>
<path fill="none" stroke="midnightblue" d="M1432.57,-171.581C1312.17,-161.374 1052.75,-139.382 928.536,-128.852"/>
<polygon fill="midnightblue" stroke="midnightblue" points="1432.48,-175.085 1442.74,-172.443 1433.07,-168.11 1432.48,-175.085"/>
</g>
<!-- Node82 -->
<g id="node4" class="node"><title>Node82</title>
<g id="a_node4"><a xlink:href="../../d0/dc9/init_8cpp.html" target="_top" xlink:title="src/init.cpp">
<polygon fill="white" stroke="black" points="0,-56.5 0,-75.5 65,-75.5 65,-56.5 0,-56.5"/>
<text text-anchor="middle" x="32.5" y="-63.5" font-family="Helvetica,sans-Serif" font-size="10.00">src/init.cpp</text>
</a>
</g>
</g>
<!-- Node79&#45;&gt;Node82 -->
<g id="edge15" class="edge"><title>Node79&#45;&gt;Node82</title>
<path fill="none" stroke="midnightblue" d="M1432.8,-175.953C1231.97,-171.911 594.518,-153.417 73.5,-76 70.7608,-75.593 67.9314,-75.1085 65.099,-74.5785"/>
<polygon fill="midnightblue" stroke="midnightblue" points="1432.81,-179.454 1442.87,-176.151 1432.95,-172.455 1432.81,-179.454"/>
</g>
<!-- Node88 -->
<g id="node10" class="node"><title>Node88</title>
<g id="a_node10"><a xlink:href="../../d2/d83/net__processing_8cpp.html" target="_top" xlink:title="src/net_processing.cpp">
<polygon fill="white" stroke="black" points="1399.5,-56.5 1399.5,-75.5 1517.5,-75.5 1517.5,-56.5 1399.5,-56.5"/>
<text text-anchor="middle" x="1458.5" y="-63.5" font-family="Helvetica,sans-Serif" font-size="10.00">src/net_processing.cpp</text>
</a>
</g>
</g>
<!-- Node79&#45;&gt;Node88 -->
<g id="edge16" class="edge"><title>Node79&#45;&gt;Node88</title>
<path fill="none" stroke="midnightblue" d="M1468.21,-163.379C1456.11,-155.933 1443.23,-145.457 1436.5,-132 1426.91,-112.82 1441.68,-88.4766 1451.3,-75.7134"/>
<polygon fill="midnightblue" stroke="midnightblue" points="1466.78,-166.59 1477.2,-168.48 1470.23,-160.502 1466.78,-166.59"/>
</g>
<!-- Node93 -->
<g id="node15" class="node"><title>Node93</title>
<g id="a_node15"><a xlink:href="../../d2/d61/governance_8cpp.html" target="_top" xlink:title="src/governance.cpp">
<polygon fill="white" stroke="black" points="1445.5,-112.5 1445.5,-131.5 1547.5,-131.5 1547.5,-112.5 1445.5,-112.5"/>
<text text-anchor="middle" x="1496.5" y="-119.5" font-family="Helvetica,sans-Serif" font-size="10.00">src/governance.cpp</text>
</a>
</g>
</g>
<!-- Node79&#45;&gt;Node93 -->
<g id="edge14" class="edge"><title>Node79&#45;&gt;Node93</title>
<path fill="none" stroke="midnightblue" d="M1496.5,-157.805C1496.5,-148.91 1496.5,-138.78 1496.5,-131.751"/>
<polygon fill="midnightblue" stroke="midnightblue" points="1493,-158.083 1496.5,-168.083 1500,-158.083 1493,-158.083"/>
</g>
<!-- Node94 -->
<g id="node16" class="node"><title>Node94</title>
<g id="a_node16"><a xlink:href="../../d2/d78/peertablemodel_8h.html" target="_top" xlink:title="src/qt/peertablemodel.h">
<polygon fill="white" stroke="black" points="1566,-112.5 1566,-131.5 1685,-131.5 1685,-112.5 1566,-112.5"/>
<text text-anchor="middle" x="1625.5" y="-119.5" font-family="Helvetica,sans-Serif" font-size="10.00">src/qt/peertablemodel.h</text>
</a>
</g>
</g>
<!-- Node79&#45;&gt;Node94 -->
<g id="edge17" class="edge"><title>Node79&#45;&gt;Node94</title>
<path fill="none" stroke="midnightblue" d="M1526.35,-164.503C1550.54,-154.38 1583.96,-140.388 1605.16,-131.516"/>
<polygon fill="midnightblue" stroke="midnightblue" points="1524.81,-161.354 1516.94,-168.444 1527.52,-167.811 1524.81,-161.354"/>
</g>
<!-- Node100 -->
<g id="node22" class="node"><title>Node100</title>
<g id="a_node22"><a xlink:href="../../d4/d9a/rpc_2net_8cpp.html" target="_top" xlink:title="src/rpc/net.cpp">
<polygon fill="white" stroke="black" points="1703.5,-112.5 1703.5,-131.5 1785.5,-131.5 1785.5,-112.5 1703.5,-112.5"/>
<text text-anchor="middle" x="1744.5" y="-119.5" font-family="Helvetica,sans-Serif" font-size="10.00">src/rpc/net.cpp</text>
</a>
</g>
</g>
<!-- Node79&#45;&gt;Node100 -->
<g id="edge23" class="edge"><title>Node79&#45;&gt;Node100</title>
<path fill="none" stroke="midnightblue" d="M1545.73,-166.281C1592.59,-156.077 1662.2,-140.92 1705.39,-131.516"/>
<polygon fill="midnightblue" stroke="midnightblue" points="1544.82,-162.896 1535.8,-168.444 1546.31,-169.736 1544.82,-162.896"/>
</g>
<!-- Node101 -->
<g id="node23" class="node"><title>Node101</title>
<g id="a_node23"><a xlink:href="../../df/d0d/spork_8cpp.html" target="_top" xlink:title="src/spork.cpp">
<polygon fill="white" stroke="black" points="1803.5,-112.5 1803.5,-131.5 1879.5,-131.5 1879.5,-112.5 1803.5,-112.5"/>
<text text-anchor="middle" x="1841.5" y="-119.5" font-family="Helvetica,sans-Serif" font-size="10.00">src/spork.cpp</text>
</a>
</g>
</g>
<!-- Node79&#45;&gt;Node101 -->
<g id="edge24" class="edge"><title>Node79&#45;&gt;Node101</title>
<path fill="none" stroke="midnightblue" d="M1560.31,-168.105C1620.73,-159.507 1713.94,-145.791 1794.5,-132 1797.37,-131.509 1800.33,-130.985 1803.3,-130.444"/>
<polygon fill="midnightblue" stroke="midnightblue" points="1559.57,-164.674 1550.17,-169.544 1560.56,-171.605 1559.57,-164.674"/>
</g>
<!-- Node81 -->
<g id="node3" class="node"><title>Node81</title>
<g id="a_node3"><a xlink:href="../../dd/d2e/dsnotificationinterface_8cpp.html" target="_top" xlink:title="src/dsnotificationinterface.cpp">
<polygon fill="white" stroke="black" points="83,-56.5 83,-75.5 230,-75.5 230,-56.5 83,-56.5"/>
<text text-anchor="middle" x="156.5" y="-63.5" font-family="Helvetica,sans-Serif" font-size="10.00">src/dsnotificationinterface.cpp</text>
</a>
</g>
</g>
<!-- Node80&#45;&gt;Node81 -->
<g id="edge2" class="edge"><title>Node80&#45;&gt;Node81</title>
<path fill="none" stroke="midnightblue" d="M779.999,-116.183C661.805,-108.808 432.796,-93.6962 238.5,-76 235.79,-75.7532 233.031,-75.4934 230.244,-75.224"/>
<polygon fill="midnightblue" stroke="midnightblue" points="779.85,-119.68 790.048,-116.808 780.285,-112.694 779.85,-119.68"/>
</g>
<!-- Node80&#45;&gt;Node82 -->
<g id="edge3" class="edge"><title>Node80&#45;&gt;Node82</title>
<path fill="none" stroke="midnightblue" d="M779.903,-120.61C637.521,-118.988 330.108,-111.282 73.5,-76 70.7565,-75.6228 67.9242,-75.1593 65.0897,-74.6434"/>
<polygon fill="midnightblue" stroke="midnightblue" points="780.242,-124.114 790.278,-120.721 780.316,-117.114 780.242,-124.114"/>
</g>
<!-- Node83 -->
<g id="node5" class="node"><title>Node83</title>
<g id="a_node5"><a xlink:href="../../d8/d43/masternode-payments_8cpp.html" target="_top" xlink:title="src/masternode&#45;payments.cpp">
<polygon fill="white" stroke="black" points="248,-56.5 248,-75.5 397,-75.5 397,-56.5 248,-56.5"/>
<text text-anchor="middle" x="322.5" y="-63.5" font-family="Helvetica,sans-Serif" font-size="10.00">src/masternode&#45;payments.cpp</text>
</a>
</g>
</g>
<!-- Node80&#45;&gt;Node83 -->
<g id="edge4" class="edge"><title>Node80&#45;&gt;Node83</title>
<path fill="none" stroke="midnightblue" d="M780.057,-113.349C689.411,-104.568 536.736,-89.6189 405.5,-76 402.761,-75.7157 399.971,-75.4241 397.153,-75.1277"/>
<polygon fill="midnightblue" stroke="midnightblue" points="779.965,-116.857 790.256,-114.337 780.64,-109.889 779.965,-116.857"/>
</g>
<!-- Node84 -->
<g id="node6" class="node"><title>Node84</title>
<g id="a_node6"><a xlink:href="../../da/d65/masternode-sync_8cpp.html" target="_top" xlink:title="src/masternode&#45;sync.cpp">
<polygon fill="white" stroke="black" points="415,-56.5 415,-75.5 542,-75.5 542,-56.5 415,-56.5"/>
<text text-anchor="middle" x="478.5" y="-63.5" font-family="Helvetica,sans-Serif" font-size="10.00">src/masternode&#45;sync.cpp</text>
</a>
</g>
</g>
<!-- Node80&#45;&gt;Node84 -->
<g id="edge5" class="edge"><title>Node80&#45;&gt;Node84</title>
<path fill="none" stroke="midnightblue" d="M788.799,-110.979C716.83,-100.779 606.468,-85.1372 538.588,-75.5164"/>
<polygon fill="midnightblue" stroke="midnightblue" points="788.737,-114.506 799.129,-112.444 789.72,-107.575 788.737,-114.506"/>
</g>
<!-- Node85 -->
<g id="node7" class="node"><title>Node85</title>
<g id="a_node7"><a xlink:href="../../dc/da3/masternode_8cpp.html" target="_top" xlink:title="src/masternode.cpp">
<polygon fill="white" stroke="black" points="560,-56.5 560,-75.5 663,-75.5 663,-56.5 560,-56.5"/>
<text text-anchor="middle" x="611.5" y="-63.5" font-family="Helvetica,sans-Serif" font-size="10.00">src/masternode.cpp</text>
</a>
</g>
</g>
<!-- Node80&#45;&gt;Node85 -->
<g id="edge6" class="edge"><title>Node80&#45;&gt;Node85</title>
<path fill="none" stroke="midnightblue" d="M810.274,-110.281C763.409,-100.077 693.801,-84.9203 650.612,-75.5164"/>
<polygon fill="midnightblue" stroke="midnightblue" points="809.688,-113.736 820.204,-112.444 811.177,-106.896 809.688,-113.736"/>
</g>
<!-- Node86 -->
<g id="node8" class="node"><title>Node86</title>
<g id="a_node8"><a xlink:href="../../d3/dcb/masternodeman_8cpp.html" target="_top" xlink:title="src/masternodeman.cpp">
<polygon fill="white" stroke="black" points="681.5,-56.5 681.5,-75.5 803.5,-75.5 803.5,-56.5 681.5,-56.5"/>
<text text-anchor="middle" x="742.5" y="-63.5" font-family="Helvetica,sans-Serif" font-size="10.00">src/masternodeman.cpp</text>
</a>
</g>
</g>
<!-- Node80&#45;&gt;Node86 -->
<g id="edge7" class="edge"><title>Node80&#45;&gt;Node86</title>
<path fill="none" stroke="midnightblue" d="M831.836,-108.232C809.951,-98.1312 780.003,-84.3091 760.952,-75.5164"/>
<polygon fill="midnightblue" stroke="midnightblue" points="830.415,-111.431 840.961,-112.444 833.348,-105.075 830.415,-111.431"/>
</g>
<!-- Node87 -->
<g id="node9" class="node"><title>Node87</title>
<g id="a_node9"><a xlink:href="../../d6/de3/miner_8cpp.html" target="_top" xlink:title="src/miner.cpp">
<polygon fill="white" stroke="black" points="821.5,-56.5 821.5,-75.5 897.5,-75.5 897.5,-56.5 821.5,-56.5"/>
<text text-anchor="middle" x="859.5" y="-63.5" font-family="Helvetica,sans-Serif" font-size="10.00">src/miner.cpp</text>
</a>
</g>
</g>
<!-- Node80&#45;&gt;Node87 -->
<g id="edge8" class="edge"><title>Node80&#45;&gt;Node87</title>
<path fill="none" stroke="midnightblue" d="M859.5,-101.805C859.5,-92.9102 859.5,-82.7798 859.5,-75.7511"/>
<polygon fill="midnightblue" stroke="midnightblue" points="856,-102.083 859.5,-112.083 863,-102.083 856,-102.083"/>
</g>
<!-- Node80&#45;&gt;Node88 -->
<g id="edge9" class="edge"><title>Node80&#45;&gt;Node88</title>
<path fill="none" stroke="midnightblue" d="M938.856,-115.445C1042.76,-107.905 1230.5,-93.3585 1390.5,-76 1393.34,-75.6917 1396.25,-75.3622 1399.18,-75.018"/>
<polygon fill="midnightblue" stroke="midnightblue" points="938.481,-111.963 928.759,-116.175 938.986,-118.945 938.481,-111.963"/>
</g>
<!-- Node89 -->
<g id="node11" class="node"><title>Node89</title>
<g id="a_node11"><a xlink:href="../../d4/da2/privatesend_8cpp.html" target="_top" xlink:title="src/privatesend.cpp">
<polygon fill="white" stroke="black" points="915.5,-56.5 915.5,-75.5 1017.5,-75.5 1017.5,-56.5 915.5,-56.5"/>
<text text-anchor="middle" x="966.5" y="-63.5" font-family="Helvetica,sans-Serif" font-size="10.00">src/privatesend.cpp</text>
</a>
</g>
</g>
<!-- Node80&#45;&gt;Node89 -->
<g id="edge10" class="edge"><title>Node80&#45;&gt;Node89</title>
<path fill="none" stroke="midnightblue" d="M885.802,-107.726C905.615,-97.7271 932.207,-84.3065 949.351,-75.6545"/>
<polygon fill="midnightblue" stroke="midnightblue" points="884.042,-104.694 876.691,-112.324 887.196,-110.943 884.042,-104.694"/>
</g>
<!-- Node90 -->
<g id="node12" class="node"><title>Node90</title>
<g id="a_node12"><a xlink:href="../../d0/d80/rpc_2masternode_8cpp.html" target="_top" xlink:title="src/rpc/masternode.cpp">
<polygon fill="white" stroke="black" points="1036,-56.5 1036,-75.5 1155,-75.5 1155,-56.5 1036,-56.5"/>
<text text-anchor="middle" x="1095.5" y="-63.5" font-family="Helvetica,sans-Serif" font-size="10.00">src/rpc/masternode.cpp</text>
</a>
</g>
</g>
<!-- Node80&#45;&gt;Node90 -->
<g id="edge11" class="edge"><title>Node80&#45;&gt;Node90</title>
<path fill="none" stroke="midnightblue" d="M906.906,-110.153C951.497,-99.95 1017.35,-84.8809 1058.28,-75.5164"/>
<polygon fill="midnightblue" stroke="midnightblue" points="905.862,-106.801 896.895,-112.444 907.424,-113.625 905.862,-106.801"/>
</g>
<!-- Node91 -->
<g id="node13" class="node"><title>Node91</title>
<g id="a_node13"><a xlink:href="../../d0/de9/mining_8cpp.html" target="_top" xlink:title="src/rpc/mining.cpp">
<polygon fill="white" stroke="black" points="1173,-56.5 1173,-75.5 1270,-75.5 1270,-56.5 1173,-56.5"/>
<text text-anchor="middle" x="1221.5" y="-63.5" font-family="Helvetica,sans-Serif" font-size="10.00">src/rpc/mining.cpp</text>
</a>
</g>
</g>
<!-- Node80&#45;&gt;Node91 -->
<g id="edge12" class="edge"><title>Node80&#45;&gt;Node91</title>
<path fill="none" stroke="midnightblue" d="M928.596,-111.009C990.434,-102.019 1083.55,-88.3615 1164.5,-76 1167.27,-75.5765 1170.12,-75.138 1173,-74.6928"/>
<polygon fill="midnightblue" stroke="midnightblue" points="927.96,-107.565 918.567,-112.466 928.966,-114.492 927.96,-107.565"/>
</g>
<!-- Node92 -->
<g id="node14" class="node"><title>Node92</title>
<g id="a_node14"><a xlink:href="../../dd/d7d/validation_8cpp.html" target="_top" xlink:title="src/validation.cpp">
<polygon fill="white" stroke="black" points="1288,-56.5 1288,-75.5 1381,-75.5 1381,-56.5 1288,-56.5"/>
<text text-anchor="middle" x="1334.5" y="-63.5" font-family="Helvetica,sans-Serif" font-size="10.00">src/validation.cpp</text>
</a>
</g>
</g>
<!-- Node80&#45;&gt;Node92 -->
<g id="edge13" class="edge"><title>Node80&#45;&gt;Node92</title>
<path fill="none" stroke="midnightblue" d="M938.804,-113.825C1023.37,-105.866 1161.13,-92.0132 1279.5,-76 1282.18,-75.6368 1284.94,-75.2454 1287.72,-74.8363"/>
<polygon fill="midnightblue" stroke="midnightblue" points="938.389,-110.349 928.76,-114.767 939.042,-117.318 938.389,-110.349"/>
</g>
<!-- Node95 -->
<g id="node17" class="node"><title>Node95</title>
<g id="a_node17"><a xlink:href="../../d4/d78/rpcconsole_8h.html" target="_top" xlink:title="src/qt/rpcconsole.h">
<polygon fill="white" stroke="black" points="1535.5,-56.5 1535.5,-75.5 1635.5,-75.5 1635.5,-56.5 1535.5,-56.5"/>
<text text-anchor="middle" x="1585.5" y="-63.5" font-family="Helvetica,sans-Serif" font-size="10.00">src/qt/rpcconsole.h</text>
</a>
</g>
</g>
<!-- Node94&#45;&gt;Node95 -->
<g id="edge18" class="edge"><title>Node94&#45;&gt;Node95</title>
<path fill="none" stroke="midnightblue" d="M1612.8,-103.855C1605.87,-94.5048 1597.59,-83.3265 1591.98,-75.7511"/>
<polygon fill="midnightblue" stroke="midnightblue" points="1610.13,-106.131 1618.89,-112.083 1615.75,-101.964 1610.13,-106.131"/>
</g>
<!-- Node98 -->
<g id="node20" class="node"><title>Node98</title>
<g id="a_node20"><a xlink:href="../../d9/d3d/clientmodel_8cpp.html" target="_top" xlink:title="src/qt/clientmodel.cpp">
<polygon fill="white" stroke="black" points="1654,-56.5 1654,-75.5 1767,-75.5 1767,-56.5 1654,-56.5"/>
<text text-anchor="middle" x="1710.5" y="-63.5" font-family="Helvetica,sans-Serif" font-size="10.00">src/qt/clientmodel.cpp</text>
</a>
</g>
</g>
<!-- Node94&#45;&gt;Node98 -->
<g id="edge21" class="edge"><title>Node94&#45;&gt;Node98</title>
<path fill="none" stroke="midnightblue" d="M1647.69,-106.901C1663.28,-96.9986 1683.63,-84.0705 1696.88,-75.6545"/>
<polygon fill="midnightblue" stroke="midnightblue" points="1645.72,-104.007 1639.16,-112.324 1649.47,-109.916 1645.72,-104.007"/>
</g>
<!-- Node99 -->
<g id="node21" class="node"><title>Node99</title>
<g id="a_node21"><a xlink:href="../../dc/d03/peertablemodel_8cpp.html" target="_top" xlink:title="src/qt/peertablemodel.cpp">
<polygon fill="white" stroke="black" points="1785,-56.5 1785,-75.5 1914,-75.5 1914,-56.5 1785,-56.5"/>
<text text-anchor="middle" x="1849.5" y="-63.5" font-family="Helvetica,sans-Serif" font-size="10.00">src/qt/peertablemodel.cpp</text>
</a>
</g>
</g>
<!-- Node94&#45;&gt;Node99 -->
<g id="edge22" class="edge"><title>Node94&#45;&gt;Node99</title>
<path fill="none" stroke="midnightblue" d="M1670.76,-110.088C1713.08,-99.8865 1775.41,-84.8612 1814.17,-75.5164"/>
<polygon fill="midnightblue" stroke="midnightblue" points="1669.89,-106.697 1660.99,-112.444 1671.54,-113.502 1669.89,-106.697"/>
</g>
<!-- Node96 -->
<g id="node18" class="node"><title>Node96</title>
<g id="a_node18"><a xlink:href="../../d6/d26/bitcoingui_8cpp.html" target="_top" xlink:title="src/qt/bitcoingui.cpp">
<polygon fill="white" stroke="black" points="1470.5,-0.5 1470.5,-19.5 1574.5,-19.5 1574.5,-0.5 1470.5,-0.5"/>
<text text-anchor="middle" x="1522.5" y="-7.5" font-family="Helvetica,sans-Serif" font-size="10.00">src/qt/bitcoingui.cpp</text>
</a>
</g>
</g>
<!-- Node95&#45;&gt;Node96 -->
<g id="edge19" class="edge"><title>Node95&#45;&gt;Node96</title>
<path fill="none" stroke="midnightblue" d="M1567.46,-49.5372C1556.23,-39.9087 1542.18,-27.8694 1532.81,-19.8339"/>
<polygon fill="midnightblue" stroke="midnightblue" points="1565.51,-52.4734 1575.38,-56.324 1570.06,-47.1586 1565.51,-52.4734"/>
</g>
<!-- Node97 -->
<g id="node19" class="node"><title>Node97</title>
<g id="a_node19"><a xlink:href="../../d7/df4/rpcconsole_8cpp.html" target="_top" xlink:title="src/qt/rpcconsole.cpp">
<polygon fill="white" stroke="black" points="1592.5,-0.5 1592.5,-19.5 1702.5,-19.5 1702.5,-0.5 1592.5,-0.5"/>
<text text-anchor="middle" x="1647.5" y="-7.5" font-family="Helvetica,sans-Serif" font-size="10.00">src/qt/rpcconsole.cpp</text>
</a>
</g>
</g>
<!-- Node95&#45;&gt;Node97 -->
<g id="edge20" class="edge"><title>Node95&#45;&gt;Node97</title>
<path fill="none" stroke="midnightblue" d="M1603.25,-49.5372C1614.31,-39.9087 1628.13,-27.8694 1637.36,-19.8339"/>
<polygon fill="midnightblue" stroke="midnightblue" points="1600.7,-47.1168 1595.46,-56.324 1605.3,-52.3954 1600.7,-47.1168"/>
</g>
</g>
</svg>
        <g id="navigator" transform="translate(0 0)" fill="#404254">
                <rect fill="#f2f5e9" fill-opacity="0.5" stroke="#606060" stroke-width=".5" x="0" y="0" width="60" height="60"/>
                <use id="zoomplus" xlink:href="#zoomPlus" x="17" y="9" onmousedown="handleZoom(evt,'in')"/>
                <use id="zoomminus" xlink:href="#zoomMin" x="42" y="9" onmousedown="handleZoom(evt,'out')"/>
                <use id="reset" xlink:href="#resetDef" x="30" y="36" onmousedown="handleReset()"/>
                <g id="arrowUp" xlink:href="#dirArrow" transform="translate(30 24)" onmousedown="handlePan(0,-1)">
                  <use xlink:href="#rim" fill="#404040">
                        <set attributeName="fill" to="#808080" begin="arrowUp.mouseover" end="arrowUp.mouseout"/>
                  </use>
                  <path fill="none" stroke="white" stroke-width="1.5" d="M0,-3.0v7 M-2.5,-0.5L0,-3.0L2.5,-0.5"/>
                </g>
                <g id="arrowRight" xlink:href="#dirArrow" transform="rotate(90) translate(36 -43)" onmousedown="handlePan(1,0)">
                  <use xlink:href="#rim" fill="#404040">
                        <set attributeName="fill" to="#808080" begin="arrowRight.mouseover" end="arrowRight.mouseout"/>
                  </use>
                  <path fill="none" stroke="white" stroke-width="1.5" d="M0,-3.0v7 M-2.5,-0.5L0,-3.0L2.5,-0.5"/>
                </g>
                <g id="arrowDown" xlink:href="#dirArrow" transform="rotate(180) translate(-30 -48)" onmousedown="handlePan(0,1)">
                  <use xlink:href="#rim" fill="#404040">
                        <set attributeName="fill" to="#808080" begin="arrowDown.mouseover" end="arrowDown.mouseout"/>
                  </use>
                  <path fill="none" stroke="white" stroke-width="1.5" d="M0,-3.0v7 M-2.5,-0.5L0,-3.0L2.5,-0.5"/>
                </g>
                <g id="arrowLeft" xlink:href="#dirArrow" transform="rotate(270) translate(-36 17)" onmousedown="handlePan(-1,0)">
                  <use xlink:href="#rim" fill="#404040">
                        <set attributeName="fill" to="#808080" begin="arrowLeft.mouseover" end="arrowLeft.mouseout"/>
                  </use>
                  <path fill="none" stroke="white" stroke-width="1.5" d="M0,-3.0v7 M-2.5,-0.5L0,-3.0L2.5,-0.5"/>
                </g>
        </g>
        <svg viewBox="0 0 15 15" width="100%" height="30px" preserveAspectRatio="xMaxYMin meet">
         <g id="arrow_out" transform="scale(0.3 0.3)">
          <a xlink:href="net__processing_8h__dep__incl_org.svg" target="_base">
           <rect id="button" ry="5" rx="5" y="6" x="6" height="38" width="38"
                fill="#f2f5e9" fill-opacity="0.5" stroke="#606060" stroke-width="1.0"/>
           <path id="arrow"
             d="M 11.500037,31.436501 C 11.940474,20.09759 22.043105,11.32322 32.158766,21.979434 L 37.068811,17.246167 C 37.068811,17.246167 37.088388,32 37.088388,32 L 22.160133,31.978069 C 22.160133,31.978069 26.997745,27.140456 26.997745,27.140456 C 18.528582,18.264221 13.291696,25.230495 11.500037,31.436501 z"
             style="fill:#404040;"/>
          </a>
         </g>
        </svg>
</svg>
