<?xml version="1.0" encoding="UTF-8" standalone="no"?>
<!DOCTYPE svg PUBLIC "-//W3C//DTD SVG 1.1//EN"
 "http://www.w3.org/Graphics/SVG/1.1/DTD/svg11.dtd">
<!-- Generated by graphviz version 2.38.0 (20140413.2041)
 -->
<!-- Title: src/secp256k1/src/ecdsa.h Pages: 1 -->
<svg width="222pt" height="196pt"
 viewBox="0.00 0.00 221.50 196.00" xmlns="http://www.w3.org/2000/svg" xmlns:xlink="http://www.w3.org/1999/xlink">
<g id="graph0" class="graph" transform="scale(1 1) rotate(0) translate(4 192)">
<title>src/secp256k1/src/ecdsa.h</title>
<polygon fill="white" stroke="none" points="-4,4 -4,-192 217.5,-192 217.5,4 -4,4"/>
<!-- Node0 -->
<g id="node1" class="node"><title>Node0</title>
<polygon fill="#bfbfbf" stroke="black" points="40,-168.5 40,-187.5 174,-187.5 174,-168.5 40,-168.5"/>
<text text-anchor="middle" x="107" y="-175.5" font-family="Helvetica,sans-Serif" font-size="10.00">src/secp256k1/src/ecdsa.h</text>
</g>
<!-- Node1 -->
<g id="node2" class="node"><title>Node1</title>
<polygon fill="white" stroke="#bfbfbf" points="0,-112.5 0,-131.5 52,-131.5 52,-112.5 0,-112.5"/>
<text text-anchor="middle" x="26" y="-119.5" font-family="Helvetica,sans-Serif" font-size="10.00">stddef.h</text>
</g>
<!-- Node0&#45;&gt;Node1 -->
<g id="edge1" class="edge"><title>Node0&#45;&gt;Node1</title>
<path fill="none" stroke="midnightblue" d="M93.9859,-168.324C81.4684,-159.979 62.3183,-147.212 47.5286,-137.352"/>
<polygon fill="midnightblue" stroke="midnightblue" points="49.2437,-134.289 38.9818,-131.655 45.3608,-140.114 49.2437,-134.289"/>
</g>
<!-- Node2 -->
<g id="node3" class="node"><title>Node2</title>
<g id="a_node3"><a xlink:href="../../db/d94/scalar_8h.html" target="_top" xlink:title="scalar.h">
<polygon fill="white" stroke="black" points="54.5,-56.5 54.5,-75.5 105.5,-75.5 105.5,-56.5 54.5,-56.5"/>
<text text-anchor="middle" x="80" y="-63.5" font-family="Helvetica,sans-Serif" font-size="10.00">scalar.h</text>
</a>
</g>
</g>
<!-- Node0&#45;&gt;Node2 -->
<g id="edge2" class="edge"><title>Node0&#45;&gt;Node2</title>
<path fill="none" stroke="midnightblue" d="M104.881,-168.368C100.524,-150.617 90.4727,-109.666 84.5648,-85.5974"/>
<polygon fill="midnightblue" stroke="midnightblue" points="87.8918,-84.4688 82.1088,-75.5914 81.0936,-86.1375 87.8918,-84.4688"/>
</g>
<!-- Node4 -->
<g id="node5" class="node"><title>Node4</title>
<g id="a_node5"><a xlink:href="../../d9/dd1/group_8h.html" target="_top" xlink:title="group.h">
<polygon fill="white" stroke="black" points="163.5,-56.5 163.5,-75.5 212.5,-75.5 212.5,-56.5 163.5,-56.5"/>
<text text-anchor="middle" x="188" y="-63.5" font-family="Helvetica,sans-Serif" font-size="10.00">group.h</text>
</a>
</g>
</g>
<!-- Node0&#45;&gt;Node4 -->
<g id="edge4" class="edge"><title>Node0&#45;&gt;Node4</title>
<path fill="none" stroke="midnightblue" d="M125.734,-168.393C140.2,-160.804 159.613,-148.401 171,-132 180.459,-118.377 184.655,-99.8346 186.516,-86.0406"/>
<polygon fill="midnightblue" stroke="midnightblue" points="190.03,-86.0937 187.595,-75.7825 183.068,-85.3616 190.03,-86.0937"/>
</g>
<!-- Node6 -->
<g id="node7" class="node"><title>Node6</title>
<g id="a_node7"><a xlink:href="../../d2/d94/ecmult_8h.html" target="_top" xlink:title="ecmult.h">
<polygon fill="white" stroke="black" points="108,-112.5 108,-131.5 162,-131.5 162,-112.5 108,-112.5"/>
<text text-anchor="middle" x="135" y="-119.5" font-family="Helvetica,sans-Serif" font-size="10.00">ecmult.h</text>
</a>
</g>
</g>
<!-- Node0&#45;&gt;Node6 -->
<g id="edge7" class="edge"><title>Node0&#45;&gt;Node6</title>
<path fill="none" stroke="midnightblue" d="M111.624,-168.083C115.456,-160.691 121.024,-149.953 125.765,-140.811"/>
<polygon fill="midnightblue" stroke="midnightblue" points="128.966,-142.24 130.462,-131.751 122.752,-139.018 128.966,-142.24"/>
</g>
<!-- Node3 -->
<g id="node4" class="node"><title>Node3</title>
<g id="a_node4"><a xlink:href="../../df/d98/num_8h.html" target="_top" xlink:title="num.h">
<polygon fill="white" stroke="black" points="108,-0.5 108,-19.5 152,-19.5 152,-0.5 108,-0.5"/>
<text text-anchor="middle" x="130" y="-7.5" font-family="Helvetica,sans-Serif" font-size="10.00">num.h</text>
</a>
</g>
</g>
<!-- Node2&#45;&gt;Node3 -->
<g id="edge3" class="edge"><title>Node2&#45;&gt;Node3</title>
<path fill="none" stroke="midnightblue" d="M88.2565,-56.083C95.4647,-48.2982 106.11,-36.8015 114.846,-27.3665"/>
<polygon fill="midnightblue" stroke="midnightblue" points="117.671,-29.4666 121.897,-19.7511 112.535,-24.7108 117.671,-29.4666"/>
</g>
<!-- Node4&#45;&gt;Node3 -->
<g id="edge5" class="edge"><title>Node4&#45;&gt;Node3</title>
<path fill="none" stroke="midnightblue" d="M178.681,-56.324C170.107,-48.3414 157.188,-36.3128 146.812,-26.6529"/>
<polygon fill="midnightblue" stroke="midnightblue" points="149.192,-24.0865 139.488,-19.8339 144.422,-29.2098 149.192,-24.0865"/>
</g>
<!-- Node5 -->
<g id="node6" class="node"><title>Node5</title>
<g id="a_node6"><a xlink:href="../../d5/d5a/field_8h.html" target="_top" xlink:title="field.h">
<polygon fill="white" stroke="black" points="170.5,-0.5 170.5,-19.5 213.5,-19.5 213.5,-0.5 170.5,-0.5"/>
<text text-anchor="middle" x="192" y="-7.5" font-family="Helvetica,sans-Serif" font-size="10.00">field.h</text>
</a>
</g>
</g>
<!-- Node4&#45;&gt;Node5 -->
<g id="edge6" class="edge"><title>Node4&#45;&gt;Node5</title>
<path fill="none" stroke="midnightblue" d="M188.661,-56.083C189.185,-49.0059 189.936,-38.8611 190.594,-29.9865"/>
<polygon fill="midnightblue" stroke="midnightblue" points="194.103,-29.9823 191.352,-19.7511 187.123,-29.4652 194.103,-29.9823"/>
</g>
<!-- Node6&#45;&gt;Node3 -->
<g id="edge8" class="edge"><title>Node6&#45;&gt;Node3</title>
<path fill="none" stroke="midnightblue" d="M134.608,-112.368C133.801,-94.617 131.939,-53.6664 130.845,-29.5974"/>
<polygon fill="midnightblue" stroke="midnightblue" points="134.341,-29.4221 130.391,-19.5914 127.348,-29.7401 134.341,-29.4221"/>
</g>
<!-- Node6&#45;&gt;Node4 -->
<g id="edge9" class="edge"><title>Node6&#45;&gt;Node4</title>
<path fill="none" stroke="midnightblue" d="M143.752,-112.083C151.47,-104.22 162.905,-92.5688 172.217,-83.0813"/>
<polygon fill="midnightblue" stroke="midnightblue" points="174.904,-85.3396 179.411,-75.7511 169.908,-80.4363 174.904,-85.3396"/>
</g>
</g>
</svg>
