<?xml version="1.0" encoding="UTF-8" standalone="no"?>
<!DOCTYPE svg PUBLIC "-//W3C//DTD SVG 1.1//EN"
 "http://www.w3.org/Graphics/SVG/1.1/DTD/svg11.dtd">
<!-- Generated by graphviz version 2.38.0 (20140413.2041)
 -->
<!-- Title: ReceiveCoinsDialog::updateDisplayUnit Pages: 1 -->
<!--zoomable 225 -->
<svg id="main" version="1.1" xmlns="http://www.w3.org/2000/svg" xmlns:xlink="http://www.w3.org/1999/xlink" xml:space="preserve" onload="init(evt)">
<style type="text/css"><![CDATA[
.edge:hover path { stroke: red; }
.edge:hover polygon { stroke: red; fill: red; }
]]></style>
<script type="text/javascript"><![CDATA[
var edges = document.getElementsByTagName('g');
if (edges && edges.length) {
  for (var i=0;i<edges.length;i++) {
    if (edges[i].id.substr(0,4)=='edge') {
      edges[i].setAttribute('class','edge');
    }
  }
}
]]></script>
        <defs>
                <circle id="rim" cx="0" cy="0" r="7"/>
                <circle id="rim2" cx="0" cy="0" r="3.5"/>
                <g id="zoomPlus">
                        <use xlink:href="#rim" fill="#404040">
                                <set attributeName="fill" to="#808080" begin="zoomplus.mouseover" end="zoomplus.mouseout"/>
                        </use>
                        <path d="M-4,0h8M0,-4v8" fill="none" stroke="white" stroke-width="1.5" pointer-events="none"/>
                </g>
                <g id="zoomMin">
                        <use xlink:href="#rim" fill="#404040">
                                <set attributeName="fill" to="#808080" begin="zoomminus.mouseover" end="zoomminus.mouseout"/>
                        </use>
                        <path d="M-4,0h8" fill="none" stroke="white" stroke-width="1.5" pointer-events="none"/>
                </g>
                <g id="dirArrow">
                        <path fill="none" stroke="white" stroke-width="1.5" d="M0,-3.0v7 M-2.5,-0.5L0,-3.0L2.5,-0.5"/>
                </g>
               <g id="resetDef">
                       <use xlink:href="#rim2" fill="#404040">
                               <set attributeName="fill" to="#808080" begin="reset.mouseover" end="reset.mouseout"/>
                       </use>
               </g>
        </defs>

<script type="text/javascript">
var viewWidth = 590;
var viewHeight = 225;
var sectionId = 'dynsection-33';
</script>
<script xlink:href="../../svgpan.js"/>
<svg id="graph" class="graph">
<g id="viewport">
<title>ReceiveCoinsDialog::updateDisplayUnit</title>
<polygon fill="white" stroke="none" points="-4,4 -4,-220.5 586,-220.5 586,4 -4,4"/>
<!-- Node381 -->
<g id="node1" class="node"><title>Node381</title>
<polygon fill="#bfbfbf" stroke="black" points="0,-52 0,-82 106,-82 106,-52 0,-52"/>
<text text-anchor="start" x="8" y="-70" font-family="Helvetica,sans-Serif" font-size="10.00">ReceiveCoinsDialog</text>
<text text-anchor="middle" x="53" y="-59" font-family="Helvetica,sans-Serif" font-size="10.00">::updateDisplayUnit</text>
</g>
<!-- Node382 -->
<g id="node2" class="node"><title>Node382</title>
<g id="a_node2"><a xlink:href="../../dc/dca/class_receive_coins_dialog.html#aaea0511f0ab43f1d2b23f8684d1edfc3" target="_top" xlink:title="ReceiveCoinsDialog\l::clear">
<polygon fill="white" stroke="black" points="142,-88 142,-118 248,-118 248,-88 142,-88"/>
<text text-anchor="start" x="150" y="-106" font-family="Helvetica,sans-Serif" font-size="10.00">ReceiveCoinsDialog</text>
<text text-anchor="middle" x="195" y="-95" font-family="Helvetica,sans-Serif" font-size="10.00">::clear</text>
</a>
</g>
</g>
<!-- Node381&#45;&gt;Node382 -->
<g id="edge1" class="edge"><title>Node381&#45;&gt;Node382</title>
<path fill="none" stroke="midnightblue" d="M115.827,-82.8983C124.504,-85.1297 133.352,-87.4047 141.826,-89.5837"/>
<polygon fill="midnightblue" stroke="midnightblue" points="116.687,-79.5058 106.131,-80.4051 114.944,-86.2853 116.687,-79.5058"/>
</g>
<!-- Node388 -->
<g id="node8" class="node"><title>Node388</title>
<g id="a_node8"><a xlink:href="../../dc/dca/class_receive_coins_dialog.html#a856e5bbe280d792004e97e703f42c7f8" target="_top" xlink:title="ReceiveCoinsDialog\l::setModel">
<polygon fill="white" stroke="black" points="142,-17 142,-47 248,-47 248,-17 142,-17"/>
<text text-anchor="start" x="150" y="-35" font-family="Helvetica,sans-Serif" font-size="10.00">ReceiveCoinsDialog</text>
<text text-anchor="middle" x="195" y="-24" font-family="Helvetica,sans-Serif" font-size="10.00">::setModel</text>
</a>
</g>
</g>
<!-- Node381&#45;&gt;Node388 -->
<g id="edge7" class="edge"><title>Node381&#45;&gt;Node388</title>
<path fill="none" stroke="midnightblue" d="M116.107,-51.4733C124.695,-49.3264 133.443,-47.1393 141.826,-45.0436"/>
<polygon fill="midnightblue" stroke="midnightblue" points="114.983,-48.1464 106.131,-53.9673 116.681,-54.9374 114.983,-48.1464"/>
</g>
<!-- Node383 -->
<g id="node3" class="node"><title>Node383</title>
<g id="a_node3"><a xlink:href="../../dc/dca/class_receive_coins_dialog.html#aa34d81582b9a1c4311e5cf551aab415e" target="_top" xlink:title="ReceiveCoinsDialog\l::accept">
<polygon fill="white" stroke="black" points="301,-186 301,-216 407,-216 407,-186 301,-186"/>
<text text-anchor="start" x="309" y="-204" font-family="Helvetica,sans-Serif" font-size="10.00">ReceiveCoinsDialog</text>
<text text-anchor="middle" x="354" y="-193" font-family="Helvetica,sans-Serif" font-size="10.00">::accept</text>
</a>
</g>
</g>
<!-- Node382&#45;&gt;Node383 -->
<g id="edge2" class="edge"><title>Node382&#45;&gt;Node383</title>
<path fill="none" stroke="midnightblue" d="M217.766,-125.25C234.605,-141.429 259.17,-162.883 284,-177 289.844,-180.322 296.225,-183.298 302.671,-185.927"/>
<polygon fill="midnightblue" stroke="midnightblue" points="220.193,-122.728 210.599,-118.233 215.296,-127.73 220.193,-122.728"/>
</g>
<!-- Node384 -->
<g id="node4" class="node"><title>Node384</title>
<g id="a_node4"><a xlink:href="../../dc/dca/class_receive_coins_dialog.html#a9db8de31f6889288cb22c061aa51e0cd" target="_top" xlink:title="ReceiveCoinsDialog\l::on_receiveButton_clicked">
<polygon fill="white" stroke="black" points="287,-137 287,-167 421,-167 421,-137 287,-137"/>
<text text-anchor="start" x="295" y="-155" font-family="Helvetica,sans-Serif" font-size="10.00">ReceiveCoinsDialog</text>
<text text-anchor="middle" x="354" y="-144" font-family="Helvetica,sans-Serif" font-size="10.00">::on_receiveButton_clicked</text>
</a>
</g>
</g>
<!-- Node382&#45;&gt;Node384 -->
<g id="edge3" class="edge"><title>Node382&#45;&gt;Node384</title>
<path fill="none" stroke="midnightblue" d="M254.035,-121.113C270.726,-126.322 288.744,-131.946 304.774,-136.948"/>
<polygon fill="midnightblue" stroke="midnightblue" points="254.975,-117.74 244.386,-118.101 252.889,-124.422 254.975,-117.74"/>
</g>
<!-- Node386 -->
<g id="node6" class="node"><title>Node386</title>
<g id="a_node6"><a xlink:href="../../dc/dca/class_receive_coins_dialog.html#af6363e303b255dae972e71b7f730bac1" target="_top" xlink:title="ReceiveCoinsDialog\l::ReceiveCoinsDialog">
<polygon fill="white" stroke="black" points="298,-88 298,-118 410,-118 410,-88 298,-88"/>
<text text-anchor="start" x="306" y="-106" font-family="Helvetica,sans-Serif" font-size="10.00">ReceiveCoinsDialog</text>
<text text-anchor="middle" x="354" y="-95" font-family="Helvetica,sans-Serif" font-size="10.00">::ReceiveCoinsDialog</text>
</a>
</g>
</g>
<!-- Node382&#45;&gt;Node386 -->
<g id="edge5" class="edge"><title>Node382&#45;&gt;Node386</title>
<path fill="none" stroke="midnightblue" d="M258.572,-103C271.607,-103 285.253,-103 297.991,-103"/>
<polygon fill="midnightblue" stroke="midnightblue" points="258.279,-99.5001 248.279,-103 258.279,-106.5 258.279,-99.5001"/>
</g>
<!-- Node387 -->
<g id="node7" class="node"><title>Node387</title>
<g id="a_node7"><a xlink:href="../../dc/dca/class_receive_coins_dialog.html#aeed78dd55cfc9def8b1b3ec3cec4bc11" target="_top" xlink:title="ReceiveCoinsDialog\l::reject">
<polygon fill="white" stroke="black" points="301,-39 301,-69 407,-69 407,-39 301,-39"/>
<text text-anchor="start" x="309" y="-57" font-family="Helvetica,sans-Serif" font-size="10.00">ReceiveCoinsDialog</text>
<text text-anchor="middle" x="354" y="-46" font-family="Helvetica,sans-Serif" font-size="10.00">::reject</text>
</a>
</g>
</g>
<!-- Node382&#45;&gt;Node387 -->
<g id="edge6" class="edge"><title>Node382&#45;&gt;Node387</title>
<path fill="none" stroke="midnightblue" d="M254.035,-84.8871C270.726,-79.6778 288.744,-74.0543 304.774,-69.0516"/>
<polygon fill="midnightblue" stroke="midnightblue" points="252.889,-81.5781 244.386,-87.8986 254.975,-88.2603 252.889,-81.5781"/>
</g>
<!-- Node385 -->
<g id="node5" class="node"><title>Node385</title>
<g id="a_node5"><a xlink:href="../../dc/dca/class_receive_coins_dialog.html#abcf17b510c473bf3e94ef12f7f5cfc10" target="_top" xlink:title="ReceiveCoinsDialog\l::keyPressEvent">
<polygon fill="white" stroke="black" points="468,-137 468,-167 574,-167 574,-137 468,-137"/>
<text text-anchor="start" x="476" y="-155" font-family="Helvetica,sans-Serif" font-size="10.00">ReceiveCoinsDialog</text>
<text text-anchor="middle" x="521" y="-144" font-family="Helvetica,sans-Serif" font-size="10.00">::keyPressEvent</text>
</a>
</g>
</g>
<!-- Node384&#45;&gt;Node385 -->
<g id="edge4" class="edge"><title>Node384&#45;&gt;Node385</title>
<path fill="none" stroke="midnightblue" d="M431.431,-152C443.736,-152 456.223,-152 467.788,-152"/>
<polygon fill="midnightblue" stroke="midnightblue" points="431.161,-148.5 421.161,-152 431.161,-155.5 431.161,-148.5"/>
</g>
<!-- Node389 -->
<g id="node9" class="node"><title>Node389</title>
<g id="a_node9"><a xlink:href="../../de/d44/class_wallet_view.html#a0a37ff693a4f9c1e5ddc23f9cd3913be" target="_top" xlink:title="Set the wallet model. ">
<polygon fill="white" stroke="black" points="284,-0.5 284,-19.5 424,-19.5 424,-0.5 284,-0.5"/>
<text text-anchor="middle" x="354" y="-7.5" font-family="Helvetica,sans-Serif" font-size="10.00">WalletView::setWalletModel</text>
</a>
</g>
</g>
<!-- Node388&#45;&gt;Node389 -->
<g id="edge8" class="edge"><title>Node388&#45;&gt;Node389</title>
<path fill="none" stroke="midnightblue" d="M258.397,-23.2565C267.149,-22.0301 276.18,-20.7646 285.029,-19.5246"/>
<polygon fill="midnightblue" stroke="midnightblue" points="257.696,-19.8204 248.279,-24.6743 258.668,-26.7527 257.696,-19.8204"/>
</g>
<!-- Node390 -->
<g id="node10" class="node"><title>Node390</title>
<g id="a_node10"><a xlink:href="../../d9/dff/class_wallet_frame.html#aa199c3f27654199d84c365cf86167d86" target="_top" xlink:title="WalletFrame::addWallet">
<polygon fill="white" stroke="black" points="460,-0.5 460,-19.5 582,-19.5 582,-0.5 460,-0.5"/>
<text text-anchor="middle" x="521" y="-7.5" font-family="Helvetica,sans-Serif" font-size="10.00">WalletFrame::addWallet</text>
</a>
</g>
</g>
<!-- Node389&#45;&gt;Node390 -->
<g id="edge9" class="edge"><title>Node389&#45;&gt;Node390</title>
<path fill="none" stroke="midnightblue" d="M434.146,-10C442.813,-10 451.528,-10 459.91,-10"/>
<polygon fill="midnightblue" stroke="midnightblue" points="434.019,-6.5001 424.019,-10 434.019,-13.5001 434.019,-6.5001"/>
</g>
</g>
</svg>
        <g id="navigator" transform="translate(0 0)" fill="#404254">
                <rect fill="#f2f5e9" fill-opacity="0.5" stroke="#606060" stroke-width=".5" x="0" y="0" width="60" height="60"/>
                <use id="zoomplus" xlink:href="#zoomPlus" x="17" y="9" onmousedown="handleZoom(evt,'in')"/>
                <use id="zoomminus" xlink:href="#zoomMin" x="42" y="9" onmousedown="handleZoom(evt,'out')"/>
                <use id="reset" xlink:href="#resetDef" x="30" y="36" onmousedown="handleReset()"/>
                <g id="arrowUp" xlink:href="#dirArrow" transform="translate(30 24)" onmousedown="handlePan(0,-1)">
                  <use xlink:href="#rim" fill="#404040">
                        <set attributeName="fill" to="#808080" begin="arrowUp.mouseover" end="arrowUp.mouseout"/>
                  </use>
                  <path fill="none" stroke="white" stroke-width="1.5" d="M0,-3.0v7 M-2.5,-0.5L0,-3.0L2.5,-0.5"/>
                </g>
                <g id="arrowRight" xlink:href="#dirArrow" transform="rotate(90) translate(36 -43)" onmousedown="handlePan(1,0)">
                  <use xlink:href="#rim" fill="#404040">
                        <set attributeName="fill" to="#808080" begin="arrowRight.mouseover" end="arrowRight.mouseout"/>
                  </use>
                  <path fill="none" stroke="white" stroke-width="1.5" d="M0,-3.0v7 M-2.5,-0.5L0,-3.0L2.5,-0.5"/>
                </g>
                <g id="arrowDown" xlink:href="#dirArrow" transform="rotate(180) translate(-30 -48)" onmousedown="handlePan(0,1)">
                  <use xlink:href="#rim" fill="#404040">
                        <set attributeName="fill" to="#808080" begin="arrowDown.mouseover" end="arrowDown.mouseout"/>
                  </use>
                  <path fill="none" stroke="white" stroke-width="1.5" d="M0,-3.0v7 M-2.5,-0.5L0,-3.0L2.5,-0.5"/>
                </g>
                <g id="arrowLeft" xlink:href="#dirArrow" transform="rotate(270) translate(-36 17)" onmousedown="handlePan(-1,0)">
                  <use xlink:href="#rim" fill="#404040">
                        <set attributeName="fill" to="#808080" begin="arrowLeft.mouseover" end="arrowLeft.mouseout"/>
                  </use>
                  <path fill="none" stroke="white" stroke-width="1.5" d="M0,-3.0v7 M-2.5,-0.5L0,-3.0L2.5,-0.5"/>
                </g>
        </g>
        <svg viewBox="0 0 15 15" width="100%" height="30px" preserveAspectRatio="xMaxYMin meet">
         <g id="arrow_out" transform="scale(0.3 0.3)">
          <a xlink:href="class_receive_coins_dialog_a19eca7743c5326eee821bb8c0af234bb_icgraph_org.svg" target="_base">
           <rect id="button" ry="5" rx="5" y="6" x="6" height="38" width="38"
                fill="#f2f5e9" fill-opacity="0.5" stroke="#606060" stroke-width="1.0"/>
           <path id="arrow"
             d="M 11.500037,31.436501 C 11.940474,20.09759 22.043105,11.32322 32.158766,21.979434 L 37.068811,17.246167 C 37.068811,17.246167 37.088388,32 37.088388,32 L 22.160133,31.978069 C 22.160133,31.978069 26.997745,27.140456 26.997745,27.140456 C 18.528582,18.264221 13.291696,25.230495 11.500037,31.436501 z"
             style="fill:#404040;"/>
          </a>
         </g>
        </svg>
</svg>
