<?xml version="1.0" encoding="UTF-8" standalone="no"?>
<!DOCTYPE svg PUBLIC "-//W3C//DTD SVG 1.1//EN"
 "http://www.w3.org/Graphics/SVG/1.1/DTD/svg11.dtd">
<!-- Generated by graphviz version 2.38.0 (20140413.2041)
 -->
<!-- Title: ReceiveCoinsDialog::on_recentRequestsView_doubleClicked Pages: 1 -->
<svg width="1142pt" height="262pt"
 viewBox="0.00 0.00 1142.00 261.50" xmlns="http://www.w3.org/2000/svg" xmlns:xlink="http://www.w3.org/1999/xlink">
<g id="graph0" class="graph" transform="scale(1 1) rotate(0) translate(4 257.5)">
<title>ReceiveCoinsDialog::on_recentRequestsView_doubleClicked</title>
<polygon fill="white" stroke="none" points="-4,4 -4,-257.5 1138,-257.5 1138,4 -4,4"/>
<!-- Node276 -->
<g id="node1" class="node"><title>Node276</title>
<polygon fill="#bfbfbf" stroke="black" points="0,-129.5 0,-170.5 129,-170.5 129,-129.5 0,-129.5"/>
<text text-anchor="start" x="8" y="-158.5" font-family="Helvetica,sans-Serif" font-size="10.00">ReceiveCoinsDialog</text>
<text text-anchor="start" x="8" y="-147.5" font-family="Helvetica,sans-Serif" font-size="10.00">::on_recentRequestsView</text>
<text text-anchor="middle" x="64.5" y="-136.5" font-family="Helvetica,sans-Serif" font-size="10.00">_doubleClicked</text>
</g>
<!-- Node277 -->
<g id="node2" class="node"><title>Node277</title>
<g id="a_node2"><a xlink:href="../../d1/d08/class_recent_requests_table_model.html#a6d0dead09080f7f8201a3feff0c30bb7" target="_top" xlink:title="RecentRequestsTableModel\l::entry">
<polygon fill="white" stroke="black" points="177,-223 177,-253 317,-253 317,-223 177,-223"/>
<text text-anchor="start" x="185" y="-241" font-family="Helvetica,sans-Serif" font-size="10.00">RecentRequestsTableModel</text>
<text text-anchor="middle" x="247" y="-230" font-family="Helvetica,sans-Serif" font-size="10.00">::entry</text>
</a>
</g>
</g>
<!-- Node276&#45;&gt;Node277 -->
<g id="edge1" class="edge"><title>Node276&#45;&gt;Node277</title>
<path fill="none" stroke="midnightblue" d="M93.5214,-170.582C112.854,-184.056 139.562,-201.275 165,-213 170.012,-215.31 175.294,-217.48 180.659,-219.501"/>
<polygon fill="midnightblue" stroke="midnightblue" points="179.771,-222.901 190.365,-222.976 182.13,-216.31 179.771,-222.901"/>
</g>
<!-- Node278 -->
<g id="node3" class="node"><title>Node278</title>
<g id="a_node3"><a xlink:href="../../d4/d27/class_wallet_model.html#a96d53e56b3f8f07537ea2523f7a7d300" target="_top" xlink:title="WalletModel::getOptionsModel">
<polygon fill="white" stroke="black" points="172,-184.5 172,-203.5 322,-203.5 322,-184.5 172,-184.5"/>
<text text-anchor="middle" x="247" y="-191.5" font-family="Helvetica,sans-Serif" font-size="10.00">WalletModel::getOptionsModel</text>
</a>
</g>
</g>
<!-- Node276&#45;&gt;Node278 -->
<g id="edge2" class="edge"><title>Node276&#45;&gt;Node278</title>
<path fill="none" stroke="midnightblue" d="M129.159,-166.153C141.062,-169.129 153.404,-172.183 165,-175 174.685,-177.352 185.033,-179.817 194.984,-182.162"/>
<polygon fill="midnightblue" stroke="midnightblue" points="194.228,-185.58 204.763,-184.46 195.829,-178.765 194.228,-185.58"/>
</g>
<!-- Node279 -->
<g id="node4" class="node"><title>Node279</title>
<g id="a_node4"><a xlink:href="../../d4/d27/class_wallet_model.html#ab13ca64220a1652d63e1e042d3be578f" target="_top" xlink:title="WalletModel::getRecentRequests\lTableModel">
<polygon fill="white" stroke="black" points="165,-135 165,-165 329,-165 329,-135 165,-135"/>
<text text-anchor="start" x="173" y="-153" font-family="Helvetica,sans-Serif" font-size="10.00">WalletModel::getRecentRequests</text>
<text text-anchor="middle" x="247" y="-142" font-family="Helvetica,sans-Serif" font-size="10.00">TableModel</text>
</a>
</g>
</g>
<!-- Node276&#45;&gt;Node279 -->
<g id="edge3" class="edge"><title>Node276&#45;&gt;Node279</title>
<path fill="none" stroke="midnightblue" d="M129.138,-150C137.454,-150 146.102,-150 154.761,-150"/>
<polygon fill="midnightblue" stroke="midnightblue" points="154.914,-153.5 164.914,-150 154.914,-146.5 154.914,-153.5"/>
</g>
<!-- Node280 -->
<g id="node5" class="node"><title>Node280</title>
<g id="a_node5"><a xlink:href="../../de/de0/class_receive_request_dialog.html#a43344270ef71e68ad9c7a931cc0ca9ed" target="_top" xlink:title="ReceiveRequestDialog\l::setInfo">
<polygon fill="white" stroke="black" points="188.5,-86 188.5,-116 305.5,-116 305.5,-86 188.5,-86"/>
<text text-anchor="start" x="196.5" y="-104" font-family="Helvetica,sans-Serif" font-size="10.00">ReceiveRequestDialog</text>
<text text-anchor="middle" x="247" y="-93" font-family="Helvetica,sans-Serif" font-size="10.00">::setInfo</text>
</a>
</g>
</g>
<!-- Node276&#45;&gt;Node280 -->
<g id="edge4" class="edge"><title>Node276&#45;&gt;Node280</title>
<path fill="none" stroke="midnightblue" d="M129.138,-132.724C145.937,-128.164 164.088,-123.237 180.96,-118.656"/>
<polygon fill="midnightblue" stroke="midnightblue" points="181.993,-122.003 190.727,-116.005 180.159,-115.247 181.993,-122.003"/>
</g>
<!-- Node293 -->
<g id="node18" class="node"><title>Node293</title>
<g id="a_node18"><a xlink:href="../../de/de0/class_receive_request_dialog.html#ad57b3bf409346660842360836fd8569d" target="_top" xlink:title="ReceiveRequestDialog\l::setModel">
<polygon fill="white" stroke="black" points="188.5,-37 188.5,-67 305.5,-67 305.5,-37 188.5,-37"/>
<text text-anchor="start" x="196.5" y="-55" font-family="Helvetica,sans-Serif" font-size="10.00">ReceiveRequestDialog</text>
<text text-anchor="middle" x="247" y="-44" font-family="Helvetica,sans-Serif" font-size="10.00">::setModel</text>
</a>
</g>
</g>
<!-- Node276&#45;&gt;Node293 -->
<g id="edge18" class="edge"><title>Node276&#45;&gt;Node293</title>
<path fill="none" stroke="midnightblue" d="M88.4697,-129.211C107.701,-112.758 136.504,-90.2521 165,-76 169.362,-73.8186 173.957,-71.7989 178.651,-69.9359"/>
<polygon fill="midnightblue" stroke="midnightblue" points="180.222,-73.0863 188.383,-66.3299 177.79,-66.5224 180.222,-73.0863"/>
</g>
<!-- Node281 -->
<g id="node6" class="node"><title>Node281</title>
<g id="a_node6"><a xlink:href="../../de/de0/class_receive_request_dialog.html#a8e1c0ee2fbacf42b4dc7ea05986c86c9" target="_top" xlink:title="ReceiveRequestDialog\l::update">
<polygon fill="white" stroke="black" points="365,-61 365,-91 482,-91 482,-61 365,-61"/>
<text text-anchor="start" x="373" y="-79" font-family="Helvetica,sans-Serif" font-size="10.00">ReceiveRequestDialog</text>
<text text-anchor="middle" x="423.5" y="-68" font-family="Helvetica,sans-Serif" font-size="10.00">::update</text>
</a>
</g>
</g>
<!-- Node280&#45;&gt;Node281 -->
<g id="edge5" class="edge"><title>Node280&#45;&gt;Node281</title>
<path fill="none" stroke="midnightblue" d="M305.621,-92.7448C321.406,-90.4834 338.658,-88.0117 354.945,-85.6784"/>
<polygon fill="midnightblue" stroke="midnightblue" points="355.537,-89.1294 364.939,-84.2466 354.544,-82.2002 355.537,-89.1294"/>
</g>
<!-- Node282 -->
<g id="node7" class="node"><title>Node282</title>
<g id="a_node7"><a xlink:href="../../d1/d87/namespace_g_u_i_util.html#ab9d4ba8e8713eebbe4e5eb7cd1ba479e" target="_top" xlink:title="GUIUtil::formatBitcoinURI">
<polygon fill="white" stroke="black" points="706.5,-125.5 706.5,-144.5 837.5,-144.5 837.5,-125.5 706.5,-125.5"/>
<text text-anchor="middle" x="772" y="-132.5" font-family="Helvetica,sans-Serif" font-size="10.00">GUIUtil::formatBitcoinURI</text>
</a>
</g>
</g>
<!-- Node281&#45;&gt;Node282 -->
<g id="edge6" class="edge"><title>Node281&#45;&gt;Node282</title>
<path fill="none" stroke="midnightblue" d="M452.255,-91.1794C470.405,-100.338 494.942,-111.305 518,-117 576.692,-131.496 645.198,-135.621 696.11,-136.329"/>
<polygon fill="midnightblue" stroke="midnightblue" points="696.34,-139.832 706.373,-136.429 696.408,-132.832 696.34,-139.832"/>
</g>
<!-- Node287 -->
<g id="node12" class="node"><title>Node287</title>
<g id="a_node12"><a xlink:href="../../d1/d87/namespace_g_u_i_util.html#a2d4b7f2c11ebc4b97af10bc20d19b1b2" target="_top" xlink:title="GUIUtil::HtmlEscape">
<polygon fill="white" stroke="black" points="536.5,-88.5 536.5,-107.5 646.5,-107.5 646.5,-88.5 536.5,-88.5"/>
<text text-anchor="middle" x="591.5" y="-95.5" font-family="Helvetica,sans-Serif" font-size="10.00">GUIUtil::HtmlEscape</text>
</a>
</g>
</g>
<!-- Node281&#45;&gt;Node287 -->
<g id="edge11" class="edge"><title>Node281&#45;&gt;Node287</title>
<path fill="none" stroke="midnightblue" d="M482.093,-83.6328C496.397,-85.5285 511.815,-87.5718 526.409,-89.506"/>
<polygon fill="midnightblue" stroke="midnightblue" points="525.984,-92.9802 536.357,-90.8244 526.904,-86.0409 525.984,-92.9802"/>
</g>
<!-- Node288 -->
<g id="node13" class="node"><title>Node288</title>
<g id="a_node13"><a xlink:href="../../d3/dd0/class_bitcoin_units.html#a5f4ef08b81386d393a16001bdfef5d56" target="_top" xlink:title="Format as HTML string (with unit) ">
<polygon fill="white" stroke="black" points="529,-39 529,-69 654,-69 654,-39 529,-39"/>
<text text-anchor="start" x="537" y="-57" font-family="Helvetica,sans-Serif" font-size="10.00">BitcoinUnits::formatHtml</text>
<text text-anchor="middle" x="591.5" y="-46" font-family="Helvetica,sans-Serif" font-size="10.00">WithUnit</text>
</a>
</g>
</g>
<!-- Node281&#45;&gt;Node288 -->
<g id="edge12" class="edge"><title>Node281&#45;&gt;Node288</title>
<path fill="none" stroke="midnightblue" d="M482.093,-68.3672C493.871,-66.8062 506.405,-65.1451 518.612,-63.5273"/>
<polygon fill="midnightblue" stroke="midnightblue" points="519.313,-66.9652 528.766,-62.1816 518.393,-60.0258 519.313,-66.9652"/>
</g>
<!-- Node292 -->
<g id="node17" class="node"><title>Node292</title>
<g id="a_node17"><a xlink:href="../../da/d1f/class_options_model.html#a3b6e4d4ef42be3aaba315b8cd14f468e" target="_top" xlink:title="OptionsModel::getDisplayUnit">
<polygon fill="white" stroke="black" points="518,-0.5 518,-19.5 665,-19.5 665,-0.5 518,-0.5"/>
<text text-anchor="middle" x="591.5" y="-7.5" font-family="Helvetica,sans-Serif" font-size="10.00">OptionsModel::getDisplayUnit</text>
</a>
</g>
</g>
<!-- Node281&#45;&gt;Node292 -->
<g id="edge17" class="edge"><title>Node281&#45;&gt;Node292</title>
<path fill="none" stroke="midnightblue" d="M450.832,-60.8935C469.207,-50.8224 494.544,-37.8567 518,-29 524.379,-26.5912 531.185,-24.3723 537.975,-22.3667"/>
<polygon fill="midnightblue" stroke="midnightblue" points="539.184,-25.6625 547.861,-19.5833 537.287,-18.9245 539.184,-25.6625"/>
</g>
<!-- Node283 -->
<g id="node8" class="node"><title>Node283</title>
<g id="a_node8"><a xlink:href="../../d3/dd0/class_bitcoin_units.html#ab07437e5a788c80a82d75e3714bd3925" target="_top" xlink:title="Format as string. ">
<polygon fill="white" stroke="black" points="879,-124.5 879,-143.5 983,-143.5 983,-124.5 879,-124.5"/>
<text text-anchor="middle" x="931" y="-131.5" font-family="Helvetica,sans-Serif" font-size="10.00">BitcoinUnits::format</text>
</a>
</g>
</g>
<!-- Node282&#45;&gt;Node283 -->
<g id="edge7" class="edge"><title>Node282&#45;&gt;Node283</title>
<path fill="none" stroke="midnightblue" d="M837.764,-134.587C848.027,-134.522 858.613,-134.455 868.791,-134.39"/>
<polygon fill="midnightblue" stroke="midnightblue" points="868.829,-137.89 878.806,-134.326 868.784,-130.89 868.829,-137.89"/>
</g>
<!-- Node284 -->
<g id="node9" class="node"><title>Node284</title>
<g id="a_node9"><a xlink:href="../../d3/dd0/class_bitcoin_units.html#a3f0fc21634520ea06c684ba0d7e25f2f" target="_top" xlink:title="Number of decimals left. ">
<polygon fill="white" stroke="black" points="1019,-162.5 1019,-181.5 1134,-181.5 1134,-162.5 1019,-162.5"/>
<text text-anchor="middle" x="1076.5" y="-169.5" font-family="Helvetica,sans-Serif" font-size="10.00">BitcoinUnits::decimals</text>
</a>
</g>
</g>
<!-- Node283&#45;&gt;Node284 -->
<g id="edge8" class="edge"><title>Node283&#45;&gt;Node284</title>
<path fill="none" stroke="midnightblue" d="M968.211,-143.589C986.821,-148.517 1009.7,-154.575 1029.54,-159.829"/>
<polygon fill="midnightblue" stroke="midnightblue" points="1028.74,-163.238 1039.3,-162.414 1030.53,-156.471 1028.74,-163.238"/>
</g>
<!-- Node285 -->
<g id="node10" class="node"><title>Node285</title>
<g id="a_node10"><a xlink:href="../../d3/dd0/class_bitcoin_units.html#ae967b9e6ecbb8f041bfe398d27533b09" target="_top" xlink:title="Number of Satoshis (1e&#45;8) per unit. ">
<polygon fill="white" stroke="black" points="1026,-124.5 1026,-143.5 1127,-143.5 1127,-124.5 1026,-124.5"/>
<text text-anchor="middle" x="1076.5" y="-131.5" font-family="Helvetica,sans-Serif" font-size="10.00">BitcoinUnits::factor</text>
</a>
</g>
</g>
<!-- Node283&#45;&gt;Node285 -->
<g id="edge9" class="edge"><title>Node283&#45;&gt;Node285</title>
<path fill="none" stroke="midnightblue" d="M983.401,-134C993.884,-134 1005,-134 1015.74,-134"/>
<polygon fill="midnightblue" stroke="midnightblue" points="1015.9,-137.5 1025.9,-134 1015.9,-130.5 1015.9,-137.5"/>
</g>
<!-- Node286 -->
<g id="node11" class="node"><title>Node286</title>
<g id="a_node11"><a xlink:href="../../d3/dd0/class_bitcoin_units.html#a81cbc41480adfb600dad79711d336e5f" target="_top" xlink:title="Is unit ID valid? ">
<polygon fill="white" stroke="black" points="1028.5,-86.5 1028.5,-105.5 1124.5,-105.5 1124.5,-86.5 1028.5,-86.5"/>
<text text-anchor="middle" x="1076.5" y="-93.5" font-family="Helvetica,sans-Serif" font-size="10.00">BitcoinUnits::valid</text>
</a>
</g>
</g>
<!-- Node283&#45;&gt;Node286 -->
<g id="edge10" class="edge"><title>Node283&#45;&gt;Node286</title>
<path fill="none" stroke="midnightblue" d="M968.211,-124.411C986.821,-119.483 1009.7,-113.425 1029.54,-108.171"/>
<polygon fill="midnightblue" stroke="midnightblue" points="1030.53,-111.529 1039.3,-105.586 1028.74,-104.762 1030.53,-111.529"/>
</g>
<!-- Node289 -->
<g id="node14" class="node"><title>Node289</title>
<g id="a_node14"><a xlink:href="../../d3/dd0/class_bitcoin_units.html#aef9fb7509257bc84ee459d7f0c663020" target="_top" xlink:title="Format as string (with unit) ">
<polygon fill="white" stroke="black" points="701,-47.5 701,-66.5 843,-66.5 843,-47.5 701,-47.5"/>
<text text-anchor="middle" x="772" y="-54.5" font-family="Helvetica,sans-Serif" font-size="10.00">BitcoinUnits::formatWithUnit</text>
</a>
</g>
</g>
<!-- Node288&#45;&gt;Node289 -->
<g id="edge13" class="edge"><title>Node288&#45;&gt;Node289</title>
<path fill="none" stroke="midnightblue" d="M654.18,-55.0366C665.91,-55.2338 678.345,-55.4428 690.558,-55.648"/>
<polygon fill="midnightblue" stroke="midnightblue" points="690.686,-59.1506 700.744,-55.8192 690.804,-52.1516 690.686,-59.1506"/>
</g>
<!-- Node289&#45;&gt;Node283 -->
<g id="edge14" class="edge"><title>Node289&#45;&gt;Node283</title>
<path fill="none" stroke="midnightblue" d="M792.567,-66.5964C819.832,-79.9683 869.449,-104.303 901.015,-119.784"/>
<polygon fill="midnightblue" stroke="midnightblue" points="899.667,-123.022 910.187,-124.283 902.75,-116.737 899.667,-123.022"/>
</g>
<!-- Node290 -->
<g id="node15" class="node"><title>Node290</title>
<g id="a_node15"><a xlink:href="../../d3/dd0/class_bitcoin_units.html#a4cf46136434ed30728608e67e90a9cbe" target="_top" xlink:title="Short name. ">
<polygon fill="white" stroke="black" points="881,-47.5 881,-66.5 981,-66.5 981,-47.5 881,-47.5"/>
<text text-anchor="middle" x="931" y="-54.5" font-family="Helvetica,sans-Serif" font-size="10.00">BitcoinUnits::name</text>
</a>
</g>
</g>
<!-- Node289&#45;&gt;Node290 -->
<g id="edge15" class="edge"><title>Node289&#45;&gt;Node290</title>
<path fill="none" stroke="midnightblue" d="M843.234,-57C852.488,-57 861.897,-57 870.939,-57"/>
<polygon fill="midnightblue" stroke="midnightblue" points="870.963,-60.5001 880.963,-57 870.963,-53.5001 870.963,-60.5001"/>
</g>
<!-- Node291 -->
<g id="node16" class="node"><title>Node291</title>
<g id="a_node16"><a xlink:href="../../df/dbf/chainparams_8cpp.html#ace5c5b706d71a324a417dd2db394fd4a" target="_top" xlink:title="Return the currently selected parameters. ">
<polygon fill="white" stroke="black" points="1051.5,-47.5 1051.5,-66.5 1101.5,-66.5 1101.5,-47.5 1051.5,-47.5"/>
<text text-anchor="middle" x="1076.5" y="-54.5" font-family="Helvetica,sans-Serif" font-size="10.00">Params</text>
</a>
</g>
</g>
<!-- Node290&#45;&gt;Node291 -->
<g id="edge16" class="edge"><title>Node290&#45;&gt;Node291</title>
<path fill="none" stroke="midnightblue" d="M981.385,-57C1001.08,-57 1023.28,-57 1041.16,-57"/>
<polygon fill="midnightblue" stroke="midnightblue" points="1041.42,-60.5001 1051.42,-57 1041.42,-53.5001 1041.42,-60.5001"/>
</g>
<!-- Node293&#45;&gt;Node281 -->
<g id="edge19" class="edge"><title>Node293&#45;&gt;Node281</title>
<path fill="none" stroke="midnightblue" d="M305.621,-59.925C321.406,-62.0959 338.658,-64.4688 354.945,-66.7088"/>
<polygon fill="midnightblue" stroke="midnightblue" points="354.555,-70.1881 364.939,-68.0833 355.509,-63.2533 354.555,-70.1881"/>
</g>
</g>
</svg>
