<?xml version="1.0" encoding="UTF-8" standalone="no"?>
<!DOCTYPE svg PUBLIC "-//W3C//DTD SVG 1.1//EN"
 "http://www.w3.org/Graphics/SVG/1.1/DTD/svg11.dtd">
<!-- Generated by graphviz version 2.38.0 (20140413.2041)
 -->
<!-- Title: ec_privkey_export_der Pages: 1 -->
<svg width="587pt" height="142pt"
 viewBox="0.00 0.00 587.00 142.00" xmlns="http://www.w3.org/2000/svg" xmlns:xlink="http://www.w3.org/1999/xlink">
<g id="graph0" class="graph" transform="scale(1 1) rotate(0) translate(4 138)">
<title>ec_privkey_export_der</title>
<polygon fill="white" stroke="none" points="-4,4 -4,-138 583,-138 583,4 -4,4"/>
<!-- Node22 -->
<g id="node1" class="node"><title>Node22</title>
<polygon fill="#bfbfbf" stroke="black" points="0,-38.5 0,-57.5 115,-57.5 115,-38.5 0,-38.5"/>
<text text-anchor="middle" x="57.5" y="-45.5" font-family="Helvetica,sans-Serif" font-size="10.00">ec_privkey_export_der</text>
</g>
<!-- Node23 -->
<g id="node2" class="node"><title>Node23</title>
<g id="a_node2"><a xlink:href="../../d2/d63/class_c_key.html#a91b6ecf71cc16e0b05ce79ec9276e729" target="_top" xlink:title="Convert the private key to a CPrivKey (serialized OpenSSL private key data). ">
<polygon fill="white" stroke="black" points="163,-76.5 163,-95.5 261,-95.5 261,-76.5 163,-76.5"/>
<text text-anchor="middle" x="212" y="-83.5" font-family="Helvetica,sans-Serif" font-size="10.00">CKey::GetPrivKey</text>
</a>
</g>
</g>
<!-- Node22&#45;&gt;Node23 -->
<g id="edge1" class="edge"><title>Node22&#45;&gt;Node23</title>
<path fill="none" stroke="midnightblue" d="M106.818,-60.04C128.123,-65.3488 152.804,-71.4988 172.795,-76.4799"/>
<polygon fill="midnightblue" stroke="midnightblue" points="107.532,-56.6108 96.9822,-57.589 105.839,-63.4031 107.532,-56.6108"/>
</g>
<!-- Node28 -->
<g id="node7" class="node"><title>Node28</title>
<g id="a_node7"><a xlink:href="../../d5/d7f/tests_8c.html#abbcb27d1eb13654db9b2e281ffce021e" target="_top" xlink:title="test_ecdsa_edge_cases">
<polygon fill="white" stroke="black" points="151,-38.5 151,-57.5 273,-57.5 273,-38.5 151,-38.5"/>
<text text-anchor="middle" x="212" y="-45.5" font-family="Helvetica,sans-Serif" font-size="10.00">test_ecdsa_edge_cases</text>
</a>
</g>
</g>
<!-- Node22&#45;&gt;Node28 -->
<g id="edge6" class="edge"><title>Node22&#45;&gt;Node28</title>
<path fill="none" stroke="midnightblue" d="M125.479,-48C133.922,-48 142.519,-48 150.848,-48"/>
<polygon fill="midnightblue" stroke="midnightblue" points="125.285,-44.5001 115.285,-48 125.285,-51.5001 125.285,-44.5001"/>
</g>
<!-- Node31 -->
<g id="node10" class="node"><title>Node31</title>
<g id="a_node10"><a xlink:href="../../d5/d7f/tests_8c.html#a3fc9dc1908215215a68690ea1bfa8bcd" target="_top" xlink:title="test_ecdsa_end_to_end">
<polygon fill="white" stroke="black" points="152,-0.5 152,-19.5 272,-19.5 272,-0.5 152,-0.5"/>
<text text-anchor="middle" x="212" y="-7.5" font-family="Helvetica,sans-Serif" font-size="10.00">test_ecdsa_end_to_end</text>
</a>
</g>
</g>
<!-- Node22&#45;&gt;Node31 -->
<g id="edge9" class="edge"><title>Node22&#45;&gt;Node31</title>
<path fill="none" stroke="midnightblue" d="M106.818,-35.96C128.123,-30.6512 152.804,-24.5012 172.795,-19.5201"/>
<polygon fill="midnightblue" stroke="midnightblue" points="105.839,-32.5969 96.9822,-38.411 107.532,-39.3892 105.839,-32.5969"/>
</g>
<!-- Node24 -->
<g id="node3" class="node"><title>Node24</title>
<g id="a_node3"><a xlink:href="../../de/db0/group__map_wallet.html#ga3240da36cd717146296969227a3e0bd5" target="_top" xlink:title="Adds a key to the store, and saves it to disk. ">
<polygon fill="white" stroke="black" points="309,-76.5 309,-95.5 436,-95.5 436,-76.5 309,-76.5"/>
<text text-anchor="middle" x="372.5" y="-83.5" font-family="Helvetica,sans-Serif" font-size="10.00">CWallet::AddKeyPubKey</text>
</a>
</g>
</g>
<!-- Node23&#45;&gt;Node24 -->
<g id="edge2" class="edge"><title>Node23&#45;&gt;Node24</title>
<path fill="none" stroke="midnightblue" d="M271.435,-86C283.592,-86 296.452,-86 308.757,-86"/>
<polygon fill="midnightblue" stroke="midnightblue" points="271.416,-82.5001 261.416,-86 271.416,-89.5001 271.416,-82.5001"/>
</g>
<!-- Node25 -->
<g id="node4" class="node"><title>Node25</title>
<g id="a_node4"><a xlink:href="../../dc/dbf/rpcdump_8cpp.html#ace3f8652191a347b888627b8e0a1d17c" target="_top" xlink:title="importprivkey">
<polygon fill="white" stroke="black" points="488,-114.5 488,-133.5 563,-133.5 563,-114.5 488,-114.5"/>
<text text-anchor="middle" x="525.5" y="-121.5" font-family="Helvetica,sans-Serif" font-size="10.00">importprivkey</text>
</a>
</g>
</g>
<!-- Node24&#45;&gt;Node25 -->
<g id="edge3" class="edge"><title>Node24&#45;&gt;Node25</title>
<path fill="none" stroke="midnightblue" d="M421.534,-98.088C443.051,-103.503 468.014,-109.785 487.971,-114.807"/>
<polygon fill="midnightblue" stroke="midnightblue" points="422.156,-94.6354 411.604,-95.589 420.447,-101.424 422.156,-94.6354"/>
</g>
<!-- Node26 -->
<g id="node5" class="node"><title>Node26</title>
<g id="a_node5"><a xlink:href="../../dc/dbf/rpcdump_8cpp.html#a71dce63ec2a80b836bab5f31fef8da46" target="_top" xlink:title="importwallet">
<polygon fill="white" stroke="black" points="491,-76.5 491,-95.5 560,-95.5 560,-76.5 491,-76.5"/>
<text text-anchor="middle" x="525.5" y="-83.5" font-family="Helvetica,sans-Serif" font-size="10.00">importwallet</text>
</a>
</g>
</g>
<!-- Node24&#45;&gt;Node26 -->
<g id="edge4" class="edge"><title>Node24&#45;&gt;Node26</title>
<path fill="none" stroke="midnightblue" d="M446.348,-86C461.827,-86 477.454,-86 490.623,-86"/>
<polygon fill="midnightblue" stroke="midnightblue" points="446.226,-82.5001 436.226,-86 446.226,-89.5001 446.226,-82.5001"/>
</g>
<!-- Node27 -->
<g id="node6" class="node"><title>Node27</title>
<g id="a_node6"><a xlink:href="../../dc/dbf/rpcdump_8cpp.html#accfe82c51846b7751eaae727e7f56631" target="_top" xlink:title="importelectrumwallet">
<polygon fill="white" stroke="black" points="472,-38.5 472,-57.5 579,-57.5 579,-38.5 472,-38.5"/>
<text text-anchor="middle" x="525.5" y="-45.5" font-family="Helvetica,sans-Serif" font-size="10.00">importelectrumwallet</text>
</a>
</g>
</g>
<!-- Node24&#45;&gt;Node27 -->
<g id="edge5" class="edge"><title>Node24&#45;&gt;Node27</title>
<path fill="none" stroke="midnightblue" d="M421.343,-73.96C442.439,-68.6512 466.877,-62.5012 486.67,-57.5201"/>
<polygon fill="midnightblue" stroke="midnightblue" points="420.447,-70.5763 411.604,-76.411 422.156,-77.3646 420.447,-70.5763"/>
</g>
<!-- Node29 -->
<g id="node8" class="node"><title>Node29</title>
<g id="a_node8"><a xlink:href="../../d5/d7f/tests_8c.html#ad6c8109b62ea1d0ed1b382678a2a08b1" target="_top" xlink:title="run_ecdsa_edge_cases">
<polygon fill="white" stroke="black" points="313,-38.5 313,-57.5 432,-57.5 432,-38.5 313,-38.5"/>
<text text-anchor="middle" x="372.5" y="-45.5" font-family="Helvetica,sans-Serif" font-size="10.00">run_ecdsa_edge_cases</text>
</a>
</g>
</g>
<!-- Node28&#45;&gt;Node29 -->
<g id="edge7" class="edge"><title>Node28&#45;&gt;Node29</title>
<path fill="none" stroke="midnightblue" d="M283.505,-48C293.314,-48 303.304,-48 312.864,-48"/>
<polygon fill="midnightblue" stroke="midnightblue" points="283.374,-44.5001 273.374,-48 283.374,-51.5001 283.374,-44.5001"/>
</g>
<!-- Node30 -->
<g id="node9" class="node"><title>Node30</title>
<g id="a_node9"><a xlink:href="../../d5/d7f/tests_8c.html#a3c04138a5bfe5d72780bb7e82a18e627" target="_top" xlink:title="main">
<polygon fill="white" stroke="black" points="506.5,-0.5 506.5,-19.5 544.5,-19.5 544.5,-0.5 506.5,-0.5"/>
<text text-anchor="middle" x="525.5" y="-7.5" font-family="Helvetica,sans-Serif" font-size="10.00">main</text>
</a>
</g>
</g>
<!-- Node29&#45;&gt;Node30 -->
<g id="edge8" class="edge"><title>Node29&#45;&gt;Node30</title>
<path fill="none" stroke="midnightblue" d="M421.492,-35.9224C450.271,-28.6801 485.227,-19.8832 506.126,-14.6239"/>
<polygon fill="midnightblue" stroke="midnightblue" points="420.447,-32.5763 411.604,-38.411 422.156,-39.3646 420.447,-32.5763"/>
</g>
<!-- Node32 -->
<g id="node11" class="node"><title>Node32</title>
<g id="a_node11"><a xlink:href="../../d5/d7f/tests_8c.html#ab05096657be701bf9ca8616475bb9491" target="_top" xlink:title="run_ecdsa_end_to_end">
<polygon fill="white" stroke="black" points="314,-0.5 314,-19.5 431,-19.5 431,-0.5 314,-0.5"/>
<text text-anchor="middle" x="372.5" y="-7.5" font-family="Helvetica,sans-Serif" font-size="10.00">run_ecdsa_end_to_end</text>
</a>
</g>
</g>
<!-- Node31&#45;&gt;Node32 -->
<g id="edge10" class="edge"><title>Node31&#45;&gt;Node32</title>
<path fill="none" stroke="midnightblue" d="M282.057,-10C292.632,-10 303.452,-10 313.749,-10"/>
<polygon fill="midnightblue" stroke="midnightblue" points="282.02,-6.5001 272.02,-10 282.02,-13.5001 282.02,-6.5001"/>
</g>
<!-- Node32&#45;&gt;Node30 -->
<g id="edge11" class="edge"><title>Node32&#45;&gt;Node30</title>
<path fill="none" stroke="midnightblue" d="M441.14,-10C464.975,-10 489.866,-10 506.173,-10"/>
<polygon fill="midnightblue" stroke="midnightblue" points="441.017,-6.5001 431.017,-10 441.017,-13.5001 441.017,-6.5001"/>
</g>
</g>
</svg>
