<?xml version="1.0" encoding="UTF-8" standalone="no"?>
<!DOCTYPE svg PUBLIC "-//W3C//DTD SVG 1.1//EN"
 "http://www.w3.org/Graphics/SVG/1.1/DTD/svg11.dtd">
<!-- Generated by graphviz version 2.38.0 (20140413.2041)
 -->
<!-- Title: CTxIn::ToString Pages: 1 -->
<!--zoomable 559 -->
<svg id="main" version="1.1" xmlns="http://www.w3.org/2000/svg" xmlns:xlink="http://www.w3.org/1999/xlink" xml:space="preserve" onload="init(evt)">
<style type="text/css"><![CDATA[
.edge:hover path { stroke: red; }
.edge:hover polygon { stroke: red; fill: red; }
]]></style>
<script type="text/javascript"><![CDATA[
var edges = document.getElementsByTagName('g');
if (edges && edges.length) {
  for (var i=0;i<edges.length;i++) {
    if (edges[i].id.substr(0,4)=='edge') {
      edges[i].setAttribute('class','edge');
    }
  }
}
]]></script>
        <defs>
                <circle id="rim" cx="0" cy="0" r="7"/>
                <circle id="rim2" cx="0" cy="0" r="3.5"/>
                <g id="zoomPlus">
                        <use xlink:href="#rim" fill="#404040">
                                <set attributeName="fill" to="#808080" begin="zoomplus.mouseover" end="zoomplus.mouseout"/>
                        </use>
                        <path d="M-4,0h8M0,-4v8" fill="none" stroke="white" stroke-width="1.5" pointer-events="none"/>
                </g>
                <g id="zoomMin">
                        <use xlink:href="#rim" fill="#404040">
                                <set attributeName="fill" to="#808080" begin="zoomminus.mouseover" end="zoomminus.mouseout"/>
                        </use>
                        <path d="M-4,0h8" fill="none" stroke="white" stroke-width="1.5" pointer-events="none"/>
                </g>
                <g id="dirArrow">
                        <path fill="none" stroke="white" stroke-width="1.5" d="M0,-3.0v7 M-2.5,-0.5L0,-3.0L2.5,-0.5"/>
                </g>
               <g id="resetDef">
                       <use xlink:href="#rim2" fill="#404040">
                               <set attributeName="fill" to="#808080" begin="reset.mouseover" end="reset.mouseout"/>
                       </use>
               </g>
        </defs>

<script type="text/javascript">
var viewWidth = 2450;
var viewHeight = 559;
var sectionId = 'dynsection-3';
</script>
<script xlink:href="../../svgpan.js"/>
<svg id="graph" class="graph">
<g id="viewport">
<title>CTxIn::ToString</title>
<polygon fill="white" stroke="none" points="-4,4 -4,-554.5 2446,-554.5 2446,4 -4,4"/>
<!-- Node14 -->
<g id="node1" class="node"><title>Node14</title>
<polygon fill="#bfbfbf" stroke="black" points="0,-197.5 0,-216.5 86,-216.5 86,-197.5 0,-197.5"/>
<text text-anchor="middle" x="43" y="-204.5" font-family="Helvetica,sans-Serif" font-size="10.00">CTxIn::ToString</text>
</g>
<!-- Node15 -->
<g id="node2" class="node"><title>Node15</title>
<g id="a_node2"><a xlink:href="../../d8/d67/class_c_private_send_server.html#aa1d021f6e9df0817b8bee67bd8c90bdc" target="_top" xlink:title="Add a clients entry to the pool. ">
<polygon fill="white" stroke="black" points="554,-230 554,-260 660,-260 660,-230 554,-230"/>
<text text-anchor="start" x="562" y="-248" font-family="Helvetica,sans-Serif" font-size="10.00">CPrivateSendServer</text>
<text text-anchor="middle" x="607" y="-237" font-family="Helvetica,sans-Serif" font-size="10.00">::AddEntry</text>
</a>
</g>
</g>
<!-- Node14&#45;&gt;Node15 -->
<g id="edge1" class="edge"><title>Node14&#45;&gt;Node15</title>
<path fill="none" stroke="midnightblue" d="M96.2709,-217.332C104.841,-218.752 113.649,-220.047 122,-221 278.52,-238.853 465.015,-243.429 553.894,-244.6"/>
<polygon fill="midnightblue" stroke="midnightblue" points="96.8102,-213.874 86.3605,-215.621 95.619,-220.771 96.8102,-213.874"/>
</g>
<!-- Node16 -->
<g id="node3" class="node"><title>Node16</title>
<g id="a_node3"><a xlink:href="../../d8/d67/class_c_private_send_server.html#ad51576edb65312fa566ba6f0351a7b6d" target="_top" xlink:title="CPrivateSendServer\l::ProcessMessage">
<polygon fill="white" stroke="black" points="740.5,-186 740.5,-216 846.5,-216 846.5,-186 740.5,-186"/>
<text text-anchor="start" x="748.5" y="-204" font-family="Helvetica,sans-Serif" font-size="10.00">CPrivateSendServer</text>
<text text-anchor="middle" x="793.5" y="-193" font-family="Helvetica,sans-Serif" font-size="10.00">::ProcessMessage</text>
</a>
</g>
</g>
<!-- Node14&#45;&gt;Node16 -->
<g id="edge37" class="edge"><title>Node14&#45;&gt;Node16</title>
<path fill="none" stroke="midnightblue" d="M96.3714,-206.58C233.735,-205.479 603.221,-202.517 740.343,-201.418"/>
<polygon fill="midnightblue" stroke="midnightblue" points="96.088,-203.082 86.1165,-206.662 96.1442,-210.082 96.088,-203.082"/>
</g>
<!-- Node29 -->
<g id="node16" class="node"><title>Node29</title>
<g id="a_node16"><a xlink:href="../../de/ddb/class_c_masternode_ping.html#abceb3c43f2596257fec39fa8a4669f93" target="_top" xlink:title="CMasternodePing::CheckSignature">
<polygon fill="white" stroke="black" points="328,-320.5 328,-339.5 498,-339.5 498,-320.5 328,-320.5"/>
<text text-anchor="middle" x="413" y="-327.5" font-family="Helvetica,sans-Serif" font-size="10.00">CMasternodePing::CheckSignature</text>
</a>
</g>
</g>
<!-- Node14&#45;&gt;Node29 -->
<g id="edge16" class="edge"><title>Node14&#45;&gt;Node29</title>
<path fill="none" stroke="midnightblue" d="M53.2444,-225.759C65.5201,-248.414 89.4962,-285.635 122,-303 185.108,-336.715 267.052,-341.408 327.728,-338.861"/>
<polygon fill="midnightblue" stroke="midnightblue" points="56.2903,-224.03 48.5736,-216.771 50.0788,-227.258 56.2903,-224.03"/>
</g>
<!-- Node38 -->
<g id="node25" class="node"><title>Node38</title>
<g id="a_node25"><a xlink:href="../../db/dc3/class_c_darksend_queue.html#a5d672b52114eef6e5cb4b469118f1815" target="_top" xlink:title="Check if we have a valid Masternode address. ">
<polygon fill="white" stroke="black" points="122,-121.5 122,-140.5 292,-140.5 292,-121.5 122,-121.5"/>
<text text-anchor="middle" x="207" y="-128.5" font-family="Helvetica,sans-Serif" font-size="10.00">CDarksendQueue::CheckSignature</text>
</a>
</g>
</g>
<!-- Node14&#45;&gt;Node38 -->
<g id="edge27" class="edge"><title>Node14&#45;&gt;Node38</title>
<path fill="none" stroke="midnightblue" d="M63.846,-191.246C79.0301,-179.838 100.884,-164.765 122,-155 134.803,-149.08 149.389,-144.293 162.774,-140.599"/>
<polygon fill="midnightblue" stroke="midnightblue" points="61.5352,-188.608 55.7325,-197.472 65.7967,-194.161 61.5352,-188.608"/>
</g>
<!-- Node39 -->
<g id="node26" class="node"><title>Node39</title>
<g id="a_node26"><a xlink:href="../../db/dc3/class_c_darksend_queue.html#a8bc4c6d19ac1aca978cfe4342be729ed" target="_top" xlink:title="Sign this mixing transaction. ">
<polygon fill="white" stroke="black" points="353,-128.5 353,-147.5 473,-147.5 473,-128.5 353,-128.5"/>
<text text-anchor="middle" x="413" y="-135.5" font-family="Helvetica,sans-Serif" font-size="10.00">CDarksendQueue::Sign</text>
</a>
</g>
</g>
<!-- Node14&#45;&gt;Node39 -->
<g id="edge52" class="edge"><title>Node14&#45;&gt;Node39</title>
<path fill="none" stroke="midnightblue" d="M96.205,-197.212C166.678,-183.998 291.433,-160.606 361.184,-147.528"/>
<polygon fill="midnightblue" stroke="midnightblue" points="95.398,-193.802 86.2143,-199.085 96.688,-200.682 95.398,-193.802"/>
</g>
<!-- Node43 -->
<g id="node30" class="node"><title>Node43</title>
<g id="a_node30"><a xlink:href="../../d8/d67/class_c_private_send_server.html#aa8e1e1e438219f4ddaf9a941e0c400b7" target="_top" xlink:title="Check to make sure a given input matches an input in the pool and its scriptSig is valid...">
<polygon fill="white" stroke="black" points="150,-72 150,-102 264,-102 264,-72 150,-72"/>
<text text-anchor="start" x="158" y="-90" font-family="Helvetica,sans-Serif" font-size="10.00">CPrivateSendServer</text>
<text text-anchor="middle" x="207" y="-79" font-family="Helvetica,sans-Serif" font-size="10.00">::IsInputScriptSigValid</text>
</a>
</g>
</g>
<!-- Node14&#45;&gt;Node43 -->
<g id="edge34" class="edge"><title>Node14&#45;&gt;Node43</title>
<path fill="none" stroke="midnightblue" d="M54.4702,-188.494C67.559,-167.006 91.9405,-131.966 122,-112 130.365,-106.444 140,-102.091 149.694,-98.6899"/>
<polygon fill="midnightblue" stroke="midnightblue" points="51.336,-186.919 49.2712,-197.311 57.3656,-190.475 51.336,-186.919"/>
</g>
<!-- Node45 -->
<g id="node32" class="node"><title>Node45</title>
<g id="a_node32"><a xlink:href="../../de/ddb/class_c_masternode_ping.html#aec087812841840e98833673a88abcf07" target="_top" xlink:title="CMasternodePing::Sign">
<polygon fill="white" stroke="black" points="147,-363.5 147,-382.5 267,-382.5 267,-363.5 147,-363.5"/>
<text text-anchor="middle" x="207" y="-370.5" font-family="Helvetica,sans-Serif" font-size="10.00">CMasternodePing::Sign</text>
</a>
</g>
</g>
<!-- Node14&#45;&gt;Node45 -->
<g id="edge38" class="edge"><title>Node14&#45;&gt;Node45</title>
<path fill="none" stroke="midnightblue" d="M50.161,-226.276C60.4597,-255.535 83.8804,-311.117 122,-343 133.166,-352.339 147.457,-358.864 161.073,-363.383"/>
<polygon fill="midnightblue" stroke="midnightblue" points="53.4704,-225.136 46.9575,-216.78 46.8377,-227.374 53.4704,-225.136"/>
</g>
<!-- Node54 -->
<g id="node41" class="node"><title>Node54</title>
<g id="a_node41"><a xlink:href="../../de/d8f/class_c_masternode_broadcast.html#a614b26e3fa8e0151889ce4fc0bebd88e" target="_top" xlink:title="CMasternodeBroadcast\l::SimpleCheck">
<polygon fill="white" stroke="black" points="926,-269 926,-299 1045,-299 1045,-269 926,-269"/>
<text text-anchor="start" x="934" y="-287" font-family="Helvetica,sans-Serif" font-size="10.00">CMasternodeBroadcast</text>
<text text-anchor="middle" x="985.5" y="-276" font-family="Helvetica,sans-Serif" font-size="10.00">::SimpleCheck</text>
</a>
</g>
</g>
<!-- Node14&#45;&gt;Node54 -->
<g id="edge53" class="edge"><title>Node14&#45;&gt;Node54</title>
<path fill="none" stroke="midnightblue" d="M70.8134,-221.128C85.5595,-228.357 104.389,-236.721 122,-242 247.073,-279.491 281.429,-289 412,-289 412,-289 412,-289 608,-289 720.437,-289 851.745,-286.743 925.81,-285.262"/>
<polygon fill="midnightblue" stroke="midnightblue" points="72.274,-217.945 61.7666,-216.586 69.1331,-224.201 72.274,-217.945"/>
</g>
<!-- Node55 -->
<g id="node42" class="node"><title>Node55</title>
<g id="a_node42"><a xlink:href="../../d7/d92/class_c_governance_vote.html#a314eca2515aed859da2a0e684d53fc54" target="_top" xlink:title="CGovernanceVote::ToString">
<polygon fill="white" stroke="black" points="137,-33.5 137,-52.5 277,-52.5 277,-33.5 137,-33.5"/>
<text text-anchor="middle" x="207" y="-40.5" font-family="Helvetica,sans-Serif" font-size="10.00">CGovernanceVote::ToString</text>
</a>
</g>
</g>
<!-- Node14&#45;&gt;Node55 -->
<g id="edge55" class="edge"><title>Node14&#45;&gt;Node55</title>
<path fill="none" stroke="midnightblue" d="M48.8026,-187.652C57.6601,-156.179 79.6553,-94.1811 122,-62 127,-58.2003 132.62,-55.136 138.522,-52.668"/>
<polygon fill="midnightblue" stroke="midnightblue" points="45.3946,-186.849 46.2056,-197.413 52.1592,-188.649 45.3946,-186.849"/>
</g>
<!-- Node15&#45;&gt;Node16 -->
<g id="edge2" class="edge"><title>Node15&#45;&gt;Node16</title>
<path fill="none" stroke="midnightblue" d="M670.28,-230.147C693.037,-224.72 718.524,-218.642 740.312,-213.446"/>
<polygon fill="midnightblue" stroke="midnightblue" points="669.292,-226.785 660.377,-232.509 670.916,-233.594 669.292,-226.785"/>
</g>
<!-- Node17 -->
<g id="node4" class="node"><title>Node17</title>
<g id="a_node4"><a xlink:href="../../d2/d83/net__processing_8cpp.html#a193d0ece6e2f2f7ee37352ac9720bb83" target="_top" xlink:title="ProcessMessage">
<polygon fill="white" stroke="black" points="1513,-249.5 1513,-268.5 1605,-268.5 1605,-249.5 1513,-249.5"/>
<text text-anchor="middle" x="1559" y="-256.5" font-family="Helvetica,sans-Serif" font-size="10.00">ProcessMessage</text>
</a>
</g>
</g>
<!-- Node16&#45;&gt;Node17 -->
<g id="edge3" class="edge"><title>Node16&#45;&gt;Node17</title>
<path fill="none" stroke="midnightblue" d="M857.06,-205.752C1006.78,-217.126 1382.91,-245.699 1512.94,-255.577"/>
<polygon fill="midnightblue" stroke="midnightblue" points="856.914,-202.231 846.678,-204.964 856.384,-209.211 856.914,-202.231"/>
</g>
<!-- Node18 -->
<g id="node5" class="node"><title>Node18</title>
<g id="a_node5"><a xlink:href="../../d0/dd8/net__processing_8h.html#a7fa42e7ffd6e6ba5b7537af248e30fc8" target="_top" xlink:title="Process protocol messages received from a given node. ">
<polygon fill="white" stroke="black" points="1674.5,-249.5 1674.5,-268.5 1772.5,-268.5 1772.5,-249.5 1674.5,-249.5"/>
<text text-anchor="middle" x="1723.5" y="-256.5" font-family="Helvetica,sans-Serif" font-size="10.00">ProcessMessages</text>
</a>
</g>
</g>
<!-- Node17&#45;&gt;Node18 -->
<g id="edge4" class="edge"><title>Node17&#45;&gt;Node18</title>
<path fill="none" stroke="midnightblue" d="M1615.36,-259C1634.52,-259 1655.82,-259 1674.35,-259"/>
<polygon fill="midnightblue" stroke="midnightblue" points="1615.27,-255.5 1605.27,-259 1615.27,-262.5 1615.27,-255.5"/>
</g>
<!-- Node19 -->
<g id="node6" class="node"><title>Node19</title>
<g id="a_node6"><a xlink:href="../../d0/dd8/net__processing_8h.html#ab02615ff65f91d69f8d786ec900baa8a" target="_top" xlink:title="Register with a network node to receive its signals. ">
<polygon fill="white" stroke="black" points="1828,-252.5 1828,-271.5 1937,-271.5 1937,-252.5 1828,-252.5"/>
<text text-anchor="middle" x="1882.5" y="-259.5" font-family="Helvetica,sans-Serif" font-size="10.00">RegisterNodeSignals</text>
</a>
</g>
</g>
<!-- Node18&#45;&gt;Node19 -->
<g id="edge5" class="edge"><title>Node18&#45;&gt;Node19</title>
<path fill="none" stroke="midnightblue" d="M1782.88,-260.116C1797.6,-260.397 1813.33,-260.697 1827.8,-260.974"/>
<polygon fill="midnightblue" stroke="midnightblue" points="1782.95,-256.616 1772.89,-259.925 1782.82,-263.615 1782.95,-256.616"/>
</g>
<!-- Node24 -->
<g id="node11" class="node"><title>Node24</title>
<g id="a_node11"><a xlink:href="../../d0/dd8/net__processing_8h.html#a3ef0cc6e9d9d6435ee2a5569244d6ebd" target="_top" xlink:title="Unregister a network node. ">
<polygon fill="white" stroke="black" points="1824,-154.5 1824,-173.5 1941,-173.5 1941,-154.5 1824,-154.5"/>
<text text-anchor="middle" x="1882.5" y="-161.5" font-family="Helvetica,sans-Serif" font-size="10.00">UnregisterNodeSignals</text>
</a>
</g>
</g>
<!-- Node18&#45;&gt;Node24 -->
<g id="edge10" class="edge"><title>Node18&#45;&gt;Node24</title>
<path fill="none" stroke="midnightblue" d="M1749.32,-243.981C1781.89,-224.273 1838.12,-190.248 1865.54,-173.657"/>
<polygon fill="midnightblue" stroke="midnightblue" points="1747.16,-241.197 1740.42,-249.368 1750.79,-247.186 1747.16,-241.197"/>
</g>
<!-- Node20 -->
<g id="node7" class="node"><title>Node20</title>
<g id="a_node7"><a xlink:href="../../d8/dc0/init_8h.html#a6f0784aa332573f949b0975205572b28" target="_top" xlink:title="Initialize Dash Core. ">
<polygon fill="white" stroke="black" points="1997.5,-254.5 1997.5,-273.5 2050.5,-273.5 2050.5,-254.5 1997.5,-254.5"/>
<text text-anchor="middle" x="2024" y="-261.5" font-family="Helvetica,sans-Serif" font-size="10.00">AppInit2</text>
</a>
</g>
</g>
<!-- Node19&#45;&gt;Node20 -->
<g id="edge6" class="edge"><title>Node19&#45;&gt;Node20</title>
<path fill="none" stroke="midnightblue" d="M1947.37,-262.916C1965.09,-263.17 1983.32,-263.431 1997.44,-263.634"/>
<polygon fill="midnightblue" stroke="midnightblue" points="1947.08,-259.411 1937.04,-262.768 1946.98,-266.411 1947.08,-259.411"/>
</g>
<!-- Node21 -->
<g id="node8" class="node"><title>Node21</title>
<g id="a_node8"><a xlink:href="../../dd/de1/dashd_8cpp.html#ac59316b767e6984e1285f0531275286b" target="_top" xlink:title="AppInit">
<polygon fill="white" stroke="black" points="2286.5,-225.5 2286.5,-244.5 2333.5,-244.5 2333.5,-225.5 2286.5,-225.5"/>
<text text-anchor="middle" x="2310" y="-232.5" font-family="Helvetica,sans-Serif" font-size="10.00">AppInit</text>
</a>
</g>
</g>
<!-- Node20&#45;&gt;Node21 -->
<g id="edge7" class="edge"><title>Node20&#45;&gt;Node21</title>
<path fill="none" stroke="midnightblue" d="M2060.94,-263.714C2099.43,-263.036 2162.26,-260.858 2216,-254 2240.19,-250.913 2267.5,-245.045 2286.23,-240.643"/>
<polygon fill="midnightblue" stroke="midnightblue" points="2060.7,-260.217 2050.75,-263.868 2060.8,-267.216 2060.7,-260.217"/>
</g>
<!-- Node23 -->
<g id="node10" class="node"><title>Node23</title>
<g id="a_node10"><a xlink:href="../../d2/d76/class_bitcoin_core.html#af34ca069cda1d4362dcc109b4397fb62" target="_top" xlink:title="BitcoinCore::initialize">
<polygon fill="white" stroke="black" points="2107,-225.5 2107,-244.5 2216,-244.5 2216,-225.5 2107,-225.5"/>
<text text-anchor="middle" x="2161.5" y="-232.5" font-family="Helvetica,sans-Serif" font-size="10.00">BitcoinCore::initialize</text>
</a>
</g>
</g>
<!-- Node20&#45;&gt;Node23 -->
<g id="edge9" class="edge"><title>Node20&#45;&gt;Node23</title>
<path fill="none" stroke="midnightblue" d="M2060.82,-256.335C2077.69,-252.724 2097.99,-248.379 2115.85,-244.556"/>
<polygon fill="midnightblue" stroke="midnightblue" points="2059.85,-252.962 2050.81,-258.477 2061.32,-259.807 2059.85,-252.962"/>
</g>
<!-- Node22 -->
<g id="node9" class="node"><title>Node22</title>
<g id="a_node9"><a xlink:href="../../dd/de1/dashd_8cpp.html#a0ddf1224851353fc92bfbff6f499fa97" target="_top" xlink:title="main">
<polygon fill="white" stroke="black" points="2404,-225.5 2404,-244.5 2442,-244.5 2442,-225.5 2404,-225.5"/>
<text text-anchor="middle" x="2423" y="-232.5" font-family="Helvetica,sans-Serif" font-size="10.00">main</text>
</a>
</g>
</g>
<!-- Node21&#45;&gt;Node22 -->
<g id="edge8" class="edge"><title>Node21&#45;&gt;Node22</title>
<path fill="none" stroke="midnightblue" d="M2343.77,-235C2363.33,-235 2387.46,-235 2403.7,-235"/>
<polygon fill="midnightblue" stroke="midnightblue" points="2343.73,-231.5 2333.73,-235 2343.73,-238.5 2343.73,-231.5"/>
</g>
<!-- Node25 -->
<g id="node12" class="node"><title>Node25</title>
<g id="a_node12"><a xlink:href="../../d8/dc0/init_8h.html#a5cb3db83cb0ba2e421f651a1ee1f2cfe" target="_top" xlink:title="Preparing steps before shutting down or restarting the wallet. ">
<polygon fill="white" stroke="black" points="1977,-154.5 1977,-173.5 2071,-173.5 2071,-154.5 1977,-154.5"/>
<text text-anchor="middle" x="2024" y="-161.5" font-family="Helvetica,sans-Serif" font-size="10.00">PrepareShutdown</text>
</a>
</g>
</g>
<!-- Node24&#45;&gt;Node25 -->
<g id="edge11" class="edge"><title>Node24&#45;&gt;Node25</title>
<path fill="none" stroke="midnightblue" d="M1951.13,-164C1959.77,-164 1968.45,-164 1976.65,-164"/>
<polygon fill="midnightblue" stroke="midnightblue" points="1951.05,-160.5 1941.05,-164 1951.05,-167.5 1951.05,-160.5"/>
</g>
<!-- Node26 -->
<g id="node13" class="node"><title>Node26</title>
<g id="a_node13"><a xlink:href="../../d2/d76/class_bitcoin_core.html#ac2271844c89ebc4c611e7617ce6202e3" target="_top" xlink:title="BitcoinCore::restart">
<polygon fill="white" stroke="black" points="2111,-187.5 2111,-206.5 2212,-206.5 2212,-187.5 2111,-187.5"/>
<text text-anchor="middle" x="2161.5" y="-194.5" font-family="Helvetica,sans-Serif" font-size="10.00">BitcoinCore::restart</text>
</a>
</g>
</g>
<!-- Node25&#45;&gt;Node26 -->
<g id="edge12" class="edge"><title>Node25&#45;&gt;Node26</title>
<path fill="none" stroke="midnightblue" d="M2074.16,-175.973C2089.7,-179.758 2106.66,-183.887 2121.4,-187.476"/>
<polygon fill="midnightblue" stroke="midnightblue" points="2074.74,-172.511 2064.19,-173.545 2073.08,-179.312 2074.74,-172.511"/>
</g>
<!-- Node27 -->
<g id="node14" class="node"><title>Node27</title>
<g id="a_node14"><a xlink:href="../../d8/dc0/init_8h.html#ac5f038c2b480cf9ef5e19e3eba8dbaf9" target="_top" xlink:title="Shutdown is split into 2 parts: Part 1: shut down everything but the main wallet instance (done in Pr...">
<polygon fill="white" stroke="black" points="2131.5,-149.5 2131.5,-168.5 2191.5,-168.5 2191.5,-149.5 2131.5,-149.5"/>
<text text-anchor="middle" x="2161.5" y="-156.5" font-family="Helvetica,sans-Serif" font-size="10.00">Shutdown</text>
</a>
</g>
</g>
<!-- Node25&#45;&gt;Node27 -->
<g id="edge13" class="edge"><title>Node25&#45;&gt;Node27</title>
<path fill="none" stroke="midnightblue" d="M2081.25,-161.924C2098.5,-161.288 2116.76,-160.614 2131.41,-160.073"/>
<polygon fill="midnightblue" stroke="midnightblue" points="2081.12,-158.427 2071.25,-162.293 2081.37,-165.422 2081.12,-158.427"/>
</g>
<!-- Node27&#45;&gt;Node21 -->
<g id="edge14" class="edge"><title>Node27&#45;&gt;Node21</title>
<path fill="none" stroke="midnightblue" d="M2201.17,-171.646C2206.23,-173.614 2211.28,-175.748 2216,-178 2245.56,-192.119 2277.64,-213.186 2295.33,-225.362"/>
<polygon fill="midnightblue" stroke="midnightblue" points="2202.14,-168.271 2191.55,-168.077 2199.71,-174.834 2202.14,-168.271"/>
</g>
<!-- Node28 -->
<g id="node15" class="node"><title>Node28</title>
<g id="a_node15"><a xlink:href="../../d2/d76/class_bitcoin_core.html#a94f3f4622ba698e321f3a2e0e686129f" target="_top" xlink:title="BitcoinCore::shutdown">
<polygon fill="white" stroke="black" points="2252,-149.5 2252,-168.5 2368,-168.5 2368,-149.5 2252,-149.5"/>
<text text-anchor="middle" x="2310" y="-156.5" font-family="Helvetica,sans-Serif" font-size="10.00">BitcoinCore::shutdown</text>
</a>
</g>
</g>
<!-- Node27&#45;&gt;Node28 -->
<g id="edge15" class="edge"><title>Node27&#45;&gt;Node28</title>
<path fill="none" stroke="midnightblue" d="M2201.97,-159C2217.31,-159 2235.18,-159 2251.88,-159"/>
<polygon fill="midnightblue" stroke="midnightblue" points="2201.79,-155.5 2191.79,-159 2201.79,-162.5 2201.79,-155.5"/>
</g>
<!-- Node30 -->
<g id="node17" class="node"><title>Node30</title>
<g id="a_node17"><a xlink:href="../../de/ddb/class_c_masternode_ping.html#a31094f33b96d13bf21b5609917be5d45" target="_top" xlink:title="CMasternodePing::CheckAnd\lUpdate">
<polygon fill="white" stroke="black" points="534,-318 534,-348 680,-348 680,-318 534,-318"/>
<text text-anchor="start" x="542" y="-336" font-family="Helvetica,sans-Serif" font-size="10.00">CMasternodePing::CheckAnd</text>
<text text-anchor="middle" x="607" y="-325" font-family="Helvetica,sans-Serif" font-size="10.00">Update</text>
</a>
</g>
</g>
<!-- Node29&#45;&gt;Node30 -->
<g id="edge17" class="edge"><title>Node29&#45;&gt;Node30</title>
<path fill="none" stroke="midnightblue" d="M508.287,-331.473C516.889,-331.608 525.51,-331.742 533.872,-331.873"/>
<polygon fill="midnightblue" stroke="midnightblue" points="508.267,-327.973 498.214,-331.316 508.158,-334.972 508.267,-327.973"/>
</g>
<!-- Node31 -->
<g id="node18" class="node"><title>Node31</title>
<g id="a_node18"><a xlink:href="../../d6/dac/class_c_masternode.html#aaa6d2de9c88179cd210f956ec72b1b6b" target="_top" xlink:title="CMasternode::UpdateFromNew\lBroadcast">
<polygon fill="white" stroke="black" points="716,-318 716,-348 871,-348 871,-318 716,-318"/>
<text text-anchor="start" x="724" y="-336" font-family="Helvetica,sans-Serif" font-size="10.00">CMasternode::UpdateFromNew</text>
<text text-anchor="middle" x="793.5" y="-325" font-family="Helvetica,sans-Serif" font-size="10.00">Broadcast</text>
</a>
</g>
</g>
<!-- Node30&#45;&gt;Node31 -->
<g id="edge18" class="edge"><title>Node30&#45;&gt;Node31</title>
<path fill="none" stroke="midnightblue" d="M690.387,-333C698.861,-333 707.448,-333 715.856,-333"/>
<polygon fill="midnightblue" stroke="midnightblue" points="690.125,-329.5 680.125,-333 690.125,-336.5 690.125,-329.5"/>
</g>
<!-- Node32 -->
<g id="node19" class="node"><title>Node32</title>
<g id="a_node19"><a xlink:href="../../de/d8f/class_c_masternode_broadcast.html#a42077f16c601f9804bc3b24fd602993c" target="_top" xlink:title="CMasternodeBroadcast\l::Update">
<polygon fill="white" stroke="black" points="926,-318 926,-348 1045,-348 1045,-318 926,-318"/>
<text text-anchor="start" x="934" y="-336" font-family="Helvetica,sans-Serif" font-size="10.00">CMasternodeBroadcast</text>
<text text-anchor="middle" x="985.5" y="-325" font-family="Helvetica,sans-Serif" font-size="10.00">::Update</text>
</a>
</g>
</g>
<!-- Node31&#45;&gt;Node32 -->
<g id="edge19" class="edge"><title>Node31&#45;&gt;Node32</title>
<path fill="none" stroke="midnightblue" d="M881.567,-333C896.582,-333 911.863,-333 925.896,-333"/>
<polygon fill="midnightblue" stroke="midnightblue" points="881.233,-329.5 871.233,-333 881.233,-336.5 881.233,-329.5"/>
</g>
<!-- Node33 -->
<g id="node20" class="node"><title>Node33</title>
<g id="a_node20"><a xlink:href="../../dc/d6b/class_c_masternode_man.html#a66994623de992c0c4680a95096f3936c" target="_top" xlink:title="Perform complete check and only then update list and maps. ">
<polygon fill="white" stroke="black" points="1100,-315 1100,-345 1247,-345 1247,-315 1100,-315"/>
<text text-anchor="start" x="1108" y="-333" font-family="Helvetica,sans-Serif" font-size="10.00">CMasternodeMan::CheckMnb</text>
<text text-anchor="middle" x="1173.5" y="-322" font-family="Helvetica,sans-Serif" font-size="10.00">AndUpdateMasternodeList</text>
</a>
</g>
</g>
<!-- Node32&#45;&gt;Node33 -->
<g id="edge20" class="edge"><title>Node32&#45;&gt;Node33</title>
<path fill="none" stroke="midnightblue" d="M1055.46,-331.888C1069.92,-331.655 1085.21,-331.408 1099.81,-331.172"/>
<polygon fill="midnightblue" stroke="midnightblue" points="1055.04,-328.394 1045.1,-332.055 1055.15,-335.393 1055.04,-328.394"/>
</g>
<!-- Node34 -->
<g id="node21" class="node"><title>Node34</title>
<g id="a_node21"><a xlink:href="../../dc/d6b/class_c_masternode_man.html#a09302023fe1dca8be33e34d1ece9d27f" target="_top" xlink:title="Check all Masternodes and remove inactive. ">
<polygon fill="white" stroke="black" points="1298,-356 1298,-386 1444,-386 1444,-356 1298,-356"/>
<text text-anchor="start" x="1306" y="-374" font-family="Helvetica,sans-Serif" font-size="10.00">CMasternodeMan::CheckAnd</text>
<text text-anchor="middle" x="1371" y="-363" font-family="Helvetica,sans-Serif" font-size="10.00">Remove</text>
</a>
</g>
</g>
<!-- Node33&#45;&gt;Node34 -->
<g id="edge21" class="edge"><title>Node33&#45;&gt;Node34</title>
<path fill="none" stroke="midnightblue" d="M1256.26,-347.147C1270.23,-350.076 1284.64,-353.099 1298.32,-355.968"/>
<polygon fill="midnightblue" stroke="midnightblue" points="1256.69,-343.661 1246.19,-345.034 1255.26,-350.512 1256.69,-343.661"/>
</g>
<!-- Node36 -->
<g id="node23" class="node"><title>Node36</title>
<g id="a_node23"><a xlink:href="../../d8/dc3/server_8h.html#a7ae813efd78b542bd5e3cddb01174777" target="_top" xlink:title="masternodebroadcast">
<polygon fill="white" stroke="black" points="1316,-317.5 1316,-336.5 1426,-336.5 1426,-317.5 1316,-317.5"/>
<text text-anchor="middle" x="1371" y="-324.5" font-family="Helvetica,sans-Serif" font-size="10.00">masternodebroadcast</text>
</a>
</g>
</g>
<!-- Node33&#45;&gt;Node36 -->
<g id="edge24" class="edge"><title>Node33&#45;&gt;Node36</title>
<path fill="none" stroke="midnightblue" d="M1257.02,-328.734C1276.93,-328.428 1297.71,-328.109 1315.93,-327.83"/>
<polygon fill="midnightblue" stroke="midnightblue" points="1256.96,-325.234 1247.02,-328.887 1257.07,-332.233 1256.96,-325.234"/>
</g>
<!-- Node37 -->
<g id="node24" class="node"><title>Node37</title>
<g id="a_node24"><a xlink:href="../../dc/d6b/class_c_masternode_man.html#ae8534b13438b5a2166854a6d35d99bac" target="_top" xlink:title="CMasternodeMan::ProcessMessage">
<polygon fill="white" stroke="black" points="1283,-274.5 1283,-293.5 1459,-293.5 1459,-274.5 1283,-274.5"/>
<text text-anchor="middle" x="1371" y="-281.5" font-family="Helvetica,sans-Serif" font-size="10.00">CMasternodeMan::ProcessMessage</text>
</a>
</g>
</g>
<!-- Node33&#45;&gt;Node37 -->
<g id="edge25" class="edge"><title>Node33&#45;&gt;Node37</title>
<path fill="none" stroke="midnightblue" d="M1248.5,-312.589C1275.97,-306.124 1306.12,-299.032 1329.5,-293.529"/>
<polygon fill="midnightblue" stroke="midnightblue" points="1247.45,-309.24 1238.51,-314.938 1249.05,-316.054 1247.45,-309.24"/>
</g>
<!-- Node35 -->
<g id="node22" class="node"><title>Node35</title>
<g id="a_node22"><a xlink:href="../../df/d7f/privatesend_8h.html#a8ca12ada145ba86ddcba18018b77db14" target="_top" xlink:title="ThreadCheckPrivateSend">
<polygon fill="white" stroke="black" points="1495,-383.5 1495,-402.5 1623,-402.5 1623,-383.5 1495,-383.5"/>
<text text-anchor="middle" x="1559" y="-390.5" font-family="Helvetica,sans-Serif" font-size="10.00">ThreadCheckPrivateSend</text>
</a>
</g>
</g>
<!-- Node34&#45;&gt;Node35 -->
<g id="edge22" class="edge"><title>Node34&#45;&gt;Node35</title>
<path fill="none" stroke="midnightblue" d="M1454.48,-380.756C1468.06,-382.362 1481.94,-384.003 1494.94,-385.541"/>
<polygon fill="midnightblue" stroke="midnightblue" points="1454.52,-377.236 1444.18,-379.537 1453.7,-384.188 1454.52,-377.236"/>
</g>
<!-- Node35&#45;&gt;Node20 -->
<g id="edge23" class="edge"><title>Node35&#45;&gt;Node20</title>
<path fill="none" stroke="midnightblue" d="M1604.32,-380.65C1699.65,-354.09 1921.64,-292.241 1997.25,-271.176"/>
<polygon fill="midnightblue" stroke="midnightblue" points="1603.12,-377.354 1594.42,-383.409 1604.99,-384.097 1603.12,-377.354"/>
</g>
<!-- Node37&#45;&gt;Node17 -->
<g id="edge26" class="edge"><title>Node37&#45;&gt;Node17</title>
<path fill="none" stroke="midnightblue" d="M1452.87,-273.131C1473.45,-270.365 1494.83,-267.491 1512.9,-265.062"/>
<polygon fill="midnightblue" stroke="midnightblue" points="1452.29,-269.676 1442.85,-274.477 1453.23,-276.614 1452.29,-269.676"/>
</g>
<!-- Node38&#45;&gt;Node39 -->
<g id="edge28" class="edge"><title>Node38&#45;&gt;Node39</title>
<path fill="none" stroke="midnightblue" d="M302.264,-134.235C319.523,-134.827 337.078,-135.429 352.939,-135.973"/>
<polygon fill="midnightblue" stroke="midnightblue" points="302.267,-130.733 292.152,-133.888 302.026,-137.729 302.267,-130.733"/>
</g>
<!-- Node40 -->
<g id="node27" class="node"><title>Node40</title>
<g id="a_node27"><a xlink:href="../../d8/d67/class_c_private_send_server.html#a04967d6d34f32158d6e10ec17936835f" target="_top" xlink:title="CPrivateSendServer\l::CheckForCompleteQueue">
<polygon fill="white" stroke="black" points="725.5,-93 725.5,-123 861.5,-123 861.5,-93 725.5,-93"/>
<text text-anchor="start" x="733.5" y="-111" font-family="Helvetica,sans-Serif" font-size="10.00">CPrivateSendServer</text>
<text text-anchor="middle" x="793.5" y="-100" font-family="Helvetica,sans-Serif" font-size="10.00">::CheckForCompleteQueue</text>
</a>
</g>
</g>
<!-- Node39&#45;&gt;Node40 -->
<g id="edge29" class="edge"><title>Node39&#45;&gt;Node40</title>
<path fill="none" stroke="midnightblue" d="M438.041,-123.212C461.524,-109.698 498.775,-90.6879 534,-83 603.27,-67.8818 684.976,-80.7693 737.704,-92.9614"/>
<polygon fill="midnightblue" stroke="midnightblue" points="436.002,-120.35 429.161,-128.44 439.554,-126.383 436.002,-120.35"/>
</g>
<!-- Node42 -->
<g id="node29" class="node"><title>Node42</title>
<g id="a_node29"><a xlink:href="../../d8/d67/class_c_private_send_server.html#ad22c8603123573ef0831c127477af1bd" target="_top" xlink:title="CPrivateSendServer\l::CreateNewSession">
<polygon fill="white" stroke="black" points="553.5,-142 553.5,-172 660.5,-172 660.5,-142 553.5,-142"/>
<text text-anchor="start" x="561.5" y="-160" font-family="Helvetica,sans-Serif" font-size="10.00">CPrivateSendServer</text>
<text text-anchor="middle" x="607" y="-149" font-family="Helvetica,sans-Serif" font-size="10.00">::CreateNewSession</text>
</a>
</g>
</g>
<!-- Node39&#45;&gt;Node42 -->
<g id="edge32" class="edge"><title>Node39&#45;&gt;Node42</title>
<path fill="none" stroke="midnightblue" d="M483.244,-144.852C506.304,-147.134 531.602,-149.638 553.21,-151.776"/>
<polygon fill="midnightblue" stroke="midnightblue" points="483.469,-141.358 473.173,-143.856 482.78,-148.324 483.469,-141.358"/>
</g>
<!-- Node41 -->
<g id="node28" class="node"><title>Node41</title>
<g id="a_node28"><a xlink:href="../../d1/d5d/privatesend-server_8h.html#a6154ebb1088235a8e702e869eda136ab" target="_top" xlink:title="ThreadCheckPrivateSendServer">
<polygon fill="white" stroke="black" points="907,-145.5 907,-164.5 1064,-164.5 1064,-145.5 907,-145.5"/>
<text text-anchor="middle" x="985.5" y="-152.5" font-family="Helvetica,sans-Serif" font-size="10.00">ThreadCheckPrivateSendServer</text>
</a>
</g>
</g>
<!-- Node40&#45;&gt;Node41 -->
<g id="edge30" class="edge"><title>Node40&#45;&gt;Node41</title>
<path fill="none" stroke="midnightblue" d="M865.072,-125.457C892.437,-132.227 922.704,-139.714 945.92,-145.457"/>
<polygon fill="midnightblue" stroke="midnightblue" points="865.687,-122.004 855.14,-123 864.007,-128.799 865.687,-122.004"/>
</g>
<!-- Node41&#45;&gt;Node20 -->
<g id="edge31" class="edge"><title>Node41&#45;&gt;Node20</title>
<path fill="none" stroke="midnightblue" d="M1043.64,-166.42C1118.33,-180.331 1253.4,-202 1370,-202 1370,-202 1370,-202 1724.5,-202 1827.45,-202 1946.27,-237.789 1997.42,-254.985"/>
<polygon fill="midnightblue" stroke="midnightblue" points="1043.98,-162.923 1033.5,-164.511 1042.68,-169.802 1043.98,-162.923"/>
</g>
<!-- Node42&#45;&gt;Node16 -->
<g id="edge33" class="edge"><title>Node42&#45;&gt;Node16</title>
<path fill="none" stroke="midnightblue" d="M670.721,-171.958C693.348,-177.354 718.625,-183.382 740.26,-188.542"/>
<polygon fill="midnightblue" stroke="midnightblue" points="671.409,-168.524 660.87,-169.609 669.786,-175.333 671.409,-168.524"/>
</g>
<!-- Node44 -->
<g id="node31" class="node"><title>Node44</title>
<g id="a_node31"><a xlink:href="../../d8/d67/class_c_private_send_server.html#a2cba8f4b1c7685a2c5315190100a72d0" target="_top" xlink:title="Add signature to a txin. ">
<polygon fill="white" stroke="black" points="554,-93 554,-123 660,-123 660,-93 554,-93"/>
<text text-anchor="start" x="562" y="-111" font-family="Helvetica,sans-Serif" font-size="10.00">CPrivateSendServer</text>
<text text-anchor="middle" x="607" y="-100" font-family="Helvetica,sans-Serif" font-size="10.00">::AddScriptSig</text>
</a>
</g>
</g>
<!-- Node43&#45;&gt;Node44 -->
<g id="edge35" class="edge"><title>Node43&#45;&gt;Node44</title>
<path fill="none" stroke="midnightblue" d="M274.449,-90.5061C353.032,-94.6525 482.191,-101.467 553.905,-105.251"/>
<polygon fill="midnightblue" stroke="midnightblue" points="274.35,-86.9961 264.18,-89.9642 273.981,-93.9864 274.35,-86.9961"/>
</g>
<!-- Node44&#45;&gt;Node16 -->
<g id="edge36" class="edge"><title>Node44&#45;&gt;Node16</title>
<path fill="none" stroke="midnightblue" d="M667.544,-126.646C671.804,-128.346 675.995,-130.134 680,-132 713.438,-147.577 749.314,-170.852 771.335,-185.982"/>
<polygon fill="midnightblue" stroke="midnightblue" points="668.746,-123.358 658.155,-123.071 666.255,-129.9 668.746,-123.358"/>
</g>
<!-- Node46 -->
<g id="node33" class="node"><title>Node46</title>
<g id="a_node33"><a xlink:href="../../d9/d29/class_c_active_masternode.html#a4307b0f6c795d2ed80993824d458aca0" target="_top" xlink:title="Ping Masternode. ">
<polygon fill="white" stroke="black" points="358,-363 358,-393 468,-393 468,-363 358,-363"/>
<text text-anchor="start" x="366" y="-381" font-family="Helvetica,sans-Serif" font-size="10.00">CActiveMasternode::</text>
<text text-anchor="middle" x="413" y="-370" font-family="Helvetica,sans-Serif" font-size="10.00">SendMasternodePing</text>
</a>
</g>
</g>
<!-- Node45&#45;&gt;Node46 -->
<g id="edge39" class="edge"><title>Node45&#45;&gt;Node46</title>
<path fill="none" stroke="midnightblue" d="M277.267,-374.698C303.511,-375.341 332.988,-376.063 357.665,-376.668"/>
<polygon fill="midnightblue" stroke="midnightblue" points="277.088,-371.192 267.005,-374.446 276.916,-378.19 277.088,-371.192"/>
</g>
<!-- Node47 -->
<g id="node34" class="node"><title>Node47</title>
<g id="a_node34"><a xlink:href="../../d9/d29/class_c_active_masternode.html#aa34e5cadd8539d8be6f7a606aa1407c6" target="_top" xlink:title="Manage state of active Masternode. ">
<polygon fill="white" stroke="black" points="552.5,-367 552.5,-397 661.5,-397 661.5,-367 552.5,-367"/>
<text text-anchor="start" x="560.5" y="-385" font-family="Helvetica,sans-Serif" font-size="10.00">CActiveMasternode::</text>
<text text-anchor="middle" x="607" y="-374" font-family="Helvetica,sans-Serif" font-size="10.00">ManageState</text>
</a>
</g>
</g>
<!-- Node46&#45;&gt;Node47 -->
<g id="edge40" class="edge"><title>Node46&#45;&gt;Node47</title>
<path fill="none" stroke="midnightblue" d="M478.328,-379.34C502.315,-379.84 529.274,-380.402 552.217,-380.88"/>
<polygon fill="midnightblue" stroke="midnightblue" points="478.32,-375.839 468.25,-379.13 478.175,-382.838 478.32,-375.839"/>
</g>
<!-- Node47&#45;&gt;Node31 -->
<g id="edge51" class="edge"><title>Node47&#45;&gt;Node31</title>
<path fill="none" stroke="midnightblue" d="M671.618,-365.104C692.542,-359.547 715.646,-353.411 736.003,-348.005"/>
<polygon fill="midnightblue" stroke="midnightblue" points="670.628,-361.746 661.861,-367.695 672.424,-368.511 670.628,-361.746"/>
</g>
<!-- Node47&#45;&gt;Node33 -->
<g id="edge41" class="edge"><title>Node47&#45;&gt;Node33</title>
<path fill="none" stroke="midnightblue" d="M671.839,-382.292C760.378,-381.837 925.233,-377.878 1064,-357 1082.62,-354.199 1102.71,-349.644 1120.48,-345.067"/>
<polygon fill="midnightblue" stroke="midnightblue" points="671.674,-378.792 661.687,-382.33 671.701,-385.792 671.674,-378.792"/>
</g>
<!-- Node47&#45;&gt;Node35 -->
<g id="edge50" class="edge"><title>Node47&#45;&gt;Node35</title>
<path fill="none" stroke="midnightblue" d="M671.997,-391.043C746.79,-400.813 874.362,-415 984.5,-415 984.5,-415 984.5,-415 1174.5,-415 1287.54,-415 1419.01,-405.355 1494.95,-398.838"/>
<polygon fill="midnightblue" stroke="midnightblue" points="672.173,-387.536 661.801,-389.695 671.256,-394.475 672.173,-387.536"/>
</g>
<!-- Node48 -->
<g id="node35" class="node"><title>Node48</title>
<g id="a_node35"><a xlink:href="../../db/dcd/class_c_masternode_sync.html#aeb86906ef4095e9f55b2d672ad6bf491" target="_top" xlink:title="CMasternodeSync::SwitchTo\lNextAsset">
<polygon fill="white" stroke="black" points="1101,-460 1101,-490 1246,-490 1246,-460 1101,-460"/>
<text text-anchor="start" x="1109" y="-478" font-family="Helvetica,sans-Serif" font-size="10.00">CMasternodeSync::SwitchTo</text>
<text text-anchor="middle" x="1173.5" y="-467" font-family="Helvetica,sans-Serif" font-size="10.00">NextAsset</text>
</a>
</g>
</g>
<!-- Node47&#45;&gt;Node48 -->
<g id="edge42" class="edge"><title>Node47&#45;&gt;Node48</title>
<path fill="none" stroke="midnightblue" d="M645.235,-401.623C665.593,-411.465 691.576,-422.622 716,-429 848.946,-463.719 1010,-472.535 1100.91,-474.592"/>
<polygon fill="midnightblue" stroke="midnightblue" points="646.53,-398.359 636.014,-397.069 643.43,-404.635 646.53,-398.359"/>
</g>
<!-- Node49 -->
<g id="node36" class="node"><title>Node49</title>
<g id="a_node36"><a xlink:href="../../d8/dc3/server_8h.html#a2c332caf1997f143fc4477ca91df441d" target="_top" xlink:title="mnsync">
<polygon fill="white" stroke="black" points="1345.5,-481.5 1345.5,-500.5 1396.5,-500.5 1396.5,-481.5 1345.5,-481.5"/>
<text text-anchor="middle" x="1371" y="-488.5" font-family="Helvetica,sans-Serif" font-size="10.00">mnsync</text>
</a>
</g>
</g>
<!-- Node48&#45;&gt;Node49 -->
<g id="edge43" class="edge"><title>Node48&#45;&gt;Node49</title>
<path fill="none" stroke="midnightblue" d="M1256.46,-481.707C1288.39,-484.321 1322.64,-487.124 1345.07,-488.96"/>
<polygon fill="midnightblue" stroke="midnightblue" points="1256.44,-478.194 1246.19,-480.867 1255.87,-485.171 1256.44,-478.194"/>
</g>
<!-- Node50 -->
<g id="node37" class="node"><title>Node50</title>
<g id="a_node37"><a xlink:href="../../db/dcd/class_c_masternode_sync.html#a3ac3b4bbb888145fb62f28bcf92d1b70" target="_top" xlink:title="CMasternodeSync::ProcessTick">
<polygon fill="white" stroke="black" points="1292,-443.5 1292,-462.5 1450,-462.5 1450,-443.5 1292,-443.5"/>
<text text-anchor="middle" x="1371" y="-450.5" font-family="Helvetica,sans-Serif" font-size="10.00">CMasternodeSync::ProcessTick</text>
</a>
</g>
</g>
<!-- Node48&#45;&gt;Node50 -->
<g id="edge44" class="edge"><title>Node48&#45;&gt;Node50</title>
<path fill="none" stroke="midnightblue" d="M1256.38,-465.786C1268.08,-464.469 1280.1,-463.117 1291.73,-461.808"/>
<polygon fill="midnightblue" stroke="midnightblue" points="1255.73,-462.337 1246.19,-466.933 1256.52,-469.293 1255.73,-462.337"/>
</g>
<!-- Node51 -->
<g id="node38" class="node"><title>Node51</title>
<g id="a_node38"><a xlink:href="../../db/dcd/class_c_masternode_sync.html#a95559186ad41a82fe42fd2cfbffca104" target="_top" xlink:title="CMasternodeSync::Updated\lBlockTip">
<polygon fill="white" stroke="black" points="1301,-520 1301,-550 1441,-550 1441,-520 1301,-520"/>
<text text-anchor="start" x="1309" y="-538" font-family="Helvetica,sans-Serif" font-size="10.00">CMasternodeSync::Updated</text>
<text text-anchor="middle" x="1371" y="-527" font-family="Helvetica,sans-Serif" font-size="10.00">BlockTip</text>
</a>
</g>
</g>
<!-- Node48&#45;&gt;Node51 -->
<g id="edge46" class="edge"><title>Node48&#45;&gt;Node51</title>
<path fill="none" stroke="midnightblue" d="M1229.85,-493.234C1246.86,-498.737 1265.67,-504.716 1283,-510 1293.82,-513.3 1305.44,-516.721 1316.55,-519.934"/>
<polygon fill="midnightblue" stroke="midnightblue" points="1230.65,-489.816 1220.06,-490.058 1228.49,-496.474 1230.65,-489.816"/>
</g>
<!-- Node50&#45;&gt;Node35 -->
<g id="edge45" class="edge"><title>Node50&#45;&gt;Node35</title>
<path fill="none" stroke="midnightblue" d="M1418.77,-440.833C1431.85,-437.231 1446.04,-433.138 1459,-429 1484.61,-420.825 1513.45,-410.168 1533.37,-402.576"/>
<polygon fill="midnightblue" stroke="midnightblue" points="1417.75,-437.483 1409.02,-443.485 1419.59,-444.238 1417.75,-437.483"/>
</g>
<!-- Node52 -->
<g id="node39" class="node"><title>Node52</title>
<g id="a_node39"><a xlink:href="../../d6/dbc/class_c_d_s_notification_interface.html#ac2ced383b75336649c5694e580b18164" target="_top" xlink:title="CDSNotificationInterface\l::UpdatedBlockTip">
<polygon fill="white" stroke="black" points="1496,-482 1496,-512 1622,-512 1622,-482 1496,-482"/>
<text text-anchor="start" x="1504" y="-500" font-family="Helvetica,sans-Serif" font-size="10.00">CDSNotificationInterface</text>
<text text-anchor="middle" x="1559" y="-489" font-family="Helvetica,sans-Serif" font-size="10.00">::UpdatedBlockTip</text>
</a>
</g>
</g>
<!-- Node51&#45;&gt;Node52 -->
<g id="edge47" class="edge"><title>Node51&#45;&gt;Node52</title>
<path fill="none" stroke="midnightblue" d="M1451.42,-518.774C1466.24,-515.746 1481.53,-512.623 1495.74,-509.72"/>
<polygon fill="midnightblue" stroke="midnightblue" points="1450.36,-515.419 1441.26,-520.85 1451.76,-522.278 1450.36,-515.419"/>
</g>
<!-- Node53 -->
<g id="node40" class="node"><title>Node53</title>
<g id="a_node40"><a xlink:href="../../d6/dbc/class_c_d_s_notification_interface.html#a2e9dff307e1373bda9ac9445f7f5a3d7" target="_top" xlink:title="CDSNotificationInterface\l::InitializeCurrentBlockTip">
<polygon fill="white" stroke="black" points="1659,-418 1659,-448 1788,-448 1788,-418 1659,-418"/>
<text text-anchor="start" x="1667" y="-436" font-family="Helvetica,sans-Serif" font-size="10.00">CDSNotificationInterface</text>
<text text-anchor="middle" x="1723.5" y="-425" font-family="Helvetica,sans-Serif" font-size="10.00">::InitializeCurrentBlockTip</text>
</a>
</g>
</g>
<!-- Node52&#45;&gt;Node53 -->
<g id="edge48" class="edge"><title>Node52&#45;&gt;Node53</title>
<path fill="none" stroke="midnightblue" d="M1607.55,-478.273C1632,-468.641 1661.41,-457.06 1684.36,-448.022"/>
<polygon fill="midnightblue" stroke="midnightblue" points="1606.12,-475.074 1598.1,-481.995 1608.69,-481.587 1606.12,-475.074"/>
</g>
<!-- Node53&#45;&gt;Node20 -->
<g id="edge49" class="edge"><title>Node53&#45;&gt;Node20</title>
<path fill="none" stroke="midnightblue" d="M1788.22,-414.918C1833.18,-400.416 1893.61,-377.304 1941,-346 1972.75,-325.028 2002.31,-290.328 2015.61,-273.601"/>
<polygon fill="midnightblue" stroke="midnightblue" points="1787.06,-411.614 1778.58,-417.971 1789.17,-418.288 1787.06,-411.614"/>
</g>
<!-- Node54&#45;&gt;Node33 -->
<g id="edge54" class="edge"><title>Node54&#45;&gt;Node33</title>
<path fill="none" stroke="midnightblue" d="M1054.96,-300.93C1073.53,-305.523 1093.51,-310.464 1111.63,-314.947"/>
<polygon fill="midnightblue" stroke="midnightblue" points="1055.64,-297.495 1045.1,-298.492 1053.96,-304.29 1055.64,-297.495"/>
</g>
<!-- Node56 -->
<g id="node43" class="node"><title>Node56</title>
<g id="a_node43"><a xlink:href="../../d8/dc3/server_8h.html#a0fa637689f8c63fc6adebeb9458430db" target="_top" xlink:title="gobject">
<polygon fill="white" stroke="black" points="389,-38.5 389,-57.5 437,-57.5 437,-38.5 389,-38.5"/>
<text text-anchor="middle" x="413" y="-45.5" font-family="Helvetica,sans-Serif" font-size="10.00">gobject</text>
</a>
</g>
</g>
<!-- Node55&#45;&gt;Node56 -->
<g id="edge56" class="edge"><title>Node55&#45;&gt;Node56</title>
<path fill="none" stroke="midnightblue" d="M287.22,-44.9417C323.665,-45.8349 364.2,-46.8284 388.896,-47.4337"/>
<polygon fill="midnightblue" stroke="midnightblue" points="287.148,-41.4389 277.065,-44.6928 286.976,-48.4368 287.148,-41.4389"/>
</g>
<!-- Node57 -->
<g id="node44" class="node"><title>Node57</title>
<g id="a_node44"><a xlink:href="../../d7/d92/class_c_governance_vote.html#a6f6a2973b21926522fa2f1311d370b94" target="_top" xlink:title="CGovernanceVote::IsValid">
<polygon fill="white" stroke="black" points="346.5,-0.5 346.5,-19.5 479.5,-19.5 479.5,-0.5 346.5,-0.5"/>
<text text-anchor="middle" x="413" y="-7.5" font-family="Helvetica,sans-Serif" font-size="10.00">CGovernanceVote::IsValid</text>
</a>
</g>
</g>
<!-- Node55&#45;&gt;Node57 -->
<g id="edge57" class="edge"><title>Node55&#45;&gt;Node57</title>
<path fill="none" stroke="midnightblue" d="M276.768,-31.8757C301.497,-27.8755 329.151,-23.402 352.977,-19.5479"/>
<polygon fill="midnightblue" stroke="midnightblue" points="276.044,-28.4472 266.732,-33.4993 277.162,-35.3574 276.044,-28.4472"/>
</g>
</g>
</svg>
        <g id="navigator" transform="translate(0 0)" fill="#404254">
                <rect fill="#f2f5e9" fill-opacity="0.5" stroke="#606060" stroke-width=".5" x="0" y="0" width="60" height="60"/>
                <use id="zoomplus" xlink:href="#zoomPlus" x="17" y="9" onmousedown="handleZoom(evt,'in')"/>
                <use id="zoomminus" xlink:href="#zoomMin" x="42" y="9" onmousedown="handleZoom(evt,'out')"/>
                <use id="reset" xlink:href="#resetDef" x="30" y="36" onmousedown="handleReset()"/>
                <g id="arrowUp" xlink:href="#dirArrow" transform="translate(30 24)" onmousedown="handlePan(0,-1)">
                  <use xlink:href="#rim" fill="#404040">
                        <set attributeName="fill" to="#808080" begin="arrowUp.mouseover" end="arrowUp.mouseout"/>
                  </use>
                  <path fill="none" stroke="white" stroke-width="1.5" d="M0,-3.0v7 M-2.5,-0.5L0,-3.0L2.5,-0.5"/>
                </g>
                <g id="arrowRight" xlink:href="#dirArrow" transform="rotate(90) translate(36 -43)" onmousedown="handlePan(1,0)">
                  <use xlink:href="#rim" fill="#404040">
                        <set attributeName="fill" to="#808080" begin="arrowRight.mouseover" end="arrowRight.mouseout"/>
                  </use>
                  <path fill="none" stroke="white" stroke-width="1.5" d="M0,-3.0v7 M-2.5,-0.5L0,-3.0L2.5,-0.5"/>
                </g>
                <g id="arrowDown" xlink:href="#dirArrow" transform="rotate(180) translate(-30 -48)" onmousedown="handlePan(0,1)">
                  <use xlink:href="#rim" fill="#404040">
                        <set attributeName="fill" to="#808080" begin="arrowDown.mouseover" end="arrowDown.mouseout"/>
                  </use>
                  <path fill="none" stroke="white" stroke-width="1.5" d="M0,-3.0v7 M-2.5,-0.5L0,-3.0L2.5,-0.5"/>
                </g>
                <g id="arrowLeft" xlink:href="#dirArrow" transform="rotate(270) translate(-36 17)" onmousedown="handlePan(-1,0)">
                  <use xlink:href="#rim" fill="#404040">
                        <set attributeName="fill" to="#808080" begin="arrowLeft.mouseover" end="arrowLeft.mouseout"/>
                  </use>
                  <path fill="none" stroke="white" stroke-width="1.5" d="M0,-3.0v7 M-2.5,-0.5L0,-3.0L2.5,-0.5"/>
                </g>
        </g>
        <svg viewBox="0 0 15 15" width="100%" height="30px" preserveAspectRatio="xMaxYMin meet">
         <g id="arrow_out" transform="scale(0.3 0.3)">
          <a xlink:href="class_c_tx_in_a9f3dcba8a979ca7007448f8ad1d3c4c1_icgraph_org.svg" target="_base">
           <rect id="button" ry="5" rx="5" y="6" x="6" height="38" width="38"
                fill="#f2f5e9" fill-opacity="0.5" stroke="#606060" stroke-width="1.0"/>
           <path id="arrow"
             d="M 11.500037,31.436501 C 11.940474,20.09759 22.043105,11.32322 32.158766,21.979434 L 37.068811,17.246167 C 37.068811,17.246167 37.088388,32 37.088388,32 L 22.160133,31.978069 C 22.160133,31.978069 26.997745,27.140456 26.997745,27.140456 C 18.528582,18.264221 13.291696,25.230495 11.500037,31.436501 z"
             style="fill:#404040;"/>
          </a>
         </g>
        </svg>
</svg>
