<?xml version="1.0" encoding="UTF-8" standalone="no"?>
<!DOCTYPE svg PUBLIC "-//W3C//DTD SVG 1.1//EN"
 "http://www.w3.org/Graphics/SVG/1.1/DTD/svg11.dtd">
<!-- Generated by graphviz version 2.38.0 (20140413.2041)
 -->
<!-- Title: src/qt/trafficgraphdata.h Pages: 1 -->
<svg width="129pt" height="84pt"
 viewBox="0.00 0.00 128.50 84.00" xmlns="http://www.w3.org/2000/svg" xmlns:xlink="http://www.w3.org/1999/xlink">
<g id="graph0" class="graph" transform="scale(1 1) rotate(0) translate(4 80)">
<title>src/qt/trafficgraphdata.h</title>
<polygon fill="white" stroke="none" points="-4,4 -4,-80 124.5,-80 124.5,4 -4,4"/>
<!-- Node0 -->
<g id="node1" class="node"><title>Node0</title>
<polygon fill="#bfbfbf" stroke="black" points="-7.10543e-15,-56.5 -7.10543e-15,-75.5 120,-75.5 120,-56.5 -7.10543e-15,-56.5"/>
<text text-anchor="middle" x="60" y="-63.5" font-family="Helvetica,sans-Serif" font-size="10.00">src/qt/trafficgraphdata.h</text>
</g>
<!-- Node1 -->
<g id="node2" class="node"><title>Node1</title>
<polygon fill="white" stroke="#bfbfbf" points="2.5,-0.5 2.5,-19.5 49.5,-19.5 49.5,-0.5 2.5,-0.5"/>
<text text-anchor="middle" x="26" y="-7.5" font-family="Helvetica,sans-Serif" font-size="10.00">QHash</text>
</g>
<!-- Node0&#45;&gt;Node1 -->
<g id="edge1" class="edge"><title>Node0&#45;&gt;Node1</title>
<path fill="none" stroke="midnightblue" d="M54.3856,-56.083C49.6326,-48.5341 42.6819,-37.4948 36.8484,-28.2298"/>
<polygon fill="midnightblue" stroke="midnightblue" points="39.7999,-26.3486 31.5099,-19.7511 33.8763,-30.0783 39.7999,-26.3486"/>
</g>
<!-- Node2 -->
<g id="node3" class="node"><title>Node2</title>
<polygon fill="white" stroke="#bfbfbf" points="67.5,-0.5 67.5,-19.5 120.5,-19.5 120.5,-0.5 67.5,-0.5"/>
<text text-anchor="middle" x="94" y="-7.5" font-family="Helvetica,sans-Serif" font-size="10.00">QQueue</text>
</g>
<!-- Node0&#45;&gt;Node2 -->
<g id="edge2" class="edge"><title>Node0&#45;&gt;Node2</title>
<path fill="none" stroke="midnightblue" d="M65.6144,-56.083C70.3674,-48.5341 77.3181,-37.4948 83.1516,-28.2298"/>
<polygon fill="midnightblue" stroke="midnightblue" points="86.1237,-30.0783 88.4901,-19.7511 80.2001,-26.3486 86.1237,-30.0783"/>
</g>
</g>
</svg>
