<?xml version="1.0" encoding="UTF-8" standalone="no"?>
<!DOCTYPE svg PUBLIC "-//W3C//DTD SVG 1.1//EN"
 "http://www.w3.org/Graphics/SVG/1.1/DTD/svg11.dtd">
<!-- Generated by graphviz version 2.38.0 (20140413.2041)
 -->
<!-- Title: TransactionView::updateWatchOnlyColumn Pages: 1 -->
<svg width="666pt" height="39pt"
 viewBox="0.00 0.00 666.00 39.00" xmlns="http://www.w3.org/2000/svg" xmlns:xlink="http://www.w3.org/1999/xlink">
<g id="graph0" class="graph" transform="scale(1 1) rotate(0) translate(4 35)">
<title>TransactionView::updateWatchOnlyColumn</title>
<polygon fill="white" stroke="none" points="-4,4 -4,-35 662,-35 662,4 -4,4"/>
<!-- Node654 -->
<g id="node1" class="node"><title>Node654</title>
<polygon fill="#bfbfbf" stroke="black" points="0,-0.5 0,-30.5 153,-30.5 153,-0.5 0,-0.5"/>
<text text-anchor="start" x="8" y="-18.5" font-family="Helvetica,sans-Serif" font-size="10.00">TransactionView::updateWatch</text>
<text text-anchor="middle" x="76.5" y="-7.5" font-family="Helvetica,sans-Serif" font-size="10.00">OnlyColumn</text>
</g>
<!-- Node655 -->
<g id="node2" class="node"><title>Node655</title>
<g id="a_node2"><a xlink:href="../../d2/d2c/class_transaction_view.html#a4920c2cd57d72eb50248948fa160c83c" target="_top" xlink:title="TransactionView::setModel">
<polygon fill="white" stroke="black" points="189,-6 189,-25 324,-25 324,-6 189,-6"/>
<text text-anchor="middle" x="256.5" y="-13" font-family="Helvetica,sans-Serif" font-size="10.00">TransactionView::setModel</text>
</a>
</g>
</g>
<!-- Node654&#45;&gt;Node655 -->
<g id="edge1" class="edge"><title>Node654&#45;&gt;Node655</title>
<path fill="none" stroke="midnightblue" d="M163.283,-15.5C171.864,-15.5 180.486,-15.5 188.827,-15.5"/>
<polygon fill="midnightblue" stroke="midnightblue" points="163.246,-12.0001 153.246,-15.5 163.246,-19.0001 163.246,-12.0001"/>
</g>
<!-- Node656 -->
<g id="node3" class="node"><title>Node656</title>
<g id="a_node3"><a xlink:href="../../de/d44/class_wallet_view.html#a0a37ff693a4f9c1e5ddc23f9cd3913be" target="_top" xlink:title="Set the wallet model. ">
<polygon fill="white" stroke="black" points="360,-6 360,-25 500,-25 500,-6 360,-6"/>
<text text-anchor="middle" x="430" y="-13" font-family="Helvetica,sans-Serif" font-size="10.00">WalletView::setWalletModel</text>
</a>
</g>
</g>
<!-- Node655&#45;&gt;Node656 -->
<g id="edge2" class="edge"><title>Node655&#45;&gt;Node656</title>
<path fill="none" stroke="midnightblue" d="M334.512,-15.5C342.951,-15.5 351.504,-15.5 359.839,-15.5"/>
<polygon fill="midnightblue" stroke="midnightblue" points="334.297,-12.0001 324.297,-15.5 334.297,-19.0001 334.297,-12.0001"/>
</g>
<!-- Node657 -->
<g id="node4" class="node"><title>Node657</title>
<g id="a_node4"><a xlink:href="../../d9/dff/class_wallet_frame.html#aa199c3f27654199d84c365cf86167d86" target="_top" xlink:title="WalletFrame::addWallet">
<polygon fill="white" stroke="black" points="536,-6 536,-25 658,-25 658,-6 536,-6"/>
<text text-anchor="middle" x="597" y="-13" font-family="Helvetica,sans-Serif" font-size="10.00">WalletFrame::addWallet</text>
</a>
</g>
</g>
<!-- Node656&#45;&gt;Node657 -->
<g id="edge3" class="edge"><title>Node656&#45;&gt;Node657</title>
<path fill="none" stroke="midnightblue" d="M510.146,-15.5C518.813,-15.5 527.528,-15.5 535.91,-15.5"/>
<polygon fill="midnightblue" stroke="midnightblue" points="510.019,-12.0001 500.019,-15.5 510.019,-19.0001 510.019,-12.0001"/>
</g>
</g>
</svg>
