<?xml version="1.0" encoding="UTF-8" standalone="no"?>
<!DOCTYPE svg PUBLIC "-//W3C//DTD SVG 1.1//EN"
 "http://www.w3.org/Graphics/SVG/1.1/DTD/svg11.dtd">
<!-- Generated by graphviz version 2.38.0 (20140413.2041)
 -->
<!-- Title: CPrivateSend::GetDenominationsByAmounts Pages: 1 -->
<!--zoomable 39 -->
<svg id="main" version="1.1" xmlns="http://www.w3.org/2000/svg" xmlns:xlink="http://www.w3.org/1999/xlink" xml:space="preserve" onload="init(evt)">
<style type="text/css"><![CDATA[
.edge:hover path { stroke: red; }
.edge:hover polygon { stroke: red; fill: red; }
]]></style>
<script type="text/javascript"><![CDATA[
var edges = document.getElementsByTagName('g');
if (edges && edges.length) {
  for (var i=0;i<edges.length;i++) {
    if (edges[i].id.substr(0,4)=='edge') {
      edges[i].setAttribute('class','edge');
    }
  }
}
]]></script>
        <defs>
                <circle id="rim" cx="0" cy="0" r="7"/>
                <circle id="rim2" cx="0" cy="0" r="3.5"/>
                <g id="zoomPlus">
                        <use xlink:href="#rim" fill="#404040">
                                <set attributeName="fill" to="#808080" begin="zoomplus.mouseover" end="zoomplus.mouseout"/>
                        </use>
                        <path d="M-4,0h8M0,-4v8" fill="none" stroke="white" stroke-width="1.5" pointer-events="none"/>
                </g>
                <g id="zoomMin">
                        <use xlink:href="#rim" fill="#404040">
                                <set attributeName="fill" to="#808080" begin="zoomminus.mouseover" end="zoomminus.mouseout"/>
                        </use>
                        <path d="M-4,0h8" fill="none" stroke="white" stroke-width="1.5" pointer-events="none"/>
                </g>
                <g id="dirArrow">
                        <path fill="none" stroke="white" stroke-width="1.5" d="M0,-3.0v7 M-2.5,-0.5L0,-3.0L2.5,-0.5"/>
                </g>
               <g id="resetDef">
                       <use xlink:href="#rim2" fill="#404040">
                               <set attributeName="fill" to="#808080" begin="reset.mouseover" end="reset.mouseout"/>
                       </use>
               </g>
        </defs>

<script type="text/javascript">
var viewWidth = 684;
var viewHeight = 39;
var sectionId = 'dynsection-9';
</script>
<script xlink:href="../../svgpan.js"/>
<svg id="graph" class="graph">
<g id="viewport">
<title>CPrivateSend::GetDenominationsByAmounts</title>
<polygon fill="white" stroke="none" points="-4,4 -4,-35 680,-35 680,4 -4,4"/>
<!-- Node181 -->
<g id="node1" class="node"><title>Node181</title>
<polygon fill="#bfbfbf" stroke="black" points="0,-0.5 0,-30.5 164,-30.5 164,-0.5 0,-0.5"/>
<text text-anchor="start" x="8" y="-18.5" font-family="Helvetica,sans-Serif" font-size="10.00">CPrivateSend::GetDenominations</text>
<text text-anchor="middle" x="82" y="-7.5" font-family="Helvetica,sans-Serif" font-size="10.00">ByAmounts</text>
</g>
<!-- Node182 -->
<g id="node2" class="node"><title>Node182</title>
<g id="a_node2"><a xlink:href="../../d8/d27/class_c_private_send.html#a43c11671576bb701a8fb0a2dcc7ab855" target="_top" xlink:title="Get the denominations for a list of outputs (returns a bitshifted integer) ">
<polygon fill="white" stroke="black" points="200,-6 200,-25 364,-25 364,-6 200,-6"/>
<text text-anchor="middle" x="282" y="-13" font-family="Helvetica,sans-Serif" font-size="10.00">CPrivateSend::GetDenominations</text>
</a>
</g>
</g>
<!-- Node181&#45;&gt;Node182 -->
<g id="edge1" class="edge"><title>Node181&#45;&gt;Node182</title>
<path fill="none" stroke="midnightblue" d="M164.105,-15.5C172.457,-15.5 180.985,-15.5 189.44,-15.5"/>
<polygon fill="midnightblue" stroke="midnightblue" points="189.7,-19.0001 199.7,-15.5 189.7,-12.0001 189.7,-19.0001"/>
</g>
<!-- Node183 -->
<g id="node3" class="node"><title>Node183</title>
<g id="a_node3"><a xlink:href="../../de/daa/random_8cpp.html#a0e44e088732172da6662db2d5e37d4b2" target="_top" xlink:title="GetRandInt">
<polygon fill="white" stroke="black" points="400,-6 400,-25 467,-25 467,-6 400,-6"/>
<text text-anchor="middle" x="433.5" y="-13" font-family="Helvetica,sans-Serif" font-size="10.00">GetRandInt</text>
</a>
</g>
</g>
<!-- Node182&#45;&gt;Node183 -->
<g id="edge2" class="edge"><title>Node182&#45;&gt;Node183</title>
<path fill="none" stroke="midnightblue" d="M364.312,-15.5C373.074,-15.5 381.715,-15.5 389.748,-15.5"/>
<polygon fill="midnightblue" stroke="midnightblue" points="389.917,-19.0001 399.917,-15.5 389.917,-12.0001 389.917,-19.0001"/>
</g>
<!-- Node184 -->
<g id="node4" class="node"><title>Node184</title>
<g id="a_node4"><a xlink:href="../../de/daa/random_8cpp.html#a27d9149d522b1fa87d84e5e9ca902aef" target="_top" xlink:title="GetRand">
<polygon fill="white" stroke="black" points="503,-6 503,-25 559,-25 559,-6 503,-6"/>
<text text-anchor="middle" x="531" y="-13" font-family="Helvetica,sans-Serif" font-size="10.00">GetRand</text>
</a>
</g>
</g>
<!-- Node183&#45;&gt;Node184 -->
<g id="edge3" class="edge"><title>Node183&#45;&gt;Node184</title>
<path fill="none" stroke="midnightblue" d="M467.099,-15.5C475.396,-15.5 484.375,-15.5 492.88,-15.5"/>
<polygon fill="midnightblue" stroke="midnightblue" points="492.941,-19.0001 502.941,-15.5 492.941,-12.0001 492.941,-19.0001"/>
</g>
<!-- Node185 -->
<g id="node5" class="node"><title>Node185</title>
<g id="a_node5"><a xlink:href="../../de/daa/random_8cpp.html#ada0c29949c4d1ac0cc027d93c4771423" target="_top" xlink:title="Functions to gather random data via the OpenSSL PRNG. ">
<polygon fill="white" stroke="black" points="595,-6 595,-25 676,-25 676,-6 595,-6"/>
<text text-anchor="middle" x="635.5" y="-13" font-family="Helvetica,sans-Serif" font-size="10.00">GetRandBytes</text>
</a>
</g>
</g>
<!-- Node184&#45;&gt;Node185 -->
<g id="edge4" class="edge"><title>Node184&#45;&gt;Node185</title>
<path fill="none" stroke="midnightblue" d="M559.199,-15.5C567.043,-15.5 575.858,-15.5 584.62,-15.5"/>
<polygon fill="midnightblue" stroke="midnightblue" points="584.82,-19.0001 594.82,-15.5 584.82,-12.0001 584.82,-19.0001"/>
</g>
</g>
</svg>
        <g id="navigator" transform="translate(0 0)" fill="#404254">
                <rect fill="#f2f5e9" fill-opacity="0.5" stroke="#606060" stroke-width=".5" x="0" y="0" width="60" height="60"/>
                <use id="zoomplus" xlink:href="#zoomPlus" x="17" y="9" onmousedown="handleZoom(evt,'in')"/>
                <use id="zoomminus" xlink:href="#zoomMin" x="42" y="9" onmousedown="handleZoom(evt,'out')"/>
                <use id="reset" xlink:href="#resetDef" x="30" y="36" onmousedown="handleReset()"/>
                <g id="arrowUp" xlink:href="#dirArrow" transform="translate(30 24)" onmousedown="handlePan(0,-1)">
                  <use xlink:href="#rim" fill="#404040">
                        <set attributeName="fill" to="#808080" begin="arrowUp.mouseover" end="arrowUp.mouseout"/>
                  </use>
                  <path fill="none" stroke="white" stroke-width="1.5" d="M0,-3.0v7 M-2.5,-0.5L0,-3.0L2.5,-0.5"/>
                </g>
                <g id="arrowRight" xlink:href="#dirArrow" transform="rotate(90) translate(36 -43)" onmousedown="handlePan(1,0)">
                  <use xlink:href="#rim" fill="#404040">
                        <set attributeName="fill" to="#808080" begin="arrowRight.mouseover" end="arrowRight.mouseout"/>
                  </use>
                  <path fill="none" stroke="white" stroke-width="1.5" d="M0,-3.0v7 M-2.5,-0.5L0,-3.0L2.5,-0.5"/>
                </g>
                <g id="arrowDown" xlink:href="#dirArrow" transform="rotate(180) translate(-30 -48)" onmousedown="handlePan(0,1)">
                  <use xlink:href="#rim" fill="#404040">
                        <set attributeName="fill" to="#808080" begin="arrowDown.mouseover" end="arrowDown.mouseout"/>
                  </use>
                  <path fill="none" stroke="white" stroke-width="1.5" d="M0,-3.0v7 M-2.5,-0.5L0,-3.0L2.5,-0.5"/>
                </g>
                <g id="arrowLeft" xlink:href="#dirArrow" transform="rotate(270) translate(-36 17)" onmousedown="handlePan(-1,0)">
                  <use xlink:href="#rim" fill="#404040">
                        <set attributeName="fill" to="#808080" begin="arrowLeft.mouseover" end="arrowLeft.mouseout"/>
                  </use>
                  <path fill="none" stroke="white" stroke-width="1.5" d="M0,-3.0v7 M-2.5,-0.5L0,-3.0L2.5,-0.5"/>
                </g>
        </g>
        <svg viewBox="0 0 15 15" width="100%" height="30px" preserveAspectRatio="xMaxYMin meet">
         <g id="arrow_out" transform="scale(0.3 0.3)">
          <a xlink:href="class_c_private_send_ae9450458b796fc1a97f6a86dd787bf23_cgraph_org.svg" target="_base">
           <rect id="button" ry="5" rx="5" y="6" x="6" height="38" width="38"
                fill="#f2f5e9" fill-opacity="0.5" stroke="#606060" stroke-width="1.0"/>
           <path id="arrow"
             d="M 11.500037,31.436501 C 11.940474,20.09759 22.043105,11.32322 32.158766,21.979434 L 37.068811,17.246167 C 37.068811,17.246167 37.088388,32 37.088388,32 L 22.160133,31.978069 C 22.160133,31.978069 26.997745,27.140456 26.997745,27.140456 C 18.528582,18.264221 13.291696,25.230495 11.500037,31.436501 z"
             style="fill:#404040;"/>
          </a>
         </g>
        </svg>
</svg>
