<?xml version="1.0" encoding="UTF-8" standalone="no"?>
<!DOCTYPE svg PUBLIC "-//W3C//DTD SVG 1.1//EN"
 "http://www.w3.org/Graphics/SVG/1.1/DTD/svg11.dtd">
<!-- Generated by graphviz version 2.38.0 (20140413.2041)
 -->
<!-- Title: CGovernanceObjectVoteFile::AddVote Pages: 1 -->
<!--zoomable 308 -->
<svg id="main" version="1.1" xmlns="http://www.w3.org/2000/svg" xmlns:xlink="http://www.w3.org/1999/xlink" xml:space="preserve" onload="init(evt)">
<style type="text/css"><![CDATA[
.edge:hover path { stroke: red; }
.edge:hover polygon { stroke: red; fill: red; }
]]></style>
<script type="text/javascript"><![CDATA[
var edges = document.getElementsByTagName('g');
if (edges && edges.length) {
  for (var i=0;i<edges.length;i++) {
    if (edges[i].id.substr(0,4)=='edge') {
      edges[i].setAttribute('class','edge');
    }
  }
}
]]></script>
        <defs>
                <circle id="rim" cx="0" cy="0" r="7"/>
                <circle id="rim2" cx="0" cy="0" r="3.5"/>
                <g id="zoomPlus">
                        <use xlink:href="#rim" fill="#404040">
                                <set attributeName="fill" to="#808080" begin="zoomplus.mouseover" end="zoomplus.mouseout"/>
                        </use>
                        <path d="M-4,0h8M0,-4v8" fill="none" stroke="white" stroke-width="1.5" pointer-events="none"/>
                </g>
                <g id="zoomMin">
                        <use xlink:href="#rim" fill="#404040">
                                <set attributeName="fill" to="#808080" begin="zoomminus.mouseover" end="zoomminus.mouseout"/>
                        </use>
                        <path d="M-4,0h8" fill="none" stroke="white" stroke-width="1.5" pointer-events="none"/>
                </g>
                <g id="dirArrow">
                        <path fill="none" stroke="white" stroke-width="1.5" d="M0,-3.0v7 M-2.5,-0.5L0,-3.0L2.5,-0.5"/>
                </g>
               <g id="resetDef">
                       <use xlink:href="#rim2" fill="#404040">
                               <set attributeName="fill" to="#808080" begin="reset.mouseover" end="reset.mouseout"/>
                       </use>
               </g>
        </defs>

<script type="text/javascript">
var viewWidth = 2243;
var viewHeight = 308;
var sectionId = 'dynsection-2';
</script>
<script xlink:href="../../svgpan.js"/>
<svg id="graph" class="graph">
<g id="viewport">
<title>CGovernanceObjectVoteFile::AddVote</title>
<polygon fill="white" stroke="none" points="-4,4 -4,-303.5 2239,-303.5 2239,4 -4,4"/>
<!-- Node34 -->
<g id="node1" class="node"><title>Node34</title>
<polygon fill="#bfbfbf" stroke="black" points="0,-123 0,-153 141,-153 141,-123 0,-123"/>
<text text-anchor="start" x="8" y="-141" font-family="Helvetica,sans-Serif" font-size="10.00">CGovernanceObjectVoteFile</text>
<text text-anchor="middle" x="70.5" y="-130" font-family="Helvetica,sans-Serif" font-size="10.00">::AddVote</text>
</g>
<!-- Node35 -->
<g id="node2" class="node"><title>Node35</title>
<g id="a_node2"><a xlink:href="../../d7/d9b/class_c_governance_object.html#a5156d904f740adc15818b861b4ff2c79" target="_top" xlink:title="CGovernanceObject::\lProcessVote">
<polygon fill="white" stroke="black" points="177,-123 177,-153 288,-153 288,-123 177,-123"/>
<text text-anchor="start" x="185" y="-141" font-family="Helvetica,sans-Serif" font-size="10.00">CGovernanceObject::</text>
<text text-anchor="middle" x="232.5" y="-130" font-family="Helvetica,sans-Serif" font-size="10.00">ProcessVote</text>
</a>
</g>
</g>
<!-- Node34&#45;&gt;Node35 -->
<g id="edge1" class="edge"><title>Node34&#45;&gt;Node35</title>
<path fill="none" stroke="midnightblue" d="M151.352,-138C160.011,-138 168.672,-138 176.93,-138"/>
<polygon fill="midnightblue" stroke="midnightblue" points="151.213,-134.5 141.213,-138 151.213,-141.5 151.213,-134.5"/>
</g>
<!-- Node36 -->
<g id="node3" class="node"><title>Node36</title>
<g id="a_node3"><a xlink:href="../../d7/d9b/class_c_governance_object.html#af3efa713b83a3f0812271d1d0be2b183" target="_top" xlink:title="CGovernanceObject::\lCheckOrphanVotes">
<polygon fill="white" stroke="black" points="325.5,-172 325.5,-202 436.5,-202 436.5,-172 325.5,-172"/>
<text text-anchor="start" x="333.5" y="-190" font-family="Helvetica,sans-Serif" font-size="10.00">CGovernanceObject::</text>
<text text-anchor="middle" x="381" y="-179" font-family="Helvetica,sans-Serif" font-size="10.00">CheckOrphanVotes</text>
</a>
</g>
</g>
<!-- Node35&#45;&gt;Node36 -->
<g id="edge2" class="edge"><title>Node35&#45;&gt;Node36</title>
<path fill="none" stroke="midnightblue" d="M288.529,-156.405C303.857,-161.532 320.321,-167.039 334.999,-171.948"/>
<polygon fill="midnightblue" stroke="midnightblue" points="289.244,-152.954 278.65,-153.101 287.024,-159.593 289.244,-152.954"/>
</g>
<!-- Node37 -->
<g id="node4" class="node"><title>Node37</title>
<g id="a_node4"><a xlink:href="../../de/d48/class_c_governance_manager.html#aba7b49c4acae5347498e68569bd7cbfe" target="_top" xlink:title="CGovernanceManager\l::CheckOrphanVotes">
<polygon fill="white" stroke="black" points="324,-123 324,-153 438,-153 438,-123 324,-123"/>
<text text-anchor="start" x="332" y="-141" font-family="Helvetica,sans-Serif" font-size="10.00">CGovernanceManager</text>
<text text-anchor="middle" x="381" y="-130" font-family="Helvetica,sans-Serif" font-size="10.00">::CheckOrphanVotes</text>
</a>
</g>
</g>
<!-- Node35&#45;&gt;Node37 -->
<g id="edge3" class="edge"><title>Node35&#45;&gt;Node37</title>
<path fill="none" stroke="midnightblue" d="M298.069,-138C306.69,-138 315.475,-138 323.935,-138"/>
<polygon fill="midnightblue" stroke="midnightblue" points="298.051,-134.5 288.051,-138 298.051,-141.5 298.051,-134.5"/>
</g>
<!-- Node70 -->
<g id="node37" class="node"><title>Node70</title>
<g id="a_node37"><a xlink:href="../../de/d48/class_c_governance_manager.html#a7af57e90ea7d01041410d26172ecae01" target="_top" xlink:title="CGovernanceManager\l::ProcessVote">
<polygon fill="white" stroke="black" points="324,-74 324,-104 438,-104 438,-74 324,-74"/>
<text text-anchor="start" x="332" y="-92" font-family="Helvetica,sans-Serif" font-size="10.00">CGovernanceManager</text>
<text text-anchor="middle" x="381" y="-81" font-family="Helvetica,sans-Serif" font-size="10.00">::ProcessVote</text>
</a>
</g>
</g>
<!-- Node35&#45;&gt;Node70 -->
<g id="edge40" class="edge"><title>Node35&#45;&gt;Node70</title>
<path fill="none" stroke="midnightblue" d="M288.529,-119.595C303.857,-114.468 320.321,-108.961 334.999,-104.052"/>
<polygon fill="midnightblue" stroke="midnightblue" points="287.024,-116.407 278.65,-122.899 289.244,-123.046 287.024,-116.407"/>
</g>
<!-- Node38 -->
<g id="node5" class="node"><title>Node38</title>
<g id="a_node5"><a xlink:href="../../de/d48/class_c_governance_manager.html#a411c189171dd09a82de2daf8b12134fd" target="_top" xlink:title="CGovernanceManager\l::AddGovernanceObject">
<polygon fill="white" stroke="black" points="474.5,-123 474.5,-153 595.5,-153 595.5,-123 474.5,-123"/>
<text text-anchor="start" x="482.5" y="-141" font-family="Helvetica,sans-Serif" font-size="10.00">CGovernanceManager</text>
<text text-anchor="middle" x="535" y="-130" font-family="Helvetica,sans-Serif" font-size="10.00">::AddGovernanceObject</text>
</a>
</g>
</g>
<!-- Node37&#45;&gt;Node38 -->
<g id="edge4" class="edge"><title>Node37&#45;&gt;Node38</title>
<path fill="none" stroke="midnightblue" d="M448.293,-138C457.01,-138 465.9,-138 474.495,-138"/>
<polygon fill="midnightblue" stroke="midnightblue" points="448.167,-134.5 438.167,-138 448.167,-141.5 448.167,-134.5"/>
</g>
<!-- Node39 -->
<g id="node6" class="node"><title>Node39</title>
<g id="a_node6"><a xlink:href="../../de/d48/class_c_governance_manager.html#a3953c78251f14a8db9ed1b8683c35670" target="_top" xlink:title="CGovernanceManager\l::CheckMasternodeOrphanObjects">
<polygon fill="white" stroke="black" points="632,-126 632,-156 799,-156 799,-126 632,-126"/>
<text text-anchor="start" x="640" y="-144" font-family="Helvetica,sans-Serif" font-size="10.00">CGovernanceManager</text>
<text text-anchor="middle" x="715.5" y="-133" font-family="Helvetica,sans-Serif" font-size="10.00">::CheckMasternodeOrphanObjects</text>
</a>
</g>
</g>
<!-- Node38&#45;&gt;Node39 -->
<g id="edge5" class="edge"><title>Node38&#45;&gt;Node39</title>
<path fill="none" stroke="midnightblue" d="M606.11,-139.178C614.568,-139.32 623.266,-139.467 631.882,-139.611"/>
<polygon fill="midnightblue" stroke="midnightblue" points="605.992,-135.676 595.934,-139.007 605.874,-142.675 605.992,-135.676"/>
</g>
<!-- Node64 -->
<g id="node31" class="node"><title>Node64</title>
<g id="a_node31"><a xlink:href="../../de/d48/class_c_governance_manager.html#ac3f4ec182d1b226f8f2190224044e533" target="_top" xlink:title="CGovernanceManager\l::CheckPostponedObjects">
<polygon fill="white" stroke="black" points="650,-203 650,-233 781,-233 781,-203 650,-203"/>
<text text-anchor="start" x="658" y="-221" font-family="Helvetica,sans-Serif" font-size="10.00">CGovernanceManager</text>
<text text-anchor="middle" x="715.5" y="-210" font-family="Helvetica,sans-Serif" font-size="10.00">::CheckPostponedObjects</text>
</a>
</g>
</g>
<!-- Node38&#45;&gt;Node64 -->
<g id="edge32" class="edge"><title>Node38&#45;&gt;Node64</title>
<path fill="none" stroke="midnightblue" d="M578.91,-157.231C610.16,-171.237 651.898,-189.943 680.773,-202.884"/>
<polygon fill="midnightblue" stroke="midnightblue" points="580.131,-153.943 569.574,-153.047 577.268,-160.331 580.131,-153.943"/>
</g>
<!-- Node68 -->
<g id="node35" class="node"><title>Node68</title>
<g id="a_node35"><a xlink:href="../../d8/dc3/server_8h.html#a0fa637689f8c63fc6adebeb9458430db" target="_top" xlink:title="gobject">
<polygon fill="white" stroke="black" points="691.5,-38.5 691.5,-57.5 739.5,-57.5 739.5,-38.5 691.5,-38.5"/>
<text text-anchor="middle" x="715.5" y="-45.5" font-family="Helvetica,sans-Serif" font-size="10.00">gobject</text>
</a>
</g>
</g>
<!-- Node38&#45;&gt;Node68 -->
<g id="edge37" class="edge"><title>Node38&#45;&gt;Node68</title>
<path fill="none" stroke="midnightblue" d="M559.83,-115.988C578.243,-100.126 605.059,-79.4074 632,-67 650.957,-58.2696 674.267,-53.3786 691.268,-50.7538"/>
<polygon fill="midnightblue" stroke="midnightblue" points="557.185,-113.653 551.99,-122.888 561.809,-118.908 557.185,-113.653"/>
</g>
<!-- Node69 -->
<g id="node36" class="node"><title>Node69</title>
<g id="a_node36"><a xlink:href="../../de/d48/class_c_governance_manager.html#a442507518db0686a860dea18979c7cd6" target="_top" xlink:title="CGovernanceManager\l::ProcessMessage">
<polygon fill="white" stroke="black" points="658.5,-77 658.5,-107 772.5,-107 772.5,-77 658.5,-77"/>
<text text-anchor="start" x="666.5" y="-95" font-family="Helvetica,sans-Serif" font-size="10.00">CGovernanceManager</text>
<text text-anchor="middle" x="715.5" y="-84" font-family="Helvetica,sans-Serif" font-size="10.00">::ProcessMessage</text>
</a>
</g>
</g>
<!-- Node38&#45;&gt;Node69 -->
<g id="edge38" class="edge"><title>Node38&#45;&gt;Node69</title>
<path fill="none" stroke="midnightblue" d="M604.237,-120.415C622.114,-115.808 641.184,-110.894 658.351,-106.47"/>
<polygon fill="midnightblue" stroke="midnightblue" points="603.258,-117.053 594.448,-122.938 605.005,-123.832 603.258,-117.053"/>
</g>
<!-- Node40 -->
<g id="node7" class="node"><title>Node40</title>
<g id="a_node7"><a xlink:href="../../dc/d6b/class_c_masternode_man.html#a5e27707730f73d111df8bc0fcd819b68" target="_top" xlink:title="Called to notify CGovernanceManager that the masternode index has been updated. ">
<polygon fill="white" stroke="black" points="835,-126 835,-156 1012,-156 1012,-126 835,-126"/>
<text text-anchor="start" x="843" y="-144" font-family="Helvetica,sans-Serif" font-size="10.00">CMasternodeMan::NotifyMasternode</text>
<text text-anchor="middle" x="923.5" y="-133" font-family="Helvetica,sans-Serif" font-size="10.00">Updates</text>
</a>
</g>
</g>
<!-- Node39&#45;&gt;Node40 -->
<g id="edge6" class="edge"><title>Node39&#45;&gt;Node40</title>
<path fill="none" stroke="midnightblue" d="M809.37,-141C817.839,-141 826.401,-141 834.822,-141"/>
<polygon fill="midnightblue" stroke="midnightblue" points="809.101,-137.5 799.101,-141 809.101,-144.5 809.101,-137.5"/>
</g>
<!-- Node41 -->
<g id="node8" class="node"><title>Node41</title>
<g id="a_node8"><a xlink:href="../../d8/dc3/server_8h.html#adc51a168fd3ea207996ae4f8d9d6c6ea" target="_top" xlink:title="masternode">
<polygon fill="white" stroke="black" points="1102,-74.5 1102,-93.5 1170,-93.5 1170,-74.5 1102,-74.5"/>
<text text-anchor="middle" x="1136" y="-81.5" font-family="Helvetica,sans-Serif" font-size="10.00">masternode</text>
</a>
</g>
</g>
<!-- Node40&#45;&gt;Node41 -->
<g id="edge7" class="edge"><title>Node40&#45;&gt;Node41</title>
<path fill="none" stroke="midnightblue" d="M980.063,-122.823C1001.22,-116.188 1025.62,-108.877 1048,-103 1065.64,-98.3673 1085.51,-93.9685 1101.79,-90.5724"/>
<polygon fill="midnightblue" stroke="midnightblue" points="978.757,-119.565 970.277,-125.917 980.867,-126.24 978.757,-119.565"/>
</g>
<!-- Node42 -->
<g id="node9" class="node"><title>Node42</title>
<g id="a_node9"><a xlink:href="../../d8/dc3/server_8h.html#a7ae813efd78b542bd5e3cddb01174777" target="_top" xlink:title="masternodebroadcast">
<polygon fill="white" stroke="black" points="1081,-36.5 1081,-55.5 1191,-55.5 1191,-36.5 1081,-36.5"/>
<text text-anchor="middle" x="1136" y="-43.5" font-family="Helvetica,sans-Serif" font-size="10.00">masternodebroadcast</text>
</a>
</g>
</g>
<!-- Node40&#45;&gt;Node42 -->
<g id="edge8" class="edge"><title>Node40&#45;&gt;Node42</title>
<path fill="none" stroke="midnightblue" d="M952.654,-119.836C976.778,-102.671 1013.06,-79.0888 1048,-65 1058.32,-60.8367 1069.72,-57.5123 1080.77,-54.8843"/>
<polygon fill="midnightblue" stroke="midnightblue" points="950.399,-117.148 944.342,-125.84 954.498,-122.822 950.399,-117.148"/>
</g>
<!-- Node43 -->
<g id="node10" class="node"><title>Node43</title>
<g id="a_node10"><a xlink:href="../../dc/d6b/class_c_masternode_man.html#a09302023fe1dca8be33e34d1ece9d27f" target="_top" xlink:title="Check all Masternodes and remove inactive. ">
<polygon fill="white" stroke="black" points="1063,-227 1063,-257 1209,-257 1209,-227 1063,-227"/>
<text text-anchor="start" x="1071" y="-245" font-family="Helvetica,sans-Serif" font-size="10.00">CMasternodeMan::CheckAnd</text>
<text text-anchor="middle" x="1136" y="-234" font-family="Helvetica,sans-Serif" font-size="10.00">Remove</text>
</a>
</g>
</g>
<!-- Node40&#45;&gt;Node43 -->
<g id="edge9" class="edge"><title>Node40&#45;&gt;Node43</title>
<path fill="none" stroke="midnightblue" d="M953.335,-161.882C977.606,-178.673 1013.74,-201.877 1048,-217 1056.34,-220.681 1065.36,-223.978 1074.34,-226.875"/>
<polygon fill="midnightblue" stroke="midnightblue" points="955.154,-158.884 944.956,-156.013 951.138,-164.617 955.154,-158.884"/>
</g>
<!-- Node49 -->
<g id="node16" class="node"><title>Node49</title>
<g id="a_node16"><a xlink:href="../../dc/d6b/class_c_masternode_man.html#ae8534b13438b5a2166854a6d35d99bac" target="_top" xlink:title="CMasternodeMan::ProcessMessage">
<polygon fill="white" stroke="black" points="1048,-112.5 1048,-131.5 1224,-131.5 1224,-112.5 1048,-112.5"/>
<text text-anchor="middle" x="1136" y="-119.5" font-family="Helvetica,sans-Serif" font-size="10.00">CMasternodeMan::ProcessMessage</text>
</a>
</g>
</g>
<!-- Node40&#45;&gt;Node49 -->
<g id="edge15" class="edge"><title>Node40&#45;&gt;Node49</title>
<path fill="none" stroke="midnightblue" d="M1022.48,-132.156C1030.91,-131.395 1039.4,-130.629 1047.73,-129.877"/>
<polygon fill="midnightblue" stroke="midnightblue" points="1021.89,-128.695 1012.25,-133.08 1022.52,-135.667 1021.89,-128.695"/>
</g>
<!-- Node58 -->
<g id="node25" class="node"><title>Node58</title>
<g id="a_node25"><a xlink:href="../../d0/d4c/class_masternode_list.html#ab3a42d1c66f3b28e9843335d8ce0178d" target="_top" xlink:title="MasternodeList::StartAlias">
<polygon fill="white" stroke="black" points="1070,-150.5 1070,-169.5 1202,-169.5 1202,-150.5 1070,-150.5"/>
<text text-anchor="middle" x="1136" y="-157.5" font-family="Helvetica,sans-Serif" font-size="10.00">MasternodeList::StartAlias</text>
</a>
</g>
</g>
<!-- Node40&#45;&gt;Node58 -->
<g id="edge26" class="edge"><title>Node40&#45;&gt;Node58</title>
<path fill="none" stroke="midnightblue" d="M1022.25,-149.823C1038.39,-151.28 1054.77,-152.758 1069.85,-154.119"/>
<polygon fill="midnightblue" stroke="midnightblue" points="1022.52,-146.333 1012.25,-148.92 1021.89,-153.305 1022.52,-146.333"/>
</g>
<!-- Node61 -->
<g id="node28" class="node"><title>Node61</title>
<g id="a_node28"><a xlink:href="../../d0/d4c/class_masternode_list.html#a0ebd5301adf7567e6a82550ba6d02ccc" target="_top" xlink:title="MasternodeList::StartAll">
<polygon fill="white" stroke="black" points="1075,-188.5 1075,-207.5 1197,-207.5 1197,-188.5 1075,-188.5"/>
<text text-anchor="middle" x="1136" y="-195.5" font-family="Helvetica,sans-Serif" font-size="10.00">MasternodeList::StartAll</text>
</a>
</g>
</g>
<!-- Node40&#45;&gt;Node61 -->
<g id="edge29" class="edge"><title>Node40&#45;&gt;Node61</title>
<path fill="none" stroke="midnightblue" d="M980.063,-159.177C1001.22,-165.812 1025.62,-173.123 1048,-179 1060.86,-182.376 1074.9,-185.628 1087.87,-188.459"/>
<polygon fill="midnightblue" stroke="midnightblue" points="980.867,-155.76 970.277,-156.083 978.757,-162.435 980.867,-155.76"/>
</g>
<!-- Node44 -->
<g id="node11" class="node"><title>Node44</title>
<g id="a_node11"><a xlink:href="../../df/d7f/privatesend_8h.html#a8ca12ada145ba86ddcba18018b77db14" target="_top" xlink:title="ThreadCheckPrivateSend">
<polygon fill="white" stroke="black" points="1427,-230.5 1427,-249.5 1555,-249.5 1555,-230.5 1427,-230.5"/>
<text text-anchor="middle" x="1491" y="-237.5" font-family="Helvetica,sans-Serif" font-size="10.00">ThreadCheckPrivateSend</text>
</a>
</g>
</g>
<!-- Node43&#45;&gt;Node44 -->
<g id="edge10" class="edge"><title>Node43&#45;&gt;Node44</title>
<path fill="none" stroke="midnightblue" d="M1219.65,-241.532C1283,-241.173 1369.11,-240.685 1426.97,-240.357"/>
<polygon fill="midnightblue" stroke="midnightblue" points="1219.27,-238.034 1209.29,-241.59 1219.31,-245.034 1219.27,-238.034"/>
</g>
<!-- Node45 -->
<g id="node12" class="node"><title>Node45</title>
<g id="a_node12"><a xlink:href="../../d8/dc0/init_8h.html#a6f0784aa332573f949b0975205572b28" target="_top" xlink:title="Initialize Dash Core. ">
<polygon fill="white" stroke="black" points="1790.5,-185.5 1790.5,-204.5 1843.5,-204.5 1843.5,-185.5 1790.5,-185.5"/>
<text text-anchor="middle" x="1817" y="-192.5" font-family="Helvetica,sans-Serif" font-size="10.00">AppInit2</text>
</a>
</g>
</g>
<!-- Node44&#45;&gt;Node45 -->
<g id="edge11" class="edge"><title>Node44&#45;&gt;Node45</title>
<path fill="none" stroke="midnightblue" d="M1565.58,-229.781C1637.36,-219.811 1742.54,-205.203 1790.49,-198.544"/>
<polygon fill="midnightblue" stroke="midnightblue" points="1564.66,-226.374 1555.24,-231.217 1565.63,-233.308 1564.66,-226.374"/>
</g>
<!-- Node46 -->
<g id="node13" class="node"><title>Node46</title>
<g id="a_node13"><a xlink:href="../../dd/de1/dashd_8cpp.html#ac59316b767e6984e1285f0531275286b" target="_top" xlink:title="AppInit">
<polygon fill="white" stroke="black" points="2079.5,-163.5 2079.5,-182.5 2126.5,-182.5 2126.5,-163.5 2079.5,-163.5"/>
<text text-anchor="middle" x="2103" y="-170.5" font-family="Helvetica,sans-Serif" font-size="10.00">AppInit</text>
</a>
</g>
</g>
<!-- Node45&#45;&gt;Node46 -->
<g id="edge12" class="edge"><title>Node45&#45;&gt;Node46</title>
<path fill="none" stroke="midnightblue" d="M1853.73,-192.232C1913.03,-187.638 2030.11,-178.569 2079.35,-174.755"/>
<polygon fill="midnightblue" stroke="midnightblue" points="1853.4,-188.747 1843.7,-193.009 1853.94,-195.726 1853.4,-188.747"/>
</g>
<!-- Node48 -->
<g id="node15" class="node"><title>Node48</title>
<g id="a_node15"><a xlink:href="../../d2/d76/class_bitcoin_core.html#af34ca069cda1d4362dcc109b4397fb62" target="_top" xlink:title="BitcoinCore::initialize">
<polygon fill="white" stroke="black" points="1900,-147.5 1900,-166.5 2009,-166.5 2009,-147.5 1900,-147.5"/>
<text text-anchor="middle" x="1954.5" y="-154.5" font-family="Helvetica,sans-Serif" font-size="10.00">BitcoinCore::initialize</text>
</a>
</g>
</g>
<!-- Node45&#45;&gt;Node48 -->
<g id="edge14" class="edge"><title>Node45&#45;&gt;Node48</title>
<path fill="none" stroke="midnightblue" d="M1853.66,-184.999C1874.05,-179.28 1899.49,-172.146 1919.59,-166.511"/>
<polygon fill="midnightblue" stroke="midnightblue" points="1852.49,-181.693 1843.81,-187.763 1854.38,-188.433 1852.49,-181.693"/>
</g>
<!-- Node47 -->
<g id="node14" class="node"><title>Node47</title>
<g id="a_node14"><a xlink:href="../../dd/de1/dashd_8cpp.html#a0ddf1224851353fc92bfbff6f499fa97" target="_top" xlink:title="main">
<polygon fill="white" stroke="black" points="2197,-163.5 2197,-182.5 2235,-182.5 2235,-163.5 2197,-163.5"/>
<text text-anchor="middle" x="2216" y="-170.5" font-family="Helvetica,sans-Serif" font-size="10.00">main</text>
</a>
</g>
</g>
<!-- Node46&#45;&gt;Node47 -->
<g id="edge13" class="edge"><title>Node46&#45;&gt;Node47</title>
<path fill="none" stroke="midnightblue" d="M2136.77,-173C2156.33,-173 2180.46,-173 2196.7,-173"/>
<polygon fill="midnightblue" stroke="midnightblue" points="2136.73,-169.5 2126.73,-173 2136.73,-176.5 2136.73,-169.5"/>
</g>
<!-- Node50 -->
<g id="node17" class="node"><title>Node50</title>
<g id="a_node17"><a xlink:href="../../d2/d83/net__processing_8cpp.html#a193d0ece6e2f2f7ee37352ac9720bb83" target="_top" xlink:title="ProcessMessage">
<polygon fill="white" stroke="black" points="1272.5,-42.5 1272.5,-61.5 1364.5,-61.5 1364.5,-42.5 1272.5,-42.5"/>
<text text-anchor="middle" x="1318.5" y="-49.5" font-family="Helvetica,sans-Serif" font-size="10.00">ProcessMessage</text>
</a>
</g>
</g>
<!-- Node49&#45;&gt;Node50 -->
<g id="edge16" class="edge"><title>Node49&#45;&gt;Node50</title>
<path fill="none" stroke="midnightblue" d="M1209.45,-109.218C1214.48,-107.411 1219.38,-105.35 1224,-103 1243.08,-93.2891 1241.45,-81.6905 1260,-71 1266.47,-67.2723 1273.77,-64.1508 1280.95,-61.586"/>
<polygon fill="midnightblue" stroke="midnightblue" points="1208.1,-105.977 1199.66,-112.388 1210.26,-112.637 1208.1,-105.977"/>
</g>
<!-- Node51 -->
<g id="node18" class="node"><title>Node51</title>
<g id="a_node18"><a xlink:href="../../d0/dd8/net__processing_8h.html#a7fa42e7ffd6e6ba5b7537af248e30fc8" target="_top" xlink:title="Process protocol messages received from a given node. ">
<polygon fill="white" stroke="black" points="1442,-49.5 1442,-68.5 1540,-68.5 1540,-49.5 1442,-49.5"/>
<text text-anchor="middle" x="1491" y="-56.5" font-family="Helvetica,sans-Serif" font-size="10.00">ProcessMessages</text>
</a>
</g>
</g>
<!-- Node50&#45;&gt;Node51 -->
<g id="edge17" class="edge"><title>Node50&#45;&gt;Node51</title>
<path fill="none" stroke="midnightblue" d="M1374.77,-54.2691C1396.4,-55.157 1420.97,-56.166 1441.86,-57.0234"/>
<polygon fill="midnightblue" stroke="midnightblue" points="1374.88,-50.7707 1364.74,-53.8575 1374.59,-57.7649 1374.88,-50.7707"/>
</g>
<!-- Node52 -->
<g id="node19" class="node"><title>Node52</title>
<g id="a_node19"><a xlink:href="../../d0/dd8/net__processing_8h.html#ab02615ff65f91d69f8d786ec900baa8a" target="_top" xlink:title="Register with a network node to receive its signals. ">
<polygon fill="white" stroke="black" points="1615,-164.5 1615,-183.5 1724,-183.5 1724,-164.5 1615,-164.5"/>
<text text-anchor="middle" x="1669.5" y="-171.5" font-family="Helvetica,sans-Serif" font-size="10.00">RegisterNodeSignals</text>
</a>
</g>
</g>
<!-- Node51&#45;&gt;Node52 -->
<g id="edge18" class="edge"><title>Node51&#45;&gt;Node52</title>
<path fill="none" stroke="midnightblue" d="M1550.01,-69.7726C1556.62,-72.0227 1563.09,-74.7344 1569,-78 1610.18,-100.75 1646.63,-144.937 1661.45,-164.401"/>
<polygon fill="midnightblue" stroke="midnightblue" points="1550.89,-66.3792 1540.3,-66.7952 1548.84,-73.0719 1550.89,-66.3792"/>
</g>
<!-- Node53 -->
<g id="node20" class="node"><title>Node53</title>
<g id="a_node20"><a xlink:href="../../d0/dd8/net__processing_8h.html#a3ef0cc6e9d9d6435ee2a5569244d6ebd" target="_top" xlink:title="Unregister a network node. ">
<polygon fill="white" stroke="black" points="1611,-52.5 1611,-71.5 1728,-71.5 1728,-52.5 1611,-52.5"/>
<text text-anchor="middle" x="1669.5" y="-59.5" font-family="Helvetica,sans-Serif" font-size="10.00">UnregisterNodeSignals</text>
</a>
</g>
</g>
<!-- Node51&#45;&gt;Node53 -->
<g id="edge20" class="edge"><title>Node51&#45;&gt;Node53</title>
<path fill="none" stroke="midnightblue" d="M1550.48,-59.9939C1569.92,-60.3244 1591.55,-60.692 1610.92,-61.0213"/>
<polygon fill="midnightblue" stroke="midnightblue" points="1550.29,-56.4903 1540.23,-59.8198 1550.17,-63.4893 1550.29,-56.4903"/>
</g>
<!-- Node52&#45;&gt;Node45 -->
<g id="edge19" class="edge"><title>Node52&#45;&gt;Node45</title>
<path fill="none" stroke="midnightblue" d="M1734.43,-183.227C1754.07,-186.062 1774.59,-189.023 1790.13,-191.267"/>
<polygon fill="midnightblue" stroke="midnightblue" points="1734.66,-179.724 1724.27,-181.76 1733.66,-186.653 1734.66,-179.724"/>
</g>
<!-- Node54 -->
<g id="node21" class="node"><title>Node54</title>
<g id="a_node21"><a xlink:href="../../d8/dc0/init_8h.html#a5cb3db83cb0ba2e421f651a1ee1f2cfe" target="_top" xlink:title="Preparing steps before shutting down or restarting the wallet. ">
<polygon fill="white" stroke="black" points="1770,-54.5 1770,-73.5 1864,-73.5 1864,-54.5 1770,-54.5"/>
<text text-anchor="middle" x="1817" y="-61.5" font-family="Helvetica,sans-Serif" font-size="10.00">PrepareShutdown</text>
</a>
</g>
</g>
<!-- Node53&#45;&gt;Node54 -->
<g id="edge21" class="edge"><title>Node53&#45;&gt;Node54</title>
<path fill="none" stroke="midnightblue" d="M1738.15,-62.9299C1748.81,-63.0765 1759.62,-63.2251 1769.66,-63.363"/>
<polygon fill="midnightblue" stroke="midnightblue" points="1738.05,-59.4283 1728.01,-62.7905 1737.96,-66.4277 1738.05,-59.4283"/>
</g>
<!-- Node55 -->
<g id="node22" class="node"><title>Node55</title>
<g id="a_node22"><a xlink:href="../../d2/d76/class_bitcoin_core.html#ac2271844c89ebc4c611e7617ce6202e3" target="_top" xlink:title="BitcoinCore::restart">
<polygon fill="white" stroke="black" points="1904,-54.5 1904,-73.5 2005,-73.5 2005,-54.5 1904,-54.5"/>
<text text-anchor="middle" x="1954.5" y="-61.5" font-family="Helvetica,sans-Serif" font-size="10.00">BitcoinCore::restart</text>
</a>
</g>
</g>
<!-- Node54&#45;&gt;Node55 -->
<g id="edge22" class="edge"><title>Node54&#45;&gt;Node55</title>
<path fill="none" stroke="midnightblue" d="M1874.29,-64C1884.06,-64 1894.16,-64 1903.75,-64"/>
<polygon fill="midnightblue" stroke="midnightblue" points="1874.25,-60.5001 1864.25,-64 1874.25,-67.5001 1874.25,-60.5001"/>
</g>
<!-- Node56 -->
<g id="node23" class="node"><title>Node56</title>
<g id="a_node23"><a xlink:href="../../d8/dc0/init_8h.html#ac5f038c2b480cf9ef5e19e3eba8dbaf9" target="_top" xlink:title="Shutdown is split into 2 parts: Part 1: shut down everything but the main wallet instance (done in Pr...">
<polygon fill="white" stroke="black" points="1924.5,-103.5 1924.5,-122.5 1984.5,-122.5 1984.5,-103.5 1924.5,-103.5"/>
<text text-anchor="middle" x="1954.5" y="-110.5" font-family="Helvetica,sans-Serif" font-size="10.00">Shutdown</text>
</a>
</g>
</g>
<!-- Node54&#45;&gt;Node56 -->
<g id="edge23" class="edge"><title>Node54&#45;&gt;Node56</title>
<path fill="none" stroke="midnightblue" d="M1853.88,-76.9737C1876.89,-85.2942 1906.25,-95.912 1927.12,-103.46"/>
<polygon fill="midnightblue" stroke="midnightblue" points="1855.04,-73.6734 1844.45,-73.564 1852.66,-80.2562 1855.04,-73.6734"/>
</g>
<!-- Node56&#45;&gt;Node46 -->
<g id="edge24" class="edge"><title>Node56&#45;&gt;Node46</title>
<path fill="none" stroke="midnightblue" d="M1988.01,-126.313C2015.75,-137.676 2054.93,-153.721 2079.38,-163.734"/>
<polygon fill="midnightblue" stroke="midnightblue" points="1989.29,-123.058 1978.71,-122.507 1986.64,-129.536 1989.29,-123.058"/>
</g>
<!-- Node57 -->
<g id="node24" class="node"><title>Node57</title>
<g id="a_node24"><a xlink:href="../../d2/d76/class_bitcoin_core.html#a94f3f4622ba698e321f3a2e0e686129f" target="_top" xlink:title="BitcoinCore::shutdown">
<polygon fill="white" stroke="black" points="2045,-103.5 2045,-122.5 2161,-122.5 2161,-103.5 2045,-103.5"/>
<text text-anchor="middle" x="2103" y="-110.5" font-family="Helvetica,sans-Serif" font-size="10.00">BitcoinCore::shutdown</text>
</a>
</g>
</g>
<!-- Node56&#45;&gt;Node57 -->
<g id="edge25" class="edge"><title>Node56&#45;&gt;Node57</title>
<path fill="none" stroke="midnightblue" d="M1994.97,-113C2010.31,-113 2028.18,-113 2044.88,-113"/>
<polygon fill="midnightblue" stroke="midnightblue" points="1994.79,-109.5 1984.79,-113 1994.79,-116.5 1994.79,-109.5"/>
</g>
<!-- Node59 -->
<g id="node26" class="node"><title>Node59</title>
<g id="a_node26"><a xlink:href="../../d0/d4c/class_masternode_list.html#a4370755b1dcdbf4a9396108c2b7ae76a" target="_top" xlink:title="MasternodeList::on\l_startButton_clicked">
<polygon fill="white" stroke="black" points="1265.5,-81 1265.5,-111 1371.5,-111 1371.5,-81 1265.5,-81"/>
<text text-anchor="start" x="1273.5" y="-99" font-family="Helvetica,sans-Serif" font-size="10.00">MasternodeList::on</text>
<text text-anchor="middle" x="1318.5" y="-88" font-family="Helvetica,sans-Serif" font-size="10.00">_startButton_clicked</text>
</a>
</g>
</g>
<!-- Node58&#45;&gt;Node59 -->
<g id="edge27" class="edge"><title>Node58&#45;&gt;Node59</title>
<path fill="none" stroke="midnightblue" d="M1202.86,-147.929C1210.09,-145.923 1217.27,-143.624 1224,-141 1241.26,-134.275 1243.42,-128.252 1260,-120 1266.2,-116.916 1272.89,-113.874 1279.44,-111.045"/>
<polygon fill="midnightblue" stroke="midnightblue" points="1201.8,-144.587 1193,-150.485 1203.56,-151.364 1201.8,-144.587"/>
</g>
<!-- Node60 -->
<g id="node27" class="node"><title>Node60</title>
<g id="a_node27"><a xlink:href="../../d0/d4c/class_masternode_list.html#a257b85a08e7d691d1ecb35472043cf90" target="_top" xlink:title="MasternodeList::MasternodeList">
<polygon fill="white" stroke="black" points="1413,-87.5 1413,-106.5 1569,-106.5 1569,-87.5 1413,-87.5"/>
<text text-anchor="middle" x="1491" y="-94.5" font-family="Helvetica,sans-Serif" font-size="10.00">MasternodeList::MasternodeList</text>
</a>
</g>
</g>
<!-- Node59&#45;&gt;Node60 -->
<g id="edge28" class="edge"><title>Node59&#45;&gt;Node60</title>
<path fill="none" stroke="midnightblue" d="M1381.87,-96.3658C1391.93,-96.4248 1402.45,-96.4865 1412.81,-96.5473"/>
<polygon fill="midnightblue" stroke="midnightblue" points="1381.6,-92.8643 1371.58,-96.3055 1381.56,-99.8642 1381.6,-92.8643"/>
</g>
<!-- Node62 -->
<g id="node29" class="node"><title>Node62</title>
<g id="a_node29"><a xlink:href="../../d0/d4c/class_masternode_list.html#a12e7d7a66cc6ce787fb5de9babfd7358" target="_top" xlink:title="MasternodeList::on\l_startAllButton_clicked">
<polygon fill="white" stroke="black" points="1260,-189 1260,-219 1377,-219 1377,-189 1260,-189"/>
<text text-anchor="start" x="1268" y="-207" font-family="Helvetica,sans-Serif" font-size="10.00">MasternodeList::on</text>
<text text-anchor="middle" x="1318.5" y="-196" font-family="Helvetica,sans-Serif" font-size="10.00">_startAllButton_clicked</text>
</a>
</g>
</g>
<!-- Node61&#45;&gt;Node62 -->
<g id="edge30" class="edge"><title>Node61&#45;&gt;Node62</title>
<path fill="none" stroke="midnightblue" d="M1207.21,-200.334C1224.62,-200.912 1243.07,-201.526 1259.8,-202.082"/>
<polygon fill="midnightblue" stroke="midnightblue" points="1207.21,-196.832 1197.1,-199.998 1206.98,-203.828 1207.21,-196.832"/>
</g>
<!-- Node63 -->
<g id="node30" class="node"><title>Node63</title>
<g id="a_node30"><a xlink:href="../../d0/d4c/class_masternode_list.html#a559cf1011eede788d0416c7390e25145" target="_top" xlink:title="MasternodeList::on\l_startMissingButton\l_clicked">
<polygon fill="white" stroke="black" points="1266.5,-129.5 1266.5,-170.5 1370.5,-170.5 1370.5,-129.5 1266.5,-129.5"/>
<text text-anchor="start" x="1274.5" y="-158.5" font-family="Helvetica,sans-Serif" font-size="10.00">MasternodeList::on</text>
<text text-anchor="start" x="1274.5" y="-147.5" font-family="Helvetica,sans-Serif" font-size="10.00">_startMissingButton</text>
<text text-anchor="middle" x="1318.5" y="-136.5" font-family="Helvetica,sans-Serif" font-size="10.00">_clicked</text>
</a>
</g>
</g>
<!-- Node61&#45;&gt;Node63 -->
<g id="edge31" class="edge"><title>Node61&#45;&gt;Node63</title>
<path fill="none" stroke="midnightblue" d="M1194.03,-186.28C1204.05,-184.011 1214.36,-181.543 1224,-179 1237.8,-175.359 1252.62,-170.985 1266.29,-166.751"/>
<polygon fill="midnightblue" stroke="midnightblue" points="1193.14,-182.892 1184.13,-188.478 1194.66,-189.726 1193.14,-182.892"/>
</g>
<!-- Node65 -->
<g id="node32" class="node"><title>Node65</title>
<g id="a_node32"><a xlink:href="../../de/d48/class_c_governance_manager.html#abefe0f159b050f2c3c3c8f382ecca88d" target="_top" xlink:title="CGovernanceManager\l::UpdatedBlockTip">
<polygon fill="white" stroke="black" points="866.5,-232 866.5,-262 980.5,-262 980.5,-232 866.5,-232"/>
<text text-anchor="start" x="874.5" y="-250" font-family="Helvetica,sans-Serif" font-size="10.00">CGovernanceManager</text>
<text text-anchor="middle" x="923.5" y="-239" font-family="Helvetica,sans-Serif" font-size="10.00">::UpdatedBlockTip</text>
</a>
</g>
</g>
<!-- Node64&#45;&gt;Node65 -->
<g id="edge33" class="edge"><title>Node64&#45;&gt;Node65</title>
<path fill="none" stroke="midnightblue" d="M791.228,-228.52C816.065,-232.016 843.278,-235.847 866.456,-239.11"/>
<polygon fill="midnightblue" stroke="midnightblue" points="791.505,-225.024 781.114,-227.096 790.529,-231.956 791.505,-225.024"/>
</g>
<!-- Node66 -->
<g id="node33" class="node"><title>Node66</title>
<g id="a_node33"><a xlink:href="../../d6/dbc/class_c_d_s_notification_interface.html#ac2ced383b75336649c5694e580b18164" target="_top" xlink:title="CDSNotificationInterface\l::UpdatedBlockTip">
<polygon fill="white" stroke="black" points="1428,-269 1428,-299 1554,-299 1554,-269 1428,-269"/>
<text text-anchor="start" x="1436" y="-287" font-family="Helvetica,sans-Serif" font-size="10.00">CDSNotificationInterface</text>
<text text-anchor="middle" x="1491" y="-276" font-family="Helvetica,sans-Serif" font-size="10.00">::UpdatedBlockTip</text>
</a>
</g>
</g>
<!-- Node65&#45;&gt;Node66 -->
<g id="edge34" class="edge"><title>Node65&#45;&gt;Node66</title>
<path fill="none" stroke="midnightblue" d="M990.675,-258.578C1009.17,-261.433 1029.33,-264.189 1048,-266 1183.11,-279.103 1342.35,-282.693 1427.99,-283.66"/>
<polygon fill="midnightblue" stroke="midnightblue" points="991.011,-255.087 980.587,-256.986 989.92,-262.002 991.011,-255.087"/>
</g>
<!-- Node67 -->
<g id="node34" class="node"><title>Node67</title>
<g id="a_node34"><a xlink:href="../../d6/dbc/class_c_d_s_notification_interface.html#a2e9dff307e1373bda9ac9445f7f5a3d7" target="_top" xlink:title="CDSNotificationInterface\l::InitializeCurrentBlockTip">
<polygon fill="white" stroke="black" points="1605,-253 1605,-283 1734,-283 1734,-253 1605,-253"/>
<text text-anchor="start" x="1613" y="-271" font-family="Helvetica,sans-Serif" font-size="10.00">CDSNotificationInterface</text>
<text text-anchor="middle" x="1669.5" y="-260" font-family="Helvetica,sans-Serif" font-size="10.00">::InitializeCurrentBlockTip</text>
</a>
</g>
</g>
<!-- Node66&#45;&gt;Node67 -->
<g id="edge35" class="edge"><title>Node66&#45;&gt;Node67</title>
<path fill="none" stroke="midnightblue" d="M1564.35,-277.442C1577.74,-276.228 1591.63,-274.968 1604.75,-273.779"/>
<polygon fill="midnightblue" stroke="midnightblue" points="1563.87,-273.97 1554.23,-278.359 1564.5,-280.942 1563.87,-273.97"/>
</g>
<!-- Node67&#45;&gt;Node45 -->
<g id="edge36" class="edge"><title>Node67&#45;&gt;Node45</title>
<path fill="none" stroke="midnightblue" d="M1709.87,-248.247C1738.13,-234.066 1774.98,-215.579 1796.99,-204.536"/>
<polygon fill="midnightblue" stroke="midnightblue" points="1708.02,-245.262 1700.65,-252.874 1711.16,-251.518 1708.02,-245.262"/>
</g>
<!-- Node69&#45;&gt;Node50 -->
<g id="edge39" class="edge"><title>Node69&#45;&gt;Node50</title>
<path fill="none" stroke="midnightblue" d="M776.287,-74.3086C871.197,-48.4855 1062.17,-5.73879 1224,-27 1246.32,-29.933 1270.9,-36.6452 1289.24,-42.3766"/>
<polygon fill="midnightblue" stroke="midnightblue" points="775.289,-70.9531 766.577,-76.983 777.147,-77.7018 775.289,-70.9531"/>
</g>
<!-- Node70&#45;&gt;Node69 -->
<g id="edge41" class="edge"><title>Node70&#45;&gt;Node69</title>
<path fill="none" stroke="midnightblue" d="M448.393,-89.599C509.856,-90.1536 600.246,-90.9691 658.242,-91.4924"/>
<polygon fill="midnightblue" stroke="midnightblue" points="448.059,-86.096 438.028,-89.5055 447.996,-93.0957 448.059,-86.096"/>
</g>
<!-- Node71 -->
<g id="node38" class="node"><title>Node71</title>
<g id="a_node38"><a xlink:href="../../de/d48/class_c_governance_manager.html#a78ea36701695fecce0db0f8d517552c4" target="_top" xlink:title="CGovernanceManager\l::ProcessVoteAndRelay">
<polygon fill="white" stroke="black" points="474,-33 474,-63 596,-63 596,-33 474,-33"/>
<text text-anchor="start" x="482" y="-51" font-family="Helvetica,sans-Serif" font-size="10.00">CGovernanceManager</text>
<text text-anchor="middle" x="535" y="-40" font-family="Helvetica,sans-Serif" font-size="10.00">::ProcessVoteAndRelay</text>
</a>
</g>
</g>
<!-- Node70&#45;&gt;Node71 -->
<g id="edge42" class="edge"><title>Node70&#45;&gt;Node71</title>
<path fill="none" stroke="midnightblue" d="M447.47,-71.3404C457.731,-68.5724 468.254,-65.734 478.271,-63.0323"/>
<polygon fill="midnightblue" stroke="midnightblue" points="446.479,-67.9823 437.736,-73.9659 448.303,-74.7408 446.479,-67.9823"/>
</g>
<!-- Node71&#45;&gt;Node68 -->
<g id="edge43" class="edge"><title>Node71&#45;&gt;Node68</title>
<path fill="none" stroke="midnightblue" d="M606.511,-48C636.631,-48 669.733,-48 691.244,-48"/>
<polygon fill="midnightblue" stroke="midnightblue" points="606.432,-44.5001 596.432,-48 606.432,-51.5001 606.432,-44.5001"/>
</g>
<!-- Node72 -->
<g id="node39" class="node"><title>Node72</title>
<g id="a_node39"><a xlink:href="../../d8/dc3/server_8h.html#a8b0acfa41f2702303b7abbd69587d7fc" target="_top" xlink:title="voteraw">
<polygon fill="white" stroke="black" points="690,-0.5 690,-19.5 741,-19.5 741,-0.5 690,-0.5"/>
<text text-anchor="middle" x="715.5" y="-7.5" font-family="Helvetica,sans-Serif" font-size="10.00">voteraw</text>
</a>
</g>
</g>
<!-- Node71&#45;&gt;Node72 -->
<g id="edge44" class="edge"><title>Node71&#45;&gt;Node72</title>
<path fill="none" stroke="midnightblue" d="M606.321,-33.0297C635.867,-26.7397 668.315,-19.832 689.891,-15.2389"/>
<polygon fill="midnightblue" stroke="midnightblue" points="605.484,-29.6294 596.432,-35.1349 606.942,-36.476 605.484,-29.6294"/>
</g>
</g>
</svg>
        <g id="navigator" transform="translate(0 0)" fill="#404254">
                <rect fill="#f2f5e9" fill-opacity="0.5" stroke="#606060" stroke-width=".5" x="0" y="0" width="60" height="60"/>
                <use id="zoomplus" xlink:href="#zoomPlus" x="17" y="9" onmousedown="handleZoom(evt,'in')"/>
                <use id="zoomminus" xlink:href="#zoomMin" x="42" y="9" onmousedown="handleZoom(evt,'out')"/>
                <use id="reset" xlink:href="#resetDef" x="30" y="36" onmousedown="handleReset()"/>
                <g id="arrowUp" xlink:href="#dirArrow" transform="translate(30 24)" onmousedown="handlePan(0,-1)">
                  <use xlink:href="#rim" fill="#404040">
                        <set attributeName="fill" to="#808080" begin="arrowUp.mouseover" end="arrowUp.mouseout"/>
                  </use>
                  <path fill="none" stroke="white" stroke-width="1.5" d="M0,-3.0v7 M-2.5,-0.5L0,-3.0L2.5,-0.5"/>
                </g>
                <g id="arrowRight" xlink:href="#dirArrow" transform="rotate(90) translate(36 -43)" onmousedown="handlePan(1,0)">
                  <use xlink:href="#rim" fill="#404040">
                        <set attributeName="fill" to="#808080" begin="arrowRight.mouseover" end="arrowRight.mouseout"/>
                  </use>
                  <path fill="none" stroke="white" stroke-width="1.5" d="M0,-3.0v7 M-2.5,-0.5L0,-3.0L2.5,-0.5"/>
                </g>
                <g id="arrowDown" xlink:href="#dirArrow" transform="rotate(180) translate(-30 -48)" onmousedown="handlePan(0,1)">
                  <use xlink:href="#rim" fill="#404040">
                        <set attributeName="fill" to="#808080" begin="arrowDown.mouseover" end="arrowDown.mouseout"/>
                  </use>
                  <path fill="none" stroke="white" stroke-width="1.5" d="M0,-3.0v7 M-2.5,-0.5L0,-3.0L2.5,-0.5"/>
                </g>
                <g id="arrowLeft" xlink:href="#dirArrow" transform="rotate(270) translate(-36 17)" onmousedown="handlePan(-1,0)">
                  <use xlink:href="#rim" fill="#404040">
                        <set attributeName="fill" to="#808080" begin="arrowLeft.mouseover" end="arrowLeft.mouseout"/>
                  </use>
                  <path fill="none" stroke="white" stroke-width="1.5" d="M0,-3.0v7 M-2.5,-0.5L0,-3.0L2.5,-0.5"/>
                </g>
        </g>
        <svg viewBox="0 0 15 15" width="100%" height="30px" preserveAspectRatio="xMaxYMin meet">
         <g id="arrow_out" transform="scale(0.3 0.3)">
          <a xlink:href="class_c_governance_object_vote_file_a0bfd2b7928e2e36d34a863726b84f01f_icgraph_org.svg" target="_base">
           <rect id="button" ry="5" rx="5" y="6" x="6" height="38" width="38"
                fill="#f2f5e9" fill-opacity="0.5" stroke="#606060" stroke-width="1.0"/>
           <path id="arrow"
             d="M 11.500037,31.436501 C 11.940474,20.09759 22.043105,11.32322 32.158766,21.979434 L 37.068811,17.246167 C 37.068811,17.246167 37.088388,32 37.088388,32 L 22.160133,31.978069 C 22.160133,31.978069 26.997745,27.140456 26.997745,27.140456 C 18.528582,18.264221 13.291696,25.230495 11.500037,31.436501 z"
             style="fill:#404040;"/>
          </a>
         </g>
        </svg>
</svg>
