<?xml version="1.0" encoding="UTF-8" standalone="no"?>
<!DOCTYPE svg PUBLIC "-//W3C//DTD SVG 1.1//EN"
 "http://www.w3.org/Graphics/SVG/1.1/DTD/svg11.dtd">
<!-- Generated by graphviz version 2.38.0 (20140413.2041)
 -->
<!-- Title: CMasternodePayee::GetPayee Pages: 1 -->
<svg width="343pt" height="235pt"
 viewBox="0.00 0.00 343.00 235.00" xmlns="http://www.w3.org/2000/svg" xmlns:xlink="http://www.w3.org/1999/xlink">
<g id="graph0" class="graph" transform="scale(1 1) rotate(0) translate(4 231)">
<title>CMasternodePayee::GetPayee</title>
<polygon fill="white" stroke="none" points="-4,4 -4,-231 339,-231 339,4 -4,4"/>
<!-- Node8 -->
<g id="node1" class="node"><title>Node8</title>
<polygon fill="#bfbfbf" stroke="black" points="0,-104 0,-123 152,-123 152,-104 0,-104"/>
<text text-anchor="middle" x="76" y="-111" font-family="Helvetica,sans-Serif" font-size="10.00">CMasternodePayee::GetPayee</text>
</g>
<!-- Node9 -->
<g id="node2" class="node"><title>Node9</title>
<g id="a_node2"><a xlink:href="../../de/d8d/class_c_masternode_block_payees.html#abce1347dcf4dc53a329f2dc338a77dc3" target="_top" xlink:title="CMasternodeBlockPayees\l::AddPayee">
<polygon fill="white" stroke="black" points="195,-196.5 195,-226.5 328,-226.5 328,-196.5 195,-196.5"/>
<text text-anchor="start" x="203" y="-214.5" font-family="Helvetica,sans-Serif" font-size="10.00">CMasternodeBlockPayees</text>
<text text-anchor="middle" x="261.5" y="-203.5" font-family="Helvetica,sans-Serif" font-size="10.00">::AddPayee</text>
</a>
</g>
</g>
<!-- Node8&#45;&gt;Node9 -->
<g id="edge1" class="edge"><title>Node8&#45;&gt;Node9</title>
<path fill="none" stroke="midnightblue" d="M97.0293,-129.271C118.523,-145.6 154.154,-170.99 188,-187.5 194.673,-190.755 201.896,-193.735 209.109,-196.403"/>
<polygon fill="midnightblue" stroke="midnightblue" points="99.0511,-126.41 88.9918,-123.084 94.7814,-131.957 99.0511,-126.41"/>
</g>
<!-- Node10 -->
<g id="node3" class="node"><title>Node10</title>
<g id="a_node3"><a xlink:href="../../de/d8d/class_c_masternode_block_payees.html#a1b7d7842fa0102e17aaf4637b5815d04" target="_top" xlink:title="CMasternodeBlockPayees\l::GetBestPayee">
<polygon fill="white" stroke="black" points="195,-147.5 195,-177.5 328,-177.5 328,-147.5 195,-147.5"/>
<text text-anchor="start" x="203" y="-165.5" font-family="Helvetica,sans-Serif" font-size="10.00">CMasternodeBlockPayees</text>
<text text-anchor="middle" x="261.5" y="-154.5" font-family="Helvetica,sans-Serif" font-size="10.00">::GetBestPayee</text>
</a>
</g>
</g>
<!-- Node8&#45;&gt;Node10 -->
<g id="edge2" class="edge"><title>Node8&#45;&gt;Node10</title>
<path fill="none" stroke="midnightblue" d="M122.649,-125.69C147.332,-132.281 178.031,-140.478 204.188,-147.463"/>
<polygon fill="midnightblue" stroke="midnightblue" points="123.381,-122.262 112.816,-123.064 121.575,-129.026 123.381,-122.262"/>
</g>
<!-- Node11 -->
<g id="node4" class="node"><title>Node11</title>
<g id="a_node4"><a xlink:href="../../de/d8d/class_c_masternode_block_payees.html#a1026e555a9484567ea6cbfe8f90b428e" target="_top" xlink:title="CMasternodeBlockPayees\l::GetRequiredPaymentsString">
<polygon fill="white" stroke="black" points="188,-98.5 188,-128.5 335,-128.5 335,-98.5 188,-98.5"/>
<text text-anchor="start" x="196" y="-116.5" font-family="Helvetica,sans-Serif" font-size="10.00">CMasternodeBlockPayees</text>
<text text-anchor="middle" x="261.5" y="-105.5" font-family="Helvetica,sans-Serif" font-size="10.00">::GetRequiredPaymentsString</text>
</a>
</g>
</g>
<!-- Node8&#45;&gt;Node11 -->
<g id="edge3" class="edge"><title>Node8&#45;&gt;Node11</title>
<path fill="none" stroke="midnightblue" d="M162.175,-113.5C170.747,-113.5 179.396,-113.5 187.821,-113.5"/>
<polygon fill="midnightblue" stroke="midnightblue" points="162.166,-110 152.166,-113.5 162.166,-117 162.166,-110"/>
</g>
<!-- Node12 -->
<g id="node5" class="node"><title>Node12</title>
<g id="a_node5"><a xlink:href="../../de/d8d/class_c_masternode_block_payees.html#a5faa2a615fd40387b03c3f14b0c7e578" target="_top" xlink:title="CMasternodeBlockPayees\l::HasPayeeWithVotes">
<polygon fill="white" stroke="black" points="195,-49.5 195,-79.5 328,-79.5 328,-49.5 195,-49.5"/>
<text text-anchor="start" x="203" y="-67.5" font-family="Helvetica,sans-Serif" font-size="10.00">CMasternodeBlockPayees</text>
<text text-anchor="middle" x="261.5" y="-56.5" font-family="Helvetica,sans-Serif" font-size="10.00">::HasPayeeWithVotes</text>
</a>
</g>
</g>
<!-- Node8&#45;&gt;Node12 -->
<g id="edge4" class="edge"><title>Node8&#45;&gt;Node12</title>
<path fill="none" stroke="midnightblue" d="M122.649,-101.31C147.332,-94.7192 178.031,-86.5218 204.188,-79.537"/>
<polygon fill="midnightblue" stroke="midnightblue" points="121.575,-97.9745 112.816,-103.936 123.381,-104.738 121.575,-97.9745"/>
</g>
<!-- Node13 -->
<g id="node6" class="node"><title>Node13</title>
<g id="a_node6"><a xlink:href="../../de/d8d/class_c_masternode_block_payees.html#a6721f357d17e653ceb93c28ffd3ae528" target="_top" xlink:title="CMasternodeBlockPayees\l::IsTransactionValid">
<polygon fill="white" stroke="black" points="195,-0.5 195,-30.5 328,-30.5 328,-0.5 195,-0.5"/>
<text text-anchor="start" x="203" y="-18.5" font-family="Helvetica,sans-Serif" font-size="10.00">CMasternodeBlockPayees</text>
<text text-anchor="middle" x="261.5" y="-7.5" font-family="Helvetica,sans-Serif" font-size="10.00">::IsTransactionValid</text>
</a>
</g>
</g>
<!-- Node8&#45;&gt;Node13 -->
<g id="edge5" class="edge"><title>Node8&#45;&gt;Node13</title>
<path fill="none" stroke="midnightblue" d="M97.4562,-97.7849C119.048,-81.7523 154.526,-56.9556 188,-40.5 195.408,-36.8583 203.48,-33.5141 211.46,-30.537"/>
<polygon fill="midnightblue" stroke="midnightblue" points="95.2544,-95.0614 89.3639,-103.868 99.4605,-100.657 95.2544,-95.0614"/>
</g>
</g>
</svg>
